<svg width="98" height="24" viewBox="0 0 98 24" fill="none" xmlns="http://www.w3.org/2000/svg">
<path d="M17.9622 0H0V15.0188L8.98109 23.9999V5.96224L17.9622 14.9433V0Z" fill="#009286"/>
<path d="M17.9622 15.0189L8.98108 24V5.96234L17.9622 15.0189Z" fill="#F3C000"/>
<path d="M93.8863 1.28357C90.2636 1.28357 90.263 3.92448 90.263 6.71692C90.263 9.50936 90.2636 12.1503 93.8863 12.1503C97.5089 12.1503 97.5095 9.50936 97.5095 6.71692C97.5095 3.92448 97.5089 1.28357 93.8863 1.28357ZM27.0941 1.5091L24.2256 11.9999H26.3394L26.9437 9.6606H29.9626L30.5655 11.9999H32.9048L30.0378 1.5091H27.0941ZM34.7164 1.5091V11.9999H38.5651C39.4708 11.9999 41.811 11.8496 41.811 9.20806C41.811 7.77411 41.4339 6.79298 39.849 6.56657C41.0566 6.34015 41.6607 5.43332 41.6607 4.22578C41.6607 1.96163 40.3022 1.5091 38.6418 1.5091H34.7164ZM44.3773 1.5091V11.9999H46.4145V4.30242H46.4896L49.3581 11.9999H52.2266V1.5091H50.188V8.75406L47.3962 1.5091H44.3773ZM60.6788 1.5091L57.8103 11.9999H59.9241L60.5285 9.6606H63.5473L64.1502 11.9999H66.4896L63.5473 1.5091H60.6788ZM68.226 1.5091V11.9999H70.3398V3.92507H70.4149L72.3017 11.9999H74.414L76.4526 3.92507V11.9999H78.565V1.5091H75.1688L73.4338 8.67888L71.7725 1.5091H68.226ZM81.4335 1.58427V11.9999H83.6224V7.62199H84.2253C85.8857 7.62199 85.8114 8.67976 85.8114 9.96278C85.8114 10.642 85.7351 11.3207 86.0369 11.9999H88.1507C87.9243 11.5471 87.9237 9.58513 87.9237 8.90588C87.9237 7.0191 86.4898 6.86727 86.0369 6.86727C87.4709 6.64086 87.9989 5.66091 87.9989 4.30242C87.9989 2.49111 87.0187 1.58428 85.5092 1.58428L81.4335 1.58427ZM93.8863 2.94334C95.0938 2.94334 95.2453 4.07512 95.2453 6.79209C95.2453 9.50906 95.1693 10.6408 93.8863 10.6408C92.6787 10.6408 92.5272 9.50906 92.5272 6.79209C92.5272 4.07512 92.6787 2.94334 93.8863 2.94334ZM36.9054 3.0937H38.2644C39.0192 3.0937 39.5469 3.69806 39.5469 4.45277C39.5469 5.4339 38.8676 5.81184 38.4148 5.81184H36.9054V3.0937ZM83.6224 3.0937H84.6027C85.2819 3.0937 85.7348 3.47164 85.7348 4.45277C85.7348 5.13201 85.5083 5.9622 84.6027 5.9622H83.6224V3.0937ZM28.3765 3.5477L29.5086 8.07599H27.3963L28.3765 3.5477ZM61.9613 3.5477L63.0933 8.07599H60.981L61.9613 3.5477ZM55.7098 4.54122L54.3227 5.92977L55.7113 7.31685L57.0984 5.9283L55.7098 4.54122ZM36.9054 7.39645H38.1878C39.3199 7.39645 39.622 8.00022 39.622 8.90588C39.622 10.3398 38.5654 10.4153 38.1126 10.4153H36.9054V7.39645Z" fill="#868686"/>
</svg>
