<svg width="81" height="24" viewBox="0 0 81 24" fill="none" xmlns="http://www.w3.org/2000/svg">
<g clip-path="url(#clip0_45_4227)">
<path d="M41.9361 0.0856664C42.198 -0.0318426 42.7268 -0.0795807 42.7868 0.286411C42.5481 0.45533 41.9581 0.304772 42.0683 0.751551C42.1368 1.09796 42.575 0.911902 42.8186 0.982897C42.8015 1.05879 42.766 1.20935 42.7476 1.28401C42.3535 1.3342 41.952 1.32563 41.5566 1.29503C41.4208 1.1359 41.5725 1.01595 41.6778 0.899662C41.635 0.615681 41.6007 0.205624 41.9361 0.0856664Z" fill="#233741"/>
<path d="M9.05677 0.821369C9.36279 0.832385 9.97114 0.60716 9.94299 1.1029C9.96379 2.2939 9.93687 3.48491 9.95156 4.67713C9.96624 4.81545 9.94911 5.10433 10.1731 5.06271C11.2588 5.09209 12.3458 5.06883 13.4315 5.07128C13.2271 4.56085 13.0411 3.96963 12.5368 3.67464C12.1071 3.39922 11.5808 3.46899 11.0973 3.46287C11.0752 3.20705 10.8892 2.84595 11.2001 2.70396C11.9712 2.57054 12.877 2.63297 13.4438 3.23765C13.9444 3.70156 14.1158 4.37969 14.4316 4.95989C14.7755 5.19491 15.2505 5.06271 15.6361 4.99294C15.6483 4.25973 15.6287 3.5253 15.6507 2.79087C15.9262 2.78108 16.2016 2.77863 16.477 2.78108C16.5198 3.51184 16.4929 4.24382 16.499 4.97458C16.9703 5.08964 17.4562 5.08964 17.9373 5.06638C18.0058 3.64893 17.9397 2.22903 17.974 0.811576C18.2482 0.796888 18.526 0.768735 18.7978 0.825041C18.8627 1.49093 18.8088 2.16171 18.8259 2.83004C18.8088 3.82397 18.8651 4.82157 18.7892 5.8155C18.4954 5.89752 18.1919 5.9477 17.8871 5.93791C17.2751 5.91832 16.6386 6.0138 16.0547 5.77878C15.7377 5.87915 15.4084 5.9526 15.0742 5.93791C13.3189 5.92812 11.5649 5.9428 9.81079 5.93056C9.38115 5.96116 9.03474 5.58048 9.058 5.16186C9.0482 3.71503 9.0531 2.2682 9.05677 0.821369Z" fill="#233741"/>
<path d="M19.6926 0.8238C19.9999 0.834817 20.6156 0.602247 20.5923 1.10166C20.5776 2.71129 20.656 4.32826 20.5458 5.93544C20.2618 5.93544 19.9778 5.93177 19.6939 5.92076C19.6694 4.22299 19.6718 2.52279 19.6926 0.8238Z" fill="#233741"/>
<path d="M29.8351 0.811535C30.1141 0.795623 30.3932 0.791951 30.6735 0.800519C30.7213 1.51781 30.6907 2.23756 30.6992 2.95485C31.3627 2.62681 32.124 2.59376 32.8462 2.69413C33.2538 2.78471 33.6614 3.00626 33.861 3.38817C34.1743 3.96837 34.0642 4.65016 34.0666 5.28055C34.0299 5.52047 34.0544 5.96235 33.6933 5.92563C31.8964 5.94888 30.0982 5.92685 28.3013 5.93664C27.972 5.96847 27.5473 5.82281 27.5081 5.44457C27.4469 4.78481 27.5069 4.11893 27.4787 3.45671C27.1678 3.48731 26.7786 3.38327 26.5485 3.65623C26.4077 3.79945 26.3844 4.00631 26.3722 4.19726C26.3355 4.93047 26.3942 5.66613 26.3477 6.39934C26.2461 6.64047 25.9389 6.59029 25.7296 6.63435C24.8434 6.68821 23.7662 6.78981 23.1101 6.0615C22.5409 5.35032 22.618 4.36251 22.7735 3.52036C23.0305 3.51547 23.2864 3.51669 23.5434 3.52281C23.5765 4.16544 23.3757 4.92558 23.8311 5.46293C24.2546 5.89013 24.9168 5.82281 25.4664 5.78119C25.4933 5.02962 25.4077 4.26336 25.5949 3.52771C25.7418 3.04788 26.2204 2.76512 26.6917 2.68923C27.2401 2.61701 27.8043 2.63905 28.3417 2.77614C28.3564 3.53872 28.3209 4.30376 28.3686 5.06512C28.8485 5.07858 29.3283 5.07613 29.8093 5.07369C29.8277 3.65256 29.7787 2.23144 29.8351 0.811535ZM30.6968 3.73457C30.6992 4.18502 30.698 4.63548 30.7017 5.08593C31.5242 5.1202 32.348 5.09939 33.1706 5.10062C33.2832 4.59875 33.2918 3.90349 32.7777 3.61829C32.1118 3.349 31.3443 3.46161 30.6968 3.73457Z" fill="#233741"/>
<path d="M48.8079 0.810333C49.087 0.795644 49.3685 0.795644 49.6488 0.810333C49.7015 2.20698 49.6562 3.60485 49.6733 5.00149C50.1997 5.11043 50.7505 5.11288 51.2768 5.00149C51.3013 4.30623 51.2572 3.61097 51.2964 2.91693C51.4714 2.64396 51.8729 2.8288 52.1471 2.78595C52.2047 3.51794 52.1679 4.25237 52.1814 4.98558C52.6514 5.09452 53.1349 5.0835 53.6148 5.06881C53.6356 4.30623 53.6221 3.54119 53.6246 2.77739C53.9073 2.77004 54.2207 2.67946 54.4826 2.82757C54.5548 3.64157 54.5022 4.46168 54.5144 5.2769C54.5193 5.53028 54.4802 5.93055 54.135 5.91218C53.3173 5.94523 52.4837 5.99909 51.682 5.80202C50.8876 6.00276 50.0491 5.97951 49.2486 5.82528C48.3966 6.01501 47.519 5.90729 46.6536 5.93789C46.0856 5.95013 45.4197 5.91341 45.0207 5.45072C44.6559 5.00394 44.7465 4.38824 44.7796 3.85578C45.017 3.8215 45.2557 3.79702 45.4956 3.77499C45.5948 4.16913 45.4699 4.7224 45.9069 4.93906C46.3341 5.119 46.809 5.07004 47.2632 5.07616C47.7687 5.06147 48.2852 5.12879 48.781 4.99047C48.8006 3.59628 48.7516 2.20208 48.8079 0.810333Z" fill="#233741"/>
<path d="M31.6785 1.1824C31.949 1.13711 32.2771 1.00125 32.5097 1.21545C32.517 1.45904 32.6639 1.87767 32.353 1.97192C32.1265 2.01598 31.9013 1.94254 31.681 1.90215C31.6773 1.66223 31.6761 1.42232 31.6785 1.1824Z" fill="#233741"/>
<path d="M15.0277 1.54107C15.2468 1.48477 15.472 1.42356 15.7009 1.45906C15.9249 1.63655 15.7989 1.96337 15.8527 2.20573C15.5871 2.31223 15.297 2.31712 15.0314 2.21063C15.0289 1.98785 15.0277 1.76385 15.0277 1.54107Z" fill="#233741"/>
<path d="M16.2542 2.18736C16.3019 1.94377 16.1917 1.6194 16.4402 1.45783C16.6593 1.42355 16.8747 1.49088 17.0853 1.54229C17.0841 1.76506 17.0828 1.98906 17.0804 2.21184C16.8111 2.31466 16.5149 2.32201 16.2542 2.18736Z" fill="#233741"/>
<path d="M51.2695 2.22902C51.3233 1.98176 51.1777 1.62678 51.447 1.47133C51.6514 1.44685 51.8582 1.45052 52.0663 1.44318C52.1716 1.7039 52.2475 2.00746 52.0786 2.26207C51.8117 2.32817 51.5339 2.28532 51.2695 2.22902Z" fill="#233741"/>
<path d="M41.7341 1.78714C42.034 1.70513 42.3461 1.70023 42.646 1.78836C42.6387 3.03445 42.6448 4.28176 42.6436 5.52784C42.657 5.69064 42.6264 5.98686 42.3902 5.93668C42.1797 5.90975 41.8688 6.03582 41.75 5.79713C41.7133 4.46169 41.7488 3.1238 41.7341 1.78714Z" fill="#233741"/>
<path d="M46.7319 2.28533C47.0049 2.06255 47.3782 2.15313 47.7013 2.15558C47.7038 2.26574 47.7099 2.48485 47.7136 2.59501C47.5116 2.61337 47.3084 2.61337 47.1162 2.67457C47.0648 2.8337 47.0979 3.00017 47.115 3.16297C47.3439 3.16664 47.5716 3.17032 47.8017 3.17399C47.8029 3.28415 47.8042 3.50448 47.8054 3.61465C47.3635 3.63546 46.9167 3.66973 46.4773 3.61465C46.2508 3.48367 46.4455 3.24498 46.5581 3.10422C46.5263 2.82636 46.4932 2.48852 46.7319 2.28533Z" fill="#233741"/>
<path d="M3.93406 2.81408C4.52161 2.58518 5.17525 2.63292 5.7885 2.71003C6.10431 2.73696 6.0174 3.10418 6.03454 3.32083C6.01863 4.18991 6.06269 5.06021 5.99782 5.92684C5.72363 5.88522 5.33193 6.06516 5.15077 5.79832C5.1116 5.01859 5.15322 4.23642 5.13119 3.45548C4.77254 3.46282 4.24987 3.4004 4.10298 3.82759C3.90101 4.71381 4.09074 5.63552 3.98547 6.53519C3.02337 6.67474 1.93151 6.84978 1.05509 6.31854C0.176223 5.69305 0.234977 4.44941 0.447963 3.51056C0.693997 3.51179 0.941255 3.51423 1.18851 3.52158C1.18974 4.15441 1.04163 4.88272 1.46025 5.42375C1.87398 5.90603 2.58638 5.82402 3.15434 5.77261C3.16413 5.16303 3.13476 4.55101 3.16781 3.94143C3.18005 3.46037 3.47504 2.98544 3.93406 2.81408Z" fill="#233741"/>
<path d="M36.1413 2.8141C36.7803 2.5595 37.4988 2.63539 38.1549 2.7786C38.1769 3.54364 38.1598 4.30867 38.1672 5.0737C38.6641 5.07492 39.1599 5.07615 39.6568 5.07493C39.8147 4.31724 39.6691 3.54119 39.7217 2.77615C39.9983 2.77615 40.2762 2.78228 40.5541 2.79819C40.6042 3.76764 40.5798 4.73831 40.5675 5.70776C40.4451 5.7861 40.3435 5.92319 40.1819 5.91218C39.5185 5.96359 38.8514 5.92197 38.1867 5.93421C38.1635 6.36875 38.1121 6.8547 37.7681 7.16438C37.2932 7.60382 36.6004 7.55853 36.0006 7.55608C35.8329 7.53405 35.5942 7.58301 35.5097 7.39206C35.4926 7.19743 35.484 7.00403 35.484 6.80941C35.9969 6.77513 36.5281 6.82654 37.0227 6.66007C37.3213 6.55113 37.2981 6.19983 37.3299 5.94155C36.6958 5.9489 35.9124 5.99786 35.5085 5.3993C35.0079 4.58041 35.1694 3.21192 36.1413 2.8141ZM36.3494 3.65013C36.0557 3.92799 36.1254 4.38946 36.183 4.7481C36.3727 5.19366 36.9382 5.08839 37.325 5.11409C37.3311 4.56082 37.3299 4.00755 37.3275 3.45428C36.9994 3.48121 36.6077 3.39185 36.3494 3.65013Z" fill="#233741"/>
<path d="M7.20723 2.79209C7.48387 2.78108 7.76173 2.7774 8.03836 2.7774C8.07386 3.89741 8.04326 5.01742 8.05673 6.13865C8.06285 6.54871 8.03959 7.03344 7.68828 7.31007C7.29904 7.63445 6.75801 7.54876 6.29164 7.52795C6.27206 7.29661 6.25614 7.06404 6.24146 6.83147C6.55971 6.7617 7.09095 6.8841 7.1803 6.4618C7.22437 5.2402 7.16684 4.01492 7.20723 2.79209Z" fill="#233741"/>
<path d="M11.9603 6.56218C12.2369 6.54749 12.5148 6.54871 12.7914 6.56707C12.7963 6.81188 12.7987 7.05792 12.8012 7.30273C12.5747 7.34679 12.3458 7.408 12.1145 7.37495C11.8085 7.23051 11.9847 6.82657 11.9603 6.56218Z" fill="#233741"/>
<path d="M27.6453 6.56217C27.9109 6.51443 28.1814 6.55483 28.4458 6.59522C28.4434 6.81065 28.4422 7.02486 28.4422 7.2403C28.3883 7.27579 28.2806 7.34801 28.2267 7.38351C28.1092 7.38351 27.8742 7.38106 27.7567 7.38106C27.7028 7.34312 27.5951 7.266 27.5413 7.22806C27.567 7.0065 27.5143 6.75802 27.6453 6.56217Z" fill="#233741"/>
<path d="M39.2774 6.5609C39.5455 6.51438 39.8172 6.556 40.084 6.59517C40.0375 6.83876 40.1648 7.17782 39.931 7.34674C39.7511 7.37489 39.5712 7.39203 39.3912 7.39692C39.3361 7.35408 39.226 7.26718 39.1709 7.22433C39.1966 7.00278 39.1391 6.75307 39.2774 6.5609Z" fill="#233741"/>
<path d="M53.1105 6.64414C53.3626 6.52908 53.6466 6.50949 53.9159 6.5707C54.0652 6.74941 54.0334 7.01136 53.9844 7.22189C53.8645 7.44834 53.5475 7.34797 53.343 7.40183C53.2892 7.36143 53.1802 7.27942 53.1252 7.23903C53.1203 7.04073 53.1154 6.84244 53.1105 6.64414Z" fill="#233741"/>
<path d="M1.41751 7.24518C1.61826 7.0016 1.94141 7.1289 2.19356 7.19622C2.1397 7.41655 2.2768 7.75194 2.02954 7.88169C1.83247 7.89148 1.63539 7.89393 1.43832 7.88781C1.42241 7.6736 1.40405 7.45939 1.41751 7.24518Z" fill="#233741"/>
<path d="M2.66235 7.17294C2.89248 7.13132 3.12382 7.10194 3.35639 7.07501C3.46778 7.33696 3.46533 7.61971 3.39801 7.8939C3.1581 7.89023 2.9194 7.88411 2.68071 7.87309C2.67092 7.6393 2.6648 7.40551 2.66235 7.17294Z" fill="#233741"/>
<path d="M23.9217 7.10687C24.1298 7.08116 24.3379 7.1387 24.5423 7.17542C24.4946 7.40309 24.6133 7.7091 24.404 7.87313C24.2155 7.89271 24.0258 7.90495 23.8373 7.90985C23.7748 7.64668 23.6047 7.27212 23.9217 7.10687Z" fill="#233741"/>
<path d="M25.0747 7.195C25.2559 6.99303 25.5509 7.15583 25.7785 7.16562C25.7736 7.40309 25.7675 7.64055 25.7577 7.87802C25.5264 7.88659 25.295 7.89149 25.0649 7.89516C25.0404 7.66993 24.8691 7.37738 25.0747 7.195Z" fill="#233741"/>
<path d="M36.2357 9.42767C38.4868 9.05923 40.9153 9.6786 42.6706 11.145C42.4466 11.5808 42.2568 12.0496 41.9263 12.4168C41.6497 12.6836 41.2935 12.396 41.0352 12.2479C39.6876 11.3323 37.9739 10.9516 36.3716 11.2833C35.1586 11.5281 34.0569 12.2577 33.3494 13.2724C32.3555 14.6666 32.1254 16.5174 32.5526 18.1552C32.9504 19.7171 34.0667 21.1112 35.5674 21.7343C37.5418 22.5691 39.936 22.0991 41.5628 20.7416C41.7293 20.6057 42.0145 20.3756 42.1785 20.6424C42.4759 21.017 43.0023 21.3793 42.9215 21.913C40.2775 24.3782 35.7938 24.7259 32.9394 22.4234C29.8829 19.9827 29.3969 15.0204 31.8206 11.9798C32.8965 10.6064 34.5172 9.69574 36.2357 9.42767Z" fill="#233741"/>
<path d="M5.13003 10.156C5.23652 9.86953 5.43849 9.54271 5.77755 9.52313C6.34674 9.49742 6.91837 9.4962 7.48755 9.52435C7.91597 9.54026 8.06775 9.99316 8.20852 10.3224C9.89526 14.6801 11.5734 19.0414 13.2663 23.3953C13.2369 23.4737 13.1782 23.6303 13.1476 23.7074C12.62 23.8641 12.0618 23.8029 11.5196 23.8017C11.216 23.8335 11.0765 23.5312 11.0006 23.2949C10.5783 22.1064 10.1425 20.9227 9.72512 19.7329C7.66626 19.7329 5.60618 19.7244 3.5461 19.7378C3.13849 20.8933 2.7064 22.0415 2.29635 23.1958C2.20087 23.4149 2.14824 23.7234 1.87527 23.7895C1.37953 23.8237 0.881342 23.8152 0.385601 23.7944C0.128549 23.8103 -0.0954516 23.4945 0.0428663 23.2619C1.72716 18.8896 3.44328 14.5283 5.13003 10.156ZM6.63806 11.5257C5.74083 13.6788 4.9709 15.8796 4.18261 18.0744C5.79836 18.0817 7.41411 18.0793 9.02986 18.0756C8.26238 15.8809 7.50347 13.6837 6.63806 11.5257Z" fill="#233741"/>
<path d="M15.958 9.5782C16.1306 9.46681 16.3546 9.52801 16.5493 9.5072C17.9765 9.51577 19.405 9.50475 20.8322 9.5121C22.6316 9.56596 24.4799 10.189 25.7492 11.5036C27.0908 12.8452 27.6783 14.789 27.6416 16.6544C27.6845 18.5248 27.0957 20.4784 25.7443 21.8163C24.4065 23.1786 22.4602 23.7931 20.5825 23.8054C19.1969 23.8078 17.8113 23.8041 16.4256 23.8078C16.2408 23.7894 16.0156 23.8396 15.8773 23.6817C15.6765 23.4798 15.6949 23.1615 15.679 22.8996C15.6814 18.7402 15.6802 14.5809 15.679 10.4216C15.6949 10.1315 15.6949 9.76425 15.958 9.5782ZM17.6607 11.2833C17.6607 14.8673 17.6607 18.4526 17.6607 22.0366C19.3609 21.9693 21.1615 22.279 22.7564 21.5274C24.1727 20.9105 25.1262 19.5004 25.3637 17.996C25.573 16.6557 25.5069 15.2296 24.9438 13.9787C24.475 12.9297 23.5814 12.0851 22.5079 11.6713C20.9693 11.0397 19.2752 11.3678 17.6607 11.2833Z" fill="#233741"/>
<path d="M45.5996 10.3004C45.5653 9.95153 45.7722 9.51699 46.1664 9.51699C47.6328 9.49863 49.1004 9.51821 50.5668 9.50842C51.644 9.48639 52.7726 9.74711 53.6208 10.4399C55.4165 11.9027 55.2011 15.2737 53.01 16.2566C53.7151 16.521 54.3357 17.0094 54.7249 17.6582C55.5242 18.9532 55.4777 20.7097 54.6784 21.9938C53.8877 23.2337 52.3588 23.7723 50.9438 23.8017C49.3501 23.8066 47.7564 23.8127 46.1627 23.7992C45.8689 23.8225 45.5678 23.5936 45.6045 23.2815C45.5947 18.9544 45.6045 14.6274 45.5996 10.3004ZM47.6597 11.2833C47.6634 12.6995 47.6597 14.1158 47.6609 15.532C48.5924 15.5283 49.5227 15.5357 50.4542 15.5295C51.0344 15.5295 51.6513 15.3986 52.0883 14.991C52.9966 14.2002 52.9672 12.6334 52.1067 11.8194C51.7664 11.4877 51.2964 11.2906 50.8214 11.2882C49.7675 11.2784 48.7136 11.2906 47.6597 11.2833ZM47.6609 17.1722C47.6597 18.7929 47.6646 20.4147 47.6585 22.0354C48.7565 22.0317 49.8532 22.0415 50.95 22.0317C51.7285 22.0366 52.5449 21.6657 52.9219 20.9607C53.376 20.1063 53.3503 19.0034 52.835 18.1821C52.4298 17.5517 51.693 17.193 50.9536 17.1783C49.8569 17.1624 48.7589 17.1783 47.6609 17.1722Z" fill="#233741"/>
<path d="M61.5282 1.20812C62.5038 0.884975 63.51 1.26321 64.4207 1.60961C66.5334 2.46033 68.5286 3.57055 70.5079 4.68811C72.8715 6.03089 75.1666 7.49608 77.3773 9.07878C78.1325 9.65654 78.9453 10.1804 79.5806 10.8965C80.195 11.5807 80.3884 12.6151 80.0237 13.4646C79.6601 14.341 78.8437 14.8894 78.1215 15.45C74.573 18.089 70.7649 20.3707 66.8284 22.3781C65.6472 22.9546 64.4549 23.5361 63.1831 23.88C62.3814 24.1126 61.4291 24.0257 60.7926 23.4479C60.265 22.9167 60.0337 22.1725 59.8709 21.4601C59.2686 18.5101 59.5367 15.483 59.3776 12.4976C59.5428 9.46314 59.2539 6.3773 59.9247 3.38694C60.1377 2.4995 60.5722 1.48843 61.5282 1.20812ZM62.6458 3.12989C62.5307 3.92185 62.6311 4.72605 62.5919 5.52413C62.6188 5.83137 62.5221 6.19859 62.7217 6.46053C63.2615 6.52541 63.8074 6.48746 64.3509 6.51562C64.3484 6.78124 64.346 7.04686 64.346 7.3137C63.4879 7.32349 62.6299 7.32349 61.7718 7.31247C61.7559 6.26713 61.8134 5.21935 61.7571 4.17523C61.7963 3.73212 60.8648 3.73335 60.8978 4.18012C60.8672 5.51312 60.8795 6.84856 60.9015 8.18278C62.0264 8.31987 63.1623 8.20971 64.2934 8.25377C64.5798 8.22072 64.9482 8.3113 65.1808 8.11913C65.2873 7.58789 65.2163 7.03951 65.2395 6.50215C65.7683 6.48746 66.3033 6.53275 66.8296 6.46053C67.0328 6.29651 66.9447 5.99662 66.9777 5.77017C66.9532 5.17895 67.0462 4.57182 66.9067 3.99285C66.6962 3.77129 66.3008 3.81291 66.0939 4.01733C66.0095 4.53755 66.0609 5.06879 66.0474 5.5939C65.7769 5.59513 65.5064 5.59635 65.2371 5.59758C65.2151 4.87661 65.2518 4.15442 65.2285 3.43468C65.2114 3.29269 65.2298 3.0491 65.0266 3.04053C64.4978 2.96342 63.9604 3.01115 63.4279 2.99891C63.1648 3.0136 62.8747 2.97443 62.6458 3.12989ZM67.8272 4.764C67.7599 6.03579 67.815 7.31125 67.7941 8.58427C67.8003 9.02248 67.7476 9.47293 67.8627 9.90257C68.1112 9.9907 68.3939 10.0017 68.6351 9.88176C68.7134 9.53413 68.6926 9.17426 68.6926 8.82051C68.6681 7.47283 68.7085 6.12392 68.6706 4.77624C68.389 4.77134 68.1075 4.76767 67.8272 4.764ZM69.5519 5.62818C69.4601 7.33818 69.5311 9.0543 69.5139 10.7668C68.6693 10.7876 67.8235 10.7802 66.9789 10.7753C66.9814 10.2196 66.9704 9.66388 66.9385 9.10938C66.0156 9.02248 65.089 9.08123 64.1648 9.06287C63.6813 9.06532 63.1942 9.0286 62.7155 9.10694C62.5197 9.42152 62.6176 9.82301 62.5919 10.1743C62.6372 11.2148 62.5307 12.2625 62.6433 13.2981C63.1562 13.5747 63.789 13.2797 64.3178 13.4817C64.3435 13.729 64.3374 13.9799 64.3399 14.2284C63.4818 14.2406 62.6237 14.2663 61.7681 14.2039C61.7865 12.8183 61.7645 11.4326 61.7828 10.047C61.7804 9.73365 61.7963 9.40928 61.691 9.10938C61.4327 9.06409 60.9321 8.93924 60.9015 9.32727C60.8513 10.8316 60.9064 12.3397 60.8819 13.8465C60.8856 14.2639 60.8403 14.6923 60.9529 15.0999C62.0142 15.2443 63.095 15.1109 64.1648 15.1648C64.5014 15.1305 64.9091 15.2492 65.1979 15.0362C65.2726 14.3985 65.2261 13.7534 65.2359 13.1133C65.2089 12.9309 65.2653 12.6983 65.1098 12.5624C64.5871 12.4914 64.0571 12.5306 63.5308 12.511C63.5087 11.6615 63.5026 10.8096 63.5393 9.9601C64.3803 9.95888 65.2224 9.95031 66.0646 9.97112C66.0744 10.5158 65.9703 11.085 66.1453 11.6126C66.4416 11.7472 66.7819 11.6958 67.1001 11.7093C69.6363 11.6677 72.175 11.757 74.71 11.6628C74.7725 10.5207 74.7859 9.37256 74.7015 8.23051C73.8642 8.22807 73.0123 8.12525 72.1836 8.27458C72.1236 8.53286 72.1065 8.79848 72.0808 9.06165C71.5324 9.07022 70.984 9.06777 70.4369 9.05553C70.421 7.91716 70.4773 6.77634 70.4014 5.63919C70.1174 5.6343 69.8334 5.63063 69.5519 5.62818ZM71.399 6.49726C71.1676 6.69555 71.2472 7.04563 71.3096 7.30268C71.5777 7.35899 71.8531 7.34797 72.1261 7.35042C72.1261 7.06277 72.1248 6.77634 72.1248 6.48869C71.8825 6.48257 71.6389 6.45931 71.399 6.49726ZM66.1551 7.38714C66.0462 7.57197 66.0083 7.80087 66.0793 8.00529C66.1245 8.29539 66.5052 8.26968 66.7243 8.22684C67.0401 8.15095 67.001 7.75558 66.9459 7.512C66.7953 7.22924 66.4036 7.30391 66.1551 7.38714ZM75.5963 10.178C75.5289 11.5269 75.6048 12.8831 75.5657 14.2345C74.9977 14.2247 74.4273 14.2223 73.8654 14.3104C73.863 14.8673 73.8569 15.423 73.8495 15.9788C73.5656 15.9726 73.2828 15.9653 73 15.958C73.0233 15.3924 73.0196 14.8245 72.9499 14.2614C71.8299 14.2247 70.7074 14.2235 69.5874 14.2614C69.5605 14.5417 69.4197 14.8722 69.6339 15.1146C70.454 15.2272 71.2864 15.1183 72.1114 15.166C72.1126 15.4328 72.1138 15.6985 72.1175 15.9641C70.9755 15.991 69.8334 15.9837 68.6926 15.969C68.6828 15.1146 68.6681 14.2614 68.7097 13.4083C69.5176 13.3862 70.3341 13.4841 71.137 13.3715C71.3929 13.2222 71.4063 12.5318 71.0073 12.5416C69.9607 12.4963 68.9093 12.5269 67.8615 12.5404C67.7391 13.3777 67.815 14.2247 67.7966 15.0681C67.7856 15.6654 67.7758 16.2664 67.8615 16.8601C69.2667 16.8944 70.6719 16.8478 72.0771 16.8833C72.1163 17.1428 72.0991 17.4232 72.2093 17.6667C72.4247 17.7818 72.7026 17.7096 72.9437 17.7341C72.9743 17.4513 73.0062 17.1698 73.038 16.8882C73.5839 16.8344 74.1727 16.9715 74.6941 16.7793C74.8055 16.2554 74.7406 15.7144 74.7419 15.1844C75.2731 15.1513 75.8105 15.1893 76.3405 15.1219C76.4898 14.9322 76.4555 14.6788 76.4715 14.4536C76.458 13.1488 76.4653 11.8427 76.469 10.5379C76.4372 10.3139 76.5131 9.88544 76.1679 9.92705C75.9549 9.90502 75.6061 9.88299 75.5963 10.178ZM64.3937 10.8047C64.3692 10.9969 64.3386 11.189 64.3399 11.3837C64.2995 11.7105 64.7414 11.7509 64.9764 11.7007C65.3681 11.6138 65.1845 11.1242 65.2212 10.8377C64.9446 10.8267 64.6691 10.8157 64.3937 10.8047ZM77.332 10.8267C77.294 11.9541 77.3209 13.0827 77.3136 14.21C77.6086 14.2529 78.1974 14.4389 78.1961 13.9603C78.2231 12.915 78.2194 11.8672 78.1802 10.8218C77.8975 10.812 77.6135 10.8133 77.332 10.8267ZM66.0768 12.784C66.0021 13.8428 66.0866 14.9089 66.045 15.9702C65.5284 15.9873 65.007 15.9372 64.4953 16.0155C64.2224 16.1991 64.2444 16.8907 64.6569 16.8613C65.4134 16.9017 66.1723 16.8723 66.93 16.8466C67.0059 15.4133 66.9936 13.9738 66.9312 12.5404C66.6497 12.5747 66.1441 12.3849 66.0768 12.784ZM72.2925 12.5502C71.9975 12.6665 72.1187 13.0802 72.1603 13.3238C72.3807 13.4511 72.6487 13.4499 72.8923 13.3997C73.0576 13.1634 73.0698 12.806 72.9082 12.5673C72.7087 12.5135 72.4908 12.4914 72.2925 12.5502ZM73.9915 12.5502C73.77 12.7497 73.8973 13.101 73.8508 13.3654C74.0699 13.3899 74.2914 13.4389 74.5142 13.4132C74.8092 13.3299 74.8067 12.948 74.7211 12.7118C74.6146 12.4278 74.2253 12.5196 73.9915 12.5502ZM61.0594 16.0045C60.7656 16.1746 60.9382 16.5822 60.9064 16.8601C61.1549 16.8625 61.4058 16.876 61.6543 16.8442C61.8183 16.6508 61.8208 16.368 61.7486 16.1367C61.6029 15.9102 61.2834 15.9506 61.0594 16.0045ZM62.7829 16.0155C62.5148 16.1452 62.5821 16.51 62.6323 16.7462C62.8343 16.958 63.1819 16.8344 63.4439 16.8846C63.4732 16.6324 63.5699 16.3668 63.4732 16.1195C63.3043 15.9261 63.0032 15.9396 62.7829 16.0155ZM60.8966 17.772C60.8954 18.6227 60.8256 19.4796 60.948 20.3254C63.0399 20.3291 65.1318 20.3193 67.2237 20.3327C67.4122 20.3058 67.662 20.3719 67.7917 20.1932C67.8664 19.6681 67.8235 19.1368 67.8345 18.6093C68.0977 18.6142 68.3609 18.619 68.6265 18.6252C68.6902 18.8932 68.58 19.2727 68.8358 19.4539C69.0598 19.4747 69.2875 19.4575 69.5139 19.4502C69.5531 18.8847 69.5543 18.3192 69.5237 17.7536C68.6755 17.6557 67.8198 17.6741 66.9704 17.739C66.9398 18.3032 66.93 18.8688 66.9385 19.4343C65.2273 19.4428 63.5161 19.4294 61.8036 19.4428C61.7951 19.1674 61.7853 18.892 61.7779 18.6166C63.1072 18.5909 64.4378 18.6423 65.7647 18.5995C66.2114 18.6362 66.2078 17.8932 65.914 17.7328C65.1734 17.6276 64.4194 17.7206 63.674 17.6924C62.7486 17.723 61.8134 17.6117 60.8966 17.772ZM70.4087 17.7439C70.4161 18.0266 70.4246 18.3094 70.4344 18.5933C70.7037 18.5946 70.973 18.5946 71.2447 18.5958C71.2607 18.3277 71.3268 18.0486 71.2313 17.7879C70.9779 17.6423 70.6805 17.7218 70.4087 17.7439ZM61.7877 21.2642C61.7351 21.5054 61.6494 21.8408 61.8734 22.0219C62.1084 22.1345 62.3985 22.0978 62.6164 21.9583C62.6531 21.7024 62.6188 21.4429 62.6005 21.1871C62.3287 21.2006 62.0411 21.1504 61.7877 21.2642ZM63.5614 21.2165C63.4426 21.4637 63.4916 21.7477 63.4745 22.0133C63.7572 22.0391 64.0755 22.1517 64.3301 21.9656C64.3729 21.722 64.3668 21.4735 64.3754 21.2275C64.1048 21.2067 63.8307 21.1675 63.5614 21.2165Z" fill="#BB131A"/>
<path d="M63.5296 3.9072C63.7928 3.90353 64.0572 3.89863 64.3228 3.89496C64.346 4.46047 64.3473 5.02721 64.3277 5.59394C64.0596 5.59394 63.7903 5.59517 63.5235 5.59517C63.51 5.03333 63.5125 4.47026 63.5296 3.9072Z" fill="#BB131A"/>
<path d="M73.0245 9.09961C73.2951 9.10083 73.5644 9.10083 73.8361 9.10206C73.8691 9.659 73.8716 10.2172 73.8422 10.7741C72.7063 10.7802 71.5704 10.7851 70.4344 10.7704C70.4357 10.5011 70.4369 10.2319 70.4393 9.96134C71.2876 9.95277 72.1371 9.97236 72.9854 9.94788C72.9976 9.66512 73.0111 9.38237 73.0245 9.09961Z" fill="#BB131A"/>
<path d="M62.6458 3.12991C62.8747 2.97445 63.1648 3.01362 63.428 2.99893C63.9604 3.01117 64.4978 2.96344 65.0266 3.04055C65.2298 3.04912 65.2114 3.2927 65.2286 3.43469C65.2518 4.15444 65.2151 4.87663 65.2371 5.5976C65.5064 5.59637 65.7769 5.59515 66.0474 5.59392C66.0609 5.0688 66.0095 4.53757 66.094 4.01734C66.3008 3.81293 66.6962 3.77131 66.9067 3.99286C67.0463 4.57184 66.9532 5.17897 66.9777 5.77019C66.9447 5.99664 67.0328 6.29653 66.8296 6.46055C66.3033 6.53277 65.7684 6.48748 65.2396 6.50217C65.2163 7.03953 65.2873 7.5879 65.1808 8.11914C64.9482 8.31132 64.5798 8.22074 64.2934 8.25379C63.1624 8.20972 62.0264 8.31989 60.9015 8.18279C60.8795 6.84858 60.8673 5.51314 60.8979 4.18014C60.8648 3.73336 61.7963 3.73214 61.7571 4.17525C61.8135 5.21936 61.7559 6.26715 61.7718 7.31249C62.6299 7.32351 63.488 7.32351 64.346 7.31372C64.346 7.04687 64.3485 6.78126 64.3509 6.51564C63.8074 6.48748 63.2615 6.52543 62.7217 6.46055C62.5222 6.19861 62.6189 5.83139 62.5919 5.52415C62.6311 4.72607 62.5307 3.92187 62.6458 3.12991ZM63.5296 3.90718C63.5124 4.47024 63.51 5.03331 63.5235 5.59515C63.7903 5.59515 64.0596 5.59392 64.3277 5.59392C64.3472 5.02719 64.346 4.46045 64.3228 3.89494C64.0571 3.89861 63.7927 3.90351 63.5296 3.90718Z" fill="#ED1B24"/>
<path d="M67.8272 4.76404C68.1075 4.76771 68.3891 4.77138 68.6706 4.77628C68.7085 6.12396 68.6681 7.47287 68.6926 8.82055C68.6926 9.1743 68.7134 9.53417 68.6351 9.8818C68.394 10.0018 68.1112 9.99074 67.8627 9.90261C67.7476 9.47297 67.8003 9.02252 67.7942 8.58431C67.815 7.31129 67.7599 6.03583 67.8272 4.76404Z" fill="#ED1B24"/>
<path d="M69.5519 5.62817C69.8334 5.63062 70.1174 5.63429 70.4014 5.63919C70.4773 6.77633 70.421 7.91715 70.4369 9.05552C70.9841 9.06776 71.5324 9.07021 72.0808 9.06164C72.1065 8.79847 72.1237 8.53285 72.1836 8.27457C73.0123 8.12524 73.8643 8.22806 74.7015 8.23051C74.786 9.37255 74.7725 10.5207 74.7101 11.6628C72.1751 11.757 69.6364 11.6676 67.1001 11.7093C66.7819 11.6958 66.4416 11.7472 66.1454 11.6126C65.9703 11.085 66.0744 10.5158 66.0646 9.97111C65.2224 9.9503 64.3803 9.95887 63.5394 9.96009C63.5027 10.8096 63.5088 11.6615 63.5308 12.511C64.0571 12.5306 64.5872 12.4914 65.1098 12.5624C65.2653 12.6983 65.209 12.9309 65.2359 13.1133C65.2261 13.7534 65.2726 14.3985 65.198 15.0362C64.9091 15.2492 64.5015 15.1305 64.1649 15.1648C63.095 15.1109 62.0142 15.2443 60.9529 15.0999C60.8403 14.6923 60.8856 14.2639 60.882 13.8465C60.9064 12.3397 60.8513 10.8316 60.9015 9.32726C60.9321 8.93924 61.4328 9.06409 61.691 9.10938C61.7963 9.40927 61.7804 9.73365 61.7829 10.047C61.7645 11.4326 61.7865 12.8183 61.7682 14.2039C62.6238 14.2663 63.4818 14.2406 64.3399 14.2284C64.3375 13.9799 64.3436 13.729 64.3179 13.4817C63.7891 13.2797 63.1562 13.5747 62.6434 13.2981C62.5308 12.2625 62.6372 11.2147 62.5919 10.1743C62.6177 9.823 62.5197 9.42151 62.7156 9.10693C63.1942 9.02859 63.6814 9.06531 64.1649 9.06287C65.089 9.08123 66.0156 9.02247 66.9386 9.10938C66.9704 9.66387 66.9814 10.2196 66.979 10.7753C67.8236 10.7802 68.6694 10.7876 69.514 10.7667C69.5311 9.0543 69.4601 7.33818 69.5519 5.62817ZM73.0246 9.09959C73.0111 9.38234 72.9976 9.6651 72.9854 9.94786C72.1371 9.97234 71.2876 9.95275 70.4394 9.96132C70.4369 10.2318 70.4357 10.5011 70.4345 10.7704C71.5704 10.7851 72.7063 10.7802 73.8422 10.7741C73.8716 10.2171 73.8692 9.65898 73.8361 9.10203C73.5644 9.10081 73.2951 9.10081 73.0246 9.09959Z" fill="#ED1B24"/>
<path d="M71.399 6.49724C71.6389 6.4593 71.8825 6.48255 72.1249 6.48868C72.1249 6.77633 72.1261 7.06276 72.1261 7.35041C71.8531 7.34796 71.5777 7.35898 71.3097 7.30267C71.2472 7.04562 71.1677 6.69554 71.399 6.49724Z" fill="#ED1B24"/>
<path d="M66.1552 7.38719C66.4037 7.30395 66.7954 7.22928 66.9459 7.51204C67.001 7.75563 67.0402 8.151 66.7244 8.22689C66.5053 8.26973 66.1246 8.29543 66.0793 8.00533C66.0083 7.80092 66.0462 7.57202 66.1552 7.38719Z" fill="#ED1B24"/>
<path d="M75.5963 10.178C75.6061 9.88302 75.955 9.90505 76.168 9.92708C76.5131 9.88547 76.4373 10.3139 76.4691 10.5379C76.4654 11.8427 76.4581 13.1488 76.4715 14.4536C76.4556 14.6789 76.4899 14.9322 76.3406 15.122C75.8105 15.1893 75.2732 15.1513 74.7419 15.1844C74.7407 15.7144 74.8056 16.2554 74.6942 16.7793C74.1728 16.9715 73.584 16.8344 73.0381 16.8883C73.0062 17.1698 72.9744 17.4513 72.9438 17.7341C72.7027 17.7096 72.4248 17.7818 72.2094 17.6668C72.0992 17.4232 72.1164 17.1429 72.0772 16.8834C70.672 16.8479 69.2668 16.8944 67.8615 16.8601C67.7759 16.2665 67.7857 15.6654 67.7967 15.0681C67.815 14.2247 67.7391 13.3777 67.8615 12.5404C68.9093 12.527 69.9608 12.4964 71.0074 12.5417C71.4064 12.5319 71.3929 13.2222 71.1371 13.3716C70.3341 13.4842 69.5177 13.3863 68.7098 13.4083C68.6682 14.2615 68.6829 15.1146 68.6927 15.969C69.8335 15.9837 70.9755 15.991 72.1176 15.9641C72.1139 15.6985 72.1127 15.4329 72.1115 15.166C71.2864 15.1183 70.4541 15.2272 69.634 15.1146C69.4198 14.8723 69.5605 14.5418 69.5875 14.2615C70.7075 14.2235 71.8299 14.2247 72.9499 14.2615C73.0197 14.8245 73.0234 15.3925 73.0001 15.958C73.2829 15.9653 73.5656 15.9727 73.8496 15.9788C73.857 15.4231 73.8631 14.8674 73.8655 14.3104C74.4274 14.2223 74.9978 14.2247 75.5657 14.2345C75.6049 12.8832 75.529 11.5269 75.5963 10.178Z" fill="#ED1B24"/>
<path d="M64.3937 10.8047C64.6691 10.8157 64.9446 10.8267 65.2212 10.8377C65.1845 11.1242 65.3681 11.6138 64.9764 11.7007C64.7414 11.7509 64.2995 11.7105 64.3399 11.3837C64.3386 11.189 64.3692 10.9969 64.3937 10.8047Z" fill="#ED1B24"/>
<path d="M77.332 10.8268C77.6135 10.8133 77.8975 10.8121 78.1803 10.8219C78.2195 11.8672 78.2231 12.915 78.1962 13.9603C78.1974 14.4389 77.6086 14.2529 77.3136 14.21C77.321 13.0827 77.2941 11.9541 77.332 10.8268Z" fill="#ED1B24"/>
<path d="M66.0768 12.784C66.1442 12.385 66.6497 12.5747 66.9312 12.5404C66.9936 13.9738 67.0059 15.4133 66.93 16.8467C66.1723 16.8724 65.4134 16.9017 64.6569 16.8614C64.2444 16.8907 64.2224 16.1991 64.4954 16.0155C65.007 15.9372 65.5285 15.9874 66.045 15.9702C66.0866 14.909 66.0022 13.8428 66.0768 12.784Z" fill="#ED1B24"/>
<path d="M72.2926 12.5502C72.4909 12.4915 72.7088 12.5135 72.9083 12.5674C73.0699 12.8061 73.0576 13.1635 72.8924 13.3997C72.6488 13.4499 72.3807 13.4511 72.1604 13.3238C72.1188 13.0802 71.9976 12.6665 72.2926 12.5502Z" fill="#ED1B24"/>
<path d="M73.9916 12.5502C74.2254 12.5196 74.6146 12.4278 74.7211 12.7118C74.8068 12.948 74.8093 13.3299 74.5143 13.4131C74.2915 13.4389 74.0699 13.3899 73.8508 13.3654C73.8973 13.101 73.77 12.7497 73.9916 12.5502Z" fill="#ED1B24"/>
<path d="M61.0594 16.0045C61.2835 15.9507 61.6029 15.9103 61.7486 16.1367C61.8208 16.3681 61.8184 16.6508 61.6543 16.8442C61.4059 16.876 61.1549 16.8626 60.9064 16.8601C60.9383 16.5823 60.7657 16.1747 61.0594 16.0045Z" fill="#ED1B24"/>
<path d="M62.783 16.0155C63.0033 15.9396 63.3044 15.9262 63.4733 16.1196C63.57 16.3668 63.4733 16.6325 63.4439 16.8846C63.182 16.8344 62.8344 16.9581 62.6324 16.7463C62.5822 16.5101 62.5149 16.1453 62.783 16.0155Z" fill="#ED1B24"/>
<path d="M60.8966 17.772C61.8134 17.6117 62.7486 17.7231 63.674 17.6925C64.4195 17.7206 65.1735 17.6276 65.914 17.7329C66.2078 17.8932 66.2115 18.6362 65.7647 18.5995C64.4378 18.6423 63.1073 18.5909 61.778 18.6166C61.7853 18.892 61.7951 19.1674 61.8037 19.4429C63.5161 19.4294 65.2273 19.4429 66.9386 19.4343C66.93 18.8688 66.9398 18.3033 66.9704 17.739C67.8199 17.6741 68.6755 17.6557 69.5238 17.7537C69.5544 18.3192 69.5531 18.8847 69.514 19.4502C69.2875 19.4575 69.0598 19.4747 68.8358 19.4539C68.58 19.2727 68.6902 18.8933 68.6265 18.6252C68.3609 18.6191 68.0977 18.6142 67.8346 18.6093C67.8235 19.1368 67.8664 19.6681 67.7917 20.1932C67.662 20.3719 67.4123 20.3058 67.2238 20.3327C65.1319 20.3193 63.0399 20.3291 60.948 20.3254C60.8256 19.4796 60.8954 18.6227 60.8966 17.772Z" fill="#ED1B24"/>
<path d="M70.4088 17.7439C70.6805 17.7218 70.9779 17.6423 71.2313 17.7879C71.3268 18.0486 71.2607 18.3277 71.2448 18.5958C70.973 18.5946 70.7037 18.5946 70.4345 18.5933C70.4247 18.3094 70.4161 18.0266 70.4088 17.7439Z" fill="#ED1B24"/>
<path d="M61.7878 21.2642C62.0411 21.1504 62.3288 21.2006 62.6005 21.1871C62.6189 21.443 62.6532 21.7025 62.6164 21.9583C62.3986 22.0978 62.1085 22.1346 61.8734 22.0219C61.6494 21.8408 61.7351 21.5054 61.7878 21.2642Z" fill="#ED1B24"/>
<path d="M63.5614 21.2165C63.8307 21.1676 64.1049 21.2067 64.3754 21.2275C64.3668 21.4736 64.3729 21.7221 64.3301 21.9656C64.0755 22.1517 63.7572 22.0391 63.4745 22.0134C63.4916 21.7478 63.4427 21.4638 63.5614 21.2165Z" fill="#ED1B24"/>
</g>
<defs>
<clipPath id="clip0_45_4227">
<rect width="80.2073" height="24" fill="white"/>
</clipPath>
</defs>
</svg>
