<svg width="158" height="24" viewBox="0 0 158 24" fill="none" xmlns="http://www.w3.org/2000/svg">
<g clip-path="url(#clip0_45_4228)">
<path d="M17.6143 4.12286C16.3361 3.20795 14.7875 2.74911 13.2172 2.82001C10.6458 2.82001 7.8772 3.80572 4.92006 5.75143L4.84292 5.81143L4.54292 6.00001L4.31149 6.15429C3.71492 6.56372 3.14254 7.00732 2.5972 7.48286C1.34578 8.70001 -0.0770818 10.7143 0.0257754 12.4371C0.0322653 12.776 0.112274 13.1094 0.260268 13.4142C0.408262 13.7191 0.620709 13.9882 0.882918 14.2029C1.42665 14.6073 2.0913 14.8158 2.76863 14.7943C4.30412 14.6604 5.77965 14.1351 7.05435 13.2686L7.26863 13.1314L7.86006 12.7371L8.0572 12.6C9.64137 11.431 11.37 10.4716 13.2001 9.74572C13.6164 9.58599 14.0571 9.49901 14.5029 9.48858C14.6907 9.48916 14.8777 9.51218 15.0601 9.55715C15.3311 9.60617 15.5864 9.71979 15.8042 9.8884C16.0221 10.057 16.1961 10.2756 16.3115 10.5257C16.5196 11.107 16.6035 11.7254 16.5577 12.341C16.512 12.9567 16.3375 13.5559 16.0458 14.1C15.0532 16.0906 13.6442 17.8446 11.9143 19.2429C11.0791 19.9783 10.1716 20.6273 9.20578 21.18H9.12863C8.72819 21.418 8.30977 21.6243 7.8772 21.7971H7.8172C7.69994 21.8473 7.57972 21.8903 7.4572 21.9257C5.57149 22.44 6.72006 20.7686 6.72006 20.7686C7.15149 20.3103 7.61247 19.8808 8.10006 19.4829C8.3572 19.2514 8.62292 19.0029 8.88863 18.7286L8.94863 18.6686C9.17011 18.4985 9.35219 18.2825 9.48238 18.0354C9.61257 17.7883 9.68781 17.516 9.70292 17.2371C9.63353 16.8346 9.4227 16.4701 9.10842 16.2093C8.79413 15.9484 8.39703 15.8084 7.98863 15.8143H7.90292C7.15392 15.8747 6.44444 16.1753 5.88006 16.6714C5.34971 17.1099 4.89004 17.6274 4.5172 18.2057C3.98578 19.0029 2.9572 21.0429 3.98578 22.6629C4.20728 22.9939 4.51314 23.2598 4.87176 23.4331C5.23039 23.6063 5.62878 23.6807 6.02578 23.6486C6.82876 23.6136 7.61999 23.4426 8.36578 23.1429C9.53614 22.6942 10.6542 22.1194 11.7001 21.4286L11.9743 21.2571C13.1084 20.5447 14.1833 19.7421 15.1886 18.8571C17.3224 17.1389 18.9245 14.8502 19.8086 12.2571C20.3567 10.7086 20.4342 9.03253 20.0315 7.44001C19.626 6.09183 18.7735 4.92192 17.6143 4.12286Z" fill="#E20714"/>
<path d="M93.0429 20.9914C91.2772 20.8543 90.9172 20.0829 90.9172 18.7886V2.07428L86.6315 2.79428V18.5143C86.6315 22.2343 88.6543 23.8371 92.04 23.8371C92.5866 23.8227 93.1311 23.7654 93.6686 23.6657V21C93.46 21.0084 93.2512 21.0055 93.0429 20.9914Z" fill="#E20714"/>
<path d="M77.4601 9.74574C79.3458 9.74574 79.6201 11.7943 79.6201 13.0629H75.0344C75.1286 11.4257 75.7801 9.74574 77.4601 9.74574ZM78.3772 20.9829C77.9243 21.0112 77.4706 20.9425 77.0463 20.7813C76.6221 20.6202 76.2372 20.3704 75.9172 20.0486C75.1544 19.1915 74.8115 17.52 74.9058 15.72H84.0515V15.3C83.9744 9.30003 81.9344 6.58289 77.4601 6.58289C72.4715 6.58289 70.5258 11.1772 70.4915 15.4886C70.4413 16.8031 70.6766 18.1129 71.1812 19.3277C71.6857 20.5426 72.4476 21.6336 73.4144 22.5257C74.7072 23.5254 76.3065 24.0463 77.9401 24C78.9623 24.0022 79.9792 23.852 80.9572 23.5543C82.0896 23.1982 83.1638 22.6784 84.1458 22.0115L82.9458 19.5429C81.6004 20.4672 80.0095 20.9686 78.3772 20.9829Z" fill="#E20714"/>
<path d="M42.9086 23.6486H47.1515V6.75427L42.9086 7.44856V23.6486Z" fill="#E20714"/>
<path d="M66.1972 2.09143L61.8515 2.79429V18.5914C61.8515 22.1314 63.9172 23.8029 67.3801 23.8029C67.9235 23.7974 68.4654 23.7458 69.0001 23.6486V21.0171C68.9486 21.0171 68.6229 21.0171 68.3829 21.0171C66.5572 20.9571 66.1972 19.9457 66.1972 18.7886V9.88286H69.0001V6.76286H66.1972V2.09143Z" fill="#E20714"/>
<path d="M35.4172 20.46C34.7494 20.848 33.9862 21.041 33.2143 21.0171C31.5 21.0171 30.7372 19.7057 30.7715 18.1714C30.7669 17.7948 30.8422 17.4215 30.9924 17.0761C31.1427 16.7307 31.3644 16.421 31.643 16.1675C31.9216 15.914 32.2507 15.7225 32.6087 15.6054C32.9667 15.4884 33.3455 15.4486 33.72 15.4886H35.4343L35.4172 20.46ZM33.7029 6.45428C31.7056 6.49651 29.7465 7.01049 27.9857 7.95428L27.5143 8.20286L28.6457 10.7743L29.2886 10.4657C30.5381 9.85559 31.9095 9.53619 33.3 9.53143C34.8343 9.59143 35.4686 10.3029 35.4686 11.7686V12.6257H32.9057C28.86 12.6257 26.3486 14.7686 26.28 18.0943C26.2916 18.9009 26.4658 19.6969 26.792 20.4347C27.1183 21.1724 27.59 21.8369 28.1789 22.3882C28.7678 22.9395 29.4619 23.3664 30.2196 23.6433C30.9772 23.9203 31.783 24.0416 32.5886 24C33.8946 24.0512 35.1978 23.8436 36.4232 23.389C37.6486 22.9345 38.772 22.242 39.7286 21.3514V12.2914C39.7286 7.89428 36.5572 6.45428 33.6686 6.45428H33.7029Z" fill="#E20714"/>
<path d="M45.0772 -6.61208e-06C44.7204 -0.00226496 44.3666 0.065782 44.0361 0.200249C43.7056 0.334716 43.4048 0.532969 43.1508 0.783688C42.8969 1.03441 42.6949 1.33268 42.5563 1.66148C42.4177 1.99028 42.3452 2.34317 42.3429 2.69999C42.3222 3.06679 42.3766 3.43394 42.5027 3.77899C42.6288 4.12404 42.8241 4.43972 43.0764 4.70671C43.3288 4.97369 43.6329 5.18638 43.9703 5.33173C44.3077 5.47709 44.6712 5.55206 45.0386 5.55206C45.406 5.55206 45.7695 5.47709 46.1069 5.33173C46.4443 5.18638 46.7485 4.97369 47.0008 4.70671C47.2532 4.43972 47.4484 4.12404 47.5745 3.77899C47.7006 3.43394 47.755 3.06679 47.7343 2.69999C47.7397 2.3593 47.6773 2.02094 47.5507 1.70458C47.4242 1.38821 47.236 1.10015 46.9972 0.857136C46.753 0.590359 46.4565 0.376616 46.1262 0.229169C45.7959 0.0817228 45.4389 0.00371757 45.0772 -6.61208e-06Z" fill="#E20714"/>
<path d="M50.5458 9.78V23.6657H54.8315V10.5943C55.6584 9.93059 56.6776 9.55178 57.7372 9.51429C58.3146 9.48285 58.8933 9.54361 59.4515 9.69428L60.6429 7.01143C59.7356 6.65045 58.7649 6.47556 57.7886 6.49714C56.4197 6.51237 55.069 6.81208 53.8221 7.37723C52.5753 7.94238 51.4595 8.76062 50.5458 9.78Z" fill="#E20714"/>
<path d="M149.229 2.57141L147.514 2.75998V9.78855C147.489 10.0568 147.525 10.3272 147.62 10.5793C147.715 10.8314 147.866 11.0586 148.062 11.2436C148.258 11.4287 148.493 11.5667 148.75 11.6473C149.007 11.7278 149.279 11.7488 149.546 11.7086H149.751C150.089 11.7138 150.425 11.6793 150.754 11.6057H150.806V10.2343H150.737C150.452 10.261 150.165 10.261 149.88 10.2343C149.246 10.1914 149.16 9.82284 149.16 9.46284V6.3857H150.771V4.85141H149.16L149.229 2.57141Z" fill="#E20714"/>
<path d="M101.606 3.68568H103.2C103.8 3.68568 104.811 3.86568 104.811 5.09997C104.811 6.0514 104.194 6.55711 103.029 6.55711H101.606V3.68568ZM101.606 8.21997H103.123C105.343 8.21997 106.611 7.09711 106.611 5.12568C106.611 3.15426 105.411 2.02283 103.32 2.02283H99.8915V11.64H101.606V8.21997Z" fill="#E20714"/>
<path d="M114.617 14.04H116.409L120.077 4.93712L120.111 4.84283H118.32L116.657 9.02569L114.891 4.87712L114.874 4.84283H113.057L115.8 11.0828L114.617 14.04Z" fill="#E20714"/>
<path d="M128.666 4.76572C128.253 4.761 127.844 4.84242 127.465 5.00477C127.086 5.16712 126.744 5.40683 126.463 5.70858C126.236 5.39381 125.933 5.14204 125.582 4.97705C125.231 4.81207 124.844 4.73933 124.457 4.76572C123.831 4.77765 123.226 5.0012 122.743 5.40001V4.84287H121.029V11.64H122.743V8.26287C122.743 7.12287 123.326 6.36001 124.2 6.36001C124.757 6.36001 125.331 6.55715 125.331 7.98001V11.64H127.003V8.26287C127.003 7.14858 127.577 6.36001 128.4 6.36001C128.931 6.36001 129.506 6.48858 129.506 7.98858V11.64H131.22V7.71429C131.151 5.76001 130.311 4.76572 128.666 4.76572Z" fill="#E20714"/>
<path d="M143.743 4.76569C143.048 4.76105 142.372 4.99052 141.823 5.41712V4.84284H140.109V11.64H141.823V8.21141C141.823 7.04569 142.44 6.32569 143.426 6.32569C144.009 6.32569 144.6 6.51427 144.6 7.91998V11.6143H146.314V7.71427C146.272 5.82855 145.354 4.76569 143.743 4.76569Z" fill="#E20714"/>
<path d="M155.057 7.51712L154.766 7.40569C154.14 7.16569 153.806 6.99426 153.806 6.74569C153.806 6.49712 154.123 6.3514 154.414 6.3514C154.943 6.35585 155.45 6.55763 155.837 6.91711L156.12 7.15712L156.977 5.79426L156.746 5.60569C156.102 5.04557 155.276 4.74064 154.423 4.74854C154.138 4.72031 153.849 4.74944 153.575 4.83421C153.301 4.91899 153.047 5.05769 152.827 5.24217C152.608 5.42665 152.427 5.65318 152.296 5.90844C152.166 6.16369 152.087 6.44253 152.066 6.72854C152.066 8.0914 153.129 8.57997 154.132 8.9314L154.277 8.98283L154.474 9.0514C154.748 9.11612 155.007 9.23249 155.237 9.39426C155.3 9.4402 155.344 9.50585 155.365 9.58055C155.385 9.65525 155.379 9.7346 155.349 9.80569C155.317 9.88734 155.26 9.95654 155.186 10.0028C155.049 10.0874 154.892 10.1319 154.732 10.1314C154.387 10.1544 154.042 10.1017 153.72 9.97712C153.409 9.8602 153.119 9.69218 152.863 9.47997L152.58 9.21426L151.672 10.5514L151.894 10.74C152.615 11.3832 153.552 11.7293 154.517 11.7085C156.394 11.7085 157.089 10.5857 157.089 9.61712C157.123 8.30569 156.214 7.95426 155.057 7.51712Z" fill="#E20714"/>
<path d="M108.677 9.53997C108.668 9.44561 108.68 9.35042 108.713 9.26142C108.746 9.17242 108.798 9.09187 108.866 9.02569C109.106 8.82732 109.412 8.72637 109.723 8.74283H110.897V10.2257C110.616 10.2935 110.329 10.3309 110.04 10.3371H109.937C109.6 10.3348 109.27 10.2367 108.986 10.0543C108.9 9.9966 108.827 9.92059 108.774 9.83168C108.721 9.74277 108.688 9.64315 108.677 9.53997ZM107.7 11.0743V11.1171L107.769 11.1685H107.82H107.871L107.957 11.22C108.12 11.3136 108.292 11.3884 108.471 11.4428C108.84 11.5535 109.219 11.6225 109.603 11.6485H109.989C110.736 11.6215 111.476 11.4976 112.191 11.28H112.311V6.85711C112.316 6.82583 112.316 6.79411 112.311 6.76283V6.65997V6.45426V6.35997C112.316 6.33737 112.316 6.314 112.311 6.2914V6.23997V6.18854L112.329 5.99997C112.215 5.76897 112.058 5.56226 111.866 5.3914C111.632 5.18504 111.362 5.02504 111.069 4.91997C110.851 4.84861 110.627 4.79697 110.4 4.76569H110.357H109.929C109.147 4.77041 108.381 4.98344 107.709 5.38283L107.623 5.44283L108.317 6.52283H108.403C108.82 6.30862 109.28 6.18865 109.749 6.1714C110.46 6.1714 110.846 6.53997 110.897 6.79711V6.84854V7.3714H109.551C107.991 7.3714 107.066 8.22854 107.066 9.60854C107.062 9.85876 107.108 10.1073 107.2 10.3397C107.293 10.5722 107.431 10.784 107.606 10.9628C107.634 11.0026 107.666 11.0399 107.7 11.0743Z" fill="#E20714"/>
<path d="M134.151 7.44855C134.214 7.14044 134.374 6.86091 134.609 6.65218C134.845 6.44344 135.141 6.31681 135.454 6.29141C135.834 6.22525 136.225 6.30881 136.545 6.52456C136.864 6.7403 137.088 7.07147 137.169 7.44855H134.151ZM135.677 4.7657C135.338 4.77213 135 4.82402 134.674 4.91998C134.178 5.06664 133.725 5.33338 133.355 5.69665C132.986 6.05991 132.712 6.50852 132.557 7.00284C132.366 7.56059 132.31 8.1554 132.392 8.73913C132.474 9.32287 132.692 9.87911 133.029 10.3628C133.337 10.7954 133.749 11.1442 134.226 11.3777C134.704 11.6111 135.232 11.7219 135.763 11.7C136.05 11.6983 136.336 11.6753 136.62 11.6314C137.378 11.5141 138.067 11.1239 138.557 10.5343H138.6L137.529 9.53998L137.486 9.58284C137.28 9.79397 137.035 9.96248 136.765 10.0787C136.494 10.1949 136.203 10.2565 135.909 10.26C135.493 10.2915 135.08 10.1705 134.747 9.9197C134.414 9.66886 134.184 9.30533 134.1 8.89713V8.81141H138.814V8.75141C138.918 8.11852 138.874 7.47018 138.686 6.85713C138.459 6.24218 138.049 5.71175 137.511 5.33767C136.973 4.96358 136.333 4.76391 135.677 4.7657Z" fill="#E20714"/>
<path d="M103.097 17.8972H101.606V15.7114H102.883C104.537 15.7114 104.537 16.5086 104.537 16.7743C104.537 17.82 103.414 17.8972 103.097 17.8972ZM101.606 19.5343H103.183C103.851 19.5343 104.957 19.7057 104.957 20.8114C104.957 21.9172 103.817 22.0029 103.14 22.0029H101.606V19.5343ZM105.369 18.5572C105.677 18.3259 105.926 18.0237 106.093 17.676C106.26 17.3284 106.341 16.9455 106.329 16.56C106.329 14.94 105.18 14.0486 103.106 14.0486H99.8486V23.6657H103.414C105.489 23.6657 106.74 22.6372 106.74 20.9143C106.762 20.4312 106.644 19.9521 106.401 19.5342C106.158 19.1162 105.799 18.7771 105.369 18.5572Z" fill="#E20714"/>
<path d="M118.26 16.7914C117.562 16.7855 116.883 17.015 116.331 17.4429V16.8686H114.617V23.6657H116.331V20.2371C116.331 19.0714 116.949 18.3514 117.934 18.3514C118.517 18.3514 119.109 18.54 119.109 19.9457V23.64H120.823V19.7143C120.789 17.8543 119.863 16.7914 118.26 16.7914Z" fill="#E20714"/>
<path d="M111.626 20.7343V22.2172C111.345 22.285 111.058 22.3224 110.769 22.3286H110.666C110.328 22.3302 109.997 22.2318 109.714 22.0457C109.634 21.9872 109.567 21.9114 109.52 21.8239C109.473 21.7364 109.445 21.6394 109.44 21.54C109.431 21.4449 109.444 21.3489 109.478 21.2597C109.512 21.1704 109.567 21.0903 109.637 21.0257C109.875 20.8235 110.183 20.722 110.494 20.7429L111.626 20.7343ZM113.229 18.7286C113.233 18.706 113.233 18.6826 113.229 18.66V18.4457L113.16 18.1886V18.1457V18.0772V18.0086C113.045 17.7763 112.888 17.5671 112.697 17.3914C112.465 17.1849 112.194 17.0274 111.9 16.9286C111.682 16.8482 111.454 16.7964 111.223 16.7743H110.794C110.012 16.7735 109.244 16.9869 108.574 17.3914L108.489 17.4514L109.131 18.4543V18.54L109.226 18.4972C109.643 18.2843 110.103 18.1672 110.571 18.1543C111.283 18.1543 111.669 18.5143 111.72 18.78C111.716 18.794 111.716 18.8089 111.72 18.8229V18.96V19.3714H110.271C108.711 19.3714 107.786 20.2286 107.786 21.6086C107.781 21.8569 107.825 22.1037 107.917 22.3347C108.008 22.5657 108.144 22.7763 108.317 22.9543C108.355 23.0019 108.398 23.0451 108.446 23.0829L108.557 23.1686L108.643 23.2286L108.737 23.28C108.899 23.3752 109.072 23.45 109.251 23.5029H109.32C109.688 23.6131 110.068 23.6793 110.451 23.7H110.837C111.584 23.6722 112.325 23.5483 113.04 23.3314H113.151V18.7286H113.229Z" fill="#E20714"/>
<path d="M130.629 15.6C130.56 15.5628 130.484 15.5422 130.406 15.54H125.263C125.142 15.54 125.027 15.5878 124.942 15.673C124.856 15.7582 124.809 15.8738 124.809 15.9943C124.809 16.0535 124.82 16.1122 124.843 16.1668C124.866 16.2215 124.9 16.271 124.942 16.3125C124.985 16.354 125.035 16.3867 125.09 16.4085C125.145 16.4304 125.204 16.4411 125.263 16.44L126.557 16.3714C126.657 16.5877 126.718 16.8198 126.737 17.0571H125.306C125.252 17.0571 125.199 17.0678 125.15 17.0886C125.1 17.1094 125.055 17.1398 125.018 17.1781C124.98 17.2165 124.951 17.2619 124.931 17.3117C124.911 17.3616 124.902 17.4149 124.903 17.4685C124.899 17.5084 124.899 17.5487 124.903 17.5886C124.929 17.6707 124.98 17.7425 125.049 17.7934C125.119 17.8443 125.203 17.8717 125.289 17.8714L126.643 17.7943C126.394 18.7285 124.86 18.6514 124.86 18.6514H123.84V14.04H122.169V23.6657H123.84V20.2971H124.44L125.846 22.2857L126.78 23.6657H128.88L126.814 20.6828L126.411 20.1L126.523 20.0571C126.914 19.9315 127.273 19.724 127.577 19.4486C128.062 19.0002 128.366 18.3908 128.434 17.7343C128.434 17.7343 128.434 17.6743 128.434 17.6486L129.832 17.5543C129.881 17.5553 129.931 17.5432 129.974 17.5191C130.018 17.4951 130.054 17.4599 130.08 17.4171C130.104 17.3507 130.104 17.2778 130.08 17.2114C130.058 17.1537 130.017 17.1048 129.965 17.0723C129.912 17.0398 129.85 17.0254 129.789 17.0314H128.443C128.451 16.9087 128.451 16.7856 128.443 16.6628C128.443 16.5257 128.4 16.38 128.374 16.2428L129.643 16.1657L130.423 16.1228C130.522 16.1131 130.613 16.0673 130.68 15.9943C130.714 15.9435 130.732 15.8838 130.731 15.8228C130.73 15.7807 130.72 15.7393 130.702 15.7011C130.685 15.6628 130.66 15.6284 130.629 15.6Z" fill="#E20714"/>
</g>
<defs>
<clipPath id="clip0_45_4228">
<rect width="157.114" height="24" fill="white"/>
</clipPath>
</defs>
</svg>
