<svg width="24" height="24" viewBox="0 0 24 24" fill="none" xmlns="http://www.w3.org/2000/svg">
<g clip-path="url(#clip0_45_4229)">
<path d="M23.9947 23.9893H0.00537109V0H23.9947V23.9893Z" fill="white"/>
<path d="M23.9947 12.9938V0.0106812H0.00537109V24H23.9947V17.0009C23.9412 17.0009 23.9947 12.9938 23.9947 12.9938Z" fill="#006FCF"/>
<path d="M21.0561 11.6581H22.8727V7.43726H20.8958V8.02497L20.5218 7.43726H18.8121V8.18525L18.4916 7.43726H15.3393C15.2324 7.43726 15.1256 7.49068 15.0187 7.49068C14.9119 7.49068 14.8584 7.54411 14.7516 7.59754C14.6447 7.65097 14.5913 7.65097 14.4844 7.7044V7.43726H5.45506L5.18791 8.13182L4.92077 7.43726H2.78364V8.18525L2.46307 7.43726H0.753367L0.00537109 9.25382V11.6581H1.23422L1.44793 11.0704H1.87536L2.08907 11.6581H11.4925V11.1238L11.8665 11.6581H14.4844V11.3375C14.5379 11.3909 14.6447 11.3909 14.6981 11.4444C14.7516 11.4978 14.8584 11.4978 14.9119 11.5512C15.0187 11.6047 15.1256 11.6047 15.2324 11.6047H17.1558L17.3696 11.017H17.797L18.0107 11.6047H20.6287V11.0704L21.0561 11.6581ZM23.9947 17.0009V13.0472H9.30189L8.9279 13.5815L8.5539 13.0472H4.27963V17.2681H8.5539L8.9279 16.7338L9.30189 17.2681H11.9733V16.3598H11.8665C12.2404 16.3598 12.561 16.3064 12.8282 16.1995V17.3215H14.7516V16.7872L15.1256 17.3215H23.0864C23.407 17.2146 23.7275 17.1612 23.9947 17.0009Z" fill="white"/>
<path d="M23.0864 15.9857H21.6438V16.5734H23.033C23.6207 16.5734 23.9947 16.1994 23.9947 15.6652C23.9947 15.1309 23.6741 14.8637 23.1398 14.8637H22.4987C22.3384 14.8637 22.2315 14.7569 22.2315 14.5966C22.2315 14.4363 22.3384 14.3295 22.4987 14.3295H23.7275L23.9947 13.7417H22.5521C21.9644 13.7417 21.5904 14.1157 21.5904 14.5966C21.5904 15.1309 21.911 15.398 22.4453 15.398H23.0864C23.2467 15.398 23.3535 15.5049 23.3535 15.6652C23.407 15.8789 23.3001 15.9857 23.0864 15.9857ZM20.4684 15.9857H19.0258V16.5734H20.415C21.0027 16.5734 21.3767 16.1994 21.3767 15.6652C21.3767 15.1309 21.0561 14.8637 20.5218 14.8637H19.8807C19.7204 14.8637 19.6136 14.7569 19.6136 14.5966C19.6136 14.4363 19.7204 14.3295 19.8807 14.3295H21.1095L21.3767 13.7417H19.9341C19.3464 13.7417 18.9724 14.1157 18.9724 14.5966C18.9724 15.1309 19.293 15.398 19.8273 15.398H20.4684C20.6287 15.398 20.7355 15.5049 20.7355 15.6652C20.789 15.8789 20.6287 15.9857 20.4684 15.9857ZM18.5984 14.276V13.6883H16.3544V16.52H18.5984V15.9323H16.9956V15.3446H18.545V14.7569H16.9956V14.2226H18.5984V14.276ZM14.9653 14.276C15.2324 14.276 15.3393 14.4363 15.3393 14.5966C15.3393 14.7569 15.2324 14.9172 14.9653 14.9172H14.1639V14.2226L14.9653 14.276ZM14.1639 15.5049H14.4844L15.3393 16.52H16.1407L15.179 15.4515C15.6599 15.3446 15.927 15.024 15.927 14.5966C15.927 14.0623 15.553 13.6883 14.9653 13.6883H13.4693V16.52H14.1104L14.1639 15.5049ZM12.4542 14.65C12.4542 14.8637 12.3473 15.024 12.0802 15.024H11.2253V14.276H12.0267C12.2939 14.276 12.4542 14.4363 12.4542 14.65ZM10.5842 13.6883V16.52H11.2253V15.5583H12.0802C12.6679 15.5583 13.0953 15.1843 13.0953 14.5966C13.0953 14.0623 12.7213 13.6349 12.1336 13.6349L10.5842 13.6883ZM9.62246 16.52H10.4239L9.30189 15.0775L10.4239 13.6883H9.62246L8.9279 14.5966L8.23333 13.6883H7.4319L8.5539 15.0775L7.4319 16.4666H8.23333L8.9279 15.5583L9.62246 16.52ZM7.21819 14.276V13.6883H4.9742V16.52H7.21819V15.9323H5.61534V15.3446H7.16476V14.7569H5.61534V14.2226H7.21819V14.276ZM20.2013 9.25377L21.3233 10.9635H22.1247V8.13177H21.4835V10.0018L21.3233 9.73462L20.3081 8.13177H19.4533V10.9635H20.0944V9.04006L20.2013 9.25377ZM17.423 9.20034L17.6367 8.61263L17.8504 9.20034L18.1176 9.84148H17.1558L17.423 9.20034ZM18.545 10.9635H19.2396L18.0107 8.13177H17.1558L15.927 10.9635H16.6216L16.8887 10.3758H18.2778L18.545 10.9635ZM15.553 10.9635L15.8201 10.3758H15.6599C15.179 10.3758 14.9119 10.0552 14.9119 9.57434V9.52091C14.9119 9.04006 15.179 8.71949 15.6599 8.71949H16.3544V8.13177H15.6064C14.7516 8.13177 14.2707 8.71949 14.2707 9.52091V9.57434C14.2707 10.4292 14.7516 10.9635 15.553 10.9635ZM13.1487 10.9635H13.7899V8.1852H13.1487V10.9635ZM11.7596 8.71949C12.0267 8.71949 12.1336 8.87977 12.1336 9.04006C12.1336 9.20034 12.0267 9.36063 11.7596 9.36063H10.9582V8.66606L11.7596 8.71949ZM10.9582 9.94834H11.2787L12.1336 10.9635H12.935L11.9733 9.89491C12.4542 9.78805 12.7213 9.46748 12.7213 9.04006C12.7213 8.50577 12.3473 8.13177 11.7596 8.13177H10.2636V10.9635H10.9047L10.9582 9.94834ZM9.78275 8.71949V8.13177H7.53876V10.9635H9.78275V10.3758H8.1799V9.78805H9.72932V9.20034H8.1799V8.66606H9.78275V8.71949ZM4.92077 10.9635H5.50848L6.30991 8.66606V10.9635H6.95105V8.13177H5.88248L5.24134 10.0552L4.6002 8.13177H3.53164V10.9635H4.17278V8.66606L4.92077 10.9635ZM1.44793 9.20034L1.66165 8.61263L1.87536 9.20034L2.1425 9.84148H1.18079L1.44793 9.20034ZM2.56993 10.9635H3.2645L2.03565 8.13177H1.23422L0.00537109 10.9635H0.699939L0.96708 10.3758H2.35622L2.56993 10.9635Z" fill="#006FCF"/>
</g>
<defs>
<clipPath id="clip0_45_4229">
<rect width="24" height="24" fill="white"/>
</clipPath>
</defs>
</svg>
