<svg width="47" height="24" viewBox="0 0 47 24" fill="none" xmlns="http://www.w3.org/2000/svg">
<g clip-path="url(#clip0_45_4230)">
<path d="M46.3549 20.4006H0V24H46.3549V20.4006Z" fill="#F47920"/>
<path d="M46.242 20.5135H0.112793V23.8872H46.242V20.5135Z" fill="#F47920"/>
<path d="M46.3549 0H0V20.4007H46.3549V0Z" fill="#671773"/>
<path fill-rule="evenodd" clip-rule="evenodd" d="M9.81201 10.5233H11.534L10.6722 8.47424L9.81201 10.5233Z" fill="#F47920"/>
<path fill-rule="evenodd" clip-rule="evenodd" d="M19.6598 10.417C19.6598 12.2976 18.6034 13.22 16.937 13.22C15.2706 13.22 14.2485 12.2878 14.2485 10.4612V7.54213C14.2485 7.1611 14.551 6.85856 14.9321 6.85856C15.3131 6.85856 15.614 7.1611 15.614 7.54213V10.4252C15.614 11.4375 16.1193 11.9608 16.9533 11.9608C17.7873 11.9608 18.2926 11.4555 18.2926 10.4694V7.54213C18.2926 7.1611 18.5935 6.85856 18.9762 6.85856C19.3589 6.85856 19.6598 7.1611 19.6598 7.54213V10.417ZM13.1136 13.1758C12.7947 13.1758 12.5805 12.9894 12.4562 12.7048L12.0392 11.7286H9.30655L8.87155 12.749C8.75544 13.0156 8.52486 13.1742 8.24195 13.1742C7.88709 13.1742 7.61235 12.8896 7.61235 12.5348C7.61235 12.4383 7.64833 12.3402 7.69248 12.242L9.85601 7.35406C10.0065 7.01555 10.2812 6.81277 10.6541 6.81277H10.7342C11.107 6.81277 11.3736 7.01719 11.524 7.35406L13.6892 12.242C13.7334 12.3402 13.7612 12.4285 13.7612 12.5168C13.7612 12.8815 13.4766 13.1742 13.1136 13.1742V13.1758ZM13.9738 2.01801C9.45536 2.01801 5.79224 5.68113 5.79224 10.1995C5.79224 14.7179 9.45536 18.381 13.9738 18.381C18.4922 18.381 22.1553 14.7179 22.1553 10.1995C22.1553 5.68113 18.4905 2.01801 13.9721 2.01801H13.9738Z" fill="#F47920"/>
<path fill-rule="evenodd" clip-rule="evenodd" d="M25.758 5.21992L25.3933 4.34993L25.0286 5.21992H25.7596H25.758ZM24.1276 5.95091L25.0466 3.87732C25.1104 3.73341 25.2265 3.64838 25.3851 3.64838H25.4195C25.5781 3.64838 25.691 3.73505 25.7547 3.87732L26.6738 5.95091C26.6934 5.99179 26.7048 6.02941 26.7048 6.06702C26.7048 6.22074 26.5838 6.34502 26.4301 6.34502C26.2944 6.34502 26.2044 6.26653 26.1521 6.14552L25.9755 5.73178H24.8161L24.6313 6.16514C24.5822 6.27798 24.4841 6.34666 24.3647 6.34666C24.2143 6.34666 24.0981 6.22565 24.0981 6.0752C24.0981 6.03431 24.1129 5.99179 24.1325 5.95091H24.1276Z" fill="white"/>
<path fill-rule="evenodd" clip-rule="evenodd" d="M26.9092 5.19376V3.95582C26.9092 3.79392 27.0368 3.66637 27.1987 3.66637C27.3606 3.66637 27.4881 3.79392 27.4881 3.95582V5.17904C27.4881 5.6075 27.7024 5.8299 28.0572 5.8299C28.4121 5.8299 28.6263 5.61567 28.6263 5.19703V3.95419C28.6263 3.79229 28.7539 3.66473 28.9158 3.66473C29.0777 3.66473 29.2052 3.79229 29.2052 3.95419V5.17414C29.2052 5.97217 28.7571 6.36302 28.0491 6.36302C27.341 6.36302 26.9076 5.96727 26.9076 5.19213L26.9092 5.19376Z" fill="white"/>
<path fill-rule="evenodd" clip-rule="evenodd" d="M24.1995 9.45545C24.1358 9.40966 24.09 9.3279 24.09 9.23632C24.09 9.08587 24.211 8.96976 24.3614 8.96976C24.4367 8.96976 24.489 8.99593 24.5266 9.02209C24.7261 9.16927 24.9436 9.25921 25.2004 9.25921C25.4375 9.25921 25.5814 9.166 25.5814 9.01065V9.0041C25.5814 8.85693 25.4914 8.7817 25.0499 8.66886C24.5201 8.53313 24.1766 8.38595 24.1766 7.86265V7.85611C24.1766 7.37859 24.5609 7.06134 25.099 7.06134C25.4195 7.06134 25.6975 7.14474 25.9346 7.29519C25.9984 7.3328 26.0622 7.4113 26.0622 7.52414C26.0622 7.67459 25.9412 7.79233 25.7907 7.79233C25.7351 7.79233 25.6893 7.77761 25.6435 7.75145C25.4522 7.63861 25.2707 7.57483 25.0908 7.57483C24.8684 7.57483 24.7523 7.67622 24.7523 7.80541V7.81359C24.7523 7.98693 24.8651 8.04253 25.3214 8.16028C25.8561 8.29928 26.157 8.49225 26.157 8.95014V8.95831C26.157 9.48162 25.758 9.77434 25.1889 9.77434C24.8422 9.77434 24.4923 9.66968 24.1995 9.45872V9.45545Z" fill="white"/>
<path fill-rule="evenodd" clip-rule="evenodd" d="M26.5102 7.37367C26.5102 7.21177 26.6377 7.08422 26.7996 7.08422H26.8634C26.9877 7.08422 27.0744 7.14799 27.1267 7.23467L27.8266 8.37449L28.5298 7.22976C28.5903 7.13164 28.6737 7.08258 28.7898 7.08258H28.8536C29.0155 7.08258 29.1431 7.21177 29.1431 7.37203V9.46525C29.1431 9.62714 29.0155 9.7547 28.8536 9.7547C28.6917 9.7547 28.5674 9.62224 28.5674 9.46525V8.15208L28.0588 8.9354C27.9983 9.02534 27.9231 9.08258 27.8184 9.08258C27.7138 9.08258 27.6386 9.02698 27.578 8.9354L27.0776 8.16353V9.47342C27.0776 9.63205 26.9501 9.75633 26.7915 9.75633C26.6328 9.75633 26.5085 9.63205 26.5085 9.47342V7.37367H26.5102Z" fill="white"/>
<path fill-rule="evenodd" clip-rule="evenodd" d="M31.1105 8.63124L30.7458 7.76125L30.3811 8.63124H31.1121H31.1105ZM29.48 9.36223L30.3991 7.28864C30.4629 7.14636 30.579 7.05969 30.7376 7.05969H30.772C30.9306 7.05969 31.0434 7.14636 31.1072 7.28864L32.0262 9.36223C32.0459 9.40311 32.0557 9.44072 32.0557 9.47834C32.0557 9.63206 31.9347 9.75798 31.7809 9.75798C31.6452 9.75798 31.5553 9.67948 31.5029 9.55847L31.3263 9.14473H30.1669L29.9821 9.57809C29.933 9.69093 29.8349 9.75961 29.7155 9.75961C29.5651 9.75961 29.449 9.6386 29.449 9.48815C29.449 9.44726 29.4637 9.40475 29.4833 9.36386L29.48 9.36223Z" fill="white"/>
<path fill-rule="evenodd" clip-rule="evenodd" d="M32.3597 7.3655C32.3597 7.20361 32.4873 7.07605 32.6492 7.07605C32.8111 7.07605 32.9386 7.20361 32.9386 7.3655V9.20688H34.0114C34.1586 9.20688 34.2747 9.32298 34.2747 9.47016C34.2747 9.61734 34.157 9.73345 34.0114 9.73345H32.6492C32.4873 9.73345 32.3597 9.60589 32.3597 9.444V7.3655Z" fill="white"/>
<path fill-rule="evenodd" clip-rule="evenodd" d="M34.5397 7.3655C34.5397 7.20361 34.6672 7.07605 34.8291 7.07605C34.991 7.07605 35.1186 7.20361 35.1186 7.3655V9.20688H36.1913C36.3385 9.20688 36.4546 9.32298 36.4546 9.47016C36.4546 9.61734 36.3385 9.73345 36.1913 9.73345H34.8291C34.6672 9.73345 34.5397 9.60589 34.5397 9.444V7.3655Z" fill="white"/>
<path fill-rule="evenodd" clip-rule="evenodd" d="M24.0933 10.7996C24.0933 10.6377 24.2208 10.5102 24.3827 10.5102H25.8578C26.005 10.5102 26.1211 10.6263 26.1211 10.7735C26.1211 10.9207 26.005 11.0368 25.8578 11.0368H24.6722V11.5977H25.6877C25.8349 11.5977 25.951 11.7138 25.951 11.861C25.951 12.0081 25.8349 12.1243 25.6877 12.1243H24.6722V12.8765C24.6722 13.0384 24.5446 13.166 24.3827 13.166C24.2208 13.166 24.0933 13.0384 24.0933 12.8765V10.798V10.7996Z" fill="white"/>
<path fill-rule="evenodd" clip-rule="evenodd" d="M26.4382 10.7768C26.4382 10.6149 26.5658 10.4873 26.7277 10.4873C26.8896 10.4873 27.0171 10.6149 27.0171 10.7768V12.8781C27.0171 13.04 26.8896 13.1676 26.7277 13.1676C26.5658 13.1676 26.4382 13.04 26.4382 12.8781V10.7768Z" fill="white"/>
<path fill-rule="evenodd" clip-rule="evenodd" d="M27.5273 10.7849C27.5273 10.623 27.6549 10.4955 27.8168 10.4955H27.8773C28.0163 10.4955 28.0997 10.5625 28.1782 10.6656L29.2968 12.1341V10.7751C29.2968 10.6181 29.4243 10.489 29.5829 10.489C29.7416 10.489 29.8691 10.6165 29.8691 10.7751V12.8716C29.8691 13.0335 29.7416 13.1611 29.5797 13.1611H29.56C29.421 13.1611 29.3376 13.094 29.2592 12.9926L28.0997 11.4718V12.8831C28.0997 13.0417 27.9722 13.1692 27.8135 13.1692C27.6549 13.1692 27.5273 13.0417 27.5273 12.8831V10.7866V10.7849Z" fill="white"/>
<path fill-rule="evenodd" clip-rule="evenodd" d="M31.8331 12.0409L31.4684 11.1709L31.1038 12.0409H31.8348H31.8331ZM30.2027 12.7719L31.1218 10.6983C31.1855 10.556 31.3016 10.4694 31.4603 10.4694H31.4946C31.6532 10.4694 31.7661 10.556 31.8298 10.6983L32.7489 12.7719C32.7669 12.8128 32.7783 12.8504 32.7783 12.888C32.7783 13.0434 32.6573 13.166 32.5036 13.166C32.3679 13.166 32.2779 13.0875 32.2256 12.9665L32.049 12.5528H30.8895L30.7047 12.9861C30.6557 13.099 30.5576 13.166 30.4382 13.166C30.2877 13.166 30.1716 13.045 30.1716 12.8945C30.1716 12.852 30.1863 12.8111 30.206 12.7703L30.2027 12.7719Z" fill="white"/>
<path fill-rule="evenodd" clip-rule="evenodd" d="M33.0825 10.7849C33.0825 10.623 33.2101 10.4955 33.372 10.4955H33.4325C33.5715 10.4955 33.6549 10.5625 33.7334 10.6656L34.8519 12.1341V10.7751C34.8519 10.6181 34.9795 10.489 35.1381 10.489C35.2967 10.489 35.4243 10.6165 35.4243 10.7751V12.8716C35.4243 13.0335 35.2967 13.1611 35.1349 13.1611H35.1152C34.9762 13.1611 34.8928 13.094 34.8143 12.9926L33.6549 11.4718V12.8831C33.6549 13.0417 33.5273 13.1692 33.3687 13.1692C33.2101 13.1692 33.0825 13.0417 33.0825 12.8831V10.7866V10.7849Z" fill="white"/>
<path fill-rule="evenodd" clip-rule="evenodd" d="M35.7891 11.8348V11.8266C35.7891 11.0777 36.3532 10.4644 37.1627 10.4644C37.5585 10.4644 37.825 10.5691 38.0442 10.731C38.1047 10.7751 38.157 10.8585 38.157 10.9599C38.157 11.1185 38.0295 11.2428 37.8708 11.2428C37.7923 11.2428 37.74 11.2134 37.6975 11.1872C37.5356 11.0662 37.3671 10.9992 37.1595 10.9992C36.7163 10.9992 36.3958 11.3671 36.3958 11.8201V11.8266C36.3958 12.278 36.7081 12.6557 37.1595 12.6557C37.4048 12.6557 37.5667 12.5805 37.7318 12.4481C37.7776 12.4105 37.8365 12.3843 37.9052 12.3843C38.0523 12.3843 38.1766 12.5053 38.1766 12.6508C38.1766 12.7408 38.1308 12.8127 38.0785 12.8585C37.8414 13.0662 37.5634 13.1889 37.1415 13.1889C36.3663 13.1889 35.7907 12.5903 35.7907 11.8348H35.7891Z" fill="white"/>
<path fill-rule="evenodd" clip-rule="evenodd" d="M38.5315 12.8552V10.7996C38.5315 10.6377 38.6591 10.5102 38.8209 10.5102H40.3042C40.4465 10.5102 40.5642 10.6263 40.5642 10.7702C40.5642 10.9141 40.4481 11.0253 40.3042 11.0253H39.1071V11.5601H40.1129C40.2551 11.5601 40.3729 11.6762 40.3729 11.8201C40.3729 11.964 40.2568 12.0768 40.1129 12.0768H39.1071V12.6296H40.3009C40.4432 12.6296 40.5609 12.7457 40.5609 12.8896C40.5609 13.0335 40.4448 13.1447 40.3009 13.1447H38.8209C38.6591 13.1447 38.5315 13.0171 38.5315 12.8552Z" fill="white"/>
<path fill-rule="evenodd" clip-rule="evenodd" d="M25.3475 16.067C25.6026 16.067 25.758 15.9771 25.758 15.7808V15.7743C25.758 15.5977 25.6255 15.4881 25.3279 15.4881H24.6574V16.067H25.3459H25.3475ZM25.1938 15.0057C25.4489 15.0057 25.6108 14.9223 25.6108 14.7277V14.7211C25.6108 14.5478 25.4751 14.4497 25.2298 14.4497H24.6574V15.0073H25.1922L25.1938 15.0057ZM24.0948 14.2306C24.0948 14.0687 24.2224 13.9411 24.3843 13.9411H25.3181C25.619 13.9411 25.8561 14.0245 26.0065 14.175C26.1276 14.296 26.1864 14.4415 26.1864 14.623V14.6312C26.1864 14.9288 26.0278 15.094 25.8397 15.2003C26.1439 15.3164 26.3336 15.4947 26.3336 15.8479V15.8561C26.3336 16.3385 25.9428 16.5789 25.3475 16.5789H24.3843C24.2224 16.5789 24.0948 16.4513 24.0948 16.2894V14.2338V14.2306Z" fill="white"/>
<path fill-rule="evenodd" clip-rule="evenodd" d="M28.1439 15.4522L27.7792 14.5822L27.4146 15.4522H28.1455H28.1439ZM26.5135 16.1832L27.4325 14.1096C27.4963 13.9673 27.6141 13.8806 27.7711 13.8806H27.8054C27.964 13.8806 28.0769 13.9673 28.1406 14.1096L29.0597 16.1832C29.0793 16.224 29.0891 16.2616 29.0891 16.2993C29.0891 16.453 28.9681 16.5789 28.8144 16.5789C28.6787 16.5789 28.5887 16.5004 28.5364 16.3794L28.3598 15.9657H27.2003L27.0155 16.399C26.9665 16.5119 26.8684 16.5805 26.749 16.5805C26.5985 16.5805 26.4824 16.4595 26.4824 16.3091C26.4824 16.2682 26.4971 16.2257 26.5168 16.1848L26.5135 16.1832Z" fill="white"/>
<path fill-rule="evenodd" clip-rule="evenodd" d="M29.3933 14.1963C29.3933 14.0344 29.5209 13.9068 29.6828 13.9068H29.7433C29.8823 13.9068 29.9657 13.9755 30.0442 14.0769L31.1627 15.5454V14.1865C31.1627 14.0278 31.2903 13.9003 31.4489 13.9003C31.6075 13.9003 31.7351 14.0278 31.7351 14.1865V16.2829C31.7351 16.4448 31.6075 16.5724 31.4456 16.5724H31.426C31.287 16.5724 31.2036 16.5037 31.1251 16.4023L29.9657 14.8815V16.2927C29.9657 16.4514 29.8381 16.5789 29.6795 16.5789C29.5209 16.5789 29.3933 16.4514 29.3933 16.2927V14.1963Z" fill="white"/>
<path fill-rule="evenodd" clip-rule="evenodd" d="M32.2159 14.1881C32.2159 14.0262 32.3434 13.8986 32.5053 13.8986C32.6672 13.8986 32.7948 14.0262 32.7948 14.1881V15.0728L33.8643 14.0115C33.9362 13.9395 34.0065 13.8986 34.1096 13.8986C34.2715 13.8986 34.3761 14.0229 34.3761 14.1668C34.3761 14.2568 34.3352 14.3254 34.2698 14.3843L33.529 15.0777L34.3385 16.0949C34.3843 16.1521 34.417 16.211 34.417 16.2976C34.417 16.4595 34.2927 16.5806 34.1227 16.5806C34.0098 16.5806 33.9428 16.5233 33.8774 16.4415L33.1251 15.4554L32.7931 15.7645V16.2911C32.7931 16.453 32.6656 16.5806 32.5037 16.5806C32.3418 16.5806 32.2142 16.453 32.2142 16.2911V14.1897L32.2159 14.1881Z" fill="white"/>
<path fill-rule="evenodd" clip-rule="evenodd" d="M20.9044 21.6975H20.6525V22.937C20.6525 22.973 20.6394 23.0057 20.6149 23.0319C20.5887 23.058 20.5593 23.0728 20.5217 23.0728C20.4841 23.0728 20.4546 23.0597 20.4268 23.0319C20.4007 23.0057 20.3876 22.973 20.3876 22.937V21.6975H20.2388H19.9869V22.937C19.9869 22.9746 19.9739 23.0057 19.9477 23.0319C19.9215 23.058 19.8905 23.0728 19.8528 23.0728C19.8152 23.0728 19.7858 23.0597 19.758 23.0319C19.7302 23.0041 19.7188 22.973 19.7188 22.937V22.3663C19.7188 22.3189 19.6926 22.2796 19.6403 22.2469C19.5879 22.2142 19.5258 22.1995 19.4538 22.1995C19.3966 22.1995 19.3443 22.2175 19.2952 22.2535C19.2478 22.2894 19.2134 22.3352 19.1922 22.3941C19.184 22.4154 19.1709 22.4334 19.1529 22.4464C19.1349 22.4612 19.1137 22.4677 19.0908 22.4677C19.0679 22.4677 19.0466 22.4612 19.027 22.4464C19.0074 22.4317 18.9943 22.4154 18.9861 22.3941C18.9649 22.3352 18.9273 22.2894 18.8749 22.2535C18.821 22.2175 18.7605 22.1995 18.6934 22.1995C18.61 22.1995 18.5397 22.2289 18.4808 22.2878C18.4219 22.3467 18.3925 22.4186 18.3925 22.502C18.3925 22.5953 18.4285 22.6737 18.4988 22.7392C18.5708 22.8046 18.6558 22.8373 18.7555 22.8373C18.7915 22.8373 18.8226 22.8504 18.8504 22.8782C18.8766 22.9043 18.8896 22.937 18.8896 22.973C18.8896 23.0008 18.87 23.0253 18.8324 23.0433C18.7948 23.063 18.7474 23.0728 18.6918 23.0728C18.5348 23.0728 18.4007 23.0172 18.2895 22.906C18.1783 22.7948 18.1227 22.6607 18.1227 22.5037C18.1227 22.3549 18.1783 22.2289 18.2895 22.1243C18.4007 22.0196 18.5331 21.9657 18.6918 21.9657C18.7719 21.9657 18.8471 21.9804 18.9158 22.0114C18.9845 22.0409 19.0434 22.085 19.0892 22.1406C19.1268 22.0867 19.1807 22.0441 19.2461 22.0131C19.3132 21.982 19.3868 21.9657 19.4685 21.9657C19.5111 21.9657 19.5536 21.9689 19.5945 21.9771C19.6354 21.9853 19.6762 21.9951 19.7171 22.0114V21.6991H17.8528V22.9387C17.8528 22.9763 17.8414 23.0074 17.8201 23.0335C17.7972 23.0597 17.7711 23.0744 17.7384 23.0744C17.6975 23.0744 17.6632 23.0613 17.6337 23.0335C17.6043 23.0074 17.5896 22.9746 17.5896 22.9387V22.7686C17.5536 22.8111 17.5013 22.8455 17.4342 22.87C17.3672 22.8945 17.2903 22.9076 17.2053 22.9076C17.0548 22.9076 16.9256 22.8618 16.8177 22.7686C16.7098 22.677 16.6574 22.5658 16.6574 22.4366C16.6574 22.3876 16.6656 22.3401 16.682 22.2927C16.6983 22.2469 16.7212 22.2044 16.7539 22.1684H16.3941C16.3582 22.1684 16.3271 22.157 16.2993 22.1325C16.2731 22.1096 16.26 22.0801 16.26 22.0491C16.26 22.018 16.2731 21.9902 16.2993 21.9673C16.3255 21.9444 16.3565 21.9329 16.3941 21.9329H17.3263C17.3623 21.9329 17.3933 21.9444 17.4195 21.9673C17.4457 21.9902 17.4571 22.018 17.4571 22.0491C17.4571 22.0801 17.444 22.1096 17.4195 22.1325C17.3933 22.1553 17.3639 22.1684 17.3263 22.1684H17.1922C17.1202 22.1684 17.0581 22.1946 17.0058 22.2469C16.9534 22.2993 16.9273 22.363 16.9273 22.435C16.9273 22.4988 16.9567 22.5544 17.0156 22.6002C17.0744 22.6459 17.1448 22.6688 17.2282 22.6688C17.3279 22.6688 17.4129 22.6427 17.4849 22.5903C17.5569 22.538 17.5912 22.4742 17.5912 22.4023V21.6975H16.1946C16.0524 21.6811 16.0442 21.493 16.1946 21.462H20.1374H20.2993L20.296 21.4587L19.7727 20.9665C19.7596 20.9518 19.7367 20.9272 19.7024 20.8945C19.6681 20.8618 19.6517 20.8373 19.6517 20.8226C19.6517 20.7866 19.6648 20.7555 19.691 20.7293C19.7171 20.7032 19.7482 20.6901 19.7858 20.6901C19.8185 20.6901 19.8659 20.7212 19.9281 20.7817C19.9902 20.8438 20.0246 20.8765 20.0278 20.8798L20.6313 21.4603L20.6362 21.4636H20.9076C21.0172 21.4979 21.0139 21.6827 20.9076 21.6991L20.9044 21.6975ZM26.4743 21.462C26.6149 21.4832 26.5806 21.6926 26.4743 21.6975H26.2224V22.937C26.2224 22.9746 26.2093 23.0057 26.1832 23.0319C26.157 23.058 26.1243 23.0728 26.09 23.0728C26.0556 23.0728 26.0229 23.0597 25.9951 23.0319C25.969 23.0057 25.9559 22.973 25.9559 22.937V21.6975H25.4963C25.5438 21.7531 25.5781 21.8168 25.6026 21.8888C25.6272 21.9607 25.6386 22.036 25.6386 22.1161C25.6386 22.278 25.5748 22.4154 25.4489 22.5298C25.323 22.6443 25.1693 22.7015 24.991 22.7015C24.8635 22.7015 24.7539 22.6623 24.6623 22.5838C24.5708 22.5053 24.525 22.4121 24.525 22.3025C24.525 22.2191 24.5544 22.1472 24.6133 22.0883C24.6721 22.0294 24.7425 22 24.8259 22C24.8896 22 24.9436 22.0163 24.9894 22.0491C25.0352 22.0818 25.0581 22.121 25.0581 22.1684C25.0581 22.2093 25.045 22.2437 25.0188 22.2731C24.9927 22.3025 24.96 22.3172 24.924 22.3172C24.8896 22.3172 24.8602 22.314 24.834 22.3091C24.8079 22.3042 24.7866 22.296 24.767 22.2845C24.767 22.332 24.7883 22.3712 24.8324 22.4039C24.8749 22.4366 24.9289 22.453 24.991 22.453C25.0973 22.453 25.1873 22.4186 25.2625 22.35C25.3377 22.2813 25.3737 22.1979 25.3737 22.1014C25.3737 21.9902 25.3394 21.8953 25.2723 21.8168C25.2036 21.7383 25.1219 21.6991 25.027 21.6991H24.4187H24.2699V22.9387C24.2699 22.9746 24.2568 23.0074 24.2322 23.0335C24.2061 23.0597 24.175 23.0744 24.139 23.0744C24.1031 23.0744 24.072 23.0613 24.0442 23.0335C24.018 23.0074 24.0049 22.9746 24.0049 22.9387V21.6991H23.8561H23.6043V22.9387C23.6043 22.9763 23.5912 23.0074 23.5667 23.0335C23.5421 23.0597 23.5111 23.0744 23.4751 23.0744C23.4391 23.0744 23.408 23.0613 23.3802 23.0335C23.3541 23.0074 23.341 22.9746 23.341 22.9387V22.3614H23.0483C23.0123 22.3614 22.9812 22.35 22.9534 22.3271C22.9273 22.3058 22.9142 22.278 22.9142 22.2453C22.9142 22.2126 22.9273 22.1848 22.9534 22.1619C22.9796 22.139 23.0123 22.1259 23.0483 22.1259H23.341V21.6975H23.2069C23.1709 21.6975 23.1398 21.686 23.1137 21.6631C23.0892 21.6402 23.0761 21.6141 23.0761 21.5814C23.0761 21.5486 23.0892 21.5208 23.1137 21.4979C23.1398 21.4734 23.1709 21.462 23.2069 21.462H23.7547H24.5233H26.4775H26.4743ZM22.7065 21.511C22.5953 21.4325 22.4628 21.3933 22.3075 21.3933C22.175 21.3933 22.0622 21.4145 21.969 21.4554C21.8757 21.4979 21.8283 21.5486 21.8283 21.6092C21.8283 21.6549 21.8463 21.6876 21.8823 21.7122C21.9183 21.7367 21.9542 21.7367 21.9902 21.7154C22.0393 21.6876 22.09 21.6664 22.1439 21.6517C22.1979 21.637 22.2519 21.6288 22.3075 21.6288C22.3892 21.6288 22.4612 21.6484 22.5201 21.6876C22.5789 21.7269 22.6084 21.776 22.6084 21.8316C22.6084 21.8953 22.5822 21.9509 22.5299 21.9951C22.4775 22.0409 22.4138 22.0621 22.3402 22.0621C22.2928 22.0621 22.2535 22.0719 22.2224 22.0932C22.1897 22.1145 22.175 22.1374 22.175 22.1652C22.175 22.2011 22.1914 22.2322 22.2224 22.2584C22.2535 22.2845 22.2944 22.2976 22.3402 22.2976C22.4318 22.2976 22.5102 22.3205 22.5757 22.3679C22.6411 22.4137 22.6738 22.4693 22.6738 22.5331C22.6738 22.6165 22.6411 22.6885 22.5757 22.7473C22.5102 22.8062 22.4318 22.8356 22.3402 22.8356C22.2404 22.8356 22.1505 22.8127 22.072 22.7653C21.9935 22.7179 21.9395 22.6558 21.9117 22.5789C21.897 22.5364 21.8741 22.5004 21.8414 22.4742C21.8103 22.4481 21.776 22.4334 21.7433 22.4334C21.7106 22.4334 21.6844 22.4448 21.6599 22.4677C21.637 22.4906 21.6255 22.5184 21.6255 22.5495C21.6255 22.6934 21.6959 22.816 21.8349 22.919C21.9739 23.0204 22.1423 23.0711 22.3402 23.0711C22.5053 23.0711 22.6476 23.0221 22.7637 22.9239C22.8798 22.8258 22.9387 22.7081 22.9387 22.5675C22.9387 22.4922 22.9125 22.4186 22.8618 22.3467C22.8111 22.2747 22.7425 22.2126 22.6542 22.1619C22.7228 22.1226 22.7752 22.0719 22.8144 22.0065C22.852 21.9411 22.8717 21.8708 22.8717 21.7956C22.8717 21.6844 22.8161 21.5895 22.7049 21.511H22.7065ZM25.2609 20.7261C25.2347 20.7522 25.2216 20.7833 25.2216 20.8193C25.2216 20.834 25.238 20.8585 25.2723 20.8912C25.3067 20.924 25.3295 20.9485 25.3426 20.9632L25.879 21.4669H26.2143L25.5977 20.8765C25.5977 20.8765 25.5601 20.8389 25.4963 20.7784C25.4342 20.7179 25.3868 20.6868 25.3541 20.6868C25.3181 20.6868 25.287 20.6999 25.2592 20.7261H25.2609ZM27.6059 22.3418C27.5961 22.3712 27.5912 22.4023 27.5912 22.4334C27.5912 22.4971 27.6174 22.5527 27.6697 22.5985C27.722 22.6443 27.7842 22.6672 27.8561 22.6672C27.9052 22.6672 27.9493 22.6639 27.9886 22.6558C28.0278 22.6476 28.0605 22.6378 28.0851 22.6214L27.6452 22.2633C27.6272 22.2845 27.6141 22.3107 27.6059 22.3385V22.3418ZM29.9657 20.8929C29.9919 20.919 30.0049 20.9501 30.0049 20.9861C30.0049 21.0221 29.9919 21.0548 29.9657 21.0809C29.9395 21.1087 29.9085 21.1218 29.8708 21.1218C29.8332 21.1218 29.8038 21.1087 29.7776 21.0809C29.7531 21.0548 29.74 21.0221 29.74 20.9861C29.74 20.9501 29.7531 20.919 29.7776 20.8929C29.8038 20.8667 29.8349 20.8536 29.8708 20.8536C29.9068 20.8536 29.9379 20.8667 29.9657 20.8929ZM28.9992 20.7261C29.0254 20.6999 29.0564 20.6868 29.0941 20.6868C29.1268 20.6868 29.1742 20.7179 29.2363 20.7784C29.2985 20.8405 29.3328 20.8733 29.3377 20.8765L29.9412 21.4571L29.9461 21.4603H30.175C30.314 21.4865 30.3075 21.6942 30.175 21.6958H29.9493V22.1308C29.9493 22.1635 29.9395 22.1897 29.9215 22.211C29.9035 22.2322 29.8823 22.2404 29.8594 22.2338C29.8185 22.224 29.7727 22.2142 29.7204 22.2077C29.6681 22.2011 29.6108 22.1979 29.5503 22.1979C29.4146 22.1979 29.2985 22.2273 29.202 22.2862C29.1071 22.345 29.0581 22.417 29.0581 22.5004C29.0581 22.5936 29.0973 22.6721 29.1742 22.7375C29.2527 22.8029 29.3459 22.8356 29.4571 22.8356C29.5045 22.8356 29.5487 22.8291 29.5896 22.8144C29.6304 22.7997 29.6664 22.78 29.6959 22.7555C29.6697 22.7408 29.6501 22.7179 29.6354 22.6885C29.6206 22.659 29.6141 22.6247 29.6141 22.5887C29.6141 22.5184 29.6386 22.4579 29.691 22.4088C29.7416 22.3598 29.8038 22.3352 29.8757 22.3352C29.9477 22.3352 30.0098 22.3598 30.0605 22.4088C30.1112 22.4579 30.1374 22.5184 30.1374 22.5887C30.1374 22.7212 30.0703 22.8356 29.9379 22.9305C29.8054 23.0253 29.6452 23.0728 29.4587 23.0728C29.2723 23.0728 29.117 23.0172 28.9861 22.906C28.8569 22.7948 28.7915 22.6607 28.7915 22.5037C28.7915 22.3549 28.8651 22.2289 29.0123 22.1243C29.1595 22.0196 29.3394 21.9657 29.5503 21.9657H29.6844V21.6991H29.1824H28.5217V22.9387C28.5217 22.9763 28.5086 23.0074 28.4841 23.0335C28.4579 23.0597 28.4268 23.0744 28.3909 23.0744C28.3549 23.0744 28.3238 23.0613 28.296 23.0335C28.2699 23.0074 28.2568 22.9746 28.2568 22.9387V22.7719C28.2208 22.8144 28.1685 22.8487 28.0981 22.8716C28.0295 22.8962 27.9493 22.9076 27.8578 22.9076C27.7106 22.9076 27.5863 22.8618 27.4816 22.7686C27.377 22.677 27.3246 22.5658 27.3246 22.4366C27.3246 22.2878 27.3802 22.1619 27.4898 22.0572C27.601 21.9526 27.7335 21.8986 27.8888 21.8986C27.9526 21.8986 28.0066 21.915 28.0524 21.946C28.0981 21.9787 28.121 22.018 28.121 22.0654C28.121 22.0932 28.108 22.1177 28.0834 22.1374C28.0573 22.157 28.0262 22.1684 27.9902 22.1684H27.7858L28.2126 22.5037C28.2257 22.4857 28.2355 22.4693 28.2437 22.4546C28.2519 22.4383 28.2551 22.4219 28.2551 22.4039V21.6991H27.1954C27.0597 21.6844 27.0614 21.4849 27.1954 21.4636H29.6059L29.6026 21.4603L29.0793 20.9681C29.0663 20.9534 29.0434 20.9289 29.009 20.8961C28.9747 20.8634 28.9583 20.8389 28.9583 20.8242C28.9583 20.7882 28.9714 20.7571 28.9976 20.731L28.9992 20.7261ZM29.8071 22.6558C29.8267 22.6754 29.8479 22.6852 29.8741 22.6852C29.9003 22.6852 29.9215 22.6754 29.9412 22.6558C29.9608 22.6361 29.9706 22.6149 29.9706 22.5887C29.9706 22.5625 29.9608 22.5397 29.9412 22.52C29.9215 22.5004 29.9003 22.4906 29.8741 22.4906C29.8479 22.4906 29.8267 22.5004 29.8071 22.52C29.7874 22.5397 29.7776 22.5625 29.7776 22.5887C29.7776 22.6149 29.7874 22.6361 29.8071 22.6558ZM29.7171 23.3933C29.7498 23.4293 29.7662 23.4734 29.7662 23.5257C29.7662 23.5781 29.7498 23.6206 29.7171 23.6566C29.6844 23.6926 29.6435 23.7089 29.5977 23.7089C29.552 23.7089 29.5111 23.6909 29.48 23.6566C29.4489 23.6206 29.4326 23.5781 29.4326 23.5257C29.4326 23.4734 29.4489 23.4309 29.48 23.3933C29.5127 23.3573 29.552 23.3377 29.5977 23.3377C29.6435 23.3377 29.6844 23.3557 29.7171 23.3933Z" fill="white"/>
</g>
<defs>
<clipPath id="clip0_45_4230">
<rect width="46.3549" height="24" fill="white"/>
</clipPath>
</defs>
</svg>
