<svg width="95" height="24" viewBox="0 0 95 24" fill="none" xmlns="http://www.w3.org/2000/svg">
<path d="M27.6897 23.9998H19.0771L13.8478 14.8805H22.459L27.6897 23.9998ZM13.8169 0L18.1355 7.42702L8.59602 24H0L13.8169 0ZM33.0337 11.7411L31.5823 8.96042L30.0597 11.7411H33.0337ZM33.6329 12.9029H29.4453L28.3564 14.8805H26.7609L31.6107 6.18864L36.2842 14.8805H34.6675L33.6329 12.9029ZM39.5596 10.6124L36.8599 6.71527H38.5428L40.4165 9.47348L42.3758 6.71527H44.0719L41.2543 10.6124L44.2161 14.8805H42.5594L40.3936 11.7513L38.1548 14.8805H36.4829L39.5596 10.6124ZM47.0171 14.8807H45.5419V6.71502H47.0166L47.0171 14.8807ZM54.3938 7.91667L53.1892 8.5141C52.9645 8.18973 52.7542 7.97815 52.5477 7.8785C52.3365 7.76487 52.066 7.70933 51.7302 7.70933C51.3231 7.70933 50.9848 7.80685 50.7083 8.00444C50.4391 8.1927 50.3038 8.43057 50.3042 8.71847C50.3042 9.12256 50.6608 9.44142 51.3681 9.68268L52.3458 10.0198C53.1404 10.2801 53.7209 10.6138 54.0928 10.9967C54.4659 11.3859 54.6431 11.8579 54.6431 12.4248C54.6431 13.1732 54.3451 13.799 53.7408 14.2815C53.14 14.7806 52.3836 15.0269 51.4876 15.0269C50.6375 15.0269 49.9341 14.8183 49.3837 14.393C48.8333 13.9669 48.4979 13.3784 48.3593 12.6207L49.8556 12.3442C49.9268 12.8272 50.0401 13.152 50.2143 13.3377C50.5158 13.6879 50.9661 13.8673 51.5466 13.8673C52.0109 13.8673 52.3899 13.7426 52.6931 13.4789C53.0001 13.224 53.1498 12.8954 53.1498 12.5019C53.1498 12.3442 53.1269 12.1967 53.0633 12.0695C53.0209 11.9312 52.9369 11.8138 52.8262 11.7018C52.7185 11.5967 52.5663 11.4835 52.3899 11.3889C52.2136 11.2893 52.0024 11.2049 51.7573 11.1078L50.813 10.7809C49.4655 10.3102 48.8024 9.61993 48.8024 8.7083C48.8024 8.09348 49.0848 7.58721 49.6445 7.17549C50.2033 6.75657 50.9038 6.54329 51.7412 6.54414C52.8682 6.54414 53.7586 7.00207 54.3938 7.91667ZM61.9134 13.7179H62.828C63.5018 13.7179 63.9928 13.6106 64.3061 13.3956C64.6335 13.1561 64.8022 12.8571 64.8022 12.498C64.8022 12.1427 64.6334 11.8454 64.3201 11.5991C64.0101 11.3761 63.4615 11.2497 62.6618 11.2497H61.9134V13.7179ZM61.9134 10.2198H62.3815C62.9293 10.2198 63.336 10.1201 63.5891 9.91661C63.8418 9.71266 63.9733 9.415 63.9733 9.02491C63.9733 8.63482 63.8418 8.3414 63.5815 8.1506C63.3152 7.94495 62.9374 7.84488 62.4366 7.84488H61.9134V10.2198ZM60.437 14.8805V6.71489H61.9134C62.5685 6.71489 63.09 6.75135 63.4797 6.83827C63.8719 6.92011 64.2027 7.06978 64.4715 7.26186C64.7492 7.47853 64.9612 7.73507 65.1253 8.05223C65.2949 8.35709 65.3772 8.67849 65.3772 8.99862C65.3772 9.58334 65.1045 10.0777 64.5673 10.4844C65.0922 10.6315 65.4976 10.891 65.7982 11.262C66.1065 11.6271 66.2566 12.0494 66.2566 12.5459C66.2566 13.1785 65.9877 13.7179 65.4437 14.1618C65.1202 14.434 64.7547 14.6253 64.3489 14.7262C63.9033 14.8309 63.3487 14.8805 62.6775 14.8805H60.437ZM72.6127 11.7411L71.1558 8.96042L69.6268 11.7411H72.6127ZM73.2135 12.9029H69.02L67.9299 14.8805H66.3335L71.1761 6.18864L75.8577 14.8805H74.2329L73.2135 12.9029ZM76.8255 14.8807V6.14726L83.9646 12.3909V6.71502H85.4436V15.3789L78.3028 9.15648V14.8807H76.8255ZM88.7546 9.97504L92.5699 6.71522H94.5378L90.1132 10.4147L94.5683 14.8804H92.5877L89.0625 11.2462L88.7546 11.5015V14.8804H87.2736V6.71522H88.7546V9.97504Z" fill="#AE285D"/>
</svg>
