<svg width="122" height="24" viewBox="0 0 122 24" fill="none" xmlns="http://www.w3.org/2000/svg">
<g clip-path="url(#clip0_45_4308)">
<path d="M30.6643 12.8801V16.3372C30.893 16.3595 31.1374 16.3729 31.3996 16.3863C31.6619 16.3952 31.9018 16.4019 32.1216 16.4019C32.5468 16.4019 32.9418 16.3729 33.3079 16.3193C33.675 16.2646 33.9908 16.1698 34.2575 16.0336C34.5253 15.8964 34.7396 15.7134 34.8958 15.4857C35.0565 15.2547 35.1324 14.9601 35.1324 14.6008C35.1324 13.9569 34.8991 13.5083 34.4293 13.2572C33.9607 13.0062 33.3112 12.8801 32.4821 12.8801H30.6643ZM30.6643 11.2598H32.1216C32.9084 11.2598 33.5255 11.1471 33.9707 10.9239C34.4193 10.6973 34.6436 10.2967 34.6436 9.71869C34.6436 9.17524 34.4115 8.78579 33.9473 8.55479C33.4808 8.32603 32.8805 8.21332 32.1373 8.21332C31.8203 8.21332 31.538 8.2189 31.2959 8.23006C31.0481 8.23899 30.8372 8.25573 30.6643 8.27693V11.2598ZM32.0569 18.1226C31.4566 18.1226 30.8473 18.1025 30.238 18.0657C29.6265 18.0267 29.0897 17.9474 28.6333 17.828V6.80504C28.871 6.7604 29.1288 6.71912 29.401 6.68006C29.6744 6.64435 29.9534 6.61311 30.238 6.59079C30.5203 6.56958 30.8037 6.55173 31.0805 6.54169C31.3584 6.53276 31.6239 6.52606 31.8739 6.52606C32.5624 6.52606 33.2018 6.5774 33.7922 6.68006C34.3814 6.78496 34.8925 6.95792 35.3232 7.19784C35.7551 7.43665 36.0898 7.75357 36.3286 8.14748C36.5719 8.53917 36.6891 9.02571 36.6891 9.60375C36.6891 10.1383 36.563 10.5991 36.3074 10.9819C36.0485 11.3624 35.6892 11.6682 35.2328 11.8981C35.9224 12.1268 36.4291 12.4649 36.7549 12.9135C37.0841 13.361 37.2481 13.9279 37.2481 14.6164C37.2481 15.7859 36.823 16.6619 35.9715 17.2466C35.119 17.8303 33.8134 18.1226 32.0569 18.1226Z" fill="#0A3152"/>
<path d="M41.2443 16.5982C41.8569 16.5982 42.3222 16.5659 42.6369 16.5012V14.305C42.5298 14.2727 42.3702 14.2381 42.1615 14.2068C41.9551 14.1734 41.7263 14.1577 41.4752 14.1577C41.2565 14.1577 41.0356 14.1734 40.8135 14.2068C40.587 14.2381 40.3872 14.3006 40.2042 14.3887C40.0257 14.4724 39.8806 14.5974 39.7712 14.7548C39.6641 14.9132 39.6094 15.113 39.6094 15.354C39.6094 15.8238 39.7534 16.1474 40.0502 16.3282C40.3471 16.5056 40.7432 16.5982 41.2443 16.5982ZM41.0824 9.21091C41.7364 9.21091 42.2876 9.29348 42.7362 9.45752C43.1837 9.61933 43.5397 9.85032 43.8086 10.1449C44.0776 10.4395 44.2661 10.7977 44.3811 11.2184C44.496 11.638 44.554 12.1 44.554 12.6022V17.7945C44.2472 17.8603 43.7863 17.9385 43.1703 18.0333C42.551 18.1237 41.8569 18.1706 41.0824 18.1706C40.568 18.1706 40.0993 18.1226 39.673 18.0221C39.2479 17.9262 38.8852 17.7677 38.585 17.549C38.2826 17.3292 38.0494 17.048 37.8787 16.6964C37.709 16.346 37.6265 15.9164 37.6265 15.4009C37.6265 14.911 37.7202 14.4959 37.9133 14.1577C38.1041 13.8196 38.3619 13.5429 38.6922 13.3309C39.018 13.1177 39.3974 12.966 39.8282 12.8711C40.2611 12.7796 40.7108 12.7316 41.1795 12.7316C41.3971 12.7316 41.627 12.7461 41.868 12.774C42.108 12.8008 42.3635 12.8465 42.6369 12.9124V12.5854C42.6369 12.3567 42.609 12.1379 42.5577 11.9293C42.5008 11.7239 42.4059 11.5409 42.2709 11.3814C42.1325 11.2229 41.9529 11.1001 41.7297 11.012C41.5054 10.9272 41.223 10.8814 40.8827 10.8814C40.4252 10.8814 40.0045 10.916 39.6251 10.9807C39.2412 11.0466 38.931 11.1213 38.6922 11.2095L38.4444 9.60259C38.6955 9.51778 39.0604 9.42963 39.5391 9.34147C40.0223 9.25554 40.5368 9.21091 41.0824 9.21091Z" fill="#0A3152"/>
<path d="M45.9143 9.70194C46.2948 9.59258 46.7903 9.48992 47.4018 9.3906C48.0156 9.29352 48.6907 9.24442 49.4339 9.24442C50.1325 9.24442 50.715 9.33816 51.1859 9.53009C51.6568 9.72091 52.0284 9.98985 52.3096 10.3313C52.5897 10.6784 52.7839 11.0924 52.8966 11.5789C53.0137 12.0643 53.0718 12.5966 53.0718 13.1758V17.9909H51.0888V13.486C51.0888 13.0285 51.0598 12.6357 50.9973 12.3154C50.937 11.9929 50.8399 11.7307 50.7027 11.5287C50.5665 11.3289 50.3835 11.1794 50.147 11.0868C49.9104 10.9942 49.6247 10.9462 49.2855 10.9462C49.0344 10.9462 48.7722 10.9629 48.501 10.9964C48.2265 11.0299 48.0245 11.0555 47.8951 11.0779V17.9909H45.9143" fill="#0A3152"/>
<path d="M55.9866 13.6835C55.9866 14.5573 56.193 15.2413 56.6081 15.7379C57.0232 16.2356 57.5957 16.4845 58.3277 16.4845C58.6447 16.4845 58.9158 16.4711 59.139 16.4432C59.3644 16.4153 59.5463 16.3863 59.688 16.3517V11.4372C59.5128 11.3189 59.2796 11.2073 58.9906 11.1035C58.7027 11.0009 58.3947 10.9462 58.0655 10.9462C57.3457 10.9462 56.819 11.1939 56.4843 11.6849C56.1517 12.177 55.9866 12.8421 55.9866 13.6835ZM61.6699 17.7276C61.2749 17.8503 60.7828 17.9575 60.1891 18.0557C59.5921 18.155 58.9672 18.203 58.3121 18.203C57.6348 18.203 57.0299 18.1003 56.4943 17.8927C55.9575 17.6863 55.5034 17.3872 55.1262 17C54.7501 16.6139 54.46 16.1441 54.2591 15.5917C54.056 15.0405 53.9534 14.42 53.9534 13.7326C53.9534 13.0553 54.0382 12.4404 54.2089 11.8891C54.3774 11.339 54.6263 10.8659 54.9532 10.4731C55.2802 10.0802 55.6797 9.77672 56.1506 9.56247C56.6193 9.35044 57.1605 9.24443 57.7731 9.24443C58.1871 9.24443 58.5509 9.29465 58.8667 9.39062C59.187 9.48993 59.4593 9.59818 59.688 9.71869V5.60767L61.6699 5.28071" fill="#0A3152"/>
<path d="M63.1262 17.9909V5.60766L65.1091 5.27958V9.5234C65.3267 9.44528 65.5823 9.37945 65.8713 9.32588C66.1614 9.27232 66.4449 9.2433 66.7306 9.2433C67.418 9.2433 67.9904 9.33816 68.4435 9.52898C68.8954 9.72091 69.2603 9.98873 69.5293 10.3313C69.8038 10.6773 70.0002 11.0901 70.114 11.5689C70.2278 12.0498 70.287 12.5855 70.287 13.1758V17.9909H68.3051V13.486C68.3051 13.0285 68.2716 12.6357 68.2147 12.3154C68.1533 11.9929 68.0563 11.7307 67.9168 11.5287C67.7829 11.3289 67.5976 11.1794 67.3689 11.0868C67.1401 10.9942 66.8555 10.9462 66.5185 10.9462C66.2552 10.9462 65.9874 10.9752 65.7151 11.0299C65.4439 11.0834 65.2397 11.1325 65.1091 11.1761V17.9909" fill="#0A3152"/>
<path d="M74.6111 16.5982C75.2204 16.5982 75.6846 16.5659 76.0016 16.5012V14.305C75.8933 14.2727 75.7337 14.2381 75.524 14.2068C75.3197 14.1734 75.091 14.1577 74.8399 14.1577C74.6212 14.1577 74.4002 14.1734 74.1759 14.2068C73.9516 14.2381 73.7497 14.3006 73.57 14.3887C73.3903 14.4724 73.2464 14.5974 73.1348 14.7548C73.0254 14.9132 72.973 15.113 72.973 15.354C72.973 15.8238 73.1192 16.1474 73.4127 16.3282C73.7106 16.5056 74.1067 16.5982 74.6111 16.5982ZM74.4449 9.21091C75.1021 9.21091 75.6501 9.29348 76.0975 9.45752C76.5484 9.61933 76.9043 9.85032 77.1733 10.1449C77.4411 10.4395 77.6297 10.7977 77.748 11.2184C77.8629 11.638 77.9176 12.1 77.9176 12.6022V17.7945C77.6129 17.8603 77.1498 17.9385 76.535 18.0333C75.9179 18.1237 75.2204 18.1706 74.4449 18.1706C73.9316 18.1706 73.4629 18.1226 73.0366 18.0221C72.6125 17.9262 72.2476 17.7677 71.9463 17.549C71.6473 17.3292 71.4107 17.048 71.2444 16.6964C71.0737 16.346 70.9889 15.9164 70.9889 15.4009C70.9889 14.911 71.0849 14.4959 71.2768 14.1577C71.4676 13.8196 71.7265 13.5429 72.0546 13.3309C72.3838 13.1177 72.7621 12.966 73.195 12.8711C73.6258 12.7796 74.0755 12.7316 74.5442 12.7316C74.7629 12.7316 74.9917 12.7461 75.2316 12.774C75.4715 12.8008 75.7271 12.8465 76.0016 12.9124V12.5854C76.0016 12.3567 75.9737 12.1379 75.9201 11.9293C75.8632 11.7239 75.7717 11.5409 75.6311 11.3814C75.4961 11.2229 75.3175 11.1001 75.0932 11.012C74.8689 10.9272 74.5877 10.8814 74.2496 10.8814C73.7898 10.8814 73.3691 10.916 72.9875 10.9807C72.607 11.0466 72.2956 11.1213 72.0546 11.2095L71.8091 9.60259C72.0591 9.51778 72.424 9.42963 72.906 9.34147C73.387 9.25554 73.9003 9.21091 74.4449 9.21091Z" fill="#0A3152"/>
<path d="M79.2756 9.70194C79.6595 9.59258 80.155 9.48992 80.7676 9.3906C81.3791 9.29352 82.0554 9.24442 82.7986 9.24442C83.4971 9.24442 84.083 9.33816 84.5506 9.53009C85.0192 9.72091 85.3942 9.98985 85.6754 10.3313C85.9521 10.6784 86.1474 11.0924 86.2646 11.5789C86.3784 12.0643 86.4342 12.5966 86.4342 13.1758V17.9909H84.4523V13.486C84.4523 13.0285 84.4233 12.6357 84.3631 12.3154C84.3017 11.9929 84.2046 11.7307 84.0685 11.5287C83.9323 11.3289 83.7471 11.1794 83.5105 11.0868C83.2773 10.9942 82.9894 10.9462 82.6535 10.9462C82.4013 10.9462 82.1357 10.9629 81.8657 10.9964C81.5923 11.0299 81.3903 11.0555 81.2586 11.0779V17.9909H79.2756" fill="#0A3152"/>
<path d="M91.8731 12.5363V17.0234C92.036 17.048 92.2815 17.0725 92.6096 17.0982C92.9388 17.125 93.2702 17.1406 93.6084 17.1406C94.1105 17.1406 94.6004 17.1049 95.0758 17.0413C95.5489 16.9743 95.9685 16.8538 96.3278 16.6786C96.6905 16.5034 96.9784 16.2624 97.1949 15.9544C97.4114 15.6486 97.523 15.2536 97.523 14.7715C97.523 14.3341 97.4471 13.9692 97.2953 13.6779C97.1425 13.3889 96.9226 13.1568 96.6403 12.9883C96.3546 12.8187 96.0109 12.7004 95.6003 12.6357C95.1907 12.5698 94.7343 12.5363 94.2322 12.5363H91.8731ZM91.8731 11.5867H94.0358C94.4375 11.5867 94.8214 11.5577 95.1807 11.4974C95.5422 11.4372 95.8547 11.3289 96.1236 11.1705C96.3926 11.0131 96.6024 10.8011 96.7552 10.5344C96.907 10.2677 96.984 9.92733 96.984 9.51444C96.984 9.14508 96.9014 8.83262 96.7363 8.57485C96.5745 8.32154 96.3412 8.11063 96.0411 7.94659C95.742 7.78478 95.3838 7.66761 94.9675 7.59842C94.5535 7.52812 94.0949 7.49018 93.5927 7.49018C93.1899 7.49018 92.8462 7.50246 92.5683 7.52477C92.2894 7.54598 92.0561 7.57276 91.8731 7.60512V11.5867ZM93.4778 18.0891C93.2937 18.0891 93.0794 18.0813 92.8306 18.0657C92.584 18.0478 92.334 18.0255 92.0796 17.9987C91.8196 17.9708 91.5763 17.9385 91.3486 17.9005C91.1221 17.8615 90.9224 17.8224 90.7606 17.7767V6.85188C90.957 6.79832 91.1746 6.75145 91.4156 6.71351C91.6533 6.67445 91.9033 6.64432 92.1621 6.61419C92.4177 6.58852 92.6677 6.56955 92.9132 6.55728C93.1575 6.54612 93.3841 6.54166 93.5927 6.54166C94.2043 6.54166 94.7845 6.59076 95.338 6.68784C95.8893 6.78604 96.3714 6.95008 96.7887 7.17773C97.2016 7.4076 97.5319 7.71002 97.7808 8.08719C98.0229 8.46326 98.1445 8.92971 98.1445 9.48543C98.1445 10.0958 97.9906 10.617 97.6803 11.0477C97.3668 11.4751 96.9494 11.7753 96.4272 11.9404C96.7552 12.0152 97.0543 12.1246 97.3288 12.2674C97.6 12.408 97.8399 12.591 98.0486 12.8164C98.2561 13.0396 98.4179 13.3119 98.5318 13.6355C98.6467 13.958 98.7014 14.343 98.7014 14.7927C98.7014 15.864 98.2762 16.6797 97.427 17.2455C96.5745 17.8079 95.2577 18.0891 93.4778 18.0891Z" fill="#0A3152"/>
<path d="M102.617 17.221C103.034 17.221 103.398 17.2076 103.707 17.1808C104.019 17.1551 104.283 17.1161 104.502 17.0737V14.0931C104.384 14.0395 104.191 13.9804 103.929 13.9212C103.667 13.861 103.305 13.8319 102.848 13.8319C102.586 13.8319 102.31 13.8487 102.028 13.8889C101.744 13.9257 101.482 14.0094 101.242 14.1332C101.004 14.2593 100.806 14.4301 100.654 14.6488C100.499 14.8675 100.422 15.1588 100.422 15.5181C100.422 15.835 100.475 16.1028 100.579 16.3193C100.683 16.5391 100.832 16.7143 101.021 16.8471C101.212 16.9766 101.441 17.0725 101.71 17.1295C101.975 17.1908 102.28 17.221 102.617 17.221ZM102.519 9.32701C103.076 9.32701 103.549 9.40512 103.937 9.56246C104.324 9.72204 104.638 9.94076 104.879 10.2186C105.119 10.4954 105.294 10.8268 105.401 11.2107C105.513 11.5923 105.564 12.0063 105.564 12.4549V17.7945C105.457 17.828 105.3 17.8615 105.092 17.9006C104.885 17.9385 104.645 17.9809 104.37 18.0222C104.097 18.0679 103.794 18.1025 103.463 18.1304C103.128 18.1572 102.789 18.1717 102.437 18.1717C101.99 18.1717 101.577 18.1226 101.2 18.0222C100.824 17.9262 100.496 17.77 100.219 17.558C99.9412 17.3437 99.7202 17.0725 99.564 16.7389C99.4055 16.4041 99.3252 15.999 99.3252 15.5181C99.3252 15.0594 99.4145 14.6666 99.5897 14.3386C99.7604 14.0094 100.008 13.7393 100.326 13.5273C100.643 13.3142 101.02 13.1568 101.455 13.0597C101.891 12.9638 102.366 12.9135 102.879 12.9135C103.034 12.9135 103.193 12.9202 103.364 12.937C103.532 12.9548 103.696 12.976 103.854 13.0028C104.014 13.0318 104.148 13.0575 104.265 13.0854C104.379 13.1111 104.458 13.1367 104.502 13.1568V12.6346C104.502 12.34 104.481 12.0532 104.436 11.7753C104.395 11.4975 104.298 11.2464 104.148 11.021C104.003 10.7978 103.794 10.617 103.529 10.4797C103.259 10.3447 102.906 10.2778 102.472 10.2778C101.848 10.2778 101.384 10.3191 101.077 10.4061C100.773 10.4954 100.548 10.5657 100.408 10.6215L100.258 9.68633C100.446 9.59817 100.732 9.51894 101.118 9.44083C101.507 9.36606 101.974 9.32701 102.519 9.32701Z" fill="#0A3152"/>
<path d="M107.22 9.818C107.538 9.73096 107.966 9.63164 108.499 9.5234C109.034 9.41404 109.689 9.35936 110.465 9.35936C111.108 9.35936 111.646 9.45198 112.077 9.63834C112.509 9.82358 112.852 10.0869 113.11 10.4318C113.364 10.7766 113.55 11.1872 113.656 11.6682C113.766 12.1491 113.823 12.6792 113.823 13.2572V17.9909H112.757V13.6009C112.757 13.0006 112.716 12.4917 112.635 12.0788C112.552 11.6648 112.415 11.3234 112.224 11.0622C112.034 10.8011 111.782 10.6125 111.471 10.4954C111.159 10.3838 110.769 10.3235 110.3 10.3235C109.798 10.3235 109.364 10.3514 108.999 10.4061C108.634 10.4608 108.395 10.5099 108.285 10.5556V17.9909H107.22" fill="#0A3152"/>
<path d="M117.603 13.38C117.989 13.6512 118.379 13.967 118.774 14.3207C119.167 14.6767 119.554 15.0639 119.935 15.4768C120.319 15.8953 120.677 16.3182 121.016 16.7556C121.353 17.1953 121.642 17.6059 121.88 17.9909H120.6C120.345 17.5602 120.045 17.1395 119.707 16.7244C119.37 16.3115 119.013 15.9187 118.642 15.5538C118.272 15.1889 117.902 14.8552 117.527 14.555C117.155 14.2537 116.825 14.0261 116.538 13.8755V17.9909H115.477V5.47598L116.538 5.27958V13.1691C116.768 12.9738 117.049 12.7071 117.391 12.3701C117.733 12.0342 118.077 11.6938 118.427 11.3546C118.784 11.0143 119.115 10.6828 119.429 10.3637C119.742 10.0445 120.006 9.76555 120.217 9.5234H121.518C121.271 9.78452 120.982 10.0758 120.657 10.396C120.331 10.7152 119.993 11.0488 119.642 11.3959C119.29 11.7418 118.943 12.0833 118.601 12.4181C118.26 12.7562 117.929 13.0765 117.603 13.38Z" fill="#0A3152"/>
<path d="M11.485 0.00782394C5.0267 0.200859 -0.164062 5.48424 -0.164062 11.9883C-0.164062 18.6174 5.20858 23.9889 11.8298 23.9889C14.0246 23.9889 19.9842 23.0695 22.7916 16.8734C21.5876 17.3632 20.2721 17.6343 18.894 17.6343C13.1755 17.6343 8.5549 13.9287 8.54709 8.21243C8.54151 5.27449 9.4297 2.91121 10.7899 1.16831C11.0655 0.813484 11.5196 0.31695 11.8298 5.91278e-05C11.8131 0.00117493 11.5018 0.00782394 11.485 0.00782394Z" fill="url(#paint0_linear_45_4308)"/>
<mask id="mask0_45_4308" style="mask-type:luminance" maskUnits="userSpaceOnUse" x="0" y="0" width="24" height="24">
<path d="M0.880371 0H23.836V24H0.880371V0Z" fill="white"/>
</mask>
<g mask="url(#mask0_45_4308)">
<path d="M12.9066 1.16825C14.7053 3.56948 15.1226 5.86467 15.1226 8.22238C15.1226 13.9387 10.4898 17.6454 4.77568 17.6454C3.39765 17.6454 2.08545 17.3732 0.880371 16.8844C3.74132 23.258 9.64174 24 11.8365 24C18.4622 24 23.836 18.6274 23.836 11.9994C23.836 5.49311 18.6441 0.209723 12.1836 0.0166874C12.1668 0.0166874 11.8488 0.00111771 11.8298 1.90735e-06C12.1412 0.316893 12.6377 0.805614 12.9066 1.16825Z" fill="url(#paint1_linear_45_4308)"/>
<path d="M10.5936 1.43391C9.33484 3.17362 8.53473 5.44338 8.54589 8.16956C8.55705 11.1624 9.83477 13.6587 11.8445 15.308C13.842 13.6587 15.1644 11.2104 15.1253 8.22312C15.0996 5.98683 14.8899 3.89561 12.9616 1.23863C12.6547 0.814582 12.1179 0.265553 11.8378 0.00108147C11.8055 0.00108147 11.0846 0.753206 10.5936 1.43391Z" fill="white"/>
</g>
</g>
<defs>
<linearGradient id="paint0_linear_45_4308" x1="-0.208695" y1="0.877088" x2="14.7621" y2="18.9242" gradientUnits="userSpaceOnUse">
<stop stop-color="#EF3B23"/>
<stop offset="1" stop-color="#8B131E"/>
</linearGradient>
<linearGradient id="paint1_linear_45_4308" x1="-0.0290166" y1="11.9994" x2="20.0712" y2="11.9994" gradientUnits="userSpaceOnUse">
<stop stop-color="#B7212F"/>
<stop offset="1" stop-color="#EF3B23"/>
</linearGradient>
<clipPath id="clip0_45_4308">
<rect width="122" height="24" fill="white"/>
</clipPath>
</defs>
</svg>
