<svg width="119" height="24" viewBox="0 0 119 24" fill="none" xmlns="http://www.w3.org/2000/svg">
<path d="M32.094 11.8108C32.7106 11.953 33.1435 12.1282 33.3923 12.332C33.7503 12.6235 33.9282 12.9997 33.9282 13.4621C33.9282 13.9504 33.7321 14.3547 33.3397 14.6735C32.8577 15.0609 32.1564 15.2536 31.2372 15.2536H27.9366V15.077C28.2379 15.077 28.4404 15.049 28.5483 14.9922C28.6548 14.9362 28.7297 14.8647 28.7718 14.7744C28.8166 14.6847 28.8376 14.4654 28.8376 14.1144V9.90025C28.8376 9.54854 28.8166 9.32785 28.7718 9.23607C28.7297 9.14499 28.6527 9.07283 28.5448 9.01888C28.4369 8.96284 28.2344 8.93691 27.9366 8.93691V8.75896H31.0494C31.7935 8.75896 32.321 8.82622 32.63 8.95793C32.9411 9.09035 33.1842 9.28862 33.3628 9.55205C33.5422 9.81477 33.6305 10.0964 33.6305 10.3921C33.6305 10.7059 33.5177 10.9834 33.2907 11.2286C33.0651 11.4724 32.6664 11.6672 32.094 11.8108ZM30.3516 11.6805C30.8042 11.6805 31.1377 11.6293 31.3535 11.5278C31.5693 11.4255 31.7346 11.2811 31.8502 11.0962C31.9651 10.9119 32.0219 10.6751 32.0219 10.3872C32.0219 10.1006 31.9651 9.86592 31.8523 9.68096C31.7395 9.4974 31.5777 9.35868 31.3668 9.2627C31.1559 9.16601 30.8175 9.11977 30.3516 9.12328V11.6805ZM30.3516 12.0546V14.1375L30.3467 14.3778C30.3467 14.5488 30.3888 14.6798 30.477 14.7681C30.5653 14.8549 30.6949 14.8991 30.868 14.8991C31.123 14.8991 31.3584 14.843 31.5742 14.7288C31.79 14.616 31.9553 14.4507 32.0695 14.2356C32.1858 14.0212 32.2426 13.7809 32.2426 13.5161C32.2426 13.212 32.1725 12.9388 32.0317 12.6985C31.8916 12.4582 31.6982 12.29 31.4516 12.1933C31.2064 12.0973 30.8386 12.0511 30.3516 12.0546ZM37.0753 14.5929C36.5289 15.0756 36.0384 15.3159 35.6034 15.3159C35.3484 15.3159 35.1361 15.2326 34.9679 15.0637C34.7977 14.8977 34.7143 14.6868 34.7143 14.4346C34.7143 14.0934 34.86 13.7858 35.1543 13.5126C35.4485 13.24 36.0875 12.8764 37.0753 12.4238V11.9726C37.0753 11.6342 37.0571 11.422 37.0193 11.3337C36.9836 11.2454 36.9135 11.1683 36.8119 11.1032C36.7089 11.038 36.5947 11.0051 36.4672 11.0051C36.2591 11.0051 36.0875 11.052 35.9537 11.1438C35.8717 11.2013 35.829 11.2685 35.829 11.3449C35.829 11.4122 35.8752 11.4955 35.9635 11.595C36.0847 11.7323 36.1463 11.8647 36.1463 11.9923C36.1463 12.1492 36.0875 12.2816 35.9719 12.393C35.8542 12.5023 35.7015 12.5576 35.5137 12.5576C35.3126 12.5576 35.1445 12.496 35.0086 12.3748C34.8733 12.2536 34.804 12.1114 34.804 11.9495C34.804 11.719 34.8958 11.5004 35.0772 11.2909C35.2608 11.0815 35.5137 10.9217 35.8395 10.8089C36.1646 10.6975 36.503 10.6422 36.8547 10.6422C37.2792 10.6422 37.6141 10.7319 37.8628 10.9119C38.1094 11.0934 38.2699 11.2874 38.3434 11.4983C38.3897 11.6328 38.4107 11.9418 38.4107 12.4238V14.1613C38.4107 14.3659 38.4191 14.4955 38.4352 14.5474C38.4513 14.5999 38.4745 14.6391 38.5074 14.6651C38.5382 14.6896 38.5753 14.7029 38.6167 14.7029C38.7001 14.7029 38.7848 14.644 38.8717 14.5263L39.0139 14.6405C38.8556 14.878 38.6902 15.049 38.5186 15.1555C38.3483 15.262 38.1543 15.3159 37.9364 15.3159C37.6814 15.3159 37.4817 15.255 37.3381 15.1359C37.1944 15.0168 37.1062 14.8353 37.0753 14.5929ZM37.0753 14.2433V12.7447C36.6893 12.9717 36.4014 13.2134 36.2136 13.4719C36.0875 13.645 36.0251 13.8187 36.0251 13.9932C36.0251 14.1403 36.0777 14.2699 36.1842 14.3827C36.264 14.4689 36.3754 14.5116 36.5191 14.5116C36.6795 14.5116 36.8645 14.4213 37.0753 14.2433ZM41.3371 10.776V11.3547C41.5676 11.1067 41.7883 10.9252 41.9992 10.8124C42.2101 10.6975 42.4357 10.6422 42.6788 10.6422C42.9681 10.6422 43.2105 10.7221 43.4018 10.8839C43.5931 11.0443 43.7206 11.2454 43.7843 11.4836C43.8362 11.6672 43.8607 12.0168 43.8607 12.5338V14.2762C43.8607 14.6209 43.8922 14.8367 43.9539 14.9201C44.0162 15.0056 44.1473 15.0588 44.3448 15.0819V15.2536H42.0791V15.0819C42.2493 15.0588 42.3698 14.9887 42.4434 14.871C42.4945 14.7912 42.5205 14.5929 42.5205 14.2762V12.2851C42.5205 11.9173 42.5057 11.6854 42.4777 11.5901C42.4483 11.4941 42.3992 11.4206 42.3306 11.368C42.2619 11.3141 42.187 11.2874 42.1036 11.2874C41.829 11.2874 41.5739 11.4836 41.3371 11.8781V14.2762C41.3371 14.6111 41.368 14.8234 41.4303 14.9138C41.4941 15.0035 41.6083 15.0588 41.7785 15.0819V15.2536H39.5128V15.0819C39.7005 15.0623 39.8343 15.0021 39.9149 14.8991C39.9688 14.829 39.9962 14.6209 39.9962 14.2762V11.747C39.9962 11.4087 39.9653 11.1999 39.903 11.1158C39.8413 11.0324 39.7103 10.9792 39.5128 10.9526V10.776H41.3371ZM46.7822 8.75896V13.032L47.8219 12.0119C48.0363 11.8045 48.1701 11.6539 48.2227 11.5607C48.2752 11.4689 48.3011 11.3792 48.3011 11.2923C48.3011 11.2062 48.2668 11.134 48.1968 11.0773C48.126 11.0198 47.9887 10.9792 47.7841 10.9526V10.776H49.7899V10.9526C49.5987 10.9624 49.4326 11.0079 49.2883 11.0899C49.1447 11.1704 48.863 11.415 48.4448 11.8241L47.9565 12.3033L49.0109 13.8461C49.4354 14.471 49.6876 14.822 49.7675 14.8991C49.8754 15.0084 50.0127 15.0693 50.1795 15.0819V15.2536H47.8661V15.0819C47.9677 15.0819 48.0412 15.0623 48.0882 15.0231C48.1344 14.9852 48.1568 14.9446 48.1568 14.8991C48.1568 14.8255 48.0903 14.6896 47.9565 14.492L47.0702 13.1938L46.7822 13.4768V14.2811C46.7822 14.623 46.8152 14.8367 46.8789 14.9201C46.9427 15.0056 47.0737 15.0588 47.2713 15.0819V15.2536H44.9579V15.0819C45.1463 15.0623 45.2801 15.0021 45.36 14.8991C45.4161 14.829 45.442 14.623 45.442 14.2811V9.7314C45.442 9.39301 45.4105 9.18213 45.3488 9.09875C45.2864 9.01748 45.1554 8.96143 44.9579 8.93691V8.75896H46.7822ZM54.9821 10.6422C55.3717 10.6422 55.7346 10.7417 56.0695 10.9427C56.4044 11.1438 56.6594 11.4304 56.8331 11.801C57.0076 12.1702 57.0944 12.5759 57.0944 13.0172C57.0944 13.6534 56.934 14.1845 56.6103 14.6111C56.2215 15.1296 55.6834 15.3874 54.9968 15.3874C54.3236 15.3874 53.8037 15.1506 53.4408 14.6784C53.0765 14.2062 52.895 13.6583 52.895 13.0369C52.895 12.3944 53.0814 11.8353 53.452 11.3582C53.8247 10.8811 54.3348 10.6422 54.9821 10.6422ZM55.0017 10.982C54.8385 10.982 54.6998 11.0429 54.5835 11.1669C54.4658 11.2895 54.3887 11.5313 54.353 11.8942C54.3151 12.2571 54.2976 12.7608 54.2976 13.4047C54.2976 13.7466 54.3201 14.0653 54.3642 14.3631C54.3999 14.5901 54.4756 14.7617 54.5898 14.8795C54.7047 14.9986 54.835 15.0574 54.9821 15.0574C55.1264 15.0574 55.2456 15.0168 55.3422 14.9383C55.4662 14.829 55.5496 14.6763 55.5903 14.4822C55.654 14.1795 55.6869 13.5665 55.6869 12.6431C55.6869 12.1001 55.6561 11.7274 55.5952 11.525C55.5349 11.3218 55.4445 11.1746 55.3275 11.0815C55.2442 11.0149 55.1363 10.982 55.0017 10.982ZM59.7378 11.2454V14.3526C59.7378 14.6539 59.7708 14.8416 59.8345 14.9187C59.9354 15.0364 60.1253 15.0903 60.3999 15.0819V15.2536H57.76V15.0819C57.9611 15.0784 58.1047 15.0546 58.1902 15.0119C58.2729 14.9691 58.3324 14.9089 58.3646 14.8318C58.3955 14.7547 58.4123 14.5964 58.4123 14.3526V11.2454H57.76V10.776H58.4123V10.446L58.4074 10.2204C58.4074 9.76083 58.5755 9.37689 58.9125 9.07073C59.2495 8.76386 59.7049 8.61183 60.2787 8.61183C60.6731 8.61183 60.9639 8.684 61.1538 8.83042C61.3429 8.97755 61.4382 9.14149 61.4382 9.31944C61.4382 9.46377 61.3794 9.58778 61.2617 9.69427C61.144 9.79866 60.987 9.8512 60.7923 9.8512C60.6255 9.8512 60.4945 9.80847 60.3964 9.72159C60.3004 9.63472 60.2514 9.54014 60.2514 9.43434C60.2514 9.40632 60.2612 9.34747 60.2787 9.25779C60.292 9.20314 60.2983 9.1527 60.2983 9.10366C60.2983 9.0371 60.2787 8.98806 60.2416 8.95513C60.1904 8.90749 60.1288 8.88437 60.0552 8.88437C59.962 8.88437 59.885 8.9222 59.8226 8.99927C59.761 9.07563 59.728 9.19894 59.728 9.36709L59.7378 10.2057V10.776H60.3999V11.2454H59.7378ZM67.8368 13.0404L69.6003 8.75896H72.2436V8.93691H72.0328C71.8415 8.93691 71.6881 8.96984 71.5732 9.0371C71.4933 9.08264 71.4295 9.1576 71.3805 9.2627C71.3462 9.33906 71.328 9.53873 71.328 9.86031V14.1424C71.328 14.4738 71.3462 14.6819 71.3805 14.7653C71.4169 14.8486 71.4884 14.9201 71.5963 14.9824C71.7063 15.0462 71.8499 15.077 72.0328 15.077H72.2436V15.2536H68.852V15.077H69.0622C69.2556 15.077 69.4076 15.0427 69.5239 14.9761C69.6024 14.9313 69.6675 14.8549 69.7152 14.7449C69.7495 14.67 69.767 14.4689 69.767 14.1424V9.32925L67.2778 15.2536H67.1615L64.6323 9.37199V13.9462C64.6323 14.265 64.6407 14.4626 64.6568 14.5362C64.6974 14.6945 64.7892 14.8255 64.9279 14.925C65.0673 15.0266 65.2845 15.077 65.5823 15.077V15.2536H63.3593V15.077H63.4258C63.5701 15.0805 63.704 15.056 63.828 15.007C63.9527 14.9579 64.0473 14.8907 64.111 14.8087C64.1748 14.7253 64.2238 14.6083 64.2595 14.4591C64.2659 14.4234 64.2694 14.2615 64.2694 13.9701V9.86031C64.2694 9.53243 64.2511 9.32785 64.2168 9.24588C64.1811 9.16461 64.1089 9.09245 64.0017 9.03009C63.8917 8.96844 63.7467 8.93691 63.5652 8.93691H63.3593V8.75896H66.0125L67.8368 13.0404ZM75.2226 14.5929C74.6761 15.0756 74.1857 15.3159 73.7506 15.3159C73.4956 15.3159 73.2833 15.2326 73.1152 15.0637C72.945 14.8977 72.8616 14.6868 72.8616 14.4346C72.8616 14.0934 73.0073 13.7858 73.3016 13.5126C73.5958 13.24 74.2348 12.8764 75.2226 12.4238V11.9726C75.2226 11.6342 75.2044 11.422 75.1666 11.3337C75.1308 11.2454 75.0608 11.1683 74.9592 11.1032C74.8562 11.038 74.742 11.0051 74.6145 11.0051C74.4064 11.0051 74.2348 11.052 74.101 11.1438C74.019 11.2013 73.9762 11.2685 73.9762 11.3449C73.9762 11.4122 74.0225 11.4955 74.1108 11.595C74.232 11.7323 74.2936 11.8647 74.2936 11.9923C74.2936 12.1492 74.2348 12.2816 74.1192 12.393C74.0015 12.5023 73.8487 12.5576 73.661 12.5576C73.4599 12.5576 73.2918 12.496 73.1558 12.3748C73.0206 12.2536 72.9513 12.1114 72.9513 11.9495C72.9513 11.719 73.043 11.5004 73.2245 11.2909C73.4081 11.0815 73.661 10.9217 73.9868 10.8089C74.3118 10.6975 74.6502 10.6422 75.0019 10.6422C75.4265 10.6422 75.7614 10.7319 76.0101 10.9119C76.2567 11.0934 76.4172 11.2874 76.4907 11.4983C76.537 11.6328 76.558 11.9418 76.558 12.4238V14.1613C76.558 14.3659 76.5664 14.4955 76.5825 14.5474C76.5986 14.5999 76.6217 14.6391 76.6547 14.6651C76.6855 14.6896 76.7226 14.7029 76.764 14.7029C76.8473 14.7029 76.9321 14.644 77.019 14.5263L77.1612 14.6405C77.0029 14.878 76.8375 15.049 76.6659 15.1555C76.4956 15.262 76.3016 15.3159 76.0837 15.3159C75.8286 15.3159 75.629 15.255 75.4853 15.1359C75.3417 15.0168 75.2534 14.8353 75.2226 14.5929ZM75.2226 14.2433V12.7447C74.8366 12.9717 74.5486 13.2134 74.3609 13.4719C74.2348 13.645 74.1724 13.8187 74.1724 13.9932C74.1724 14.1403 74.225 14.2699 74.3315 14.3827C74.4113 14.4689 74.5227 14.5116 74.6663 14.5116C74.8268 14.5116 75.0117 14.4213 75.2226 14.2433ZM79.4844 8.75896V11.3498C79.731 11.092 79.9552 10.9084 80.1591 10.8026C80.3637 10.694 80.5759 10.6422 80.7966 10.6422C81.0783 10.6422 81.3186 10.7221 81.5176 10.8811C81.7172 11.0408 81.8496 11.2286 81.9148 11.443C81.9807 11.6588 82.0129 12.0217 82.0129 12.5338V14.2811C82.0129 14.623 82.0458 14.8367 82.1096 14.9201C82.1733 15.0056 82.3022 15.0588 82.497 15.0819V15.2536H80.2263V15.0819C80.3868 15.0588 80.5059 14.9951 80.5858 14.8893C80.6432 14.8073 80.6726 14.6048 80.6726 14.2811V12.2851C80.6726 11.9138 80.6579 11.6819 80.6285 11.5873C80.6005 11.4941 80.5514 11.4206 80.4828 11.368C80.4141 11.3141 80.3377 11.2874 80.2509 11.2874C80.1234 11.2874 79.9994 11.3323 79.8781 11.4206C79.7555 11.5067 79.6245 11.6623 79.4844 11.8809V14.2811C79.4844 14.6013 79.5089 14.801 79.5559 14.8795C79.6168 14.9887 79.7422 15.056 79.9307 15.0819V15.2536H77.66V15.0819C77.8478 15.0623 77.9816 15.0021 78.0622 14.8991C78.1161 14.829 78.1434 14.623 78.1434 14.2811V9.7314C78.1434 9.39301 78.1126 9.18213 78.0503 9.09875C77.9886 9.01748 77.8576 8.96143 77.66 8.93691V8.75896H79.4844ZM85.5818 14.5929C85.036 15.0756 84.5456 15.3159 84.1105 15.3159C83.8555 15.3159 83.6432 15.2326 83.4743 15.0637C83.3048 14.8977 83.2214 14.6868 83.2214 14.4346C83.2214 14.0934 83.3665 13.7858 83.6614 13.5126C83.955 13.24 84.5946 12.8764 85.5818 12.4238V11.9726C85.5818 11.6342 85.5636 11.422 85.5264 11.3337C85.4907 11.2454 85.4199 11.1683 85.319 11.1032C85.2161 11.038 85.1012 11.0051 84.9736 11.0051C84.7663 11.0051 84.5946 11.052 84.4608 11.1438C84.3788 11.2013 84.3361 11.2685 84.3361 11.3449C84.3361 11.4122 84.3823 11.4955 84.4699 11.595C84.5911 11.7323 84.6535 11.8647 84.6535 11.9923C84.6535 12.1492 84.5946 12.2816 84.4783 12.393C84.3606 12.5023 84.2086 12.5576 84.0208 12.5576C83.8197 12.5576 83.6509 12.496 83.5157 12.3748C83.3798 12.2536 83.3111 12.1114 83.3111 11.9495C83.3111 11.719 83.4029 11.5004 83.5844 11.2909C83.7672 11.0815 84.0208 10.9217 84.3459 10.8089C84.6717 10.6975 85.0101 10.6422 85.3611 10.6422C85.7864 10.6422 86.1212 10.7319 86.37 10.9119C86.6166 11.0934 86.777 11.2874 86.8506 11.4983C86.8961 11.6328 86.9178 11.9418 86.9178 12.4238V14.1613C86.9178 14.3659 86.9255 14.4955 86.9417 14.5474C86.9585 14.5999 86.9816 14.6391 87.0138 14.6651C87.0453 14.6896 87.0825 14.7029 87.1231 14.7029C87.2072 14.7029 87.292 14.644 87.3781 14.5263L87.5204 14.6405C87.362 14.878 87.1974 15.049 87.025 15.1555C86.8555 15.262 86.6607 15.3159 86.4435 15.3159C86.1885 15.3159 85.9888 15.255 85.8452 15.1359C85.7016 15.0168 85.6126 14.8353 85.5818 14.5929ZM85.5818 14.2433V12.7447C85.1957 12.9717 84.9085 13.2134 84.7207 13.4719C84.5946 13.645 84.5323 13.8187 84.5323 13.9932C84.5323 14.1403 84.5848 14.2699 84.6913 14.3827C84.7712 14.4689 84.8826 14.5116 85.0262 14.5116C85.1866 14.5116 85.3709 14.4213 85.5818 14.2433ZM89.873 10.776V11.7912C90.1707 11.3288 90.4307 11.0212 90.6528 10.8692C90.877 10.7172 91.0927 10.6422 91.3001 10.6422C91.4788 10.6422 91.6224 10.6961 91.7289 10.8068C91.8368 10.9168 91.8886 11.0724 91.8886 11.2727C91.8886 11.4871 91.8382 11.6539 91.7338 11.7716C91.6308 11.8893 91.5047 11.9495 91.3576 11.9495C91.1894 11.9495 91.0423 11.8942 90.9176 11.7863C90.7922 11.677 90.7186 11.6167 90.6969 11.6048C90.6647 11.5852 90.6282 11.5754 90.5862 11.5754C90.4944 11.5754 90.4061 11.6097 90.3228 11.6805C90.1918 11.7898 90.0937 11.9446 90.0271 12.1464C89.9241 12.4554 89.873 12.7966 89.873 13.1714V14.1992L89.8779 14.4689C89.8779 14.6504 89.8898 14.7667 89.9108 14.8171C89.9501 14.904 90.0054 14.9677 90.0811 15.007C90.156 15.0476 90.2835 15.0721 90.4615 15.0819V15.2536H88.0437V15.0819C88.2385 15.0658 88.3695 15.0119 88.4381 14.9201C88.5068 14.8304 88.5411 14.5901 88.5411 14.1992V11.7239C88.5411 11.4689 88.5292 11.3057 88.5033 11.2356C88.4704 11.1452 88.4248 11.0801 88.3646 11.0394C88.3036 10.9967 88.1957 10.9687 88.0437 10.9526V10.776H89.873ZM94.8396 14.5929C94.2931 15.0756 93.8034 15.3159 93.3683 15.3159C93.1133 15.3159 92.9003 15.2326 92.7322 15.0637C92.5619 14.8977 92.4792 14.6868 92.4792 14.4346C92.4792 14.0934 92.6243 13.7858 92.9185 13.5126C93.2128 13.24 93.8524 12.8764 94.8396 12.4238V11.9726C94.8396 11.6342 94.8214 11.422 94.7842 11.3337C94.7478 11.2454 94.6777 11.1683 94.5761 11.1032C94.4732 11.038 94.359 11.0051 94.2315 11.0051C94.0234 11.0051 93.8524 11.052 93.7179 11.1438C93.6359 11.2013 93.5939 11.2685 93.5939 11.3449C93.5939 11.4122 93.6394 11.4955 93.7277 11.595C93.8489 11.7323 93.9106 11.8647 93.9106 11.9923C93.9106 12.1492 93.8524 12.2816 93.7361 12.393C93.6184 12.5023 93.4664 12.5576 93.2786 12.5576C93.0769 12.5576 92.9087 12.496 92.7728 12.3748C92.6376 12.2536 92.5689 12.1114 92.5689 11.9495C92.5689 11.719 92.66 11.5004 92.8421 11.2909C93.025 11.0815 93.2786 10.9217 93.6037 10.8089C93.9288 10.6975 94.2672 10.6422 94.6189 10.6422C95.0442 10.6422 95.379 10.7319 95.6271 10.9119C95.8744 11.0934 96.0348 11.2874 96.1077 11.4983C96.1539 11.6328 96.1749 11.9418 96.1749 12.4238V14.1613C96.1749 14.3659 96.1833 14.4955 96.1995 14.5474C96.2163 14.5999 96.2387 14.6391 96.2716 14.6651C96.3024 14.6896 96.3403 14.7029 96.3809 14.7029C96.4643 14.7029 96.5498 14.644 96.6359 14.5263L96.7782 14.6405C96.6198 14.878 96.4545 15.049 96.2828 15.1555C96.1133 15.262 95.9185 15.3159 95.7013 15.3159C95.4463 15.3159 95.2466 15.255 95.103 15.1359C94.9587 15.0168 94.8704 14.8353 94.8396 14.5929ZM94.8396 14.2433V12.7447C94.4535 12.9717 94.1656 13.2134 93.9778 13.4719C93.8524 13.645 93.7901 13.8187 93.7901 13.9932C93.7901 14.1403 93.8426 14.2699 93.9484 14.3827C94.029 14.4689 94.1397 14.5116 94.284 14.5116C94.4437 14.5116 94.6287 14.4213 94.8396 14.2433ZM100.103 10.652L100.175 12.1786H100.012C99.8174 11.726 99.6149 11.415 99.4054 11.2503C99.1959 11.0836 98.9886 11.0002 98.7812 11.0002C98.6502 11.0002 98.5388 11.0443 98.4456 11.1326C98.3524 11.2209 98.3069 11.3218 98.3069 11.4367C98.3069 11.5236 98.3398 11.6069 98.4036 11.6854C98.5044 11.8157 98.791 12.0413 99.2597 12.3587C99.7291 12.676 100.038 12.9458 100.187 13.1679C100.336 13.39 100.409 13.6387 100.409 13.9133C100.409 14.1613 100.347 14.4051 100.223 14.6454C100.098 14.8844 99.9218 15.0693 99.6962 15.1968C99.4692 15.3243 99.2191 15.3874 98.9444 15.3874C98.73 15.3874 98.4442 15.3208 98.0862 15.187C97.9916 15.1506 97.9257 15.1345 97.89 15.1345C97.7856 15.1345 97.6973 15.2143 97.6266 15.3734H97.4682L97.3912 13.7648H97.5551C97.6987 14.1866 97.8963 14.5018 98.1464 14.7127C98.3966 14.9236 98.6341 15.028 98.8576 15.028C99.0117 15.028 99.1357 14.9803 99.2338 14.8872C99.3305 14.7926 99.3795 14.6784 99.3795 14.5446C99.3795 14.3918 99.3319 14.2594 99.2352 14.1466C99.1406 14.0359 98.9262 13.8657 98.5948 13.6401C98.1058 13.3017 97.7905 13.0418 97.6462 12.8638C97.4353 12.6025 97.3295 12.3131 97.3295 11.9972C97.3295 11.6525 97.4486 11.34 97.6875 11.0604C97.9243 10.7809 98.269 10.6422 98.7188 10.6422C98.9605 10.6422 99.1959 10.701 99.4236 10.8187C99.5084 10.8664 99.5785 10.8902 99.6324 10.8902C99.6913 10.8902 99.7375 10.879 99.7718 10.8545C99.8076 10.83 99.8629 10.7634 99.94 10.652H100.103ZM102.919 8.75896V11.3498C103.166 11.092 103.389 10.9084 103.594 10.8026C103.798 10.694 104.011 10.6422 104.231 10.6422C104.513 10.6422 104.753 10.7221 104.952 10.8811C105.152 11.0408 105.284 11.2286 105.349 11.443C105.415 11.6588 105.447 12.0217 105.447 12.5338V14.2811C105.447 14.623 105.48 14.8367 105.544 14.9201C105.608 15.0056 105.737 15.0588 105.932 15.0819V15.2536H103.661V15.0819C103.821 15.0588 103.94 14.9951 104.02 14.8893C104.078 14.8073 104.107 14.6048 104.107 14.2811V12.2851C104.107 11.9138 104.092 11.6819 104.063 11.5873C104.035 11.4941 103.986 11.4206 103.917 11.368C103.849 11.3141 103.772 11.2874 103.685 11.2874C103.558 11.2874 103.434 11.3323 103.313 11.4206C103.19 11.5067 103.059 11.6623 102.919 11.8809V14.2811C102.919 14.6013 102.943 14.801 102.99 14.8795C103.051 14.9887 103.177 15.056 103.365 15.0819V15.2536H101.094V15.0819C101.282 15.0623 101.416 15.0021 101.496 14.8991C101.55 14.829 101.578 14.623 101.578 14.2811V9.7314C101.578 9.39301 101.547 9.18213 101.485 9.09875C101.423 9.01748 101.292 8.96143 101.094 8.93691V8.75896H102.919ZM108.321 9.13799V10.776H109.384V11.2503H108.321V14.0128C108.321 14.2713 108.333 14.4381 108.358 14.513C108.382 14.5887 108.424 14.649 108.485 14.6966C108.546 14.7421 108.601 14.7653 108.652 14.7653C108.859 14.7653 109.056 14.6062 109.242 14.2909L109.384 14.3974C109.126 15.0105 108.706 15.3159 108.125 15.3159C107.841 15.3159 107.6 15.2375 107.404 15.0784C107.208 14.9201 107.083 14.7435 107.029 14.5488C106.997 14.4416 106.981 14.1466 106.981 13.6681V11.2503H106.396V11.0815C106.798 10.797 107.142 10.5 107.424 10.1861C107.707 9.87362 107.952 9.52402 108.163 9.13799H108.321ZM111.67 10.776V11.7912C111.967 11.3288 112.227 11.0212 112.449 10.8692C112.673 10.7172 112.889 10.6422 113.097 10.6422C113.275 10.6422 113.419 10.6961 113.525 10.8068C113.633 10.9168 113.685 11.0724 113.685 11.2727C113.685 11.4871 113.635 11.6539 113.53 11.7716C113.427 11.8893 113.301 11.9495 113.154 11.9495C112.985 11.9495 112.839 11.8942 112.714 11.7863C112.588 11.677 112.515 11.6167 112.493 11.6048C112.461 11.5852 112.425 11.5754 112.383 11.5754C112.291 11.5754 112.203 11.6097 112.119 11.6805C111.988 11.7898 111.89 11.9446 111.824 12.1464C111.72 12.4554 111.67 12.7966 111.67 13.1714V14.1992L111.674 14.4689C111.674 14.6504 111.686 14.7667 111.707 14.8171C111.747 14.904 111.802 14.9677 111.877 15.007C111.953 15.0476 112.08 15.0721 112.258 15.0819V15.2536H109.84V15.0819C110.035 15.0658 110.165 15.0119 110.235 14.9201C110.303 14.8304 110.337 14.5901 110.337 14.1992V11.7239C110.337 11.4689 110.326 11.3057 110.3 11.2356C110.267 11.1452 110.221 11.0801 110.16 11.0394C110.1 10.9967 109.992 10.9687 109.84 10.9526V10.776H111.67ZM116.636 14.5929C116.09 15.0756 115.599 15.3159 115.165 15.3159C114.91 15.3159 114.697 15.2326 114.529 15.0637C114.358 14.8977 114.275 14.6868 114.275 14.4346C114.275 14.0934 114.421 13.7858 114.715 13.5126C115.009 13.24 115.648 12.8764 116.636 12.4238V11.9726C116.636 11.6342 116.618 11.422 116.58 11.3337C116.544 11.2454 116.474 11.1683 116.373 11.1032C116.27 11.038 116.156 11.0051 116.028 11.0051C115.82 11.0051 115.648 11.052 115.514 11.1438C115.432 11.2013 115.39 11.2685 115.39 11.3449C115.39 11.4122 115.436 11.4955 115.524 11.595C115.645 11.7323 115.707 11.8647 115.707 11.9923C115.707 12.1492 115.648 12.2816 115.533 12.393C115.415 12.5023 115.263 12.5576 115.074 12.5576C114.873 12.5576 114.705 12.496 114.569 12.3748C114.434 12.2536 114.365 12.1114 114.365 11.9495C114.365 11.719 114.457 11.5004 114.638 11.2909C114.822 11.0815 115.074 10.9217 115.4 10.8089C115.725 10.6975 116.064 10.6422 116.415 10.6422C116.84 10.6422 117.176 10.7319 117.424 10.9119C117.671 11.0934 117.831 11.2874 117.904 11.4983C117.95 11.6328 117.971 11.9418 117.971 12.4238V14.1613C117.971 14.3659 117.98 14.4955 117.996 14.5474C118.012 14.5999 118.035 14.6391 118.068 14.6651C118.099 14.6896 118.137 14.7029 118.177 14.7029C118.261 14.7029 118.346 14.644 118.432 14.5263L118.575 14.6405C118.416 14.878 118.251 15.049 118.079 15.1555C117.909 15.262 117.715 15.3159 117.497 15.3159C117.242 15.3159 117.043 15.255 116.899 15.1359C116.755 15.0168 116.667 14.8353 116.636 14.5929ZM116.636 14.2433V12.7447C116.25 12.9717 115.962 13.2134 115.774 13.4719C115.648 13.645 115.587 13.8187 115.587 13.9932C115.587 14.1403 115.638 14.2699 115.745 14.3827C115.825 14.4689 115.936 14.5116 116.08 14.5116C116.24 14.5116 116.425 14.4213 116.636 14.2433Z" fill="#0E88D3"/>
<path fill-rule="evenodd" clip-rule="evenodd" d="M12 5.34058e-05C18.627 5.34058e-05 23.9999 5.3723 23.9999 12C23.9999 18.6271 18.627 24 12 24C5.37224 24 0 18.6271 0 12C0 5.3723 5.37224 5.34058e-05 12 5.34058e-05Z" fill="white"/>
<path fill-rule="evenodd" clip-rule="evenodd" d="M21.3706 4.53641C23.024 6.57167 24 9.20034 24 11.9986C24 14.8395 23.024 17.4269 21.3706 19.4614V18.9107C22.8125 16.9603 23.6602 14.5859 23.6602 11.9986C23.6602 9.41263 22.8125 7.03827 21.3706 5.08779V4.53641ZM21.3706 16.1966L21.4981 16.2814L21.8799 16.0705L21.3706 15.8582V16.1966ZM21.3706 15.1793C21.7097 15.2213 22.1763 14.8823 22.2183 14.3736L21.922 14.4157C21.7945 14.7127 21.6249 14.925 21.3706 14.8395V15.1793ZM21.3706 14.1186L21.4133 14.0766L21.4981 14.2034L21.7945 13.949C21.3706 13.3129 21.4133 12.7622 21.667 12.7202C21.9647 12.6774 22.1763 13.1441 22.1336 13.61L22.4734 13.3984C22.3458 12.847 22.0495 12.5079 21.6249 12.5079C21.5402 12.5079 21.4554 12.5499 21.3706 12.5934V14.1186ZM21.3706 11.9986H22.3458L22.5581 11.6602H21.3706V11.9986ZM21.3706 10.6002H22.0068L22.1763 10.2183L21.3706 10.2604V10.6002ZM21.3706 9.79376H22.0068L22.1763 9.45466H21.3706V9.79376ZM19.4201 2.58593C20.141 3.17934 20.7772 3.81549 21.3706 4.53641V5.08779C20.8192 4.32413 20.141 3.64594 19.4201 3.05183V2.58593ZM21.3706 19.4614C20.7772 20.1823 20.141 20.8612 19.4201 21.4126V20.988C20.141 20.3519 20.8192 19.6737 21.3706 18.9107V19.4614ZM21.3706 9.45466V9.79376H20.6069L20.8192 9.45466H21.3706ZM21.3706 10.2604V10.6002H20.5649L20.8192 10.2604H21.3706ZM21.3706 11.6602V11.9986H20.9467C20.9467 12.3384 20.904 12.6774 20.862 12.9745H21.1583C21.1583 12.805 21.2431 12.6774 21.3706 12.5934V14.1186C21.1583 14.4584 21.1163 14.7127 21.3279 14.8395H21.3706V15.1793C21.2011 15.1366 21.0735 15.0518 20.9895 14.8395C20.8192 14.4584 20.9895 14.0338 21.2858 13.6527L21.2011 13.3129H20.8192C20.7345 14.0338 20.5229 14.7127 20.2686 15.3916L21.3706 15.8582V16.1966L20.141 15.6887C20.057 15.8582 19.9715 16.0705 19.844 16.2393C20.3954 16.1118 21.2431 16.3661 21.0315 17.2993C20.9467 17.7232 20.4374 18.063 20.099 17.8935C19.5897 17.6812 19.6324 17.1298 20.141 16.79C20.1831 16.8755 20.2265 16.9603 20.3099 17.045C19.9715 17.2993 19.9288 17.6812 20.2686 17.5957C20.5229 17.5537 20.9467 17.045 20.4374 16.5784C20.2686 16.4089 19.9288 16.4509 19.6744 16.5364C19.5897 16.7059 19.5049 16.8327 19.4201 16.9603V16.6212C20.2686 15.2641 20.7345 13.6947 20.6924 11.9986C20.6924 11.787 20.6924 11.5754 20.6497 11.3204H20.904C20.904 11.4479 20.904 11.5754 20.904 11.6602H21.3706ZM19.4201 20.1823H19.6317V19.8853H19.4201V20.1823ZM19.4201 18.6978V18.1898C19.5476 18.1898 19.6744 18.2746 19.6744 18.4434C19.6744 18.5709 19.5476 18.6978 19.4201 18.6978ZM19.4201 14.5859C19.7172 13.7802 19.844 12.889 19.844 11.9986C19.844 11.1088 19.7172 10.2183 19.4201 9.41263V10.8545C19.4622 11.2363 19.5049 11.6174 19.5049 11.9986C19.5049 12.3804 19.4622 12.805 19.4201 13.1441V14.5859ZM19.4201 8.77648V8.43738C19.4622 8.6917 19.7172 8.77648 20.1831 8.77648V8.94602C19.844 8.98876 19.5897 8.90399 19.4201 8.77648ZM19.4201 8.30987V7.37737L20.3526 5.76597L19.4201 5.93552V5.72394L21.1163 5.42688L19.5897 7.88601C19.5049 8.05625 19.4201 8.18306 19.4201 8.30987ZM19.4201 4.19662L19.6744 3.68798C19.5897 3.73071 19.5049 3.77275 19.4201 3.77275V4.19662ZM16.7494 0.974533C17.6812 1.3984 18.6151 1.94978 19.4201 2.58593V3.05183C18.6151 2.37364 17.6812 1.82297 16.7494 1.35636V0.974533ZM19.4201 21.4126C18.6151 22.048 17.6812 22.5994 16.7494 23.0233V22.6422C17.6812 22.2176 18.6151 21.6242 19.4201 20.988V21.4126ZM19.4201 3.77275V4.19662L18.6151 5.85075L19.4201 5.72394V5.93552L18.021 6.1471L18.9535 4.15458C18.3174 4.49368 17.4696 4.83277 16.7494 4.8755V4.66322C17.5971 4.62119 18.5724 4.15458 19.4201 3.77275ZM19.4201 7.37737V8.30987C19.4201 8.35261 19.4201 8.39465 19.4201 8.43738V8.77648C19.0817 8.52216 18.9963 8.09759 19.2085 7.71646L19.4201 7.37737ZM19.4201 9.41263C18.9115 7.92874 17.9362 6.65644 16.7494 5.76597V6.18984C18.1485 7.33463 19.1231 8.98876 19.4201 10.8545V9.41263ZM19.4201 13.1441V14.5859C18.9115 16.0705 17.9362 17.3414 16.7494 18.2746V17.808C18.1485 16.6632 19.1231 15.0091 19.4201 13.1441ZM19.4201 16.6212C18.7419 17.6812 17.8087 18.6137 16.7494 19.2919V19.5462C17.2573 19.2498 17.7247 18.8687 18.1485 18.4862L18.3601 18.7832C17.7247 19.0382 17.3849 19.5462 17.7247 19.8432C17.8935 19.9708 18.4028 19.7585 18.6151 19.5462C18.8267 19.2919 19.0817 19.4194 18.9115 19.6737C18.7419 19.9287 18.4876 20.0555 18.1485 20.1403V20.3091L18.6151 20.2251L18.4876 20.5221L18.7419 20.5642L18.8687 20.2671L19.4201 20.1823V19.8853H19.1231C19.3781 19.5889 19.4622 19.2498 19.1651 19.0796C18.8687 18.8687 18.6151 19.1651 18.3601 19.4194C18.0637 19.7157 17.8935 19.3766 18.1058 19.2498C18.3174 19.0796 18.5724 18.9107 18.7847 18.7412L18.4028 18.2319C18.7847 17.8507 19.1231 17.4269 19.4201 16.9603V16.6212ZM19.4201 18.1898C19.2506 18.1898 19.1651 18.2746 19.1651 18.4434C19.1651 18.5709 19.2506 18.6978 19.4201 18.6978V18.1898ZM16.7494 20.6482L17.0037 21.2003H17.3849L16.7494 19.9287V20.6482ZM16.7494 16.1966V15.9002H17.4276V8.43738H16.7494V8.09759H17.7247V16.1966H16.7494ZM16.7494 15.2641C16.8762 15.1366 16.961 14.9677 16.961 14.7975C16.961 14.6272 16.8762 14.4584 16.7494 14.3736V15.2641ZM16.7494 14.2461C16.7907 14.2034 16.8762 14.0766 16.8762 13.907C16.8762 13.7802 16.8342 13.6527 16.7494 13.5259V14.2461ZM16.7494 12.3804V9.92197H16.8762L17.0878 10.3451H16.7907V12.4231L16.7494 12.3804ZM16.7494 9.66695V9.11557C16.8762 9.11557 17.0037 9.24308 17.0037 9.41263C17.0037 9.53944 16.8762 9.66695 16.7494 9.66695ZM16.0285 0.720215C16.2408 0.804987 16.4944 0.889759 16.7494 0.974533V1.35636C16.4944 1.27159 16.2408 1.18612 16.0285 1.06001V0.720215ZM16.7494 23.0233C16.4944 23.1088 16.2408 23.1928 16.0285 23.3203V22.9385C16.2408 22.8544 16.4944 22.7269 16.7494 22.6422V23.0233ZM16.7494 4.66322V4.8755C16.4517 4.8755 16.2408 4.87551 16.0285 4.79073V4.57915C16.2408 4.66322 16.4944 4.66322 16.7494 4.66322ZM16.7494 5.76597V6.18984C16.4944 6.02029 16.2828 5.85075 16.0285 5.6812V5.25733C16.2408 5.42688 16.4944 5.55369 16.7494 5.76597ZM16.0285 8.09759H16.7494V8.43738H16.0285V8.09759ZM16.7494 9.11557V9.66695C16.5792 9.66695 16.4517 9.53944 16.4517 9.41263C16.4517 9.24308 16.5792 9.11557 16.7494 9.11557ZM16.7494 9.92197H16.6219C16.3669 9.70968 16.2408 9.41263 16.0285 9.15831V9.4967C16.1133 9.62491 16.2408 9.79376 16.3669 9.92197H16.2408C16.1553 9.83649 16.0705 9.79376 16.0285 9.70968V10.3879H16.3669V10.8965C16.2828 10.7697 16.1553 10.6849 16.0285 10.6422V10.8965C16.1553 10.8965 16.2828 10.9392 16.3248 11.024C16.3248 11.024 16.3248 11.024 16.3669 11.024V11.2363C16.3248 11.2783 16.2408 11.3631 16.1553 11.4052L16.0285 11.1936V11.787C16.1553 11.7442 16.2828 11.6602 16.3669 11.5754V12.1688L16.7494 12.3804V9.92197ZM16.7494 13.5259V14.2461C16.7067 14.2888 16.6639 14.2888 16.6219 14.3309C16.6639 14.3309 16.7067 14.3309 16.7494 14.3736V15.2641C16.6219 15.3916 16.4944 15.4336 16.1133 15.4336H16.0285V15.0945H16.198C16.4103 15.0945 16.4944 14.9677 16.4944 14.7554C16.4944 14.5859 16.3669 14.5004 16.198 14.5004H16.0285V14.1613H16.1553C16.3248 14.1613 16.4517 14.1186 16.4517 13.949C16.4517 13.7802 16.3248 13.7375 16.1553 13.7375H16.0285V13.3556H16.2408C16.4944 13.3556 16.6219 13.4404 16.7494 13.5259ZM16.0285 15.9002H16.7494V16.1966H16.0285V15.9002ZM16.7494 17.808V18.2746C16.4944 18.4434 16.2408 18.6137 16.0285 18.7412V18.3173C16.2828 18.1898 16.4944 18.0203 16.7494 17.808ZM16.7494 19.2919V19.5462C16.6639 19.5889 16.6219 19.6317 16.5792 19.6317L16.7494 19.9287V20.6482L16.6219 20.4794L16.0285 20.7765V20.4374L16.4944 20.1823L16.2828 19.8432C16.198 19.8853 16.1133 19.9287 16.0285 19.9708V19.7157C16.2408 19.5889 16.4944 19.4614 16.7494 19.2919ZM15.8589 0.635439C15.901 0.678177 15.943 0.678177 16.0285 0.720215V1.06001C15.943 1.06001 15.901 1.06001 15.8589 1.01727V0.635439ZM16.0285 23.3203C15.943 23.3203 15.901 23.3203 15.8589 23.3624V22.9813C15.901 22.9813 15.943 22.9385 16.0285 22.9385V23.3203ZM16.0285 4.57915V4.79073C15.943 4.79073 15.901 4.748 15.8589 4.748V4.53641C15.901 4.53641 15.943 4.57915 16.0285 4.57915ZM16.0285 5.25733V5.6812C15.9858 5.63847 15.901 5.59643 15.8589 5.59643V5.17256C15.901 5.2146 15.943 5.2146 16.0285 5.25733ZM15.8589 8.09759H16.0285V8.43738H15.8589V8.09759ZM16.0285 9.15831V9.4967C15.9858 9.41263 15.901 9.37059 15.8589 9.32785V9.0308C15.901 9.07353 15.9858 9.11557 16.0285 9.15831ZM16.0285 9.70968V10.3879H15.8589V9.92197V9.58217C15.901 9.62491 15.943 9.66695 16.0285 9.70968ZM16.0285 10.6422V10.8965C15.9858 10.8965 15.901 10.9392 15.8589 10.9392V10.6422C15.901 10.6422 15.9858 10.6422 16.0285 10.6422ZM16.0285 11.1936V11.787C15.9858 11.787 15.901 11.787 15.8589 11.787V11.4906H15.901L15.8589 11.4479V10.9813L16.0285 11.1936ZM15.8589 13.3556H16.0285V13.7375H15.8589V13.3556ZM15.8589 14.1613H16.0285V14.5004H15.8589V14.1613ZM15.8589 15.0945H16.0285V15.4336H15.8589V15.0945ZM15.8589 15.9002H16.0285V16.1966H15.8589V15.9002ZM16.0285 18.3173V18.7412C15.943 18.7832 15.901 18.7832 15.8589 18.826V18.4014C15.901 18.4014 15.9858 18.3594 16.0285 18.3173ZM16.0285 19.7157V19.9708C15.9858 20.0128 15.901 20.0128 15.8589 20.0555V19.8012C15.901 19.7585 15.9858 19.7585 16.0285 19.7157ZM16.0285 20.4374V20.7765L15.943 20.8185C16.0285 21.1583 15.9858 21.4539 15.8589 21.6669V20.4794L16.0285 20.4374ZM15.646 0.593405C15.7314 0.593405 15.8169 0.635439 15.8589 0.635439V1.01727C15.8169 1.01727 15.7314 0.974533 15.646 0.974533V0.593405ZM15.8589 23.3624C15.8169 23.3624 15.7314 23.4051 15.646 23.4051V23.066C15.7314 23.0233 15.8169 23.0233 15.8589 22.9813V23.3624ZM15.8589 4.53641V4.748C15.7735 4.70666 15.7314 4.66322 15.646 4.62119V4.45164C15.7314 4.49368 15.8169 4.49368 15.8589 4.53641ZM15.8589 5.17256V5.59643C15.8169 5.55369 15.7314 5.51165 15.646 5.46892V5.04505C15.7314 5.08779 15.8169 5.12983 15.8589 5.17256ZM15.646 8.09759H15.8589V8.43738H15.646V8.09759ZM15.8589 9.0308V9.32785C15.8169 9.24308 15.7735 9.20034 15.7314 9.15831C15.6887 9.15831 15.6887 9.11557 15.646 9.11557V8.86055C15.6887 8.86055 15.6887 8.90399 15.6887 8.90399C15.7735 8.94602 15.8169 8.98876 15.8589 9.0308ZM15.8589 9.58217V9.92197L15.646 9.75172V9.45466C15.7314 9.4967 15.8169 9.53944 15.8589 9.58217ZM15.646 9.92197H15.8589V10.3879L15.646 10.3886V9.92197ZM15.8589 10.6422V11.4479L15.646 11.1508V10.6422C15.6887 10.6422 15.7314 10.6422 15.7735 10.6422C15.8169 10.6422 15.8169 10.6422 15.8589 10.6422ZM15.8589 11.4906V11.787C15.7735 11.787 15.7314 11.787 15.646 11.7442V11.4906C15.7314 11.4906 15.7735 11.4906 15.8589 11.4906ZM15.646 13.3556H15.8589V13.7375H15.646V13.3556ZM15.646 14.1613H15.8589V14.5004H15.646V14.1613ZM15.646 15.0945H15.8589V15.4336H15.646V15.0945ZM15.646 15.9002H15.8589V16.1966H15.646V15.9002ZM15.8589 18.4014V18.826C15.8169 18.8687 15.7314 18.9107 15.646 18.9528V18.5289C15.7314 18.4862 15.8169 18.4434 15.8589 18.4014ZM15.8589 19.8012V20.0555C15.8169 20.0555 15.7314 20.0976 15.646 20.1403V19.8853C15.7314 19.8432 15.8169 19.8012 15.8589 19.8012ZM15.8589 20.4794V21.6669C15.8169 21.7517 15.7314 21.8365 15.646 21.8785V20.2251L15.7735 20.5221L15.8589 20.4794ZM15.3496 0.507929C15.4344 0.507929 15.5619 0.550667 15.646 0.593405V0.974533C15.5619 0.931797 15.4344 0.889759 15.3496 0.847723V0.507929ZM15.646 23.4051C15.5619 23.4479 15.4344 23.4899 15.3496 23.5326V23.1508C15.4344 23.1088 15.5619 23.1088 15.646 23.066V23.4051ZM15.646 4.45164V4.62119C15.646 4.62119 15.646 4.62119 15.646 4.57915V4.4089C15.646 4.4089 15.646 4.4089 15.646 4.45164ZM15.646 5.04505V5.46892C15.5619 5.38485 15.4344 5.34211 15.3496 5.29937V4.91824C15.4344 4.96028 15.5619 5.00302 15.646 5.04505ZM15.3496 8.09759H15.646V8.43738H15.3496V8.09759ZM15.646 8.86055V9.11557C15.5619 9.07353 15.4764 9.0308 15.3923 9.0308H15.3496V8.73444C15.4344 8.77648 15.5619 8.81921 15.646 8.86055ZM15.646 9.45466V9.75172L15.3923 9.58217H15.3496V9.28582C15.4344 9.28582 15.5191 9.32785 15.6046 9.41263C15.6046 9.41263 15.646 9.41263 15.646 9.45466ZM15.3496 9.92197H15.646V10.3886H15.3496V9.92197ZM15.646 10.6422V11.1508L15.6046 11.024C15.4344 11.1508 15.3923 11.2783 15.4764 11.4052C15.5191 11.4479 15.5619 11.4906 15.646 11.4906V11.7442C15.5191 11.7442 15.4344 11.6602 15.3496 11.6174V10.7697C15.4344 10.6849 15.5191 10.6422 15.646 10.6422ZM15.3496 13.3556H15.646V15.4336H15.3496V13.3556ZM15.3496 15.9002H15.646V16.1966H15.3496V15.9002ZM15.646 18.5289V18.9528C15.5619 18.9955 15.4344 19.0382 15.3496 19.1223V18.6978C15.4344 18.6557 15.5619 18.6137 15.646 18.5289ZM15.646 19.8853V20.1403C15.646 20.1403 15.646 20.1403 15.6046 20.1403L15.646 20.2251V21.8785C15.5619 21.9212 15.4344 21.9212 15.3496 21.9212V21.709C15.6046 21.7517 15.7314 21.3699 15.5619 20.988C15.4764 20.988 15.3923 21.0308 15.3496 21.0308V20.691C15.3923 20.6482 15.3923 20.6482 15.4344 20.6069L15.3496 20.3946V20.0128C15.4344 19.9708 15.5619 19.9287 15.646 19.8853ZM12 -9.53674e-06C13.1441 -9.53674e-06 14.2896 0.169537 15.3496 0.507929V0.847723C14.2896 0.550667 13.1441 0.380421 12 0.380421V-9.53674e-06ZM15.3496 23.5326C14.2896 23.829 13.1441 23.9985 12 23.9985V23.6601C13.1441 23.6601 14.2896 23.4899 15.3496 23.1508V23.5326ZM15.3496 4.91824V5.29937C14.3316 4.79073 13.1875 4.49368 12 4.49368V4.15458C13.1875 4.15458 14.3316 4.4089 15.3496 4.91824ZM15.3496 8.09759H14.3316V15.9002H13.8237V15.4336H13.4412L13.2723 15.1793V14.2888C13.3998 14.1186 13.4839 14.2034 13.6534 13.8643L13.7382 13.61C13.8237 13.5679 13.8657 13.3984 13.8657 13.2281H13.5266C13.5266 13.5679 13.2296 13.6947 13.06 13.6947V13.0593C13.1875 13.0172 13.2723 13.0172 13.4412 12.805L13.5687 12.5934C13.6534 12.5499 13.6962 12.5079 13.7382 12.4231V12.2536H13.3143L13.2723 12.5499H12.8057V12.1261C13.0173 11.9986 13.3143 11.8718 13.3571 11.5754C13.3998 11.5754 13.5687 11.4479 13.6114 11.4479V11.1936H13.2723L13.1441 11.4052C13.06 11.5754 12.6782 11.5327 12.7209 11.5327V11.0661C12.9325 10.9813 13.1441 10.8545 13.2296 10.6849L13.4412 10.6002V10.2604H13.06C13.06 10.3879 12.9745 10.5147 12.8477 10.6002C12.7637 10.6002 12.7209 10.6002 12.6362 10.6002V10.1756C12.8477 10.0488 13.1028 9.9633 13.1441 9.66695L13.3571 9.58217V9.32785H12.9745C12.9745 9.41263 12.8477 9.53944 12.8057 9.62491H12.5934V9.28582C12.8057 9.15831 12.9325 8.98876 12.9745 8.73444L13.2296 8.6917V8.39465H12.8477C12.7637 8.77648 12.5934 8.77648 12.5086 8.73444V8.39465C12.7209 8.26784 12.7209 8.2251 12.9325 8.01282C13.1028 7.92874 13.2296 7.54692 13.06 7.58895H12.8905C12.7637 7.58895 12.7637 7.80194 12.6782 7.88601C12.6362 7.88601 12.5086 7.92874 12.4239 7.92874V7.54692C12.6362 7.50488 12.8905 7.33463 12.9325 7.07961H13.06C13.06 7.03827 13.06 6.9535 13.1028 6.86873C12.9745 6.86873 12.8477 6.86873 12.7637 6.86873C12.7209 7.03827 12.5934 7.12305 12.4666 7.16578C12.2971 7.03827 12.2543 7.03827 12.2116 6.82599C12.2116 6.52893 12.5086 6.27461 12.2971 5.93552L12.2543 5.72394C12.2543 5.38485 12.1268 5.34211 12 5.2146V16.1966H15.3496V15.9002H14.5866V8.43738H15.3496V8.09759ZM15.3496 8.73444V9.0308H15.0953L14.9257 8.73444H15.3496ZM15.3496 9.28582V9.58217H15.1373L14.9257 9.24308C15.0525 9.24308 15.1373 9.24308 15.2648 9.24308C15.3069 9.24308 15.3069 9.24308 15.3496 9.28582ZM15.3496 9.92197V10.3886L15.1373 10.3879L14.9685 9.92197H15.3496ZM15.3496 10.7697V11.6174C15.2228 11.4906 15.1373 11.3631 15.1373 11.1936C15.0953 11.024 15.1801 10.8545 15.3496 10.7697ZM15.2648 13.3556H15.3496V15.4336H15.2648V13.3556ZM15.3496 18.6978V19.1223C14.3316 19.5889 13.1875 19.8432 12 19.8432V19.5049C13.1875 19.5049 14.3316 19.2071 15.3496 18.6978ZM15.3496 20.0128V20.3946L15.3069 20.3091C14.3316 20.691 13.3143 20.9033 12.2116 20.9033V21.4539C12.5507 21.2851 12.8905 21.1155 13.1875 21.1583C13.7809 21.1583 13.9078 21.5394 13.7382 21.9633C13.5687 22.3451 13.0173 22.3031 12.6782 22.2603C12.7209 22.1756 12.7637 22.048 12.8057 21.9212C13.1875 22.0053 13.6534 21.8365 13.5687 21.5814C13.4412 21.2851 12.9325 21.4539 12.6362 21.6669C12.5086 21.7517 12.3811 21.7937 12.2116 21.8785V22.5994L12 22.4299V20.691C13.1875 20.691 14.2896 20.4374 15.3496 20.0128ZM15.3496 20.691C14.5866 21.0308 14.6714 21.6669 15.1373 21.8785C15.1801 21.8785 15.2648 21.9212 15.3496 21.9212V21.709C15.3069 21.709 15.2228 21.6669 15.1801 21.6669C14.9257 21.4967 14.9685 21.2003 15.3496 21.0308V20.691ZM12 2.79821L12.8057 1.56865L13.4839 3.68798C13.6962 4.32413 14.5019 4.53641 15.0525 3.77275L14.9257 3.64594C14.4591 4.24006 14.078 4.19662 13.8657 3.51913L13.0173 0.762949L12 2.45842V2.79821ZM12 23.9985C10.6002 23.9985 9.20109 23.7442 7.92949 23.2776V22.8965C9.20109 23.3624 10.6002 23.6601 12 23.6601V23.9985ZM7.92949 0.720215C9.20109 0.254311 10.6002 -9.53674e-06 12 -9.53674e-06V0.380421C10.6002 0.380421 9.20109 0.635439 7.92949 1.10204V0.720215ZM12 2.45842L11.7029 2.92502L10.7697 0.720215C10.3038 2.03525 9.96475 3.81549 8.69245 4.28209L8.81996 4.36687C9.75246 4.24006 10.3886 2.71274 10.6857 1.56865L11.5327 3.56117L12 2.79821V2.45842ZM12 4.15458V4.49368C10.5161 4.49368 9.11631 4.96028 7.92949 5.72394V5.29937C9.11631 4.57915 10.5161 4.15458 12 4.15458ZM12 5.2146C11.9573 5.17256 11.9152 5.08779 11.9152 4.96028C11.8732 4.87551 11.7457 4.83277 11.7029 4.91824C11.4486 5.12983 11.1523 4.91824 11.2363 5.59643L11.3639 5.93552C11.0248 6.18984 11.1943 6.44416 11.2784 6.78325C11.2784 6.86873 11.2784 6.9535 11.2784 7.03827L11.1943 7.16578C11.0668 7.12305 10.94 7.03827 10.8973 6.86873C10.7697 6.86873 10.6857 6.86873 10.5582 6.86873C10.5582 6.9535 10.5582 7.03827 10.6002 7.07961H10.7277C10.7697 7.33463 10.94 7.58895 11.1523 7.58895V7.97078C11.1088 7.97078 11.0248 7.97078 10.9827 7.97078C10.8973 7.84397 10.8552 7.63099 10.7277 7.63099H10.5582C10.3886 7.63099 10.5582 7.92874 10.7277 8.01282C10.7697 8.2251 10.94 8.30987 11.1523 8.39465V8.73444C11.0248 8.77648 10.8125 8.77648 10.7277 8.39465H10.4313V8.6917L10.6429 8.73444C10.6857 8.98876 10.8552 9.15831 11.0668 9.28582V9.58217L10.8973 9.62491C10.8125 9.53944 10.7697 9.41263 10.7697 9.32785H10.3886V9.58217H10.5582C10.6002 9.87853 10.7697 10.0488 11.0248 10.1756V10.6002C10.94 10.6002 10.8552 10.6002 10.8125 10.6002C10.6857 10.5147 10.6429 10.4299 10.6429 10.3451H10.2618V10.6002L10.4313 10.6422C10.5582 10.8117 10.7277 11.024 10.8973 11.0661L10.94 11.5327C10.94 11.5327 10.5582 11.5754 10.5582 11.4052V11.1936H10.2191C10.2191 11.2783 10.2191 11.3631 10.2191 11.4479C10.2618 11.4479 10.3038 11.4906 10.3466 11.4906C10.4741 11.7442 10.6429 11.9565 10.8552 12.1261L10.8125 12.5499H10.6002L10.5582 12.2536H10.1343V12.4231C10.1763 12.5079 10.2618 12.5499 10.3466 12.5499L10.3886 12.6774C10.5161 12.9318 10.6429 13.0593 10.8125 13.0593V13.6947C10.6429 13.6947 10.4313 13.5679 10.3886 13.2709H10.0916V13.5259L10.2618 13.61C10.3466 13.9918 10.5161 14.1613 10.7277 14.2888V15.1793L10.5161 15.4757H10.1763V15.9002H9.66769V8.09759H7.92949V8.43738H9.37133V15.9002H7.92949V16.1966H12V5.2146ZM12 19.5049V19.8432C10.5161 19.8432 9.11631 19.4194 7.92949 18.6978V18.3173C9.11631 19.0382 10.5161 19.5049 12 19.5049ZM12 20.691C11.2363 20.691 10.4741 20.5642 9.75246 20.3946L9.70973 20.0976H9.41337C9.15905 19.5889 8.81996 19.3346 8.43813 19.2498V19.5462C8.77722 19.5462 8.94747 19.8012 9.07428 20.1823C8.69245 20.0555 8.31062 19.8853 7.92949 19.6737V19.9287C8.057 20.0128 8.14107 20.0555 8.22584 20.0976L8.14107 20.3519L7.92949 20.3091V20.6069C8.35335 20.6069 8.56494 20.7765 8.5236 20.988C8.48086 21.2003 8.22584 21.2431 7.92949 21.2003V21.5394C8.35335 21.4967 8.65041 21.3271 8.73518 21.0308C8.81996 20.7337 8.69245 20.5221 8.48086 20.4374L8.5236 20.2251C8.77722 20.3091 9.03224 20.4374 9.28586 20.4794L8.90403 21.7517L9.03224 22.1328L9.58292 20.6069C10.3466 20.8185 11.1088 20.9033 11.9152 20.9033L11.9573 21.6242C11.1523 21.9212 10.6857 21.9212 10.6429 21.6669C10.6002 21.4539 10.94 21.3271 11.4066 21.4967C11.4486 21.4126 11.5327 21.3271 11.6182 21.2851C11.2363 21.0728 10.8973 21.0728 10.6002 21.2431C10.0916 21.4539 10.2191 21.7937 10.5582 22.0053C10.9827 22.2176 11.4907 22.1328 11.9573 21.9633V22.3451L12 22.4299V20.691ZM7.92949 15.4336V14.7127L8.01426 15.0091L8.39609 13.3556H8.9888V15.4336H8.60767V13.6947L8.22584 15.4336H7.92949ZM7.92949 11.3631V10.9392H8.35335V10.3879H7.92949V9.9633H8.90403L9.03224 10.3879H8.73518V12.5499L8.35335 12.2536V11.3631H7.92949ZM7.92949 5.00302C8.09903 4.79073 8.14107 4.49368 8.09903 4.15458H7.92949V5.00302ZM7.92949 23.2776C7.2506 23.0233 6.57241 22.7269 5.93626 22.3451V21.9212C6.57241 22.3031 7.2506 22.6422 7.92949 22.8965V23.2776ZM5.93626 1.65342C6.57241 1.31363 7.2506 0.974533 7.92949 0.720215V1.10204C7.2506 1.35636 6.57241 1.69546 5.93626 2.07659V1.65342ZM7.92949 4.15458V5.00302C7.7172 5.29937 7.33537 5.42688 6.95354 5.25733L5.93626 4.79073V4.28209L7.08105 4.83277C7.7172 5.17256 8.01426 4.91824 7.92949 4.15458ZM7.92949 5.29937C7.16653 5.76598 6.48764 6.35939 5.93626 7.03827V7.58895C6.48764 6.86873 7.16653 6.18984 7.92949 5.72394V5.29937ZM7.92949 8.09759V8.43738H6.52968V15.9002H7.92949V16.1966H6.23262V8.09759H7.92949ZM7.92949 9.9633H6.86877L6.99628 10.3879H7.20856V10.9392C6.86877 11.0661 6.82603 11.1936 7.03902 11.5327C7.12309 11.7022 7.29334 11.829 7.50562 11.829C7.63313 11.7022 7.59109 11.5754 7.59109 11.3631H7.92949V10.9392H7.59109V10.3879H7.92949V9.9633ZM7.92949 14.7127L7.63313 13.3556H6.99628V15.4336H7.42085V13.6947L7.80198 15.4336H7.92949V14.7127ZM7.92949 18.3173V18.6978C7.16653 18.2319 6.48764 17.6812 5.93626 16.9603V16.4089C6.48764 17.1718 7.16653 17.808 7.92949 18.3173ZM7.92949 19.6737V19.9287C7.88675 19.9287 7.80198 19.8853 7.7172 19.8432L7.84471 19.6317C7.88675 19.6317 7.92949 19.6737 7.92949 19.6737ZM7.92949 20.3091H7.80198C7.54766 19.8853 7.20856 19.6317 6.82603 19.6317C6.4456 19.6317 6.14925 19.9708 6.57241 20.8185L6.86877 20.691C6.61515 20.4374 6.48764 20.1403 6.69922 19.9708C6.86877 19.7585 7.12309 19.9287 7.37811 20.3091L7.33537 20.3946L7.37811 20.6482C7.59109 20.6069 7.80198 20.6069 7.92949 20.6069V20.3091ZM7.92949 21.2003V21.5394C7.84471 21.5394 7.75994 21.5394 7.63313 21.4967V21.1155C7.7172 21.1583 7.84471 21.2003 7.92949 21.2003ZM5.93626 17.7232C6.10581 17.7232 6.23262 17.5957 6.23262 17.4689C6.23262 17.2993 6.10581 17.2146 5.93626 17.2146V17.7232ZM5.93626 22.3451C5.89423 22.3031 5.85219 22.2603 5.80945 22.2603V21.8365C5.85219 21.8785 5.89423 21.9212 5.93626 21.9212V22.3451ZM5.80945 1.73749C5.85219 1.73749 5.89423 1.69546 5.93626 1.65342V2.07659C5.89423 2.11932 5.85219 2.11932 5.80945 2.16206V1.73749ZM5.93626 4.28209V4.79073L5.80945 4.70666V4.24006L5.93626 4.28209ZM5.93626 7.03827V7.58895C5.89423 7.67443 5.85219 7.7585 5.80945 7.80193V7.20782C5.85219 7.16578 5.89423 7.07961 5.93626 7.03827ZM5.93626 16.4089V16.9603C5.89423 16.9175 5.85219 16.8327 5.80945 16.79V16.1966C5.85219 16.2814 5.89423 16.3241 5.93626 16.4089ZM5.93626 17.2146V17.7232C5.89423 17.7232 5.85219 17.6812 5.80945 17.6812V17.2573C5.85219 17.2146 5.89423 17.2146 5.93626 17.2146ZM5.80945 18.3173V18.063C5.85219 18.105 5.89423 18.1471 5.93626 18.1898L5.80945 18.3173ZM5.80945 22.2603C5.55513 22.0908 5.30082 21.9212 5.0465 21.7517V21.3271C5.30082 21.4967 5.55513 21.6669 5.80945 21.8365V22.2603ZM5.0465 2.24683C5.30082 2.07659 5.55513 1.90774 5.80945 1.73749V2.16206C5.55513 2.33161 5.30082 2.50115 5.0465 2.67V2.24683ZM5.80945 4.24006V4.70666L5.0465 4.36687V3.85752L5.80945 4.24006ZM5.80945 7.20782V7.80193C5.5124 8.26784 5.25738 8.73444 5.0465 9.20034V8.39465C5.25738 7.97078 5.5124 7.58895 5.80945 7.20782ZM5.80945 16.1966V16.79C5.5124 16.4089 5.25738 16.027 5.0465 15.6032V14.7975C5.25738 15.3068 5.5124 15.7727 5.80945 16.1966ZM5.80945 17.2573V17.6812C5.72468 17.6391 5.68264 17.5537 5.68264 17.4689C5.68264 17.3414 5.72468 17.2993 5.80945 17.2573ZM5.80945 18.063C5.5124 17.808 5.25738 17.5109 5.0465 17.1718V17.4689L5.34215 17.8507L5.0465 18.063V18.4862L5.5124 18.105C5.59787 18.1898 5.68265 18.2746 5.76672 18.3594L5.80945 18.3173V18.063ZM5.0465 6.44416V5.97826L5.21534 6.06303L5.0465 5.51166V4.79073L5.55513 6.61371L5.0465 6.44416ZM5.0465 21.7517C4.45168 21.3271 3.901 20.8185 3.34963 20.3091V19.8012C3.85827 20.3519 4.45168 20.8612 5.0465 21.3271V21.7517ZM3.34963 3.68798C3.901 3.17934 4.45168 2.67 5.0465 2.24683V2.67C4.45168 3.1373 3.85827 3.64594 3.34963 4.19662V3.68798ZM5.0465 3.85752L4.49512 3.60391L5.0465 5.51166V4.79073L4.91898 4.32413L5.0465 4.36687V3.85752ZM5.0465 5.97826V6.44416L3.47714 5.89349C4.11329 6.91076 4.83351 8.39465 4.28284 9.15831L4.11329 9.20034C4.53715 8.2251 3.94304 7.07961 3.34963 6.02029V5.38485L5.0465 5.97826ZM5.0465 8.39465C4.49512 9.45466 4.15603 10.6849 4.15603 11.9986C4.15603 13.3129 4.49512 14.5432 5.0465 15.6032V14.7975C4.7067 13.907 4.49512 12.9745 4.49512 11.9986C4.49512 11.024 4.7067 10.0915 5.0465 9.20034V8.39465ZM5.0465 17.1718V17.4689L4.74874 17.1298C4.62193 17.6812 4.32487 17.808 3.81623 17.5537C3.81623 17.9775 4.2401 18.1898 4.74874 18.2746L5.0465 18.063V18.4862L4.28284 19.1223L4.19736 18.7832L4.49512 18.4862C3.4344 18.1898 3.4344 17.6391 3.68942 17.0023C4.02781 17.4689 4.36761 17.4269 4.49512 16.79C4.28283 16.4936 4.11329 16.1546 3.94304 15.8155L3.34963 16.027V15.0518C3.47714 15.1793 3.51988 15.3916 3.60395 15.6032L3.81623 15.5184C3.64668 15.0945 3.47714 14.67 3.34963 14.2461V12.9318C3.4344 13.6947 3.60395 14.4157 3.901 15.0945C4.11329 14.8395 4.19736 14.5432 4.02781 14.2461L4.28284 14.1186C4.41035 14.4584 4.36761 14.8823 4.11329 15.3916L4.2401 15.6452L4.15603 15.7307C4.41035 16.2393 4.7067 16.748 5.0465 17.1718ZM3.34963 20.3091C3.22282 20.1403 3.09531 20.0128 2.92576 19.8432V19.2919C3.09531 19.4614 3.22282 19.6317 3.34963 19.8012V20.3091ZM2.92576 4.15458C3.09531 4.02707 3.22282 3.85752 3.34963 3.68798V4.19662C3.22282 4.36687 3.09531 4.53641 2.92576 4.70666V4.15458ZM3.34963 5.38485V6.02029C3.22282 5.76597 3.05327 5.46892 2.92576 5.2146L3.34963 5.38485ZM3.34963 12.9318V14.2461C3.34963 14.1613 3.30759 14.0766 3.30759 13.949L2.92576 14.0338V13.6527L3.26485 13.61L3.18008 13.0172L2.92576 13.0593V12.7202L3.09531 12.6774C3.09531 12.4652 3.09531 12.2536 3.09531 11.9986H3.30759C3.30759 12.2956 3.34963 12.6347 3.34963 12.9318ZM3.34963 15.0518V16.027L3.30759 16.0705C3.22282 15.5604 3.09531 15.2213 2.92576 15.0945V14.7127C3.09531 14.7554 3.26485 14.8823 3.34963 15.0518ZM2.92576 16.2814L3.09531 16.0705C3.05327 15.985 3.01124 15.9423 2.92576 15.9002V16.2814ZM2.92576 10.6849V10.3451H3.34963L3.18008 10.6849H2.92576ZM2.92576 9.92197V9.53944H3.34963L3.22282 9.92197H2.92576ZM2.92576 19.8432C2.58667 19.4194 2.24758 18.9528 1.90848 18.4862V17.808C2.20554 18.3173 2.54463 18.826 2.92576 19.2919V19.8432ZM1.90848 5.51166C2.24758 5.04505 2.58667 4.57915 2.92576 4.15458V4.70666C2.54463 5.17256 2.20554 5.6812 1.90848 6.18984V5.51166ZM2.92576 5.2146V9.92197H1.90848V9.66695L1.99325 9.53944H2.92576V5.2146ZM2.92576 10.3451V10.6849H1.90848V10.4299L1.99325 10.3451H2.92576ZM2.92576 12.7202V13.0593H2.58667L2.67144 13.6947L2.92576 13.6527V14.0338L1.90848 14.1613V13.8643L2.28961 13.7802L2.20554 13.1441C2.12007 13.1441 1.99326 13.1013 1.90848 13.1013V12.7202C1.95052 12.7202 1.99325 12.7202 1.99325 12.7202C2.12006 12.6774 2.1621 12.5499 2.12007 12.4231C2.07803 12.2956 1.99326 12.2108 1.90848 12.2108V11.829C2.20554 11.787 2.50189 11.9986 2.58667 12.7202H2.92576ZM2.92576 14.7127V15.0945C2.88373 15.0518 2.84099 15.0518 2.75692 15.0518C2.37508 15.0518 2.41712 15.5604 2.62871 15.7727C2.75692 15.8155 2.84099 15.8155 2.92576 15.9002V16.2814L2.88373 16.3241L2.5019 16.2393L2.12007 16.4509C2.07803 16.4936 1.99326 16.5364 1.90848 16.5364V16.0705L1.95052 16.027L2.12007 16.1546L2.28961 15.985L1.90848 15.7727V15.4336L2.20554 15.6452C2.12007 15.0945 2.28961 14.7554 2.71348 14.7127C2.79895 14.7127 2.88373 14.7127 2.92576 14.7127ZM1.90848 18.4862C0.720956 16.6212 0.000732422 14.3736 0.000732422 11.9986C0.000732422 9.62491 0.720956 7.37737 1.90848 5.51166V6.18984C0.93324 7.88601 0.381162 9.87853 0.381162 11.9986C0.381162 14.1186 0.93324 16.1118 1.90848 17.808V18.4862ZM1.90848 9.66695L1.78097 9.92197H1.90848V9.66695ZM1.90848 10.4299L1.73894 10.6849H1.90848V10.4299ZM1.90848 11.829C1.6962 11.8718 1.48391 12.1261 1.48391 12.4652C1.48391 12.7622 1.61143 12.9745 1.90848 13.1013V12.7202C1.82301 12.7202 1.73894 12.6347 1.73894 12.5079C1.6962 12.3804 1.73894 12.2108 1.86575 12.2108C1.86575 12.1688 1.90848 12.1688 1.90848 12.2108V11.829ZM1.90848 13.8643H1.78097C1.73894 13.6527 1.65346 13.4404 1.52665 13.2281L1.35711 13.3129C1.61143 13.8222 1.39914 14.1613 1.14552 13.907C0.848466 13.6527 1.06005 13.1441 1.14552 12.805L1.01801 12.7622C0.805729 13.2281 0.678219 13.6527 1.01801 14.1613C1.27303 14.5432 1.52665 14.4157 1.78097 14.2034L1.90848 14.1613V13.8643ZM1.90848 15.4336L1.61143 15.2641L1.48391 15.4757L1.90848 15.7727V15.4336ZM1.90848 16.0705L1.65346 16.2814L1.78097 16.4509C1.82301 16.4936 1.86575 16.5364 1.90848 16.5364V16.0705Z" fill="#0E88D3"/>
</svg>
