<svg width="96" height="24" viewBox="0 0 96 24" fill="none" xmlns="http://www.w3.org/2000/svg">
<path d="M94.077 20.6013H93.9488C93.462 20.6013 93.1161 20.691 92.8855 20.8704C92.6677 21.0498 92.5524 21.3188 92.5524 21.7032C92.5524 21.8953 92.5908 22.0491 92.6805 22.1516C92.7573 22.2669 92.8726 22.3181 93.0264 22.3181C93.2954 22.3181 93.5132 22.1772 93.6926 21.8953C93.8592 21.5879 93.9873 21.1651 94.077 20.6013ZM93.7182 22.6384C93.5389 22.8434 93.3467 22.9843 93.1417 23.0868C92.9367 23.1893 92.7061 23.2278 92.4499 23.2278C92.0527 23.2278 91.7196 23.0996 91.4634 22.8562C91.2071 22.6128 91.0918 22.2925 91.0918 21.9081C91.0918 21.1523 91.2968 20.6013 91.7068 20.2682C92.1167 19.9351 92.7958 19.7686 93.731 19.7686C93.872 19.7686 93.9745 19.7686 94.0513 19.7686C94.1282 19.7686 94.1923 19.7686 94.2563 19.7814C94.2819 19.6148 94.3076 19.4867 94.3204 19.3842C94.3332 19.2817 94.3332 19.2049 94.3332 19.1536C94.3332 18.9743 94.2948 18.8333 94.2051 18.7436C94.1154 18.654 93.9873 18.6155 93.8207 18.6155C93.6414 18.6155 93.5004 18.6668 93.3851 18.7821C93.2826 18.8974 93.2057 19.0639 93.1673 19.2817H91.7196C91.7836 18.7565 91.9758 18.3721 92.3089 18.1287C92.642 17.8853 93.1289 17.7699 93.7823 17.7699C94.4613 17.7699 94.961 17.8853 95.2813 18.1031C95.6016 18.3337 95.7553 18.6924 95.7553 19.1792C95.7553 19.3074 95.7425 19.4355 95.7297 19.5892C95.704 19.743 95.6784 19.8967 95.64 20.0633L95.2044 22.0875C95.166 22.2669 95.1403 22.4462 95.1147 22.6256C95.0891 22.805 95.0763 22.9715 95.0506 23.1637H93.6414L93.7182 22.6384ZM88.8113 22.6769C88.6704 22.8818 88.5038 23.0484 88.3117 23.1381C88.1195 23.2406 87.8889 23.279 87.607 23.279C87.1586 23.279 86.8255 23.1637 86.6077 22.9459C86.3899 22.7281 86.2746 22.3822 86.2746 21.921C86.2746 21.7416 86.3002 21.511 86.3386 21.2291C86.3771 20.9473 86.4283 20.6398 86.5052 20.3067C86.5821 19.9479 86.6717 19.6405 86.7614 19.3714C86.8511 19.1024 86.9408 18.8846 87.0433 18.718C87.2227 18.4105 87.4276 18.1799 87.6583 18.039C87.8889 17.8981 88.1707 17.8212 88.491 17.8212C88.7601 17.8212 88.9907 17.8724 89.1829 17.9749C89.375 18.0774 89.5544 18.2568 89.7081 18.5002L90.3359 15.6048H91.8221L90.3872 22.3181C90.3615 22.4206 90.3487 22.5487 90.3231 22.6897C90.2975 22.8306 90.2847 22.9843 90.259 23.1509H88.7344L88.8113 22.6769ZM88.9266 18.8077C88.7601 18.8077 88.6319 18.8589 88.5295 18.9486C88.427 19.0383 88.3373 19.2177 88.2604 19.4611C88.1323 19.8839 88.017 20.2939 87.9401 20.7167C87.8632 21.1266 87.8248 21.4597 87.8248 21.716C87.8248 21.9081 87.8632 22.0491 87.9529 22.1516C88.0298 22.2541 88.1579 22.2925 88.3245 22.2925C88.4654 22.2925 88.5807 22.2413 88.6832 22.1516C88.7857 22.0619 88.8882 21.9081 88.9779 21.716C89.0291 21.6007 89.0676 21.4469 89.1188 21.2547C89.17 21.0626 89.2213 20.832 89.2725 20.5629C89.3238 20.2939 89.3622 20.0633 89.3878 19.8711C89.4135 19.6789 89.4263 19.5252 89.4263 19.4099C89.4263 19.2049 89.375 19.0639 89.2982 18.9614C89.2085 18.8589 89.0804 18.8077 88.9266 18.8077ZM84.0453 18.6924C83.8788 18.6924 83.7507 18.7436 83.6482 18.8333C83.5457 18.923 83.456 19.0767 83.3791 19.2817C83.3535 19.3458 83.3279 19.4355 83.2894 19.5764C83.251 19.7173 83.2254 19.8583 83.1869 20.0376C83.1613 20.1401 83.1357 20.2811 83.0973 20.4732C82.9435 21.1779 82.8666 21.6135 82.8666 21.7672C82.8666 21.9722 82.9051 22.1388 82.9948 22.2413C83.0844 22.3437 83.2126 22.4078 83.3919 22.4078C83.5585 22.4078 83.6866 22.3566 83.8019 22.2669C83.9172 22.1772 84.0069 22.0235 84.0838 21.8185C84.1222 21.7032 84.1735 21.5366 84.2247 21.306C84.276 21.0754 84.34 20.8191 84.4041 20.5373C84.4553 20.2682 84.5066 20.0376 84.5322 19.8326C84.5578 19.6277 84.5706 19.4611 84.5706 19.333C84.5706 19.128 84.5322 18.9743 84.4425 18.8718C84.3528 18.7436 84.2247 18.6924 84.0453 18.6924ZM81.4189 21.5494C81.4189 21.3829 81.4317 21.1907 81.4702 20.9729C81.4958 20.7551 81.547 20.4989 81.6111 20.2298C81.688 19.8967 81.7648 19.602 81.8545 19.3458C81.9442 19.0896 82.0467 18.8846 82.1364 18.7436C82.3542 18.4105 82.6104 18.1671 82.9179 18.0134C83.2254 17.8596 83.6097 17.7828 84.0838 17.7828C84.7244 17.7828 85.2112 17.9365 85.5443 18.2312C85.8774 18.5258 86.044 18.9743 86.044 19.538C86.044 19.7173 86.0312 19.9095 86.0055 20.1145C85.9799 20.3323 85.9415 20.5629 85.8774 20.8191C85.8005 21.1523 85.7237 21.4341 85.634 21.6903C85.5443 21.9466 85.4418 22.1644 85.3393 22.3181C85.1343 22.6512 84.8653 22.8947 84.5706 23.0484C84.2631 23.2021 83.8788 23.279 83.4047 23.279C82.7642 23.279 82.2773 23.1253 81.9442 22.8306C81.5855 22.5487 81.4189 22.1131 81.4189 21.5494ZM77.9213 23.1765L78.7925 19.0639C78.8309 18.8718 78.8694 18.6668 78.9078 18.4746C78.9463 18.2824 78.9719 18.0902 78.9847 17.8981H80.4324L80.3043 18.6668C80.4837 18.3977 80.6758 18.1927 80.9065 18.0646C81.1371 17.9365 81.3933 17.8724 81.7008 17.8724C81.7648 17.8724 81.8033 17.8724 81.8417 17.8724C81.8673 17.8724 81.9058 17.8724 81.9186 17.8853L81.6495 19.1921C81.6367 19.1921 81.6367 19.1921 81.6239 19.1921C81.4446 19.1664 81.3292 19.1536 81.2524 19.1536C80.9065 19.1536 80.6246 19.2561 80.4452 19.4611C80.2531 19.6661 80.0993 20.012 79.9968 20.4989L79.4331 23.1765H77.9213ZM76.3198 20.6013H76.1917C75.7049 20.6013 75.359 20.691 75.1283 20.8704C74.9105 21.0498 74.7952 21.3188 74.7952 21.7032C74.7952 21.8953 74.8337 22.0491 74.9234 22.1516C75.0002 22.2669 75.1155 22.3181 75.2693 22.3181C75.5383 22.3181 75.7561 22.1772 75.9355 21.8953C76.0892 21.5879 76.2302 21.1651 76.3198 20.6013ZM75.9483 22.6384C75.7689 22.8434 75.5768 22.9843 75.3718 23.0868C75.1668 23.1893 74.9362 23.2278 74.6799 23.2278C74.2828 23.2278 73.9497 23.0996 73.6934 22.8562C73.4372 22.6128 73.3219 22.2925 73.3219 21.9081C73.3219 21.1523 73.5269 20.6013 73.9369 20.2682C74.3468 19.9351 75.0259 19.7686 75.9611 19.7686C76.102 19.7686 76.2045 19.7686 76.2814 19.7686C76.3583 19.7686 76.4223 19.7686 76.4864 19.7814C76.512 19.6148 76.5376 19.4867 76.5505 19.3842C76.5633 19.2817 76.5633 19.2049 76.5633 19.1536C76.5633 18.9743 76.5248 18.8333 76.4352 18.7436C76.3455 18.654 76.2174 18.6155 76.0508 18.6155C75.8714 18.6155 75.7305 18.6668 75.6152 18.7821C75.5127 18.8974 75.4358 19.0639 75.3974 19.2817H73.9497C74.0137 18.7565 74.2059 18.3721 74.539 18.1287C74.8721 17.8853 75.359 17.7699 76.0124 17.7699C76.6914 17.7699 77.191 17.8853 77.5113 18.1031C77.8316 18.3337 77.9854 18.6924 77.9854 19.1792C77.9854 19.3074 77.9726 19.4355 77.9597 19.5892C77.9341 19.743 77.9085 19.8967 77.8701 20.0633L77.4345 22.0875C77.396 22.2669 77.3704 22.4462 77.3448 22.6256C77.3192 22.805 77.3063 22.9715 77.2807 23.1637H75.8842L75.9483 22.6384ZM67.531 23.1765L69.1453 15.6176H71.272C72.1176 15.6176 72.7197 15.7457 73.0913 16.0019C73.4628 16.2582 73.6422 16.6681 73.6422 17.2447C73.6422 17.834 73.4884 18.308 73.1938 18.6668C72.8991 19.0255 72.4763 19.2433 71.9126 19.3074C72.2969 19.3842 72.5788 19.5508 72.7582 19.7942C72.9375 20.0376 73.04 20.3707 73.04 20.7807C73.04 21.1907 72.9632 21.575 72.8094 21.921C72.6557 22.2669 72.4507 22.5231 72.1816 22.7153C71.9382 22.8818 71.6435 22.9971 71.2848 23.074C70.9389 23.1381 70.3624 23.1765 69.568 23.1765H67.531ZM69.3631 21.9978H70.0549C70.5545 21.9978 70.9133 21.8953 71.1439 21.6775C71.3745 21.4725 71.4898 21.1394 71.4898 20.6782C71.4898 20.3707 71.4001 20.1529 71.2336 20.0248C71.067 19.8967 70.7723 19.8326 70.3624 19.8326H69.8499L69.3631 21.9978ZM70.0677 18.6796H70.6186C71.1439 18.6796 71.5282 18.5899 71.7589 18.3977C71.9895 18.2055 72.1048 17.9109 72.1048 17.4881C72.1048 17.219 72.0151 17.0397 71.8485 16.9244C71.682 16.8091 71.3873 16.745 70.9902 16.745H70.5033L70.0677 18.6796ZM63.1878 23.1765L64.0974 18.8333H63.2775L63.4825 17.9109H64.3152L64.469 17.1294C64.5843 16.5656 64.7764 16.1557 65.0583 15.8994C65.3402 15.6432 65.7245 15.5151 66.2114 15.5151C66.3651 15.5151 66.5188 15.5151 66.6726 15.5279C66.8263 15.5407 66.9801 15.5535 67.1338 15.5791L66.9288 16.5913C66.8519 16.5785 66.7751 16.5656 66.7238 16.5528C66.6726 16.54 66.6213 16.54 66.5829 16.54C66.4035 16.54 66.2626 16.5913 66.1729 16.6809C66.0704 16.7706 66.0064 16.9244 65.9551 17.1294L65.8014 17.9109H66.6598L66.4676 18.8333H65.5836L64.6611 23.1765H63.1878ZM61.1763 18.6924C61.0226 18.6924 60.8817 18.7436 60.7792 18.8333C60.6767 18.923 60.587 19.0767 60.5229 19.2817C60.4973 19.3458 60.4717 19.4355 60.4332 19.5764C60.3948 19.7173 60.3692 19.8583 60.3308 20.0376C60.3051 20.1401 60.2795 20.2811 60.2411 20.4732C60.0873 21.1779 60.0105 21.6135 60.0105 21.7672C60.0105 21.9722 60.0489 22.1388 60.1386 22.2413C60.2283 22.3437 60.3564 22.4078 60.5229 22.4078C60.6767 22.4078 60.8176 22.3566 60.9201 22.2669C61.0226 22.1772 61.1251 22.0235 61.1891 21.8185C61.2276 21.7032 61.2788 21.5366 61.3301 21.306C61.3813 21.0754 61.4454 20.8191 61.4966 20.5373C61.5479 20.2682 61.5863 20.0376 61.6247 19.8326C61.6632 19.6277 61.6632 19.4611 61.6632 19.333C61.6632 19.128 61.6247 18.9743 61.5351 18.8718C61.4838 18.7436 61.3557 18.6924 61.1763 18.6924ZM58.6012 21.5494C58.6012 21.3829 58.614 21.1907 58.6524 20.9729C58.678 20.7551 58.7293 20.4989 58.7805 20.2298C58.8574 19.8967 58.9343 19.602 59.024 19.3458C59.1136 19.0896 59.2033 18.8846 59.3058 18.7436C59.5108 18.4105 59.767 18.1671 60.0745 18.0134C60.3692 17.8596 60.7535 17.7828 61.2148 17.7828C61.8425 17.7828 62.3166 17.9365 62.6497 18.2312C62.9828 18.5258 63.1365 18.9743 63.1365 19.538C63.1365 19.7173 63.1237 19.9095 63.0981 20.1145C63.0725 20.3323 63.034 20.5629 62.97 20.8191C62.8931 21.1523 62.8162 21.4341 62.7266 21.6903C62.6369 21.9466 62.5472 22.1644 62.4447 22.3181C62.2397 22.6512 61.9835 22.8947 61.676 23.0484C61.3813 23.2021 60.997 23.279 60.5357 23.279C59.908 23.279 59.4211 23.1253 59.1008 22.8306C58.7677 22.5487 58.6012 22.1131 58.6012 21.5494ZM51.9647 23.1765L53.6046 15.6176H55.1292L54.2067 19.8455L55.8851 17.8981H57.5122L55.5392 20.2298L56.6025 23.1637H55.0395L54.1171 20.1786L53.4765 23.1637H51.9647V23.1765ZM47.0578 23.1765L47.993 18.8718C48.0443 18.654 48.0827 18.4618 48.1083 18.3209C48.134 18.1671 48.1596 18.039 48.1724 17.9109H49.6201L49.5304 18.513C49.697 18.2568 49.8892 18.0774 50.107 17.9621C50.3248 17.8468 50.5938 17.7956 50.9013 17.7956C51.2985 17.7956 51.5931 17.8853 51.7981 18.0774C52.0031 18.2568 52.1056 18.5387 52.1056 18.8974C52.1056 19.0255 52.0928 19.1536 52.08 19.2689C52.0672 19.3842 52.0544 19.4995 52.0287 19.602L51.26 23.1893H49.7354L50.5169 19.5892C50.5426 19.4867 50.5554 19.397 50.5682 19.3458C50.581 19.2945 50.581 19.2433 50.581 19.2177C50.581 19.0767 50.5426 18.9743 50.4785 18.9102C50.4145 18.8461 50.312 18.8077 50.1838 18.8077C49.9917 18.8077 49.8123 18.9102 49.6586 19.1024C49.5048 19.2945 49.3895 19.5636 49.3254 19.9095L48.608 23.1893H47.0578V23.1765ZM45.4307 20.6013H45.2897C44.8029 20.6013 44.4442 20.691 44.2136 20.8704C43.9829 21.0498 43.8804 21.3188 43.8804 21.7032C43.8804 21.8953 43.9189 22.0491 44.0086 22.1516C44.0854 22.2669 44.2136 22.3181 44.3545 22.3181C44.6235 22.3181 44.8541 22.1772 45.0335 21.8953C45.2129 21.5879 45.341 21.1651 45.4307 20.6013ZM45.0719 22.6384C44.8926 22.8434 44.7004 22.9843 44.4826 23.0868C44.2776 23.1893 44.0342 23.2278 43.7908 23.2278C43.3808 23.2278 43.0477 23.0996 42.7914 22.8562C42.5352 22.6128 42.4071 22.2925 42.4071 21.9081C42.4071 21.1523 42.6121 20.6013 43.0221 20.2682C43.432 19.9351 44.1239 19.7686 45.0719 19.7686C45.2129 19.7686 45.3154 19.7686 45.3922 19.7686C45.4691 19.7686 45.5332 19.7686 45.61 19.7814C45.6485 19.6148 45.6613 19.4867 45.6741 19.3842C45.6869 19.2817 45.6869 19.2049 45.6869 19.1536C45.6869 18.9743 45.6485 18.8333 45.5588 18.7436C45.4691 18.654 45.341 18.6155 45.1616 18.6155C44.9823 18.6155 44.8413 18.6668 44.726 18.7821C44.6107 18.8974 44.5467 19.0639 44.5082 19.2817H43.0349C43.0989 18.7565 43.3039 18.3721 43.637 18.1287C43.9701 17.8853 44.4698 17.7699 45.136 17.7699C45.8278 17.7699 46.3275 17.8853 46.6478 18.1031C46.9681 18.3337 47.1218 18.6924 47.1218 19.1792C47.1218 19.3074 47.109 19.4355 47.0962 19.5892C47.0706 19.743 47.045 19.8967 47.0065 20.0633L46.5709 22.0875C46.5325 22.2669 46.5069 22.4462 46.4812 22.6256C46.4556 22.805 46.43 22.9715 46.4172 23.1637H44.9951L45.0719 22.6384ZM36.5393 23.1765L38.1792 15.6176H40.3316C41.19 15.6176 41.8049 15.7457 42.1765 16.0019C42.548 16.2582 42.7402 16.6681 42.7402 17.2447C42.7402 17.834 42.5865 18.308 42.2918 18.6668C41.9971 19.0255 41.5615 19.2433 40.9978 19.3074C41.3822 19.3842 41.6768 19.5508 41.8562 19.7942C42.0484 20.0376 42.138 20.3707 42.138 20.7807C42.138 21.1907 42.0612 21.575 41.9074 21.921C41.7537 22.2669 41.5359 22.5231 41.2668 22.7153C41.0234 22.8818 40.7288 22.9971 40.37 23.074C40.0113 23.1381 39.4348 23.1765 38.6276 23.1765H36.5393ZM38.397 21.9978H39.0888C39.5885 21.9978 39.96 21.8953 40.1907 21.6775C40.4213 21.4725 40.5366 21.1394 40.5366 20.6782C40.5366 20.3707 40.4469 20.1529 40.2803 20.0248C40.101 19.8967 39.8191 19.8326 39.3963 19.8326H38.871L38.397 21.9978ZM39.1145 18.6796H39.6654C40.1907 18.6796 40.575 18.5899 40.8184 18.3977C41.049 18.2055 41.1644 17.9109 41.1644 17.4881C41.1644 17.219 41.0747 17.0397 40.9081 16.9244C40.7288 16.8091 40.4469 16.745 40.0369 16.745H39.5501L39.1145 18.6796Z" fill="#F94F00"/>
<path fill-rule="evenodd" clip-rule="evenodd" d="M77.6519 11.6331H78.869L78.6512 12.7221H77.4341L77.6519 11.6331ZM74.244 9.09637C74.039 9.39104 73.7443 9.59603 73.4753 9.59603H73.3984C73.0012 9.59603 72.7963 9.17324 72.9372 8.66077L73.1806 7.78957L74.2312 9.12199L74.244 9.09637ZM74.1543 6.80306H74.2184C74.6155 6.80306 74.8205 7.22585 74.6924 7.73832L74.5002 8.44297L73.4368 7.22585C73.6418 6.96961 73.8981 6.80306 74.1543 6.80306ZM72.2197 4.70193H81.7901L80.7139 3.27983L81.6236 2.53674L82.8919 4.70193H83.225L82.2642 2.11396L83.4685 1.56305L84.1603 4.71474H93.0901L92.9492 5.32971H92.1548L90.6174 11.1206H89.3234L90.8608 5.32971H89.7334L89.2209 6.80306C88.67 6.80306 87.8885 6.67494 87.3632 6.77744C86.9148 6.86712 86.8251 7.08492 86.6842 7.45646C86.3895 8.25079 86.2358 9.04512 86.0308 9.87788C86.0821 10.416 86.3767 10.5185 86.9276 10.5057C86.8764 9.96757 87.0045 9.22448 87.6451 8.917C88.0679 8.71201 88.811 8.6992 88.9647 9.19886C89.1825 9.91632 88.4394 10.621 87.9141 10.6722C88.0551 11.1078 88.3754 11.1462 88.8494 11.3384L87.4914 12.0815C87.1839 11.71 86.9533 11.3256 86.9404 10.9284C86.4536 11.1591 85.6208 11.1847 85.1084 10.9284C84.9931 10.8772 84.8777 10.7875 84.7753 10.6338C84.5575 10.3263 84.4806 9.92913 84.519 9.4551C84.5703 8.98106 84.6343 8.50703 84.7881 8.0458C84.9546 7.4949 85.1468 7.08492 85.5824 6.70057C86.2614 6.0856 86.9789 6.13685 88.0551 6.1881L88.3113 5.32971H84.5062L82.9688 11.1206H81.6748L83.2122 5.32971H82.1617L81.5723 7.31553L80.3039 7.35397L80.2143 6.87993C79.9708 6.77744 79.5609 6.72619 79.2918 6.77744C78.9331 6.8415 78.8562 7.0593 78.7537 7.37959C78.6512 7.69988 78.6256 8.0458 78.869 8.13548C79.2662 8.28923 79.958 8.21236 80.368 8.18673C80.9061 8.17392 81.2264 8.37891 81.2008 8.89138C81.1495 9.41666 80.983 9.8907 80.7524 10.3263C80.6114 10.621 80.4449 10.8388 80.2143 10.9284C79.6634 11.1591 78.664 11.0822 78.0747 11.0822C77.7544 11.0822 77.4469 11.0694 77.1523 11.0438C77.0241 11.0309 76.9088 10.9925 76.7935 10.9156C76.691 10.8516 76.6013 10.7491 76.5245 10.621C76.3707 10.3391 76.3964 10.1726 76.4604 9.87788L76.5757 9.36541L78.1259 9.39104C77.9594 9.77539 77.9081 10.0573 78.0106 10.211C78.2284 10.5313 79.01 10.3775 79.2662 10.211L79.5737 9.21167C79.6377 8.98106 79.4968 8.87857 79.2918 8.82732C79.01 8.76326 78.6897 8.78889 78.4078 8.78889C78.1003 8.78889 77.6775 8.84013 77.4085 8.66077C76.9601 8.3661 77.0754 7.59739 77.2419 7.09773C77.3829 6.67494 77.5622 6.43152 77.9722 6.25216C78.8434 5.85499 80.2143 5.95748 80.4961 6.46995L80.7652 5.27846H76.691L75.2049 11.1078H73.9109L74.2568 9.74977C73.8981 10.1213 73.3856 10.3519 72.8731 10.3519H72.7322C71.8994 10.3519 71.3613 9.69852 71.5535 8.90419L71.8866 7.4949C72.0788 6.70057 72.9116 6.04717 73.7443 6.04717H73.8853C74.4233 6.04717 74.8461 6.31621 75.0127 6.72619L75.3842 5.27846H72.0916L72.2197 4.70193ZM58.0371 2.61361L59.3311 2.6008C59.267 2.75454 59.203 3.11327 59.3055 3.2542C59.4976 3.51044 60.1767 3.49763 60.4201 3.21577C60.5226 3.10046 60.6251 2.78017 60.6635 2.62643L62.0856 2.61361C61.9575 3.24139 61.7269 3.76667 61.1375 3.9076C60.4457 4.07416 59.1133 4.0101 58.4086 3.88198C57.7168 3.75386 57.9218 3.19014 58.0371 2.61361ZM61.4322 10.6082H62.6493L62.4315 11.71H61.2144L61.4322 10.6082ZM64.9939 5.3169H63.8793L63.1618 8.16111C62.8671 9.21167 63.4821 9.25011 64.0971 8.68639L64.9939 5.3169ZM56.9481 4.70193H69.068L68.9271 5.3169H66.3904L66.0316 6.70057C67.1847 6.02154 68.0047 6.20091 68.2737 6.72619C68.4659 7.08492 68.325 7.41803 68.2353 7.77676L67.505 10.4928H66.1213L66.7875 7.87925C67.0822 6.8415 66.4801 6.79025 65.8651 7.34116L64.917 11.0822L63.4437 11.1334L63.9177 9.33979C62.7646 10.0316 61.9447 9.83945 61.6628 9.32698C61.4707 8.96825 61.6116 8.63514 61.7013 8.27641L62.4828 5.32971H61.381L59.8436 11.1206H58.5496L60.087 5.32971H58.9467L57.4093 11.1206H56.1153L56.9097 8.12267H55.7566L55.9616 7.31553H57.1147L57.6399 5.3169H56.7687L56.9481 4.70193ZM54.7317 7.72551C55.4876 7.78957 55.8975 8.46859 55.6285 9.28854L55.5516 9.50634C55.2826 10.3647 54.3729 11.0822 53.5274 11.0822H50.8497L51.0547 10.3007H52.9252C53.4377 10.3007 53.963 9.85226 54.0911 9.28854L54.1167 9.14761C54.2448 8.59671 53.9245 8.13548 53.4121 8.13548H51.9003L52.0028 7.7127L54.7317 7.72551ZM54.7189 7.72551C54.6932 7.72551 54.6676 7.72551 54.6548 7.72551C54.6804 7.72551 54.706 7.72551 54.7189 7.72551ZM54.7573 7.72551C55.5132 7.63583 56.1794 7.00805 56.2563 6.25216L56.2819 6.04717C56.3716 5.22721 55.7566 4.561 54.9238 4.561H52.5409L52.3487 5.32971H53.9886C54.5011 5.32971 54.8342 5.7525 54.7317 6.26497L54.706 6.39308C54.6035 6.90555 54.1039 7.32834 53.5914 7.32834H52.1181L52.0284 7.7127L54.7573 7.72551ZM44.1107 6.89274C44.3798 6.9568 44.5463 7.18741 44.4823 7.40521L43.9313 9.30136C43.8673 9.51916 43.5982 9.63446 43.3292 9.5704C43.0601 9.50634 42.8936 9.27573 42.9577 9.05793L43.5086 7.16179C43.5726 6.94399 43.8417 6.82868 44.1107 6.89274ZM42.0224 3.07484H43.2395L43.0217 4.17665H41.8046L42.0224 3.07484ZM38.9219 9.09637C38.717 9.39104 38.4223 9.59603 38.1532 9.59603H38.0892C37.692 9.59603 37.487 9.17324 37.628 8.66077L37.8714 7.78957L38.9219 9.12199V9.09637ZM38.8323 6.80306H38.8963C39.2935 6.80306 39.4985 7.22585 39.3704 7.73832L39.1782 8.44297L38.1148 7.22585C38.3198 6.96961 38.576 6.80306 38.8323 6.80306ZM36.8977 4.70193H39.1013L38.0251 3.27983L38.9348 2.53674L40.2031 4.70193H40.5362L39.5753 2.11396L40.7797 1.56305L41.4715 4.71474H49.2354L49.0945 5.32971H46.3784L46.0709 6.58526C47.288 5.79093 48.6333 5.99592 48.5051 7.45646C48.4539 8.00737 48.2617 8.6992 48.0311 9.19886C47.8389 9.62165 47.5827 9.92913 47.2624 10.1341C46.7499 10.4544 46.34 10.3647 45.8275 10.2622C45.6609 10.2366 45.6481 10.2622 45.7122 10.0957L45.7891 9.87788C45.8147 9.7882 45.8147 9.80101 45.9044 9.80101C46.0325 9.80101 46.1606 9.7882 46.2759 9.73695C46.4681 9.64727 46.609 9.30136 46.7115 8.917C46.814 8.54546 47.1599 7.34115 46.9549 6.98243C46.8652 6.82868 46.5962 6.80306 46.3656 6.94399C46.1606 7.07211 46.0069 7.23866 45.8915 7.40521L44.9819 11.1462H43.6751L44.0082 9.7882C43.6623 10.1597 43.2395 10.3904 42.7655 10.3904H42.6245C41.8302 10.3904 41.3177 9.73696 41.4971 8.94263L41.8174 7.53333C41.9968 6.739 42.8039 6.0856 43.5982 6.0856H43.7392C44.2645 6.0856 44.5719 6.34184 44.7385 6.75181L45.1228 5.3169H41.3818L39.8956 11.1462H38.5504L38.8963 9.7882C38.5376 10.1597 38.0251 10.3904 37.5127 10.3904H37.3717C36.539 10.3904 36.0009 9.73696 36.193 8.94263L36.5261 7.53333C36.7183 6.739 37.5511 6.0856 38.3838 6.0856H38.5248C39.0629 6.0856 39.4857 6.35465 39.6522 6.76463L40.0238 5.3169H36.7439L36.8977 4.70193Z" fill="#F94F00"/>
<path fill-rule="evenodd" clip-rule="evenodd" d="M22.3565 4.20226C22.2156 4.98378 22.2156 4.98378 22.1131 5.48344C21.8569 6.18808 21.5238 6.7518 21.101 7.36677C21.0754 7.37958 21.0625 7.39239 21.0369 7.4052C19.8582 8.75044 18.4489 9.5832 16.7578 10.1725C16.4247 10.2494 16.4247 10.2494 16.3862 10.275V10.3519C16.5016 10.4672 16.7194 10.4416 16.8603 10.4416C16.9884 10.48 16.9884 10.48 17.1934 10.4928C17.8084 10.685 18.3977 10.9156 18.9614 11.2487C18.9998 11.3 19.2689 11.4922 19.7045 11.8765C19.8326 12.0302 19.9607 12.184 20.0888 12.3377C20.3579 12.7221 20.5501 13.1705 20.7166 13.6189C20.7679 13.8495 20.8191 14.0801 20.8704 14.3107C20.896 14.567 20.896 14.567 20.896 15.2332C20.8447 15.5535 20.7807 15.8738 20.7294 16.1941C20.6398 16.3863 20.6141 16.5272 20.4604 16.9115C20.1273 17.5777 19.7557 18.1927 19.2689 18.7564C18.6796 19.3714 18.039 19.9095 17.3599 20.422C17.2446 20.4732 17.0653 20.5373 16.9884 20.6398C15.9378 21.2291 14.9001 21.6263 13.7598 22.0234C13.0552 22.1644 12.3634 22.3053 11.6459 22.395C10.3391 22.4718 10.3391 22.4718 9.96755 22.5103C8.81449 22.5487 4.36881 22.7665 4.29194 22.7537C4.22788 22.6896 4.24069 22.5231 4.29194 22.459C5.48344 22.1131 6.70055 21.7159 7.90486 21.4213C8.00735 21.3828 10.0316 20.7935 10.2366 20.7166C11.1462 20.5245 12.0431 20.1785 12.9399 19.9351C13.1449 19.8582 14.2211 19.5636 15.2204 19.2689C16.1044 19.0639 17.0396 18.7821 17.898 18.4874C17.9365 18.4361 17.9365 18.3849 17.9365 18.3208C17.9109 18.308 17.8852 18.2824 17.8724 18.2696C17.7955 18.2696 16.6425 18.5643 11.2615 19.871C11.2359 19.8839 11.2103 19.8967 11.1975 19.9095C10.211 20.1017 9.22447 20.3835 8.23796 20.6141C8.16109 20.6398 8.08422 20.6654 8.02016 20.691C4.29194 21.575 4.29194 21.575 4.20226 21.6134H4.09977C4.02289 21.511 3.97165 21.4981 3.99727 21.3572C4.27913 21.1778 4.27913 21.1778 4.97096 20.7807C5.15033 20.7038 6.85429 19.7301 7.02085 19.6533C8.37889 18.8461 9.78819 18.0902 11.1462 17.2959C12.2865 16.6681 13.4395 16.0147 14.5798 15.3869C14.6182 15.3613 14.6567 15.3357 14.6951 15.2973C15.5663 14.8488 16.4119 14.3492 17.2703 13.8751C17.6674 13.7086 18.0902 13.4524 18.4489 13.2089C18.513 13.1192 18.4618 13.0039 18.3593 12.9911C17.5265 13.4139 16.7065 13.8495 15.8866 14.2723C15.7585 14.3107 15.7585 14.3107 15.6304 14.4004C13.273 15.6047 13.273 15.6047 13.0808 15.6816C12.8118 15.8482 12.1071 16.1941 12.0431 16.2453C11.0181 16.7578 9.99318 17.2959 8.98105 17.8468C8.94261 17.8596 8.91699 17.8596 8.89137 17.8724C8.34046 18.244 7.67425 18.4874 7.11053 18.8333C6.12402 19.3201 5.12471 19.8326 4.15101 20.3451C4.03571 20.3707 3.29262 20.896 3.36949 20.3835C3.71541 20.0632 4.06133 19.7301 4.40725 19.4098C4.50974 19.2945 4.77879 19.0511 4.81722 19.0383C5.18876 18.6283 5.61155 18.1543 6.07278 17.8468C6.0984 17.8084 6.13684 17.7699 6.16246 17.7187C7.05928 16.8859 7.96892 16.0403 8.82731 15.1563C11.4025 12.6965 13.9904 10.2366 16.5784 7.81518C16.6553 7.71268 16.7322 7.61019 16.8475 7.54613C18.4233 6.03434 18.5258 5.91904 20.3963 4.1382C20.5245 4.04852 20.5245 4.04852 20.5629 3.97165C20.5629 3.66417 20.3835 3.80509 20.217 3.93321C19.7557 4.39444 19.2561 4.80441 18.782 5.25282C18.6027 5.50906 18.2824 5.68842 18.0774 5.93185C17.629 6.34182 17.1037 6.89273 16.5912 7.25146C16.2197 7.623 15.7969 8.00735 15.3869 8.32765C13.9136 9.74975 12.2865 11.0309 10.8259 12.4658C10.1085 13.0296 9.48071 13.7598 8.75043 14.3107C8.55826 14.5285 8.55826 14.5285 7.25146 15.7329C7.20021 15.7713 7.16178 15.7969 7.11053 15.8225C5.64999 17.1678 4.16382 18.4874 2.67766 19.807C2.51111 19.807 2.47267 19.7686 2.48548 19.602C4.26632 17.014 6.04715 14.4132 7.80236 11.8124C8.51982 10.7363 9.22447 9.63445 9.98037 8.58388C10.5185 7.78955 10.5569 7.71268 10.7491 7.45645C12.1199 5.41938 13.5548 3.36949 14.9001 1.3068C15.0666 1.14025 15.0154 1.03775 14.7976 1.06338C13.6573 2.66485 12.4787 4.24069 11.3512 5.86779C11.159 6.11121 10.8003 6.64931 6.98241 11.9918C6.89273 12.1327 5.52187 14.0033 5.43219 14.1186C4.20226 15.8353 2.97233 17.5777 1.71678 19.2689C1.65272 19.3201 1.58866 19.3714 1.49898 19.3201V19.1664C2.3958 16.8347 3.34387 14.4901 4.31756 12.1968C5.73967 8.62232 7.16178 5.02221 8.60951 1.44773C8.60951 1.37086 8.60951 1.37086 8.55826 1.3068C8.50701 1.3068 8.45577 1.31961 8.41733 1.35805C7.31552 3.83072 6.17527 6.30339 5.06065 8.77606C5.0094 8.84012 3.84353 11.4409 3.51042 12.1071C3.36949 12.453 3.25419 12.6708 3.10045 13.0296C2.15238 15.0282 1.24274 17.0653 0.333105 19.0895C0.217799 19.1408 0.115306 19.1536 0 19.1023C0.0128118 18.9614 0.0128106 18.9614 0.461222 17.3087C0.499658 17.219 0.627776 16.7194 0.666211 16.6169C0.704647 16.4375 0.743082 16.3478 1.17868 14.631C1.40929 13.7726 1.63991 12.9143 1.88333 12.0687C1.92176 11.8893 4.09976 4.01008 4.12539 3.89478C4.20226 3.63854 4.26632 3.39512 4.34319 3.13888C4.62505 2.03707 4.91972 1.01213 5.13752 0.128118C5.16314 0.0640588 5.18876 0.0512469 5.24001 0.0128116C9.13479 0.0128116 13.0424 0.0256235 16.95 0C18.1415 0.0640588 19.3586 0.269047 20.4604 0.781518C20.5757 0.8712 20.5757 0.8712 20.8576 1.02494C21.101 1.20431 21.3572 1.40929 21.5878 1.63991C21.7159 1.81927 21.8312 1.99864 21.9594 2.178C22.0362 2.35737 22.1003 2.54954 22.1772 2.72891C22.2284 2.99795 22.2925 3.267 22.3437 3.52324C22.3437 3.72822 22.3437 3.95884 22.3565 4.20226ZM28.5959 5.21439C28.519 5.7653 28.4293 6.27777 28.2756 6.80305C27.9553 7.46926 27.9553 7.46926 27.7503 7.8408C27.3787 8.40452 26.9047 8.87855 26.4051 9.32697C25.9182 9.69851 25.9182 9.69851 25.3929 10.07C24.7651 10.4416 24.0733 10.7363 23.4071 11.0437C23.1509 11.1206 22.8434 11.1847 22.6128 11.3256C22.6128 11.3897 22.6128 11.3897 22.6256 11.4153C23.484 11.505 24.2399 11.7996 24.9573 12.2737C25.3032 12.5683 25.6363 12.863 25.931 13.2217C26.2769 13.7214 26.546 14.2082 26.751 14.772C26.8022 15.0026 26.8535 15.2204 26.9047 15.451C26.9431 15.8097 26.9431 16.1684 26.9431 16.54C26.8278 17.5906 26.4435 18.5258 25.8798 19.4226C25.521 19.9223 25.521 19.9223 25.1623 20.3835C24.5473 21.0241 23.7914 21.7544 22.9715 22.1259C22.3693 22.5743 21.5622 22.8562 20.8704 23.1381C20.4348 23.2662 19.9864 23.4071 19.5508 23.548C18.5642 23.7274 18.5642 23.7274 18.4618 23.7658C17.7059 23.8427 17.7059 23.8427 17.5009 23.8811C13.1192 24.0605 8.68638 23.9836 4.30475 23.9836C4.25351 23.8939 4.22788 23.7658 4.34319 23.7146C6.44432 23.6249 8.55826 23.5224 10.6594 23.4583C11.0694 23.4583 11.5178 23.4712 11.9149 23.4071C13.3242 23.3559 14.6951 23.2918 16.0916 23.074C16.1813 23.0356 16.5528 22.9587 17.1037 22.8178C19.8326 21.9337 22.3181 20.2042 23.4712 17.4881C23.548 17.2446 23.548 17.2446 23.6249 17.1037C23.689 16.7962 23.753 16.4887 23.8171 16.1813C23.8299 15.4254 23.8299 15.4254 23.8171 15.1307C23.7146 14.4004 23.4455 13.6702 23.0227 13.068C22.8306 12.863 22.6512 12.6452 22.459 12.4402C21.5622 11.7356 20.6782 11.2615 19.5251 11.1719C19.5251 11.0822 19.5508 11.0694 19.6276 11.0309C19.9095 10.9541 19.9095 10.9541 20.3067 10.8131C22.1259 10.0188 23.753 8.95542 24.778 7.21302C24.8804 6.98241 24.9829 6.73899 25.0854 6.49557C25.2648 5.90622 25.3673 5.31688 25.4185 4.70192C25.3929 4.43287 25.3801 4.16382 25.3673 3.89478C25.3161 3.72822 25.2648 3.54886 25.2136 3.36949C24.9958 2.84421 24.7651 2.52392 24.368 2.12675C23.7402 1.62709 23.0356 1.25555 22.2412 1.07619C22.2412 1.06338 22.2412 1.03775 22.254 1.02494C22.664 0.948071 23.1637 1.02494 23.5737 1.05057C23.7658 1.089 23.7658 1.089 24.4577 1.16587C24.6883 1.21712 24.9189 1.26836 25.1623 1.31961C25.9054 1.5246 26.6485 1.78084 27.2763 2.22925C27.4556 2.3958 27.6478 2.56235 27.8272 2.72891C27.9809 2.97233 28.1346 3.20294 28.2884 3.43355C28.3652 3.66417 28.4421 3.88197 28.519 4.11258C28.5318 4.44568 28.5831 4.83004 28.5959 5.21439Z" fill="#F94F00"/>
</svg>
