<svg width="43" height="24" viewBox="0 0 43 24" fill="none" xmlns="http://www.w3.org/2000/svg">
<g clip-path="url(#clip0_45_4284)">
<path d="M24.0257 15.6532C24.0257 15.6532 23.5762 15.4558 22.7891 14.9689C21.5735 14.2192 20.0193 12.9557 19.4518 12.4093L19.8301 12.1383L22.5754 9.93488H19.885L17.3511 12.1302L17.3558 9.93488H15.3356L15.3263 15.5329H17.3464L17.3499 13.9565L18.0237 13.4403C18.3226 13.7148 18.6192 14.002 19.0104 14.2788C19.8862 14.9023 21.0983 15.6882 22.5964 15.7688C23.3414 15.8073 24.0257 15.652 24.0257 15.652M9.68505 12.0905H11.697C12.1302 12.0905 12.3171 11.8698 12.3171 11.6129C12.3171 11.3618 12.1314 11.1411 11.6982 11.1411H9.68622L9.68388 12.0905H9.68505ZM11.8547 14.3255C12.2797 14.3255 12.5681 14.1141 12.5681 13.7451C12.5693 13.3761 12.2809 13.1893 11.857 13.1893H9.68388L9.68155 14.3255H11.8535H11.8547ZM7.66958 9.93488H12.6861C14.1539 9.93488 14.4073 10.7733 14.4073 11.3151C14.4061 11.8394 14.0908 12.2948 13.6588 12.4443V12.4583C14.2952 12.5926 14.7097 13.0702 14.7085 13.8631C14.7085 14.5287 14.3652 15.5329 12.5074 15.5329H7.66024L7.66958 9.93488ZM2.06339 12.0905H4.07419C4.50741 12.0905 4.69541 11.8698 4.69541 11.6129C4.69541 11.356 4.50858 11.1411 4.07652 11.1411H2.06456V12.0905H2.06339ZM4.233 14.3255C4.65688 14.3255 4.9453 14.1141 4.94647 13.7451C4.94647 13.3761 4.65921 13.1893 4.23533 13.1893H2.06222L2.05989 14.3255H4.233ZM0.0467482 9.93604H5.06324C6.53106 9.93604 6.78445 10.7745 6.78328 11.3163C6.78328 11.8406 6.468 12.296 6.03478 12.4455V12.4595C6.67118 12.5938 7.08572 13.0714 7.08455 13.8642C7.08455 14.5298 6.74241 15.5341 4.88458 15.5341H0.0385742L0.0467482 9.93604Z" fill="#294786"/>
<path d="M7.30401 22.3792C7.30401 22.3921 7.30167 22.4364 7.22227 22.4364H6.91866C6.83809 22.4364 6.83692 22.3921 6.83692 22.3792V21.9904C6.83692 21.9764 6.83692 21.932 6.91866 21.932H7.22227C7.30167 21.932 7.30401 21.9752 7.30401 21.9904V22.3792ZM13.5139 22.4364V21.6261C13.5139 21.5887 13.5139 21.3119 13.1332 21.3119H9.3802C9.3802 21.0831 9.61141 20.6323 11.036 20.6323L11.3163 20.0169C10.8959 20.0169 8.67257 19.7425 8.46355 21.932H12.8121C12.8927 21.932 12.8938 21.9752 12.8938 21.9904V22.3792C12.8938 22.3921 12.8927 22.4364 12.8121 22.4364H7.92173V21.6261C7.92173 21.5887 7.92173 21.3119 7.54105 21.3119H6.59637C6.2157 21.3119 6.2157 21.5887 6.2157 21.6261V22.7412C6.2157 22.7798 6.2157 23.0542 6.59637 23.0542H7.30284C7.29817 23.213 7.24095 23.582 6.59287 23.5925L6.93267 23.9988C6.93267 23.9988 7.92173 23.9988 7.92173 23.1464V23.0553H14.2963C14.6758 23.0553 14.6758 22.7809 14.6758 22.7424V20.0251L14.0581 20.3042V22.3781C14.0581 22.3909 14.0557 22.4353 13.9751 22.4353H13.5127L13.5139 22.4364Z" fill="#294786"/>
<path d="M33.1514 23.0553H33.7703V20.0262L33.1514 20.3053V23.0553Z" fill="#294786"/>
<path d="M15.2223 23.0553H15.8412V20.0262L15.2223 20.3053V23.0553Z" fill="#294786"/>
<path d="M41.9407 21.5922V22.3792C41.9407 22.3921 41.9384 22.4364 41.859 22.4364H41.3977V21.3131L40.7788 21.5922V22.3792C40.7788 22.3921 40.7788 22.4364 40.6983 22.4364H40.2359V21.6261C40.2359 21.5887 40.2359 21.3119 39.8552 21.3119H36.101C36.101 21.0831 36.3322 20.6323 37.758 20.6323L38.0382 20.0169C37.6178 20.0169 35.3957 19.7425 35.1867 21.932H39.5364C39.617 21.932 39.6181 21.9752 39.6181 21.9904V22.3792C39.6181 22.3921 39.617 22.4364 39.5364 22.4364H34.6437V23.0542H42.1813C42.5619 23.0542 42.5619 22.7798 42.5619 22.7412V21.3119L41.9431 21.591L41.9407 21.5922Z" fill="#294786"/>
<path d="M31.9894 22.3792C31.9894 22.3921 31.9894 22.4364 31.9077 22.4364H31.4465V21.3131L30.8276 21.5922V22.3792C30.8276 22.3921 30.8276 22.4364 30.7447 22.4364H30.2846V21.626C30.2846 21.5887 30.2846 21.3119 29.9039 21.3119H25.8298L26.1369 21.9308H29.584C29.6645 21.9308 29.6657 21.9752 29.6657 21.9892V22.4353H25.0416V21.3119L24.4227 21.591V23.0098C24.4227 23.1219 24.4332 23.5796 23.7139 23.5913L24.0525 23.9965C24.0525 23.9965 25.0416 23.9965 25.0416 23.1441V23.053H32.2277C32.6095 23.053 32.6095 22.7786 32.6095 22.74V20.0228L31.9894 20.3018V22.3769V22.3792Z" fill="#294786"/>
<path d="M23.8785 22.7424V21.3131L23.2585 21.5922V22.3792C23.2585 22.3921 23.2585 22.4364 23.1779 22.4364H21.4345V21.3131L20.8156 21.5922V23.3227C20.8156 23.3368 20.8144 23.38 20.735 23.38H19.7366C19.6572 23.38 19.6561 23.3356 19.6561 23.3227V21.3131L19.036 21.5922V23.6859C19.036 23.7244 19.036 24 19.4167 24H21.0538C21.4345 24 21.4345 23.7244 21.4345 23.6859V23.0553H23.4978C23.8785 23.0553 23.8785 22.7809 23.8785 22.7424Z" fill="#294786"/>
<path d="M17.6722 22.3792C17.6722 22.3921 17.671 22.4364 17.5904 22.4364H17.2868C17.2062 22.4364 17.2051 22.3921 17.2051 22.3792V21.9904C17.2051 21.9764 17.2062 21.932 17.2868 21.932H17.5904C17.6698 21.932 17.6722 21.9764 17.6722 21.9904V22.3792ZM17.9115 21.3131H16.9669C16.5862 21.3131 16.5862 21.5899 16.5862 21.6272V22.7424C16.5862 22.7809 16.5862 23.0553 16.9669 23.0553H17.6722C17.6675 23.2141 17.6103 23.5831 16.9634 23.5937L17.3032 23.9988C17.3032 23.9988 18.291 23.9988 18.291 23.1464V21.6272C18.291 21.5899 18.291 21.3131 17.9104 21.3131" fill="#294786"/>
<path d="M5.05269 21.5922V22.3792C5.05269 22.3921 5.05269 22.4364 4.97095 22.4364H4.51087V21.3131L3.89082 21.5922V22.3792C3.89082 22.3921 3.89082 22.4364 3.80908 22.4364H0.700628C0.620055 22.4364 0.618888 22.3921 0.618888 22.3792V21.5922L0 21.3131V22.7424C0 22.7809 0 23.0553 0.380674 23.0553H5.29207C5.67275 23.0553 5.67275 22.7809 5.67275 22.7424V21.3131L5.05269 21.5922Z" fill="#294786"/>
<path d="M40.7695 20.317H41.3744V20.8705H40.7695V20.317Z" fill="#294786"/>
<path d="M20.2272 20.317H20.832V20.8705H20.2272V20.317Z" fill="#294786"/>
<path d="M2.39026 20.317H2.99397V20.8705H2.39026V20.317Z" fill="#294786"/>
<path d="M1.5542 20.317H2.15791V20.8705H1.5542V20.317Z" fill="#294786"/>
<path d="M4.89624 23.408H5.50112V23.9603H4.89624V23.408Z" fill="#294786"/>
<path d="M4.06018 23.408H4.66506V23.9603H4.06018V23.408Z" fill="#294786"/>
<path d="M22.7167 23.408H23.3216V23.9603H22.7167V23.408Z" fill="#294786"/>
<path d="M21.8806 23.408H22.4855V23.9603H21.8806V23.408Z" fill="#294786"/>
<path d="M30.8346 23.408H31.4383V23.9603H30.8346V23.408Z" fill="#294786"/>
<path d="M24.6726 8.36082C25.0054 7.5586 25.845 7.12071 26.6659 7.26433C26.8119 8.0864 26.3752 8.92716 25.5729 9.25879L24.0386 9.89636L24.6726 8.36198V8.36082Z" fill="#FFD327"/>
<path d="M24.1798 5.9016C24.9809 5.5688 25.8847 5.85256 26.3635 6.53567C25.8859 7.21878 24.9832 7.50487 24.181 7.17324L22.6443 6.538L24.1798 5.9016Z" fill="#FFD327"/>
<path d="M28.1232 5.80584C27.9772 4.98494 28.414 4.14419 29.2162 3.81139L30.7494 3.17499L30.1142 4.71053C29.7825 5.51392 28.9429 5.95064 28.1209 5.80584" fill="#FFD327"/>
<path d="M28.4257 6.5345C28.9021 5.85138 29.8059 5.56529 30.6081 5.89809L32.1437 6.53216L30.6093 7.16973C29.8071 7.50253 28.9033 7.21761 28.4257 6.53566" fill="#FFD327"/>
<path d="M27.3934 5.50463C26.7103 5.02703 26.4253 4.12322 26.7558 3.321L27.391 1.78546L28.0274 3.31867C28.3602 4.12205 28.0753 5.0247 27.3922 5.50346" fill="#FFD327"/>
<path d="M26.6658 5.80704C25.8449 5.95184 25.0042 5.51511 24.6714 4.71406L24.0338 3.17969L25.5694 3.81492C26.3716 4.14655 26.8095 4.98614 26.6658 5.80821" fill="#FFD327"/>
<path d="M27.3957 7.56561C28.0788 8.04321 28.3649 8.94702 28.0321 9.74807L27.3968 11.2836L26.7604 9.74924C26.4276 8.94702 26.7114 8.04321 27.3945 7.56561" fill="#FFD327"/>
<path d="M28.1243 7.26432C28.9452 7.11835 29.786 7.55508 30.1188 8.3573L30.7552 9.89167L29.2197 9.25643C28.4174 8.9248 27.9795 8.08522 28.1243 7.26315" fill="#FFD327"/>
<path d="M28.108 12.7724C28.7526 11.2135 30.385 10.3623 31.9801 10.6437C32.2627 12.2388 31.4138 13.8712 29.856 14.517L26.8749 15.7548L28.108 12.7724Z" fill="#FAA943"/>
<path d="M34.8095 7.81085C34.5269 6.21576 35.3759 4.58213 36.9324 3.93638L39.9136 2.69861L38.6805 5.68211C38.0359 7.23984 36.4046 8.09111 34.8084 7.81085" fill="#FAA943"/>
<path d="M35.3969 9.22611C36.3252 7.89725 38.0803 7.34375 39.638 7.98833H39.6391L42.6203 9.22143L39.6391 10.458C38.0814 11.105 36.3252 10.5526 35.3969 9.22611Z" fill="#FAA943"/>
<path d="M33.3942 7.22464C32.0665 6.29747 31.5107 4.5424 32.1553 2.98351L33.3884 0L34.625 2.98C35.2719 4.5389 34.7184 6.29397 33.3919 7.22347" fill="#FAA943"/>
<path d="M33.3966 11.2287C34.7243 12.157 35.279 13.9109 34.6355 15.471L33.4013 18.4533L32.1647 15.4722C31.5178 13.9144 32.0712 12.1594 33.3978 11.2287" fill="#FAA943"/>
<path d="M34.8119 10.6414C36.407 10.3588 38.0394 11.2077 38.6852 12.7654L39.9218 15.7466L36.9383 14.5135C35.3794 13.8689 34.5293 12.2376 34.8095 10.6414" fill="#FAA943"/>
</g>
<defs>
<clipPath id="clip0_45_4284">
<rect width="42.6215" height="24" fill="white"/>
</clipPath>
</defs>
</svg>
