<svg width="39" height="24" viewBox="0 0 39 24" fill="none" xmlns="http://www.w3.org/2000/svg">
<g clip-path="url(#clip0_45_4235)">
<path d="M26.0622 9.37823C26.4429 10.279 26.6365 11.2339 26.6365 12.2166C26.6365 13.1994 26.4429 14.1543 26.0622 15.055C25.6947 15.9229 25.1697 16.7023 24.5019 17.3717C23.8342 18.0394 23.0548 18.5645 22.1853 18.932C21.2845 19.3126 20.3297 19.5062 19.3469 19.5062C18.3641 19.5062 17.4092 19.3126 16.5085 18.932C15.6406 18.5645 14.8612 18.0394 14.1918 17.3717C13.5241 16.7039 12.9991 15.9246 12.6315 15.055C12.2509 14.1543 12.0573 13.1994 12.0573 12.2166C12.0573 11.2339 12.2509 10.279 12.6315 9.37823C12.9991 8.51031 13.5241 7.73098 14.1918 7.06158C14.8596 6.39218 15.6389 5.8688 16.5085 5.50129C17.4092 5.12065 18.3641 4.92704 19.3469 4.92704C20.3297 4.92704 21.2845 5.12065 22.1853 5.50129C23.0532 5.8688 23.8325 6.39382 24.5019 7.06158C25.1713 7.73098 25.6963 8.51031 26.0622 9.37823ZM0.628255 4.95658H6.03268C7.0778 4.95658 7.95393 5.17971 8.6381 5.62106C9.52079 6.19038 10.0392 7.0944 10.1803 8.30851C10.4658 10.7581 9.50274 11.5489 9.01546 11.7884V11.8786C10.0261 12.1297 10.8104 12.7974 11.2419 13.7835C11.7817 15.0189 11.6701 16.5661 10.9679 17.6325C10.4412 18.4316 9.6504 18.9828 8.61677 19.2716C7.71767 19.5226 6.80381 19.5226 6.3641 19.5226H0.628255V4.95658ZM5.33375 16.6087C7.72424 16.6087 7.72424 15.4193 7.72424 15.0288C7.72424 14.4939 7.51915 14.1067 7.09913 13.8458C6.78248 13.6506 6.33129 13.5325 5.89159 13.5325H4.32637V16.6087H5.33375ZM4.50356 10.6809H4.56919C4.93834 10.6826 5.9162 10.6875 6.4084 10.1986C6.61841 9.99021 6.72013 9.71294 6.72013 9.35034C6.72013 8.36429 6.14917 7.88521 4.97444 7.88521H4.32801V10.6809H4.50356ZM34.9843 8.50047H38.0655V4.94509H35.0434C34.0589 4.94509 33.1024 5.13869 32.2033 5.51933C31.3338 5.88685 30.5544 6.41351 29.885 7.08291C29.2156 7.75231 28.689 8.53328 28.3214 9.4012C27.9408 10.3003 27.7472 11.2568 27.7472 12.2412C27.7472 13.2256 27.9408 14.1822 28.3214 15.0813C28.689 15.9508 29.2156 16.7302 29.885 17.4012C30.5544 18.0706 31.3354 18.5973 32.2033 18.9648C33.1024 19.3454 34.0589 19.539 35.0434 19.539H38.0655V16.0312H34.9843C33.9785 16.0312 33.0335 15.6391 32.3214 14.9287C31.611 14.2183 31.2189 13.2716 31.2189 12.2658C31.2189 10.1904 32.9072 8.50047 34.9843 8.50047ZM3.35672 3.73262H2.91866L4.11472 0.618596H4.55935L5.83416 3.73262H5.36492L5.00233 2.78923H3.69963L3.35672 3.73262ZM3.81775 2.45453H4.87272L4.5495 1.59152C4.45106 1.32901 4.37723 1.11408 4.32801 0.945093C4.28863 1.14526 4.23285 1.34378 4.16066 1.53902L3.81775 2.45453ZM35.9605 1.28636L37.5963 3.73426H38.0196V0.618596H37.6242V3.06322L35.9884 0.618596H35.5651V3.73262H35.9605V1.28636ZM1.51751 3.73262H0.32965V0.618596H1.49782C1.73572 0.618596 1.92604 0.649769 2.07042 0.713756C2.2148 0.777743 2.32637 0.874543 2.4084 1.00416C2.49044 1.13541 2.52981 1.27159 2.52981 1.41597C2.52981 1.54887 2.49372 1.6752 2.42153 1.79169C2.34934 1.90982 2.24105 2.00334 2.09503 2.07717C2.28371 2.13295 2.42809 2.22647 2.52981 2.35937C2.63154 2.49226 2.6824 2.64977 2.6824 2.83024C2.6824 2.97627 2.65122 3.1108 2.59052 3.23714C2.52817 3.36183 2.4527 3.45863 2.36246 3.52754C2.27223 3.59481 2.15738 3.64731 2.0212 3.68176C1.88502 3.71622 1.71603 3.73262 1.51751 3.73262ZM0.741462 1.92787H1.41415C1.59626 1.92787 1.72752 1.91638 1.80791 1.89177C1.91291 1.8606 1.99167 1.8081 2.04417 1.73755C2.09667 1.66536 2.12292 1.57512 2.12292 1.46519C2.12292 1.36183 2.09831 1.26995 2.04909 1.19284C1.99987 1.11408 1.92932 1.05994 1.8358 1.03205C1.74228 1.00416 1.58642 0.987751 1.36164 0.987751H0.741462V1.92787ZM0.741462 3.36511H1.51751C1.6504 3.36511 1.74392 3.36019 1.79807 3.35034C1.89323 3.33394 1.97198 3.3044 2.03597 3.26503C2.09995 3.22565 2.15246 3.16823 2.19347 3.09111C2.23449 3.014 2.25582 2.92869 2.25582 2.8286C2.25582 2.71212 2.22629 2.61203 2.16722 2.52672C2.10816 2.4414 2.02448 2.3807 1.91948 2.34624C1.81447 2.31179 1.66189 2.29374 1.46337 2.29374H0.741462V3.36511ZM9.72588 2.65469L10.2361 2.15756L11.3452 3.73426H11.8883L10.5249 1.88193L11.8309 0.620237H11.273L9.72752 2.16412V0.618596H9.31406V3.73262H9.72588V2.65469ZM26.2443 3.36675H24.3329V2.30686H26.0557V1.94099H24.3329V0.98611H26.1721V0.618596H23.9211V3.73262H26.2443V3.36675ZM21.2829 3.58168C21.4929 3.71786 21.7669 3.78677 22.1016 3.78677C22.4265 3.78677 22.7004 3.69817 22.9252 3.52097C23.15 3.34378 23.3059 3.08455 23.3912 2.74657L22.9794 2.64321C22.9219 2.90572 22.8137 3.1026 22.6545 3.23549C22.4937 3.36839 22.2985 3.43566 22.0688 3.43566C21.8785 3.43566 21.7029 3.38644 21.5405 3.28964C21.3781 3.1912 21.2583 3.04353 21.1812 2.84665C21.1041 2.64977 21.0647 2.41843 21.0647 2.15264C21.0647 1.94755 21.0975 1.74739 21.1631 1.55543C21.2287 1.36183 21.3403 1.2076 21.5027 1.09275C21.6635 0.977907 21.8637 0.920483 22.1032 0.920483C22.3116 0.920483 22.4839 0.972985 22.6217 1.07471C22.7595 1.17807 22.8645 1.34378 22.9367 1.5702L23.342 1.47504C23.2583 1.18791 23.1106 0.964781 22.8973 0.805634C22.6857 0.646488 22.4232 0.567734 22.1114 0.567734C21.8358 0.567734 21.5848 0.630081 21.3567 0.756414C21.1287 0.882747 20.9515 1.06486 20.8284 1.30604C20.7037 1.54723 20.643 1.83107 20.643 2.15428C20.643 2.45125 20.6972 2.73016 20.8071 2.98939C20.9121 3.24698 21.0712 3.4455 21.2829 3.58168ZM13.5208 2.99431C13.401 2.74985 13.342 2.49062 13.342 2.21663C13.342 1.69981 13.4814 1.29456 13.7587 1.00252C14.036 0.710474 14.3953 0.564453 14.8333 0.564453C15.1205 0.564453 15.3797 0.633362 15.611 0.77118C15.8424 0.908998 16.0179 1.10096 16.1393 1.34542C16.2607 1.59152 16.3214 1.87044 16.3214 2.18217C16.3214 2.49718 16.2575 2.78102 16.1295 3.03041C16.0015 3.27979 15.821 3.46847 15.5881 3.59645C15.3551 3.72442 15.1024 3.78841 14.8317 3.78841C14.538 3.78841 14.2771 3.71786 14.0458 3.57676C13.8145 3.43238 13.6406 3.23878 13.5208 2.99431ZM13.7669 2.22319C13.7669 2.59891 13.8686 2.89423 14.0704 3.1108C14.2722 3.32737 14.5249 3.43402 14.8301 3.43402C15.1402 3.43402 15.3961 3.32409 15.5963 3.10752C15.7964 2.88931 15.8965 2.57922 15.8965 2.17889C15.8965 1.92623 15.8539 1.70473 15.7685 1.51441C15.6832 1.32573 15.5569 1.17807 15.3928 1.07471C15.2255 0.971344 15.0401 0.918842 14.835 0.918842C14.5429 0.918842 14.2919 1.01892 14.0819 1.21909C13.8719 1.41925 13.7669 1.75395 13.7669 2.22319ZM17.2977 2.31835H18.7595V1.95084H17.2977V0.98611H18.9859V0.618596H16.8842V3.73262H17.296V2.31835H17.2977ZM6.56755 1.28636L8.20332 3.73426H8.62497V0.618596H8.23121V3.06322L6.59544 0.618596H6.17214V3.73262H6.56755V1.28636ZM31.6701 3.36511H30.1361V0.618596H29.7242V3.73262H31.6701V3.36511ZM32.2263 2.99431C32.1082 2.74985 32.0475 2.49062 32.0475 2.21663C32.0475 1.69981 32.1869 1.29456 32.4642 1.00252C32.7415 0.710474 33.1008 0.564453 33.5388 0.564453C33.826 0.564453 34.0852 0.633362 34.3165 0.77118C34.5479 0.908998 34.7234 1.10096 34.8448 1.34542C34.9662 1.59152 35.0269 1.87044 35.0269 2.18217C35.0269 2.49718 34.963 2.78102 34.8366 3.03041C34.7087 3.27979 34.5282 3.46847 34.2952 3.59645C34.0622 3.72442 33.8096 3.78841 33.5388 3.78841C33.2452 3.78841 32.9843 3.71786 32.7529 3.57676C32.52 3.43238 32.3461 3.23878 32.2263 2.99431ZM32.4724 2.22319C32.4724 2.59891 32.5741 2.89423 32.7743 3.1108C32.9761 3.32737 33.2287 3.43402 33.5339 3.43402C33.844 3.43402 34.1 3.32409 34.3001 3.10752C34.5003 2.88931 34.6004 2.57922 34.6004 2.17889C34.6004 1.92623 34.5577 1.70473 34.4724 1.51441C34.3871 1.32409 34.2607 1.17807 34.0967 1.07471C33.931 0.971344 33.7472 0.918842 33.5405 0.918842C33.2484 0.918842 32.9974 1.01892 32.7874 1.21909C32.5774 1.41925 32.4724 1.75395 32.4724 2.22319ZM27.7029 3.73262H28.1147V2.41351L29.3567 0.618596H28.876L28.2722 1.5341C28.1393 1.73755 28.0261 1.9213 27.9326 2.08373C27.8342 1.90818 27.7292 1.73262 27.616 1.55707L27.0023 0.618596H26.5003L27.7013 2.41351V3.73262H27.7029ZM33.2599 20.8483H33.6077V20.4447H33.2599V20.8483ZM25.255 21.4668C25.4289 21.6555 25.5159 21.9197 25.5159 22.2609C25.5159 22.2823 25.5159 22.3134 25.5142 22.3544H23.9835C23.9966 22.5809 24.0606 22.7548 24.1754 22.8762C24.2903 22.9976 24.433 23.0567 24.6036 23.0567C24.7316 23.0567 24.8399 23.0222 24.9301 22.9549C25.0204 22.8877 25.0909 22.7794 25.1451 22.6317L25.5044 22.676C25.447 22.8877 25.3436 23.0517 25.1894 23.1682C25.0351 23.2847 24.8399 23.3438 24.602 23.3438C24.3018 23.3438 24.0639 23.2503 23.8883 23.0649C23.7128 22.8795 23.6242 22.617 23.6242 22.2806C23.6242 21.9328 23.7128 21.6621 23.8899 21.4701C24.0671 21.2782 24.2985 21.1814 24.5823 21.1814C24.858 21.1846 25.0811 21.2782 25.255 21.4668ZM25.1484 22.0673C25.1336 21.8934 25.0893 21.7622 25.0171 21.6768C24.9055 21.5423 24.7628 21.475 24.5856 21.475C24.4265 21.475 24.2919 21.5292 24.182 21.6358C24.0737 21.7441 24.013 21.8868 24.0015 22.0673H25.1484ZM28.9777 22.6859L27.4896 20.4447H27.1057V23.2978H27.465V21.055L28.9531 23.2978H29.337V20.4447H28.9777V22.6859ZM31.616 23.0517C31.6307 23.1387 31.6602 23.2207 31.7045 23.2995H31.342C31.3075 23.2273 31.2829 23.142 31.273 23.0435C31.1451 23.1535 31.0204 23.2322 30.9006 23.2765C30.7808 23.3208 30.6529 23.3454 30.5167 23.3454C30.2919 23.3454 30.118 23.2896 29.9966 23.1797C29.8752 23.0698 29.8145 22.927 29.8145 22.7548C29.8145 22.653 29.8374 22.5612 29.8834 22.4775C29.9293 22.3938 29.9884 22.3266 30.0622 22.2757C30.1361 22.2248 30.2197 22.1871 30.3116 22.1608C30.3805 22.1428 30.4822 22.1247 30.6201 22.1083C30.9006 22.0739 31.1073 22.0345 31.2402 21.9869C31.2419 21.9393 31.2419 21.9082 31.2419 21.8951C31.2419 21.7523 31.2091 21.6522 31.1434 21.5932C31.0548 21.5144 30.9219 21.475 30.748 21.475C30.584 21.475 30.4642 21.5046 30.3854 21.562C30.3067 21.6194 30.2493 21.7228 30.2132 21.8688L29.8735 21.8229C29.9047 21.6768 29.9556 21.5571 30.0261 21.4668C30.0967 21.3766 30.2 21.3077 30.3329 21.2585C30.4675 21.2092 30.6217 21.1863 30.7989 21.1863C30.9744 21.1863 31.1155 21.2076 31.2255 21.2486C31.3354 21.2896 31.4158 21.3421 31.4666 21.4061C31.5175 21.4685 31.5536 21.5489 31.5749 21.644C31.5864 21.7031 31.593 21.8114 31.593 21.9672V22.4348C31.5946 22.7581 31.6012 22.9648 31.616 23.0517ZM31.2435 22.2609C31.1172 22.3134 30.9269 22.3577 30.6758 22.3938C30.5331 22.4151 30.4314 22.4381 30.3723 22.4644C30.3132 22.4906 30.2673 22.5284 30.2345 22.5776C30.2017 22.6284 30.1869 22.6826 30.1869 22.7433C30.1869 22.8368 30.2214 22.9139 30.2919 22.9763C30.3625 23.0386 30.4642 23.0698 30.6004 23.0698C30.7349 23.0698 30.853 23.0403 30.958 22.9812C31.063 22.9221 31.1385 22.8417 31.1877 22.7384C31.2255 22.6596 31.2435 22.5431 31.2435 22.3873V22.2609ZM21.0237 22.9992C20.9728 22.9992 20.9318 22.991 20.9055 22.9746C20.8776 22.9582 20.858 22.9352 20.8448 22.9057C20.8317 22.8762 20.8268 22.8122 20.8268 22.7121V21.5029H21.1762V21.2306H20.8268V20.5087L20.4806 20.7187V21.2306H20.2263V21.5029H20.4806V22.6924C20.4806 22.9024 20.4954 23.0403 20.5233 23.1059C20.5511 23.1715 20.6004 23.224 20.6693 23.265C20.7382 23.306 20.8366 23.3257 20.963 23.3257C21.0401 23.3257 21.127 23.3159 21.2255 23.2946L21.1746 22.9845C21.1139 22.9943 21.063 22.9992 21.0237 22.9992ZM22.8858 21.2749C22.7743 21.2142 22.6414 21.1846 22.4904 21.1846C22.2427 21.1846 22.0376 21.2798 21.8768 21.4685V20.4447H21.529V23.2978H21.8768V22.1674C21.8768 22.005 21.8965 21.8786 21.9342 21.7851C21.972 21.6932 22.0376 21.6194 22.1278 21.5669C22.2181 21.5128 22.3149 21.4865 22.4182 21.4865C22.5561 21.4865 22.6627 21.5259 22.7382 21.6063C22.8137 21.6867 22.8514 21.813 22.8514 21.9886V23.2978H23.1992V21.9886C23.1992 21.7868 23.1746 21.6309 23.127 21.5259C23.0794 21.4193 22.9991 21.3356 22.8858 21.2749ZM35.6734 21.4635C35.8522 21.6489 35.9425 21.9065 35.9425 22.2363C35.9425 22.5021 35.9031 22.7121 35.8243 22.8647C35.7456 23.0173 35.6291 23.1354 35.4781 23.2207C35.3272 23.3044 35.1615 23.3471 34.9826 23.3471C34.6955 23.3471 34.4626 23.2535 34.287 23.0681C34.1098 22.8827 34.0212 22.6153 34.0212 22.2658C34.0212 21.8836 34.1262 21.5997 34.3379 21.416C34.515 21.2634 34.73 21.1863 34.9826 21.1863C35.2632 21.1846 35.4945 21.2782 35.6734 21.4635ZM35.5831 22.2544C35.5831 21.9984 35.5257 21.8048 35.4109 21.6736C35.296 21.5423 35.1516 21.4767 34.981 21.4767C34.8071 21.4767 34.6627 21.5423 34.5479 21.6736C34.433 21.8048 34.3756 22.0033 34.3756 22.2675C34.3756 22.5316 34.433 22.7302 34.5479 22.8614C34.6627 22.9927 34.8071 23.0583 34.981 23.0583C35.1533 23.0583 35.2977 22.9927 35.4125 22.8598C35.5274 22.7269 35.5831 22.5251 35.5831 22.2544ZM32.7529 22.9992C32.7021 22.9992 32.6611 22.991 32.6348 22.9746C32.6069 22.9582 32.5872 22.9352 32.5741 22.9057C32.561 22.8762 32.5561 22.8122 32.5561 22.7121V21.5029H32.9055V21.2306H32.5561V20.5087L32.2099 20.7187V21.2306H31.9556V21.5029H32.2099V22.6924C32.2099 22.9024 32.2246 23.0403 32.2525 23.1059C32.2804 23.1715 32.3297 23.224 32.3986 23.265C32.4675 23.306 32.5659 23.3257 32.6922 23.3257C32.7694 23.3257 32.8563 23.3159 32.9548 23.2946L32.9039 22.9845C32.8432 22.9943 32.7907 22.9992 32.7529 22.9992ZM37.9014 21.4275C37.8506 21.3553 37.7718 21.2962 37.6685 21.2519C37.5651 21.2076 37.4519 21.1846 37.3272 21.1846C37.0417 21.1846 36.8251 21.2978 36.6742 21.5259V21.2322H36.3608V23.2995H36.7087V22.1707C36.7087 21.9065 36.7628 21.7261 36.8694 21.6309C36.9777 21.5357 37.1041 21.4882 37.2534 21.4882C37.3469 21.4882 37.4273 21.5095 37.4962 21.5521C37.5651 21.5948 37.6127 21.6506 37.6406 21.7211C37.6685 21.7917 37.6816 21.8983 37.6816 22.0411V23.2995H38.0294V22.0279C38.0294 21.8655 38.0228 21.7523 38.0097 21.6867C37.9884 21.5866 37.9523 21.5013 37.9014 21.4275ZM33.2599 23.2995H33.6077V21.2322H33.2599V23.2995ZM18.6184 21.4635C18.7972 21.6489 18.8875 21.9065 18.8875 22.2363C18.8875 22.5021 18.8481 22.7121 18.7694 22.8647C18.6906 23.0173 18.5758 23.1354 18.4232 23.2207C18.2706 23.306 18.1065 23.3471 17.9277 23.3471C17.6406 23.3471 17.4076 23.2535 17.232 23.0681C17.0548 22.8827 16.9662 22.6153 16.9662 22.2658C16.9662 21.8836 17.0712 21.5997 17.2829 21.416C17.4601 21.2634 17.675 21.1863 17.9277 21.1863C18.2082 21.1846 18.4379 21.2782 18.6184 21.4635ZM18.5282 22.2544C18.5282 21.9984 18.4708 21.8048 18.3559 21.6736C18.2411 21.5423 18.0967 21.4767 17.926 21.4767C17.7521 21.4767 17.6077 21.5423 17.4929 21.6736C17.3781 21.8048 17.3206 22.0033 17.3206 22.2675C17.3206 22.5316 17.3781 22.7302 17.4929 22.8614C17.6077 22.9927 17.7521 23.0583 17.926 23.0583C18.0983 23.0583 18.2427 22.9927 18.3575 22.8598C18.4724 22.7269 18.5282 22.5251 18.5282 22.2544ZM10.853 21.4668C11.0269 21.6555 11.1139 21.9197 11.1139 22.2609C11.1139 22.2823 11.1139 22.3134 11.1123 22.3544H9.5815C9.59462 22.5809 9.65861 22.7548 9.77346 22.8762C9.8883 22.9976 10.031 23.0567 10.2017 23.0567C10.3296 23.0567 10.4379 23.0222 10.5282 22.9549C10.6184 22.8877 10.6906 22.7794 10.7431 22.6317L11.1024 22.676C11.045 22.8877 10.9416 23.0517 10.7874 23.1682C10.6332 23.2847 10.4379 23.3438 10.2 23.3438C9.89979 23.3438 9.66189 23.2503 9.48634 23.0649C9.31078 22.8795 9.22219 22.617 9.22219 22.2806C9.22219 21.9328 9.31078 21.6621 9.48798 21.4701C9.66517 21.2782 9.89651 21.1814 10.1803 21.1814C10.456 21.1846 10.6791 21.2782 10.853 21.4668ZM10.7464 22.0673C10.7316 21.8934 10.6873 21.7622 10.6151 21.6768C10.5036 21.5423 10.3608 21.475 10.1836 21.475C10.0245 21.475 9.88995 21.5292 9.78166 21.6358C9.67337 21.7441 9.61267 21.8868 9.60118 22.0673H10.7464ZM6.67584 21.4275C6.62497 21.3553 6.54622 21.2962 6.44286 21.2519C6.33949 21.2076 6.22629 21.1846 6.10159 21.1846C5.81775 21.1846 5.59954 21.2978 5.4486 21.5259V21.2322H5.13523V23.2995H5.48305V22.1707C5.48305 21.9065 5.5372 21.7261 5.64384 21.6309C5.75213 21.5357 5.87846 21.4882 6.02776 21.4882C6.11964 21.4882 6.20168 21.5095 6.27059 21.5521C6.33949 21.5948 6.38707 21.6506 6.41497 21.7211C6.44122 21.7917 6.45598 21.8983 6.45598 22.0411V23.2995H6.80381V22.0279C6.80381 21.8655 6.79725 21.7523 6.78412 21.6867C6.76279 21.5866 6.7267 21.5013 6.67584 21.4275ZM8.97116 21.2322H8.52161L7.69798 22.0739V20.4463H7.35016V23.2995H7.69798V22.4808L7.94409 22.2429L8.62169 23.2995H9.04991L8.18691 21.9984L8.97116 21.2322ZM4.60693 23.0517C4.62169 23.1387 4.65122 23.2207 4.69552 23.2995H4.33293C4.29684 23.2273 4.27387 23.142 4.26402 23.0435C4.13441 23.1535 4.01136 23.2322 3.89159 23.2765C3.77182 23.3224 3.64548 23.3454 3.50766 23.3454C3.28289 23.3454 3.10898 23.2896 2.98757 23.1797C2.86615 23.0698 2.80545 22.927 2.80545 22.7548C2.80545 22.653 2.82842 22.5612 2.87436 22.4775C2.9203 22.3938 2.97936 22.3266 3.05483 22.2757C3.12867 22.2248 3.21234 22.1871 3.30422 22.1608C3.37313 22.1428 3.47485 22.1247 3.61267 22.1083C3.89323 22.0739 4.09995 22.0345 4.23285 21.9869C4.23449 21.9393 4.23449 21.9082 4.23449 21.8951C4.23449 21.7523 4.20168 21.6522 4.13605 21.5932C4.04745 21.5144 3.91456 21.475 3.74064 21.475C3.57657 21.475 3.4568 21.5046 3.37805 21.562C3.2993 21.6194 3.24187 21.7228 3.20578 21.8688L2.86616 21.8229C2.89733 21.6768 2.94819 21.5571 3.01874 21.4668C3.08929 21.3766 3.19265 21.3077 3.32555 21.2585C3.46008 21.2092 3.61431 21.1863 3.7915 21.1863C3.96706 21.1863 4.10816 21.2076 4.21808 21.2486C4.32801 21.2896 4.4084 21.3421 4.45926 21.4061C4.51013 21.4685 4.54622 21.5489 4.56755 21.644C4.57903 21.7031 4.5856 21.8114 4.5856 21.9672V22.4348C4.58396 22.7581 4.59216 22.9648 4.60693 23.0517ZM4.23285 22.2609C4.10652 22.3134 3.91784 22.3577 3.66517 22.3938C3.52243 22.4151 3.42071 22.4381 3.36164 22.4644C3.30258 22.4906 3.25664 22.5284 3.22383 22.5776C3.19101 22.6284 3.17625 22.6826 3.17625 22.7433C3.17625 22.8368 3.2107 22.9139 3.28125 22.9763C3.3518 23.0386 3.45352 23.0698 3.5897 23.0698C3.72424 23.0698 3.84237 23.0403 3.94737 22.9812C4.05237 22.9221 4.12785 22.8417 4.17707 22.7384C4.2148 22.6596 4.23285 22.5431 4.23285 22.3873V22.2609ZM16.5889 22.9992C16.538 22.9992 16.4986 22.991 16.4707 22.9746C16.4429 22.9582 16.4232 22.9352 16.41 22.9057C16.3969 22.8762 16.392 22.8122 16.392 22.7121V21.5029H16.7415V21.2306H16.392V20.5087L16.0458 20.7187V21.2306H15.7915V21.5029H16.0458V22.6924C16.0458 22.9024 16.0606 23.0403 16.0885 23.1059C16.1164 23.1715 16.1656 23.224 16.2361 23.265C16.305 23.306 16.4035 23.3257 16.5298 23.3257C16.6069 23.3257 16.6955 23.3159 16.7923 23.2946L16.7415 22.9845C16.6775 22.9943 16.6283 22.9992 16.5889 22.9992ZM12.0819 21.2552C12.0146 21.3028 11.9408 21.3979 11.8604 21.5456V21.2322H11.547V23.2995H11.8949V22.2166C11.8949 22.069 11.9146 21.9328 11.9523 21.8081C11.9785 21.7261 12.0212 21.6621 12.0819 21.6161C12.1426 21.5702 12.2099 21.5472 12.287 21.5472C12.3723 21.5472 12.4576 21.5735 12.5413 21.6227L12.6611 21.2978C12.5397 21.2224 12.4215 21.1846 12.3034 21.1846C12.223 21.1846 12.1492 21.2076 12.0819 21.2552ZM2.30176 22.0394C2.39364 22.1608 2.43958 22.3052 2.43958 22.4709C2.43958 22.6055 2.41168 22.7285 2.3559 22.8434C2.30012 22.9582 2.23121 23.0468 2.14753 23.1092C2.0655 23.1715 1.96214 23.2191 1.83744 23.2503C1.71275 23.2814 1.56017 23.2978 1.38133 23.2978H0.301758V20.4447H1.36492C1.5815 20.4447 1.75541 20.4742 1.88502 20.5316C2.01628 20.5891 2.118 20.6777 2.19183 20.7974C2.26566 20.9172 2.3034 21.0435 2.3034 21.1748C2.3034 21.2962 2.27058 21.411 2.20496 21.5193C2.13933 21.6276 2.03925 21.7146 1.90799 21.7802C2.07862 21.8311 2.20988 21.918 2.30176 22.0394ZM0.675835 21.644H1.28781C1.45352 21.644 1.57329 21.6325 1.64548 21.6112C1.74064 21.5833 1.81283 21.5357 1.86041 21.4685C1.90799 21.4012 1.9326 21.3192 1.9326 21.2191C1.9326 21.1239 1.90963 21.0403 1.86533 20.9697C1.82104 20.8992 1.75541 20.8483 1.67173 20.822C1.58806 20.7958 1.44368 20.7827 1.24023 20.7827H0.675835V21.644ZM2.05073 22.4709C2.05073 22.3643 2.02448 22.2724 1.97034 22.1937C1.9162 22.1149 1.84072 22.0591 1.74556 22.0279C1.6504 21.9968 1.51095 21.9804 1.33047 21.9804H0.675835V22.9615H1.38133C1.50274 22.9615 1.58806 22.9566 1.63564 22.9484C1.72259 22.9336 1.79479 22.9074 1.85221 22.8696C1.90963 22.8335 1.95721 22.781 1.99495 22.7105C2.03268 22.6432 2.05073 22.5628 2.05073 22.4709ZM14.1344 22.2084C14.0376 22.1658 13.8653 22.1116 13.6192 22.046C13.4486 22.0001 13.3469 21.9689 13.3124 21.9558C13.2517 21.9311 13.2074 21.9 13.1795 21.8622C13.1516 21.8261 13.1369 21.7851 13.1369 21.7392C13.1369 21.6686 13.1713 21.6063 13.2386 21.5521C13.3075 21.4996 13.4207 21.4718 13.5799 21.4718C13.7144 21.4718 13.8194 21.5013 13.8932 21.562C13.9671 21.6211 14.0114 21.7047 14.0278 21.8114L14.3674 21.7654C14.3461 21.6309 14.305 21.5243 14.2476 21.4455C14.1902 21.3651 14.1 21.3028 13.9785 21.2552C13.8571 21.2076 13.716 21.1846 13.5552 21.1846C13.4486 21.1846 13.3485 21.1994 13.255 21.2273C13.1615 21.2552 13.0876 21.2896 13.0335 21.329C12.9613 21.3815 12.9039 21.4455 12.8629 21.5243C12.8202 21.603 12.8005 21.6883 12.8005 21.7802C12.8005 21.8819 12.8268 21.9738 12.8776 22.0575C12.9285 22.1412 13.0023 22.2068 13.1024 22.2544C13.2009 22.3019 13.3781 22.3577 13.6324 22.4234C13.821 22.4709 13.9408 22.5103 13.9884 22.5415C14.0573 22.5874 14.0901 22.6498 14.0901 22.7285C14.0901 22.8171 14.0507 22.8942 13.9736 22.9599C13.8965 23.0255 13.7784 23.0583 13.6176 23.0583C13.4584 23.0583 13.3354 23.0222 13.2484 22.9467C13.1615 22.8713 13.1057 22.7663 13.0876 22.6268L12.7431 22.6809C12.7808 22.9008 12.8711 23.0665 13.0105 23.1781C13.15 23.2896 13.3534 23.3454 13.6209 23.3454C13.7817 23.3454 13.926 23.3175 14.054 23.2601C14.182 23.2027 14.2788 23.1239 14.3461 23.0206C14.4133 22.9172 14.4478 22.8073 14.4478 22.6908C14.4478 22.571 14.4199 22.4709 14.3641 22.3905C14.3067 22.3118 14.2312 22.2511 14.1344 22.2084Z" fill="#030200"/>
<path d="M13.5502 11.5012C13.5338 11.4848 13.524 11.4553 13.5305 11.4126L13.5355 11.3224L13.7291 11.3372L13.7225 11.4258C13.7192 11.4684 13.711 11.5012 13.6913 11.5094C13.6749 11.5242 13.6503 11.5291 13.6191 11.5275C13.5896 11.5258 13.5666 11.5144 13.5502 11.5012ZM15.857 8.05086C15.9735 8.04758 16.0654 7.95242 16.0638 7.83429C16.0638 7.71616 15.9653 7.621 15.8472 7.62428C15.7323 7.62592 15.6372 7.72108 15.6388 7.84085C15.6421 7.95734 15.7389 8.05086 15.857 8.05086ZM18.1212 17.4143C18.1081 17.3946 18.0917 17.3847 18.0703 17.3782C18.0474 17.3733 18.0244 17.3782 17.9981 17.3929C17.9719 17.4077 17.9489 17.4356 17.9259 17.4783C17.903 17.5144 17.8849 17.5669 17.8702 17.6292C17.8472 17.7244 17.8439 17.8015 17.8587 17.8605C17.8702 17.9065 17.8931 17.9344 17.9292 17.9442C17.9538 17.9475 17.9784 17.9442 18.0014 17.9311C18.026 17.9163 18.0506 17.8917 18.072 17.8474C18.0949 17.808 18.113 17.7555 18.1294 17.6948C18.1392 17.6489 18.1474 17.6079 18.1491 17.5685C18.1507 17.5324 18.1507 17.5029 18.1458 17.4799C18.1425 17.4553 18.1327 17.434 18.1212 17.4143ZM13.9932 11.5291C14.0129 11.5308 14.031 11.5275 14.0457 11.5209C14.0638 11.5127 14.0736 11.5045 14.0802 11.493C14.0851 11.4832 14.09 11.4602 14.09 11.4307L14.0949 11.3601L13.9128 11.3486L13.9063 11.4307C13.9063 11.4651 13.9112 11.4914 13.9259 11.5045C13.944 11.5209 13.9653 11.5275 13.9932 11.5291ZM22.1589 7.70632C22.259 7.77359 22.3 7.70632 22.3886 7.5767L22.4838 7.64397C22.3886 7.78507 22.3574 7.83593 22.4559 7.89992C22.5363 7.9475 22.6396 7.895 22.7004 7.8064C22.7709 7.69647 22.7676 7.54225 22.679 7.46349C22.6068 7.39951 22.5018 7.34701 22.4182 7.35521C22.3263 7.36505 22.1803 7.41756 22.0851 7.44381L22.154 7.48646C22.0556 7.5324 22.0949 7.6653 22.1589 7.70632ZM25.7602 9.50615C26.1245 10.3659 26.3082 11.2781 26.3082 12.2166C26.3082 13.155 26.1245 14.0673 25.7602 14.927C25.4091 15.7555 24.9087 16.5004 24.2688 17.1386C23.629 17.7769 22.8857 18.2789 22.0572 18.63C21.1975 18.9943 20.2853 19.178 19.3468 19.178C18.4083 19.178 17.4961 18.9943 16.6364 18.63C15.8078 18.2789 15.0629 17.7785 14.4247 17.1386C13.7865 16.4988 13.2844 15.7555 12.9333 14.927C12.5691 14.0673 12.3853 13.155 12.3853 12.2166C12.3853 11.2781 12.5691 10.3659 12.9333 9.50615C13.2844 8.67761 13.7848 7.93273 14.4247 7.2945C15.0646 6.65628 15.8078 6.15422 16.6364 5.80312C17.4961 5.43888 18.4083 5.25513 19.3468 5.25513C20.2853 5.25513 21.1975 5.43888 22.0572 5.80312C22.8857 6.15422 23.6306 6.65464 24.2688 7.2945C24.9071 7.93437 25.4091 8.67761 25.7602 9.50615ZM25.5748 10.8991C24.5888 11.05 24.3361 11.1222 24.3394 11.411C24.3427 11.6604 24.6954 11.6358 24.7955 11.6276L24.7971 11.8786L25.1351 11.872C25.1597 12.1329 25.6011 12.082 25.6273 11.7654C25.6585 11.4044 25.3205 11.4684 25.3205 11.4684C25.3189 11.4487 25.2844 11.3093 25.378 11.3043C25.4682 11.2994 25.4206 11.4011 25.4206 11.4011L25.588 11.4422C25.6552 11.329 25.6257 11.1468 25.3435 11.1632C25.0629 11.178 25.1401 11.4783 25.1401 11.4783L24.9629 11.4914L24.9596 11.3273L24.7857 11.3372L24.7889 11.4733C24.6626 11.4799 24.5527 11.4619 24.5379 11.3864C24.5248 11.3011 24.6183 11.2502 24.7496 11.2125C24.8825 11.1731 25.5978 11.0484 25.5978 11.0484L25.5748 10.8991ZM24.51 12.402C24.428 12.4003 24.3624 12.4479 24.3624 12.5119C24.3607 12.5726 24.4231 12.6251 24.5035 12.6251C24.5839 12.63 24.6495 12.5808 24.6495 12.5217C24.6511 12.4561 24.5888 12.4053 24.51 12.402ZM23.3172 8.25431C23.058 8.45283 23.1089 8.76948 23.3386 9.04512C23.583 9.34701 23.9817 9.31419 24.2606 9.08285C24.4001 8.96472 24.4985 8.79573 24.5215 8.62182C24.5445 8.45283 24.4953 8.2822 24.3755 8.13454C24.2163 7.94094 23.9899 7.84249 23.775 7.9032L23.8603 8.00656C24.0309 7.99508 24.1688 8.06399 24.282 8.20837C24.3722 8.32814 24.4214 8.46924 24.3952 8.60705C24.3739 8.72847 24.2935 8.84988 24.1901 8.93191C23.9899 9.0927 23.7225 9.09598 23.5355 8.86957C23.4649 8.79081 23.4058 8.70057 23.3845 8.60377C23.3648 8.51682 23.3747 8.42822 23.4485 8.36095C23.5305 8.2822 23.6044 8.32322 23.6716 8.40525L23.9095 8.69729C24.0621 8.57424 24.0687 8.39048 23.9571 8.23134C23.8702 8.11649 23.7241 7.98359 23.6142 8.06071C23.5683 8.0968 23.5699 8.13946 23.6027 8.21165C23.4977 8.16571 23.4206 8.17391 23.3172 8.25431ZM22.0293 7.49631C21.9637 7.52092 21.8029 7.71452 21.9965 7.8671C22.0949 7.94586 22.2311 7.94586 22.241 7.87695C22.2262 7.96555 22.2639 8.05907 22.3394 8.10665C22.4444 8.17063 22.5117 8.15587 22.5888 8.13782C22.597 8.15094 22.6085 8.15915 22.62 8.17063L22.6232 8.16571L22.6003 8.1329C22.597 8.13454 22.5888 8.13618 22.5888 8.13618C22.5888 8.13618 22.5871 8.13454 22.5855 8.1329C22.6807 8.10993 22.7857 8.01641 22.8414 7.90648C22.894 7.80804 22.8972 7.74077 22.8841 7.63249C22.8693 7.5242 22.7857 7.44545 22.7036 7.3831C22.8447 7.43888 23.0367 7.54717 23.0744 7.70468C23.1138 7.86218 23.0629 8.00164 22.9645 8.11485C22.8775 8.21493 22.7168 8.23134 22.6232 8.17227L22.6216 8.16899L22.6068 8.18048C22.5035 8.19032 22.4132 8.26251 22.3837 8.32322C22.3082 8.45447 22.3361 8.59885 22.4411 8.69729C22.5937 8.84003 22.807 8.80558 22.9284 8.62838L22.8365 8.54307C22.7709 8.62838 22.6413 8.64971 22.5707 8.5808C22.4953 8.51025 22.4953 8.38556 22.5576 8.31501L22.7233 8.32158C22.7381 8.32486 22.7529 8.3265 22.766 8.32814C22.9858 8.33962 23.1056 8.22313 23.2287 8.03117C23.378 7.79491 23.3172 7.516 23.0941 7.34372C22.9481 7.23052 22.825 7.20591 22.7053 7.20919C22.7053 7.10911 22.6429 7.03035 22.5412 6.97293C22.4313 6.91222 22.3115 6.94176 22.2328 7.01395C22.154 7.08614 22.1556 7.22395 22.2606 7.26989C22.2246 7.27646 22.1573 7.30435 22.1097 7.31747C22.0687 7.32896 22.0195 7.33716 21.9801 7.35193L21.9555 7.44545L22.0293 7.49631ZM21.186 7.24692C21.2647 7.4356 21.483 7.51928 21.6667 7.44053C21.8521 7.36013 21.9358 7.14192 21.857 6.95816C21.7766 6.77112 21.5617 6.68417 21.378 6.76456C21.1942 6.84495 21.1072 7.06153 21.186 7.24692ZM20.6298 7.41756C20.9382 7.47662 20.9825 7.16817 20.9727 7.09926L20.8562 7.0845C20.8382 7.13043 20.8382 7.15505 20.8234 7.1895C20.7988 7.23872 20.6216 7.27317 20.6446 6.99754C20.6528 6.8991 20.725 6.77112 20.8136 6.69401C20.9038 6.62018 20.9711 6.57588 21.0761 6.51682L21.0974 6.41509L20.6364 6.29204L20.6118 6.42002L20.9104 6.49385C20.8086 6.54963 20.6839 6.62346 20.6085 6.69073C20.5264 6.7662 20.4559 6.83675 20.4247 7.01066C20.3837 7.23052 20.4739 7.38802 20.6298 7.41756ZM19.3435 7.1895C19.4616 7.19278 19.5469 7.13372 19.5732 7.0566C19.6454 7.17637 19.7422 7.20755 19.88 7.21247C20.0113 7.21739 20.1327 7.15012 20.2098 7.05496C20.3131 6.92699 20.364 6.77605 20.3689 6.58573C20.3739 6.40853 20.2918 6.17391 20.1819 6.05742C20.0474 5.90976 19.8981 5.86054 19.688 5.84906C19.4501 5.83757 19.2139 5.94094 19.1236 6.16571L19.2615 6.17391C19.3468 6.03938 19.5191 5.97047 19.6848 5.98031C19.8406 5.98523 19.985 6.0361 20.0802 6.16571C20.154 6.26907 20.2032 6.40525 20.1967 6.56276C20.1868 6.79081 20.0752 6.9959 19.8948 6.99098C19.7947 6.9877 19.7012 6.90566 19.7061 6.82363C19.711 6.76784 19.7373 6.72026 19.7684 6.69237C19.8406 6.63823 19.8816 6.64151 19.8849 6.54307C19.8882 6.379 19.7635 6.2297 19.5338 6.2297C19.2631 6.2297 19.1187 6.38884 19.0761 6.65628C19.0285 6.9155 19.1089 7.17801 19.3435 7.1895ZM17.606 6.62018L17.7061 6.60049C17.7061 6.49057 17.7422 6.46432 17.775 6.45611C17.8603 6.4397 17.9817 6.63659 18.026 6.8187C18.0752 7.0041 18.0556 7.21575 17.9735 7.24036C17.9489 7.24692 17.8767 7.1895 17.8505 7.11895L17.7307 7.13372C17.7602 7.38474 18.0096 7.36998 18.0588 7.35685C18.2705 7.30271 18.3115 6.98934 18.2508 6.758C18.1934 6.52994 18.0359 6.28384 17.8144 6.30517C17.6224 6.32157 17.5568 6.49057 17.606 6.62018ZM16.1589 7.21247C16.1819 7.32076 16.3 7.38802 16.3935 7.32076C16.3804 7.35521 16.364 7.40771 16.3492 7.45365C16.3394 7.49631 16.3246 7.5603 16.3197 7.60295L16.387 7.67514L16.4608 7.63905C16.4477 7.70632 16.533 7.9475 16.7611 7.8589C16.8792 7.81132 16.9481 7.69483 16.894 7.64889C16.9629 7.70632 17.0629 7.726 17.1384 7.68335C17.2483 7.62592 17.273 7.5603 17.2943 7.48646C17.309 7.48482 17.3255 7.48154 17.3402 7.47498L17.3566 7.56358C17.4075 7.55373 17.501 7.50123 17.5502 7.42904C17.6766 7.242 17.6388 7.08285 17.5355 6.87449C17.4091 6.6251 17.1417 6.53322 16.8808 6.63659C16.7069 6.70714 16.6249 6.79902 16.5658 6.9073C16.4821 6.8548 16.3821 6.86628 16.2853 6.92371C16.1753 6.98934 16.1392 7.10747 16.1589 7.21247ZM15.8406 8.2297C16.0359 8.25103 16.2114 8.10829 16.2344 7.91304C16.2574 7.71288 16.1146 7.53733 15.9177 7.51436C15.7225 7.49303 15.5437 7.63741 15.5223 7.83593C15.4994 8.03117 15.6421 8.21001 15.8406 8.2297ZM14.7086 9.24528C14.9891 9.49631 15.3993 9.47006 15.647 9.15997C16.0178 8.69729 15.7455 8.4758 15.6372 8.35603L15.5355 8.47252C15.6109 8.51026 15.8423 8.65628 15.5092 9.06317C15.332 9.2863 14.9875 9.23052 14.7906 9.02379C14.6282 8.85808 14.5642 8.5726 14.7348 8.37244C14.825 8.26415 14.9481 8.19688 15.0744 8.20016C15.1532 8.20016 15.3632 8.34126 15.2204 8.55127C15.0925 8.73831 14.9251 8.65628 14.9908 8.55948C15.0268 8.50861 15.0383 8.47908 15.0761 8.44299L15.1351 8.37244L15.04 8.29204L14.7036 8.69401L14.7972 8.77605L14.8579 8.70878C14.8529 8.81378 15.1745 9.02543 15.3976 8.71534C15.5601 8.48729 15.5026 8.27235 15.3533 8.15587C15.1236 7.97867 14.8415 8.02625 14.6347 8.27071C14.3771 8.58244 14.4247 8.9959 14.7086 9.24528ZM13.2943 11.5144C13.2992 11.5357 13.3107 11.5554 13.3255 11.5751C13.3402 11.598 13.3566 11.6144 13.3714 11.6243C13.3944 11.6407 13.4223 11.6555 13.4583 11.6686C13.4944 11.6784 13.5322 11.685 13.5765 11.6883C13.6372 11.6916 13.6897 11.685 13.734 11.6686C13.775 11.6522 13.8045 11.6292 13.8226 11.598C13.8751 11.6555 13.9456 11.6866 14.0326 11.6916C14.1261 11.6981 14.1983 11.6784 14.2459 11.6325C14.2869 11.598 14.3082 11.5406 14.3148 11.4651L14.3378 11.1534L13.3123 11.0927L13.2877 11.4094C13.2877 11.4569 13.2894 11.4914 13.2943 11.5144ZM13.2287 12.5053L14.2557 12.2674V12.041L13.2319 11.7966L13.2303 12.0131L13.3648 12.041V12.2592L13.2303 12.2838V12.5053H13.2287ZM13.3156 13.3142L14.3394 13.2207L14.3181 13.0074L13.7701 13.0599L14.2967 12.7793L14.2787 12.5726L13.2565 12.6678L13.2762 12.8794L13.8095 12.8302L13.2959 13.1042L13.3156 13.3142ZM13.5535 14.2215L14.113 13.8031L14.5494 13.9524L14.4871 13.6981L14.1113 13.5849L14.4411 13.5029L14.3886 13.2961L13.3911 13.5422L13.4419 13.749L13.7537 13.6719L13.8521 13.7096L13.4944 13.9655L13.5535 14.2215ZM14.1327 15.1846C14.2032 15.2092 14.2803 15.2141 14.364 15.201C14.4477 15.1862 14.5379 15.1567 14.6282 15.1124C14.7233 15.0615 14.8004 15.0074 14.8595 14.945C14.9202 14.8827 14.9547 14.8154 14.9694 14.7465C14.9809 14.6776 14.9727 14.612 14.9448 14.5529C14.9284 14.5201 14.9087 14.4938 14.8841 14.4709C14.8579 14.4479 14.8267 14.4299 14.7972 14.4151C14.7627 14.402 14.725 14.3921 14.6757 14.3905C14.6249 14.3856 14.5675 14.3938 14.5068 14.4069C14.446 14.4233 14.3788 14.4463 14.3082 14.4824C14.1622 14.5578 14.0588 14.6448 13.9998 14.7482C13.9391 14.8482 13.9341 14.9467 13.9801 15.0451C14.0129 15.1124 14.0654 15.16 14.1327 15.1846ZM14.8907 15.3733L15.0301 15.2847L15.1958 15.5406L15.4091 15.4011L15.1253 14.9631L14.2623 15.5275L14.3804 15.7112L14.6856 15.5111L14.8168 15.7178L15.0236 15.5816L14.8907 15.3733ZM15.4058 16.7285C15.4583 16.7137 15.5026 16.6989 15.5387 16.6743C15.5798 16.653 15.6224 16.6185 15.67 16.5742L15.5141 16.4299C15.4748 16.4692 15.437 16.4922 15.4026 16.4988C15.3698 16.5053 15.3386 16.4988 15.3156 16.4742C15.2959 16.4561 15.2844 16.4331 15.2828 16.4069C15.2828 16.3823 15.291 16.3495 15.309 16.315C15.3271 16.2822 15.3566 16.2379 15.4075 16.1854C15.483 16.1099 15.5387 16.064 15.5896 16.0443C15.6388 16.0279 15.6766 16.0345 15.7061 16.0607C15.7291 16.082 15.7356 16.1099 15.7323 16.146C15.7291 16.1805 15.7094 16.2182 15.6766 16.2592L15.8275 16.402C15.8636 16.3577 15.8899 16.3183 15.9095 16.2822C15.9391 16.2313 15.9555 16.1805 15.9653 16.1313C15.9735 16.082 15.9719 16.0312 15.9555 15.9869C15.9391 15.9409 15.9128 15.9016 15.88 15.8671C15.839 15.8277 15.7914 15.8064 15.7373 15.7966C15.6946 15.79 15.647 15.7933 15.5929 15.8064C15.5371 15.8212 15.4846 15.8474 15.4239 15.8884C15.3648 15.9262 15.309 15.9754 15.2516 16.0345C15.186 16.1034 15.1384 16.1739 15.104 16.2461C15.0761 16.297 15.0597 16.3478 15.0515 16.402C15.0433 16.4528 15.0482 16.5021 15.0646 16.5496C15.081 16.5956 15.1072 16.6366 15.1433 16.6727C15.1811 16.7055 15.2205 16.7268 15.2647 16.7367C15.309 16.7449 15.355 16.74 15.4058 16.7285ZM15.8439 16.9057L15.9424 16.7777L16.1622 16.9532L16.3082 16.7695L16.0867 16.5939L16.177 16.4774L16.4362 16.6874L16.5871 16.4938L16.1606 16.1542L15.524 16.968L15.9604 17.3158L16.1163 17.1222L15.8439 16.9057ZM16.6774 17.3093L17.2237 16.8794L17.0137 16.7498L16.7381 16.9926L16.8201 16.6349L16.6085 16.5053L16.4854 17.1977L16.2918 17.5226L16.4789 17.6374L16.6774 17.3093ZM17.4698 17.7719L17.1876 17.662L17.4616 16.9483L17.2582 16.8696L16.8874 17.8343L17.3714 18.0263L17.4698 17.7719ZM18.3657 17.4504C18.3574 17.3651 18.3296 17.2929 18.2869 17.2387C18.2426 17.1829 18.1901 17.1468 18.1245 17.1321C18.0884 17.1239 18.0572 17.1222 18.0227 17.1272C17.9899 17.1321 17.9555 17.1419 17.9227 17.1567C17.8915 17.1715 17.8603 17.1993 17.8242 17.2354C17.7914 17.2699 17.757 17.3191 17.7291 17.3765C17.6979 17.4323 17.6766 17.4996 17.6569 17.5783C17.6175 17.7375 17.6175 17.8737 17.6552 17.9885C17.693 18.0984 17.7668 18.169 17.8685 18.192C17.9407 18.21 18.0113 18.2018 18.0736 18.1657C18.136 18.128 18.1917 18.0722 18.2377 17.9984C18.2803 17.9229 18.3164 17.8359 18.3378 17.7342C18.3673 17.6341 18.3739 17.5373 18.3657 17.4504ZM19.1712 17.3158L18.9629 17.2961L18.9087 17.8491L18.7315 17.2748L18.5281 17.2568L18.428 18.2871L18.638 18.3085L18.6905 17.7687L18.8628 18.3298L19.0711 18.3511L19.1712 17.3158ZM23.5601 12.2166C23.5601 9.89007 21.6733 8.00328 19.3468 8.00328C17.0203 8.00328 15.1335 9.89007 15.1335 12.2166C15.1335 14.5431 17.0203 16.4299 19.3468 16.4299C21.6733 16.4299 23.5601 14.5431 23.5601 12.2166ZM22.4838 16.2953C22.4378 16.233 22.3607 16.21 22.3082 16.2445C22.2623 16.2806 22.2606 16.3642 22.3066 16.4299C22.3525 16.4938 22.4329 16.5152 22.4821 16.4774C22.5281 16.443 22.5297 16.361 22.4838 16.2953ZM21.2516 18.1903C21.2516 18.1903 21.1958 16.8614 20.428 16.9861C19.6602 17.1075 19.9063 17.9459 20.0703 18.1624C20.1015 18.2002 20.1376 18.2461 20.1819 18.2937C19.9752 18.6809 20.3164 18.863 20.5199 18.7268C20.556 18.7006 20.5986 18.671 20.6347 18.6349C20.7807 18.694 20.9218 18.6858 21.0383 18.5529C21.1384 18.4331 21.0908 18.251 20.9218 18.1231C20.9317 18.0541 20.9202 17.9738 20.9153 17.8901C20.8907 17.4897 20.6003 17.2847 20.3935 17.3322C20.387 17.3339 20.3788 17.3355 20.3689 17.3355C20.241 17.3618 20.1622 17.5111 20.195 17.6719C20.2229 17.8327 20.3558 17.9426 20.4821 17.9163C20.5904 17.895 20.6577 17.7687 20.661 17.6407C20.7086 17.6932 20.7955 17.8162 20.7725 18.0377C20.6183 18.0115 20.3968 18.0623 20.2738 18.1739C20.2377 18.1247 20.1967 18.0706 20.1606 18.0115C19.839 17.5111 20.2213 17.1419 20.469 17.1583C20.7233 17.178 20.9383 17.0894 21.0908 18.2051L21.2516 18.1903ZM22.2475 17.5357C22.2147 17.0664 21.8341 16.9975 21.8341 16.9975L21.8291 17.1764C21.9128 17.1764 21.9801 17.2453 22.0556 17.4061C22.131 17.5669 22.0359 17.8573 21.8981 17.4701C21.752 17.0763 21.355 17.1206 21.291 17.3503C21.2434 17.534 21.3107 17.6784 21.3714 17.7605C21.3796 17.7834 21.3894 17.8064 21.4042 17.831C21.4862 17.9623 21.6224 18.0263 21.7143 17.9705C21.8013 17.9163 21.8045 17.7621 21.7258 17.6308C21.6503 17.5078 21.5273 17.4454 21.4403 17.4799C21.4058 17.3486 21.6093 17.2699 21.7028 17.4176C21.7684 17.5275 21.8423 17.8195 22.0375 17.8327C22.2656 17.8458 22.2475 17.5357 22.2475 17.5357ZM23.3714 17.0533L22.8808 16.3462L22.7594 16.4397L23.1466 16.9795L22.9793 17.1025L22.9661 17.114C22.9776 17.0517 22.9579 16.9598 22.912 16.8991C22.8349 16.7908 22.7036 16.7514 22.6249 16.8121C22.6101 16.822 22.6019 16.8335 22.5921 16.8466C22.5593 16.8368 22.5297 16.8285 22.5297 16.8285L22.6068 16.7596L22.5018 16.612L22.1113 16.8991L22.6003 17.5931L22.72 17.5045L22.3509 16.9647L22.387 16.927L22.6298 17.2748L22.7184 17.2026L22.7578 17.1698C22.6396 17.0271 22.6823 16.9221 22.7676 16.9861C22.8529 17.0468 22.7988 17.201 22.7988 17.201L22.7758 17.224L22.6757 17.3191L22.7857 17.4619L23.3714 17.0533ZM24.3443 16.064C24.3164 15.959 24.2541 15.8474 24.154 15.7555C23.9555 15.5701 23.6913 15.5291 23.565 15.6686C23.5174 15.7194 23.4977 15.7884 23.501 15.8638H23.4961C23.4009 15.8753 23.314 15.9147 23.2467 15.9885C23.0859 16.1641 23.1204 16.4545 23.3205 16.6415C23.3599 16.676 23.4042 16.7071 23.4485 16.7285L23.4518 16.7334C23.5568 16.7892 23.6782 16.7826 23.7455 16.7071C23.8324 16.6136 23.7996 16.4479 23.6815 16.3331C23.5683 16.2313 23.419 16.21 23.3304 16.2756H23.3205C23.3222 16.2166 23.3451 16.1608 23.3845 16.1165C23.4206 16.0755 23.4682 16.0509 23.5207 16.0427H23.5223C23.5437 16.1165 23.5962 16.1985 23.6782 16.2724C23.8226 16.4118 24.0014 16.4561 24.072 16.3757C24.1442 16.2953 24.0851 16.1214 23.9407 15.9852C23.8538 15.9048 23.7553 15.8556 23.6782 15.8458L23.6815 15.8409C23.6848 15.8228 23.6897 15.8048 23.7028 15.7949C23.7668 15.7227 23.9374 15.7752 24.0802 15.9114C24.1737 15.9951 24.2311 16.0902 24.2475 16.1674L24.3443 16.064ZM24.7561 14.886C24.5084 14.7449 24.4116 15.0402 24.4116 15.0402L24.259 14.9549L24.3427 14.8154L24.1885 14.7285L23.9095 15.1993L24.1999 15.3733C24.0835 15.6046 24.4854 15.8015 24.6757 15.5488C24.8923 15.26 24.5724 15.1304 24.5724 15.1304C24.5822 15.114 24.6265 14.9779 24.7102 15.0238C24.7906 15.0664 24.6921 15.1272 24.6921 15.1272L24.8136 15.2518C24.9284 15.1961 25.0006 15.0271 24.7561 14.886ZM25.5404 13.3618L24.7135 13.1518L24.6725 13.3076L25.3156 13.4733L25.2582 13.6538C25.2057 13.6177 25.0679 13.5685 25.0679 13.5685C24.6659 13.4405 24.4789 13.7473 24.5773 13.9918C24.6249 14.105 24.7988 14.2034 25.035 14.2264C25.1942 14.2428 25.3123 14.1723 25.3287 14.064C25.3353 13.9934 25.2992 13.9245 25.2319 13.8802L25.396 13.9163L25.5404 13.3618ZM25.647 12.1674L24.7922 12.1181L24.7906 12.274L25.4485 12.3002L25.4436 12.5103V12.5267C25.4058 12.4807 25.3205 12.4413 25.2434 12.4348C25.1089 12.4315 25.0006 12.5119 24.9957 12.612C24.9957 12.63 24.9973 12.6448 25.0039 12.6612C24.9825 12.6776 24.9547 12.6973 24.9547 12.6973L24.9465 12.5972L24.766 12.5857L24.7479 13.0697L25.5896 13.1157L25.5978 12.9647L24.9497 12.9221L24.9415 12.8696L25.3632 12.8893L25.3599 12.7777L25.3566 12.7268C25.1745 12.7301 25.1187 12.6333 25.2204 12.6005C25.3222 12.571 25.4108 12.7121 25.4108 12.7121L25.4124 12.7465L25.4239 12.8811H25.606L25.647 12.1674ZM22.4116 7.14848C22.41 7.18622 22.4017 7.22067 22.3755 7.23708C22.4067 7.23216 22.4395 7.22067 22.469 7.21739C22.5002 7.21247 22.5396 7.19278 22.5757 7.1895C22.5855 7.1534 22.5527 7.09762 22.5232 7.07629C22.5035 7.05989 22.4067 7.02379 22.3574 7.06645C22.3771 7.0484 22.4116 7.13208 22.4116 7.14848ZM23.9309 8.44299C23.9341 8.36259 23.8505 8.2297 23.793 8.19196C23.793 8.21657 23.8029 8.24118 23.7898 8.26087C23.7734 8.2904 23.7488 8.30681 23.7209 8.31337L23.8948 8.53815C23.9227 8.50041 23.9276 8.48728 23.9309 8.44299ZM21.6487 7.25021C21.752 7.1895 21.7881 7.0566 21.7274 6.9516C21.6684 6.84824 21.5355 6.81378 21.4321 6.87285C21.3271 6.93355 21.2926 7.06809 21.3533 7.16981C21.4124 7.2781 21.5502 7.31255 21.6487 7.25021ZM25.1368 11.6358L24.9678 11.6308L24.9645 11.7129L25.1384 11.7194L25.1368 11.6358ZM25.46 11.7408C25.4666 11.5947 25.3287 11.6243 25.3287 11.6243L25.3271 11.8704C25.3796 11.8802 25.4501 11.8868 25.46 11.7408ZM13.5765 12.2215L13.9506 12.1526L13.5765 12.082V12.2215ZM14.3657 14.9762C14.4132 14.9664 14.4657 14.9467 14.5232 14.9188C14.5642 14.8975 14.5986 14.8778 14.6282 14.8548C14.661 14.8318 14.6839 14.8121 14.6987 14.7925C14.7135 14.7744 14.725 14.7547 14.7282 14.7301C14.7364 14.7088 14.7348 14.6874 14.725 14.6694C14.7135 14.6481 14.6971 14.6317 14.6675 14.6235C14.6396 14.612 14.6019 14.612 14.5576 14.6202C14.515 14.6284 14.4592 14.6481 14.4034 14.676C14.3181 14.7186 14.2557 14.7646 14.2213 14.8154C14.195 14.8532 14.1901 14.8925 14.2049 14.9237C14.218 14.9467 14.2377 14.9647 14.2639 14.9729C14.2853 14.9861 14.323 14.9861 14.3657 14.9762ZM24.4936 15.2683L24.3607 15.4733C24.3985 15.5144 24.4559 15.5587 24.5428 15.4356C24.6265 15.3158 24.4936 15.2683 24.4936 15.2683ZM17.4698 7.14684C17.4239 7.00246 17.3222 6.87285 17.1712 6.82527C17.0154 6.77769 16.825 6.85644 16.7053 6.95324C16.8004 6.91386 16.9071 6.90894 17.0039 6.95324C17.104 6.99918 17.1729 7.05496 17.2303 7.14684C17.2959 7.25185 17.3222 7.38966 17.2926 7.48646H17.2959C17.2976 7.48318 17.2976 7.4799 17.2992 7.47498L17.3419 7.46842L17.3435 7.47498L17.3468 7.47334C17.4436 7.42412 17.5141 7.27318 17.4698 7.14684ZM24.1409 15.1468L24.2836 15.2453L24.3279 15.178L24.1868 15.0829L24.1409 15.1468ZM23.6241 16.5906C23.6585 16.5529 23.6454 16.4774 23.5929 16.4299C23.5404 16.3806 23.4698 16.3757 23.4305 16.4167C23.3927 16.4561 23.4075 16.5283 23.46 16.5792C23.5092 16.6235 23.583 16.6317 23.6241 16.5906ZM23.7734 16.1674C23.8275 16.2199 23.8899 16.2445 23.9095 16.2231C23.9292 16.1985 23.8981 16.1411 23.8439 16.0902C23.7881 16.0377 23.7274 16.0148 23.7094 16.0345C23.6897 16.0558 23.7192 16.1181 23.7734 16.1674ZM19.3894 6.74159C19.46 6.73831 19.5076 6.76128 19.5568 6.8023C19.565 6.76292 19.5535 6.67104 19.5912 6.63987C19.6437 6.60049 19.7127 6.61362 19.7094 6.55291C19.7094 6.46267 19.6323 6.39541 19.5387 6.39048C19.396 6.38556 19.2992 6.43806 19.2434 6.53815C19.1942 6.63167 19.1876 6.74323 19.2139 6.83511C19.2483 6.77769 19.309 6.74323 19.3894 6.74159ZM19.291 6.87449C19.2598 6.90894 19.2647 6.96144 19.2992 6.98934C19.3337 7.01887 19.3862 7.01559 19.414 6.97785C19.4419 6.94504 19.4387 6.89582 19.4042 6.86628C19.3698 6.83675 19.3172 6.84167 19.291 6.87449ZM25.0646 13.9705C25.0088 13.9639 24.9596 13.9803 24.9563 14.0082C24.953 14.0394 24.9957 14.0673 25.0515 14.0722C25.1056 14.0804 25.1548 14.0623 25.1581 14.0312C25.1614 14.0033 25.1171 13.9754 25.0646 13.9705ZM24.8956 13.7047C24.6872 13.7145 24.6889 13.9475 24.8168 13.9967C24.8464 13.8999 24.9333 13.8195 25.081 13.831C25.1384 13.8359 25.1876 13.854 25.227 13.8786C25.2204 13.8622 25.1401 13.6932 24.8956 13.7047ZM20.7184 18.2133C20.6101 18.1887 20.4854 18.2051 20.3853 18.2937C20.4559 18.3659 20.5297 18.4184 20.5953 18.4528C20.6462 18.3921 20.6921 18.3101 20.7184 18.2133ZM20.9202 18.4266C20.9432 18.3839 20.9235 18.3298 20.8759 18.2888C20.8464 18.3708 20.8086 18.4397 20.7594 18.5004C20.8349 18.5037 20.8923 18.4774 20.9202 18.4266ZM20.4017 17.5094C20.3525 17.5209 20.3214 17.5816 20.3345 17.644C20.346 17.7063 20.3968 17.749 20.446 17.7391C20.4985 17.7276 20.5297 17.6686 20.515 17.6062C20.5051 17.5439 20.4526 17.5012 20.4017 17.5094ZM21.6159 17.8179C21.6405 17.8031 21.6355 17.7506 21.606 17.703C21.5765 17.6538 21.5322 17.6276 21.5092 17.6423C21.4846 17.6571 21.4895 17.7096 21.5191 17.7572C21.5502 17.808 21.5912 17.8327 21.6159 17.8179ZM16.5182 7.52584C16.5084 7.63413 16.6413 7.6653 16.7102 7.63413C16.8185 7.58162 16.784 7.51108 16.7151 7.36998L16.8218 7.31911C16.8923 7.47498 16.9218 7.52912 17.0252 7.47498C17.1089 7.42904 17.1154 7.31255 17.0728 7.21411C17.0137 7.09598 16.8808 7.01723 16.7709 7.05496C16.6774 7.08614 16.5806 7.15012 16.5428 7.23052C16.5035 7.31255 16.4723 7.46514 16.446 7.55866L16.5182 7.52584ZM20.4739 18.5496C20.4116 18.5086 20.3476 18.4578 20.2935 18.4036C20.1819 18.589 20.3214 18.6366 20.4739 18.5496ZM16.3657 7.13043C16.3935 7.14848 16.4198 7.17637 16.4198 7.20263C16.4329 7.17309 16.4395 7.14028 16.4526 7.11567C16.4641 7.08614 16.469 7.03856 16.4854 7.01066C16.4575 6.98605 16.3919 6.98277 16.3607 6.99426C16.3361 7.00246 16.2557 7.06809 16.2656 7.13372C16.2606 7.10747 16.3492 7.12059 16.3657 7.13043ZM3.99978 19.1944C2.74793 19.1944 1.42061 19.1944 0.956299 19.1944V5.28466H3.99978H6.03259C7.69461 5.28466 9.56828 5.89664 9.85376 8.34619C10.1934 11.2551 8.68722 11.5636 8.68722 11.5636V12.146C11.2926 12.5808 11.8177 15.7441 10.6938 17.452C9.58304 19.1386 7.47312 19.1944 6.36237 19.1944C5.92923 19.1944 4.98747 19.1944 3.99978 19.1944ZM8.05228 15.0287C8.05228 13.5619 6.69215 13.2043 5.89149 13.2043C5.24342 13.2043 4.32627 13.2043 3.99978 13.2043V16.9368H5.3353C6.80371 16.9368 8.05228 16.4955 8.05228 15.0287ZM4.97435 7.55701C4.64293 7.55701 4.23768 7.55701 3.99978 7.55701V11.009H4.50347C5.0088 11.009 7.04818 11.0878 7.04818 9.35029C7.04818 7.61444 5.47804 7.55701 4.97435 7.55701ZM37.7373 8.17227V5.27317H35.0433C31.1942 5.27317 28.0752 8.39212 28.0752 12.2412C28.0752 14.1657 28.8546 15.9081 30.1163 17.1682C31.378 18.4282 33.1187 19.2092 35.0433 19.2092H37.7373V16.3593H34.9842C33.8538 16.3593 32.83 15.9016 32.09 15.16C31.3484 14.4184 30.8907 13.3962 30.8907 12.2658C30.8907 10.0049 32.7233 8.17227 34.9842 8.17227H37.7373ZM16.9743 12.2428C16.9743 12.2428 16.8497 10.5578 17.2746 9.82937C17.2746 9.82937 16.4985 9.92453 16.5855 12.2313C16.5855 12.2313 16.7939 12.3692 16.9743 12.2428ZM16.9038 12.4217C17.1072 12.3938 17.1597 12.3052 17.1712 12.2691C17.1909 12.2034 17.1335 12.1509 17.0859 12.1493L17.0416 12.2215C17.0416 12.2215 17.1122 12.3511 16.8054 12.361C16.5363 12.3692 16.4428 12.2592 16.4871 12.2018C16.5068 12.1756 16.551 12.1756 16.551 12.1756L16.4953 12.0591C16.3935 12.0591 16.2311 12.1805 16.3673 12.3035C16.4657 12.3921 16.6561 12.4561 16.9038 12.4217ZM16.8956 12.4889C16.7824 12.5595 16.5773 12.4971 16.5199 12.4463C16.4575 12.4495 16.4739 12.5316 16.4739 12.5316C16.4739 12.5316 16.597 12.6021 16.7266 12.6087C16.8529 12.6153 16.9661 12.589 16.9875 12.5365C17.0104 12.484 16.9235 12.4709 16.8956 12.4889ZM16.8956 12.6432C16.7922 12.7071 16.6134 12.6628 16.5379 12.6136C16.5133 12.5972 16.4789 12.612 16.4723 12.6415C16.4707 12.6464 16.4707 12.6514 16.4707 12.6563C16.4707 12.6727 16.4789 12.6891 16.4953 12.6973C16.5363 12.717 16.6298 12.758 16.725 12.7629C16.8513 12.7695 16.9645 12.7432 16.9858 12.6907C17.0104 12.6382 16.9235 12.6251 16.8956 12.6432ZM16.8956 12.7744C16.7922 12.8384 16.6134 12.7941 16.5379 12.7449C16.5133 12.7285 16.4789 12.7432 16.4723 12.7728C16.4707 12.7777 16.4707 12.7826 16.4707 12.7875C16.4707 12.8039 16.4789 12.8203 16.4953 12.8285C16.5363 12.8482 16.6298 12.8893 16.725 12.8942C16.8513 12.9007 16.9645 12.8745 16.9858 12.822C17.0104 12.7695 16.9235 12.7564 16.8956 12.7744ZM16.8956 12.9204C16.7922 12.9844 16.6134 12.9401 16.5379 12.8909C16.5133 12.8745 16.4789 12.8893 16.4723 12.9188C16.4707 12.9237 16.4707 12.9286 16.4707 12.9336C16.4707 12.95 16.4789 12.9664 16.4953 12.9746C16.5363 12.9943 16.6298 13.0353 16.725 13.0402C16.8513 13.0468 16.9645 13.0205 16.9858 12.968C17.0104 12.9155 16.9235 12.9024 16.8956 12.9204ZM17.0088 13.5308C17.0006 13.58 17.0416 13.6161 17.0416 13.6161C17.0416 13.6161 17.0597 13.703 16.9793 13.703C16.8989 13.703 16.8497 13.6407 16.8497 13.5619C16.8497 13.4832 16.9235 13.4947 16.9235 13.4258C16.9235 13.3569 16.8464 13.4143 16.8464 13.2486C16.9054 13.2781 17.0351 13.3011 17.0794 13.2158C17.0925 13.1928 17.0974 13.1731 17.099 13.155C17.1056 13.1009 17.0219 13.0911 17.0154 13.1452C17.0137 13.1534 17.0137 13.1616 17.0137 13.1698C17.017 13.2387 16.8825 13.2272 16.8283 13.1731V13.1042H16.7397V13.1698C16.6856 13.2256 16.5494 13.2387 16.551 13.1698C16.551 13.1616 16.551 13.1534 16.5494 13.1452C16.5412 13.0911 16.4592 13.1009 16.4657 13.155C16.4674 13.1731 16.4739 13.1928 16.4854 13.2158C16.5314 13.3011 16.6593 13.2781 16.7184 13.2486C16.7184 13.4143 16.6413 13.3569 16.6413 13.4258C16.6413 13.4947 16.7151 13.4832 16.7151 13.5619C16.7151 13.6407 16.6659 13.703 16.5855 13.703C16.5051 13.703 16.5232 13.6161 16.5232 13.6161C16.5232 13.6161 16.5642 13.58 16.556 13.5308C16.5445 13.4701 16.469 13.452 16.4247 13.4947C16.3952 13.5226 16.3886 13.5619 16.3952 13.6112C16.4017 13.6653 16.4641 13.7621 16.5822 13.7621C16.6643 13.7621 16.7118 13.7244 16.7381 13.6965V13.8507C16.7332 13.8491 16.7266 13.8474 16.7217 13.8474C16.6971 13.8474 16.6757 13.8671 16.6757 13.8917C16.6757 13.9163 16.6954 13.936 16.7217 13.936H16.7299C16.725 13.9442 16.7233 13.9524 16.7233 13.9623C16.7233 13.9934 16.7496 14.018 16.7807 14.018C16.8119 14.018 16.8382 13.9934 16.8382 13.9623C16.8382 13.9524 16.8349 13.9442 16.8316 13.936C16.8349 13.936 16.8382 13.9377 16.8415 13.9377C16.8661 13.9377 16.8874 13.918 16.8874 13.8934C16.8874 13.8687 16.8677 13.8491 16.8415 13.8491C16.8365 13.8491 16.8332 13.8491 16.8283 13.8507V13.6998C16.8546 13.7276 16.9022 13.7637 16.9809 13.7637C17.1007 13.7637 17.1614 13.6686 17.1679 13.6128C17.1745 13.5636 17.1679 13.5242 17.1384 13.4963C17.0958 13.4504 17.0203 13.4701 17.0088 13.5308ZM17.8357 13.6833L17.962 13.5275C17.9899 13.493 17.985 13.4438 17.9522 13.4159C17.9013 13.3733 17.8226 13.3043 17.7241 13.2092C17.5469 13.0418 17.542 12.904 17.4862 12.7104C17.4337 12.5283 17.25 12.4397 17.1351 12.4676C17.1269 12.4692 17.1253 12.4807 17.1319 12.4856C17.1368 12.4906 17.1417 12.4955 17.145 12.5037C17.1499 12.5152 17.1548 12.5332 17.1466 12.5578C17.1417 12.571 17.1335 12.5841 17.1236 12.5956C17.1187 12.6005 17.1204 12.6071 17.1253 12.6103C17.1335 12.6153 17.1401 12.6218 17.1433 12.6317C17.1483 12.6432 17.1532 12.6612 17.145 12.6874C17.1384 12.7071 17.1236 12.7252 17.104 12.74C17.0974 12.7449 17.099 12.7547 17.1072 12.758C17.122 12.7629 17.1351 12.7711 17.1433 12.7875C17.1483 12.799 17.1532 12.8171 17.145 12.8417C17.1368 12.8663 17.1187 12.886 17.0908 12.9007C17.0941 12.9057 17.099 12.9106 17.1007 12.9171C17.1056 12.9286 17.1122 12.95 17.1023 12.9762C17.099 12.9893 17.0925 12.9992 17.0843 13.0107C17.0793 13.0156 17.0826 13.0238 17.0892 13.0271C17.1138 13.0336 17.1351 13.0468 17.1515 13.0664C17.1761 13.0943 17.1876 13.1288 17.1827 13.1665C17.1794 13.1961 17.1696 13.2272 17.1515 13.2584C17.1335 13.2912 17.1072 13.3175 17.0744 13.3355C17.0662 13.3388 17.0679 13.3519 17.0761 13.3536C17.1171 13.3667 17.1565 13.3962 17.1942 13.4307C17.1991 13.4356 17.2057 13.4405 17.209 13.4471C17.2122 13.452 17.2188 13.452 17.2237 13.4471C17.2664 13.4077 17.3337 13.347 17.378 13.3043C17.3829 13.2994 17.3927 13.3011 17.3944 13.3093C17.4354 13.4832 17.6224 13.6325 17.7209 13.6998C17.7635 13.7227 17.8095 13.7162 17.8357 13.6833ZM17.7717 11.0156C17.7717 11.0156 17.7356 10.9418 17.8095 10.8909C17.8833 11.0386 18.0736 11.1485 18.0835 11.1534C18.0933 11.1583 18.0703 10.9943 18.1195 10.945C18.1376 11.0123 18.2328 11.1255 18.3837 11.1928C18.533 11.2584 18.4887 11.4996 18.4887 11.4996C18.4887 11.4996 18.4329 11.5176 18.3722 11.493C18.3066 11.4684 18.3115 11.434 18.2524 11.4258C18.2081 11.4192 18.1524 11.4356 18.1163 11.4537C18.0556 11.4832 18.0063 11.4504 17.9965 11.3618C17.7438 11.4569 17.4961 11.2732 17.5026 11.3372C17.5141 11.4537 17.6782 11.5685 17.5092 11.7227C17.5092 11.7227 17.5847 11.7654 17.7684 11.5554C17.8439 11.6194 17.752 11.7539 17.752 11.7539C17.752 11.7539 17.8505 11.7916 17.921 11.5701C17.9309 11.7178 17.9899 11.8179 18.0638 11.8425C17.9949 11.6751 18.0227 11.5816 18.136 11.5439C18.136 11.5439 18.1458 11.7014 18.0966 11.7523C18.1852 11.7769 18.1983 11.5833 18.3181 11.5833C18.3804 11.5833 18.3476 11.7129 18.5314 11.7194C18.5002 11.6801 18.5461 11.6308 18.5461 11.6308C18.5461 11.6308 18.5806 11.5947 18.6511 11.5931C18.6314 11.534 18.4674 11.4635 18.5707 11.3372C18.6003 11.4668 18.7053 11.5275 18.7053 11.5275C18.7053 11.5275 18.7299 11.3355 18.6757 11.2814C18.6757 11.2814 18.7775 11.2666 18.8168 11.3175C18.8546 11.3651 18.8972 11.3831 18.9399 11.37C18.9514 11.3158 18.9383 11.2535 18.8611 11.1977C18.825 11.1715 18.7578 11.1583 18.6938 11.1977C18.6593 11.219 18.6429 11.2486 18.6429 11.2486C18.6429 11.2486 18.5904 11.2108 18.5199 11.1813C18.405 11.1354 18.4116 11.0221 18.4116 11.0221C18.4116 11.0221 18.4838 11.0008 18.533 11.0763C18.5822 11.1518 18.6643 11.1386 18.6643 11.1386C18.5773 11.05 18.6052 10.9582 18.6052 10.9582C18.6052 10.9582 18.6954 11.055 18.8086 11.0681C18.7643 10.9565 18.807 10.8942 18.8431 10.8942C18.8792 10.8942 18.912 11.0139 19.0055 10.9926C18.9924 10.9073 19.0055 10.9024 19.0055 10.9024C19.0055 10.9024 19.0449 10.9385 19.1269 10.9319C19.1269 10.9319 19.1548 10.7613 18.9858 10.6989C19.058 10.7892 19.0367 10.863 19.0367 10.863C19.0334 10.8728 18.9104 10.8794 18.766 10.8154C18.766 10.8614 18.7315 10.9664 18.6068 10.9385C18.4821 10.9106 18.4395 10.7203 18.2935 10.7317C18.1474 10.7432 18.1967 10.9024 18.2918 10.8778C18.3689 10.8564 18.3542 10.7498 18.3033 10.7432C18.3345 10.7465 18.3673 10.7596 18.3837 10.7826C18.4247 10.8384 18.3837 10.9696 18.2672 10.9582C18.0949 10.9401 18.0638 10.6546 18.346 10.6382C18.3821 10.653 18.4165 10.6743 18.446 10.7039C18.5642 10.8253 18.6282 10.8466 18.6282 10.8466C18.6282 10.8466 18.574 10.7531 18.6019 10.6464C18.6856 10.7186 18.9186 10.7629 18.9186 10.7629C18.9186 10.7629 18.8628 10.6776 18.8726 10.6038C19.0941 10.6858 19.3287 10.5906 19.3287 10.5906C19.3287 10.5906 19.332 10.7071 19.1105 10.7203C19.2352 10.7826 19.3468 10.8893 19.396 11.0008C19.5125 10.9155 19.4551 10.717 19.3172 10.7055C19.3172 10.7055 19.6339 10.5283 19.5666 10.3511C19.419 10.5037 19.1778 10.5021 19.1778 10.5021C19.1778 10.5021 19.1548 10.2789 18.9842 10.21C19.0351 10.2724 18.9825 10.4824 18.8579 10.4824C18.7988 10.2428 18.5675 10.2756 18.5675 10.2756C18.5675 10.2756 18.6725 10.297 18.6314 10.4217C18.5855 10.5628 18.4231 10.5513 18.4231 10.5513C18.4231 10.5513 18.4083 10.4266 18.3082 10.3921C18.2163 10.3593 18.154 10.4184 18.154 10.4184C18.154 10.4184 18.2771 10.4299 18.2885 10.4988C18.2935 10.5808 18.2393 10.5989 18.1589 10.6054H18.1606H18.1556H18.1589C18.131 10.6054 18.1113 10.6071 18.1031 10.6087C18.0227 10.6153 17.9259 10.6399 17.8127 10.694C17.7258 10.7367 17.6487 10.7301 17.6487 10.7301C17.7307 10.6645 17.6946 10.5742 17.6323 10.5546C17.5617 10.5316 17.4419 10.5939 17.4944 10.7498C17.5404 10.8728 17.7717 11.0156 17.7717 11.0156ZM17.7865 11.2043C17.7389 11.2026 17.6257 11.1797 17.5519 11.1632C17.5305 11.1583 17.5191 11.1862 17.5371 11.1993C17.6077 11.2469 17.7389 11.3027 17.8291 11.2994C17.9555 11.2945 18.026 11.2272 18.026 11.2272C18.026 11.2272 18.0277 11.3208 18.131 11.3109C18.236 11.3011 18.3361 11.3076 18.3706 11.3536C18.3673 11.2797 18.2918 11.2158 18.1737 11.201C18.0441 11.1829 17.9145 11.2075 17.7865 11.2043ZM18.6282 11.644C18.6282 11.644 18.7299 11.6653 18.784 11.767C18.8513 11.8934 18.9809 11.9163 18.9809 11.9163C18.9809 11.9163 18.93 11.831 18.8579 11.7112C18.8464 11.6916 18.8332 11.6784 18.8201 11.6669C18.8513 11.6637 18.8907 11.6489 18.9317 11.6095C18.93 11.6669 19.0236 11.9459 19.1811 11.9442C19.081 11.7933 19.0515 11.6161 19.0515 11.6161C19.0515 11.6161 19.1286 11.6555 19.2106 11.7276C19.3156 11.8212 19.3599 11.8852 19.3599 11.8852C19.3599 11.8852 19.3829 11.7916 19.332 11.7063C19.4321 11.7408 19.501 11.6653 19.4698 11.5734C19.4075 11.6456 19.3107 11.6473 19.2582 11.5931C19.1663 11.5012 19.1712 11.4569 19.1712 11.4569C19.1712 11.4569 19.0662 11.452 19.0137 11.3536C19.0203 11.4094 18.9776 11.4586 18.9678 11.4619C18.9235 11.4766 18.83 11.4684 18.7857 11.4077C18.7857 11.4077 18.7873 11.5865 18.7397 11.6308C18.6807 11.6226 18.6282 11.644 18.6282 11.644ZM19.0597 11.1583C19.0711 11.1665 19.0876 11.1698 19.1122 11.1649C19.2976 11.1272 19.1072 11.4537 19.3944 11.5324C19.4075 11.4471 19.3419 11.3569 19.2894 11.3404C19.3369 11.2486 19.4075 11.2847 19.4075 11.2847C19.4075 11.2847 19.4173 11.1682 19.3386 11.178C19.3862 11.0779 19.291 10.9467 19.2073 10.945C19.2598 11.0517 19.1926 11.0829 19.1926 11.0829C19.1926 11.0829 19.0859 11.0894 19.0416 11.0189C19.0416 11.0189 19.0236 11.0845 19.0383 11.1288C18.9957 11.0796 18.9284 11.05 18.8382 11.0747C18.9547 11.1272 19.0613 11.3011 19.0662 11.3601C19.1072 11.3158 19.1023 11.2272 19.0597 11.1583ZM19.5437 11.6784C19.5355 11.7342 19.478 11.7769 19.4239 11.7736C19.5092 11.831 19.6503 11.8868 19.7323 11.8802C19.7225 11.8392 19.6257 11.6833 19.5437 11.6784ZM21.8423 13.4159C21.8291 13.2207 21.9424 13.0714 22.1031 12.5857C22.218 12.2412 22.2131 11.9098 21.9817 11.6998C22.0392 11.6341 22.0867 11.5422 22.0867 11.4143C22.0867 11.137 21.8406 10.8466 21.3615 10.8466C21.0236 10.8466 20.9891 10.9746 20.679 10.9746C20.5232 10.9746 20.3771 10.8794 20.3443 10.6957C20.2574 10.7219 20.2459 10.9188 20.2459 10.9188C20.2459 10.9188 20.1524 10.968 20.1113 10.7744C20.0818 10.6349 20.1589 10.5824 20.2016 10.6153C20.2032 10.5086 20.0309 10.4873 19.9702 10.6333C19.921 10.7514 19.8685 10.7203 19.8685 10.7203C19.8013 10.5349 20.0096 10.3249 20.0884 10.3249C20.1671 10.3249 20.3246 10.4528 20.3197 10.5923C20.4231 10.5923 20.4149 10.3938 20.3492 10.2871C20.5412 10.2756 20.5642 10.4397 20.515 10.5513C20.6544 10.5447 20.6035 10.2871 20.6035 10.2871C20.6035 10.2871 20.7217 10.2855 20.7217 10.4135C20.7217 10.566 20.6035 10.6284 20.6035 10.6284C20.9268 10.676 20.7824 10.4053 20.9071 10.4053C20.9465 10.6235 21.2172 10.7334 21.3747 10.7137C21.2746 10.6612 21.2155 10.5775 21.227 10.5119C21.332 10.4906 21.5601 10.7842 21.7586 10.7842C21.9571 10.7842 22.026 10.6021 21.9899 10.5234C21.9309 10.3987 21.7373 10.4348 21.7127 10.5316C21.688 10.6284 21.798 10.6694 21.8177 10.6235L21.8308 10.5677C21.8439 10.7186 21.6618 10.6645 21.3976 10.4938C21.1581 10.3396 20.7479 10.1345 20.4165 10.1345C20.0227 10.1345 19.7291 10.2412 19.6651 10.5496C19.6536 10.6054 19.6569 10.6596 19.6716 10.7121C19.5617 10.8843 19.4879 11.0829 19.6175 11.2256C19.647 11.0943 19.7537 11.009 19.8456 10.9582C20.0342 11.1157 20.3378 11.2174 20.6314 11.2174C21.0186 11.2174 21.1532 11.0632 21.396 11.0632C21.6388 11.0632 21.8242 11.2059 21.8242 11.4159C21.8242 11.4766 21.8045 11.5275 21.7766 11.5669C21.6339 11.5078 21.4469 11.475 21.2122 11.475C20.7955 11.475 20.2377 11.703 19.7159 11.7342C19.798 11.8048 19.8095 11.895 19.8095 11.895C19.8095 11.895 19.944 11.9655 20.0096 12.0804C19.8652 12.1247 19.6749 12.0788 19.6749 12.0788C19.6749 12.0788 19.6962 12.0837 19.7717 12.2248C19.5978 12.2888 19.3599 12.2625 19.3058 12.1641C19.268 12.1821 19.2287 12.2592 19.2779 12.3921C19.099 12.4036 19.0285 12.2313 19.0285 12.2313C19.0285 12.2313 18.9694 12.2724 18.9727 12.3692C18.8021 12.3642 18.8283 12.2199 18.8283 12.2199C18.8283 12.2199 18.702 12.2576 18.7315 12.4151C18.5527 12.402 18.5806 12.1854 18.5806 12.1854C18.5806 12.1854 18.4903 12.2002 18.469 12.3445C18.3443 12.2674 18.451 12.1017 18.451 12.1017C18.451 12.1017 18.3804 12.1296 18.2803 12.2445C18.1819 12.1181 18.2935 11.913 18.2885 11.9147C17.8734 12.0837 17.4879 12.4167 17.6142 12.8417C17.7159 13.1879 18.0424 13.3667 18.1655 13.5193C18.067 13.1977 18.1015 12.9155 18.1179 12.8794C18.1245 12.8679 18.1294 12.8548 18.1425 12.8548C18.1556 12.8548 18.1671 12.8663 18.1671 12.8794C18.1655 12.9204 18.1638 12.9614 18.1622 13.0025C18.1622 13.0435 18.1606 13.0845 18.1622 13.1255C18.1638 13.2075 18.1688 13.2896 18.1835 13.3716C18.1967 13.4537 18.2229 13.5308 18.2508 13.6095C18.2787 13.6883 18.3033 13.7687 18.3164 13.8507V13.8523C18.3525 14.0394 18.3345 14.2806 18.2163 14.2806C18.0523 14.2806 18.1064 14.2379 17.9916 14.2379C17.7931 14.2379 17.7241 14.4545 17.6848 14.5381C17.6848 14.5923 17.8291 14.6284 17.8882 14.507C17.9735 14.3281 18.0605 14.3298 18.0539 14.3347C18.0539 14.3347 17.9128 14.4463 17.9079 14.5529C17.9243 14.5874 18.067 14.5923 18.1064 14.5004C18.1442 14.4118 18.2689 14.361 18.2853 14.356C18.1376 14.4299 18.1261 14.5398 18.1261 14.5398C18.3246 14.6071 18.3821 14.507 18.4953 14.507C18.6331 14.507 18.6265 14.5923 18.7299 14.5923C18.8841 14.5923 18.9612 14.4053 18.9612 14.4053C18.9612 14.4053 18.912 14.3856 18.8168 14.3199C18.7217 14.2543 18.7906 14.1148 18.9268 14.0541C19.0482 14 19.1597 13.8852 19.1597 13.8852C19.1597 13.8852 19.0629 13.8097 18.9071 13.8983C18.7578 13.982 18.6987 13.9524 18.6987 13.9524C18.6987 13.9524 18.7348 13.8983 18.7709 13.8228C18.7889 13.7818 18.8054 13.7408 18.8168 13.6981C18.8283 13.6571 18.8398 13.5587 18.8398 13.5127C18.9579 13.388 19.1319 13.1862 19.3353 12.676C19.3386 12.6612 19.3533 12.6497 19.3681 12.653C19.3763 12.6546 19.3796 12.6645 19.3829 12.676C19.3862 12.6924 19.3845 12.7088 19.3796 12.7235C19.3517 12.8023 19.2106 13.1829 18.9038 13.5488C18.9005 13.6062 18.889 13.6341 18.8792 13.662C18.9415 13.6653 19.3238 13.6276 19.8275 13.3142C19.8981 13.2699 19.9604 13.2305 20.0162 13.1928C20.3985 12.9401 20.4871 12.8335 20.6938 12.8335C20.8956 12.8335 20.9973 12.9926 21.0728 13.1189C21.0793 13.1304 21.0859 13.1403 21.0925 13.1518C21.099 13.1616 21.1056 13.1715 21.1122 13.1813C21.2582 13.4044 21.4485 13.4307 21.4485 13.4307C21.4485 13.4307 21.4534 13.6719 21.5716 13.808C21.5716 14.0098 21.6011 14.2527 21.3894 14.2527C21.268 14.2527 21.2615 14.0886 21.1532 14.1034C21.0695 14.1148 20.9317 14.2428 20.8661 14.3659C20.848 14.4003 20.8365 14.4299 20.8283 14.4561C20.7594 14.4397 20.7266 14.379 20.9169 14.1723V13.8819C20.9169 13.8819 21.1368 13.7867 21.1778 13.6112C21.0449 13.5783 20.9465 13.7309 20.8693 13.7129C20.8661 13.5291 21.0236 13.3815 21.0629 13.201C21.058 13.1928 21.0531 13.1862 21.0482 13.178C20.9743 13.0599 20.8743 12.9303 20.6921 12.9303C20.4887 12.9303 20.4001 13.032 20.0392 13.2732C20.0835 13.388 20.1934 13.6062 20.428 13.7424C20.428 14.0345 20.5002 14.2592 20.3017 14.2592C20.1786 14.2592 20.1835 14.1788 20.0687 14.1788C19.9538 14.1788 19.8439 14.4151 19.793 14.5086C19.8488 14.5989 19.9702 14.5824 20.0014 14.4906C20.049 14.3429 20.1556 14.3298 20.1556 14.3298C20.1556 14.3298 20.0539 14.3823 20.0244 14.5267C20.131 14.589 20.2049 14.5152 20.2328 14.4676C20.259 14.42 20.3214 14.338 20.387 14.3232C20.2803 14.4118 20.2656 14.5185 20.2656 14.5185C20.2656 14.5185 20.3771 14.5726 20.5051 14.5021C20.5871 14.4561 20.6626 14.4824 20.6971 14.5267C20.7184 14.5546 20.7725 14.5644 20.8201 14.5431C20.8201 14.5546 20.8218 14.5611 20.8218 14.5611C20.8218 14.5611 20.9678 14.6038 20.999 14.4856C21.017 14.4151 21.0941 14.3347 21.1319 14.3117C21.122 14.3216 21.0367 14.4561 21.0318 14.5398C21.104 14.5808 21.1827 14.5234 21.2287 14.443C21.2943 14.3314 21.3862 14.3462 21.3862 14.3462C21.3862 14.3462 21.2844 14.4266 21.25 14.5365C21.2959 14.548 21.3714 14.5841 21.478 14.5677C21.583 14.5513 21.5847 14.4758 21.5732 14.4118C21.6306 14.4118 21.6585 14.5021 21.7783 14.5021C21.8981 14.5021 21.9473 14.3839 21.9473 14.3839C21.9473 14.3839 21.8045 14.274 21.8045 14.2084C21.8045 14.1427 21.9046 14.0623 22.0293 13.9918C21.9998 13.9016 21.8866 13.8753 21.8866 13.8753C21.8866 13.8753 22.2131 13.8441 22.2672 13.6407C22.1474 13.6407 21.862 13.7063 21.8423 13.4159ZM19.8554 12.0295L19.8669 12.0279L19.857 12.0213C19.734 11.9327 19.7209 11.9212 19.7209 11.9212H19.7192H19.7176C19.5486 11.9016 19.4173 11.831 19.4157 11.8294L19.4091 11.8261L19.4108 11.8343C19.4108 11.8343 19.4288 11.9705 19.3976 12.0115C19.3008 11.9245 19.2451 11.8999 19.2434 11.8983L19.2352 11.895L19.2369 11.9032C19.2516 11.9623 19.2631 11.9984 19.2713 12.0148C19.2221 12.023 19.1762 12.0263 19.1319 12.0263C18.8644 12.0263 18.7643 11.8737 18.7102 11.7916C18.6987 11.7736 18.6889 11.7605 18.6807 11.7506C18.6511 11.7178 18.6216 11.7129 18.6019 11.7129C18.5625 11.7129 18.5346 11.7391 18.5248 11.7637C18.5182 11.7851 18.5232 11.8048 18.5412 11.8179C18.551 11.8261 18.5625 11.8294 18.5724 11.8294C18.6052 11.8294 18.6019 11.8031 18.6019 11.8031C18.597 11.808 18.5921 11.8097 18.5871 11.8097C18.5773 11.8097 18.5707 11.7982 18.5707 11.7884C18.5707 11.7851 18.5724 11.7785 18.5757 11.7752C18.5806 11.7719 18.5871 11.7687 18.5953 11.7687H18.6019C18.6626 11.7752 18.7184 11.936 18.7282 11.9672C18.7233 11.9672 18.72 11.9672 18.7151 11.9672C18.5264 11.9672 18.4099 11.7555 18.4083 11.7539L18.405 11.7457L18.4017 11.7539C18.3542 11.8622 18.3853 11.9196 18.3968 11.9344C18.3771 11.9426 18.3148 11.982 18.3181 12.1132V12.128L18.3246 12.1148C18.3771 12.0197 18.4756 11.9852 18.5133 11.9852C18.5018 12.0049 18.4723 12.0656 18.4985 12.1427L18.5018 12.1509L18.5068 12.1427C18.574 12.0328 18.6232 12.0164 18.6462 12.0164C18.6511 12.0164 18.6544 12.0164 18.6577 12.018C18.6446 12.041 18.5871 12.1559 18.6708 12.2609L18.6757 12.2674L18.6774 12.2592C18.7184 12.0788 18.8431 12.0476 18.871 12.0427C18.8644 12.0689 18.8447 12.1788 18.9038 12.2412L18.9087 12.2461L18.912 12.2395C18.9612 12.1181 18.9957 12.0935 19.0055 12.0886C19.0121 12.1099 19.0498 12.21 19.1466 12.2559L19.1515 12.2592V12.2527C19.1597 12.0935 19.2779 12.0623 19.2976 12.0591C19.3107 12.0755 19.4042 12.1805 19.6027 12.1805H19.6109L19.606 12.1739C19.4977 12.0443 19.4879 11.9573 19.4879 11.9327C19.5174 11.9524 19.6536 12.0312 19.8127 12.0312C19.8291 12.0312 19.8423 12.0295 19.8554 12.0295Z" fill="#F0B310"/>
</g>
<defs>
<clipPath id="clip0_45_4235">
<rect width="38.4" height="24" fill="white"/>
</clipPath>
</defs>
</svg>
