<svg width="315" height="79" viewBox="0 0 315 79" fill="none" xmlns="http://www.w3.org/2000/svg">
<g clip-path="url(#clip0_4_1515)">
<path d="M128.55 61.51H130.37C131.693 61.6204 133.016 61.2975 134.14 60.59C134.547 60.2108 134.862 59.743 135.06 59.2228C135.257 58.7027 135.333 58.144 135.28 57.59C135.313 57.2313 135.252 56.8701 135.103 56.5421C134.954 56.2142 134.722 55.9308 134.43 55.72C133.547 55.2703 132.558 55.0731 131.57 55.15H130L128.6 61.5L128.55 61.51ZM126.2 72.41H128.48C129.762 72.5313 131.044 72.1752 132.08 71.41C132.49 70.9765 132.802 70.4606 132.997 69.8968C133.192 69.3329 133.265 68.7341 133.21 68.14C133.25 67.7443 133.194 67.3446 133.046 66.9754C132.898 66.6061 132.663 66.2783 132.36 66.02C131.476 65.5194 130.461 65.2996 129.45 65.39H127.74L126.2 72.45V72.41ZM120.11 76.26L125.49 51.46H132.49C135.3 51.46 137.32 51.87 138.55 52.72C139.181 53.1874 139.681 53.8089 140.004 54.525C140.326 55.241 140.459 56.0278 140.39 56.81C140.476 58.4895 139.954 60.1437 138.92 61.47C137.829 62.6953 136.306 63.4512 134.67 63.58C135.776 63.7467 136.782 64.3123 137.5 65.17C138.156 66.1187 138.48 67.258 138.42 68.41C138.437 69.6902 138.178 70.9591 137.66 72.13C137.216 73.1784 136.489 74.0822 135.56 74.74C134.655 75.3425 133.633 75.7448 132.56 75.92C130.666 76.1925 128.753 76.3062 126.84 76.26H120.11ZM148.11 74.47C147.574 75.0899 146.918 75.5936 146.18 75.95C145.461 76.2745 144.679 76.4383 143.89 76.43C143.291 76.4535 142.694 76.3578 142.133 76.1483C141.571 75.9389 141.057 75.6199 140.62 75.21C140.204 74.8128 139.877 74.3322 139.66 73.7997C139.443 73.2672 139.34 72.6948 139.36 72.12C139.36 69.62 140.027 67.8267 141.36 66.74C142.693 65.6533 144.943 65.1033 148.11 65.09H149.11H149.82C149.92 64.54 149.99 64.09 150.03 63.79C150.064 63.538 150.084 63.2843 150.09 63.03C150.127 62.5474 149.973 62.0695 149.66 61.7C149.487 61.5452 149.284 61.4272 149.064 61.3533C148.844 61.2794 148.611 61.251 148.38 61.27C148.116 61.2561 147.853 61.298 147.606 61.3927C147.36 61.4875 147.136 61.6331 146.95 61.82C146.549 62.2888 146.298 62.8671 146.23 63.48H141.42C141.468 62.7445 141.67 62.0273 142.015 61.3758C142.36 60.7243 142.839 60.1532 143.42 59.7C144.892 58.8079 146.603 58.3922 148.32 58.51C150.06 58.3718 151.802 58.7584 153.32 59.62C153.857 60.027 154.282 60.5631 154.557 61.1784C154.831 61.7938 154.946 62.4685 154.89 63.14C154.884 63.5953 154.847 64.0496 154.78 64.5C154.713 65.0244 154.62 65.5451 154.5 66.06L153 72.75C152.88 73.34 152.77 73.92 152.7 74.5C152.63 75.08 152.55 75.66 152.5 76.26H147.84L148.07 74.47H148.11ZM149.32 67.79H148.87C147.631 67.6891 146.393 67.9907 145.34 68.65C144.953 68.9833 144.651 69.4037 144.458 69.8765C144.265 70.3493 144.187 70.8612 144.23 71.37C144.199 71.8983 144.343 72.4221 144.64 72.86C144.771 73.034 144.943 73.1738 145.139 73.2678C145.336 73.3618 145.552 73.4071 145.77 73.4C146.233 73.3863 146.683 73.2493 147.075 73.0032C147.467 72.7571 147.787 72.4107 148 72C148.707 70.6985 149.156 69.2721 149.32 67.8V67.79ZM154.64 76.26L157.7 62.13C157.86 61.4 157.98 60.79 158.07 60.31C158.16 59.83 158.24 59.37 158.29 58.97H163L162.69 60.97C163.157 60.2216 163.807 59.6053 164.58 59.18C165.388 58.7831 166.281 58.5907 167.18 58.62C168.238 58.5445 169.286 58.8653 170.12 59.52C170.47 59.8684 170.74 60.2883 170.913 60.7508C171.085 61.2133 171.156 61.7077 171.12 62.2C171.115 62.6045 171.089 63.0084 171.04 63.41C171.006 63.7838 170.946 64.1547 170.86 64.52L168.35 76.29H163.35L165.91 64.48C165.98 64.14 166.02 63.87 166.05 63.68C166.061 63.5435 166.061 63.4064 166.05 63.27C166.077 62.9078 165.962 62.5492 165.73 62.27C165.597 62.1454 165.439 62.0507 165.267 61.992C165.094 61.9334 164.911 61.9123 164.73 61.93C164.387 61.9456 164.052 62.0449 163.756 62.2192C163.46 62.3934 163.211 62.6374 163.03 62.93C162.465 63.7109 162.085 64.6104 161.92 65.56L159.57 76.34L154.64 76.26ZM170.75 76.26L176.11 51.46H181.11L178.11 65.34L183.63 58.97H189L182.5 66.62L186.02 76.26H180.89L177.89 66.47L175.78 76.26H170.75ZM192.53 70.93C192.537 70.294 192.588 69.6593 192.68 69.03C192.78 68.3 192.92 67.48 193.12 66.59C193.322 65.6078 193.586 64.6392 193.91 63.69C194.139 62.9905 194.448 62.3194 194.83 61.69C195.416 60.6643 196.283 59.8279 197.33 59.28C198.51 58.7486 199.797 58.4955 201.09 58.54C202.791 58.4158 204.476 58.9451 205.8 60.02C206.359 60.5827 206.792 61.2581 207.07 62.0013C207.348 62.7446 207.463 63.5384 207.41 64.33C207.402 64.9653 207.359 65.5996 207.28 66.23C207.18 66.93 207.05 67.7 206.87 68.53C206.66 69.5025 206.389 70.461 206.06 71.4C205.822 72.1265 205.51 72.8267 205.13 73.49C204.534 74.5087 203.664 75.3401 202.62 75.89C201.448 76.4253 200.167 76.6787 198.88 76.63C197.179 76.7533 195.494 76.2321 194.16 75.17C193.596 74.6226 193.158 73.9587 192.876 73.2248C192.595 72.4908 192.477 71.7043 192.53 70.92V70.93ZM200.99 61.56C200.519 61.5429 200.058 61.7035 199.7 62.01C199.292 62.4105 198.996 62.9102 198.84 63.46C198.726 63.7872 198.633 64.1212 198.56 64.46C198.45 64.91 198.34 65.41 198.23 65.97L197.93 67.4C197.581 68.8008 197.33 70.2243 197.18 71.66C197.14 72.2108 197.292 72.7585 197.61 73.21C197.767 73.3902 197.963 73.5317 198.183 73.6237C198.403 73.7156 198.642 73.7554 198.88 73.74C199.36 73.7537 199.828 73.5858 200.19 73.27C200.615 72.8641 200.925 72.3537 201.09 71.79C201.22 71.42 201.38 70.86 201.57 70.12C201.76 69.38 201.94 68.53 202.12 67.59C202.3 66.65 202.44 65.95 202.53 65.27C202.616 64.7241 202.663 64.1726 202.67 63.62C202.713 63.0812 202.568 62.5441 202.26 62.1C202.1 61.9265 201.902 61.7914 201.682 61.7048C201.462 61.6182 201.226 61.5824 200.99 61.6V61.56ZM207.6 76.26L210.6 61.99H207.86L208.52 58.99H211.25L211.75 56.44C211.948 54.9207 212.616 53.5012 213.66 52.38C214.706 51.479 216.062 51.02 217.44 51.1C217.96 51.1 218.44 51.1 218.97 51.16C219.5 51.22 219.97 51.26 220.47 51.34L219.81 54.67L219.13 54.56C218.967 54.5475 218.803 54.5475 218.64 54.56C218.152 54.5278 217.67 54.6895 217.3 55.01C216.921 55.4163 216.676 55.9297 216.6 56.48L216.08 59.03H218.91L218.28 62.03H215.45L212.45 76.3L207.6 76.26ZM230.18 61.51H232C233.311 61.6204 234.621 61.2972 235.73 60.59C236.134 60.2085 236.445 59.7401 236.641 59.2203C236.837 58.7005 236.912 58.143 236.86 57.59C236.893 57.2313 236.832 56.8701 236.683 56.5421C236.534 56.2142 236.302 55.9308 236.01 55.72C235.142 55.2696 234.165 55.0721 233.19 55.15H231.59L230.21 61.5L230.18 61.51ZM227.85 72.41H230.11C231.38 72.5289 232.648 72.1726 233.67 71.41C234.073 70.9723 234.379 70.4553 234.57 69.8922C234.761 69.3291 234.833 68.7323 234.78 68.14C234.819 67.7453 234.763 67.3469 234.617 66.9782C234.471 66.6094 234.239 66.2809 233.94 66.02C233.07 65.522 232.069 65.3021 231.07 65.39H229.38L227.85 72.45V72.41ZM221.85 76.26L227.17 51.46H234.17C236.95 51.46 238.94 51.87 240.17 52.72C240.795 53.1916 241.29 53.8144 241.608 54.5299C241.927 55.2453 242.058 56.0299 241.99 56.81C242.073 58.4876 241.556 60.1398 240.53 61.47C239.457 62.6922 237.951 63.4489 236.33 63.58C237.424 63.7488 238.417 64.3149 239.12 65.17C239.776 66.1187 240.1 67.258 240.04 68.41C240.055 69.689 239.8 70.9569 239.29 72.13C238.85 73.1748 238.13 74.078 237.21 74.74C236.331 75.3356 235.336 75.7378 234.29 75.92C232.42 76.192 230.53 76.3057 228.64 76.26H221.85ZM249.48 74.47C248.956 75.0891 248.309 75.5931 247.58 75.95C246.871 76.2746 246.1 76.4385 245.32 76.43C244.727 76.4526 244.136 76.3564 243.582 76.1468C243.027 75.9373 242.52 75.6187 242.09 75.21C241.679 74.8103 241.356 74.3288 241.142 73.7965C240.929 73.2643 240.829 72.6931 240.85 72.12C240.85 69.62 241.517 67.8267 242.85 66.74C244.183 65.6533 246.403 65.1033 249.51 65.09H250.51H251.2C251.3 64.54 251.37 64.09 251.41 63.79C251.444 63.538 251.464 63.2843 251.47 63.03C251.506 62.5492 251.355 62.0731 251.05 61.7C250.879 61.546 250.677 61.4284 250.459 61.3545C250.241 61.2806 250.01 61.2518 249.78 61.27C249.52 61.2571 249.259 61.2994 249.016 61.3942C248.773 61.489 248.553 61.6341 248.37 61.82C247.972 62.2897 247.725 62.868 247.66 63.48H242.91C242.952 62.7506 243.145 62.0379 243.478 61.3871C243.81 60.7364 244.274 60.1619 244.84 59.7C246.29 58.8095 247.982 58.3935 249.68 58.51C251.388 58.3784 253.096 58.7653 254.58 59.62C255.113 60.0292 255.535 60.5663 255.806 61.1815C256.077 61.7967 256.188 62.4703 256.13 63.14C256.123 63.5949 256.089 64.0489 256.03 64.5C255.96 65 255.86 65.5 255.74 66.06L254.31 72.71C254.19 73.3 254.09 73.88 254.01 74.46C253.93 75.04 253.87 75.62 253.82 76.22H249.22L249.44 74.43L249.48 74.47ZM250.68 67.79H250.24C249.014 67.6891 247.789 67.9911 246.75 68.65C246.368 68.9864 246.07 69.4077 245.881 69.8802C245.692 70.3526 245.616 70.8629 245.66 71.37C245.626 71.8972 245.766 72.4209 246.06 72.86C246.189 73.0344 246.358 73.1748 246.553 73.269C246.748 73.3631 246.963 73.408 247.18 73.4C247.638 73.3846 248.084 73.2453 248.469 72.9971C248.855 72.7488 249.166 72.4008 249.37 71.99C250.073 70.6875 250.518 69.2614 250.68 67.79ZM255.94 76.26L258.82 62.78C258.95 62.13 259.08 61.49 259.18 60.85C259.28 60.21 259.38 59.58 259.44 58.97H264.18L263.77 61.47C264.268 60.6535 264.953 59.9678 265.77 59.47C266.57 59.0351 267.47 58.8179 268.38 58.84H268.83H269.1L268.21 63.14H268C267.596 63.0755 267.189 63.0354 266.78 63.02C266.29 62.9912 265.799 63.0654 265.339 63.2376C264.879 63.4098 264.461 63.6763 264.11 64.02C263.327 65.0086 262.826 66.1902 262.66 67.44L260.8 76.22L255.94 76.26ZM267.45 70.93C267.462 70.2943 267.513 69.6598 267.6 69.03C267.71 68.3 267.85 67.48 268.05 66.59C268.259 65.6072 268.529 64.6386 268.86 63.69C269.096 62.9916 269.408 62.3209 269.79 61.69C270.394 60.6611 271.279 59.8252 272.34 59.28C273.541 58.7468 274.847 58.4937 276.16 58.54C277.883 58.4159 279.589 58.9442 280.94 60.02C281.507 60.5782 281.946 61.2524 282.227 61.9964C282.509 62.7404 282.626 63.5365 282.57 64.33C282.567 64.9654 282.524 65.6001 282.44 66.23C282.35 66.93 282.21 67.7 282.03 68.53C281.812 69.5016 281.538 70.4598 281.21 71.4C280.962 72.1257 280.643 72.8257 280.26 73.49C279.652 74.5135 278.768 75.3453 277.71 75.89C276.514 76.4269 275.21 76.6801 273.9 76.63C272.178 76.7506 270.472 76.2307 269.11 75.17C268.538 74.6274 268.092 73.9651 267.805 73.2304C267.518 72.4958 267.397 71.7069 267.45 70.92V70.93ZM276.05 61.56C275.573 61.5427 275.106 61.7031 274.74 62.01C274.332 62.4121 274.033 62.9109 273.87 63.46C273.79 63.66 273.7 63.98 273.58 64.46C273.46 64.94 273.36 65.41 273.25 65.97C273.18 66.31 273.07 66.78 272.94 67.4C272.585 68.7999 272.331 70.2236 272.18 71.66C272.138 72.2126 272.294 72.7621 272.62 73.21C272.779 73.3904 272.976 73.5319 273.198 73.6238C273.42 73.7157 273.66 73.7554 273.9 73.74C274.389 73.7525 274.866 73.5853 275.24 73.27C275.668 72.8635 275.985 72.3539 276.16 71.79C276.29 71.42 276.45 70.86 276.64 70.12C276.83 69.38 277.01 68.53 277.2 67.59C277.39 66.65 277.52 65.95 277.62 65.27C277.706 64.7241 277.753 64.1726 277.76 63.62C277.805 63.0795 277.656 62.5406 277.34 62.1C277.176 61.9255 276.975 61.7899 276.752 61.7034C276.529 61.6168 276.289 61.5815 276.05 61.6V61.56ZM292.05 61.93C291.815 61.9196 291.58 61.9558 291.358 62.0364C291.137 62.1171 290.934 62.2406 290.76 62.4C290.334 62.8902 290.026 63.4719 289.86 64.1C289.445 65.4488 289.111 66.8213 288.86 68.21C288.639 69.2938 288.512 70.3945 288.48 71.5C288.442 72.0057 288.583 72.5087 288.88 72.92C289.033 73.0858 289.221 73.215 289.43 73.2981C289.64 73.3812 289.865 73.416 290.09 73.4C290.529 73.4046 290.954 73.244 291.28 72.95C291.707 72.5385 292.047 72.0454 292.28 71.5C292.466 71.0029 292.623 70.4954 292.75 69.98C292.92 69.34 293.1 68.58 293.28 67.72C293.46 66.86 293.58 66.09 293.66 65.46C293.745 64.9575 293.791 64.4495 293.8 63.94C293.838 63.4049 293.686 62.8735 293.37 62.44C293.215 62.267 293.023 62.1313 292.808 62.043C292.594 61.9547 292.362 61.916 292.13 61.93H292.05ZM291.71 74.61C291.295 75.2494 290.723 75.7725 290.05 76.13C289.329 76.4606 288.543 76.6214 287.75 76.6C287.157 76.6482 286.559 76.5765 285.994 76.3893C285.429 76.202 284.907 75.903 284.46 75.51C283.67 74.5807 283.282 73.3757 283.38 72.16C283.391 71.3999 283.455 70.6415 283.57 69.89C283.697 68.9834 283.877 67.9834 284.11 66.89C284.33 65.8532 284.604 64.8285 284.93 63.82C285.156 63.0777 285.464 62.3632 285.85 61.69C286.317 60.7917 287.005 60.0275 287.85 59.47C288.683 58.9832 289.635 58.7374 290.6 58.76C291.386 58.7397 292.165 58.9222 292.86 59.29C293.569 59.7115 294.166 60.2981 294.6 61L296.6 51.49H301.49L296.77 73.49C296.7 73.85 296.63 74.26 296.55 74.72C296.47 75.18 296.41 75.72 296.35 76.25H291.35L291.63 74.6L291.71 74.61ZM307.78 74.47C307.252 75.0894 306.602 75.5932 305.87 75.95C305.162 76.2765 304.39 76.4405 303.61 76.43C303.017 76.4521 302.426 76.3555 301.872 76.146C301.317 75.9365 300.81 75.6183 300.38 75.21C299.971 74.8088 299.649 74.327 299.436 73.7951C299.222 73.2632 299.122 72.6928 299.14 72.12C299.14 69.62 299.807 67.8267 301.14 66.74C302.47 65.64 304.7 65.09 307.8 65.09H308.8H309.49C309.6 64.54 309.67 64.09 309.71 63.79C309.725 63.5369 309.725 63.2831 309.71 63.03C309.751 62.5486 309.6 62.0705 309.29 61.7C309.119 61.545 308.918 61.4268 308.7 61.3528C308.481 61.2788 308.25 61.2506 308.02 61.27C307.76 61.2577 307.499 61.3004 307.257 61.3951C307.014 61.4899 306.793 61.6346 306.61 61.82C306.212 62.2886 305.968 62.868 305.91 63.48H301.15C301.192 62.7494 301.386 62.0356 301.72 61.3846C302.054 60.7335 302.521 60.1597 303.09 59.7C304.537 58.8097 306.225 58.3936 307.92 58.51C309.628 58.3784 311.336 58.7653 312.82 59.62C313.353 60.0292 313.775 60.5663 314.046 61.1815C314.317 61.7967 314.428 62.4703 314.37 63.14C314.368 63.5951 314.334 64.0495 314.27 64.5C314.203 65.0244 314.11 65.5451 313.99 66.06L312.56 72.71C312.44 73.3 312.33 73.88 312.26 74.46C312.19 75.04 312.11 75.62 312.07 76.22H307.46L307.69 74.43L307.78 74.47ZM308.97 67.79H308.53C307.307 67.6876 306.084 67.9898 305.05 68.65C304.665 68.9844 304.365 69.4051 304.173 69.8779C303.982 70.3507 303.906 70.862 303.95 71.37C303.914 71.8988 304.059 72.4241 304.36 72.86C304.486 73.0343 304.654 73.1747 304.847 73.2689C305.041 73.3631 305.255 73.4081 305.47 73.4C305.929 73.3832 306.376 73.2435 306.763 72.9955C307.15 72.7475 307.463 72.4003 307.67 71.99C308.365 70.6848 308.806 69.2596 308.97 67.79Z" fill="#F37321"/>
<path fill-rule="evenodd" clip-rule="evenodd" d="M121.25 15.61H128.48L125 10.92L128 8.48999L132.17 15.61H133.26L130.13 7.09L134.06 5.28L136.32 15.61H161.83L161.35 17.61H152.4L151.4 21.75C155.4 19.16 159.82 19.82 159.4 24.6C159.181 26.5774 158.651 28.5077 157.83 30.32C157.302 31.545 156.425 32.588 155.31 33.32C153.64 34.37 152.31 34.1 150.58 33.76C150.04 33.66 150.01 33.76 150.19 33.22L150.45 32.49C150.55 32.2 150.52 32.25 150.82 32.25C151.235 32.2638 151.649 32.1852 152.03 32.02C152.66 31.73 153.13 30.6 153.47 29.34C153.81 28.08 154.95 24.19 154.25 23C153.95 22.48 153.08 22.42 152.25 22.87C151.63 23.2627 151.099 23.7804 150.69 24.39L147.69 36.68H143.38L144.48 32.21C143.972 32.8082 143.345 33.2947 142.639 33.6389C141.934 33.9831 141.164 34.1775 140.38 34.21H140C139.412 34.2361 138.826 34.1212 138.292 33.8749C137.758 33.6286 137.29 33.258 136.928 32.7942C136.566 32.3303 136.32 31.7865 136.21 31.2083C136.101 30.63 136.132 30.034 136.3 29.47L137.3 24.84C137.64 23.5311 138.391 22.3657 139.442 21.5146C140.493 20.6634 141.789 20.1711 143.14 20.11H143.6C144.307 20.0642 145.01 20.2516 145.601 20.6436C146.192 21.0355 146.637 21.6104 146.87 22.28L148.12 17.58H135.86L131 36.76H126.74L127.88 32.29C126.69 33.5178 125.069 34.235 123.36 34.29H122.88C122.281 34.3355 121.68 34.2356 121.127 33.9987C120.575 33.7619 120.088 33.3951 119.708 32.9297C119.328 32.4643 119.066 31.9139 118.945 31.3255C118.823 30.737 118.846 30.1279 119.01 29.55L120.1 24.92C120.489 23.5856 121.29 22.4088 122.39 21.5589C123.49 20.709 124.831 20.2297 126.22 20.19H126.7C127.471 20.147 128.237 20.3366 128.898 20.7342C129.56 21.1319 130.086 21.7192 130.41 22.42L131.62 17.66H120.78L121.25 15.66V15.61ZM127.62 22.52H127.85C129.15 22.52 129.85 23.9 129.38 25.59L128.75 27.91L125.27 23.91C125.537 23.5222 125.886 23.1976 126.292 22.9591C126.698 22.7207 127.151 22.5742 127.62 22.53V22.52ZM127.91 30.02C127.644 30.4754 127.274 30.862 126.831 31.1486C126.389 31.4351 125.885 31.6138 125.36 31.67H125.14C123.84 31.67 123.14 30.29 123.6 28.6L124.38 25.73L127.85 30.1L127.91 30.02ZM138.07 10.29H142.07L141.37 13.9H137.37L138.06 10.29H138.07ZM144.93 22.81C145.122 22.8402 145.306 22.9085 145.471 23.0107C145.637 23.113 145.78 23.2473 145.892 23.4056C146.005 23.5639 146.085 23.7432 146.128 23.9328C146.17 24.1225 146.174 24.3187 146.14 24.51L144.31 30.74C144.156 31.1179 143.862 31.4216 143.489 31.5875C143.116 31.7534 142.694 31.7686 142.31 31.63C142.118 31.601 141.935 31.5339 141.769 31.4326C141.604 31.3314 141.461 31.198 141.348 31.0405C141.235 30.8829 141.155 30.7044 141.113 30.5154C141.07 30.3263 141.066 30.1307 141.1 29.94L143 23.7C143.158 23.3253 143.452 23.0247 143.824 22.8594C144.195 22.6941 144.616 22.6764 145 22.81H144.93ZM179.93 25.56C181.172 25.4102 182.33 24.853 183.222 23.9755C184.114 23.098 184.69 21.9496 184.86 20.71L184.93 20.02C185.007 19.3982 184.948 18.7673 184.758 18.1702C184.568 17.5732 184.252 17.0242 183.83 16.5608C183.409 16.0974 182.892 15.7306 182.315 15.4854C181.739 15.2402 181.116 15.1224 180.49 15.14H172.65L172.01 17.65H177.38C177.763 17.6376 178.143 17.7146 178.49 17.8749C178.838 18.0353 179.143 18.2744 179.382 18.5735C179.621 18.8725 179.787 19.2232 179.866 19.5975C179.946 19.9719 179.937 20.3597 179.84 20.73L179.75 21.17C179.566 22.0164 179.107 22.7782 178.445 23.337C177.783 23.8958 176.955 24.2203 176.09 24.26H171.26L170.95 25.54H179.95L179.93 25.56ZM179.85 25.56C182.34 25.78 183.67 28.01 182.85 30.7L182.62 31.43C182.141 32.8455 181.256 34.0887 180.075 35.0046C178.894 35.9204 177.47 36.4683 175.98 36.58H167.18L167.83 34.03H173.97C174.877 33.9584 175.738 33.6001 176.429 33.0069C177.119 32.4137 177.603 31.6163 177.81 30.73L177.91 30.26C178.33 28.44 177.28 26.96 175.59 26.96H170.64L170.98 25.55H179.88L179.85 25.56ZM187.09 15.62H226.87L226.4 17.62H218L216.86 22.14C220.63 19.9 223.33 20.52 224.24 22.21C224.86 23.37 224.42 24.47 224.11 25.64L221.71 34.55H217.16L219.36 25.97C220.36 22.57 218.36 22.39 216.36 24.19L213.26 36.48L208.43 36.64L209.99 30.76C206.21 33.01 203.5 32.4 202.59 30.76C201.97 29.59 202.41 28.49 202.71 27.32L205.27 17.67H201.66L196.66 36.67H192.42L197.42 17.67H193.69L188.69 36.67H184.45L187.06 26.84H183.29L183.97 24.19H187.76L189.49 17.65H186.63L187.1 15.65L187.09 15.62ZM213.5 17.62H209.85L207.47 27C206.47 30.44 208.53 30.59 210.54 28.73L213.47 17.68L213.5 17.62ZM201.8 35H205.8L205.1 38.61H201.1L201.8 35ZM190.67 8.76999H194.91C194.72 9.25999 194.48 10.43 194.83 10.91C195.44 11.75 197.7 11.69 198.49 10.79C198.862 10.1976 199.126 9.54422 199.27 8.85999H203.93C203.5 10.86 202.76 12.65 200.81 13.11C197.825 13.5761 194.784 13.5424 191.81 13.01C189.57 12.57 190.26 10.72 190.63 8.82999L190.67 8.76999ZM237.19 15.62H268.61L265.08 10.93L268.08 8.5L272.25 15.62H273.35L270.21 7.10001L274.15 5.29001L276.41 15.62H305.73L305.25 17.62H302.63L297.63 36.62H293.39L298.39 17.62H294.67L292.97 22.46C291.17 22.46 288.62 22.04 286.89 22.38C285.44 22.66 285.13 23.38 284.66 24.63C283.776 27.2482 283.062 29.9204 282.52 32.63C282.7 34.42 283.64 34.75 285.45 34.63C285.3 32.88 285.71 30.42 287.8 29.43C289.19 28.76 291.62 28.71 292.13 30.37C292.85 32.73 290.39 35.04 288.69 35.23C289.15 36.65 290.22 36.78 291.75 37.43L287.31 39.8C286.304 38.7699 285.674 37.4315 285.52 36C283.595 36.7722 281.446 36.7722 279.52 36C279.073 35.7716 278.696 35.426 278.43 35C277.693 33.8531 277.388 32.4812 277.57 31.13C277.696 29.5546 277.984 27.9963 278.43 26.48C278.851 24.781 279.758 23.2414 281.04 22.05C283.28 20.05 285.63 20.2 289.15 20.37L289.99 17.56H277.49L272.49 36.56H268.2L273.2 17.56H269.73L267.78 24.09L263.6 24.21L263.31 22.63C262.352 22.2763 261.321 22.1663 260.31 22.31C259.13 22.53 258.89 23.24 258.55 24.31C258.21 25.38 258.13 26.49 258.91 26.79C260.22 27.29 262.47 27.03 263.85 26.97C265.61 26.97 266.68 27.61 266.58 29.3C266.412 30.9512 265.909 32.5506 265.1 34C264.782 34.8621 264.155 35.575 263.34 36C261.52 36.75 258.23 36.51 256.34 36.52C255.34 36.52 254.28 36.52 253.34 36.4C252.927 36.3611 252.529 36.224 252.18 36C251.815 35.7432 251.519 35.3995 251.32 35C251.11 34.6368 250.982 34.2317 250.945 33.8134C250.909 33.3952 250.965 32.9741 251.11 32.58L251.48 30.91L256.56 31.01C256.01 32.28 255.86 33.17 256.2 33.69C256.91 34.76 259.46 34.23 260.33 33.69L261.33 30.4C261.56 29.63 261.1 29.3 260.4 29.14C259.44 29.0016 258.469 28.958 257.5 29.01C256.5 29.01 255.12 29.18 254.23 28.61C252.75 27.61 253.12 25.11 253.67 23.49C253.828 22.8742 254.126 22.3031 254.541 21.821C254.955 21.3389 255.475 20.9587 256.06 20.71C258.94 19.39 263.43 19.71 264.33 21.43L265.19 17.53H251.8L246.91 36.65H242.65L243.79 32.18C242.6 33.4078 240.979 34.125 239.27 34.18H238.79C238.191 34.2255 237.59 34.1255 237.037 33.8887C236.485 33.6519 235.998 33.2851 235.618 32.8197C235.238 32.3543 234.976 31.8039 234.855 31.2155C234.733 30.627 234.756 30.0179 234.92 29.44L236 24.9C236.389 23.5656 237.19 22.3889 238.29 21.5389C239.39 20.689 240.731 20.2098 242.12 20.17H242.6C243.37 20.1249 244.135 20.3137 244.796 20.7117C245.456 21.1097 245.98 21.6983 246.3 22.4L247.52 17.64H236.71L237.19 15.64V15.62ZM243.56 22.53H243.79C245.09 22.53 245.79 23.91 245.32 25.6L244.69 27.92L241.21 23.92C241.477 23.5322 241.826 23.2076 242.232 22.9691C242.638 22.7307 243.091 22.5842 243.56 22.54V22.53ZM243.85 30.03C243.584 30.4854 243.214 30.872 242.771 31.1586C242.329 31.4452 241.825 31.6237 241.3 31.68H241.08C239.78 31.68 239.08 30.3 239.54 28.61L240.32 25.74L243.79 30.11L243.85 30.03ZM255.05 38.38H259.05L258.35 41.93H254.35L255.05 38.38Z" fill="#F37321"/>
<path fill-rule="evenodd" clip-rule="evenodd" d="M94 17.32C93.7818 19.088 93.4274 20.8365 92.94 22.55C91.94 24.74 91.94 24.74 91.23 25.96C89.9606 27.7694 88.4689 29.4123 86.79 30.85C85.21 32.07 85.21 32.07 83.46 33.27C81.3458 34.4538 79.1656 35.5155 76.93 36.45C76.0203 36.6477 75.1374 36.9532 74.3 37.36C74.3 37.58 74.3 37.58 74.36 37.65C77.0996 37.9413 79.7245 38.9067 82 40.46C83.1636 41.3918 84.2382 42.4296 85.21 43.56C86.323 45.1352 87.2241 46.8499 87.89 48.66C88.05 49.41 88.22 50.14 88.38 50.87C88.49 52.06 88.49 53.24 88.49 54.43C88.0747 57.8032 86.8836 61.0344 85.01 63.87C83.82 65.53 83.82 65.53 82.65 67.01C80.65 69.13 78.15 71.52 75.45 72.74C73.45 74.21 70.82 75.13 68.56 76.07C67.13 76.48 65.64 76.97 64.22 77.42C63.0062 77.5896 61.804 77.8334 60.62 78.15C59.5636 78.2113 58.5118 78.3348 57.47 78.52C43.08 79.12 28.55 78.85 14.16 78.87C14.01 78.57 13.9 78.14 14.28 77.97C21.18 77.68 28.13 77.35 35.02 77.11C36.4026 77.1653 37.7874 77.1051 39.16 76.93C43.7449 76.853 48.3205 76.4889 52.86 75.84C53.13 75.71 54.35 75.47 56.17 74.98C65.17 72.08 73.3 66.39 77.06 57.47C77.1775 57.0304 77.3418 56.6046 77.55 56.2C77.75 55.2 77.95 54.2 78.17 53.2C78.22 50.72 78.22 50.72 78.17 49.75C77.8541 47.3168 76.9515 44.9969 75.54 42.99C74.92 42.29 74.3 41.6 73.7 40.91C70.9937 38.5668 67.6312 37.1143 64.07 36.75C64.07 36.46 64.16 36.42 64.42 36.27C65.1796 36.091 65.9224 35.8468 66.64 35.54C72.64 32.94 77.95 29.45 81.32 23.71C81.65 22.94 82 22.16 82.32 21.37C82.9023 19.459 83.2777 17.4911 83.44 15.5C83.36 14.63 83.31 13.75 83.25 12.86C83.07 12.29 82.91 11.71 82.74 11.13C82.1204 9.57956 81.1876 8.1736 80 7C77.9591 5.33305 75.5652 4.15316 73 3.54999C72.9919 3.49026 72.9919 3.42972 73 3.37C74.4452 3.23013 75.9018 3.26033 77.34 3.45999C78.3045 3.64519 79.2798 3.76877 80.26 3.82999L82.58 4.32001C85.0485 4.91375 87.3962 5.92861 89.52 7.32001L91.4 9C91.91 9.79 92.4 10.55 92.93 11.32C93.17 12.07 93.42 12.8 93.68 13.53C93.83 14.8 93.97 16.06 94.01 17.36L94 17.32ZM73.53 14C73.07 16.55 73.07 16.55 72.71 18.19C71.864 20.386 70.7488 22.4686 69.39 24.39L69.19 24.5C65.4062 28.7134 60.5767 31.8526 55.19 33.6C54.09 33.86 54.09 33.86 53.96 33.95V34.2C54.33 34.57 55.04 34.5 55.51 34.51C55.8645 34.6303 56.2357 34.6944 56.61 34.7C58.6369 35.297 60.5843 36.1364 62.41 37.2C62.55 37.38 63.41 37.98 64.83 39.27C65.25 39.79 65.67 40.27 66.09 40.77C66.9471 42.0792 67.6454 43.4857 68.17 44.96C68.33 45.73 68.5 46.5 68.66 47.24C68.7386 48.2379 68.762 49.2395 68.73 50.24C68.55 51.3 68.37 52.34 68.21 53.38C67.93 54 67.82 54.49 67.33 55.75C66.2798 57.9203 64.9703 59.9551 63.43 61.81C61.484 63.7883 59.3914 65.6169 57.17 67.28C56.7171 67.436 56.3016 67.6846 55.95 68.01C52.5586 69.8335 49.0152 71.3592 45.36 72.57C43.06 73.04 40.76 73.48 38.43 73.79C34.12 74.02 34.12 74.02 32.9 74.15C29.12 74.26 14.52 74.99 14.26 74.94C14.1722 74.788 14.126 74.6155 14.126 74.44C14.126 74.2645 14.1722 74.092 14.26 73.94C18.16 72.81 22.18 71.5 26.13 70.53C26.46 70.38 33.13 68.47 33.79 68.21C36.79 67.59 39.72 66.43 42.67 65.66C43.33 65.42 46.87 64.46 50.15 63.47C53.05 62.78 56.15 61.87 58.94 60.9C59.0418 60.7359 59.0809 60.5406 59.05 60.35L58.83 60.19C58.56 60.19 54.78 61.19 37.13 65.42C37.0612 65.4706 36.9875 65.5142 36.91 65.55C33.67 66.17 30.42 67.12 27.19 67.85C26.94 67.94 26.7 68.03 26.46 68.1C14.21 71.02 14.21 71.02 13.93 71.1H13.59C13.33 70.77 13.19 70.72 13.24 70.26C14.2769 69.5784 15.3483 68.9509 16.45 68.38C17.03 68.13 22.63 64.95 23.2 64.7C27.65 62.04 32.28 59.58 36.75 56.95C40.5 54.95 44.28 52.74 48.04 50.68L48.42 50.38C51.28 48.92 54.07 47.27 56.88 45.7C58.2311 45.0962 59.5205 44.3628 60.73 43.51C60.7774 43.447 60.8079 43.3728 60.8184 43.2946C60.8289 43.2164 60.8191 43.1369 60.7899 43.0636C60.7608 42.9903 60.7134 42.9257 60.6521 42.876C60.5908 42.8264 60.5178 42.7933 60.44 42.78C57.72 44.18 55.02 45.59 52.32 46.97C52.0098 47.0556 51.7182 47.198 51.46 47.39C43.73 51.39 43.73 51.39 43.09 51.61C42.22 52.13 39.88 53.3 39.68 53.47C36.33 55.14 32.95 56.91 29.68 58.7C29.5785 58.7307 29.4749 58.7541 29.37 58.77C27.57 59.98 25.37 60.77 23.52 61.93C20.29 63.53 16.99 65.19 13.82 66.93C13.45 67.02 10.99 68.71 11.26 67.05C12.39 66 13.53 64.92 14.66 63.84C15.0714 63.3925 15.5233 62.9841 16.01 62.62C17.2298 61.1609 18.612 59.8457 20.13 58.7C20.22 58.57 20.33 58.45 20.44 58.3C23.39 55.58 26.36 52.77 29.19 49.91C37.63 41.83 46.1167 33.7933 54.65 25.8C54.8787 25.4478 55.1827 25.1506 55.54 24.93C60.72 19.93 61.05 19.58 67.18 13.75C67.58 13.44 67.58 13.44 67.73 13.22C67.73 12.22 67.14 12.67 66.59 13.07C65.08 14.59 63.44 15.95 61.89 17.41C61.31 18.23 60.27 18.84 59.57 19.64C58.0403 21.186 56.4101 22.6291 54.69 23.96C53.4387 25.2234 52.1022 26.3995 50.69 27.48C45.84 32.13 40.53 36.36 35.69 41.05C33.32 42.91 31.27 45.28 28.87 47.1C28.23 47.8 28.23 47.8 23.94 51.79L23.49 52.1C18.71 56.51 13.8 60.85 8.92999 65.16C8.39999 65.16 8.26 65.03 8.31 64.46C14.15 55.97 20 47.46 25.77 38.9C28.1 35.36 30.42 31.73 32.9 28.28C34.65 25.69 34.79 25.4 35.41 24.56C39.92 17.87 44.64 11.16 49.05 4.39001C49.58 3.86001 49.44 3.52 48.73 3.59C44.99 8.84 41.1 14.04 37.42 19.35C36.8 20.13 35.6 21.9 23.07 39.46C22.79 39.94 18.29 46.08 17.96 46.46C13.96 52.11 9.88001 57.8 5.76001 63.36C5.54001 63.53 5.31999 63.71 5.04999 63.53V63C7.97999 55.35 11.05 47.66 14.29 40.11C18.98 28.36 23.63 16.55 28.39 4.82001C28.3953 4.65218 28.3383 4.48831 28.23 4.35999C28.1457 4.35433 28.0611 4.36655 27.9818 4.39584C27.9026 4.42514 27.8304 4.47086 27.77 4.53C24.16 12.66 20.4 20.78 16.77 28.89C16.62 29.09 12.77 37.65 11.7 39.83C11.22 40.98 10.84 41.68 10.35 42.83C7.23001 49.4 4.25999 56.09 1.26999 62.73C1.09663 62.8187 0.904702 62.8649 0.709991 62.8649C0.515281 62.8649 0.323354 62.8187 0.149994 62.73C0.556747 60.7422 1.06408 58.7764 1.67001 56.84C1.80001 56.56 2.22 54.84 2.34 54.56C2.45 53.95 2.58001 53.66 4.04001 48.03C4.81001 45.22 5.56999 42.41 6.35999 39.6C6.45999 39 13.65 13.16 13.7 12.76C13.94 11.94 14.18 11.12 14.43 10.3C15.35 6.67999 16.31 3.29999 17.06 0.429993C17.1243 0.269938 17.2406 0.136115 17.39 0.0499878C30.19 0.0499878 43.01 0.0499878 55.81 0.0499878C59.7725 0.171397 63.677 1.03643 67.32 2.60001C67.7212 2.91816 68.1614 3.18365 68.63 3.39001C69.4761 3.99535 70.275 4.66393 71.02 5.39001C71.42 5.98001 71.83 6.56001 72.24 7.14001C72.48 7.75001 72.72 8.35001 72.97 8.95001C73.16 9.83001 73.34 10.7 73.52 11.56C73.52 12.36 73.52 13.14 73.52 13.93L73.53 14Z" fill="#F37321"/>
</g>
<defs>
<clipPath id="clip0_4_1515">
<rect width="315" height="79" fill="white"/>
</clipPath>
</defs>
</svg>
