<svg width="85" height="24" viewBox="0 0 85 24" fill="none" xmlns="http://www.w3.org/2000/svg">
<path fill-rule="evenodd" clip-rule="evenodd" d="M13.4055 14.3123L9.10551 14.311C9.10551 14.311 8.97542 14.2966 8.90975 14.1826C8.84534 14.0712 8.86229 14.0119 8.86229 14.0119V10.0038C8.86229 10.0038 8.8572 9.86144 8.93348 9.77627C9.00678 9.69449 9.14153 9.69068 9.14153 9.69068H14.8072C14.8072 9.69068 14.8979 9.67669 15.0021 9.73475C15.0924 9.78347 15.142 9.97161 15.142 9.97161V14.0847C15.142 14.0847 15.0924 14.1992 15.0428 14.2394C14.9983 14.2775 14.9051 14.3097 14.9051 14.3097L13.4055 14.3123ZM13.3725 7.11271V2.67881C17.9258 3.34153 21.4237 7.26186 21.4237 11.9987C21.4237 16.7352 17.9339 20.661 13.3809 21.3258L13.3733 16.8614H15.1403C16.6153 16.8614 17.6987 15.7559 17.6987 14.2814V9.66144C17.6987 8.18729 16.5242 7.11059 15.0492 7.11059L13.3725 7.11271ZM6.25254 9.66144C6.25254 8.18729 7.14958 7.10339 8.62331 7.10339L10.5864 7.09746V2.68941C6.05593 3.37288 2.58093 7.27797 2.58093 11.9987C2.58093 16.7203 6.05636 20.6356 10.5864 21.3182L10.5792 16.8936L8.93729 16.8924C7.46186 16.8924 6.25254 15.7555 6.25254 14.2814V9.66144ZM0 11.9987C0 5.37203 5.37415 0 12.0021 0C18.6309 0 24.0038 5.37246 24.0038 11.9987C24.0038 18.6284 18.6305 24 12.0021 24C5.37415 24 0 18.6288 0 11.9987Z" fill="#B10A32"/>
<path fill-rule="evenodd" clip-rule="evenodd" d="M80.1873 22.967C80.1873 22.967 80.2021 22.8822 80.2386 22.8445C80.2742 22.8085 80.486 22.7543 80.5737 22.6471C80.6555 22.5386 82.4127 18.5602 82.4127 18.5602L82.5195 18.5335L84.1352 22.2411C84.2437 22.4852 84.3174 22.6488 84.3775 22.7098C84.4428 22.7665 84.6051 22.8356 84.7136 22.8441C84.778 22.8496 84.7407 22.9432 84.7407 22.9432L82.9661 22.942C82.9661 22.942 82.8479 22.8509 82.9661 22.8055C83.039 22.7788 83.3237 22.6907 83.3682 22.5106C83.3898 22.4297 83.35 22.2407 83.2691 22.0246C83.2127 21.8721 83.053 21.5373 82.9627 21.4738C82.8818 21.417 82.5479 21.4471 82.2403 21.4386C81.9614 21.4297 81.5924 21.4199 81.4737 21.4827C81.328 21.5602 81.1657 22.1733 81.1318 22.2674C81.0996 22.3589 81.1318 22.5733 81.2119 22.6369C81.3483 22.7441 81.6199 22.8263 81.7165 22.8534C81.7521 22.8636 81.7432 22.9619 81.7432 22.9619L80.1873 22.967ZM82.8712 21.1496C82.9174 21.0894 82.7487 20.7585 82.5932 20.4102C82.4759 20.1496 82.278 19.6415 82.2136 19.6623C82.1682 19.6759 82.0085 20.0767 81.8801 20.3649C81.7445 20.6771 81.5814 21.067 81.6466 21.1314C81.6856 21.1704 81.9886 21.1949 82.2407 21.1856C82.5309 21.175 82.8314 21.2038 82.8712 21.1496ZM33.5021 22.0208C33.5975 21.5593 33.4932 21.2543 33.2233 21.028C33.0953 20.9225 32.7525 20.7581 32.4742 20.7581C32.0894 20.7581 31.8386 20.7221 31.8386 21.1504L31.8424 22.1924C31.8424 22.7788 32.5729 22.7165 32.5729 22.7165C33.1678 22.717 33.4301 22.3729 33.5021 22.0208ZM45.0377 22.7962C45.0445 22.8055 45.2644 22.7424 45.3644 22.5903C45.4157 22.5077 45.4818 22.3962 45.4818 22.1208V19.3602C45.4818 19.1899 45.4271 19.0246 45.3542 18.956C45.2848 18.8848 45.1712 18.8115 44.9216 18.7932C44.9216 18.7932 44.7322 18.675 44.9216 18.6221C44.9305 18.6301 46.5907 18.6191 46.5907 18.6191C46.5907 18.6191 46.742 18.667 46.6089 18.7382C46.489 18.8021 46.3822 18.7572 46.2852 18.8661C46.2165 18.9415 46.1767 19.0869 46.1759 19.3229V20.6856C46.1759 20.7399 46.228 20.8208 46.2453 20.8221C46.3364 20.8314 46.3911 20.7204 46.4356 20.6958C46.617 20.542 46.8958 20.2411 47.1483 20C47.6025 19.5682 47.8318 19.3458 47.9064 19.2441C48.0047 19.1081 48.0254 18.9191 47.9682 18.8555C47.9064 18.7835 47.7712 18.7835 47.6538 18.7466C47.6538 18.7466 47.5462 18.6746 47.672 18.6297C47.672 18.639 49.1585 18.6297 49.1585 18.6297C49.1585 18.6297 49.214 18.7649 49.1326 18.8021C48.9259 18.8204 48.8496 18.8636 48.7271 18.9284C48.6089 18.9877 48.3623 19.1606 48.1504 19.3704C48.1504 19.3704 47.0631 20.3055 47.1042 20.4149C47.167 20.5869 47.7945 21.3221 48.2208 21.9132C48.4038 22.1657 48.5864 22.4826 48.6907 22.5623C48.7924 22.6356 48.9521 22.7873 49.0881 22.7873C49.2453 22.7873 49.1699 22.931 49.1699 22.931C49.1699 22.931 48.3225 22.9009 48.1767 22.9153C48.0767 22.9225 47.9581 22.7424 47.9606 22.7424C47.6271 22.3098 46.6805 20.9843 46.6085 20.9017C46.572 20.875 46.1831 21.1632 46.1759 21.4076C46.1835 21.3988 46.1759 22.2106 46.1759 22.2106C46.1759 22.4513 46.2314 22.5729 46.2992 22.6432C46.4191 22.7593 46.7161 22.7958 46.7161 22.7873C46.8517 22.8242 46.7602 22.9153 46.7602 22.9153H44.9661C44.9661 22.9153 44.9047 22.8246 45.0377 22.7962ZM39.4775 22.7992C39.6 22.7517 39.8216 22.6127 39.9064 22.5178C39.9881 22.4208 40.0509 22.3382 40.0509 21.9949C40.0509 21.9949 40.0322 19.9013 40.0322 19.5932C40.0322 19.3437 39.9436 19.0098 39.8263 18.9182C39.7072 18.8276 39.5674 18.7721 39.4199 18.7653C39.4199 18.7653 39.3025 18.6394 39.4288 18.6119C39.4648 18.6043 40.5551 18.6119 40.5551 18.6119L43.225 21.5606C43.225 21.5606 43.3292 21.6903 43.3873 21.661C43.3987 21.6543 43.4123 21.5305 43.4131 21.5165C43.4237 21.2911 43.4157 19.556 43.4157 19.556C43.4157 19.3704 43.4521 19.1623 43.3246 19.0174C43.1631 18.8331 42.842 18.8004 42.7483 18.7649C42.675 18.7382 42.675 18.6564 42.7564 18.6297C42.7564 18.6543 44.1822 18.6297 44.1822 18.6297C44.2814 18.639 44.2081 18.7382 44.2081 18.7382C44.0475 18.7835 43.8886 18.8191 43.8131 18.9182C43.7229 19.0356 43.6767 19.2127 43.6767 19.556V22.9924H43.5551C43.5551 22.9924 40.6246 19.8068 40.4475 19.6318C40.367 19.55 40.3398 19.6585 40.3398 19.7661C40.3398 19.8746 40.3309 21.9568 40.3309 21.9568C40.3309 22.3161 40.4034 22.5356 40.6309 22.6547C40.7199 22.7 40.9492 22.7589 41.0521 22.7784C41.0979 22.7873 41.1203 22.9174 41.1203 22.9174H39.478C39.4775 22.9182 39.4339 22.8149 39.4775 22.7992ZM34.614 22.9284C34.614 22.9284 34.6301 22.8428 34.667 22.806C34.7021 22.7691 34.914 22.7157 35 22.6077C35.0818 22.4992 36.8403 18.5216 36.8403 18.5216L36.9492 18.4954L38.564 22.2026C38.6716 22.4445 38.7428 22.6098 38.8076 22.6704C38.8708 22.7284 39.0331 22.7962 39.1407 22.8055C39.2051 22.8106 39.1691 22.9038 39.1691 22.9038L37.3729 22.9496C37.3729 22.9496 37.3106 22.8504 37.4271 22.8051C37.4996 22.7767 37.7525 22.6521 37.7962 22.4704C37.8174 22.389 37.7792 22.2021 37.6983 21.9835C37.6411 21.8322 37.4814 21.4975 37.3903 21.4348C37.3106 21.3767 36.9763 21.4076 36.6695 21.3988C36.3894 21.3899 36.0203 21.3793 35.9038 21.4437C35.7564 21.5229 35.5945 22.1327 35.5593 22.228C35.528 22.3204 35.5593 22.5356 35.6411 22.5979C35.7767 22.7043 36.0479 22.7869 36.147 22.8132C36.1814 22.8238 36.1729 22.9221 36.1729 22.9221L34.614 22.9284ZM37.3009 21.1106C37.3445 21.0521 37.1767 20.7204 37.0208 20.3716C36.903 20.1089 36.7055 19.6026 36.6411 19.6225C36.5953 19.6356 36.4339 20.0373 36.3081 20.3263C36.1708 20.6365 36.0068 21.0276 36.0729 21.092C36.1119 21.1314 36.4157 21.1543 36.6678 21.1454C36.9576 21.1369 37.2597 21.1649 37.3009 21.1106ZM33.2864 19.7314C33.2898 19.442 33.1216 19.1725 32.9339 19.0174C32.8259 18.9284 32.6182 18.8191 32.3839 18.8191C32.0585 18.8191 31.8449 18.8632 31.8449 19.1704L31.8424 20.3157C31.8161 20.5869 32.464 20.5191 32.464 20.5191C33.0068 20.5195 33.2767 20.4437 33.2864 19.7314ZM30.553 22.7945C30.7695 22.7339 30.9284 22.6797 30.9941 22.5988C31.067 22.5077 31.0928 22.4504 31.0945 22.2089V19.3178C31.0941 19.1441 31.0496 19.0454 30.9496 18.9369C30.7551 18.725 30.5263 18.864 30.4903 18.7843C30.4619 18.7229 30.4712 18.6153 30.4712 18.6153H32.2911C32.811 18.6153 33.1555 18.6377 33.4657 18.7941C33.7 18.9102 33.9801 19.1907 33.9801 19.6098C33.9801 20.192 33.5106 20.3992 33.3212 20.5348C33.6822 20.6322 34.2775 20.8407 34.2775 21.5174C34.2775 22.2191 33.8898 22.6623 33.5195 22.7797C33.2665 22.8593 32.95 22.9085 32.5877 22.911H30.5525V22.7945H30.553ZM56.7008 22.8318C56.7008 22.8445 56.9267 22.7602 57.0254 22.6801C57.0966 22.6225 57.1521 22.5021 57.1521 22.2187L57.161 19.4882C57.161 19.2577 57.1339 19.1534 57.0525 19.0276C56.9716 18.9021 56.772 18.8738 56.5386 18.8377C56.5386 18.8377 56.3674 18.7115 56.4881 18.6589C56.4767 18.6572 57.7542 18.6678 58.3691 18.6754C59.0013 18.6856 59.6314 18.6238 59.6958 18.6674C59.7767 18.7216 59.7348 19.3271 59.7487 19.4424C59.7585 19.5047 59.7081 19.6326 59.6517 19.6403C59.578 19.6492 59.5614 19.5212 59.5614 19.4424C59.5614 19.2805 59.4225 19.0911 59.3894 19.0454C59.3025 18.9288 59.1352 18.9089 59.0551 18.9089H58.0852C57.9992 18.9089 57.975 18.9055 57.9462 18.9365C57.9229 18.9653 57.8856 19.0356 57.8818 19.1271V20.3263C57.8818 20.3983 57.886 20.4988 57.9288 20.5149C58.0271 20.55 58.6771 20.5415 58.6771 20.5415C58.7856 20.5415 58.9106 20.4327 58.9487 20.3712C59.0034 20.2721 59.097 20.1547 59.1458 20.0102C59.1729 19.9284 59.317 19.8644 59.317 20.0462C59.317 20.1598 59.3352 21.4513 59.3352 21.4513C59.2631 21.5517 59.2004 21.4254 59.2004 21.4254C59.1525 21.1742 59.1076 21.0839 59.0267 21.0017C58.9513 20.9195 58.8398 20.8212 58.6775 20.8212C58.6775 20.8212 58.1314 20.8132 58.1174 20.8119C57.9097 20.7932 57.9004 21.0182 57.8932 21.1013C57.8932 21.1102 57.8826 22.2555 57.8826 22.2555C57.8932 22.3725 57.9191 22.5288 57.9928 22.5983C58.0657 22.661 58.25 22.7928 58.4975 22.8136C58.6131 22.8242 58.5331 22.9572 58.5331 22.9572H56.6568C56.6568 22.9572 56.567 22.8962 56.7008 22.8318ZM52.2097 19.1437C52.6085 18.7627 53.1873 18.5975 53.7699 18.5949C54.3542 18.5949 54.8377 18.6852 55.2407 19.0716C55.6729 19.4873 55.8953 20 55.8996 20.6958C55.8996 21.3992 55.6737 21.9725 55.2225 22.3894C54.822 22.7619 54.2593 22.9818 53.6873 22.9835C53.0797 22.9835 52.4953 22.8204 52.0924 22.4089C51.6869 21.992 51.5369 21.4297 51.5339 20.7665C51.5335 20.0767 51.772 19.5661 52.2097 19.1437ZM52.7682 22.2831C53.1259 22.689 53.3742 22.7793 53.8691 22.7793C54.2119 22.7793 54.5576 22.5763 54.825 22.2564C55.05 21.9843 55.1585 21.5077 55.1585 20.803C55.1585 20.0958 54.9648 19.6246 54.6983 19.2992C54.392 18.9187 54.061 18.8314 53.6797 18.8293C53.2941 18.8293 52.9042 18.9288 52.65 19.217C52.3746 19.5318 52.2496 20.0352 52.2462 20.7229C52.2462 21.403 52.5691 22.0572 52.7682 22.2831ZM75.3987 22.7962C75.3987 22.8055 75.6877 22.7064 75.7962 22.5432C75.864 22.4424 75.9072 22.3458 75.9072 22.0034L75.8682 19.306C75.85 19.1 75.6945 18.953 75.625 18.9182C75.5348 18.8733 75.3873 18.8835 75.3089 18.8195C75.3089 18.8195 75.1292 18.6856 75.2822 18.6568C75.2708 18.6623 76.3729 18.6208 76.3869 18.6623C76.5093 18.7386 78.2318 20.6496 78.9424 21.4716C79.1784 21.7504 79.2687 21.7047 79.2593 21.4356C79.2682 21.4356 79.2682 19.4144 79.2682 19.4144C79.2682 19.1271 79.1242 19.0271 79.0623 18.9818C78.9305 18.8877 78.8072 18.8195 78.5924 18.7827C78.5924 18.7827 78.4119 18.7212 78.5924 18.6623C78.6013 18.6674 80.0076 18.6623 80.0076 18.6623C80.1068 18.6568 80.1068 18.7386 80.0076 18.7653C79.8818 18.7653 79.7314 18.8674 79.6483 18.9632C79.5674 19.0593 79.525 19.2738 79.525 19.617L79.5208 22.9157C79.5119 23.0678 79.3678 22.9865 79.3678 22.9865C79.3678 22.9865 76.6788 20.056 76.3593 19.6966C76.3568 19.6924 76.3097 19.6043 76.2318 19.6598C76.1831 19.6949 76.178 19.7119 76.1831 19.7928C76.1831 19.803 76.1915 22.0034 76.1915 22.0034C76.1915 22.3589 76.3148 22.5547 76.4182 22.6615C76.4843 22.731 76.5953 22.7907 76.8331 22.8136C76.9771 22.8055 76.9513 22.9577 76.9513 22.9577L75.3004 22.9589C75.3004 22.9589 75.2733 22.8318 75.3987 22.7962ZM72.8911 22.842C72.9538 22.8246 73.0924 22.7492 73.1716 22.689C73.247 22.6276 73.2907 22.5076 73.2932 22.2551L73.3055 19.4691C73.2966 19.2886 73.2966 19.0721 73.2081 18.9822C73.0763 18.8517 72.9284 18.7954 72.6619 18.7831C72.6619 18.7831 72.5483 18.7216 72.6619 18.6627C72.667 18.6754 74.4538 18.6627 74.4538 18.6627C74.597 18.686 74.4347 18.7831 74.4347 18.7831C74.289 18.7843 74.1758 18.8606 74.1178 18.9293C74.0369 19.0276 74.0398 19.2297 74.0275 19.3797V22.2555C74.0275 22.5055 74.111 22.6534 74.1907 22.7178C74.2661 22.7733 74.3572 22.8208 74.6233 22.8437C74.7945 22.8699 74.6233 22.9598 74.6233 22.9598L72.8911 22.9585C72.7547 22.9157 72.8911 22.842 72.8911 22.842ZM67.2619 22.8246C67.2534 22.8254 67.5326 22.6424 67.5962 22.5712C67.6597 22.5047 67.7144 22.3937 67.7144 22.1115L67.7326 19.4246C67.7326 19.1911 67.6856 19.0615 67.6335 18.9733C67.5699 18.8636 67.4233 18.8475 67.1809 18.8288C67.1809 18.8288 66.8398 18.7471 67.1551 18.667C67.1525 18.6797 68.8415 18.667 68.8415 18.667C69.022 18.675 68.8695 18.7822 68.8695 18.7822C68.7339 18.7835 68.6246 18.8284 68.5568 18.911C68.4953 18.9894 68.4352 19.1271 68.4492 19.3649V20.3157C68.4492 20.3157 68.4352 20.5415 68.6339 20.5335C68.9237 20.5195 70.2195 20.5581 70.4216 20.542C70.6551 20.5233 70.7004 20.3784 70.7004 20.2708C70.7102 20 70.7004 19.3924 70.7004 19.3924C70.7004 19.161 70.6369 18.9839 70.5674 18.911C70.4996 18.8424 70.3424 18.8021 70.1021 18.7822C69.9326 18.7568 70.0509 18.6619 70.0509 18.6619L71.8449 18.6632C71.8449 18.6632 71.9352 18.7649 71.792 18.7835C71.6453 18.775 71.5877 18.839 71.5157 18.911C71.4445 18.9814 71.4114 19.131 71.4114 19.3649L71.4123 22.2284C71.4123 22.4632 71.4585 22.5373 71.5297 22.6077C71.5992 22.6704 71.6763 22.7814 71.917 22.806C72.0436 22.8246 72.0975 22.9504 71.9542 22.9589C71.9627 22.9763 70.3123 22.9954 70.3123 22.9954C70.3123 22.9954 70.0945 22.8962 70.3394 22.8136C70.3394 22.8242 70.5288 22.7517 70.6017 22.6343C70.6479 22.5555 70.6826 22.3458 70.6826 22.2026C70.6826 22.2026 70.6911 21.2004 70.6911 21.0462C70.6911 20.939 70.6547 20.7937 70.5089 20.8221C70.5089 20.8221 68.7513 20.8161 68.6064 20.8026C68.5072 20.7937 68.4432 20.8475 68.4432 21.0382C68.4483 21.0339 68.4432 22.1763 68.4432 22.1763C68.4432 22.4093 68.5708 22.6004 68.6428 22.6708C68.7123 22.7369 68.8449 22.8026 69.0856 22.8246C69.2932 22.8513 69.1386 22.9589 69.1386 22.9589L67.2195 22.9577C67.2195 22.9577 67.1106 22.8602 67.2619 22.8246ZM65.4678 18.7839C65.697 18.9017 65.8826 19.0004 65.9843 18.992C66.0441 18.9852 66.0953 18.8598 66.1174 18.7839C66.2174 18.6483 66.2521 18.8924 66.2521 18.8835L66.3348 20.1C66.3348 20.1 66.2521 20.2178 66.1725 20.1C66.0848 19.8123 65.8589 19.4928 65.7025 19.3246C65.4674 19.0716 65.0428 18.8195 64.5928 18.8102C64.0805 18.8021 63.722 19.0136 63.4572 19.3437C63.2305 19.6225 63.0962 20.0915 63.0962 20.5788C63.0962 21.1543 63.3411 21.8233 63.6839 22.1475C64.0148 22.4632 64.3699 22.6229 64.8394 22.6254C65.1729 22.6254 65.3623 22.5339 65.6479 22.3729C65.8102 22.2839 66.0292 22.0466 66.228 21.8589C66.3437 21.7598 66.4051 21.8949 66.4051 21.8949C66.4233 21.9945 66.0509 22.3822 65.7487 22.6254C65.522 22.806 64.9352 23.014 64.6398 23.014C63.9398 23.014 63.5364 22.9763 62.925 22.4276C62.5784 22.1153 62.3831 21.4704 62.3788 20.8517C62.3788 20.2221 62.5809 19.6911 62.9788 19.2619C63.3992 18.8115 63.942 18.5856 64.6216 18.5856C64.8576 18.586 65.2428 18.667 65.4678 18.7839Z" fill="black"/>
<path fill-rule="evenodd" clip-rule="evenodd" d="M47.7513 6.35761C47.7792 6.30295 47.7877 6.40295 47.9199 6.54914C48.0525 6.69406 47.9712 6.73855 48.0517 6.85592C48.1313 6.97456 48.1326 6.9127 48.1123 7.0466C48.0932 7.1805 48.0669 7.15423 47.9474 7.25084C47.8318 7.34914 47.9292 7.3055 47.8144 7.1877C47.6979 7.06778 47.7996 6.89956 47.6843 6.79829C47.5678 6.69745 47.5585 6.69745 47.5868 6.53643C47.6165 6.37414 47.7241 6.411 47.7513 6.35761ZM47.297 6.80126C47.3508 6.76609 47.4462 6.93092 47.5178 7.10253C47.5864 7.27414 47.5873 7.2377 47.6487 7.42795C47.7102 7.61736 47.6928 7.52753 47.5377 7.7055C47.3813 7.88346 47.1746 7.86185 46.9665 8.04914C46.7572 8.23643 46.6669 8.18134 46.4758 8.31397C46.2856 8.4466 46.3135 8.40084 46.1513 8.33643C45.9898 8.27117 45.9991 8.22711 46.1089 8.09236C46.2182 7.95931 46.2 8.03092 46.2809 7.95931C46.3635 7.88855 46.1835 7.87753 46.2741 7.80634C46.3661 7.73558 46.3559 7.83516 46.5008 7.67414C46.6483 7.5127 46.6025 7.48685 46.658 7.38855C46.7127 7.28982 46.7763 7.17372 46.9313 7.10211C47.0869 7.03346 47.2424 6.8377 47.297 6.80126ZM48.4805 2.96355C48.536 2.93643 48.6517 2.93855 48.7784 2.95761C48.8504 2.96863 48.7229 2.93855 49.0398 2.92499C49.2021 2.91778 49.2898 3.00041 49.4339 3.08346C49.7699 3.27668 50.0059 3.34533 50.078 3.45041C50.1398 3.54151 50.1864 3.71567 50.1631 3.84914C50.1432 3.95634 50.1318 4.1627 49.9953 4.27711C49.8763 4.3788 49.8097 4.4699 49.7513 4.52753C49.6957 4.58092 49.7165 4.74236 49.6195 4.77795C49.5038 4.82202 49.4144 4.73982 49.2703 4.7377C49.1157 4.73643 48.9987 4.82456 48.9551 4.77838C48.9229 4.74617 48.8864 4.69024 48.8284 4.65126C48.7763 4.61482 48.6974 4.64109 48.6868 4.57668C48.6703 4.47711 48.5453 4.21355 48.45 4.11567C48.4135 4.0788 48.5055 3.88939 48.4534 3.82668C48.3996 3.76355 48.4089 3.66397 48.4013 3.60084C48.3924 3.53558 48.3945 3.4805 48.3945 3.41185C48.3953 3.34999 48.3118 3.24914 48.3513 3.16778C48.3805 3.11524 48.4224 2.99194 48.4805 2.96355ZM47.0224 4.09745C46.9894 3.92584 47.1864 3.97329 47.3674 3.87668C47.5496 3.77965 47.4593 3.80507 47.5106 3.94956C47.5618 4.09533 47.4576 3.95931 47.4106 4.1555C47.3627 4.35295 47.3627 4.31778 47.2352 4.40592C47.1085 4.49363 47.1267 4.39617 47.0657 4.29575C47.0034 4.19617 47.0572 4.26863 47.0224 4.09745ZM44.8614 3.00973C44.825 2.92456 45.0453 2.63304 45.6301 1.90253C46.15 1.25253 47.2279 0.82414 47.6716 0.667784C47.7652 0.632615 48.0796 0.541937 48.1864 0.519479C48.2674 0.503801 48.5953 0.488547 48.6737 0.462276C48.8267 0.410157 49.086 0.430072 49.133 0.405072C49.2457 0.350835 49.3648 0.322021 49.4953 0.293632C49.6457 0.259733 49.8364 0.34236 49.9712 0.31736C50.2368 0.26736 50.4428 0.418632 50.5911 0.494903C51.1008 0.763547 51.6563 1.70634 51.8665 2.24067C52.075 2.77372 52.5063 4.27372 52.5822 5.49999C52.6309 6.286 52.6021 8.3449 52.5724 8.66016C52.5169 9.22117 52.4936 10.5415 52.4551 10.7928C52.4089 11.0966 52.3741 11.6199 52.2631 11.808C52.0597 12.1546 51.2301 12.7729 51.0517 12.9352C50.9059 13.0691 50.2771 13.6152 50.2068 13.6097C50.1148 13.6042 50.0097 13.4182 49.8135 13.228C49.4644 12.8839 48.5513 12.564 48.1674 12.3513C47.7898 12.1436 46.5517 12.0288 45.7953 11.9809C45.2551 11.9462 44.428 11.8741 44.4008 11.8127C44.3729 11.739 44.3114 11.7648 44.2296 11.7623C44.1559 11.7623 44.1487 11.8538 44.1305 11.8881C44.1025 11.9428 44.1652 11.9169 44.1381 12.0691C44.1093 12.2224 44.1822 12.1237 44.1979 12.2496C44.2144 12.3771 44.2691 12.3229 44.2237 12.439C44.1775 12.5546 44.4106 12.6398 44.4529 12.7657C44.5059 12.9165 44.5034 13.1089 44.3411 13.1157C44.1657 13.1229 44.0135 13.1928 43.8271 13.1267C43.6932 13.0805 43.2296 12.6614 43.2055 12.3996C43.1856 12.1758 43.1534 11.6602 43.136 11.4983C43.103 11.2106 42.9953 10.453 42.9635 10.0729C42.9326 9.69533 42.8953 9.77584 42.9695 9.62329C43.0436 9.4716 42.8542 9.44702 42.9203 9.24448C42.9669 9.10041 42.908 8.82245 42.9907 8.64194C43.028 8.56058 42.9301 8.56228 42.9385 8.47965C42.9491 8.37075 42.9593 8.29914 42.9873 8.19194C43.0097 8.10846 42.9987 8.01143 42.9915 7.85931C42.9839 7.70634 42.9847 7.64321 43.0487 7.53558C43.0885 7.46906 43.0148 7.43516 43.0254 7.30084C43.0313 7.22372 43.1254 6.51778 43.1635 6.24956C43.2034 5.97965 43.2627 5.26439 43.3127 5.17075C43.4508 4.91143 43.5313 4.32626 43.5864 4.12033C43.647 3.90168 43.8373 3.70592 43.8809 3.53812C43.9 3.46736 44.0174 3.4055 44.0631 3.43219C44.1246 3.47117 44.15 3.66016 44.1491 3.73134C44.1474 3.836 44.0796 4.29194 44.0335 4.38643C43.9779 4.5038 43.9186 4.92541 43.9093 4.98855C43.8919 5.10126 43.8885 5.23134 43.8771 5.3127C43.8682 5.39236 43.8135 5.50083 43.7843 5.59024C43.761 5.66439 43.8025 5.81355 43.7809 5.8877C43.7521 5.98643 43.761 6.04999 43.7148 6.13007C43.6707 6.20761 43.7407 6.28304 43.7123 6.34575C43.6775 6.42372 43.7462 6.49914 43.6915 6.58855C43.6335 6.68177 43.7288 6.70253 43.6983 6.82287C43.6593 6.96694 43.6661 7.08389 43.6305 7.15507C43.5941 7.22668 43.6983 7.32075 43.6618 7.45338C43.6157 7.63219 43.6479 8.65295 43.6195 8.85719C43.589 9.06355 43.5987 9.7127 43.6246 9.8305C43.6428 9.91016 43.6496 10.0724 43.7207 10.064C43.8102 10.0546 43.8258 9.7627 43.9152 9.77965C43.9665 9.78897 43.9326 9.95507 43.9457 10.0678C43.9699 10.2741 43.9546 10.0974 44.0038 10.4644C44.0368 10.7076 43.9949 11.1127 44.0309 11.2398C44.0657 11.3657 44.0457 11.4835 44.1801 11.4839C44.2974 11.4843 44.2546 11.3941 44.3449 11.2796C44.4377 11.1631 44.4432 11.1449 44.5178 11.2004C44.5796 11.2462 45.0216 11.2428 45.1657 11.2178C45.3525 11.1847 45.4826 11.0296 45.6102 10.9343C45.7648 10.8203 46.3657 10.2508 46.6678 9.99406C46.8025 9.87711 47.1775 9.43219 47.3241 9.29024C47.5648 9.05422 47.9398 8.66524 47.9979 8.59702C48.0441 8.54194 48.0623 8.47075 48.0093 8.37075C47.9788 8.30931 47.9296 8.29787 47.8669 8.33431C47.7106 8.42075 47.511 8.6805 47.358 8.77584C47.0847 8.94787 46.7449 9.17753 46.5593 9.29024C46.3491 9.41312 46.0504 9.55338 45.8602 9.65889C45.6135 9.79618 45.3394 9.88516 45.2983 9.90423C45.208 9.94872 45.175 9.97541 45.0924 9.91058C45.0203 9.85677 45.0436 9.88685 45.1131 9.65889C45.1593 9.50719 45.0394 9.34109 45.2102 9.11948C45.3195 8.97795 45.4229 8.60973 45.5974 8.39533C45.6593 8.3199 45.9949 7.89872 46.0627 7.78939C46.1199 7.69999 46.2301 7.65084 46.2457 7.6199C46.3013 7.511 46.3699 7.37795 46.403 7.361C46.5165 7.30168 46.6305 7.13177 46.6487 7.11228C46.686 7.06821 46.7008 7.04151 46.6775 6.96821C46.6686 6.93982 46.6106 6.83982 46.5419 6.92245C46.4699 7.011 46.336 7.03516 46.2805 7.0716C46.1788 7.1377 46.2059 7.25973 46.1051 7.26736C45.9602 7.27922 45.9741 7.04194 45.9932 6.96058C46.0157 6.86482 45.9402 6.84194 45.9864 6.74278C46.0932 6.51651 46.0619 6.49236 46.0898 6.4466C46.1178 6.40253 46.1411 6.43685 46.1991 6.36821C46.2356 6.32244 46.1627 6.25931 46.2097 6.20592C46.3008 6.09702 46.3288 5.96906 46.4207 5.91143C46.5199 5.84999 46.6941 5.61778 46.7123 5.55465C46.7364 5.47711 46.7411 5.39999 46.7686 5.32075C46.7784 5.29406 46.6758 5.28007 46.636 5.2305C46.5907 5.17584 46.6275 5.14067 46.6474 5.04109C46.6563 4.98685 46.5491 4.92244 46.5491 4.85041C46.5525 4.76863 46.5415 4.73346 46.4441 4.74109C46.3432 4.74872 46.1279 4.97245 45.9534 5.00507C45.7729 5.03939 45.6313 4.91143 45.7224 4.73177C45.8373 4.51058 46.1063 4.1877 46.1618 4.12583C46.2428 4.03346 46.2271 3.94617 46.2182 3.85592C46.2123 3.7627 46.1279 3.55846 46.1 3.34067C46.0835 3.21482 45.947 2.74787 45.9186 2.69024C45.9021 2.65338 45.8606 2.54194 45.9657 2.50083C46.0118 2.48346 46.1013 2.58473 46.1618 2.67583C46.2563 2.81185 46.4004 3.06524 46.4449 3.15592C46.4996 3.26736 46.5525 3.38431 46.5767 3.47329C46.5932 3.536 46.6364 3.65253 46.7271 3.66397C46.8148 3.67372 46.8703 3.66609 46.9258 3.61185C47.0186 3.52117 47.4996 3.33346 47.7038 3.261C47.803 3.22711 47.8585 3.21016 47.9652 3.27414C48.0258 3.30931 48.0979 3.51778 48.1339 3.53643C48.2076 3.57456 48.2407 3.56567 48.2216 3.61906C48.2102 3.65422 48.2199 3.636 48.1296 3.74363C48.0394 3.85041 48.1199 3.88812 48.028 4.03134C47.9352 4.17372 47.8614 4.37033 47.8246 4.46016C47.789 4.54787 47.7055 4.58516 47.6415 4.64829C47.5686 4.71948 47.5945 4.81736 47.558 4.836C47.4462 4.89024 47.4487 4.87372 47.414 4.95084C47.375 5.03177 47.3568 5.15804 47.4445 5.32075C47.4885 5.40168 47.5712 5.42033 47.586 5.48558C47.6182 5.60592 47.7017 5.60338 47.7474 5.66609C47.822 5.77541 47.8093 5.76905 47.8534 5.83855C47.9313 5.96694 47.9237 5.91312 48.0212 5.98516C48.083 6.0305 48.136 6.17583 48.2072 6.24914C48.3237 6.36778 48.4746 6.45973 48.5805 6.58685C48.6665 6.68897 48.6691 6.73982 48.6593 6.8305C48.6428 6.98219 48.6775 6.89321 48.6203 7.00083C48.5805 7.08134 48.6203 7.18982 48.6195 7.24406C48.6178 7.34363 48.6169 7.41567 48.5525 7.50465C48.4881 7.59448 48.3051 7.82584 48.2678 7.91567C48.2364 7.98982 48.2123 8.06778 48.2479 8.1038C48.2974 8.1555 48.3356 8.17753 48.4017 8.13346C48.5161 8.0538 48.8576 7.48982 49.1508 7.11609C49.3072 6.91609 49.6292 6.38346 49.703 6.23939C49.7784 6.09321 50.0051 5.81736 50.0513 5.75846C50.0784 5.72202 50.1597 5.72329 50.1754 5.78685C50.1919 5.84278 50.1665 5.90422 50.1843 5.94024C50.2076 5.98939 50.2729 5.95973 50.2805 6.04109C50.289 6.12287 50.2979 6.15846 50.2707 6.20253C50.25 6.236 50.3212 6.25507 50.2784 6.32923C50.2411 6.39109 50.2868 6.51863 50.1847 6.63304C50.0398 6.79787 49.6898 7.26567 49.5432 7.45423C49.3419 7.7127 48.7585 8.40762 48.6669 8.4877C48.6182 8.53134 48.5559 8.62499 48.5835 8.68601C48.6275 8.78346 48.7945 9.06567 48.8915 9.14829C49.0191 9.2538 49.2873 9.41312 49.403 9.41567C49.5419 9.41736 49.6339 9.37584 49.6826 9.336C49.9013 9.16821 50.0767 8.80168 50.1504 8.62287C50.2546 8.37287 50.422 7.85973 50.4326 7.78007C50.4466 7.65295 50.3894 7.51736 50.3987 7.47287C50.4118 7.41609 50.4915 7.4288 50.5072 7.48304C50.5313 7.5555 50.5513 7.68982 50.5678 7.7805C50.5957 7.9305 50.3691 8.69617 50.328 8.95592C50.2792 9.27202 49.8991 9.80719 49.8661 9.88812C49.8479 9.93219 49.8555 10.0046 49.7652 10.0119C49.661 10.0216 49.6212 9.99067 49.5593 9.97414C49.3267 9.90719 49.1288 9.74321 48.9801 9.60677C48.8271 9.47033 48.4712 9.03304 48.4271 8.961C48.3941 8.90761 48.2767 8.82372 48.2212 8.86906C48.1237 8.94872 47.9737 9.17117 47.9034 9.22372C47.8453 9.26524 47.7368 9.30889 47.675 9.37456C47.5839 9.47202 47.4754 9.59745 47.3661 9.6949C47.2852 9.76736 46.9364 10.0233 46.8737 10.0852C46.7737 10.1826 46.6534 10.3432 46.5822 10.3958C46.5093 10.45 46.2644 10.6 46.1907 10.6801C46.1089 10.7695 45.9936 10.9508 45.8987 10.9911C45.836 11.0178 45.753 11.125 45.8161 11.1796C45.878 11.2339 46.086 11.1373 46.2224 11.1123C46.3301 11.0915 46.4924 11.0885 46.608 11.0805C46.6818 11.075 46.7487 11 46.9174 10.9496C47.0614 10.9059 47.1606 10.9691 47.2237 10.953C47.3025 10.9313 47.3487 10.9004 47.4771 10.8665C47.6186 10.8267 47.8106 10.8513 47.8919 10.8174C47.9508 10.7919 47.9457 10.7716 48.0551 10.7017C48.128 10.6551 48.2216 10.6991 48.2991 10.6763C48.3991 10.6521 48.5796 10.6008 48.7691 10.5309C48.9195 10.4754 49.4013 10.358 49.4733 10.3508C49.5428 10.3419 49.6462 10.1898 49.7631 10.1466C49.9135 10.0907 50.1957 10.1428 50.3144 10.0716C50.3839 10.0301 50.5436 10.122 50.6191 10.2568C50.7165 10.428 50.6059 10.5165 50.5784 10.6161C50.5063 10.8631 50.4385 10.975 50.3576 11.064C50.275 11.1517 50.2466 11.314 50.1102 11.347C49.9555 11.3881 49.8741 11.411 49.7046 11.3347C49.4 11.1953 49.2368 11.3284 49.0593 11.2907C48.7902 11.2335 48.6869 11.3674 48.5619 11.3568C48.4974 11.3517 48.2962 11.3178 48.2356 11.3521C48.0618 11.4534 47.9212 11.4292 47.803 11.4648C47.7055 11.4932 47.6665 11.5881 47.7212 11.6339C47.814 11.7131 48.1241 11.7924 48.3767 11.7763C48.7813 11.753 49.0775 11.839 49.2398 11.8504C49.483 11.8678 49.6521 12.0004 49.7703 12.0013C49.903 12.0013 49.9572 12.0657 50.0924 12.1042C50.1826 12.1275 50.2894 12.1606 50.3885 12.1521C50.4979 12.1441 50.5788 12.2254 50.6229 12.208C50.7852 12.1474 50.7852 12.1623 50.8754 12.1407C50.9483 12.1233 51.0932 11.9343 51.1941 11.8665C51.3224 11.7763 51.5873 11.5284 51.6419 11.3767C51.6991 11.2199 51.7157 11.1513 51.7729 10.9542C51.8216 10.7877 51.7479 10.7733 51.8135 10.5042C51.8716 10.2695 51.8127 9.89236 51.8597 9.74787C51.8885 9.65804 51.8796 9.61355 51.9068 9.53219C51.9449 9.42414 51.9076 9.34363 51.9008 9.29956C51.8919 9.24406 51.9746 9.1288 51.9746 9.05592C51.9771 8.99363 51.9068 8.93812 51.9513 8.81439C52.011 8.6555 51.9652 8.48897 52.011 8.43685C52.0555 8.38346 51.9589 8.29278 51.986 8.21016C52.0284 8.08855 52.0322 7.58897 52.0051 7.3288C51.9746 7.00295 52.0233 6.56228 52.0364 6.40041C52.0398 6.31863 51.9296 6.25592 51.9652 6.18431C52.0157 6.08643 51.9585 5.93134 51.9436 5.80634C51.9203 5.63855 51.8674 5.32838 51.861 5.13855C51.8513 4.81355 51.5457 2.93007 51.3538 2.44956C51.0813 1.7699 50.3631 1.05973 50.0652 0.930072C49.7847 0.805496 49.4191 0.823716 49.1856 0.819903C49.0051 0.81736 48.364 0.91736 47.7962 1.09999C47.2898 1.26143 46.75 1.51228 46.5737 1.61567C46.3652 1.73939 46.1275 2.02456 45.972 2.18473C45.8046 2.35846 45.7618 2.56524 45.7148 2.65973C45.5856 2.91821 45.7157 3.24406 45.7415 3.33431C45.7868 3.48855 45.7483 3.5966 45.6852 3.62245C45.5445 3.6805 45.6042 3.68431 45.3407 3.71694C45.2563 3.72753 45.0991 3.65084 45.0898 3.58812C45.0657 3.43261 44.9292 3.17202 44.8614 3.00973Z" fill="black"/>
<path fill-rule="evenodd" clip-rule="evenodd" d="M84.7457 6.28774C84.5936 6.36994 84.1351 6.88308 84.0173 6.93647C83.9029 6.98689 83.7394 6.86189 83.6389 6.87799C83.3775 6.91952 82.7525 7.06994 82.3122 7.15045C81.944 7.2174 81.3292 7.44536 81.1644 7.53096C81.047 7.59282 81.0436 7.67672 81.1089 7.73774C81.3305 7.94791 81.5186 8.04918 81.6254 8.1852C81.6966 8.27884 81.5864 8.32036 81.5584 8.47418C81.5228 8.65977 81.4012 9.54282 81.4593 10.0208C81.5089 10.4382 81.7292 11.6949 81.7855 12.0416C81.836 12.3488 81.8783 12.7695 81.9182 12.9259C81.9737 13.1462 81.894 13.5382 81.8114 13.6259C81.5101 13.9526 81.0351 14.436 80.9084 14.4814C80.7182 14.5454 80.4682 14.5377 80.2894 14.3911C80.0567 14.2017 79.9707 13.8564 79.9004 13.6759C79.7813 13.3657 79.4385 13.1297 79.1995 12.9551C78.7733 12.6479 77.8406 12.1725 77.6999 11.8377C77.6792 11.7907 77.647 11.6928 77.7478 11.6585C77.9355 11.5924 78.0241 11.825 78.1483 11.9161C78.3851 12.0886 78.5877 12.1365 78.7589 12.1928C79.0254 12.2818 79.5046 12.3996 79.6186 12.4377C79.891 12.5276 80.0326 12.5682 80.2385 12.4996C80.3817 12.4526 80.6135 12.0089 80.6258 11.8204C80.6529 11.3606 80.5487 10.8187 80.5605 10.5941C80.5936 9.94579 80.5796 9.82503 80.6466 9.33392C80.697 8.97503 80.6025 8.70342 80.6135 8.54155C80.625 8.3407 80.6275 8.04621 80.6838 7.90384C80.73 7.78308 80.5813 7.78816 80.4771 7.81909C79.9796 7.96697 79.7478 8.19706 79.3177 8.39918C79.019 8.53986 78.4817 8.86613 78.2652 8.94494C78.1139 8.9996 77.9936 9.21147 77.9033 9.12969C77.8033 9.03604 77.661 9.06316 77.5724 8.90087C77.4449 8.66147 77.6495 8.44198 77.8131 8.34494C78.0309 8.21486 78.2292 8.29536 78.8898 7.97206C79.5512 7.64536 80.2669 7.21401 80.8033 7.00299C81.3245 6.79918 82.7466 6.37333 82.9542 6.32757C83.161 6.28392 83.6122 6.24325 83.6843 6.21062C83.9656 6.08774 84.2165 6.0924 84.3067 6.07503C84.4334 6.0513 84.6139 6.09579 84.7216 6.10681C84.8508 6.12079 84.8915 6.2085 84.7457 6.28774ZM79.1279 4.73392C79.3173 4.63647 79.3686 4.86358 79.4334 4.86358C79.6211 4.8657 79.7902 4.88689 80.0275 4.80681C80.2089 4.74706 81.3499 4.17503 81.7381 4.08053C82.4008 3.91994 83.3288 3.65935 83.6516 3.68096C83.7627 3.68774 83.7682 3.76316 83.6601 3.82545C83.536 3.89409 83.5038 4.0657 83.4038 4.16358C83.3394 4.22714 83.3648 4.42587 83.3093 4.49621C83.2432 4.58308 83.1444 4.62926 83.0288 4.62799C82.8474 4.62545 82.83 4.62545 82.7135 4.62418C82.5817 4.62291 82.3131 4.79282 82.2144 4.81613C82.1796 4.82418 82.0885 4.74706 82.0025 4.72333C81.794 4.66613 81.0118 4.97884 80.7072 5.11231C80.3919 5.25342 79.8292 5.52969 79.547 5.82799C79.4377 5.94325 79.3266 6.1585 79.1483 6.05723C78.986 5.9657 78.9199 5.59494 78.8775 5.43138C78.8385 5.2924 78.8567 4.87248 79.1279 4.73392ZM78.111 0.290704C78.2805 0.319941 78.5961 1.08859 78.7716 1.4335C78.8296 1.54494 78.866 1.72503 78.9008 2.01189C78.9156 2.14621 79.0406 2.40087 79.0101 2.70553C78.9936 2.8585 79.0381 3.13435 78.983 3.26486C78.9457 3.35384 78.8016 3.44155 78.8 3.56867C78.8 3.6424 78.6809 3.80935 78.608 3.88053C78.4936 3.9907 78.422 4.28562 78.35 4.38181C78.2135 4.55977 77.8648 4.55426 77.6182 4.6246C77.436 4.67757 77.2177 4.7924 77.0279 4.92418C76.8368 5.05681 76.494 5.17545 76.2559 5.33731C76.0762 5.46231 75.7021 5.83562 75.5932 5.92375C75.5169 5.98562 75.3881 6.08731 75.508 6.19325C75.633 6.30257 75.9864 6.24494 76.4597 6.45681C76.7733 6.59664 77.0499 6.78943 77.2088 7.05087C77.3419 7.26867 77.2766 7.4585 77.13 7.54621C77.0127 7.6157 76.9338 7.82587 76.6838 8.03562C76.5563 8.1424 76.4652 8.41401 76.2627 8.58901C76.1072 8.72121 75.5474 9.3174 75.3343 9.47842C75.2161 9.56697 75.2186 9.71528 75.4114 9.78435C75.591 9.8496 76.1461 10.2432 76.3292 10.5081C76.5237 10.7894 76.6097 11.3958 76.647 11.8882C76.6686 12.214 76.4474 12.7077 76.3533 13.0466C76.3063 13.2178 76.2724 13.2911 76.0538 13.2513C75.9949 13.2399 75.8974 13.1081 75.8046 13.0132C75.6707 12.8767 75.4843 12.8216 75.3923 12.7191C75.2855 12.6013 75.1372 12.5339 75.0639 12.4191C74.9762 12.2827 74.9851 11.6598 75.0317 11.3827C75.069 11.15 75.108 10.9839 75.1648 10.8077C75.211 10.664 75.3038 10.1937 75.1283 10.1593C75.0283 10.1407 74.6567 10.3428 74.4572 10.4394C74.2355 10.5471 73.9855 10.6949 73.8762 10.8195C73.7538 10.9585 73.6843 11.15 73.6635 11.2937C73.6444 11.4348 73.5444 11.5339 73.4805 11.4988C73.3478 11.4263 73.2156 11.4882 73.1186 11.5127C72.9847 11.5479 72.8961 11.4242 72.7436 11.3632C72.4822 11.2615 72.6029 11.3407 72.3762 11.1526C72.2347 11.0339 71.9177 10.5682 72.0377 10.239C72.1021 10.0598 72.0402 9.97799 72.2233 9.80892C72.6669 9.39748 72.8389 9.16867 73.2915 8.67799C73.5266 8.42121 73.9288 8.0013 74.1745 7.79748C74.2737 7.71528 74.3656 7.56782 74.4402 7.39579C74.4864 7.28859 74.7466 7.09325 74.5809 6.9835C74.4012 6.86358 74.1711 6.8513 74.0406 6.90426C73.9131 6.95638 73.8322 6.81062 73.6838 6.72884C73.5491 6.65511 73.4008 6.75553 73.2966 6.68011C73.1716 6.58774 73.1097 6.52375 72.9936 6.4407C72.8851 6.36486 72.6834 6.25469 72.7809 6.05172C72.8555 5.8996 72.794 5.68223 72.9588 5.55808C73.1673 5.39918 73.3114 5.23986 73.4597 5.11443C73.7419 4.87418 74.5173 3.97545 75.0398 3.37714C75.5885 2.74918 76.5957 1.25342 76.9881 0.852992C77.0707 0.769517 77.036 0.572907 77.4533 0.35384C77.7063 0.222484 77.9072 0.256382 78.111 0.290704Z" fill="black"/>
<path fill-rule="evenodd" clip-rule="evenodd" d="M65.9669 2.2771C66 2.43007 65.8686 2.99574 65.7089 3.48007C65.5491 3.96396 65.5136 4.1254 65.372 4.56566C65.3085 4.76015 65.1826 4.67244 65.1106 4.75168C65.0263 4.84023 65.208 4.68091 64.8631 5.01862C64.6521 5.22371 64.2102 5.49574 64.0903 5.62964C64.0258 5.70083 63.8907 5.66439 63.8653 5.52879C63.8496 5.44023 63.8504 5.35803 63.8445 5.17668C63.8356 5.02371 63.972 4.83557 64.0025 4.75549C64.0479 4.63007 64.1233 4.37879 64.1233 4.21693C64.1275 3.91057 64.4576 3.50083 64.7136 3.19701C64.9678 2.89447 65.9669 2.2771 65.9669 2.2771ZM64.3678 7.07413C64.5042 6.9771 64.4919 7.23769 64.6203 7.21142C64.6991 7.19701 64.7661 7.09786 64.8191 7.03473C64.8636 6.98176 64.9335 6.94151 64.9797 7.17202C65.0064 7.29786 65.0292 7.4182 64.958 7.50464C64.8487 7.63896 64.225 7.86481 64.1157 7.91015C64.0386 7.94023 64.014 7.97286 63.983 7.81778C63.939 7.61862 64.1733 7.51312 64.1843 7.42286C64.2034 7.25846 64.2564 7.15422 64.3678 7.07413ZM65.7203 9.84617C65.8479 9.86566 66.1737 9.68049 66.3106 9.57371C66.4089 9.49786 66.4983 9.61354 66.4436 9.71142C66.3839 9.81651 66.1691 10.0678 66.1241 10.1847C66.0953 10.2525 66.0225 10.3 65.9695 10.2818C65.8636 10.2453 65.7178 10.1805 65.6178 10.1233C65.4928 10.0534 65.6059 9.82795 65.7203 9.84617ZM62.8212 10.0356C62.8627 9.936 63.1148 10.2288 63.2754 10.2669C63.4483 10.308 63.6436 10.3881 63.8589 10.4449C64.1542 10.5224 64.4686 10.6949 64.6915 10.8504C64.8462 10.958 65.0508 11.0004 65.2271 11.1813C65.2958 11.2496 65.2712 11.3445 65.2174 11.4063C65.153 11.4788 65.1157 11.5669 64.997 11.6474C64.6898 11.8546 63.6644 12.3962 63.528 12.511C63.3534 12.658 63.0225 12.5779 62.9148 12.4763C62.8212 12.3885 62.722 12.2534 62.6945 12.0699C62.6521 11.7818 62.6339 11.2394 62.6547 10.9796C62.6729 10.733 62.6805 10.3585 62.8212 10.0356ZM59.5297 10.1847C59.5322 10.1212 59.8564 9.97329 60.0369 9.88515C60.2123 9.80168 60.3737 9.72668 60.5267 9.711C60.603 9.7021 60.6898 9.76947 60.6606 9.86608C60.6127 10.0169 59.9106 10.694 59.6648 10.961C59.6127 11.0178 59.5127 10.8152 59.5059 10.6885C59.5 10.5449 59.5297 10.3233 59.5297 10.1847ZM58.9737 8.6843C59.0729 8.67244 59.1136 8.81651 59.0326 8.93642C58.9788 9.01608 58.8241 9.05973 58.7894 9.01481C58.7314 8.93896 58.7826 8.87032 58.8729 8.80845C58.9513 8.75252 58.9 8.69151 58.9737 8.6843ZM59.7797 6.02795C59.9602 6.01185 59.9653 6.09786 59.9767 6.11142C60.022 6.16608 60.1182 6.39447 60.1877 6.47413C60.2496 6.54701 60.3004 6.63007 60.4021 6.66608C60.4551 6.68388 60.461 6.92752 60.4508 7.036C60.4411 7.15295 60.1589 7.20083 60.0157 7.3093C59.9254 7.38049 59.8725 7.43854 59.8144 7.51312C59.7424 7.61269 59.7233 7.66651 59.6225 7.75507C59.5407 7.82879 59.6407 8.21608 59.5801 8.3932C59.5521 8.47413 59.6597 8.46608 59.7487 8.46947C59.7949 8.46947 59.8093 8.3843 59.8669 8.3343C59.9407 8.27201 60.1407 8.12837 60.2419 8.0682C60.3123 8.02413 60.2186 7.77964 60.3254 7.75507C60.3975 7.73769 60.4017 8.00422 60.4479 8.10803C60.4809 8.18896 60.5983 8.49108 60.5661 8.61312C60.5364 8.72074 60.5182 8.84066 60.4809 8.91015C60.4436 8.98091 60.0102 9.16862 60.0547 9.35379C60.0797 9.46269 60.4013 9.31142 60.5661 9.32329C60.6928 9.33388 60.9335 9.31142 61.0445 9.31142C61.1521 9.31269 61.3606 9.47413 61.4805 9.686C61.5424 9.79532 61.0983 10.1839 60.8674 10.4801C60.6398 10.7741 59.7483 11.5292 59.5657 11.7076C59.4737 11.7974 59.5318 12.1309 59.4597 12.1737C59.3737 12.2279 59.2958 12.175 59.2 12.1987C59.1263 12.2144 59.003 12.264 58.964 12.3487C58.9267 12.4292 58.9199 12.4924 58.9881 12.5284C59.0775 12.5741 60.0203 12.0996 60.4763 11.6911C60.9513 11.264 61.6051 10.6059 61.8436 10.3029C62.0275 10.0707 61.9564 9.08981 62.1682 8.12879C62.2644 7.68727 62.4784 6.25973 62.6301 5.586C62.8055 4.81651 63.4072 3.62201 63.522 3.44447C63.5682 3.37371 63.5186 3.30337 63.5602 3.23812C63.608 3.16693 63.6229 3.11354 63.786 3.18727C63.8513 3.21778 63.9555 3.34235 64.0178 3.31608C64.1593 3.25718 63.9441 3.37795 64.4572 2.88091C64.9653 2.38218 65.4551 2.13557 65.7267 1.93261C66 1.72879 66.1843 1.49744 66.3191 1.43557C66.4326 1.38473 66.5369 1.43345 66.578 1.54744C66.6225 1.66481 66.6335 1.83727 66.5729 2.05083C66.5364 2.18642 66.4347 2.37625 66.314 2.66015C66.2653 2.77201 66.1178 3.34405 66.0127 3.65591C65.9085 3.96862 65.7835 4.71142 65.7097 4.84066C65.6004 5.03727 65.728 5.086 65.65 5.29956C65.6258 5.36947 65.4814 5.69617 65.3903 5.88049C65.2983 6.0699 65.0309 6.66142 64.9754 6.71354C64.9059 6.78218 64.9547 6.92498 64.9903 6.98473C65.0343 7.05634 65.2818 7.21015 65.4504 7.62032C65.5034 7.74744 65.4869 7.87795 65.3835 8.01523C65.3089 8.11354 65.0153 8.20634 64.8487 8.28812C64.6301 8.3932 63.7623 8.83303 63.4691 9.07244C63.4064 9.12583 63.2996 9.111 63.3267 9.01566C63.3737 8.84617 63.3178 8.32329 63.3805 8.14447C63.478 7.87837 63.4386 7.98303 63.6576 7.67879C63.7733 7.51735 64.0178 6.9271 64.2818 6.63303C64.3089 6.60464 64.3627 6.45422 64.2767 6.39956C64.2047 6.35379 64.1161 6.44744 64.0241 6.4771C63.9686 6.4949 63.9597 6.63007 63.8949 6.65634C63.7987 6.69659 63.7064 6.59532 63.6161 6.67074C63.5525 6.72244 63.4356 6.98049 63.411 7.15422C63.4034 7.22583 63.2792 7.32117 63.2479 7.36862C63.2114 7.42286 63.2347 7.65591 63.214 7.81905C63.1907 8.01481 63.0055 8.51566 62.9597 8.72456C62.9318 8.8593 62.8763 9.15973 62.8894 9.33557C62.897 9.43557 62.9424 9.50464 63.0144 9.49108C63.0953 9.47329 63.1517 9.33557 63.233 9.32244C63.3314 9.30549 63.6576 9.29998 63.7991 9.33896C63.8661 9.35676 63.9869 9.44024 64.2047 9.39701C64.3271 9.37413 64.5174 9.32074 64.6648 9.32286C64.8072 9.32413 65.5097 9.32329 65.8068 9.32752C65.9153 9.32879 66.522 9.02964 66.7123 8.94151C66.8695 8.87032 67.247 8.51608 67.5051 8.24913C67.6517 8.09786 67.9941 7.99405 68.1729 8.07795C68.2631 8.11947 68.2093 8.38854 68.0703 8.49066C67.961 8.5699 67.6979 8.71057 67.5703 8.79956C67.3669 8.94066 67.0398 9.34617 66.8852 9.61142C66.8106 9.736 66.5733 10.0741 66.4538 10.2898C66.4288 10.3322 66.4288 10.4373 66.5216 10.5335C66.6119 10.625 67.3568 10.8237 67.7051 10.9445C67.7364 10.9555 67.7852 11.0169 67.8589 10.9911C67.9076 10.9737 67.9746 10.9483 67.9839 11.0741C67.9873 11.1351 68.4754 11.1479 68.5326 11.1885C68.7182 11.3271 69.4364 11.4877 69.6708 11.6343C69.7585 11.6902 69.7856 11.7123 69.8661 11.8089C69.9199 11.872 70.0538 11.8699 70.0356 11.9635C70.0148 12.0623 68.6326 12.4051 68.1377 12.3813C67.714 12.3601 67.2754 12.3072 66.8708 12.1669C66.514 12.0436 65.8271 11.5254 65.7254 11.5241C65.5648 11.5216 65.5814 11.5576 65.472 11.6652C65.4424 11.6936 65.3869 11.7928 65.308 11.8695C65.2161 11.9589 64.8983 12.2703 64.833 12.3585C64.7411 12.4843 64.525 12.5326 64.3894 12.6419C64.2894 12.7207 64.0958 12.9356 63.9788 13.0148C63.7619 13.1614 63.489 13.3419 63.3258 13.4114C63.1602 13.4813 62.8699 13.3767 62.6233 13.3402C62.3542 13.3017 62.0258 13.0169 61.9008 12.7724C61.8288 12.6279 61.8314 12.2661 61.7941 12.0517C61.7669 11.9072 61.8826 11.4631 61.7924 11.4034C61.6674 11.3203 61.6004 11.4144 61.5398 11.4813C61.4381 11.5873 61.3195 11.7924 61.0004 12.0148C60.8614 12.1127 60.8606 12.1805 60.7008 12.3343C60.5818 12.45 60.3034 12.6165 60.1085 12.7775C59.9199 12.9373 59.5737 13.0343 59.3496 13.0737C59.2686 13.0898 59.0424 13.2284 58.9144 13.2856C58.797 13.3377 58.4237 13.4682 58.1919 13.5381C58.0462 13.5818 57.9792 13.2657 57.9453 13.0496C57.9123 12.8318 57.9958 12.6076 58.1233 12.539C58.3343 12.4212 58.6678 12.0322 58.8508 11.8364C58.8987 11.7847 58.8047 11.6678 58.7182 11.6716C58.4212 11.6868 58.2326 11.5576 58.2326 11.5576C58.4504 11.5241 58.8195 11.5123 58.9479 11.35C58.9703 11.3258 59.0305 11.2695 59.0305 11.1983C59.033 11.0928 58.9966 11.0665 58.9873 10.9996C58.9788 10.9487 59.0492 10.8602 59.0254 10.8106C59.0004 10.7576 58.9492 10.6292 58.8576 10.6835C58.6682 10.7953 58.3428 11.119 58.2551 11.2881C58.2004 11.3953 58.189 11.5123 58.189 11.5123C58.1352 11.5657 58.036 11.519 58.036 11.519C57.8623 11.6966 57.589 11.9996 57.4525 12.1152C57.3525 12.2017 57.2119 12.2648 57.1008 12.2114C56.9669 12.1453 56.8767 11.8657 56.8161 11.7746C56.7648 11.6932 56.8386 11.5767 56.9195 11.5246C57.0428 11.4453 57.3648 11.2775 57.4551 11.1974C57.5559 11.1097 57.9847 10.6826 58.0839 10.6025C58.2436 10.4741 58.4661 10.3288 58.5936 10.1936C58.6839 10.0953 58.572 9.97668 58.5051 10.0305C58.4504 10.0746 58.3695 10.0563 58.3347 9.97583C58.2479 9.77117 58.064 9.26905 58.0674 9.07964C58.0682 8.96269 58.0699 8.89829 58.1144 8.79193C58.2534 8.47074 58.7144 7.86693 58.8576 7.75718C58.9932 7.65125 58.9123 7.54871 58.8691 7.4699C58.8161 7.36905 58.5513 7.04235 58.561 6.9254C58.575 6.7504 58.8356 6.59574 59.089 6.41905C59.3445 6.23727 59.5991 6.04405 59.7797 6.02795ZM60.6411 3.32879C60.7072 3.19362 61.1475 3.16439 61.3445 3.2004C61.5241 3.23727 61.7386 3.58896 61.8072 3.75676C61.8513 3.86481 61.9254 4.09405 61.8907 4.18091C61.8445 4.29744 61.6572 4.29744 61.4758 4.34786C61.4106 4.36439 61.2415 4.42668 61.1216 4.48642C60.9686 4.56608 60.7797 4.73134 60.7136 4.79701C60.6398 4.8682 60.5182 4.89998 60.4602 4.8843C60.4229 4.87498 60.4246 4.77117 60.4873 4.70549C60.6055 4.58007 60.7555 4.23049 60.7208 4.09447C60.7051 4.02456 60.633 3.9949 60.6263 3.77837C60.6237 3.66905 60.5856 3.44066 60.6411 3.32879ZM60.5801 0.905489C60.653 0.887692 60.7025 1.011 60.8144 1.06184C60.8941 1.09829 60.9288 1.17032 61.0097 1.17201C61.1208 1.17244 61.1246 1.34405 61.1869 1.39871C61.2407 1.44405 61.3119 1.61566 61.3729 1.67201C61.4441 1.73684 61.4699 1.81862 61.5415 1.87201C61.6195 1.93091 61.6407 2.13388 61.5475 2.2504C61.4737 2.34023 61.3564 2.461 61.2008 2.50761C61.0568 2.5504 60.7381 2.56057 60.5593 2.67032C60.4136 2.75845 60.1445 2.97117 59.9932 3.13261C59.7119 3.43388 59.3907 3.96185 59.1335 4.40888C58.958 4.71227 58.3051 5.83007 58.1106 6.26905C58.0297 6.45168 57.6123 7.34151 57.4652 7.66481C57.2699 8.08557 56.7941 9.00295 56.6979 9.24956C56.5669 9.58218 56.6424 9.86057 56.5521 9.98642C56.4695 10.1034 56.3097 10.0915 56.2093 10.0186C56.1123 9.94574 55.9551 9.79829 55.9165 9.64532C55.8835 9.51057 55.9538 9.19574 55.9966 9.0343C56.0246 8.92667 56.0818 8.85422 56.172 8.81227C56.2258 8.78557 56.3161 8.81184 56.3953 8.77837C56.4568 8.75295 56.7148 8.32244 56.8458 8.08134C57.0169 7.76227 57.4699 6.80379 57.5758 6.57752C57.6402 6.43981 57.9004 5.85337 58.0924 5.49405C58.2123 5.27032 58.8 3.65761 59.0847 3.26481C59.15 3.17456 59.4513 2.53388 59.6369 2.24532C59.803 1.98515 60.4716 0.930489 60.5801 0.905489Z" fill="black"/>
<path fill-rule="evenodd" clip-rule="evenodd" d="M35.1157 11.3835C35.1695 11.3848 35.2051 11.4297 35.2216 11.5195C35.2449 11.6449 35.2288 11.6449 35.2458 11.7526C35.2623 11.8589 35.2216 11.8865 35.242 11.9754C35.2683 12.0822 35.2581 12.1432 35.2666 12.2534C35.2822 12.4403 35.289 12.6106 35.2517 12.7276C35.2149 12.8415 35.2594 12.878 35.2581 12.9941C35.256 13.1013 35.1937 13.2712 35.1814 13.4322C35.1699 13.5657 35.3017 13.7026 35.3005 13.8632C35.3 13.9602 35.256 13.9602 35.1661 13.95C35.0674 13.9407 34.9509 13.8767 34.9174 13.7954C34.8814 13.7132 34.7776 13.4458 34.7788 13.3471C34.7801 13.239 34.8115 13.0432 34.8288 12.9174C34.8488 12.7843 34.814 12.6246 34.8161 12.4971C34.8174 12.3458 34.9992 12.1882 35.0005 12.0343C35.003 11.8827 34.9683 11.8657 34.9699 11.6771C34.9721 11.4899 35.0441 11.3835 35.1157 11.3835ZM36.5873 4.43519C36.5801 4.33774 36.9365 4.11867 37.1123 4.00469C37.2733 3.90003 37.3975 3.75172 37.5348 3.67884C37.7335 3.57375 37.9127 3.6068 38.028 3.61401C38.2068 3.6246 38.4242 3.52841 38.5195 3.64706C38.6072 3.75511 38.5814 3.84409 38.5513 3.96825C38.5288 4.06613 38.0127 4.8746 37.7678 5.1657C37.5123 5.47206 36.8784 6.19791 36.8166 6.23562C36.7433 6.27969 36.6852 6.17333 36.6666 6.01994C36.65 5.88604 36.6314 5.77291 36.6615 5.70681C36.6979 5.62714 36.653 5.57587 36.6369 5.50087C36.6208 5.41909 36.539 5.12333 36.5551 4.9013C36.5661 4.73986 36.5992 4.57969 36.5873 4.43519ZM32.3272 7.01316C32.3496 6.9585 32.5873 6.83774 32.6958 6.74918C32.7712 6.68858 32.9572 6.56443 33.0301 6.50257C33.2373 6.32545 33.211 6.35935 33.4009 6.23011C33.4899 6.16782 33.6161 6.12503 33.6322 6.31316C33.6509 6.53731 33.6242 6.93816 33.6301 7.08223C33.6382 7.2246 33.6013 7.26104 33.5916 7.3763C33.5835 7.47502 33.625 7.52926 33.6327 7.59282C33.642 7.65469 33.6212 7.67248 33.6043 7.78858C33.5954 7.86019 33.6475 7.96782 33.5835 8.09197C33.5187 8.21613 33.1759 8.48986 33.0683 8.52418C32.9602 8.55892 33.0335 8.36401 32.8564 8.23519C32.6793 8.10765 32.636 7.92757 32.5572 7.80257C32.4602 7.64621 32.489 7.56994 32.3742 7.43308C32.2594 7.29706 32.261 7.16401 32.3272 7.01316ZM30.0742 4.8496C30.1835 4.81613 30.3988 5.23604 30.6094 5.46316C30.8212 5.69028 31.1377 5.97503 31.2026 6.0335C31.2738 6.09621 31.4403 6.34875 31.5026 6.35087C31.5348 6.35087 31.739 6.17545 31.9089 6.05977C32.0886 5.93647 32.4962 5.65765 32.6212 5.5763C32.7216 5.50892 33.0335 5.28308 33.225 5.13647C33.417 4.98986 33.8339 4.71867 33.8488 4.67926C33.8564 4.65553 33.839 4.56231 33.9038 4.3852C33.9445 4.27503 33.8564 4.22757 33.853 4.20638C33.8454 4.16062 33.9 4.02672 33.9089 3.95553C33.9297 3.82248 33.8975 3.54748 33.9161 3.49113C33.9619 3.34875 33.9784 3.05045 33.9844 2.9657C34.0055 2.72036 33.9763 2.6157 34.0077 2.51697C34.1132 2.19155 34.1229 1.92884 34.0983 1.68647C34.0788 1.4835 34.0301 1.46358 34.0873 1.15087C34.1403 0.868246 34.3958 0.568246 34.5123 0.432229C34.5899 0.34367 34.8212 0.328415 34.9983 0.500025C35.0636 0.564856 35.2204 0.637314 35.3708 0.79028C35.5149 0.94028 35.7886 1.27587 35.8822 1.36019C36.0322 1.49791 36.3229 1.86655 36.5085 2.10172C36.6496 2.28011 36.7255 2.60553 36.7416 2.72164C36.7666 2.89875 36.7284 3.13308 36.8483 3.15638C37.0212 3.18943 37.3572 2.89918 37.8945 2.79875C38.2513 2.73096 38.8339 2.74706 39.2191 2.75214C39.389 2.75469 39.7195 2.73901 39.7471 2.81825C39.7988 2.96401 39.7094 3.40681 39.4911 3.90045C39.2983 4.3352 39.1928 4.41825 38.9721 4.69706C38.7903 4.92842 38.764 5.0746 38.4335 5.50426C38.1149 5.92164 37.4822 6.53053 37.6064 6.64833C37.7127 6.74833 38.0259 6.5996 38.078 6.83392C38.1204 7.02164 37.9132 7.14367 37.8386 7.32969C37.7382 7.58943 37.7988 7.77672 37.5649 7.89113C37.3496 7.99452 37.2233 7.95808 37.0877 8.04664C36.9263 8.15172 36.9882 8.42121 36.8848 8.6157C36.7013 8.96231 36.7954 9.29409 36.6839 9.57418C36.5157 9.99367 36.5564 9.83011 36.4191 10.2687C36.3882 10.3632 36.3212 10.8449 36.2831 11.0132C36.2509 11.1572 36.1407 11.2725 36.1356 11.325C36.1242 11.4725 36.0513 11.853 36.0577 11.8958C36.0661 11.95 35.9657 12.0216 35.9746 12.1187C35.9827 12.2093 35.8869 12.4339 35.8704 12.5911C35.8047 13.2106 35.8594 13.2928 35.8844 13.6377C35.9089 13.9822 35.8433 14.0577 35.806 14.1483C35.7729 14.2322 35.6441 14.253 35.5543 14.278C35.4564 14.3047 35.4636 14.4106 35.4022 14.4314C35.3288 14.4551 35.2255 14.3784 35.1916 14.4377C35.1233 14.5581 35.0492 14.7106 34.9589 14.7178C34.8661 14.7246 34.8348 14.6716 34.8085 14.5288C34.8013 14.4907 34.7119 14.4814 34.6958 14.403C34.6683 14.2746 34.6411 14.353 34.5263 14.1437C34.4318 13.9691 34.5127 13.9072 34.5026 13.7509C34.4949 13.6297 34.3339 13.5199 34.3746 13.3284C34.3958 13.228 34.3683 13.0204 34.3471 12.8492C34.3233 12.6517 34.3153 12.5153 34.3153 12.464C34.3174 12.3742 34.2877 12.4619 34.311 12.1784C34.3322 11.9293 34.2543 11.7212 34.2551 11.65C34.2564 11.5606 34.2208 11.4979 34.15 11.4979C34.092 11.4966 34.0623 11.5297 34.0318 11.6721C34.0009 11.8149 33.9975 12.1021 34.0157 12.2746C34.0314 12.4343 34.1327 12.8827 34.1399 13.0254C34.15 13.2174 34.1288 13.1238 34.136 13.3822C34.1377 13.5115 34.1966 13.8242 34.2424 13.9962C34.2882 14.1687 34.3877 14.1623 34.4199 14.2814C34.4543 14.4077 34.4877 14.5153 34.5318 14.5869C34.5886 14.6818 34.8068 14.7331 34.7797 14.7873C34.7462 14.853 34.6513 14.9822 34.5801 14.9907C34.4352 15.006 34.1729 14.7085 34.1204 14.5767C34.0263 14.3428 33.9632 13.5068 33.9144 13.2017C33.8288 12.6907 33.742 12.464 33.6801 11.8932C33.6157 11.3026 33.4742 9.75935 33.478 9.43223C33.4805 9.2174 33.3382 9.14452 33.2602 9.13943C33.1657 9.13477 33.0458 9.23562 33.0382 9.33816C33.0297 9.46274 33.0585 9.7585 32.9272 9.81019C32.8204 9.85299 32.053 9.63943 31.4589 9.24706C30.4865 8.60426 30.1407 7.01358 29.978 6.70765C29.7589 6.29325 29.7534 5.43223 29.7996 5.26486C29.8454 5.09452 29.911 4.90003 30.0742 4.8496Z" fill="black"/>
</svg>
