<svg width="237" height="24" viewBox="0 0 237 24" fill="none" xmlns="http://www.w3.org/2000/svg">
<g clip-path="url(#clip0_45_4233)">
<path d="M214.784 23.7041C221.688 17.7863 231.386 12.0329 236.712 9.96165C235.89 9.43563 234.608 8.67946 233.162 7.85754C226.29 10.126 218.269 15.1562 211.101 20.8438C212.318 21.7644 213.6 22.7178 214.784 23.7041Z" fill="#E31837"/>
<path d="M211.627 7.62743C210.608 7.13427 209.49 6.674 208.636 6.27948C206.038 7.56167 202.652 9.5014 198.378 12.5589C199.299 13.0521 200.285 13.6439 201.337 14.2356C204.625 11.8028 207.945 9.5014 211.627 7.62743Z" fill="#012169"/>
<path d="M217.775 4.80001C216.526 4.1096 212.186 2.49864 209.195 1.80823C208.307 2.13699 207.058 2.63015 206.203 2.99179C207.288 3.28768 211.332 4.37261 214.784 6.11508C215.671 5.68768 216.921 5.16165 217.775 4.80001Z" fill="#E31837"/>
<path d="M203.079 4.37262C199.233 6.14796 195.189 8.58084 192.986 9.99454C193.775 10.3562 194.564 10.6521 195.649 11.1781C200.515 7.89043 204.329 5.88495 205.841 5.22741C204.756 4.83289 203.737 4.56988 203.079 4.37262Z" fill="#012169"/>
<path d="M220.668 3.78082C221.556 3.48493 222.575 3.22192 223.463 2.9589C220.899 1.87397 217.677 0.723288 214.784 0C214.323 0.131507 212.942 0.493151 211.989 0.789041C212.975 1.08493 216.23 1.8411 220.668 3.78082ZM204.46 16.1425C205.512 16.7671 206.63 17.6219 207.715 18.3452C214.915 12.7562 222.016 8.44932 229.808 6.01644C228.723 5.45753 227.77 4.96438 226.553 4.3726C221.885 5.55616 213.896 8.7452 204.46 16.1425Z" fill="#E31837"/>
<path d="M0 21.9945H5.26027C7.92329 21.9945 9.1726 20.6137 9.1726 18.674C9.1726 17.0959 8.35069 16.0439 6.6411 15.7151C8.15343 15.3534 8.84384 14.4329 8.84384 13.0849C8.84384 11.3754 7.59452 9.99454 4.93151 9.99454H0.0328767V21.9945H0ZM4.56986 16.8986C5.55616 16.8986 6.24658 17.3918 6.24658 18.3781C6.24658 19.4302 5.58904 19.8576 4.56986 19.8576H2.86027V16.8658H4.56986V16.8986ZM4.2411 12.0986C5.2274 12.0986 5.91781 12.526 5.91781 13.5123C5.91781 14.4986 5.26027 14.926 4.2411 14.926H2.86027V12.0986H4.2411ZM19.7918 9.96166H16.8329L12.3288 21.9945H15.3205L16.1425 19.4959H20.4822L21.3041 21.9945H24.3288L19.7918 9.96166ZM18.3123 12.8548L19.726 17.2932H16.8329L18.3123 12.8548ZM39.3205 9.96166H36.5918V18.0165L31.463 9.96166H28.4055V21.9945H31.1342V13.9726L36.263 21.9945H39.3205V9.96166ZM51.9123 21.9945L47.9671 15.8795V21.9945H45.0411V9.96166H47.9671V15.748L51.7151 9.96166H54.9699L51.0247 15.748L55.3315 21.9945H51.9123ZM65.6877 15.9781C65.6877 18.3781 67.1342 19.8576 69.0082 19.8576C70.8822 19.8576 72.3288 18.3781 72.3288 15.9781C72.3288 13.5781 70.8822 12.0986 69.0082 12.0986C67.1342 12.0986 65.6877 13.5781 65.6877 15.9781ZM62.5973 15.9781C62.6301 12.4603 65.0959 9.69865 69.0082 9.69865C72.9205 9.69865 75.3863 12.4603 75.4192 15.9781C75.3863 19.4959 72.9205 22.2576 69.0082 22.2576C65.0959 22.2576 62.6301 19.4959 62.5973 15.9781ZM79.4301 21.9945H82.3562V17.2603H86.1699V14.9589H82.3562V12.263H86.9589L87.4849 9.96166H79.4301V21.9945ZM101.129 9.96166H98.1699L93.6657 21.9945H96.6575L97.4795 19.4959H101.819L102.641 21.9945H105.666L101.129 9.96166ZM99.6493 12.8548L101.063 17.2932H98.1699L99.6493 12.8548ZM123.025 9.96166H119.605L116.482 16.4713L113.359 9.96166H109.94V21.9945H112.57V13.9397L116.449 21.9945L120.329 13.9397V21.9945H123.058L123.025 9.96166ZM128.712 21.9945H136.932V19.6932H131.638V16.9973H135.814V14.7617H131.638V12.263H136.471L136.997 9.96166H128.712V21.9945ZM148.077 21.9945H151.266L148.274 16.8986C149.918 16.4384 150.707 15.2877 150.707 13.611C150.707 11.4411 149.392 9.99454 146.433 9.99454H141.797V22.0274H144.658V17.2932H145.447L148.077 21.9945ZM145.874 12.1973C147.09 12.1973 147.715 12.7233 147.715 13.7425C147.715 14.7617 147.09 15.2877 145.874 15.2877H144.625V12.1973H145.874ZM155.638 21.9945H158.564V9.99454H155.638V21.9945ZM172.964 18.7726C171.847 19.5617 170.86 19.8247 169.841 19.8247C167.605 19.8247 166.027 18.2795 166.027 15.9781C166.027 13.6767 167.573 12.1315 169.742 12.1315C170.729 12.1315 171.715 12.3945 172.8 13.1836V10.4548C171.814 9.89591 170.663 9.66577 169.381 9.66577C165.403 9.66577 162.904 12.4274 162.871 15.9452C162.904 19.4959 165.337 22.2247 169.381 22.2247C170.729 22.2247 171.879 21.9945 172.932 21.4356V18.7726H172.964ZM183.682 9.96166H180.723L176.219 21.9945H179.211L180.033 19.4959H184.373L185.195 21.9945H188.219L183.682 9.96166ZM182.203 12.8548L183.616 17.2932H180.723L182.203 12.8548Z" fill="#012169"/>
</g>
<defs>
<clipPath id="clip0_45_4233">
<rect width="236.712" height="24" fill="white"/>
</clipPath>
</defs>
</svg>
