<svg width="86" height="24" viewBox="0 0 86 24" fill="none" xmlns="http://www.w3.org/2000/svg">
<g clip-path="url(#clip0_45_4232)">
<path d="M85.5235 0H0V24H85.5235V0Z" fill="#FFCF00"/>
<path d="M53.2315 11.2517C52.9497 11.2517 52.651 11.3121 52.4564 11.3893V14.9698C52.6074 15.0202 52.8893 15.0571 53.1745 15.0571C54.1879 15.0571 54.7852 14.349 54.7852 13.1074C54.7852 11.8658 54.2181 11.2551 53.2315 11.2551M53.0067 16.651C51.8154 16.651 50.6644 16.4262 49.9933 16.1678V6.745H52.453V9.91614C52.7651 9.8054 53.3054 9.71815 53.7215 9.71815C55.8087 9.71815 57.2416 10.8859 57.2416 12.9363C57.2416 15.4463 55.7349 16.6544 53.0034 16.6544" fill="black"/>
<path d="M62.1678 13.4161C60.8423 13.4664 59.8423 13.5906 59.8423 14.3859C59.8423 14.9329 60.3926 15.2315 61.2718 15.2315C61.6175 15.2315 62.0034 15.1812 62.1678 15.1308V13.4161ZM61.349 16.6476C58.8121 16.6476 57.5604 15.8657 57.5604 14.4362C57.5604 12.6577 59.7383 12.2483 62.1678 12.1342V11.8725C62.1678 11.3389 61.7215 11.0906 60.8859 11.0906C60.1108 11.0906 59.1879 11.302 58.604 11.5L58.0067 10.1308C58.7215 9.89259 59.7181 9.60065 61.1846 9.60065C63.3759 9.60065 64.4799 10.3423 64.4799 12.1208V16.161C63.8691 16.4228 62.6309 16.6443 61.349 16.6443" fill="black"/>
<path d="M69.9396 16.5V12.151C69.9396 11.5906 69.6208 11.2248 68.7416 11.2248C68.2852 11.2248 67.8792 11.3926 67.8792 11.3926V16.5033H65.4194V10.1409C66.3154 9.85233 67.3725 9.60736 68.7751 9.60736C71.2953 9.60736 72.3993 10.4631 72.3993 11.9161V16.5033H69.9396V16.5Z" fill="black"/>
<path d="M78.2785 16.5L75.8154 13.1544H75.7886V16.5H73.3557V6.74164H75.7886V12.6712H75.8154L78.0403 9.79869H80.8154L78.3087 12.9195L81.0235 16.5H78.2785Z" fill="black"/>
<path d="M45.3658 19.1711H42.7852L43.9933 16.5L40.9664 9.79865H43.6443L45.2752 14.557L46.896 9.79865H49.5738L45.3658 19.1711Z" fill="black"/>
<path d="M32.5637 7.5H29.698L27.8053 13.0604L25.9094 7.5H23.0469L21.7483 16.5H24.0906L24.8355 10.3121L27.0302 16.5H28.5805L30.7751 10.3121L31.5201 16.5H33.8624L32.5637 7.5Z" fill="black"/>
<path d="M38.7819 13.4161C37.4564 13.4664 36.4564 13.5906 36.4564 14.3859C36.4564 14.9329 37.0068 15.2315 37.886 15.2315C38.2283 15.2315 38.6175 15.1812 38.7819 15.1308V13.4161ZM37.9632 16.6476C35.4262 16.6476 34.1746 15.8657 34.1746 14.4362C34.1746 12.6577 36.3524 12.2483 38.7819 12.1342V11.8725C38.7819 11.3389 38.3356 11.0906 37.5001 11.0906C36.7249 11.0906 35.8021 11.302 35.2182 11.5L34.6209 10.1308C35.3356 9.89259 36.5437 9.60065 37.7987 9.60065C39.99 9.60065 41.094 10.3423 41.094 12.1208V16.161C40.4833 16.4228 39.245 16.6443 37.9632 16.6443" fill="black"/>
<path d="M18.8927 11.9933C18.8927 15.7986 15.8054 18.8859 12 18.8859C8.19467 18.8859 5.10742 15.7986 5.10742 11.9933C5.10742 8.1879 8.19467 5.10065 12 5.10065C15.8054 5.10065 18.8927 8.1879 18.8927 11.9933Z" fill="#FFCF00"/>
<path d="M12 18.8859C8.19128 18.8859 5.10738 15.7987 5.10738 11.9933C5.10738 8.18792 8.19128 5.10067 12 5.10067C15.8087 5.10067 18.8926 8.18456 18.8926 11.9933C18.8926 15.802 15.8054 18.8859 12 18.8859ZM12 4.5C7.86242 4.5 4.50671 7.85571 4.50671 11.9933C4.50671 16.1309 7.86242 19.4866 12 19.4866C16.1376 19.4866 19.4933 16.1342 19.4933 11.9933C19.4933 7.85235 16.1376 4.5 12 4.5Z" fill="black"/>
<path d="M9.01016 11.651C8.47324 11.5168 8.00344 12.141 7.7417 12.6175C7.8323 11.9698 8.62761 10.9061 9.01016 11.651Z" fill="black"/>
<path d="M7.83228 11.6577C8.01348 11.0403 8.4363 10.8154 8.66449 10.9967C8.35577 11.0973 8.13093 11.2752 7.83228 11.6577Z" fill="black"/>
<path d="M9.20138 12.6476C9.47655 12.4127 9.44971 12.0671 9.02018 11.9563C8.70474 11.8758 8.02018 12.4463 7.94971 13.0805C8.22152 12.7282 9.01011 12.0839 9.20138 12.6476Z" fill="black"/>
<path d="M13.5033 14.2886C13.5503 13.4765 12.7651 13.0973 12.6141 12.2685C12.4664 11.4363 13.8456 10.1074 12.9731 8.74835C14.6174 10.0739 13.3288 10.8557 14.1577 11.9598C13.8389 11.8658 13.5201 11.5772 13.4228 11.4262C12.9597 12.0336 14.557 12.8692 13.5033 14.2886Z" fill="black"/>
<path d="M10.8558 7.74835C11.0504 7.74835 11.3826 7.88594 11.2484 8.0403C10.792 8.46647 10.1779 8.29533 9.68799 8.72151C9.88597 8.18795 10.7819 8.11077 10.8558 7.74835Z" fill="black"/>
<path d="M10.2953 9.5403C10.2349 9.5403 10.1812 9.45641 10.1644 9.34902C10.2416 9.55037 10.4396 9.45305 10.3255 9.16782C10.396 9.16782 10.5067 9.17453 10.7114 9.16782C10.4966 9.27855 10.3993 9.54701 10.2919 9.54365M12.3322 8.35238C12.5201 8.13761 12.3456 7.84567 11.5637 7.74835C12.3792 8.14768 11.0671 8.23157 11.0235 8.91614C10.5939 9.08728 10.2517 8.8054 10.0403 9.00003C9.83556 9.18459 9.59731 9.06043 9.66442 8.84231C9.4161 8.96983 9.46643 9.3054 9.70804 9.40943C9.75502 9.43292 9.79865 9.4799 9.76174 9.51345C9.49663 9.76178 9.37583 9.97654 9.651 10.2249C9.802 9.94634 9.87583 9.84902 10.047 9.70808C10.2047 9.81882 10.4799 9.745 10.8557 9.3356C10.8725 9.31547 10.896 9.32218 10.8893 9.34902C10.594 10.3692 9.83556 10.5369 9.59395 10.4866C9.7416 10.7047 10.7047 10.8423 10.8221 10.4128C11.0973 9.44298 12.0335 9.02016 11.2248 9.03694C11.4429 8.78191 12.1778 8.5403 12.3356 8.35909" fill="black"/>
<path d="M12.7416 7.82886C13.1343 8.08053 13.3121 8.24832 13.5705 8.55369C13.6208 8.13758 13.3826 7.31543 13.0369 7.12751C12.8859 7.04362 12.6678 7.61745 12.7416 7.82886Z" fill="black"/>
<path d="M6.50336 11.151C6.75503 10.4899 7.36913 9.70136 8.36242 9.1074C8.5906 8.51679 8.51678 8.11075 10.9262 7.17787C10.9866 6.81881 10.9732 6.39599 11.0772 6.39599C11.1812 6.39599 11.5336 6.55035 11.7886 6.91948C11.896 6.90941 11.9866 6.89599 12.0537 6.88928C12.094 6.68122 12.2416 6.11075 12.4295 5.81545C12.604 5.54364 12.9396 5.51679 13.3691 5.8725C13.8188 6.24163 14.1342 6.39263 14.7483 7.17787C15.2685 7.41277 16.0805 7.71143 16.7852 8.57049C16.4799 8.36914 16.1342 8.29532 15.849 8.26176C16.4228 8.76512 16.802 9.59398 16.5134 10.8087C16.4027 9.67451 15.5671 9.20136 15.057 8.83894C15.3356 9.79532 14.1342 9.46646 13.7685 8.74834C13.8893 8.78525 14.0134 8.7819 14.0872 8.73156C14.0503 7.26847 13.3591 6.42955 13.0537 6.17116C12.6611 5.84901 12.4497 6.63089 12.3188 7.22149C12.2752 7.41948 12.1074 7.55706 11.8926 7.55035C11.9396 7.47988 11.9933 7.28861 12.0034 7.23156C11.396 7.27854 10.7114 7.63424 10.2919 7.82552C9.22819 8.30539 8.95973 8.547 8.72483 9.35908C7.87919 9.71478 6.90604 10.6913 6.5 11.151" fill="black"/>
<path d="M11.8221 10.9496C11.9395 11.0839 12.6442 12.1443 11.8288 13.4966C12.0536 12.5033 11.4328 10.6007 10.7482 11.5738C11.2113 11.7752 11.3623 12.1543 11.2382 12.5201C11.0503 12.1678 10.5637 11.7852 10.0905 11.9429C9.85227 12.0235 9.53684 12.0235 9.30194 11.6778C8.99321 11.2248 9.50999 10.6678 8.62744 10.7147C9.6912 10.1745 9.38583 11.2248 9.89925 11.349C10.4966 11.4933 10.567 11.1241 10.7717 10.8859C10.9362 10.6913 11.2415 10.5403 11.5637 10.7517C11.7147 10.2852 11.4932 9.55032 11.9295 9.16106C12.0905 9.02012 12.6006 9.03354 12.8657 9.2483C12.4899 9.24159 12.0469 9.69126 11.8254 10.9564" fill="black"/>
<path d="M9.38918 15.2383C9.3422 15.1947 9.1979 15.0135 9.21132 14.8155C9.38918 14.9296 9.63079 14.9866 9.63079 14.9866C9.63079 14.9866 9.51669 15.1812 9.38582 15.2416M10.4563 14.0739C10.5637 14.0839 10.6509 14.1712 10.7482 14.1007C10.8422 14.0302 10.7482 13.745 10.6711 13.6544C10.7617 13.6376 11.1308 13.6712 11.114 13.8088C11.0704 14.1544 10.8523 14.2685 10.3221 14.5235C10.4127 14.4396 10.3992 14.2551 10.4563 14.0705M8.33884 13.7819C8.38582 13.6745 8.58716 13.5336 8.67777 13.5269C8.64421 13.8322 8.75495 14.245 8.75495 14.245C8.75495 14.245 8.34555 13.9866 8.3422 13.7819M6.98985 12.4296C6.79522 12.292 6.4932 11.9799 6.45965 11.8658C6.49656 11.8222 6.65763 11.6443 6.86569 11.5873C7.01669 11.547 7.11401 11.6309 7.09387 11.6779C7.07374 11.7249 6.93951 11.7249 6.89924 11.839C6.83884 12.0168 7.03347 12.0671 7.07038 12.1443C7.09387 12.1947 7.14421 12.3222 6.98985 12.4262M17.2617 9.09063C17.8053 10.9799 17.6509 12.802 17.0939 13.8859C17.1643 13.2047 16.567 12.2081 16.8086 11.0437C15.6744 12.1443 17.4462 14.8457 14.8758 16.6141C15.2583 15.9967 15.4362 14.4598 15.2986 13.9027C15.4362 13.9564 15.5737 14.1275 15.661 14.2718C15.8758 13.5671 15.9026 12.5671 15.4999 11.5571C15.6375 11.5739 15.9261 11.7014 16.0603 11.8289C16.1241 10.2651 14.9798 10.1477 14.765 9.72151C14.765 10.1779 15.2986 10.5638 15.3959 11.1577C15.0234 10.9799 14.7516 10.9598 14.557 10.9799C14.8456 11.1879 15.4898 12.4329 15.2986 13.4329C15.02 13.198 14.765 13.0906 14.4865 13.0705C14.8288 13.5873 14.9664 14.9396 14.5402 15.5537C14.5268 15.4161 14.4764 15.0101 14.3187 14.8423C14.1174 15.5973 13.5268 15.9195 13.1207 16.0101C13.6241 15.4833 13.5268 14.5537 12.7885 14.2987C12.1241 14.0705 11.2784 14.5235 10.9395 16.1041C10.4596 16.245 9.0234 15.9363 9.88247 15.0101C10.4093 15.1846 11.7415 14.292 11.6509 13.6678C11.5234 12.7953 10.7315 12.49 10.1006 12.4967C9.32206 12.5067 8.79857 13.2316 8.16099 13.547C7.63079 13.4665 7.44958 13.3926 7.17777 12.6846C7.14421 12.2517 7.6073 11.9463 7.59723 11.5C7.22139 11.5806 7.12743 11.0101 6.38918 11.6007C6.33213 11.4933 6.42944 11.2416 6.42944 11.2416C6.15763 11.4866 6.1073 11.7786 6.10059 11.839C6.23481 12.1007 6.41938 12.339 6.78179 12.5772C7.21468 13.7349 7.66099 13.8658 8.12072 13.9094C8.1979 14.0202 8.54018 14.4262 8.97307 14.4933C8.89924 14.2752 8.88918 13.6611 8.9328 13.5067C9.87575 12.5638 10.5737 13.1376 10.6643 13.3893C9.82877 13.5604 10.4194 15.3524 9.03347 14.5537C8.97642 14.7349 9.05361 15.1913 9.23146 15.4564C9.3724 16.6812 10.916 16.3826 11.3892 16.5973C11.3388 15.4061 11.9966 14.5369 12.5637 14.6074C13.1308 14.6779 13.2784 15.6041 12.3086 16.4799C12.5469 16.6074 13.5838 16.4329 14.1107 16.0504C14.161 16.3524 13.7717 17.2484 13.2851 17.8759C17.3556 16.943 19.1744 12.5302 17.2684 9.08057" fill="black"/>
</g>
<defs>
<clipPath id="clip0_45_4232">
<rect width="85.5235" height="24" fill="white"/>
</clipPath>
</defs>
</svg>
