<svg width="113" height="78" viewBox="0 0 113 78" fill="none" xmlns="http://www.w3.org/2000/svg">
<g id="Bank of India" clip-path="url(#clip0_4_1433)">
<path id="Vector" fill-rule="evenodd" clip-rule="evenodd" d="M25.11 34.63C22.8775 34.6675 20.7214 33.8178 19.1147 32.2673C17.508 30.7169 16.5821 28.5923 16.54 26.36C16.5242 25.1702 16.7381 23.9887 17.17 22.88C17.7451 21.4262 18.7061 20.157 19.9494 19.2091C21.1926 18.2612 22.671 17.6706 24.2251 17.5009C25.7793 17.3312 27.3503 17.5888 28.7688 18.2461C30.1873 18.9033 31.3996 19.9352 32.275 21.2306C33.1503 22.5259 33.6555 24.0357 33.7361 25.597C33.8168 27.1583 33.4698 28.712 32.7326 30.0907C31.9954 31.4693 30.8959 32.6207 29.5527 33.4206C28.2094 34.2205 26.6733 34.6387 25.11 34.63ZM25.11 21.84C24.5628 21.8473 24.0228 21.9651 23.5224 22.1863C23.0219 22.4076 22.5714 22.7277 22.1978 23.1274C21.8242 23.5272 21.5352 23.9984 21.3483 24.5126C21.1613 25.0269 21.0803 25.5736 21.11 26.12C21.0776 26.6714 21.1562 27.2237 21.3411 27.7442C21.526 28.2648 21.8135 28.7429 22.1864 29.1504C22.5594 29.5578 23.0103 29.8863 23.5125 30.1164C24.0146 30.3465 24.5578 30.4735 25.11 30.49C27.81 30.49 29.03 27.97 29.03 26.19C29.03 24.41 27.8 21.84 25.03 21.84H25.11Z" fill="#007DC5"/>
<path id="Vector_2" fill-rule="evenodd" clip-rule="evenodd" d="M34.53 34.34V17.99H39.16V34.34H34.53Z" fill="#007DC5"/>
<path id="Vector_3" fill-rule="evenodd" clip-rule="evenodd" d="M14.88 26.16C15.3089 25.7741 15.6464 25.2974 15.8679 24.7646C16.0893 24.2318 16.1891 23.6563 16.16 23.08C16.1768 22.3939 16.0462 21.7121 15.7771 21.0807C15.508 20.4494 15.1066 19.8831 14.6 19.42C13.04 18.12 11.9 17.99 9.26001 17.99H4V34.33H9.29999C11.94 34.33 13.08 34.21 14.64 32.91C15.1461 32.4465 15.5471 31.8801 15.8162 31.2488C16.0852 30.6176 16.2161 29.936 16.2 29.25C16.2278 28.6724 16.1274 28.0959 15.9061 27.5616C15.6848 27.0274 15.3481 26.5487 14.92 26.16H14.88ZM8.42001 22.16H10C10.83 22.16 11.69 22.3 11.69 23.36C11.69 24.24 11.04 24.36 10 24.36H8.41V22.11L8.42001 22.16ZM10.01 30.21H8.42001V27.96H10C11 27.96 11.69 28.13 11.69 28.96C11.69 30.02 10.83 30.16 10 30.16L10.01 30.21Z" fill="#007DC5"/>
<path id="Vector_4" fill-rule="evenodd" clip-rule="evenodd" d="M57.75 26.87L48.56 35L53.7 23.89L43.22 17.83L55.2 19.11L57.75 0L60.31 19.11L72.3 17.82L61.8 23.89L66.95 35.02L57.75 26.87Z" fill="#231F20"/>
<path id="Vector_5" fill-rule="evenodd" clip-rule="evenodd" d="M57.75 26.64L49.07 34.32L53.93 23.82L44.02 18.09L55.35 19.3L57.75 1.32001L60.16 19.3L71.49 18.09L61.58 23.82L66.44 34.32L57.75 26.64Z" fill="#EF4123"/>
<path id="Vector_6" fill-rule="evenodd" clip-rule="evenodd" d="M60.16 19.3H55.35L53.94 23.82L57.75 26.64L61.58 23.82L60.16 19.3Z" fill="#007DC5"/>
<path id="Vector_7" fill-rule="evenodd" clip-rule="evenodd" d="M57.75 25.67C57.1365 25.67 56.5367 25.4879 56.0267 25.1469C55.5167 24.8058 55.1194 24.321 54.885 23.754C54.6507 23.1869 54.5899 22.5632 54.7103 21.9616C54.8308 21.3599 55.127 20.8076 55.5615 20.3745C55.9961 19.9413 56.5494 19.6469 57.1514 19.5284C57.7534 19.4099 58.377 19.4727 58.9432 19.7089C59.5095 19.945 59.993 20.3439 60.3324 20.8551C60.6718 21.3662 60.852 21.9665 60.85 22.58C60.85 22.9867 60.7698 23.3893 60.6138 23.7648C60.4579 24.1404 60.2294 24.4814 59.9414 24.7685C59.6534 25.0556 59.3116 25.283 58.9356 25.4377C58.5595 25.5924 58.1566 25.6713 57.75 25.67Z" fill="#231F20"/>
<path id="Vector_8" fill-rule="evenodd" clip-rule="evenodd" d="M57.75 25.5C57.1725 25.5 56.608 25.3288 56.1278 25.0079C55.6476 24.687 55.2733 24.231 55.0523 23.6975C54.8313 23.1639 54.7735 22.5768 54.8861 22.0103C54.9988 21.4439 55.2769 20.9237 55.6853 20.5153C56.0936 20.1069 56.614 19.8288 57.1804 19.7161C57.7468 19.6035 58.3339 19.6613 58.8675 19.8823C59.401 20.1033 59.8571 20.4776 60.1779 20.9578C60.4988 21.438 60.67 22.0025 60.67 22.58C60.67 23.3545 60.3624 24.0972 59.8148 24.6448C59.2672 25.1924 58.5245 25.5 57.75 25.5Z" fill="white"/>
<g id="Vector_9">
<path d="M57.62 20.5794C57.6061 20.5794 57.5924 20.5762 57.58 20.57L57.6 20.49C57.66 20.49 57.66 20.57 57.66 20.57C57.6475 20.5762 57.6339 20.5794 57.62 20.5794Z" fill="#231F20"/>
<path d="M57.67 20.72H57.72V20.63H57.71C57.71 20.58 57.8 20.57 57.83 20.63C57.8158 20.6414 57.7982 20.6475 57.78 20.6475C57.7619 20.6475 57.7442 20.6414 57.73 20.63C57.73 20.66 57.79 20.72 57.73 20.72H57.72V20.75L57.67 20.72Z" fill="#231F20"/>
<path d="M59.08 24.53H59.07H59.03C58.974 24.5184 58.9161 24.5184 58.86 24.53C58.7567 24.5354 58.6533 24.5354 58.55 24.53H58.44H58.34C58.3257 24.5302 58.3117 24.5253 58.3007 24.5161C58.2897 24.5069 58.2824 24.4941 58.28 24.48C58.2914 24.4138 58.2914 24.3462 58.28 24.28C58.2738 24.2503 58.2738 24.2197 58.28 24.19C58.2845 24.1635 58.2845 24.1365 58.28 24.11C58.2752 24.0802 58.2752 24.0498 58.28 24.02C58.2822 23.9724 58.2997 23.9268 58.33 23.89H58.41V24.077C58.4363 24.0702 58.4641 24.0712 58.49 24.08H58.55C58.5926 24.0915 58.6374 24.0915 58.68 24.08H58.81C58.8723 24.0924 58.9327 24.1126 58.99 24.14H59.06H59.13H59.19H59.27C59.2762 24.1524 59.2794 24.1661 59.2794 24.18C59.2794 24.1939 59.2762 24.2075 59.27 24.22L59.2762 24.3257C59.305 24.3386 59.333 24.3534 59.36 24.37H59.42H59.48H59.48C59.5464 24.37 59.629 24.37 59.6959 24.39H59.7C59.7185 24.39 59.7233 24.3955 59.7246 24.4003C59.7272 24.4015 59.7298 24.4027 59.7324 24.4039C59.7361 24.4011 59.7417 24.3967 59.75 24.39C59.8 24.35 59.75 24.3 59.75 24.3C59.81 24.25 59.81 24.3 59.81 24.3L59.7755 24.4311C59.8075 24.4544 59.7827 24.4399 59.7683 24.4583L59.76 24.49C59.76 24.4741 59.7636 24.4644 59.7683 24.4583L59.7755 24.4311C59.7713 24.4281 59.7662 24.4244 59.76 24.42C59.7515 24.4139 59.7423 24.4086 59.7324 24.4039C59.7221 24.4116 59.7262 24.4064 59.7246 24.4003C59.7154 24.3964 59.7058 24.393 59.6959 24.39H59.63V24.45C59.6209 24.4553 59.6105 24.4581 59.6 24.4581C59.5894 24.4581 59.5791 24.4553 59.57 24.45C59.57 24.45 59.57 24.4102 59.5159 24.39C59.5036 24.3854 59.4885 24.3819 59.47 24.38H59.2794L59.28 24.39V24.47C59.28 24.47 59.28 24.53 59.22 24.53C59.2108 24.5353 59.2005 24.538 59.19 24.538C59.1795 24.538 59.1691 24.5353 59.16 24.53C59.1343 24.5401 59.1057 24.5401 59.08 24.53Z" fill="#231F20"/>
<path d="M58.28 24.5C58.2484 24.4782 58.2148 24.4595 58.1797 24.4441C58.1598 24.4468 58.1395 24.4454 58.12 24.44H58.02H57.96H57.88C57.88 24.44 57.88 24.38 57.93 24.36C57.98 24.34 58 24.36 58.03 24.36H58.09L58.19 24.41L58.2117 24.4317C58.2249 24.4319 58.2379 24.4347 58.25 24.44H58.22L58.28 24.5Z" fill="#231F20"/>
<path d="M57.85 24.15V24.22L57.79 24.15H57.85V23.9C57.8556 23.9833 57.8556 24.0668 57.85 24.15Z" fill="#231F20"/>
<path d="M57.93 23.69C57.95 23.84 58.01 23.99 58.01 24.13L57.93 24.12V23.91C57.9197 23.8347 57.9196 23.7584 57.9296 23.6831C57.92 23.5256 57.9202 23.3676 57.93 23.21V23.32V23.68C57.9298 23.681 57.9297 23.6821 57.9296 23.6831C57.9297 23.6854 57.9298 23.6877 57.93 23.69Z" fill="#231F20"/>
</g>
<path id="Vector_10" fill-rule="evenodd" clip-rule="evenodd" d="M57.75 2.65002L55.6 18.84L57.76 17.69L57.75 2.65002Z" fill="#F58220"/>
<path id="Vector_11" fill-rule="evenodd" clip-rule="evenodd" d="M53.14 21.07L44.83 18.35L53.62 23.42L53.14 21.07Z" fill="#F58220"/>
<path id="Vector_12" fill-rule="evenodd" clip-rule="evenodd" d="M70.7 18.34L60.66 19.43L62.38 21.06L70.7 18.34Z" fill="#F58220"/>
<path id="Vector_13" fill-rule="evenodd" clip-rule="evenodd" d="M60.64 26.46L65.93 33.63L61.61 24.34L60.64 26.46Z" fill="#F58220"/>
<path id="Vector_14" fill-rule="evenodd" clip-rule="evenodd" d="M49.58 33.63L57.28 26.81L54.87 26.46L49.58 33.63Z" fill="#F58220"/>
<path id="Vector_15" fill-rule="evenodd" clip-rule="evenodd" d="M58.05 26.64L60.5 26.29L61.5 24.09L58.05 26.64Z" fill="#F58220"/>
<path id="Vector_16" fill-rule="evenodd" clip-rule="evenodd" d="M54.02 24.1L55 26.28L57.45 26.64L54.02 24.1Z" fill="#F58220"/>
<path id="Vector_17" fill-rule="evenodd" clip-rule="evenodd" d="M55.11 19.5L53.36 21.14L53.85 23.52L55.11 19.5Z" fill="#F58220"/>
<path id="Vector_18" fill-rule="evenodd" clip-rule="evenodd" d="M60.4 19.5L62.15 21.14L61.66 23.51L60.4 19.5Z" fill="#F58220"/>
<path id="Vector_19" fill-rule="evenodd" clip-rule="evenodd" d="M59.94 19.13L57.76 17.95L55.57 19.13H59.94Z" fill="#F58220"/>
<path id="Vector_20" fill-rule="evenodd" clip-rule="evenodd" d="M112.72 66.42H0V44.29L75.25 44.28L93.99 50.34L112.72 44.28V66.42Z" fill="#007DC5"/>
<path id="Vector_21" fill-rule="evenodd" clip-rule="evenodd" d="M9 73.07L8.39999 75.45H8.73999C8.90487 75.4457 9.06897 75.4256 9.23001 75.39L9.17999 75.61C9.02884 75.6442 8.87486 75.6642 8.72 75.67H8.20001H7.70001C7.42061 75.6742 7.14241 75.7078 6.87 75.77L6.94 75.52C7.16616 75.4742 7.38267 75.3897 7.57999 75.27C7.76169 75.0832 7.88356 74.8465 7.92999 74.59L8.56 72.08C8.608 71.8958 8.64475 71.7088 8.67001 71.52C8.6699 71.475 8.6519 71.4318 8.62 71.4C8.54475 71.3792 8.46526 71.3792 8.39002 71.4L8.45001 71.19C8.8189 71.1778 9.18492 71.1207 9.54001 71.02C9.48485 71.1842 9.43811 71.3511 9.39999 71.52L9.06 72.85C9.17966 72.8627 9.30035 72.8627 9.42001 72.85C9.60486 72.8599 9.78967 72.8303 9.96213 72.763C10.1346 72.6958 10.2907 72.5925 10.42 72.46C10.5484 72.3419 10.6503 72.1979 10.7192 72.0377C10.7882 71.8774 10.8225 71.7045 10.82 71.53C10.8247 71.398 10.7982 71.2666 10.7426 71.1467C10.687 71.0269 10.6039 70.9218 10.5 70.84C10.2525 70.6472 9.94319 70.5512 9.63001 70.57C9.14997 70.5757 8.67772 70.692 8.25 70.91C7.84872 71.102 7.50415 71.3949 7.25 71.76C7.03053 72.0701 6.91182 72.4402 6.91 72.82C6.91182 72.957 6.94418 73.0917 7.00473 73.2146C7.06528 73.3374 7.15251 73.4452 7.26001 73.53C7.33864 73.5946 7.40914 73.6685 7.47 73.75C7.48455 73.7955 7.48455 73.8445 7.47 73.89C7.47129 73.9217 7.4657 73.9533 7.45361 73.9827C7.44153 74.012 7.42323 74.0384 7.39999 74.06C7.35374 74.1033 7.29331 74.1282 7.23001 74.13C7.13976 74.1217 7.05305 74.0907 6.97791 74.04C6.90276 73.9893 6.84156 73.9206 6.79999 73.84C6.63194 73.5707 6.54836 73.2573 6.56 72.94C6.55593 72.4818 6.6882 72.0328 6.94 71.65C7.22469 71.2178 7.62244 70.8719 8.09 70.65C8.59495 70.3933 9.15351 70.2596 9.72 70.26C10.1787 70.2422 10.634 70.3457 11.04 70.56C11.1975 70.6485 11.328 70.7779 11.4178 70.9346C11.5076 71.0913 11.5533 71.2695 11.55 71.45C11.5424 71.6397 11.497 71.8259 11.4163 71.9976C11.3355 72.1694 11.2212 72.3232 11.08 72.45C10.7241 72.7887 10.2679 73.0027 9.78 73.06C9.87749 73.238 9.96432 73.4217 10.04 73.61C10.11 73.78 10.2 74.05 10.33 74.43C10.5242 75.1156 10.8428 75.7597 11.27 76.33C11.3633 76.4468 11.48 76.5427 11.6126 76.6116C11.7453 76.6805 11.8908 76.7208 12.04 76.73C12.164 76.7394 12.2874 76.7057 12.3894 76.6347C12.4914 76.5636 12.5658 76.4596 12.6 76.34C12.6194 76.2313 12.6639 76.1285 12.73 76.04C12.7542 76.0139 12.7836 75.9933 12.8164 75.9795C12.8491 75.9657 12.8845 75.9591 12.92 75.96C12.9532 75.9586 12.9864 75.964 13.0174 75.9761C13.0484 75.9881 13.0765 76.0065 13.1 76.03C13.1508 76.0803 13.1795 76.1486 13.18 76.22C13.172 76.3261 13.1399 76.429 13.0862 76.5208C13.0325 76.6127 12.9585 76.691 12.87 76.75C12.647 76.9215 12.3712 77.0099 12.09 77C11.8001 77.0007 11.5147 76.9284 11.26 76.79C10.9537 76.6183 10.6878 76.383 10.48 76.1C10.2173 75.7446 9.99896 75.3584 9.82999 74.95C9.73999 74.72 9.59999 74.31 9.42999 73.71C9.31999 73.35 9.25 73.13 9.22 73.06H9V73.07Z" fill="#231F20"/>
<path id="Vector_22" fill-rule="evenodd" clip-rule="evenodd" d="M13 73.86C13.4027 73.6945 13.772 73.4573 14.09 73.16C14.2333 73.0276 14.3193 72.8447 14.33 72.65C14.3365 72.5378 14.3009 72.4272 14.23 72.34C14.199 72.3018 14.1591 72.2717 14.1137 72.2525C14.0684 72.2333 14.019 72.2256 13.97 72.23C13.8527 72.232 13.7397 72.2743 13.65 72.35C13.4922 72.4859 13.3689 72.6572 13.29 72.85C13.1561 73.1714 13.0588 73.5068 13 73.85V73.86ZM14.57 74.51L14.72 74.71C14.2333 75.2577 13.5662 75.6125 12.84 75.71C12.7475 75.7167 12.6547 75.7011 12.5695 75.6646C12.4842 75.6281 12.4089 75.5716 12.35 75.5C12.2232 75.2932 12.1638 75.052 12.18 74.81C12.1908 74.1285 12.3917 73.4635 12.76 72.89C12.9009 72.5858 13.1209 72.325 13.3971 72.135C13.6733 71.945 13.9955 71.8327 14.33 71.81C14.5072 71.8029 14.6811 71.8596 14.82 71.97C14.8748 72.0288 14.9172 72.0982 14.9447 72.1738C14.9722 72.2493 14.9842 72.3296 14.98 72.41C14.9794 72.6171 14.9089 72.8179 14.78 72.98C14.5855 73.2264 14.3399 73.4277 14.06 73.57C13.8867 73.67 13.5167 73.85 12.95 74.11C12.9356 74.263 12.9356 74.417 12.95 74.57C12.9331 74.7237 12.9683 74.8787 13.05 75.01C13.0828 75.055 13.1269 75.0907 13.1777 75.1135C13.2286 75.1363 13.2845 75.1455 13.34 75.14C13.4799 75.1339 13.6166 75.0963 13.74 75.03C14.0468 74.8709 14.3381 74.6834 14.61 74.47L14.57 74.51Z" fill="#231F20"/>
<path id="Vector_23" fill-rule="evenodd" clip-rule="evenodd" d="M17.43 74.55L17.58 74.72C17.3336 74.9927 17.0549 75.2346 16.75 75.44C16.5248 75.6171 16.2547 75.728 15.97 75.76C15.9266 75.7616 15.8834 75.7534 15.8436 75.7361C15.8038 75.7188 15.7684 75.6928 15.74 75.66C15.678 75.5763 15.6463 75.474 15.65 75.37C15.6942 74.8653 15.788 74.3663 15.93 73.88L16.41 71.88C16.5139 71.3912 16.6612 70.9126 16.85 70.45C17.0277 70.095 17.3014 69.7971 17.64 69.59C17.9631 69.3953 18.3328 69.2916 18.71 69.29C18.8204 69.2849 18.9295 69.3165 19.02 69.38C19.0536 69.4081 19.0807 69.4433 19.0992 69.4831C19.1178 69.5228 19.1274 69.5661 19.1274 69.61C19.1274 69.6538 19.1178 69.6972 19.0992 69.7369C19.0807 69.7767 19.0536 69.8119 19.02 69.84C18.9284 69.9099 18.8151 69.9453 18.7 69.94C18.5756 69.933 18.4518 69.9163 18.33 69.89C18.1968 69.8816 18.0632 69.8816 17.93 69.89C17.8302 69.8833 17.7312 69.9115 17.65 69.97C17.5328 70.0955 17.4532 70.2514 17.42 70.42C17.35 70.65 17.23 71.1 17.07 71.78L16.63 73.66C16.4 74.6 16.29 75.09 16.29 75.13C16.29 75.17 16.29 75.28 16.4 75.28C16.5048 75.2635 16.6042 75.2224 16.69 75.16C16.9584 74.9884 17.2067 74.7871 17.43 74.56V74.55Z" fill="#231F20"/>
<path id="Vector_24" fill-rule="evenodd" clip-rule="evenodd" d="M20.49 72.47C20.355 72.4415 20.2178 72.4247 20.08 72.42C19.8293 72.4178 19.5843 72.4948 19.38 72.64C19.1301 72.8563 18.9377 73.1312 18.82 73.44C18.6533 73.8043 18.5647 74.1994 18.56 74.6C18.5512 74.7499 18.5859 74.8993 18.66 75.03C18.6905 75.0733 18.7309 75.1086 18.7779 75.1329C18.8249 75.1573 18.8771 75.17 18.93 75.17C19.189 75.148 19.4293 75.0261 19.6 74.83C19.8656 74.5534 20.0461 74.2063 20.12 73.83L20.49 72.43V72.47ZM21.05 71.79L21.34 71.72L21.01 72.86C20.87 73.3067 20.74 73.8266 20.62 74.42C20.5759 74.6244 20.5458 74.8315 20.53 75.04C20.53 75.13 20.53 75.18 20.64 75.18C20.7239 75.1667 20.8031 75.1323 20.87 75.08C21.0624 74.9651 21.2404 74.8274 21.4 74.67L21.54 74.85C21.2 75.16 20.98 75.34 20.89 75.41C20.7209 75.5315 20.5358 75.6291 20.34 75.7C20.2347 75.7419 20.1232 75.7655 20.01 75.77C19.979 75.7733 19.9476 75.7695 19.9182 75.7592C19.8888 75.7488 19.8621 75.732 19.84 75.71C19.8188 75.6894 19.8024 75.6644 19.792 75.6367C19.7817 75.6091 19.7776 75.5794 19.78 75.55C19.7734 75.4902 19.7734 75.4298 19.78 75.37L19.96 74.76C19.6988 75.0721 19.388 75.339 19.04 75.55C18.864 75.6755 18.6559 75.7483 18.44 75.76C18.3638 75.7639 18.2878 75.7497 18.2182 75.7184C18.1487 75.6871 18.0876 75.6396 18.04 75.58C17.9093 75.389 17.8427 75.1613 17.85 74.93C17.8633 74.5626 17.9518 74.2018 18.11 73.87C18.2766 73.4816 18.5064 73.1234 18.79 72.81C19.0395 72.5223 19.3416 72.2847 19.68 72.11C19.9781 71.9887 20.2983 71.9309 20.62 71.94H20.91L21.02 71.77L21.05 71.79Z" fill="#231F20"/>
<path id="Vector_25" fill-rule="evenodd" clip-rule="evenodd" d="M23.32 71.17L24.03 70.9L23.71 72.15H24.64L24.57 72.47H23.64L23.25 73.98C23.1492 74.2846 23.0854 74.6002 23.06 74.92C23.0553 74.9809 23.0731 75.0414 23.11 75.09C23.1275 75.1097 23.1492 75.1252 23.1733 75.1356C23.1975 75.1459 23.2237 75.1509 23.25 75.15C23.4046 75.1277 23.5519 75.0695 23.68 74.98C23.9323 74.8317 24.173 74.6646 24.4 74.48L24.57 74.69C24.1524 75.0216 23.7112 75.3224 23.25 75.59C23.0896 75.6885 22.9078 75.7468 22.72 75.76C22.6702 75.7624 22.6206 75.7527 22.5753 75.7318C22.5301 75.7109 22.4905 75.6794 22.46 75.64C22.3805 75.5227 22.345 75.3809 22.36 75.24C22.3798 74.9014 22.4368 74.5661 22.53 74.24L22.99 72.45H22.26L22.34 72.13H23.07L23.32 71.13V71.17Z" fill="#231F20"/>
<path id="Vector_26" fill-rule="evenodd" clip-rule="evenodd" d="M27.13 69.93C27.1724 69.929 27.2145 69.9365 27.254 69.9519C27.2935 69.9674 27.3295 69.9906 27.36 70.02C27.4184 70.0863 27.4505 70.1717 27.45 70.26C27.4488 70.3901 27.3988 70.515 27.31 70.61C27.2728 70.6565 27.2256 70.6942 27.172 70.7201C27.1183 70.7461 27.0596 70.7597 27 70.76C26.9581 70.7616 26.9164 70.7533 26.8782 70.736C26.84 70.7186 26.8064 70.6926 26.78 70.66C26.7493 70.6284 26.7254 70.5907 26.7099 70.5494C26.6944 70.5081 26.6877 70.4641 26.69 70.42C26.6854 70.2908 26.7322 70.165 26.82 70.07C26.8594 70.0268 26.9073 69.9921 26.9606 69.968C27.0139 69.944 27.0715 69.931 27.13 69.93ZM25.37 72.93L25.17 72.7801C25.4049 72.5051 25.6816 72.2688 25.99 72.08C26.1783 71.9567 26.3954 71.8843 26.62 71.87C26.6979 71.8657 26.7751 71.8867 26.84 71.93C26.8638 71.9512 26.8825 71.9775 26.8946 72.007C26.9067 72.0364 26.912 72.0682 26.91 72.1C26.8431 72.4771 26.7461 72.8484 26.62 73.21C26.4081 73.8352 26.2508 74.4776 26.15 75.13C26.14 75.1626 26.14 75.1974 26.15 75.23C26.1609 75.2353 26.1729 75.2381 26.185 75.2381C26.1971 75.2381 26.2091 75.2353 26.22 75.23C26.31 75.23 26.56 75.05 26.95 74.68L27.13 74.85C26.8536 75.1241 26.5523 75.3719 26.23 75.5901C26.0922 75.6805 25.9342 75.7354 25.77 75.75C25.7234 75.754 25.6766 75.747 25.6331 75.7296C25.5897 75.7123 25.551 75.685 25.52 75.65C25.4879 75.6132 25.4634 75.5704 25.448 75.524C25.4326 75.4777 25.4264 75.4287 25.43 75.38C25.5547 74.4454 25.7794 73.5268 26.1 72.64C26.1089 72.577 26.1089 72.5131 26.1 72.45C26.1 72.39 26.1 72.36 26.02 72.36C25.9469 72.3663 25.8773 72.3941 25.82 72.44C25.6364 72.5739 25.4657 72.7245 25.31 72.89L25.37 72.93Z" fill="#231F20"/>
<path id="Vector_27" fill-rule="evenodd" clip-rule="evenodd" d="M29.49 72.2C29.24 72.2 28.99 72.38 28.75 72.74C28.4956 73.2011 28.3744 73.7239 28.4 74.25C28.382 74.5716 28.4585 74.8913 28.62 75.17C28.6636 75.2455 28.7263 75.3084 28.8017 75.3522C28.8771 75.3961 28.9627 75.4194 29.05 75.42C29.194 75.406 29.332 75.3555 29.451 75.2732C29.57 75.191 29.666 75.0797 29.73 74.95C30.0089 74.5007 30.1482 73.9786 30.13 73.45C30.1624 73.1065 30.1002 72.7607 29.95 72.45C29.9067 72.3646 29.841 72.2926 29.76 72.2415C29.679 72.1904 29.5857 72.1622 29.49 72.16V72.2ZM29.87 71.86C30.0106 71.8572 30.1498 71.8875 30.2766 71.9483C30.4033 72.0091 30.5141 72.0987 30.6 72.21C30.819 72.4954 30.9258 72.8512 30.9 73.21C30.8984 73.8702 30.6485 74.5055 30.2 74.99C30.0262 75.2228 29.8038 75.415 29.5482 75.5531C29.2926 75.6913 29.01 75.7721 28.72 75.79C28.5745 75.7966 28.4294 75.7715 28.2946 75.7162C28.1599 75.661 28.0389 75.5769 27.94 75.47C27.7388 75.2338 27.6351 74.9299 27.65 74.62C27.649 73.9955 27.8373 73.3853 28.19 72.87C28.3611 72.5735 28.6053 72.3258 28.8995 72.1507C29.1936 71.9757 29.5278 71.879 29.87 71.87V71.86Z" fill="#231F20"/>
<path id="Vector_28" fill-rule="evenodd" clip-rule="evenodd" d="M31.68 72.92L31.52 72.76C31.7945 72.4787 32.1037 72.2334 32.44 72.03C32.6166 71.9254 32.8153 71.8637 33.02 71.85C33.0683 71.8315 33.1217 71.8315 33.17 71.85C33.1863 71.8592 33.2003 71.8722 33.2107 71.8879C33.2211 71.9035 33.2277 71.9213 33.23 71.94C33.2359 71.9898 33.2359 72.0402 33.23 72.09L33.03 72.99C33.3715 72.6258 33.7579 72.3065 34.18 72.04C34.3561 71.9115 34.5632 71.8321 34.78 71.81C34.8314 71.8068 34.8827 71.8161 34.9297 71.837C34.9767 71.8579 35.0179 71.8898 35.05 71.93C35.1242 72.0193 35.1602 72.1343 35.15 72.25C35.1634 72.3529 35.1634 72.4571 35.15 72.56C35.15 72.76 34.98 73.18 34.78 73.83C34.6366 74.2241 34.5392 74.6335 34.49 75.05C34.4786 75.096 34.4786 75.144 34.49 75.19C34.5022 75.197 34.516 75.2007 34.53 75.2007C34.5441 75.2007 34.5578 75.197 34.57 75.19C34.7262 75.1506 34.8661 75.0631 34.97 74.94C35.1 74.82 35.24 74.71 35.37 74.61L35.48 74.77C35.2308 75.0544 34.941 75.3003 34.62 75.5C34.4857 75.6004 34.3267 75.6626 34.16 75.68C34.1086 75.6832 34.0573 75.6739 34.0103 75.653C33.9633 75.6321 33.9221 75.6002 33.89 75.56C33.8219 75.4382 33.7906 75.2992 33.8 75.16C33.8918 74.4768 34.0595 73.806 34.3 73.16C34.3648 72.9436 34.415 72.7231 34.45 72.5C34.45 72.41 34.39 72.36 34.28 72.36C34.1116 72.3777 33.9519 72.4437 33.82 72.55C33.5481 72.721 33.3107 72.9415 33.12 73.2C32.9706 73.4382 32.8688 73.7031 32.82 73.98L32.45 75.55H31.78C31.9067 75.1033 32.0167 74.6733 32.11 74.26L32.51 72.55C32.5176 72.5003 32.5176 72.4497 32.51 72.4C32.51 72.32 32.48 72.28 32.42 72.28C32.3469 72.2931 32.2782 72.324 32.22 72.37C32.0283 72.5012 31.8537 72.6558 31.7 72.83L31.68 72.92Z" fill="#231F20"/>
<path id="Vector_29" fill-rule="evenodd" clip-rule="evenodd" d="M38 71.86C38.2152 71.8461 38.4292 71.9023 38.61 72.02C38.6737 72.0544 38.7275 72.1047 38.766 72.1661C38.8046 72.2274 38.8266 72.2976 38.83 72.37C38.8302 72.4108 38.8224 72.4512 38.8069 72.4889C38.7915 72.5267 38.7687 72.5611 38.74 72.59C38.6789 72.6427 38.6006 72.6711 38.52 72.67C38.4707 72.6815 38.4193 72.6815 38.37 72.67C38.3029 72.6138 38.2425 72.55 38.19 72.48C38.04 72.28 37.9 72.18 37.76 72.18C37.6983 72.1795 37.6372 72.1916 37.5804 72.2157C37.5236 72.2398 37.4724 72.2753 37.43 72.32C37.3388 72.4176 37.2887 72.5465 37.2899 72.68C37.2901 72.8023 37.3211 72.9227 37.38 73.03C37.5078 73.2334 37.6589 73.4214 37.83 73.59C38.1168 73.8483 38.2954 74.2055 38.33 74.59C38.3274 74.7505 38.2904 74.9086 38.2213 75.0535C38.1523 75.1984 38.0529 75.3268 37.93 75.43C37.6473 75.659 37.2938 75.7827 36.93 75.78C36.6488 75.8035 36.3685 75.7254 36.14 75.56C36.0591 75.4974 35.9935 75.4171 35.9485 75.3252C35.9034 75.2333 35.88 75.1324 35.88 75.03C35.8772 74.9362 35.9113 74.845 35.9748 74.7759C36.0383 74.7068 36.1262 74.6651 36.2199 74.66C36.2609 74.6586 36.3017 74.6659 36.3396 74.6814C36.3776 74.6969 36.4117 74.7203 36.44 74.75C36.4679 74.7732 36.4903 74.8023 36.5059 74.8351C36.5214 74.8679 36.5297 74.9037 36.53 74.94C36.53 74.94 36.53 75.01 36.53 75.06V75.16C36.53 75.208 36.5407 75.2554 36.5615 75.2986C36.5823 75.3419 36.6125 75.38 36.65 75.41C36.7438 75.483 36.8614 75.5187 36.98 75.51C37.1272 75.5124 37.2734 75.4852 37.4099 75.43C37.5215 75.3751 37.6164 75.2915 37.685 75.1879C37.7535 75.0842 37.7932 74.9641 37.8 74.84C37.7977 74.726 37.763 74.615 37.7 74.52C37.5717 74.3317 37.4278 74.1544 37.27 73.99C36.9958 73.7257 36.8285 73.3697 36.8 72.99C36.7997 72.8431 36.8319 72.6979 36.8941 72.5648C36.9563 72.4317 37.0471 72.314 37.1599 72.22C37.2809 72.1084 37.4226 72.0219 37.5771 71.9653C37.7315 71.9086 37.8956 71.8831 38.06 71.89L38 71.86Z" fill="#231F20"/>
<path id="Vector_30" fill-rule="evenodd" clip-rule="evenodd" d="M42.75 74.68L42.87 74.85C42.6197 75.1293 42.334 75.3748 42.02 75.58C41.8755 75.6823 41.7064 75.7444 41.53 75.76C41.4817 75.7625 41.4334 75.7528 41.3897 75.7318C41.346 75.7108 41.3084 75.6793 41.28 75.64C41.2035 75.5213 41.1683 75.3807 41.18 75.24C41.1861 75.0648 41.2095 74.8905 41.25 74.72C41.2967 74.4866 41.4366 73.9966 41.67 73.25C41.7361 73.0367 41.7896 72.8196 41.83 72.6C41.8317 72.5789 41.8287 72.5578 41.8211 72.5381C41.8135 72.5185 41.8016 72.5008 41.7863 72.4864C41.7709 72.4719 41.7524 72.4612 41.7323 72.4549C41.7122 72.4486 41.6908 72.4469 41.67 72.45C41.4996 72.4719 41.3378 72.5373 41.2 72.64C40.934 72.8225 40.6978 73.0451 40.5 73.3C40.3476 73.5341 40.2423 73.7956 40.19 74.07L39.83 75.64H39.17C39.31 75.11 39.42 74.69 39.5 74.35L40.16 71.48C40.2395 71.0445 40.3988 70.6275 40.63 70.25C40.8261 69.9602 41.0906 69.7232 41.4 69.56C41.6836 69.3986 42.0038 69.3125 42.33 69.31C42.4405 69.3049 42.5495 69.3366 42.64 69.4C42.6754 69.429 42.7038 69.4656 42.7228 69.5072C42.7419 69.5488 42.7512 69.5943 42.75 69.64C42.7476 69.6822 42.7367 69.7235 42.7178 69.7613C42.6989 69.7992 42.6724 69.8327 42.64 69.86C42.554 69.9249 42.4476 69.9569 42.34 69.95H42.06C41.8849 69.9182 41.7078 69.8982 41.53 69.89C41.464 69.8896 41.3987 69.9048 41.3397 69.9343C41.2806 69.9638 41.2293 70.0069 41.19 70.06C41.0512 70.3004 40.9595 70.5652 40.92 70.84L40.42 73.06C40.7635 72.694 41.1535 72.3746 41.58 72.11C41.7576 71.9843 41.9639 71.9052 42.18 71.88C42.2301 71.8791 42.2799 71.8884 42.3263 71.9073C42.3727 71.9262 42.4148 71.9543 42.45 71.99C42.4857 72.0268 42.513 72.0709 42.5303 72.1192C42.5475 72.1675 42.5542 72.2189 42.55 72.27C42.5646 72.3728 42.5646 72.4772 42.55 72.58C42.51 72.7533 42.42 73.0867 42.28 73.58C42.08 74.22 41.97 74.58 41.93 74.77C41.9176 74.9097 41.9176 75.0503 41.93 75.19C41.9185 75.2258 41.9185 75.2642 41.93 75.3C41.9409 75.3053 41.9529 75.308 41.965 75.308C41.9772 75.308 41.9891 75.3053 42 75.3C42.1566 75.2548 42.2982 75.1685 42.41 75.05L42.81 74.71L42.75 74.68Z" fill="#231F20"/>
<path id="Vector_31" fill-rule="evenodd" clip-rule="evenodd" d="M45.32 69.93C45.3624 69.929 45.4045 69.9365 45.444 69.9519C45.4835 69.9674 45.5195 69.9906 45.55 70.02C45.6013 70.0896 45.6293 70.1736 45.63 70.26C45.6325 70.3889 45.586 70.514 45.5 70.61C45.4619 70.6555 45.4145 70.6924 45.3611 70.7183C45.3076 70.7441 45.2493 70.7584 45.19 70.76C45.148 70.7624 45.106 70.7546 45.0677 70.7371C45.0294 70.7197 44.9958 70.6932 44.97 70.66C44.9392 70.6284 44.9154 70.5907 44.8999 70.5494C44.8844 70.5081 44.8777 70.4641 44.88 70.42C44.8755 70.2908 44.9222 70.165 45.01 70.07C45.0487 70.0259 45.0963 69.9905 45.1498 69.9663C45.2033 69.9422 45.2613 69.9298 45.32 69.93ZM43.55 72.93L43.36 72.7801C43.5916 72.5056 43.8649 72.2694 44.17 72.08C44.3594 71.9591 44.5759 71.8869 44.8 71.87C44.878 71.8641 44.9558 71.8853 45.02 71.93C45.0456 71.9502 45.0662 71.9761 45.0801 72.0056C45.094 72.0351 45.1008 72.0674 45.1 72.1C45.0274 72.4759 44.9306 72.8467 44.81 73.21C44.5919 73.8341 44.4312 74.4768 44.33 75.13C44.32 75.1626 44.32 75.1974 44.33 75.23C44.33 75.23 44.33 75.23 44.4 75.23C44.47 75.23 44.74 75.05 45.14 74.68L45.31 74.85C45.0343 75.1208 44.7366 75.3684 44.42 75.5901C44.2793 75.682 44.1176 75.7371 43.95 75.75C43.9051 75.7524 43.8601 75.7447 43.8186 75.7274C43.7771 75.7101 43.74 75.6837 43.71 75.65C43.674 75.6155 43.6463 75.5733 43.629 75.5265C43.6117 75.4798 43.6052 75.4297 43.61 75.38C43.7403 74.4454 43.9682 73.5271 44.29 72.64C44.2989 72.577 44.2989 72.5131 44.29 72.45C44.29 72.39 44.29 72.36 44.21 72.36C44.1342 72.3676 44.0617 72.3952 44 72.44C43.8209 72.5794 43.6506 72.7297 43.49 72.89L43.55 72.93Z" fill="#231F20"/>
<path id="Vector_32" fill-rule="evenodd" clip-rule="evenodd" d="M46.81 75.09C46.8985 75.1967 47.0083 75.2837 47.1322 75.3456C47.2561 75.4076 47.3916 75.4432 47.53 75.45C47.89 75.45 48.21 75.17 48.53 74.61C48.7859 74.1007 48.9227 73.5399 48.93 72.97C48.938 72.8313 48.8993 72.694 48.82 72.58C48.7813 72.5366 48.7334 72.5024 48.6797 72.4799C48.6261 72.4574 48.5681 72.4472 48.51 72.45C48.3314 72.4656 48.1628 72.5394 48.03 72.66C47.787 72.8453 47.5715 73.0642 47.39 73.31C47.2533 73.564 47.1555 73.837 47.1 74.12L46.86 75.12L46.81 75.09ZM45.9 73L45.72 72.82C45.9512 72.5331 46.2283 72.2865 46.54 72.09C46.7506 71.9564 46.9912 71.8773 47.24 71.86C47.3023 71.8571 47.3633 71.8787 47.41 71.92C47.4343 71.9385 47.4535 71.963 47.4657 71.991C47.4779 72.019 47.4829 72.0496 47.48 72.08C47.4898 72.1698 47.4898 72.2603 47.48 72.35C47.48 72.44 47.4 72.65 47.3 73C47.587 72.6888 47.9016 72.4044 48.24 72.15C48.4624 71.9809 48.7309 71.8832 49.01 71.87C49.0871 71.8702 49.1627 71.8906 49.2294 71.9292C49.2961 71.9678 49.3515 72.0233 49.39 72.09C49.5122 72.2837 49.5683 72.5117 49.55 72.74C49.5425 73.4806 49.3049 74.2005 48.87 74.8C48.7247 75.0777 48.5122 75.3146 48.252 75.4893C47.9918 75.6639 47.692 75.7707 47.38 75.8C47.1529 75.7958 46.9301 75.7375 46.73 75.63L46.35 77.11C46.3382 77.1829 46.3382 77.2572 46.35 77.33C46.3454 77.3771 46.3554 77.4244 46.3787 77.4655C46.4019 77.5067 46.4373 77.5397 46.48 77.56C46.7361 77.6723 47.0106 77.7367 47.29 77.75L47.23 77.97C46.75 77.93 46.37 77.91 46.09 77.91C45.81 77.91 45.44 77.91 44.99 77.97L45.05 77.75C45.2322 77.7394 45.4067 77.6731 45.55 77.56C45.6761 77.4042 45.7588 77.218 45.79 77.02L46.61 73.61C46.76 72.98 46.84 72.61 46.84 72.55C46.84 72.49 46.84 72.44 46.72 72.44C46.6 72.44 46.34 72.63 45.97 73.02L45.9 73Z" fill="#231F20"/>
<path id="Vector_33" fill-rule="evenodd" clip-rule="evenodd" d="M54.58 72.37C54.3799 72.3947 54.1953 72.4905 54.06 72.64C53.8056 72.9057 53.6113 73.2228 53.49 73.57C53.3163 73.9887 53.2246 74.4368 53.22 74.89C53.2157 75.0408 53.2694 75.1875 53.37 75.3C53.416 75.3497 53.4717 75.3894 53.5336 75.4169C53.5955 75.4445 53.6623 75.4591 53.73 75.46C54.07 75.46 54.36 75.2 54.62 74.67C54.8708 74.1843 55.0044 73.6466 55.01 73.1C55.0184 72.8992 54.9661 72.7007 54.86 72.53C54.8334 72.4795 54.793 72.4375 54.7433 72.4092C54.6937 72.3809 54.6371 72.3673 54.58 72.37ZM53.7 72.65C53.9025 72.4156 54.1424 72.2162 54.41 72.06C54.6035 71.9527 54.819 71.8912 55.04 71.88C55.1374 71.878 55.2338 71.8997 55.3209 71.9433C55.408 71.9868 55.4832 72.0509 55.54 72.13C55.6812 72.3573 55.7476 72.6231 55.73 72.89C55.7258 73.3906 55.606 73.8834 55.38 74.33C55.1824 74.75 54.8876 75.1168 54.52 75.4C54.2343 75.6262 53.8841 75.7557 53.52 75.77C53.2757 75.7767 53.0386 75.6869 52.86 75.52C52.7786 75.439 52.7145 75.3422 52.6715 75.2356C52.6285 75.129 52.6076 75.0149 52.61 74.9C52.6252 74.6065 52.6687 74.3152 52.74 74.03L53.27 71.66C53.3562 71.1966 53.5184 70.7506 53.75 70.34C53.9417 70.0362 54.2064 69.7852 54.52 69.61C54.7918 69.444 55.1017 69.3511 55.42 69.34C55.5483 69.3322 55.6763 69.3599 55.79 69.42C55.8278 69.4474 55.8586 69.4835 55.8795 69.5253C55.9004 69.5671 55.9108 69.6133 55.91 69.66C55.9115 69.7019 55.9033 69.7436 55.886 69.7818C55.8686 69.82 55.8426 69.8536 55.81 69.88C55.7195 69.9435 55.6104 69.9751 55.5 69.97C55.3288 69.9622 55.1583 69.9421 54.99 69.91C54.8935 69.9016 54.7965 69.9016 54.7 69.91C54.6228 69.9145 54.5483 69.9402 54.4848 69.9843C54.4213 70.0284 54.3712 70.0892 54.34 70.16C54.211 70.4831 54.1138 70.818 54.05 71.16L53.69 72.74L53.7 72.65Z" fill="#231F20"/>
<path id="Vector_34" fill-rule="evenodd" clip-rule="evenodd" d="M57.19 73.86C57.5927 73.6945 57.962 73.4573 58.28 73.16C58.4253 73.028 58.5147 72.8457 58.53 72.65C58.5338 72.5365 58.4945 72.4258 58.42 72.34C58.389 72.3018 58.3491 72.2717 58.3038 72.2525C58.2584 72.2333 58.209 72.2256 58.16 72.23C58.043 72.2336 57.9305 72.2757 57.84 72.35C57.6826 72.484 57.562 72.6561 57.49 72.85C57.3529 73.1711 57.2523 73.5065 57.19 73.85V73.86ZM58.76 74.51L58.91 74.71C58.4232 75.2577 57.7562 75.6125 57.03 75.71C56.9376 75.7159 56.8451 75.7 56.76 75.6635C56.6748 75.627 56.5994 75.571 56.54 75.5C56.4131 75.2932 56.3538 75.0521 56.37 74.81C56.3843 74.1276 56.5886 73.4627 56.96 72.89C57.0974 72.5853 57.3152 72.3237 57.5901 72.1334C57.8649 71.9431 58.1864 71.8313 58.52 71.81C58.6975 71.801 58.872 71.858 59.01 71.97C59.0666 72.028 59.1109 72.097 59.1401 72.1726C59.1693 72.2482 59.1829 72.329 59.18 72.41C59.1737 72.616 59.1038 72.8151 58.98 72.98C58.779 73.2239 58.5307 73.4247 58.25 73.57C58.0833 73.67 57.7133 73.85 57.14 74.11C57.1256 74.263 57.1256 74.417 57.14 74.57C57.1231 74.7237 57.1583 74.8787 57.24 75.01C57.2741 75.0537 57.3184 75.0883 57.3689 75.111C57.4194 75.1336 57.4748 75.1436 57.53 75.14C57.673 75.1331 57.8128 75.0956 57.94 75.03C58.2433 74.8702 58.5312 74.6827 58.8 74.47L58.76 74.51Z" fill="#231F20"/>
<path id="Vector_35" fill-rule="evenodd" clip-rule="evenodd" d="M59.74 72.78L59.6 72.57L59.93 72.34C60.1463 72.1839 60.3735 72.0435 60.61 71.92C60.6744 71.8841 60.7463 71.8636 60.82 71.86C60.856 71.8647 60.8906 71.877 60.9216 71.896C60.9526 71.9149 60.9793 71.9401 61 71.97C61.2967 72.3746 61.52 72.8282 61.66 73.31C61.8339 73.8395 61.925 74.3927 61.93 74.95C61.93 75.02 61.93 75.12 61.93 75.26C62.3543 74.5937 62.6148 73.8364 62.69 73.05C62.687 72.8935 62.66 72.7384 62.61 72.59C62.568 72.4432 62.5413 72.2924 62.53 72.14C62.53 72.1008 62.538 72.0619 62.5535 72.0258C62.5689 71.9897 62.5916 71.9571 62.62 71.93C62.6458 71.9 62.6782 71.8763 62.7146 71.8607C62.751 71.8451 62.7905 71.8381 62.83 71.84C62.8791 71.8396 62.9276 71.8512 62.9712 71.8739C63.0148 71.8965 63.0522 71.9295 63.08 71.97C63.1464 72.0704 63.178 72.1899 63.17 72.31C63.156 72.8003 63.0684 73.2858 62.91 73.75C62.7029 74.3988 62.4246 75.0226 62.08 75.61C61.8021 76.1386 61.4668 76.635 61.08 77.09C60.8224 77.3706 60.5178 77.6041 60.18 77.78C59.9217 77.9091 59.6386 77.9807 59.35 77.99C59.1923 77.9998 59.0354 77.9614 58.9 77.88C58.8555 77.8501 58.8186 77.8099 58.7925 77.763C58.7665 77.7161 58.7519 77.6637 58.75 77.61C58.7508 77.565 58.762 77.5208 58.7828 77.4809C58.8037 77.4409 58.8335 77.4064 58.87 77.38C58.9605 77.3166 59.0696 77.2849 59.18 77.29C59.3214 77.2912 59.4622 77.308 59.6 77.34C59.7238 77.3769 59.8512 77.4003 59.98 77.41C60.1929 77.3971 60.3961 77.3166 60.56 77.18C60.8315 76.9776 61.0593 76.7225 61.23 76.43C61.3846 76.1623 61.4673 75.8591 61.47 75.55C61.4591 75.0453 61.3988 74.5429 61.29 74.05C61.2133 73.5747 61.0361 73.1212 60.77 72.72C60.7374 72.6531 60.688 72.5959 60.6266 72.5539C60.5653 72.5118 60.4941 72.4863 60.42 72.48C60.1854 72.5171 59.9666 72.6213 59.79 72.78H59.74Z" fill="#231F20"/>
<path id="Vector_36" fill-rule="evenodd" clip-rule="evenodd" d="M65.49 72.2C65.24 72.2 64.99 72.38 64.75 72.74C64.4956 73.2011 64.3744 73.7239 64.4 74.25C64.382 74.5715 64.4585 74.8913 64.62 75.17C64.6644 75.2449 64.7272 75.3072 64.8024 75.3509C64.8777 75.3947 64.9629 75.4185 65.05 75.42C65.1952 75.4058 65.3345 75.3553 65.4551 75.2732C65.5757 75.191 65.6736 75.0799 65.74 74.95C66.0111 74.4977 66.1465 73.977 66.13 73.45C66.1624 73.1065 66.1002 72.7606 65.95 72.45C65.9085 72.3632 65.8433 72.2899 65.7619 72.2386C65.6805 72.1872 65.5862 72.16 65.49 72.1599V72.2ZM65.87 71.86C66.0118 71.8587 66.152 71.8896 66.2801 71.9502C66.4083 72.0108 66.521 72.0996 66.61 72.21C66.8206 72.4992 66.9233 72.853 66.9 73.21C66.9024 73.8709 66.6519 74.5077 66.2 74.99C66.0262 75.2228 65.8038 75.415 65.5482 75.5531C65.2926 75.6913 65.01 75.7721 64.72 75.79C64.5745 75.7966 64.4294 75.7715 64.2946 75.7162C64.1599 75.6609 64.0389 75.5769 63.94 75.4699C63.7388 75.2338 63.6351 74.9299 63.65 74.62C63.6491 73.9955 63.8373 73.3853 64.19 72.87C64.3611 72.5734 64.6053 72.3258 64.8995 72.1507C65.1936 71.9756 65.5278 71.8789 65.87 71.87V71.86Z" fill="#231F20"/>
<path id="Vector_37" fill-rule="evenodd" clip-rule="evenodd" d="M67.68 72.92L67.53 72.76C67.8014 72.4793 68.1072 72.2341 68.44 72.03C68.62 71.9249 68.822 71.8633 69.03 71.85C69.0787 71.8339 69.1313 71.8339 69.18 71.85C69.2075 71.8725 69.2254 71.9047 69.23 71.94C69.23 71.94 69.23 72.02 69.23 72.09L69.02 72.99C69.3615 72.6258 69.7479 72.3065 70.17 72.04C70.3503 71.9123 70.5604 71.8332 70.78 71.81C70.8312 71.8084 70.882 71.8183 70.9287 71.8391C70.9755 71.8599 71.0169 71.891 71.05 71.93C71.1199 72.0216 71.1554 72.1349 71.15 72.25C71.1586 72.3531 71.1586 72.4568 71.15 72.56C71.1 72.76 70.97 73.18 70.77 73.83C70.6281 74.224 70.5341 74.6335 70.49 75.05C70.4789 75.096 70.4789 75.144 70.49 75.19C70.5022 75.197 70.516 75.2007 70.53 75.2007C70.5441 75.2007 70.5578 75.197 70.57 75.19C70.7286 75.1494 70.8713 75.0624 70.98 74.94C71.1066 74.82 71.2367 74.71 71.37 74.61L71.48 74.77C71.2323 75.052 70.9462 75.2977 70.63 75.5C70.4912 75.5991 70.3294 75.661 70.16 75.68C70.1102 75.6824 70.0606 75.6727 70.0153 75.6518C69.9701 75.6309 69.9305 75.5994 69.9 75.56C69.8235 75.4413 69.7883 75.3007 69.8 75.16C69.8973 74.4778 70.0649 73.8076 70.3 73.16C70.3648 72.9436 70.415 72.7231 70.45 72.5C70.45 72.41 70.45 72.36 70.29 72.36C70.1183 72.377 69.9552 72.4429 69.82 72.55C69.5502 72.7236 69.3132 72.9437 69.12 73.2C68.9706 73.4382 68.8688 73.7031 68.82 73.98L68.46 75.55H67.79C67.91 75.1 68.02 74.67 68.11 74.26L68.51 72.55C68.5159 72.5001 68.5159 72.4498 68.51 72.4C68.51 72.32 68.48 72.28 68.42 72.28C68.3431 72.2905 68.2706 72.3216 68.21 72.37C68.0183 72.5012 67.8437 72.6558 67.69 72.83L67.68 72.92Z" fill="#231F20"/>
<path id="Vector_38" fill-rule="evenodd" clip-rule="evenodd" d="M74.5 72.39C74.3336 72.3439 74.1625 72.3171 73.99 72.31C73.772 72.3126 73.5623 72.3943 73.4 72.5399C73.144 72.7968 72.955 73.1128 72.85 73.46C72.6867 73.8329 72.5951 74.2332 72.58 74.64C72.5736 74.7738 72.6163 74.9054 72.7 75.01C72.7321 75.0547 72.774 75.0915 72.8226 75.1175C72.8711 75.1435 72.925 75.158 72.98 75.1599C73.1371 75.1474 73.2868 75.0882 73.41 74.99C73.6379 74.836 73.8264 74.6304 73.96 74.39C74.1042 74.0344 74.2146 73.6661 74.29 73.2899L74.5 72.39ZM75.5 74.71L75.62 74.88C75.3418 75.1269 75.0442 75.3509 74.73 75.55C74.5377 75.6759 74.3185 75.7548 74.09 75.78C74.0277 75.7829 73.9667 75.7613 73.92 75.7199C73.898 75.7039 73.8801 75.6828 73.8679 75.6585C73.8557 75.6341 73.8496 75.6072 73.85 75.58C73.8585 75.4952 73.8753 75.4115 73.9 75.33L74.06 74.78C73.7982 75.0839 73.4953 75.3498 73.16 75.57C72.9627 75.6883 72.7397 75.757 72.51 75.77C72.4325 75.7692 72.3562 75.7508 72.2869 75.7162C72.2176 75.6815 72.1571 75.6315 72.11 75.57C71.9946 75.3845 71.9388 75.1681 71.95 74.95C71.9784 74.4352 72.1293 73.9347 72.39 73.49C72.6284 73.0111 72.9699 72.5911 73.39 72.26C73.6734 72.0254 74.0231 71.8855 74.39 71.86H74.69C74.782 71.4247 74.916 70.9994 75.09 70.59C75.2133 70.3314 75.3827 70.0976 75.59 69.9C75.7892 69.7026 76.0277 69.5492 76.29 69.45C76.52 69.3478 76.7684 69.2933 77.02 69.2899C77.1243 69.2846 77.2271 69.3165 77.31 69.38C77.3434 69.4106 77.3703 69.4476 77.3892 69.4889C77.4081 69.5301 77.4186 69.5746 77.42 69.62C77.4182 69.7068 77.3823 69.7894 77.32 69.8499C77.2418 69.9077 77.1472 69.9393 77.05 69.94L76.63 69.89H76.21C76.1085 69.8928 76.0104 69.9278 75.93 69.99C75.8235 70.106 75.7478 70.2471 75.71 70.4C75.6567 70.54 75.5467 70.97 75.38 71.69L74.75 74.4C74.69 74.6091 74.6498 74.8233 74.63 75.0399C74.63 75.1499 74.68 75.21 74.76 75.21C74.8276 75.2072 74.8931 75.1865 74.95 75.15C75.1591 75.0235 75.3595 74.8831 75.55 74.73L75.5 74.71Z" fill="#231F20"/>
<path id="Vector_39" fill-rule="evenodd" clip-rule="evenodd" d="M80.74 72.37C80.5399 72.3947 80.3553 72.4905 80.22 72.64C79.9656 72.9057 79.7713 73.2228 79.65 73.57C79.4764 73.9887 79.3847 74.4368 79.38 74.89C79.3757 75.0408 79.4294 75.1875 79.53 75.3C79.5753 75.3506 79.6308 75.3911 79.6928 75.4187C79.7549 75.4462 79.8221 75.4604 79.89 75.46C80.22 75.46 80.52 75.2 80.78 74.67C81.0309 74.1843 81.1644 73.6466 81.17 73.1C81.1784 72.8992 81.1262 72.7007 81.02 72.53C80.9925 72.4803 80.9519 72.4389 80.9025 72.4107C80.8531 72.3825 80.7969 72.3684 80.74 72.37ZM79.86 72.65C80.0625 72.4156 80.3024 72.2162 80.57 72.06C80.76 71.9529 80.9722 71.8913 81.19 71.88C81.2877 71.8762 81.3847 71.8971 81.4721 71.9408C81.5595 71.9845 81.6345 72.0496 81.69 72.13C81.8352 72.3556 81.9019 72.6227 81.88 72.89C81.8793 73.3898 81.7629 73.8827 81.54 74.33C81.3424 74.75 81.0476 75.1168 80.68 75.4C80.3936 75.625 80.0438 75.7544 79.68 75.77C79.4357 75.7767 79.1986 75.6869 79.02 75.52C78.9386 75.439 78.8745 75.3422 78.8315 75.2356C78.7885 75.129 78.7676 75.0149 78.77 74.9C78.7801 74.606 78.8238 74.3142 78.9 74.03L79.42 71.66C79.509 71.1959 79.6746 70.7498 79.91 70.34C80.0992 70.0342 80.3645 69.7827 80.68 69.61C80.9506 69.4415 81.2613 69.3483 81.58 69.34C81.7084 69.3322 81.8364 69.3599 81.95 69.42C81.9879 69.4474 82.0185 69.4835 82.0394 69.5253C82.0603 69.5671 82.0708 69.6133 82.07 69.66C82.0722 69.703 82.0632 69.746 82.0439 69.7845C82.0247 69.823 81.9958 69.8559 81.96 69.88C81.874 69.945 81.7675 69.9769 81.66 69.97C81.4888 69.9622 81.3184 69.9421 81.15 69.91C81.0535 69.9022 80.9565 69.9022 80.86 69.91C80.7828 69.9145 80.7083 69.9402 80.6448 69.9843C80.5813 70.0284 80.5312 70.0892 80.5 70.16C80.3656 70.4812 80.2683 70.8167 80.21 71.16L79.85 72.74L79.86 72.65Z" fill="#231F20"/>
<path id="Vector_40" fill-rule="evenodd" clip-rule="evenodd" d="M85.07 72.47C84.9384 72.4415 84.8045 72.4248 84.67 72.42C84.4162 72.4177 84.168 72.4946 83.96 72.64C83.7139 72.8597 83.5222 73.1336 83.4 73.44C83.2362 73.8048 83.151 74.2001 83.15 74.6C83.1361 74.7503 83.1711 74.9012 83.25 75.03C83.2804 75.0733 83.3209 75.1086 83.3679 75.1329C83.4149 75.1573 83.4671 75.17 83.52 75.17C83.7755 75.1455 84.0117 75.0238 84.18 74.83C84.4494 74.5562 84.6306 74.2079 84.7 73.83L85.07 72.43V72.47ZM85.63 71.79L85.93 71.72L85.59 72.86C85.46 73.31 85.33 73.86 85.21 74.42C85.1593 74.6235 85.1258 74.8309 85.11 75.04C85.11 75.13 85.1099 75.18 85.2199 75.18C85.3044 75.1686 85.3841 75.134 85.45 75.08C85.6457 74.9653 85.8269 74.8276 85.99 74.67L86.13 74.85C85.9199 75.0481 85.6996 75.235 85.4699 75.41C85.3031 75.5293 85.1216 75.6268 84.93 75.7C84.8211 75.7414 84.7063 75.765 84.59 75.77C84.5277 75.7729 84.4667 75.7514 84.42 75.71C84.3988 75.6894 84.3824 75.6644 84.372 75.6367C84.3617 75.6091 84.3575 75.5794 84.36 75.55C84.3499 75.4904 84.3499 75.4296 84.36 75.37L84.5399 74.76C84.2765 75.0698 83.966 75.3364 83.62 75.55C83.4439 75.6755 83.2359 75.7483 83.02 75.76C82.9436 75.7657 82.867 75.7522 82.7972 75.7208C82.7273 75.6893 82.6664 75.641 82.62 75.58C82.483 75.392 82.4158 75.1622 82.43 74.93C82.4393 74.5632 82.5244 74.2023 82.68 73.87C82.8504 73.4836 83.0798 73.126 83.36 72.81C83.6147 72.5237 83.9198 72.2864 84.26 72.11C84.5544 71.9878 84.8714 71.9299 85.19 71.94H85.48L85.59 71.77L85.63 71.79Z" fill="#231F20"/>
<path id="Vector_41" fill-rule="evenodd" clip-rule="evenodd" d="M86.78 72.92L86.63 72.76C86.9024 72.4764 87.2119 72.2309 87.55 72.03C87.7266 71.9254 87.9252 71.8637 88.13 71.85C88.1787 71.8339 88.2313 71.8339 88.28 71.85C88.3075 71.8725 88.3254 71.9047 88.33 71.94C88.3376 71.9897 88.3376 72.0403 88.33 72.09L88.13 72.99C88.4693 72.6235 88.856 72.3039 89.28 72.04C89.4561 71.9115 89.6632 71.8321 89.88 71.81C89.9313 71.8068 89.9827 71.8161 90.0297 71.837C90.0767 71.8579 90.118 71.8898 90.15 71.93C90.2243 72.0193 90.2602 72.1343 90.25 72.25C90.2634 72.3529 90.2634 72.4571 90.25 72.56C90.2 72.76 90.08 73.18 89.88 73.83C89.7315 74.2226 89.634 74.6326 89.59 75.05C89.5786 75.096 89.5786 75.144 89.59 75.19C89.6007 75.1961 89.6127 75.1994 89.625 75.1994C89.6373 75.1994 89.6493 75.1961 89.66 75.19C89.7881 75.1577 89.9054 75.0922 90 75C90.1263 74.8817 90.2599 74.7715 90.4 74.67L90.51 74.83C90.2586 75.1121 89.9692 75.3578 89.65 75.56C89.5129 75.6621 89.3502 75.7243 89.18 75.74C89.1302 75.7424 89.0806 75.7327 89.0353 75.7118C88.9901 75.6909 88.9505 75.6594 88.92 75.62C88.8519 75.4982 88.8206 75.3592 88.83 75.22C88.9216 74.5377 89.0858 73.8673 89.32 73.22C89.391 73.0046 89.4445 72.7839 89.48 72.56C89.48 72.47 89.42 72.42 89.31 72.42C89.1416 72.4377 88.9818 72.5037 88.85 72.61C88.5772 72.7836 88.3369 73.0036 88.14 73.26C87.9948 73.5003 87.8932 73.7643 87.84 74.04L87.48 75.61H86.81C86.9433 75.1633 87.0533 74.7333 87.14 74.32L87.54 72.61C87.54 72.54 87.54 72.49 87.54 72.46C87.54 72.43 87.54 72.34 87.45 72.34C87.3764 72.3513 87.3073 72.3824 87.25 72.43C87.0572 72.5637 86.8795 72.7179 86.72 72.89L86.78 72.92Z" fill="#231F20"/>
<path id="Vector_42" fill-rule="evenodd" clip-rule="evenodd" d="M92.27 73.51C92.6075 73.5213 92.9448 73.4808 93.27 73.39C93.4722 73.3329 93.6553 73.2223 93.8 73.07C93.8995 72.9445 93.9557 72.7901 93.96 72.63C93.9623 72.5306 93.9265 72.4339 93.86 72.36C93.8341 72.3261 93.8008 72.2986 93.7627 72.2795C93.7246 72.2605 93.6826 72.2504 93.64 72.25C93.36 72.25 92.93 72.56 92.35 73.19L92.29 73.51H92.27ZM91.79 75.64H91.12L91.71 73.19C92 71.98 92.18 71.19 92.27 70.95C92.3425 70.7025 92.4502 70.4667 92.59 70.25C92.855 69.8742 93.2282 69.5881 93.66 69.43C93.8436 69.3658 94.0356 69.3288 94.23 69.32C94.3534 69.3105 94.4765 69.3421 94.58 69.41C94.6167 69.4379 94.6459 69.4744 94.665 69.5162C94.6842 69.5581 94.6928 69.6041 94.69 69.65C94.6908 69.6904 94.6822 69.7303 94.6648 69.7668C94.6474 69.8032 94.6219 69.8352 94.59 69.86C94.5182 69.9223 94.425 69.9546 94.33 69.95C94.1317 69.9443 93.9342 69.9209 93.74 69.88H93.51C93.4109 69.8796 93.3149 69.9151 93.24 69.98C93.1386 70.0765 93.0631 70.1969 93.02 70.33C92.96 70.5034 92.87 70.8533 92.75 71.38L92.43 72.81C92.6896 72.5152 92.9932 72.2622 93.33 72.06C93.529 71.9373 93.7564 71.8684 93.99 71.86C94.0618 71.8594 94.133 71.8742 94.1985 71.9036C94.2641 71.9329 94.3226 71.9761 94.37 72.03C94.424 72.0874 94.4661 72.155 94.4935 72.2288C94.521 72.3027 94.5334 72.3813 94.53 72.46C94.521 72.6314 94.4708 72.7981 94.3838 72.9461C94.2968 73.094 94.1754 73.2188 94.03 73.31C93.5766 73.5975 93.0465 73.7404 92.51 73.72C92.7087 73.802 92.8941 73.9132 93.06 74.05C93.2182 74.1977 93.3561 74.3659 93.47 74.55C93.6619 74.8992 93.8322 75.2599 93.98 75.63C94.1337 76.0693 94.3677 76.4762 94.67 76.83C94.8538 77.0124 95.1011 77.1163 95.36 77.12C95.4908 77.1266 95.6203 77.0916 95.73 77.02C95.82 76.96 95.87 76.9 95.87 76.83C95.8795 76.7738 95.8795 76.7162 95.87 76.66C95.8575 76.5939 95.8575 76.5261 95.87 76.46C95.8725 76.3919 95.9007 76.3272 95.9489 76.2789C95.9971 76.2307 96.0618 76.2025 96.13 76.2C96.1719 76.1985 96.2136 76.2066 96.2518 76.224C96.29 76.2414 96.3236 76.2674 96.35 76.3C96.4121 76.3759 96.4441 76.472 96.44 76.57C96.4362 76.6815 96.4072 76.7906 96.3553 76.8894C96.3033 76.9881 96.2297 77.0738 96.14 77.14C95.9235 77.3164 95.6489 77.4056 95.37 77.39C95.0616 77.3951 94.7587 77.3081 94.5 77.14C94.1998 76.9386 93.9528 76.6676 93.78 76.35C93.5242 75.8877 93.2971 75.4102 93.1 74.92C92.9918 74.6447 92.8579 74.3802 92.7 74.13C92.5955 73.9744 92.4673 73.836 92.32 73.72L91.88 75.66L91.79 75.64Z" fill="#231F20"/>
<path id="Vector_43" fill-rule="evenodd" clip-rule="evenodd" d="M97.27 69.93C97.311 69.9286 97.3517 69.9359 97.3896 69.9514C97.4276 69.9669 97.4618 69.9903 97.49 70.02C97.5484 70.0863 97.5805 70.1717 97.58 70.26C97.5825 70.3889 97.536 70.5139 97.45 70.61C97.4119 70.6555 97.3645 70.6924 97.3111 70.7182C97.2577 70.7441 97.1994 70.7583 97.14 70.76C97.0981 70.7616 97.0564 70.7533 97.0182 70.7359C96.98 70.7186 96.9464 70.6926 96.92 70.66C96.8893 70.6283 96.8654 70.5907 96.8499 70.5494C96.8344 70.5081 96.8277 70.464 96.83 70.42C96.8255 70.2907 96.8722 70.1649 96.96 70.07C96.9987 70.0258 97.0463 69.9904 97.0998 69.9663C97.1533 69.9421 97.2113 69.9298 97.27 69.93ZM95.5 72.93L95.31 72.78C95.5416 72.5056 95.8149 72.2694 96.12 72.08C96.3094 71.959 96.5259 71.8868 96.75 71.87C96.8281 71.8641 96.9057 71.8852 96.97 71.93C96.9956 71.9502 97.0162 71.976 97.0301 72.0055C97.044 72.035 97.0508 72.0674 97.05 72.1C96.9774 72.4758 96.8806 72.8467 96.76 73.21C96.5419 73.8341 96.3813 74.4767 96.28 75.13C96.2734 75.1458 96.27 75.1628 96.27 75.18C96.27 75.1971 96.2734 75.2141 96.28 75.23C96.2894 75.2344 96.2996 75.2367 96.31 75.2367C96.3204 75.2367 96.3307 75.2344 96.34 75.23C96.44 75.23 96.68 75.05 97.08 74.68L97.25 74.85C96.9736 75.124 96.6723 75.3718 96.35 75.59C96.2134 75.6828 96.0547 75.738 95.89 75.75C95.8437 75.7518 95.7974 75.7439 95.7543 75.7267C95.7113 75.7094 95.6723 75.6833 95.64 75.65C95.6079 75.6132 95.5834 75.5703 95.568 75.524C95.5525 75.4776 95.5464 75.4287 95.55 75.38C95.6803 74.4454 95.9082 73.5271 96.23 72.64C96.2389 72.577 96.2389 72.513 96.23 72.45C96.23 72.39 96.23 72.36 96.15 72.36C96.0742 72.3675 96.0017 72.3952 95.94 72.44C95.7609 72.5794 95.5906 72.7297 95.43 72.89L95.5 72.93Z" fill="#231F20"/>
<path id="Vector_44" fill-rule="evenodd" clip-rule="evenodd" d="M97.92 72.92L97.76 72.76C98.0345 72.4787 98.3436 72.2334 98.68 72.03C98.8566 71.9254 99.0552 71.8637 99.26 71.85C99.3083 71.8315 99.3617 71.8315 99.41 71.85C99.4263 71.8592 99.4403 71.8722 99.4507 71.8879C99.4612 71.9035 99.4677 71.9213 99.47 71.94C99.4759 71.9898 99.4759 72.0402 99.47 72.09L99.27 72.99C99.6093 72.6235 99.996 72.3039 100.42 72.04C100.596 71.9115 100.803 71.8321 101.02 71.81C101.073 71.8076 101.125 71.8172 101.174 71.8379C101.222 71.8587 101.265 71.8902 101.3 71.93C101.366 72.0229 101.398 72.1361 101.39 72.25C101.403 72.3529 101.403 72.4571 101.39 72.56C101.39 72.76 101.22 73.18 101.02 73.83C100.877 74.2241 100.779 74.6335 100.73 75.05C100.719 75.0959 100.719 75.144 100.73 75.19C100.742 75.197 100.756 75.2007 100.77 75.2007C100.784 75.2007 100.798 75.197 100.81 75.19C100.966 75.1506 101.106 75.0631 101.21 74.94C101.34 74.82 101.48 74.71 101.61 74.61L101.72 74.77C101.471 75.0544 101.181 75.3003 100.86 75.5C100.726 75.6017 100.567 75.6641 100.4 75.68C100.349 75.6823 100.298 75.6727 100.251 75.6519C100.204 75.6311 100.163 75.5996 100.13 75.56C100.062 75.4382 100.031 75.2992 100.04 75.16C100.132 74.4768 100.299 73.806 100.54 73.16C100.605 72.9436 100.655 72.7231 100.69 72.5C100.69 72.41 100.63 72.36 100.52 72.36C100.352 72.3777 100.192 72.4437 100.06 72.55C99.7881 72.721 99.5506 72.9415 99.36 73.2C99.2106 73.4382 99.1088 73.7031 99.06 73.98L98.69 75.55H98C98.1267 75.1033 98.2367 74.6733 98.33 74.26L98.73 72.55C98.7375 72.5003 98.7375 72.4497 98.73 72.4C98.73 72.32 98.7 72.28 98.64 72.28C98.5669 72.2931 98.4982 72.324 98.44 72.37C98.2483 72.5012 98.0736 72.6558 97.92 72.83V72.92Z" fill="#231F20"/>
<path id="Vector_45" fill-rule="evenodd" clip-rule="evenodd" d="M104.75 72.49C104.623 72.4822 104.497 72.4822 104.37 72.49C104.108 72.4834 103.851 72.5643 103.64 72.72C103.399 72.9154 103.218 73.1756 103.12 73.47C102.943 73.8679 102.841 74.2951 102.82 74.73C102.818 74.8586 102.856 74.9846 102.93 75.09C102.962 75.1317 103.003 75.1658 103.049 75.1899C103.096 75.2141 103.148 75.2278 103.2 75.23C103.362 75.2133 103.517 75.1547 103.65 75.06C103.82 74.9455 103.965 74.7995 104.08 74.63C104.229 74.3448 104.343 74.0426 104.42 73.73L104.75 72.53V72.49ZM104.14 74.94C103.94 75.12 103.54 75.41 102.96 75.82C102.617 76.0269 102.302 76.2754 102.02 76.56C101.905 76.7017 101.842 76.8778 101.84 77.06C101.843 77.1487 101.865 77.2356 101.905 77.315C101.945 77.3944 102.001 77.4643 102.07 77.52C102.223 77.6513 102.418 77.7223 102.62 77.72C102.826 77.7189 103.029 77.6675 103.21 77.57C103.407 77.4664 103.578 77.3194 103.71 77.14C103.856 76.9474 103.958 76.7257 104.01 76.49C104.072 76.1604 104.099 75.8252 104.09 75.49C104.09 75.4 104.09 75.2 104.09 74.89L104.14 74.94ZM105.25 71.83L105.61 71.75C105.39 72.45 105.19 73.15 105.01 73.85C104.883 74.3566 104.793 74.7767 104.74 75.11C104.726 75.3231 104.726 75.5369 104.74 75.75C104.745 76.0885 104.698 76.4258 104.6 76.75C104.472 77.116 104.226 77.4291 103.9 77.64C103.534 77.8654 103.11 77.9799 102.68 77.97C102.324 78.0005 101.969 77.9011 101.68 77.69C101.575 77.6139 101.489 77.5149 101.429 77.4005C101.368 77.2861 101.334 77.1594 101.33 77.03C101.339 76.7781 101.442 76.5388 101.62 76.36C101.871 76.1182 102.162 75.922 102.48 75.78C102.695 75.6742 102.902 75.5538 103.1 75.42C102.946 75.5183 102.772 75.5799 102.59 75.6C102.531 75.5963 102.474 75.5802 102.423 75.5526C102.371 75.5249 102.326 75.4866 102.29 75.44C102.197 75.3246 102.15 75.1782 102.16 75.03C102.172 74.4491 102.341 73.8823 102.65 73.39C102.939 72.891 103.348 72.4717 103.84 72.17C104.163 71.9902 104.53 71.9037 104.9 71.92H105.21V71.78L105.25 71.83Z" fill="#231F20"/>
<path id="Vector_46" fill-rule="evenodd" clip-rule="evenodd" d="M23.62 53.2H20.79V59.86H23.13V55.12C23.2935 55.0607 23.4661 55.0302 23.64 55.03C23.7315 55.0193 23.8242 55.029 23.9114 55.0586C23.9987 55.0882 24.0782 55.1368 24.1443 55.2009C24.2104 55.2651 24.2613 55.3432 24.2935 55.4295C24.3256 55.5158 24.338 55.6083 24.33 55.7V59.86H26.68V55.42C26.68 53.99 25.78 53.21 23.62 53.21V53.2ZM34.21 53.35H31.59L30.15 56.06V51H27.83V59.87H30.15V56.66L31.79 59.87H34.37L32.5 56.37L34.21 53.37V53.35ZM11.76 55.16C12.1207 55.0552 12.4371 54.8352 12.661 54.5337C12.8849 54.2321 13.004 53.8656 13 53.49C13 52.05 12 50.99 9.5 50.99H6.60999V59.87H9.5C11.98 59.87 13.16 58.87 13.16 57.27C13.1554 56.8244 13.0204 56.3899 12.7716 56.0203C12.5228 55.6506 12.1711 55.362 11.76 55.19V55.16ZM8.89999 52.8C9.09623 52.7816 9.29375 52.7816 9.48999 52.8C10.43 52.8 10.71 53.17 10.71 53.8C10.7224 54.0554 10.6366 54.3059 10.47 54.5C10.263 54.655 10.0083 54.7328 9.75 54.72H8.89999V52.8ZM9.48999 58.05C9.29211 58.0446 9.0949 58.0246 8.89999 57.99V56.13H9.75C9.88707 56.1171 10.0253 56.1326 10.1561 56.1757C10.2869 56.2187 10.4074 56.2883 10.51 56.38C10.5981 56.4712 10.6666 56.5795 10.7113 56.6981C10.756 56.8168 10.776 56.9433 10.77 57.07C10.77 57.79 10.4 58.07 9.48999 58.07V58.05ZM66.25 53.22C66.0251 53.1579 65.7933 53.1243 65.56 53.12C63.56 53.12 62.48 54.41 62.48 56.43C62.4226 56.8893 62.4702 57.3557 62.6191 57.794C62.7681 58.2323 63.0146 58.6311 63.34 58.9603C63.6654 59.2896 64.0612 59.5407 64.4977 59.6948C64.9342 59.8489 65.4 59.902 65.86 59.85H68.59V51H66.25V53.24V53.22ZM66.25 57.99C66.1174 58.0091 65.9826 58.0091 65.85 57.99C65.19 57.99 64.85 57.47 64.85 56.36C64.85 55.41 65.21 54.8 65.85 54.8C65.9932 54.7957 66.1359 54.8195 66.27 54.87V58L66.25 57.99ZM58.59 53.19H55.76V59.85H58.1V55.11C58.2669 55.0507 58.4428 55.0203 58.62 55.02C58.7111 55.0111 58.8031 55.0221 58.8895 55.0523C58.9759 55.0825 59.0547 55.1312 59.1204 55.195C59.186 55.2588 59.237 55.3361 59.2698 55.4216C59.3025 55.5071 59.3162 55.5987 59.31 55.69V59.85H61.65V55.41C61.65 53.98 60.75 53.19 58.59 53.19ZM69.72 59.85H72.07V53.18H69.72V59.85ZM69.72 52.34H72.07V51H69.72V52.39V52.34ZM40.58 53.19C39.8943 53.1357 39.208 53.2894 38.611 53.6312C38.014 53.9729 37.5339 54.4867 37.2335 55.1055C36.933 55.7243 36.8261 56.4194 36.9268 57.0999C37.0275 57.7803 37.331 58.4147 37.7978 58.92C38.2646 59.4253 38.8729 59.778 39.5433 59.9323C40.2137 60.0865 40.915 60.035 41.5556 59.7844C42.1963 59.5339 42.7465 59.0959 43.1344 58.5278C43.5223 57.9597 43.7298 57.2879 43.73 56.6C43.774 56.1634 43.7247 55.7224 43.5856 55.3062C43.4464 54.89 43.2205 54.5081 42.9227 54.1858C42.625 53.8634 42.2621 53.608 41.8583 53.4363C41.4544 53.2647 41.0187 53.1807 40.58 53.19ZM40.58 58.14C40.06 58.14 39.77 57.66 39.77 56.57C39.77 55.48 40.06 55 40.58 55C41.1 55 41.39 55.48 41.39 56.57C41.39 57.66 41.1 58.14 40.58 58.14ZM44.98 53.39V54H44.28V55.74H44.98V59.9H47.28V55.74H48.34V54H47.28V53.44C47.28 52.97 47.64 52.8 48.12 52.8H48.46V51C48.1949 50.9632 47.9276 50.9432 47.66 50.94C46.07 50.94 44.98 51.69 44.98 53.41V53.39ZM52.45 59.85H54.86V51H52.45V59.84V59.85ZM16.58 53.19H14.58V54.85H16.85C17.0036 54.8467 17.1528 54.9016 17.2678 55.0035C17.3827 55.1055 17.4549 55.2471 17.47 55.4C15.47 55.52 13.82 55.96 13.82 57.63C13.82 59.07 14.82 59.84 17.02 59.84H19.66V55.4C19.66 53.97 18.77 53.18 16.61 53.18L16.58 53.19ZM17.44 58.19C17.2643 58.2154 17.0858 58.2154 16.91 58.19C16.36 58.19 15.91 57.97 15.91 57.52C15.91 57.07 16.44 56.82 17.39 56.79V58.14L17.44 58.19ZM75.7 53.19H73.7V54.85H76C76.1525 54.8469 76.3006 54.9021 76.4139 55.0043C76.5272 55.1064 76.5973 55.248 76.61 55.4C74.66 55.52 72.97 55.96 72.97 57.63C72.97 59.07 74.02 59.84 76.16 59.84H78.81V55.4C78.81 53.97 77.92 53.18 75.75 53.18L75.7 53.19ZM76.56 58.19C76.3876 58.2155 76.2124 58.2155 76.04 58.19C75.49 58.19 75.09 57.97 75.09 57.52C75.09 57.07 75.62 56.82 76.56 56.79V58.14V58.19Z" fill="white"/>
<path id="Vector_47" fill-rule="evenodd" clip-rule="evenodd" d="M93.99 55.94L82.14 66.42L88.77 52.09L75.25 44.28L90.7 45.94L93.99 21.31L97.28 45.94L112.72 44.28L99.21 52.09L105.83 66.42L93.99 55.94Z" fill="#231F20"/>
<path id="Vector_48" fill-rule="evenodd" clip-rule="evenodd" d="M93.99 55.64L82.79 65.53L89.06 52L76.29 44.62L90.89 46.19L93.99 23.02L97.08 46.19L111.68 44.62L98.91 52L105.18 65.53L93.99 55.64Z" fill="#EF4123"/>
<path id="Vector_49" fill-rule="evenodd" clip-rule="evenodd" d="M97.08 46.19H90.89L89.07 52.01L93.99 55.64L98.91 52L97.08 46.19Z" fill="#007DC5"/>
<path id="Vector_50" fill-rule="evenodd" clip-rule="evenodd" d="M94 54.4C93.2089 54.4 92.4355 54.1654 91.7777 53.7259C91.1199 53.2864 90.6073 52.6617 90.3045 51.9307C90.0018 51.1998 89.9225 50.3956 90.0769 49.6197C90.2312 48.8437 90.6122 48.131 91.1716 47.5716C91.731 47.0122 92.4437 46.6312 93.2197 46.4769C93.9956 46.3226 94.7999 46.4017 95.5308 46.7045C96.2617 47.0072 96.8863 47.52 97.3259 48.1778C97.7654 48.8356 98 49.6089 98 50.4C98 51.4609 97.5786 52.4783 96.8284 53.2285C96.0783 53.9786 95.0609 54.4 94 54.4Z" fill="#231F20"/>
<path id="Vector_51" fill-rule="evenodd" clip-rule="evenodd" d="M94 54.17C93.2539 54.17 92.5247 53.9486 91.9045 53.5339C91.2843 53.1192 90.8011 52.5299 90.516 51.8404C90.231 51.1509 90.1569 50.3924 90.3031 49.6608C90.4494 48.9292 90.8095 48.2575 91.3378 47.7306C91.866 47.2038 92.5386 46.8456 93.2706 46.7012C94.0026 46.5569 94.7609 46.633 95.4496 46.9199C96.1383 47.2067 96.7265 47.6915 97.1395 48.3128C97.5526 48.9341 97.772 49.6639 97.77 50.41C97.7674 51.4081 97.369 52.3645 96.6623 53.0693C95.9555 53.7742 94.9981 54.17 94 54.17Z" fill="white"/>
<g id="Vector_52">
<path d="M93.84 47.82C93.8206 47.8269 93.7994 47.8269 93.78 47.82H93.76L93.77 47.72C93.7746 47.7181 93.7793 47.7165 93.7841 47.7154C93.8188 47.7056 93.856 47.7071 93.89 47.72H93.84C93.8519 47.7212 93.8633 47.7248 93.8738 47.7305C93.8842 47.7363 93.8934 47.744 93.9009 47.7533C93.9083 47.7626 93.9138 47.7733 93.9171 47.7847C93.9204 47.7962 93.9214 47.8082 93.92 47.82H93.84Z" fill="#231F20"/>
<path d="M94.06 47.82C94.0438 47.8254 94.0262 47.8254 94.01 47.82H94.06Z" fill="#231F20"/>
</g>
<path id="Vector_53" fill-rule="evenodd" clip-rule="evenodd" d="M93.99 24.72L91.21 45.59L93.99 44.11V24.72Z" fill="#F58220"/>
<path id="Vector_54" fill-rule="evenodd" clip-rule="evenodd" d="M88.04 48.46L77.33 44.96L88.66 51.49L88.04 48.46Z" fill="#F58220"/>
<path id="Vector_55" fill-rule="evenodd" clip-rule="evenodd" d="M110.65 44.96L97.73 46.35L99.94 48.45L110.65 44.96Z" fill="#F58220"/>
<path id="Vector_56" fill-rule="evenodd" clip-rule="evenodd" d="M97.7 55.41L104.52 64.65L98.96 52.68L97.7 55.41Z" fill="#F58220"/>
<path id="Vector_57" fill-rule="evenodd" clip-rule="evenodd" d="M83.45 64.65L93.37 55.86L90.27 55.41L83.45 64.65Z" fill="#F58220"/>
<path id="Vector_58" fill-rule="evenodd" clip-rule="evenodd" d="M94.37 55.63L97.53 55.19L98.81 52.36L94.37 55.63Z" fill="#F58220"/>
<path id="Vector_59" fill-rule="evenodd" clip-rule="evenodd" d="M89.17 52.36L90.43 55.18L93.6 55.63L89.17 52.36Z" fill="#F58220"/>
<path id="Vector_60" fill-rule="evenodd" clip-rule="evenodd" d="M90.58 46.44L88.32 48.55L88.95 51.61L90.58 46.44Z" fill="#F58220"/>
<path id="Vector_61" fill-rule="evenodd" clip-rule="evenodd" d="M97.39 46.44L99.65 48.55L99.02 51.61L97.39 46.44Z" fill="#F58220"/>
<path id="Vector_62" fill-rule="evenodd" clip-rule="evenodd" d="M96.8 45.96L93.99 44.44L91.17 45.96H96.8Z" fill="#F58220"/>
</g>
<defs>
<clipPath id="clip0_4_1433">
<rect width="112.72" height="78.01" fill="white"/>
</clipPath>
</defs>
</svg>
