<svg width="365" height="74" viewBox="0 0 365 74" fill="none" xmlns="http://www.w3.org/2000/svg">
<g clip-path="url(#clip0_4_1496)">
<path d="M98.79 36.36C100.222 36.6025 101.586 37.148 102.79 37.96C103.317 38.3713 103.741 38.9002 104.027 39.5044C104.314 40.1087 104.455 40.7715 104.44 41.44C104.451 42.16 104.293 42.8726 103.979 43.5205C103.665 44.1683 103.203 44.7333 102.63 45.17C101.143 46.35 98.9867 46.94 96.16 46.94H86V46.39C86.6381 46.4392 87.2792 46.3506 87.88 46.13C88.1795 45.9917 88.4229 45.7553 88.57 45.46C88.7455 44.8087 88.8131 44.1331 88.77 43.46V30.46C88.8111 29.7869 88.7436 29.1116 88.57 28.46C88.4191 28.164 88.1723 27.9278 87.87 27.79C87.2703 27.5798 86.6339 27.4947 86 27.54V26.94H95.58C97.2243 26.8478 98.8715 27.058 100.44 27.56C101.357 27.9299 102.143 28.5633 102.7 29.38C103.231 30.1394 103.517 31.0432 103.52 31.97C103.535 32.9273 103.176 33.8528 102.52 34.55C101.47 35.49 100.178 36.1171 98.79 36.36ZM93.43 35.96C94.478 36.0166 95.5265 35.8566 96.51 35.49C97.1397 35.2068 97.6719 34.7442 98.04 34.16C98.421 33.4988 98.6049 32.7423 98.57 31.98C98.603 31.2191 98.4229 30.4641 98.05 29.8C97.6894 29.2304 97.1671 28.7813 96.55 28.51C95.5488 28.1614 94.4882 28.0152 93.43 28.08V35.96ZM93.43 37.11V43.52V44.26C93.4124 44.4775 93.4397 44.6962 93.5102 44.9027C93.5807 45.1091 93.693 45.2988 93.84 45.46C94.0033 45.6033 94.1935 45.7125 94.3996 45.7812C94.6057 45.8499 94.8234 45.8767 95.04 45.86C95.7952 45.8687 96.5408 45.69 97.21 45.34C97.8649 45.0037 98.3994 44.4727 98.74 43.82C99.1012 43.1402 99.2836 42.3797 99.27 41.61C99.283 40.7269 99.0585 39.8566 98.62 39.09C98.2253 38.3818 97.5958 37.8335 96.84 37.54C95.7386 37.1921 94.5833 37.0464 93.43 37.11ZM114.13 44.92C112.443 46.4134 110.933 47.1567 109.6 47.15C109.231 47.1667 108.862 47.1059 108.517 46.9716C108.173 46.8373 107.861 46.6323 107.6 46.37C107.343 46.1179 107.141 45.8154 107.007 45.4815C106.873 45.1477 106.809 44.7897 106.82 44.43C106.83 43.8893 106.956 43.357 107.189 42.8689C107.421 42.3807 107.756 41.9481 108.17 41.6C109.988 40.2254 111.978 39.0957 114.09 38.24V36.86C114.137 36.188 114.076 35.5128 113.91 34.86C113.779 34.5636 113.559 34.3155 113.28 34.15C112.959 33.9509 112.588 33.8469 112.21 33.85C111.653 33.8279 111.102 33.9742 110.63 34.27C110.521 34.3347 110.43 34.425 110.363 34.533C110.297 34.641 110.258 34.7636 110.25 34.89C110.293 35.1865 110.438 35.4587 110.66 35.66C110.996 35.9854 111.199 36.4236 111.23 36.89C111.233 37.1216 111.186 37.3511 111.093 37.5632C110.999 37.7753 110.862 37.9651 110.69 38.12C110.304 38.4664 109.798 38.6493 109.28 38.63C108.706 38.6469 108.148 38.4429 107.72 38.06C107.526 37.9004 107.37 37.7006 107.261 37.4744C107.152 37.2482 107.094 37.001 107.09 36.75C107.119 36.0018 107.422 35.2902 107.94 34.75C108.575 34.0551 109.382 33.541 110.28 33.26C111.288 32.9184 112.346 32.746 113.41 32.75C114.505 32.695 115.589 32.9853 116.51 33.58C117.173 34.0225 117.688 34.6527 117.99 35.39C118.178 36.3243 118.248 37.2783 118.2 38.23V43.58C118.181 43.978 118.204 44.3769 118.27 44.77C118.306 44.9093 118.382 45.0347 118.49 45.13L118.83 45.25C119.09 45.25 119.35 45.07 119.62 44.71L120.05 45.06C119.666 45.6926 119.147 46.2323 118.53 46.64C117.994 46.9758 117.372 47.1494 116.74 47.14C116.079 47.1791 115.427 46.9805 114.9 46.58C114.439 46.1549 114.163 45.5663 114.13 44.94V44.92ZM114.13 43.85V39.23C113.102 39.7912 112.198 40.5529 111.47 41.47C111.112 41.932 110.909 42.4956 110.89 43.08C110.891 43.5256 111.067 43.9529 111.38 44.27C111.51 44.4027 111.665 44.5069 111.838 44.5757C112.01 44.6446 112.195 44.6768 112.38 44.67C113.04 44.6064 113.659 44.3167 114.13 43.85ZM127.25 33.17V34.94C127.822 34.2788 128.497 33.7148 129.25 33.27C129.895 32.923 130.617 32.7442 131.35 32.75C132.155 32.7227 132.943 32.9853 133.57 33.49C134.145 33.9702 134.557 34.6164 134.75 35.34C134.949 36.4045 135.026 37.4881 134.98 38.57V43.94C134.908 44.6204 135.008 45.308 135.27 45.94C135.589 46.2582 136.02 46.4378 136.47 46.44V46.94H129.47V46.41C129.694 46.3936 129.911 46.3266 130.105 46.214C130.299 46.1014 130.465 45.9462 130.59 45.76C130.805 45.1754 130.887 44.5502 130.83 43.93V37.8C130.858 37.0841 130.815 36.3672 130.7 35.66C130.622 35.3877 130.461 35.1465 130.24 34.97C130.041 34.813 129.794 34.7284 129.54 34.73C128.7 34.73 127.91 35.33 127.19 36.54V43.94C127.118 44.6195 127.215 45.3062 127.47 45.94C127.603 46.096 127.766 46.2228 127.95 46.3123C128.135 46.4018 128.335 46.4521 128.54 46.46V46.94H121.54V46.41C121.775 46.4052 122.006 46.3521 122.219 46.2541C122.433 46.156 122.624 46.0151 122.78 45.84C123.011 45.2314 123.096 44.5774 123.03 43.93V36.14C123.096 35.4793 122.996 34.8126 122.74 34.2C122.42 33.8837 121.99 33.7043 121.54 33.7V33.15L127.25 33.17ZM144.01 26.94V40.1L147.21 36.96C147.673 36.546 148.085 36.0795 148.44 35.57C148.591 35.3192 148.674 35.0329 148.68 34.74C148.683 34.6125 148.656 34.486 148.6 34.3712C148.544 34.2564 148.462 34.1565 148.36 34.08C147.975 33.8486 147.539 33.7179 147.09 33.7V33.15H153.26V33.7C152.721 33.7177 152.193 33.8615 151.72 34.12C150.782 34.7876 149.912 35.5445 149.12 36.38L147.62 37.85L150.87 42.6C151.58 43.7266 152.358 44.8086 153.2 45.84C153.533 46.1815 153.983 46.385 154.46 46.41V46.94H147.34V46.41C147.584 46.4299 147.827 46.3664 148.03 46.23L148.24 45.84C148.131 45.3818 147.919 44.9543 147.62 44.59L144.89 40.59L144.01 41.47V43.94C143.937 44.6204 144.037 45.3082 144.3 45.94C144.622 46.2587 145.057 46.4383 145.51 46.44V46.94H138.39V46.41C138.625 46.4052 138.856 46.3521 139.069 46.2541C139.283 46.156 139.474 46.0151 139.63 45.84C139.866 45.2363 139.952 44.5842 139.88 43.94V29.94C139.956 29.2595 139.856 28.5709 139.59 27.94C139.268 27.6272 138.839 27.4484 138.39 27.44V26.94H144.01ZM169.25 32.74C170.428 32.7342 171.584 33.0562 172.59 33.67C173.629 34.2871 174.453 35.2088 174.95 36.31C175.49 37.482 175.764 38.7595 175.75 40.05C175.815 41.8071 175.291 43.5354 174.26 44.96C173.687 45.7387 172.931 46.3641 172.059 46.781C171.187 47.1979 170.226 47.3933 169.26 47.35C168.344 47.3988 167.43 47.2251 166.596 46.8438C165.762 46.4624 165.032 45.8847 164.47 45.16C163.35 43.7177 162.757 41.9357 162.79 40.11C162.754 38.2421 163.357 36.4179 164.5 34.94C165.058 34.221 165.781 33.6473 166.608 33.2678C167.435 32.8882 168.341 32.714 169.25 32.76V32.74ZM169.31 33.79C169.067 33.7859 168.825 33.8347 168.602 33.9331C168.38 34.0315 168.181 34.1772 168.02 34.36C167.559 35.0125 167.312 35.7913 167.31 36.59C167.19 37.71 167.14 39.26 167.14 41.24C167.135 42.2273 167.205 43.2134 167.35 44.19C167.41 44.7786 167.651 45.3341 168.04 45.78C168.191 45.9525 168.377 46.0909 168.586 46.1857C168.794 46.2806 169.021 46.3298 169.25 46.33C169.653 46.3446 170.047 46.2132 170.36 45.96C170.76 45.5891 171.027 45.0973 171.12 44.56C171.38 42.6852 171.48 40.7918 171.42 38.9C171.469 37.7457 171.372 36.5898 171.13 35.46C171.006 34.9292 170.719 34.4502 170.31 34.09C170.017 33.8874 169.665 33.7888 169.31 33.81V33.79ZM183.89 34.6V44.16C183.823 44.7557 183.924 45.3581 184.18 45.9C184.415 46.1072 184.693 46.2603 184.993 46.3484C185.294 46.4365 185.61 46.4576 185.92 46.41V46.94H177.8V46.41C178.25 46.4282 178.7 46.3533 179.12 46.19C179.36 46.0771 179.551 45.882 179.66 45.64C179.785 45.1571 179.835 44.6581 179.81 44.16V34.6H177.81V33.15H179.81V32.15V31.45C179.797 30.7821 179.93 30.1194 180.2 29.508C180.469 28.8967 180.869 28.3514 181.37 27.91C182.539 26.9214 184.041 26.417 185.57 26.5C186.519 26.4269 187.466 26.6619 188.27 27.17C188.523 27.3364 188.733 27.5596 188.884 27.8218C189.035 28.084 189.123 28.3779 189.14 28.68C189.139 28.8994 189.09 29.116 188.997 29.3146C188.904 29.5132 188.768 29.6891 188.6 29.83C188.195 30.1682 187.677 30.3429 187.15 30.32C186.708 30.3384 186.275 30.1963 185.93 29.92C185.797 29.8116 185.69 29.6762 185.614 29.5226C185.538 29.3691 185.496 29.2012 185.49 29.03C185.506 28.8486 185.533 28.6682 185.57 28.49C185.609 28.333 185.63 28.1719 185.63 28.01C185.636 27.9272 185.623 27.8442 185.594 27.7665C185.565 27.6889 185.519 27.6185 185.46 27.56C185.383 27.487 185.291 27.43 185.192 27.3923C185.092 27.3545 184.986 27.3368 184.88 27.34C184.743 27.3396 184.607 27.371 184.484 27.4317C184.361 27.4924 184.253 27.5808 184.17 27.69C183.951 28.0277 183.849 28.4284 183.88 28.83V31.41V33.16H185.88V34.61L183.89 34.6ZM208.82 40.12L214.25 26.94H222.38V27.49H221.73C221.241 27.4649 220.754 27.572 220.32 27.8C220.055 27.9615 219.848 28.2032 219.73 28.49C219.576 29.0905 219.519 29.7115 219.56 30.33V43.51C219.52 44.1549 219.577 44.8022 219.73 45.43C219.87 45.72 220.102 45.9556 220.39 46.1C220.803 46.3144 221.265 46.4145 221.73 46.39H222.38V46.94H211.94V46.39H212.59C213.082 46.414 213.572 46.307 214.01 46.08C214.278 45.9128 214.485 45.6639 214.6 45.37C214.745 44.7613 214.799 44.1345 214.76 43.51V28.72L207.1 46.94H206.74L198.95 28.83V42.94C198.931 43.5478 198.958 44.1562 199.03 44.76C199.155 45.2434 199.449 45.6658 199.86 45.95C200.462 46.3092 201.161 46.4733 201.86 46.42V46.94H195.01V46.39H195.22C195.643 46.4035 196.065 46.3321 196.46 46.18C196.798 46.0562 197.098 45.8459 197.33 45.57C197.553 45.2438 197.709 44.8768 197.79 44.49C197.79 44.38 197.79 43.88 197.79 42.98V30.35C197.83 29.715 197.773 29.0776 197.62 28.46C197.476 28.175 197.245 27.9436 196.96 27.8C196.545 27.5905 196.084 27.4907 195.62 27.51H194.98V26.94H203.15L208.82 40.12ZM231.55 44.94C229.87 46.4333 228.36 47.1767 227.02 47.17C226.659 47.1809 226.299 47.1173 225.964 46.9831C225.628 46.8489 225.324 46.647 225.07 46.39C224.81 46.1399 224.605 45.8379 224.469 45.5038C224.333 45.1696 224.269 44.8106 224.28 44.45C224.29 43.9083 224.417 43.3751 224.651 42.8867C224.886 42.3983 225.223 41.9663 225.64 41.62C227.452 40.2423 229.439 39.1124 231.55 38.26V36.88C231.598 36.2086 231.541 35.5337 231.38 34.88C231.245 34.5833 231.021 34.3354 230.74 34.17C230.422 33.9727 230.054 33.8688 229.68 33.87C229.123 33.8466 228.572 33.9931 228.1 34.29C227.991 34.3547 227.9 34.445 227.833 34.553C227.767 34.661 227.728 34.7836 227.72 34.91C227.763 35.2065 227.908 35.4787 228.13 35.68C228.46 36.0086 228.659 36.4457 228.69 36.91C228.692 37.1406 228.646 37.3691 228.555 37.5808C228.463 37.7926 228.329 37.983 228.16 38.14C227.774 38.4864 227.268 38.6693 226.75 38.65C226.176 38.6669 225.618 38.4629 225.19 38.08C224.995 37.9218 224.837 37.7223 224.728 37.4957C224.619 37.2692 224.562 37.0214 224.56 36.77C224.581 36.0219 224.88 35.3086 225.4 34.77C226.04 34.0769 226.85 33.5633 227.75 33.28C228.755 32.9393 229.809 32.767 230.87 32.77C231.968 32.7135 233.056 33.0039 233.98 33.6C234.643 34.0425 235.158 34.6727 235.46 35.41C235.643 36.3449 235.71 37.2987 235.66 38.25V43.6C235.642 43.9984 235.669 44.3976 235.74 44.79C235.776 44.9293 235.852 45.0547 235.96 45.15L236.3 45.27C236.553 45.27 236.813 45.09 237.08 44.73L237.52 45.08C237.13 45.7078 236.612 46.2462 236 46.66C235.46 46.9945 234.835 47.1679 234.2 47.16C233.54 47.1973 232.888 46.9989 232.36 46.6C231.887 46.171 231.597 45.5767 231.55 44.94ZM231.55 43.87V39.25C230.525 39.8112 229.624 40.573 228.9 41.49C228.537 41.9496 228.334 42.5147 228.32 43.1C228.318 43.321 228.361 43.5401 228.445 43.7444C228.529 43.9488 228.653 44.1343 228.81 44.29C228.94 44.4227 229.095 44.5269 229.268 44.5958C229.44 44.6647 229.625 44.6967 229.81 44.69C230.469 44.6179 231.084 44.3213 231.55 43.85V43.87ZM244.67 26.94V34.94C245.269 34.2692 245.971 33.6987 246.75 33.25C247.365 32.9216 248.053 32.7532 248.75 32.76C249.554 32.7397 250.339 33.0015 250.97 33.5C251.544 33.9383 251.97 34.5421 252.19 35.23C252.44 36.3281 252.541 37.4549 252.49 38.58V43.94C252.417 44.6214 252.52 45.31 252.79 45.94C253.107 46.2548 253.533 46.4341 253.98 46.44V46.94H246.98V46.41C247.195 46.3915 247.404 46.3286 247.593 46.2253C247.782 46.122 247.948 45.9806 248.08 45.81C248.322 45.2182 248.415 44.576 248.35 43.94V37.8C248.383 37.0804 248.336 36.3593 248.21 35.65C248.14 35.3794 247.982 35.14 247.76 34.97C247.558 34.8116 247.307 34.7269 247.05 34.73C246.632 34.7372 246.228 34.8812 245.9 35.14C245.414 35.5326 245.004 36.0104 244.69 36.55V43.94C244.639 44.5619 244.713 45.1878 244.91 45.78C245.038 45.9685 245.209 46.124 245.409 46.2335C245.609 46.343 245.832 46.4035 246.06 46.41V46.94H239.06V46.41C239.293 46.405 239.523 46.3519 239.735 46.2538C239.946 46.1557 240.135 46.0148 240.29 45.84C240.513 45.2329 240.585 44.581 240.5 43.94V29.94C240.579 29.2604 240.483 28.5718 240.22 27.94C239.897 27.6288 239.469 27.4504 239.02 27.44V26.94H244.67ZM263.44 44.94C261.76 46.4333 260.25 47.1767 258.91 47.17C258.541 47.1855 258.172 47.1241 257.828 46.9899C257.484 46.8556 257.171 46.6514 256.91 46.39C256.653 46.1379 256.451 45.8354 256.317 45.5015C256.183 45.1677 256.119 44.8097 256.13 44.45C256.14 43.9083 256.267 43.3751 256.501 42.8867C256.736 42.3983 257.073 41.9663 257.49 41.62C259.302 40.2423 261.289 39.1124 263.4 38.26V36.88C263.443 36.2086 263.385 35.5346 263.23 34.88C263.095 34.5833 262.871 34.3354 262.59 34.17C262.272 33.9727 261.904 33.8688 261.53 33.87C260.973 33.8466 260.422 33.9931 259.95 34.29C259.841 34.3547 259.75 34.445 259.683 34.553C259.617 34.661 259.578 34.7836 259.57 34.91C259.613 35.2065 259.758 35.4787 259.98 35.68C260.31 36.0086 260.509 36.4457 260.54 36.91C260.543 37.1416 260.496 37.3711 260.403 37.5832C260.309 37.7953 260.172 37.9851 260 38.14C259.616 38.484 259.115 38.6667 258.6 38.65C258.026 38.6669 257.468 38.4629 257.04 38.08C256.845 37.9218 256.687 37.7223 256.578 37.4957C256.469 37.2692 256.412 37.0214 256.41 36.77C256.431 36.0219 256.73 35.3086 257.25 34.77C257.888 34.0748 258.699 33.5607 259.6 33.28C260.605 32.9393 261.659 32.767 262.72 32.77C263.818 32.7135 264.906 33.0039 265.83 33.6C266.493 34.0425 267.008 34.6727 267.31 35.41C267.493 36.3449 267.56 37.2987 267.51 38.25V43.6C267.492 43.9984 267.519 44.3976 267.59 44.79C267.626 44.9293 267.702 45.0547 267.81 45.15L268.14 45.27C268.4 45.27 268.66 45.09 268.93 44.73L269.37 45.08C268.98 45.7107 268.458 46.2497 267.84 46.66C267.304 46.9958 266.682 47.1694 266.05 47.16C265.39 47.1973 264.738 46.9989 264.21 46.6C263.752 46.1645 263.477 45.571 263.44 44.94ZM263.44 43.87V39.25C262.415 39.8112 261.514 40.573 260.79 41.49C260.427 41.9496 260.224 42.5147 260.21 43.1C260.208 43.321 260.251 43.5401 260.335 43.7444C260.419 43.9488 260.543 44.1343 260.7 44.29C260.829 44.4237 260.985 44.5286 261.157 44.5975C261.329 44.6665 261.514 44.698 261.7 44.69C262.359 44.6179 262.974 44.3213 263.44 43.85V43.87ZM276.65 33.19V36.32C277.271 35.2357 278.084 34.2734 279.05 33.48C279.63 33.0479 280.327 32.8037 281.05 32.78C281.293 32.769 281.536 32.8087 281.764 32.8965C281.991 32.9843 282.197 33.1183 282.37 33.29C282.714 33.6842 282.89 34.1976 282.86 34.72C282.897 35.2735 282.73 35.8214 282.39 36.26C282.248 36.43 282.071 36.5665 281.87 36.6599C281.67 36.7533 281.451 36.8011 281.23 36.8C280.734 36.8067 280.252 36.6285 279.88 36.3L279.2 35.74L278.85 35.65C278.549 35.658 278.261 35.7753 278.04 35.98C277.609 36.3622 277.294 36.8576 277.13 37.41C276.807 38.4319 276.649 39.4984 276.66 40.57V44.57C276.636 44.9303 276.673 45.2921 276.77 45.64C276.87 45.8908 277.054 46.0992 277.29 46.23C277.661 46.3822 278.059 46.4603 278.46 46.46V46.94H271.02V46.41C271.245 46.4161 271.47 46.3747 271.678 46.2885C271.887 46.2024 272.075 46.0735 272.23 45.91C272.519 45.2079 272.629 44.4451 272.55 43.69V36.07C272.578 35.5669 272.538 35.0623 272.43 34.57C272.356 34.3284 272.209 34.1154 272.01 33.96C271.701 33.7986 271.359 33.7097 271.01 33.7V33.15L276.65 33.19ZM291.94 44.94C290.26 46.4333 288.75 47.1767 287.41 47.17C287.041 47.1867 286.672 47.1259 286.327 46.9916C285.983 46.8572 285.671 46.6524 285.41 46.39C285.153 46.1379 284.951 45.8354 284.817 45.5015C284.683 45.1677 284.619 44.8097 284.63 44.45C284.64 43.9093 284.766 43.377 284.999 42.8889C285.231 42.4007 285.566 41.9681 285.98 41.62C287.798 40.2454 289.788 39.1157 291.9 38.26V36.88C291.943 36.2086 291.885 35.5346 291.73 34.88C291.595 34.5833 291.371 34.3354 291.09 34.17C290.772 33.9727 290.404 33.8688 290.03 33.87C289.473 33.8466 288.922 33.9931 288.45 34.29C288.338 34.3521 288.244 34.4415 288.175 34.5499C288.107 34.6583 288.068 34.7822 288.06 34.91C288.103 35.2087 288.252 35.4819 288.48 35.68C288.81 36.0086 289.009 36.4457 289.04 36.91C289.043 37.1416 288.996 37.3711 288.903 37.5832C288.809 37.7953 288.672 37.9851 288.5 38.14C288.114 38.4864 287.608 38.6693 287.09 38.65C286.519 38.6685 285.963 38.4641 285.54 38.08C285.345 37.9218 285.187 37.7223 285.078 37.4957C284.969 37.2692 284.912 37.0214 284.91 36.77C284.931 36.0219 285.23 35.3086 285.75 34.77C286.385 34.0751 287.192 33.561 288.09 33.28C289.098 32.9393 290.156 32.767 291.22 32.77C292.315 32.7115 293.401 33.0022 294.32 33.6C294.987 34.0378 295.503 34.6695 295.8 35.41C295.988 36.3443 296.058 37.2983 296.01 38.25V43.6C295.991 43.998 296.014 44.397 296.08 44.79C296.119 44.9303 296.199 45.0556 296.31 45.15L296.64 45.27C296.9 45.27 297.16 45.09 297.43 44.73L297.87 45.08C297.48 45.7107 296.958 46.2497 296.34 46.66C295.804 46.9958 295.182 47.1694 294.55 47.16C293.89 47.1973 293.238 46.9989 292.71 46.6C292.244 46.1701 291.967 45.5733 291.94 44.94ZM291.94 43.87V39.25C290.913 39.8084 290.012 40.5707 289.29 41.49C288.927 41.9496 288.724 42.5147 288.71 43.1C288.707 43.5444 288.88 43.9719 289.19 44.29C289.32 44.4227 289.475 44.5269 289.648 44.5958C289.82 44.6647 290.005 44.6967 290.19 44.69C290.853 44.6201 291.471 44.3234 291.94 43.85V43.87ZM308.14 32.81L308.36 37.51H307.86C307.47 36.4232 306.829 35.4434 305.99 34.65C305.457 34.1804 304.779 33.9085 304.07 33.88C303.696 33.8817 303.337 34.0287 303.07 34.29C302.935 34.4065 302.827 34.5508 302.752 34.7131C302.678 34.8753 302.64 35.0516 302.64 35.23C302.646 35.511 302.753 35.7805 302.94 35.99C303.709 36.7728 304.568 37.461 305.5 38.04C306.593 38.698 307.562 39.5444 308.36 40.54C308.815 41.2163 309.052 42.0152 309.04 42.83C309.034 43.6149 308.838 44.3868 308.47 45.08C308.112 45.796 307.548 46.3882 306.85 46.78C306.141 47.1745 305.341 47.3778 304.53 47.37C303.621 47.3132 302.729 47.1036 301.89 46.75C301.7 46.6658 301.497 46.6118 301.29 46.59C300.97 46.59 300.69 46.83 300.48 47.32H299.99L299.75 42.37H300.26C300.589 43.4912 301.218 44.5011 302.08 45.29C302.667 45.874 303.444 46.2287 304.27 46.29C304.695 46.3031 305.108 46.1487 305.42 45.86C305.564 45.7242 305.679 45.5598 305.756 45.3773C305.834 45.1948 305.873 44.9982 305.87 44.8C305.88 44.3528 305.723 43.9179 305.43 43.58C304.825 42.9857 304.154 42.4623 303.43 42.02C302.361 41.3481 301.38 40.5453 300.51 39.63C299.874 38.8847 299.52 37.9397 299.51 36.96C299.513 35.8979 299.904 34.8735 300.61 34.08C301.008 33.6391 301.501 33.294 302.052 33.0706C302.603 32.8472 303.197 32.7513 303.79 32.79C304.546 32.7932 305.29 32.9784 305.96 33.33C306.152 33.4553 306.372 33.5309 306.6 33.55C306.751 33.5602 306.902 33.5217 307.03 33.44C307.233 33.26 307.408 33.0511 307.55 32.82L308.14 32.81ZM316.81 26.98V34.98C317.408 34.312 318.106 33.7418 318.88 33.29C319.496 32.9633 320.183 32.7949 320.88 32.8C321.683 32.783 322.468 33.0445 323.1 33.54C323.674 33.9783 324.1 34.5821 324.32 35.27C324.565 36.369 324.665 37.4951 324.62 38.62V43.94C324.543 44.6214 324.647 45.3111 324.92 45.94C325.236 46.2566 325.663 46.4363 326.11 46.44V46.94H319.11V46.41C319.326 46.391 319.536 46.328 319.727 46.2248C319.918 46.1216 320.086 45.9805 320.22 45.81C320.465 45.2191 320.561 44.5769 320.5 43.94V37.8C320.533 37.0804 320.486 36.3593 320.36 35.65C320.283 35.3827 320.126 35.1453 319.91 34.97C319.707 34.813 319.457 34.7285 319.2 34.73C318.781 34.7334 318.376 34.8778 318.05 35.14C317.562 35.5303 317.152 36.0085 316.84 36.55V43.94C316.783 44.562 316.858 45.1889 317.06 45.78C317.188 45.9685 317.359 46.124 317.559 46.2335C317.759 46.343 317.982 46.4035 318.21 46.41V46.94H311.21V46.41C311.445 46.4052 311.676 46.3521 311.889 46.2541C312.103 46.156 312.294 46.0151 312.45 45.84C312.68 45.2348 312.766 44.5842 312.7 43.94V29.94C312.782 29.2594 312.682 28.5694 312.41 27.94C312.088 27.6272 311.659 27.4484 311.21 27.44V26.94L316.81 26.98ZM333.44 28.15V33.15H336.71V34.61H333.44V43.12C333.413 43.6359 333.45 44.1532 333.55 44.66C333.621 44.8813 333.757 45.0762 333.94 45.22C334.087 45.3436 334.269 45.4172 334.46 45.43C335.09 45.43 335.7 44.94 336.27 43.97L336.71 44.3C336.457 45.1281 335.942 45.8518 335.242 46.3621C334.542 46.8724 333.696 47.1419 332.83 47.13C332.027 47.154 331.242 46.8957 330.61 46.4C330.063 45.9931 329.66 45.422 329.46 44.77C329.32 43.8706 329.27 42.9594 329.31 42.05V34.61H327.5V34.09C328.655 33.2936 329.718 32.3713 330.67 31.34C331.55 30.3551 332.311 29.2712 332.94 28.11L333.44 28.15ZM343.74 33.15V36.28C344.361 35.1957 345.174 34.2334 346.14 33.44C346.72 33.0096 347.418 32.7656 348.14 32.74C348.383 32.729 348.626 32.7687 348.854 32.8565C349.081 32.9443 349.287 33.0783 349.46 33.25C349.804 33.6442 349.98 34.1576 349.95 34.68C349.984 35.2348 349.813 35.7828 349.47 36.22C349.33 36.3916 349.153 36.5293 348.952 36.6228C348.751 36.7163 348.532 36.7632 348.31 36.76C347.814 36.7667 347.332 36.5885 346.96 36.26C346.57 35.93 346.35 35.74 346.28 35.7L345.94 35.61C345.639 35.618 345.351 35.7353 345.13 35.94C344.696 36.3193 344.38 36.8158 344.22 37.37C343.889 38.3901 343.727 39.4576 343.74 40.53V43.69V44.52C343.715 44.8797 343.749 45.2412 343.84 45.59C343.94 45.8408 344.124 46.0492 344.36 46.18C344.735 46.3308 345.136 46.4088 345.54 46.41V46.94H338.09V46.41C338.317 46.4144 338.542 46.3723 338.752 46.2863C338.962 46.2003 339.152 46.0723 339.31 45.91C339.593 45.2065 339.7 44.4442 339.62 43.69V36.07C339.649 35.5674 339.612 35.063 339.51 34.57C339.436 34.3255 339.286 34.1115 339.08 33.96C338.771 33.7986 338.429 33.7097 338.08 33.7V33.15H343.74ZM359.03 44.94C357.35 46.4333 355.84 47.1767 354.5 47.17C354.139 47.1809 353.779 47.1173 353.444 46.9831C353.108 46.8489 352.804 46.647 352.55 46.39C352.29 46.1399 352.085 45.8379 351.949 45.5038C351.813 45.1696 351.749 44.8106 351.76 44.45C351.77 43.9083 351.897 43.3751 352.131 42.8867C352.366 42.3983 352.703 41.9663 353.12 41.62C354.932 40.2423 356.919 39.1124 359.03 38.26V36.88C359.078 36.2086 359.021 35.5337 358.86 34.88C358.725 34.5833 358.501 34.3354 358.22 34.17C357.902 33.9727 357.534 33.8688 357.16 33.87C356.603 33.8466 356.052 33.9931 355.58 34.29C355.471 34.3547 355.38 34.445 355.313 34.553C355.247 34.661 355.208 34.7836 355.2 34.91C355.243 35.2065 355.388 35.4787 355.61 35.68C355.94 36.0086 356.139 36.4457 356.17 36.91C356.172 37.1406 356.126 37.3691 356.035 37.5808C355.943 37.7926 355.809 37.983 355.64 38.14C355.254 38.4864 354.748 38.6693 354.23 38.65C353.656 38.6669 353.098 38.4629 352.67 38.08C352.475 37.9218 352.317 37.7223 352.208 37.4957C352.099 37.2692 352.042 37.0214 352.04 36.77C352.061 36.0219 352.36 35.3086 352.88 34.77C353.52 34.0769 354.33 33.5633 355.23 33.28C356.235 32.9393 357.289 32.767 358.35 32.77C359.448 32.7135 360.536 33.0039 361.46 33.6C362.123 34.0425 362.638 34.6727 362.94 35.41C363.123 36.3449 363.19 37.2987 363.14 38.25V43.6C363.122 43.9984 363.149 44.3976 363.22 44.79C363.256 44.9293 363.332 45.0547 363.44 45.15L363.78 45.27C364.033 45.27 364.293 45.09 364.56 44.73L365 45.08C364.61 45.7078 364.092 46.2462 363.48 46.66C362.94 46.9945 362.315 47.1679 361.68 47.16C361.02 47.1956 360.368 46.9973 359.84 46.6C359.367 46.171 359.077 45.5767 359.03 44.94ZM359.03 43.87V39.25C358.005 39.8112 357.104 40.573 356.38 41.49C356.017 41.9496 355.814 42.5147 355.8 43.1C355.798 43.321 355.841 43.5401 355.925 43.7444C356.009 43.9488 356.133 44.1343 356.29 44.29C356.42 44.4227 356.576 44.5269 356.748 44.5958C356.92 44.6647 357.105 44.6967 357.29 44.69C357.936 44.6168 358.538 44.3279 359 43.87" fill="#0E88D3"/>
<path d="M36.94 0C44.246 0 51.388 2.16649 57.4628 6.22551C63.5375 10.2845 68.2722 16.0538 71.0681 22.8037C73.864 29.5536 74.5956 36.981 73.1702 44.1466C71.7449 51.3123 68.2267 57.8944 63.0605 63.0605C57.8944 68.2267 51.3123 71.7449 44.1466 73.1702C36.981 74.5955 29.5536 73.864 22.8037 71.0681C16.0538 68.2722 10.2845 63.5375 6.22551 57.4628C2.16649 51.388 0 44.246 0 36.94C0 27.1429 3.89188 17.7471 10.8195 10.8195C17.7471 3.89188 27.1429 0 36.94 0Z" fill="white"/>
<path d="M65.78 13.94C71.0217 20.4482 73.8798 28.5534 73.8798 36.91C73.8798 45.2666 71.0217 53.3718 65.78 59.88V58.18C70.357 52.0312 72.829 44.5703 72.829 36.905C72.829 29.2397 70.357 21.7788 65.78 15.63V13.94ZM65.78 49.83L66.18 50.09L67.35 49.44L65.78 48.79V49.83ZM65.78 46.7C66.4474 46.6913 67.087 46.4311 67.5708 45.9713C68.0547 45.5115 68.3472 44.8861 68.39 44.22L67.48 44.35C67.09 45.26 66.57 45.91 65.78 45.65V46.7ZM65.78 43.43L65.92 43.3L66.18 43.69L67.09 42.91C65.78 40.91 65.92 39.26 66.7 39.13C67.48 39 68.26 40.43 68.13 41.87L69.18 41.21C68.79 39.52 67.87 38.47 66.57 38.47C66.289 38.4961 66.0182 38.5887 65.78 38.74V43.43ZM65.78 36.91H68.78L69.43 35.86H65.77L65.78 36.91ZM65.78 32.6H67.78L68.3 31.43L65.82 31.56L65.78 32.6ZM65.78 30.12H67.78L68.3 29.07H65.82L65.78 30.12ZM59.78 7.93001C61.9723 9.72799 63.982 11.7377 65.78 13.93V15.62C64.0589 13.2829 62.0421 11.1787 59.78 9.36001V7.93001ZM65.78 59.93C64.0192 62.1557 62.0057 64.1693 59.78 65.93V64.63C62.0121 62.7268 64.0246 60.5802 65.78 58.23V59.93ZM65.78 29.12V30.17H63.43L64.09 29.12H65.78ZM65.78 31.61V32.61H63.3L64.09 31.61H65.78ZM65.78 35.91V36.94H64.5C64.4836 37.9449 64.3967 38.9473 64.24 39.94H65.15C65.1492 39.7057 65.2086 39.4751 65.3224 39.2702C65.4362 39.0654 65.6006 38.8932 65.8 38.77V43.46C65.15 44.51 65.02 45.29 65.67 45.68H65.8V46.73C65.5299 46.6733 65.2795 46.5463 65.0741 46.362C64.8687 46.1777 64.7155 45.9424 64.63 45.68C64.11 44.51 64.63 43.2 65.54 42.03L65.28 40.98H64.11C63.8044 43.1743 63.2336 45.3233 62.41 47.38L65.8 48.82V49.82L62.02 48.25C61.7703 48.8457 61.4622 49.4152 61.1 49.95C62.8 49.56 65.41 50.34 64.76 53.21C64.5 54.52 62.93 55.56 61.89 55.04C60.32 54.39 60.45 52.69 62.02 51.64C62.1442 51.9326 62.3203 52.2003 62.54 52.43C61.54 53.21 61.37 54.43 62.41 54.12C62.7257 54.0241 63.0084 53.8419 63.226 53.5939C63.4437 53.3459 63.5877 53.042 63.6418 52.7165C63.6958 52.391 63.6579 52.0568 63.5321 51.7517C63.4063 51.4467 63.1978 51.1828 62.93 50.99C62.41 50.47 61.37 50.6 60.58 50.86C60.3512 51.3145 60.0906 51.7523 59.8 52.17V51.17C62.4777 46.9163 63.8349 41.9645 63.7 36.94C63.7193 36.2405 63.6724 35.5407 63.56 34.85H64.35V35.85L65.78 35.91ZM59.78 62.15H60.43V61.23H59.78V62.15ZM59.78 57.58V56.01C59.8836 56.0058 59.9869 56.0231 60.0834 56.0608C60.18 56.0985 60.2677 56.1558 60.341 56.229C60.4142 56.3023 60.4715 56.39 60.5092 56.4866C60.5469 56.5831 60.5642 56.6865 60.56 56.79C60.5437 56.9905 60.456 57.1784 60.3129 57.3197C60.1698 57.461 59.9807 57.5463 59.78 57.56V57.58ZM59.78 44.92C61.5148 39.7551 61.5148 34.1649 59.78 29V33.43C59.9312 34.601 60.018 35.7795 60.04 36.96C60.0229 38.1375 59.9361 39.3128 59.78 40.48V44.92ZM59.78 27.04V25.94C59.91 26.73 60.69 26.99 62.13 26.99V27.51C61.3127 27.6611 60.4688 27.4851 59.78 27.02V27.04ZM59.78 25.6V22.73L62.65 17.73L59.78 18.25V17.6L65 16.69L60.3 24.26C60.0352 24.6583 59.858 25.1082 59.78 25.58V25.6ZM59.78 12.94L60.56 11.37C60.3248 11.5185 60.0572 11.6077 59.78 11.63V12.94ZM51.56 3.02001C54.4882 4.35557 57.2475 6.03397 59.78 8.02001V9.46001C57.2549 7.40265 54.4958 5.65052 51.56 4.24001V3.02001ZM59.78 65.94C57.2499 67.9296 54.4902 69.6083 51.56 70.94V69.77C54.49 68.4014 57.249 66.693 59.78 64.68V65.94ZM59.78 11.64V12.94L57.3 18.03L59.78 17.64V18.29L55.5 18.94L58.37 12.81C56.2794 13.992 53.9748 14.7466 51.59 15.03V14.38C54.17 14.23 57.17 12.79 59.78 11.61V11.64ZM59.78 22.74V27.05C59.279 26.6876 58.9336 26.1491 58.813 25.5426C58.6925 24.9361 58.8057 24.3065 59.13 23.78L59.78 22.74ZM59.78 29.01C58.2141 24.5344 55.3529 20.6255 51.56 17.78V19.09C55.9632 22.7067 58.8877 27.8122 59.78 33.44V29.01ZM59.78 40.49V44.94C58.1826 49.432 55.3297 53.3713 51.56 56.29V54.86C55.9701 51.2279 58.8948 46.1043 59.78 40.46V40.49ZM59.78 51.2C57.6563 54.4939 54.8539 57.2963 51.56 59.42V60.2C53.1012 59.2589 54.5449 58.1669 55.87 56.94L56.52 57.85C54.52 58.64 53.52 60.2 54.52 61.11C55.04 61.51 56.61 60.85 57.26 60.2C57.91 59.55 58.7 59.81 58.17 60.59C57.6103 61.3597 56.7693 61.8772 55.83 62.03V62.55L57.26 62.29L56.87 63.2L57.65 63.33L58.04 62.42L59.74 62.16V61.24H58.82C59.61 60.33 59.82 59.29 58.95 58.76C58.08 58.23 57.26 59.03 56.48 59.76C55.7 60.49 55.04 59.63 55.69 59.24C56.34 58.85 57.13 58.19 57.78 57.67L56.61 56.1C57.7926 54.9145 58.8421 53.6034 59.74 52.19L59.78 51.2ZM59.78 56.02C59.6737 56.0054 59.5655 56.0154 59.4637 56.0493C59.3618 56.0832 59.2692 56.14 59.1928 56.2154C59.1165 56.2908 59.0585 56.3827 59.0233 56.484C58.9881 56.5854 58.9767 56.6935 58.99 56.8C58.9858 56.9049 59.0033 57.0095 59.0415 57.1072C59.0797 57.205 59.1378 57.2938 59.212 57.368C59.2862 57.4422 59.375 57.5003 59.4727 57.5385C59.5705 57.5767 59.6751 57.5942 59.78 57.59V56.02ZM51.56 63.59L52.34 65.29H53.5L51.5 61.38L51.56 63.59ZM51.56 49.89V48.94H53.65V25.94H51.56V24.94H54.56V49.87L51.56 49.89ZM51.56 47.02C51.9567 46.6435 52.1901 46.1266 52.21 45.58C52.212 45.3274 52.1541 45.0779 52.0411 44.8519C51.9282 44.626 51.7633 44.43 51.56 44.28V47.02ZM51.56 43.88C51.8034 43.6028 51.9415 43.2488 51.95 42.88C51.94 42.4598 51.8042 42.0522 51.56 41.71V43.88ZM51.56 38.14V30.54H51.95L52.6 31.85H51.69V38.24L51.56 38.14ZM51.56 29.79V28.09C51.7837 28.1128 51.9899 28.2214 52.1353 28.3929C52.2807 28.5644 52.3541 28.7856 52.34 29.01C52.3192 29.2069 52.2296 29.3901 52.0869 29.5273C51.9441 29.6646 51.7575 29.747 51.56 29.76V29.79ZM49.34 2.25001C49.99 2.51001 50.77 2.77001 51.56 3.03001V4.21001C50.7889 3.98451 50.0446 3.67605 49.34 3.29002V2.25001ZM51.56 70.9C50.7889 71.1255 50.0446 71.434 49.34 71.82V70.64C49.99 70.38 50.77 69.99 51.56 69.73V70.9ZM51.56 14.39V15.04C50.8101 15.0989 50.056 15.0105 49.34 14.78V14.13C50.0596 14.3423 50.8122 14.4203 51.56 14.36V14.39ZM51.56 17.78V19.09C50.77 18.56 50.12 18.04 49.34 17.52V16.21C49.99 16.71 50.77 17.1 51.56 17.75V17.78ZM49.34 24.94H51.56V25.94H49.34V24.94ZM51.56 28.07V29.77C51.3356 29.7841 51.1144 29.7107 50.9429 29.5653C50.7714 29.4199 50.6628 29.2137 50.64 28.99C50.6344 28.8672 50.6543 28.7447 50.6984 28.63C50.7425 28.5153 50.8099 28.4109 50.8964 28.3236C50.9828 28.2362 51.0864 28.1677 51.2006 28.1223C51.3148 28.0769 51.4372 28.0557 51.56 28.06V28.07ZM51.56 30.55H51.17C50.484 29.8289 49.871 29.0418 49.34 28.2V29.2C49.6308 29.6675 49.9657 30.1062 50.34 30.51H49.95C49.69 30.25 49.43 30.12 49.3 29.86V31.94H50.3V33.5C50.0601 33.1384 49.7091 32.8646 49.3 32.72V33.5C49.4734 33.4816 49.6486 33.5088 49.8082 33.5789C49.9678 33.6491 50.1064 33.7598 50.21 33.9H50.34V34.55C50.15 34.7543 49.931 34.9295 49.69 35.07L49.3 34.42V36.24C49.6757 36.0968 50.0166 35.8752 50.3 35.59V37.42L51.48 38.07L51.56 30.55ZM51.56 41.65V43.86L51.17 44.13L51.56 44.26V47C51.17 47.39 50.77 47.52 49.56 47.52H49.3V46.52H49.82C50.47 46.52 50.73 46.13 50.73 45.52C50.73 44.91 50.34 44.74 49.82 44.74H49.3V43.69H49.69C50.21 43.69 50.6 43.56 50.6 43.04C50.6 42.52 50.21 42.39 49.69 42.39H49.3V41.21H49.95C50.5205 41.16 51.0904 41.3122 51.56 41.64V41.65ZM49.34 48.94H51.56V49.85H49.34V48.94ZM51.56 54.81V56.24C50.77 56.76 49.99 57.29 49.34 57.68V56.38C50.1347 55.9425 50.8791 55.4194 51.56 54.82V54.81ZM51.56 59.38V60.16C51.3 60.29 51.17 60.42 51.03 60.42L51.56 61.34V63.55L51.17 63.03L49.34 63.95V62.95L50.77 62.17L50.12 61.12L49.34 61.52V60.73C49.99 60.3 50.77 59.94 51.56 59.39V59.38ZM48.82 1.94001C48.95 2.07001 49.08 2.07 49.34 2.2V3.2C49.08 3.2 48.95 3.20001 48.82 3.07001V1.94001ZM49.34 71.77C49.08 71.77 48.95 71.77 48.82 71.9V70.74C48.95 70.74 49.08 70.61 49.34 70.61V71.77ZM49.34 14.08V14.73C49.08 14.73 48.95 14.6 48.82 14.6V13.94C48.95 13.94 49.08 14.1 49.34 14.1V14.08ZM49.34 16.16V17.47L48.82 17.21V15.94C48.95 16.05 49.08 16.05 49.34 16.18V16.16ZM48.82 24.91H49.34V25.91H48.82V24.91ZM49.34 28.17V29.17C49.21 28.92 48.95 28.79 48.82 28.65V27.74L49.34 28.17ZM49.34 29.87V31.94H48.82V30.54V29.54C48.9672 29.7042 49.1435 29.8399 49.34 29.94V29.87ZM49.34 32.74V33.52L48.82 33.65V32.74H49.34ZM49.34 34.44V36.26H48.82V35.35H48.95L48.82 35.22V33.78L49.34 34.44ZM48.82 41.09H49.34V42.27H48.82V41.09ZM48.82 43.57H49.34V44.62H48.82V43.57ZM48.82 46.45H49.34V47.45H48.82V46.45ZM48.82 48.93H49.34V49.84H48.82V48.93ZM49.34 56.37V57.67C49.08 57.8 48.95 57.8 48.82 57.93V56.63L49.34 56.37ZM49.34 60.67V61.46L48.82 61.72V60.94L49.34 60.67ZM49.34 62.89V63.89L49.08 64.02C49.3403 64.8903 49.2469 65.8282 48.82 66.63V63.04L49.34 62.89ZM48.16 1.81C48.3823 1.84073 48.6027 1.88414 48.82 1.94001V3.11001C48.6027 3.05414 48.3823 3.01073 48.16 2.98V1.81ZM48.82 71.9C48.6027 71.9559 48.3823 71.9993 48.16 72.03V70.98C48.42 70.85 48.69 70.85 48.82 70.72V71.9ZM48.82 13.9V14.55C48.55 14.42 48.42 14.29 48.16 14.16V13.63C48.42 13.83 48.69 13.83 48.82 13.94V13.9ZM48.82 15.85V17.16C48.618 17.0018 48.3961 16.8706 48.16 16.77V15.46C48.4012 15.5886 48.6234 15.7501 48.82 15.94V15.85ZM48.16 24.85H48.82V25.85H48.16V24.85ZM48.82 27.72V28.63C48.7196 28.4336 48.5841 28.2574 48.42 28.11L48.16 27.98V27.2L48.29 27.33C48.4951 27.4513 48.6751 27.6108 48.82 27.8V27.72ZM48.82 29.42V30.42L48.16 29.9V28.98C48.4038 29.1207 48.6261 29.2959 48.82 29.5V29.42ZM48.16 30.42H48.82V31.94H48.16V30.42ZM48.82 32.64V35.12L48.16 34.21V32.64H48.82ZM48.82 35.25V36.16C48.5921 36.1811 48.3629 36.1359 48.16 36.03V35.25H48.82ZM48.16 40.99H48.82V42.17H48.16V40.99ZM48.16 43.47H48.82V44.52H48.16V43.47ZM48.16 46.35H48.82V47.35H48.16V46.35ZM48.16 48.83H48.82V49.74H48.16V48.83ZM48.82 56.53V57.94C48.618 58.0983 48.3961 58.2294 48.16 58.33V57.03C48.3937 56.9287 48.6151 56.8012 48.82 56.65V56.53ZM48.82 60.83V61.62C48.5875 61.6709 48.3647 61.7587 48.16 61.88V61.09C48.3711 61.0067 48.5937 60.9561 48.82 60.94V60.83ZM48.82 62.92V66.58C48.6694 66.8574 48.4396 67.0837 48.16 67.23V62.14L48.55 63.05L48.82 62.92ZM47.25 1.44001C47.5681 1.46931 47.8774 1.56107 48.16 1.71001V2.88001C47.9 2.75001 47.51 2.62001 47.25 2.49001V1.44001ZM48.16 71.93C47.9 72.06 47.51 72.19 47.25 72.32V71.14C47.51 71.02 47.9 71.02 48.16 70.88V71.93ZM48.16 15.41V16.72C47.8845 16.4995 47.5778 16.3209 47.25 16.19V15.14C47.5 15.27 47.9 15.4 48.16 15.53V15.41ZM47.25 24.81H48.16V25.81H47.25V24.81ZM48.16 27.16V27.94C47.9228 27.7959 47.6562 27.7071 47.38 27.68H47.25V26.94C47.5 27.02 47.9 27.15 48.16 27.28V27.16ZM48.16 28.98V29.9L47.38 29.38H47.25V28.47C47.4 28.4772 47.5468 28.5156 47.6811 28.5828C47.8154 28.6499 47.9342 28.7444 48.03 28.86L48.16 28.98ZM47.25 30.42H48.16V31.94H47.25V30.42ZM48.16 32.64V34.21L48.03 33.82C47.51 34.2067 47.38 34.5967 47.64 34.99C47.7021 35.0691 47.7809 35.1334 47.8708 35.1784C47.9607 35.2233 48.0595 35.2478 48.16 35.25V36.03C47.828 35.9809 47.5145 35.8465 47.25 35.64V33.03C47.3747 32.9244 47.52 32.846 47.6767 32.7995C47.8333 32.753 47.9979 32.7396 48.16 32.76V32.64ZM47.25 40.99H48.16V47.39H47.25V40.99ZM47.25 48.83H48.16V49.74H47.25V48.83ZM48.16 56.92V58.22C47.8325 58.3471 47.5258 58.5223 47.25 58.74V57.44C47.572 57.354 47.8789 57.2191 48.16 57.04V56.92ZM48.16 61.09V61.88H48.03L48.16 62.14V67.23C47.8691 67.3367 47.5591 67.381 47.25 67.36V66.71C48.03 66.84 48.42 65.66 47.9 64.49C47.681 64.5205 47.4639 64.5639 47.25 64.62V63.57L47.51 63.31L47.25 62.66V61.49C47.5 61.48 47.9 61.35 48.16 61.21V61.09ZM36.94 -0.119988C40.4363 -0.130665 43.9134 0.39546 47.25 1.44001V2.44001C43.8938 1.49811 40.4258 1.01373 36.94 1.00001V-0.119988ZM47.25 72.32C43.8934 73.2587 40.4254 73.7397 36.94 73.75V72.75C40.4371 72.7622 43.915 72.2326 47.25 71.18V72.32ZM47.25 15.02V16.19C44.0511 14.5778 40.5221 13.7289 36.94 13.71V12.71C40.5189 12.7068 44.0492 13.5389 47.25 15.14V15.02ZM47.25 24.81H44.12V48.81H42.55V47.37H41.37L40.86 46.59V43.85C41.25 43.32 41.51 43.58 42.03 42.54L42.29 41.76C42.55 41.63 42.68 41.1 42.68 40.58H41.68C41.68 40.9619 41.5283 41.3282 41.2582 41.5982C40.9882 41.8683 40.6219 42.02 40.24 42.02V40.02C40.4774 39.9752 40.7033 39.883 40.9043 39.749C41.1053 39.615 41.2773 39.4419 41.41 39.24L41.81 38.59C42.041 38.4811 42.2255 38.2931 42.33 38.06V37.54H41.02L40.9 38.45H39.46V37.15C40.11 36.76 41.02 36.37 41.16 35.45L41.94 35.06V34.28H40.94L40.54 34.93C40.28 35.45 39.11 35.32 39.24 35.32V33.89C39.8772 33.682 40.4264 33.2666 40.8 32.71L41.45 32.45V31.45H40.2C40.177 31.6558 40.1062 31.8533 39.9934 32.027C39.8805 32.2006 39.7287 32.3454 39.55 32.45H38.9V31.14C39.55 30.75 40.33 30.49 40.46 29.58L41.12 29.32V28.53H39.94C39.94 28.8 39.55 29.19 39.42 29.45H38.77V28.45C39.0825 28.2755 39.3506 28.0314 39.5535 27.7366C39.7564 27.4418 39.8886 27.1042 39.94 26.75L40.72 26.62V25.7H39.55C39.29 26.88 38.77 26.88 38.55 26.7V25.7C39.0506 25.3881 39.4937 24.9923 39.86 24.53C40.38 24.27 40.77 23.09 40.25 23.22H39.73C39.34 23.22 39.34 23.88 39.08 24.14C38.95 24.14 38.55 24.27 38.29 24.27V23.09C38.6608 23.0223 39.0049 22.8512 39.2827 22.5964C39.5605 22.3417 39.7606 22.0136 39.86 21.65H40.25C40.2429 21.4262 40.2874 21.2038 40.38 21H39.38C39.3237 21.2204 39.2098 21.4218 39.0498 21.5835C38.8899 21.7452 38.6897 21.8613 38.47 21.92C37.94 21.53 37.81 21.53 37.68 20.87C37.68 19.96 38.59 19.18 37.94 18.13L37.81 17.48C37.836 17.172 37.777 16.8628 37.6395 16.586C37.502 16.3091 37.2912 16.0754 37.03 15.91V49.72H47.34V48.94H44.9V25.94H47.25V24.81ZM47.25 26.81V27.72H46.5L45.97 26.81H47.25ZM47.25 28.51V29.42H46.6L45.94 28.37H46.94L47.25 28.51ZM47.25 30.46V31.94H46.6L46.08 30.5L47.25 30.46ZM47.25 33.07V35.68C47.0577 35.52 46.9007 35.3219 46.7888 35.0981C46.6769 34.8744 46.6126 34.6299 46.6 34.38C46.5591 34.1321 46.6005 33.8777 46.7179 33.6556C46.8353 33.4335 47.0222 33.2559 47.25 33.15V33.07ZM46.99 41.07H47.25V47.47H46.99V41.07ZM47.25 57.52V58.82C44.013 60.293 40.4963 61.0503 36.94 61.04V60.04C40.5229 60.0277 44.0534 59.1784 47.25 57.56V57.52ZM47.25 61.57V62.74L47.12 62.48C44.087 63.685 40.8536 64.3059 37.59 64.31V66C38.4851 65.4217 39.5245 65.1064 40.59 65.09C42.42 65.09 42.81 66.26 42.29 67.57C41.77 68.88 40.07 68.62 39.03 68.48C39.1798 68.1547 39.31 67.8208 39.42 67.48C40.59 67.74 42.03 67.22 41.77 66.43C41.51 65.64 39.77 66.04 38.9 66.7C38.4756 66.9405 38.0382 67.1575 37.59 67.35V69.57L36.94 69.05V63.69C40.4784 63.6655 43.9789 62.9593 47.25 61.61V61.57ZM47.25 63.65C44.9 64.7 45.16 66.65 46.6 67.31C46.8139 67.3661 47.031 67.4095 47.25 67.44V66.79L46.73 66.66C45.94 66.13 46.08 65.22 47.25 64.66V63.65ZM36.94 8.57001L39.42 4.79002L41.51 11.31C42.16 13.31 44.64 13.93 46.34 11.57L45.94 11.18C44.51 13.01 43.34 12.88 42.68 10.79L40.07 2.31L36.94 7.53001V8.57001ZM36.94 73.83C32.6667 73.8267 28.4266 73.0788 24.41 71.62V70.44C28.4174 71.9491 32.6581 72.7445 36.94 72.79V73.83ZM24.41 2.22001C28.4248 0.75324 32.6657 0.00185923 36.94 6.69807e-06V1.17C32.6661 1.17678 28.4261 1.92801 24.41 3.39001V2.22001ZM36.94 7.57001L36.02 9.01002L33.15 2.22001C31.72 6.27001 30.67 11.75 26.76 13.22L27.15 13.48C30.02 13.09 31.98 8.39 32.89 4.87L35.5 10.94L36.94 8.59V7.57001ZM36.94 12.79V13.79C32.4859 13.8227 28.1355 15.1385 24.41 17.58V16.27C28.1909 13.9885 32.5241 12.7851 36.94 12.79ZM36.94 16.05C36.7558 15.8334 36.6626 15.5538 36.68 15.27C36.55 15.01 36.16 14.88 36.02 15.14C35.24 15.79 34.33 15.14 34.59 17.23L34.98 18.23C33.98 19.02 34.46 19.8 34.72 20.84V21.63L34.46 22.02C34.2398 21.9601 34.0391 21.8437 33.8777 21.6823C33.7163 21.5209 33.5999 21.3202 33.54 21.1H32.54C32.54 21.37 32.54 21.63 32.67 21.75H33.06C33.19 22.54 33.72 23.32 34.37 23.32V24.5H33.85C33.58 24.11 33.45 23.5 33.06 23.5H32.5C31.98 23.5 32.5 24.42 33.02 24.68C33.15 25.33 33.68 25.59 34.33 25.85V26.85C33.94 26.98 33.33 26.98 33.02 25.85H32.11V26.77L32.76 26.9C32.8371 27.2634 32.9948 27.6048 33.2216 27.8991C33.4483 28.1933 33.7383 28.4329 34.07 28.6V29.51L33.54 29.64C33.3021 29.3912 33.1633 29.064 33.15 28.72H31.98V29.51H32.5C32.5561 29.9142 32.7192 30.296 32.9724 30.6159C33.2255 30.9359 33.5596 31.1824 33.94 31.33V32.64H33.28C33.1326 32.5669 33.0071 32.4563 32.9158 32.3195C32.8246 32.1826 32.7708 32.0242 32.76 31.86H31.59V32.64L32.11 32.77C32.5 33.29 33.02 33.95 33.54 34.08L33.68 35.51C33.68 35.51 32.5 35.64 32.5 35.12V34.47H31.5V35.25L31.89 35.38C32.2558 36.1538 32.7886 36.8368 33.45 37.38L33.32 38.68H32.67L32.54 37.77H31.2V38.29C31.2595 38.4106 31.3524 38.5114 31.4676 38.5806C31.5829 38.6498 31.7156 38.6843 31.85 38.68L31.98 39.08C32.37 39.86 32.76 40.25 33.28 40.25V42.25C32.9398 42.2307 32.6188 42.0862 32.3788 41.8443C32.1388 41.6024 31.9967 41.2803 31.98 40.94H31.06V41.73L31.59 41.99C31.6569 42.4232 31.8201 42.8358 32.0675 43.1975C32.315 43.5592 32.6405 43.8608 33.02 44.08V46.82L32.37 47.73H31.32V48.94H29.76V24.94H24.41V25.94H28.85V48.94H24.41V49.85H36.94V16.05ZM36.94 60.05V61.05C32.5196 61.048 28.1848 59.8303 24.41 57.53V56.36C28.1707 58.7113 32.5051 59.9842 36.94 60.04V60.05ZM36.94 63.7C34.6062 63.6617 32.2844 63.3564 30.02 62.79L29.89 61.88H28.98C28.7172 61.2417 28.3093 60.6735 27.7885 60.2204C27.2678 59.7673 26.6485 59.4419 25.98 59.27V60.18C26.98 60.18 27.55 60.96 27.98 62.18C26.7608 61.7663 25.5824 61.2407 24.46 60.61V61.4C24.7508 61.5945 25.0549 61.7682 25.37 61.92L25.11 62.7L24.46 62.57V63.48C25.76 63.48 26.46 64.01 26.29 64.66C26.12 65.31 25.37 65.44 24.46 65.31V66.31C25.76 66.18 26.68 65.66 26.94 64.75C27.0099 64.5787 27.0451 64.3953 27.0436 64.2103C27.0422 64.0254 27.0041 63.8425 26.9316 63.6724C26.859 63.5022 26.7535 63.3481 26.6211 63.219C26.4886 63.0898 26.3319 62.9882 26.16 62.92L26.29 62.27C27.0494 62.5882 27.8316 62.8489 28.63 63.05L27.41 66.94L27.8 68.11L29.5 63.41C31.8391 64.048 34.2556 64.3577 36.68 64.33L36.81 66.55C34.33 67.46 32.89 67.46 32.81 66.68C32.73 65.9 33.73 65.63 35.16 66.15C35.307 65.8733 35.5333 65.647 35.81 65.5C35.3509 65.1921 34.8156 65.017 34.2633 64.994C33.711 64.9711 33.163 65.1012 32.68 65.37C31.11 66.02 31.51 67.07 32.55 67.72C33.2405 67.9881 33.9778 68.1147 34.7182 68.0924C35.4586 68.0701 36.1869 67.8992 36.86 67.59V68.76L36.99 69.03L36.94 63.7ZM24.41 47.51V45.29L24.67 46.2L25.85 41.11H27.67V47.51H26.5V42.16L25.32 47.51H24.41ZM24.41 34.98V33.67H25.71V31.94H24.41V30.63H27.41L27.8 31.94H26.89V38.59L25.71 37.68V34.94L24.41 34.98ZM24.41 15.4C24.6662 15.0216 24.8442 14.5957 24.9334 14.1475C25.0227 13.6993 25.0216 13.2378 24.93 12.79H24.41V15.4ZM24.41 71.66C22.2808 70.8868 20.2258 69.9229 18.27 68.78V67.48C20.221 68.6651 22.2762 69.6692 24.41 70.48V71.66ZM18.27 5.09C20.251 3.99867 22.3021 3.0399 24.41 2.22001V3.39001C22.2798 4.20908 20.2253 5.21291 18.27 6.39001V5.09ZM24.41 12.79V15.4C24.0842 15.8653 23.6033 16.1994 23.0536 16.3423C22.5039 16.4852 21.9212 16.4277 21.41 16.18L18.28 14.75V13.18L21.81 14.88C23.76 15.94 24.67 15.14 24.41 12.79ZM24.41 16.31C22.0764 17.7386 20.0006 19.5507 18.27 21.67V23.36C19.9538 21.0921 22.0339 19.1474 24.41 17.62V16.31ZM24.41 24.93V25.93H20.1V48.93H24.41V49.84H19.19V24.94L24.41 24.93ZM24.41 30.67H21.14L21.5 31.94H22.15V33.63C21.15 34.03 20.97 34.42 21.63 35.46C21.7592 35.7304 21.9618 35.959 22.2146 36.1199C22.4674 36.2808 22.7603 36.3675 23.06 36.37C23.46 35.98 23.33 35.59 23.33 34.94H24.33V33.63H23.33V31.94H24.33L24.41 30.67ZM24.41 45.29L23.5 41.11H21.5V47.51H22.8V42.16L23.98 47.51H24.37L24.41 45.29ZM24.41 56.39V57.56C22.0482 56.1743 19.9659 54.3599 18.27 52.21V50.51C19.9504 52.8198 22.0297 54.811 24.41 56.39ZM24.41 60.56V61.35C24.1807 61.294 23.9615 61.203 23.76 61.08L24.15 60.43L24.41 60.56ZM24.41 62.56H24.02C23.7462 61.9798 23.3252 61.4815 22.7988 61.1148C22.2724 60.7481 21.6591 60.5258 21.02 60.47C19.85 60.47 18.94 61.52 20.24 64.13L21.15 63.73C20.37 62.95 19.98 62.04 20.63 61.52C21.28 61 21.94 61.39 22.72 62.52L22.59 62.78L22.72 63.56C23.2811 63.4616 23.8505 63.418 24.42 63.43L24.41 62.56ZM24.41 65.3V66.3C24.1013 66.3124 23.7929 66.2683 23.5 66.17V65C23.7832 65.146 24.0925 65.2343 24.41 65.26V65.3ZM18.27 54.6C18.4954 54.6114 18.7166 54.5358 18.8878 54.3888C19.059 54.2417 19.1672 54.0345 19.19 53.81C19.19 53.29 18.8 53.03 18.27 53.03V54.6ZM18.27 68.82L17.88 68.56V67.26L18.27 67.52V68.82ZM17.88 5.39001L18.27 5.13001V6.43001L17.88 6.7V5.39001ZM18.27 13.22V14.79L17.88 14.53V13.09L18.27 13.22ZM18.27 21.71V23.4C18.1694 23.6361 18.0382 23.858 17.88 24.06V22.23L18.27 21.71ZM18.27 50.55V52.25L17.88 51.72V49.9C18.01 50.12 18.14 50.25 18.27 50.51V50.55ZM18.27 53.03V54.6L17.88 54.47V53.16L18.27 53.03ZM17.88 56.43V55.64L18.27 56.03L17.88 56.43ZM17.88 68.56L15.5 66.94V65.63L17.85 67.2L17.88 68.56ZM15.5 6.94001L17.85 5.37V6.68001L15.5 8.22001V6.94001ZM17.85 13.07V14.51L15.5 13.44V11.88L17.85 13.07ZM17.85 22.21V24.04C16.9675 25.4169 16.1822 26.8537 15.5 28.34V25.84C16.1694 24.5469 16.9667 23.3241 17.88 22.19L17.85 22.21ZM17.85 49.88V51.7C16.9438 50.5599 16.1563 49.3302 15.5 48.03V45.55C16.1356 47.0683 16.9336 48.5134 17.88 49.86L17.85 49.88ZM17.85 53.14V54.45C17.7294 54.3879 17.6289 54.293 17.5599 54.1762C17.4909 54.0595 17.4562 53.9256 17.46 53.79C17.4369 53.6464 17.4668 53.4993 17.544 53.376C17.6213 53.2528 17.7407 53.1618 17.88 53.12L17.85 53.14ZM17.85 55.62C16.9305 54.8252 16.138 53.8944 15.5 52.86V53.77L16.41 54.95L15.5 55.6V56.94L16.94 55.76L17.72 56.55L17.85 56.42V55.62ZM15.5 19.84V18.4L16.02 18.66L15.5 16.94V14.72L17.07 20.33L15.5 19.84ZM15.5 66.94C13.6702 65.5689 11.9269 64.0861 10.28 62.5V60.94C11.892 62.6433 13.6375 64.215 15.5 65.64V66.94ZM10.28 11.33C11.9282 9.76083 13.6715 8.29472 15.5 6.94001V8.24001C13.6398 9.66784 11.8945 11.2393 10.28 12.94V11.33ZM15.5 11.86L13.81 11.07L15.5 16.94V14.72L15.11 13.28L15.5 13.41V11.86ZM15.5 18.38V19.82L10.67 18.12C12.67 21.25 14.85 25.82 13.15 28.17L12.63 28.3C13.94 25.3 12.11 21.77 10.28 18.51V16.51L15.5 18.38ZM15.5 25.82C13.7001 29.2413 12.7596 33.0491 12.7596 36.915C12.7596 40.7809 13.7001 44.5887 15.5 48.01V45.53C13.2463 40.0078 13.2463 33.8223 15.5 28.3V25.82ZM15.5 52.82V53.73L14.59 52.73C14.2 54.43 13.28 54.82 11.72 54.04C11.72 55.34 13.02 55.99 14.59 56.25L15.5 55.6V56.94L13.15 58.89L12.89 57.89L13.81 56.98C10.54 56.06 10.54 54.37 11.33 52.41C12.33 53.84 13.41 53.72 13.81 51.75C13.163 50.7977 12.5944 49.7944 12.11 48.75L10.28 49.4V46.4C10.6395 46.9155 10.9036 47.4913 11.06 48.1L11.72 47.84C11.2 46.54 10.72 45.23 10.28 43.92V39.92C10.5024 42.2139 11.0757 44.4601 11.98 46.58C12.3193 46.2441 12.5407 45.8072 12.611 45.3349C12.6813 44.8626 12.5968 44.3802 12.37 43.96L13.15 43.57C13.3423 44.2234 13.3953 44.9099 13.3058 45.5852C13.2162 46.2604 12.986 46.9093 12.63 47.49L13.02 48.27L12.76 48.53C13.5265 50.0612 14.4444 51.5118 15.5 52.86V52.82ZM10.28 62.48C9.88048 61.9705 9.44611 61.4894 8.98 61.04V59.35C9.45114 59.8373 9.88565 60.3587 10.28 60.91V62.48ZM8.98 12.75C9.4816 12.3363 9.91962 11.8511 10.28 11.31V12.94C9.88585 13.4946 9.45134 14.0193 8.98 14.51V12.75ZM10.28 16.54V18.54C9.89 17.76 9.37 16.85 8.98 16.06L10.28 16.54ZM10.28 39.77V43.77C10.28 43.51 10.15 43.25 10.15 42.86L8.98 43.12V41.95L9.98 41.82L9.72 39.99L8.94 40.12V39.12L9.46 38.99V36.94H10.11C10.18 37.85 10.31 38.94 10.31 39.81L10.28 39.77ZM10.28 46.29V49.29L10.15 49.42C9.89 47.85 9.5 46.81 8.98 46.42V45.24C9.26686 45.3158 9.53407 45.4523 9.76354 45.6404C9.99301 45.8284 10.1794 46.0636 10.31 46.33L10.28 46.29ZM8.98 50.08L9.5 49.43C9.39901 49.1969 9.21309 49.011 8.98 48.91V50.08ZM8.98 32.85V31.85H10.28L9.76 32.85H8.98ZM8.98 30.5V29.33H10.28L9.89 30.5H8.98ZM8.98 61.04C7.93 59.74 6.89 58.3 5.84 56.87V54.78C6.76643 56.3825 7.81628 57.9105 8.98 59.35V61.04ZM5.87 16.94C6.87 15.5 7.96 14.07 9.01 12.76V14.46C7.84413 15.8979 6.79417 17.426 5.87 19.03V16.94ZM9.01 16.02V30.54H5.87V29.76L6.14 29.37H9.01V16.02ZM9.01 31.82V32.82H5.87V32.04L6.14 31.78L9.01 31.82ZM9.01 39.13V40.13H7.96L8.22 42.13L9.01 42V43.17L5.87 43.56V42.65L7.05 42.39L6.79 40.39C6.53 40.39 6.14 40.26 5.87 40.26V39.09H6.14C6.22835 39.0583 6.30918 39.0087 6.3774 38.9442C6.44561 38.8797 6.49974 38.8018 6.53638 38.7154C6.57301 38.6289 6.59136 38.5359 6.59026 38.442C6.58917 38.3482 6.56865 38.2555 6.53 38.17C6.4 37.78 6.14 37.52 5.87 37.52V36.34C6.79 36.21 7.7 36.87 7.96 39.09L9.01 39.13ZM9.01 45.26V46.44C8.88 46.3 8.75 46.3 8.49 46.3C7.31 46.3 7.49 47.87 8.09 48.52C8.49 48.66 8.75 48.66 9.01 48.92V50.09L8.88 50.22L7.7 49.96L6.5 50.64C6.31916 50.8044 6.08438 50.8969 5.84 50.9V49.47L5.97 49.34L6.5 49.73L7.02 49.21L5.84 48.55V47.55L6.76 48.2C6.5 46.51 7.02 45.46 8.32 45.33L9.01 45.26ZM5.87 56.94C2.03721 50.9847 -0.000831604 44.0521 -0.000831604 36.97C-0.000831604 29.8879 2.03721 22.9554 5.87 17V19.09C2.789 24.5455 1.16999 30.7046 1.16999 36.97C1.16999 43.2354 2.789 49.3945 5.87 54.85V56.94ZM5.87 29.79L5.48 30.57H5.87V29.79ZM5.87 32.14L5.35 32.92H5.87V32.14ZM5.87 36.44C5.48553 36.6036 5.15766 36.8766 4.92719 37.2251C4.69673 37.5736 4.57384 37.9822 4.57384 38.4C4.57384 38.8178 4.69673 39.2264 4.92719 39.5749C5.15766 39.9234 5.48553 40.1964 5.87 40.36V39.19C5.71525 39.1676 5.57502 39.0866 5.47825 38.9638C5.38148 38.841 5.33557 38.6857 5.35 38.53C5.22 38.14 5.35 37.62 5.74 37.62H5.87V36.44ZM5.87 42.71H5.5C5.35867 42.0029 5.09469 41.3261 4.72 40.71L4.2 40.97C4.98 42.54 4.33 43.58 3.55 42.8C2.77 42.02 3.28 40.45 3.55 39.41L3.15 39.28C2.5 40.71 2.15 42.02 3.15 43.58C3.94 44.76 4.72 44.37 5.5 43.71L5.89 43.58L5.87 42.71ZM5.87 47.54L4.96 47.02L4.57 47.67L5.87 48.58V47.54ZM5.87 49.54L5.09 50.19L5.48 50.71L5.87 50.97V49.54Z" fill="#0E88D3"/>
</g>
<defs>
<clipPath id="clip0_4_1496">
<rect width="365" height="73.88" fill="white"/>
</clipPath>
</defs>
</svg>
