<svg width="143" height="24" viewBox="0 0 143 24" fill="none" xmlns="http://www.w3.org/2000/svg">
<path d="M141.853 6.92433C141.091 5.5441 139.45 4.49726 137.666 4.49726C136.098 4.49726 134.719 5.13958 134.719 6.80504C134.719 8.20745 136.455 9.1587 138.263 10.3248C140.236 11.5613 142.282 13.0822 142.282 15.7234C142.282 19.1721 138.929 21.2879 135.052 21.2879C133.458 21.2879 131.794 20.979 129.916 20.2656L130.224 15.6752C131.128 17.5074 132.818 18.9572 135.313 18.9572C137.24 18.9572 138.666 18.0304 138.666 16.4124C138.666 15.0329 137.5 14.1772 136.074 13.3216C133.077 11.5147 131.176 10.0625 131.176 7.44736C131.176 3.5223 134.457 2.21472 137.858 2.21472C139.83 2.21472 141.068 2.57181 142.328 2.57181L141.853 6.92433ZM125.231 11.0375C124.801 11.7517 124.256 12.7251 123.921 13.4401C123.637 14.7951 123.494 16.6035 123.494 18.6001C123.494 19.4328 123.637 20.55 124.017 20.9308H119.047C119.926 20.0989 120.284 14.987 120.237 13.369C119.571 11.0627 118.666 8.85054 117.287 6.16272C116.409 4.47509 115.385 2.87997 114.743 2.57181C115.86 2.47775 117.287 2.40589 117.978 2.40589C119.213 2.40589 119.547 2.57181 120.309 4.23727C121.496 6.92509 122.376 8.94459 122.9 10.4441C124.161 8.46973 125.04 7.11473 126.182 5.25964C126.467 4.80772 126.705 4.23727 126.705 3.68976C126.705 3.26078 126.633 2.78592 126.443 2.57181H131.366C130.415 2.78592 126.134 9.51657 125.231 11.0375ZM107.941 6.87768L104.993 13.2734H109.796L107.941 6.87768ZM113.721 21.0968C112.15 21.0968 112.032 21.0501 110.771 16.7221L110.32 15.1285C109.56 15.4848 108.203 15.6515 106.04 15.6515H103.852L103.471 16.4598C102.924 17.6741 102.187 19.0987 102.187 20.0996C102.187 20.3374 102.211 20.5982 102.306 20.9316H89.3215C90.0594 20.0996 90.2972 17.4126 90.6536 12.5362L90.7247 11.3716C90.9151 8.58901 91.0596 6.44869 91.0344 4.95147C91.0107 3.71499 90.8914 2.92969 90.5588 2.57335H95.5773C94.8631 3.12085 94.6008 6.06866 94.2689 10.945L94.1734 12.1096C94.0541 13.9172 93.817 15.7716 93.817 17.5793C93.817 18.4105 94.1496 18.6009 95.0068 18.6009C98.0495 18.6009 98.8119 18.5297 100.19 17.6022C101.045 16.0323 102.022 14.058 102.972 12.0132L104.258 9.27874C105.47 6.71021 106.658 4.09351 106.658 3.59495C106.658 3.23708 106.563 2.9052 106.422 2.57181H110.417C110.417 2.57181 112.033 8.5653 112.39 9.84842L113.174 12.7504C114.529 17.6259 115.386 20.0033 116.528 20.9308C115.575 21.0501 114.22 21.0968 113.721 21.0968ZM81.3559 21.2879C76.6234 21.2879 73.8882 17.3881 73.8882 13.0126C73.8882 6.92508 77.1931 2.21472 83.4955 2.21472C85.4691 2.21472 86.3974 2.57181 87.9894 2.57181L87.5146 7.25696C86.6107 5.61598 85.1357 4.49803 83.1629 4.49803C79.2393 4.49803 77.6458 8.732 77.6458 12.3703C77.6458 16.3175 79.8579 18.4808 82.8057 18.4808C84.3993 18.4808 85.8017 18.0526 88.1569 16.4124C87.2057 19.4573 84.9935 21.2879 81.3559 21.2879ZM64.9476 4.80772C64.4957 4.80772 63.9474 4.8077 63.5207 4.85511C63.3777 5.63967 63.2584 6.99545 63.0917 9.18241L62.9962 10.4678C63.2355 10.516 63.5437 10.5405 63.8296 10.5405C66.1114 10.5405 67.6821 9.15946 67.6821 7.06808C67.6821 5.63967 66.6834 4.80772 64.9476 4.80772ZM71.5811 21.7161C70.2261 21.7161 69.8927 21.5013 69.4416 20.8826L64.3045 13.7482C63.9 13.2015 63.5911 12.7496 62.9495 12.7496H62.8302L62.7362 14.1291C62.6161 16.0079 62.545 17.5074 62.545 18.6246C62.5687 19.861 62.7117 20.6211 63.0451 20.9308H58.0747C58.7874 20.2885 59.0482 18.1482 59.4534 12.5355L59.5253 11.3709C59.7157 8.61273 59.8587 6.47163 59.8343 4.97441C59.8098 3.66605 59.6683 2.85703 59.3105 2.57181C62.1405 2.57181 66.0877 2.57181 66.0877 2.57181C68.2992 2.57181 71.3433 2.95338 71.3433 6.54351C71.3433 9.49132 69.3689 11.1094 66.9205 11.8694C67.1583 12.0843 67.5857 12.6311 67.848 12.9645L71.5811 17.9111C73.9119 20.979 74.1015 21.1212 74.935 21.5494C73.8881 21.6679 72.4857 21.7161 71.5811 21.7161ZM48.4207 6.87768L45.4462 13.2734H50.2735L48.4207 6.87768ZM54.1979 21.0968C52.6295 21.0968 52.5102 21.0501 51.25 16.7221L50.7981 15.1285C50.0357 15.4848 48.6807 15.6515 46.5167 15.6515H44.329L43.9489 16.4598C43.5681 17.317 42.6406 19.0772 42.6643 20.0996C42.6643 20.3374 42.688 20.5752 42.7836 20.9316H38.3844C39.6446 19.6714 41.2382 16.7465 43.4496 12.014L44.7343 9.27951C45.8989 6.80656 47.1361 4.00023 47.1361 3.59572C47.1361 3.23785 47.042 2.90597 46.8983 2.57258H50.8945C50.8945 2.57258 51.939 6.54428 52.8673 9.84919L53.6519 12.7511C55.0076 17.6267 55.8633 20.004 57.005 20.9316C55.9826 21.0501 54.698 21.0968 54.1979 21.0968ZM31.5582 4.78401C31.2011 4.78401 30.7263 4.784 30.2743 4.83217C30.0839 6.11606 29.9647 7.35255 29.8706 8.70755C29.8706 8.70755 29.7987 9.87214 29.7987 9.82473H30.2743C32.605 9.82473 34.7461 9.01647 34.7461 6.87768C34.7461 5.63968 33.723 4.78401 31.5582 4.78401ZM30.9648 12.0606H29.6572L29.4668 14.7714C29.372 15.9612 29.3239 16.9591 29.3001 18.1482C29.3001 18.3156 29.8232 18.672 31.0589 18.672C33.6274 18.672 35.3166 17.3881 35.3166 15.2707C35.3166 12.9163 33.3896 12.0606 30.9648 12.0606ZM31.2501 20.9308H24.8291C25.6381 20.2166 25.8522 17.4347 26.2086 12.5355L26.2797 11.3946C26.4709 8.61195 26.6131 6.47163 26.5894 4.97441C26.5657 3.68976 26.4227 2.85703 26.0656 2.57181H33.2474C34.9595 2.57181 38.3844 2.66739 38.3844 6.23382C38.3844 8.61195 36.1722 10.0862 34.1512 10.6108C37.005 10.896 39.1453 12.2747 39.1453 15.2233C39.1445 18.4097 36.1485 20.9308 31.2501 20.9308Z" fill="#00AEEF"/>
<path d="M10.3771 0.00154017C9.7409 0.00154017 9.60938 0.112429 9.40292 0.342595C9.32186 0.337242 9.23698 0.335711 9.14828 0.335711C8.65889 0.335711 8.03033 0.407581 7.4943 0.766212C6.97661 1.10802 6.73039 1.71286 7.00643 2.15561C7.00643 2.15561 7.19149 1.88417 7.80016 1.88417C7.88581 1.88417 7.98063 1.89333 8.08156 1.90174C8.9227 2.00115 9.54515 2.4439 9.46944 3.61308C9.40215 4.7815 8.96399 6.08451 7.1716 6.0998C7.1716 6.0998 6.94067 6.0998 6.69445 6.07686C5.86019 5.98587 5.59791 5.46205 5.59791 5.46205C5.59791 5.46205 6.319 5.2663 6.32511 4.35098C6.319 3.72854 5.77684 3.15887 4.99458 2.92871C4.73842 2.85377 4.45702 2.81707 4.16415 2.81707C3.24196 2.81707 2.20659 3.20322 1.50845 4.11471C-0.0744249 6.20456 -0.20289 9.25101 0.18327 12.0841C0.571723 14.9233 2.37252 17.5531 2.42529 17.625C2.46352 17.6754 2.49793 17.7029 2.53693 17.7029C2.55681 17.7029 2.57746 17.6937 2.59887 17.6761C3.37654 16.9214 4.11827 15.8899 4.43561 15.2002C4.77512 15.4709 4.59772 16.0466 4.41114 16.6614C4.23374 17.29 3.80246 18.1242 3.64647 18.3934C3.49583 18.6565 3.29395 18.9623 3.56541 19.1221C3.59294 19.139 3.62812 19.1481 3.67017 19.1481C4.01886 19.1481 4.83936 18.5402 5.75467 17.3198C6.77933 15.9465 7.2993 14.7276 7.2993 14.7276C7.37424 14.7444 7.49965 14.8714 7.479 15.217C7.46524 15.568 7.10431 16.874 6.40158 18.0898C5.6912 19.3049 5.03511 20.065 4.90282 20.2378C4.821 20.338 4.89059 20.4007 4.94335 20.4412C4.99535 20.4764 6.2517 21.6494 8.07697 22.6404C10.2395 23.7928 11.1984 24 11.1984 24C11.1984 24 12.155 23.7981 14.3175 22.6465C16.142 21.654 17.4037 20.4756 17.4503 20.4359C17.5031 20.3999 17.5704 20.3433 17.4909 20.2332C17.3662 20.068 16.7078 19.3042 15.999 18.0891C15.2985 16.8817 14.9238 15.5672 14.9185 15.2208C14.904 14.8713 15.0217 14.7559 15.0936 14.7268C15.0936 14.7268 15.6189 15.9534 16.6436 17.3191C17.5635 18.541 18.3763 19.1474 18.7266 19.1474C18.7709 19.1474 18.8061 19.1382 18.8351 19.1214C19.0982 18.9616 18.9024 18.6511 18.748 18.3911C18.6042 18.1235 18.1668 17.2946 17.981 16.6607C17.8028 16.039 17.6178 15.464 17.9634 15.1994C18.2815 15.8891 19.0179 16.926 19.7979 17.67C19.8185 17.6914 19.8422 17.7021 19.8652 17.7021C19.8996 17.7021 19.9363 17.6754 19.9684 17.6287C20.0257 17.5523 21.8296 14.9272 22.215 12.0833C22.6019 9.24412 22.4742 6.20455 20.8898 4.11394C20.1963 3.20016 19.1532 2.8117 18.2249 2.8117C17.9351 2.8117 17.6583 2.84918 17.4052 2.92182C16.6168 3.15887 16.077 3.73391 16.0816 4.35024C16.0816 5.26555 16.8065 5.46128 16.8065 5.46128C16.8065 5.46128 16.5641 5.9721 15.7 6.07609C15.5386 6.09597 15.3819 6.10515 15.232 6.10515C14.582 6.10515 14.0345 5.89869 13.5299 5.18601C13.0405 4.5001 13.0565 3.08777 13.0282 2.61673C13.0061 2.13881 12.9036 1.06674 12.4012 0.629347C11.9003 0.180484 11.2901 0.0298222 10.5293 0C10.4735 0.00152934 10.4238 0.00154017 10.3771 0.00154017Z" fill="#00AFE9"/>
</svg>
