<svg width="110" height="24" viewBox="0 0 110 24" fill="none" xmlns="http://www.w3.org/2000/svg">
<path d="M0 24H24.4058V0H0V24Z" fill="url(#paint0_linear_45_4237)"/>
<path d="M1.90661 0.429874C1.43312 0.429874 1.12377 0.829329 1.05031 1.38948C1.05031 1.38948 0.440796 4.59315 0.440796 11.3959C0.440796 18.2022 1.05031 22.6553 1.05031 22.6553C1.10655 23.1936 1.43312 23.6143 1.90661 23.6143H23.0312C23.503 23.6143 23.8783 23.2401 23.8864 22.6553C23.8864 22.6553 23.6516 17.4394 23.6516 12.3452C23.6516 7.25045 23.8864 1.38948 23.8864 1.38948C23.8979 0.868355 23.503 0.429874 23.0312 0.429874H1.90661Z" fill="url(#paint1_linear_45_4237)"/>
<path d="M13.7703 2.87827C14.4367 3.15778 17.1146 4.6058 17.4429 5.06839C16.0953 5.2463 13.4524 5.93444 12.029 6.62718L11.9458 6.79476C13.5155 6.44926 15.7096 6.26847 17.2225 6.1864C16.6578 7.01515 16.2836 7.41002 15.4244 8.34782L15.3446 8.52975C16.982 7.54604 17.4429 7.47545 18.9523 6.5916C19.5222 7.4347 19.6594 9.37744 19.6812 10.9173C20.1725 9.94047 20.7688 6.26044 20.5209 5.59525C21.5218 4.90826 21.6573 4.35499 21.6573 4.35499C20.7395 4.43419 20.2333 4.44969 19.7386 4.6058C18.5661 3.88667 15.8772 2.93796 13.8478 2.70839L13.7703 2.87827Z" fill="url(#paint2_linear_45_4237)"/>
<path d="M3.77243 14.3144C3.63985 15.5403 3.58647 16.4172 3.7621 17.3981C3.26565 17.5353 2.83061 17.5548 2.43058 17.7252L2.35425 17.8934C2.99074 18.286 3.50899 18.5867 4.2287 18.9224C4.61381 19.7495 5.01154 20.3073 5.65664 20.9444L5.73527 20.7739C5.61933 20.3039 5.46896 19.9153 5.52578 19.4017C6.32584 19.6347 7.01226 19.7581 7.92423 19.7856L8.00114 19.6152C7.19936 19.3041 6.39815 19.059 5.74961 18.4472C5.95336 17.8802 6.18695 17.4354 6.56804 16.8729L6.64839 16.7008C5.95967 16.8046 5.33524 17.0566 4.7395 17.1725C4.27003 16.3472 4.08752 15.2183 3.85106 14.1428L3.77243 14.3144Z" fill="url(#paint3_linear_45_4237)"/>
<path d="M7.85877 8.71913C7.85877 8.71913 7.34339 8.66977 6.49053 8.6956C5.76967 8.72889 4.6947 8.79316 4.17185 8.94698L4.09552 9.11456C4.92657 9.15015 6.06525 9.37341 6.50086 9.81074C6.50086 9.81074 5.23936 10.9488 3.98877 13.4397C3.98877 13.4397 6.25579 11.3127 7.23836 10.7853C7.23836 10.7853 7.7526 12.4979 8.10958 13.3553L8.18821 13.1843C8.28693 12.6333 8.53314 11.1388 8.95096 10.2245C8.95096 10.2245 9.09904 10.1344 9.82391 10.0638C10.5505 9.99899 11.5778 9.96054 13.5286 10.3032L13.6078 10.1356C13.1625 9.87272 11.3873 9.1117 9.50825 8.85859H9.56966C9.82735 8.09986 10.1499 7.52765 10.1499 7.52765C9.75159 7.5839 8.61751 8.11421 7.85877 8.71913Z" fill="url(#paint4_linear_45_4237)"/>
<path d="M12.6075 19.2272C12.5794 18.8949 12.5581 18.6119 12.5415 18.2377C12.1472 18.7726 11.8103 19.1933 11.3753 19.6817C10.9156 19.8097 10.3898 19.8046 9.9106 19.7994C9.72121 19.7971 9.53812 19.7954 9.36996 19.8005L9.29248 19.971C9.73842 20.2006 10.1763 20.3418 10.6435 20.4376C10.2647 20.7825 9.75851 21.0448 9.40268 21.2853L9.32462 21.4529C10.0868 21.2727 11.0906 20.949 11.8384 20.5076C12.2276 20.5248 12.5909 20.499 12.8577 20.4462C12.8577 20.4462 12.9375 20.2723 12.9375 20.2763C12.8887 20.1041 12.7355 19.9991 12.6907 19.7581C13.3915 19.214 13.8994 18.7181 14.4854 18.1287L14.5669 17.9577C13.9878 18.3571 13.2847 18.9064 12.6075 19.2272Z" fill="url(#paint5_linear_45_4237)"/>
<path d="M19.0297 6.41939C17.5237 7.30496 17.0623 7.37957 15.4243 8.35984C16.3782 7.32505 16.7099 6.88427 17.2999 6.01821C15.7899 6.09856 13.5958 6.27992 12.0289 6.62715C13.3926 5.89883 16.0964 5.08902 17.5237 4.89618C17.1926 4.43933 14.514 2.98844 13.8477 2.70893C15.9684 2.87365 18.5602 3.66625 19.8172 4.43474C20.3113 4.28035 20.8255 4.27289 21.7456 4.19082C21.5114 4.59315 21.5011 4.82616 20.5983 5.42477C20.8485 6.0934 20.251 9.77171 19.7575 10.7457C19.7397 9.20696 19.6054 7.26364 19.0297 6.41939Z" fill="white"/>
<path d="M8.00098 19.6153C7.13549 19.2945 6.51221 18.9209 5.82579 18.2792C6.03125 17.7122 6.26599 17.2691 6.64823 16.7009C5.94459 16.806 5.42576 16.8852 4.81969 16.9999C4.32611 16.1368 4.10228 15.3028 3.8509 14.1429C3.7166 15.3723 3.66552 16.2504 3.83884 17.2289C3.28271 17.3833 2.88842 17.5188 2.43042 17.7248C3.07207 18.1174 3.59033 18.4199 4.3066 18.7539C4.6917 19.5798 5.08943 20.1376 5.73568 20.7741C5.58416 20.2317 5.54399 19.8007 5.60597 19.232C6.4066 19.465 7.09187 19.5872 8.00098 19.6153Z" fill="white"/>
<path d="M10.2543 7.3816C9.98456 7.7317 9.67176 8.38426 9.5874 8.68729C11.8183 8.98975 13.6083 10.1353 13.6083 10.1353C11.6576 9.78924 10.6297 9.83228 9.90191 9.89771C9.17876 9.96601 9.03011 10.0509 9.03011 10.0509C8.50382 11.204 8.18816 13.184 8.18816 13.184C7.83347 12.3283 7.32038 10.6145 7.32038 10.6145C6.33609 11.1408 4.07251 13.2707 4.07251 13.2707C5.31679 10.7775 6.58001 9.64346 6.58001 9.64346C6.14554 9.20325 5.00572 8.98344 4.1718 8.94671C4.60454 8.76994 5.7151 8.56332 6.56795 8.5243C7.42196 8.49962 7.9385 8.5484 7.9385 8.5484C8.7001 7.94692 9.856 7.44072 10.2543 7.3816Z" fill="white"/>
<path d="M12.6206 18.0698C12.2269 18.6041 11.8883 19.0237 11.4515 19.5121C10.7008 19.7227 10.1016 19.8008 9.36987 19.8008C9.81926 20.0326 10.2543 20.1715 10.7232 20.2697C10.2543 20.6938 9.85829 20.9957 9.40316 21.2855C10.1659 21.1047 11.1686 20.781 11.9152 20.3397C12.3055 20.3546 12.67 20.3294 12.9374 20.2766C12.8674 20.0504 12.8249 19.8817 12.7681 19.5873C13.4712 19.0432 13.9814 18.5502 14.5668 17.9579C13.9441 18.3923 13.4069 18.7166 12.686 19.057C12.655 18.7252 12.6373 18.444 12.6206 18.0698Z" fill="white"/>
<path d="M33.3086 9.19903C34.8026 9.21166 35.3495 9.51527 35.3495 10.3285C35.3495 10.5529 35.2807 10.7521 35.1487 10.9042C34.8623 11.248 34.305 11.4264 33.5945 11.3817H33.5577L33.1405 12.4687H33.5577C34.3825 12.4452 35.0993 12.7052 35.4678 13.1551C35.6376 13.36 35.7232 13.6068 35.7232 13.8582C35.7232 14.7088 34.9742 15.1478 33.4969 15.1478C33.2484 15.1478 32.8438 15.1478 32.5924 15.1398C32.5499 14.0045 32.531 12.4687 32.531 12.0055C32.531 11.4701 32.566 10.2763 32.5924 9.25642C32.7628 9.22141 33.0458 9.19903 33.3086 9.19903ZM30.5417 8.41734C30.5876 9.22371 30.6347 11.2623 30.6347 12.0055C30.6347 12.6908 30.6341 14.9842 30.5142 15.9731L30.5067 16.0506H34.0898C35.8511 16.0506 37.7135 15.5031 37.7135 13.9385C37.7135 12.96 37.0047 12.2363 35.679 11.8403C36.6627 11.5762 37.3175 10.9042 37.3175 10.1357C37.3175 8.85869 35.8511 8.37831 34.4726 8.34502H30.5211L30.5417 8.41734Z" fill="black"/>
<path d="M45.9833 8.34482H44.2398L44.3103 10.2881C44.3442 11.2483 44.3769 12.2361 44.4446 13.1951C44.3322 12.8944 44.2271 12.74 43.6968 11.9686C43.6951 11.9416 41.8826 9.15406 41.2536 8.36261L41.2358 8.34482H39.2127V8.41713C39.277 9.2235 39.3028 11.2627 39.3028 12.0059C39.3028 12.6912 39.3028 14.984 39.2064 15.9729L39.1886 16.051H40.9919V15.9729C40.8892 14.0921 40.8892 12.1942 40.8892 10.353C40.9517 10.5763 41.0315 10.7679 41.3156 11.1886C41.3391 11.2386 44.4446 15.7594 44.5956 16.0183L44.6111 16.051H46.0557L46.0534 15.9729C45.9432 14.984 45.934 12.6912 45.934 12.0059C45.934 11.2627 45.9833 9.2235 46.0304 8.41713L46.0534 8.34482H45.9833Z" fill="black"/>
<path d="M50.7123 9.2747C51.7173 9.25634 52.4186 9.45951 52.7521 9.88135C52.9047 10.0627 52.9891 10.302 52.9891 10.5764C52.9891 11.6915 51.7345 11.9337 50.6859 11.9337L50.2601 11.9096C50.2601 11.9096 50.1596 11.8999 50.085 11.8918C50.0775 11.6341 50.0775 11.2944 50.0775 10.9133C50.0775 10.4283 50.0775 9.85265 50.0999 9.31947C50.248 9.29996 50.4713 9.2747 50.7123 9.2747ZM48.0682 8.41725C48.1388 9.22362 48.1658 11.2622 48.1658 12.006C48.1658 12.6907 48.1658 14.9842 48.0602 15.973V16.0511H50.205L50.1958 15.973C50.1223 15.2614 50.085 13.9046 50.0775 12.8675C50.178 12.8727 50.4827 12.8882 50.4827 12.8882L50.7858 12.8945C53.6072 12.8945 54.9795 12.1478 54.9795 10.5764C54.9795 8.78858 53.0545 8.37823 51.4498 8.34494H48.0682V8.41725Z" fill="black"/>
<path d="M61.7141 9.2747C62.7213 9.25634 63.4221 9.45951 63.7595 9.88135C63.9145 10.0627 63.992 10.302 63.992 10.5764C63.992 11.6915 62.7391 11.9337 61.7037 11.9337L61.279 11.9096C61.279 11.9096 61.1665 11.8999 61.1005 11.8918C61.089 11.6341 61.089 11.2926 61.089 10.9133C61.089 10.4237 61.089 9.85265 61.1091 9.31947C61.2434 9.29996 61.4753 9.2747 61.7141 9.2747ZM59.074 8.41725C59.1417 9.22362 59.1807 11.2622 59.1807 12.006C59.1807 12.6907 59.1738 14.9842 59.0625 15.973V16.0511H61.209L61.1964 15.973C61.1281 15.2614 61.089 13.9046 61.089 12.8675C61.1889 12.8727 61.4753 12.8882 61.4753 12.8882L61.7864 12.8945C64.6067 12.8945 65.991 12.1478 65.991 10.5764C65.991 8.78858 64.0551 8.37823 62.4441 8.34494H59.074V8.41725Z" fill="black"/>
<path d="M69.3817 10.6142C69.5522 10.9815 69.9953 12.006 70.4934 13.2284C70.4165 13.2319 70.3201 13.2319 70.3201 13.2319L69.3817 13.2445C69.3817 13.2445 68.4106 13.2319 68.2482 13.2284C68.6534 12.251 69.0546 11.3678 69.3817 10.6142ZM68.86 8.34488H68.8319L68.817 8.38333C68.4175 9.48011 65.8446 15.0949 65.4371 15.9546L65.4033 16.051H67.2301L67.2456 16.0086C67.4063 15.48 67.6226 14.8842 67.858 14.2483C67.9308 14.2483 69.3817 14.2265 69.3817 14.2265L70.6438 14.2357C70.6438 14.2357 70.847 14.2483 70.9078 14.2483C71.2327 15.0765 71.4823 15.7009 71.5908 16.0183L71.6115 16.051H73.7287L70.3086 8.34488H70.2662H68.86Z" fill="black"/>
<path d="M74.5891 8.41713C74.6505 9.2235 74.6815 11.2627 74.6815 12.0059C74.6815 12.6912 74.6815 14.984 74.5645 15.9729V16.051H76.7224L76.7132 15.9729C76.599 14.9771 76.591 12.6912 76.591 12.0059C76.591 11.4704 76.6076 10.2767 76.661 9.31131C76.8252 9.29983 77.0742 9.27458 77.243 9.27458C78.2416 9.25622 78.947 9.46226 79.277 9.88122C79.4354 10.0632 79.5066 10.3077 79.5066 10.5763C79.5066 11.4664 78.6761 11.9175 77.9019 11.9577C77.6424 11.9686 77.4496 11.9353 77.4496 11.9353L77.2992 11.9095L77.3819 12.0507C78.1481 13.1681 79.2936 15.1028 79.7671 16.0183L79.7803 16.051H82.0858L82.0284 15.9471C81.9343 15.8174 80.4329 13.6072 79.7947 12.6631C79.7947 12.6631 79.7671 12.6361 79.739 12.6062C80.9213 12.251 81.4924 11.5904 81.4924 10.5763C81.4924 8.80166 79.5674 8.37925 77.942 8.34482H74.5828L74.5891 8.41713Z" fill="black"/>
<path d="M85.1368 8.34482H83.0815L83.093 8.41713C83.1464 9.2235 83.1877 11.2627 83.1877 12.0059C83.1877 12.6877 83.1785 14.9771 83.0815 15.9729L83.0735 16.051H85.2039L85.193 15.9729C85.1109 14.9771 85.0857 12.6877 85.0857 12.0059C85.0857 11.2627 85.1368 9.2235 85.193 8.41713V8.34482H85.1368Z" fill="black"/>
<path d="M89.9119 9.19903C91.4168 9.21166 91.9643 9.51527 91.9643 10.3285C91.9643 10.5529 91.8948 10.7521 91.7582 10.9042C91.4868 11.248 90.9077 11.4264 90.2018 11.3817H90.1667L89.7524 12.4687H90.1667C90.9943 12.4452 91.7049 12.7052 92.0728 13.1551C92.2524 13.36 92.3379 13.6068 92.3379 13.8582C92.3379 14.7088 91.5855 15.1478 90.1002 15.1478C89.862 15.1478 89.4602 15.1478 89.2089 15.1398C89.1474 14.0045 89.1474 12.4687 89.1474 12.0055C89.1474 11.4701 89.1664 10.2763 89.2089 9.25642C89.3713 9.22141 89.6531 9.19903 89.9119 9.19903ZM87.1462 8.41734C87.2076 9.22371 87.2449 11.2623 87.2449 12.0055C87.2449 12.6908 87.2449 14.9842 87.137 15.9731L87.1198 16.0506H90.7085C92.463 16.0506 94.3317 15.5031 94.3317 13.9385C94.3317 12.96 93.6212 12.2363 92.284 11.8403C93.2694 11.5762 93.9323 10.9042 93.9323 10.1357C93.9323 8.85869 92.463 8.37831 91.0971 8.34502H87.137L87.1462 8.41734Z" fill="black"/>
<path d="M98.7214 10.6101C98.8942 10.9688 99.3338 11.9949 99.8326 13.2203C99.7568 13.2203 99.6638 13.2283 99.6638 13.2283L98.7214 13.2409C98.7214 13.2409 97.7389 13.2203 97.5931 13.2203C97.9925 12.236 98.3834 11.359 98.7214 10.6101ZM99.6081 8.34475H98.1653L98.1567 8.37919C97.7257 9.54599 95.0075 15.4569 94.7791 15.947L94.7395 16.0509H96.5755L96.587 16.005C96.7402 15.477 96.9537 14.8841 97.1925 14.2356C97.251 14.2356 98.7099 14.2126 98.7099 14.2126L99.9743 14.2327C99.9743 14.2327 100.194 14.2356 100.243 14.2356C100.575 15.0637 100.821 15.6933 100.928 16.005L100.948 16.0509H103.072L99.6546 8.34475H99.6081Z" fill="black"/>
<path d="M103.674 10.3376C103.674 11.6915 105.03 12.2361 106.231 12.7343C107.165 13.1068 108.143 13.4988 108.143 14.1444C108.143 14.3396 108.105 14.5037 107.996 14.6191C107.771 14.8842 107.316 14.9956 106.593 14.9554C105.878 14.9267 105.071 14.7012 104.163 14.2828L103.807 14.1117V14.4113V15.7905L104.05 15.8525L104.191 15.8766C104.639 15.9879 105.505 16.1917 106.365 16.1917C108.628 16.1917 109.978 15.2889 109.978 13.7966C109.978 12.3951 108.584 11.8504 107.352 11.3592C106.445 10.9913 105.505 10.6268 105.505 10.0259C105.505 9.8526 105.505 9.34697 106.678 9.34697C107.541 9.34697 108.381 9.69879 108.858 9.8813L109.293 10.0632L109.29 9.77397V8.37818L108.858 8.30012C108.418 8.21116 107.685 8.06539 106.93 8.06539C104.977 8.06539 103.674 8.98712 103.674 10.3376Z" fill="black"/>
<defs>
<linearGradient id="paint0_linear_45_4237" x1="12.2027" y1="-0.599749" x2="12.2027" y2="25.1637" gradientUnits="userSpaceOnUse">
<stop stop-color="#007348"/>
<stop offset="0.600006" stop-color="#8DC9AB"/>
<stop offset="1" stop-color="#00925B"/>
</linearGradient>
<linearGradient id="paint1_linear_45_4237" x1="12.1643" y1="-6.0621" x2="12.1643" y2="22.889" gradientUnits="userSpaceOnUse">
<stop stop-color="#00925B"/>
<stop offset="0.300003" stop-color="#8DC9AB"/>
<stop offset="0.550003" stop-color="#00925B"/>
<stop offset="0.835159" stop-color="#007348"/>
<stop offset="1" stop-color="#009C6D"/>
</linearGradient>
<linearGradient id="paint2_linear_45_4237" x1="16.8017" y1="21.2902" x2="16.8017" y2="2.55538" gradientUnits="userSpaceOnUse">
<stop stop-color="#00A678"/>
<stop offset="1" stop-color="#00925B"/>
</linearGradient>
<linearGradient id="paint3_linear_45_4237" x1="5.17772" y1="21.2912" x2="5.17772" y2="2.55072" gradientUnits="userSpaceOnUse">
<stop stop-color="#00A678"/>
<stop offset="1" stop-color="#00925B"/>
</linearGradient>
<linearGradient id="paint4_linear_45_4237" x1="8.79866" y1="21.287" x2="8.79866" y2="2.55885" gradientUnits="userSpaceOnUse">
<stop stop-color="#00A678"/>
<stop offset="1" stop-color="#00925B"/>
</linearGradient>
<linearGradient id="paint5_linear_45_4237" x1="11.9294" y1="21.2896" x2="11.9294" y2="2.55501" gradientUnits="userSpaceOnUse">
<stop stop-color="#00A678"/>
<stop offset="1" stop-color="#00925B"/>
</linearGradient>
</defs>
</svg>
