<svg width="129" height="24" viewBox="0 0 129 24" fill="none" xmlns="http://www.w3.org/2000/svg">
<path d="M51.0613 23.6702L54.5901 19.0113L51.9374 18.647L50.4452 20.4455C50.1205 20.8371 49.5789 20.6018 49.2967 20.4009L41.6511 14.9472C41.3618 14.7409 41.606 14.3788 41.9061 14.3292L49.5669 13.0683L50.4822 11.509L38.5211 13.4781C38.0755 13.5505 37.7366 14.0595 38.1433 14.3931L49.3615 23.6032C49.758 23.9288 50.6077 24.2712 51.0613 23.6702Z" fill="#FFB600"/>
<path d="M58.5225 0.552939L67.7278 17.3253C68.6668 19.0349 67.7233 20.8156 66.1137 20.5942L55.443 19.1287L56.5012 17.323L64.2017 18.3178C65.0023 18.4277 64.9184 17.8776 64.5808 17.261L58.0868 3.72183C57.9497 3.47268 57.4862 3.34274 57.329 3.61199L50.1402 15.858C49.9272 16.221 49.8678 16.4626 50.3304 16.526L53.3712 16.9189L51.937 18.6469L48.0764 18.1165C47.3567 18.0173 47.0419 17.3695 47.4683 16.643L56.7285 0.867283C57.1451 0.158223 57.9407 -0.506186 58.5225 0.552939Z" fill="#019EEC"/>
<path d="M55.9252 17.2489L56.6718 16.2625L59.9648 11.9153C60.6975 10.9486 60.5439 9.85332 59.5487 10.0163L53.7405 10.9727L53.0001 12.5034L56.115 11.9903C56.7865 11.88 56.9196 12.6427 56.3958 13.274L54.2852 15.8174L53.3707 16.9189L50.8453 19.9628L52.9229 21.2117L55.9252 17.2489Z" fill="#FFB500"/>
<path d="M75.3997 12.3172H75.1475C74.9711 11.7814 74.8188 11.3554 74.6889 11.0393C74.559 10.7232 74.4308 10.4812 74.3045 10.3137C74.179 10.1463 74.0388 10.0364 73.8861 9.9842C73.7325 9.9324 73.5454 9.90606 73.3239 9.90606C73.0257 9.90606 72.7564 9.96723 72.5153 10.0905C72.2746 10.2133 72.0679 10.4218 71.896 10.7156C71.7241 11.0098 71.5919 11.4005 71.4999 11.8877C71.4084 12.3748 71.362 12.9798 71.362 13.7014C71.362 14.431 71.4039 15.0374 71.4883 15.5209C71.5723 16.005 71.7009 16.3934 71.8723 16.6872C72.0447 16.9815 72.2581 17.1896 72.5144 17.3123C72.7703 17.4351 73.0743 17.4963 73.4262 17.4963C73.6628 17.4963 73.8655 17.4499 74.0339 17.3565C74.2022 17.2637 74.3531 17.111 74.4871 16.8993C74.6206 16.6868 74.7429 16.4064 74.8537 16.0563C74.9644 15.7062 75.085 15.2713 75.2153 14.7503H75.4672V17.2726C75.1461 17.4365 74.8117 17.5557 74.4639 17.6303C74.116 17.7044 73.77 17.7419 73.4262 17.7419C72.9364 17.7419 72.48 17.6468 72.0558 17.457C71.6312 17.2672 71.2628 16.9976 70.9489 16.6475C70.635 16.2974 70.3886 15.8737 70.2095 15.3745C70.0296 14.8762 69.9398 14.318 69.9398 13.7001C69.9398 13.0825 70.0296 12.5244 70.2095 12.0256C70.3886 11.5269 70.6355 11.1032 70.9489 10.7531C71.2624 10.4035 71.6308 10.1333 72.0558 9.94357C72.48 9.7538 72.9368 9.65869 73.4262 9.65869C73.8164 9.65869 74.1718 9.69799 74.4929 9.77612C74.8139 9.85426 75.1162 9.95651 75.3989 10.0833V12.3172H75.3997Z" fill="#019EEC" stroke="#019EEC" stroke-width="0.0913271"/>
<path d="M76.9928 13.9246V12.1163C77.2692 11.9975 77.5389 11.9006 77.8015 11.826C78.0636 11.7515 78.3364 11.7144 78.6204 11.7144C78.9535 11.7144 79.241 11.7573 79.4822 11.843C79.7233 11.9287 79.9233 12.0386 80.0832 12.1721C80.243 12.3056 80.36 12.4588 80.4341 12.6298C80.5087 12.8012 80.5457 12.9722 80.5457 13.1428V17.3181H81.0565V17.5637H79.6103V16.5814H79.5889C79.4612 16.9315 79.2553 17.2123 78.9718 17.4244C78.6878 17.6365 78.3547 17.7428 77.972 17.7428C77.4898 17.7428 77.1 17.6066 76.8022 17.3351C76.5044 17.0636 76.3552 16.6823 76.3552 16.1907C76.3552 15.8634 76.4101 15.6013 76.52 15.4035C76.6298 15.2066 76.7772 15.0503 76.9616 14.9347C77.1456 14.8195 77.3532 14.7337 77.584 14.6779C77.8144 14.6221 78.0502 14.5721 78.2913 14.5274C78.5324 14.4823 78.7677 14.4323 78.9986 14.3765C79.229 14.3207 79.433 14.2368 79.6103 14.1251V12.9535C79.6103 12.5963 79.5263 12.3418 79.3602 12.1891C79.1933 12.0364 78.9682 11.96 78.6842 11.96C78.4998 11.96 78.344 11.9895 78.2163 12.0493C78.0886 12.1091 77.9734 12.2114 77.8707 12.3565C77.768 12.5012 77.6671 12.7021 77.5675 12.9593C77.4679 13.2165 77.3545 13.538 77.2268 13.9246H76.9928ZM79.6098 14.4163C79.312 14.5649 79.0298 14.6659 78.7637 14.7177C78.498 14.7699 78.2659 14.8387 78.0672 14.9244C77.8685 15.0097 77.7104 15.1418 77.5934 15.3204C77.4764 15.499 77.4179 15.7897 77.4179 16.1911C77.4179 16.6153 77.4903 16.9132 77.6358 17.0842C77.7809 17.2556 77.9957 17.3409 78.2792 17.3409C78.6829 17.3262 79.0057 17.1306 79.2468 16.7546C79.488 16.3787 79.609 15.8822 79.609 15.2642V14.4163H79.6098Z" fill="#019EEC" stroke="#019EEC" stroke-width="0.0913271"/>
<path d="M81.7263 11.893H83.2154V12.6521H83.2369C83.3641 12.4141 83.5521 12.198 83.8008 12.0046C84.0491 11.8113 84.3607 11.7144 84.7367 11.7144C84.9497 11.7144 85.1426 11.7425 85.3167 11.7984C85.4904 11.8542 85.6413 11.947 85.7686 12.0774C85.8963 12.2074 85.9959 12.377 86.0664 12.5851C86.1374 12.7936 86.1727 13.0504 86.1727 13.3558V17.3186H86.7473V17.5642H84.5559V17.3186H85.1729V13.2218C85.1729 12.8048 85.1109 12.5168 84.9867 12.3565C84.8631 12.1966 84.6769 12.1163 84.4286 12.1163C84.2795 12.1163 84.1379 12.1498 84.0031 12.2172C83.8682 12.2837 83.7495 12.3882 83.6468 12.5293C83.5441 12.6708 83.4606 12.8477 83.3967 13.0598C83.3324 13.2723 83.3007 13.5232 83.3007 13.8135V17.319H83.9178V17.5646H81.7268V17.319H82.301V12.1386H81.7268V11.893H81.7263Z" fill="#019EEC" stroke="#019EEC" stroke-width="0.0913271"/>
<path d="M88.2258 13.9246V12.1163C88.5022 11.9975 88.7718 11.9006 89.0344 11.826C89.2965 11.7515 89.5693 11.7144 89.8533 11.7144C90.1864 11.7144 90.4739 11.7573 90.7151 11.843C90.9562 11.9287 91.1562 12.0386 91.3161 12.1721C91.4759 12.3056 91.5929 12.4588 91.667 12.6298C91.7416 12.8012 91.7787 12.9722 91.7787 13.1428V17.3181H92.2895V17.5637H90.8432V16.5814H90.8218C90.6941 16.9315 90.4882 17.2123 90.2047 17.4244C89.9207 17.6365 89.5876 17.7428 89.2049 17.7428C88.7227 17.7428 88.3329 17.6066 88.0351 17.3351C87.7373 17.0636 87.5881 16.6823 87.5881 16.1907C87.5881 15.8634 87.6431 15.6013 87.7529 15.4035C87.8627 15.2066 88.0101 15.0503 88.1945 14.9347C88.3785 14.8195 88.5861 14.7337 88.8169 14.6779C89.0473 14.6221 89.2831 14.5721 89.5242 14.5274C89.7653 14.4823 90.0006 14.4323 90.2315 14.3765C90.4619 14.3207 90.6659 14.2368 90.8432 14.1251V12.9535C90.8432 12.5963 90.7592 12.3418 90.5932 12.1891C90.4262 12.0364 90.2011 11.96 89.9171 11.96C89.7327 11.96 89.5769 11.9895 89.4492 12.0493C89.3215 12.1091 89.2063 12.2114 89.1036 12.3565C89.0009 12.5012 88.9 12.7021 88.8004 12.9593C88.7008 13.2165 88.5874 13.538 88.4597 13.9246H88.2258ZM90.8423 14.4163C90.5445 14.5649 90.2623 14.6659 89.9962 14.7177C89.7305 14.7699 89.4983 14.8387 89.2996 14.9244C89.1009 15.0097 88.9429 15.1418 88.8259 15.3204C88.7089 15.499 88.6504 15.7897 88.6504 16.1911C88.6504 16.6153 88.7227 16.9132 88.8683 17.0842C89.0134 17.2556 89.2282 17.3409 89.5117 17.3409C89.9154 17.3262 90.2382 17.1306 90.4793 16.7546C90.7204 16.3787 90.8414 15.8822 90.8414 15.2642V14.4163H90.8423Z" fill="#019EEC" stroke="#019EEC" stroke-width="0.0913271"/>
<path d="M93.6183 12.1386H93.0441V11.893H94.597V12.7195H94.6185C94.7319 12.3922 94.8895 12.1426 95.0922 11.9716C95.294 11.8006 95.5655 11.7148 95.9058 11.7148C96.0406 11.7148 96.1768 11.739 96.3152 11.7876C96.4536 11.8363 96.5617 11.8787 96.6398 11.9162V14.1041H96.4059L96.0339 12.9544C95.9343 12.657 95.849 12.4427 95.7785 12.3123C95.7075 12.1823 95.6084 12.1167 95.4807 12.1167C95.3744 12.1167 95.2677 12.1649 95.1614 12.2618C95.0552 12.3587 94.9632 12.4909 94.885 12.6583C94.8069 12.8258 94.7431 13.0196 94.6935 13.2388C94.6439 13.4585 94.6189 13.6947 94.6189 13.9478V17.319H95.3208V17.5646H93.0445V17.319H93.6187V12.1386H93.6183Z" fill="#019EEC" stroke="#019EEC" stroke-width="0.0913271"/>
<path d="M98.0754 13.9246V12.1163C98.3518 11.9975 98.6215 11.9006 98.884 11.826C99.1461 11.7515 99.4189 11.7144 99.7029 11.7144C100.036 11.7144 100.324 11.7573 100.565 11.843C100.806 11.9287 101.006 12.0386 101.166 12.1721C101.326 12.3056 101.443 12.4588 101.517 12.6298C101.591 12.8012 101.628 12.9722 101.628 13.1428V17.3181H102.139V17.5637H100.693V16.5814H100.671C100.544 16.9315 100.338 17.2123 100.054 17.4244C99.7703 17.6365 99.4372 17.7428 99.0546 17.7428C98.5723 17.7428 98.1825 17.6066 97.8847 17.3351C97.5869 17.0636 97.4377 16.6823 97.4377 16.1907C97.4377 15.8634 97.4927 15.6013 97.6025 15.4035C97.7124 15.2066 97.8597 15.0503 98.0441 14.9347C98.2281 14.8195 98.4357 14.7337 98.6665 14.6779C98.8969 14.6221 99.1327 14.5721 99.3738 14.5274C99.6149 14.4823 99.8502 14.4323 100.081 14.3765C100.311 14.3207 100.516 14.2368 100.693 14.1251V12.9535C100.693 12.5963 100.609 12.3418 100.443 12.1891C100.276 12.0364 100.051 11.96 99.7667 11.96C99.5823 11.96 99.4265 11.9895 99.2988 12.0493C99.1711 12.1091 99.0559 12.2114 98.9532 12.3565C98.8505 12.5012 98.7496 12.7021 98.65 12.9593C98.5504 13.2165 98.437 13.538 98.3093 13.9246H98.0754ZM100.692 14.4163C100.394 14.5649 100.112 14.6659 99.8458 14.7177C99.5801 14.7699 99.3479 14.8387 99.1492 14.9244C98.9505 15.0097 98.7925 15.1418 98.6755 15.3204C98.5585 15.499 98.5 15.7897 98.5 16.1911C98.5 16.6153 98.5723 16.9132 98.7179 17.0842C98.863 17.2556 99.0778 17.3409 99.3613 17.3409C99.765 17.3262 100.088 17.1306 100.329 16.7546C100.57 16.3787 100.691 15.8822 100.691 15.2642V14.4163H100.692Z" fill="#019EEC" stroke="#019EEC" stroke-width="0.0913271"/>
<path d="M106.51 10.0846H105.872V9.83905H108.914C109.255 9.83905 109.563 9.8837 109.84 9.973C110.116 10.0623 110.351 10.1851 110.542 10.3414C110.733 10.4977 110.882 10.6838 110.988 10.8995C111.095 11.1152 111.148 11.3496 111.148 11.6028C111.148 11.893 111.096 12.1462 110.993 12.3618C110.891 12.578 110.754 12.7583 110.584 12.9035C110.414 13.0486 110.222 13.1642 110.01 13.2495C109.797 13.3348 109.581 13.3964 109.361 13.4335V13.4558C110.112 13.5304 110.687 13.7389 111.084 14.0809C111.481 14.4234 111.68 14.8511 111.68 15.3646C111.68 15.6772 111.615 15.9674 111.488 16.2353C111.36 16.5032 111.165 16.7359 110.903 16.9332C110.64 17.1306 110.309 17.2846 109.908 17.3963C109.507 17.5079 109.03 17.5637 108.477 17.5637H105.871V17.3181H106.509V10.0846H106.51ZM107.659 13.3893H108.265C108.804 13.3893 109.218 13.2607 109.504 13.0039C109.792 12.7476 109.935 12.306 109.935 11.6814C109.935 11.1156 109.823 10.7084 109.6 10.4588C109.377 10.2097 109.055 10.0851 108.638 10.0851H107.659V13.3893ZM107.659 17.3186H108.159C108.917 17.3186 109.474 17.1752 109.829 16.8886C110.183 16.6019 110.361 16.1014 110.361 15.3874C110.361 14.7471 110.219 14.2957 109.935 14.0313C109.652 13.767 109.208 13.6348 108.605 13.6348H107.659V17.3186H107.659Z" fill="#019EEC" stroke="#019EEC" stroke-width="0.0913271"/>
<path d="M113.254 13.9246V12.1163C113.53 11.9975 113.8 11.9006 114.063 11.826C114.325 11.7515 114.598 11.7144 114.882 11.7144C115.215 11.7144 115.502 11.7573 115.743 11.843C115.984 11.9287 116.184 12.0386 116.344 12.1721C116.504 12.3056 116.621 12.4588 116.695 12.6298C116.77 12.8012 116.807 12.9722 116.807 13.1428V17.3181H117.318V17.5637H115.871V16.5814H115.85C115.722 16.9315 115.516 17.2123 115.233 17.4244C114.949 17.6365 114.616 17.7428 114.233 17.7428C113.751 17.7428 113.361 17.6066 113.063 17.3351C112.766 17.0636 112.616 16.6823 112.616 16.1907C112.616 15.8634 112.671 15.6013 112.781 15.4035C112.891 15.2066 113.038 15.0503 113.223 14.9347C113.407 14.8195 113.614 14.7337 113.845 14.6779C114.076 14.6221 114.311 14.5721 114.552 14.5274C114.794 14.4823 115.029 14.4323 115.26 14.3765C115.49 14.3207 115.694 14.2368 115.871 14.1251V12.9535C115.871 12.5963 115.788 12.3418 115.621 12.1891C115.454 12.0364 115.229 11.96 114.945 11.96C114.761 11.96 114.605 11.9895 114.477 12.0493C114.35 12.1091 114.235 12.2114 114.132 12.3565C114.029 12.5012 113.928 12.7021 113.829 12.9593C113.729 13.2165 113.616 13.538 113.488 13.9246H113.254ZM115.871 14.4163C115.573 14.5649 115.291 14.6659 115.025 14.7177C114.759 14.7699 114.527 14.8387 114.328 14.9244C114.13 15.0097 113.972 15.1418 113.855 15.3204C113.738 15.499 113.679 15.7897 113.679 16.1911C113.679 16.6153 113.751 16.9132 113.897 17.0842C114.042 17.2556 114.257 17.3409 114.54 17.3409C114.944 17.3262 115.267 17.1306 115.508 16.7546C115.749 16.3787 115.87 15.8822 115.87 15.2642V14.4163H115.871Z" fill="#019EEC" stroke="#019EEC" stroke-width="0.0913271"/>
<path d="M117.988 11.893H119.477V12.6521H119.498C119.626 12.4141 119.814 12.198 120.062 12.0046C120.311 11.8113 120.622 11.7144 120.998 11.7144C121.211 11.7144 121.404 11.7425 121.578 11.7984C121.752 11.8542 121.903 11.947 122.03 12.0774C122.158 12.2074 122.257 12.377 122.328 12.5851C122.399 12.7936 122.434 13.0504 122.434 13.3558V17.3186H123.009V17.5642H120.817V17.3186H121.435V13.2218C121.435 12.8048 121.372 12.5168 121.248 12.3565C121.125 12.1966 120.938 12.1163 120.69 12.1163C120.541 12.1163 120.4 12.1498 120.265 12.2172C120.13 12.2837 120.011 12.3882 119.908 12.5293C119.806 12.6708 119.722 12.8477 119.658 13.0598C119.594 13.2723 119.562 13.5232 119.562 13.8135V17.319H120.179V17.5646H117.988V17.319H118.563V12.1386H117.988V11.893H117.988Z" fill="#019EEC" stroke="#019EEC" stroke-width="0.0913271"/>
<path d="M123.763 17.5637V17.3181H124.337V10.0846H123.763V9.83905H125.337V14.5051L127.337 12.1381H126.657V11.8926H128.188V12.1381H127.678L126.157 13.98L128.338 17.3181H128.635V17.5637H127.316L125.359 14.5944H125.338V17.3186H126.018V17.5641H123.763V17.5637Z" fill="#019EEC" stroke="#019EEC" stroke-width="0.0913271"/>
<path d="M11.8256 14.9013C11.8256 15.7662 11.0817 16.4654 10.1664 16.4654C9.24657 16.4654 8.50269 15.7662 8.50269 14.9013C8.50269 14.0409 9.24702 13.3416 10.1664 13.3416C11.0817 13.3416 11.8256 14.0409 11.8256 14.9013ZM10.8335 14.9379C10.8335 14.2525 10.5178 13.7051 10.1347 13.7051C9.75157 13.7051 9.44036 14.2525 9.44036 14.9379C9.44036 15.6188 9.75157 16.1662 10.1347 16.1662C10.5178 16.1662 10.8335 15.6188 10.8335 14.9379Z" fill="#019EEC" stroke="#019EEC" stroke-width="0.0511233"/>
<path d="M9.75195 13.5446H12.8141" stroke="#019EEC" stroke-width="0.423877" stroke-miterlimit="10"/>
<path d="M13.1334 12.1957V17.5615" stroke="#019EEC" stroke-width="0.960423" stroke-miterlimit="10"/>
<path d="M12.157 17.5248H14.0355" stroke="#019EEC" stroke-width="0.318809" stroke-miterlimit="10"/>
<path d="M19.8967 12.1957V17.5615" stroke="#019EEC" stroke-width="0.960423" stroke-miterlimit="10"/>
<path d="M18.9202 17.5248H20.7986" stroke="#019EEC" stroke-width="0.318809" stroke-miterlimit="10"/>
<path d="M34.6815 14.1528C35.0423 15.2428 34.623 16.8806 33.2522 16.7747C33.0223 16.7564 32.7834 16.6966 32.6704 16.6046V15.3397H32.6928C33.0174 15.6339 32.9678 16.66 33.4773 16.4296C33.96 16.2179 33.9283 15.0677 33.8966 14.631C33.793 13.1727 32.6566 12.8553 31.9399 14.1528V13.4625C32.8285 12.6392 34.2846 12.9428 34.6815 14.1528Z" fill="#019EEC" stroke="#019EEC" stroke-width="0.0511233"/>
<path d="M31.1872 16.0666L31.1555 13.7478L31.151 13.2875L31.1332 12.0042H31.94V13.4625V14.1528V17.3498H32.445V17.6539H30.7858V17.3132L31.0925 17.3315L31.205 17.2949L31.1916 16.301L31.1872 16.0666Z" fill="#019EEC" stroke="#019EEC" stroke-width="0.0496343"/>
<path d="M31.1872 16.0666L31.1916 16.301C30.9934 16.7198 30.5062 16.9176 30.0597 16.8895C28.7881 16.8158 28.3148 15.3669 28.5715 14.2859C28.8693 13.0205 30.1137 12.6758 31.1327 13.2875H31.151L31.1555 13.7474H31.1148C29.8838 12.6432 29.3158 13.8488 29.4194 15.1276C29.4868 15.9697 30.4656 17.2346 31.1689 16.0666H31.1872Z" fill="#019EEC" stroke="#019EEC" stroke-width="0.0511233"/>
<path d="M7.17737 14.1528C7.53815 15.2427 7.11887 16.8805 5.74809 16.7747C5.51813 16.7564 5.27925 16.6966 5.16628 16.6046V15.3396H5.18861C5.51322 15.6339 5.46366 16.66 5.97313 16.4296C6.4558 16.2179 6.4241 15.0677 6.3924 14.631C6.28881 13.1727 5.15244 12.8552 4.43579 14.1528V13.4625C5.32435 12.6391 6.78086 12.9427 7.17737 14.1528Z" fill="#019EEC" stroke="#019EEC" stroke-width="0.0511233"/>
<path d="M3.6875 16.301L3.68303 16.0665L3.65133 13.7478L3.64686 13.2879L3.62856 12.0046L2.3886 10.2976H1.61792V9.83771H2.9704L4.43585 12.0046V13.4629V14.1532V17.3873H4.94085V17.691H3.28162V17.3873H3.58837H3.70089L3.6875 16.3059C3.6875 16.3059 3.6875 16.3054 3.6875 16.301Z" fill="#019EEC" stroke="#019EEC" stroke-width="0.0511233"/>
<path d="M3.68748 16.301C3.68748 16.3054 3.68748 16.3054 3.68748 16.3054C3.48431 16.7198 3.00208 16.9176 2.55557 16.8899C1.28391 16.8162 0.810609 15.3673 1.06735 14.2863C1.36517 13.0209 2.6096 12.6762 3.62854 13.2879H3.64684L3.65131 13.7478H3.61112C2.38009 12.6436 1.81213 13.8492 1.91572 15.128C1.98315 15.9701 2.9619 17.2351 3.66515 16.067H3.68346L3.68748 16.301Z" fill="#019EEC" stroke="#019EEC" stroke-width="0.0511233"/>
<path d="M26.2609 17.6888V17.3481L26.5676 17.3664L26.6801 17.3298L26.6667 16.2483V16.2438L26.6623 16.0094L26.6306 13.6911L26.6261 13.2308L26.6078 12.039L26.1032 10.3878H25.4674V10.0195H26.6846L27.4151 12.039V17.3847H27.9201V17.6888H26.2609Z" fill="#019EEC" stroke="#019EEC" stroke-width="0.00148903"/>
<path d="M26.6667 16.2438V16.2483C26.4595 16.6627 25.8371 16.8605 25.3276 16.8328C23.8671 16.7596 23.3259 15.3102 23.6188 14.2292C23.9617 12.9642 25.5893 12.6191 26.6082 13.2312H26.6265L26.631 13.6911H26.5903C25.3593 12.5865 24.4757 13.7925 24.5926 15.0713C24.498 16.3729 25.9411 17.1784 26.6444 16.0099H26.6627L26.6667 16.2438Z" fill="#019EEC" stroke="#019EEC" stroke-width="0.0511233"/>
<path d="M23.9902 10.5052H25.2164L27.0698 12.2949V12.3547H26.2804L24.635 10.8732H23.9902V10.5052Z" fill="#019EEC" stroke="#019EEC" stroke-width="0.00148903"/>
<path d="M17.6786 14.3412H17.061C18.0076 13.863 17.4441 12.7637 17.2008 12.1975H17.9264C18.3367 12.5516 18.6073 12.874 18.5439 13.4397C18.4899 13.9595 18.2148 14.4703 17.6786 14.4194V14.3412Z" fill="#019EEC" stroke="#019EEC" stroke-width="0.0511233"/>
<path d="M18.1117 16.0893V17.2163C18.0304 17.2811 17.9536 17.3221 17.8683 17.373C17.003 17.8472 15.4697 17.6168 15.3884 16.3751V14.3412H16.3265V16.7796C16.3895 17.6856 18.0577 17.6075 18.0577 16.0893H18.1117Z" fill="#019EEC" stroke="#019EEC" stroke-width="0.0511233"/>
<path d="M14.7883 14.3412H15.3884H16.3261H17.0611H17.6786H17.7554" stroke="#019EEC" stroke-width="0.182176" stroke-linejoin="round"/>
<path d="M1.44653 12.1975H17.2008H17.9268H21.1006" stroke="#019EEC" stroke-width="0.470533" stroke-linejoin="round"/>
<path d="M23.9913 12.1792H26.2453H27.0347H34.8121" stroke="#019EEC" stroke-width="0.470533" stroke-linejoin="round"/>
<path d="M28.147 11.6704C28.4019 11.6704 28.6085 11.4777 28.6085 11.2399C28.6085 11.0022 28.4019 10.8095 28.147 10.8095C27.8922 10.8095 27.6855 11.0022 27.6855 11.2399C27.6855 11.4777 27.8922 11.6704 28.147 11.6704Z" fill="#019EEC" stroke="#019EEC" stroke-width="0.0511233"/>
<path d="M24.2904 13.7532L26.9235 15.7759" stroke="#019EEC" stroke-width="0.460606" stroke-miterlimit="10"/>
</svg>
