<svg width="270" height="70" viewBox="0 0 270 70" fill="none" xmlns="http://www.w3.org/2000/svg">
<g clip-path="url(#clip0_4_973)">
<path fill-rule="evenodd" clip-rule="evenodd" d="M106.953 47.0129C106.683 47.9128 106.288 48.7706 105.781 49.5614C105.422 50.1399 104.9 50.5984 104.279 50.8785C103.651 51.1274 102.979 51.2483 102.304 51.2341C101.332 51.2678 100.372 51.0187 99.5401 50.5172C98.7078 50.0157 98.039 49.2833 97.6149 48.409C97.0944 47.3614 96.739 46.2396 96.5612 45.0834C96.3201 43.3999 96.2122 41.7 96.2386 39.9995C96.2386 35.8683 96.739 32.85 97.74 30.9446C98.1521 30.0581 98.8171 29.3132 99.6514 28.8035C100.486 28.2938 101.452 28.0421 102.429 28.08C103.036 28.0652 103.641 28.1497 104.22 28.3302C104.742 28.5205 105.2 28.8564 105.537 29.2983C105.99 29.9004 106.352 30.5661 106.611 31.2739C107.058 32.3857 107.44 33.5225 107.756 34.6785C107.81 34.7791 107.846 34.8883 107.862 35.0012C107.921 35.1399 107.969 35.283 108.007 35.4292H108.869V28.7254C107.033 27.7856 105.005 27.283 102.942 27.2568C101.393 27.2345 99.8553 27.5397 98.4315 28.1524C97.1088 28.7149 95.9328 29.5732 94.9939 30.6615C94.0021 31.8202 93.248 33.1627 92.7746 34.6127C92.2547 36.2925 92.0013 38.0436 92.0239 39.8019C92.0008 41.5129 92.2543 43.2163 92.7746 44.8463C93.2534 46.2611 93.9952 47.5726 94.961 48.7119C95.914 49.7576 97.0703 50.5979 98.359 51.1814C99.7755 51.769 101.297 52.0603 102.831 52.0375C104.95 52.0257 107.04 51.5491 108.955 50.6415V42.8641H108.02C107.642 44.5324 107.287 45.9154 106.953 47.0129ZM124.404 39.3212C124.404 37.4597 123.904 36.0636 122.903 35.1329C121.902 34.2022 120.457 33.7258 118.57 33.7039C116.583 33.6923 114.625 34.1839 112.88 35.1329V40.6053H113.808C114.072 39.7756 114.315 39.0446 114.526 38.4256C114.737 37.8066 115 37.2073 115.244 36.7068C115.497 36.032 115.914 35.4302 116.456 34.9551C117.033 34.6325 117.692 34.4839 118.352 34.5271C120.407 34.5271 121.434 35.798 121.434 38.3532V40.8556C120.98 41.0466 120.571 41.2178 120.216 41.3561C119.86 41.4944 119.557 41.6327 119.215 41.7512C118.872 41.8698 118.556 41.9422 118.141 42.041L116.824 42.2912C115.977 42.456 115.141 42.676 114.322 42.9497C113.795 43.1508 113.3 43.4282 112.853 43.7729C112.322 44.1874 111.903 44.7286 111.635 45.3468C111.357 45.9687 111.212 46.6414 111.207 47.3224C111.179 47.9501 111.282 48.5768 111.509 49.1628C111.735 49.7488 112.081 50.2815 112.524 50.727C113.485 51.6172 114.758 52.0908 116.067 52.0441C117.231 52.1168 118.386 51.8013 119.351 51.1471C120.317 50.4928 121.038 49.5368 121.401 48.4288V51.5832H126.051V50.76H124.371L124.404 39.3212ZM121.434 44.0758C121.52 45.8143 121.109 47.5412 120.249 49.0544C119.929 49.6144 119.466 50.0789 118.907 50.3996C118.348 50.7203 117.713 50.8857 117.068 50.8785C115.395 50.8785 114.559 49.6624 114.559 47.2302C114.479 46.2638 114.71 45.297 115.218 44.471C115.859 43.7669 116.712 43.2908 117.648 43.1144L118.899 42.7588C119.235 42.66 119.557 42.5612 119.794 42.469C120.031 42.3768 120.348 42.278 120.585 42.1858C120.865 42.0796 121.14 41.9587 121.408 41.8236L121.434 44.0758ZM141.961 37.7078C141.998 37.164 141.915 36.6187 141.717 36.1109C141.519 35.6031 141.211 35.1454 140.815 34.7707C139.851 34.0143 138.639 33.6456 137.417 33.7368C136.437 33.6933 135.469 33.9682 134.658 34.5205C133.833 35.2028 133.204 36.0911 132.833 37.0954V34.1978H128.171V35.021H129.857V50.8258H128.171V51.649H134.967V50.8258H132.82V40.6053C132.752 39.1502 133.114 37.7073 133.861 36.4566C134.141 35.9759 134.543 35.5775 135.026 35.3013C135.51 35.025 136.057 34.8807 136.613 34.8827C136.948 34.8642 137.282 34.9257 137.587 35.062C137.893 35.1983 138.162 35.4054 138.372 35.6663C138.817 36.317 139.031 37.0988 138.978 37.8856V50.7732H136.798V51.5963H143.594V50.7732H141.948L141.961 37.7078ZM158.556 39.3541C158.556 37.4927 158.055 36.0966 157.054 35.1658C156.053 34.2351 154.609 33.7588 152.721 33.7368C150.734 33.7252 148.777 34.2168 147.031 35.1658V40.6383H147.96C148.223 39.8085 148.461 39.0776 148.678 38.4585C148.895 37.8395 149.152 37.2402 149.396 36.7397C149.649 36.0649 150.065 35.4631 150.607 34.988C151.187 34.6646 151.848 34.5159 152.511 34.56C154.559 34.56 155.586 35.831 155.586 38.3861V40.8885C155.131 41.0795 154.723 41.2507 154.368 41.389C154.012 41.5273 153.709 41.6656 153.367 41.7841C153.024 41.9027 152.708 41.9751 152.293 42.0739L150.976 42.3241C150.128 42.488 149.292 42.708 148.474 42.9827C147.947 43.1838 147.452 43.4611 147.005 43.8058C146.474 44.2204 146.055 44.7615 145.787 45.3797C145.509 46.0016 145.363 46.6743 145.359 47.3553C145.331 47.9831 145.434 48.6097 145.66 49.1957C145.887 49.7818 146.233 50.3144 146.676 50.76C147.636 51.6502 148.91 52.1237 150.219 52.0771C151.383 52.1498 152.538 51.8343 153.503 51.18C154.468 50.5258 155.189 49.5697 155.553 48.4617V51.6161H160.202V50.7929H158.523L158.556 39.3541ZM155.586 44.1088C155.672 45.8472 155.261 47.5741 154.401 49.0873C154.077 49.6412 153.612 50.0991 153.053 50.4138C152.494 50.7286 151.861 50.889 151.22 50.8785C149.547 50.8785 148.711 49.6624 148.711 47.2302C148.631 46.2638 148.861 45.297 149.369 44.471C150.011 43.7669 150.863 43.2908 151.799 43.1144L153.051 42.7588C153.386 42.66 153.709 42.5612 153.946 42.469C154.183 42.3768 154.499 42.278 154.736 42.1858C155.017 42.0796 155.292 41.9587 155.56 41.8236L155.586 44.1088ZM171.318 33.7368C170.429 33.7056 169.557 33.9825 168.849 34.5205C168.048 35.2331 167.412 36.1118 166.985 37.0954V34.1978H162.336V35.021H164.015V50.8258H162.336V51.649H169.58V50.8258H167.216V42.4295C167.216 41.6919 167.216 41.0466 167.255 40.5C167.295 39.9534 167.36 39.4661 167.433 39.0315C167.495 38.6185 167.59 38.2111 167.716 37.8132C167.84 37.4481 167.983 37.0898 168.144 36.7397C168.37 36.2764 168.688 35.8641 169.079 35.528C169.334 35.2301 169.691 35.0376 170.08 34.988C170.203 34.9852 170.324 35.01 170.436 35.0605C170.493 35.0815 170.545 35.1149 170.589 35.1581C170.632 35.2013 170.665 35.2534 170.686 35.3107C170.809 35.4755 170.906 35.6574 170.976 35.8507C171.123 36.1639 171.253 36.4849 171.364 36.8122C171.624 37.4297 171.844 38.0632 172.023 38.7088C172.214 39.3673 172.405 40.0588 172.596 40.8951H173.564V34.3427C173.216 34.1338 172.844 33.9658 172.458 33.8422C172.086 33.744 171.703 33.6975 171.318 33.7039V33.7368ZM188.098 39.3212C188.098 37.4597 187.597 36.0636 186.596 35.1329C185.595 34.2022 184.151 33.7258 182.263 33.7039C180.276 33.6923 178.319 34.1839 176.573 35.1329V40.6053H177.502C177.765 39.7756 178.009 39.0446 178.22 38.4256C178.43 37.8066 178.694 37.2073 178.931 36.7068C179.188 36.0306 179.609 35.4287 180.156 34.9551C180.731 34.6316 181.388 34.4829 182.046 34.5271C184.1 34.5271 185.128 35.798 185.128 38.3532V40.8556C184.673 41.0466 184.265 41.2178 183.91 41.3561C183.554 41.4944 183.251 41.6327 182.909 41.7512C182.566 41.8698 182.217 41.9422 181.835 42.041L180.518 42.2912C179.67 42.456 178.835 42.676 178.016 42.9497C177.489 43.1523 176.995 43.4295 176.547 43.7729C176.018 44.1894 175.599 44.73 175.329 45.3468C175.051 45.9687 174.905 46.6414 174.901 47.3224C174.873 47.9501 174.976 48.5768 175.202 49.1628C175.429 49.7488 175.775 50.2815 176.218 50.727C177.178 51.6172 178.452 52.0908 179.761 52.0441C180.925 52.1168 182.08 51.8013 183.045 51.1471C184.01 50.4928 184.731 49.5368 185.095 48.4288V51.5832H189.744V50.76H188.098V39.3212ZM185.128 44.0758C185.212 45.8133 184.804 47.5393 183.949 49.0544C183.628 49.6145 183.163 50.0788 182.603 50.3994C182.043 50.7201 181.407 50.8855 180.762 50.8785C179.089 50.8785 178.253 49.6624 178.253 47.2302C178.177 46.2641 178.407 45.2986 178.911 44.471C179.555 43.7672 180.41 43.2912 181.348 43.1144L182.599 42.7588C182.935 42.66 183.258 42.5612 183.495 42.469C183.732 42.3768 184.048 42.278 184.285 42.1858C184.566 42.0808 184.841 41.9599 185.108 41.8236L185.128 44.0758ZM215.341 40.0719C214.737 39.7319 214.087 39.4792 213.412 39.3212C212.494 39.1201 211.559 39.0011 210.62 38.9656C212.23 38.7909 213.743 38.1135 214.946 37.0295C215.451 36.5443 215.848 35.9593 216.113 35.3119C216.379 34.6644 216.506 33.9687 216.487 33.2692C216.491 32.4319 216.282 31.6073 215.881 30.8722C215.452 30.113 214.853 29.4638 214.13 28.9756C213.448 28.5077 212.68 28.1787 211.871 28.0075C210.762 27.7984 209.634 27.7035 208.506 27.7244H200.09V28.5475H202.237V50.7732H200.09V51.5963H207.749C208.982 51.6041 210.215 51.5205 211.436 51.3461C212.399 51.1938 213.337 50.9171 214.229 50.5229C215.365 50.0208 216.342 49.2168 217.054 48.1983C217.733 47.2079 218.096 46.0344 218.094 44.8332C218.086 43.8684 217.828 42.9223 217.344 42.0876C216.861 41.2529 216.168 40.5583 215.335 40.0719H215.341ZM205.826 28.5475H208.401C209.902 28.5475 210.986 28.9536 211.654 29.7658C212.312 30.5495 212.694 31.8073 212.694 33.5261C212.694 35.3568 212.255 36.6739 211.377 37.4773C210.499 38.2807 209.105 38.6802 207.195 38.6758H205.839L205.826 28.5475ZM212.694 49.4495C211.72 50.3275 210.062 50.7666 207.722 50.7666H205.826V39.499H208.46C209.349 39.4795 210.236 39.5882 211.094 39.8217C211.747 39.9789 212.349 40.2983 212.846 40.7502C213.334 41.2023 213.681 41.7853 213.847 42.4295C214.08 43.2449 214.188 44.0907 214.169 44.9385C214.182 47.0415 213.689 48.5451 212.688 49.4495H212.694ZM233.26 39.3212C233.26 37.4597 232.76 36.0636 231.759 35.1329C230.758 34.2022 229.313 33.7258 227.426 33.7039C225.439 33.6923 223.481 34.1839 221.736 35.1329V40.6053H222.664C222.928 39.7756 223.171 39.0446 223.382 38.4256C223.593 37.8066 223.856 37.2073 224.1 36.7068C224.355 36.0313 224.774 35.4295 225.318 34.9551C225.893 34.6316 226.55 34.4829 227.208 34.5271C229.263 34.5271 230.29 35.798 230.29 38.3532V40.8556C229.836 41.0466 229.428 41.2178 229.072 41.3561C228.716 41.4944 228.413 41.6327 228.071 41.7512C227.729 41.8698 227.38 41.9422 226.998 42.041L225.68 42.2912C224.833 42.456 223.997 42.676 223.178 42.9497C222.651 43.1508 222.156 43.4282 221.71 43.7729C221.178 44.1874 220.759 44.7286 220.491 45.3468C220.214 45.9687 220.068 46.6414 220.063 47.3224C220.035 47.9501 220.138 48.5768 220.365 49.1628C220.591 49.7488 220.937 50.2815 221.38 50.727C222.341 51.6172 223.615 52.0908 224.923 52.0441C226.087 52.1168 227.242 51.8013 228.207 51.1471C229.173 50.4928 229.894 49.5368 230.257 48.4288V51.5832H234.907V50.76H233.227L233.26 39.3212ZM230.29 44.0758C230.375 45.8133 229.966 47.5393 229.111 49.0544C228.791 49.6145 228.326 50.0788 227.766 50.3994C227.205 50.7201 226.57 50.8855 225.924 50.8785C224.251 50.8785 223.415 49.6624 223.415 47.2302C223.335 46.2638 223.566 45.297 224.074 44.471C224.715 43.7669 225.568 43.2908 226.504 43.1144L227.755 42.7588C228.091 42.66 228.413 42.5612 228.651 42.469C228.888 42.3768 229.204 42.278 229.441 42.1858C229.721 42.0796 229.996 41.9587 230.264 41.8236L230.29 44.0758ZM250.81 37.7078C250.848 37.164 250.764 36.6187 250.566 36.1109C250.368 35.6031 250.06 35.1454 249.664 34.7707C248.7 34.0143 247.488 33.6456 246.266 33.7368C245.288 33.6923 244.322 33.9674 243.514 34.5205C242.685 35.2004 242.053 36.0894 241.683 37.0954V34.1978H237.034V35.021H238.72V50.8258H237.034V51.649H243.83V50.8258H241.683V40.6053C241.615 39.1502 241.977 37.7073 242.723 36.4566C243.004 35.9759 243.406 35.5775 243.889 35.3013C244.372 35.025 244.92 34.8807 245.476 34.8827C245.81 34.8642 246.144 34.9257 246.45 35.062C246.756 35.1983 247.025 35.4054 247.234 35.6663C247.68 36.317 247.893 37.0988 247.84 37.8856V50.7732H245.66V51.5963H252.457V50.7732H250.81V37.7078ZM259.029 27.7573H254.38V28.5805H256.059V50.8061H254.38V51.6293H261.195V50.8061H259.042L259.029 27.7573ZM268.551 50.8061L261.571 40.928L266.582 35.0012H268.196V34.178H263.29V35.0012H265.436L259.174 42.4098L265.436 51.6293H269.908V50.8061H268.551Z" fill="#00AEEF"/>
<path fill-rule="evenodd" clip-rule="evenodd" d="M58.2278 2.50905L83.8778 49.7788C86.9663 54.8759 83.7593 60.1046 77.9049 59.1827C76.0544 58.8929 64.1546 57.2664 49.1071 55.2315L53.4007 49.4364L73.7759 51.6688C75.4617 51.8664 76.2454 51.379 75.2773 49.5549C75.2773 49.5549 56.0941 10.9186 55.9098 10.4773C55.2512 9.27222 54.5466 9.66075 53.9341 10.7342L34.8366 45.393C34.1319 46.71 34.4151 47.3686 36.4171 47.5925L43.8783 48.4222L39.611 53.6905L29.9437 52.1627C27.5268 51.8598 26.7432 50.3254 28.0668 47.8361C29.0612 45.9527 51.5634 4.89953 51.5634 4.89953C52.0112 4.10929 52.3866 3.51661 52.8805 2.70002C54.1844 0.335876 56.6144 -0.28973 58.2278 2.50905Z" fill="#00AEEF"/>
<path fill-rule="evenodd" clip-rule="evenodd" d="M2.58803 38.7746L36.2524 32.8478L33.3746 38.07L10.1414 41.9751C8.95608 42.2319 9.06803 42.7653 9.81218 43.2593C9.81218 43.2593 30.0819 57.2729 32.0444 58.5637C33.6315 59.6305 34.4678 60.0651 35.798 58.3661C35.798 58.3661 52.2615 38.1754 53.1241 36.8122C54.3754 35.1263 54.9417 34.4546 52.9266 34.8366L41.4944 36.7463L44.4249 31.478L59.7556 28.6924C63.2524 28.0997 64.6354 30.5363 62.9232 33.1112C61.4546 35.2119 37.1678 67.9083 37.1678 67.9083C35.5939 70.2066 34.4151 70.1144 32.558 68.4878L1.55414 42.8049C-0.329272 41.1717 0.269981 39.2093 2.58803 38.7746Z" fill="#FFD400"/>
</g>
<defs>
<clipPath id="clip0_4_973">
<rect width="270" height="69.8049" fill="white"/>
</clipPath>
</defs>
</svg>
