<svg width="95" height="24" viewBox="0 0 95 24" fill="none" xmlns="http://www.w3.org/2000/svg">
<path fill-rule="evenodd" clip-rule="evenodd" d="M23.8214 1.90735e-06H94.1527V24H23.8214V1.90735e-06Z" fill="white"/>
<path fill-rule="evenodd" clip-rule="evenodd" d="M0 24H23.8215V9.53674e-06H0V24Z" fill="#176FC1"/>
<path fill-rule="evenodd" clip-rule="evenodd" d="M24.4357 24H94.1527V0.0480099H24.4357V24Z" fill="#176FC1"/>
<path fill-rule="evenodd" clip-rule="evenodd" d="M88.2836 17.2683L88.2793 17.3421L88.2663 17.4189L88.2533 17.4904L88.2273 17.5637L88.2057 17.6335L88.1754 17.7034L88.1364 17.7649L88.1017 17.8295L88.0541 17.8853L88.0064 17.9407L87.9545 17.987L87.8938 18.0306L87.8678 18.0533L87.8332 18.0716L87.8029 18.083L87.7769 18.0987L87.7379 18.1052L87.7076 18.1223L87.6686 18.1262L87.6339 18.1349L87.6253 18.1375L87.5646 18.1467L87.4867 18.1489H87.452L87.3784 18.1428L87.3481 18.1349L87.3177 18.1262L87.2874 18.1223L87.2571 18.1105L87.2311 18.0987L87.2008 18.083L87.1748 18.0716L87.1531 18.0533L87.1315 18.0306L87.1055 18.0101L87.0882 17.987L87.0752 17.9634L87.0535 17.9407L87.0232 17.8862L86.9972 17.8295L86.9756 17.7649L86.9669 17.7034L86.9626 17.637V17.5681L86.9669 17.4926L86.9756 17.4189L86.9972 17.3425L87.0102 17.2683L87.0405 17.2029L87.0752 17.14L87.1055 17.0741L87.1488 17.0087L87.1965 16.9594L87.2441 16.9013L87.2961 16.8464L87.3524 16.8027L87.3827 16.7874L87.413 16.7652L87.4477 16.7495L87.478 16.7325L87.5083 16.7224L87.5473 16.7093L87.5776 16.6962L87.6166 16.6884H87.6253L87.6859 16.6788L87.7639 16.6757H87.7985H87.8332L87.8722 16.6823L87.9025 16.6853L87.9371 16.6932L87.9588 16.7028L87.9934 16.7185L88.0194 16.729L88.0498 16.7403L88.0757 16.7617L88.1017 16.777L88.1191 16.7997L88.145 16.8224L88.1624 16.8402L88.1797 16.8712L88.197 16.8952L88.2273 16.9472L88.2533 17.0074L88.2663 17.0693L88.2793 17.1361L88.2836 17.2029V17.2683ZM88.5392 15.7786L88.4829 16.1011L88.4526 16.0561L88.4223 16.0086L88.3919 15.9723L88.3573 15.93L88.314 15.899L88.2793 15.8624L88.236 15.8349L88.184 15.8078L88.1364 15.7834L88.0931 15.7563L88.0454 15.7411L87.9934 15.7192L87.9458 15.7062L87.8938 15.6952L87.8418 15.687L87.7855 15.68L87.7639 15.6769H87.5993L87.5257 15.6822L87.4477 15.6952L87.3741 15.7062L87.2961 15.7245L87.2311 15.748L87.1531 15.7755L87.0838 15.8078L87.0102 15.8366L86.9496 15.8742L86.8759 15.9235L86.8153 15.9658L86.746 16.016L86.6854 16.071L86.6204 16.132L86.5641 16.1936L86.4948 16.2568L86.4471 16.3245L86.3908 16.3965L86.3388 16.4654L86.2912 16.5374L86.2435 16.6103L86.1959 16.6823L86.1613 16.7556L86.1223 16.8363L86.092 16.9114L86.0573 16.9904L86.0227 17.0741L86.0053 17.1544L85.9793 17.2434L85.9533 17.3242L85.9404 17.4149L85.9274 17.4952L85.9144 17.5834L85.9057 17.6671L85.9014 17.7505V17.8295L85.9057 17.9106V17.987L85.923 18.062L85.9317 18.1428L85.9533 18.2165L85.9663 18.285L85.9923 18.3609L86.0227 18.4338L86.0443 18.4962L86.079 18.5638L86.1179 18.6302L86.1526 18.6943L86.1959 18.7502L86.2435 18.8047L86.2912 18.8575L86.3388 18.9025L86.3908 18.9487L86.4471 18.9832L86.5034 19.0212L86.5641 19.0482L86.6247 19.0757L86.6854 19.0962L86.7547 19.118L86.8196 19.1289L86.9019 19.1377L86.9756 19.1433L87.0535 19.1512H87.0968L87.1185 19.1433L87.1402 19.1429L87.1965 19.1377L87.2571 19.1289L87.3134 19.118L87.3654 19.1027L87.426 19.0892L87.4867 19.0718L87.5473 19.0425L87.5993 19.0164L87.6253 19.0041L87.6556 18.9854L87.7119 18.9513L87.7639 18.9169L87.8115 18.8758L87.8592 18.8353L87.9068 18.7877L87.9545 18.731L87.9891 18.6777H88.0064L87.9371 19.0412H88.942L89.5441 15.7786H88.5392ZM85.9533 14.8334L85.9837 14.7758L86.014 14.7196L86.04 14.6593L86.0573 14.5935L86.0746 14.5297L86.079 14.4656L86.0833 14.4036V14.3391L86.079 14.281L86.066 14.2273L86.0443 14.1697L86.0227 14.1196L85.9923 14.0738L85.9533 14.0258L85.923 13.9887L85.8797 13.9524L85.8364 13.9289L85.7888 13.9023L85.7411 13.8887L85.6891 13.8787L85.6328 13.8756H85.5765L85.5159 13.8866L85.4596 13.9005L85.4076 13.921L85.3556 13.9516L85.2993 13.983L85.2473 14.0214L85.1954 14.0672L85.1477 14.117L85.1087 14.1636L85.0654 14.2247L85.0394 14.2801L85.0048 14.3391L84.9831 14.4015L84.9571 14.4621L84.9485 14.5297L84.9398 14.5935L84.9355 14.6593V14.7196L84.9441 14.7758L84.9528 14.8334L84.9744 14.8858L84.9961 14.9377L85.0308 14.9892L85.0654 15.0337L85.0957 15.0721L85.1434 15.107L85.1824 15.131L85.2343 15.1563L85.282 15.169L85.3296 15.1747L85.3946 15.1755L85.4509 15.1747L85.5029 15.169L85.5592 15.1563L85.6112 15.131L85.6675 15.107L85.7238 15.0721L85.7714 15.0337L85.8191 14.9892L85.871 14.9377L85.9144 14.8858L85.9533 14.8334ZM84.1775 19.0412L84.7752 15.7786H85.7888L85.1824 19.0412H84.1775ZM82.891 17.2683L82.8867 17.3421L82.8781 17.4189L82.8564 17.4904L82.8347 17.5637L82.8131 17.6335L82.7828 17.7034L82.7438 17.7649L82.7005 17.8295L82.6615 17.8853L82.6138 17.9407L82.5532 17.987L82.5012 18.0306L82.4666 18.0533L82.4449 18.0716L82.4103 18.083L82.3756 18.0987L82.3453 18.1052L82.3106 18.1223L82.2803 18.1262L82.2413 18.1349L82.2283 18.1375L82.172 18.1467L82.0941 18.1489H82.0551L82.0248 18.1467L81.9944 18.1428L81.9511 18.1349L81.9165 18.1262L81.8905 18.1223L81.8558 18.1105L81.8342 18.0987L81.8039 18.083L81.7822 18.0716L81.7562 18.0533L81.7389 18.0306L81.7129 18.0101L81.6912 17.987L81.6782 17.9634L81.6609 17.9407L81.6306 17.8862L81.6003 17.8295L81.583 17.7649L81.57 17.7034L81.5613 17.637V17.5681L81.57 17.4926L81.583 17.4189L81.6003 17.3425L81.6176 17.2683L81.6479 17.2029L81.6782 17.14L81.7129 17.0741L81.7519 17.0087L81.7995 16.9594L81.8472 16.9013L81.9035 16.8464L81.9641 16.8027L81.9944 16.7874L82.0248 16.7652L82.0508 16.7495L82.0811 16.7325L82.1157 16.7224L82.1504 16.7093L82.1894 16.6962L82.2153 16.6884H82.2283L82.289 16.6788L82.3669 16.6757H82.4016H82.4406L82.4752 16.6823L82.5099 16.6853L82.5402 16.6932L82.5748 16.7028L82.6052 16.7185L82.6312 16.729L82.6571 16.7403L82.6831 16.7617L82.7005 16.777L82.7264 16.7997L82.7438 16.8224L82.7698 16.8402L82.7871 16.8712L82.8001 16.8952L82.8304 16.9472L82.8564 17.0074L82.8737 17.0693L82.8824 17.1361L82.891 17.2029V17.2683ZM83.5148 13.76L83.086 16.1011L83.06 16.0561L83.0296 16.0086L82.9993 15.9723L82.9603 15.93L82.8824 15.8624L82.8391 15.8349L82.7914 15.8078L82.7438 15.7834L82.7005 15.7563L82.6485 15.7411L82.6008 15.7192L82.5489 15.7062L82.4449 15.687L82.3973 15.68L82.3713 15.6769H82.211L82.133 15.6822L82.0508 15.6952L81.9814 15.7062L81.9035 15.7245L81.8298 15.748L81.7605 15.7755L81.6912 15.8078L81.6176 15.8366L81.5526 15.8742L81.4833 15.9235L81.414 15.9658L81.3577 16.016L81.2884 16.071L81.2278 16.132L81.1628 16.1936L81.1065 16.2568L81.0459 16.3245L80.9982 16.3965L80.9419 16.4654L80.8943 16.5374L80.8466 16.6103L80.8076 16.6823L80.7687 16.7556L80.7297 16.8363L80.6907 16.9114L80.6647 16.9904L80.63 17.0741L80.6084 17.1544L80.5824 17.2434L80.5607 17.3242L80.5478 17.4149L80.5304 17.4952L80.5174 17.5834L80.5131 17.6671L80.5088 17.7505V17.8295L80.5131 17.9106L80.5174 17.987L80.5218 18.062L80.5391 18.1428L80.5564 18.2165L80.5737 18.285L80.5997 18.3609L80.6214 18.4338L80.6517 18.4962L80.682 18.5638L80.721 18.6302L80.7643 18.6943L80.8076 18.7502L80.8466 18.8047L80.8943 18.8575L80.9462 18.9025L80.9982 18.9487L81.0502 18.9832L81.1065 19.0212L81.1671 19.0482L81.2278 19.0757L81.2971 19.0962L81.3621 19.118L81.4314 19.1289L81.505 19.1377L81.583 19.1433L81.6523 19.1512H81.7042L81.7216 19.1433L81.7432 19.1429L81.8039 19.1377L81.8558 19.1289L81.9165 19.118L81.9771 19.1027L82.0334 19.0892L82.0897 19.0718L82.146 19.0425L82.211 19.0164L82.2283 19.0041L82.2673 18.9854L82.315 18.9513L82.3713 18.9169L82.4146 18.8758L82.4666 18.8353L82.5099 18.7877L82.5532 18.731L82.6008 18.6777H82.6138L82.5445 19.0412H83.5537L84.524 13.76H83.5148ZM80.1536 16.4213L80.1579 16.4829L80.1623 16.5427V16.6757L80.1579 16.7403L80.1449 16.8852L80.1363 16.9594L80.1233 17.0322L79.7508 19.0412H78.7459L79.0361 17.4481V17.4324L79.0448 17.4189V17.3988L79.0491 17.3809L79.0577 17.3521L79.0621 17.322L79.0664 17.2914L79.0751 17.2565L79.0794 17.2238V17.1981L79.0881 17.1309L79.0967 17.082V16.9419L79.0881 16.8987L79.0794 16.852L79.0707 16.8088L79.0577 16.7656L79.0491 16.7469L79.0448 16.7229L79.0318 16.7093L79.0188 16.6932L79.0014 16.6757L78.9884 16.6596L78.9668 16.6548L78.9451 16.6408L78.9061 16.6199L78.8585 16.6103L78.8022 16.6011H78.7026L78.6333 16.6064L78.5943 16.6138L78.5683 16.6199L78.5336 16.6317L78.5033 16.6408L78.4773 16.657L78.447 16.667L78.4254 16.6853L78.3994 16.7028L78.3691 16.7229L78.3517 16.7469L78.3257 16.7717L78.3041 16.7953L78.2868 16.8232L78.2521 16.8804L78.2175 16.9419L78.1871 17.0017L78.1568 17.0693L78.1308 17.1361L78.1092 17.2029L78.0962 17.2801L78.0832 17.3521L77.7713 19.0412H76.7621L77.3598 15.7786H78.3691L78.2868 16.1936H78.2997L78.3604 16.1237L78.421 16.0644L78.4773 16.0011L78.5336 15.9501L78.5943 15.9021L78.6549 15.858L78.7112 15.8192L78.7719 15.7873L78.8325 15.7629L78.8932 15.7411L78.9581 15.7192L79.0231 15.7053L79.0924 15.6918L79.1574 15.6822L79.231 15.6769H79.3739L79.4389 15.68L79.5082 15.687L79.5689 15.6952L79.6208 15.7105L79.6815 15.7288L79.7291 15.748L79.7811 15.7651L79.8201 15.796L79.8634 15.8192L79.9024 15.8536L79.976 15.9235L80.0063 15.9649L80.028 16.0064L80.0496 16.05L80.0756 16.0989L80.093 16.1451L80.1103 16.1992L80.1276 16.2507L80.1363 16.3053L80.1493 16.3642L80.1536 16.4213ZM75.8828 14.2444L74.9906 19.0412H76.0777L76.957 14.2444H75.8828ZM73.6088 13.7604L73.5612 13.7417L73.5135 13.729L73.4572 13.7168L73.4096 13.7068L73.3533 13.7033H73.2233L73.1497 13.7138L73.0804 13.7216L73.0111 13.7321L72.9375 13.76L72.8725 13.7779L72.7945 13.8023L72.7252 13.8351L72.6559 13.8722L72.591 13.9101L72.5217 13.9524L72.4567 13.9961L72.396 14.0493L72.3311 14.1012L72.2704 14.1628L72.2141 14.2247L72.1838 14.2496L72.1578 14.2801L72.1362 14.3107L72.1145 14.3343L72.0928 14.3639L72.0712 14.3919L72.0495 14.422L72.0322 14.4451L71.9932 14.5023L71.9629 14.552L71.9326 14.6052L71.9066 14.6624L71.8806 14.7191L71.8633 14.7715L71.8416 14.8234L71.8243 14.8784L71.794 14.9918L71.7637 15.1105L71.7377 15.2345L71.716 15.3623L71.638 15.7786H71.2872L71.1096 16.7325H71.4605L71.0316 19.0412H72.0409L72.4697 16.7325H73.167L73.3446 15.7786H72.6473L72.7382 15.2558L72.7555 15.1869L72.7642 15.1271L72.7815 15.0656L72.8032 15.0102L72.8248 14.9652L72.8465 14.919L72.8725 14.8745L72.8898 14.8391L72.9201 14.8051L72.9461 14.7841L72.9808 14.7584L73.0154 14.744L73.0587 14.7252L73.0934 14.7191L73.141 14.7091L73.1887 14.7065H73.219L73.2537 14.7091L73.284 14.7196L73.3143 14.7252L73.3446 14.7305L73.3706 14.744L73.4009 14.7562L73.4312 14.7715L73.4529 14.7828L73.4789 14.7889L73.5005 14.8029L73.5222 14.8051L73.7041 13.815L73.6608 13.7932L73.6088 13.7604ZM69.7452 17.2683L69.7366 17.3421L69.7236 17.4189L69.7062 17.4904L69.6889 17.5637L69.6586 17.6335L69.6283 17.7034L69.5936 17.7649L69.5546 17.8295L69.4637 17.9407L69.4074 17.987L69.3467 18.0306L69.3207 18.0533L69.2904 18.0716L69.2601 18.083L69.2254 18.0987L69.1951 18.1052L69.1605 18.1223L69.1302 18.1262L69.0912 18.1349L69.0782 18.1375L69.0175 18.1467L68.9439 18.1489H68.9093L68.8659 18.1467L68.84 18.1428L68.8053 18.1349L68.7706 18.1262L68.7403 18.1223L68.71 18.1105L68.6797 18.0987L68.6537 18.083L68.632 18.0716L68.6061 18.0533L68.5844 18.0306L68.5627 18.0101L68.5454 17.987L68.5064 17.9407L68.4718 17.8862L68.4501 17.8295L68.4328 17.7649L68.4241 17.7034L68.4155 17.637V17.5681L68.4198 17.4926L68.4328 17.4189L68.4501 17.3425L68.4718 17.2683L68.4978 17.2029L68.5238 17.14L68.5584 17.0741L68.6017 17.0087L68.6494 16.9594L68.697 16.9013L68.7533 16.8464L68.8096 16.8027L68.84 16.7874L68.8659 16.7652L68.9006 16.7495L68.9352 16.7325L68.9656 16.7224L69.0002 16.7093L69.0305 16.6962L69.0652 16.6884H69.0782L69.1432 16.6788L69.2168 16.6757H69.2558H69.2904L69.3251 16.6823L69.3597 16.6853L69.39 16.6932L69.4204 16.7028L69.4463 16.7185L69.4767 16.729L69.5027 16.7403L69.533 16.7617L69.5546 16.777L69.5806 16.7997L69.5979 16.8224L69.6153 16.8402L69.6369 16.8712L69.6543 16.8952L69.6802 16.9472L69.7019 17.0074L69.7236 17.0693L69.7366 17.1361L69.7452 17.2029V17.2683ZM70.8194 16.845L70.8064 16.7617L70.7891 16.6788L70.7718 16.6011L70.7501 16.5252L70.7198 16.451L70.6851 16.3799L70.6548 16.3166L70.6072 16.2494L70.5595 16.1888L70.5075 16.1264L70.4556 16.0775L70.3993 16.0225L70.343 15.9723L70.2823 15.9283L70.1567 15.8536L70.0874 15.8157L70.0181 15.7873L69.9488 15.7607L69.8752 15.7367L69.8015 15.7149L69.7236 15.7L69.6499 15.687L69.5676 15.6769L69.4853 15.6743L69.3987 15.6686V15.6769H69.3121L69.2254 15.6822L69.1432 15.6918L69.0782 15.7L69.0652 15.7053L68.9786 15.7192L68.9006 15.7411L68.8183 15.7607L68.736 15.7873L68.5757 15.8536L68.5021 15.8886L68.4241 15.93L68.3505 15.9723L68.2682 16.0225L68.1946 16.0775L68.1166 16.1264L68.0473 16.1888L67.9823 16.2494L67.913 16.3166L67.8481 16.3799L67.7918 16.451L67.7354 16.5252L67.6835 16.6011L67.5838 16.7617L67.5492 16.845L67.5102 16.9393L67.4756 17.0213L67.4409 17.1178L67.4149 17.2168L67.3933 17.3111L67.3716 17.4189L67.3586 17.5218L67.3456 17.6239L67.3326 17.7169V17.809V17.901L67.3413 17.987L67.3456 18.0747L67.3629 18.158L67.3846 18.2357L67.4106 18.3125L67.4366 18.3801L67.4712 18.4508L67.5102 18.5202L67.5492 18.5826L67.5968 18.6428L67.6488 18.7004L67.7008 18.7541L67.7571 18.8047L67.8177 18.8545L67.8827 18.899L67.9434 18.9361L68.004 18.9745L68.0776 19.0041L68.1469 19.0395L68.2119 19.063L68.2855 19.0892L68.3548 19.1027L68.4328 19.1198L68.5151 19.132L68.5974 19.1429L68.6797 19.1433L68.762 19.1512L68.8486 19.1433L68.9309 19.1429L69.0132 19.132L69.0782 19.125L69.0912 19.1198L69.1778 19.1027L69.2601 19.0862L69.3381 19.063L69.4204 19.0351L69.4983 19.0041L69.5806 18.9745L69.6543 18.9361L69.8102 18.8545L69.8838 18.803L69.9661 18.7502L70.0354 18.6974L70.1784 18.5809L70.2433 18.5145L70.3083 18.4508L70.3646 18.3767L70.4209 18.3033L70.4729 18.2335L70.5205 18.1489L70.5639 18.0716L70.6072 17.9848L70.6505 17.8967L70.6808 17.809L70.7111 17.7125L70.7414 17.6239L70.7631 17.5157L70.8021 17.3111L70.8151 17.2168L70.8237 17.1178L70.8281 17.0213L70.8237 16.9393L70.8194 16.845ZM64.4739 15.7607L63.2169 16.9393L63.8025 13.7417H62.7946L61.827 19.022H62.8258L63.0748 17.6933L63.9281 19.022H65.3358L64.1534 17.2626L65.8513 15.7607H64.4739ZM61.5619 16.4043L61.5563 16.3472L61.5502 16.2869L61.5368 16.2337L61.5216 16.1805L61.5047 16.1264L61.4878 16.0806L61.4657 16.0347L61.4436 15.9867L61.4159 15.9453L61.386 15.9043L61.3522 15.8702L61.3167 15.8349L61.2812 15.8017L61.2362 15.7786L61.1907 15.748L61.1409 15.7288L61.0867 15.7105L61.0335 15.6952L60.9793 15.68L60.9156 15.6686L60.8541 15.663L60.7853 15.656H60.6432L60.5739 15.6634L60.5029 15.6743L60.4388 15.687L60.3716 15.7L60.3075 15.7192L60.1832 15.7707L60.1221 15.8017L60.0628 15.8406L60.0056 15.8829L59.9454 15.93L59.8887 15.9837L59.8293 16.0452L59.7713 16.108L59.7171 16.1752H59.6994L59.783 15.7607H58.7746L58.1756 19.022H59.1805L59.4902 17.3333L59.5045 17.2626L59.5257 17.188L59.5426 17.1178L59.5725 17.0501L59.5985 16.9856L59.6292 16.9258L59.6587 16.8638L59.6994 16.8045L59.7171 16.777L59.7592 16.729L59.783 16.7093L59.8085 16.6853L59.8328 16.667L59.8566 16.6548L59.8887 16.6373L59.919 16.6225L59.9454 16.6138L59.9775 16.6011L60.0095 16.595L60.0429 16.5867L60.0784 16.5854L60.1187 16.5837H60.217L60.2694 16.5898L60.3192 16.6011L60.3634 16.6225L60.3803 16.6347L60.3972 16.6439L60.4158 16.6596L60.4284 16.6757L60.4396 16.6884L60.453 16.7093L60.463 16.729L60.4734 16.7495L60.4816 16.7896L60.492 16.8363L60.5029 16.8804L60.5089 16.9258L60.5124 16.9698V17.0178L60.5089 17.0676L60.5029 17.1143L60.4994 17.1474L60.492 17.1819L60.4912 17.209L60.4816 17.2434L60.4799 17.2683L60.4734 17.3045L60.4691 17.3311L60.463 17.3665L60.4591 17.3809L60.4556 17.3988L60.453 17.4189L60.4452 17.4324L60.1559 19.022H61.1621L61.5342 17.0087L61.5441 16.9397L61.5563 16.8647L61.5619 16.7953L61.5697 16.7229V16.6596L61.5766 16.5898V16.5278L61.5697 16.4654L61.5619 16.4043ZM56.8484 17.2522L56.8458 17.322L56.8363 17.3988L56.8177 17.4743L56.7956 17.5471L56.7705 17.617L56.7393 17.6859L56.7055 17.7505L56.6648 17.809L56.6189 17.8622L56.5699 17.9215L56.5141 17.9687L56.4608 18.0127L56.4296 18.0337L56.4032 18.0533L56.3677 18.062L56.3356 18.0769L56.301 18.0904L56.2728 18.1039L56.2373 18.1105L56.2009 18.1192H56.1866L56.129 18.1262L56.0541 18.1349H56.016L55.9449 18.1249L55.9133 18.1192L55.8769 18.1105L55.8518 18.1039L55.821 18.0921L55.7933 18.0769L55.763 18.062L55.7392 18.0533L55.718 18.0337L55.6946 18.0127L55.6742 17.9935L55.6495 17.9687L55.6292 17.9464L55.6183 17.9215L55.5867 17.8709L55.5625 17.809L55.5438 17.7505L55.5321 17.6859L55.5226 17.6239V17.5471L55.5321 17.4765L55.5438 17.3988L55.5573 17.3242L55.5776 17.2548L55.6062 17.188L55.6404 17.1226L55.6742 17.0606L55.7097 16.9956L55.7595 16.9397L55.8085 16.8852L55.8618 16.8311L55.9211 16.7874L55.9488 16.7656L55.9787 16.7469L56.0116 16.7325L56.0428 16.7185L56.0766 16.7028L56.1104 16.6884L56.1446 16.6788L56.1801 16.6757L56.1866 16.6736L56.2503 16.6596L56.3239 16.657L56.3625 16.6596H56.3975L56.4348 16.667H56.466L56.4989 16.6757L56.5292 16.6853L56.56 16.6962L56.5877 16.7124L56.6163 16.7229L56.6375 16.7403L56.6648 16.7617L56.6843 16.7813L56.7077 16.8027L56.728 16.8232L56.7423 16.852L56.7588 16.8743L56.79 16.9341L56.8142 16.9904L56.832 17.0501L56.8458 17.1178L56.8484 17.1867V17.2522ZM57.0464 16.0806L57.0165 16.0347L56.9862 15.9898L56.9567 15.9558L56.9186 15.9169L56.8857 15.8785L56.8407 15.8419L56.7991 15.8157L56.7501 15.7873L56.7055 15.7629L56.6561 15.7411L56.6098 15.7192L56.5565 15.7053L56.5071 15.6918L56.4565 15.68L56.4032 15.6686L56.3551 15.663L56.3239 15.656H56.168L56.0861 15.6634L56.0116 15.6769L55.9371 15.6918L55.8618 15.7062L55.7933 15.7288L55.7188 15.7563L55.6478 15.7873L55.5776 15.8192L55.51 15.858L55.4416 15.9043L55.3771 15.9501L55.3121 15.9994L55.2484 16.0561L55.1861 16.1163L55.1224 16.1752L55.063 16.2403L55.0076 16.3053L54.9556 16.3781L54.8993 16.4475L54.8517 16.5182L54.8071 16.5898L54.7655 16.667L54.7248 16.739L54.6858 16.8184L54.6546 16.8952L54.6191 16.9755L54.5931 17.0562L54.5632 17.14L54.5411 17.2234L54.5194 17.3089L54.5065 17.3953L54.4904 17.4786L54.4787 17.5681L54.4701 17.6497L54.4662 17.7313V17.8138L54.4701 17.8967L54.4779 17.9687L54.4887 18.0446L54.4965 18.1249L54.5151 18.1991L54.5329 18.268L54.5576 18.3409L54.5792 18.4155L54.6117 18.4783L54.6464 18.5451L54.6849 18.6101L54.7191 18.6777L54.8071 18.7877L54.8517 18.8383L54.9015 18.8837L54.9556 18.9291L55.0098 18.967L55.0665 19.0041L55.1267 19.029L55.1878 19.0578L55.2502 19.0779L55.3203 19.0962L55.3905 19.111L55.4602 19.1198L55.5395 19.1289L55.6183 19.132H55.6586L55.685 19.1289L55.7037 19.1267L55.7613 19.118L55.821 19.111L55.8752 19.1019L55.9345 19.0892L55.9904 19.0718L56.0515 19.0526L56.1039 19.0277L56.1606 18.9976L56.1866 18.9854L56.2239 18.9745L56.278 18.9361L56.3239 18.899L56.3789 18.8584L56.4261 18.8165L56.4703 18.7672L56.5141 18.714L56.5565 18.6594H56.5699L56.505 19.022H57.5107L58.1089 15.7607H57.1036L57.0464 16.0806ZM53.1117 15.5818L53.1022 15.6486L53.0836 15.7192L53.0684 15.7851L53.0416 15.8406L53.016 15.8886L53 15.9169L52.9796 15.9348L52.9662 15.9558L52.9441 15.9723L52.9238 15.9867L52.9077 16.0011L52.8813 16.016L52.8614 16.0243L52.812 16.0452L52.7613 16.0644L52.715 16.0775L52.6647 16.0923L52.6167 16.1011L52.5677 16.108L52.5179 16.1107H52.5058L52.4651 16.1163H52.4408L52.4365 16.108H52.3087L52.4837 15.1808H52.6647L52.7098 15.183L52.7579 15.1869L52.8012 15.1987L52.8475 15.2013L52.8865 15.2174L52.929 15.2345L52.9688 15.2528L53.01 15.2689L53.026 15.2829L53.0416 15.2907L53.0559 15.3117L53.0693 15.3278L53.081 15.3383L53.0888 15.3623L53.0961 15.385L53.1039 15.4029L53.1117 15.4601L53.12 15.5146L53.1117 15.5818ZM53.0576 17.4149L53.0559 17.4852L53.0416 17.5637L53.0268 17.6305L53.01 17.6933L52.9874 17.7505L52.9601 17.7989L52.9238 17.846L52.8865 17.8853L52.8475 17.9198L52.8012 17.9464L52.7553 17.9687L52.7029 17.9935L52.6582 18.0127L52.5547 18.0402L52.5058 18.0581L52.4542 18.0616L52.4062 18.0716L52.3698 18.0747H52.3273L52.2927 18.0769H52.1056L52.0947 18.0747L52.0878 18.0716H51.9501L52.1419 17.0375H52.5456L52.5972 17.0401L52.647 17.0488L52.699 17.0562L52.7514 17.0676L52.7977 17.0815L52.8441 17.0999L52.8917 17.1178L52.9355 17.14L52.9493 17.1544L52.9718 17.1671L52.9887 17.1867L53.0035 17.2029L53.016 17.2234L53.0268 17.2469L53.0372 17.2683L53.0472 17.2967L53.0498 17.322L53.0559 17.3521L53.0576 17.3809V17.4149ZM54.153 14.8924L54.1422 14.8334L54.1236 14.7758L54.1067 14.7252L54.0863 14.6755L54.0608 14.6301L54.0339 14.5869L54.0031 14.5463L53.9676 14.511L53.9278 14.4791L53.8901 14.4451L53.8485 14.415L53.8104 14.3884L53.7615 14.3639L53.7129 14.3391L53.6649 14.3164L53.6133 14.298L53.5583 14.281L53.5033 14.2679L53.444 14.2596L53.3825 14.2474L53.3222 14.2378L53.2564 14.2291L53.191 14.2273H51.5771L50.6914 19.022H52.3628L52.433 19.0212L52.5058 19.0164L52.5725 19.0116L52.6452 19.0041L52.715 18.9967L52.7817 18.981L52.851 18.967L52.922 18.9505L52.9887 18.93L53.0576 18.9116L53.1226 18.8837L53.191 18.8584L53.2564 18.8326L53.3222 18.803L53.3933 18.7672L53.4561 18.731L53.515 18.6943L53.5752 18.6542L53.6337 18.607L53.6926 18.5586L53.7428 18.5076L53.7909 18.4508L53.8342 18.3928L53.878 18.3282L53.9204 18.2654L53.9551 18.1921L53.9897 18.1192L54.0183 18.0402L54.0517 17.9573L54.0759 17.8722L54.0937 17.7832L54.1114 17.6933L54.1335 17.5703L54.1426 17.4516L54.153 17.3421L54.1495 17.2347L54.1426 17.1819L54.137 17.1309L54.1335 17.082L54.1166 17.0375L54.0997 16.9467L54.0642 16.8638L54.0456 16.8232L54.0252 16.7874L54.0031 16.7495L53.9772 16.7185L53.9499 16.6823L53.9161 16.657L53.8858 16.6277L53.8485 16.6011L53.8113 16.5736L53.7723 16.5544L53.7277 16.5374L53.6852 16.5139L53.641 16.5003L53.5947 16.4859L53.5423 16.475L53.4847 16.4654V16.4606L53.5583 16.4213L53.6198 16.3781L53.6835 16.3363L53.7368 16.2865L53.7909 16.2337L53.8342 16.1752L53.8832 16.1224L53.9204 16.0587L53.9551 15.9898L53.9897 15.9256L54.0183 15.858L54.0456 15.7851L54.0759 15.7105L54.0937 15.6381L54.1114 15.56L54.1301 15.4784L54.1426 15.3942L54.153 15.3126L54.1599 15.2358L54.1664 15.1607V15.0185L54.1599 14.9561L54.153 14.8924ZM47.1136 19.022H48.1146L49.0822 13.7417H48.083L47.1136 19.022ZM45.7856 17.2522L45.7821 17.322L45.7691 17.3988L45.7336 17.5471L45.705 17.617L45.6721 17.6859L45.6357 17.7505L45.5976 17.809L45.5552 17.8622L45.5062 17.9215L45.4503 17.9687L45.3962 18.0127L45.3633 18.0337L45.3338 18.0533L45.3013 18.062L45.271 18.0769L45.239 18.0904L45.2061 18.1039L45.1714 18.1105L45.1333 18.1192H45.1255L45.0631 18.1262L44.9895 18.1349H44.9522L44.8812 18.1249L44.8474 18.1192L44.8149 18.1105L44.7855 18.1039L44.7543 18.0921L44.7287 18.0769L44.7019 18.062L44.6755 18.0533L44.6516 18.0337L44.6265 18.0127L44.6105 17.9935L44.591 17.9687L44.5706 17.9464L44.5563 17.9215L44.5217 17.8709L44.4987 17.809L44.4784 17.7505L44.4676 17.6859L44.4598 17.6239V17.5471L44.465 17.4765L44.474 17.3988L44.4918 17.3242L44.5139 17.2548L44.5412 17.188L44.5706 17.1226L44.6105 17.0606L44.6477 16.9956L44.6984 16.9397L44.7422 16.8852L44.7989 16.8311L44.8522 16.7874L44.8877 16.7656L44.9167 16.7469L44.9462 16.7325L44.9782 16.7185L45.0107 16.7028L45.0445 16.6884L45.0791 16.6788L45.1138 16.6757L45.1255 16.6736L45.1857 16.6596L45.2585 16.657L45.3005 16.6596H45.3338L45.3685 16.667H45.404L45.4326 16.6757L45.4664 16.6853L45.4971 16.6962L45.524 16.7124L45.5513 16.7229L45.5729 16.7403L45.5976 16.7617L45.6223 16.7813L45.6626 16.8232L45.6812 16.852L45.6981 16.8743L45.7271 16.9341L45.7514 16.9904L45.7661 17.0501L45.7795 17.1178L45.7856 17.1867V17.2522ZM45.9809 16.0806L45.9493 16.0347L45.9233 15.9898L45.8878 15.9558L45.8558 15.9169L45.8159 15.8785L45.7778 15.8419L45.7336 15.8157L45.6855 15.7873L45.6431 15.7629L45.589 15.7411L45.5435 15.7192L45.4919 15.7053L45.4438 15.6918L45.3438 15.6686L45.2871 15.663L45.2585 15.656H45.0995L45.0233 15.6634L44.9462 15.6769L44.8751 15.6918L44.7989 15.7062L44.7253 15.7288L44.6542 15.7563L44.5823 15.7873L44.5139 15.8192L44.4463 15.858L44.3792 15.9043L44.3125 15.9501L44.2458 15.9994L44.1838 16.0561L44.1197 16.1163L44.0604 16.1752L44.0002 16.2403L43.9439 16.3053L43.8863 16.3781L43.8365 16.4475L43.788 16.5182L43.7442 16.5898L43.6974 16.667L43.6619 16.739L43.6208 16.8184L43.5857 16.8952L43.5519 16.9755L43.5285 17.0562L43.5012 17.14L43.4783 17.2234L43.4549 17.3089L43.438 17.3953L43.4267 17.4786L43.4141 17.5681L43.4064 17.6497L43.4042 17.7313V17.8967L43.409 17.9687L43.4167 18.0446L43.4293 18.1249L43.4479 18.1991L43.4718 18.268L43.4895 18.3409L43.5164 18.4155L43.5783 18.5451L43.6156 18.6101L43.6571 18.6777L43.6948 18.731L43.7442 18.7877L43.788 18.8383L43.8365 18.8837L43.8915 18.9291L43.946 18.967L44.0037 19.0041L44.0639 19.029L44.1241 19.0578L44.189 19.0779L44.2566 19.0962L44.3268 19.111L44.3995 19.1198L44.4732 19.1289L44.5485 19.132H44.5984L44.6152 19.1289L44.6399 19.1267L44.6984 19.118L44.7526 19.111L44.8102 19.1019L44.8699 19.0892L44.9258 19.0718L44.9834 19.0526L45.0419 19.0277L45.0995 18.9976L45.1255 18.9854L45.1528 18.9745L45.2091 18.9361L45.265 18.899L45.3143 18.8584L45.3564 18.8165L45.4075 18.7672L45.4503 18.714L45.4919 18.6594H45.5062L45.4421 19.022H46.4409L47.0417 15.7607H46.0407L45.9809 16.0806ZM43.3838 15.7192L43.5783 15.7149L43.3726 16.8232L43.3522 16.8224L43.3371 16.8088L43.3015 16.7896L43.2587 16.7717L43.2197 16.7556L43.1807 16.7469L43.1443 16.739L43.0993 16.7325L43.0572 16.729L43.0131 16.7229H42.9658L42.8632 16.7325L42.8168 16.7346L42.7714 16.7403L42.7307 16.7547L42.6847 16.7656L42.6427 16.7813L42.6046 16.7953L42.5691 16.8184L42.5284 16.8385L42.4981 16.8586L42.4682 16.8865L42.4379 16.914L42.4075 16.9419L42.382 16.9755L42.359 17.0074L42.3118 17.082L42.2685 17.1601L42.2308 17.2434L42.1944 17.3242L42.1628 17.4189L42.1368 17.5114L42.1078 17.6126L42.0926 17.7108L41.8449 19.022H40.8448L41.4473 15.7607H42.4487L42.3508 16.2922H42.3642L42.4132 16.225L42.4625 16.1578L42.5184 16.0989L42.5765 16.0347L42.6349 15.9867L42.7003 15.9387L42.7627 15.899L42.8931 15.8288L42.9589 15.7987L43.03 15.7755L43.0993 15.7563L43.1703 15.7411L43.2366 15.7288L43.3093 15.7192H43.3838ZM41.1207 15.7607H40.5554L40.7365 14.7758H39.729L39.5497 15.7607H39.2239L39.0498 16.7185H39.3738L38.9524 19.022H39.9581L40.3796 16.7185H40.9448L41.1207 15.7607ZM38.5981 16.4043L38.592 16.3472L38.5777 16.2869L38.569 16.2337L38.5521 16.1805L38.537 16.1264L38.5175 16.0806L38.498 16.0347L38.472 15.9867L38.4465 15.9453L38.4161 15.9043L38.385 15.8702L38.3468 15.8349L38.3096 15.8017L38.2663 15.7786L38.2199 15.748L38.174 15.7288L38.1216 15.7105L38.0709 15.6952L38.0077 15.68L37.9475 15.6686L37.8864 15.663L37.8197 15.656H37.6768L37.6057 15.6634L37.5338 15.6743L37.4667 15.687L37.4043 15.7L37.3402 15.7192L37.2155 15.7707L37.1548 15.8017L37.099 15.8406L37.037 15.8829L36.9772 15.93L36.9162 15.9837L36.862 16.0452L36.8053 16.108L36.7451 16.1752H36.7368L36.8157 15.7607H35.8069L35.2022 19.022H36.2123L36.522 17.3333L36.5363 17.2626L36.5558 17.188L36.5788 17.1178L36.603 17.0501L36.6303 16.9856L36.6589 16.9258L36.6953 16.8638L36.7317 16.8045L36.7503 16.777L36.7706 16.7547L36.7945 16.729L36.817 16.7093L36.8451 16.6853L36.8638 16.667L36.8906 16.6548L36.9162 16.6373L36.95 16.6225L37.0136 16.6011L37.0422 16.595L37.0769 16.5867L37.1141 16.5854L37.1488 16.5837H37.2445L37.3069 16.5898L37.3502 16.6011L37.3948 16.6225L37.4143 16.6347L37.4273 16.6439L37.445 16.6596L37.4611 16.6757L37.4736 16.6884L37.4832 16.7093L37.4992 16.729L37.5018 16.7495L37.5152 16.7896L37.526 16.8363L37.5338 16.8804L37.5395 16.9258L37.5421 16.9698V17.0178L37.5395 17.0676L37.5338 17.1143L37.5321 17.1474L37.526 17.1819L37.5226 17.209L37.5152 17.2434L37.5117 17.2683L37.5018 17.3045L37.5 17.3311L37.4992 17.3665L37.4914 17.3809L37.4879 17.3988L37.4832 17.4189L37.4814 17.4324L37.1877 19.022H38.1926L38.5651 17.0087L38.5877 16.8647L38.5955 16.7953L38.5981 16.7229L38.6024 16.6596L38.6054 16.5898V16.5278L38.6024 16.4654L38.5981 16.4043ZM33.0383 16.9192H34.203L34.2012 16.8638L34.1965 16.8088L34.1844 16.7556L34.1692 16.7124L34.1523 16.667L34.1293 16.6225L34.1025 16.5854L34.0687 16.5427L34.0306 16.5139L33.9985 16.4859L33.9578 16.4606L33.9154 16.4432L33.8725 16.427L33.8257 16.4174L33.7785 16.4096H33.6737L33.6234 16.4174H33.6195L33.5628 16.427L33.5139 16.4388L33.4619 16.4606L33.4112 16.4794L33.3683 16.5099L33.3189 16.5374L33.2726 16.5675L33.2284 16.6103L33.1903 16.6548L33.15 16.6962L33.1219 16.7469L33.0898 16.7997L33.0612 16.8542L33.0383 16.9192ZM35.0788 16.8045L35.0805 16.8952L35.0831 16.9856L35.0805 17.0741L35.0745 17.1719L35.0667 17.2683L35.0506 17.3678L35.0355 17.4686V17.4651L35.0125 17.5834H32.8997L32.8875 17.6754L32.8793 17.7531L32.875 17.8295L32.881 17.901L32.8901 17.9634L32.907 18.0223L32.9326 18.0769L32.9451 18.1039L32.9594 18.1262L32.9755 18.158L32.9915 18.1737L33.0092 18.1921L33.0339 18.2073L33.056 18.2257L33.0764 18.2436L33.1032 18.2562L33.1288 18.268L33.16 18.2807L33.1855 18.2907L33.2158 18.2977L33.2462 18.3033L33.3189 18.3125H33.4298H33.4731H33.513L33.545 18.3016L33.5797 18.2907L33.6135 18.278L33.6234 18.2724L33.6516 18.2654L33.6836 18.2479L33.7192 18.2257L33.7482 18.2056L33.7785 18.182L33.8106 18.158L33.84 18.1249L33.8725 18.0904L33.9011 18.0581L33.9258 18.0171H34.8951L34.8639 18.0904L34.8302 18.158L34.8003 18.2222L34.7665 18.2907L34.7275 18.3513L34.692 18.4103L34.6491 18.4661L34.6067 18.5207L34.5633 18.5734L34.517 18.621L34.4698 18.6699L34.4165 18.7131L34.3689 18.7541L34.2589 18.8326L34.2012 18.8645L34.1423 18.899L34.0804 18.9238L34.0237 18.9513L33.9656 18.981L33.9097 19.0041L33.8487 19.0277L33.7911 19.0482L33.7287 19.0635L33.6685 19.0779L33.6234 19.091L33.6117 19.0945L33.5507 19.1027L33.49 19.118L33.4298 19.1198L33.3692 19.1267L33.3133 19.1289L33.2462 19.132L33.1608 19.1289L33.0764 19.1267L32.9975 19.118L32.9183 19.1027L32.8394 19.0892L32.7675 19.0718L32.6956 19.0425L32.6255 19.0212L32.5609 18.9967L32.4323 18.9238L32.3708 18.8828L32.2634 18.7934L32.2049 18.7428L32.1616 18.693L32.1135 18.6302L32.068 18.5734L32.0325 18.5076L32.0009 18.4421L31.9697 18.3732L31.9437 18.3016L31.9242 18.2222L31.9086 18.1467L31.8978 18.0616L31.8861 17.9791L31.8852 17.8897V17.7989L31.8861 17.7034L31.8978 17.6056L31.9112 17.5035L31.9264 17.3988L31.9437 17.2997L31.9697 17.2029L31.9983 17.1042L32.023 17.0178L32.055 16.9258L32.0906 16.8385L32.1295 16.7547L32.1728 16.6757L32.2175 16.595L32.2634 16.5182L32.308 16.4432L32.3621 16.3742L32.4189 16.3053L32.4782 16.2442L32.5376 16.1805L32.6025 16.1224L32.6675 16.0644L32.7338 16.0099L32.8074 15.9649L32.875 15.9169L32.9451 15.8742L33.0188 15.8366L33.0924 15.8078L33.1678 15.7755L33.2423 15.748L33.3215 15.7192L33.4004 15.7053L33.4805 15.687L33.5628 15.6743L33.6234 15.6686L33.6447 15.6634L33.7287 15.656H33.9097L33.9933 15.6634L34.0804 15.6769L34.1601 15.687L34.2385 15.7053L34.3087 15.7245L34.384 15.748L34.452 15.7834L34.5144 15.8096L34.5755 15.8471L34.6335 15.8886L34.6877 15.93L34.7379 15.9819L34.7868 16.0347L34.8302 16.0875L34.8713 16.1451L34.9094 16.2101L34.9432 16.2773L34.9722 16.3415L35 16.4135L35.0229 16.4859L35.0415 16.561L35.0593 16.6408L35.0701 16.7224L35.0788 16.8045ZM32.0511 14.3439L31.942 14.2932L31.8311 14.2444L31.7202 14.199L31.6033 14.1636L31.5452 14.1567L31.4833 14.1414L31.4231 14.1279L31.2979 14.117L31.2347 14.1074H31.1762L31.1077 14.1012H31.0597L30.9514 14.11L30.8431 14.1244L30.734 14.1414L30.6257 14.1636L30.5174 14.1937L30.4048 14.2356L30.2965 14.2771L30.1856 14.3233L30.0747 14.3766L29.969 14.4377L29.8633 14.5023L29.7616 14.5651L29.6654 14.6371L29.5688 14.7191L29.4739 14.7959L29.3826 14.8784L29.211 15.0608L29.1296 15.1607L29.046 15.2567L28.9767 15.361L28.9048 15.4653L28.839 15.5744L28.7779 15.6918L28.7203 15.8078L28.6687 15.9235L28.6181 16.0347L28.5713 16.1578L28.5349 16.2747L28.4985 16.3965L28.4717 16.5139L28.4444 16.6373L28.4244 16.7717L28.4097 16.9013L28.3989 17.0261L28.3881 17.1544V17.2757L28.3989 17.3988L28.4097 17.5149L28.4244 17.6335L28.4478 17.7444L28.4751 17.8578L28.5115 17.9634L28.5535 18.0716L28.5977 18.1668L28.6553 18.2667L28.7142 18.3609L28.7814 18.4508L28.8481 18.5333L28.9208 18.607L28.9927 18.6808L29.069 18.7502L29.1508 18.8104L29.2331 18.871L29.3202 18.9238L29.4107 18.967L29.5038 19.0102L29.6017 19.0482L29.6974 19.0779L29.7923 19.1027L29.8963 19.1267L30.0002 19.1377L30.1042 19.1433L30.2159 19.1512H30.2701L30.3242 19.1433L30.374 19.1429L30.4277 19.1377L30.481 19.1289L30.5334 19.1198L30.5841 19.111L30.6374 19.1019L30.7049 19.0862L30.7742 19.0635L30.8431 19.0425L30.9115 19.0277L30.9852 19.0041L31.0579 18.981L31.1337 18.9513L31.21 18.9291L31.4833 17.4359L31.4283 17.4952L31.3707 17.5471L31.3139 17.6039L31.2576 17.6488L31.1939 17.6933L31.1307 17.7326L31.067 17.7771L30.9951 17.809L30.9302 17.846L30.8583 17.8709L30.7894 17.8967L30.727 17.9106L30.6551 17.929L30.5914 17.9407L30.523 17.9464H30.3944L30.3337 17.9412L30.2761 17.9381L30.2246 17.9233L30.1687 17.9106L30.1172 17.8967L30.0673 17.877L30.0188 17.8578L29.9716 17.8295L29.9292 17.8002L29.8876 17.7771L29.8473 17.7404L29.8118 17.7034L29.7711 17.6663L29.7425 17.6239L29.6831 17.5332L29.6593 17.4852L29.6299 17.4324L29.6113 17.3809L29.5935 17.3277L29.5723 17.2683L29.5645 17.2168L29.5493 17.1601L29.5458 17.1003L29.5402 17.0401V16.914L29.5437 16.8464L29.5493 16.7813L29.5606 16.7185L29.5705 16.6439L29.5857 16.5736L29.6035 16.5099L29.6186 16.4388L29.6364 16.3742L29.6619 16.3105L29.6866 16.2494L29.7109 16.1888L29.7711 16.0696L29.804 16.0099L29.8447 15.9592L29.8776 15.9021L29.9184 15.8471L29.963 15.7987L30.0071 15.748L30.0518 15.6952L30.0959 15.6486L30.1466 15.608L30.1964 15.5643L30.2458 15.529L30.2965 15.4976L30.3506 15.4653L30.4048 15.4374L30.4589 15.4103L30.5174 15.3867L30.5698 15.3667L30.6287 15.3518L30.6837 15.3383L30.7439 15.3278L30.8015 15.32L30.8613 15.3126H30.9951L31.0597 15.32L31.1307 15.3326L31.1879 15.3444L31.2524 15.3667L31.3139 15.3867L31.3707 15.4169L31.4291 15.447L31.4894 15.4836L31.5357 15.5225L31.5872 15.5635L31.634 15.6115L31.6752 15.663L31.7142 15.7149L31.7497 15.7755L31.7761 15.8349L32.055 14.3391L32.0511 14.3439Z" fill="white"/>
<path fill-rule="evenodd" clip-rule="evenodd" d="M86.6161 8.80353L86.746 7.43992H85.949L85.9837 7.48748L86.0227 7.53853L86.0486 7.59875L86.0703 7.65766L86.0833 7.71787L86.0963 7.78464V7.86056L86.092 7.93212L86.0833 7.98187L86.0746 8.03249L86.0616 8.08441L86.0443 8.13241L86.0227 8.17648L86.0053 8.2175L85.975 8.26594L85.9144 8.33924L85.8797 8.38332L85.8364 8.41604L85.8191 8.4287L85.7931 8.45008L85.7455 8.48368L85.6978 8.51466L85.6458 8.54389L85.5895 8.5692L85.5116 8.60542L85.4293 8.63073L85.347 8.65386L85.2603 8.6796L85.1737 8.69226L85.0827 8.70884L84.9961 8.7132L84.9008 8.71931V8.80353L84.9095 8.88382L84.9225 8.95756L84.9398 9.02694L84.9615 9.0937L84.9918 9.14737L85.0264 9.20235L85.0654 9.2521L85.0871 9.26955L85.1087 9.28963L85.1347 9.30839L85.1607 9.32453L85.2127 9.35464L85.2777 9.37821L85.347 9.39872L85.4163 9.40875L85.4899 9.4153L85.5765 9.41966L85.6458 9.4153L85.7195 9.40875L85.7931 9.39872L85.8191 9.38868L85.8624 9.37821L85.9317 9.35464L86.0053 9.32933L86.0703 9.29704L86.1353 9.25952L86.2002 9.21981L86.2652 9.17443L86.3302 9.11857L86.3865 9.07014L86.4471 9.01123L86.5078 8.94491L86.5598 8.87902L86.6161 8.80353ZM81.8039 6.53579V6.47033V6.41361L81.7995 6.36081L81.7865 6.30757L81.7692 6.26306L81.7519 6.22074L81.7259 6.17928L81.6956 6.14699L81.6696 6.1147L81.6306 6.08809L81.5873 6.05754L81.544 6.03747L81.4963 6.0174L81.44 5.99863L81.3837 5.97943L81.3274 5.96634L81.2581 5.95369L81.1931 5.94322L81.1152 5.93536L81.0372 5.92969L80.9506 5.92751L80.864 5.92009H80.7773L80.682 5.92751L80.5001 5.93536L80.3399 5.95369L80.1839 5.96634L80.0367 5.98729L79.9024 6.0174L79.7854 6.04576L79.7248 6.0667L79.6685 6.08503L79.6165 6.10074L79.5732 6.12648L79.5212 6.14699L79.4779 6.1675L79.4389 6.19325L79.3999 6.22074L79.3653 6.24125L79.335 6.27005L79.3046 6.30103L79.2743 6.32852L79.2527 6.36081L79.231 6.39266L79.218 6.42713L79.1964 6.45855L79.1834 6.49433L79.1747 6.5323L79.166 6.56677L79.1574 6.60604V6.68066V6.74698V6.80458L79.1747 6.84822V6.86916L79.1877 6.88269L79.1964 6.89753L79.205 6.90974L79.218 6.91891L79.231 6.92851H79.244L79.257 6.93069L79.2743 6.92851L79.2916 6.92196V6.91498L79.296 6.90102H81.5916L81.5613 6.86916L81.6133 6.83687L81.6566 6.80458L81.6956 6.76138L81.7302 6.72255L81.7562 6.68066L81.7779 6.6392L81.7909 6.58771L81.8039 6.53579ZM82.5749 6.90102H90.1981L90.1418 7.43992H89.6264L89.3405 10.4874H88.3573L88.6432 7.43992H87.7249L87.4434 10.4874H86.4558L86.5208 9.79274L86.4471 9.84336L86.3735 9.88962L86.3085 9.93412L86.2392 9.97078L86.1613 10.01L86.0876 10.0436L86.0183 10.0694L85.9447 10.1017L85.8711 10.1292L85.8191 10.1392L85.7974 10.1458L85.7238 10.1654L85.5765 10.1903L85.5029 10.1938L85.4293 10.2055H85.3556L85.23 10.2007L85.1087 10.1916L84.9961 10.1759L84.8878 10.1571L84.8402 10.1392L84.7839 10.1239L84.7406 10.1069L84.6886 10.0903L84.6409 10.0668L84.5976 10.0436L84.5543 10.0192L84.511 9.99172L84.4677 9.97078L84.4287 9.93936L84.3897 9.911L84.3551 9.87652L84.3161 9.8486L84.2814 9.81063L84.2511 9.77354L84.2121 9.73558L84.1948 9.69413L84.1558 9.65311L84.1298 9.61297L84.1038 9.56322L84.0562 9.47071L84.0086 9.36773L83.9782 9.27741L83.9479 9.17574L83.9219 9.0745L83.9089 8.9676L83.8916 8.84891L83.8829 8.72629L83.8786 8.60542V8.47233L84.0345 8.3951L84.0389 8.40121L84.0432 8.40732H84.0562H84.0822L84.1342 8.40906L84.2035 8.41604L84.2771 8.40906L84.3464 8.40732H84.4157L84.4807 8.3951L84.55 8.38332L84.6063 8.37241L84.6713 8.34928L84.7276 8.33226L84.8012 8.29997L84.8618 8.26812L84.9182 8.23015L84.9485 8.20616L84.9615 8.18652L84.9831 8.1647L85.0005 8.13765L85.0178 8.11758L85.0308 8.09008L85.0394 8.06696L85.0524 8.03772L85.0611 8.00718L85.0654 7.97751L85.0697 7.93212V7.84703L85.0654 7.81038L85.0568 7.76544L85.0481 7.72922L85.0394 7.69344L85.0264 7.65766L85.0048 7.62406L84.9918 7.59308L84.9658 7.56471L84.9485 7.53853L84.9182 7.51104L84.8878 7.48661L84.8575 7.46348L84.8272 7.43992H83.0686L82.995 8.26812H81.2841L81.2321 8.27117L81.1931 8.27859L81.1671 8.28906L81.1455 8.29474L81.1325 8.30303L81.1152 8.31481L81.0849 8.33924L81.0762 8.35888L81.0719 8.37939L81.0632 8.39902L81.0545 8.41604L81.0502 8.43437L81.0459 8.45837V8.49022V8.51771V8.54608L81.0545 8.5692L81.0632 8.59538L81.0719 8.61284L81.0849 8.63073L81.1065 8.64557L81.1238 8.66389L81.1455 8.67655L81.1715 8.68833L81.2321 8.70273L81.2668 8.70884L81.3014 8.71102H82.3323L82.3713 8.7132L82.4666 8.72629L82.5099 8.73371L82.5532 8.74942L82.5965 8.75989L82.6398 8.77647L82.6831 8.79393L82.7178 8.81225L82.7958 8.86462L82.8347 8.88992L82.8737 8.91567L82.9084 8.94578L82.9474 8.98069L82.9777 9.0121L83.008 9.05181L83.0426 9.08934L83.0686 9.11857L83.0903 9.16526L83.1076 9.20235L83.1249 9.24337L83.1423 9.28963L83.1553 9.32933L83.1683 9.37559L83.1813 9.41966L83.1856 9.46853L83.1899 9.51348L83.1942 9.56322V9.61297L83.1899 9.66751L83.1813 9.72991L83.1726 9.80278L83.1553 9.86474L83.1423 9.92583L83.1249 9.9891L83.1076 10.0489L83.0816 10.1069L83.0513 10.1654L83.0253 10.2186L82.995 10.274L82.9214 10.3722L82.8781 10.4259L82.8347 10.4748L82.7914 10.518L82.7438 10.5651L82.6312 10.6515L82.5792 10.6864L82.5186 10.72L82.4622 10.7536L82.3886 10.7859L82.328 10.8064L82.2543 10.8369L82.1894 10.8561L82.1071 10.8758L82.0378 10.8924L81.8818 10.9151L81.8039 10.9273H81.7216H81.6349H81.5007L81.3621 10.9124L81.2278 10.8959L81.0849 10.8732L80.8943 10.8352L80.7124 10.7889L80.5478 10.7475L80.3918 10.6999L80.2489 10.6515L80.1233 10.5996L80.0583 10.5703L80.002 10.545L79.9414 10.511L79.898 10.4874L79.8547 10.4643L79.8201 10.4372L79.7811 10.4019L79.7378 10.3718L79.6988 10.3399L79.6598 10.3002L79.6165 10.2531L79.5775 10.213L79.911 9.39872V9.40875L79.9154 9.41966L79.9197 9.43537L79.937 9.45326L79.9717 9.4825L80.015 9.52264L80.0756 9.56322L80.1493 9.61297L80.2402 9.66315L80.3442 9.72424L80.4611 9.78489L80.5867 9.8486L80.7037 9.89485L80.8206 9.94241L80.9419 9.98343L81.0589 10.01L81.1758 10.0349L81.2841 10.0576L81.3621 10.0668L81.4357 10.0694L81.5093 10.0768L81.5786 10.0772L81.6436 10.0768L81.7086 10.0694L81.7692 10.0668L81.8255 10.0576L81.8688 10.0436L81.9295 10.0319L81.9685 10.01L82.0118 9.99172L82.0464 9.97601L82.0811 9.94983L82.1071 9.92583L82.1374 9.89354L82.159 9.863L82.1764 9.82765L82.1894 9.78489L82.2024 9.74736L82.211 9.71682V9.68453L82.2024 9.6566L82.1894 9.63086L82.1764 9.60249L82.159 9.57675L82.1374 9.55318L82.1071 9.52875L82.0767 9.50431L82.0508 9.48337L82.0204 9.47071L81.9944 9.4537L81.9555 9.44802L81.9165 9.43973L81.8558 9.43362H80.9766L80.9333 9.42795L80.8813 9.42228L80.7903 9.40875L80.7427 9.39872L80.7037 9.38781L80.6604 9.36773L80.6171 9.3481L80.5304 9.31144L80.4871 9.28963L80.4481 9.25952L80.4092 9.23421L80.3658 9.20497L80.3269 9.17443L80.2922 9.13952L80.2489 9.10592L80.2142 9.07014L80.1839 9.02999L80.1623 8.99334L80.1319 8.95451L80.1103 8.91567L80.0886 8.87902L80.0713 8.83843L80.0583 8.79393L80.0453 8.75029L80.0323 8.7132V8.67044L80.028 8.62506V8.53429L80.0323 8.49022L80.0453 8.44615L80.0496 8.40121L80.067 8.35888L80.0756 8.31481L80.0973 8.27117L80.1146 8.23583L80.1449 8.19656L80.1666 8.15554L80.1969 8.12107L80.2272 8.08441L80.2619 8.04994L80.3009 8.01547L80.3399 7.97751L80.3745 7.94609L80.4221 7.91598L80.5001 7.86798L80.5867 7.82653L80.6777 7.78464L80.7687 7.75147L80.8596 7.72922L80.9506 7.71395L81.0459 7.7026L81.1455 7.69693H82.0984L82.1244 7.43992H79.335L79.0448 10.4874H78.0615L78.3474 7.43992H77.832L77.8883 6.90102H78.2738L78.2608 6.86916L78.2478 6.83687L78.2434 6.80458L78.2348 6.76138L78.2305 6.72255L78.2261 6.68066L78.2305 6.64313V6.59688L78.2434 6.51004L78.2608 6.42626L78.2781 6.33855L78.2998 6.25565L78.3257 6.17579L78.3604 6.10074L78.3994 6.0283L78.434 5.96067L78.4817 5.89696L78.5293 5.82976L78.5813 5.77216L78.6419 5.71238L78.7026 5.65653L78.7675 5.60373L78.8369 5.5553L78.9105 5.50991L78.9884 5.46628L79.0707 5.42788L79.1574 5.3873L79.2527 5.3537L79.3436 5.32185L79.4476 5.29348L79.5472 5.2673L79.6555 5.24199L79.7681 5.22367L79.8807 5.20752L80.002 5.19487L80.1319 5.18614L80.2619 5.17523L80.3918 5.16868H80.6777L80.8293 5.17523L80.9766 5.18308L81.1195 5.19094L81.2581 5.20141L81.3837 5.21843L81.5137 5.24025L81.6306 5.25988L81.7432 5.28519L81.8515 5.31181L81.9555 5.3441L82.0464 5.37944L82.1374 5.41741L82.2154 5.45755L82.2933 5.50119L82.3626 5.54613L82.4233 5.59631L82.4666 5.63864L82.5142 5.67922L82.5532 5.72809L82.5879 5.77871L82.6182 5.82976L82.6528 5.8782L82.6745 5.93842L82.6961 5.99776L82.7265 6.1147L82.7395 6.18452L82.7438 6.24779L82.7524 6.32023V6.39266L82.7438 6.46859L82.7395 6.5432V6.58509L82.7308 6.62088L82.7265 6.66146L82.7135 6.69767L82.7005 6.72909L82.6875 6.75789L82.6745 6.78451L82.6572 6.80982L82.6052 6.86916L82.5749 6.90102ZM77.9273 6.50175L77.9792 6.45375L78.0225 6.40183L78.0659 6.35208L78.0962 6.29579L78.1265 6.23514L78.1438 6.17318L78.1655 6.10859L78.1741 6.04096L78.1785 5.9694L78.1741 5.90656L78.1698 5.83936L78.1525 5.78351L78.1308 5.72504L78.1005 5.67093L78.0659 5.61726L78.0225 5.56839L77.9792 5.52606L77.9273 5.48635L77.8753 5.4497L77.8233 5.4257L77.7627 5.40126L77.702 5.3873L77.6414 5.37683L77.5764 5.37421H77.5028L77.4335 5.37944L77.3685 5.39472L77.3035 5.41741L77.2386 5.43704L77.1779 5.47675L77.1216 5.50991L77.0566 5.5553L77.0003 5.60373L76.957 5.65653L76.9137 5.71238L76.8747 5.77216L76.8444 5.83238L76.8227 5.90176L76.8054 5.96634L76.7968 6.04096L76.7924 6.10859L76.7968 6.17579L76.8011 6.20721L76.8054 6.23994L76.8141 6.27005L76.8314 6.30103L76.8357 6.32852L76.8487 6.36081L76.8661 6.38524L76.8834 6.41143L76.9267 6.46859L76.97 6.51266L77.022 6.5563L77.0783 6.59469L77.1259 6.62437L77.1909 6.64749L77.2516 6.66757L77.3165 6.68066L77.3815 6.68851L77.4465 6.69331L77.5114 6.68851L77.5807 6.67673L77.6414 6.66146L77.702 6.64313L77.7627 6.61389L77.819 6.58509L77.8753 6.5432L77.9273 6.50175ZM73.4702 7.43992H76.1124L76.0821 7.72922H74.7783L74.6787 7.73795L74.5877 7.75147L74.4968 7.76849L74.4102 7.7938L74.3235 7.82653L74.2456 7.86056L74.1633 7.90027L74.1199 7.92209L74.081 7.94609L74.042 7.97751L74.003 8.00718L73.9683 8.03772L73.938 8.07438L73.9077 8.10667L73.8817 8.13765L73.8601 8.17474L73.8427 8.21663L73.8211 8.25546L73.7994 8.29386L73.7864 8.37939L73.7734 8.4191L73.7691 8.4636V8.55262L73.7734 8.59538L73.7864 8.6364L73.7908 8.67655L73.7994 8.7132L73.8167 8.74942L73.8341 8.78694L73.8601 8.82098L73.8774 8.84891L73.9077 8.88382L73.938 8.91567L73.9683 8.94491L74.0073 8.97152L74.042 8.99552L74.081 9.02694L74.1589 9.07014L74.2369 9.10767L74.3192 9.13952L74.4015 9.16526L74.4838 9.17966L74.5791 9.19799L74.6787 9.20497L74.774 9.20846H75.6316L75.6749 9.21632L75.7139 9.21981L75.7269 9.22286L75.7399 9.23421L75.7572 9.24337L75.7659 9.25865L75.7745 9.26955L75.7875 9.27915L75.7919 9.29617L75.7962 9.31144L75.8005 9.3481V9.39304L75.7919 9.43537L75.7789 9.47595L75.7616 9.50999L75.7399 9.54053L75.7139 9.56322L75.6836 9.58547L75.6446 9.60249L75.597 9.61384L75.5406 9.62475L75.454 9.62606H75.3284L75.1638 9.63086L75.0079 9.62606L74.8606 9.61995L74.7177 9.60773L74.5877 9.59246L74.4665 9.56977L74.3538 9.54359L74.2456 9.50999L74.1503 9.47595L74.042 9.42228L73.938 9.37559L73.8254 9.32453L73.7215 9.27435L73.6002 9.90314L73.6868 9.95594L73.7691 10.0031L73.8601 10.0406L73.9467 10.0694L74.003 10.2291L74.0593 10.3718L74.1156 10.5027L74.1676 10.6153L74.1936 10.6663L74.2239 10.7135L74.2542 10.7536L74.3105 10.8352L74.3409 10.8653L74.3625 10.8959L74.3928 10.9151L74.4318 10.95L74.4795 10.9836L74.5401 11.0076L74.5964 11.0377L74.6614 11.0612L74.7307 11.083L74.8086 11.1014L74.8866 11.121L74.9776 11.1324L75.0685 11.1481L75.1681 11.1607L75.2764 11.1677L75.3847 11.1738L75.5017 11.1808L75.6186 11.186L75.7486 11.1882L75.8482 11.186L75.9175 11.1808L75.9695 11.1738L75.9911 11.1651L76.0691 10.5555L75.8352 10.5516L75.6316 10.545L75.545 10.5363L75.4627 10.5249L75.389 10.518L75.3241 10.504L75.2721 10.4883L75.2201 10.4748L75.1768 10.4595L75.1422 10.439L75.1162 10.4202L75.1032 10.3971L75.0945 10.3879L75.0902 10.3722V10.3356L75.1032 10.3247L75.1075 10.3068L75.1162 10.2932H75.1941H75.2938H75.3977L75.5017 10.2893L75.6056 10.2836H75.7052L75.8049 10.2828L75.9045 10.274L76.0128 10.2692L76.1124 10.2531L76.2077 10.2374L76.2943 10.2164L76.3766 10.1916L76.4459 10.1654L76.5109 10.1318L76.5759 10.1017L76.6105 10.0768L76.6408 10.0489L76.6711 10.0192L76.7058 9.99172L76.7578 9.93412L76.7794 9.89485L76.8054 9.863L76.8314 9.82111L76.8444 9.78489L76.8617 9.74693L76.8747 9.70067L76.8877 9.65311L76.9007 9.60773L76.9137 9.56104L76.918 9.50999L76.931 9.4537V9.40308V9.3481V9.30577L76.9267 9.25384L76.918 9.20497L76.8921 9.11857L76.8747 9.0745L76.8574 9.03829L76.8357 8.99552L76.8098 8.9628L76.7838 8.92789L76.7534 8.89123L76.7231 8.86462L76.6885 8.83102L76.6582 8.80353L76.6192 8.78694L76.5845 8.75989L76.5542 8.74462L76.4762 8.70884L76.3983 8.6796L76.3116 8.65386L76.2207 8.63946L76.1297 8.62724H75.0902L75.0079 8.62506H74.9516L74.9039 8.62244L74.8736 8.61284L74.852 8.60542L74.8303 8.59538L74.8173 8.58404L74.8 8.56528L74.7913 8.55088L74.787 8.52644L74.7783 8.50331V8.48368L74.787 8.43437L74.8043 8.39902L74.8303 8.36455L74.8563 8.33924L74.8866 8.32092L74.9213 8.30564L74.9602 8.29997L75.0122 8.29474H76.9787L77.061 7.43992H77.6327L77.6847 6.90102H73.5222L73.4702 7.43992ZM67.8264 10.2274L67.8351 10.2692L67.8437 10.312V10.4159L67.8351 10.4678L67.8264 10.511L67.8134 10.5555L67.7918 10.5996L67.7614 10.641L67.7355 10.6812L67.7051 10.7156L67.6661 10.7536L67.6272 10.7807L67.5839 10.8064L67.5405 10.8352L67.4972 10.8496L67.4539 10.8679L67.4019 10.8793L67.3586 10.8876L67.3066 10.8924H67.259L67.207 10.8832L67.1204 10.8588L67.0814 10.8404L67.0381 10.8151L66.9991 10.7889L66.9601 10.7562L66.9298 10.72L66.8995 10.6881L66.8778 10.6515L66.8605 10.6074L66.8475 10.5651L66.8388 10.518V10.4159L66.8475 10.3635L66.8605 10.312L66.8995 10.2164L66.9255 10.1759L66.9558 10.1318L66.9904 10.0982L67.0294 10.0615L67.0727 10.0301L67.1161 10.0031L67.1594 9.97907L67.2027 9.95594L67.2503 9.94241L67.3023 9.93412L67.3456 9.92583H67.3976H67.4496L67.4929 9.93412L67.5405 9.94765L67.5839 9.96249L67.6228 9.98343L67.6575 10.0092L67.7008 10.0349L67.7355 10.0668L67.7571 10.1056L67.7874 10.1436L67.8134 10.1798L67.8264 10.2274ZM67.3586 8.58404L67.3629 8.52208L67.3673 8.45837L67.3846 8.26812L67.3976 8.10274L67.4106 7.94609L67.4279 7.81256L67.4409 7.69256L67.4496 7.59133L67.4539 7.51017L67.4626 7.43992H68.4285L68.3072 8.75029L68.2725 8.78694L68.2379 8.81225L68.2032 8.84542L68.1686 8.87203L68.1296 8.89909L68.0906 8.91567L68.056 8.93356L68.017 8.95451L67.9737 8.97152L67.9347 8.98505L67.8914 8.99334L67.8524 9.00381L67.8134 9.00818L67.7701 9.01123L67.7268 9.0121L67.6791 9.01123H67.6315L67.5925 8.99552L67.5492 8.98505L67.5189 8.97152L67.4842 8.95145L67.4539 8.92789L67.4279 8.9004L67.4063 8.8668L67.3846 8.83102L67.3803 8.79087L67.3673 8.7468L67.3586 8.69226V8.64469V8.58404ZM66.2325 7.43992H66.5053L66.501 7.48748L66.4923 7.56471L66.4837 7.669L66.4707 7.7938L66.4577 7.95351L66.4447 8.13678L66.4274 8.34841L66.4014 8.58404L66.397 8.64557V8.70884L66.4014 8.76862V8.82665L66.41 8.88163L66.4187 8.93531L66.436 8.99334L66.449 9.05181L66.4707 9.10592L66.488 9.15087L66.5183 9.20846L66.5486 9.25952L66.5746 9.30839L66.6093 9.35857L66.6439 9.40308L66.6829 9.45326L66.7176 9.49471L66.7609 9.54053L66.8042 9.57675L66.8475 9.61297L66.8952 9.64482L66.9385 9.67624L66.9861 9.70373L67.0381 9.72991L67.0901 9.75347L67.1377 9.77354L67.1897 9.79274L67.3023 9.81238L67.3586 9.82111L67.4149 9.82896L67.4756 9.83202H67.5839L67.6965 9.82896L67.7918 9.81718L67.887 9.80322L67.8914 9.80278L67.978 9.78489L68.0603 9.75871L68.1469 9.72511L68.2162 9.68453L68.1469 10.4874H69.1302L69.2861 8.84498L69.3121 8.81094L69.3467 8.77647L69.3814 8.75029L69.4117 8.72629L69.4464 8.6988L69.4853 8.6796L69.52 8.65386L69.5546 8.63946L69.5936 8.62506L69.6283 8.61109L69.6673 8.59538L69.7106 8.58578L69.7496 8.58404L69.7885 8.57051H69.8319L69.8752 8.5692L69.9445 8.57051L70.0094 8.57924L70.0701 8.58404L70.1221 8.59538L70.1697 8.61284L70.213 8.63073L70.252 8.65386L70.291 8.68222L70.317 8.71102L70.343 8.7468L70.3646 8.78694L70.3819 8.82491L70.3949 8.87203L70.3993 8.91567V9.02694L70.3949 9.07232L70.3819 9.11857L70.3646 9.15697L70.3516 9.19799L70.33 9.23421L70.2996 9.2665L70.2693 9.29617L70.2347 9.32453L70.1957 9.34068L70.1567 9.36686L70.1091 9.38039L70.0614 9.39304L70.0094 9.40308L69.9488 9.40919L69.8882 9.4153L69.8232 9.41966L69.7452 9.4153L69.6673 9.40875L69.6326 9.40308L69.598 9.39304L69.5676 9.38039L69.5416 9.36773L69.468 10.0772L69.4897 10.0982L69.507 10.1108L69.533 10.1292L69.5546 10.1436L69.585 10.1571L69.6153 10.1654L69.6456 10.1759L69.6759 10.1846L69.7496 10.1938L69.8319 10.2055L69.9228 10.2064L70.0181 10.2055L70.0874 10.2007L70.1524 10.1916L70.2173 10.1846L70.278 10.1759L70.343 10.1654L70.3993 10.1488L70.4556 10.1318L70.5162 10.1165L70.5682 10.1017L70.6245 10.0768L70.6721 10.0519L70.7285 10.0301L70.7718 10.0031L70.8237 9.97601L70.8714 9.94241L70.9147 9.90925L70.9623 9.87522L71.0057 9.82896L71.0533 9.78489L71.0923 9.74693L71.1313 9.69806L71.1703 9.65093L71.2006 9.59813L71.2309 9.54664L71.2612 9.49471L71.2829 9.43537L71.3089 9.38039L71.3435 9.25865L71.3608 9.19668L71.3738 9.12599L71.3825 9.06098L71.3868 8.9881L71.3912 8.91741V8.8572L71.3868 8.79087L71.3825 8.72629L71.3608 8.59931L71.3435 8.54389L71.3262 8.48368L71.3002 8.4287L71.2785 8.37939L71.2482 8.32092L71.2179 8.27684L71.1833 8.22623L71.1399 8.17648L71.101 8.13678L71.0576 8.09576L71.0187 8.05605L70.9667 8.02376L70.9234 7.99016L70.8714 7.96267L70.8237 7.93212L70.7631 7.9138L70.7111 7.88631L70.6548 7.86798L70.5942 7.85271L70.5335 7.837L70.4729 7.82653L70.4036 7.81256L70.3386 7.80471L70.2693 7.79642H70.0787L69.9661 7.81038L69.8578 7.82653L69.7496 7.84267L69.6456 7.87322L69.546 7.9042L69.455 7.94609L69.3641 7.9954L69.416 7.43992H71.7117L71.7637 6.90102H66.2844L66.2325 7.43992ZM66.3407 6.69811L66.4014 6.67324L66.462 6.64313L66.5227 6.60604L66.579 6.57069L66.6569 6.5179L66.7306 6.45855L66.8042 6.39572L66.8648 6.32459L66.9255 6.24779L66.9818 6.17318L67.0294 6.08809L67.0814 5.99863L67.1291 5.89696L67.168 5.79267L67.207 5.69318L67.2547 5.5937H66.1935L66.1848 5.64038L66.1761 5.68882L66.1545 5.73682L66.1285 5.77435L66.1025 5.81187L66.0722 5.84765L66.0375 5.88387L65.9942 5.91093L65.9466 5.93842L65.8989 5.96067L65.8426 5.97943L65.7777 6.00169L65.7083 6.01129L65.6434 6.02132L65.5654 6.0318L65.4874 6.04096H65.4008L65.3272 6.0318L65.2536 6.02132L65.1886 6.00736L65.1583 5.99776L65.1323 5.97856L65.0976 5.96634L65.0716 5.95369L65.0456 5.92969L65.024 5.91093L65.0023 5.89129L64.9763 5.86554L64.9417 5.83893L64.9244 5.80271L64.894 5.76431L64.8767 5.73333L64.8681 5.69973L64.8594 5.66308L64.8551 5.62424L64.8594 5.5937H63.8112L63.8329 5.69318L63.8588 5.79267L63.8805 5.89696L63.9108 5.99863L63.9455 6.08503L63.9801 6.16576L64.0278 6.24125L64.0711 6.31586L64.1274 6.38524L64.188 6.44982L64.2487 6.51004L64.318 6.56633L64.3699 6.59688L64.4176 6.63135L64.4782 6.66146L64.5302 6.69331L64.5908 6.71338L64.6515 6.74436L64.7208 6.76138L64.7858 6.77884L64.8551 6.80458L64.9287 6.81025L65.0023 6.82858L65.0803 6.83687L65.1626 6.84822L65.2449 6.85127L65.3272 6.85694L65.4095 6.85782H65.5004L65.5871 6.85694L65.678 6.85127L65.756 6.84516L65.834 6.83469L65.9163 6.81985L65.9899 6.80982L66.1372 6.77055L66.2108 6.7496L66.2758 6.72909L66.3407 6.69811ZM62.0453 7.42552L62.096 6.90102H66.0809L66.0289 7.43992H65.5134L65.2276 10.4874H64.24L64.5302 7.43992H64.0148V7.42552H63.6271L63.3386 10.4874H62.3532L62.4979 8.95451H61.7408L61.7785 8.55262L61.8083 8.26812H62.5629L62.6456 7.42552H62.0453ZM61.7971 9.27741L61.788 9.20846L61.7785 9.1849L61.7676 9.14737L61.7481 9.08367L61.7226 9.02694L61.6897 8.9676L61.6524 8.91218L61.6178 8.85894L61.5697 8.80353L61.5216 8.75029L61.4657 8.70884L61.4029 8.65691L61.3423 8.61284L61.2695 8.5692L61.3302 8.54389L61.386 8.50899L61.4826 8.44877L61.529 8.40906L61.5697 8.37415L61.6113 8.33619L61.6477 8.29386L61.6806 8.24892L61.7035 8.20223L61.7321 8.15554L61.7711 8.05125L61.7785 8.02463L61.788 7.99758L61.7971 7.94391L61.814 7.88631V7.81998L61.8174 7.75845L61.814 7.69693L61.8083 7.64064L61.7954 7.58042L61.7785 7.52719L61.7542 7.47439L61.7321 7.42552L61.7035 7.37795L61.6702 7.32908L61.6299 7.28501L61.5926 7.24268L61.5441 7.20079L61.4952 7.16414L61.4384 7.12618L61.3778 7.09083L61.3284 7.06378L61.2743 7.04196L61.2227 7.02014L61.1686 6.99658L61.1093 6.98261L61.0495 6.9656L60.9919 6.94727L60.9334 6.93723L60.803 6.91891L60.6688 6.90538L60.5349 6.89753L60.392 6.90102L60.3041 6.90538L60.2083 6.91498L60.1221 6.93069L60.0273 6.94683L59.9337 6.96821L59.8415 6.99527L59.7483 7.02407L59.6543 7.05767L59.5577 7.09999L59.4564 7.15061L59.3576 7.18901L59.2576 7.23177L59.5335 7.92558L59.6331 7.87322L59.7306 7.82914L59.8345 7.7938L59.9337 7.76544L60.0359 7.74144L60.1399 7.72355L60.35 7.70958H60.405L60.4591 7.71089L60.5089 7.71395L60.5553 7.72355L60.5995 7.73358L60.6358 7.74798L60.6688 7.76195L60.7043 7.77765L60.7238 7.79642L60.7498 7.81998L60.7666 7.84703L60.7853 7.87322L60.7939 7.90027L60.7983 7.93212L60.803 7.96921L60.7983 8.00718L60.7939 8.03772L60.7861 8.07438L60.7779 8.10274L60.7666 8.12717L60.7515 8.15379L60.7363 8.17474L60.7203 8.19656L60.6982 8.21663L60.6761 8.23015L60.6536 8.24237L60.6254 8.25546L60.5951 8.26114L60.5622 8.26594L60.531 8.26812H59.7544L59.6977 8.88382H60.3876L60.4344 8.89123L60.4799 8.9004L60.5241 8.91218L60.5622 8.92658L60.5995 8.93531L60.628 8.95451L60.6545 8.97458L60.7043 9.02127L60.7203 9.05181L60.7363 9.0745L60.745 9.10767L60.7515 9.13952L60.7584 9.17443V9.21632V9.25384L60.7498 9.31624L60.7363 9.38039L60.7142 9.43537L60.6939 9.49428L60.6653 9.54053L60.6358 9.57675L60.5995 9.61297L60.5553 9.63915L60.5189 9.66315L60.4782 9.67624L60.4327 9.69413L60.3803 9.70373L60.3253 9.71682L60.2603 9.72511L60.1888 9.72991L60.1187 9.73558H60.0732L60.0234 9.72991H59.9775L59.8826 9.71289L59.8371 9.69806L59.7929 9.68453L59.744 9.66751L59.6994 9.64482L59.6491 9.62475L59.6054 9.59813L59.5577 9.56977L59.5088 9.54359L59.4672 9.50431L59.4243 9.47071L59.3802 9.43362L59.3213 9.38781L59.2654 9.33893L59.2151 9.28963L59.1688 9.24032L59.1224 9.18577L59.0791 9.13167L59.0358 9.0745L58.9964 9.01647L58.4749 9.69413L58.5083 9.75347L58.5555 9.81063L58.6035 9.86823L58.6529 9.92583L58.7127 9.9891L58.8413 10.1056L58.915 10.1593L58.9817 10.213L59.0462 10.2583L59.1181 10.3068L59.1848 10.3478L59.2533 10.3879L59.3243 10.4202L59.3953 10.4547L59.469 10.4813L59.5426 10.5092L59.6171 10.5337L59.6977 10.5555L59.7713 10.5743L59.8532 10.5926L59.9337 10.6039L60.019 10.6074L60.0983 10.6201L60.1559 10.6223H60.2153L60.2737 10.6275H60.3313L60.4158 10.6223H60.4994L60.5782 10.6153L60.6592 10.6074L60.7363 10.5996L60.8091 10.5839L60.8784 10.5703L60.9429 10.5555L61.007 10.5363L61.0716 10.511L61.1313 10.4883L61.1907 10.4678L61.2474 10.439L61.2946 10.4071L61.3462 10.3722L61.3973 10.3399L61.4384 10.3002L61.4826 10.264L61.5216 10.2274L61.5563 10.1798L61.5952 10.1318L61.623 10.0903L61.6524 10.0349L61.6806 9.98343L61.7035 9.92583L61.7235 9.87522L61.7421 9.81238L61.765 9.75347L61.7767 9.68627L61.7785 9.67056L61.788 9.62475L61.7971 9.55318L61.8032 9.4825L61.8083 9.40919L61.8032 9.34068L61.7971 9.27741ZM51.5381 7.43992H53.7909L53.641 9.04439L53.6073 9.07232L53.5752 9.10767L53.5423 9.13559L53.5085 9.16526L53.4721 9.19014L53.3968 9.24032L53.3517 9.25384L53.3123 9.27435L53.2629 9.28963L53.2218 9.29704L53.1689 9.31144L53.12 9.31624L53.0693 9.32846L53.0195 9.32933L52.9662 9.33413H52.9168L52.8774 9.32933L52.8402 9.32453L52.8021 9.31144L52.7683 9.29704L52.7327 9.28308L52.699 9.25952L52.6708 9.24032L52.6448 9.20846L52.6253 9.17574L52.6041 9.14476L52.592 9.10592L52.5811 9.06098V9.0121V8.9676V8.91218L52.5911 8.86462L52.6041 8.81225L52.6167 8.77036L52.6318 8.72629L52.6565 8.69226L52.6808 8.65386L52.7089 8.62506L52.7392 8.59538L52.7756 8.56528L52.812 8.54608L52.8597 8.52644L52.8991 8.50855L52.9493 8.49546L53 8.48368L53.0576 8.47626L53.1148 8.47233H53.1785L53.2335 8.48368L53.2928 8.49546L53.3435 8.51466L53.3968 8.54389L53.444 8.57924L53.4955 8.62244L53.5423 8.66738L53.6133 7.9138L53.5821 7.88631L53.5531 7.86274L53.515 7.84093L53.4752 7.81998L53.4366 7.79642L53.3985 7.78464L53.3517 7.76849L53.3123 7.75147L53.2629 7.74144L53.2166 7.72922L53.1633 7.72355L53.1117 7.71395L53 7.7026L52.8774 7.69693L52.8189 7.7026L52.7514 7.70958L52.6955 7.71395L52.6318 7.72355L52.5695 7.73358L52.5153 7.74798L52.456 7.76849L52.4062 7.78987L52.3486 7.81256L52.3013 7.84093L52.2476 7.86798L52.1978 7.90027L52.1515 7.93212L52.0999 7.97576L52.0601 8.01154L52.0133 8.05125L51.9704 8.10274L51.9323 8.14943L51.8925 8.19656L51.8578 8.24543L51.8232 8.29474L51.7928 8.34841L51.7638 8.40121L51.7387 8.45837L51.7123 8.51771L51.691 8.57924L51.6716 8.6364L51.6547 8.6988L51.6404 8.75989L51.6287 8.82665L51.6209 8.89123L51.6126 8.9628L51.6066 9.02999V9.21806L51.6126 9.27741L51.6209 9.33413L51.6339 9.38868L51.6438 9.44802L51.659 9.49951L51.6988 9.59813L51.7257 9.64482L51.7513 9.69413L51.779 9.73558L51.8071 9.78096L51.8444 9.82111L51.8808 9.863L51.918 9.90096L51.9592 9.93412L52.0007 9.96249L52.0415 9.99172L52.0861 10.0192L52.1337 10.0436L52.1783 10.0668L52.226 10.0851L52.2775 10.1017L52.3273 10.1165L52.3789 10.1239L52.433 10.13L52.4932 10.1392L52.5482 10.1436H52.6097L52.7302 10.1318L52.8475 10.1239L52.9662 10.1056L53.0836 10.0768L53.204 10.0406L53.3223 10.0031L53.4431 9.94983L53.5583 9.89485L53.5033 10.4874H54.4887L54.6455 8.84498L54.6793 8.80353L54.7139 8.76556L54.7521 8.72629L54.7858 8.69226L54.8205 8.66389L54.8629 8.6364L54.8976 8.61109L54.9322 8.58404L54.9678 8.56528L55.0089 8.55088L55.0449 8.53429L55.0786 8.52208L55.1207 8.50899L55.1536 8.50855L55.2281 8.4972L55.3034 8.50331L55.3636 8.50855L55.4213 8.51466L55.4754 8.52208L55.5226 8.53429L55.5599 8.55088L55.5945 8.5692L55.6248 8.59538L55.6452 8.61502L55.669 8.64469L55.685 8.67655L55.692 8.71102L55.7089 8.79393L55.7115 8.84542V8.9004L55.7089 8.95756L55.7037 9.0121L55.6959 9.06578L55.685 9.11203L55.669 9.15087L55.6452 9.19668L55.6209 9.22723L55.5945 9.2665L55.5698 9.28963L55.5334 9.31144L55.4958 9.33893L55.4594 9.35464L55.4083 9.36686L55.3636 9.37821L55.3121 9.38039L55.2588 9.38781L55.2164 9.38039L55.1765 9.37821L55.1419 9.37559L55.0973 9.35944L55.054 9.3481L55.0106 9.33893L54.9695 9.31624L54.9296 9.29704L54.8443 10.1903L54.8746 10.2274L54.9075 10.2531L54.9322 10.271L54.9556 10.2836L54.9872 10.2932L55.0236 10.3002L55.0691 10.312H55.1181L55.17 10.3164H55.3671L55.433 10.312L55.4958 10.3068L55.5573 10.3002L55.6201 10.2893L55.6781 10.274L55.7357 10.2583L55.7933 10.2374L55.8492 10.2186L55.9016 10.1938L55.9592 10.1759L56.0116 10.1458L56.0614 10.1165L56.1138 10.0851L56.1645 10.0489L56.2113 10.01L56.2611 9.97601L56.3101 9.92583L56.356 9.88612L56.4032 9.83551L56.4448 9.78489L56.4846 9.73558L56.5201 9.68453L56.5522 9.63086L56.5842 9.57675L56.6163 9.52264L56.6367 9.46199L56.6843 9.33893L56.6969 9.27741L56.7172 9.20846L56.7393 9.0745L56.7423 9.00381L56.7501 8.93138V8.79393L56.7393 8.72629L56.7324 8.66738L56.7198 8.60542L56.7055 8.54389L56.6843 8.48368L56.6605 8.42608L56.6098 8.31481L56.5743 8.26114L56.5405 8.21139L56.505 8.15772L56.4608 8.11016L56.4144 8.06696L56.3677 8.02376L56.3239 7.97751L56.2728 7.94391L56.2239 7.9138L56.1723 7.87365L56.1173 7.85271L56.0606 7.82653L56.0038 7.79642L55.9449 7.77896L55.8821 7.76544L55.821 7.75147L55.7543 7.74144L55.6876 7.73358L55.6209 7.72922H55.5075L55.4594 7.73358L55.4083 7.73795L55.3593 7.74798L55.2614 7.76544L55.1579 7.7938L55.054 7.82914L54.9439 7.87322L54.8356 7.93212L54.7248 7.98667L54.7754 7.43992H57.3899L57.4414 6.90102H51.5871L51.5381 7.43992ZM51.6521 6.68851L51.5845 6.68066L51.5213 6.66757L51.461 6.64749L51.4043 6.62437L51.3484 6.59469L51.2943 6.5563L51.2419 6.51266L51.1947 6.46859L51.1565 6.41143L51.1397 6.38524L51.1254 6.36081L51.1085 6.32852L51.0963 6.30103L51.089 6.27005L51.0803 6.23994L51.076 6.20721L51.0721 6.17579L51.0669 6.10859L51.0721 6.04096L51.0795 5.96634L51.0963 5.90176L51.1202 5.83238L51.1479 5.77216L51.1812 5.71238L51.2267 5.65653L51.2748 5.60373L51.3307 5.5553L51.3883 5.50991L51.4511 5.47675L51.5109 5.43704L51.5754 5.41741L51.6404 5.39472L51.7071 5.37944L51.7768 5.37421H51.8444L51.9111 5.37683L51.9778 5.3873L52.0328 5.40126L52.0921 5.4257L52.1515 5.4497L52.203 5.48635L52.2546 5.52606L52.3013 5.56839L52.3425 5.61726L52.3754 5.67093L52.4062 5.72504L52.4287 5.78351L52.4434 5.83936L52.4516 5.90656V5.9694L52.4464 6.04096L52.433 6.10859L52.417 6.17318L52.3966 6.23514L52.3646 6.29579L52.3325 6.35208L52.2927 6.40183L52.2546 6.45375L52.203 6.50175L52.1489 6.5432L52.0878 6.58509L52.0328 6.61389L51.9739 6.64313L51.9137 6.66146L51.8543 6.67673L51.7894 6.68851L51.7209 6.69331L51.6521 6.68851ZM48.7725 9.20846L48.6738 9.24032L48.6227 9.2521L48.5798 9.25865L48.5399 9.25952L48.5027 9.2665L48.4308 9.26955H48.365L48.3082 9.2665L48.2506 9.25952L48.2034 9.25384L48.1575 9.24032L48.1185 9.22723L48.0899 9.21806L48.0518 9.19668L48.0241 9.16526L48.0011 9.13167L47.9808 9.0937L47.9665 9.04439L47.9595 8.99552V8.94491L47.9639 8.88382L47.9721 8.83843L47.9808 8.79393L47.9886 8.75815L48.0011 8.72193L48.0085 8.69226L48.0215 8.66389L48.0384 8.63946L48.0518 8.62244L48.083 8.59538L48.1146 8.5692L48.1449 8.54608L48.1752 8.52208L48.423 8.74942L48.8834 9.17443L48.7725 9.20846ZM51.2605 6.90102H51.0127L50.9907 6.8408L50.946 6.73695L50.9045 6.64313L50.8564 6.5432L50.8096 6.44328L50.7555 6.34728L50.7022 6.25565L50.6472 6.16096L50.5857 6.0667L50.5272 5.97856L50.4627 5.88867L50.3977 5.79791L50.3319 5.71238L50.2565 5.62424L50.1898 5.54308L50.1252 5.47675L50.0568 5.40126L49.9975 5.33974L49.9316 5.27516L49.8641 5.21668L49.7913 5.15516L49.7224 5.09974L49.6549 5.03996L48.9614 5.61202L49.0549 5.67093L49.1524 5.73333L49.2455 5.80271L49.3309 5.87296L49.4197 5.94802L49.5067 6.0283L49.5873 6.10859L49.6674 6.19674L49.7462 6.29012L49.8181 6.38524L49.8874 6.48735L49.9585 6.58989L50.0256 6.69811L50.0854 6.81025L50.1348 6.90102H49.8056L49.7887 6.86916L49.7293 6.77709L49.6609 6.67673L49.5899 6.57768L49.5067 6.48211L49.4114 6.38132L49.3057 6.27921L49.2152 6.18888L49.1134 6.10074L49.0121 6.0174L48.8977 5.93536L48.4425 6.57069L48.4849 6.57462L48.5283 6.58509L48.5677 6.59469L48.6066 6.6104L48.6396 6.62437L48.6786 6.64749L48.7132 6.67324L48.7479 6.69811L48.7777 6.72953L48.8401 6.80458L48.8917 6.88967L48.9003 6.90102H46.9767L46.9239 7.43992H49.5786L49.4374 8.91218L49.3807 8.94491L49.3452 8.9628L49.3057 8.98505L49.2715 8.99552L49.2455 9.0121L49.2252 9.02694L48.5239 8.35888L48.5924 8.34841L48.6552 8.33619H48.7132L48.7634 8.33226L48.8276 8.33619L48.8977 8.34841L48.9766 8.36193L49.0679 8.38812L49.1472 8.40906L49.2152 8.4287L49.2659 8.43917L49.3014 8.44615L49.3768 7.837L49.3581 7.81998L49.3309 7.80471L49.3049 7.7938L49.2715 7.77896L49.1923 7.76195L49.0948 7.74798L48.9766 7.72922L48.8401 7.72355L48.6837 7.71787L48.5088 7.71395H48.436L48.423 7.71744L48.365 7.71787L48.2961 7.72355L48.2285 7.72922L48.0942 7.75147L48.0306 7.76544L47.9639 7.77896L47.9011 7.79642L47.8452 7.81998L47.7819 7.84093L47.7252 7.86274L47.6685 7.88631L47.6109 7.91598L47.5576 7.94609L47.5052 7.97751L47.4437 8.02376L47.3913 8.06696L47.3328 8.11016L47.2895 8.15554L47.2431 8.20616L47.1989 8.25546L47.1608 8.31219L47.1227 8.36455L47.0933 8.42608L47.0681 8.48368L47.0374 8.55088L47.0162 8.61284L46.9984 8.6796L46.9815 8.74942L46.9707 8.82098L46.9655 8.89123L46.9603 8.9628V9.02999L46.9655 9.09458L46.9707 9.15697L46.978 9.21981L46.9958 9.27915L47.0131 9.33893L47.0322 9.39872L47.0543 9.45326L47.0824 9.50213L47.1145 9.55668L47.1526 9.60249L47.1933 9.65093L47.2336 9.69806L47.2778 9.74256L47.3302 9.78489L47.3757 9.81718L47.4216 9.84903L47.4662 9.88045L47.5182 9.90925L47.5645 9.93412L47.6195 9.95594L47.6685 9.97907L47.7183 9.99172L47.775 10.01L47.8283 10.0244L47.8876 10.0349L47.9444 10.0436L48.0028 10.0519L48.0618 10.0576H48.1813L48.3511 10.0489L48.423 10.0406H48.4308L48.5144 10.0319L48.5924 10.0192L48.6695 10.01L48.7479 9.99172L48.8189 9.97907L48.8917 9.95594L48.9631 9.93936L49.0324 9.9158L49.1026 9.89354L49.1702 9.86474L49.2351 9.83551L49.2971 9.80322L49.3581 9.7766L49.2936 10.4874H50.269L50.5601 7.43992H51.199L51.2445 7.04545L51.2605 6.90102ZM33.3337 6.90102H45.9667L45.9155 7.43992H44.9921L44.9258 8.07656L44.9765 8.12499L45.0137 8.16994L45.0856 8.27117L45.1138 8.33226L45.1398 8.38812L45.1601 8.45793L45.1822 8.52208L45.1983 8.59538L45.2091 8.66389L45.2195 8.74462L45.2256 8.82491L45.2294 8.90782L45.2256 8.9881L45.2195 9.07756L45.2108 9.17443L45.2061 9.25384L45.1913 9.33413L45.1714 9.40919L45.1584 9.48337L45.1359 9.56104L45.1138 9.63086L45.0856 9.70067L45.0536 9.77354L45.0233 9.83551L44.9834 9.90314L44.9505 9.96598L44.9055 10.0301L44.86 10.0903L44.8149 10.1488L44.7625 10.2055L44.7136 10.2583L44.6603 10.312L44.6044 10.3635L44.5451 10.4071L44.487 10.4477L44.4351 10.4883L44.3744 10.5249L44.3134 10.5555L44.2566 10.5839L44.196 10.6074L44.1332 10.6323L44.0699 10.6559L44.008 10.6685L43.9461 10.6812L43.8793 10.6881L43.7498 10.6973H43.5857L43.441 10.6881L43.3176 10.6794L43.2101 10.6663L43.1595 10.6563L43.1162 10.6489L43.0785 10.6323L43.043 10.6275L43.0174 10.6074L42.991 10.5996L42.9711 10.5839L42.9533 10.5673L43.0235 9.81718L43.043 9.83551L43.0798 9.85863L43.1478 9.87652L43.2348 9.90096L43.3297 9.92147L43.4142 9.93412L43.4952 9.93936H43.5731L43.6307 9.93412L43.6875 9.92147L43.7381 9.90314L43.7836 9.88612L43.8793 9.82111L43.9183 9.78489L43.9564 9.73558L43.9902 9.68627L44.0223 9.63086L44.0513 9.57151L44.0773 9.50213L44.0994 9.43362L44.1197 9.35464L44.1358 9.26955L44.1483 9.17966L44.1587 9.09938L44.167 9.02694V8.95451L44.1613 8.88992L44.1561 8.82665L44.141 8.77036L44.1288 8.72193L44.1128 8.67655L44.0977 8.65124L44.0808 8.62724L44.0639 8.61109L44.0513 8.58578L44.0301 8.5692L44.0106 8.55262L43.9902 8.53822L43.969 8.52644L43.9461 8.51466L43.9183 8.50331L43.8962 8.49546L43.8668 8.48848L43.8066 8.48368H43.7442H43.6875L43.6385 8.49546L43.5883 8.50899L43.5428 8.53429L43.4995 8.56266L43.4549 8.59538L43.4142 8.6364L43.3743 8.68222L43.3371 8.7468L43.3015 8.80353L43.2829 8.86462L43.2587 8.91218L43.2262 9.24032H42.301L42.3404 8.84891L42.333 8.80353L42.3213 8.75989L42.3118 8.72193L42.2923 8.69226L42.262 8.65691L42.2347 8.63073L42.1944 8.61109L42.1563 8.58578L42.1078 8.57051L42.058 8.56266L42.003 8.55262L41.9436 8.55088H41.8769L41.8128 8.56266L41.7864 8.56528L41.7604 8.57924L41.7331 8.58404L41.708 8.59538L41.6807 8.61284L41.6552 8.62724L41.6326 8.64557L41.6123 8.66738L41.5928 8.68833L41.5716 8.71102L41.5538 8.73371L41.5352 8.75989L41.5114 8.80353L41.4936 8.8572L41.4711 8.91218L41.4516 8.97458L41.4347 9.04439L41.42 9.11857L41.4039 9.20235L41.3923 9.28963L41.3879 9.37821L41.3832 9.4585L41.3879 9.53268L41.3966 9.60773L41.4143 9.67449L41.4377 9.73558L41.4516 9.76307L41.4659 9.79536L41.4836 9.82111L41.5023 9.8486L41.5395 9.88962L41.5794 9.92583L41.6188 9.95594L41.6612 9.97907L41.708 9.99172L41.7492 10.0092L41.7998 10.01H41.8475L41.8947 10.0031L41.9497 9.9891L42.0082 9.97078L42.0714 9.94983L42.1368 9.92583L42.2044 9.89354L42.2789 9.85863L42.3642 9.81718L42.2824 10.6323L42.262 10.6515L42.2408 10.6663L42.2131 10.6794L42.1849 10.6881L42.1078 10.7135L42.0259 10.7313L41.9168 10.7475L41.8068 10.7562L41.6738 10.7623L41.53 10.7654L41.3992 10.7562L41.3372 10.7536L41.2762 10.7388L41.2173 10.72L41.1623 10.7056L41.1029 10.6812L40.9929 10.6275L40.9362 10.5926L40.8872 10.5555L40.8365 10.518L40.7906 10.4748L40.7503 10.4259L40.6962 10.3722L40.6104 10.2692L40.571 10.2064L40.5351 10.1458L40.5013 10.0851L40.4684 10.0192L40.4441 9.95594L40.4212 9.88962L40.3999 9.81718L40.3848 9.74736L40.3705 9.67624L40.3592 9.60249L40.3544 9.52875L40.3519 9.4537L40.3467 9.37821L40.3519 9.29617L40.3592 9.21806L40.3635 9.13559L40.3752 9.05312L40.393 8.97458L40.4125 8.89909L40.4363 8.82491L40.4593 8.75029L40.4905 8.68222L40.5199 8.61502L40.5901 8.48368L40.6325 8.4191L40.6758 8.36193L40.7239 8.30303L40.772 8.24892L40.8261 8.19656L40.8803 8.14201L40.9362 8.09576L40.9868 8.05605L41.0436 8.02027L41.0969 7.98187L41.1545 7.94609L41.2121 7.91598L41.2714 7.88631L41.3338 7.86798L41.3923 7.84703L41.4533 7.82827L41.5174 7.81256L41.5824 7.7938L41.6426 7.78464L41.7093 7.77765L41.779 7.77504L41.8449 7.76849L41.9311 7.77504L42.0134 7.77765L42.0926 7.78464L42.1628 7.79642L42.2356 7.81431L42.3075 7.84093L42.3768 7.86274L42.4439 7.89547L42.4998 7.93212L42.5613 7.96921L42.6163 8.01547L42.6713 8.06696L42.7194 8.11016L42.7714 8.16994L42.8134 8.23015L42.8567 8.29474L42.9117 8.22623L42.981 8.14201L43.0663 8.04994L43.1712 7.94391L43.2418 7.90027L43.3067 7.86798L43.3743 7.84093L43.4354 7.81256L43.4995 7.7938L43.5588 7.77896L43.6156 7.77504L43.6706 7.76849L43.7381 7.77504L43.8066 7.77765L43.8768 7.78464L43.9556 7.79642L43.9902 7.43992H39.713L39.6155 8.43437H38.3737L38.2892 8.45837L38.2139 8.48368L38.1463 8.51466L38.077 8.54608L38.0177 8.58404L37.9644 8.62244L37.9128 8.65691L37.8661 8.70273L37.8314 8.75029L37.7868 8.79829L37.7556 8.8572L37.7326 8.91218L37.7123 8.97152L37.6945 9.03698L37.6828 9.09458L37.6776 9.16526V9.2665L37.6802 9.29617L37.6893 9.32846L37.6945 9.35464L37.7088 9.38039L37.7214 9.40875L37.7361 9.43537L37.7495 9.46199L37.7708 9.48337L37.7868 9.50999L37.8128 9.53268L37.8366 9.55318L37.8587 9.57675L37.8907 9.59813L37.9414 9.62606L37.999 9.65311L38.061 9.68322L38.1251 9.70067L38.1926 9.71682L38.2637 9.72511L38.3382 9.72991L38.4235 9.73558L38.4837 9.72991H38.5439L38.6098 9.72511L38.6717 9.71682L38.7358 9.70373L38.7977 9.69413L38.8545 9.67624L38.916 9.66315L38.9779 9.63915L39.0364 9.62475L39.0944 9.59813L39.159 9.57151L39.214 9.54664L39.2729 9.51348L39.3296 9.4825L39.3872 9.44802L39.47 9.39872L39.5414 9.3481L39.6012 9.30577L39.6554 9.2665L39.6943 9.22286L39.729 9.19014L39.7424 9.15697L39.7589 9.13167L40.0014 10.0349L39.8841 10.1239L39.7554 10.2007L39.619 10.2828L39.4786 10.3535L39.3374 10.4111L39.201 10.4678L39.0615 10.511L38.916 10.5555L38.7748 10.5839L38.7306 10.5943L39.7628 11.8406L39.0555 12.4144L38.2104 11.2921L37.2285 12.2311L36.6143 11.6372L37.8171 10.6183L37.7708 10.6074L37.6218 10.5673L37.5525 10.545L37.4832 10.518L37.4186 10.4874L37.3502 10.4477L37.2861 10.4159L37.2241 10.3718L37.1613 10.3286L37.0981 10.2828L37.0362 10.2186L36.9746 10.1654L36.924 10.1056L36.8763 10.0406L36.8334 9.97601L36.7979 9.90925L36.7624 9.83551L36.7369 9.76307L36.7122 9.68453L36.6953 9.60773L36.6818 9.52875L36.674 9.44802L36.671 9.35857V9.27435L36.6775 9.17966L36.6862 9.08367L36.7039 8.99334L36.7252 8.90782L36.7503 8.82098L36.7802 8.73371L36.8105 8.65386L36.8486 8.57924L36.8958 8.4972L36.9456 8.4287L36.995 8.35888L37.0509 8.29386L37.1159 8.23015L37.1808 8.16819L37.2545 8.11016L37.3281 8.05125L37.4069 8.00718L37.5169 7.94391L37.6226 7.88631L37.7361 7.84093L37.8383 7.80471L37.9414 7.77504L38.0454 7.75147L38.0948 7.74798L38.1463 7.73795H38.1926L38.2433 7.73358H38.7163L38.7436 7.43992H32.9867L32.7008 10.4874H31.7185L31.8311 9.27915H30.8877L30.9497 8.5692H31.8978L32.0044 7.43992H30.8834L30.9115 7.46871L30.9336 7.51017L30.9553 7.54639L30.973 7.58042L30.9951 7.61664L31.0094 7.65766L31.0207 7.69344L31.0324 7.73795L31.0393 7.77896L31.0493 7.82653L31.0579 7.86798V7.9138L31.0597 7.96267V8.00718L31.0579 8.05605L31.0519 8.11016L31.0393 8.17648L31.0281 8.25546L31.0172 8.32092L31.0047 8.3855L30.9808 8.45008L30.9605 8.51466L30.9336 8.57051L30.9055 8.63073L30.876 8.68833L30.8479 8.74462L30.8115 8.79218L30.776 8.83843L30.7396 8.88382L30.695 8.93138L30.6543 8.97152L30.6036 9.01123L30.5603 9.04439L30.5131 9.07756L30.4632 9.10767L30.4165 9.13559L30.3641 9.15697L30.3151 9.17966L30.254 9.20235L30.1982 9.21806L30.1423 9.23421L30.0808 9.24337L30.0232 9.25865L29.9595 9.25952L29.8919 9.26955H29.7616L29.6914 9.2665L29.684 9.32846V9.38868L29.6914 9.44802L29.7065 9.50999L29.726 9.56977L29.7499 9.62475L29.7854 9.67624L29.8226 9.73558L29.859 9.76307L29.9015 9.79274L29.9539 9.81063L30.0123 9.82896L30.0712 9.84336L30.1423 9.85383L30.2159 9.85863L30.2965 9.863L30.4165 9.85863L30.5408 9.8486L30.6772 9.82896L30.8193 9.80322L30.9336 9.78489L31.0172 9.77354L31.0618 9.75914L31.0796 9.75871L31.0055 10.511L31.0172 10.518V10.5201L31.0055 10.5249L30.9808 10.5337L30.8972 10.5516L30.7669 10.5743L30.6837 10.5926L30.6001 10.5996L30.5187 10.6074L30.4377 10.6201L30.3597 10.6275L30.2761 10.6314H30.1917L30.1085 10.6323L29.9807 10.6314L29.8512 10.6223L29.7347 10.6074L29.623 10.5926L29.5147 10.5703L29.4168 10.545L29.3236 10.5092L29.2431 10.4748L29.2015 10.4477L29.1638 10.4276L29.1266 10.4071L29.0902 10.3879L29.0594 10.3535L29.0308 10.3286L28.9997 10.3002L28.9715 10.274L28.9165 10.213L28.8979 10.1759L28.8775 10.1436L28.8541 10.1069L28.8372 10.0694L28.8203 10.0319L28.8108 9.99172L28.7736 9.88045L28.7415 9.76613L28.7203 9.65311L28.7138 9.54053L28.7017 9.41966L28.7077 9.30577L28.7142 9.18577L28.732 9.07014H28.3937L28.4556 8.42608H29.2379L29.2929 8.43219L29.3414 8.43917L29.3938 8.44615H29.4454L29.5705 8.43437L29.6255 8.42608L29.6797 8.40732L29.726 8.38812L29.7711 8.36455L29.8144 8.33619L29.8512 8.30564L29.8885 8.27117L29.9209 8.23583L29.9478 8.19045L29.969 8.13765L29.9903 8.09008L30.0071 8.03118L30.0188 7.96921L30.0292 7.9042L30.0314 7.84093L30.0292 7.77765L30.0232 7.72355L30.0071 7.669L29.995 7.645L29.9816 7.61969L29.969 7.6018L29.9565 7.58042L29.9175 7.54639L29.8971 7.52719L29.8742 7.51104L29.8226 7.48006L29.7711 7.45431H29.7429L29.7239 7.44777L29.6975 7.43992H28.3881L28.4396 6.90102H32.3167L32.2963 6.85127L32.2521 6.76138L32.2049 6.67324L32.156 6.58989L32.1018 6.51004L32.0451 6.43717L31.9831 6.36081L31.9156 6.28445L31.8471 6.22074L31.7016 6.09289L31.6219 6.03747L31.5357 5.97943L31.4469 5.92969L31.3572 5.8782L31.2659 5.83238L31.9004 5.25988L31.9615 5.28519L32.023 5.31966L32.0906 5.3537L32.1516 5.3873L32.2118 5.43312L32.2707 5.47675L32.3353 5.52126L32.3959 5.56839L32.4665 5.62948L32.535 5.69973L32.6025 5.76431L32.6727 5.83936L32.7338 5.9166L32.8005 5.99776L32.8581 6.075L32.9231 6.16096L33.0383 6.33855L33.0924 6.43717L33.15 6.53579L33.2033 6.63135L33.2566 6.73695L33.3055 6.84822L33.3337 6.90102ZM36.1963 8.61284L36.1859 8.56528L36.1699 8.51771L36.1564 8.48368L36.143 8.44615L36.1244 8.41604L36.1032 8.38812L36.0845 8.37241L36.0651 8.35452H35.2291L35.2564 8.37241L35.2741 8.38812L35.2971 8.40906L35.314 8.43437L35.3291 8.4636L35.3408 8.49546L35.356 8.52644L35.3673 8.55524L35.3764 8.59538L35.3807 8.63073L35.3816 8.67044L35.3876 8.7132L35.3816 8.8092L35.369 8.91218L35.3673 8.94491L35.356 8.97458L35.346 9.00818L35.3335 9.03829L35.3157 9.06578L35.2988 9.08934L35.2785 9.10767L35.2564 9.13167L35.2014 9.16526L35.1702 9.17443L35.1394 9.18577L35.1056 9.19799L35.0272 9.20497L34.9848 9.20846L34.9553 9.20497L34.9246 9.20235L34.8969 9.19668L34.8748 9.17574L34.8471 9.16526L34.8224 9.14476L34.7968 9.11857L34.7782 9.0937L34.7557 9.06578L34.7379 9.03698L34.7236 9.00818L34.7132 8.97458L34.6998 8.94578L34.6963 8.91567L34.6877 8.88992V8.79218L34.6972 8.73371L34.7063 8.67655L34.721 8.62244L34.7379 8.57051L34.7604 8.52993L34.7869 8.48848L34.8154 8.45008L34.8497 8.4191L34.8865 8.3951L34.9307 8.37241L34.9761 8.34928L35.0272 8.33619L35.0797 8.32877L35.1394 8.32092H36.995L37.0483 7.76544H34.9696L34.8865 7.76849L34.8098 7.77504L34.7336 7.78464L34.6608 7.7938L34.5889 7.81256L34.5213 7.82914L34.4551 7.85445L34.3884 7.88151L34.3173 7.91598L34.2506 7.95743L34.1822 7.9954L34.1246 8.04078L34.0678 8.0927L34.0128 8.14201L33.9656 8.20223L33.9171 8.26114L33.8755 8.32877L33.84 8.3951L33.808 8.4636L33.7759 8.54389L33.7482 8.62244L33.7287 8.70273L33.7109 8.79087L33.6932 8.87902L33.6914 8.93356L33.6836 8.99334L33.6828 9.05181L33.6836 9.10592L33.6914 9.15697L33.6979 9.21632L33.7109 9.2665L33.7244 9.31144L33.7404 9.35944L33.7607 9.40919L33.7846 9.4585L33.8106 9.50431L33.837 9.54926L33.8673 9.59246L33.9028 9.63391L33.9444 9.67624L33.9838 9.72424L34.0254 9.75914L34.0739 9.80278L34.1203 9.83202L34.1701 9.86474L34.2251 9.89354L34.2766 9.92147L34.3377 9.94241L34.3944 9.96249L34.4577 9.98343L34.5213 9.99827L34.5837 10.01L34.6491 10.0192L34.721 10.0301L34.7955 10.0319L34.8687 10.0349H34.935L35 10.0319L35.0619 10.0301L35.1217 10.0153L35.1853 10.01L35.2447 9.99172L35.3053 9.97907L35.3655 9.96249L35.4179 9.93936L35.4764 9.9158L35.5332 9.88962L35.5847 9.863L35.6354 9.82896L35.6861 9.79536L35.735 9.75914L35.787 9.72424L35.8351 9.68322L35.8784 9.6374L35.9169 9.59813L35.9576 9.55318L35.994 9.50431L36.0243 9.4585L36.059 9.40919L36.0897 9.36686L36.1127 9.31624L36.137 9.26955L36.153 9.21806L36.1699 9.16526L36.1894 9.11203L36.1998 9.06098L36.2063 9.00818L36.2158 8.94578L36.2201 8.8668V8.77647L36.2115 8.6988L36.1963 8.61284Z" fill="white"/>
<path fill-rule="evenodd" clip-rule="evenodd" d="M2.21777 21.7659H21.6073V2.23459H2.21777V21.7659Z" fill="white"/>
<path fill-rule="evenodd" clip-rule="evenodd" d="M18.331 11.8719L14.496 8.11012L13.5755 8.11754H12.0444V7.66897L13.5755 7.65762L14.5154 7.64497L18.6286 11.8309L18.331 11.8719ZM17.077 11.8959L14.496 9.38865H13.5755L12.0478 9.39606L12.047 8.94487L13.5755 8.93135L14.5163 8.92087L17.3742 11.8523L17.077 11.8959ZM13.5755 17.4324L12.1605 18.8384L12.1145 18.5399L13.5755 17.0375L15.8573 14.6821V12.2123H16.2987L16.3208 14.7043L13.5755 17.4324ZM13.5755 15.7411L14.5873 14.6821V12.2123H15.03L15.0525 14.7043L13.5755 16.1604L12.1375 17.576L12.0968 17.2801L13.5755 15.7411ZM10.388 12.828L9.57504 11.9697L10.388 11.1677L12.0578 9.5261L13.5755 11.1314L14.4513 12.0578L13.5755 12.9227L11.9664 14.5023L10.388 12.828ZM10.388 16.4934L9.4464 16.5004L5.33589 12.3183L5.63086 12.2747L9.46589 16.0348H10.388L11.9157 16.0317V16.4777L10.388 16.4934ZM6.8796 12.2542L9.46416 14.7563L10.388 14.7554L11.9157 14.7523V15.2013L10.388 15.2175L9.4412 15.2288L6.5855 12.2956L6.8796 12.2542ZM11.8625 6.86913L10.388 8.40728L9.3745 9.46195V11.9309H8.93053L8.91104 9.4445L10.388 7.98664L11.8243 6.56848L11.8625 6.86913ZM10.388 6.71335L11.804 5.31003L11.8447 5.60632L10.388 7.11043L8.10626 9.46195V11.9309H7.66142L7.6428 9.4445L10.388 6.71335ZM14.5986 6.88266V4.16678L11.8711 4.17551L10.388 5.74246L6.91859 9.42137H4.31238V12.0871L9.34981 17.3334V19.9122H11.9149L13.5755 18.2397L16.9908 14.796H19.5096V11.8719L14.5986 6.88266Z" fill="#CE0F3E"/>
</svg>
