<svg width="270" height="69" viewBox="0 0 270 69" fill="none" xmlns="http://www.w3.org/2000/svg">
<g clip-path="url(#clip0_4_977)">
<path d="M0 68.75H68.24V0H0V68.75Z" fill="#176FC1"/>
<path d="M70 68.75H269.72V0.140015H70V68.75Z" fill="#176FC1"/>
<path d="M252.9 49.47V49.68V49.9V50.11L252.82 50.32L252.76 50.52L252.67 50.72L252.56 50.89L252.46 51.08L252.33 51.24L252.19 51.4L252.04 51.53L251.87 51.65L251.79 51.72L251.69 51.77H251.61L251.53 51.82H251.42L251.33 51.87H251.22H251.12H250.94H250.62H250.41H250.32H250.24H250.15H250.06H249.99L249.9 51.82H249.83L249.77 51.77L249.7 51.7L249.63 51.64L249.58 51.58V51.51L249.52 51.45L249.43 51.29L249.36 51.13L249.3 50.94V50.77V50.16V49.95L249.36 49.73V49.52L249.44 49.33L249.54 49.15L249.63 48.96L249.75 48.78L249.89 48.64L250.03 48.47L250.18 48.31L250.34 48.19L250.42 48.14L250.51 48.08L250.61 48.03L250.7 47.98H250.78H250.9H250.98H251.09H251.26H251.59H251.71H251.79H251.89H251.95H252.05H252.13H252.21L252.29 48.04H252.36L252.41 48.11L252.49 48.17H252.54V48.26L252.59 48.33L252.67 48.48L252.75 48.65V48.83V49.02V49.4L252.9 49.47ZM253.64 45.2L253.47 46.13L253.39 46L253.3 45.86L253.21 45.76L253.12 45.64L252.99 45.55L252.89 45.44L252.77 45.36L252.62 45.29L252.48 45.22L252.36 45.14L252.22 45.09L252.07 45.03H251.94H251.79H251.64H251.48H250.94H250.73H250.51H250.3H250.08L249.89 45.1L249.67 45.17L249.47 45.27L249.26 45.35L249.08 45.46L248.87 45.6L248.7 45.72L248.5 45.86L248.33 46.02L248.14 46.19L247.98 46.37L247.78 46.55L247.64 46.75L247.48 46.95L247.33 47.15L247.2 47.36L247.06 47.57L246.92 47.77L246.82 47.98L246.71 48.21L246.63 48.43L246.53 48.65L246.43 48.89V49.12L246.35 49.38L246.28 49.61V49.87V50.1V50.35V50.59V51.51L246.33 51.72V51.95L246.39 52.17V52.36L246.46 52.58L246.55 52.79L246.61 52.97L246.71 53.16L246.82 53.35L246.92 53.53L247.04 53.69L247.18 53.85L247.32 54L247.45 54.13L247.6 54.26L247.76 54.36L247.92 54.47L248.1 54.55L248.27 54.63L248.45 54.69L248.64 54.75H248.83H249.07H249.28H249.5H249.62H249.69H249.91H250.08H250.25L250.39 54.7H250.57L250.74 54.65L250.92 54.56L251.06 54.49H251.14L251.23 54.44L251.39 54.34L251.54 54.24L251.67 54.13L251.81 54.01L251.94 53.87L252.08 53.71L252.18 53.56L251.98 54.56H254.86L256.59 45.21L253.64 45.2ZM246.23 42.5L246.32 42.33L246.4 42.17L246.48 42L246.53 41.81L246.59 41.59V40.87V40.72L246.53 40.55L246.47 40.41L246.38 40.28L246.27 40.14L246.18 40.04L246.06 39.93L245.93 39.86L245.8 39.79H245.66H245.51H245.19H245.02H244.85L244.71 39.85L244.56 39.94L244.4 40.03L244.25 40.14L244.1 40.27L243.96 40.41L243.85 40.55L243.73 40.72L243.65 40.88L243.55 41.05L243.49 41.23L243.42 41.4V41.6V41.78V41.97V42.14V42.3V42.47L243.48 42.61L243.55 42.76L243.65 42.91L243.75 43.04L243.83 43.15L243.97 43.25L244.08 43.32L244.23 43.39H244.37H245H245.16L245.31 43.32L245.47 43.25L245.63 43.15L245.77 43.04L245.9 42.91L246.05 42.76L246.18 42.61L246.23 42.5ZM241.14 54.5L242.85 45.15H245.76L244.02 54.59L241.14 54.5ZM237.46 49.42V49.63V49.85L237.4 50.06L237.34 50.27L237.27 50.47L237.19 50.67L237.08 50.84L236.95 51.03L236.84 51.19L236.7 51.35L236.53 51.48L236.38 51.6L236.28 51.67L236.22 51.72H236.12L236.02 51.77H235.93L235.83 51.82H235.75H235.64H235.48H235.05H234.97H234.84H234.74H234.59H234.49H234.43L234.34 51.77H234.28L234.21 51.72L234.16 51.65L234.08 51.59L234.02 51.53V51.46L233.97 51.4L233.89 51.24L233.8 51.08L233.75 50.89V50.72V50.53V50.33V50.11V49.9L233.8 49.68L233.85 49.47L233.94 49.28L234.02 49.1L234.12 48.91L234.23 48.73L234.37 48.59L234.51 48.42L234.67 48.26L234.84 48.14L234.93 48.09L235.01 48.03L235.09 47.98L235.18 47.93H235.28H235.37H235.49H235.56H235.73H236.17H236.27H236.37H236.45H236.55H236.64H236.71H236.79L236.86 47.99H236.91L236.98 48.06L237.04 48.12H237.11L237.16 48.21V48.28L237.24 48.43L237.32 48.6L237.37 48.78V48.97V49.16L237.46 49.42ZM239.24 39.37L238.01 46.08L237.94 45.95L237.85 45.81L237.77 45.71L237.65 45.59L237.43 45.39L237.31 45.31L237.17 45.24L237.04 45.17L236.91 45.09L236.76 45.04L236.63 44.98H236.48L236.18 44.92H236.04H235.51H235.29H235.05H234.85H234.63L234.42 44.99L234.22 45.06L234.02 45.16L233.81 45.24L233.62 45.35L233.42 45.49L233.23 45.61L233.06 45.75L232.87 45.91L232.69 46.08L232.51 46.26L232.34 46.44L232.17 46.64L232.03 46.84L231.87 47.04L231.74 47.25L231.59 47.59L231.48 47.79L231.37 48L231.25 48.23L231.14 48.45L231.07 48.67L230.97 48.91L230.91 49.14L230.83 49.4L230.77 49.63V49.89V50.12V50.37V50.61V51.31V51.53V51.74L230.82 51.97L230.87 52.19L230.92 52.38L230.99 52.6L231.06 52.81L231.14 52.99L231.23 53.18L231.34 53.37L231.46 53.55L231.59 53.71L231.7 53.87L231.84 54.02L231.98 54.15L232.13 54.28L232.28 54.38L232.44 54.49L232.62 54.57L232.79 54.65L232.99 54.71L233.18 54.77H233.38H233.59H233.81H234.01H234.16H234.39H234.54H234.71L234.89 54.72H235.05L235.21 54.67L235.37 54.58L235.56 54.51H235.61L235.72 54.46L235.86 54.36L236.02 54.26L236.14 54.15L236.29 54.03L236.42 53.89L236.54 53.73L236.68 53.58L236.48 54.58H239.38L242.15 39.45L239.24 39.37ZM229.59 47.04V47.96V48.37V48.59V48.79L228.46 54.59H225.59L226.42 50.02V49.91V49.83V49.59V49.49V49.32V49.13V48.99V48.59V48.46V48.33V48.2V48.08V48.03V47.96V47.91H226.35H226.29L226.18 47.85H226.04H225.88H225.4H225.29H225.21H225.11H225.03L224.95 47.9H224.87H224.8L224.73 47.95L224.64 48.01L224.59 48.08L224.52 48.15L224.46 48.22L224.41 48.29L224.31 48.46L224.21 48.64L224.12 48.81L224.03 49L223.96 49.19L223.9 49.38V49.6V49.81L222.79 54.59H219.9L221.61 45.24H224.5L224.27 46.43L224.45 46.23L224.62 46.06L224.78 45.88L224.94 45.73L225.12 45.6L225.29 45.47L225.45 45.36L225.63 45.27L225.8 45.2L225.97 45.13L226.16 45.07H226.35H226.54H226.73H226.94H227.54H227.74H227.91L228.06 45.12L228.23 45.17L228.37 45.23H228.52L228.63 45.32L228.75 45.39L228.86 45.49L229.08 45.69L229.16 45.81L229.23 45.92L229.29 46.05L229.36 46.19L229.41 46.32V46.48L229.46 46.62V46.78V46.95V47.11L229.59 47.04ZM217.35 40.81L214.82 54.59H217.94L220.46 40.85L217.35 40.81ZM210.84 39.42L210.7 39.37H210.56H210.4H210.27H209.73H209.52H209.32H209.12L208.91 39.45L208.73 39.5L208.5 39.57L208.31 39.66L208.11 39.77L207.92 39.88L207.72 40L207.54 40.13L207.36 40.28L207.18 40.43L207 40.6L206.84 40.78L206.75 40.85L206.68 40.94L206.62 41.03L206.56 41.09L206.49 41.18L206.43 41.26L206.37 41.35L206.32 41.41L206.21 41.58L206.12 41.72L206.03 41.87L205.96 42.03L205.89 42.2L205.84 42.35L205.77 42.5V42.65L205.69 42.98L205.6 43.32L205.53 43.67L205.46 44.04L205.24 45.23H204.24L203.73 47.96H204.73L203.48 54.59H206.38L207.6 47.97H209.6L210.11 45.24H208.11L208.37 43.75L208.42 43.55V43.38L208.47 43.2L208.53 43.04L208.59 42.91L208.65 42.78L208.73 42.65L208.78 42.55L208.86 42.45L208.94 42.39L209.04 42.32H209.14L209.26 42.26H209.36H209.5H209.82H209.91H209.99H210.08H210.15H210.24L210.33 42.31H210.39H210.46H210.53H210.59L211.11 39.48L210.99 39.41L210.84 39.32V39.42ZM199.77 49.47V49.68V49.9V50.11L199.72 50.32L199.63 50.52L199.54 50.72L199.44 50.89L199.33 51.08L199.07 51.4L198.91 51.53L198.74 51.65L198.66 51.72L198.58 51.77H198.49L198.39 51.82H198.3L198.2 51.87H198.12H198H197.82H197.39H197.32H197.22H197.12H197.03H196.94H196.86L196.78 51.82H196.72L196.65 51.77L196.58 51.7L196.52 51.64L196.47 51.58L196.36 51.45L196.26 51.29L196.2 51.13L196.15 50.94V50.77V50.58V50.16V49.95L196.2 49.73L196.26 49.52L196.33 49.33L196.41 49.15L196.51 48.96L196.63 48.78L196.77 48.64L196.91 48.47L197.07 48.31L197.23 48.19L197.32 48.14L197.39 48.08L197.49 48.03L197.59 47.98H197.67H197.77H197.86H197.96H198.14H198.57H198.66H198.76H198.85H198.94H199.01H199.1H199.17L199.26 48.04H199.32L199.4 48.11L199.45 48.17L199.51 48.26L199.56 48.33L199.63 48.48L199.69 48.65L199.76 48.83V49.02V49.21V49.4L199.77 49.47ZM202.85 48.26V48.02L202.8 47.78L202.75 47.56L202.69 47.34L202.6 47.13L202.5 46.92L202.41 46.74L202.28 46.55L202.14 46.38L201.99 46.2L201.84 46.06L201.68 45.9L201.52 45.76L201.35 45.63L200.99 45.42L200.79 45.31L200.59 45.23L200.39 45.15L200.18 45.08L199.97 45.02H199.75H199.54H199.3H198.82H198.59H198.34H198.1H197.92H197.67L197.45 45.08L197.21 45.14L196.98 45.22L196.52 45.41L196.31 45.51L196.08 45.63L195.87 45.75L195.64 45.89L195.43 46.05L195.2 46.19L195 46.37L194.82 46.54L194.62 46.73L194.43 46.91L194.27 47.12L194.11 47.33L193.96 47.55L193.68 48.01L193.58 48.25L193.47 48.52L193.37 48.75L193.27 49.03L193.19 49.31L193.13 49.58L193.07 49.89V50.19V50.48V50.75V51.27V51.52V51.77L193.12 52.01L193.19 52.23L193.26 52.45L193.34 52.64L193.43 52.85L193.55 53.05L193.66 53.22L193.79 53.4L193.94 53.56L194.09 53.72L194.25 53.86L194.43 54L194.61 54.13L194.79 54.24L194.96 54.35L195.17 54.43L195.37 54.53L195.56 54.6L195.77 54.68H195.97L196.19 54.73H196.42H196.66H196.9H197.13H197.38H197.62H197.85H198.04L198.29 54.68H198.53L198.59 54.59L198.83 54.51L199.05 54.42L199.29 54.34L199.5 54.23L199.94 53.99L200.16 53.85L200.39 53.69L200.59 53.54L201 53.21L201.19 53.02L201.37 52.84L201.53 52.62L201.69 52.41L201.84 52.21L201.98 51.97L202.1 51.75L202.23 51.5L202.35 51.25L202.44 51L202.53 50.72L202.61 50.47L202.67 50.16L202.79 49.57V49.3V49.02V48.24L202.85 48.26ZM184.67 45.15L181.07 48.53L182.75 39.37H179.89L177.12 54.49H179.98L180.69 50.69L183.13 54.49H187.13L183.74 49.49L188.6 45.19L184.67 45.15ZM176.33 47V46.83V46.66V46.51V46.35V46.2L176.28 46.07L176.22 45.94L176.16 45.8L176.08 45.68L175.99 45.56L175.9 45.47L175.79 45.36L175.69 45.27L175.56 45.2L175.43 45.12L175.29 45.06L175.14 45.01L174.98 44.96H174.83H174.65H174.47H174.27H173.86H173.67H173.46H173.28H173.09L172.9 45.01L172.55 45.16L172.37 45.25L172.2 45.36L172.04 45.48L171.87 45.62L171.7 45.77L171.53 45.95L171.37 46.13L171.21 46.32H171.16L171.4 45.13H168.51L166.8 54.47H169.67L170.56 49.64V49.43L170.62 49.22L170.67 49.02L170.76 48.82L170.83 48.64L170.92 48.47L171 48.29L171.12 48.12L171.17 48.04L171.29 47.9L171.36 47.85L171.43 47.78H171.5H171.57L171.66 47.73H171.75H171.83H171.92H172.01H172.11H172.6H172.75H172.9L173.02 47.79H173.07H173.12L173.17 47.84V47.9V47.95V48.01V48.13V48.26V48.39V48.52V48.92V49.06V49.15V49.25V49.33V49.43V49.5V49.6V49.68V49.78V49.93L172.34 54.48H175.22L176.29 48.72V48.52V48.3V48.11V47.9V47.72V47.52V47.34V47.16V46.99L176.33 47ZM162.82 49.42V49.62V49.84L162.77 50.06L162.7 50.27L162.63 50.47L162.54 50.67L162.44 50.85L162.33 51.02L162.2 51.17L162.06 51.34L161.9 51.48L161.74 51.6L161.65 51.66L161.58 51.72H161.48L161.38 51.77H161.29H161.21H161.1H161H160.83H160.62H160.51H160.31H160.21H160.11H160.04H159.95H159.87L159.78 51.72H159.72L159.66 51.66L159.59 51.59L159.53 51.54L159.46 51.47L159.4 51.4V51.33L159.31 51.19L159.24 51.01L159.19 50.84V50.66V50.48V50.26V50.06V49.83V49.62L159.24 49.42L159.33 49.23L159.42 49.04L159.52 48.87L159.62 48.68L159.76 48.52L159.91 48.36L160.06 48.21L160.23 48.08L160.31 48.02L160.39 47.97L160.49 47.92H160.58H160.67H160.77H160.87H160.99H161.17H161.59H161.7H161.79H161.88H161.97H162.06L162.14 47.97H162.22L162.28 48.02L162.36 48.08L162.41 48.14L162.48 48.2L162.54 48.25V48.34L162.59 48.4L162.68 48.57L162.75 48.73L162.8 48.9V49.1V49.48L162.82 49.42ZM163.39 46.07L163.31 45.94L163.22 45.81L163.13 45.71L163.02 45.6L162.93 45.49L162.8 45.38L162.68 45.31L162.54 45.23L162.41 45.16L162.27 45.09L162.14 45.03H161.99H161.85H161.7H161.55H161.41H161.32H160.87H160.64H160.43H160.21L160 45.08L159.8 45.14L159.59 45.22L159.38 45.31L159.18 45.4L158.99 45.51L158.79 45.64L158.61 45.77L158.42 45.92L158.24 46.08L158.06 46.25L157.88 46.42L157.71 46.6L157.55 46.79L157.4 47L157.24 47.2L157.1 47.4L156.98 47.61L156.86 47.83L156.74 48.03L156.63 48.26L156.54 48.48L156.44 48.71L156.36 48.94L156.28 49.18L156.21 49.42L156.15 49.67V49.91V50.15V50.41V50.64V51.35V51.56V51.77V52L156.2 52.22L156.25 52.41L156.32 52.62L156.38 52.84L156.48 53.02L156.58 53.21L156.69 53.39L156.78 53.59L157.04 53.9L157.16 54.05L157.31 54.18L157.46 54.31L157.62 54.42L157.78 54.52L157.95 54.59L158.13 54.68L158.31 54.73L158.51 54.79H158.71H158.91H159.13H159.59H159.76H159.93H160.09H160.26L160.42 54.74L160.59 54.59L160.74 54.52L160.9 54.43H160.98H161.08L161.24 54.32L161.37 54.21L161.53 54.09L161.66 53.97L161.79 53.83L161.92 53.68L162.04 53.53L161.85 54.53H164.73L166.45 45.19H163.59L163.39 46.07ZM152.12 44.64V44.83V45.03V45.22L152.04 45.38L151.97 45.52L151.92 45.6L151.86 45.65V45.71L151.8 45.76H151.74H151.66H151.6L151.46 45.82L151.32 45.87H151.18H151.04H150.9H150.76H150.58H150.47H150.4H150.04L150.54 43.21H151.33H151.45H151.58H151.69L151.82 43.26L151.93 43.32H152.05H152.1V43.39V43.46V43.53V43.58V43.74V43.9L152.12 44.64ZM151.96 49.89V50.09V50.32V50.51L151.91 50.69L151.84 50.85L151.76 50.99L151.66 51.13L151.55 51.24L151.44 51.34L151.31 51.41L151.18 51.48L151.03 51.55L150.9 51.6L150.6 51.68L150.46 51.73H150.32H150.18H148.87L149.42 48.73H150.73H150.87H151.02H151.17H151.3L151.43 48.79L151.57 48.84L151.69 48.9H151.76V48.96V49.02V49.09V49.15V49.23V49.59V49.68V49.86L151.96 49.89ZM155.1 42.66V42.5L155.05 42.33V42.18L154.99 42.04L154.92 41.91L154.84 41.79L154.75 41.67L154.65 41.57L154.54 41.48L154.43 41.38L154.31 41.3L154.2 41.22L154.06 41.15L153.92 41.08L153.78 41.01L153.64 40.96L153.48 40.91H153.32H153.15H152.98H152.8H152.61H147.8L145.27 54.64H150.46H150.66H150.86H151.06H151.25H151.45L151.66 54.59L151.85 54.53L152.04 54.48L152.23 54.4L152.43 54.32L152.61 54.25L152.8 54.17L153.01 54.06L153.19 53.96L153.35 53.85L153.53 53.74L153.69 53.6L153.86 53.47L154.01 53.32L154.15 53.16L154.27 52.99L154.39 52.81L154.52 52.63L154.62 52.42L154.71 52.21L154.8 51.98L154.89 51.74L154.96 51.5L155.01 51.24L155.06 50.99L155.13 50.64V50.3V49.98V49.67V49.52V49.24L155.08 49.11L155.03 48.85L154.93 48.61L154.87 48.49L154.82 48.39L154.75 48.28L154.68 48.19L154.6 48.09L154.5 48.02L154.42 47.93L154.31 47.86L154.2 47.78L154.09 47.72H153.96L153.84 47.65H153.72H153.58H153.43H153.27L153.48 47.53L153.66 47.41L153.84 47.29L153.99 47.15L154.15 47L154.27 46.83L154.41 46.68L154.52 46.49L154.62 46.3L154.71 46.11L154.8 45.92L154.87 45.71L154.96 45.5L155.01 45.29L155.06 45.07L155.12 44.83V44.59V44.36V44.14V43.92V43.51V43.34V43.15L155.1 42.66ZM134.97 54.49H137.83L140.59 39.37H137.72L134.97 54.49ZM131.16 49.42V49.62V49.84L131.05 50.27L130.97 50.47L130.88 50.67L130.77 50.85L130.66 51.02L130.54 51.17L130.4 51.34L130.24 51.48L130.09 51.6L129.99 51.66L129.91 51.72H129.82L129.73 51.77H129.64H129.54H129.44H129.33H129.15H128.94H128.84H128.63H128.54H128.44H128.36H128.27H128.2L128.12 51.72H128.04L127.97 51.66L127.9 51.6V51.55L127.84 51.48L127.78 51.41V51.34L127.68 51.2L127.62 51.02L127.56 50.85V50.67V50.49V50.27V50.07V49.84L127.61 49.63L127.67 49.43L127.75 49.24L127.83 49.05L127.95 48.88L128.05 48.69L128.2 48.53L128.32 48.37L128.49 48.22L128.64 48.09L128.74 48.03L128.82 47.98L128.91 47.93H129H129.09H129.19H129.29H129.42H129.59H130.02H130.12H130.22H130.3H130.4H130.49L130.56 47.98H130.64L130.7 48.03L130.77 48.09L130.85 48.15L130.96 48.26V48.35L131.01 48.41L131.1 48.58L131.17 48.74V48.91V49.11V49.49L131.16 49.42ZM131.72 46.07L131.63 45.94L131.56 45.81L131.46 45.71L131.36 45.6L131.25 45.49L131.14 45.38L131.01 45.31L130.88 45.23L130.75 45.16L130.6 45.09L130.47 45.03H130.32H130.18L129.9 44.97H129.74H129.65H129.2H128.98H128.76H128.55L128.34 45.02L128.13 45.08L127.92 45.16L127.72 45.25L127.52 45.34L127.33 45.45L127.13 45.58L126.94 45.71L126.75 45.86L126.57 46.02L126.39 46.19L126.22 46.36L126.05 46.54L125.89 46.73L125.72 46.94L125.58 47.14L125.44 47.34L125.32 47.55L125.18 47.77L125.08 47.97L124.96 48.2L124.86 48.42L124.76 48.65L124.7 48.88L124.62 49.12L124.55 49.36L124.49 49.61V49.85V50.09V50.35V50.58V51.5V51.71V51.94L124.55 52.16L124.61 52.35L124.67 52.56L124.74 52.78L124.92 53.15L125.03 53.33L125.15 53.53L125.25 53.68L125.4 53.84L125.52 53.99L125.66 54.12L125.82 54.25L125.97 54.36L126.14 54.46L126.31 54.53L126.48 54.62L126.67 54.67L126.86 54.73H127.06H127.27H127.48H127.96H128.13H128.28H128.45H128.62L128.78 54.68L128.94 54.62L129.11 54.55L129.28 54.46H129.35H129.43L129.59 54.35L129.75 54.24L129.89 54.12L130.01 54L130.16 53.86L130.28 53.71L130.4 53.56L130.22 54.56H133.08L134.8 45.22H131.89L131.72 46.14V46.07ZM124.28 45.07H124.84L124.25 48.24H124.19L124.09 48.19L123.96 48.14H123.85H123.74H123.64H123.51H123.13H122.83H122.7H122.57H122.45H122.32L122.2 48.19H122.09L121.99 48.25L121.87 48.31L121.79 48.37L121.7 48.45L121.61 48.53L121.53 48.61L121.45 48.7L121.39 48.79L121.25 49.01L121.13 49.23L121.02 49.47L120.92 49.7L120.83 49.97L120.75 50.24L120.67 50.53L120.62 50.81L119.91 54.56H117.05L118.78 45.22H121.59L121.31 46.74L121.45 46.55L121.59 46.36L121.75 46.19L121.92 46.01L122.09 45.87L122.27 45.73L122.45 45.62L122.83 45.42L123.02 45.33L123.22 45.26L123.42 45.21L123.62 45.16H123.81H124.02L124.28 45.07ZM117.8 45.19H116.18L116.7 42.37H113.81L113.3 45.19H112.37L111.87 47.93H112.8L111.59 54.49H114.47L115.68 47.89H117.3L117.8 45.19ZM110.59 47V46.83L110.54 46.66V46.51V46.35V46.2L110.48 46.07L110.43 45.94L110.35 45.8L110.28 45.68L110.19 45.56L110.1 45.47L109.99 45.36L109.89 45.27L109.76 45.2L109.63 45.12L109.5 45.06L109.35 45.01L109.2 44.96H109.02H108.85H108.67H108.48H108.07H107.87H107.66H107.47H107.29L107.11 45.01L106.75 45.16L106.58 45.25L106.42 45.36L106.24 45.48L106.07 45.62L105.9 45.77L105.74 45.95L105.58 46.13L105.41 46.32L105.64 45.13H102.59L100.86 54.47H103.75L104.64 49.64V49.43L104.69 49.22L104.76 49.02L104.83 48.82L104.91 48.64L104.99 48.47L105.09 48.29L105.2 48.12L105.25 48.04L105.31 47.98L105.38 47.9L105.44 47.85L105.52 47.78H105.58H105.65L105.73 47.73H105.82L106 47.67H106.09H106.19H106.67H106.84H106.97L107.1 47.73L107.15 47.78H107.2V47.84V47.89V47.95V48.07V48.2V48.33V48.46V48.86V49V49.09V49.19V49.27V49.37V49.44V49.54V49.72V49.87L106.36 54.42H109.24L110.31 48.66L110.37 48.24V48.05V47.84V47.66V47.1L110.59 47ZM94.67 48.47H98V48.31V48.15V48V47.88L97.95 47.75L97.88 47.62L97.8 47.51L97.71 47.39L97.6 47.31L97.51 47.23L97.39 47.16L97.27 47.11H97.15H97.01H96.88H96.58H96.43H96.27H96.13L95.98 47.18L95.83 47.23L95.71 47.32L95.57 47.4L95.44 47.48L95.31 47.61L95.2 47.73L95.09 47.85L95.01 48L94.91 48.15L94.83 48.3L94.77 48.49L94.67 48.47ZM100.51 48.14V48.91V49.19V49.47L100.46 49.76V50.04L100.39 50.38H94.39V50.65V50.87V51.09V51.29V51.47L94.44 51.64L94.51 51.8V51.87V51.94L94.56 52.03L94.61 52.09H94.68L94.75 52.14L94.81 52.19H94.88H94.96H95.05H95.12H95.21H95.29H95.5H96.06H96.15H96.25H96.34H96.42L96.52 52.14L96.62 52.07L96.7 52.01L96.79 51.95L96.88 51.88L96.96 51.78L97.06 51.69L97.14 51.59L97.21 51.48H99.99L99.9 51.69L99.8 51.88L99.71 52.06L99.62 52.26L99.51 52.43L99.4 52.6L99.28 52.76L99.16 52.92L99.04 53.07L98.9 53.2L98.77 53.34L98.59 53.59L98.46 53.71L98.14 53.93L97.98 54.02L97.81 54.12L97.63 54.19L97.47 54.27L97.3 54.36L97.14 54.42L96.97 54.49L96.8 54.55H96.62H96.45H96.32H96.14L95.97 54.6H95.8H95.62H94.79H94.56L94.33 54.55H94.11L93.9 54.5L93.7 54.41L93.49 54.35L93.31 54.28L92.94 54.07L92.76 53.95L92.46 53.7L92.29 53.55L92.17 53.41L92.03 53.23L91.9 53.07L91.8 52.88L91.71 52.69L91.59 52.59L91.51 52.39L91.46 52.16L91.41 51.95V51.7V51.47V50.68V50.4V50.1V49.8L91.46 49.52L91.54 49.24L91.62 48.96L91.69 48.71L91.78 48.45L91.88 48.2L91.99 47.96L92.12 47.73L92.25 47.5L92.38 47.28L92.5 47.07L92.66 46.87L92.82 46.67L92.99 46.5L93.16 46.31L93.35 46.15L93.53 45.98L93.72 45.83L93.94 45.7L94.13 45.56L94.33 45.44L94.54 45.33L94.75 45.25L94.97 45.15L95.18 45.08L95.41 44.99H95.63H95.86H96.1H96.27H96.33H96.57H97.09H97.33H97.58H97.81H98.03L98.24 45.05L98.45 45.12L98.65 45.22L98.83 45.29L99 45.4L99.17 45.52L99.32 45.64L99.47 45.79L99.61 45.94L99.73 46.09L99.85 46.25L99.96 46.44L100.05 46.63L100.14 46.81L100.22 47.02L100.28 47.23L100.34 47.44L100.39 47.67V47.91V48.14H100.51ZM91.84 41.09L91.53 40.95L91.21 40.81L90.89 40.68L90.59 40.59H90.42L90.24 40.54H90.07H89.71H89.53H89.36H89.17H89.03H88.72H88.41L88.1 40.59L87.79 40.66L87.48 40.74L87.15 40.86L86.84 40.98L86.52 41.11L86.21 41.27L85.9 41.44L85.6 41.63L85.31 41.81L85.03 42.01L84.76 42.25L84.49 42.47L84.22 42.7L83.73 43.23L83.5 43.51L83.26 43.79L83.06 44.09L82.86 44.38L82.59 44.59L82.41 44.92L82.25 45.26L82.1 45.59L81.95 45.91L81.82 46.26L81.72 46.59L81.61 46.94L81.54 47.28L81.46 47.63L81.4 48.02V48.39V48.75V49.11V49.46V49.81V50.15V50.49L81.47 50.8L81.54 51.13L81.65 51.43L81.77 51.74L81.9 52.01L82.06 52.3L82.23 52.57L82.42 52.83L82.61 53.06L82.82 53.27L83.03 53.49L83.25 53.68L83.48 53.86L83.72 54.03L83.97 54.18L84.22 54.31L84.49 54.43L84.77 54.54L85.05 54.62L85.32 54.69L85.62 54.76H85.91H86.21H86.53H86.69H86.84H87.14H87.29H87.44H87.59H87.74H87.93L88.13 54.69L88.33 54.63H88.52L88.74 54.56L88.94 54.5L89.16 54.41L89.38 54.35L90.16 50.07L90 50.24L89.84 50.39L89.68 50.55L89.59 50.59L89.4 50.72L89.22 50.83L89.04 50.96L88.83 51.05L88.65 51.16L88.44 51.23L88.24 51.3H88.07H87.86H87.68H86.77H86.63H86.47H86.32L86.18 51.24L86.04 51.19L85.9 51.11L85.78 51.02L85.66 50.96L85.55 50.85L85.44 50.75L85.33 50.64L85.25 50.52L85.08 50.26L85.01 50.12L84.92 49.97L84.87 49.82L84.82 49.67L84.76 49.5V49.35L84.71 49.19V48.11V47.92V47.71L84.76 47.51L84.81 47.33V47.12L84.86 46.94L84.93 46.76L85.01 46.58L85.07 46.41L85.25 46.07L85.34 45.9L85.46 45.75L85.59 45.59L85.71 45.43L85.84 45.29L85.96 45.15L86.09 44.99L86.22 44.86L86.36 44.74L86.51 44.62L86.65 44.52L86.79 44.43L86.95 44.33L87.1 44.25L87.26 44.18L87.43 44.11L87.58 44.05H87.74H87.9H88.07H88.24H88.41H88.79H88.98H89.18H89.35L89.53 44.11L89.71 44.17L89.87 44.26L90.04 44.34L90.21 44.45L90.34 44.56L90.49 44.68L90.62 44.81L90.74 44.96L90.85 45.11L90.96 45.28L91.03 45.45L91.83 41.17L91.84 41.09Z" fill="white"/>
<path d="M248.13 25.22L248.5 21.31H246.22L246.32 21.45L246.43 21.6L246.5 21.77L246.56 21.94V22.11V22.3V22.72V22.87V23.01V23.16L246.51 23.3L246.45 23.43V23.54L246.36 23.68L246.19 23.89L246.09 24.02L245.96 24.11H245.91L245.84 24.17L245.7 24.26L245.57 24.35L245.42 24.44L245.26 24.51L245.03 24.61L244.8 24.69L244.56 24.75L244.31 24.83H244.07L243.8 24.88H243.56H243.28V25.12V25.35V25.56L243.33 25.76L243.39 25.95L243.47 26.11L243.57 26.26L243.69 26.41L243.75 26.46H243.81L243.88 26.52H243.96L244.11 26.61L244.29 26.68L244.49 26.74H244.69H244.9H245.15H245.35H245.59H245.8H245.87H246L246.2 26.67L246.41 26.6L246.59 26.5L246.78 26.4L246.97 26.28L247.15 26.15L247.34 25.99L247.5 25.85L247.67 25.69L247.85 25.5L248 25.31L248.13 25.22ZM234.34 18.72V18.22V18.07L234.29 17.94V17.82L234.22 17.7L234.13 17.61L234.06 17.52L233.95 17.44L233.82 17.35L233.7 17.3L233.56 17.24H233.4L233.24 17.18H233.08H232.88H232.69H232.47H232H231.75H231.5H231.23H230.71L230.25 17.24H229.8L229.38 17.3L228.99 17.39L228.66 17.47L228.49 17.53H228.32L228.18 17.58L228.05 17.65L227.9 17.71L227.78 17.77L227.67 17.84L227.56 17.92L227.46 17.98L227.37 18.06L227.28 18.15L227.2 18.23L227.13 18.32L227.07 18.41V18.51L227.01 18.6V18.71V18.81V18.91V19.03V19.6L227.06 19.72V19.78H227.19H227.24V19.72H233.81L233.73 19.63L233.88 19.54L234 19.45L234.11 19.32L234.21 19.21L234.29 19.09L234.35 18.97V18.82V18.67L234.34 18.72ZM236.55 19.77H258.39L258.23 21.31H256.75L255.93 30.05H253.12L253.93 21.31H251.3L250.5 30.05H247.67L247.85 28.05L247.64 28.2L247.43 28.33L247.25 28.46L247.05 28.56L246.82 28.68L246.61 28.77L246.42 28.85L246.2 28.94L245.99 29.02H245.84H245.78H245.57L245.15 29.09H244.94H244.73H244.52H244.16H243.81L243.49 29.04L243.18 28.99L243.04 28.94H242.88H242.75L242.61 28.89L242.47 28.82L242.35 28.75L242.22 28.68L242.1 28.61L241.97 28.54L241.86 28.45L241.75 28.37L241.65 28.28L241.54 28.19L241.44 28.09L241.35 27.98L241.24 27.87V27.75L241.13 27.64L241.06 27.52L240.98 27.38L240.84 27.11L240.71 26.82L240.59 26.59L240.5 26.3L240.43 26.01V25.7V25.36V25.01V24.28L240.87 24.06H241.13H241.33H241.54H241.93H242.12H242.32H242.48L242.67 23.99L242.83 23.94L243.04 23.85L243.21 23.76L243.37 23.65L243.46 23.58V23.52L243.52 23.46L243.57 23.38V23.33V23.25V23.18V23.1V23.01V22.92V22.45V22.32V22.21V22.11V22.01L243.51 21.91V21.82L243.44 21.74L243.39 21.67L243.3 21.59L243.22 21.52L243.13 21.45L243.04 21.38H238.04L237.82 23.76H232.77H232.66H232.59H232.53H232.48L232.39 23.83V23.89V23.95V24V24.05V24.37V24.44V24.52V24.57H232.45L232.5 24.62H232.57H232.64H232.81H232.91H236.08H236.35H236.47L236.6 24.67H236.72H236.85L236.97 24.72L237.07 24.78L237.29 24.93L237.41 25L237.52 25.07L237.62 25.16L237.73 25.26L237.82 25.35L237.9 25.46L238 25.57L238.08 25.65L238.14 25.79L238.19 25.89L238.24 26.01V26.14V26.26V26.39V26.52V27.23V27.41V27.61L238.19 27.79V27.97V28.15L238.14 28.32L238.06 28.49L237.98 28.65L237.9 28.8L237.81 28.96L237.6 29.24L237.48 29.4L237.36 29.54L237.23 29.66L237.1 29.8L236.77 30.04L236.59 30.59L236.42 30.68L236.26 30.78L236.05 30.87L235.87 30.93L235.66 31.02L235.48 31.07L235.24 31.13L235.04 31.18L234.6 31.24H234.37H233.5H233.11L232.72 31.19L232.31 31.13L231.77 31.02L231.24 30.89L230.77 30.77L230.33 30.63L229.92 30.49L229.56 30.35L229.37 30.26L229.21 30.19L229.04 30.09L228.91 30.03L228.79 29.96L228.69 29.88L228.58 29.78L228.45 29.69L228.34 29.6L228.23 29.49L228.11 29.35L228 29.24L228.95 26.91V27.01V27.06L229.05 27.15L229.18 27.26L229.35 27.38L229.56 27.52L229.82 27.66L230.12 27.84L230.46 28.01L230.82 28.19L231.15 28.33L231.49 28.46L231.83 28.58L232.17 28.66L232.5 28.73L232.81 28.79H233.04H233.25H233.46H233.84H234.03H234.2H234.36H234.49H234.66L234.77 28.73H234.9L235 28.68L235.1 28.6L235.17 28.54L235.26 28.44L235.32 28.36L235.37 28.26V28.13V28.03V27.94V27.85V27.77V27.69V27.61L235.32 27.54L235.26 27.47L235.17 27.4L235.08 27.33L235.01 27.27H234.92L234.85 27.22H234.74H234.62H231.93H231.81H231.66H231.4H231.26H231.15L231.03 27.17L230.9 27.11L230.65 27.01L230.59 26.59L230.48 26.51L230.37 26.44L230.24 26.35L230.13 26.26L230.03 26.16L229.91 26.07L229.81 25.96L229.72 25.85L229.66 25.74L229.57 25.63L229.51 25.52L229.45 25.42V25.3V25.17V25.05V24.94V24.3V24.18V24.05V23.93V23.8L229.51 23.68L229.56 23.57L229.65 23.46L229.71 23.35L229.8 23.25L229.89 23.14L229.98 23.04L230.1 22.94L230.21 22.83L230.31 22.74L230.44 22.66L230.59 22.59L230.84 22.47L231.1 22.35L231.36 22.26L231.62 22.19H231.88H232.15H232.44H235.17L235.24 21.45H227.24L226.41 30.19H223.59L224.41 21.45H222.93L223.1 19.91H224.2V19.82V19.73V19.64V19.51V19.4V19.28V19.17V19.04V18.79L224.25 18.55V18.3L224.31 18.06L224.39 17.83L224.49 17.62L224.6 17.41L224.7 17.22L224.84 17.03L224.97 16.84L225.12 16.68L225.29 16.51L225.47 16.35L225.65 16.19L225.85 16.06L226.06 15.93L226.29 15.8L226.52 15.69L226.77 15.57L227.04 15.48L227.31 15.39L227.6 15.31L227.89 15.23L228.2 15.16L228.52 15.11L228.84 15.06H229.19H229.56H229.93H230.31H231.13H231.56H231.98H232.39H232.79L233.15 15.11L233.52 15.17L233.86 15.23L234.18 15.3L234.49 15.38L234.79 15.47L235.05 15.57L235.31 15.68L235.53 15.8L235.75 15.92L235.95 16.05L236.13 16.19L236.25 16.32L236.39 16.43L236.5 16.57L236.6 16.72L236.68 16.86L236.78 17L236.85 17.17L236.91 17.34L236.99 17.68V17.88V18.06V18.27V18.47V18.69V18.91V19.03V19.13V19.25V19.35V19.44V19.52V19.6L236.94 19.67L236.79 19.84L236.55 19.77ZM223.24 18.59L223.39 18.45L223.51 18.3L223.63 18.16L223.72 18L223.81 17.82V17.65L223.87 17.46V17.27V17.06V16.88V16.69V16.53L223.81 16.36L223.72 16.21L223.62 16.05L223.5 15.91L223.38 15.79L223.23 15.68L223.08 15.57L222.93 15.51L222.76 15.43H222.58H222.41H221.81L221.63 15.48L221.44 15.54L221.25 15.6L221.08 15.71L220.92 15.81L220.73 15.94L220.57 16.07L220.45 16.23L220.32 16.39L220.21 16.56L220.12 16.73L220.06 16.93L220.01 17.11V17.33V17.9V17.98L220.06 18.07V18.15V18.24L220.11 18.31L220.16 18.39L220.28 18.55L220.4 18.68L220.55 18.8L220.71 18.91L220.85 19L221.04 19.07L221.21 19.12H221.4H221.58H221.77H221.96H222.15H222.33L222.5 19.06L222.68 18.98L222.84 18.9L223 18.78L223.24 18.59ZM210.47 21.27H218.04L217.95 22.1H214.22H213.93H213.67L213.41 22.15L213.16 22.22L212.91 22.31L212.69 22.41L212.46 22.52L212.33 22.59L212.22 22.65L212.11 22.74L212 22.83L211.9 22.92L211.81 23.02L211.72 23.11L211.65 23.2L211.59 23.31V23.59L211.52 23.7L211.46 23.81V24.06V24.17V24.59V24.7V24.82V24.92L211.51 25.03L211.56 25.13L211.64 25.23V25.31L211.73 25.41L211.82 25.5L211.91 25.59L212.02 25.66L212.12 25.73L212.23 25.82L212.45 25.94L212.68 26.05L212.91 26.14L213.15 26.22H213.38L213.66 26.27H213.94H216.67H216.8H216.94H216.99V26.6V26.72V26.84L216.94 26.94L216.88 27.02L216.81 27.09L216.72 27.15L216.61 27.2H216.47H216.31H214.78H214.36H213.95H213.58L213.23 27.14L212.91 27.06L212.6 26.97L212.33 26.87L212.02 26.71L211.72 26.58L211.4 26.43L211.1 26.29L210.75 28.09L211 28.24L211.24 28.38L211.5 28.48L211.74 28.57L211.91 29.02L212.07 29.43L212.23 29.81L212.38 30.13L212.45 30.28L212.54 30.41L212.62 30.53L212.79 30.76L212.87 30.85L212.94 30.93L213.02 30.99L213.13 31.09L213.27 31.19L213.44 31.26L213.61 31.34L213.79 31.41L213.99 31.47H214.21L214.44 31.53H214.7L214.96 31.58H215.24H215.55H215.86H216.2H216.53H217.19H217.39H217.54H217.6L217.82 29.83H217.15H216.57H216.32H216.09H215.88H215.69H215.54H215.39H215.27L215.17 29.77L215.09 29.71V29.65V29.59V29.54H216.2H216.5H217.07H217.35H217.66L217.95 29.49H218.22L218.47 29.43L218.71 29.36L218.9 29.28L219.09 29.19L219.28 29.1L219.38 29.03L219.46 28.95L219.55 28.86L219.65 28.79L219.8 28.62L219.86 28.51L219.93 28.42L220.01 28.3V28.19V28.08V27.95V27.82V27.68V27.55V27.41V27.24V26.67V26.53L219.93 26.28L219.88 26.16L219.83 26.05L219.77 25.93L219.7 25.84L219.62 25.74L219.54 25.63L219.45 25.56L219.35 25.46L219.26 25.38L219.15 25.33L219.05 25.26L218.96 25.21L218.74 25.11L218.52 25.03L218.27 24.95H218.01H217.75H214.59H214.5H214.44H214.38L214.33 24.9V24.83V24.76V24.7V24.56L214.38 24.46L214.46 24.36L214.53 24.29L214.62 24.24H214.72H214.83H214.98H220.61L220.85 21.79H222.48L222.63 20.25H210.59L210.47 21.27ZM194.3 29.27V29.39V29.51V29.81V29.96V30.08V30.21L194.24 30.34L194.16 30.45L194.08 30.57L193.99 30.67L193.88 30.78L193.77 30.85L193.65 30.93L193.52 31.01H193.4L193.27 31.06H193.13H193H192.85H192.72H192.57L192.32 30.99H192.21L192.08 30.91L191.97 30.84L191.86 30.74L191.77 30.64L191.69 30.55L191.62 30.44V30.32V30.2V30.06V29.77V29.62V29.47L191.73 29.2L191.8 29.08L191.89 28.96L191.99 28.86L192.1 28.76L192.22 28.66L192.35 28.59L192.47 28.52L192.59 28.45H192.73H192.88H193H193.3H193.43H193.56H193.69L193.8 28.51L193.9 28.59L194.02 28.66L194.12 28.75L194.18 28.86L194.27 28.97L194.34 29.07L194.3 29.27ZM192.96 24.59V24.42V24.23L193.01 23.69V23.21V22.76L193.06 22.38V22.04V21.75V21.52V21.31H195.83L195.48 25.07L195.38 25.17L195.28 25.25L195.18 25.34L195.08 25.42L194.97 25.5H194.86L194.76 25.55L194.65 25.61L194.52 25.66H194.41H194.29H194.18H193.54L193.43 25.61H193.31H193.22L193.12 25.55L193.03 25.49L192.96 25.41L192.9 25.31L192.84 25.21V25.09V24.97V24.81V24.59H192.96ZM189.74 21.31H190.52V21.45V21.67V21.97V22.33V22.79V23.31L190.47 23.92L190.4 24.59V25.29V25.44V25.6L190.45 25.76V25.93L190.51 26.09L190.56 26.22L190.64 26.38L190.73 26.53L190.81 26.67L190.9 26.81L191 26.94L191.12 27.08L191.22 27.2L191.34 27.33L191.46 27.44L191.59 27.54L191.72 27.63L191.85 27.72L191.98 27.8L192.13 27.88L192.28 27.94L192.42 28H192.57L192.89 28.06H193.05H193.21H194.02H194.29H194.57L194.82 28.01L195.05 27.94L195.3 27.84L195.5 27.73L195.3 30.03H198.12L198.56 25.32L198.64 25.22L198.74 25.12L198.84 25.05L198.92 24.98L199.02 24.9L199.13 24.85L199.23 24.77H199.33H199.44H199.54H199.66H199.78H199.89H200H200.45H200.63H200.81H200.96H201.09L201.22 24.82L201.33 24.88L201.44 24.96L201.52 25.05L201.59 25.15L201.65 25.26V25.37V25.51V26.08V26.21V26.32V26.44L201.58 26.55L201.5 26.64L201.41 26.72L201.31 26.8L201.2 26.85L201.09 26.93H200.95H200.81H200.66H200.49H200.32H200.13H199.91H199.59H199.49H199.39H199.3H199.22L199.01 28.93L199.08 28.99L199.15 29.04H199.21H199.3H199.39H199.47H199.56H199.77H200.01H200.59H200.79H200.98H201.16H201.33H201.52H201.68L201.84 28.99L202.02 28.94H202.17L202.33 28.87L202.46 28.8L202.63 28.73L202.75 28.66L202.9 28.58L203.03 28.48L203.16 28.39L203.3 28.29L203.42 28.16L203.56 28.03L203.67 27.92L203.78 27.78L203.89 27.65L203.98 27.5L204.06 27.35L204.15 27.2L204.21 27.03L204.29 26.87L204.39 26.52V26.35V26.14V25.96V24.96L204.33 24.6V24.44L204.28 24.26L204.2 24.11L204.14 23.97L204.05 23.8L203.97 23.67L203.87 23.53L203.74 23.39L203.63 23.27L203.51 23.15L203.4 23.04L203.25 22.95L203.12 22.85L202.97 22.77L202.84 22.68L202.66 22.63L202.59 22.59L202.42 22.54H202.25L202.08 22.49H201.9H201.7H201.52H201.32H200.77H200.45H200.14L199.83 22.54L199.53 22.63L199.25 22.71L198.99 22.83L198.73 22.98L198.88 21.38H205.45L205.6 19.84H189.9L189.76 21.38L189.74 21.31ZM190.05 19.19L190.22 19.12L190.39 19.03L190.57 18.93L190.73 18.83L190.95 18.67L191.16 18.5L191.37 18.32L191.55 18.12L191.72 17.9L191.88 17.69L192.02 17.44L192.17 17.19L192.3 16.89L192.42 16.6L192.53 16.31L192.66 16.03H189.66V16.16V16.3L189.6 16.44L189.53 16.54L189.45 16.65L189.37 16.75L189.27 16.86L189.14 16.93L189.01 17.01L188.87 17.08L188.71 17.13L188.52 17.19H188.32H188.14H187.91H187.69H187.44H187.23H187.02H186.84H186.75H186.67H186.57H186.5L186.43 17.12L186.36 17.06H186.3L186.23 16.98L186.13 16.91L186.08 16.81L185.99 16.69L185.94 16.61V16.51V16.4V16.21H182.94L183 16.49L183.08 16.78L183.14 17.07L183.23 17.37L183.32 17.61L183.42 17.85L183.56 18.06L183.68 18.27L183.85 18.47L184.02 18.66L184.19 18.83L184.39 18.99L184.54 19.08L184.68 19.18L184.85 19.27L185 19.36L185.17 19.41L185.35 19.5H185.55L185.73 19.55L185.93 19.63H186.14L186.35 19.68H186.58H186.81H188.29H188.51H188.73H188.97H189.18L189.6 19.57L189.81 19.51L190 19.45L190.19 19.36L190.05 19.19ZM177.74 21.27L177.89 19.77H189.3L189.15 21.31H187.68L186.86 30.05H184.03L184.86 21.31H183.38H182.27L181.45 30.09H178.59L179.01 25.69H176.84L176.95 24.54L177.03 23.73H179.19L179.43 21.31L177.74 21.27ZM177.03 26.58V26.38V26.31V26.21L176.97 26.02L176.9 25.86L176.8 25.69L176.7 25.53L176.6 25.38L176.46 25.22L176.32 25.07L176.16 24.95L175.98 24.8L175.81 24.68L175.6 24.55L175.77 24.48L175.93 24.38L176.21 24.21L176.34 24.09L176.46 23.99L176.58 23.88L176.68 23.76L176.78 23.63L176.84 23.5L176.92 23.37L177.04 23.07V22.99V22.91V22.76L177.09 22.59V22.05V21.89V21.72L177.04 21.56L176.97 21.41L176.9 21.27L176.82 21.14L176.73 21L176.61 20.87L176.5 20.75L176.36 20.63L176.23 20.52L176.06 20.42L175.89 20.31L175.75 20.24L175.59 20.18L175.44 20.11L175.29 20.05H175.12H174.95L174.78 19.99H174.62L174.24 19.93H173.86H173.47H172.81H172.54H172.29H172.02L171.75 19.99L171.49 20.07L171.22 20.15L170.95 20.25L170.68 20.37L170.38 20.52L170.1 20.63L169.82 20.75L170.61 22.75L170.89 22.6L171.17 22.47L171.47 22.37L171.75 22.29L172.04 22.22H172.34H172.94H173.4H173.53H173.66H173.76H173.86H173.96L174.02 22.28L174.09 22.34L174.14 22.42L174.19 22.5V22.57V22.97V23.07V23.15V23.22V23.3L174.14 23.36V23.42L174.07 23.48H174.01H173.94H173.86H173.78H171.37L171.21 25.24H173.21H173.35H173.48H173.6H173.71H173.82L173.9 25.29L173.98 25.35L174.12 25.48L174.17 25.57V25.64V25.73V25.82V26.15V26.33V26.51L174.11 26.67L174.05 26.84L173.97 26.97L173.88 27.08L173.78 27.18L173.65 27.26L173.55 27.32H173.43L173.3 27.37H173.15H172.99H172.81H172.6H172L171.73 27.32L171.6 27.27H171.47L171.33 27.22L171.2 27.15L171.06 27.09L170.93 27.02L170.8 26.94L170.65 26.86L170.54 26.75L170.41 26.65L170.29 26.55L170.12 26.41L169.96 26.27L169.59 26.59L169.46 26.45L169.33 26.3L169.2 26.14L169.08 25.98L168.97 25.81L167.47 27.75L167.57 27.92L167.7 28.09L167.84 28.25L167.98 28.42L168.15 28.6L168.52 28.93L168.73 29.08L168.93 29.24L169.11 29.37L169.32 29.51L169.51 29.62L169.7 29.74L169.91 29.83L170.11 29.93L170.32 30.01L170.53 30.09L170.75 30.16L170.98 30.22L171.19 30.27L171.42 30.33H171.65H171.9H172.12H172.46H172.63H172.79H173.03H173.27H173.5H173.73H173.95H174.16H174.36H174.54L174.73 30.27L174.91 30.2L175.08 30.14L175.25 30.08L175.42 30L175.55 29.9L175.7 29.8L175.84 29.71L175.96 29.6L176.09 29.5L176.2 29.39L176.3 29.25L176.41 29.12L176.49 29L176.58 28.84L176.66 28.69L176.72 28.53L176.78 28.38V28.2L176.85 28.03V27.84V27.7V27.5V27.3V26.89V26.71L177.03 26.58ZM147.64 21.31H154.1L153.67 25.91L153.57 25.99L153.48 26.09L153.38 26.17L153.29 26.26L153.18 26.33L152.97 26.47H152.84L152.72 26.53H152.58H152.47H152.31H152.17H152.03H151.48H151.37H151.26H151.17H151.06L150.97 26.47L150.89 26.41L150.81 26.32L150.76 26.23L150.7 26.14V26.03V25.9V25.47V25.34V25.19V25.07L150.75 24.94L150.82 24.84L150.89 24.73L150.97 24.65L151.05 24.57L151.16 24.48L151.26 24.42L151.4 24.37H151.51H151.65H151.8H151.96H152.31H152.47H152.64L152.78 24.42L152.94 24.51L153.07 24.61L153.22 24.73L153.35 24.86L153.56 22.7L153.47 22.62L153.38 22.56L153.27 22.49L153.16 22.43L153.05 22.37H152.94H152.81L152.69 22.32H152.55H152.42H152.27H152.12H151.8H151.45H151.28H151.09H150.93H150.75H150.57H150.41L150.24 22.38L150.1 22.44L149.93 22.5L149.8 22.58L149.64 22.66L149.5 22.75L149.37 22.84L149.22 22.97L149.11 23.07L148.97 23.19L148.85 23.33L148.74 23.47L148.63 23.6L148.53 23.74L148.43 23.88L148.34 24.04L148.26 24.19L148.19 24.35L148.11 24.52L148.05 24.7L147.99 24.86V25.04L147.94 25.22V25.41V25.59V25.8V25.99V26.53V26.7V26.86V27.02V27.19V27.33L148.05 27.62L148.13 27.75L148.2 27.89L148.28 28.01L148.36 28.14L148.47 28.26L148.57 28.38L148.68 28.49L148.8 28.58L148.92 28.66L149.03 28.75L149.16 28.82L149.3 28.89L149.43 28.96L149.56 29.01L149.71 29.06H149.85H150H150.16H150.33H150.66H151.01H151.34L151.68 29.01L152.02 28.93L152.36 28.82L152.7 28.72L153.05 28.56L153.38 28.41L153.22 30.11H156.04L156.49 25.4L156.59 25.28L156.69 25.17L156.8 25.06L156.9 24.96L157 24.88L157.12 24.8L157.22 24.73L157.32 24.65L157.42 24.6H157.53L157.64 24.55H157.73H157.85H157.95H158.16H158.38H158.55H158.72H158.87H159.01L159.11 24.6H159.21L159.3 24.68H159.36L159.42 24.77L159.47 24.86V24.96L159.52 25.19V25.66V25.82V25.97V26.1L159.47 26.22L159.41 26.35L159.34 26.43L159.26 26.55L159.19 26.61L159.09 26.68L158.98 26.75H158.88H158.73H158.6H158.45H158.3H158.18H157.97H157.84H157.71H157.59L157.47 26.69L157.36 26.63L157.11 29.19L157.2 29.3L157.29 29.37L157.37 29.43H157.43H157.52H157.63H157.76H158.98H159.16H159.34L159.5 29.38H159.67L159.83 29.32L159.99 29.26L160.14 29.19L160.31 29.14L160.46 29.06L160.6 28.97L160.75 28.88L160.89 28.78L161.03 28.67L161.17 28.57L161.31 28.43L161.44 28.31L161.58 28.17L161.7 28.02L161.81 27.88L161.91 27.74L162.01 27.58L162.1 27.43L162.19 27.27L162.25 27.1L162.38 26.74V26.57L162.44 26.37L162.5 25.99V25.79V25.58V25.18V24.99V24.82V24.64V24.47L162.44 24.29L162.38 24.13L162.23 23.81L162.13 23.66L162.03 23.51L161.93 23.36L161.8 23.22L161.67 23.1L161.54 22.98L161.41 22.84L161.27 22.75L161.12 22.66L160.98 22.55L160.82 22.49L160.66 22.41L160.49 22.33L160.33 22.28H160.15H159.97H159.78H159.59H159.4H159.07H158.94H158.79H158.65L158.37 22.33L158.07 22.41L157.77 22.51L157.46 22.64L157.15 22.8L156.83 22.96L156.98 21.39H164.46L164.61 19.85H147.78L147.64 21.39V21.31ZM147.97 19.16H147.77H147.59L147.42 19.11L147.26 19.04L147.1 18.95L146.94 18.84L146.79 18.72L146.66 18.59L146.55 18.43V18.35V18.28L146.5 18.19V18.11V18.02V17.94V17.75V17.56V17.37V17.15L146.55 16.97L146.61 16.77L146.69 16.6L146.79 16.43L146.92 16.27L147.06 16.11L147.22 15.98L147.38 15.85L147.56 15.75L147.59 15.59L147.78 15.53L147.96 15.47L148.16 15.42H148.74H148.93H149.09L149.26 15.5L149.43 15.56L149.58 15.67L149.72 15.78L149.86 15.9L149.98 16.04L150.07 16.2L150.16 16.35L150.22 16.52V16.68V16.87V17.05V17.26V17.45L150.17 17.64L150.11 17.81L150.02 17.99L149.93 18.15L149.81 18.29L149.7 18.44L149.59 18.59L149.43 18.71L149.26 18.83L149.1 18.91L148.93 18.99L148.76 19.05H148.59H148.4H148.21H148.01L147.97 19.16ZM139.72 26.38L139.44 26.47H139.29H139.05H138.95H138.39H138.22H138.09H137.96H137.85H137.76L137.65 26.41L137.58 26.32L137.51 26.22L137.45 26.11V25.97V25.83V25.51V25.38V25.25V25.15V25.05V24.96V24.88V24.81V24.76L137.54 24.69L137.63 24.61L137.72 24.54L137.81 24.48L138.52 25.13L139.84 26.34L139.72 26.38ZM146.85 19.77H146.14L146.07 19.6L145.95 19.3L145.83 19.03L145.69 18.75L145.55 18.46L145.4 18.18L145.25 17.92L145.09 17.65L144.91 17.38L144.75 17.13L144.56 16.87L144.38 16.61L144.19 16.37L143.97 16.11L143.78 15.88L143.59 15.69L143.4 15.47L143.23 15.3L143.04 15.11L142.85 14.95L142.64 14.77L142.44 14.61L142.25 14.44L140.25 16.08L140.52 16.25L140.8 16.43L141.06 16.63L141.31 16.83L141.56 17.04L141.81 17.27L142.04 17.5L142.27 17.75L142.5 18.02L142.7 18.29L142.9 18.59L143.11 18.88L143.3 19.19L143.47 19.51L143.61 19.77H142.67V19.68L142.5 19.42L142.3 19.13L142.1 18.84L141.86 18.57L141.59 18.28L141.29 17.99L141.03 17.73L140.74 17.48L140.45 17.24L140.12 17L138.81 18.83H138.94H139.06H139.17L139.28 18.88H139.38L139.49 18.95L139.59 19.02L139.69 19.09L139.77 19.18L139.95 19.4L140.1 19.64H134.59L134.44 21.18H142.05L141.64 25.4L141.48 25.5H141.38L141.27 25.56H141.17L141.09 25.61H141.04L139.04 23.7H139.23H139.41H139.91H140.11H140.33L140.6 23.77L140.82 23.83L141.02 23.89H141.16H141.26L141.48 22.14L141.43 22.09H141.35H141.27H141.18L140.95 22.04H140.67L140.33 21.98H139.94H139.5H138.59H138.39H138.2L137.82 22.05H137.63H137.44L137.26 22.1L137.1 22.16L136.92 22.22L136.76 22.29L136.59 22.59L136.42 22.68L136.27 22.76L136.12 22.85L135.94 22.99L135.79 23.11L135.62 23.23L135.5 23.37L135.37 23.51L135.24 23.65L135.13 23.81L135.02 23.96L134.94 24.14L134.87 24.3L134.78 24.5L134.72 24.68L134.67 24.87L134.62 25.07V25.27V25.47V26.05V26.23V26.41L134.67 26.58V26.75L134.72 26.93L134.79 27.08L134.87 27.22L134.96 27.38L135.07 27.51L135.19 27.65L135.3 27.78L135.43 27.91L135.58 28.03L135.71 28.13L135.84 28.22L135.97 28.31L136.12 28.39L136.25 28.46L136.41 28.52L136.55 28.59H136.69H136.85H137H137.17H137.34H137.5H138.02H138.5H138.71H138.95H139.17H139.39H139.62H139.82L140.03 28.52L140.24 28.47L140.43 28.41L140.63 28.34L140.83 28.26L141.02 28.18L141.19 28.09L141.37 28.01L141.18 30.01H143.98L144.81 21.27H146.64L146.77 20.14L146.82 19.73L146.85 19.77ZM95.49 19.77H131.68L131.54 21.31H128.89L128.7 23.14L128.85 23.28L128.95 23.41L129.16 23.7L129.24 23.87L129.31 24.03L129.37 24.23L129.43 24.42L129.48 24.63V24.82V25.05V25.28V25.75V26.01V26.28V26.51V26.74L129.42 26.96V27.17L129.35 27.39L129.29 27.59L129.21 27.79L129.12 28L129.03 28.18L128.91 28.37L128.82 28.55L128.69 28.73L128.56 28.91L128.43 29.08L128.28 29.24L128.14 29.39L127.99 29.54L127.83 29.69L127.66 29.81L127.49 29.93L127.34 30.05L127.17 30.15L127 30.24L126.83 30.32L126.66 30.39L126.48 30.46L126.3 30.53H126.12H125.94H125.75H125.38H124.91H124.5H124.14H123.84H123.69H123.57L123.46 30.48H123.36L123.28 30.42H123.21H123.15L123.1 30.37L123.3 28.23H123.36L123.46 28.29L123.66 28.35L123.91 28.42L124.18 28.47H124.42H125.04H125.2L125.35 28.42H125.48L125.75 28.24L125.86 28.13L125.97 27.99L126.07 27.85L126.16 27.69L126.24 27.52L126.32 27.32L126.38 27.13L126.44 26.9L126.49 26.66V26.4V26.17V25.96V25.75V25.57V25.39L126.44 25.23V25.09L126.39 24.96V24.89L126.34 24.82L126.29 24.77V24.7L126.23 24.65H126.18H126.12H126.06H125.99H125.91H125.85H125.77H125.59H125.25H125.11H124.97L124.84 24.72L124.71 24.8L124.59 24.9L124.47 25.01L124.36 25.14L124.25 25.33L124.15 25.49L124.09 25.67L124.02 25.8L123.93 26.74H121.28L121.39 25.62V25.49V25.37V25.26L121.34 25.17L121.25 25.07L121.17 25L121.06 24.94L120.95 24.87L120.59 24.59H120.44H120.29H119.93H119.74H119.67H119.59H119.52H119.44H119.37L119.31 24.64L119.25 24.7L119.19 24.76L119.13 24.83L119.08 24.89L119.03 24.97L118.96 25.09L118.91 25.25L118.84 25.4V25.58L118.79 25.78V25.99L118.74 26.23V26.48V26.74V26.97V27.18V27.39L118.79 27.59L118.86 27.76V27.84V27.93L118.91 28.01L118.96 28.08L119.07 28.2L119.18 28.31L119.3 28.39L119.42 28.46H119.55H119.67H119.95H120.09H120.24L120.41 28.4L120.59 28.34L120.78 28.28L120.97 28.18L121.19 28.08L121.43 27.97L121.2 30.3L121.14 30.35L121.08 30.4H121H120.92L120.7 30.47H120.46L120.15 30.52H119.83H119.45H119.04H118.67H118.49L118.32 30.47L118.15 30.42H117.99L117.82 30.35L117.5 30.2L117.34 30.1L117.2 29.99L117.06 29.88L116.92 29.76L116.81 29.62L116.65 29.46L116.41 29.17L116.3 28.99L116.19 28.82L116.1 28.64L116 28.45L115.93 28.27L115.87 28.08L115.81 27.88V27.68V27.47V27.26V27.05V26.83V26.62V26.38V26.16V25.92V25.69L115.86 25.46L115.92 25.25L115.99 25.03L116.05 24.82L116.14 24.62L116.23 24.43L116.43 24.05L116.55 23.87L116.68 23.71L116.81 23.54L116.95 23.38L117.11 23.23L117.26 23.08L117.42 22.94L117.57 22.83L117.73 22.73L117.88 22.62L118.05 22.51L118.21 22.43L118.38 22.34L118.56 22.29L118.73 22.23L118.9 22.18H119.09L119.27 22.13H119.44H119.64H120.51H120.73H120.93L121.14 22.18L121.35 22.25L121.55 22.32L121.74 22.41L121.9 22.51L122.08 22.62L122.23 22.75L122.39 22.9L122.53 23.02L122.68 23.2L122.8 23.37L122.92 23.55L123.08 23.36L123.28 23.12L123.52 22.85L123.82 22.55L124.03 22.42L124.21 22.33L124.41 22.25L124.58 22.17L124.76 22.12H124.93H125.1H125.64H125.84H126.07L126.17 21.12H113.77L113.49 23.97H109.93L109.69 24.04L109.47 24.11L109.28 24.2L109.08 24.29L108.91 24.4L108.76 24.51L108.61 24.61L108.48 24.74L108.38 24.88L108.25 25.02L108.16 25.19L108.09 25.34L108.04 25.51L107.99 25.7V25.86V26.59V26.68V26.76V26.83V26.92V26.99V27.07L108.05 27.13L108.1 27.21L108.17 27.27L108.24 27.33L108.31 27.4L108.4 27.46L108.54 27.54L108.71 27.62L108.88 27.7L109.07 27.75L109.26 27.8H109.47H109.68H110.27H110.46H110.63H110.82H111L111.16 27.75H111.33L111.51 27.69H111.68L111.85 27.62L112.03 27.54L112.19 27.47L112.36 27.37L112.52 27.29L112.68 27.19L112.92 27.05L113.13 26.9L113.3 26.78L113.59 26.59L113.7 26.46L113.8 26.37V26.27L113.85 26.2L114.54 28.79L114.21 29.04L113.84 29.26L113.45 29.5L113.05 29.7L112.64 29.87L112.25 30.03L111.85 30.15L111.43 30.28L111.03 30.36H110.9L113.9 33.93L111.9 35.57L109.48 32.36L106.67 35.05L104.91 33.35L108.36 30.43H108.22L107.8 30.31L107.6 30.25L107.4 30.17L107.21 30.09L107.02 29.97L106.84 29.88L106.66 29.75L106.48 29.63L106.3 29.5L106.12 29.31L105.94 29.16L105.8 28.99L105.66 28.8L105.54 28.62L105.44 28.43L105.33 28.22L105.26 28.01L105.19 27.79L105.14 27.56V27.34V27.11V26.59V26.32V26.04L105.19 25.78L105.25 25.54L105.32 25.29L105.41 25.04L105.49 24.81L105.59 24.59L105.73 24.35L105.87 24.16L106.01 23.96L106.17 23.77L106.36 23.59L106.54 23.41L106.75 23.24L106.97 23.08L107.19 22.95L107.51 22.77L107.81 22.6L108.13 22.47L108.43 22.37L108.72 22.28L109.02 22.22H109.16H109.31H110.94L111.02 21.37H94.5L93.68 30.11H90.87L91.19 26.64H88.49L88.66 24.64H91.38L91.68 21.4H88.47L88.55 21.49L88.62 21.61L88.68 21.71L88.73 21.81L88.79 21.91V22.03V22.13V22.26V22.38V22.51V22.63V23.32V23.52V23.74V23.93V24.11L88.72 24.3L88.66 24.48L88.59 24.59L88.51 24.77L88.42 24.93L88.34 25.09L88.24 25.23L88.14 25.36L88.03 25.49L87.9 25.63L87.79 25.74L87.64 25.86L87.52 25.95L87.38 26.05L87.24 26.13L87.11 26.21L86.96 26.27L86.82 26.34L86.64 26.4L86.48 26.45L86.32 26.5H86.14H85.98H85.8H85.6H85.03V26.67V26.85V27.02V27.2L85.09 27.37L85.16 27.52L85.26 27.67L85.36 27.84L85.47 27.92L85.59 28L85.74 28.06L85.91 28.11H86.08H86.28H86.59H86.82H87.17H87.52L87.91 28.06L88.32 27.99L88.65 27.93H88.89H89.01H89.07L88.85 30.08H88.78L88.54 30.13L88.17 30.19L87.93 30.25H87.69H87.46H87.23H87H85.89H85.52H85.18H84.86L84.55 30.18L84.27 30.11L84.01 30.01L83.77 29.91L83.66 29.83L83.55 29.77L83.44 29.71L83.34 29.66L83.25 29.56L83.17 29.49L83.08 29.41L83 29.33L82.84 29.16L82.79 29.05L82.73 28.96L82.66 28.86L82.61 28.75V28.64V28.53L82.5 28.21L82.41 27.88L82.35 27.56V27.23V26.89V26.56V26.22L82.4 25.88H81.4L81.58 24.04H83.82H83.98H84.12H84.27H84.41H84.77H84.93L85.09 23.99L85.22 23.93L85.35 23.86L85.47 23.78L85.58 23.7L85.68 23.6L85.78 23.49L85.85 23.37L85.91 23.21L85.98 23.08V22.91V22.73V22.54V22.18V22.03L85.93 21.87V21.8V21.73V21.68V21.62L85.82 21.52L85.76 21.46H85.69L85.54 21.37L85.4 21.3H85.32H85.26H85.19H81.44L81.58 19.76H92.59L92.53 19.62L92.4 19.36L92.27 19.11L92.13 18.87L91.97 18.64L91.81 18.43L91.63 18.21L91.44 17.99L91.24 17.81L90.83 17.45L90.6 17.29L90.35 17.12L90.1 16.98L89.84 16.83L89.58 16.7L91.4 15.06L91.57 15.13L91.75 15.23L91.94 15.33L92.12 15.42L92.29 15.56L92.46 15.68L92.64 15.81L92.82 15.94L93.02 16.12L93.21 16.32L93.41 16.5L93.61 16.72L93.78 16.94L93.98 17.17L94.14 17.4L94.33 17.64L94.66 18.15L94.81 18.43L94.98 18.71L95.13 18.99L95.28 19.29L95.42 19.61L95.49 19.77ZM103.69 24.68V24.54V24.4V24.3V24.2L103.64 24.11L103.58 24.03H103.52V23.97H101.12L101.2 24.03L101.27 24.09L101.32 24.16V24.25V24.34L101.37 24.43V24.51V24.63V24.73V24.84V24.96V25.24V25.53V25.63V25.71V25.81V25.89L101.32 25.97L101.27 26.04L101.21 26.09L101.15 26.16L100.99 26.26H100.9H100.82H100.72H100.49H100.12L100.06 26.2H99.98L99.91 26.14L99.83 26.06V25.99L99.77 25.91L99.72 25.83L99.67 25.75V25.65V25.57V25.59V25.52V25.24V25.07V24.91V24.75L99.72 24.6L99.78 24.49L99.86 24.37L99.94 24.26L100.04 24.17L100.14 24.1L100.27 24.04L100.4 23.97H100.54H100.69H100.87H106.18L106.33 22.38H99.92H99.7H99.49L99.29 22.43H99.1L98.91 22.5L98.71 22.58L98.51 22.68L98.32 22.8L98.12 22.91L97.96 23.04L97.8 23.18L97.64 23.33L97.5 23.5L97.36 23.67L97.25 23.86L97.14 24.05L97.05 24.25L96.96 24.48L96.88 24.7L96.82 24.93V25.18L96.77 25.44V25.59V25.76V26.09V26.23V26.4V26.55V26.68L96.82 26.81L96.88 26.96L96.94 27.1L97.02 27.23L97.09 27.36L97.18 27.48L97.28 27.6L97.4 27.72L97.52 27.86L97.63 27.96L97.77 28.08L97.91 28.17L98.05 28.26L98.21 28.34L98.35 28.42L98.53 28.48L98.69 28.54L98.87 28.6H99.06H99.23H99.42H99.63H100.63H100.8H100.99H101.16H101.33L101.5 28.55L101.65 28.48L101.82 28.42L101.98 28.34L102.13 28.27L102.28 28.17L102.42 28.07L102.56 27.97L102.71 27.87L102.85 27.75L102.97 27.62L103.08 27.51L103.2 27.38L103.3 27.24L103.39 27.11L103.49 26.97L103.58 26.85L103.64 26.7L103.71 26.57L103.76 26.42V26.27L103.81 26.11V25.97V25.82V25.64V25.15V24.93V24.69L103.69 24.68Z" fill="white"/>
<path d="M6.35999 62.35H61.9V6.40002H6.35999V62.35Z" fill="white"/>
<path d="M52.52 34.01L41.52 23.23H38.88H34.5V21.94H38.88H41.58L53.36 33.94L52.52 34.01ZM48.92 34.08L41.53 26.9H38.89H34.52V25.59H38.9H41.6L49.78 33.99L48.92 34.08ZM38.92 49.94L34.87 53.94L34.74 53.08L38.92 48.78L45.46 42.03V34.99H46.72L46.79 42.13L38.92 49.94ZM38.92 45.09L41.82 42.09V34.99H43.09L43.15 42.13L38.92 46.3L34.8 50.35L34.69 49.5L38.92 45.09ZM29.79 36.75L27.46 34.29L29.79 31.99L34.58 27.29L38.92 31.89L41.43 34.54L38.92 37.02L34.28 41.59L29.79 36.75ZM29.79 47.25H27.09L15.32 35.25L16.16 35.13L27.16 45.9H34.16V47.18L29.79 47.25ZM19.74 35.11L27.15 42.27H34.15V43.59H29.77H27.06L18.88 35.18L19.74 35.11ZM34.02 19.68L29.79 24.09L26.89 27.09V34.16H25.59L25.53 27.04L29.76 22.86L33.88 18.8L34.02 19.68ZM29.79 19.23L33.85 15.23L33.96 16.08L29.79 20.39L23.26 27.13V34.2H21.98L21.93 27.08L29.79 19.23ZM41.85 19.72V11.94H34.04L29.79 16.43L19.85 26.97H12.39V34.59L26.82 49.59V56.97H34.17L38.92 52.18L48.71 42.32H55.92V33.94L41.85 19.72Z" fill="#CE0F3E"/>
</g>
<defs>
<clipPath id="clip0_4_977">
<rect width="269.71" height="68.75" fill="white"/>
</clipPath>
</defs>
</svg>
