<svg width="93" height="24" viewBox="0 0 93 24" fill="none" xmlns="http://www.w3.org/2000/svg">
<path d="M12.1621 19.3406L12.0957 19.4049C11.0247 20.4961 9.78505 21.0744 8.50772 21.0744C5.84148 21.0744 3.90607 19.0742 3.90607 16.3144C3.90607 13.5596 5.84148 11.5566 8.50772 11.5566C9.78505 11.5566 11.0247 12.1373 12.0957 13.2313L12.1621 13.2976L13.8768 11.2242L13.831 11.1679C12.405 9.48283 10.694 8.66249 8.5905 8.66249C6.47973 8.66249 4.55021 9.37285 3.15961 10.6539C1.64869 12.0412 0.850952 13.9977 0.850952 16.3144C0.850952 18.63 1.64869 20.5913 3.15961 21.979C4.55021 23.266 6.47973 23.9724 8.5905 23.9724C10.694 23.9724 12.405 23.1525 13.831 21.4667L13.8768 21.4144L12.1621 19.3406Z" fill="#003B70"/>
<path d="M15.6096 23.6902H18.6388V8.90273H15.6096V23.6902Z" fill="#003B70"/>
<path d="M30.5044 20.4748C29.6962 20.9669 28.9441 21.2143 28.2687 21.2143C27.29 21.2143 26.8478 20.6977 26.8478 19.5472V11.7009H29.9328V8.91623H26.8478V4.31503L23.8787 5.90396V8.91623H21.3174V11.7009H23.8787V20.0477C23.8787 22.3218 25.2258 23.8753 27.2366 23.9157C28.602 23.9424 29.4251 23.5357 29.925 23.2384L29.9543 23.2166L30.6836 20.3654L30.5044 20.4748Z" fill="#003B70"/>
<path d="M33.0132 23.6902H36.0444V8.90273H33.0132V23.6902Z" fill="#003B70"/>
<path d="M84.3571 3.2762V17.3819L85.3007 15.9131C85.3 15.9197 89.5402 9.77956 90.0835 8.99662H91.9733C91.571 9.53707 88.2372 14.1252 88.2372 14.1252C88.2372 14.1252 92.5799 23.1747 92.8308 23.6902H90.9751C90.873 23.4791 87.1423 15.5812 87.1423 15.5812L84.3571 19.4838V23.6902H82.6282V4.26353C82.7794 4.1767 83.9502 3.50558 84.3571 3.2762ZM70.1549 10.7484C71.0466 9.41522 72.4439 8.68011 74.0787 8.68011C77.3384 8.68011 79.0659 10.7591 79.0659 14.6931V23.6902H77.3327V15.0657C77.3327 11.7187 76.1705 10.165 73.6529 10.165C71.2432 10.165 69.8044 11.9978 69.8044 15.0657V23.6902H68.0761V8.99662H69.8044V11.2752L70.1549 10.7484ZM59.5287 8.68011C62.8831 8.68011 64.5137 10.214 64.5137 13.3704V23.6902H62.7847V21.5465L62.4483 21.9175C61.1758 23.3214 59.7153 24.0078 57.9762 24.0078C56.6135 24.0078 53.4429 23.5568 53.4429 19.3738C53.4429 15.9547 56.2653 14.7411 58.9093 14.7411C60.2369 14.7411 61.5484 15.0468 62.5001 15.5801L62.7847 15.7379V13.6284C62.7847 11.2896 61.6424 10.1052 59.3853 10.1052C57.9934 10.1052 56.7372 10.4565 55.4491 11.1825C55.3355 10.9214 54.9359 10.0381 54.8247 9.78607C56.171 9.07656 57.8333 8.68011 59.5287 8.68011ZM55.1383 19.2298C55.1383 21.4263 56.2763 22.6368 58.344 22.6368C60.104 22.6368 61.667 21.8054 62.7521 20.2934L62.7847 20.2415V17.02L62.6886 16.9644C61.585 16.3353 60.4548 16.0815 58.7935 16.0815C56.5066 16.0815 55.1383 17.2581 55.1383 19.2298ZM41.788 3.2762V11.1364L42.1228 10.77C43.3961 9.36357 44.8055 8.68011 46.426 8.68011C49.6687 8.68011 51.5301 11.383 51.5301 16.0969C51.5301 20.9024 49.4161 24.0078 46.1431 24.0078C44.5483 24.0078 43.2714 23.3891 42.1246 22.0628L41.788 21.6712V23.6902H40.0627V4.26353C40.2096 4.1767 41.3825 3.50558 41.788 3.2762ZM41.8291 12.4167L41.788 12.4709V20.1197L41.8189 20.1666C42.7726 21.6425 44.3263 22.5249 45.9799 22.5249C48.5337 22.5249 49.8282 20.3725 49.8282 16.1283C49.8282 12.3367 48.3939 10.165 45.8935 10.165C44.3778 10.165 43.0103 10.9222 41.8291 12.4167Z" fill="#003B70"/>
<path fill-rule="evenodd" clip-rule="evenodd" d="M37.8588 6.27888C35.0859 2.35118 30.4809 0.00781393 25.7956 0.00781393C21.1122 0.00781393 16.5063 2.35118 13.738 6.27888L13.5959 6.48098H17.0874L17.1261 6.43906C19.5025 3.98633 22.6047 2.68923 25.7956 2.68923C28.9869 2.68923 32.0884 3.98633 34.4694 6.43906L34.508 6.48098H37.9985L37.8588 6.27888Z" fill="#D9261C"/>
</svg>
