<svg width="172" height="46" viewBox="0 0 172 46" fill="none" xmlns="http://www.w3.org/2000/svg">
<g id="Citi Bank" clip-path="url(#clip0_4_1426)">
<path id="Vector" fill-rule="evenodd" clip-rule="evenodd" d="M21.52 36.42L21.39 36.54C20.5472 37.481 19.5226 38.2416 18.3781 38.7761C17.2335 39.3106 15.9925 39.6079 14.73 39.65C9.73001 39.65 6.17999 35.93 6.17999 30.8C6.17999 25.67 9.78001 21.96 14.73 21.96C15.9925 22.0022 17.2335 22.2994 18.3781 22.8339C19.5226 23.3683 20.5472 24.129 21.39 25.07L21.52 25.2L24.7 21.34L24.62 21.24C23.464 19.7674 21.9836 18.5817 20.2942 17.7751C18.6047 16.9686 16.7519 16.563 14.88 16.59C11.1737 16.5157 7.57393 17.8322 4.79001 20.28C2.04082 23.0936 0.501617 26.8712 0.501617 30.805C0.501617 34.7387 2.04082 38.5164 4.79001 41.33C7.56785 43.7892 11.1709 45.1104 14.88 45.03C16.753 45.0574 18.6069 44.6509 20.2966 43.8425C21.9863 43.034 23.4661 41.8455 24.62 40.37L24.7 40.28L21.52 36.42Z" fill="#004685"/>
<path id="Vector_2" fill-rule="evenodd" clip-rule="evenodd" d="M27.92 44.5H33.55V17.03H27.92V44.5Z" fill="#004685"/>
<path id="Vector_3" fill-rule="evenodd" clip-rule="evenodd" d="M55.6 38.53C54.3633 39.3571 52.9258 39.834 51.44 39.91C49.62 39.91 48.8 38.91 48.8 36.81V22.23H54.53V17.06H48.8V8.51001L43.28 11.51V17.11H38.53V22.28H43.28V37.79C43.28 42.01 45.79 44.9 49.52 44.97C51.275 45.0574 53.016 44.6187 54.52 43.71H54.57L55.93 38.41L55.6 38.61V38.53Z" fill="#004685"/>
<path id="Vector_4" fill-rule="evenodd" clip-rule="evenodd" d="M60.25 44.5H65.89V17.03H60.25V44.5Z" fill="#004685"/>
<path id="Vector_5" fill-rule="evenodd" clip-rule="evenodd" d="M69.17 12.21C66.6497 8.62005 63.3021 5.68968 59.4101 3.66669C55.5182 1.6437 51.1963 0.587524 46.81 0.587524C42.4237 0.587524 38.1019 1.6437 34.2099 3.66669C30.3179 5.68968 26.9703 8.62005 24.45 12.21L24.18 12.59H30.66L30.73 12.51C32.7936 10.3164 35.2843 8.56829 38.0489 7.37341C40.8134 6.17853 43.7933 5.56213 46.805 5.56213C49.8167 5.56213 52.7966 6.17853 55.5611 7.37341C58.3257 8.56829 60.8164 10.3164 62.88 12.51L62.96 12.59H69.43L69.17 12.21Z" fill="#ED1C2E"/>
<path id="Vector_6" fill-rule="evenodd" clip-rule="evenodd" d="M76.63 23.56L76.56 23.66V37.87L76.61 37.96C77.428 39.2796 78.5647 40.3723 79.9154 41.1376C81.2662 41.903 82.7877 42.3165 84.34 42.34C89.09 42.34 91.49 38.34 91.49 30.46C91.49 23.41 88.83 19.38 84.18 19.38C81.37 19.38 78.83 20.78 76.63 23.56ZM171.34 44.41V44.5H167.94C167.74 44.11 160.81 29.44 160.81 29.44L155.64 36.69V44.5H152.43V8.40997L155.64 6.58002V32.78L157.4 30.06C157.4 30.06 165.27 18.66 166.28 17.21H169.79C169.04 18.21 162.85 26.73 162.85 26.73L171.34 44.41ZM107.34 45.08H106C103.23 44.92 98.25 43.63 98.25 36.48C98.25 30.13 103.49 27.88 108.4 27.88C110.718 27.8426 113.009 28.3785 115.07 29.44L115.6 29.73V25.81C115.6 21.47 113.48 19.27 109.29 19.27C106.718 19.271 104.194 19.9617 101.98 21.27C101.77 20.78 100.98 19.14 100.82 18.68C103.522 17.3013 106.517 16.5946 109.55 16.62C115.79 16.62 118.82 19.46 118.82 25.33V44.5H115.6V40.5L114.98 41.19C114.037 42.3165 112.876 43.2402 111.566 43.9053C110.257 44.5705 108.826 44.9633 107.36 45.06L107.34 45.08ZM85.27 45.08H84C82.677 44.9923 81.3875 44.6263 80.2157 44.0059C79.0439 43.3856 78.0163 42.5248 77.2 41.48L76.58 40.75V44.5H73.37V8.40997L76.58 6.58002V21.18L77.2 20.5C78.1671 19.3058 79.3851 18.3392 80.7677 17.6686C82.1503 16.9981 83.6635 16.64 85.2 16.62C91.2 16.62 94.69 21.62 94.69 30.4C94.69 39.18 91.01 44.71 85.28 45.08H85.27ZM101.38 36.22C101.38 40.3 103.49 42.55 107.33 42.55C108.947 42.5476 110.54 42.1489 111.967 41.3889C113.395 40.6288 114.615 39.5305 115.52 38.19L115.58 38.1V32.1L115.41 32C113.195 30.7925 110.689 30.2247 108.17 30.36C103.92 30.36 101.38 32.54 101.38 36.21V36.22ZM129.28 20.46C130.07 19.2544 131.153 18.2694 132.429 17.5977C133.704 16.9259 135.129 16.5895 136.57 16.62C142.62 16.62 145.83 20.48 145.83 27.79V44.5H142.61V28.5C142.61 22.28 140.45 19.4 135.78 19.4C131.3 19.4 128.62 22.8 128.62 28.5V44.5H125.41V17.21H128.62V21.44L129.28 20.44V20.46Z" fill="#004685"/>
</g>
<defs>
<clipPath id="clip0_4_1426">
<rect width="172" height="46" fill="white"/>
</clipPath>
</defs>
</svg>
