<svg width="219" height="48" viewBox="0 0 219 48" fill="none" xmlns="http://www.w3.org/2000/svg">
<g id="City Union" clip-path="url(#clip0_4_1410)">
<path id="Vector" fill-rule="evenodd" clip-rule="evenodd" d="M45.2749 0H219V31.9085H45.2749V0Z" fill="#2E3192"/>
<path id="Vector_2" fill-rule="evenodd" clip-rule="evenodd" d="M45.2749 48H219V33.7956H45.2749V48Z" fill="#EC008C"/>
<path id="Vector_3" fill-rule="evenodd" clip-rule="evenodd" d="M35.9111 35.3051H30.4233V33.7613H36.1512C37.1116 33.7613 37.1116 35.3051 35.9111 35.3051ZM35.9111 31.6683H30.4233V30.1245H35.9798C36.9058 30.1245 36.8029 31.6683 35.9798 31.6683H35.9111ZM27.4393 37.7412H36.2542C38.8609 37.7412 39.8899 37.3295 39.8899 34.7563C39.9052 34.2503 39.7479 33.7541 39.444 33.3494C39.248 33.0923 38.9695 32.9107 38.6552 32.8349C38.6552 32.8349 38.415 32.8349 38.3464 32.8349C38.5608 32.8021 38.756 32.6923 38.8953 32.526C39.3698 31.8846 39.5898 31.0902 39.5127 30.296C39.5127 28.5805 38.175 28.0657 36.4943 28.0657H27.4393V37.7412Z" fill="#EB2967"/>
<path id="Vector_4" fill-rule="evenodd" clip-rule="evenodd" d="M0 30.3303V34.9621C0.0177789 35.7014 0.325821 36.404 0.857478 36.9178H1.06326C1.2479 37.1009 1.47033 37.2415 1.71496 37.3295C2.09534 37.4881 2.50337 37.5697 2.91545 37.5697H9.56949C9.97203 37.5712 10.3701 37.4861 10.737 37.3203C11.1039 37.1546 11.4309 36.912 11.696 36.6089C12.0019 36.2134 12.226 35.7611 12.3556 35.2781C12.4851 34.7951 12.5174 34.2911 12.4506 33.7955H9.56949C9.56949 34.4474 9.5695 34.5847 9.26081 34.9621C9.15818 35.0517 9.03818 35.1193 8.90838 35.1606C8.77858 35.202 8.64174 35.2161 8.50622 35.2023H4.1845C4.05125 35.2126 3.91733 35.1938 3.79198 35.1475C3.66663 35.1011 3.55278 35.0282 3.45828 34.9336C3.36378 34.8391 3.29088 34.7252 3.24454 34.5998C3.19819 34.4744 3.1795 34.3405 3.18979 34.2072V31.0507C3.18979 30.8141 3.28382 30.5873 3.45106 30.42C3.6183 30.2527 3.84509 30.1586 4.08161 30.1586H8.74624C8.96185 30.1671 9.16643 30.2566 9.31901 30.4093C9.47159 30.5619 9.56102 30.7665 9.56949 30.9822C9.56949 31.1881 9.56949 31.4281 9.56949 31.4281H12.3134C12.4849 31.4281 12.3134 31.4282 12.3134 30.9479C12.3858 30.101 12.1414 29.2574 11.6275 28.5805V28.3746L10.9758 27.8942C10.597 27.684 10.1738 27.5665 9.74094 27.5512H2.641C1.94528 27.6009 1.29209 27.9043 0.805247 28.4039C0.318408 28.9036 0.0318416 29.5647 0 30.2616V30.3303Z" fill="#EB2967"/>
<path id="Vector_5" fill-rule="evenodd" clip-rule="evenodd" d="M13.4453 34.8591C13.4488 35.2677 13.5549 35.6689 13.754 36.0257C13.8503 36.2663 13.9898 36.4872 14.1656 36.6776C14.4437 36.957 14.7755 37.1771 15.141 37.3245C15.5065 37.4719 15.8981 37.5436 16.2921 37.5354H23.1519C23.5612 37.539 23.9676 37.4693 24.3523 37.3295C24.8709 37.1372 25.3224 36.7978 25.6513 36.353C25.9802 35.9082 26.1725 35.3773 26.2046 34.825V27.7912H23.1519V34.3102C23.1476 34.435 23.1183 34.5575 23.0655 34.6706C23.0126 34.7837 22.9375 34.8849 22.8446 34.9682C22.7517 35.0515 22.6428 35.1152 22.5247 35.1554C22.4066 35.1956 22.2817 35.2116 22.1573 35.2023H17.4584C17.3307 35.2027 17.2044 35.1767 17.0873 35.1259C16.9702 35.0751 16.8648 35.0007 16.7779 34.9073C16.6909 34.8138 16.6242 34.7033 16.5819 34.5829C16.5396 34.4624 16.5228 34.3345 16.5322 34.2072V27.7912H13.3766V34.8591H13.4453Z" fill="#EB2967"/>
<path id="Vector_6" fill-rule="evenodd" clip-rule="evenodd" d="M14.337 16.5718V13.381C14.7461 13.2777 15.1108 13.0447 15.3766 12.717C15.6425 12.3892 15.7951 11.9842 15.8119 11.5625C16.0027 11.8109 16.2496 12.0107 16.5322 12.1457C16.7246 12.1845 16.9228 12.1845 17.1153 12.1457C17.6983 12.1457 18.2472 11.6312 18.2815 11.6312C18.3158 11.6312 18.2814 11.9398 18.6244 12.7632C18.9736 13.6636 19.5825 14.44 20.3737 14.9935L20.7853 15.268H20.9911H21.2312C21.2312 15.7141 21.2311 17.1207 20.9567 17.1207H14.68C14.4742 17.1207 14.337 16.5374 14.337 16.2629V16.5718ZM24.6268 15.268C24.6268 14.5475 24.6268 13.93 23.8036 13.5869C23.6079 13.463 23.3833 13.392 23.1519 13.381V12.1115H22.809V13.3123C22.3384 13.3196 21.8821 13.4758 21.5056 13.7584C21.3485 13.927 21.2301 14.1281 21.159 14.3474C21.0879 14.5668 21.0658 14.799 21.0941 15.0278C20.4432 14.7398 19.885 14.2765 19.4819 13.6897C19.1053 13.1654 18.8461 12.5662 18.7218 11.9327C18.5975 11.2992 18.611 10.6462 18.7615 10.0185C18.7935 9.81298 18.8635 9.61527 18.9675 9.43525C19.0053 9.24696 19.0874 9.07039 19.2074 8.92051C19.2074 8.74896 19.379 8.61188 19.5162 8.44032C19.6534 8.26877 19.5162 8.44016 19.5162 8.26861L19.7907 7.92559H19.9965C20.2859 7.66686 20.624 7.46862 20.9911 7.34237C21.1443 7.58818 21.3562 7.79213 21.6076 7.93585C21.859 8.07957 22.1421 8.15853 22.4316 8.16578C22.8622 8.21369 23.2967 8.11708 23.6665 7.89124C23.7838 7.81452 23.8783 7.70805 23.9407 7.58257C24.0588 7.48543 24.1429 7.3531 24.1809 7.205C25.0075 7.42462 25.734 7.92125 26.2389 8.61183C26.6653 9.11502 26.96 9.71635 27.0964 10.3617C27.1504 10.7257 27.1504 11.0957 27.0964 11.4596C27.0948 12.0218 26.9818 12.578 26.764 13.0962C26.5462 13.6144 26.2278 14.0843 25.8274 14.4787C25.414 14.8297 24.9518 15.1186 24.4553 15.3365L24.6268 15.268ZM14.0284 12.935C13.6614 12.9171 13.316 12.7563 13.066 12.487C12.816 12.2177 12.6813 11.8612 12.6907 11.4938C12.5793 10.3528 12.5793 9.20371 12.6907 8.06275C12.7639 7.83099 12.9039 7.62604 13.093 7.47346C13.2821 7.32089 13.5121 7.22746 13.754 7.205C14.0111 7.18394 14.2671 7.2571 14.4743 7.41085L14.8173 7.82277C15.1332 8.93731 15.2263 10.1032 15.0916 11.2538C15.1271 11.4466 15.1271 11.6442 15.0916 11.837C15.0916 11.837 15.0916 11.8371 15.0916 12.1115L14.8858 12.3515C14.7449 12.4801 14.5621 12.5533 14.3714 12.5574L14.0284 12.935ZM15.709 10.19V7.75408C15.7128 7.37799 15.8197 7.01014 16.0178 6.69047L16.3264 6.34724C16.5006 6.25414 16.6949 6.20547 16.8923 6.20547C17.0897 6.20547 17.2843 6.25414 17.4584 6.34724C18.453 6.82758 18.1785 8.16582 18.1785 9.05788C18.1785 9.94995 18.3843 10.8419 17.7326 11.4938C17.7044 11.5458 17.6652 11.5912 17.6179 11.6268C17.5705 11.6623 17.5162 11.6871 17.4584 11.6996C16.3608 12.2143 15.709 11.0821 15.709 10.2587V10.19ZM18.6588 8.85203C18.6056 8.14395 18.6056 7.43289 18.6588 6.72481C18.7127 6.45338 18.8437 6.20317 19.036 6.00422C19.1504 5.84453 19.3082 5.72097 19.4905 5.64801C19.6728 5.57506 19.872 5.55577 20.0649 5.59252C20.4765 5.59252 20.8882 6.10713 21.0254 6.62178C20.1285 7.01171 19.3654 7.65572 18.8302 8.47446C18.8302 8.47446 18.8302 8.78341 18.5901 8.85203H18.6588ZM21.5741 6.45027V4.80345C21.6251 4.54417 21.7537 4.30637 21.9428 4.12181C22.1318 3.93725 22.3724 3.81464 22.6328 3.77C22.8931 3.72535 23.1609 3.76074 23.4006 3.87177C23.6403 3.9828 23.8407 4.16425 23.9751 4.39174C24.0832 5.05066 24.0832 5.72267 23.9751 6.38159C23.969 6.67953 23.8459 6.96322 23.6322 7.17086C22.9805 7.71983 21.4713 7.41096 21.4713 6.45027H21.5741ZM21.0941 5.59252H20.8883C20.669 5.43124 20.4124 5.328 20.1426 5.29264C19.8728 5.25727 19.5984 5.29089 19.345 5.39022C19.0916 5.48956 18.8675 5.65143 18.6935 5.86078C18.5195 6.07012 18.4013 6.32009 18.35 6.58744C18.1296 6.23569 17.7847 5.98023 17.3841 5.87208C16.9834 5.76393 16.5566 5.81112 16.1892 6.00422C16.041 6.09109 15.9124 6.20786 15.8119 6.34724C15.677 6.49746 15.5722 6.67226 15.5032 6.86198L15.2974 7.54823C15.0513 7.22418 14.6918 7.00506 14.2911 6.93506C13.8903 6.86507 13.4779 6.94941 13.1365 7.17086C12.1076 7.85707 12.2448 9.40103 12.2448 10.6019C12.2448 10.8764 12.2448 10.9449 12.2448 11.1851C12.1859 11.5487 12.1859 11.9194 12.2448 12.2831C12.3503 12.5787 12.5279 12.8434 12.7615 13.0531C12.9951 13.2628 13.2772 13.4108 13.5824 13.4838C13.5824 13.8955 13.5824 14.2729 13.5824 14.7533C13.5824 15.2336 13.3767 18.1843 14.4057 18.1843H20.7853C21.1969 18.1843 21.3683 17.5667 21.4026 17.2922C21.3255 16.3362 21.4066 15.3742 21.6428 14.4446C21.6428 14.4446 21.6427 14.4446 21.8142 14.4446C22.1092 14.3392 22.4285 14.3219 22.733 14.395C23.0376 14.4681 23.3142 14.6285 23.5292 14.8563C23.6399 15.3187 23.6399 15.8006 23.5292 16.2629C23.5292 16.8119 23.5292 17.2236 23.5292 17.7383V21.1693H24.0094V16.2973C24.9263 15.9973 25.7285 15.4224 26.3074 14.6505C26.7557 14.0822 27.0718 13.4212 27.2327 12.7155C27.3936 12.0097 27.3954 11.2769 27.2377 10.5705C27.0801 9.864 26.7669 9.20158 26.3212 8.63131C25.8755 8.06104 25.3084 7.59722 24.6611 7.27368C24.4412 7.16163 24.2116 7.06971 23.9751 6.99914C23.9751 6.00415 23.975 4.63189 23.2891 4.15155C23.0001 3.99236 22.6758 3.90884 22.346 3.90884C22.0161 3.90884 21.6916 3.99236 21.4026 4.15155C20.408 4.63189 20.4765 5.38666 20.4765 6.24442L21.0941 5.59252Z" fill="#284BA0"/>
<path id="Vector_7" fill-rule="evenodd" clip-rule="evenodd" d="M19.5849 1.26938C20.741 1.21116 21.899 1.33852 23.0148 1.64674C25.1112 2.20735 27.0184 3.32126 28.5369 4.87191C29.2925 5.59875 29.9394 6.43086 30.4577 7.34236C32.0071 10.0443 32.4496 13.2415 31.6924 16.2629C31.6034 16.6476 31.4889 17.0259 31.3495 17.3952C31.3495 17.8069 31.0751 18.0814 30.9379 18.4588C30.7944 18.7933 30.6222 19.1146 30.4234 19.4194L29.8403 20.3459C29.4315 20.9122 28.9722 21.4405 28.4683 21.9242L28.1254 22.2672C27.6051 22.751 27.0426 23.1873 26.4447 23.571C25.8296 23.9701 25.1743 24.3035 24.4897 24.5659L23.9408 24.7718C22.2988 25.3564 20.5494 25.5763 18.8139 25.4164C17.0784 25.2564 15.3986 24.7205 13.8911 23.8456C12.4676 23.0171 11.2263 21.9091 10.2419 20.5884C9.25757 19.2676 8.55053 17.7614 8.16325 16.1601C7.96687 15.2805 7.85203 14.3845 7.82024 13.4838V12.1115C7.96702 10.9302 8.27871 9.77523 8.74627 8.6805C9.22359 7.61563 9.84701 6.62236 10.5985 5.72967L10.9758 5.31796C11.1267 5.11666 11.2992 4.93265 11.4903 4.76909C11.9705 4.35737 12.039 4.25448 12.725 3.73982C13.309 3.31033 13.9287 2.93148 14.5772 2.60753C16.0641 1.87584 17.6888 1.46649 19.3448 1.40654L19.5849 1.26938ZM7.44299 13.381C7.45719 16.6555 8.74945 19.7949 11.0444 22.1301C11.2813 22.4076 11.5456 22.6604 11.8333 22.8848C12.6614 23.638 13.5979 24.2627 14.6115 24.7377C16.1614 25.5066 17.8562 25.9392 19.5849 26.0071C21.2203 26.0867 22.8545 25.8297 24.3867 25.2522C26.1411 24.627 27.7345 23.6191 29.0513 22.3016C30.3514 20.9973 31.3573 19.4295 32.0012 17.7039C32.5766 16.1313 32.8335 14.46 32.7569 12.7871C32.6804 11.1142 32.2719 9.47336 31.5553 7.95991C31.0143 6.8595 30.3341 5.83317 29.5315 4.90625L28.9485 4.32304C28.1541 3.55274 27.2668 2.88421 26.3074 2.33299L25.7931 2.05845L25.2442 1.78412C23.1762 0.873497 20.9033 0.529935 18.6588 0.788986C17.5771 0.913645 16.5163 1.17907 15.5032 1.57826L14.9544 1.81846C13.8082 2.33325 12.7448 3.01534 11.7989 3.84265L11.1816 4.42586C10.9239 4.67225 10.6831 4.93605 10.4612 5.21514C10.2024 5.50885 9.96184 5.81808 9.74098 6.14137C8.24009 8.2563 7.43676 10.7873 7.44299 13.381Z" fill="#234BA0"/>
<path id="Vector_8" fill-rule="evenodd" clip-rule="evenodd" d="M22.8431 20.792H21.8142V20.0714C22.2251 20.0377 22.638 20.0377 23.0489 20.0714C23.0489 20.0714 23.0489 20.7577 22.8431 20.7577V20.792ZM21.8142 18.8363H22.809C22.9805 18.8363 22.9805 19.0423 22.9805 19.1795V19.4539H21.8142V18.8363ZM20.6825 18.3903V21.3068H23.0833C24.0779 21.3068 23.9064 20.7919 23.9064 20.0714C23.9064 19.3509 23.7008 19.7971 23.6665 19.5912C23.6322 19.3854 23.9066 18.4246 23.6665 18.2531C23.4264 18.0815 23.392 18.2531 23.1863 18.2531H20.5795L20.6825 18.3903Z" fill="#234BA0"/>
<path id="Vector_9" fill-rule="evenodd" clip-rule="evenodd" d="M16.3264 20.8607C16.3264 21.2725 16.6008 21.444 16.9781 21.444H19.2418C19.3049 21.4486 19.3682 21.4408 19.4283 21.4209C19.4883 21.401 19.544 21.3694 19.5918 21.3279C19.6396 21.2865 19.6787 21.2359 19.7069 21.1793C19.7352 21.1226 19.752 21.061 19.7563 20.9979V19.0422C19.7563 18.1501 20.2023 18.2531 18.7274 18.2531V20.7921H17.424C17.424 20.346 17.424 20.0373 17.424 19.5913V18.2531H16.3607V20.8607H16.3264Z" fill="#284BA0"/>
<path id="Vector_10" fill-rule="evenodd" clip-rule="evenodd" d="M12.1419 19.1451V20.586C12.1419 21.0664 12.1419 21.4094 12.7593 21.4094C13.5581 21.4796 14.3615 21.4796 15.1603 21.4094C15.3661 21.4094 15.4003 21.4094 15.4346 21.1692C15.4737 20.8273 15.4737 20.482 15.4346 20.14H14.3713V20.8262H13.1365V18.9049H14.3713V19.4537H15.4346C15.4757 19.1004 15.4757 18.7435 15.4346 18.3901C14.5565 18.3009 13.6717 18.3009 12.7936 18.3901C12.2448 18.3901 12.2105 18.7676 12.2105 19.2822L12.1419 19.1451Z" fill="#234BA0"/>
<path id="Vector_11" fill-rule="evenodd" clip-rule="evenodd" d="M22.0543 10.0872L23.1863 11.6997L24.1809 10.0872V9.91572C23.9014 9.4203 23.5802 8.94956 23.2206 8.50888C23.0809 8.78381 22.9203 9.04776 22.7403 9.29816L22.1914 10.0872H22.0543Z" fill="#234BA0"/>
<path id="Vector_12" fill-rule="evenodd" clip-rule="evenodd" d="M23.289 12.0429H25.107C25.2757 11.7918 25.4248 11.528 25.5529 11.2538C25.7272 11.0061 25.8765 10.7417 25.9988 10.4646H24.0094C24.0094 10.6704 23.2205 11.7341 23.1519 12.0429H23.289Z" fill="#254A9F"/>
<path id="Vector_13" fill-rule="evenodd" clip-rule="evenodd" d="M21.1282 12.0429H22.9461C22.9461 11.7684 22.1916 10.7391 22.123 10.4646H20.2707C20.4622 10.8783 20.6799 11.2795 20.9224 11.6656L21.1282 12.0429Z" fill="#254A9F"/>
<path id="Vector_14" d="M3.91015 40.143H3.05267V42.7848H2.74389V40.143H1.88641V39.8685H3.91015V40.143ZM5.04198 41.0351C5.00457 41.0169 4.96351 41.0075 4.92192 41.0075C4.88032 41.0075 4.83926 41.0169 4.80186 41.0351C4.72672 41.0348 4.65272 41.0536 4.58676 41.0896C4.5208 41.1255 4.46507 41.1776 4.42462 41.241C4.3645 41.419 4.3645 41.6118 4.42462 41.7898V42.8534H4.11594V40.7606H4.42462V41.1723C4.4763 41.0405 4.55852 40.9229 4.66463 40.8293C4.71318 40.8075 4.76582 40.7962 4.81902 40.7962C4.87223 40.7962 4.92487 40.8075 4.97342 40.8293H5.1792V41.1723L5.04198 41.0351ZM7.09995 42.7848H6.85983V42.4761C6.79983 42.5957 6.70619 42.6951 6.5904 42.7621C6.47461 42.8292 6.34172 42.861 6.20814 42.8534C5.72795 42.8534 5.45355 42.5446 5.45355 41.9613V40.6919H5.79656V41.8929C5.79656 42.3389 5.79654 42.5789 6.31103 42.5789C6.39138 42.5818 6.47117 42.5646 6.54309 42.5286C6.615 42.4927 6.67671 42.4391 6.7226 42.373C6.78045 42.2182 6.78045 42.0477 6.7226 41.8929V40.6919H7.06561V42.7848H7.09995ZM7.64875 42.373C7.81379 42.5065 8.01957 42.5791 8.23177 42.5789C8.54046 42.5789 8.67768 42.579 8.67768 42.2702C8.69574 42.2389 8.70521 42.2033 8.70521 42.1672C8.70521 42.1311 8.69574 42.0957 8.67768 42.0644C8.67768 42.0644 8.50623 42.0644 8.30044 41.8585C8.1277 41.8137 7.97236 41.718 7.85453 41.584C7.8153 41.473 7.8153 41.352 7.85453 41.241C7.85153 41.1566 7.87243 41.0732 7.91493 41.0003C7.95743 40.9275 8.0197 40.8681 8.09455 40.8293C8.27031 40.7568 8.46758 40.7568 8.64334 40.8293C8.80145 40.7938 8.96548 40.7938 9.12358 40.8293V41.1723C8.95581 41.1217 8.77689 41.1217 8.60912 41.1723H8.30044C8.28224 41.2097 8.2727 41.2507 8.2727 41.2923C8.2727 41.3339 8.28224 41.3751 8.30044 41.4125C8.2769 41.4791 8.2769 41.5517 8.30044 41.6183H8.64334C8.82309 41.67 8.98784 41.7642 9.12358 41.8929C9.14622 41.9472 9.15792 42.0055 9.15792 42.0644C9.15792 42.1233 9.14622 42.1815 9.12358 42.2359C9.12908 42.3252 9.10948 42.4142 9.06706 42.493C9.02464 42.5719 8.96105 42.6373 8.88346 42.6819C8.69347 42.7402 8.49044 42.7402 8.30044 42.6819C8.12171 42.7374 7.93037 42.7374 7.75164 42.6819V42.3389L7.64875 42.373ZM10.4955 42.7848H10.1868C9.84386 42.7848 9.63805 42.5789 9.63805 42.1672V40.8977H9.29504V40.6234H9.63805V40.1087H9.94673V40.7262H10.4955V41.0008H9.94673V42.2015C9.90668 42.3006 9.90668 42.4114 9.94673 42.5104C9.94673 42.5104 9.94675 42.5104 10.1868 42.5104H10.3926V42.7848H10.4955ZM11.9704 40.8634C12.1843 40.7238 12.4354 40.6521 12.6907 40.6575C13.1709 40.6575 13.411 40.8978 13.411 41.4125V42.7848H13.1023V42.4761C13.0423 42.5957 12.9487 42.6951 12.8329 42.7621C12.7171 42.8292 12.5842 42.861 12.4506 42.8534C12.2948 42.9057 12.1262 42.9057 11.9704 42.8534C11.8588 42.7318 11.7976 42.5724 11.7989 42.4074C11.7989 42.03 12.039 41.7898 12.4849 41.7211H13.1023C13.1023 41.3437 13.1023 41.1723 12.6907 41.1723C12.44 41.1629 12.1949 41.2487 12.0047 41.4125V41.1036L11.9704 40.8634ZM12.5878 41.7898C12.4648 41.7526 12.3335 41.7526 12.2105 41.7898C12.1704 41.8889 12.1704 41.9997 12.2105 42.0987C12.1944 42.1367 12.1862 42.1775 12.1862 42.2187C12.1862 42.26 12.1944 42.3009 12.2105 42.3389C12.2987 42.3734 12.3967 42.3734 12.4849 42.3389C12.6298 42.3861 12.7858 42.3861 12.9307 42.3389C12.9804 42.1944 12.9804 42.0374 12.9307 41.8929V41.6527H12.4506L12.5878 41.7898ZM15.7776 42.7848H15.4346V41.584C15.4346 41.1379 15.4346 40.9321 14.9544 40.9321C14.7906 40.9369 14.6334 40.9973 14.5086 41.1036C14.4587 41.2598 14.4587 41.4278 14.5086 41.584V42.7848H14.1656V40.6919H14.5086V41.0351C14.5775 40.9155 14.6778 40.8169 14.7987 40.7503C14.9197 40.6838 15.0566 40.6517 15.1945 40.6575C15.2904 40.6494 15.3868 40.6639 15.4762 40.6996C15.5655 40.7354 15.6452 40.7914 15.709 40.8634C15.8524 41.0496 15.9254 41.2805 15.9149 41.5153V42.7848H15.7776ZM18.1785 42.7848H17.8699V42.4417C17.8069 42.5763 17.7039 42.688 17.575 42.7617C17.446 42.8354 17.2974 42.8675 17.1496 42.8534C17.0328 42.8563 16.9168 42.8331 16.81 42.7856C16.7032 42.7381 16.6084 42.6675 16.5322 42.5789C16.3558 42.3554 16.2701 42.0737 16.2921 41.7898C16.281 41.4912 16.3784 41.1987 16.5664 40.9664C16.6498 40.8662 16.755 40.7862 16.8739 40.7327C16.9927 40.6792 17.1223 40.6535 17.2526 40.6575C17.3782 40.6447 17.5045 40.6707 17.6149 40.7321C17.7253 40.7934 17.8145 40.8873 17.8699 41.0008V39.697H18.1785V42.7848ZM17.8699 41.5496C17.8744 41.4674 17.8614 41.3853 17.8318 41.3084C17.8023 41.2315 17.7567 41.1616 17.6983 41.1036C17.6403 41.0451 17.5706 40.9998 17.4937 40.9702C17.4169 40.9406 17.3348 40.9276 17.2526 40.9321C17.162 40.9267 17.0714 40.9424 16.9881 40.9781C16.9047 41.0139 16.8309 41.0686 16.7723 41.1379C16.6289 41.3241 16.5559 41.555 16.5664 41.7898C16.5657 41.9968 16.6253 42.1995 16.738 42.373C16.7981 42.4404 16.8722 42.4937 16.9552 42.5293C17.0382 42.5648 17.128 42.5818 17.2182 42.5789C17.3034 42.5816 17.3881 42.5644 17.4655 42.5286C17.5429 42.4929 17.6109 42.4396 17.6641 42.373C17.7323 42.3063 17.7857 42.2261 17.8211 42.1375C17.8566 42.0488 17.8733 41.9539 17.8699 41.8585V41.5496ZM21.2998 42.7848H19.7907V39.8685H21.2655V40.143H20.0992V41.1723H21.1625V41.4812H20.0992V42.5448H21.2998V42.8191V42.7848ZM23.3577 40.6919L22.6373 41.7555L23.3234 42.7848H22.9461L22.5346 42.0987L22.123 42.7848H21.7457L22.4659 41.7555L21.7799 40.6919H22.1573L22.6717 41.584L23.1519 40.7606L23.3577 40.6919ZM25.1413 42.6819C24.9501 42.7313 24.7493 42.7313 24.5581 42.6819C24.4225 42.6887 24.287 42.6645 24.1622 42.6109C24.0374 42.5574 23.9266 42.476 23.8379 42.373C23.6514 42.167 23.5528 41.8961 23.5635 41.6183C23.5554 41.4672 23.5786 41.3161 23.6317 41.1744C23.6849 41.0327 23.7669 40.9035 23.8723 40.7949C23.9729 40.6885 24.0958 40.6056 24.2321 40.5522C24.3685 40.4988 24.515 40.4762 24.6611 40.486C24.8192 40.4506 24.9832 40.4506 25.1413 40.486V41.1723C24.973 41.1255 24.7951 41.1255 24.6268 41.1723C24.5314 41.1689 24.4365 41.1854 24.3479 41.2209C24.2593 41.2563 24.1791 41.3099 24.1124 41.3781C23.9642 41.5505 23.8794 41.7684 23.8723 41.9957C23.8607 42.2201 23.9341 42.4407 24.0781 42.6132C24.1448 42.6815 24.225 42.7351 24.3136 42.7705C24.4022 42.806 24.4971 42.8225 24.5924 42.8191C24.772 42.8688 24.9618 42.8688 25.1413 42.8191V43.0936V42.6819ZM27.3022 41.8242H25.8274C25.8197 42.0215 25.8802 42.2153 25.9988 42.373C26.0655 42.4413 26.1457 42.4949 26.2343 42.5303C26.3229 42.5658 26.4178 42.5823 26.5132 42.5789C26.7527 42.583 26.9852 42.4975 27.1649 42.3389V42.6476C26.9551 42.796 26.7012 42.8686 26.4447 42.8534C26.3141 42.8602 26.1836 42.8357 26.0643 42.782C25.945 42.7283 25.8403 42.6471 25.7587 42.5448C25.5668 42.3282 25.4682 42.0444 25.4842 41.7555C25.4813 41.4685 25.5784 41.1896 25.7587 40.9664C25.8451 40.8698 25.9508 40.7924 26.0689 40.7392C26.1871 40.686 26.3151 40.6581 26.4447 40.6575C26.5675 40.6466 26.691 40.666 26.8046 40.7139C26.9182 40.7617 27.0185 40.8366 27.0964 40.9321C27.2448 41.1419 27.3173 41.3961 27.3022 41.6527V41.8242ZM26.9934 41.5496C27.0383 41.4044 27.0383 41.2489 26.9934 41.1036C26.9459 41.0414 26.8829 40.9928 26.8106 40.9627C26.7384 40.9325 26.6595 40.922 26.5818 40.9321C26.505 40.9303 26.4287 40.9446 26.3578 40.9742C26.2869 41.0037 26.223 41.0478 26.1703 41.1036C26.056 41.2266 25.9839 41.3828 25.9645 41.5496H26.9934ZM27.8166 42.7848V39.697H28.1253V42.7848H27.8166ZM28.8455 42.7848V39.697H29.1543V42.7848H28.8455ZM31.5209 41.8242H30.0117C30.0166 42.0251 30.0891 42.2185 30.2175 42.373C30.2761 42.4424 30.35 42.4971 30.4334 42.5328C30.5167 42.5686 30.6072 42.5843 30.6978 42.5789C30.9475 42.5819 31.1904 42.4971 31.3838 42.3389V42.6476C31.1593 42.7919 30.8958 42.8637 30.6291 42.8534C30.4988 42.8575 30.3693 42.8318 30.2504 42.7783C30.1315 42.7248 30.0264 42.645 29.9431 42.5448C29.7636 42.3229 29.6774 42.0398 29.703 41.7555C29.6931 41.6122 29.7123 41.4685 29.7595 41.3329C29.8066 41.1973 29.8808 41.0726 29.9774 40.9664C30.0608 40.8662 30.1659 40.7862 30.2847 40.7327C30.4036 40.6792 30.5332 40.6535 30.6634 40.6575C30.7816 40.6425 30.9017 40.6602 31.0105 40.7086C31.1194 40.757 31.2128 40.8343 31.2808 40.9321C31.4414 41.1374 31.5262 41.392 31.5209 41.6527V41.8242ZM31.178 41.5496C31.2371 41.4068 31.2371 41.2464 31.178 41.1036C31.1359 41.0442 31.0787 40.997 31.0124 40.9668C30.9461 40.9367 30.873 40.9247 30.8006 40.9321C30.7229 40.922 30.6442 40.9325 30.572 40.9627C30.4997 40.9928 30.4365 41.0414 30.389 41.1036C30.2621 41.2218 30.1777 41.3786 30.1489 41.5496H31.178ZM33.7504 42.7848H33.4417V41.584C33.4417 41.1379 33.4416 40.9321 32.9271 40.9321C32.7726 40.9325 32.6246 40.9941 32.5155 41.1036C32.4678 41.2601 32.4678 41.4274 32.5155 41.584V42.7848H32.2069V40.6919H32.5155V41.0351C32.5871 40.9179 32.6881 40.8213 32.8084 40.7551C32.9287 40.6889 33.0643 40.6553 33.2015 40.6575C33.3023 40.6515 33.4032 40.6667 33.4978 40.7021C33.5923 40.7376 33.6785 40.7925 33.7504 40.8634C33.8088 41.0768 33.8088 41.3019 33.7504 41.5153V42.7848ZM35.8083 42.7848C35.6177 42.8391 35.4158 42.8391 35.2253 42.7848C35.0906 42.7848 34.9572 42.7574 34.8334 42.7043C34.7096 42.6513 34.5978 42.5737 34.5049 42.4761C34.3184 42.27 34.2198 41.999 34.2305 41.7211C34.2224 41.57 34.2458 41.4189 34.2989 41.2772C34.3521 41.1355 34.4338 41.0063 34.5393 40.8977C34.6413 40.7932 34.7644 40.7116 34.9004 40.6584C35.0364 40.6051 35.1822 40.5816 35.3281 40.5891C35.4862 40.5536 35.6502 40.5536 35.8083 40.5891V41.1723C35.6405 41.1217 35.4615 41.1217 35.2937 41.1723C35.1984 41.1689 35.1035 41.1854 35.0149 41.2209C34.9263 41.2563 34.8461 41.3099 34.7794 41.3781C34.641 41.5538 34.5682 41.7721 34.5736 41.9957C34.5145 42.1973 34.5145 42.4116 34.5736 42.6132C34.6455 42.6841 34.7315 42.739 34.8261 42.7745C34.9206 42.81 35.0215 42.8252 35.1223 42.8191C35.291 42.8627 35.4681 42.8627 35.6369 42.8191V43.0936L35.8083 42.7848ZM38.0035 41.927H36.4943C36.4883 42.0278 36.5035 42.129 36.5389 42.2235C36.5744 42.3181 36.6293 42.4041 36.7001 42.4761C36.7586 42.5454 36.8324 42.6001 36.9157 42.6359C36.9991 42.6716 37.0898 42.6873 37.1804 42.6819C37.2995 42.6875 37.4184 42.6692 37.5304 42.6279C37.6423 42.5867 37.745 42.5233 37.8321 42.4417V42.7506C37.6223 42.899 37.3682 42.9716 37.1117 42.9565C36.9814 42.9605 36.8519 42.9348 36.733 42.8813C36.6141 42.8278 36.509 42.7478 36.4257 42.6476C36.2461 42.4258 36.16 42.1428 36.1856 41.8585C36.1757 41.7153 36.1949 41.5715 36.2421 41.4359C36.2892 41.3003 36.3634 41.1754 36.46 41.0692C36.5434 40.969 36.6485 40.8893 36.7673 40.8357C36.8862 40.7822 37.0157 40.7565 37.146 40.7606C37.2635 40.7523 37.3811 40.773 37.4887 40.8209C37.5964 40.8687 37.6908 40.9423 37.7634 41.0351C37.924 41.2405 38.0088 41.4948 38.0035 41.7555V41.927ZM37.6604 41.6527C37.7195 41.5099 37.7195 41.3494 37.6604 41.2066C37.6129 41.1444 37.5499 41.0958 37.4776 41.0657C37.4054 41.0356 37.3264 41.0251 37.2488 41.0351C37.1767 41.031 37.1048 41.0444 37.0391 41.0743C36.9733 41.1042 36.9159 41.1496 36.8716 41.2066C36.8038 41.2612 36.7476 41.3287 36.7064 41.4054C36.6652 41.482 36.6397 41.5661 36.6315 41.6527H37.6604ZM9.63805 47.5539C9.75033 47.5846 9.86878 47.5846 9.98106 47.5539H10.3926C10.8385 47.5539 11.0443 47.5539 11.0443 47.0735C11.0647 46.9948 11.0647 46.9123 11.0443 46.8335C11.0443 46.8335 11.0444 46.8334 10.8729 46.6618L10.427 46.4218C10.1948 46.3136 9.98522 46.1622 9.8095 45.9758C9.76947 45.8415 9.76947 45.6984 9.8095 45.5641C9.81201 45.458 9.83796 45.3537 9.88539 45.2588C9.93282 45.1639 10.0006 45.0807 10.084 45.015C10.2979 44.8754 10.5489 44.8037 10.8042 44.8091C11.0067 44.7569 11.2191 44.7569 11.4216 44.8091V45.1865C11.2105 45.1133 10.981 45.1133 10.77 45.1865C10.624 45.1472 10.4701 45.1472 10.3241 45.1865C10.3241 45.1865 10.1525 45.1866 10.1525 45.5297C10.1365 45.5974 10.1365 45.6679 10.1525 45.7356L10.3241 45.9071L10.7356 46.1473C10.9712 46.2335 11.1829 46.3746 11.353 46.559C11.4592 46.6838 11.5197 46.8412 11.5245 47.0051C11.53 47.1173 11.5079 47.2292 11.4601 47.3309C11.4122 47.4326 11.3401 47.521 11.2501 47.5883C11.0275 47.7369 10.7627 47.8091 10.4955 47.7941H10.084C10.084 47.7941 9.80957 47.7941 9.77528 47.7941V47.4168L9.63805 47.5539ZM12.5878 45.3924H12.3134V47.7941H12.5878V48.0343H11.696V47.7598H11.9704V45.358H11.696V45.0837H12.5878V45.358V45.3924ZM15.4346 48.0687H15.023L13.4795 45.7012C13.5075 45.8255 13.5075 45.9544 13.4795 46.0786V48.0343H13.1365V45.0837H13.7197L15.1945 47.4511V47.6226C15.1945 47.6226 15.1945 47.3825 15.1945 47.2109V45.0837H15.5375V48.0343L15.4346 48.0687ZM18.2128 48.0687C17.9431 48.1399 17.6595 48.1399 17.3897 48.0687C17.2039 48.0772 17.0184 48.0447 16.8465 47.9736C16.6747 47.9024 16.5205 47.7943 16.395 47.657C16.1447 47.3733 16.0101 47.006 16.0177 46.6277C15.9999 46.2107 16.1479 45.8035 16.4293 45.4954C16.5636 45.3483 16.7282 45.2321 16.9119 45.1551C17.0955 45.0781 17.2935 45.0421 17.4925 45.0493C17.7308 45.0084 17.9745 45.0084 18.2128 45.0493V45.3924C17.9754 45.3414 17.7299 45.3414 17.4925 45.3924C17.3356 45.3883 17.1799 45.4203 17.0373 45.4858C16.8946 45.5512 16.7687 45.6484 16.6693 45.7699C16.4556 46.0165 16.3451 46.3358 16.3607 46.6618C16.3503 46.9709 16.4473 47.274 16.6351 47.5196C16.7325 47.6322 16.854 47.7215 16.9906 47.7809C17.1271 47.8403 17.2752 47.8683 17.424 47.8628C17.7009 47.8679 17.9737 47.7967 18.2128 47.657V47.9656V48.0687ZM20.3394 48.0687H18.7959V45.118H20.2707V45.4267H19.1046V46.4218H20.2022V46.7305H19.1046V47.7598H20.5795V48.0343L20.3394 48.0687ZM23.4948 48.0687H21.8485V47.7941H22.5346V45.4611L21.8485 45.6669V45.358L22.8431 45.0493V47.7941H23.4948V48.0343V48.0687ZM24.1124 47.6913C24.2795 47.7463 24.4597 47.7463 24.6268 47.6913C24.7473 47.6956 24.867 47.6697 24.9749 47.6157C25.0828 47.5617 25.1753 47.4815 25.2441 47.3824C25.3967 47.0985 25.4679 46.7778 25.4499 46.456C25.3937 46.5786 25.3008 46.6809 25.184 46.7485C25.0673 46.8161 24.9325 46.8458 24.7982 46.8335C24.6811 46.8291 24.566 46.8015 24.4595 46.7525C24.353 46.7035 24.2571 46.6342 24.1775 46.5481C24.0979 46.4621 24.036 46.3612 23.9954 46.2512C23.9548 46.1412 23.9361 46.0243 23.9407 45.9071C23.9324 45.7824 23.9495 45.6573 23.9908 45.5394C24.032 45.4214 24.0966 45.3131 24.1809 45.2209C24.2714 45.1321 24.3788 45.0621 24.4965 45.015C24.6143 44.9679 24.7401 44.9445 24.8669 44.9463C25.0014 44.937 25.136 44.9639 25.2567 45.0242C25.3773 45.0846 25.4797 45.1762 25.5529 45.2895C25.7366 45.5873 25.8207 45.9357 25.793 46.2845C25.8143 46.7176 25.7068 47.1474 25.4842 47.5196C25.388 47.6659 25.2548 47.7843 25.0982 47.8626C24.9416 47.9409 24.7672 47.9764 24.5924 47.9656C24.4343 48.0011 24.2705 48.0011 24.1124 47.9656V47.657V47.6913ZM24.1124 46.0099C24.0545 46.1648 24.0545 46.3354 24.1124 46.4903C24.1656 46.5569 24.2335 46.6102 24.3109 46.6459C24.3883 46.6816 24.4729 46.6989 24.5581 46.6962C24.7127 46.6962 24.8612 46.6347 24.9705 46.5253C25.0799 46.4159 25.1413 46.2676 25.1413 46.113C25.1415 45.9167 25.0817 45.7253 24.9699 45.5641C24.9186 45.4953 24.8508 45.4403 24.7729 45.4043C24.695 45.3683 24.6096 45.3524 24.524 45.358C24.3913 45.308 24.245 45.308 24.1124 45.358C24.0647 45.5146 24.0647 45.6819 24.1124 45.8384V46.0099ZM26.0331 46.6618C26.0048 46.2473 26.0876 45.8328 26.2731 45.4611C26.3556 45.3384 26.4687 45.2392 26.6009 45.1731C26.7331 45.107 26.8801 45.0762 27.0277 45.0837C27.6108 45.0837 27.9196 45.564 27.9196 46.5933C27.9457 46.9857 27.8625 47.3775 27.6794 47.7254C27.6 47.8431 27.4926 47.9391 27.3669 48.005C27.2412 48.0709 27.101 48.1046 26.9591 48.103C26.8199 48.1176 26.6795 48.0892 26.5569 48.0218C26.4343 47.9543 26.3353 47.8508 26.2731 47.7254C26.0901 47.4023 26.0068 47.0323 26.0331 46.6618ZM26.3417 46.6618C26.3417 47.4853 26.5818 47.8628 26.9934 47.8628C27.405 47.8628 27.6108 47.4853 27.6108 46.6618C27.6108 45.8384 27.405 45.3924 26.9934 45.3924C26.5818 45.3924 26.3417 45.8041 26.3417 46.6618ZM30.2175 47.3137H29.8403V48.0343H29.5315V47.2453H28.1253V47.0394L29.4287 45.0837H29.8403V46.9707H30.2175V47.2453V47.3137ZM29.5315 47.0394V45.4611C29.5315 45.4611 29.5315 45.461 29.5315 45.6669L28.6056 47.0394H29.5315Z" fill="#2E3192"/>
<path id="Vector_15" d="M56.1476 20.2089H51.4487V26.5562H56.1476V24.3946L57.8626 24.9093V26.0758C57.9362 26.7287 57.8044 27.3886 57.4853 27.963C57.2962 28.1572 57.0645 28.3047 56.8085 28.394C56.5526 28.4833 56.2794 28.5119 56.0105 28.4775H51.4487C51.1799 28.5093 50.9074 28.4796 50.6519 28.3904C50.3964 28.3012 50.1645 28.1551 49.9738 27.963C49.6707 27.3829 49.5398 26.7279 49.5966 26.0758V20.7921C49.5398 20.1399 49.6707 19.4852 49.9738 18.9051C50.1645 18.713 50.3964 18.5668 50.6519 18.4776C50.9074 18.3885 51.1799 18.3585 51.4487 18.3903H55.9075C56.1764 18.3559 56.4496 18.3846 56.7055 18.4739C56.9615 18.5632 57.1932 18.7108 57.3823 18.9051C57.7014 19.4795 57.8335 20.1391 57.7598 20.7921V21.7185L56.0448 22.0959V20.2089H56.1476ZM60.5721 28.4775V20.2089H62.0472V28.4775H60.5721ZM68.0837 21.6155V28.4775H66.5745V21.6155H63.6248V20.1402H71.0335V21.6155H68.0837ZM74.9435 28.4775V24.772L71.5136 20.2089H73.5373L75.6982 23.2967L77.9275 20.2089H79.6768L76.2469 24.7378V28.4775H74.9435ZM88.6631 18.3903V26.5562H93.6366V18.3903H95.3515V26.0758C95.4252 26.7287 95.2933 27.3886 94.9743 27.963C94.7851 28.1572 94.5534 28.3047 94.2975 28.394C94.0415 28.4833 93.7683 28.5119 93.4994 28.4775H88.8348C88.571 28.5148 88.3019 28.4874 88.051 28.3977C87.8001 28.3081 87.5747 28.159 87.3941 27.963C87.061 27.3933 86.9169 26.7325 86.9825 26.0758V18.3903H88.6631ZM98.3012 28.4775V20.2089H99.4675L104.681 25.6984V20.2089H106.019V28.4775H104.99L99.8104 22.9193V28.4775H98.3012ZM108.248 28.4775V20.2089H109.757V28.4775H108.248ZM113.462 26.8994H118.401V21.7185H113.53V26.8994H113.462ZM111.952 22.1646C111.892 21.6261 112.012 21.0827 112.295 20.6206C112.461 20.4592 112.662 20.3383 112.882 20.2669C113.102 20.1955 113.335 20.1756 113.564 20.2089H118.298C118.526 20.1829 118.758 20.2061 118.977 20.2771C119.196 20.3481 119.397 20.4653 119.567 20.6206C119.818 21.094 119.926 21.6308 119.875 22.1646V26.5218C119.926 27.0556 119.818 27.5924 119.567 28.0658C119.397 28.2211 119.196 28.3382 118.977 28.4093C118.758 28.4803 118.526 28.5035 118.298 28.4775H113.564C113.335 28.5108 113.102 28.4909 112.882 28.4195C112.662 28.3481 112.461 28.2272 112.295 28.0658C112.012 27.6037 111.892 27.0603 111.952 26.5218V22.1646ZM122.242 28.4775V20.2089H123.271L128.485 25.6984V20.2089H129.822V28.4775H128.793L123.477 22.9193V28.4775H122.242ZM144.022 20.0373H140.078V22.4389H144.056C144.268 22.5071 144.496 22.5071 144.708 22.4389C144.835 22.2857 144.897 22.0885 144.879 21.89V20.9292C144.893 20.7312 144.832 20.5353 144.708 20.3804C144.496 20.3121 144.268 20.3121 144.056 20.3804L144.022 20.0373ZM144.022 24.0859H140.078V26.6592H144.056C144.179 26.6764 144.303 26.6669 144.422 26.6313C144.54 26.5958 144.65 26.5351 144.742 26.4533C144.869 26.2479 144.929 26.0081 144.914 25.7671V24.978C144.929 24.7371 144.869 24.4973 144.742 24.2918C144.65 24.21 144.54 24.1493 144.422 24.1138C144.303 24.0783 144.179 24.0688 144.056 24.0859H144.022ZM138.363 28.4775V18.3903H144.777C145.01 18.3733 145.245 18.4075 145.464 18.4904C145.683 18.5734 145.882 18.7032 146.046 18.8707C146.358 19.2957 146.505 19.8205 146.457 20.346V21.5811C146.463 21.9957 146.343 22.4023 146.114 22.7478C145.867 23.0304 145.526 23.2135 145.154 23.2625C145.55 23.3395 145.904 23.5593 146.149 23.8801C146.397 24.2804 146.517 24.7474 146.492 25.218V26.4875C146.519 26.759 146.484 27.0333 146.389 27.2891C146.294 27.5449 146.141 27.7755 145.943 27.963C145.483 28.3452 144.892 28.53 144.296 28.4775H138.363ZM148.035 28.4775L151.671 20.2089H153.111L156.781 28.4775H155.101L154.346 26.6592H150.23L149.441 28.4775H148.035ZM150.916 25.0465H153.729L152.322 21.6155L150.916 25.0465ZM157.776 28.4775V20.2089H158.805L164.018 25.6984V20.2089H165.356V28.4775H164.327L159.148 22.9193V28.4775H157.776ZM167.757 28.4775V20.2089H169.266V23.6399L172.696 20.2089H174.857L170.844 24.0172L175.577 28.4432H173.211L169.369 24.7035V28.4432L167.757 28.4775ZM182.54 28.4775V18.3903H184.289V26.5562H189.88V28.4775H182.54ZM195.196 21.6155V28.4775H193.687V21.6155H190.737V20.1402H198.146V21.6155H195.196ZM201.233 26.8651H203.154C203.938 26.9506 204.724 26.7293 205.349 26.2475C205.594 25.9611 205.778 25.6277 205.89 25.2679C206.002 24.9081 206.039 24.5292 206.001 24.1544C206.06 23.4789 205.864 22.8056 205.452 22.2674C205.26 22.0401 205.017 21.8623 204.742 21.7489C204.468 21.6354 204.17 21.5896 203.874 21.6155H201.233V26.8651ZM199.724 28.4091V20.1402H203.84C204.347 20.1027 204.857 20.1788 205.332 20.3628C205.806 20.5467 206.234 20.8339 206.584 21.2038C207.252 22.0756 207.582 23.1609 207.51 24.2574C207.558 24.8125 207.494 25.3715 207.324 25.9018C207.153 26.432 206.878 26.9226 206.515 27.3452C206.109 27.7263 205.627 28.0181 205.102 28.2013C204.576 28.3845 204.017 28.4553 203.462 28.4091H199.724Z" fill="white"/>
</g>
<defs>
<clipPath id="clip0_4_1410">
<rect width="219" height="48" fill="white"/>
</clipPath>
</defs>
</svg>
