<svg width="110" height="24" viewBox="0 0 110 24" fill="none" xmlns="http://www.w3.org/2000/svg">
<path fill-rule="evenodd" clip-rule="evenodd" d="M22.6125 0H109.396V15.9486H22.6125V0Z" fill="#2E3192"/>
<path fill-rule="evenodd" clip-rule="evenodd" d="M22.6125 23.9828H109.396V16.8737H22.6125V23.9828Z" fill="#EC0677"/>
<path fill-rule="evenodd" clip-rule="evenodd" d="M17.953 17.6274H15.195V16.8565H18.0558C18.5526 16.8565 18.5354 17.6274 17.953 17.6274ZM17.953 15.8115H15.195V15.0406H17.9701C18.4498 15.0406 18.3984 15.8115 17.953 15.8115ZM13.7731 18.7922H18.1757C19.4776 18.7922 19.9915 18.5695 19.9915 17.2847C19.9915 16.9935 19.9059 16.7708 19.786 16.5995C19.6832 16.4625 19.5461 16.3939 19.392 16.3254C19.3063 16.2912 19.272 16.3254 19.2207 16.2569C19.3234 16.2569 19.4433 16.1541 19.4947 16.1027C19.7517 15.8458 19.8031 15.3832 19.8031 14.9892C19.8031 14.1327 19.135 13.8929 18.2785 13.8929H13.756V18.8094L13.7731 18.7922Z" fill="#EC0677"/>
<path fill-rule="evenodd" clip-rule="evenodd" d="M0.0171277 15.1434V17.4561C0.0171277 17.7987 0.205564 18.2441 0.445393 18.4497C0.496785 18.4839 0.496787 18.4839 0.548179 18.5353C0.650963 18.621 0.753744 18.6895 0.873658 18.7409C1.06209 18.8094 1.2334 18.8608 1.47323 18.8608H4.79657C5.24197 18.8608 5.58458 18.6723 5.85867 18.3811C6.21841 18.0042 6.23554 17.5075 6.23554 16.9935C6.23554 16.9422 6.23554 16.925 6.16702 16.925H4.72805C4.72805 17.2676 4.76231 17.3362 4.57387 17.5075C4.48822 17.5931 4.36831 17.6274 4.197 17.6274H2.03854C1.74732 17.6274 1.52462 17.439 1.52462 17.1477V15.5546C1.52462 15.3319 1.73019 15.1092 1.97002 15.1092H4.29978C4.50535 15.1092 4.71092 15.2976 4.71092 15.5203C4.71092 15.6231 4.67666 15.743 4.77944 15.743H6.14989C6.23554 15.743 6.21841 15.6745 6.21841 15.5032C6.21841 15.0578 6.18415 14.6467 5.8758 14.3212C5.84154 14.2869 5.82441 14.2527 5.79015 14.2184L5.46466 13.9786C5.31049 13.8929 5.08779 13.8073 4.86509 13.8073H1.31906C0.650964 13.8073 0 14.4753 0 15.1434H0.0171277Z" fill="#EC0677"/>
<path fill-rule="evenodd" clip-rule="evenodd" d="M6.73247 17.4218C6.73247 17.6445 6.80099 17.8501 6.86951 18.0042C6.9209 18.1242 6.98943 18.2441 7.07508 18.3297L7.12647 18.3811H7.1436C7.38343 18.6552 7.72604 18.8436 8.2057 18.8436H11.5804C11.8031 18.8436 12.0087 18.8094 12.18 18.7408C12.6768 18.5353 13.1051 18.0556 13.1051 17.5074V13.8929H11.5804V17.1306C11.5804 17.3875 11.3577 17.576 11.1008 17.576H8.73674C8.47979 17.576 8.27422 17.3361 8.27422 17.0621V13.8929H6.71533V17.4218H6.73247Z" fill="#EC0677"/>
<path fill-rule="evenodd" clip-rule="evenodd" d="M7.17772 8.29117V6.68092C7.5546 6.68092 7.89721 6.14985 7.89721 5.77297C7.99999 5.89289 8.10278 5.99569 8.25695 6.06421C8.35974 6.11561 8.41113 6.09847 8.54818 6.1156C8.8394 6.14987 9.11349 5.87576 9.13062 5.85863C9.21627 5.82437 9.13062 6.01281 9.31905 6.42394C9.52462 6.9036 9.73018 7.2291 10.1927 7.53745C10.2612 7.58884 10.3126 7.62308 10.3811 7.67447C10.4154 7.6916 10.4497 7.70876 10.4839 7.72589L10.6039 7.77728C10.6039 7.99997 10.6552 8.70232 10.4668 8.70232H7.3319C7.22911 8.70232 7.16059 8.41109 7.16059 8.29117H7.17772ZM12.3854 7.62308C12.3854 7.26334 12.3169 6.955 11.9743 6.7837C11.8886 6.73231 11.7687 6.68092 11.6659 6.68092V6.06421H11.4946V6.66377C11.2719 6.66377 11.015 6.73231 10.8437 6.86936C10.6724 7.0064 10.621 7.21195 10.621 7.5203C10.364 7.46891 9.95289 7.02351 9.81584 6.85221C9.40471 6.2869 9.33618 5.68734 9.45609 5.01925C9.47322 4.91646 9.52462 4.83081 9.55888 4.72803C9.59314 4.60812 9.6274 4.57383 9.6788 4.48818C9.74732 4.38539 9.76444 4.334 9.83297 4.24835C9.86723 4.19696 9.88436 4.19698 9.91862 4.16272L10.0557 4.00852C10.0557 4.00852 10.0899 3.97426 10.1071 3.95713C10.1585 3.90574 10.1584 3.90576 10.2098 3.8715C10.3126 3.78585 10.5696 3.59739 10.7066 3.58026C10.8437 3.82008 11.152 3.9914 11.4261 3.9914C11.6831 3.9914 11.803 3.9914 12.0257 3.85435C12.0942 3.80296 12.1285 3.7687 12.1627 3.7173C12.2141 3.66591 12.2655 3.61453 12.2655 3.51174C12.5567 3.51174 13.1049 3.95715 13.2934 4.21411C13.4818 4.47107 13.6702 4.76228 13.7216 5.08776C13.773 5.41324 13.773 5.2762 13.773 5.65307C13.773 6.20125 13.516 6.7837 13.1392 7.16057C13.122 7.1777 13.1049 7.19483 13.0878 7.21196C13.0878 7.21196 13.0706 7.21195 13.0706 7.22908H13.0535C12.7109 7.53743 12.6595 7.52029 12.3512 7.67447L12.3854 7.62308ZM7.09207 6.45821C6.68094 6.45821 6.42398 6.08133 6.42398 5.75585C6.42398 5.39611 6.37258 4.3854 6.47537 4.09418C6.54389 3.87148 6.74946 3.66591 7.02355 3.66591C7.17772 3.66591 7.26338 3.66591 7.38329 3.76869C7.45182 3.82009 7.50321 3.88863 7.5546 3.97428C7.76016 4.31689 7.69165 5.15628 7.69165 5.65307C7.69165 5.77298 7.65738 5.8415 7.64025 5.94429C7.62312 6.02994 7.64025 6.01281 7.60599 6.08134L7.57173 6.13273V6.16699C7.57173 6.16699 7.57173 6.13272 7.53747 6.18412L7.43468 6.30404C7.43468 6.30404 7.41756 6.30403 7.41756 6.32116C7.40043 6.33829 7.38329 6.3383 7.36616 6.35543C7.28051 6.40682 7.24625 6.45821 7.1092 6.45821H7.09207ZM7.93147 5.08776V3.8715C7.93147 3.66593 8 3.47747 8.08565 3.34043L8.23982 3.16914C8.37687 3.06635 8.63383 3.04922 8.80513 3.13487C9.30192 3.3747 9.16487 4.04278 9.16487 4.48818C9.16487 4.93357 9.28479 5.37898 8.95931 5.70446C8.90791 5.75585 8.89079 5.77298 8.82227 5.80724C8.27409 6.0642 7.9486 5.49889 7.9486 5.08776H7.93147ZM9.4047 4.41967C9.4047 4.05992 9.37045 3.63167 9.43897 3.35758C9.47323 3.2034 9.52462 3.08347 9.62741 2.99782C9.83297 2.79225 9.86724 2.79226 10.1242 2.79226C10.3298 2.79226 10.5525 3.04923 10.6039 3.30619C10.1071 3.56315 9.83297 3.75156 9.50749 4.24835C9.4561 4.31687 9.43897 4.38539 9.38758 4.43679L9.4047 4.41967ZM10.8608 3.20338V2.38112C10.8608 2.07277 11.2205 1.8672 11.4261 1.8672C11.7002 1.8672 11.8886 1.88434 12.0428 2.17556C12.1456 2.34687 12.0942 2.89505 12.0942 3.16914C12.0942 3.30618 12.0086 3.47748 11.9058 3.56313C11.5803 3.83722 10.8265 3.68305 10.8265 3.18626L10.8608 3.20338ZM10.621 2.79226C10.621 2.79226 10.5696 2.74087 10.5182 2.7066C9.81584 2.22695 9.26766 2.91216 9.25053 3.20338C9.21627 3.18625 8.82226 2.5867 8.1713 2.92931C8.05139 2.99783 8.05139 3.01495 7.96573 3.1006C7.96573 3.1006 7.9486 3.11774 7.93147 3.13487C7.86295 3.20339 7.81156 3.28903 7.7773 3.39182L7.67451 3.73445C7.67451 3.73445 7.22911 3.13488 6.59528 3.54601C6.08136 3.88863 6.14989 4.65949 6.14989 5.24193C6.14989 5.37897 6.16702 5.41323 6.16702 5.53314C6.16702 5.82436 6.16702 5.84151 6.23554 6.08134C6.32119 6.35543 6.62955 6.68092 6.8865 6.68092C6.8865 6.90362 6.90363 7.07491 6.90363 7.31474C6.90363 7.69162 6.80085 8.94214 7.31477 8.94214H10.4839C10.6895 8.94214 10.7752 8.6338 10.7923 8.49676C10.8265 8.08562 10.758 7.26335 10.9122 7.07491C10.9636 7.02352 10.9465 7.02352 11.015 6.98926L11.0664 6.95499C11.0664 6.95499 11.0835 6.95501 11.1349 6.92075C11.3576 6.83509 11.8201 6.86935 11.9914 7.1263C12.0942 7.28048 12.0599 7.55458 12.0599 7.82867C12.0599 8.10276 12.0771 8.30833 12.0771 8.58242V10.2783H12.3169V7.84579C12.6938 7.76013 13.242 7.36614 13.4818 7.02352C13.9957 6.32117 14.1499 5.53316 13.8587 4.69376C13.6873 4.19697 13.1734 3.56314 12.6595 3.35758C12.5396 3.30618 12.454 3.23764 12.2998 3.20338C12.2998 2.72372 12.4026 2.03852 11.9572 1.78156C11.6659 1.61026 11.3233 1.576 11.015 1.73017C10.5182 1.97 10.5525 2.34687 10.5525 2.79226H10.621Z" fill="#2E3192"/>
<path fill-rule="evenodd" clip-rule="evenodd" d="M9.79886 0.633834C10.5697 0.633834 10.8096 0.633835 11.5976 0.822272C12.0601 0.942186 12.2657 1.04499 12.6597 1.21629C13.2592 1.47325 13.8931 1.97003 14.3556 2.43255C14.7839 2.86082 15.0066 3.1863 15.2978 3.66596C16.0687 4.96789 16.2914 6.64669 15.9145 8.13705C15.8631 8.34262 15.8117 8.49679 15.7432 8.70236C15.6747 8.90793 15.6061 9.04497 15.5205 9.23341C15.452 9.40471 15.3492 9.55889 15.2635 9.71306C15.1607 9.88437 15.0751 10.0214 14.9723 10.1756C14.7325 10.4839 14.5954 10.6895 14.3042 10.9807C14.2357 11.0493 14.2014 11.0835 14.1158 11.1521C13.7903 11.409 13.7046 11.5289 13.2935 11.803C13.0194 11.9743 12.6254 12.197 12.3171 12.2998C12.2314 12.3341 12.1457 12.3683 12.043 12.4026C10.3128 12.985 8.59971 12.8137 7.02369 11.94C6.09864 11.4261 5.32776 10.6039 4.79672 9.69594C4.52263 9.23341 4.2828 8.6167 4.16288 8.10278C4.04297 7.58886 4.02584 7.28053 3.99158 6.78374L4.02584 6.0985C4.07723 5.55032 4.24854 4.79659 4.48836 4.31693C4.74532 3.80301 5.01941 3.25484 5.41342 2.82658L5.58472 2.62099C5.67037 2.53534 5.70464 2.46682 5.85881 2.32977C6.09864 2.14134 6.1329 2.07281 6.47551 1.81585C6.76673 1.59315 7.07509 1.42184 7.40057 1.25054C7.94875 0.976447 8.94232 0.650981 9.78172 0.650981L9.79886 0.633834ZM3.73462 6.68096C3.73462 8.56533 4.57402 10.1242 5.53333 11.0664C5.67038 11.2034 5.77316 11.3405 5.92734 11.4433C6.49265 11.8715 6.54404 11.9743 7.31492 12.3683C8.00014 12.7109 8.99372 12.985 9.79886 12.985C10.6896 12.985 11.3577 12.9336 12.18 12.6253C13.1222 12.2655 13.8074 11.8544 14.5098 11.1521C15.1436 10.5182 15.6575 9.73019 15.983 8.85653C16.5483 7.28052 16.4969 5.46468 15.7603 3.99144C15.4691 3.409 15.1779 2.9636 14.7667 2.48394L14.4755 2.19273C14.0815 1.79872 13.6361 1.47324 13.1565 1.19915C13.0708 1.14776 12.9851 1.11349 12.8995 1.0621C12.8138 1.01071 12.7111 0.97646 12.6254 0.942198C11.6661 0.462541 10.3984 0.325508 9.35346 0.445422C8.83954 0.496814 8.2571 0.650982 7.76031 0.839419C7.67466 0.87368 7.589 0.925058 7.48622 0.95932C7.02369 1.14776 6.28708 1.62743 5.91021 1.97005L5.60186 2.26126C5.46481 2.39831 5.36203 2.5182 5.24211 2.67238C5.1222 2.82656 5.00228 2.96362 4.8995 3.11779C4.19715 4.17989 3.75175 5.27625 3.75175 6.73235L3.73462 6.68096Z" fill="#2E3192"/>
<path fill-rule="evenodd" clip-rule="evenodd" d="M11.4262 10.3812H10.8951V10.0214C11.1007 10.0214 11.3234 10.0043 11.5119 10.0386C11.5119 10.0728 11.5975 10.3641 11.4262 10.3641V10.3812ZM10.8951 9.40474H11.4091C11.4091 9.40474 11.4947 9.50751 11.4947 9.57603V9.71308H10.8951V9.40474ZM10.347 9.18204V10.6381C10.347 10.6381 10.347 10.7067 10.4155 10.7067H11.5975C12.0943 10.7067 12.0086 10.4497 12.0086 10.09C12.0086 9.93578 11.9059 9.95291 11.8716 9.85013C12.0943 9.79874 11.9915 9.26769 11.9401 9.18204C11.9059 9.13064 11.8031 9.11353 11.7003 9.11353H10.3984C10.3984 9.11353 10.3298 9.11351 10.3298 9.18204H10.347Z" fill="#2E3192"/>
<path fill-rule="evenodd" clip-rule="evenodd" d="M8.17139 10.4325C8.17139 10.6381 8.2913 10.7238 8.49687 10.7238H9.62749C9.76454 10.7238 9.86731 10.621 9.88444 10.5011V9.54176C9.88444 9.09636 10.1071 9.14774 9.3534 9.14774V10.3983H8.71957C8.71957 10.1756 8.70244 10.0385 8.70244 9.79871V9.13062H8.17139V10.4325Z" fill="#2E3192"/>
<path fill-rule="evenodd" clip-rule="evenodd" d="M6.08142 9.57604V10.2956C6.08142 10.5354 6.14994 10.7067 6.38977 10.7067C6.6296 10.7067 7.41761 10.7409 7.58892 10.6724C7.6917 10.6381 7.70883 10.6039 7.72596 10.5525C7.76022 10.4668 7.77735 10.1756 7.77735 10.0557H7.2463V10.3812H6.6296V9.43902H7.2463V9.69597H7.77735C7.77735 9.55893 7.72596 9.25058 7.6917 9.16493C7.62318 9.0964 6.54395 9.11354 6.37264 9.11354C6.11569 9.11354 6.08142 9.30196 6.08142 9.55892V9.57604Z" fill="#2E3192"/>
<path fill-rule="evenodd" clip-rule="evenodd" d="M11.0322 5.0535L11.5804 5.84152L12.0943 5.0535L12.0258 4.96786C11.923 4.81369 11.6489 4.33403 11.5461 4.2655C11.5119 4.36829 11.3577 4.57385 11.3063 4.6595L11.0493 5.0535H11.0322Z" fill="#2E3192"/>
<path fill-rule="evenodd" clip-rule="evenodd" d="M11.6489 6.01281H12.5568C12.6425 5.8929 12.6939 5.75583 12.7795 5.61879C12.8309 5.53314 12.9851 5.29331 13.0022 5.22479H12.0772C12.0429 5.34471 11.7003 5.85864 11.666 6.01281H11.6489Z" fill="#2E3192"/>
<path fill-rule="evenodd" clip-rule="evenodd" d="M10.5696 6.01281H11.4775C11.4433 5.87577 11.1007 5.36184 11.0664 5.22479H10.1414C10.1414 5.22479 10.4155 5.72159 10.4668 5.82437C10.5011 5.8929 10.5354 5.96142 10.5868 6.01281H10.5696Z" fill="#2E3192"/>
<path d="M1.97018 20.06H1.54191V21.379H1.38774V20.06H0.959473V19.9058H1.97018V20.06ZM2.53549 20.4882C2.53549 20.4882 2.46696 20.454 2.41557 20.454C2.34705 20.454 2.27853 20.4882 2.22713 20.5567C2.17574 20.6253 2.15861 20.7109 2.15861 20.8308V21.3619H2.00443V20.3169H2.15861V20.5396C2.15861 20.5396 2.22713 20.4026 2.2614 20.3683C2.31279 20.334 2.36418 20.2998 2.4327 20.2998C2.48409 20.2998 2.51835 20.2998 2.53549 20.2998V20.4711V20.4882ZM3.56333 21.379H3.40915V21.2077C3.34063 21.3276 3.23784 21.3961 3.08366 21.3961C2.82671 21.3961 2.7068 21.2419 2.7068 20.9507V20.3169H2.86096V20.9165C2.86096 21.1392 2.94662 21.2591 3.11793 21.2591C3.20358 21.2591 3.2721 21.2248 3.32349 21.1734C3.37488 21.1049 3.40915 21.0364 3.40915 20.9336V20.334H3.56333V21.379ZM3.83742 21.1734C3.92307 21.242 4.02585 21.2762 4.14576 21.2762C4.29994 21.2762 4.36846 21.2248 4.36846 21.122C4.36846 21.0707 4.36846 21.0364 4.31707 21.0193C4.28281 20.985 4.21429 20.9679 4.12863 20.9165C4.00872 20.8651 3.94019 20.8308 3.90593 20.7794C3.87167 20.728 3.85454 20.6766 3.85454 20.6081C3.85454 20.5225 3.8888 20.454 3.97446 20.3854C4.04298 20.334 4.14577 20.2998 4.26568 20.2998C4.35133 20.2998 4.43699 20.2998 4.50551 20.3512V20.5225C4.50551 20.5225 4.3342 20.454 4.23142 20.454C4.1629 20.454 4.1115 20.454 4.07724 20.4882C4.04298 20.5225 4.02585 20.5567 4.02585 20.591C4.02585 20.6253 4.02585 20.6766 4.06011 20.6938C4.09437 20.7109 4.14576 20.7452 4.24855 20.7794C4.36846 20.8308 4.45411 20.8651 4.48837 20.9165C4.52263 20.9679 4.5569 21.0193 4.5569 21.0878C4.5569 21.1734 4.52264 21.2591 4.43698 21.3105C4.36846 21.3619 4.26567 21.3961 4.14576 21.3961C4.04298 21.3961 3.94019 21.379 3.87167 21.3276V21.1563L3.83742 21.1734ZM5.25925 21.379C5.25925 21.379 5.1736 21.4133 5.10508 21.4133C4.93377 21.4133 4.83099 21.3105 4.83099 21.1049V20.4711H4.64255V20.334H4.83099V20.0771L4.98516 20.0257V20.334H5.24212V20.4711H4.98516V21.0707C4.98516 21.0707 4.98516 21.1906 5.01942 21.2248C5.05369 21.2591 5.08795 21.2762 5.13934 21.2762C5.19073 21.2762 5.22499 21.2762 5.24212 21.242V21.379H5.25925ZM5.99587 20.4197C6.09865 20.3512 6.21857 20.3169 6.35561 20.3169C6.59544 20.3169 6.71535 20.4539 6.71535 20.7109V21.3961H6.56118V21.2248C6.49266 21.3447 6.38987 21.4133 6.2357 21.4133C6.13291 21.4133 6.04726 21.379 5.99587 21.3276C5.92735 21.2762 5.91022 21.2077 5.91022 21.1049C5.91022 20.9165 6.03013 20.7966 6.25283 20.7623L6.56118 20.7109C6.56118 20.5225 6.49266 20.4368 6.33848 20.4368C6.21857 20.4368 6.09865 20.4882 5.99587 20.5739V20.4026V20.4197ZM6.30422 20.8993C6.21857 20.8993 6.15004 20.9336 6.11578 20.9679C6.08152 21.0021 6.06439 21.0535 6.06439 21.1049C6.06439 21.1563 6.08152 21.1906 6.11578 21.2248C6.15004 21.2591 6.20144 21.2762 6.26996 21.2762C6.35561 21.2762 6.42413 21.2419 6.47552 21.1906C6.52692 21.122 6.56118 21.0535 6.56118 20.9679V20.8651L6.30422 20.8993ZM7.89737 21.3961H7.74319V20.7966C7.74319 20.5739 7.65754 20.454 7.50336 20.454C7.41771 20.454 7.34918 20.4882 7.29779 20.5567C7.2464 20.6253 7.21214 20.6938 7.21214 20.7966V21.3961H7.05797V20.3512H7.21214V20.5225C7.29779 20.3854 7.40058 20.3169 7.55475 20.3169C7.67467 20.3169 7.76032 20.3512 7.81172 20.4197C7.88024 20.4882 7.89737 20.6081 7.89737 20.7452V21.379V21.3961ZM9.09651 21.3961H8.94234V21.2077C8.85668 21.3447 8.73676 21.4133 8.58259 21.4133C8.44554 21.4133 8.34277 21.3619 8.27424 21.2762C8.18859 21.1734 8.15432 21.0535 8.15432 20.8993C8.15432 20.728 8.20572 20.591 8.29137 20.4882C8.37702 20.3854 8.49694 20.334 8.63398 20.334C8.77103 20.334 8.89094 20.3854 8.94234 20.5053V19.8544H9.09651V21.3961ZM8.94234 20.7623C8.94234 20.6766 8.90807 20.6081 8.85668 20.5396C8.80529 20.4882 8.71964 20.454 8.63398 20.454C8.5312 20.454 8.44555 20.4882 8.39416 20.5739C8.34277 20.6595 8.3085 20.7623 8.3085 20.8822C8.3085 21.0021 8.34277 21.1049 8.39416 21.1734C8.44555 21.242 8.5312 21.2762 8.61685 21.2762C8.7025 21.2762 8.78816 21.242 8.83955 21.1734C8.90807 21.1049 8.9252 21.0193 8.9252 20.9165V20.7623H8.94234ZM10.7239 21.3961H9.95304V19.9229H10.6897V20.0771H10.1072V20.5739H10.6383V20.728H10.1072V21.2591H10.7239V21.4133V21.3961ZM11.7346 20.3512L11.3749 20.8822L11.7175 21.3961H11.5291L11.3235 21.0535C11.3235 21.0535 11.2892 21.0021 11.2721 20.9679C11.2721 20.9679 11.2721 21.0021 11.2207 21.0535L11.0151 21.3961H10.8267L11.1864 20.8822L10.8438 20.3512H11.0323L11.2892 20.7966C11.2892 20.7966 11.2892 20.7794 11.3064 20.7623L11.5462 20.3512H11.7175H11.7346ZM12.6254 21.3448C12.6254 21.3448 12.4541 21.4133 12.3342 21.4133C12.18 21.4133 12.0601 21.3619 11.9744 21.2762C11.8888 21.1734 11.8374 21.0535 11.8374 20.8993C11.8374 20.728 11.8888 20.591 11.9916 20.4882C12.0944 20.3854 12.2143 20.334 12.3856 20.334C12.4712 20.334 12.5569 20.334 12.6254 20.3854V20.5567C12.6254 20.5567 12.4712 20.4711 12.3685 20.4711C12.2657 20.4711 12.18 20.5053 12.0944 20.591C12.0258 20.6767 11.9916 20.7794 11.9916 20.8993C11.9916 21.0193 12.0258 21.122 12.0944 21.1906C12.1629 21.2591 12.2485 21.2934 12.3513 21.2934C12.437 21.2934 12.5226 21.2591 12.6083 21.2077V21.3619L12.6254 21.3448ZM13.7218 20.9165H12.9852C12.9852 21.0364 13.0194 21.122 13.0879 21.1906C13.1565 21.2591 13.225 21.2934 13.3449 21.2934C13.4648 21.2934 13.5676 21.2591 13.6704 21.1734V21.3276C13.5847 21.3961 13.4648 21.4304 13.3106 21.4304C13.1565 21.4304 13.0537 21.379 12.968 21.2934C12.8824 21.1906 12.8481 21.0706 12.8481 20.8993C12.8481 20.7452 12.8995 20.6081 12.9852 20.5053C13.0708 20.4026 13.1907 20.3512 13.3278 20.3512C13.4648 20.3512 13.5676 20.4026 13.6361 20.4882C13.7046 20.5739 13.756 20.6938 13.756 20.8651V20.9507L13.7218 20.9165ZM13.5676 20.7794C13.5676 20.6767 13.5505 20.6081 13.4991 20.5567C13.4477 20.5053 13.3792 20.4711 13.3106 20.4711C13.2421 20.4711 13.1736 20.5053 13.1051 20.5567C13.0537 20.6081 13.0023 20.6938 13.0023 20.7794H13.5847H13.5676ZM13.9959 21.3961V19.8544H14.15V21.3961H13.9959ZM14.4926 21.3961V19.8544H14.6468V21.3961H14.4926ZM15.8288 20.9165H15.0922C15.0922 21.0364 15.1265 21.122 15.195 21.1906C15.2635 21.2591 15.332 21.2934 15.452 21.2934C15.5719 21.2934 15.6747 21.2591 15.7774 21.1734V21.3276C15.6918 21.3961 15.5719 21.4304 15.4177 21.4304C15.2635 21.4304 15.1608 21.379 15.0751 21.2934C14.9894 21.1906 14.9552 21.0706 14.9552 20.8993C14.9552 20.7452 15.0066 20.6081 15.0922 20.5053C15.1779 20.4026 15.2978 20.3512 15.4348 20.3512C15.5719 20.3512 15.6747 20.4026 15.7432 20.4882C15.8117 20.5739 15.8631 20.6938 15.8631 20.8651V20.9507L15.8288 20.9165ZM15.6747 20.7794C15.6747 20.6767 15.6575 20.6081 15.6061 20.5567C15.5547 20.5053 15.4862 20.4711 15.4177 20.4711C15.3492 20.4711 15.2807 20.5053 15.2121 20.5567C15.1436 20.6081 15.1094 20.6938 15.1094 20.7794H15.6918H15.6747ZM16.9595 21.3961H16.8053V20.7966C16.8053 20.5739 16.7196 20.454 16.5655 20.454C16.4798 20.454 16.4113 20.4882 16.3599 20.5567C16.3085 20.6253 16.2742 20.6938 16.2742 20.7966V21.3961H16.1201V20.3512H16.2742V20.5225C16.3599 20.3854 16.4627 20.3169 16.6168 20.3169C16.7368 20.3169 16.8224 20.3512 16.8738 20.4197C16.9423 20.4882 16.9595 20.6081 16.9595 20.7452V21.379V21.3961ZM17.9873 21.3448C17.9873 21.3448 17.816 21.4133 17.6961 21.4133C17.5419 21.4133 17.422 21.3619 17.3363 21.2762C17.2507 21.1734 17.1993 21.0535 17.1993 20.8993C17.1993 20.728 17.2507 20.591 17.3535 20.4882C17.4562 20.3854 17.5762 20.334 17.7475 20.334C17.8331 20.334 17.9188 20.334 17.9873 20.3854V20.5567C17.9873 20.5567 17.8331 20.4711 17.7303 20.4711C17.6276 20.4711 17.5419 20.5053 17.4563 20.591C17.3877 20.6767 17.3535 20.7794 17.3535 20.8993C17.3535 21.0193 17.3877 21.122 17.4563 21.1906C17.5248 21.2591 17.6104 21.2934 17.7132 21.2934C17.7989 21.2934 17.8845 21.2591 17.9702 21.2077V21.3619L17.9873 21.3448ZM19.0837 20.9165H18.347C18.347 21.0364 18.3813 21.122 18.4498 21.1906C18.5183 21.2591 18.5869 21.2934 18.7068 21.2934C18.8267 21.2934 18.9295 21.2591 19.0323 21.1734V21.3276C18.9466 21.3961 18.8267 21.4304 18.6725 21.4304C18.5183 21.4304 18.4156 21.379 18.3299 21.2934C18.2442 21.1906 18.21 21.0706 18.21 20.8993C18.21 20.7452 18.2614 20.6081 18.347 20.5053C18.4327 20.4026 18.5526 20.3512 18.6897 20.3512C18.8267 20.3512 18.9295 20.4026 18.998 20.4882C19.0665 20.5739 19.1179 20.6938 19.1179 20.8651V20.9507L19.0837 20.9165ZM18.9295 20.7794C18.9295 20.6767 18.9124 20.6081 18.861 20.5567C18.8096 20.5053 18.741 20.4711 18.6725 20.4711C18.604 20.4711 18.5355 20.5053 18.4669 20.5567C18.4156 20.6081 18.3642 20.6938 18.3642 20.7794H18.9466H18.9295ZM4.93377 23.7259C4.93377 23.7259 5.03655 23.7944 5.10508 23.8116C5.19073 23.8287 5.25925 23.8458 5.32778 23.8458C5.53334 23.8458 5.65326 23.7602 5.65326 23.606C5.65326 23.5546 5.65325 23.5203 5.61899 23.4861C5.60186 23.4518 5.5676 23.4175 5.53334 23.4004C5.49908 23.3833 5.41343 23.3319 5.31064 23.2805C5.15647 23.1948 5.05368 23.1263 5.00229 23.0749C4.96803 23.0064 4.93377 22.9379 4.93377 22.8694C4.93377 22.7495 4.98516 22.6638 5.07081 22.5782C5.1736 22.5096 5.29351 22.4754 5.43056 22.4754C5.5676 22.4754 5.68752 22.4925 5.73891 22.5268V22.7152C5.73891 22.7152 5.55047 22.6295 5.41343 22.6295C5.32778 22.6295 5.24212 22.6467 5.19073 22.6809C5.13934 22.7152 5.10508 22.7837 5.10508 22.8522C5.10508 22.9036 5.10508 22.9379 5.13934 22.9722C5.15647 23.0064 5.19073 23.0407 5.22499 23.0578C5.25925 23.0749 5.32777 23.1263 5.43056 23.1777C5.5676 23.2462 5.67038 23.3148 5.73891 23.3833C5.7903 23.4518 5.82457 23.5203 5.82457 23.606C5.82457 23.7259 5.77317 23.8287 5.68752 23.8972C5.60186 23.9657 5.46482 24 5.31064 24C5.25925 24 5.19073 24 5.12221 23.9829C5.03656 23.9829 4.98516 23.9486 4.9509 23.9315V23.743L4.93377 23.7259ZM6.42413 22.6467H6.28709V23.8287H6.42413V23.9657H5.97874V23.8287H6.11578V22.6467H5.97874V22.5096H6.42413V22.6467ZM7.84598 23.9657H7.64041L6.86953 22.7837C6.86953 22.7837 6.83527 22.7323 6.81814 22.6981C6.81814 22.6981 6.81814 22.8008 6.81814 22.9036V23.9829H6.66396V22.5096H6.86953L7.60614 23.6745C7.60614 23.6745 7.65754 23.7602 7.65754 23.7773C7.65754 23.7773 7.65754 23.6574 7.65754 23.5546V22.5096H7.81172V23.9829L7.84598 23.9657ZM9.23355 23.8972C9.13077 23.9486 8.99373 23.9829 8.82242 23.9829C8.61686 23.9829 8.44555 23.9143 8.32563 23.7773C8.20572 23.6402 8.1372 23.4689 8.1372 23.2462C8.1372 23.0236 8.20572 22.8351 8.34276 22.6809C8.47981 22.5268 8.66824 22.4582 8.87381 22.4582C9.01086 22.4582 9.13077 22.4754 9.21642 22.5268V22.6981C9.11364 22.6467 8.99373 22.6124 8.87381 22.6124C8.70251 22.6124 8.56546 22.6638 8.46267 22.7837C8.35989 22.9036 8.3085 23.0578 8.3085 23.2291C8.3085 23.4004 8.35989 23.5546 8.44555 23.6574C8.54833 23.7602 8.66824 23.8287 8.83955 23.8287C8.99373 23.8287 9.11364 23.7944 9.21642 23.7259V23.8801L9.23355 23.8972ZM10.3128 23.9657H9.5419V22.4925H10.2785V22.6467H9.69609V23.1435H10.2271V23.2976H9.69609V23.8287H10.3128V23.9829V23.9657ZM11.8888 23.9657H11.0665V23.8287H11.392V22.6809L11.0494 22.7837V22.6295L11.5462 22.4754V23.8287H11.8717V23.9657H11.8888ZM12.18 23.7944C12.18 23.7944 12.3513 23.863 12.437 23.863C12.574 23.863 12.6768 23.8116 12.7453 23.6916C12.8139 23.5889 12.8652 23.4347 12.8652 23.2291C12.7967 23.349 12.6939 23.4175 12.5398 23.4175C12.4198 23.4175 12.3171 23.3661 12.2314 23.2805C12.1458 23.1948 12.1115 23.0921 12.1115 22.955C12.1115 22.818 12.1458 22.6981 12.2314 22.6124C12.3171 22.5267 12.437 22.4754 12.574 22.4754C12.7282 22.4754 12.831 22.5268 12.9166 22.6467C13.0023 22.7666 13.0366 22.9208 13.0366 23.1435C13.0366 23.4176 12.9852 23.6231 12.8824 23.7601C12.7796 23.9143 12.6254 23.9829 12.437 23.9829C12.3342 23.9829 12.2485 23.9829 12.18 23.9315V23.7773V23.7944ZM12.2657 22.9379C12.2657 23.0407 12.2999 23.1263 12.3513 23.1777C12.4027 23.2462 12.4712 23.2634 12.574 23.2634C12.6597 23.2634 12.7282 23.2291 12.7796 23.1777C12.831 23.1263 12.8652 23.0578 12.8652 22.9722C12.8652 22.8694 12.831 22.7666 12.7796 22.6981C12.7282 22.6295 12.6597 22.5953 12.5569 22.5953C12.4712 22.5953 12.4027 22.6295 12.3513 22.6981C12.2999 22.7666 12.2657 22.8351 12.2657 22.9379ZM13.225 23.2634C13.225 23.0064 13.2592 22.8009 13.3449 22.6809C13.4306 22.5439 13.5505 22.4754 13.7046 22.4754C14.013 22.4754 14.1672 22.7323 14.1672 23.2291C14.1672 23.4689 14.1329 23.6574 14.0472 23.7944C13.9616 23.9315 13.8417 24 13.6875 24C13.5333 24 13.4306 23.9315 13.3449 23.8116C13.2592 23.6916 13.225 23.5032 13.225 23.2805V23.2634ZM13.3792 23.2634C13.3792 23.6574 13.4819 23.863 13.6875 23.863C13.8931 23.863 13.9959 23.6574 13.9959 23.2462C13.9959 22.8351 13.8931 22.6124 13.6875 22.6124C13.4648 22.6124 13.362 22.8351 13.362 23.2634H13.3792ZM15.2978 23.5889H15.1094V23.9829H14.9552V23.5889H14.27V23.4861L14.9209 22.5096H15.1094V23.4518H15.2978V23.5889ZM14.9552 23.4518V22.8008C14.9552 22.8008 14.9552 22.6981 14.9552 22.6467C14.9552 22.6467 14.938 22.6981 14.9038 22.7666L14.4413 23.4518H14.9552Z" fill="#2E3192"/>
<path d="M28.0428 10.0899H25.6959V13.2762H28.0428V12.197L28.9164 12.4368V13.0364C28.9164 13.4989 28.8479 13.8073 28.728 13.9786C28.6081 14.1499 28.3511 14.2355 27.9914 14.2355H25.7644C25.4047 14.2355 25.1648 14.1499 25.0278 13.9786C24.9079 13.8073 24.8394 13.4989 24.8394 13.0364V10.3811C24.8394 9.91862 24.9079 9.61029 25.0278 9.43898C25.1477 9.26768 25.4047 9.18201 25.7644 9.18201H27.9914C28.3511 9.18201 28.591 9.26768 28.728 9.43898C28.865 9.61029 28.9164 9.91862 28.9164 10.3811V10.8608L28.0428 11.0492V10.1071V10.0899ZM30.2526 14.2184V10.1071H30.9892V14.2184H30.2526ZM34.0042 10.8437V14.2184H33.2505V10.8437H31.7773V10.1071H35.4775V10.8437H34.0042ZM37.4304 14.2184V12.3683L35.7516 10.1071H36.7623L37.8586 11.6488L38.9721 10.1071H39.8458L38.1841 12.3512V14.2184H37.4475H37.4304ZM44.334 9.19913V13.2762H46.8179V9.19913H47.6916V13.0364C47.6916 13.4989 47.6231 13.8073 47.5032 13.9786C47.3832 14.1499 47.1263 14.2355 46.7665 14.2355H44.4025C44.0428 14.2355 43.8029 14.1499 43.6659 13.9786C43.5288 13.8073 43.4775 13.4989 43.4775 13.0364V9.19913H44.3511H44.334ZM49.1306 14.2184V10.1071H49.6445L52.2483 12.8308V10.1071H52.9164V14.2184H52.4025L49.8158 11.4433V14.2184H49.1306ZM54.0984 14.2184V10.1071H54.8351V14.2184H54.0984ZM56.7023 13.4304H59.1691V10.8608H56.7023V13.4304ZM55.9485 11.0664C55.9485 10.6895 55.9999 10.4326 56.1199 10.2955C56.2226 10.1585 56.4453 10.0899 56.7537 10.0899H59.1177C59.4261 10.0899 59.6488 10.1585 59.7515 10.2955C59.8543 10.4326 59.9057 10.6895 59.9057 11.0664V13.242C59.9057 13.6188 59.8543 13.8758 59.7344 14.0129C59.6316 14.1499 59.4089 14.2184 59.1006 14.2184H56.7366C56.4282 14.2184 56.2055 14.1499 56.1027 14.0129C55.9999 13.8758 55.9314 13.6188 55.9314 13.242V11.0664H55.9485ZM61.0192 14.2184V10.1071H61.5331L64.137 12.8308V10.1071H64.8051V14.2184H64.2911L61.7044 11.4433V14.2184H61.0192ZM71.8971 10.0043H69.91V11.2034H71.8971C72.0513 11.2034 72.1541 11.1692 72.2055 11.1178C72.2569 11.0664 72.2911 10.9636 72.2911 10.8437V10.364C72.2911 10.227 72.2569 10.1413 72.2055 10.0899C72.1541 10.0385 72.0513 10.0043 71.8971 10.0043ZM71.8971 12.0257H69.91V13.3105H71.8971C72.0684 13.3105 72.1712 13.2762 72.2226 13.2077C72.274 13.1392 72.3083 13.0193 72.3083 12.8651V12.4882C72.3083 12.3169 72.274 12.197 72.2226 12.1456C72.1712 12.0771 72.0513 12.0428 71.8971 12.0428V12.0257ZM69.0535 14.2013V9.18201H72.2569C72.5481 9.18201 72.7708 9.26766 72.8907 9.42183C73.0278 9.57601 73.0963 9.81585 73.0963 10.1585V10.7752C73.0963 11.015 73.0449 11.2034 72.925 11.3576C72.8222 11.4946 72.6509 11.5974 72.4453 11.6317C72.668 11.666 72.8222 11.7687 72.9421 11.94C73.062 12.1113 73.1134 12.334 73.1134 12.591V13.2248C73.1134 13.5503 73.0278 13.8073 72.8393 13.9615C72.6509 14.1156 72.3768 14.2013 72.0171 14.2013H69.0535ZM73.8843 14.2013L75.7001 10.0899H76.4196L78.2697 14.2013H77.4303L77.0363 13.2934H75.0149L74.6209 14.2013H73.8672H73.8843ZM75.3404 12.5396H76.7451L76.0256 10.8266L75.3404 12.5396ZM78.8522 14.2013V10.0899H79.3661L81.9699 12.8137V10.0899H82.638V14.2013H82.1241L79.5374 11.4261V14.2013H78.8522ZM83.82 14.2013V10.0899H84.5738V11.7516L86.3554 10.0899H87.4346L85.3104 11.9914L87.6573 14.2013H86.4753L84.5567 12.3512V14.2013H83.8029H83.82ZM91.2033 14.2013V9.18201H92.077V13.2591H94.8864V14.2013H91.2205H91.2033ZM97.5245 10.8266V14.2013H96.7708V10.8266H95.2975V10.0899H98.9978V10.8266H97.5245ZM100.54 13.4304H101.499C102.03 13.4304 102.39 13.3276 102.595 13.1221C102.801 12.9165 102.904 12.5739 102.904 12.0771C102.904 11.6488 102.818 11.3405 102.647 11.1349C102.475 10.9293 102.201 10.8266 101.841 10.8266H100.522V13.4304H100.54ZM99.7858 14.2013V10.0899H101.841C102.441 10.0899 102.886 10.2612 103.212 10.621C103.537 10.9807 103.692 11.4775 103.692 12.1285C103.692 12.8137 103.52 13.3448 103.195 13.6874C102.852 14.03 102.355 14.2013 101.67 14.2013H99.8029H99.7858Z" fill="white"/>
</svg>
