<svg width="188" height="24" viewBox="0 0 188 24" fill="none" xmlns="http://www.w3.org/2000/svg">
<g clip-path="url(#clip0_45_4241)">
<path d="M76.6178 7.44946H64.5432V10.1621L64.9073 10.129V10.096C64.9732 9.69899 65.701 8.93813 66.5942 8.93813C66.5942 8.93813 69.1746 8.93813 69.2738 8.93813C69.2738 9.07045 69.2738 22.9315 69.2738 22.9315H71.9205C71.9205 22.9315 71.9205 9.07045 71.9205 8.97121C72.0526 8.97121 74.666 8.97121 74.666 8.97121C75.5925 8.97121 76.1878 9.4674 76.287 9.93054V9.9967H76.684L76.6511 7.51562H76.6178V7.44946Z" fill="#183964"/>
<path d="M16.342 7.44946H16.2759V7.81337L16.309 7.84645C16.5405 7.97876 16.7721 8.54114 16.7721 9.23584V22.9315H19.3524C19.3524 22.9315 19.3524 16.0175 19.3524 15.8852C19.4847 15.8852 20.5103 15.8852 20.5103 15.8852C21.5358 15.9513 21.9327 16.613 22.429 17.473L22.4951 17.5723L22.8259 18.1016C23.3883 19.0279 24.1492 20.285 24.9101 21.4759C25.4724 22.3029 26.1671 22.7991 27.0603 22.9315C27.6889 23.0307 28.946 22.9976 29.4422 22.8653L30.0046 22.733L30.2362 22.6668L29.4422 22.4352C29.1114 22.336 28.6151 22.1044 27.9535 21.3436C27.5235 20.8804 26.8618 19.7887 25.8363 18.2009L24.8439 16.613L24.8108 16.5799C24.5462 16.1829 24.083 15.5543 23.3222 15.1574C24.7777 14.6943 26.2002 13.371 26.2002 11.3861C26.2002 10.8237 26.0679 9.76514 25.1085 8.83886C24.1492 7.91261 22.6275 7.44946 20.5764 7.44946H16.342ZM20.7749 8.83886C23.4214 8.93813 23.4876 11.1876 23.4876 11.4192C23.4876 13.6687 21.8335 14.4627 20.3779 14.4627C20.3779 14.4627 19.4517 14.4296 19.3524 14.4296C19.3524 14.2973 19.3524 8.97121 19.3524 8.83886C19.6501 8.83886 20.1464 8.80578 20.7749 8.83886Z" fill="#183964"/>
<path d="M42.8073 7.44946H42.7411L42.7741 7.84644H42.8073C43.0389 7.94568 43.2373 8.50806 43.2373 8.97121V22.8984H47.67C50.5813 22.8984 53.0293 22.0052 54.6833 20.285C56.0729 18.8625 56.8337 16.9107 56.8337 14.9258C56.8337 13.7349 56.4367 11.9154 55.2789 10.4268C53.7571 8.4419 51.342 7.41638 48.0671 7.41638L42.8073 7.44946ZM45.8839 8.93813C46.0161 8.93813 47.2733 8.93813 47.2733 8.93813C47.6371 8.93813 48.5633 8.97121 49.2251 9.07044C53.5917 9.73206 54.0549 13.4041 54.0549 14.9258C54.0549 16.1829 53.8233 18.0024 52.7317 19.3918C51.6731 20.7481 50.0189 21.4428 47.7695 21.4428C47.2401 21.4428 46.5785 21.4428 45.8507 21.4097C45.8839 21.3105 45.8839 9.07044 45.8839 8.93813Z" fill="#183964"/>
<path d="M62.1927 7.44946H59.149V7.81337L59.1823 7.84645C59.4469 7.97876 59.6452 8.47499 59.6452 9.13661V22.9315H62.2257V7.48254L62.1927 7.44946Z" fill="#183964"/>
<path d="M39.467 7.44946H30.7666L30.7999 7.81337H30.8328C31.0644 7.94568 31.329 8.47499 31.329 9.20276V22.8984H39.9962L40.6248 20.1526L40.2611 20.0203L40.1616 20.1857C39.4338 21.3105 38.7063 21.4428 36.192 21.4428C35.2988 21.4759 34.4056 21.3766 33.8762 21.3436C33.8762 21.2443 33.8762 15.1574 33.8762 15.025C34.0086 15.025 38.276 15.025 38.276 15.025V13.6357C38.276 13.6357 34.0086 13.6357 33.8762 13.6357C33.8762 13.5033 33.8762 8.93813 33.8762 8.83886C34.0086 8.83886 37.449 8.87194 37.449 8.87194C38.243 8.87194 39.1362 9.63283 39.2025 10.096V10.1621H39.5662L39.467 7.44946Z" fill="#183964"/>
<path d="M112.012 7.44946H108.968L109.001 7.81337H109.035C109.299 7.94568 109.498 8.47499 109.498 9.13661V22.9315H112.078V7.48254L112.012 7.44946Z" fill="#183964"/>
<path d="M148.138 7.44946H139.47L139.504 7.84644H139.537C139.768 7.97876 140.033 8.47498 140.033 9.20276V22.8984H148.7L149.329 20.1527L148.932 20.0203L148.832 20.1857C148.105 21.3105 147.377 21.4428 144.896 21.4428C144.003 21.4759 143.109 21.3767 142.58 21.3436C142.58 21.2443 142.58 15.1574 142.58 15.0251C142.712 15.0251 146.98 15.0251 146.98 15.0251V13.6356C146.98 13.6356 142.712 13.6356 142.58 13.6356C142.58 13.5033 142.58 8.93813 142.58 8.83889C142.712 8.83889 146.153 8.87197 146.153 8.87197C147.145 8.87197 147.873 9.59975 147.873 10.096V10.1621L148.27 10.129L148.204 7.41638L148.138 7.44946Z" fill="#183964"/>
<path d="M116.214 11.3529C116.181 13.5032 117.471 14.5618 119.588 15.6204L120.382 16.0174C122.036 16.8444 123.128 17.3737 123.128 18.9285C123.128 19.1932 123.062 20.1194 122.367 20.8472C121.871 21.3434 121.176 21.575 120.316 21.575C117.835 21.5419 116.942 19.6232 116.611 18.4985L116.545 18.3L116.015 18.3992L116.148 21.6412L116.28 21.7073C117.107 22.1705 118.496 22.9644 120.448 22.9975C121.871 22.9975 123.293 22.4351 124.253 21.4758C125.113 20.6157 125.576 19.5571 125.576 18.3661C125.576 15.6535 123.69 14.6941 121.705 13.6355L121.341 13.437C119.191 12.3785 118.463 11.8822 118.463 10.6913C118.463 9.86427 119.092 8.60719 120.812 8.64027C122.896 8.67335 123.789 10.162 123.988 10.956L124.054 11.1875L124.583 11.1213L124.385 8.27639L124.286 8.21021C123.095 7.41627 121.606 7.31703 121.011 7.31703C118.695 7.28395 116.247 8.70643 116.214 11.3529Z" fill="#183964"/>
<path d="M82.2078 11.3526C82.1746 13.5028 83.4648 14.5614 85.582 15.62L86.376 16.017C88.03 16.844 89.1215 17.3733 89.1215 18.9282C89.1215 19.1928 89.0556 20.1191 88.3608 20.8468C87.8646 21.3431 87.17 21.5747 86.3098 21.5747C83.8288 21.5416 82.9356 19.6229 82.6048 18.4981L82.5386 18.2996L82.0092 18.3989L82.1416 21.6408L82.2737 21.707C83.101 22.1701 84.4904 22.9641 86.4422 22.9971C87.8646 22.9971 89.2869 22.4348 90.2464 21.4754C91.1066 20.6153 91.5695 19.5567 91.5695 18.3658C91.5695 15.6531 89.684 14.6938 87.6992 13.6352L87.3354 13.4367C85.185 12.3781 84.4572 11.8819 84.4572 10.6909C84.4572 9.8639 85.0858 8.60682 86.806 8.6399C88.8902 8.67298 89.7834 10.1616 89.9818 10.9556L90.048 11.1872L90.5772 11.121L90.4118 8.30911L90.3126 8.24292C89.1215 7.44898 87.633 7.34974 87.0376 7.34974C84.722 7.28358 82.2408 8.70606 82.2078 11.3526Z" fill="#183964"/>
<path d="M127.827 11.3524C127.794 13.5027 129.084 14.5613 131.201 15.6199L131.995 16.0169C133.649 16.8439 134.741 17.3732 134.741 18.928C134.741 19.1927 134.674 20.1189 133.98 20.8467C133.484 21.3429 132.789 21.5745 131.929 21.5745C129.448 21.5414 128.554 19.6227 128.224 18.498L128.157 18.2995L127.628 18.3987L127.761 21.6407L127.893 21.7068C128.72 22.17 130.109 22.9639 132.061 22.997C133.484 22.997 134.906 22.4346 135.865 21.4753C136.725 20.6152 137.189 19.5566 137.189 18.3656C137.189 15.653 135.303 14.6936 133.318 13.635L132.954 13.4365C130.804 12.378 130.076 11.8817 130.076 10.6908C130.076 10.1615 130.308 9.63221 130.705 9.23523C131.135 8.83824 131.73 8.60669 132.425 8.60669C134.509 8.63977 135.402 10.1284 135.601 10.9224L135.667 11.1208L136.196 11.0547L136.031 8.24278L135.932 8.17662C134.741 7.38269 133.252 7.28345 132.657 7.28345C130.341 7.28345 127.86 8.70592 127.827 11.3524Z" fill="#183964"/>
<path d="M105.56 7.44952H103.509L103.542 7.81342H103.575C103.675 7.87958 104.006 8.11114 104.006 9.0705V17.837C104.006 19.5242 103.377 21.5752 100.4 21.5752C97.5878 21.5752 96.9924 19.8881 96.9924 17.3739V7.41644H93.7504L93.7833 7.74724H93.8166C94.0149 7.8465 94.379 8.27654 94.379 9.10358V17.3408C94.379 22.4684 97.7532 23.0308 100.3 23.0308C101.558 23.0308 105.593 22.6669 105.593 17.837V7.38336L105.56 7.44952Z" fill="#183964"/>
<path d="M2.15028 9.66522C0.793949 11.1539 0 13.1387 0 15.1898C0 17.4724 0.893193 19.5234 2.51417 21.0121C4.06898 22.4345 6.12003 23.1954 8.33647 23.1954C9.49431 23.1954 11.7769 22.9969 13.9603 21.6406L14.0595 21.5745L14.3242 18.3656L13.8941 18.3325L13.8279 18.4648C12.2069 21.9383 9.69279 21.4421 8.73343 21.4421C4.46597 21.4421 3.01038 18.2994 3.01038 14.892C3.01038 11.617 4.46597 8.80509 8.76651 8.80509C10.0898 8.80509 12.4716 8.77202 13.7287 11.7493L13.7949 11.9147L14.1918 11.7824L13.9272 8.44122L13.8279 8.40814C11.81 7.51493 10.189 7.11795 8.56803 7.11795C5.9546 7.08487 3.73819 7.97808 2.15028 9.66522Z" fill="#183964"/>
<path d="M179.5 17.9026C176.622 17.4395 173.512 17.1748 171.23 17.5718C171.097 17.6048 170.998 17.5056 170.998 17.3733C170.998 16.5793 170.998 13.999 170.37 10.7901C170.37 10.724 170.336 10.6909 170.27 10.6578C162.761 5.3979 155.979 1.89129 153.2 0.568047C153.002 0.468803 152.803 0.733454 152.969 0.89886C161.074 8.34212 163.919 21.0122 164.283 22.6994C164.316 22.7986 164.415 22.8648 164.514 22.8648C173.611 21.1115 182.742 23.2948 185.289 23.9895C185.488 24.0557 185.62 23.791 185.488 23.6587C183.602 21.6408 181.617 19.7551 179.599 17.9688C179.599 17.9357 179.566 17.9026 179.5 17.9026Z" fill="#183964"/>
<path d="M187.143 19.1929C179.832 9.40089 169.444 2.1892 166.169 0.038922C165.971 -0.0934028 165.772 0.138165 165.905 0.336654C168.419 3.64476 169.709 7.44911 170.337 10.6249C170.337 10.6911 170.37 10.7242 170.404 10.7572C173.414 12.8744 176.491 15.2563 179.534 17.8697C179.567 17.9028 179.6 17.9028 179.633 17.9028C182.809 18.4321 185.72 19.1598 186.911 19.4907C187.11 19.5568 187.242 19.3583 187.143 19.1929Z" fill="#183964"/>
<path d="M76.6178 7.44946H64.5432V10.1621L64.9073 10.129V10.096C64.9732 9.69899 65.701 8.93813 66.5942 8.93813C66.5942 8.93813 69.1746 8.93813 69.2738 8.93813C69.2738 9.07045 69.2738 22.9315 69.2738 22.9315H71.9205C71.9205 22.9315 71.9205 9.07045 71.9205 8.97121C72.0526 8.97121 74.666 8.97121 74.666 8.97121C75.5925 8.97121 76.1878 9.4674 76.287 9.93054V9.9967H76.684L76.6511 7.51562H76.6178V7.44946Z" fill="#183964"/>
<path d="M16.342 7.44946H16.2759V7.81337L16.309 7.84645C16.5405 7.97876 16.7721 8.54114 16.7721 9.23584V22.9315H19.3524C19.3524 22.9315 19.3524 16.0175 19.3524 15.8852C19.4847 15.8852 20.5103 15.8852 20.5103 15.8852C21.5358 15.9513 21.9327 16.613 22.429 17.473L22.4951 17.5723L22.8259 18.1016C23.3883 19.0279 24.1492 20.285 24.9101 21.4759C25.4724 22.3029 26.1671 22.7991 27.0603 22.9315C27.6889 23.0307 28.946 22.9976 29.4422 22.8653L30.0046 22.733L30.2362 22.6668L29.4422 22.4352C29.1114 22.336 28.6151 22.1044 27.9535 21.3436C27.5235 20.8804 26.8618 19.7887 25.8363 18.2009L24.8439 16.613L24.8108 16.5799C24.5462 16.1829 24.083 15.5543 23.3222 15.1574C24.7777 14.6943 26.2002 13.371 26.2002 11.3861C26.2002 10.8237 26.0679 9.76514 25.1085 8.83886C24.1492 7.91261 22.6275 7.44946 20.5764 7.44946H16.342ZM20.7749 8.83886C23.4214 8.93813 23.4876 11.1876 23.4876 11.4192C23.4876 13.6687 21.8335 14.4627 20.3779 14.4627C20.3779 14.4627 19.4517 14.4296 19.3524 14.4296C19.3524 14.2973 19.3524 8.97121 19.3524 8.83886C19.6501 8.83886 20.1464 8.80578 20.7749 8.83886Z" fill="#183964"/>
<path d="M42.8073 7.44946H42.7411L42.7741 7.84644H42.8073C43.0389 7.94568 43.2373 8.50806 43.2373 8.97121V22.8984H47.67C50.5813 22.8984 53.0293 22.0052 54.6833 20.285C56.0729 18.8625 56.8337 16.9107 56.8337 14.9258C56.8337 13.7349 56.4367 11.9154 55.2789 10.4268C53.7571 8.4419 51.342 7.41638 48.0671 7.41638L42.8073 7.44946ZM45.8839 8.93813C46.0161 8.93813 47.2733 8.93813 47.2733 8.93813C47.6371 8.93813 48.5633 8.97121 49.2251 9.07044C53.5917 9.73206 54.0549 13.4041 54.0549 14.9258C54.0549 16.1829 53.8233 18.0024 52.7317 19.3918C51.6731 20.7481 50.0189 21.4428 47.7695 21.4428C47.2401 21.4428 46.5785 21.4428 45.8507 21.4097C45.8839 21.3105 45.8839 9.07044 45.8839 8.93813Z" fill="#183964"/>
<path d="M62.1927 7.44946H59.149V7.81337L59.1823 7.84645C59.4469 7.97876 59.6452 8.47499 59.6452 9.13661V22.9315H62.2257V7.48254L62.1927 7.44946Z" fill="#183964"/>
<path d="M39.467 7.44946H30.7666L30.7999 7.81337H30.8328C31.0644 7.94568 31.329 8.47499 31.329 9.20276V22.8984H39.9962L40.6248 20.1526L40.2611 20.0203L40.1616 20.1857C39.4338 21.3105 38.7063 21.4428 36.192 21.4428C35.2988 21.4759 34.4056 21.3766 33.8762 21.3436C33.8762 21.2443 33.8762 15.1574 33.8762 15.025C34.0086 15.025 38.276 15.025 38.276 15.025V13.6357C38.276 13.6357 34.0086 13.6357 33.8762 13.6357C33.8762 13.5033 33.8762 8.93813 33.8762 8.83886C34.0086 8.83886 37.449 8.87194 37.449 8.87194C38.243 8.87194 39.1362 9.63283 39.2025 10.096V10.1621H39.5662L39.467 7.44946Z" fill="#183964"/>
<path d="M112.012 7.44946H108.968L109.001 7.81337H109.035C109.299 7.94568 109.498 8.47499 109.498 9.13661V22.9315H112.078V7.48254L112.012 7.44946Z" fill="#183964"/>
<path d="M148.138 7.44946H139.47L139.504 7.84644H139.537C139.768 7.97876 140.033 8.47498 140.033 9.20276V22.8984H148.7L149.329 20.1527L148.932 20.0203L148.832 20.1857C148.105 21.3105 147.377 21.4428 144.896 21.4428C144.003 21.4759 143.109 21.3767 142.58 21.3436C142.58 21.2443 142.58 15.1574 142.58 15.0251C142.712 15.0251 146.98 15.0251 146.98 15.0251V13.6356C146.98 13.6356 142.712 13.6356 142.58 13.6356C142.58 13.5033 142.58 8.93813 142.58 8.83889C142.712 8.83889 146.153 8.87197 146.153 8.87197C147.145 8.87197 147.873 9.59975 147.873 10.096V10.1621L148.27 10.129L148.204 7.41638L148.138 7.44946Z" fill="#183964"/>
<path d="M116.214 11.3529C116.181 13.5032 117.471 14.5618 119.588 15.6204L120.382 16.0174C122.036 16.8444 123.128 17.3737 123.128 18.9285C123.128 19.1932 123.062 20.1194 122.367 20.8472C121.871 21.3434 121.176 21.575 120.316 21.575C117.835 21.5419 116.942 19.6232 116.611 18.4985L116.545 18.3L116.015 18.3992L116.148 21.6412L116.28 21.7073C117.107 22.1705 118.496 22.9644 120.448 22.9975C121.871 22.9975 123.293 22.4351 124.253 21.4758C125.113 20.6157 125.576 19.5571 125.576 18.3661C125.576 15.6535 123.69 14.6941 121.705 13.6355L121.341 13.437C119.191 12.3785 118.463 11.8822 118.463 10.6913C118.463 9.86427 119.092 8.60719 120.812 8.64027C122.896 8.67335 123.789 10.162 123.988 10.956L124.054 11.1875L124.583 11.1213L124.385 8.27639L124.286 8.21021C123.095 7.41627 121.606 7.31703 121.011 7.31703C118.695 7.28395 116.247 8.70643 116.214 11.3529Z" fill="#183964"/>
<path d="M82.2078 11.3526C82.1746 13.5028 83.4648 14.5614 85.582 15.62L86.376 16.017C88.03 16.844 89.1215 17.3733 89.1215 18.9282C89.1215 19.1928 89.0556 20.1191 88.3608 20.8468C87.8646 21.3431 87.17 21.5747 86.3098 21.5747C83.8288 21.5416 82.9356 19.6229 82.6048 18.4981L82.5386 18.2996L82.0092 18.3989L82.1416 21.6408L82.2737 21.707C83.101 22.1701 84.4904 22.9641 86.4422 22.9971C87.8646 22.9971 89.2869 22.4348 90.2464 21.4754C91.1066 20.6153 91.5695 19.5567 91.5695 18.3658C91.5695 15.6531 89.684 14.6938 87.6992 13.6352L87.3354 13.4367C85.185 12.3781 84.4572 11.8819 84.4572 10.6909C84.4572 9.8639 85.0858 8.60682 86.806 8.6399C88.8902 8.67298 89.7834 10.1616 89.9818 10.9556L90.048 11.1872L90.5772 11.121L90.4118 8.30911L90.3126 8.24292C89.1215 7.44898 87.633 7.34974 87.0376 7.34974C84.722 7.28358 82.2408 8.70606 82.2078 11.3526Z" fill="#183964"/>
<path d="M127.827 11.3524C127.794 13.5027 129.084 14.5613 131.201 15.6199L131.995 16.0169C133.649 16.8439 134.741 17.3732 134.741 18.928C134.741 19.1927 134.674 20.1189 133.98 20.8467C133.484 21.3429 132.789 21.5745 131.929 21.5745C129.448 21.5414 128.554 19.6227 128.224 18.498L128.157 18.2995L127.628 18.3987L127.761 21.6407L127.893 21.7068C128.72 22.17 130.109 22.9639 132.061 22.997C133.484 22.997 134.906 22.4346 135.865 21.4753C136.725 20.6152 137.189 19.5566 137.189 18.3656C137.189 15.653 135.303 14.6936 133.318 13.635L132.954 13.4365C130.804 12.378 130.076 11.8817 130.076 10.6908C130.076 10.1615 130.308 9.63221 130.705 9.23523C131.135 8.83824 131.73 8.60669 132.425 8.60669C134.509 8.63977 135.402 10.1284 135.601 10.9224L135.667 11.1208L136.196 11.0547L136.031 8.24278L135.932 8.17662C134.741 7.38269 133.252 7.28345 132.657 7.28345C130.341 7.28345 127.86 8.70592 127.827 11.3524Z" fill="#183964"/>
<path d="M105.56 7.44952H103.509L103.542 7.81342H103.575C103.675 7.87958 104.006 8.11114 104.006 9.0705V17.837C104.006 19.5242 103.377 21.5752 100.4 21.5752C97.5878 21.5752 96.9924 19.8881 96.9924 17.3739V7.41644H93.7504L93.7833 7.74724H93.8166C94.0149 7.8465 94.379 8.27654 94.379 9.10358V17.3408C94.379 22.4684 97.7532 23.0308 100.3 23.0308C101.558 23.0308 105.593 22.6669 105.593 17.837V7.38336L105.56 7.44952Z" fill="#183964"/>
<path d="M2.15028 9.66522C0.793949 11.1539 0 13.1387 0 15.1898C0 17.4724 0.893193 19.5234 2.51417 21.0121C4.06898 22.4345 6.12003 23.1954 8.33647 23.1954C9.49431 23.1954 11.7769 22.9969 13.9603 21.6406L14.0595 21.5745L14.3242 18.3656L13.8941 18.3325L13.8279 18.4648C12.2069 21.9383 9.69279 21.4421 8.73343 21.4421C4.46597 21.4421 3.01038 18.2994 3.01038 14.892C3.01038 11.617 4.46597 8.80509 8.76651 8.80509C10.0898 8.80509 12.4716 8.77202 13.7287 11.7493L13.7949 11.9147L14.1918 11.7824L13.9272 8.44122L13.8279 8.40814C11.81 7.51493 10.189 7.11795 8.56803 7.11795C5.9546 7.08487 3.73819 7.97808 2.15028 9.66522Z" fill="#183964"/>
<path d="M179.5 17.9026C176.622 17.4395 173.512 17.1748 171.23 17.5718C171.097 17.6048 170.998 17.5056 170.998 17.3733C170.998 16.5793 170.998 13.999 170.37 10.7901C170.37 10.724 170.336 10.6909 170.27 10.6578C162.761 5.3979 155.979 1.89129 153.2 0.568047C153.002 0.468803 152.803 0.733454 152.969 0.89886C161.074 8.34212 163.919 21.0122 164.283 22.6994C164.316 22.7986 164.415 22.8648 164.514 22.8648C173.611 21.1115 182.742 23.2948 185.289 23.9895C185.488 24.0557 185.62 23.791 185.488 23.6587C183.602 21.6408 181.617 19.7551 179.599 17.9688C179.599 17.9357 179.566 17.9026 179.5 17.9026Z" fill="#183964"/>
<path d="M187.143 19.1929C179.832 9.40089 169.444 2.1892 166.169 0.038922C165.971 -0.0934028 165.772 0.138165 165.905 0.336654C168.419 3.64476 169.709 7.44911 170.337 10.6249C170.337 10.6911 170.37 10.7242 170.404 10.7572C173.414 12.8744 176.491 15.2563 179.534 17.8697C179.567 17.9028 179.6 17.9028 179.633 17.9028C182.809 18.4321 185.72 19.1598 186.911 19.4907C187.11 19.5568 187.242 19.3583 187.143 19.1929Z" fill="#183964"/>
</g>
<defs>
<clipPath id="clip0_45_4241">
<rect width="187.373" height="24" fill="white"/>
</clipPath>
</defs>
</svg>
