<svg width="207" height="24" viewBox="0 0 207 24" fill="none" xmlns="http://www.w3.org/2000/svg">
<path d="M47.2476 2.72727C48.8363 2.72727 50.4746 3.22313 51.8151 4.16528L50.7725 5.50412C49.6803 4.76032 48.737 4.31404 47.3469 4.31404C44.9142 4.31404 43.0277 5.80164 43.0277 8.03304C43.0277 10.2149 44.9142 11.752 47.3469 11.752C48.7867 11.752 49.7796 11.3058 50.9214 10.5124L51.964 11.8512C50.5739 12.843 48.8859 13.3388 47.198 13.3388C43.8717 13.3388 40.744 11.4049 40.744 8.03304C40.7936 4.66115 43.9213 2.72727 47.2476 2.72727ZM54.347 2.92561H59.9074C62.489 2.92561 64.5742 3.96694 64.5742 6.19834C64.5742 7.93387 63.2834 8.87602 61.5458 9.27271L64.8721 13.1405H62.2904L59.262 9.57023H56.5315V13.1405H54.347V2.92561ZM59.7088 7.98346C61.2479 7.98346 62.2408 7.33883 62.2408 6.24792C62.2408 5.15702 61.2975 4.56198 59.6592 4.56198H56.4818V7.98346H59.7088ZM67.1558 10.1653V2.87603H76.4396V4.51239H69.3402V6.99172H75.8439V8.5785H69.3402V10.1653C69.3402 11.0578 69.787 11.5041 70.631 11.5041H76.6382V13.1405H70.1346C68.248 13.1405 67.1558 12.0496 67.1558 10.1653ZM74.2056 0L72.5176 1.78512H70.631L71.9218 0H74.2056ZM79.4184 2.92561H84.0355C88.0072 2.92561 90.6385 4.95867 90.6385 8.03304C90.6385 11.1074 88.0072 13.1405 84.0355 13.1405H79.4184V2.92561ZM84.1845 11.5041C86.6668 11.5041 88.3547 10.1157 88.3547 8.03304C88.3547 5.9504 86.6668 4.56198 84.1845 4.56198H81.6029V11.5041H84.1845Z" fill="#007858"/>
<path d="M93.1207 2.92584H95.3054V13.1402H93.1207V2.92584Z" fill="#007858"/>
<path d="M97.6387 4.56187V2.92584H107.717V4.56187H103.795V13.1402H101.611V4.56187H97.6387Z" fill="#007858"/>
<path d="M121.518 10.6611H115.859L114.618 13.1404H112.383L117.696 2.92558H119.93L125.242 13.1404H122.71L121.518 10.6611ZM120.724 9.07433L118.689 5.00822L116.653 9.07433H120.724ZM132.54 2.72723C134.129 2.72723 135.767 3.2231 137.107 4.16525L136.065 5.50409C134.973 4.76029 134.029 4.31401 132.639 4.31401C130.207 4.31401 128.32 5.80161 128.32 7.98342C128.32 10.1652 130.008 11.7024 132.54 11.7024C133.682 11.7024 134.724 11.4049 135.419 10.909V8.97516H132.341V7.38838H137.604V11.7024C136.363 12.595 134.625 13.2892 132.441 13.2892C128.568 13.2892 126.036 11.0082 126.036 7.98342C126.086 4.66111 129.214 2.72723 132.54 2.72723ZM140.632 2.92558H146.193C148.774 2.92558 150.859 3.9669 150.859 6.1983C150.859 7.93384 149.569 8.87598 147.831 9.27268L151.157 13.1404H148.576L145.547 9.5702H142.817V13.1404H140.632V2.92558ZM145.994 7.98342C147.533 7.98342 148.526 7.3388 148.526 6.24789C148.526 5.15698 147.583 4.56194 145.944 4.56194H142.767V7.98342H145.994Z" fill="#007858"/>
<path d="M153.789 2.92584H155.973V13.1402H153.789V2.92584Z" fill="#007858"/>
<path d="M165.058 2.72723C166.647 2.72723 168.285 3.2231 169.626 4.16525L168.583 5.50409C167.491 4.76029 166.548 4.31401 165.158 4.31401C162.725 4.31401 160.838 5.80161 160.838 8.03301C160.838 10.2148 162.725 11.752 165.158 11.752C166.597 11.752 167.59 11.3057 168.732 10.5123L169.775 11.8512C168.385 12.8429 166.697 13.3388 165.009 13.3388C161.682 13.3388 158.555 11.4049 158.555 8.03301C158.654 4.66111 161.782 2.72723 165.058 2.72723ZM170.817 8.03301C170.817 5.15698 173.498 2.72723 177.271 2.72723C181.044 2.72723 183.725 5.10739 183.725 8.03301C183.725 10.909 181.044 13.3388 177.271 13.3388C173.498 13.2892 170.817 10.909 170.817 8.03301ZM173.101 8.03301C173.101 10.1157 174.789 11.752 177.321 11.752C179.803 11.752 181.541 10.1157 181.541 8.03301C181.541 5.95037 179.853 4.31401 177.321 4.31401C174.789 4.31401 173.101 5.95037 173.101 8.03301Z" fill="#007858"/>
<path d="M185.959 2.92584H188.144V11.5042H194.648V13.1402H185.959V2.92584Z" fill="#007858"/>
<path d="M196.187 10.1653V2.87604H205.47V4.5124H198.371V6.99173H204.875V8.57851H198.371V10.1653C198.371 11.0578 198.818 11.5041 199.662 11.5041H205.669V13.1405H199.165C197.279 13.1405 196.187 12.0496 196.187 10.1653Z" fill="#007858"/>
<path d="M44.6663 18.0496C45.5599 18.0496 46.4535 18.2976 47.1982 18.843L46.6521 19.5868C46.0564 19.1405 45.5599 18.9422 44.7656 18.9422C43.4251 18.9422 42.3825 19.7852 42.3825 21.0248C42.3825 22.2645 43.4251 23.1075 44.7656 23.1075C45.5599 23.1075 46.106 22.8595 46.7514 22.4133L47.2975 23.1571C46.5528 23.7025 45.6095 24 44.6663 24C42.8294 24 41.0917 22.9091 41.0917 21.0248C41.1414 19.1405 42.879 18.0496 44.6663 18.0496ZM47.6947 21.0248C47.6947 19.438 49.1841 18.0992 51.2692 18.0992C53.3544 18.0992 54.8438 19.438 54.8438 21.0248C54.8438 22.6116 53.3544 23.9504 51.2692 23.9504C49.1841 23.9504 47.6947 22.6116 47.6947 21.0248ZM48.9855 21.0248C48.9855 22.1653 49.9288 23.1075 51.3189 23.1075C52.709 23.1075 53.6522 22.2149 53.6522 21.0248C53.6522 19.8843 52.709 18.9422 51.3189 18.9422C49.9288 18.9422 48.9855 19.8843 48.9855 21.0248ZM55.8367 18.1488H58.9148C60.3545 18.1488 61.4964 18.7438 61.4964 19.9835C61.4964 20.9752 60.8013 21.4711 59.8084 21.6695L61.6453 23.8017H60.2552L58.5672 21.8182H57.0778V23.8017H55.8863V18.1488H55.8367ZM58.8155 20.9752C59.6594 20.9752 60.2056 20.6281 60.2056 19.9835C60.2056 19.3885 59.6594 19.0414 58.8155 19.0414H57.0778V20.9752H58.8155ZM62.8368 18.1488H65.9149C67.3546 18.1488 68.5461 18.7934 68.5461 20.1323C68.5461 21.4711 67.3546 22.1653 65.9149 22.1653H64.0283V23.9009H62.8368V18.1488ZM65.8652 21.2232C66.7092 21.2232 67.305 20.8265 67.305 20.1323C67.305 19.438 66.7589 19.0909 65.8652 19.0909H64.0283V21.2232H65.8652ZM68.9433 21.0248C68.9433 19.438 70.4327 18.0992 72.5178 18.0992C74.603 18.0992 76.0924 19.438 76.0924 21.0248C76.0924 22.6116 74.603 23.9504 72.5178 23.9504C70.4327 23.9504 68.9433 22.6116 68.9433 21.0248ZM70.2341 21.0248C70.2341 22.1653 71.1774 23.1075 72.5675 23.1075C73.9576 23.1075 74.9009 22.2149 74.9009 21.0248C74.9009 19.8843 73.9576 18.9422 72.5675 18.9422C71.1774 18.9422 70.2341 19.8843 70.2341 21.0248ZM77.1846 18.1488H80.2627C81.7024 18.1488 82.8443 18.7438 82.8443 19.9835C82.8443 20.9752 82.1492 21.4711 81.1563 21.6695L82.9932 23.8017H81.6031L79.9151 21.8182H78.4257V23.8017H77.2342V18.1488H77.1846ZM80.1634 20.9752C81.0074 20.9752 81.5535 20.6281 81.5535 19.9835C81.5535 19.3885 81.0074 19.0414 80.1634 19.0414H78.4257V20.9752H80.1634ZM88.355 22.5124H85.2273L84.5322 23.9009H83.2911L86.2202 18.1984H87.4614L90.3905 23.9009H89.0004L88.355 22.5124ZM87.9082 21.6199L86.816 19.3389L85.7237 21.6199H87.9082Z" fill="#72787A"/>
<path d="M89.9437 19.0911V18.1981H95.5038V19.0911H93.3197V23.8513H92.1278V19.0911H89.9437Z" fill="#72787A"/>
<path d="M96.4473 22.2149V18.1488H101.561V19.0413H97.6388V20.4298H101.213V21.3223H97.6388V22.2149C97.6388 22.7107 97.8871 22.9587 98.3339 22.9587H101.66V23.8512H98.0857C97.0431 23.8512 96.4473 23.2562 96.4473 22.2149ZM108.114 23.2066C107.618 23.6529 107.072 23.9504 106.377 23.9504C105.334 23.9504 104.54 23.3058 104.54 22.3141C104.54 21.5703 104.986 21.0744 105.731 20.7273C105.433 20.3306 105.284 19.9339 105.284 19.5372C105.284 18.7934 105.88 18.0992 106.923 18.0992C107.816 18.0992 108.412 18.6942 108.412 19.4876C108.412 20.2314 107.916 20.6777 107.171 20.9752L108.114 21.9669C108.313 21.6198 108.511 21.2727 108.71 20.876L109.455 21.2727C109.206 21.719 108.958 22.1653 108.71 22.562L109.604 23.4545L108.859 24L108.114 23.2066ZM107.568 22.6116L106.327 21.3223C105.781 21.5703 105.582 21.9174 105.582 22.2645C105.582 22.7603 105.979 23.1074 106.526 23.1074C106.873 23.1074 107.221 22.9091 107.568 22.6116ZM107.518 19.5372C107.518 19.1405 107.27 18.8926 106.873 18.8926C106.476 18.8926 106.228 19.1901 106.228 19.5868C106.228 19.8843 106.327 20.0826 106.674 20.4298C107.221 20.1818 107.518 19.9339 107.518 19.5372Z" fill="#72787A"/>
<path d="M112.781 18.1489H113.973V23.8514H112.781V18.1489Z" fill="#72787A"/>
<path d="M116.902 19.785V23.8514H115.71V18.1489H116.902L120.377 22.2147V18.1489H121.568V23.8514H120.377L116.902 19.785Z" fill="#72787A"/>
<path d="M129.264 18.1489L126.483 23.8514H125.242L122.413 18.1489H123.802L125.937 22.6615L128.072 18.1489H129.264Z" fill="#72787A"/>
<path d="M129.909 22.2149V18.1488H135.023V19.0414H131.101V20.4298H134.675V21.3223H131.101V22.2149C131.101 22.7108 131.349 22.9587 131.796 22.9587H135.122V23.8513H131.547C130.505 23.8513 129.909 23.2562 129.909 22.2149ZM136.015 23.0579L136.562 22.2149C137.306 22.7604 138.299 23.0083 139.143 23.0083C140.037 23.0083 140.782 22.7604 140.782 22.3141C140.782 21.8678 139.987 21.719 139.044 21.5207C137.753 21.2232 136.214 20.9256 136.214 19.7852C136.214 18.7438 137.505 18.0496 138.994 18.0496C140.037 18.0496 141.079 18.3471 141.874 18.8926L141.328 19.7356C140.682 19.2397 139.838 18.9918 139.044 18.9918C138.25 18.9918 137.455 19.2397 137.455 19.6364C137.455 20.0331 138.2 20.1818 139.094 20.3306C140.384 20.5785 142.023 20.9256 142.023 22.1653C142.023 23.3058 140.682 23.9504 139.193 23.9504C138.051 23.9504 136.859 23.6033 136.015 23.0579Z" fill="#72787A"/>
<path d="M142.569 19.0911V18.1981H148.129V19.0911H145.945V23.8513H144.753V19.0911H142.569Z" fill="#72787A"/>
<path d="M154.434 18.1489H155.725V23.8514H154.533V19.5865L152.299 22.76L150.115 19.6857V23.8514H149.072V18.1489H150.363L152.398 21.0248L154.434 18.1489Z" fill="#72787A"/>
<path d="M157.115 22.2149V18.1488H162.229V19.0414H158.307V20.4298H161.881V21.3224H158.307V22.2149C158.307 22.7108 158.555 22.9587 159.002 22.9587H162.328V23.8513H158.753C157.711 23.8513 157.115 23.2562 157.115 22.2149Z" fill="#72787A"/>
<path d="M164.91 19.785V23.8514H163.718V18.1489H164.91L168.385 22.2147V18.1489H169.576V23.8514H168.385L164.91 19.785Z" fill="#72787A"/>
<path d="M170.47 19.0911V18.1981H176.03V19.0911H173.846V23.8513H172.654V19.0911H170.47Z" fill="#72787A"/>
<path d="M185.116 22.2645C185.116 23.3058 184.073 23.8513 182.782 23.8513H179.257V18.1488H182.534C183.825 18.1488 184.867 18.6943 184.867 19.686C184.867 20.281 184.52 20.6777 183.974 20.9257C184.669 21.124 185.116 21.5703 185.116 22.2645ZM180.449 19.091V20.5786H182.435C183.13 20.5786 183.577 20.3306 183.577 19.8348C183.577 19.3885 183.13 19.091 182.385 19.091H180.449ZM183.825 22.1653C183.825 21.6695 183.378 21.4215 182.683 21.4215H180.449V22.9587H182.683C183.378 22.9587 183.825 22.6612 183.825 22.1653ZM190.279 22.5124H187.151L186.456 23.9009H185.215L188.144 18.1984H189.385L192.314 23.9009H190.924L190.279 22.5124ZM189.832 21.6199L188.74 19.3389L187.648 21.6199H189.832Z" fill="#72787A"/>
<path d="M194.102 19.785V23.8514H192.91V18.1489H194.102L197.577 22.2147V18.1489H198.768V23.8514H197.577L194.102 19.785Z" fill="#72787A"/>
<path d="M202.492 21.2232L201.499 22.0662V23.8514H200.308V18.1489H201.499V20.8763L204.527 18.1489H205.918L203.286 20.4295L206.215 23.8015H204.726L202.492 21.2232Z" fill="#72787A"/>
<path d="M23.1696 15.62L26.9427 13.6365L29.7229 19.4382H25.5526C25.5526 19.4382 24.7582 19.4382 24.4107 18.744C24.1128 17.901 23.1696 15.62 23.1696 15.62Z" fill="#72787A"/>
<path d="M30.6167 21.2731H0.431763V23.9506H30.6167V21.2731Z" fill="#72787A"/>
<path d="M32.8008 4.21531C32.8008 4.21531 28.0347 6.94257 26.9425 7.33927C25.8999 7.73596 25.5524 7.19051 25.4035 7.04175C25.1056 6.64505 24.6588 5.25663 24.6091 5.05828C24.6588 5.05828 24.907 5.10787 25.5028 4.95911C26.2475 4.76076 32.7511 1.14093 32.8008 1.14093V4.21531Z" fill="#007858"/>
<path d="M25.2049 9.81863L22.0771 2.92608H17.5593L11.2046 14.7773C11.2046 14.7773 14.3323 14.6781 16.3182 13.1905C16.8146 12.893 18.2544 9.12442 19.5452 6.64508L21.5807 11.7525C18.5026 13.3393 15.5735 14.7277 13.9848 15.174C9.8145 16.3641 4.75058 17.1079 2.96331 15.4715C1.27534 13.9343 5.19739 7.58723 12.6443 6.1988C13.8359 5.95087 14.5805 6.00046 14.5805 6.00046C14.5805 6.00046 14.0841 3.81864 13.6869 3.37236C13.1408 2.67815 12.5947 2.52939 11.7507 2.67815C10.1124 2.77732 3.26119 4.61203 0.530642 10.3145C-0.958747 13.5872 1.02711 16.8599 2.31791 17.8021C2.91366 18.2484 6.83572 21.7194 15.8713 18.1988C24.758 14.7277 32.7511 9.32276 32.7511 9.32276V5.70294C32.8007 5.60376 29.3255 7.63682 25.2049 9.81863Z" fill="#72787A"/>
</svg>
