<svg width="81" height="24" viewBox="0 0 81 24" fill="none" xmlns="http://www.w3.org/2000/svg">
<g clip-path="url(#clip0_45_4243)">
<path d="M80.827 0H0V24H80.827V0Z" fill="#03428E"/>
<path d="M12.3171 11.1597C11.8555 11.1597 11.401 11.2728 10.9933 11.4893C10.5856 11.7058 10.2373 12.0189 9.97876 12.4013C10.2838 12.1307 10.6605 11.9539 11.0636 11.8924C11.4667 11.8308 11.879 11.887 12.2509 12.0542C12.6228 12.2214 12.9385 12.4925 13.16 12.8349C13.3815 13.1773 13.4993 13.5764 13.4993 13.9842C13.4993 14.392 13.3815 14.7911 13.16 15.1334C12.9385 15.4758 12.6228 15.747 12.2509 15.9142C11.879 16.0814 11.4667 16.1376 11.0636 16.076C10.6605 16.0144 10.2838 15.8377 9.97876 15.567C10.2518 15.9706 10.6247 16.2967 11.0611 16.5136C11.4975 16.7304 11.9826 16.8307 12.4692 16.8046C12.9558 16.7785 13.4273 16.627 13.8381 16.3647C14.2488 16.1025 14.5846 15.7384 14.813 15.308C15.0414 14.8775 15.1546 14.3953 15.1414 13.9081C15.1283 13.421 14.9894 12.9456 14.7382 12.528C14.4869 12.1105 14.1319 11.765 13.7077 11.5253C13.2835 11.2855 12.8044 11.1596 12.3171 11.1597Z" fill="#F37024"/>
<path d="M12.6303 8.39364C12.372 8.77588 12.2113 9.21558 12.1622 9.67428C12.1131 10.133 12.177 10.5967 12.3485 11.025C12.2941 10.6198 12.358 10.2074 12.5327 9.83766C12.7073 9.46793 12.9851 9.1566 13.3327 8.94121C13.6803 8.72582 14.0827 8.61557 14.4915 8.62375C14.9004 8.63194 15.2981 8.7582 15.6367 8.98732C15.9754 9.21644 16.2406 9.53863 16.4003 9.91506C16.56 10.2915 16.6074 10.7061 16.5367 11.1088C16.4661 11.5116 16.2805 11.8853 16.0023 12.1849C15.7241 12.4846 15.3651 12.6974 14.9687 12.7976C15.456 12.7977 15.935 12.6718 16.3593 12.4321C16.7835 12.1923 17.1385 11.8468 17.3897 11.4293C17.6409 11.0117 17.7799 10.5363 17.793 10.0492C17.8061 9.56206 17.693 9.07983 17.4646 8.64936C17.2362 8.2189 16.9003 7.85484 16.4896 7.59259C16.0789 7.33034 15.6073 7.17881 15.1207 7.15273C14.6341 7.12665 14.149 7.22691 13.7127 7.44376C13.2763 7.66062 12.9034 7.98669 12.6303 8.39027" fill="#F37024"/>
<path d="M10.7521 14.9305C11.1998 14.8184 11.6131 14.598 11.9556 14.2887C12.2982 13.9794 12.5595 13.5907 12.7167 13.1568C12.4865 13.4938 12.1638 13.757 11.7875 13.9149C11.4112 14.0728 10.9973 14.1185 10.5957 14.0467C10.194 13.9748 9.82159 13.7884 9.52335 13.5099C9.22512 13.2314 9.01373 12.8726 8.91462 12.4767C8.81551 12.0809 8.83291 11.6648 8.96472 11.2786C9.09654 10.8924 9.33715 10.5526 9.6576 10.2999C9.97805 10.0473 10.3647 9.89261 10.771 9.85455C11.1773 9.81649 11.5859 9.89665 11.9477 10.0854C11.5845 9.76065 11.1435 9.53538 10.6675 9.43146C10.1916 9.32754 9.69679 9.3485 9.23131 9.49231C8.76583 9.63613 8.34547 9.89789 8.01106 10.2522C7.67665 10.6065 7.43957 11.0413 7.32285 11.5143C7.20614 11.9873 7.21375 12.4824 7.34496 12.9516C7.47617 13.4208 7.72651 13.8481 8.07166 14.1919C8.41681 14.5357 8.84503 14.7844 9.31472 14.9139C9.7844 15.0433 10.2796 15.049 10.7521 14.9305Z" fill="#F37024"/>
<path d="M27.1601 8.04563C26.4505 7.53987 25.5999 7.27007 24.7285 7.2744H24.6488C23.46 7.29349 22.2914 7.8155 21.3417 8.73378C20.4076 9.65175 19.7895 10.843 19.5769 12.1352C19.3524 13.5116 19.6398 14.7565 20.3897 15.6378C20.7069 16.0072 21.1018 16.3019 21.5463 16.5009C21.9907 16.6998 22.4736 16.798 22.9605 16.7884H23.0289C24.3536 16.7637 25.4986 16.171 25.9196 15.9476L26.051 15.8802L26.4719 13.3196L25.8916 13.7338C25.4043 14.0818 24.495 14.7296 23.4218 14.7442C22.9099 14.752 22.5058 14.5836 22.2184 14.248C21.8278 13.7888 21.6829 13.0322 21.8244 12.1745C22.1432 10.2268 23.478 9.31978 24.5804 9.30069C25.502 9.2861 26.0397 9.76994 26.5191 10.1988L26.9199 10.5614L27.3173 8.13993L27.1601 8.04563Z" fill="#F37024"/>
<path d="M40.0497 7.24072H35.758L34.2391 16.8075L37.9145 16.7446C38.9159 16.7289 39.8667 16.4449 40.5863 15.9498C40.9534 15.7097 41.2668 15.3963 41.5069 15.0292C41.7471 14.6622 41.9087 14.2494 41.9817 13.8169C42.113 13.012 41.8941 12.3126 41.3766 11.9017C41.2321 11.7832 41.0705 11.687 40.8973 11.6166C40.9616 11.5722 41.0234 11.5242 41.0825 11.4729C41.6283 11.034 41.9942 10.4101 42.1108 9.71942C42.223 9.03126 42.067 8.397 41.6741 7.93336C41.2812 7.46973 40.7277 7.24297 40.0452 7.24297M38.8025 12.856C39.1864 12.856 39.4918 12.9592 39.6467 13.1388C39.7025 13.2101 39.7415 13.293 39.761 13.3815C39.7804 13.4699 39.7797 13.5615 39.7589 13.6496C39.613 14.5477 38.5611 14.6914 37.9482 14.7004L36.765 14.7206L37.0647 12.8863L38.7688 12.856H38.8025ZM38.4062 10.9004L37.3813 10.9195L37.6137 9.47806L39.1494 9.45224H39.1786C39.4558 9.45224 39.6837 9.52184 39.7825 9.64196C39.8212 9.69624 39.8473 9.75845 39.859 9.82408C39.8706 9.88971 39.8675 9.95711 39.8499 10.0214C39.7286 10.7668 38.8934 10.8914 38.4073 10.9004" fill="#F37024"/>
<path d="M51.8403 9.71717C51.9526 9.02902 51.7954 8.39475 51.4014 7.93112C51.0074 7.46749 50.455 7.24072 49.7703 7.24072H45.4842L43.9664 16.8075L47.6407 16.7446C48.6443 16.7289 49.594 16.4449 50.3136 15.9498C50.6808 15.7097 50.9944 15.3963 51.2347 15.0293C51.475 14.6622 51.6369 14.2495 51.7101 13.8169C51.8403 13.012 51.6192 12.3126 51.1028 11.9017C50.9589 11.7834 50.798 11.6873 50.6257 11.6166C50.69 11.5722 50.7519 11.5242 50.8109 11.4729C51.3567 11.0337 51.7228 10.41 51.8403 9.71942M48.5309 12.8537C48.9126 12.8537 49.2191 12.957 49.3729 13.1366C49.4291 13.2076 49.4684 13.2906 49.4879 13.3791C49.5073 13.4675 49.5064 13.5593 49.4851 13.6474C49.3425 14.5455 48.2918 14.6892 47.6777 14.6981L46.4934 14.7183L46.792 12.884L48.4961 12.8537H48.5309ZM48.1301 10.9004L47.1052 10.9195L47.3398 9.47806L48.8744 9.45224H48.9014C49.1775 9.45224 49.4043 9.52184 49.5064 9.64196C49.5445 9.69653 49.5702 9.75878 49.5816 9.82434C49.5931 9.88989 49.59 9.95715 49.5727 10.0214C49.4503 10.7668 48.6173 10.8914 48.1301 10.9004Z" fill="#F37024"/>
<path d="M58.2975 14.9305L58.7634 11.7716C58.8903 10.9015 58.6613 10.2998 58.0809 9.9754C57.4669 9.65506 56.7817 9.49591 56.0894 9.51289C54.9095 9.51289 54.0182 9.82946 53.4367 10.4514C53.0576 10.8848 52.8007 11.4114 52.6924 11.977L52.6677 12.0971H54.5963L54.6143 12.0387C54.6747 11.8171 54.7853 11.6124 54.9376 11.4404C55.1284 11.2484 55.427 11.1508 55.8244 11.1508C56.1837 11.1508 56.4486 11.199 56.6103 11.2967C56.6619 11.3292 56.8202 11.4224 56.7686 11.7794C56.7382 11.9804 56.6058 12.1263 56.3644 12.2284C56.1317 12.3071 55.8906 12.3583 55.646 12.3811L55.0252 12.4563C54.3067 12.545 53.7443 12.6966 53.3491 12.9054C52.6183 13.296 52.1839 13.937 52.0548 14.8071C51.9549 15.4885 52.0974 16.0262 52.4724 16.4034C52.8473 16.7806 53.3626 16.9647 54.0092 16.9647C54.5007 16.9674 54.9851 16.8482 55.4192 16.6178C55.7048 16.464 55.9737 16.2812 56.2218 16.0722L56.0916 16.7458H58.0382L58.2975 14.9305ZM56.5148 13.4891L56.4475 13.9606C56.3543 14.5376 56.1298 14.9305 55.793 15.1551C55.4741 15.3639 55.1021 15.4772 54.7209 15.4817C54.5298 15.4913 54.3423 15.4275 54.1967 15.3032C54.0766 15.191 54.035 14.9968 54.0766 14.724C54.0917 14.5771 54.1432 14.4363 54.2265 14.3143C54.3098 14.1924 54.4223 14.0932 54.5537 14.0257C54.817 13.9049 55.0971 13.8247 55.3844 13.7877L55.7964 13.7114C55.9694 13.6829 56.1398 13.6405 56.306 13.5845C56.3776 13.5608 56.4474 13.5319 56.5148 13.4981" fill="#F37024"/>
<path d="M65.4687 10.1034C65.051 9.71382 64.4684 9.51512 63.7354 9.51512C63.1959 9.50321 62.6654 9.65422 62.2131 9.94844C62.0044 10.0985 61.8142 10.2725 61.6462 10.4671L61.7585 9.69249H59.8343L58.8027 16.7559H60.7919L61.3442 12.9536C61.3858 12.5976 61.4939 12.2526 61.663 11.9366C61.9504 11.4426 62.3725 11.2046 62.9563 11.2046C63.4053 11.2046 63.6804 11.3539 63.7915 11.6649C63.8577 11.8434 63.8622 12.1072 63.8095 12.4507L63.1864 16.7525H65.2228L65.9143 12.0376C66.0412 11.1395 65.8919 10.4907 65.4731 10.0977" fill="#F37024"/>
<path d="M52.588 0.588224C52.1704 0.19756 51.5878 -1.7156e-05 50.8536 -1.7156e-05C50.3142 -0.0119298 49.7837 0.139083 49.3314 0.433305C49.1227 0.583331 48.9324 0.75741 48.7645 0.951945L48.8767 0.177353H46.9481L45.9142 7.24073H47.9034L48.4557 3.4385C48.497 3.08256 48.6047 2.73754 48.7734 2.42142C48.8976 2.18927 49.0852 1.9972 49.3144 1.86761C49.5436 1.73802 49.8049 1.67625 50.0678 1.68949C50.5168 1.68949 50.7919 1.8388 50.903 2.14976C50.9692 2.32825 50.9737 2.59206 50.921 2.93557L50.3002 7.24073H52.3377L53.0292 2.52583C53.1561 1.63448 53.0068 0.98001 52.588 0.587101" fill="#03428E"/>
<path d="M50.638 17.3475C50.2193 16.9569 49.6378 16.7593 48.9047 16.7593C48.3653 16.7472 47.8347 16.8982 47.3825 17.1926C47.1738 17.3426 46.9835 17.5167 46.8156 17.7112L46.9278 16.9366H44.9981L43.9664 24H45.9545L46.508 20.1978C46.5487 19.8417 46.6565 19.4966 46.8257 19.1807C46.9497 18.9487 47.1371 18.7566 47.3661 18.627C47.595 18.4974 47.8561 18.4356 48.1189 18.4488C48.568 18.4488 48.8441 18.5981 48.9553 18.909C49.0215 19.0875 49.026 19.3514 48.9721 19.6949L48.3491 23.9978H50.3877L51.0792 19.2829C51.2061 18.3915 51.0568 17.7371 50.638 17.3441" fill="#03428E"/>
<path d="M74.1744 8.58116C73.7838 8.99876 73.5862 9.58139 73.5862 10.3144C73.5741 10.8539 73.7251 11.3844 74.0195 11.8367C74.1699 12.0434 74.3439 12.2318 74.5381 12.398L73.7636 12.2857V14.2177L80.8269 15.2527V13.2646L77.0247 12.7112C76.6688 12.67 76.3237 12.5622 76.0076 12.3935C75.5137 12.1061 75.2757 11.6829 75.2757 11.0991C75.2757 10.6501 75.425 10.3751 75.736 10.2639C75.9144 10.1977 76.1783 10.1932 76.5218 10.2471L80.8269 10.8701V8.8315L76.112 8.13998C75.2207 8.01312 74.5662 8.16243 74.1733 8.58116" fill="#03428E"/>
<path d="M0.588177 8.58116C0.197514 8.99876 -6.33409e-05 9.58139 -6.33409e-05 10.3144C-0.0121159 10.8539 0.138908 11.3844 0.433259 11.8367C0.583631 12.0434 0.757697 12.2318 0.951899 12.398L0.177307 12.2857V14.2177L7.24069 15.2494V13.2646L3.43845 12.7112C3.08251 12.67 2.73749 12.5622 2.42138 12.3935C1.92744 12.1061 1.68945 11.6829 1.68945 11.0991C1.68945 10.6501 1.83875 10.3751 2.14971 10.2639C2.3282 10.1977 2.59201 10.1932 2.93553 10.2471L7.24069 10.8701V8.8315L2.52578 8.13998C1.63444 8.01312 0.979964 8.16243 0.587055 8.58116" fill="#03428E"/>
<path d="M73.5491 9.71606H71.0311L68.5917 12.1251L69.3012 7.289H67.3389L65.9525 16.7592H67.9159L68.2325 14.55L68.9745 13.882L70.1656 16.7592H72.2301L70.4418 12.6573L73.5491 9.71606Z" fill="#F37024"/>
<path d="M31.4843 9.24348C32.4946 9.22664 33.1682 9.69252 33.6801 10.1416L34.2414 10.6344L34.6635 8.17813L34.2941 7.93453C33.5449 7.4281 32.6603 7.15969 31.7559 7.16443H31.6718C29.687 7.19698 28.1165 8.36898 27.8549 10.008C27.7483 10.6725 27.8796 11.2507 28.2456 11.7334L28.2602 11.7514C28.7564 12.3127 29.4299 12.5551 30.3549 12.7763H30.3617C31.738 13.0693 31.8042 13.3847 31.7537 13.7069C31.6504 14.3389 30.8343 14.7936 30.1675 14.8037C29.0224 14.8205 28.1142 14.0706 27.6978 13.6699L27.3374 13.305L26.9198 15.8084L27.068 15.9207C27.8582 16.542 28.8333 16.8818 29.8386 16.8861H29.9261C33.9158 16.8513 34.1381 14.1301 34.0887 13.1467C34.0876 12.8452 34.0146 12.5483 33.8758 12.2806C33.737 12.013 33.5364 11.7823 33.2905 11.6077C32.7573 11.2069 32.0299 11.0093 31.3911 10.8712C30.0193 10.5558 30.0597 10.2987 30.0934 10.0922C30.1574 9.69701 30.7063 9.2592 31.4798 9.24572" fill="#F37024"/>
</g>
<defs>
<clipPath id="clip0_45_4243">
<rect width="80.827" height="24" fill="white"/>
</clipPath>
</defs>
</svg>
