<svg width="81" height="24" viewBox="0 0 81 24" fill="none" xmlns="http://www.w3.org/2000/svg">
<g clip-path="url(#clip0_45_4244)">
<path fill-rule="evenodd" clip-rule="evenodd" d="M3.82031 19.4837H19.1489V4.00031H3.82031V19.4837Z" fill="white"/>
<path fill-rule="evenodd" clip-rule="evenodd" d="M18.6482 18.9977L13.0858 14.286C13.0858 14.286 12.3323 13.5429 11.4871 13.5429C10.6334 13.5429 9.87991 14.286 9.87991 14.286L4.31922 18.9977L4.3014 18.9814L8.96685 13.3629C8.96685 13.3629 9.70086 12.6043 9.70086 11.7403C9.70086 10.8849 8.96685 10.1254 8.96685 10.1254L4.3014 4.50258L4.31922 4.48287L9.87991 9.19973C9.87991 9.19973 10.6334 9.94458 11.4871 9.94458C12.3323 9.94458 13.0858 9.19973 13.0858 9.19973L18.6482 4.48287L18.6711 4.50773L13.9963 10.1254C13.9963 10.1254 13.2674 10.8849 13.2674 11.7403C13.2674 12.6043 13.9963 13.3629 13.9963 13.3629L18.6711 18.9797L18.6482 18.9977ZM21.2508 11.7403V11.7386C21.2508 10.2154 21.3119 8.85001 22.4303 6.45173C22.7536 5.75401 23.4689 4.73744 22.415 3.55116C21.5588 2.68887 20.5863 2.8303 19.9312 3.21173C20.308 2.55001 20.448 1.56344 19.5927 0.697727C18.4191 -0.363416 17.4093 0.357441 16.7219 0.685727C14.3451 1.81801 13.0001 1.88058 11.4871 1.88058C9.96816 1.88058 8.62148 1.81801 6.24972 0.685727C5.55898 0.357441 4.54494 -0.363416 3.37476 0.697727C2.5194 1.56344 2.66366 2.55001 3.04042 3.21173C2.38363 2.82858 1.40947 2.68887 0.552412 3.55116C-0.500666 4.73744 0.218075 5.75401 0.53544 6.45173C1.66065 8.85001 1.72259 10.2154 1.72259 11.7403C1.72259 13.2694 1.66065 14.6383 0.53544 17.0349C0.218075 17.7274 -0.500666 18.7509 0.552412 19.9363C1.40947 20.796 2.38363 20.6537 3.04042 20.2766C2.66366 20.94 2.5194 21.924 3.37476 22.7812C4.54494 23.85 5.55898 23.1274 6.24972 22.7992C8.62317 21.6677 9.96816 21.6077 11.4871 21.6077C13.0001 21.6077 14.3451 21.6677 16.7211 22.7992C17.4093 23.1274 18.4191 23.85 19.5927 22.7812C20.448 21.924 20.3046 20.94 19.9295 20.2766C20.5863 20.6537 21.5588 20.8012 22.415 19.9363C23.4689 18.7509 22.7536 17.7274 22.4303 17.0349C21.3119 14.6349 21.2508 13.2694 21.2508 11.7403Z" fill="#FF3333"/>
<path fill-rule="evenodd" clip-rule="evenodd" d="M39.3983 20.7308C41.305 20.0408 43.6649 16.7545 43.2737 11.5791C42.8969 6.57255 41.0072 2.63912 35.9751 2.26969C35.9751 2.26969 35.0222 2.20026 34.2237 2.19683C33.3675 2.19083 33.1842 2.16169 33.1205 3.08569C33.0111 4.81455 32.9797 18.2794 33.0891 20.2225C33.1019 20.4891 33.1307 21.1285 34.2288 21.2408C36.2365 21.4371 37.8972 21.2794 39.3983 20.7308ZM37.4517 1.41683C41.7098 1.39712 47.3129 4.34569 47.2908 11.712C47.2764 18.1191 42.6958 22.0654 38.4657 22.0654L27.7236 22.068L27.7372 21.8391C28.3414 21.7303 29.0203 21.3497 29.1331 20.9434C29.4887 19.3997 29.408 5.27569 29.1925 2.9494C29.1246 2.22169 28.5561 1.75283 27.8662 1.63797L27.845 1.41683C27.845 1.41683 36.4979 1.42197 37.4517 1.41683ZM61.0038 17.004C61.0886 12.5665 57.8683 11.3897 54.5334 11.2054C54.4638 11.2003 54.4901 11.034 54.5419 11.0254C55.6255 10.9817 59.9337 10.4777 59.7589 6.32055C59.5841 2.26969 56.542 2.17883 55.4295 2.16169C54.5215 2.14969 54.3238 2.14969 53.9402 2.16855C53.2945 2.19683 53.1333 2.24483 53.1367 2.95283C53.1367 3.04283 52.9949 10.2505 52.9101 15.318C52.8702 18.072 52.8592 20.1925 52.8592 20.1925C52.8753 20.6974 52.8133 21.2091 54.0438 21.2674C55.3141 21.33 56.9518 21.3831 58.0982 21.1371C59.1479 20.9108 60.9325 20.1343 61.0038 17.004ZM59.6859 11.0383C64.695 12.2923 64.9971 15.9445 64.9276 16.9714C64.6984 21.5443 60.8595 22.068 59.3134 22.068H47.4962L47.5098 21.8374C48.3685 21.7183 49.0126 21.2434 49.0126 19.7194L49.0822 3.97112C49.1017 2.26369 48.657 1.74169 47.7211 1.63026L47.6999 1.41683H56.6353C58.2756 1.41683 63.2151 1.08769 63.636 5.67426C63.9704 9.34455 59.9778 10.878 59.6859 11.0383ZM78.9544 1.4794L79.1572 1.47769L79.2268 5.1574L79.0037 5.15569C78.6447 3.6574 77.2191 2.24483 74.3603 2.0974C70.9838 1.91826 69.5243 3.95055 69.5022 5.87397C69.4827 8.42997 71.4573 8.95797 74.3823 9.67883C75.7604 10.0191 80.8671 10.692 80.4581 16.488C80.1747 20.5363 76.7142 22.4614 71.8146 22.3088C71.8146 22.3088 69.7788 22.2403 66.9353 21.444C66.4092 21.2931 66.2691 21.4723 66.0578 21.864L65.8253 21.876L65.833 17.9083L66.0578 17.9194C66.1699 18.3214 66.2013 19.0697 66.9225 19.704C67.4478 20.172 68.6825 21.3274 71.3903 21.3574C74.048 21.3934 76.2509 20.2603 76.5462 17.2483C76.6268 16.4383 76.5419 14.5843 74.7498 13.7391C73.3479 13.0774 69.4555 12.6411 67.5692 10.9705C67.5692 10.9705 65.3315 9.39597 65.6845 6.45683C66.18 2.30312 69.6125 1.26426 72.6962 1.20083C72.6962 1.20083 75.4549 1.1734 77.6527 1.74683C77.6527 1.74683 78.1907 1.89426 78.6362 1.72283C78.817 1.66197 78.9018 1.54797 78.9544 1.4794Z" fill="black"/>
</g>
<defs>
<clipPath id="clip0_45_4244">
<rect width="80.5714" height="24" fill="white"/>
</clipPath>
</defs>
</svg>
