<svg width="165" height="27" viewBox="0 0 165 27" fill="none" xmlns="http://www.w3.org/2000/svg">
<g id="DBS" clip-path="url(#clip0_4_1398)">
<path id="Vector" fill-rule="evenodd" clip-rule="evenodd" d="M93 12.71H100.15C102.94 12.71 106.29 13.6 106.29 17.29C106.29 20.41 103.95 22.09 100.15 22.09H93V12.71ZM91.66 23.21H100.15C104.62 23.21 107.52 21.08 107.52 17.29C107.553 15.9824 107.086 14.7115 106.215 13.7361C105.343 12.7607 104.133 12.1541 102.83 12.04H102.72C103.853 11.9236 104.903 11.3907 105.666 10.5446C106.429 9.6985 106.851 8.59935 106.85 7.46002C106.85 4.78002 105.17 1.98999 100.15 1.98999H91.66V23.21ZM93 3.09998H100.15C102.94 3.09998 105.51 4.21999 105.51 7.23999C105.51 9.79999 103.72 11.59 100.15 11.59H93V3.09998Z" fill="#231F20"/>
<path id="Vector_2" fill-rule="evenodd" clip-rule="evenodd" d="M112.2 15.28L117 3.33002L121.58 15.28H112.2ZM116.2 1.98999L107.71 23.21H109.16L111.85 16.39H121.85L124.53 23.21H125.98L117.67 2L116.2 1.98999Z" fill="#231F20"/>
<path id="Vector_3" fill-rule="evenodd" clip-rule="evenodd" d="M127.61 1.98999H129.29L142.69 21.42V1.98999H144.03V23.21H142.47L129.07 3.66H128.95V23.21H127.61V1.98999Z" fill="#231F20"/>
<path id="Vector_4" fill-rule="evenodd" clip-rule="evenodd" d="M147.72 1.98999H148.95V14.16L162.35 1.98999H164.02L154.31 10.81L164.58 23.21H162.91L153.41 11.7L148.95 15.72V23.21H147.72V1.98999Z" fill="#231F20"/>
<path id="Vector_5" fill-rule="evenodd" clip-rule="evenodd" d="M15.48 10.36C15.48 10.36 22.96 4.00003 22.85 2.88003C22.85 2.88003 23.74 0.530037 20.95 0.200037C20.95 0.200037 20.39 -0.019948 18.27 1.09005C18.27 1.09005 13.58 3.55002 9.45 1.43002L7.20998 0.430018C6.82349 0.259316 6.4017 0.183899 5.98 0.210047C5.64967 0.202585 5.32325 0.282778 5.03399 0.442469C4.74472 0.60216 4.50294 0.835596 4.33324 1.1191C4.16354 1.40261 4.07197 1.72603 4.06789 2.05642C4.06381 2.38681 4.14735 2.71241 4.30999 3.00003C4.19999 4.23003 11.68 10.48 11.68 10.48C12.1485 10.808 12.6795 11.0361 13.24 11.15C13.6484 11.2062 14.0644 11.1648 14.4537 11.0292C14.8431 10.8936 15.1948 10.6677 15.48 10.37V10.36Z" fill="#ED1C2E"/>
<path id="Vector_6" fill-rule="evenodd" clip-rule="evenodd" d="M15.48 16.39C15.48 16.39 22.96 22.76 22.85 23.88C22.85 23.88 23.74 26.22 20.95 26.56C20.95 26.56 20.39 26.7799 18.27 25.6599C18.27 25.6599 13.58 23.21 9.45 25.33L7.20998 26.33C6.82482 26.5056 6.40261 26.5846 5.98 26.56C5.64967 26.5674 5.32325 26.4872 5.03399 26.3275C4.74472 26.1679 4.50294 25.9344 4.33324 25.6508C4.16354 25.3673 4.07197 25.0439 4.06789 24.7135C4.06381 24.3831 4.14735 24.0576 4.30999 23.77C4.19999 22.54 11.68 16.28 11.68 16.28C12.1485 15.9521 12.6795 15.7239 13.24 15.61C14.0601 15.566 14.8646 15.8462 15.48 16.39Z" fill="#ED1C2E"/>
<path id="Vector_7" fill-rule="evenodd" clip-rule="evenodd" d="M10.34 15.39C10.34 15.39 4.09 22.76 2.97 22.76C2.6602 22.875 2.32736 22.9141 1.99933 22.8742C1.67129 22.8342 1.35758 22.7163 1.08444 22.5303C0.8113 22.3443 0.586668 22.0956 0.429319 21.805C0.271969 21.5144 0.186471 21.1904 0.17999 20.86C0.17999 20.86 0.0600045 20.3 1.07 18.18C1.07 18.18 3.64 13.38 1.41 9.24998L0.510007 7.00999C0.325072 6.62798 0.248953 6.20243 0.290006 5.78001C0.297003 5.45519 0.3863 5.13744 0.549558 4.85654C0.712816 4.57565 0.944677 4.34079 1.22345 4.17393C1.50222 4.00707 1.81879 3.91362 2.14349 3.90244C2.46819 3.89126 2.7904 3.96267 3.07998 4.10996C4.19998 4.10996 10.45 11.48 10.45 11.48C10.839 11.955 11.0728 12.5379 11.12 13.15C11.1706 13.5582 11.1266 13.9725 10.9913 14.3609C10.856 14.7494 10.6332 15.1015 10.34 15.39Z" fill="#ED1C2E"/>
<path id="Vector_8" fill-rule="evenodd" clip-rule="evenodd" d="M16.48 15.39C16.48 15.39 22.74 22.76 23.85 22.76C24.1604 22.8747 24.4937 22.9136 24.8221 22.8736C25.1506 22.8336 25.4648 22.7158 25.7386 22.53C26.0124 22.3442 26.2379 22.0958 26.3964 21.8053C26.5549 21.5149 26.6418 21.1908 26.65 20.86C26.65 20.86 26.76 20.3 25.75 18.18C25.75 18.18 23.3 13.38 25.42 9.25002L26.31 7.01003C26.5004 6.62968 26.5801 6.2035 26.54 5.78005C26.31 3.10005 23.74 4.11001 23.74 4.11001C22.63 4.11001 16.37 11.48 16.37 11.48C15.981 11.955 15.7472 12.5379 15.7 13.15C15.6524 13.5581 15.6979 13.9716 15.833 14.3595C15.9681 14.7475 16.1893 15.0998 16.48 15.39Z" fill="#ED1C2E"/>
<path id="Vector_9" fill-rule="evenodd" clip-rule="evenodd" d="M33.68 21.75V3.33002C33.68 3.33002 33.68 2.76998 32.79 2.09998H41.72C45.19 2.20998 51.89 4.33002 51.89 12.71C51.89 21.09 45.3 23.21 41.5 23.21H32.79C33.79 22.42 33.68 21.75 33.68 21.75ZM37.48 19.97C37.48 21.64 37.48 22.31 39.27 22.31C44.27 22.31 47.64 19.19 47.64 12.6C47.64 6.67998 44.41 3.09998 39.83 3.09998C38.49 3.09998 37.93 3.09997 37.7 3.65997C37.4537 4.6839 37.3793 5.74166 37.48 6.78998V20V19.97Z" fill="#231F20"/>
<path id="Vector_10" fill-rule="evenodd" clip-rule="evenodd" d="M65.85 11.81C66.6041 11.3534 67.2336 10.7172 67.682 9.95819C68.1305 9.19915 68.384 8.3409 68.42 7.46002C68.53 3.55002 65.51 2.21002 62.72 2.21002H53.12C53.12 2.21002 53.79 2.43 53.68 3.88V21.75C53.68 22.98 53.12 23.1 53.12 23.1H63.12C66.36 23.1 70.04 21.53 70.04 17.4C70.04 14.05 68.04 12.82 65.8 11.81H65.85ZM60.71 22.31H59.37C57.14 22.31 57.7 21.2 57.7 20.41V3.65997C57.7117 3.48613 57.786 3.32248 57.9092 3.19928C58.0324 3.07608 58.1962 3.0017 58.37 2.98999H59.48C62.05 2.98999 64.4 3.54999 64.48 6.98999C64.4755 7.86615 64.2472 8.72666 63.8167 9.48975C63.3861 10.2528 62.7677 10.8932 62.02 11.35C61.5156 11.5472 60.9931 11.6946 60.46 11.79V12C62.25 12.22 65.6 14 65.6 17.25C65.6 20.71 63.25 22.5 60.68 22.25L60.71 22.31Z" fill="#231F20"/>
<path id="Vector_11" fill-rule="evenodd" clip-rule="evenodd" d="M76.57 13.83C70.88 12.15 71.32 8.12998 71.32 8.12998C71.32 2.87998 77.32 2.31998 77.32 2.31998C79.112 2.09157 80.9312 2.20693 82.68 2.65994C83.4763 3.05141 84.3688 3.20422 85.25 3.09995V5.9H85.03C85.03 5.9 83.47 3.54999 81.46 3.32999C81.46 3.32999 76.88 2.09998 75.31 5.44998C75.31 5.44998 73.97 8.90995 78.11 9.91995L81.34 10.92C81.34 10.92 86.48 12.37 86.48 16.62C86.5635 17.4674 86.4677 18.3229 86.199 19.131C85.9302 19.939 85.4944 20.6814 84.92 21.31C84.92 21.31 82.57 23.65 77.66 23.65C76.5291 23.6472 75.4032 23.4993 74.31 23.21C74.31 23.21 72.31 22.5399 72.19 22.5399C71.8866 22.5397 71.5844 22.5767 71.29 22.65V19.3H71.63C72.2401 20.1889 73.0562 20.917 74.0087 21.422C74.9613 21.927 76.0219 22.1939 77.1 22.2C77.1 22.2 80.45 22.65 81.79 20.08C82.1392 19.4137 82.2935 18.6625 82.2352 17.9125C82.1768 17.1625 81.9082 16.4442 81.46 15.84C80.6648 15.0207 79.6571 14.439 78.55 14.1599L76.55 13.83H76.57Z" fill="#231F20"/>
</g>
<defs>
<clipPath id="clip0_4_1398">
<rect width="165" height="27" fill="white"/>
</clipPath>
</defs>
</svg>
