<svg width="98" height="24" viewBox="0 0 98 24" fill="none" xmlns="http://www.w3.org/2000/svg">
<g clip-path="url(#clip0_45_4245)">
<path d="M0.347412 23.6585H97.5662V0.27832H0.347412V23.6585Z" fill="#2C4190"/>
<path d="M0.347331 0.2783H0.180664V23.8252H97.7327V0.111633H0.180664V0.2783H0.347331V0.444967H97.3994V23.4918H0.513997V0.2783H0.347331Z" fill="white"/>
<path d="M6.2085 17.8682H11.3439C14.9793 17.8682 16.7502 15.3057 16.7502 11.8474C16.7502 7.8995 14.4272 5.97241 11.3439 5.97241H6.2085V17.8682ZM8.8335 8.17033H10.6981C13.2918 8.17033 14.1252 9.70158 14.1252 12.0974C14.1252 14.7328 12.6772 15.6703 11.1668 15.6703H8.8335V8.17033Z" fill="white"/>
<path d="M28.6289 9.97245C28.3164 7.22245 26.1185 5.68079 23.4935 5.68079C19.8164 5.68079 17.6498 8.43079 17.6498 11.9725C17.6498 15.3995 19.8164 18.1495 23.4935 18.1495C26.4102 18.1495 28.4623 16.2537 28.7331 13.285H26.2019C25.9935 14.8475 25.0977 15.9516 23.4935 15.9516C21.1498 15.9516 20.2644 13.9516 20.2644 11.9725C20.2644 9.88912 21.1498 7.88912 23.4935 7.88912C24.7956 7.88912 25.931 8.78495 26.0977 9.97245H28.6289Z" fill="white"/>
<path d="M32.7368 12.5662H35.5806C36.6951 12.5662 37.466 13.0557 37.466 14.2641C37.466 15.5037 36.5701 15.837 35.5285 15.837H32.7368V12.5662ZM30.1118 17.8682H35.8826C38.0285 17.8682 40.0806 16.837 40.0806 14.4203C40.0806 12.9307 39.3514 11.8162 37.9035 11.3995C38.9347 10.8995 39.5181 10.087 39.5181 8.92033C39.5181 6.70158 37.9868 5.97241 35.716 5.97241H30.1118V17.8682ZM32.7368 8.00366H35.1847C36.1118 8.00366 36.9868 8.23283 36.9868 9.36825C36.9868 10.3682 36.2993 10.7849 35.3826 10.7849H32.7368V8.00366Z" fill="white"/>
<path d="M50.3536 12.5662H53.1973C54.3119 12.5662 55.0827 13.0557 55.0827 14.2641C55.0827 15.5037 54.1869 15.837 53.1452 15.837H50.3536V12.5662ZM47.7286 17.8682H53.4994C55.6452 17.8682 57.6973 16.837 57.6973 14.4203C57.6973 12.9307 56.9682 11.8162 55.5202 11.3995C56.5515 10.8995 57.1348 10.087 57.1348 8.92033C57.1348 6.70158 55.6036 5.97241 53.3327 5.97241H47.7286V17.8682ZM50.3536 8.00366H52.8015C53.7286 8.00366 54.6036 8.23283 54.6036 9.36825C54.6036 10.3682 53.9161 10.7849 52.9994 10.7849H50.3536V8.00366Z" fill="white"/>
<path d="M57.8032 17.8682H60.449L61.3865 15.2224H65.8344L66.7302 17.8682H69.449L65.0011 5.97241H62.3136L57.8032 17.8682ZM63.6157 8.8995H63.6469L65.1469 13.2641H62.0636L63.6157 8.8995Z" fill="white"/>
<path d="M70.0819 17.8682H72.5402V9.8995H72.5715L77.5194 17.8682H80.134V5.97241H77.6861V13.9516H77.6548L72.6861 5.97241H70.0819V17.8682Z" fill="white"/>
<path d="M82.0336 17.8682H84.6586V14.0349L86.1586 12.5141L89.7419 17.8682H93.0232L87.919 10.6703L92.5752 5.97241H89.3044L84.6586 10.8995V5.97241H82.0336V17.8682Z" fill="white"/>
</g>
<defs>
<clipPath id="clip0_45_4245">
<rect width="98" height="24" fill="white"/>
</clipPath>
</defs>
</svg>
