<svg width="170" height="52" viewBox="0 0 170 52" fill="none" xmlns="http://www.w3.org/2000/svg">
<g id="Dena Bank" clip-path="url(#clip0_4_1382)">
<path id="Vector" fill-rule="evenodd" clip-rule="evenodd" d="M0 25.2433V37.6216C0 37.9729 -3.33707e-05 37.8379 0.136645 37.919H18.5336V4.24329H0V25.2433Z" fill="#005BAA"/>
<path id="Vector_2" fill-rule="evenodd" clip-rule="evenodd" d="M9.7041 34.8378H1.72216V19.5134C2.43289 19.3512 3.06161 19 2.92493 18.054C2.78826 17.1081 0.956746 16.0271 1.53079 14.4325C1.80415 13.6217 2.62422 13.4054 2.89757 13.2162C2.5606 12.7924 2.37744 12.2689 2.37744 11.7298C2.37744 11.1906 2.5606 10.667 2.89757 10.2432C3.82698 9.05397 5.63114 9.43246 5.98651 9.35138C6.16633 9.09081 6.33061 8.81994 6.47853 8.54044C6.81071 8.14741 7.23032 7.83565 7.70449 7.62937C8.17866 7.42309 8.69458 7.32786 9.21208 7.35124C9.88045 7.35875 10.532 7.56002 11.0859 7.92992C11.6398 8.29982 12.0718 8.82216 12.3284 9.43238C12.9535 9.33777 13.5895 9.33777 14.2145 9.43238C14.4914 9.48119 14.7557 9.58368 14.9924 9.73392C15.229 9.88416 15.4331 10.0792 15.5932 10.3078C15.7532 10.5364 15.8661 10.7941 15.925 11.066C15.984 11.3378 15.9879 11.6185 15.9367 11.8919C15.9367 12.6217 15.3079 12.9459 15.3079 13.3243C15.3079 13.7027 16.5107 13.3243 16.9207 14.4054C17.6588 16.1892 14.5152 17.5945 16.0733 19.2161C16.5107 19.7026 16.7567 19.4324 16.9207 19.7297C17.0848 20.027 16.9207 33.6756 16.9207 34.9459C16.5107 34.9459 10.4148 34.9459 9.6221 34.9459L9.7041 34.8378Z" fill="white"/>
<path id="Vector_3" fill-rule="evenodd" clip-rule="evenodd" d="M20.5564 30.5405V37.8379C20.5564 38.027 20.5564 37.8379 20.6931 37.8379C24.1724 37.9719 27.6569 37.8092 31.1079 37.3514C55.0265 34.0541 51.3909 3.7568 25.8048 4.24328C23.9733 4.24328 22.1965 4.24328 20.3377 4.24328V17.4054C22.8526 17.4054 25.422 17.4054 27.9369 17.4054C30.4518 17.4054 32.1467 18.3783 32.174 20.7027C32.2014 23.027 30.5065 24.2432 28.183 24.2432C25.8595 24.2432 23.0439 24.2432 20.529 24.2432V30.4054L20.5564 30.5405Z" fill="#005BAA"/>
<path id="Vector_4" fill-rule="evenodd" clip-rule="evenodd" d="M71.3187 0.837928L73.0134 3.81084C74.3226 3.19438 75.7993 3.01667 77.2199 3.30441C78.6405 3.59214 79.9276 4.32971 80.8861 5.4055H70.2799V7.10822H80.5034V8.48662H73.4234C71.1272 8.48662 70.0065 8.05409 68.5851 10.2433C67.1636 12.4325 68.1203 14.8109 72.74 14.865C75.434 14.9209 78.1172 14.5093 80.6674 13.6487V15.0812H78.8359V16.4596H87.0366V15.0812H85.4785V11.3244H80.3667L79.6013 12.0001C79.2849 12.4053 78.8644 12.7194 78.3836 12.9095C77.9029 13.0997 77.3795 13.159 76.8677 13.0813C76.1142 13.2026 75.3417 13.1281 74.6262 12.865C72.986 12.0272 73.068 10.919 74.6262 10.1623H85.2324V7.27038H98.2168V9.05409H89.2508C86.8179 10 86.5172 11.3514 88.704 13.1081C91.0002 14.2433 93.1324 15.1081 93.4331 13.1081V11.3244H98.1894V15.1622H96.0847V16.5406H104.695V15.1622H102.809V7.02706H107.402V14.973H105.625V16.5677H114.126V15.0812H112.295V6.97312H114.81V5.4055H83.9203C81.4031 3.52808 78.7539 1.83009 75.9929 0.324408C74.4159 0.103713 72.8082 0.280352 71.3187 0.837928Z" fill="#005BAA"/>
<path id="Vector_5" fill-rule="evenodd" clip-rule="evenodd" d="M122.682 1.2973L125.224 4C125.737 3.64649 126.333 3.42872 126.955 3.36722C127.577 3.30572 128.204 3.40253 128.778 3.64864L131.32 5.78388H121.397V7.16228H134.136V9.02716C117.324 4.43256 114.755 18.1622 134.136 13.6216V15.2433H132.386V16.5947H140.587V15.1351H138.673V7.02702H152.532V8.59463C136.869 5.51355 138.318 16.3514 152.532 13.2973V15.1892H150.51V16.2704H158.874V15H157.043V13.5136C174.018 17.6217 169.891 4.97297 157.043 8.89189V7.18917H164.943V5.56762H138.564L134.518 1.78377C133.758 1.06692 132.836 0.538878 131.828 0.242878C130.821 -0.0531219 129.757 -0.108483 128.723 0.0812176L130.254 2.78392C131.922 2.18933 133.972 2.7838 136.651 5.70272H133.398L128.122 1.64867C127.328 1.10353 126.396 0.787115 125.431 0.734624C124.466 0.682132 123.505 0.89567 122.655 1.35141L122.682 1.2973ZM157.152 10.8109V12.0271C166.337 14.7298 165.353 7.64871 157.152 10.8109ZM152.505 10.8109V11.892C144.523 14.3244 145.261 8.05411 152.505 10.8109ZM137.143 3.40549L138.892 1.81082L140.642 3.40549L138.892 4.99999L137.143 3.40549ZM129.653 10.1352C130.828 11.7568 132.085 13.0001 133.753 12.1893C135.147 10.5406 132.55 10.2974 129.653 10.1352ZM129.489 13.1893C128.505 9.75683 122.409 9.94602 127.11 13.1893H129.489Z" fill="#005BAA"/>
<path id="Vector_6" fill-rule="evenodd" clip-rule="evenodd" d="M169.617 19.3514H51.9103V21.5406H169.617V19.3514Z" fill="#005BAA"/>
<path id="Vector_7" fill-rule="evenodd" clip-rule="evenodd" d="M64.7033 23.5406H71.0725C79.6286 23.5406 78.8085 36.2432 71.0725 36.2432H64.8946V33.5405H66.3435V26.0812H64.7854V23.5135L64.7033 23.5406ZM69.0497 26.108C75.6376 25.6486 75.8563 34.2161 69.0497 33.7026V26.108Z" fill="#005BAA"/>
<path id="Vector_8" fill-rule="evenodd" clip-rule="evenodd" d="M77.5784 23.5405V26.1621H78.9998V33.5135H77.5237V36.2432H88.786V31.0811H86.7905L85.615 33.7567H82.0067V30.8378H84.4123V28.1621H81.8974V26.1081H85.7517L86.4624 28.1081H88.6766V23.5405H77.5784Z" fill="#005BAA"/>
<path id="Vector_9" fill-rule="evenodd" clip-rule="evenodd" d="M89.3053 23.4865V26.1892H90.5354V33.7838H89.278V36.1892H94.9365V33.7568H93.7064V28.9189L98.2168 36.1892H100.896V26.2433H102.044V23.5135H96.4673V26.1892H97.8614V30.8379L93.679 23.5135L89.3053 23.4865Z" fill="#005BAA"/>
<path id="Vector_10" fill-rule="evenodd" clip-rule="evenodd" d="M101.825 36.081H107.292V33.6757H106.089L106.855 31.8648H110.244L110.764 33.7567H109.342V36.081H114.809V33.5946H113.689L111.229 26.2163H112.486V23.7028H103.875V26.1892H104.941L102.672 33.6487H101.743V36.081H101.825ZM107.292 29.5135H109.479L108.304 26.4594L107.292 29.5135Z" fill="#005BAA"/>
<path id="Vector_11" fill-rule="evenodd" clip-rule="evenodd" d="M131.758 36.081H136.869V33.6757H135.721L136.459 31.8648H139.685L140.177 33.7567H138.919V36.081H144.195V33.5946H143.102L140.751 26.2163H141.954V23.7028H133.753V26.1892H134.764L132.578 33.6487H131.703V36.081H131.758ZM136.897 29.5135H138.974L137.881 26.4594L136.897 29.5135Z" fill="#005BAA"/>
<path id="Vector_12" fill-rule="evenodd" clip-rule="evenodd" d="M144.933 23.4865V26.1892H146.109V33.7838H144.906V36.1892H150.318V33.7568H149.17L149.198 28.8649L153.489 36.1892H156.059V26.2433H157.152V23.5135H151.822V26.1892H153.161V30.8379L149.116 23.5135L144.933 23.4865Z" fill="#005BAA"/>
<path id="Vector_13" fill-rule="evenodd" clip-rule="evenodd" d="M121.179 23.5675V26.2702H122.491V33.5136H121.097V36.2163H127.821C131.594 35.3244 132.96 31.0001 128.887 29.4595C132.195 28.0541 131.375 24.054 127.821 23.6216L121.179 23.5675ZM125.334 30.7027H126.454C126.842 30.6804 127.222 30.8097 127.514 31.0626C127.805 31.3155 127.985 31.6716 128.013 32.054C127.978 32.4339 127.797 32.7862 127.507 33.0377C127.217 33.2892 126.84 33.4208 126.454 33.4054H125.334V30.7027ZM125.334 26.1081H126.29C126.636 26.115 126.966 26.2539 127.21 26.4957C127.455 26.7375 127.596 27.0636 127.602 27.4055C127.602 27.7495 127.464 28.0795 127.218 28.3228C126.972 28.5661 126.638 28.7027 126.29 28.7027H125.334V26V26.1081Z" fill="#005BAA"/>
<path id="Vector_14" fill-rule="evenodd" clip-rule="evenodd" d="M157.918 23.5406V26.1622H159.175V33.7297H157.918V36.1352H163.357V33.6757H162.209V30.5406L165.244 33.2973V33.6757H164.588V36.1081H169.836V33.6216H168.825L165.462 29.6757L168.688 26.0811H169.563V23.5676H164.451V26.0271H165.08L162.209 29.3243V25.8919H163.275V23.4865L157.918 23.5406Z" fill="#005BAA"/>
<path id="Vector_15" d="M1.91351 52C1.3599 51.2761 0.90069 50.4861 0.54673 49.6487C0.199881 48.7881 0.0145813 47.8722 -1.51237e-05 46.946C-0.00382422 46.1092 0.134772 45.2779 0.410002 44.4866C0.769919 43.5156 1.2769 42.6044 1.91351 41.7839H2.73354C2.41065 42.298 2.11854 42.8304 1.85878 43.3784C1.64094 43.8761 1.46715 44.3915 1.3394 44.9189C1.1842 45.5743 1.11079 46.2459 1.12075 46.9189C1.14774 48.7484 1.7077 50.5314 2.73354 52.0541L1.91351 52ZM3.00692 49.7028L6.04113 41.8649H7.16189L10.4148 49.7028H9.21206L8.31003 47.3244H4.97508L4.12769 49.7028H3.00692ZM5.27573 46.4595H8.00929L7.16189 44.2974C6.95095 43.7667 6.76851 43.2253 6.61523 42.6757C6.5076 43.1902 6.3614 43.6961 6.17785 44.1892L5.30309 46.4595H5.27573ZM17.4401 46.6217V45.7027H20.775V48.6487C20.3027 49.0413 19.7668 49.352 19.1896 49.5677C18.5802 49.8099 17.9248 49.9184 17.2688 49.8857C16.6127 49.8531 15.9717 49.68 15.3899 49.3785C14.7624 49.0694 14.2537 48.5664 13.9411 47.946C13.6057 47.3031 13.4367 46.5881 13.449 45.8648C13.4429 45.125 13.6113 44.3939 13.9411 43.7297C14.2331 43.1065 14.7225 42.5942 15.3352 42.2703C15.9744 41.9355 16.6896 41.7681 17.4127 41.7839C17.945 41.7717 18.4746 41.8635 18.9709 42.0541C19.393 42.2131 19.7687 42.4732 20.0644 42.8109C20.3606 43.1934 20.566 43.6367 20.6657 44.1082L19.709 44.3513C19.6265 44.011 19.4779 43.6898 19.2715 43.4054C19.0728 43.1695 18.8198 42.9841 18.5336 42.8649C17.7738 42.5946 16.9424 42.5946 16.1826 42.8649C15.8572 42.9822 15.5661 43.1772 15.3352 43.4325C15.1218 43.6498 14.9545 43.907 14.8432 44.1892C14.644 44.6977 14.5421 45.2385 14.5425 45.7838C14.5192 46.3889 14.6409 46.991 14.8979 47.5407C15.1281 47.9905 15.5032 48.3517 15.964 48.5675C16.4189 48.8042 16.9262 48.925 17.4401 48.9189C17.9009 48.9236 18.3574 48.8316 18.7795 48.6487C19.1371 48.5269 19.4701 48.3439 19.7636 48.1081V46.6487L17.4401 46.6217ZM21.8411 46.865C21.8066 46.4315 21.8697 45.9959 22.0256 45.5893C22.1816 45.1828 22.4267 44.8153 22.7432 44.5135C23.2494 44.0985 23.8899 43.8778 24.5473 43.8919C24.902 43.879 25.2555 43.9397 25.5851 44.0701C25.9146 44.2004 26.213 44.3975 26.4608 44.6487C26.7285 44.9345 26.9345 45.2712 27.0661 45.6383C27.1977 46.0054 27.2522 46.3952 27.2263 46.7838C27.2558 47.3691 27.1433 47.9529 26.8983 48.4865C26.6895 48.9106 26.3429 49.2531 25.9141 49.4595C25.4975 49.6929 25.0261 49.8141 24.5473 49.8108C24.1837 49.8297 23.8203 49.772 23.481 49.6416C23.1417 49.5111 22.8343 49.311 22.5792 49.0542C22.0531 48.4479 21.7881 47.6621 21.8411 46.865ZM22.8525 46.865C22.814 47.4423 22.9783 48.015 23.3173 48.4865C23.4711 48.6546 23.6587 48.789 23.8682 48.8809C24.0778 48.9729 24.3044 49.0203 24.5336 49.0203C24.7628 49.0203 24.9896 48.9729 25.1991 48.8809C25.4087 48.789 25.5963 48.6546 25.7501 48.4865C26.0873 47.9938 26.2507 47.4048 26.2149 46.8109C26.2492 46.2424 26.0851 45.6794 25.7501 45.2162C25.5963 45.0481 25.4087 44.9137 25.1991 44.8218C24.9896 44.7298 24.7628 44.6824 24.5336 44.6824C24.3044 44.6824 24.0778 44.7298 23.8682 44.8218C23.6587 44.9137 23.4711 45.0481 23.3173 45.2162C22.9859 45.7015 22.8227 46.2802 22.8525 46.865ZM29.9598 49.5677L27.7729 43.8919H28.8116L30.0418 47.2703C30.0418 47.6487 30.2878 48.027 30.3971 48.4324C30.3971 48.1351 30.6158 47.7568 30.7525 47.3514L32.0372 43.8919H33.0488L30.8618 49.5677H29.9598ZM37.8325 47.7297H38.8439C38.7041 48.267 38.3865 48.7427 37.9418 49.081C37.4586 49.4031 36.884 49.5642 36.3017 49.5406C35.9347 49.5535 35.5688 49.493 35.2259 49.363C34.8831 49.2329 34.5703 49.036 34.3061 48.7838C33.7816 48.1873 33.5165 47.4104 33.5682 46.6217C33.5222 45.8173 33.7858 45.0255 34.3061 44.4054C34.5615 44.1549 34.8645 43.9568 35.1976 43.8223C35.5306 43.6878 35.8872 43.6196 36.247 43.6217C36.6003 43.6072 36.9526 43.67 37.2786 43.8055C37.6046 43.9409 37.8964 44.1457 38.1332 44.4054C38.655 45.0033 38.9198 45.7792 38.8711 46.5676V46.8379H34.5796C34.579 47.3653 34.7733 47.8747 35.1261 48.2703C35.2763 48.4287 35.4588 48.554 35.6614 48.6378C35.8639 48.7216 36.0822 48.7621 36.3017 48.7567C36.6332 48.7705 36.9599 48.6755 37.231 48.4865C37.5078 48.2471 37.7154 47.9393 37.8325 47.5946V47.7297ZM34.6341 46.1622H37.8325C37.8287 45.7828 37.7044 45.414 37.4771 45.1082C37.3357 44.9269 37.1532 44.7811 36.9442 44.6826C36.7353 44.584 36.5058 44.5352 36.2744 44.5405C36.0618 44.5385 35.8509 44.5781 35.6539 44.657C35.4568 44.7358 35.2774 44.8525 35.1261 45.0001C34.8179 45.311 34.6418 45.7269 34.6341 46.1622ZM40.1012 49.5677V43.8919H41.0034V44.7297C41.1583 44.4299 41.372 44.1635 41.632 43.946C41.806 43.8194 42.0175 43.7529 42.2335 43.7568C42.5911 43.767 42.9398 43.8694 43.2449 44.0541L42.9169 44.946C42.6999 44.8246 42.4554 44.7595 42.2061 44.7568C41.9978 44.7479 41.7933 44.8152 41.632 44.946C41.4551 45.0752 41.3219 45.2542 41.2495 45.4595C41.2061 45.8367 41.2061 46.2174 41.2495 46.5946V49.5677H40.1012ZM43.7916 49.5677V43.8919H44.6664V44.7027C44.8596 44.3988 45.131 44.1511 45.4527 43.9849C45.7745 43.8187 46.1352 43.74 46.4978 43.7568C46.827 43.7487 47.1538 43.8134 47.4545 43.946C47.723 44.0292 47.9546 44.2009 48.1105 44.4325C48.2594 44.6433 48.362 44.8828 48.4114 45.1352C48.4347 45.4501 48.4347 45.7662 48.4114 46.0811V49.5677H47.4272V46.1081C47.4771 45.8129 47.4771 45.5114 47.4272 45.2162C47.3458 45.0223 47.2017 44.8607 47.0172 44.7568C46.8166 44.647 46.5905 44.5911 46.3612 44.5946C45.9627 44.5875 45.5747 44.7218 45.2677 44.973C45.0958 45.178 44.9684 45.4156 44.8931 45.6713C44.8179 45.927 44.7966 46.1953 44.8304 46.4595V49.5677H43.7916ZM49.9422 49.5677V43.8919H50.8169V44.6758C51.0072 44.3976 51.2597 44.1664 51.5549 44.0001C51.8638 43.8308 52.2132 43.7467 52.5663 43.7568C52.9324 43.7388 53.2953 43.8331 53.605 44.027C53.8805 44.1923 54.0849 44.4521 54.1791 44.7568C54.363 44.4528 54.6231 44.2009 54.9344 44.0257C55.2458 43.8505 55.5976 43.7579 55.9558 43.7568C56.1946 43.7421 56.434 43.7752 56.6594 43.8541C56.8849 43.9331 57.0919 44.0563 57.2681 44.2162C57.5982 44.6197 57.7639 45.1307 57.7327 45.6487V49.5677H56.776V45.973C56.8173 45.7043 56.8173 45.431 56.776 45.1623C56.7243 44.9831 56.6075 44.829 56.448 44.7297C56.2603 44.6409 56.0547 44.5947 55.8466 44.5946C55.6589 44.5899 55.4722 44.6234 55.2982 44.6931C55.1241 44.7629 54.9665 44.8675 54.8352 45.0001C54.5473 45.3592 54.4102 45.814 54.4524 46.2703V49.5677H53.4684V45.946C53.4861 45.608 53.4105 45.2717 53.2497 44.973C53.1471 44.8697 53.0233 44.7896 52.8864 44.7383C52.7496 44.687 52.603 44.6657 52.457 44.6758C52.1854 44.6678 51.9178 44.7432 51.6915 44.8919C51.4649 45.0422 51.2926 45.26 51.1995 45.5136C51.0735 45.8972 51.0179 46.2999 51.0355 46.7028V49.6487L49.9422 49.5677ZM63.1179 47.7297H64.102C63.9714 48.2642 63.6634 48.7399 63.2272 49.081C62.744 49.4031 62.1694 49.5642 61.5871 49.5406C61.2202 49.5535 60.8542 49.493 60.5113 49.363C60.1685 49.2329 59.8557 49.036 59.5915 48.7838C59.067 48.1873 58.8019 47.4104 58.8536 46.6217C58.8076 45.8173 59.0712 45.0255 59.5915 44.4054C59.847 44.1549 60.1499 43.9568 60.483 43.8223C60.816 43.6878 61.1727 43.6196 61.5324 43.6217C61.8857 43.6072 62.238 43.67 62.564 43.8055C62.89 43.9409 63.1818 44.1457 63.4186 44.4054C63.9405 45.0033 64.2052 45.7792 64.1565 46.5676C64.1565 46.5676 64.1565 46.7298 64.1565 46.8379H59.8922C59.8957 47.3599 60.0789 47.865 60.4116 48.2703C60.5679 48.4281 60.7553 48.5527 60.9621 48.6363C61.169 48.72 61.3909 48.7609 61.6143 48.7567C61.9453 48.7666 62.2709 48.672 62.5438 48.4865C62.8206 48.2471 63.028 47.9393 63.1451 47.5946L63.1179 47.7297ZM59.9195 46.1622H63.1179C63.1062 45.7797 62.9722 45.4107 62.7352 45.1082C62.5938 44.9269 62.4112 44.7811 62.2023 44.6826C61.9934 44.584 61.7639 44.5352 61.5324 44.5405C61.324 44.5391 61.1174 44.5791 60.9249 44.658C60.7324 44.7369 60.5578 44.8533 60.4116 45.0001C60.1033 45.311 59.9272 45.7269 59.9195 46.1622ZM65.3867 49.5677V43.8919H66.2614V44.7027C66.4546 44.3988 66.7261 44.1511 67.0479 43.9849C67.3697 43.8187 67.7302 43.74 68.0928 43.7568C68.422 43.7487 68.749 43.8134 69.0497 43.946C69.3098 44.0449 69.5369 44.2133 69.7057 44.4325C69.8546 44.6433 69.957 44.8828 70.0064 45.1352C70.0298 45.4501 70.0298 45.7662 70.0064 46.0811V49.5677H69.0223V46.1081C69.0723 45.8129 69.0723 45.5114 69.0223 45.2162C68.941 45.0223 68.7967 44.8607 68.6122 44.7568C68.4031 44.6436 68.1672 44.5876 67.9288 44.5946C67.5393 44.5916 67.1615 44.7258 66.8629 44.973C66.691 45.178 66.5634 45.4156 66.4882 45.6713C66.4129 45.927 66.3916 46.1953 66.4254 46.4595V49.5677H65.3867ZM73.5873 48.7028L73.724 49.5406H72.986C72.7032 49.5563 72.421 49.5005 72.166 49.3785C71.9835 49.2848 71.8387 49.1321 71.7559 48.9459C71.6917 48.5702 71.6917 48.1866 71.7559 47.8109V44.5405H71.0451V43.8109H71.7559V42.4054L72.7126 41.8108V43.8109H73.6968V44.5405H72.7126V47.865C72.6882 48.0443 72.6882 48.226 72.7126 48.4054C72.742 48.4861 72.8004 48.5534 72.8766 48.5946H73.2048L73.5873 48.7028ZM77.2504 46.7297C77.218 46.2988 77.2792 45.8659 77.4301 45.4603C77.5809 45.0548 77.818 44.6859 78.1251 44.3784C78.6385 43.9571 79.2898 43.7361 79.9566 43.7568C80.3113 43.7439 80.6648 43.8045 80.9943 43.9348C81.3239 44.0651 81.6223 44.2622 81.8701 44.5135C82.1378 44.7992 82.3436 45.136 82.4752 45.5031C82.6068 45.8702 82.6613 46.2601 82.6354 46.6487C82.6649 47.234 82.5525 47.8178 82.3074 48.3514C82.0987 48.7754 81.7522 49.118 81.3233 49.3244C80.9067 49.5578 80.4354 49.679 79.9566 49.6757C79.593 49.6946 79.2296 49.6369 78.8903 49.5065C78.551 49.376 78.2436 49.1757 77.9885 48.9189C77.4624 48.3127 77.1974 47.5268 77.2504 46.7297ZM78.2618 46.7297C78.2113 47.3082 78.3765 47.8851 78.7264 48.3514C78.8802 48.5195 79.068 48.6539 79.2775 48.7458C79.487 48.8378 79.7137 48.8852 79.9429 48.8852C80.1721 48.8852 80.3989 48.8378 80.6084 48.7458C80.8179 48.6539 81.0056 48.5195 81.1593 48.3514C81.4966 47.8587 81.6599 47.2697 81.624 46.6758C81.6584 46.1073 81.4944 45.5443 81.1593 45.0811C81.0056 44.913 80.8179 44.7786 80.6084 44.6867C80.3989 44.5947 80.1721 44.5473 79.9429 44.5473C79.7137 44.5473 79.487 44.5947 79.2775 44.6867C79.068 44.7786 78.8802 44.913 78.7264 45.0811C78.3769 45.5579 78.2121 46.1429 78.2618 46.7297ZM84.0022 49.4324V44.4866H83.1548V43.7568H84.0022V43.1352C83.949 42.8584 83.949 42.5742 84.0022 42.2974C84.0898 42.0408 84.2634 41.8214 84.4942 41.6757C84.7972 41.5192 85.1368 41.4447 85.4784 41.4596H86.3804V42.3243H85.8064C85.5808 42.312 85.358 42.379 85.1776 42.5135C85.0394 42.7214 84.9724 42.9678 84.9864 43.2162V43.7568H86.1071V44.4866H84.9864V49.4324H84.0022ZM90.2348 49.4324V41.5947H91.2735V49.4324H90.2348ZM92.9683 49.4324V43.7568H93.8431V44.5676C94.0363 44.2637 94.3076 44.016 94.6294 43.8498C94.9512 43.6836 95.3119 43.6049 95.6745 43.6217C96.0037 43.6136 96.3305 43.6783 96.6312 43.8109C96.8913 43.9098 97.1185 44.0782 97.2874 44.2974C97.4362 44.5082 97.5386 44.7476 97.5881 45.0001C97.6114 45.315 97.6114 45.6311 97.5881 45.946V49.4324H96.604V45.973C96.654 45.6778 96.654 45.3763 96.604 45.0811C96.5227 44.8872 96.3784 44.7256 96.1939 44.6217C95.9848 44.5085 95.7489 44.4525 95.5105 44.4595C95.121 44.4565 94.743 44.5906 94.4444 44.8379C94.2725 45.0429 94.1451 45.2805 94.0698 45.5362C93.9946 45.7919 93.9733 46.0602 94.0071 46.3244V49.4324H92.9683ZM102.864 49.4324V48.7028C102.694 48.9714 102.456 49.1905 102.172 49.3377C101.889 49.485 101.571 49.555 101.251 49.5406C100.806 49.5496 100.368 49.4272 99.9936 49.1893C99.6057 48.9211 99.2948 48.5578 99.0915 48.1352C98.8675 47.6522 98.7554 47.1259 98.7635 46.5946C98.7598 46.0665 98.862 45.5429 99.0641 45.054C99.2348 44.6202 99.5292 44.2448 99.9115 43.9731C100.296 43.7344 100.743 43.6122 101.196 43.6217C101.519 43.6194 101.838 43.6934 102.126 43.8378C102.391 43.9661 102.618 44.1621 102.782 44.4054V41.7027H103.875V49.5406L102.864 49.4324ZM99.7749 46.7297C99.7318 47.3075 99.8963 47.8819 100.24 48.3514C100.37 48.5163 100.535 48.6504 100.725 48.7439C100.914 48.8374 101.122 48.888 101.333 48.892C101.543 48.8952 101.751 48.8504 101.94 48.7614C102.13 48.6723 102.296 48.5414 102.426 48.3785C102.756 47.924 102.911 47.3682 102.864 46.8109C102.927 46.206 102.762 45.5994 102.399 45.1082C102.278 44.9321 102.115 44.7881 101.924 44.6892C101.733 44.5902 101.521 44.5391 101.306 44.5405C101.094 44.5426 100.885 44.5924 100.696 44.686C100.506 44.7797 100.341 44.9148 100.212 45.0811C99.8766 45.5635 99.722 46.1466 99.7749 46.7297ZM105.242 42.8378V41.7298H106.199V42.8378H105.242ZM105.242 49.5677V43.8919H106.199V49.5677H105.242ZM111.447 48.8649C111.133 49.1351 110.772 49.3458 110.381 49.4865C110.042 49.6193 109.68 49.6836 109.315 49.6757C109.055 49.698 108.793 49.6688 108.544 49.5899C108.295 49.5111 108.065 49.3841 107.866 49.2163C107.703 49.07 107.575 48.8901 107.49 48.6893C107.405 48.4884 107.365 48.2717 107.374 48.0542C107.373 47.7932 107.429 47.535 107.538 47.2973C107.667 47.0803 107.845 46.8954 108.058 46.7568C108.256 46.5956 108.49 46.4843 108.741 46.4324C109.027 46.3591 109.32 46.3139 109.616 46.2973C110.209 46.2346 110.794 46.1169 111.365 45.946C111.386 45.6424 111.288 45.3426 111.092 45.1082C110.768 44.9231 110.4 44.8257 110.026 44.8257C109.651 44.8257 109.284 44.9231 108.96 45.1082C108.704 45.3239 108.53 45.6195 108.468 45.946H107.538C107.609 45.5982 107.748 45.2676 107.948 44.973C108.18 44.7061 108.483 44.5093 108.823 44.4054C109.635 44.1719 110.498 44.1719 111.31 44.4054C111.568 44.4972 111.802 44.6451 111.994 44.8379C112.137 45.0319 112.24 45.2525 112.295 45.4866C112.318 45.7834 112.318 46.0815 112.295 46.3783V47.6758C112.252 48.2335 112.252 48.7936 112.295 49.3514C112.322 49.6009 112.406 49.8411 112.541 50.0541H111.529C111.421 49.8341 111.356 49.5956 111.338 49.3514L111.447 48.8649ZM111.447 46.7028C110.936 46.8923 110.404 47.0193 109.862 47.0811C109.563 47.1074 109.269 47.171 108.987 47.2703C108.832 47.3288 108.698 47.4324 108.604 47.5675C108.518 47.7061 108.471 47.8647 108.468 48.0271C108.464 48.1507 108.49 48.2735 108.542 48.3859C108.594 48.4983 108.671 48.5975 108.768 48.6757C109.019 48.8647 109.328 48.9603 109.643 48.9459C109.991 48.9563 110.334 48.8621 110.627 48.6757C110.908 48.5318 111.138 48.3052 111.283 48.0271C111.409 47.7186 111.465 47.3863 111.447 47.054V46.7028ZM117.16 49.5677V41.7298H122.873V42.6488H118.199V45.054H122.573V45.973H118.199V48.6757H123.01V49.6216L117.16 49.5677ZM124.377 49.5677V43.8919H125.252V44.7027C125.445 44.3988 125.716 44.1511 126.038 43.9849C126.36 43.8187 126.72 43.74 127.083 43.7568C127.413 43.7459 127.74 43.8107 128.04 43.946C128.308 44.0292 128.54 44.2009 128.696 44.4325C128.845 44.6433 128.947 44.8828 128.997 45.1352C129.02 45.4501 129.02 45.7662 128.997 46.0811V49.5677H128.013V46.1081C128.063 45.8129 128.063 45.5114 128.013 45.2162C127.951 45.0193 127.814 44.8542 127.63 44.7568C127.419 44.6491 127.184 44.5935 126.946 44.5946C126.556 44.5867 126.176 44.7214 125.88 44.973C125.698 45.1721 125.561 45.4084 125.481 45.6652C125.401 45.9221 125.378 46.1932 125.416 46.4595V49.5677H124.377ZM132.578 48.7028L132.714 49.5406H132.003C131.721 49.5563 131.438 49.5005 131.183 49.3785C131.087 49.3403 131.001 49.2818 130.93 49.2071C130.859 49.1324 130.806 49.0432 130.773 48.9459C130.659 48.5788 130.613 48.1943 130.637 47.8109V44.5405H129.926V43.8109H130.637V42.4054L131.621 41.8108V43.8109H132.578V44.5405H131.621V47.865C131.601 48.0446 131.601 48.2257 131.621 48.4054L131.812 48.5946C131.92 48.6172 132.032 48.6172 132.14 48.5946L132.578 48.7028ZM137.471 47.7297H138.482C138.342 48.267 138.025 48.7427 137.58 49.081C137.097 49.4031 136.522 49.5642 135.94 49.5406C135.573 49.5535 135.207 49.493 134.864 49.363C134.521 49.2329 134.208 49.036 133.944 48.7838C133.42 48.1873 133.155 47.4104 133.206 46.6217C133.168 45.8137 133.442 45.0215 133.972 44.4054C134.216 44.1479 134.513 43.9449 134.843 43.8098C135.173 43.6746 135.528 43.6105 135.885 43.6217C136.239 43.6072 136.591 43.67 136.917 43.8055C137.243 43.9409 137.535 44.1457 137.771 44.4054C138.293 45.0033 138.558 45.7792 138.509 46.5676V46.8379H134.218C134.217 47.3653 134.412 47.8747 134.764 48.2703C134.918 48.4322 135.105 48.5594 135.312 48.6434C135.52 48.7274 135.743 48.766 135.967 48.7567C136.29 48.7707 136.608 48.6754 136.869 48.4865C137.146 48.2471 137.353 47.9393 137.471 47.5946V47.7297ZM134.272 46.1622H137.471C137.467 45.7828 137.342 45.414 137.115 45.1082C136.974 44.9269 136.791 44.7811 136.582 44.6826C136.373 44.584 136.144 44.5352 135.912 44.5405C135.704 44.5359 135.496 44.5744 135.303 44.6535C135.11 44.7326 134.936 44.8507 134.792 45.0001C134.63 45.1493 134.501 45.3291 134.412 45.5288C134.323 45.7285 134.275 45.9439 134.272 46.1622ZM139.739 49.5677V43.8919H140.614V44.7297C140.769 44.4299 140.983 44.1635 141.243 43.946C141.417 43.8194 141.628 43.7529 141.844 43.7568C142.202 43.767 142.551 43.8694 142.856 44.0541L142.528 44.946C142.311 44.8246 142.066 44.7595 141.817 44.7568C141.609 44.7479 141.404 44.8152 141.243 44.946C141.066 45.0752 140.933 45.2542 140.86 45.4595C140.817 45.8367 140.817 46.2174 140.86 46.5946V49.5677H139.739ZM143.43 51.7298V43.8919H144.332V44.6217C144.505 44.3455 144.75 44.1213 145.043 43.9731C145.338 43.8223 145.667 43.7478 145.999 43.7568C146.456 43.7538 146.903 43.8855 147.284 44.1352C147.672 44.3898 147.968 44.7585 148.132 45.1891C148.331 45.6599 148.433 46.1654 148.432 46.6758C148.44 47.2157 148.328 47.7506 148.104 48.2432C147.897 48.679 147.576 49.0523 147.175 49.3244C146.799 49.5594 146.362 49.6815 145.917 49.6757C145.614 49.6863 145.313 49.6213 145.043 49.4865C144.799 49.3613 144.584 49.1863 144.414 48.973V51.6757L143.43 51.7298ZM144.332 46.7568C144.283 47.3311 144.438 47.9044 144.769 48.3785C144.899 48.5414 145.066 48.6723 145.255 48.7614C145.445 48.8504 145.653 48.8952 145.863 48.892C146.074 48.888 146.282 48.8374 146.471 48.7439C146.66 48.6504 146.826 48.5163 146.956 48.3514C147.314 47.8685 147.48 47.2718 147.421 46.6758C147.469 46.1014 147.315 45.5281 146.983 45.054C146.858 44.8846 146.693 44.7473 146.503 44.6534C146.313 44.5594 146.103 44.5113 145.89 44.5135C145.676 44.5207 145.467 44.5755 145.278 44.6738C145.088 44.7721 144.924 44.9113 144.796 45.0811C144.447 45.5683 144.283 46.1616 144.332 46.7568ZM149.58 49.4595V43.7839H150.346V44.6217C150.501 44.3218 150.714 44.0553 150.974 43.8378C151.157 43.7073 151.378 43.6409 151.603 43.6488C151.952 43.6598 152.292 43.7624 152.587 43.946L152.259 44.8379C152.044 44.7131 151.798 44.6477 151.548 44.6487C151.34 44.6398 151.136 44.7072 150.974 44.8379C150.797 44.9614 150.671 45.1437 150.619 45.3515C150.507 45.7196 150.452 46.1022 150.455 46.4866V49.4595H149.58ZM153.298 42.7298V41.6217H154.255V42.7298H153.298ZM153.298 49.4595V43.7839H154.255V49.4595H153.298ZM155.348 47.7567L156.305 47.5946C156.346 47.9376 156.511 48.2543 156.769 48.4865C157.071 48.7009 157.438 48.8058 157.808 48.7838C158.159 48.8148 158.508 48.7188 158.792 48.5136C158.892 48.4423 158.974 48.349 159.031 48.2411C159.087 48.1332 159.118 48.0135 159.12 47.8918C159.123 47.7872 159.096 47.6839 159.043 47.5933C158.99 47.5026 158.913 47.4283 158.82 47.3785C158.517 47.2054 158.183 47.0949 157.836 47.054C157.33 46.9346 156.836 46.7718 156.36 46.5676C156.1 46.4668 155.88 46.2869 155.731 46.054C155.588 45.8168 155.513 45.5462 155.512 45.2703C155.507 45.0228 155.573 44.779 155.704 44.5676C155.82 44.358 155.978 44.1741 156.168 44.027C156.36 43.9007 156.573 43.8093 156.797 43.7568C157.069 43.716 157.345 43.716 157.617 43.7568C158.026 43.7451 158.434 43.8093 158.82 43.946C159.108 44.0481 159.363 44.2255 159.558 44.4595C159.739 44.7284 159.86 45.0326 159.913 45.3515H158.956C158.927 45.0767 158.79 44.8243 158.574 44.6487C158.318 44.4733 158.01 44.3876 157.699 44.4054C157.365 44.3826 157.033 44.4579 156.742 44.6217C156.657 44.6804 156.586 44.7568 156.534 44.8455C156.482 44.9342 156.451 45.0331 156.441 45.1352C156.404 45.2494 156.404 45.3724 156.441 45.4866C156.538 45.5949 156.66 45.6783 156.797 45.7297L157.672 45.973C158.355 46.1622 158.847 46.3243 159.12 46.4324C159.373 46.5319 159.591 46.7007 159.749 46.9189C159.916 47.1669 160.002 47.4592 159.995 47.7567C159.988 48.0856 159.884 48.4052 159.694 48.6757C159.485 48.9605 159.201 49.1844 158.874 49.3244C158.49 49.4685 158.083 49.5418 157.672 49.5406C157.062 49.5822 156.455 49.4203 155.949 49.081C155.542 48.7367 155.279 48.2551 155.212 47.7297L155.348 47.7567ZM165.189 47.7567H166.2C166.08 48.2956 165.77 48.7746 165.326 49.1081C164.842 49.4302 164.268 49.5913 163.685 49.5677C163.318 49.5805 162.953 49.52 162.61 49.39C162.267 49.26 161.954 49.063 161.69 48.8108C161.166 48.2144 160.9 47.4374 160.952 46.6487C160.906 45.8443 161.17 45.0525 161.69 44.4325C161.94 44.1743 162.241 43.971 162.576 43.836C162.91 43.7009 163.27 43.6372 163.631 43.6488C163.984 43.6343 164.336 43.6969 164.662 43.8324C164.988 43.9678 165.28 44.1728 165.517 44.4325C166.029 45.0345 166.284 45.81 166.228 46.5946V46.865H161.963C161.967 47.3869 162.15 47.892 162.483 48.2973C162.639 48.4551 162.826 48.5797 163.033 48.6634C163.24 48.747 163.462 48.788 163.685 48.7838C164.016 48.7936 164.342 48.699 164.615 48.5136C164.892 48.2794 165.092 47.9688 165.189 47.6216V47.7567ZM162.018 46.1893H165.216C165.205 45.8068 165.071 45.4377 164.834 45.1352C164.692 44.954 164.51 44.8082 164.301 44.7096C164.092 44.611 163.862 44.5623 163.631 44.5676C163.422 44.5662 163.216 44.6061 163.023 44.685C162.831 44.7639 162.656 44.8802 162.51 45.027C162.202 45.3379 162.026 45.754 162.018 46.1893ZM168.059 51.892H167.376C168.389 50.3634 168.948 48.584 168.989 46.7568C168.989 46.0827 168.907 45.411 168.742 44.7568C168.637 44.2268 168.472 43.7102 168.25 43.2162C167.991 42.6682 167.699 42.1359 167.376 41.6217H168.059C168.696 42.4422 169.203 43.3535 169.563 44.3244C169.847 45.1141 169.995 45.9455 170 46.7838C169.988 47.7131 169.793 48.6312 169.426 49.4865C169.081 50.3285 168.621 51.1196 168.059 51.8379V51.892Z" fill="#231F20"/>
</g>
<defs>
<clipPath id="clip0_4_1382">
<rect width="170" height="52" fill="white"/>
</clipPath>
</defs>
</svg>
