<svg width="188" height="36" viewBox="0 0 188 36" fill="none" xmlns="http://www.w3.org/2000/svg">
<g id="Deutsche Bank" clip-path="url(#clip0_4_1378)">
<path id="Vector" fill-rule="evenodd" clip-rule="evenodd" d="M153 0.929993H187.9V35.83H153V0.929993ZM157.88 5.73999V31H183V5.73999H157.88Z" fill="#353893"/>
<path id="Vector_2" fill-rule="evenodd" clip-rule="evenodd" d="M160.85 27.31L173.42 8.75999L180.23 8.62L167.24 27.31H160.85Z" fill="#353893"/>
<path id="Vector_3" fill-rule="evenodd" clip-rule="evenodd" d="M0.829987 35.62V21.47H6.88C7.75601 21.441 8.62512 21.6339 9.40662 22.0308C10.1881 22.4276 10.8566 23.0156 11.35 23.74C12.2916 25.1638 12.7701 26.8438 12.72 28.55C12.7688 30.2956 12.2377 32.0082 11.21 33.42C10.7218 34.1114 10.0722 34.6732 9.31763 35.0566C8.56305 35.44 7.72629 35.6334 6.88 35.62H0.829987ZM3.82999 24.01V33.08H6.57999C7.06775 33.0968 7.55057 32.9776 7.97443 32.7357C8.39828 32.4937 8.74648 32.1386 8.98001 31.71C9.48601 30.7365 9.72414 29.6459 9.67001 28.55C9.70906 27.5066 9.47098 26.4715 8.98001 25.55C8.78626 25.0751 8.45328 24.67 8.0249 24.388C7.59652 24.106 7.09277 23.9602 6.57999 23.97L3.82999 24.01ZM21.28 32.33H24C23.8968 32.8739 23.684 33.3911 23.3745 33.8501C23.0651 34.3091 22.6655 34.7003 22.2 35C21.2737 35.5727 20.1984 35.8581 19.11 35.82C18.4455 35.8354 17.7861 35.7014 17.1804 35.428C16.5746 35.1545 16.0379 34.7485 15.61 34.24C15.1171 33.7014 14.7353 33.0709 14.4865 32.3845C14.2377 31.6981 14.1267 30.9693 14.16 30.24C14.1293 28.8934 14.6242 27.5877 15.54 26.6C16.0004 26.1178 16.5546 25.735 17.1686 25.4753C17.7826 25.2156 18.4433 25.0845 19.11 25.09C19.947 25.0067 20.7901 25.1707 21.5349 25.5618C22.2796 25.9528 22.8933 26.5536 23.3 27.29C23.59 27.8298 23.7989 28.4093 23.92 29.01C24.0631 29.7109 24.1334 30.4247 24.13 31.14H17C17.0172 31.6892 17.21 32.2184 17.55 32.65C17.7322 32.8994 17.9696 33.1032 18.2437 33.2455C18.5179 33.3877 18.8212 33.4646 19.13 33.47C19.5795 33.461 20.0236 33.3695 20.44 33.2C20.6303 33.1157 20.8013 32.9932 20.9424 32.8401C21.0834 32.6871 21.1916 32.5066 21.26 32.31L21.28 32.33ZM17.02 29.33H21.28C21.2788 29.081 21.2226 28.8354 21.1154 28.6107C21.0082 28.3859 20.8527 28.1877 20.66 28.03C20.2542 27.6382 19.714 27.4164 19.15 27.41C18.88 27.4074 18.6126 27.4613 18.3646 27.5681C18.1166 27.6748 17.8937 27.8322 17.71 28.03C17.4969 28.1732 17.3224 28.3667 17.2021 28.5935C17.0817 28.8203 17.0191 29.0733 17.02 29.33ZM25.88 25.33H28.63V32.13C28.6522 32.5135 28.8247 32.8728 29.11 33.13C29.4416 33.3964 29.8546 33.5411 30.28 33.54C30.8029 33.5641 31.3162 33.3931 31.72 33.06C31.9092 32.8993 32.0622 32.7004 32.1691 32.4763C32.2759 32.2523 32.3342 32.0082 32.34 31.76V25.37H35V35.67H32.3V34.37C31.9422 34.8493 31.4752 35.2364 30.9378 35.499C30.4004 35.7616 29.808 35.8922 29.21 35.88C28.4016 35.8805 27.6114 35.6403 26.94 35.19C26.6056 34.9735 26.3302 34.6775 26.1382 34.3285C25.9463 33.9795 25.8438 33.5883 25.84 33.19V25.36L25.88 25.33ZM40.45 22.33V25.33H42V27.25H40.42V32.54C40.4412 32.7497 40.537 32.945 40.69 33.09C40.7743 33.1643 40.8726 33.221 40.979 33.2571C41.0854 33.2931 41.1979 33.3077 41.31 33.3H41.72C41.8051 33.2512 41.902 33.227 42 33.23V35.63C41.7076 35.7004 41.4099 35.7472 41.11 35.77C40.7472 35.8353 40.3781 35.8587 40.01 35.84C39.7014 35.8515 39.394 35.7957 39.1091 35.6766C38.8242 35.5574 38.5686 35.3778 38.36 35.15C38.1563 34.9561 37.9958 34.7213 37.8889 34.4611C37.7821 34.2009 37.7313 33.9212 37.74 33.64V27.25H36.37V25.33H37.74V23.95L40.42 22.37L40.45 22.33ZM43.2 32.09H45.95C45.9296 32.3163 45.9698 32.5439 46.0664 32.7495C46.1631 32.9551 46.3127 33.1314 46.5 33.26C46.8979 33.5461 47.3803 33.6905 47.87 33.67C48.2707 33.6871 48.6703 33.6154 49.04 33.46C49.2112 33.3851 49.3556 33.2598 49.4538 33.1008C49.5521 32.9418 49.5996 32.7567 49.59 32.57C49.59 32.02 49.11 31.57 48.01 31.33C46.9858 31.1219 45.982 30.8241 45.01 30.44C44.5452 30.3049 44.135 30.026 43.8386 29.6433C43.5421 29.2606 43.3746 28.7939 43.36 28.31C43.3604 27.856 43.4663 27.4082 43.6693 27.0021C43.8724 26.596 44.167 26.2427 44.53 25.97C45.3997 25.3408 46.4579 25.0269 47.53 25.08C48.5909 25.0471 49.6369 25.3364 50.53 25.91C50.9637 26.1903 51.3177 26.5779 51.5577 27.0352C51.7977 27.4924 51.9156 28.0038 51.9 28.52H49.36C49.3381 28.3176 49.271 28.1225 49.1637 27.9495C49.0564 27.7764 48.9116 27.6296 48.74 27.52C48.3651 27.2965 47.9365 27.1789 47.5 27.18C47.1495 27.1948 46.8072 27.2907 46.5 27.46C46.3722 27.5384 46.2671 27.6489 46.1952 27.7805C46.1233 27.912 46.087 28.0601 46.09 28.21C46.09 28.62 46.64 28.97 47.67 29.21C48.6933 29.3234 49.7 29.5549 50.67 29.9C51.1712 30.0839 51.6011 30.4221 51.8976 30.866C52.1942 31.3099 52.3421 31.8366 52.32 32.37C52.3475 32.8986 52.2262 33.4244 51.9699 33.8875C51.7136 34.3506 51.3325 34.7326 50.87 34.99C49.9753 35.5589 48.9297 35.8447 47.87 35.81C46.6659 35.8673 45.4779 35.5148 44.5 34.81C44.0687 34.5152 43.7219 34.1128 43.4939 33.6428C43.2659 33.1727 43.1646 32.6512 43.2 32.13V32.09ZM58.73 35.8C58.0547 35.8099 57.3852 35.6739 56.7673 35.4012C56.1495 35.1285 55.5978 34.7256 55.15 34.22C54.2123 33.1031 53.7239 31.6772 53.78 30.22C53.7686 28.8656 54.2851 27.56 55.22 26.58C56.0879 25.6777 57.2673 25.1401 58.5177 25.077C59.7681 25.0138 60.9956 25.4297 61.95 26.24C62.4009 26.542 62.7696 26.9516 63.0227 27.4316C63.2758 27.9117 63.4055 28.4473 63.4 28.99H60.65C60.6528 28.776 60.6043 28.5645 60.5086 28.3732C60.4129 28.1818 60.2728 28.0161 60.1 27.89C59.7196 27.5641 59.2307 27.3927 58.73 27.41C58.4174 27.402 58.1078 27.4729 57.8299 27.6163C57.552 27.7596 57.3148 27.9707 57.14 28.23C56.7559 28.8244 56.5638 29.5227 56.59 30.23C56.5688 31.0443 56.7582 31.8504 57.14 32.57C57.3106 32.8384 57.5452 33.0603 57.8227 33.2156C58.1002 33.371 58.412 33.455 58.73 33.46C58.9723 33.459 59.212 33.4098 59.4352 33.3154C59.6583 33.221 59.8605 33.0832 60.03 32.91C60.2186 32.7803 60.3734 32.6074 60.4813 32.4055C60.5892 32.2037 60.647 31.9789 60.65 31.75H63.4C63.4146 32.3294 63.2906 32.9039 63.0384 33.4257C62.7862 33.9475 62.4131 34.4015 61.95 34.75C61.025 35.4573 59.8945 35.8435 58.73 35.85V35.8ZM65.18 21.44H67.93V26.39C68.2812 25.9277 68.7614 25.5798 69.31 25.39C69.8895 25.2233 70.4874 25.1292 71.09 25.11C71.9651 25.1001 72.8166 25.3934 73.5 25.94C73.8212 26.1766 74.0801 26.4877 74.2543 26.8466C74.4285 27.2054 74.5128 27.6013 74.5 28V35.62H71.82V29.16C71.825 28.9334 71.7851 28.7082 71.7027 28.4971C71.6203 28.286 71.4971 28.0933 71.34 27.93C71.1818 27.7877 70.9968 27.6782 70.796 27.6078C70.5952 27.5375 70.3824 27.5076 70.17 27.52C69.6053 27.5055 69.0512 27.6739 68.59 28C68.3822 28.1485 68.2118 28.3432 68.092 28.5688C67.9723 28.7944 67.9066 29.0447 67.9 29.3V35.62H65.15V21.47L65.18 21.44ZM83.39 32.3H86C85.9038 32.8464 85.695 33.3669 85.3868 33.8282C85.0787 34.2896 84.6779 34.6818 84.21 34.98C83.3114 35.54 82.2686 35.825 81.21 35.8C80.5363 35.8091 79.8685 35.6727 79.2524 35.4C78.6362 35.1273 78.0863 34.7248 77.64 34.22C76.6698 33.1212 76.1737 31.6832 76.26 30.22C76.2309 29.5513 76.3382 28.8838 76.5755 28.258C76.8128 27.6322 77.175 27.0613 77.64 26.58C78.0959 26.092 78.6493 25.7053 79.2643 25.4451C79.8794 25.185 80.5423 25.0572 81.21 25.07C82.0366 24.9943 82.8671 25.1623 83.5993 25.5533C84.3315 25.9442 84.9331 26.5411 85.33 27.27C85.6666 27.7962 85.8943 28.3844 86 29C86.1189 29.7034 86.1658 30.4171 86.14 31.13H79C79.0113 31.693 79.2324 32.2315 79.62 32.64C79.797 32.8947 80.0334 33.1024 80.3087 33.2453C80.5839 33.3882 80.8899 33.4619 81.2 33.46C81.6487 33.4442 82.0916 33.3529 82.51 33.19C82.8629 32.978 83.1475 32.669 83.33 32.3H83.39ZM79.06 29.3H83.39C83.3777 29.0459 83.3094 28.7976 83.1901 28.5729C83.0709 28.3482 82.9035 28.1526 82.7 28C82.5163 27.8022 82.2934 27.6448 82.0454 27.5381C81.7975 27.4313 81.53 27.3775 81.26 27.38C80.9796 27.3768 80.7014 27.43 80.442 27.5365C80.1825 27.643 79.9472 27.8006 79.75 28C79.5485 28.1545 79.3825 28.3506 79.2635 28.5749C79.1444 28.7992 79.075 29.0465 79.06 29.3ZM93.06 35.55V21.47H100.27C100.759 21.4516 101.246 21.5405 101.697 21.7306C102.148 21.9206 102.552 22.2072 102.88 22.57C103.468 23.1338 103.859 23.8715 103.996 24.6746C104.133 25.4776 104.008 26.3033 103.64 27.03C103.309 27.5643 102.835 27.9942 102.27 28.27C102.934 28.5675 103.52 29.0161 103.98 29.58C104.382 30.1396 104.599 30.811 104.6 31.5C104.612 32.0361 104.515 32.569 104.314 33.066C104.113 33.563 103.812 34.0136 103.43 34.39C103.103 34.782 102.693 35.0958 102.229 35.3087C101.766 35.5215 101.26 35.6279 100.75 35.62L93.06 35.55ZM95.85 24V27H99.36C99.8087 27.0133 100.248 26.8682 100.6 26.59C100.752 26.472 100.875 26.3202 100.958 26.1467C101.041 25.9731 101.083 25.7825 101.08 25.59C101.088 25.3721 101.049 25.1549 100.967 24.9531C100.884 24.7513 100.759 24.5695 100.6 24.42C100.272 24.1475 99.8565 24.0021 99.43 24.01L95.85 24ZM95.85 29.57V33.07H99.57C99.8245 33.0823 100.079 33.0396 100.315 32.9446C100.552 32.8497 100.765 32.7049 100.94 32.52C101.113 32.3643 101.252 32.1739 101.347 31.9611C101.442 31.7483 101.491 31.518 101.491 31.285C101.491 31.052 101.442 30.8217 101.347 30.6089C101.252 30.3961 101.113 30.2057 100.94 30.05C100.56 29.7241 100.071 29.5528 99.57 29.57H95.85ZM109.32 28.4H106.57C106.56 27.8933 106.682 27.3926 106.924 26.9473C107.166 26.5019 107.519 26.1272 107.95 25.86C108.846 25.3432 109.866 25.0805 110.9 25.1C112.118 25.0276 113.331 25.2905 114.41 25.86C114.71 26.0519 114.958 26.3146 115.132 26.6251C115.307 26.9355 115.402 27.284 115.41 27.64V34C115.402 34.6084 115.623 35.1975 116.03 35.65H113.21C113.066 35.4873 112.951 35.3013 112.87 35.1C112.875 34.9656 112.849 34.8318 112.793 34.7095C112.737 34.5871 112.654 34.4796 112.549 34.3954C112.444 34.3113 112.32 34.253 112.189 34.2251C112.057 34.1972 111.921 34.2006 111.791 34.2349C111.661 34.2693 111.541 34.3336 111.44 34.4229C111.34 34.5121 111.261 34.6237 111.212 34.7487C111.162 34.8736 111.142 35.0085 111.154 35.1425C111.166 35.2764 111.209 35.4058 111.28 35.52C110.692 35.755 110.063 35.8706 109.43 35.86C109.015 35.8693 108.602 35.7968 108.215 35.6465C107.828 35.4962 107.475 35.2711 107.175 34.9842C106.875 34.6972 106.634 34.354 106.467 33.9741C106.3 33.5941 106.209 33.185 106.2 32.77C106.172 31.9813 106.449 31.2121 106.975 30.6233C107.5 30.0344 108.233 29.6714 109.02 29.61C110.6 29.33 111.35 29.19 111.42 29.19C112.25 28.99 112.66 28.71 112.66 28.44C112.683 28.2601 112.649 28.0777 112.563 27.9181C112.477 27.7585 112.343 27.6298 112.18 27.55C111.807 27.3283 111.373 27.2303 110.94 27.27C110.535 27.2811 110.136 27.3765 109.77 27.55C109.631 27.6507 109.52 27.7855 109.449 27.9413C109.377 28.0972 109.346 28.2689 109.36 28.44L109.32 28.4ZM112.62 32.11V30.53C111.902 30.653 111.191 30.8132 110.49 31.01C109.49 31.28 108.98 31.77 108.98 32.38C108.98 32.99 109.05 33.14 109.32 33.38C109.648 33.586 110.034 33.6807 110.42 33.65C110.907 33.6497 111.383 33.5071 111.79 33.24C111.997 33.1242 112.178 32.9667 112.321 32.7773C112.464 32.5879 112.566 32.3709 112.62 32.14V32.11ZM117.77 25.31H120.52V26.48C120.881 26.0576 121.327 25.7167 121.83 25.48C122.359 25.2829 122.916 25.1683 123.48 25.14C124.329 25.1401 125.161 25.3792 125.88 25.83C126.212 26.0633 126.484 26.3712 126.675 26.729C126.866 27.0868 126.971 27.4845 126.98 27.89V35.65H124.23V28.85C124.247 28.6626 124.219 28.4739 124.147 28.2998C124.076 28.1257 123.964 27.9714 123.82 27.85C123.509 27.6032 123.116 27.4819 122.72 27.51C122.267 27.4768 121.813 27.5703 121.41 27.78C121.052 28.0535 120.75 28.393 120.52 28.78V35.58H117.77V25.28V25.31ZM129.18 21.46H131.93V29L135.09 25.29H138.38L135 29.23L138.71 35.62H135.5L133.16 31.23L131.93 32.53V35.62H129.18V21.47V21.46Z" fill="#353893"/>
</g>
<defs>
<clipPath id="clip0_4_1378">
<rect width="188" height="36" fill="white"/>
</clipPath>
</defs>
</svg>
