<svg width="123" height="24" viewBox="0 0 123 24" fill="none" xmlns="http://www.w3.org/2000/svg">
<path fill-rule="evenodd" clip-rule="evenodd" d="M103.342 18.251L112.451 5.75592H116.757L107.647 18.251H103.342ZM98.0643 0H122.034V23.9963H98.0643V0ZM101.418 3.35895V20.632H118.659V3.35895H101.418Z" fill="#000088"/>
<path fill-rule="evenodd" clip-rule="evenodd" d="M5.30522 15.3289L4.84816 15.06L4.35175 14.8846L3.81709 14.7671L3.30261 14.7204H1.25907V22.7946H2.99648L3.76022 22.7367L4.39002 22.6192L4.96242 22.4087L5.44022 22.1281L5.8399 21.7651L6.14602 21.2852L6.37509 20.7702L6.54622 20.1739L6.64242 19.4952L6.68016 18.7224L6.64242 18.091L6.54622 17.4474L6.37509 16.8388L6.14602 16.2771L5.76336 15.7626L5.30522 15.3289ZM3.96908 23.7661L3.13042 23.8246H0V13.7026H2.84342L3.51202 13.7377L4.23748 13.7956L4.90502 13.9364L5.55448 14.124L6.20342 14.4637L6.69982 14.908L7.1383 15.3874L7.48163 15.9725L7.73089 16.5816L7.88395 17.2598L7.99824 17.9852L8.01631 18.7224L7.99824 19.5297L7.86483 20.2908L7.67297 20.9812L7.4067 21.6243L7.02457 22.1866L6.60416 22.6543L6.0695 23.0752L5.4785 23.4026L4.75302 23.637L3.96908 23.7661Z" fill="#000088"/>
<path fill-rule="evenodd" clip-rule="evenodd" d="M12.1204 17.5058L11.6203 17.5643L11.1972 17.7748L10.8326 18.0203L10.5637 18.3716L10.3527 18.7926L10.2187 19.2369L10.1422 19.729H13.9237L13.8849 19.2491L13.7887 18.7926L13.6176 18.3716L13.3476 18.032L13.0223 17.7742L12.6184 17.5638L12.1204 17.5058ZM10.1236 20.5597V20.7L10.1427 21.1683L10.257 21.6014L10.4111 22.0224L10.6216 22.4199L10.9288 22.7244L11.2748 22.97L11.6771 23.1098L12.157 23.1688L12.6184 23.1098L13.0223 22.97L13.3476 22.7473L13.6176 22.4199L13.8094 22.0224L13.9237 21.5658H15.0573L14.8846 22.2328L14.6162 22.7829L14.2319 23.2161L13.8094 23.5668L13.2902 23.8124L12.6949 23.9415L12.0608 23.9995L11.3885 23.9415L10.8124 23.7773L10.2947 23.5195L9.87328 23.2033L9.5257 22.7824L9.25837 22.2913L9.06649 21.7173L8.9315 21.0971L8.8927 20.4306L8.9315 19.763L9.06649 19.1199L9.25837 18.5226L9.5257 18.0193L9.89135 17.5632L10.3325 17.1769L10.8709 16.8957L11.4661 16.7437L12.1565 16.6852L12.8097 16.7437L13.347 16.8729L13.8089 17.1184L14.1926 17.4692L14.4807 17.8433L14.7299 18.3233L14.9218 18.8143L15.018 19.365L15.0759 19.9501L15.0956 20.5587H10.1236V20.5597Z" fill="#000088"/>
<path fill-rule="evenodd" clip-rule="evenodd" d="M21.0142 23.848L20.9754 22.7478L20.6119 23.181L20.2505 23.5206L19.8115 23.7311L19.3364 23.8831L18.765 23.9421L18.1549 23.8831L17.6404 23.7311L17.22 23.5206L16.8979 23.2161L16.6306 22.818L16.4775 22.3386L16.3627 21.7885L16.3245 21.18V16.8032H17.5442V21.1093L17.5639 21.4845L17.6197 21.8475L17.7345 22.151L17.8689 22.4321L18.0406 22.6894L18.3079 22.8536L18.6694 22.9705L19.0898 22.9934L19.6026 22.9354L20.0023 22.7946L20.326 22.549L20.5566 22.245L20.7469 21.882L20.8803 21.4728L20.9361 20.9923L20.9754 20.5129V16.8032H22.1373V22.034L22.175 23.848H21.0142Z" fill="#000088"/>
<path fill-rule="evenodd" clip-rule="evenodd" d="M26.0447 23.9421L25.5499 23.9065L25.1486 23.7662L24.8255 23.544L24.5773 23.24L24.4433 22.818L24.387 22.3035V17.6579H23.053V16.8033H24.387V15.4225L25.5679 14.9308V16.8033H27.0912V17.6579H25.5679V22.151L25.6259 22.455L25.7013 22.6894L25.8921 22.8536L26.1393 22.9355L26.5018 22.9705L27.1486 22.9121V23.848L26.598 23.9065L26.0447 23.9421Z" fill="#000088"/>
<path fill-rule="evenodd" clip-rule="evenodd" d="M30.4554 24L29.9186 23.9766L29.4408 23.883L28.98 23.7193L28.5777 23.4733L28.2524 23.1693L28.0031 22.7829L27.8501 22.2918L27.7932 21.7066H28.98L29.0188 22.1398L29.1915 22.5022L29.402 22.7829L29.7081 22.9705L30.0717 23.1108L30.5128 23.1459L30.8769 23.1108L31.242 23.0289L31.5672 22.8647L31.7974 22.6075L31.9892 22.3263L32.0466 21.9522L31.9892 21.6476L31.875 21.3553L31.6624 21.1682L31.4142 20.9923L30.9731 20.8403L30.4751 20.6883L30.0143 20.5831L29.6513 20.4895L29.2681 20.3375L28.9231 20.185L28.6154 19.9745L28.3486 19.729L28.1562 19.4601L28.0212 19.0971L27.9851 18.6405L28.0212 18.1494L28.2136 17.7163L28.4825 17.3655L28.8078 17.1077L29.2112 16.8739L29.6513 16.7447L30.1105 16.6512L30.5707 16.6278L31.0693 16.6512L31.53 16.7447L31.9324 16.8967L32.314 17.1077L32.6015 17.4117L32.8508 17.763L33.0038 18.2196L33.0623 18.758H31.875L31.7974 18.3248L31.6443 17.9618L31.3382 17.7163L30.9927 17.5409L30.5325 17.4819L30.2067 17.5058L29.8819 17.5988L29.5939 17.7163L29.3451 17.9034L29.1915 18.184L29.1347 18.5119L29.1915 18.8159L29.2877 19.0381L29.4796 19.2257L29.7469 19.4011L30.2454 19.5887L30.7047 19.7056L31.1846 19.8342L31.5672 19.9511L31.9324 20.092L32.2746 20.244L32.5824 20.4428L32.8508 20.6883L33.0432 20.9812L33.1766 21.3553L33.235 21.8119L33.1766 22.3035L33.0432 22.7249L32.7939 23.0874L32.525 23.3569L32.1806 23.6253L31.7793 23.7778L31.3382 23.9298L30.9162 23.9766L30.4554 24Z" fill="#000088"/>
<path fill-rule="evenodd" clip-rule="evenodd" d="M37.3535 24L36.6838 23.9421L36.0689 23.7662L35.5512 23.5206L35.0904 23.2044L34.7253 22.7829L34.4186 22.2801L34.206 21.695L34.0918 21.0864L34.053 20.3844L34.0918 19.6934L34.206 19.027L34.4186 18.4418L34.7253 17.9034L35.0904 17.4469L35.5512 17.0844L36.0886 16.8032L36.7226 16.6279L37.4114 16.5694L37.9854 16.6039L38.4882 16.7214L38.9442 16.909L39.3306 17.1779L39.6824 17.5176L39.9513 17.9619L40.1273 18.4763L40.2197 19.0503H39.0266L38.9442 18.5704L38.8161 18.184L38.5817 17.88L38.2538 17.6579L37.8791 17.5176L37.4114 17.4703L36.915 17.5176L36.4919 17.6579L36.1465 17.88L35.8574 18.184L35.6278 18.547L35.4747 18.9685L35.3594 19.39L35.3206 19.8688L35.2823 20.3254L35.3206 20.7824L35.3594 21.2156L35.4933 21.6599L35.6666 22.0575L35.877 22.4205L36.1465 22.6894L36.4919 22.9471L36.915 23.0875L37.3535 23.1459L37.8222 23.0875L38.2198 22.9121L38.5817 22.6894L38.8161 22.362L38.992 21.9405L39.0622 21.4611H40.2564L40.1384 22.0575L39.9513 22.5958L39.6824 23.029L39.3306 23.3569L38.933 23.6375L38.4526 23.8246L37.9269 23.9766L37.3535 24Z" fill="#000088"/>
<path fill-rule="evenodd" clip-rule="evenodd" d="M46.059 23.8246V19.5069L46.0133 19.1322L45.9655 18.7692L45.8603 18.4529L45.7327 18.1728L45.5223 17.9268L45.2411 17.7514L44.8893 17.6345L44.48 17.6222L43.9772 17.669L43.6137 17.8098L43.2518 18.0554L43.0285 18.3594L42.8298 18.7692L42.7017 19.1789L42.631 19.6233L42.5842 20.1032V23.8246H41.4261V13.7026H42.5842V17.8678L42.9462 17.4235L43.3097 17.0844L43.754 16.85L44.2456 16.7214L44.7952 16.6629L45.4043 16.7214L45.9198 16.85L46.3402 17.0844L46.6798 17.3884L46.9365 17.7865L47.0896 18.243L47.1953 18.8159L47.2177 19.4367V23.8246H46.059Z" fill="#000088"/>
<path fill-rule="evenodd" clip-rule="evenodd" d="M51.689 17.5058L51.1974 17.5643L50.7754 17.7748L50.4358 18.0203L50.1791 18.3716L49.9452 18.7926L49.8172 19.2369L49.7348 19.729H53.479L53.4328 19.2491L53.3393 18.7926L53.1745 18.3716L52.9056 18.032L52.5777 17.7742L52.1801 17.5638L51.689 17.5058ZM49.7226 20.5597V20.7L49.7337 21.1683L49.8506 21.6014L50.0037 22.0224L50.2142 22.4199L50.5182 22.7244L50.8578 22.97L51.2553 23.1098L51.723 23.1688L52.1796 23.1098L52.5771 22.97L52.9051 22.7473L53.174 22.4199L53.3616 22.0224L53.4785 21.5658H54.5914L54.4267 22.2328L54.1567 22.7829L53.7942 23.2161L53.3616 23.5668L52.8471 23.8124L52.2737 23.9415L51.629 23.9995L50.9742 23.9415L50.4018 23.7773L49.9107 23.5195L49.4765 23.2033L49.1268 22.7824L48.8685 22.2913L48.6809 21.7173L48.5416 21.0971L48.5049 20.4306L48.5416 19.763L48.6809 19.1199L48.8685 18.5226L49.1268 18.0193L49.4892 17.5632L49.9341 17.1769L50.4592 16.8957L51.0449 16.7437L51.7236 16.6852L52.3789 16.7437L52.9056 16.8729L53.3616 17.1184L53.7363 17.4692L54.0291 17.8433L54.2747 18.3233L54.4623 18.8143L54.5553 19.365L54.6143 19.9501L54.6483 20.5587H49.7226V20.5597Z" fill="#000088"/>
<path fill-rule="evenodd" clip-rule="evenodd" d="M62.4775 19.0849H60.4058V22.7941H62.4536L62.8527 22.7712L63.2391 22.7127L63.5899 22.6187L63.9295 22.5251L64.1979 22.3497L64.4451 22.1042L64.6438 21.8002L64.7379 21.4372L64.7948 20.9573L64.7379 20.4657L64.6087 20.0447L64.3861 19.6934L64.1288 19.4479L63.7781 19.2836L63.3805 19.1784L62.9346 19.1316L62.4775 19.0849ZM62.4775 14.7321H60.4058V18.1133H62.2787L62.6885 18.0905L63.1089 18.0315L63.4485 17.9262L63.7764 17.7269L64.0092 17.5053L64.2325 17.2008L64.3382 16.791L64.3845 16.3578L64.3382 15.9135L64.1963 15.516L63.9635 15.2471L63.6601 15.0249L63.3188 14.849L62.9096 14.7671L62.4775 14.7321ZM62.4531 23.8246H59.1542V13.7026H62.6067L63.1206 13.7377L63.6005 13.819L64.1033 13.971L64.5248 14.1586L64.9117 14.4275L65.2508 14.7671L65.5091 15.1881L65.66 15.668L65.719 16.2415L65.66 16.8383L65.5091 17.3294L65.2391 17.7509L64.8527 18.0905L64.4084 18.3477L63.87 18.5353L64.4084 18.6639L64.9112 18.8627L65.3326 19.1439L65.6595 19.4946L65.9061 19.8927L66.057 20.4194L66.116 21.0163L66.057 21.6477L65.9061 22.1866L65.6595 22.6187L65.3326 22.9817L64.9691 23.274L64.5014 23.4967L64.0098 23.6492L63.5075 23.7422L62.993 23.8012L62.4531 23.8246Z" fill="#000088"/>
<path fill-rule="evenodd" clip-rule="evenodd" d="M70.9743 20.2674H70.6225L70.2829 20.3019L69.8976 20.3253L69.5229 20.4194L69.171 20.5363L68.8442 20.6649L68.5859 20.8526L68.3754 21.1098L68.2346 21.4494L68.1766 21.8236L68.2346 22.2333L68.3866 22.5496L68.6449 22.8419L68.9606 22.9939L69.3124 23.1464L69.686 23.1576L70.1654 23.1464L70.5523 22.9939L70.8319 22.8419L71.0902 22.5963L71.2539 22.2806L71.4054 21.941L71.4877 21.5663L71.5457 21.1566L71.5696 20.7468V20.3025H71.3591L71.1593 20.2679L70.9743 20.2674ZM71.8157 23.8246L71.6987 22.8414L71.3124 23.2745L70.9148 23.6141L70.4588 23.8246L69.955 23.9766L69.3826 24L68.9265 23.9766L68.47 23.8708L68.0725 23.7188L67.7201 23.5084L67.4405 23.2038L67.1838 22.8408L67.0547 22.3848L66.9962 21.8815L67.0547 21.3548L67.2067 20.9105L67.4405 20.5475L67.7445 20.2435L68.1192 19.9979L68.5285 19.822L68.9845 19.6934L69.4639 19.5999L69.9555 19.5419L70.4354 19.5185H70.8925L71.2433 19.5419H71.5707V19.1439L71.5467 18.6873L71.4532 18.3243L71.3124 18.0198L71.1247 17.7742L70.8319 17.5755L70.4933 17.4702L70.048 17.4468L69.6855 17.4702L69.323 17.5404L69.0998 17.7158L68.866 17.9613L68.7379 18.2659L68.656 18.6868H67.474L67.5681 18.1718L67.7429 17.7152L67.9885 17.3522L68.3164 17.0833L68.69 16.8728L69.1115 16.7437L69.5803 16.6618L70.0363 16.6268L70.6443 16.6618L71.1837 16.7788L71.6158 16.9308L71.9794 17.2119L72.2488 17.5393L72.4816 17.9959L72.5757 18.5109L72.6352 19.1662V21.7757L72.6692 22.4422L72.716 23.0274L72.7628 23.5073L72.8451 23.823H71.8157V23.8246Z" fill="#000088"/>
<path fill-rule="evenodd" clip-rule="evenodd" d="M78.93 23.8246V19.518L78.9072 19.1438L78.8609 18.7814L78.744 18.4763L78.6031 18.1962L78.4272 17.9384L78.1588 17.7742L77.7969 17.6578L77.3738 17.6344L76.9189 17.6924L76.533 17.8332L76.2041 18.0554L75.9819 18.3248L75.7831 18.6639L75.655 19.0503L75.5376 19.4478L75.5137 19.881L75.4791 20.3019V23.8246H74.3088V18.1372L74.2737 17.5988V17.1667L74.2493 16.7798H75.4435L75.4563 17.9034L75.806 17.4702L76.2041 17.1423L76.6489 16.8739L77.1294 16.7447L77.7028 16.6863L78.3225 16.7447L78.837 16.8739L79.2595 17.1077L79.5864 17.4117L79.8564 17.8098L80.0307 18.2664L80.1248 18.8393L80.1598 19.4478V23.8246H78.93Z" fill="#000088"/>
<path fill-rule="evenodd" clip-rule="evenodd" d="M86.35 23.8246L83.0256 19.8576L86.0928 16.757H87.6123L84.4319 19.7997L87.8828 23.8251L86.35 23.8246ZM81.799 23.8246V13.7026H82.9687V23.8246H81.799Z" fill="#000088"/>
</svg>
