<svg width="103" height="24" viewBox="0 0 103 24" fill="none" xmlns="http://www.w3.org/2000/svg">
<path d="M2.67285 7.38137H4.64908C5.92451 7.38137 6.86874 7.5384 7.48931 7.85383C8.10714 8.16857 8.61731 8.68423 9.01914 9.39394C9.41685 10.1043 9.61914 10.9347 9.61914 11.8838C9.61914 12.5578 9.50531 13.1777 9.28108 13.7455C9.05822 14.3105 8.74828 14.7823 8.35537 15.1533C7.95902 15.527 7.53045 15.7848 7.07308 15.9267C6.61365 16.068 5.81617 16.1407 4.68199 16.1407H2.67285V7.38137ZM4.33297 8.98869V14.5149H5.10508C5.86554 14.5149 6.41822 14.4285 6.76177 14.2522C7.10737 14.0794 7.38577 13.7839 7.60519 13.3704C7.82531 12.9569 7.93365 12.4488 7.93365 11.8467C7.93365 10.9155 7.67377 10.1942 7.15262 9.68126C6.68565 9.22046 5.93205 8.98869 4.89594 8.98869H4.33297Z" fill="#550044"/>
<path d="M22.91 9.66151H24.5359V16.1408H22.91V15.4558C22.5919 15.7596 22.2737 15.9742 21.9569 16.1079C21.636 16.2416 21.2911 16.3068 20.9167 16.3068C20.0794 16.3068 19.358 15.9831 18.7464 15.3344C18.1375 14.685 17.8296 13.878 17.8296 12.9138C17.8296 11.9148 18.1286 11.094 18.7155 10.4549C19.3073 9.81579 20.0232 9.49625 20.87 9.49625C21.2582 9.49625 21.6236 9.56825 21.9638 9.71705C22.3039 9.86448 22.6186 10.0805 22.91 10.3767V9.66151ZM21.2006 10.9959C20.6986 10.9959 20.2838 11.1742 19.9505 11.5308C19.6186 11.8839 19.4486 12.3392 19.4486 12.8967C19.4486 13.4569 19.6186 13.9143 19.9567 14.277C20.294 14.6384 20.7103 14.8208 21.2095 14.8208C21.7196 14.8208 22.1414 14.6432 22.4739 14.2887C22.8161 13.9321 22.9841 13.4638 22.9841 12.8885C22.9841 12.3262 22.8161 11.8709 22.4739 11.5198C22.1414 11.1714 21.7196 10.9959 21.2006 10.9959Z" fill="#550044"/>
<path d="M26.0682 9.66149H27.6961V10.326C28.065 10.0146 28.3983 9.80001 28.6966 9.67726C28.9969 9.55658 29.3021 9.49624 29.6168 9.49624C30.2573 9.49624 30.8038 9.71978 31.2529 10.1676C31.6287 10.5488 31.8173 11.1132 31.8173 11.8585V16.1408H30.21V13.304C30.21 12.5312 30.1722 12.0183 30.105 11.7646C30.0351 11.5102 29.9137 11.3154 29.7423 11.1831C29.5702 11.0521 29.3562 10.9829 29.1046 10.9829C28.7741 10.9829 28.4936 11.0946 28.257 11.3134C28.0232 11.5349 27.858 11.838 27.7661 12.2268C27.7181 12.4297 27.6961 12.8686 27.6961 13.542V16.1408H26.0682V9.66149Z" fill="#550044"/>
<path d="M40.8746 9.66151H42.5005V16.1408H40.8746V15.4558C40.5585 15.7596 40.2383 15.9742 39.9222 16.1079C39.6026 16.2416 39.2557 16.3068 38.8833 16.3068C38.0461 16.3068 37.3226 15.9831 36.711 15.3344C36.1 14.685 35.7942 13.878 35.7942 12.9138C35.7942 11.9148 36.0918 11.094 36.6801 10.4549C37.274 9.81579 37.9898 9.49625 38.8367 9.49625C39.2214 9.49625 39.5889 9.56825 39.929 9.71705C40.2692 9.86448 40.5818 10.0805 40.8746 10.3767V9.66151ZM39.1672 10.9959C38.6632 10.9959 38.247 11.1742 37.9117 11.5308C37.5812 11.8839 37.4152 12.3392 37.4152 12.8967C37.4152 13.4569 37.5853 13.9143 37.9233 14.277C38.26 14.6384 38.6769 14.8208 39.172 14.8208C39.6808 14.8208 40.106 14.6432 40.4426 14.2887C40.7759 13.9321 40.946 13.4638 40.946 12.8885C40.946 12.3262 40.7759 11.8709 40.4426 11.5198C40.106 11.1714 39.6808 10.9959 39.1672 10.9959Z" fill="#550044"/>
<path d="M50.7432 9.66149H52.369V10.4076C52.6481 10.1017 52.9546 9.87201 53.2947 9.72115C53.6382 9.57235 54.0037 9.49624 54.4069 9.49624C54.8115 9.49624 55.179 9.59498 55.502 9.79452C55.8305 9.98995 56.0945 10.2793 56.2913 10.6626C56.5464 10.2793 56.8645 9.98995 57.241 9.79452C57.6147 9.59498 58.0261 9.49624 58.4705 9.49624C58.9306 9.49624 59.3393 9.60321 59.6883 9.81852C60.0353 10.0332 60.2849 10.3116 60.4398 10.6544C60.5928 11.0028 60.6682 11.563 60.6682 12.3413V16.1408H59.0335V12.8549C59.0335 12.1198 58.9416 11.6213 58.7564 11.3628C58.574 11.1036 58.3032 10.9733 57.9356 10.9733C57.6586 10.9733 57.4069 11.0535 57.1889 11.2105C56.9681 11.3696 56.8049 11.5904 56.6965 11.8681C56.5903 12.1493 56.5361 12.5977 56.5361 13.2176V16.1408H54.8986V13.0023C54.8986 12.4229 54.8595 12.0032 54.7724 11.7447C54.684 11.4821 54.5571 11.2901 54.3864 11.1639C54.2149 11.0364 54.0106 10.9733 53.7651 10.9733C53.497 10.9733 53.2481 11.0535 53.0307 11.214C52.8065 11.3737 52.6419 11.6 52.5322 11.8894C52.4232 12.1801 52.369 12.6354 52.369 13.2594V16.1408H50.7432V9.66149Z" fill="#550044"/>
<path d="M62.7445 6.99367C63.025 6.99367 63.2718 7.09721 63.4755 7.30361C63.6798 7.50932 63.782 7.76029 63.782 8.05515C63.782 8.34315 63.6798 8.59207 63.4789 8.79709C63.2766 8.99938 63.0352 9.10498 62.7534 9.10498C62.4654 9.10498 62.2206 8.99801 62.0163 8.79024C61.8126 8.58109 61.7104 8.32669 61.7104 8.03115C61.7104 7.74452 61.8092 7.50178 62.0115 7.29812C62.2138 7.09652 62.4572 6.99367 62.7445 6.99367Z" fill="#550044"/>
<path d="M61.9296 9.6611H63.5575V16.1404H61.9296V9.6611Z" fill="#550044"/>
<path d="M67.1226 20.1688H65.3281C65.3377 20.2744 65.3624 20.3704 65.4008 20.4513C65.4371 20.5329 65.4934 20.607 65.5633 20.6687C65.6305 20.7311 65.7087 20.7846 65.7971 20.8251C65.8911 20.8628 65.9885 20.8813 66.0968 20.8813C66.2531 20.8813 66.3958 20.8401 66.5219 20.7551C66.6502 20.6721 66.7448 20.5597 66.799 20.4164H67.0685C67.0239 20.5377 66.9711 20.6365 66.908 20.7147C66.8045 20.8401 66.6838 20.9389 66.5405 21.0075C66.4026 21.0753 66.2511 21.1089 66.0865 21.1089C65.8026 21.1089 65.5661 21.0102 65.3651 20.8127C65.1677 20.6159 65.0717 20.378 65.0717 20.0927C65.0717 19.9035 65.1155 19.7279 65.2088 19.5633C65.2993 19.4001 65.4262 19.2726 65.5921 19.1793C65.7553 19.0854 65.9233 19.0401 66.1002 19.0401C66.2737 19.0401 66.4403 19.0854 66.6056 19.1793C66.7654 19.2726 66.8963 19.4015 66.9882 19.5661C67.0794 19.7313 67.124 19.9035 67.124 20.0838L67.1226 20.1688ZM66.8675 19.9412C66.847 19.8404 66.8202 19.7547 66.7825 19.6827C66.7503 19.6141 66.6989 19.5489 66.6323 19.4852C66.5713 19.4255 66.4897 19.3727 66.3978 19.3281C66.3046 19.2891 66.2058 19.2678 66.0989 19.2678C65.9933 19.2678 65.8966 19.2863 65.804 19.3254C65.7176 19.3638 65.636 19.4145 65.5709 19.4728C65.5071 19.5339 65.4536 19.6024 65.4152 19.6785C65.3775 19.7547 65.3466 19.8417 65.3281 19.9412H66.8675Z" fill="#550044"/>
<path d="M67.3436 20.4782H67.5952C67.5987 20.5626 67.6124 20.6311 67.6329 20.6778C67.6604 20.7457 67.6995 20.7964 67.7557 20.8307C67.8078 20.8643 67.8757 20.8814 67.9566 20.8814C68.067 20.8814 68.1568 20.8519 68.2213 20.7875C68.2878 20.7244 68.3166 20.6401 68.3166 20.5372C68.3166 20.4474 68.2892 20.3726 68.2384 20.3116C68.1904 20.2506 68.08 20.1909 67.9189 20.1347C67.7872 20.0887 67.696 20.0497 67.6398 20.0133C67.563 19.9626 67.5033 19.9015 67.4608 19.8343C67.4197 19.7644 67.4012 19.6828 67.4012 19.5902C67.4012 19.4325 67.454 19.3009 67.5596 19.1966C67.6672 19.0924 67.7961 19.0396 67.9566 19.0396C68.0636 19.0396 68.1616 19.065 68.248 19.1178C68.3351 19.1685 68.4016 19.2398 68.4489 19.331C68.4798 19.3893 68.4969 19.475 68.5004 19.5772H68.248C68.2371 19.475 68.2041 19.3982 68.152 19.3468C68.0958 19.2926 68.0307 19.2673 67.9525 19.2673C67.8661 19.2673 67.7961 19.2961 67.7379 19.353C67.6837 19.4099 67.6549 19.4791 67.6549 19.5607L67.696 19.7061L67.8133 19.8097C67.8537 19.8323 67.9148 19.857 67.9929 19.8865C68.1363 19.9358 68.2439 19.9797 68.3029 20.0215C68.3927 20.0764 68.4579 20.1436 68.5031 20.2211C68.5463 20.302 68.5662 20.398 68.5662 20.5194C68.5662 20.6291 68.5443 20.7299 68.4935 20.8218C68.4455 20.9164 68.3742 20.987 68.2789 21.0357C68.1856 21.0851 68.08 21.1111 67.9641 21.1111C67.8537 21.1111 67.7571 21.0899 67.6768 21.0481C67.5918 21.0049 67.526 20.9569 67.4793 20.8965C67.4307 20.8382 67.3943 20.7772 67.3758 20.7127C67.3559 20.6483 67.3436 20.5708 67.3436 20.4782Z" fill="#550044"/>
<path d="M69.1041 21.0622V19.3184H68.6893V19.0921H69.1041V18.3941H69.3558V19.0921H69.8303V19.3184H69.3558V21.0622H69.1041Z" fill="#550044"/>
<path d="M71.9153 19.092V21.0621H71.6609V20.7144H71.6554C71.6012 20.7919 71.5498 20.8482 71.5052 20.89C71.4291 20.9531 71.3406 21.0072 71.2337 21.0484C71.1294 21.0895 71.0074 21.1108 70.8696 21.1108C70.6659 21.1108 70.4869 21.0635 70.3258 20.973C70.1688 20.8804 70.0446 20.7522 69.9596 20.589C69.8698 20.4237 69.8273 20.2557 69.8273 20.0767C69.8273 19.895 69.8746 19.7222 69.9644 19.5583C70.0584 19.3944 70.1845 19.2676 70.3512 19.1764C70.5144 19.0852 70.6947 19.0399 70.8833 19.0399C71.0074 19.0399 71.1233 19.0598 71.2282 19.0975C71.3317 19.1352 71.4222 19.1874 71.4977 19.2539C71.5498 19.2998 71.6026 19.3595 71.6554 19.4356H71.6609V19.092H71.9153ZM70.0817 20.0815C70.0817 20.2228 70.1125 20.3592 70.1825 20.4813C70.2469 20.6068 70.3422 20.7048 70.4705 20.7768C70.596 20.8461 70.7297 20.8811 70.8764 20.8811C71.017 20.8811 71.1555 20.8482 71.281 20.7775C71.4037 20.7076 71.5018 20.6109 71.5738 20.4847C71.6451 20.3592 71.6773 20.2228 71.6773 20.0808C71.6773 19.9355 71.6451 19.7976 71.5738 19.6708C71.5018 19.5419 71.4024 19.4431 71.281 19.3745C71.1576 19.3025 71.0245 19.2676 70.8833 19.2676C70.8051 19.2676 70.7297 19.2779 70.6659 19.2964C70.596 19.3149 70.526 19.3437 70.465 19.3814C70.3998 19.4171 70.3402 19.4664 70.2812 19.5302C70.2216 19.594 70.1701 19.6756 70.1365 19.7709C70.0995 19.869 70.0817 19.9718 70.0817 20.0815Z" fill="#550044"/>
<path d="M72.3666 21.0622V18.3941H72.6182V19.4357H72.6251C72.6793 19.3637 72.7321 19.3075 72.7828 19.2636C72.8308 19.219 72.8918 19.1792 72.9583 19.145C73.0283 19.1107 73.101 19.0853 73.173 19.0675C73.2505 19.0476 73.3273 19.04 73.4075 19.04C73.5522 19.04 73.6879 19.0675 73.8169 19.121C73.943 19.1765 74.0534 19.2471 74.1405 19.3349C74.229 19.422 74.2982 19.518 74.3497 19.6236C74.421 19.7655 74.4532 19.9184 74.4532 20.0762C74.4532 20.2572 74.4079 20.4272 74.3174 20.5918C74.2255 20.7557 74.0994 20.8812 73.9327 20.9731C73.7695 21.0636 73.5926 21.1109 73.4061 21.1109C73.2834 21.1109 73.1709 21.0924 73.0722 21.0567C72.9734 21.0224 72.8836 20.9751 72.8054 20.9107C72.7492 20.864 72.6861 20.7996 72.6251 20.7146H72.6182V21.0622H72.3666ZM72.6031 20.0803C72.6031 20.2195 72.6374 20.3525 72.7046 20.4794C72.7732 20.6055 72.8699 20.705 72.9954 20.777C73.1236 20.8462 73.258 20.8812 73.4006 20.8812C73.5453 20.8812 73.6777 20.8476 73.8073 20.7811C73.9348 20.7125 74.0315 20.6151 74.1007 20.4876C74.1679 20.3614 74.2002 20.2229 74.2002 20.0755C74.2002 19.9253 74.1638 19.7902 74.0959 19.662C74.0267 19.5386 73.9273 19.4405 73.8018 19.3726C73.6742 19.3027 73.5419 19.2677 73.4006 19.2677C73.2559 19.2677 73.1202 19.3027 72.9954 19.3747C72.8713 19.448 72.7732 19.5482 72.7067 19.6757C72.6374 19.8039 72.6031 19.9383 72.6031 20.0803Z" fill="#550044"/>
<path d="M74.7964 18.3944H75.048V21.0639H74.7964V18.3944Z" fill="#550044"/>
<path d="M75.5013 18.3945H75.7496V18.8484H75.5013V18.3945ZM75.5013 19.0918H75.7496V21.0619H75.5013V19.0918Z" fill="#550044"/>
<path d="M76.0557 20.4782H76.3053C76.3121 20.5626 76.3231 20.6311 76.343 20.6778C76.3704 20.7457 76.4129 20.7964 76.4678 20.8307C76.5185 20.8643 76.5857 20.8814 76.6646 20.8814C76.7805 20.8814 76.8669 20.8519 76.9293 20.7875C76.9978 20.7244 77.0266 20.6401 77.0266 20.5372C77.0266 20.4474 77.0033 20.3726 76.9485 20.3116C76.9005 20.2506 76.7935 20.1909 76.6269 20.1347C76.4979 20.0887 76.4081 20.0497 76.3533 20.0133C76.273 19.9626 76.2154 19.9015 76.175 19.8343C76.1304 19.7644 76.1153 19.6828 76.1153 19.5902C76.1153 19.4325 76.164 19.3009 76.2703 19.1966C76.3773 19.0924 76.5062 19.0396 76.6646 19.0396C76.7715 19.0396 76.8717 19.065 76.9553 19.1178C77.0451 19.1685 77.1137 19.2398 77.1576 19.331C77.1878 19.3893 77.2056 19.475 77.2138 19.5772H76.9601C76.9485 19.475 76.9183 19.3982 76.8634 19.3468C76.8093 19.2926 76.7427 19.2673 76.6611 19.2673C76.5782 19.2673 76.5062 19.2961 76.4499 19.353C76.3923 19.4099 76.3635 19.4791 76.3635 19.5607L76.4081 19.7061L76.5267 19.8097C76.5638 19.8323 76.6255 19.857 76.7071 19.8865C76.8518 19.9358 76.9539 19.9797 77.0143 20.0215C77.1034 20.0764 77.1679 20.1436 77.2138 20.2211C77.2563 20.302 77.2817 20.398 77.2817 20.5194C77.2817 20.6291 77.255 20.7299 77.2056 20.8218C77.1576 20.9164 77.0863 20.987 76.991 21.0357C76.8991 21.0851 76.7935 21.1111 76.6776 21.1111C76.5638 21.1111 76.4678 21.0899 76.3855 21.0481C76.3039 21.0049 76.2381 20.9569 76.1901 20.8965C76.1407 20.8382 76.1064 20.7772 76.0865 20.7127C76.0646 20.6483 76.0557 20.5708 76.0557 20.4782Z" fill="#550044"/>
<path d="M77.5724 21.0622V18.3941H77.8206V19.3411H77.833C77.8995 19.2485 77.9831 19.1737 78.0826 19.1209C78.182 19.0675 78.3054 19.04 78.457 19.04C78.5879 19.04 78.7086 19.0654 78.8149 19.112C78.9232 19.1587 79.0186 19.23 79.1015 19.3219C79.155 19.3822 79.1934 19.4563 79.2311 19.542C79.2819 19.6784 79.3072 19.8204 79.3072 19.9788V21.0622H79.0542V19.9788C79.0542 19.7539 78.9959 19.5783 78.8807 19.4521C78.7648 19.3287 78.614 19.2677 78.4336 19.2677C78.3267 19.2677 78.2327 19.291 78.1498 19.3369C78.0661 19.3829 77.9982 19.4391 77.9468 19.507C77.9125 19.555 77.8823 19.6195 77.8604 19.6997C77.8364 19.7833 77.8206 19.8745 77.8206 19.9788V21.0622H77.5724Z" fill="#550044"/>
<path d="M81.6445 20.1688H79.8486C79.8603 20.2744 79.8808 20.3704 79.9199 20.4513C79.959 20.5329 80.0152 20.607 80.0817 20.6687C80.151 20.7311 80.2299 20.7846 80.3231 20.8251C80.4116 20.8628 80.5083 20.8813 80.6139 20.8813C80.7736 20.8813 80.9163 20.8401 81.0445 20.7551C81.1707 20.6721 81.2632 20.5597 81.3195 20.4164H81.5869C81.543 20.5377 81.4881 20.6365 81.4292 20.7147C81.3249 20.8401 81.2036 20.9389 81.0623 21.0075C80.9217 21.0753 80.7709 21.1089 80.6049 21.1089C80.3245 21.1089 80.0852 21.0102 79.8863 20.8127C79.6902 20.6159 79.5901 20.378 79.5901 20.0927C79.5901 19.9035 79.636 19.7279 79.7259 19.5633C79.8198 19.4001 79.9467 19.2726 80.114 19.1793C80.2751 19.0854 80.4438 19.0401 80.6207 19.0401C80.7928 19.0401 80.9608 19.0854 81.1254 19.1793C81.2872 19.2726 81.4148 19.4015 81.5087 19.5661C81.6006 19.7313 81.6445 19.9035 81.6445 20.0838V20.1688ZM81.3894 19.9412C81.3695 19.8404 81.3421 19.7547 81.3044 19.6827C81.2701 19.6141 81.218 19.5489 81.1528 19.4852C81.0884 19.4255 81.0116 19.3727 80.9183 19.3281C80.823 19.2891 80.7222 19.2678 80.6193 19.2678C80.5137 19.2678 80.415 19.2863 80.3279 19.3254C80.2347 19.3638 80.1579 19.4145 80.0934 19.4728C80.0241 19.5339 79.9741 19.6024 79.9371 19.6785C79.8959 19.7547 79.8671 19.8417 79.8486 19.9412H81.3894Z" fill="#550044"/>
<path d="M84.0023 18.3943V21.0638H83.7541V20.7168H83.7473C83.691 20.793 83.6382 20.8519 83.5902 20.8938C83.5086 20.9596 83.4154 21.0124 83.3111 21.0528C83.2042 21.0899 83.0938 21.1091 82.9676 21.1091C82.6734 21.1091 82.4252 21.0096 82.2243 20.8101C82.0186 20.6106 81.9185 20.3712 81.9185 20.0908C81.9185 19.8995 81.961 19.7226 82.0563 19.5607C82.1482 19.3962 82.2737 19.2679 82.441 19.1767C82.6055 19.0855 82.779 19.0396 82.9676 19.0396C83.1452 19.0396 83.3063 19.08 83.451 19.161C83.5587 19.2213 83.6554 19.3098 83.7473 19.4291H83.7541V18.3943H84.0023ZM83.7706 20.0764C83.7706 19.9461 83.7349 19.8151 83.6705 19.6855C83.606 19.5566 83.5086 19.4565 83.3852 19.3811C83.257 19.3036 83.1191 19.2672 82.9676 19.2672C82.8229 19.2672 82.6892 19.3022 82.5644 19.3728C82.441 19.4428 82.347 19.5388 82.2737 19.6656C82.2044 19.7939 82.1701 19.9324 82.1701 20.0805C82.1701 20.2266 82.2044 20.3644 82.2737 20.4878C82.3436 20.6126 82.441 20.71 82.5644 20.7779C82.6906 20.8458 82.8229 20.8828 82.9697 20.8828C83.1143 20.8828 83.2501 20.8458 83.3729 20.7758C83.5004 20.7045 83.5957 20.6071 83.6657 20.4796C83.7349 20.352 83.7706 20.2211 83.7706 20.0764Z" fill="#550044"/>
<path d="M85.5773 21.0622V18.6368H85.1179V18.3941H85.8461V21.0622H85.5773Z" fill="#550044"/>
<path d="M87.1269 21.0622H86.8203L87.4395 20.1571L87.4306 20.1536C87.3525 20.1907 87.2695 20.2119 87.179 20.2119C87.0555 20.2119 86.941 20.1893 86.832 20.1433C86.725 20.0953 86.6277 20.0343 86.557 19.9582C86.4823 19.8807 86.4213 19.7943 86.3767 19.7031C86.315 19.5715 86.2841 19.4323 86.2841 19.2876C86.2841 19.1209 86.3253 18.9632 86.4034 18.8151C86.4837 18.667 86.5927 18.5532 86.7339 18.4723C86.8752 18.3913 87.0295 18.3523 87.1982 18.3523C87.373 18.3523 87.528 18.3941 87.6693 18.4764C87.8119 18.5566 87.9189 18.6739 87.9977 18.8227C88.0704 18.9728 88.1102 19.1271 88.1102 19.2862C88.1102 19.4035 88.0875 19.5152 88.0505 19.6236C88.0094 19.7299 87.9223 19.8807 87.7865 20.0816L87.1269 21.0622ZM87.8393 19.2732C87.8393 19.1655 87.8153 19.0558 87.7646 18.9475C87.7118 18.8371 87.637 18.7513 87.5349 18.6876C87.4341 18.6245 87.3223 18.5923 87.1982 18.5923C87.0809 18.5923 86.9733 18.6217 86.8752 18.6807C86.7723 18.7383 86.6942 18.8206 86.6366 18.9303C86.5803 19.038 86.5536 19.1539 86.5536 19.2793C86.5536 19.4069 86.5824 19.5221 86.6366 19.6339C86.6962 19.7415 86.7744 19.8231 86.8752 19.8828C86.9753 19.9424 87.083 19.9712 87.1968 19.9712C87.2928 19.9712 87.3799 19.9507 87.4581 19.9129C87.5369 19.8745 87.6041 19.8231 87.6624 19.7641C87.7145 19.7052 87.7611 19.6304 87.792 19.5461C87.8263 19.459 87.8393 19.3726 87.8393 19.2732Z" fill="#550044"/>
<path d="M88.3442 21.0622V20.8195L89.2782 19.9205C89.4242 19.7792 89.5298 19.6709 89.5964 19.5961C89.6594 19.518 89.7068 19.448 89.7369 19.3747C89.7678 19.3027 89.7836 19.2279 89.7836 19.1552C89.7836 19.0627 89.7582 18.9715 89.7102 18.8809C89.6594 18.7884 89.5909 18.7157 89.5024 18.667C89.4126 18.6142 89.3173 18.5888 89.2124 18.5888C89.1314 18.5888 89.0622 18.6005 88.9991 18.6259C88.9346 18.6499 88.8818 18.6821 88.838 18.7205L88.7241 18.8535C88.6933 18.9097 88.6727 18.966 88.6556 19.0284C88.6405 19.0908 88.6336 19.1655 88.6281 19.2567H88.3628C88.3662 19.1244 88.3785 19.0208 88.4025 18.9461C88.4313 18.8302 88.4855 18.728 88.5589 18.6409C88.635 18.5511 88.7276 18.4798 88.8428 18.427C88.96 18.3742 89.0841 18.3488 89.2199 18.3488C89.4839 18.3488 89.7006 18.4462 89.8631 18.6478C89.9886 18.8028 90.0537 18.9769 90.0537 19.1683C90.0537 19.2471 90.0421 19.3184 90.0215 19.3829C90.003 19.448 89.9776 19.507 89.9481 19.5571L89.846 19.6949C89.7513 19.8087 89.6574 19.9109 89.56 20.0041L88.7049 20.8195H90.0352V21.0622H88.3442Z" fill="#550044"/>
<path d="M90.4992 21.0622L91.5998 18.6368H90.3333V18.3941H91.8754V18.6368L90.7817 21.0622H90.4992Z" fill="#550044"/>
<path d="M67.2452 11.0858C67.7485 11.0858 68.1366 11.0268 68.3951 10.8828C69.0596 10.5002 69.1823 9.99963 69.1892 9.40991C69.1912 8.68854 68.786 8.17083 68.3951 7.99872C68.1771 7.87391 67.9 7.77517 67.1636 7.76214H65.8436V11.0858H67.2452ZM67.5092 15.4812C67.9473 15.4812 68.3663 15.4236 68.6845 15.3084C69.2879 15.0396 69.7131 14.5576 69.7302 13.6559C69.7281 12.8481 69.3153 12.2392 68.6598 11.945C68.2161 11.7578 67.9576 11.7489 67.2452 11.7489H65.8436V15.4812H67.5092ZM67.1636 7.09906C67.9199 7.09769 68.4047 7.2218 68.7736 7.43711C69.6486 7.89997 69.8913 8.77837 69.8865 9.45929C69.8927 9.67529 69.8817 10.7135 68.9169 11.332C70.3014 11.9169 70.4337 13.254 70.431 13.6579C70.4221 14.7859 69.8454 15.5519 68.9355 15.9365C68.5364 16.073 68.0598 16.1429 67.4934 16.1429H65.1455V7.09906H67.1636Z" fill="#550044"/>
<path d="M71.7438 12.855C71.7658 14.1956 72.6503 15.6445 74.5573 15.6472C76.1783 15.6445 77.2954 14.3828 77.3009 12.8584C77.2954 11.2408 76.1029 10.0689 74.5217 10.0655C72.987 10.0689 71.7473 11.1969 71.7438 12.855ZM74.5217 16.298C73.4533 16.298 72.5825 15.8804 71.99 15.2399C71.3934 14.5967 71.0691 13.7389 71.0691 12.8584C71.0691 11.9547 71.4023 11.0948 72.0023 10.4605C72.603 9.82414 73.4725 9.41477 74.5217 9.41477C75.7731 9.41683 76.7482 10.0209 77.2666 10.7135V9.56837H77.9399V15.9729V16.143H77.2666V14.9876C76.6522 15.8097 75.6881 16.298 74.5313 16.298H74.5217Z" fill="#550044"/>
<path d="M84.8119 16.1429V12.6794C84.8119 11.6268 84.5294 10.9932 84.1063 10.6099C83.6689 10.2149 83.0668 10.0655 82.4593 10.0655C80.961 10.1045 80.1169 10.9007 80.1038 12.3859V16.1429H79.4284V9.56832H80.1038V10.3768C80.6414 9.73357 81.5562 9.41677 82.3845 9.41403L82.4572 9.41472C83.2842 9.41472 83.987 9.63552 84.5226 10.0771C85.1822 10.6415 85.4887 11.537 85.4867 12.6794V16.1429H84.8119Z" fill="#550044"/>
<path d="M10.9255 7.16037C12.4286 7.05889 12.5123 8.06963 12.5123 8.1862V10.3174C12.8284 10.0417 13.1754 9.8374 13.497 9.70163C13.8206 9.5638 14.147 9.49386 14.4755 9.49386C15.1159 9.49386 15.6604 9.71809 16.1013 10.1624C16.4771 10.5485 16.6643 11.1135 16.6643 11.8589V16.1412H15.0638V13.3009C15.0638 12.5508 15.0275 12.0406 14.9582 11.7766C14.8869 11.5092 14.7649 11.3137 14.5893 11.1807C14.4172 11.0504 14.2067 10.9825 13.9495 10.9825C13.6218 10.9825 13.3379 11.0936 13.1027 11.3137C12.8647 11.5304 12.7015 11.828 12.611 12.2038C12.5637 12.4013 12.5383 12.8443 12.5383 13.5409V16.1412H10.9255V7.16037Z" fill="#550044"/>
<path d="M50.0353 16.141L47.5489 12.7103L49.748 9.66166C49.748 9.66166 48.1441 9.39149 47.5236 10.2123C47.0299 10.8342 46.6184 11.4281 46.6184 11.4281L45.3375 9.66166H43.4511L45.6783 12.733L43.1707 16.141C43.1707 16.141 44.7869 16.4146 45.4129 15.589C45.7935 15.1069 45.6934 15.2468 46.6116 14.0214L48.1489 16.141H50.0353Z" fill="#550044"/>
<path d="M34.7106 8.20229C34.7106 8.08435 34.629 7.05441 33.0999 7.15932V16.1408H34.7161L34.7106 8.20229Z" fill="#550044"/>
<path d="M89.2342 12.7834L91.6678 9.56876H90.7984L87.6372 13.7784V10.8517V9.43093V8.20281V8.19596V7.53561C87.6372 7.48487 87.5995 7.05561 86.9618 7.09881V16.1427H87.6372V14.8899L88.807 13.3292L90.9993 16.1427H91.8756L89.2342 12.7834Z" fill="#550044"/>
<path d="M99.0178 8.83583L99.0534 8.90577L99.0719 8.94966C99.6925 10.2271 99.2763 11.2543 99.0616 11.9167L99.0534 11.9846C98.9204 12.4948 98.8559 12.9981 98.8402 13.4788C98.8477 14.5183 99.0754 15.4763 99.325 16.2141L99.303 16.2484L99.3202 16.2923L99.325 16.3067C99.2036 16.5097 99.1028 16.762 99.0479 17.0781L99.028 17.2667L98.0495 15.1135L98.0296 15.13L98.031 15.1135L97.06 17.3298L97.036 17.0781C96.9832 16.762 96.8831 16.5097 96.757 16.3067L96.7638 16.2923C97.1766 15.2514 97.4118 13.8676 97.119 12.3693C97.5092 11.9071 98.3252 10.2909 99.0178 8.83583Z" fill="#550044"/>
<path d="M100.859 4.55209C100.859 4.55209 100.846 4.55209 100.773 4.66524C100.698 4.77907 100.565 4.72284 100.565 4.72284C100.635 4.69884 100.63 4.67209 100.693 4.60078C100.756 4.52741 100.859 4.55209 100.859 4.55209ZM100.99 4.03301L101.106 4.27027C101.106 4.27027 101.21 4.51027 100.99 4.51027C100.774 4.51027 100.868 4.27712 100.868 4.27712L100.99 4.03301ZM100.99 4.83392L100.881 4.70432C100.881 4.70432 100.789 4.56787 100.99 4.56787C101.182 4.56787 101.096 4.69884 101.096 4.69884L100.99 4.83392ZM101.407 4.02341C101.339 4.06661 101.387 4.30044 101.31 4.40124C101.256 4.46844 101.145 4.47804 101.145 4.47804C101.212 4.36627 101.158 4.33335 101.174 4.19758C101.212 4.01175 101.407 4.02341 101.407 4.02341ZM100.56 4.02341C100.56 4.02341 100.763 4.01175 100.796 4.19758C100.814 4.33335 100.763 4.36627 100.829 4.47804C100.829 4.47804 100.713 4.46844 100.66 4.40124C100.582 4.30044 100.634 4.06661 100.56 4.02341ZM101.118 4.55209C101.118 4.55209 101.227 4.52741 101.288 4.60078C101.35 4.67209 101.344 4.69884 101.416 4.72284C101.416 4.72284 101.276 4.77907 101.21 4.66524C101.131 4.55209 101.118 4.55209 101.118 4.55209Z" fill="#550044"/>
<path d="M98.036 15.8637L97.2248 17.7124C97.2248 17.7124 96.6125 19.4918 98.036 19.4918C99.4918 19.4918 98.8171 17.6774 98.8171 17.6774L98.036 15.8637Z" fill="#550044"/>
<path d="M98.0293 21.8148L98.7637 20.7712C98.7637 20.7712 99.3218 19.7645 98.0293 19.7645C96.7024 19.7645 97.3216 20.7917 97.3216 20.7917L98.0293 21.8148Z" fill="#550044"/>
<path d="M100.829 15.7821C100.829 15.7821 99.5057 15.7121 99.2691 17.1172C99.1539 18.1478 99.5057 18.4049 99.0655 19.2861C99.0655 19.2861 99.8205 19.1942 100.171 18.6888C100.71 17.9167 100.379 16.1256 100.829 15.7821Z" fill="#550044"/>
<path d="M95.2128 15.7821C95.2128 15.7821 96.5307 15.7121 96.7673 17.1172C96.8845 18.1478 96.5307 18.4049 96.9696 19.2861C96.9696 19.2861 96.2194 19.1942 95.8724 18.6888C95.328 17.9167 95.6599 16.1256 95.2128 15.7821Z" fill="#550044"/>
<path d="M98.8999 19.6465C98.8999 19.6465 99.5959 19.4751 100.018 20.0216C100.438 20.5626 100.402 20.7642 100.859 20.9665C100.859 20.9665 99.9833 21.3745 99.4917 20.5126C98.9993 19.6465 98.8999 19.6465 98.8999 19.6465Z" fill="#550044"/>
<path d="M97.189 19.6465C97.189 19.6465 96.4984 19.4751 96.0733 20.0216C95.6495 20.5626 95.6838 20.7642 95.2264 20.9665C95.2264 20.9665 96.109 21.3745 96.5992 20.5126C97.0916 19.6465 97.189 19.6465 97.189 19.6465Z" fill="#550044"/>
<path d="M98.33 3.06086C98.8079 3.18429 98.8525 3.64166 98.858 3.72531C98.7044 3.63823 98.4836 3.58337 98.2402 3.58337C97.9816 3.58337 97.7554 3.61834 97.6018 3.71091L97.5544 3.73834C97.623 3.19731 98.092 3.04714 98.092 3.04714V2.5884C98.2299 2.454 98.33 2.5884 98.33 2.5884V3.06086Z" fill="#550044"/>
<path d="M98.1599 3.81887C98.1599 3.81887 98.6433 3.7455 98.7517 4.13636C98.8696 4.53133 98.7757 4.54847 99.111 4.94139C99.4497 5.33499 99.2811 5.59899 99.1857 5.57842C99.0918 5.56127 98.8305 5.24242 98.703 5.31922C98.5748 5.39122 98.4369 5.67373 98.1599 5.65385C97.8795 5.63533 97.6875 5.25887 97.5599 5.29453C97.4276 5.33499 97.191 5.5455 97.1478 5.56127C97.0765 5.5887 96.7741 5.46459 97.0155 5.07373C97.2603 4.67807 97.3117 4.97842 97.5359 4.43739C97.7656 3.89293 97.8239 3.8367 98.1599 3.81887Z" fill="#550044"/>
<path d="M94.9764 4.55209C94.9764 4.55209 94.9641 4.55209 94.8914 4.66524C94.8167 4.77907 94.6816 4.72284 94.6816 4.72284C94.7515 4.69884 94.7433 4.67209 94.8112 4.60078C94.8729 4.52741 94.9764 4.55209 94.9764 4.55209ZM95.104 4.03301L95.2206 4.27027C95.2206 4.27027 95.3234 4.51027 95.104 4.51027C94.8914 4.51027 94.9833 4.27712 94.9833 4.27712L95.104 4.03301ZM95.104 4.83392L94.9984 4.70432C94.9984 4.70432 94.9051 4.56787 95.104 4.56787C95.296 4.56787 95.213 4.69884 95.213 4.69884L95.104 4.83392ZM95.5243 4.02341C95.4558 4.06661 95.5051 4.30044 95.4249 4.40124C95.3721 4.46844 95.2583 4.47804 95.2583 4.47804C95.3282 4.36627 95.274 4.33335 95.2891 4.19758C95.3282 4.01175 95.5243 4.02341 95.5243 4.02341ZM94.6754 4.02341C94.6754 4.02341 94.877 4.01175 94.9134 4.19758C94.9326 4.33335 94.877 4.36627 94.9456 4.47804C94.9456 4.47804 94.8318 4.46844 94.7769 4.40124C94.6994 4.30044 94.7447 4.06661 94.6754 4.02341ZM95.235 4.55209C95.235 4.55209 95.3399 4.52741 95.405 4.60078C95.4681 4.67209 95.4592 4.69884 95.5312 4.72284C95.5312 4.72284 95.3961 4.77907 95.3234 4.66524C95.248 4.55209 95.235 4.55209 95.235 4.55209Z" fill="#550044"/>
<path d="M97.0289 11.9402L97.0275 11.9169C96.8102 11.2545 96.3912 10.2273 97.0138 8.94985L97.0289 8.90528C97.092 8.78322 97.1537 8.65499 97.2147 8.5007C97.2998 8.2847 97.1482 8.00699 97.0413 7.83282L98.9359 5.99648L99.8253 6.31122L99.7848 6.42779C99.2287 7.67648 97.6653 11.1112 97.0289 11.9402Z" fill="#550044"/>
<path d="M101.406 5.37778C101.337 5.09252 101.014 4.89983 100.95 5.00406C100.95 5.00406 100.796 5.1556 100.844 5.37778C100.899 5.59583 100.965 5.92018 100.863 6.08749C100.773 6.24589 100.288 6.66829 100.023 6.8404L99.9327 6.88977C99.8134 7.15377 99.6571 7.48703 99.4829 7.85938L99.5446 8.04863L99.5721 8.13023L99.5789 8.15423C99.6317 8.13777 99.8607 8.06715 100.15 7.92795L100.132 7.83743C100.101 7.73046 100.099 7.68109 100.074 7.55012L100.111 7.52955C100.21 7.49389 100.312 7.43903 100.402 7.36155C100.729 7.08452 101.103 6.5284 101.286 5.92017C101.385 5.58692 101.385 5.626 101.385 5.626C101.385 5.61435 101.429 5.49092 101.406 5.37778ZM100.201 8.15835C100.005 8.25915 99.6996 8.36337 99.6399 8.38326L99.7181 8.66715C99.7181 8.77823 99.7305 8.89755 99.7593 9.0196C99.895 9.55926 100.42 10.186 100.465 10.5419C100.509 10.8991 100.584 11.3565 100.705 11.458C100.826 11.5609 100.962 10.9855 100.974 10.7963C100.991 10.6098 101.125 10.8635 101.17 10.7133L101.174 10.6879C101.205 10.5371 100.705 10.3444 100.553 9.6388C100.443 9.08406 100.261 8.39355 100.201 8.15835Z" fill="#550044"/>
<path d="M96.3298 8.14748L96.3078 8.25582V8.25925L96.2742 8.43411C96.2447 8.52119 96.2228 8.58839 96.2228 8.58839C96.0356 8.89079 95.4301 9.82199 95.2361 9.84737C94.9988 9.88165 94.7602 9.57925 94.7602 9.57925C94.2891 9.32211 93.8468 9.69994 93.7638 9.83228C93.6788 9.97148 93.9469 9.97148 94.25 10.0332C94.5579 10.1045 94.8294 10.3397 95.3725 10.1203C95.8182 9.93651 96.3483 9.40577 96.6068 9.08211C96.6445 9.05674 96.6788 9.00051 96.7062 8.93331C96.7227 8.88805 96.7755 8.64805 96.8146 8.48211L96.8351 8.37514C96.5835 8.27502 96.3298 8.14748 96.3298 8.14748ZM98.6125 5.88805C97.837 5.81331 97.0223 6.01902 96.7316 6.41742C96.6685 6.49765 96.5903 6.78428 96.5218 7.08462C96.2756 6.96599 96.0747 6.82542 96.0747 6.82542C95.8114 6.65331 95.3279 6.23159 95.2347 6.07388C95.1311 5.90657 95.2011 5.58222 95.2518 5.36554C95.2991 5.14199 95.1497 4.99319 95.1497 4.99319C95.0879 4.88622 94.7636 5.07891 94.6937 5.36554C94.6662 5.47662 94.7142 5.59868 94.7142 5.61239C94.7142 5.61239 94.7108 5.57331 94.813 5.90657C94.9988 6.51617 95.3677 7.07228 95.6941 7.34588C95.7654 7.40691 95.9897 7.54817 96.3983 7.69491C96.3791 7.80188 96.3661 7.88348 96.3572 7.92805C96.471 8.00074 96.8777 8.15228 96.8777 8.15228C96.9154 7.93765 96.9778 7.58794 96.9881 7.51319L96.9901 7.49811L98.6434 5.88942L98.6125 5.88805Z" fill="#550044"/>
</svg>
