<svg width="72" height="24" viewBox="0 0 72 24" fill="none" xmlns="http://www.w3.org/2000/svg">
<g clip-path="url(#clip0_45_4248)">
<path d="M17.4053 2.02808H1.33057V18.0496H17.4053V2.02808Z" fill="#334190"/>
<path d="M4.68918 2.02808H1.33057V18.0496H4.68918V2.02808Z" fill="#F6AC21"/>
<path d="M5.7794 18.052L8.52358 17.5091C20.81 14.0835 13.4137 5.97575 13.4137 5.97575C9.15188 1.33744 0 0 0 0C0 0 9.19345 1.79711 12.201 8.9001C12.201 8.9001 15.3517 15.5064 4.15322 18.0543H5.7794V18.052Z" fill="#334190"/>
<path d="M13.4136 5.97575C11.8013 4.22022 9.48679 2.93821 7.23462 2.02118H5.42827C7.98534 3.37941 10.7826 5.54842 12.2009 8.9001C12.2009 8.9001 15.3517 15.5065 4.1532 18.0543H5.77938L8.52355 17.5068C20.81 14.0812 13.4136 5.97344 13.4136 5.97344V5.97575Z" fill="white"/>
<path d="M20.5836 17.4052V17.2597H20.773C20.937 17.2597 21.0641 17.2342 21.1519 17.188C21.2396 17.1395 21.3043 17.0726 21.3482 16.9894C21.3736 16.934 21.3852 16.77 21.3852 16.4951V12.9956C21.3852 12.723 21.369 12.5544 21.339 12.4851C21.3089 12.4181 21.2466 12.358 21.1519 12.3072C21.0595 12.2564 20.9324 12.231 20.773 12.231H20.5836V12.0854H23.1291C23.8083 12.0854 24.3557 12.1709 24.7692 12.3442C25.2751 12.5567 25.6585 12.8754 25.9195 13.3051C26.1805 13.7347 26.3122 14.2198 26.3122 14.7603C26.3122 15.1345 26.2475 15.4787 26.1205 15.7929C25.9911 16.107 25.8248 16.368 25.6215 16.5736C25.4183 16.7792 25.1827 16.9432 24.9147 17.0679C24.6468 17.1927 24.3211 17.2874 23.9353 17.3567C23.7644 17.389 23.4964 17.4029 23.1291 17.4029H20.5836V17.4052ZM22.7526 12.388V16.5367C22.7526 16.7561 22.7642 16.8901 22.785 16.9409C22.8081 16.9894 22.845 17.0287 22.8982 17.0541C22.9744 17.0933 23.0829 17.1118 23.2262 17.1118C23.6928 17.1118 24.0485 16.964 24.2956 16.6637C24.6306 16.2618 24.7992 15.6358 24.7992 14.788C24.7992 14.1066 24.6837 13.5615 24.455 13.1526C24.2726 12.8339 24.0392 12.6167 23.7551 12.5012C23.5542 12.4204 23.2192 12.3811 22.7526 12.3834V12.388Z" fill="#334190"/>
<path d="M29.8995 12.0115C30.7934 11.9792 31.5188 12.2263 32.0778 12.753C32.6368 13.2797 32.9163 13.9357 32.9163 14.7257C32.9163 15.4002 32.7084 15.9938 32.2926 16.5066C31.7405 17.1857 30.9621 17.5253 29.9549 17.5253C28.9478 17.5253 28.1648 17.2019 27.6127 16.5528C27.1761 16.04 26.959 15.4325 26.959 14.728C26.959 13.938 27.2431 13.2797 27.809 12.753C28.375 12.2263 29.0726 11.9792 29.8995 12.0092V12.0115ZM29.948 12.2633C29.4352 12.2633 29.0448 12.5128 28.7769 13.0094C28.5598 13.4183 28.4489 14.0027 28.4489 14.7673C28.4489 15.675 28.6175 16.3449 28.9547 16.7792C29.1881 17.0818 29.5184 17.2342 29.9388 17.2342C30.2229 17.2342 30.4608 17.1696 30.6502 17.0379C30.8928 16.8716 31.0822 16.6036 31.2162 16.2364C31.3524 15.8691 31.4194 15.3909 31.4194 14.7996C31.4194 14.0974 31.3501 13.5707 31.2115 13.2219C31.0729 12.8731 30.8974 12.626 30.6849 12.4827C30.4701 12.3395 30.2252 12.2679 29.9457 12.2679L29.948 12.2633Z" fill="#334190"/>
<path d="M35.4896 14.8481V16.4951C35.4896 16.7676 35.5057 16.9363 35.5358 17.0056C35.5658 17.0725 35.6259 17.1326 35.7159 17.1834C35.806 17.2342 35.9261 17.2596 36.0786 17.2596H36.2588V17.4052H33.4106V17.2596H33.5908C33.7479 17.2596 33.8749 17.2319 33.972 17.1765C34.0413 17.1395 34.0944 17.0772 34.1336 16.9871C34.1637 16.9247 34.1775 16.7584 34.1775 16.4928V12.9932C34.1775 12.7207 34.1637 12.552 34.1336 12.4827C34.1036 12.4158 34.0436 12.3557 33.9558 12.3049C33.8657 12.2541 33.7456 12.2287 33.5931 12.2287H33.413V12.0831H36.2611V12.2287H36.0809C35.9238 12.2287 35.7968 12.2564 35.6998 12.3118C35.6305 12.3488 35.575 12.4111 35.5358 12.5012C35.5057 12.5636 35.4919 12.7276 35.4919 12.9955V14.5016H37.416V12.9955C37.416 12.723 37.4022 12.5544 37.3721 12.4851C37.3421 12.4181 37.2821 12.358 37.192 12.3072C37.1019 12.2564 36.9795 12.231 36.827 12.231H36.6515V12.0854H39.495V12.231H39.3171C39.1577 12.231 39.0284 12.2587 38.936 12.3141C38.8667 12.3511 38.8112 12.4134 38.772 12.5035C38.7419 12.5659 38.7281 12.7299 38.7281 12.9979V16.4974C38.7281 16.7699 38.7442 16.9386 38.772 17.0079C38.802 17.0749 38.862 17.1349 38.9521 17.1857C39.0422 17.2365 39.1646 17.262 39.3171 17.262H39.495V17.4075H36.6515V17.262H36.827C36.9887 17.262 37.1157 17.2342 37.2081 17.1788C37.2774 17.1418 37.3329 17.0795 37.3721 16.9894C37.4022 16.927 37.416 16.7607 37.416 16.4951V14.8481H35.4919H35.4896Z" fill="#334190"/>
<path d="M42.9505 15.5642L41.5392 15.5711L41.0402 16.4096C40.9686 16.5828 40.934 16.7237 40.934 16.8369C40.934 16.9871 40.9917 17.0956 41.1095 17.1673C41.1788 17.2088 41.3475 17.2412 41.6177 17.262V17.4075H39.8945V17.262C40.0793 17.2342 40.2341 17.1534 40.3519 17.024C40.472 16.8947 40.6198 16.6267 40.7954 16.2225L42.6479 11.9792H42.7196L44.5883 16.3403C44.7661 16.7538 44.914 17.0148 45.0272 17.1211C45.1126 17.2019 45.2351 17.2481 45.3944 17.262V17.4075H42.8882V17.262H42.9921C43.1931 17.262 43.334 17.2342 43.4171 17.1765C43.4726 17.1349 43.5003 17.0749 43.5003 16.9963C43.5003 16.9501 43.4934 16.9016 43.4772 16.8508C43.4726 16.8277 43.4333 16.7284 43.3617 16.5574L42.9505 15.5688V15.5642ZM42.738 15.0906L42.186 13.7671L41.6062 15.1207L42.738 15.0906Z" fill="#334190"/>
<path d="M55.1423 15.5642L53.7309 15.5711L53.232 16.4096C53.1604 16.5828 53.1257 16.7237 53.1257 16.8369C53.1257 16.9871 53.1835 17.0956 53.3013 17.1673C53.3706 17.2088 53.5392 17.2412 53.8094 17.262V17.4075H52.0862V17.262C52.271 17.2342 52.4258 17.1534 52.5436 17.024C52.6637 16.8947 52.8116 16.6267 52.9871 16.2225L54.8397 11.9792H54.9113L56.78 16.3403C56.9578 16.7538 57.1057 17.0148 57.2189 17.1211C57.3043 17.2019 57.4268 17.2481 57.5861 17.262V17.4075H55.0799V17.262H55.1838C55.3848 17.262 55.5257 17.2342 55.6089 17.1765C55.6643 17.1349 55.692 17.0749 55.692 16.9963C55.692 16.9501 55.6851 16.9016 55.6689 16.8508C55.6643 16.8277 55.625 16.7284 55.5534 16.5574L55.1423 15.5688V15.5642ZM54.9297 15.0906L54.3777 13.7671L53.8002 15.1207L54.9321 15.0906H54.9297Z" fill="#334190"/>
<path d="M50.6656 14.5848C51.1576 14.7026 51.5018 14.8458 51.7005 15.0121C51.9846 15.25 52.1278 15.5596 52.1278 15.9384C52.1278 16.338 51.9707 16.6683 51.6589 16.9317C51.2754 17.2481 50.7164 17.4052 49.9819 17.4052H47.3509V17.2597C47.5911 17.2597 47.7528 17.2366 47.8383 17.1904C47.9237 17.1442 47.9838 17.0841 48.0185 17.0125C48.0531 16.9386 48.0693 16.7584 48.0693 16.472V13.021C48.0693 12.7322 48.0531 12.5521 48.0185 12.4781C47.9838 12.4042 47.9237 12.3442 47.836 12.3003C47.7482 12.2564 47.5865 12.2333 47.3509 12.2333V12.0878H49.834C50.4277 12.0878 50.8481 12.1409 51.0953 12.2495C51.3424 12.358 51.5365 12.5197 51.6797 12.7369C51.8229 12.9517 51.8945 13.1827 51.8945 13.4252C51.8945 13.6816 51.8044 13.9103 51.6242 14.1089C51.4441 14.3099 51.1253 14.467 50.6702 14.5848H50.6656ZM49.275 14.7857V16.4928L49.2704 16.6891C49.2704 16.83 49.3051 16.9363 49.3767 17.0079C49.446 17.0795 49.5499 17.1164 49.6885 17.1164C49.8918 17.1164 50.0812 17.0703 50.2521 16.9779C50.4231 16.8855 50.5547 16.7492 50.6471 16.5736C50.7395 16.3981 50.7857 16.1994 50.7857 15.9823C50.7857 15.7328 50.7303 15.5111 50.6171 15.3147C50.5039 15.1161 50.3515 14.9798 50.1551 14.9012C49.9588 14.8227 49.6654 14.7857 49.2774 14.7881L49.275 14.7857ZM49.275 14.4785C49.6354 14.4785 49.9033 14.4369 50.0743 14.3538C50.2475 14.2706 50.3792 14.1528 50.4693 14.0004C50.5617 13.8479 50.6079 13.6562 50.6079 13.4206C50.6079 13.185 50.5617 12.9933 50.4716 12.8431C50.3815 12.693 50.2521 12.5775 50.0835 12.4989C49.9149 12.4204 49.6446 12.3834 49.275 12.3857V14.4808V14.4785Z" fill="#334190"/>
<path d="M59.7598 12.0878L62.6425 15.3863V13.0995C62.6425 12.7807 62.5917 12.5636 62.4924 12.4527C62.3538 12.3003 62.1228 12.2287 61.7994 12.2333V12.0878H63.7305V12.2333C63.4833 12.261 63.317 12.3003 63.2339 12.3442C63.1484 12.3904 63.0837 12.4643 63.0352 12.5682C62.9867 12.6722 62.9636 12.8477 62.9636 13.0995V17.5276H62.8181L58.8658 13.0995V16.4812C58.8658 16.7861 58.942 16.994 59.0968 17.1003C59.2516 17.2065 59.4271 17.262 59.6258 17.262H59.7644V17.4075H57.6924V17.262C58.0135 17.2597 58.2375 17.1996 58.3646 17.0818C58.4916 16.964 58.554 16.763 58.554 16.4812V12.7276L58.4292 12.5867C58.3045 12.4458 58.1959 12.3534 58.1012 12.3072C58.0065 12.2633 57.8702 12.2379 57.6924 12.2333V12.0878H59.7644H59.7598Z" fill="#334190"/>
<path d="M67.1214 14.1228L68.944 16.4651C69.2004 16.7954 69.4221 17.0172 69.6092 17.135C69.7432 17.2181 69.8864 17.2597 70.0366 17.2597V17.4052H67.3409V17.2597C67.5118 17.2435 67.6227 17.2158 67.6712 17.1765C67.7197 17.1373 67.7451 17.0888 67.7451 17.031C67.7451 16.9201 67.6273 16.7146 67.394 16.412L66.2067 14.8782L66.015 15.0422V16.4928C66.015 16.77 66.0312 16.9432 66.0612 17.0102C66.0912 17.0772 66.149 17.1373 66.2368 17.1858C66.3245 17.2343 66.4631 17.2574 66.6525 17.2574V17.4029H64.04V17.2574H64.211C64.3611 17.2574 64.4812 17.2297 64.5736 17.1742C64.6406 17.1373 64.6914 17.0749 64.7261 16.9848C64.7538 16.9224 64.7677 16.7561 64.7677 16.4905V12.991C64.7677 12.7184 64.7538 12.5498 64.7261 12.4805C64.6984 12.4135 64.6406 12.3534 64.5551 12.3026C64.4697 12.2518 64.3542 12.2264 64.2087 12.2264H64.0377V12.0809H66.6156V12.2264C66.44 12.2264 66.3061 12.2518 66.2137 12.3049C66.1467 12.3419 66.0959 12.4019 66.0566 12.4897C66.0266 12.5544 66.0104 12.723 66.0104 12.991V14.6472L67.9322 13.051C68.2002 12.8293 68.3342 12.6514 68.3342 12.5174C68.3342 12.4181 68.2787 12.3396 68.1702 12.2818C68.1147 12.2541 67.9761 12.2356 67.7544 12.2264V12.0809H69.7755V12.2264C69.5954 12.2403 69.4522 12.2726 69.3505 12.3257C69.2466 12.3789 69.0086 12.5613 68.6391 12.8686L67.1214 14.1159V14.1228Z" fill="#334190"/>
<path d="M46.0158 3.94535C46.1082 3.65892 46.2006 3.37249 46.293 3.08606C46.6741 3.31474 47.0668 3.53187 47.4317 3.79058C46.7457 4.88317 47.2677 6.19289 47.0829 7.38481C47.0344 7.76825 46.8034 8.08933 46.5909 8.39655C44.9139 8.39193 43.2346 8.38731 41.5576 8.39655C41.2851 8.41041 41.0171 8.35728 40.7538 8.31108C40.6845 8.47971 40.5251 8.43582 40.3888 8.39193C39.7097 8.44275 39.0144 8.41272 38.3399 8.34111C37.7994 8.21638 37.9172 7.60194 38.1736 7.26469C38.8065 7.56729 39.5134 7.53495 40.1601 7.28779C39.9291 6.88818 39.6335 6.50935 39.5157 6.0543C39.4302 5.76556 39.6658 5.52764 39.7975 5.29665C40.3911 5.821 40.6314 6.59713 41.1026 7.21387C41.2158 7.35247 41.3474 7.52571 41.553 7.5003C42.9759 7.51647 44.4011 7.50261 45.8287 7.50723C46.0435 7.49337 46.4061 7.54419 46.4246 7.23697C46.4061 6.13053 46.2722 5.02408 46.0204 3.94535H46.0158Z" fill="#334190"/>
<path d="M48.1686 3.85291C48.3788 3.53414 48.6168 3.21768 48.9933 3.09064C49.1642 3.92683 48.9771 4.77687 49.0626 5.61768C49.1273 6.63404 49.058 7.75897 48.3927 8.58361C48.2957 7.00825 48.2426 5.43058 48.1686 3.85291Z" fill="#334190"/>
<path d="M55.4195 3.82984C55.632 3.55496 55.8907 3.31473 56.2048 3.15765C56.2326 4.51126 56.2418 5.86487 56.2672 7.21617C56.4104 7.31319 56.5536 7.4102 56.6992 7.50722C58.2584 7.48181 59.8245 7.59038 61.3721 7.36863C61.3282 6.95515 61.3906 6.53475 61.7486 6.27604C62.2222 6.53013 62.0304 7.28085 62.4994 7.48874C64.8947 7.52801 67.2924 7.50722 69.6901 7.49567C69.8703 7.12609 69.7363 6.74957 69.4799 6.45852C69.5977 6.18595 69.8149 5.67084 70.1798 5.81405C70.5748 6.60404 70.5263 7.62041 70.0643 8.37344C68.2949 8.37806 66.5255 8.38268 64.7561 8.43119C60.4944 8.43119 56.2349 8.43119 51.9731 8.43119C51.5989 8.4335 51.2362 8.24639 50.9844 7.98075C50.7211 7.37556 50.8066 6.63407 51.197 6.09817C51.3517 6.53706 51.287 7.22772 51.8252 7.40558C52.9756 7.47488 54.1282 7.47488 55.2786 7.52339C55.3571 7.3617 55.4403 7.19538 55.4264 7.00828C55.4264 5.94803 55.431 4.89009 55.4195 3.83215V3.82984Z" fill="#334190"/>
<path d="M21.3159 3.7513C21.4476 3.64273 21.5792 3.53416 21.7132 3.4256C22.0967 3.55033 22.494 3.47642 22.8867 3.48797C23.0899 3.58498 23.1962 3.80442 23.3325 3.97074C23.217 4.09085 23.1084 4.2179 22.9791 4.32415C22.7388 4.27334 22.5171 4.16246 22.2768 4.11626C22.1429 4.18094 22.0204 4.26179 21.8934 4.33801C21.6971 4.14629 21.503 3.95226 21.3159 3.7513Z" fill="#334190"/>
<path d="M52.5782 5.00326C52.8346 4.52741 53.4237 3.90605 53.9781 4.36341C53.6916 4.61057 53.3613 4.79536 53.0495 5.00326C53.3567 5.15802 53.6939 5.19498 54.0358 5.20422C53.955 5.75167 53.3197 5.75629 52.934 5.99652C53.0287 5.60614 52.6337 5.36129 52.5782 5.00326Z" fill="#334190"/>
<path d="M61.0949 4.84388C61.2266 4.72377 61.3536 4.5921 61.5107 4.50201C61.7833 4.55052 62.0558 4.70529 62.1598 4.97786C62.1944 5.17189 62.0027 5.28046 61.8733 5.37978C61.4899 5.50452 61.3167 5.06563 61.0972 4.84388H61.0949Z" fill="#334190"/>
<path d="M30.9089 5.68932C30.7172 5.88335 30.5324 6.08432 30.3592 6.29452C30.969 6.39384 31.5372 6.6641 31.9392 7.14226C31.9022 7.20231 31.8306 7.32243 31.7959 7.38249C29.0009 7.36863 26.2059 7.41021 23.411 7.40328C22.9628 6.73802 23.0876 5.90183 22.8265 5.1719C22.7434 5.09336 22.6579 5.01483 22.5701 4.9386C22.1266 5.6847 21.3066 6.01964 20.6206 6.48855C20.1794 6.7796 20.0362 7.32012 20.0154 7.81906C20.8077 8.07084 21.6392 8.32262 22.4777 8.17941C22.6787 8.29721 22.8866 8.42888 23.1315 8.39654C25.811 8.40116 28.4905 8.36189 31.17 8.37113C32.0015 8.40347 32.5952 7.62272 33.4198 7.60886C33.6462 7.61579 33.8656 7.66661 34.0874 7.70356C34.286 7.47719 34.4246 7.21155 34.5355 6.93436C33.2951 6.61098 32.1655 5.95496 30.9089 5.68932ZM21.1726 6.93898C21.4868 6.74495 21.8125 6.57171 22.1359 6.39615C22.1913 6.64793 22.2398 6.89972 22.286 7.1515C21.9026 7.1515 21.5145 7.12609 21.1726 6.93898Z" fill="#334190"/>
<path d="M37.3374 7.13996C37.3513 6.43544 36.7438 5.77711 36.0416 5.73323C35.6258 5.71013 35.3879 6.1236 35.2677 6.46085C35.0968 6.96441 34.8104 7.55344 35.1176 8.06162C35.4918 8.55132 36.2795 8.14709 36.6375 8.64141C36.3303 9.31128 35.5634 9.63005 34.8589 9.60233C35.1453 10.0227 35.5911 10.5171 36.1571 10.3577C37.2312 9.70166 37.4483 8.29492 37.3397 7.13996H37.3374ZM35.9422 7.40329C35.903 7.32938 35.8221 7.17923 35.7829 7.10531C35.903 6.8928 36.0554 6.70108 36.2541 6.55556C36.4042 6.80041 36.5405 7.05681 36.6606 7.31783C36.4227 7.36402 36.1825 7.39405 35.9422 7.40098V7.40329Z" fill="#334190"/>
<path d="M69.1588 9.73862C69.2535 9.58847 69.3159 9.36672 69.5284 9.34593C69.8772 9.32052 70.1105 9.62081 70.3022 9.86797C70.1359 9.97885 69.9881 10.1821 69.7663 10.1498C69.4984 10.159 69.3505 9.87721 69.1588 9.73631V9.73862Z" fill="#334190"/>
<path d="M3.40248 20.9555V21.764H3.32625C3.28005 21.5769 3.23154 21.4429 3.17379 21.3621C3.11836 21.2812 3.04213 21.2165 2.94511 21.168C2.89198 21.1403 2.79728 21.1287 2.66099 21.1287H2.44617V23.4317C2.44617 23.5842 2.45541 23.6789 2.47158 23.7182C2.48775 23.7574 2.52009 23.7898 2.56629 23.8175C2.6148 23.8452 2.67947 23.8614 2.76032 23.8614H2.85503V23.9422H1.34203V23.8614H1.43674C1.5199 23.8614 1.58688 23.8452 1.64001 23.8152C1.67697 23.7944 1.707 23.7597 1.72779 23.7089C1.74396 23.6743 1.75089 23.5819 1.75089 23.4317V21.1287H1.543C1.34896 21.1287 1.20806 21.1703 1.11797 21.2558C0.993236 21.3736 0.917009 21.5445 0.882361 21.764H0.801514V20.9555H3.39786H3.40248Z" fill="#334190"/>
<path d="M4.56433 20.9555V22.1474C4.67289 22.0296 4.77453 21.9441 4.86462 21.8956C4.9547 21.8471 5.04941 21.8217 5.14874 21.8217C5.27347 21.8217 5.37973 21.8587 5.46982 21.9326C5.55759 22.0065 5.61765 22.092 5.64768 22.1913C5.67771 22.2906 5.69157 22.4569 5.69157 22.6926V23.4964C5.69157 23.6535 5.70543 23.7505 5.73315 23.7898C5.76086 23.829 5.81861 23.8521 5.90639 23.8637V23.9422H4.89696V23.8637C4.96856 23.8544 5.02169 23.8244 5.05634 23.7759C5.08175 23.7366 5.09561 23.6442 5.09561 23.4964V22.5794C5.09561 22.4084 5.08868 22.3022 5.07713 22.2583C5.06327 22.2144 5.04248 22.1821 5.01245 22.1567C4.98242 22.1336 4.94777 22.1197 4.90851 22.1197C4.85076 22.1197 4.79532 22.1405 4.74219 22.1798C4.68906 22.219 4.62901 22.2906 4.56664 22.3923V23.4941C4.56664 23.6419 4.57819 23.732 4.59898 23.769C4.6267 23.8198 4.68213 23.8498 4.76529 23.8614V23.9399H3.75586V23.8614C3.83902 23.8521 3.89907 23.8244 3.93372 23.7782C3.95682 23.7459 3.97068 23.6512 3.97068 23.4941V21.4036C3.97068 21.2489 3.95682 21.1518 3.9291 21.1126C3.90138 21.0756 3.84364 21.0502 3.75586 21.0387V20.9578H4.56895L4.56433 20.9555Z" fill="#334190"/>
<path d="M7.9091 22.8358H6.81651C6.83037 23.1084 6.89967 23.3255 7.02671 23.4826C7.12373 23.605 7.24153 23.6651 7.38013 23.6651C7.4656 23.6651 7.54182 23.6397 7.61343 23.5912C7.68504 23.5426 7.75665 23.4526 7.83749 23.3255L7.9091 23.374C7.80053 23.6004 7.68273 23.7621 7.55106 23.8568C7.4194 23.9515 7.26925 23.9977 7.09832 23.9977C6.80265 23.9977 6.57859 23.8799 6.42614 23.6466C6.30371 23.4572 6.24365 23.2216 6.24365 22.9421C6.24365 22.5979 6.33374 22.3253 6.51391 22.122C6.69409 21.9188 6.90429 21.8171 7.14683 21.8171C7.34779 21.8171 7.52334 21.9026 7.67118 22.0735C7.81901 22.2445 7.89986 22.4986 7.91141 22.8335L7.9091 22.8358ZM7.38475 22.688C7.38475 22.4524 7.3732 22.2884 7.34779 22.2006C7.32238 22.1128 7.28311 22.0458 7.23229 21.9996C7.20227 21.9742 7.163 21.9604 7.11218 21.9604C7.03826 21.9604 6.9782 21.9973 6.93201 22.0735C6.84885 22.2052 6.80727 22.3831 6.80727 22.6117V22.688H7.38706H7.38475Z" fill="#334190"/>
<path d="M9.0294 21.8818V22.3484C9.16106 22.1359 9.27656 21.995 9.37589 21.9257C9.47521 21.8564 9.57223 21.8218 9.66462 21.8218C9.74316 21.8218 9.80784 21.8472 9.85635 21.898C9.90485 21.9488 9.92795 22.0204 9.92795 22.1128C9.92795 22.2122 9.90486 22.2884 9.85866 22.3415C9.81246 22.3969 9.75702 22.4224 9.69234 22.4224C9.61612 22.4224 9.55144 22.3969 9.496 22.3484C9.44056 22.2976 9.40822 22.2699 9.39898 22.2653C9.38512 22.256 9.36896 22.2514 9.35048 22.2514C9.3089 22.2514 9.26963 22.2676 9.23267 22.2999C9.17492 22.3507 9.13103 22.42 9.10101 22.5124C9.05481 22.6557 9.03171 22.8127 9.03171 22.9837V23.5796C9.03171 23.6628 9.03864 23.7159 9.04788 23.7413C9.06405 23.7806 9.08946 23.8106 9.1241 23.8291C9.15644 23.8476 9.21419 23.8591 9.29273 23.8637V23.9423H8.21631V23.8637C8.30409 23.8568 8.36183 23.8314 8.39186 23.7898C8.42189 23.7482 8.43806 23.6374 8.43806 23.4595V22.3207C8.43806 22.2029 8.43344 22.129 8.42189 22.0967C8.40803 22.0551 8.38724 22.025 8.35952 22.0066C8.3318 21.9881 8.28561 21.9742 8.21631 21.9673V21.8865H9.0294V21.8818Z" fill="#334190"/>
<path d="M11.7921 22.8358H10.6996C10.7134 23.1084 10.7827 23.3255 10.9098 23.4826C11.0068 23.605 11.1246 23.6651 11.2632 23.6651C11.3486 23.6651 11.4249 23.6397 11.4965 23.5912C11.5658 23.5426 11.6397 23.4526 11.7205 23.3255L11.7921 23.374C11.6836 23.6004 11.5658 23.7621 11.4341 23.8568C11.3024 23.9515 11.1523 23.9977 10.9791 23.9977C10.6834 23.9977 10.4593 23.8799 10.3069 23.6466C10.1844 23.4572 10.1244 23.2216 10.1244 22.9421C10.1244 22.5979 10.2145 22.3253 10.3946 22.122C10.5748 21.9188 10.785 21.8171 11.0276 21.8171C11.2285 21.8171 11.4041 21.9026 11.5519 22.0735C11.6997 22.2445 11.7806 22.4986 11.7921 22.8335V22.8358ZM11.2678 22.688C11.2678 22.4524 11.2562 22.2884 11.2308 22.2006C11.2054 22.1128 11.1662 22.0458 11.1153 21.9996C11.0853 21.9742 11.046 21.9604 10.9952 21.9604C10.9213 21.9604 10.8613 21.9973 10.8151 22.0735C10.7319 22.2052 10.6903 22.3831 10.6903 22.6117V22.688H11.2701H11.2678Z" fill="#334190"/>
<path d="M12.3395 22.353V22.256C12.5035 22.1821 12.6237 22.0874 12.6999 21.9719C12.7738 21.8564 12.8108 21.7363 12.8108 21.6115C12.8108 21.5884 12.8061 21.57 12.7969 21.5561C12.7877 21.5445 12.7761 21.5376 12.7669 21.5376C12.7576 21.5376 12.7461 21.5422 12.7276 21.5538C12.686 21.5792 12.6352 21.5907 12.5751 21.5907C12.492 21.5907 12.4181 21.5561 12.3557 21.4891C12.2933 21.4221 12.2633 21.3413 12.2633 21.2512C12.2633 21.1542 12.298 21.0687 12.3696 20.9948C12.4412 20.9209 12.5266 20.8839 12.6283 20.8839C12.7507 20.8839 12.8546 20.9324 12.9424 21.0294C13.0279 21.1265 13.0718 21.2604 13.0718 21.4314C13.0718 21.6416 13.0094 21.8287 12.887 21.9904C12.7646 22.1544 12.5821 22.2722 12.3395 22.3484V22.353Z" fill="#334190"/>
<path d="M14.6795 21.824L14.7118 22.5262H14.6402C14.5548 22.3184 14.4647 22.1751 14.37 22.0989C14.2776 22.0227 14.1852 21.9834 14.0928 21.9834C14.035 21.9834 13.9842 22.0042 13.9426 22.0435C13.9011 22.0827 13.8803 22.1313 13.8803 22.1821C13.8803 22.2213 13.8941 22.2606 13.9219 22.2976C13.9681 22.3576 14.0951 22.4616 14.303 22.6071C14.5109 22.7526 14.6495 22.8774 14.7165 22.979C14.7835 23.0806 14.8158 23.1961 14.8158 23.3209C14.8158 23.4364 14.7881 23.5472 14.7326 23.6581C14.6772 23.769 14.5987 23.8521 14.497 23.9122C14.3954 23.9723 14.2845 24 14.1621 24C14.0674 24 13.9403 23.9699 13.781 23.9076C13.7394 23.8914 13.7093 23.8845 13.6932 23.8845C13.647 23.8845 13.6077 23.9214 13.5754 23.9954H13.5061L13.4714 23.2562H13.543C13.6077 23.4502 13.6955 23.5957 13.8064 23.6928C13.9172 23.7898 14.0235 23.8383 14.1228 23.8383C14.1898 23.8383 14.2476 23.8175 14.2891 23.7736C14.333 23.7297 14.3538 23.6789 14.3538 23.6165C14.3538 23.5472 14.333 23.4849 14.2891 23.434C14.2476 23.3832 14.1505 23.3047 14.0027 23.2007C13.7856 23.046 13.6447 22.9259 13.58 22.845C13.4853 22.7249 13.4391 22.5909 13.4391 22.4477C13.4391 22.2883 13.4922 22.1451 13.5985 22.0181C13.7047 21.8887 13.8572 21.8263 14.0581 21.8263C14.1667 21.8263 14.2707 21.8541 14.3723 21.9072C14.4116 21.928 14.4416 21.9395 14.467 21.9395C14.4924 21.9395 14.5132 21.9349 14.5294 21.9234C14.5455 21.9118 14.5709 21.8818 14.6033 21.8287H14.6749L14.6795 21.824Z" fill="#334190"/>
<path d="M17.5207 21.824L17.553 22.5262H17.4791C17.389 22.3184 17.2966 22.1751 17.1996 22.0989C17.1026 22.0227 17.0079 21.9834 16.9132 21.9834C16.8531 21.9834 16.8023 22.0042 16.7584 22.0435C16.7168 22.0827 16.6937 22.1313 16.6937 22.1821C16.6937 22.2213 16.7076 22.2606 16.7376 22.2976C16.7838 22.3576 16.9155 22.4616 17.1326 22.6071C17.3474 22.7526 17.4906 22.8774 17.5576 22.979C17.6269 23.0806 17.6593 23.1961 17.6593 23.3209C17.6593 23.4364 17.6315 23.5472 17.5738 23.6581C17.516 23.769 17.4352 23.8521 17.3313 23.9122C17.2273 23.9699 17.1118 24 16.9848 24C16.8854 24 16.7561 23.9699 16.5898 23.9076C16.5459 23.8914 16.5159 23.8845 16.4997 23.8845C16.4512 23.8845 16.4119 23.9214 16.3796 23.9954H16.308L16.2733 23.2562H16.3472C16.4142 23.4502 16.5043 23.5957 16.6198 23.6928C16.7353 23.7898 16.8439 23.8383 16.9478 23.8383C17.0171 23.8383 17.0749 23.8175 17.1211 23.7736C17.1649 23.7297 17.188 23.6789 17.188 23.6165C17.188 23.5472 17.1649 23.4849 17.1211 23.434C17.0772 23.3832 16.9778 23.3047 16.8254 23.2007C16.6013 23.046 16.4558 22.9259 16.3888 22.845C16.2918 22.7249 16.2433 22.5909 16.2433 22.4477C16.2433 22.2883 16.2987 22.1451 16.4073 22.0181C16.5159 21.8887 16.6752 21.8263 16.8808 21.8263C16.9917 21.8263 17.1003 21.8541 17.2042 21.9072C17.2435 21.928 17.2758 21.9395 17.3012 21.9395C17.3266 21.9395 17.3497 21.9349 17.3659 21.9234C17.3821 21.9118 17.4075 21.8818 17.4421 21.8287H17.516L17.5207 21.824Z" fill="#334190"/>
<path d="M18.9897 21.8195C19.1676 21.8195 19.3362 21.8657 19.4887 21.9581C19.6434 22.0504 19.7589 22.1821 19.8398 22.353C19.9206 22.524 19.9599 22.7088 19.9599 22.912C19.9599 23.2031 19.886 23.4479 19.7381 23.6443C19.558 23.8822 19.3108 24 18.9967 24C18.6825 24 18.4492 23.8914 18.2806 23.6743C18.1143 23.4572 18.0288 23.2054 18.0288 22.919C18.0288 22.6325 18.1143 22.3669 18.2852 22.1475C18.4561 21.928 18.6894 21.8195 18.9874 21.8195H18.9897ZM18.999 21.9765C18.9251 21.9765 18.8604 22.0043 18.8072 22.062C18.7541 22.1174 18.7195 22.2306 18.701 22.3969C18.6848 22.5633 18.6756 22.7942 18.6756 23.0922C18.6756 23.2493 18.6848 23.3948 18.7056 23.5334C18.7218 23.6374 18.7564 23.7159 18.8096 23.7713C18.8627 23.8268 18.9227 23.8522 18.9897 23.8522C19.0567 23.8522 19.1098 23.8337 19.1537 23.7967C19.2115 23.7459 19.2484 23.6766 19.2692 23.5865C19.2993 23.4479 19.3131 23.1661 19.3131 22.7411C19.3131 22.4916 19.2993 22.3207 19.2715 22.2283C19.2438 22.1359 19.2022 22.0666 19.1491 22.025C19.1122 21.995 19.0613 21.9788 18.999 21.9788V21.9765Z" fill="#334190"/>
<path d="M22.3461 21.8818V22.1521C22.4593 22.0297 22.5632 21.9419 22.6602 21.8934C22.7572 21.8449 22.8612 21.8195 22.9767 21.8195C23.1083 21.8195 23.2192 21.8495 23.3093 21.9119C23.3994 21.9742 23.4687 22.0666 23.5172 22.1937C23.635 22.062 23.7482 21.9673 23.8544 21.9072C23.9607 21.8472 24.0739 21.8195 24.1917 21.8195C24.3349 21.8195 24.4481 21.8518 24.5312 21.9165C24.6167 21.9812 24.6745 22.0643 24.7068 22.1659C24.7391 22.2676 24.7553 22.427 24.7553 22.6464V23.4895C24.7553 23.6489 24.7692 23.7459 24.7992 23.7852C24.8269 23.8245 24.887 23.8476 24.9794 23.8591V23.9376H23.9168V23.8591C24 23.8522 24.0623 23.8198 24.1016 23.7621C24.127 23.7228 24.1409 23.6304 24.1409 23.4895V22.6048C24.1409 22.4223 24.1339 22.3045 24.1178 22.256C24.1039 22.2052 24.0808 22.1683 24.0485 22.1452C24.0161 22.1197 23.9792 22.1082 23.9376 22.1082C23.8752 22.1082 23.8106 22.1313 23.7459 22.1775C23.6812 22.2237 23.6165 22.293 23.5495 22.3854V23.4895C23.5495 23.6374 23.5611 23.7321 23.5865 23.769C23.6211 23.8222 23.6858 23.8545 23.7805 23.8591V23.9376H22.7157V23.8591C22.7734 23.8568 22.8173 23.8406 22.8519 23.8152C22.8843 23.7898 22.9074 23.7598 22.9189 23.7228C22.9305 23.6859 22.9351 23.6096 22.9351 23.4872V22.6025C22.9351 22.4154 22.9282 22.2999 22.912 22.2537C22.8981 22.2075 22.8727 22.1706 22.8381 22.1428C22.8034 22.1174 22.7665 22.1036 22.7272 22.1036C22.6695 22.1036 22.614 22.1197 22.5655 22.1498C22.4962 22.196 22.4223 22.2722 22.3461 22.3831V23.4872C22.3461 23.6327 22.3599 23.7274 22.39 23.7736C22.4177 23.8198 22.4777 23.8476 22.5701 23.8568V23.9353H21.5099V23.8568C21.5953 23.8476 21.6577 23.8198 21.6947 23.7736C21.7201 23.7413 21.7316 23.6466 21.7316 23.4872V22.3253C21.7316 22.1706 21.7178 22.0735 21.6877 22.0343C21.66 21.995 21.6 21.9719 21.5076 21.9604V21.8795H22.3461V21.8818Z" fill="#334190"/>
<path d="M27.2777 21.8818V23.4918C27.2777 23.6489 27.2916 23.7459 27.3216 23.7852C27.3516 23.8245 27.4094 23.8476 27.4995 23.8591V23.9377H26.661V23.6628C26.5616 23.7806 26.4646 23.8661 26.3653 23.9192C26.266 23.9723 26.1574 24 26.035 24C25.9126 24 25.8155 23.9654 25.7254 23.8938C25.6354 23.8222 25.5753 23.739 25.543 23.6443C25.5129 23.5496 25.4968 23.3833 25.4968 23.1454V22.3276C25.4968 22.1729 25.4829 22.0759 25.4529 22.0366C25.4252 21.9973 25.3651 21.9742 25.2727 21.9627V21.8818H26.1112V23.2886C26.1112 23.4341 26.1181 23.5288 26.132 23.5727C26.1459 23.6143 26.169 23.6466 26.199 23.6697C26.229 23.6905 26.2637 23.702 26.3029 23.702C26.3561 23.702 26.4046 23.6882 26.4461 23.6605C26.5039 23.6212 26.5755 23.545 26.6563 23.4295V22.33C26.6563 22.1752 26.6425 22.0782 26.6125 22.0389C26.5847 21.9996 26.5247 21.9765 26.4323 21.965V21.8841H27.2708L27.2777 21.8818Z" fill="#334190"/>
<path d="M29.523 23.4087L29.5923 23.4618C29.4953 23.6443 29.3752 23.7783 29.2297 23.8684C29.0841 23.9561 28.9317 24.0023 28.7677 24.0023C28.4928 24.0023 28.2733 23.8984 28.1093 23.6928C27.9453 23.4849 27.8622 23.2378 27.8622 22.9467C27.8622 22.6557 27.9361 22.42 28.0862 22.2075C28.2664 21.9511 28.5159 21.8218 28.8323 21.8218C29.0449 21.8218 29.2135 21.8749 29.3405 21.9835C29.4653 22.0897 29.5276 22.2098 29.5276 22.3415C29.5276 22.4247 29.5022 22.4917 29.4514 22.5425C29.4006 22.5933 29.3336 22.6164 29.2527 22.6164C29.1673 22.6164 29.0957 22.5887 29.0379 22.5309C28.9825 22.4732 28.9455 22.3715 28.934 22.226C28.9247 22.1336 28.904 22.0689 28.8693 22.032C28.8347 21.995 28.7954 21.9765 28.7515 21.9765C28.6822 21.9765 28.6198 22.0135 28.5713 22.0897C28.4951 22.2029 28.4558 22.3762 28.4558 22.6095C28.4558 22.8035 28.4859 22.9883 28.5482 23.1661C28.6106 23.344 28.6938 23.4734 28.8023 23.5611C28.8832 23.6235 28.9779 23.6558 29.0887 23.6558C29.1604 23.6558 29.2297 23.6397 29.2943 23.605C29.359 23.5704 29.4352 23.508 29.523 23.4133V23.4087Z" fill="#334190"/>
<path d="M30.731 20.9555V22.1474C30.8442 22.0296 30.9482 21.9441 31.0406 21.8956C31.1353 21.8471 31.2323 21.8217 31.3339 21.8217C31.4633 21.8217 31.5742 21.8587 31.6643 21.9326C31.7566 22.0065 31.8167 22.092 31.8467 22.1913C31.8768 22.2906 31.8929 22.4569 31.8929 22.6926V23.4964C31.8929 23.6535 31.9068 23.7505 31.9368 23.7898C31.9668 23.829 32.0246 23.8521 32.1147 23.8637V23.9422H31.0706V23.8637C31.1445 23.8544 31.2 23.8244 31.2346 23.7759C31.26 23.7366 31.2739 23.6442 31.2739 23.4964V22.5794C31.2739 22.4084 31.2669 22.3022 31.2531 22.2583C31.2392 22.2144 31.2184 22.1821 31.1861 22.1567C31.1538 22.1336 31.1191 22.1197 31.0798 22.1197C31.0221 22.1197 30.9643 22.1405 30.9089 22.1798C30.8535 22.219 30.7934 22.2906 30.7287 22.3923V23.4941C30.7287 23.6419 30.7403 23.732 30.7611 23.769C30.7888 23.8198 30.8465 23.8498 30.932 23.8614V23.9399H29.8879V23.8614C29.9734 23.8521 30.0358 23.8244 30.0727 23.7782C30.0981 23.7459 30.1097 23.6512 30.1097 23.4941V21.4036C30.1097 21.2489 30.0958 21.1518 30.0658 21.1126C30.0381 21.0756 29.978 21.0502 29.8856 21.0387V20.9578H30.7241L30.731 20.9555Z" fill="#334190"/>
<path d="M34.6811 21.1288V21.8818H35.1708V22.0989H34.6811V23.3694C34.6811 23.4872 34.6857 23.5657 34.6972 23.6004C34.7088 23.635 34.7273 23.6628 34.755 23.6835C34.7827 23.7043 34.8081 23.7159 34.8312 23.7159C34.9259 23.7159 35.016 23.6443 35.1015 23.4988L35.1685 23.5473C35.0507 23.8291 34.8566 23.97 34.5887 23.97C34.4593 23.97 34.3484 23.933 34.2584 23.8614C34.1683 23.7898 34.1105 23.7066 34.0851 23.6189C34.0713 23.5681 34.062 23.4341 34.062 23.2146V22.1036H33.7941V22.0273C33.9789 21.8957 34.1359 21.7594 34.2653 21.6162C34.3946 21.473 34.5078 21.3113 34.6048 21.1334H34.6765L34.6811 21.1288Z" fill="#334190"/>
<path d="M36.3811 21.8195C36.5613 21.8195 36.7276 21.8657 36.88 21.9581C37.0325 22.0504 37.1503 22.1821 37.2311 22.353C37.312 22.524 37.3513 22.7088 37.3513 22.912C37.3513 23.2031 37.2773 23.4479 37.1295 23.6443C36.9493 23.8822 36.7022 24 36.388 24C36.0739 24 35.8406 23.8914 35.6719 23.6743C35.5056 23.4572 35.4202 23.2054 35.4202 22.919C35.4202 22.6325 35.5056 22.3669 35.6766 22.1475C35.8475 21.928 36.0808 21.8195 36.3788 21.8195H36.3811ZM36.3903 21.9765C36.3164 21.9765 36.2517 22.0043 36.1986 22.062C36.1455 22.1174 36.1108 22.2306 36.0924 22.3969C36.0762 22.5633 36.0669 22.7942 36.0669 23.0922C36.0669 23.2493 36.0762 23.3948 36.097 23.5334C36.1131 23.6374 36.1478 23.7159 36.2009 23.7713C36.254 23.8268 36.3141 23.8522 36.3811 23.8522C36.4481 23.8522 36.5012 23.8337 36.5451 23.7967C36.6028 23.7459 36.6398 23.6766 36.6606 23.5865C36.6906 23.4479 36.7045 23.1661 36.7045 22.7411C36.7045 22.4916 36.6906 22.3207 36.6629 22.2283C36.6352 22.1359 36.5936 22.0666 36.5405 22.025C36.5012 21.995 36.4527 21.9788 36.3903 21.9788V21.9765Z" fill="#334190"/>
<path d="M40.0631 20.9555V23.5126C40.0631 23.6581 40.0793 23.7505 40.114 23.7921C40.1486 23.8313 40.2133 23.8568 40.3126 23.8614V23.9399H39.2015V23.8614C39.2916 23.8591 39.3609 23.8313 39.4048 23.7828C39.4348 23.7482 39.4487 23.6604 39.4487 23.5149V21.3851C39.4487 21.2419 39.4325 21.1495 39.3979 21.108C39.3632 21.0687 39.2986 21.0456 39.2015 21.0387V20.9578H40.0631V20.9555Z" fill="#334190"/>
<path d="M41.5253 21.8195C41.7055 21.8195 41.8718 21.8657 42.0243 21.9581C42.179 22.0504 42.2945 22.1821 42.3754 22.353C42.4562 22.524 42.4955 22.7088 42.4955 22.912C42.4955 23.2031 42.4216 23.4479 42.2737 23.6443C42.0936 23.8822 41.8464 24 41.5322 24C41.2181 24 40.9848 23.8914 40.8162 23.6743C40.6499 23.4572 40.5644 23.2054 40.5644 22.919C40.5644 22.6325 40.6499 22.3669 40.8208 22.1475C40.9917 21.928 41.225 21.8195 41.523 21.8195H41.5253ZM41.5346 21.9765C41.4606 21.9765 41.396 22.0043 41.3428 22.062C41.2897 22.1174 41.2551 22.2306 41.2366 22.3969C41.2204 22.5633 41.2112 22.7942 41.2112 23.0922C41.2112 23.2493 41.2204 23.3948 41.2412 23.5334C41.2574 23.6374 41.292 23.7159 41.3451 23.7713C41.3983 23.8268 41.4583 23.8522 41.5253 23.8522C41.5923 23.8522 41.6454 23.8337 41.6893 23.7967C41.7471 23.7459 41.784 23.6766 41.8048 23.5865C41.8348 23.4479 41.8487 23.1661 41.8487 22.7411C41.8487 22.4916 41.8348 22.3207 41.8071 22.2283C41.7794 22.1359 41.7378 22.0666 41.6847 22.025C41.6477 21.995 41.5969 21.9788 41.5346 21.9788V21.9765Z" fill="#334190"/>
<path d="M43.8237 21.8195C44.0038 21.8195 44.1701 21.8657 44.3226 21.9581C44.4751 22.0504 44.5929 22.1821 44.6737 22.353C44.7546 22.524 44.7938 22.7088 44.7938 22.912C44.7938 23.2031 44.7199 23.4479 44.5721 23.6443C44.3919 23.8822 44.1447 24 43.8306 24C43.5164 24 43.2831 23.8914 43.1145 23.6743C42.9482 23.4572 42.8627 23.2054 42.8627 22.919C42.8627 22.6325 42.9482 22.3669 43.1191 22.1475C43.2901 21.928 43.5234 21.8195 43.8213 21.8195H43.8237ZM43.8329 21.9765C43.759 21.9765 43.6943 22.0043 43.6412 22.062C43.588 22.1174 43.5534 22.2306 43.5349 22.3969C43.5187 22.5633 43.5095 22.7942 43.5095 23.0922C43.5095 23.2493 43.5187 23.3948 43.5395 23.5334C43.5557 23.6374 43.5904 23.7159 43.6435 23.7713C43.6966 23.8268 43.7567 23.8522 43.8237 23.8522C43.8906 23.8522 43.9438 23.8337 43.9877 23.7967C44.0454 23.7459 44.0824 23.6766 44.1032 23.5865C44.1332 23.4479 44.147 23.1661 44.147 22.7411C44.147 22.4916 44.1332 22.3207 44.1055 22.2283C44.0777 22.1359 44.0362 22.0666 43.983 22.025C43.9438 21.995 43.8953 21.9788 43.8329 21.9788V21.9765Z" fill="#334190"/>
<path d="M45.9904 20.9555V22.9189L46.4685 22.45C46.5678 22.3553 46.6279 22.286 46.6533 22.2421C46.6764 22.2005 46.6903 22.159 46.6903 22.1197C46.6903 22.0804 46.6741 22.0481 46.6418 22.0204C46.6094 21.995 46.5471 21.9742 46.4523 21.9626V21.8818H47.374V21.9626C47.2862 21.9672 47.21 21.988 47.143 22.025C47.076 22.062 46.9467 22.1751 46.7549 22.3622L46.5309 22.5817L47.016 23.2908C47.21 23.5796 47.3278 23.739 47.3648 23.7759C47.4156 23.8267 47.4779 23.8544 47.5542 23.8591V23.9376H46.4916V23.8591C46.5378 23.8591 46.5725 23.8498 46.5933 23.8337C46.614 23.8152 46.6256 23.7967 46.6256 23.7759C46.6256 23.7413 46.5956 23.6789 46.5332 23.5888L46.1266 22.9928L45.995 23.1222V23.4918C45.995 23.6489 46.0088 23.7459 46.0389 23.7851C46.0689 23.8244 46.129 23.8475 46.219 23.8591V23.9376H45.1565V23.8591C45.242 23.8498 45.3043 23.8221 45.3413 23.7759C45.3667 23.7436 45.3782 23.6489 45.3782 23.4918V21.4013C45.3782 21.2466 45.3644 21.1495 45.3343 21.1103C45.3066 21.0733 45.2466 21.0479 45.1542 21.0364V20.9555H45.9927H45.9904Z" fill="#334190"/>
<path d="M50.0304 22.0966V23.5241C50.0304 23.6627 50.0443 23.7482 50.0743 23.7828C50.1205 23.8383 50.2083 23.8614 50.333 23.8568V23.9353H49.1203V23.8568C49.2127 23.8568 49.2774 23.8452 49.3166 23.8244C49.3559 23.8036 49.3813 23.7759 49.3975 23.7413C49.4113 23.7066 49.4183 23.6327 49.4183 23.5218V22.0943H49.118V21.8795H49.4183V21.6231C49.4183 21.4129 49.4945 21.235 49.6493 21.0941C49.804 20.9532 50.0142 20.8816 50.2776 20.8816C50.4577 20.8816 50.5917 20.9162 50.6795 20.9832C50.7673 21.0502 50.8111 21.1264 50.8111 21.2073C50.8111 21.2743 50.7834 21.3297 50.7303 21.3782C50.6749 21.4267 50.6033 21.4498 50.5155 21.4498C50.4393 21.4498 50.3792 21.4314 50.333 21.3898C50.2891 21.3505 50.266 21.3066 50.266 21.2581C50.266 21.2442 50.2706 21.2188 50.2799 21.1773C50.2868 21.1519 50.2891 21.1288 50.2891 21.1057C50.2891 21.0756 50.2799 21.0525 50.2614 21.0387C50.2383 21.0156 50.2083 21.0063 50.1759 21.0063C50.1343 21.0063 50.0974 21.0248 50.0697 21.0595C50.0419 21.0941 50.0258 21.1519 50.0258 21.2281L50.0304 21.6138V21.8749H50.333V22.0897H50.0304V22.0966Z" fill="#334190"/>
<path d="M51.6451 21.8195C51.8229 21.8195 51.9916 21.8657 52.144 21.9581C52.2988 22.0504 52.4143 22.1821 52.4951 22.353C52.576 22.524 52.6152 22.7088 52.6152 22.912C52.6152 23.2031 52.5413 23.4479 52.3935 23.6443C52.2133 23.8822 51.9661 24 51.652 24C51.3378 24 51.1045 23.8914 50.9359 23.6743C50.7696 23.4572 50.6841 23.2054 50.6841 22.919C50.6841 22.6325 50.7696 22.3669 50.9405 22.1475C51.1115 21.928 51.3448 21.8195 51.6428 21.8195H51.6451ZM51.6543 21.9765C51.5804 21.9765 51.5157 22.0043 51.4626 22.062C51.4095 22.1174 51.3748 22.2306 51.3563 22.3969C51.3402 22.5633 51.3309 22.7942 51.3309 23.0922C51.3309 23.2493 51.3402 23.3948 51.3609 23.5334C51.3771 23.6374 51.4118 23.7159 51.4649 23.7713C51.518 23.8268 51.5781 23.8522 51.6451 23.8522C51.7121 23.8522 51.7652 23.8337 51.8091 23.7967C51.8668 23.7459 51.9038 23.6766 51.9246 23.5865C51.9546 23.4479 51.9685 23.1661 51.9685 22.7411C51.9685 22.4916 51.9546 22.3207 51.9269 22.2283C51.8992 22.1359 51.8576 22.0666 51.8045 22.025C51.7652 21.995 51.7167 21.9788 51.6543 21.9788V21.9765Z" fill="#334190"/>
<path d="M53.8279 21.8818V22.3484C53.9642 22.1359 54.0843 21.995 54.186 21.9257C54.2876 21.8564 54.3869 21.8218 54.4839 21.8218C54.5671 21.8218 54.6318 21.8472 54.6803 21.898C54.7288 21.9488 54.7542 22.0204 54.7542 22.1128C54.7542 22.2122 54.7311 22.2884 54.6826 22.3415C54.6341 22.3969 54.5787 22.4224 54.5094 22.4224C54.4308 22.4224 54.3638 22.3969 54.3061 22.3484C54.2483 22.2976 54.216 22.2699 54.2044 22.2653C54.1906 22.256 54.1721 22.2514 54.1536 22.2514C54.1097 22.2514 54.0705 22.2676 54.0335 22.2999C53.9735 22.3507 53.9273 22.42 53.8972 22.5124C53.851 22.6557 53.8279 22.8127 53.8279 22.9837V23.5796C53.8279 23.6628 53.8349 23.7159 53.8464 23.7413C53.8649 23.7806 53.8903 23.8106 53.9249 23.8291C53.9596 23.8476 54.0173 23.8591 54.1005 23.8637V23.9423H52.9894V23.8637C53.0795 23.8568 53.1396 23.8314 53.1719 23.7898C53.2043 23.7482 53.2181 23.6374 53.2181 23.4595V22.3207C53.2181 22.2029 53.2112 22.129 53.1996 22.0967C53.1858 22.0551 53.1627 22.025 53.135 22.0066C53.1072 21.9881 53.0587 21.9742 52.9871 21.9673V21.8865H53.8279V21.8818Z" fill="#334190"/>
<path d="M57.0595 24L56.4958 22.4893L55.9438 24H55.8283L55.2808 22.5078C55.1977 22.2814 55.1284 22.1313 55.0729 22.0643C55.036 22.0181 54.9805 21.9835 54.9066 21.9627V21.8818H55.9461V21.9627C55.8768 21.9627 55.826 21.9719 55.8006 21.9927C55.7751 22.0135 55.7613 22.0366 55.7613 22.062C55.7613 22.0874 55.7844 22.1613 55.8306 22.2861L56.1332 23.0899L56.4242 22.2861L56.4011 22.2329C56.3572 22.1221 56.318 22.0528 56.2856 22.0227C56.2533 21.9927 56.2025 21.9719 56.1332 21.9604V21.8795H57.1865V21.9604C57.1033 21.965 57.0525 21.9765 57.0294 21.995C57.0063 22.0135 56.9971 22.0389 56.9971 22.0735C56.9971 22.1082 57.0179 22.1775 57.0618 22.2861L57.3528 23.0899L57.6161 22.3507C57.6531 22.2445 57.6739 22.1729 57.6739 22.1359C57.6739 22.0782 57.66 22.0366 57.6323 22.0112C57.6046 21.9858 57.5492 21.9696 57.4706 21.9627V21.8818H58.0804V21.9627C58.0135 21.9719 57.9603 21.995 57.9187 22.0343C57.8795 22.0735 57.8287 22.1844 57.764 22.3646L57.1865 24H57.0618H57.0595Z" fill="#334190"/>
<path d="M59.4549 23.6351C59.2031 23.8568 58.979 23.9677 58.7804 23.9677C58.6626 23.9677 58.5656 23.9284 58.487 23.8522C58.4085 23.776 58.3715 23.6789 58.3715 23.5635C58.3715 23.4064 58.4385 23.2655 58.5748 23.1407C58.7088 23.016 59.0044 22.8474 59.4572 22.6395V22.4316C59.4572 22.2768 59.4479 22.1775 59.4318 22.1382C59.4156 22.099 59.3833 22.062 59.3371 22.032C59.2909 22.0019 59.2377 21.9858 59.1777 21.9858C59.083 21.9858 59.0044 22.0066 58.9421 22.0505C58.9051 22.0759 58.8843 22.1082 58.8843 22.1429C58.8843 22.1729 58.9051 22.2122 58.9467 22.2584C59.0021 22.3207 59.0298 22.3831 59.0298 22.4408C59.0298 22.5124 59.0021 22.5748 58.949 22.6256C58.8959 22.6764 58.8243 22.7019 58.7388 22.7019C58.6464 22.7019 58.5679 22.6741 58.5055 22.6187C58.4431 22.5633 58.4108 22.4986 58.4108 22.4224C58.4108 22.3161 58.4524 22.2168 58.5355 22.1198C58.6187 22.0227 58.7365 21.9488 58.8843 21.898C59.0345 21.8472 59.1892 21.8218 59.3509 21.8218C59.5473 21.8218 59.6997 21.8634 59.8152 21.9465C59.9284 22.0297 60.0023 22.1198 60.037 22.2168C60.0578 22.2791 60.067 22.42 60.067 22.6418V23.441C60.067 23.5357 60.0716 23.5935 60.0785 23.6189C60.0855 23.642 60.097 23.6605 60.1109 23.672C60.1247 23.6836 60.1432 23.6905 60.1617 23.6905C60.1987 23.6905 60.2379 23.6628 60.2772 23.6096L60.3442 23.6628C60.2703 23.7713 60.194 23.8499 60.1155 23.8984C60.037 23.9469 59.9469 23.9723 59.8476 23.9723C59.7297 23.9723 59.6374 23.9446 59.5727 23.8891C59.5057 23.8337 59.4664 23.7506 59.4526 23.6397L59.4549 23.6351ZM59.4549 23.4734V22.785C59.277 22.889 59.1453 22.9998 59.0599 23.1199C59.0021 23.1985 58.9744 23.2793 58.9744 23.3602C58.9744 23.4272 58.9975 23.4872 59.046 23.538C59.083 23.5773 59.1338 23.5981 59.2008 23.5981C59.2747 23.5981 59.3602 23.5565 59.4572 23.4757L59.4549 23.4734Z" fill="#334190"/>
<path d="M61.4714 21.8818V22.3484C61.6077 22.1359 61.7278 21.995 61.8295 21.9257C61.9311 21.8564 62.0304 21.8218 62.1274 21.8218C62.2106 21.8218 62.2753 21.8472 62.3238 21.898C62.3723 21.9488 62.3977 22.0204 62.3977 22.1128C62.3977 22.2122 62.3746 22.2884 62.3261 22.3415C62.2776 22.3969 62.2198 22.4224 62.1528 22.4224C62.0743 22.4224 62.0073 22.3969 61.9496 22.3484C61.8918 22.2976 61.8595 22.2699 61.8479 22.2653C61.8341 22.256 61.8156 22.2514 61.7971 22.2514C61.7555 22.2514 61.714 22.2676 61.677 22.2999C61.6169 22.3507 61.5708 22.42 61.5407 22.5124C61.4945 22.6557 61.4714 22.8127 61.4714 22.9837V23.5796C61.4714 23.6628 61.4784 23.7159 61.4899 23.7413C61.5084 23.7806 61.5338 23.8106 61.5684 23.8291C61.6031 23.8476 61.6608 23.8591 61.744 23.8637V23.9423H60.6329V23.8637C60.723 23.8568 60.7831 23.8314 60.8154 23.7898C60.8477 23.7482 60.8616 23.6374 60.8616 23.4595V22.3207C60.8616 22.2029 60.8547 22.129 60.8431 22.0967C60.8293 22.0551 60.8062 22.025 60.7784 22.0066C60.7507 21.9881 60.7022 21.9742 60.6306 21.9673V21.8865H61.4714V21.8818Z" fill="#334190"/>
<path d="M64.666 20.9555V23.3232C64.666 23.4826 64.6706 23.5773 64.6799 23.6073C64.6914 23.6558 64.7145 23.6928 64.7468 23.7159C64.7792 23.739 64.8369 23.7551 64.9201 23.7597V23.8313L64.0516 24V23.6743C63.9476 23.8013 63.8552 23.8868 63.7744 23.933C63.6935 23.9792 63.6011 24 63.4972 24C63.2339 24 63.026 23.8822 62.8735 23.6489C62.7511 23.4571 62.6887 23.2238 62.6887 22.9466C62.6887 22.7249 62.7257 22.5262 62.8042 22.3507C62.8804 22.1751 62.9844 22.0435 63.1184 21.9534C63.2523 21.8633 63.3932 21.8194 63.5457 21.8194C63.6427 21.8194 63.7305 21.8379 63.8067 21.8772C63.8829 21.9164 63.9638 21.9811 64.0516 22.0781V21.4568C64.0516 21.2997 64.0446 21.205 64.0308 21.1726C64.0123 21.1311 63.9869 21.0987 63.9522 21.0779C63.9176 21.0571 63.8506 21.0479 63.7536 21.0479V20.9555H64.666ZM64.0493 22.3507C63.9407 22.1428 63.809 22.0389 63.652 22.0389C63.5965 22.0389 63.5526 22.0527 63.518 22.0827C63.4625 22.1289 63.4186 22.2075 63.384 22.323C63.3494 22.4385 63.3332 22.6117 63.3332 22.8496C63.3332 23.1083 63.3517 23.3024 63.3909 23.4271C63.4302 23.5518 63.481 23.6419 63.548 23.6974C63.5827 23.7251 63.6289 23.7389 63.6866 23.7389C63.816 23.7389 63.9384 23.6373 64.0516 23.4364V22.353L64.0493 22.3507Z" fill="#334190"/>
<path d="M67.2046 21.1288V21.8818H67.6943V22.0989H67.2046V23.3694C67.2046 23.4872 67.2093 23.5657 67.2208 23.6004C67.2324 23.635 67.2508 23.6628 67.2786 23.6835C67.3063 23.7043 67.3317 23.7159 67.3548 23.7159C67.4495 23.7159 67.5396 23.6443 67.625 23.4988L67.692 23.5473C67.5742 23.8291 67.3802 23.97 67.1122 23.97C66.9806 23.97 66.872 23.933 66.7819 23.8614C66.6918 23.7898 66.6341 23.7066 66.6087 23.6189C66.5948 23.5681 66.5856 23.4341 66.5856 23.2146V22.1036H66.3176V22.0273C66.5024 21.8957 66.6595 21.7594 66.7889 21.6162C66.9182 21.473 67.0314 21.3113 67.1284 21.1334H67.2L67.2046 21.1288Z" fill="#334190"/>
<path d="M68.9047 21.8195C69.0826 21.8195 69.2512 21.8657 69.4036 21.9581C69.5584 22.0504 69.6739 22.1821 69.7548 22.353C69.8356 22.524 69.8749 22.7088 69.8749 22.912C69.8749 23.2031 69.801 23.4479 69.6531 23.6443C69.4729 23.8822 69.2281 24 68.9116 24C68.5952 24 68.3642 23.8914 68.1956 23.6743C68.0293 23.4572 67.9438 23.2054 67.9438 22.919C67.9438 22.6325 68.0293 22.3669 68.2002 22.1475C68.3711 21.928 68.6044 21.8195 68.9024 21.8195H68.9047ZM68.9139 21.9765C68.84 21.9765 68.7754 22.0043 68.7222 22.062C68.6691 22.1174 68.6344 22.2306 68.616 22.3969C68.5998 22.5633 68.5906 22.7942 68.5906 23.0922C68.5906 23.2493 68.5998 23.3948 68.6206 23.5334C68.6368 23.6374 68.6714 23.7159 68.7245 23.7713C68.7777 23.8268 68.8377 23.8522 68.9047 23.8522C68.9717 23.8522 69.0248 23.8337 69.0687 23.7967C69.1265 23.7459 69.1634 23.6766 69.1842 23.5865C69.2142 23.4479 69.2281 23.1661 69.2281 22.7411C69.2281 22.4916 69.2142 22.3207 69.1865 22.2283C69.1588 22.1359 69.1172 22.0666 69.0641 22.025C69.0248 21.995 68.9763 21.9788 68.9139 21.9788V21.9765Z" fill="#334190"/>
<path d="M70.6464 23.2608C70.748 23.2608 70.8358 23.2978 70.9074 23.3694C70.979 23.441 71.0137 23.5288 71.0137 23.6281C71.0137 23.7274 70.9767 23.8152 70.9051 23.8868C70.8335 23.9584 70.7457 23.993 70.6464 23.993C70.5471 23.993 70.4593 23.9584 70.3877 23.8868C70.3161 23.8152 70.2814 23.7297 70.2814 23.6281C70.2814 23.5264 70.3161 23.441 70.3877 23.3694C70.4593 23.2978 70.5448 23.2608 70.6464 23.2608Z" fill="#334190"/>
</g>
<defs>
<clipPath id="clip0_45_4248">
<rect width="71.0137" height="24" fill="white"/>
</clipPath>
</defs>
</svg>
