<svg width="93" height="24" viewBox="0 0 93 24" fill="none" xmlns="http://www.w3.org/2000/svg">
<path d="M92.2978 24H0V0H92.2978V24Z" fill="white"/>
<path d="M90.87 22.6045H17.2125V1.45654H90.87V22.6045Z" fill="#001E5E"/>
<path d="M36.9327 10.0879H38.4717V16H36.9327V10.0879ZM36.9327 7.54083H38.4717V9.00809H36.9327V7.54083Z" fill="white"/>
<path d="M21.8152 7.95697H26.5434V9.21973H23.4223V11.1928H26.278V12.4556H23.4223V14.7049H26.5649V15.9677H21.8152V7.95697Z" fill="white"/>
<path d="M27.3578 10.0556H28.7928V10.8843H28.8188C29.2995 10.1597 29.9991 9.91931 30.5731 9.91931C31.4018 9.91931 31.9865 10.2278 32.3202 10.9633C32.6753 10.253 33.4431 9.91931 34.1677 9.91931C35.6242 9.91931 36.0368 10.9202 36.0368 12.2368V15.9678H34.4978V12.4449C34.4978 11.8924 34.4977 11.1139 33.6152 11.1139C32.5928 11.1139 32.4673 12.3301 32.4673 13.0978V15.9678H30.9282V12.4449C30.9282 11.8924 30.9282 11.1139 30.0457 11.1139C29.0233 11.1139 28.8977 12.3301 28.8977 13.0978V15.9678H27.3587L27.3578 10.0556Z" fill="white"/>
<path d="M39.3184 10.0556H40.6852V11.4009H40.7061C40.7779 10.8485 41.4092 9.91931 42.3276 9.91931C42.4746 9.91931 42.6361 9.91931 42.7975 9.96591V11.5157C42.6577 11.4332 42.385 11.3902 42.1087 11.3902C40.8567 11.3902 40.8567 12.9508 40.8567 13.7974V15.9678H39.3177L39.3184 10.0556Z" fill="white"/>
<path d="M45.1803 14.9812C45.6503 14.9812 46.0198 14.7766 46.2602 14.4538C46.5114 14.1202 46.5794 13.6969 46.5794 13.2341H45.9158C45.2269 13.2341 44.2045 13.3489 44.2045 14.2601C44.2045 14.7624 44.6314 14.9812 45.1803 14.9812ZM43.3794 10.3677C43.9749 10.0915 44.7785 9.91931 45.4314 9.91931C47.2359 9.91931 47.9821 10.6655 47.9821 12.409V13.166C47.9821 13.7651 47.9925 14.2135 48.0029 14.6476C48.0133 15.096 48.0389 15.5086 48.0711 15.9678H46.7187C46.6611 15.6592 46.6611 15.2682 46.6505 15.0852H46.6245C46.2693 15.7382 45.4979 16.1077 44.7984 16.1077C43.7545 16.1077 42.7321 15.4763 42.7321 14.3498C42.7321 13.4673 43.159 12.9507 43.7437 12.6637C44.3285 12.3767 45.0854 12.3193 45.7312 12.3193H46.5778C46.5778 11.3651 46.1545 11.0422 45.2469 11.0422C44.5939 11.0422 43.9375 11.297 43.4209 11.6879L43.3794 10.3677Z" fill="white"/>
<path d="M49.1982 11.1821H48.061V10.0556H49.1982V8.87538L50.7372 8.38031V10.0556H52.104V11.1821H50.7372V13.9373C50.7372 14.4395 50.8737 14.913 51.4583 14.913C51.7346 14.913 52 14.8555 52.1579 14.7516L52.2045 15.9678C51.8816 16.061 51.53 16.1076 51.0708 16.1076C49.8654 16.1076 49.1982 15.3578 49.1982 14.1883L49.1982 11.1821Z" fill="white"/>
<path d="M56.2906 12.4341C56.2476 11.6879 55.9031 11.0458 55.0421 11.0458C54.1811 11.0458 53.7435 11.6413 53.6753 12.4341H56.2906ZM57.3238 15.6341C56.7605 15.9462 56.1219 16.1077 55.2933 16.1077C53.3417 16.1077 52.2045 14.9812 52.2045 13.0404C52.2045 11.3328 53.1121 9.91931 54.9489 9.91931C57.1408 9.91931 57.7614 11.4225 57.7614 13.4888H53.6753C53.7435 14.4395 54.4108 14.9812 55.3614 14.9812C56.1076 14.9812 56.7498 14.705 57.3238 14.3857V15.6341Z" fill="white"/>
<path d="M61.9049 11.2969C61.435 11.1355 61.0906 11.0457 60.5274 11.0457C60.1148 11.0457 59.6233 11.1927 59.6233 11.6986C59.6233 12.6385 62.296 12.043 62.296 14.1775C62.296 15.5551 61.0655 16.1075 59.8171 16.1075C59.2287 16.1075 58.6332 16.0034 58.07 15.8529L58.1632 14.5902C58.6475 14.8304 59.1497 14.9812 59.6771 14.9812C60.0681 14.9812 60.6887 14.8305 60.6887 14.2601C60.6887 13.0978 58.0125 13.8906 58.0125 11.7561C58.0125 10.4825 59.1282 9.91931 60.3336 9.91931C61.0547 9.91931 61.5282 10.0341 62.0089 10.1382L61.9049 11.2969Z" fill="white"/>
<path d="M65.4243 7.95697H67.3973L70.4502 13.948H70.4763V7.95697H72.0117V15.9677H70.0493L66.9857 9.9767H66.9597V15.9677H65.4243V7.95697Z" fill="white"/>
<path d="M74.8772 14.7049H75.6341C76.3803 14.7049 77.2879 14.5219 77.2879 13.5929C77.2879 12.5489 76.4377 12.3875 75.6341 12.3875H74.8772V14.7049ZM74.8772 11.1928H75.5301C76.2081 11.1928 77.044 11.0457 77.044 10.2171C77.044 9.28789 76.2297 9.21973 75.4978 9.21973H74.8772V11.1928ZM73.27 7.95697H76.0682C77.1014 7.95697 78.6512 8.25471 78.6512 10.0126C78.6512 10.9632 78.0126 11.6305 77.0584 11.8027V11.8235C78.149 11.9277 78.8951 12.663 78.8951 13.6495C78.8951 15.6693 77.0799 15.967 76.0682 15.967H73.27V7.95697Z" fill="white"/>
<path d="M81.3776 14.7049H82.2745C83.6162 14.7049 84.9148 13.7076 84.9148 11.9641C84.9148 10.2171 83.6162 9.21973 82.2745 9.21973H81.3776V14.7049ZM79.7704 7.95697H81.9659C84.4197 7.95697 86.5901 8.78565 86.5901 11.9641C86.5901 15.1426 84.4197 15.9677 81.9659 15.9677H79.7704V7.95697Z" fill="white"/>
<path d="M15.7847 22.5722H1.42419V1.42426H15.7847V22.5722Z" fill="#001E5E"/>
<path d="M7.33993 14.296C7.52997 9.06192 10.3534 4.43051 14.5937 1.42065H11.7776C8.34083 4.40539 6.03411 8.59553 5.93724 13.252C5.862 16.9435 6.57222 19.7489 8.53097 22.5794H9.24847C7.71663 19.9749 7.23231 17.2413 7.33993 14.296Z" fill="white"/>
<path d="M7.80629 22.5759C6.1094 20.775 4.06098 17.3848 3.82064 13.722C3.52647 9.24132 5.00807 4.87896 7.9964 1.42426H10.3103C6.65471 5.05117 4.8 9.85474 5.22332 14.6296C5.49597 17.679 6.69415 19.9355 8.53453 22.5759H7.80629Z" fill="#FDB811"/>
<path d="M8.58831 18.1632C10.1309 16.5668 11.5695 14.2601 12.0215 11.957C12.6565 8.73186 11.8205 6.06636 11.7669 5.8834C11.7273 5.75063 11.706 5.66447 11.7273 5.6538C11.7703 5.62776 12.0968 6.20989 12.3192 6.66908C12.7461 7.55876 13.2053 8.99731 13.1838 10.6511C13.1516 12.7032 12.4197 14.7444 11.0923 16.3193C10.6331 16.8646 10.1058 17.3489 9.51026 17.7542C9.12284 18.0161 8.45557 18.3784 8.43404 18.3426C8.41842 18.3217 8.49485 18.2601 8.58831 18.1632Z" fill="white"/>
<path d="M8.53451 18.2099C9.57128 17.0152 10.504 15.3255 10.73 13.6825C11.0493 11.3758 10.3426 9.52826 10.296 9.39911C10.26 9.30955 10.2421 9.24835 10.2564 9.24133C10.2887 9.2205 10.547 9.618 10.7227 9.9337C11.0635 10.5436 11.4546 11.5409 11.5048 12.7104C11.5657 14.1597 11.1317 15.6342 10.2492 16.8001C9.94069 17.2055 9.58551 17.5714 9.17656 17.8835C8.91107 18.0845 8.45189 18.3678 8.43395 18.3427C8.41833 18.3244 8.4736 18.2817 8.53451 18.2099Z" fill="#FDB811"/>
</svg>
