<svg width="62" height="24" viewBox="0 0 62 24" fill="none" xmlns="http://www.w3.org/2000/svg">
<g clip-path="url(#clip0_45_4250)">
<path d="M28.3508 3.07455C26.4923 3.07455 25.5516 3.07455 23.716 3.07455V4.84128H27.9837C27.9837 5.80495 27.9837 6.74568 27.9837 7.68641H23.716C23.716 8.42063 23.716 9.15486 23.716 9.88908C25.5516 9.88908 26.63 9.88908 28.5114 9.88908C28.5114 10.8298 28.5114 11.7935 28.5114 12.7572C25.5745 12.7572 23.4177 12.7572 20.5267 12.7572C20.5267 8.5583 20.5267 4.35945 20.5267 0.206482C23.4177 0.206482 25.4139 0.206482 28.3508 0.206482C28.3508 1.14721 28.3508 2.11088 28.3508 3.07455Z" fill="#C92123"/>
<path d="M36.7027 9.0631C36.7027 8.16826 35.6701 7.9847 34.4082 7.91587C31.6778 7.70937 29.8881 6.76864 29.8652 4.06119C29.7505 -1.35373 39.5019 -1.35373 39.4331 4.06119C38.2858 4.06119 37.4598 4.06119 36.3814 4.06119C36.3814 2.38623 33.0086 2.5239 32.8939 4.0153C32.825 4.97897 33.7658 5.16252 34.89 5.30019C37.368 5.55258 39.8231 5.94264 39.8231 9.0631C39.8231 14.3403 29.6128 14.4321 29.6816 8.90249C30.76 8.90249 31.6778 8.90249 32.7791 8.90249C32.7791 10.5086 36.7027 10.5315 36.7027 9.0631Z" fill="#C92123"/>
<path d="M48.6797 11.174H43.7466L43.0124 12.7572H39.869V12.2753L45.5133 0.0458984H46.89L52.5573 12.2753V12.7572H49.4139L48.6797 11.174ZM46.2017 5.13959L44.7791 8.42066H47.6472L46.2017 5.13959Z" fill="#C92123"/>
<path d="M57.1004 8.67302V12.7572C56.022 12.7572 54.9436 12.7572 53.8422 12.7572V0.206482C56.412 0.206482 59.0965 0.206482 61.6663 0.206482C61.6663 1.26193 61.6663 1.99616 61.6663 3.07455H57.1004V5.80495H61.1386C61.1386 6.88335 61.1386 7.57168 61.1386 8.67302H57.1004Z" fill="#C92123"/>
<path d="M1.91869 15.0975C1.48275 15.0975 1.2533 15.0975 0.817356 15.0975V15.5105H1.82692C1.82692 15.717 1.82692 15.9465 1.82692 16.1759H0.817356C0.817356 16.3365 0.817356 16.4971 0.817356 16.6807C1.2533 16.6807 1.50569 16.6807 1.94164 16.6807C1.94164 16.8872 1.94164 17.1166 1.94164 17.3461C1.2533 17.3461 0.771466 17.3461 0.0831299 17.3461C0.0831299 16.3595 0.0831299 15.3958 0.0831299 14.4321C0.771466 14.4321 1.23036 14.4321 1.91869 14.4321C1.91869 14.6386 1.91869 14.8681 1.91869 15.0975Z" fill="#243B77"/>
<path d="M3.84602 16.4742C3.84602 16.2677 3.61658 16.2218 3.3183 16.2218C2.67585 16.1759 2.26285 15.9465 2.26285 15.327C2.23991 14.065 4.51142 14.065 4.48847 15.327C4.21314 15.327 4.02958 15.327 3.77719 15.327C3.77719 14.9369 2.99708 14.9598 2.97413 15.304C2.95119 15.5335 3.15769 15.5793 3.43302 15.6023C4.00664 15.6711 4.58025 15.7629 4.58025 16.4971C4.58025 17.7132 2.19402 17.7361 2.21696 16.4512C2.46935 16.4512 2.67585 16.4512 2.92824 16.4512C2.92824 16.8184 3.84602 16.8184 3.84602 16.4742Z" fill="#243B77"/>
<path d="M6.64521 16.979H5.49798L5.31443 17.3461H4.5802V17.2314L5.91098 14.3862H6.23221L7.54005 17.2314V17.3461H6.80582L6.64521 16.979ZM6.04865 15.5793L5.72743 16.3365H6.39282L6.04865 15.5793Z" fill="#243B77"/>
<path d="M8.59555 16.4054V17.3461C8.34316 17.3461 8.09077 17.3461 7.83838 17.3461V14.4321C8.43494 14.4321 9.05444 14.4321 9.651 14.4321C9.651 14.6616 9.651 14.8451 9.651 15.0975H8.59555V15.717H9.53628C9.53628 15.9694 9.53628 16.13 9.53628 16.4054H8.59555Z" fill="#243B77"/>
<path d="M12.932 16.4742C12.932 16.2677 12.6796 16.2218 12.3814 16.2218C11.7619 16.1759 11.3489 15.9465 11.3259 15.327C11.303 14.065 13.5745 14.065 13.5515 15.327C13.2991 15.327 13.0926 15.327 12.8403 15.327C12.8403 14.9369 12.0601 14.9598 12.0372 15.304C12.0143 15.5335 12.2437 15.5793 12.4961 15.6023C13.0926 15.6711 13.6433 15.7629 13.6433 16.4742C13.6433 17.7132 11.28 17.7361 11.28 16.4512C11.5324 16.4512 11.7619 16.4512 12.0143 16.4512C12.0143 16.8184 12.932 16.8184 12.932 16.4742Z" fill="#243B77"/>
<path d="M16.9244 14.4092H17.1997V17.3461C16.9473 17.3461 16.695 17.3461 16.4426 17.3461V16.0382L15.8231 16.6807H15.7313L15.1118 16.0382V17.3461C14.8594 17.3461 14.607 17.3461 14.3546 17.3461V14.4092H14.6299L15.7772 15.6711L16.9244 14.4092Z" fill="#243B77"/>
<path d="M19.8613 16.979H18.714L18.5305 17.3461H17.7963V17.2314L19.127 14.3862H19.4483L20.7561 17.2314V17.3461H20.0219L19.8613 16.979ZM19.2877 15.5793L18.9435 16.3365H19.6089L19.2877 15.5793Z" fill="#243B77"/>
<path d="M22.0411 16.6578H23.1195C23.1195 16.9101 23.1195 17.0937 23.1195 17.3461C22.5 17.3461 21.9034 17.3461 21.3069 17.3461V14.4321C21.5593 14.4321 21.7887 14.4321 22.0411 14.4321C22.0411 15.9235 22.0411 15.4187 22.0411 16.6578Z" fill="#243B77"/>
<path d="M24.542 16.6578H25.5974C25.5974 16.9101 25.5974 17.0937 25.5974 17.3461C25.0009 17.3461 24.3813 17.3461 23.7848 17.3461V14.4321C24.0372 14.4321 24.2896 14.4321 24.542 14.4321C24.542 15.9235 24.542 15.4187 24.542 16.6578Z" fill="#243B77"/>
<path d="M28.3278 16.3824V17.3461C28.0984 17.3461 27.8231 17.3461 27.5707 17.3461V14.4321C28.1672 14.4321 28.8097 14.4321 29.4062 14.4321C29.4062 14.6616 29.4062 14.8451 29.4062 15.0975H28.3278V15.717H29.2686C29.2686 15.9694 29.2686 16.13 29.2686 16.3824H28.3278Z" fill="#243B77"/>
<path d="M31.3795 16.6807V17.3461H29.8881V16.6807H30.2552V15.0746H29.934V14.4321H31.3336V15.0746H31.0123V16.6807H31.3795Z" fill="#243B77"/>
<path d="M32.8021 15.9006V17.3461C32.5497 17.3461 32.2744 17.3461 32.022 17.3461V14.4092H32.2973L33.7658 15.8547V14.4321C34.0181 14.4321 34.2935 14.4321 34.5459 14.4321V17.3461H34.2705L32.8021 15.9006Z" fill="#243B77"/>
<path d="M37.1157 16.979H35.9684L35.8078 17.3461H35.0736V17.2314L36.3814 14.3862H36.7027L38.0335 17.2314V17.3461H37.2992L37.1157 16.979ZM36.5421 15.5793L36.2208 16.3365H36.8862L36.5421 15.5793Z" fill="#243B77"/>
<path d="M39.3412 15.9006V17.3461C39.0888 17.3461 38.8364 17.3461 38.584 17.3461V14.4092H38.8364L40.3278 15.8547V14.4321C40.5802 14.4321 40.8326 14.4321 41.085 14.4321V17.3461H40.8097L39.3412 15.9006Z" fill="#243B77"/>
<path d="M43.3107 14.3862C43.9072 14.3862 44.5726 14.7075 44.6873 15.4876C44.435 15.4876 44.2055 15.4876 43.9531 15.4876C43.8384 15.2122 43.6319 15.0746 43.3107 15.0746C42.8747 15.0746 42.5764 15.3958 42.5764 15.8776C42.5764 16.3136 42.8747 16.6807 43.3107 16.6807C43.6319 16.6807 43.8843 16.5201 43.9531 16.2218C44.2055 16.2218 44.435 16.2218 44.6873 16.2218C44.5726 17.0478 43.9302 17.369 43.3107 17.369C42.5764 17.369 41.8193 16.8642 41.8193 15.8776C41.8193 14.891 42.5764 14.3862 43.3107 14.3862Z" fill="#243B77"/>
<path d="M47.2571 15.0975C46.8212 15.0975 46.5917 15.0975 46.1787 15.0975V15.5105H47.1654C47.1654 15.717 47.1654 15.9465 47.1654 16.1759H46.1787C46.1787 16.3365 46.1787 16.4971 46.1787 16.6807C46.5917 16.6807 46.8441 16.6807 47.2801 16.6807C47.2801 16.8872 47.2801 17.1166 47.2801 17.3461C46.6147 17.3461 46.1099 17.3461 45.4216 17.3461C45.4216 16.3595 45.4216 15.3958 45.4216 14.4321C46.1099 14.4321 46.5688 14.4321 47.2571 14.4321C47.2571 14.6386 47.2571 14.8681 47.2571 15.0975Z" fill="#243B77"/>
<path d="M51.3183 15.8317C51.5707 15.9465 51.6854 16.153 51.6854 16.4283C51.6854 16.9331 51.3642 17.3461 50.7676 17.3461H49.4139V14.4321H50.6529C51.1577 14.4321 51.5477 14.8222 51.5477 15.327C51.5477 15.4876 51.4789 15.6941 51.3183 15.8317ZM50.1252 15.0975V15.5564H50.607C50.8823 15.5564 50.8823 15.0975 50.5841 15.0975H50.1252ZM50.1252 16.1759V16.6807H50.7217C51.02 16.6807 51.02 16.1759 50.7217 16.1759H50.1252Z" fill="#243B77"/>
<path d="M54.1175 16.979H52.9703L52.7867 17.3461H52.0525V17.2314L53.3833 14.3862H53.7045L55.0123 17.2314V17.3461H54.2781L54.1175 16.979ZM53.5439 15.5793L53.1997 16.3365H53.8651L53.5439 15.5793Z" fill="#243B77"/>
<path d="M56.3202 15.9006V17.3461C56.0678 17.3461 55.8154 17.3461 55.563 17.3461V14.4092H55.8384L57.3068 15.8547V14.4321C57.5592 14.4321 57.8116 14.4321 58.064 14.4321V17.3461H57.7887L56.3202 15.9006Z" fill="#243B77"/>
<path d="M58.9818 17.3461V14.4321C59.2342 14.4321 59.4866 14.4321 59.739 14.4321V15.5335H59.7849C60.542 15.5335 60.4962 14.9599 60.4962 14.4321C60.7485 14.4321 61.0009 14.4321 61.2763 14.4321C61.2763 15.0287 61.2763 15.5794 60.7027 15.9465L61.4828 17.2314V17.3461H60.6568L60.0143 16.1989C59.9225 16.2218 59.8308 16.2218 59.739 16.2218V17.3461C59.4866 17.3461 59.2342 17.3461 58.9818 17.3461Z" fill="#243B77"/>
<path d="M17.3833 12.7801H0.0142822V0H17.3833V12.7801Z" fill="#243B77"/>
<path d="M6.20925 3.94644H3.93774V1.69788H6.20925V3.94644Z" fill="#FEFEFE"/>
<path d="M8.27433 6.92923H1.8728V4.68066H8.27433V6.92923Z" fill="#FEFEFE"/>
<path d="M3.93774 11.0822V4.68066H6.20925V11.0822H3.93774Z" fill="#FEFEFE"/>
<path d="M13.4368 3.94644H11.1882V1.69788H13.4368V3.94644Z" fill="#FEFEFE"/>
<path d="M15.5248 6.92923H9.12329V4.68066H15.5248V6.92923Z" fill="#FEFEFE"/>
<path d="M11.1882 11.0822V4.68066H13.4368V11.0822H11.1882Z" fill="#FEFEFE"/>
<path d="M33.5593 23.8165C33.4216 23.8165 33.3069 23.7935 33.2151 23.7706V23.3346C33.3298 23.3805 33.4445 23.3805 33.5363 23.3805C33.8116 23.3805 33.9952 23.2199 34.064 22.8757L34.7065 19.9159H35.1883L34.5459 22.9216C34.5 23.2429 34.3853 23.4494 34.2246 23.61C34.064 23.7476 33.8346 23.8165 33.5593 23.8165Z" fill="#898989"/>
<path d="M37.4139 21.522C37.4139 21.7973 37.368 22.0497 37.2533 22.2791C37.1615 22.5086 37.0238 22.6921 36.8403 22.8069C36.6567 22.9445 36.4732 23.0134 36.2208 23.0134C35.9684 23.0134 35.7619 22.9216 35.6013 22.761C35.4407 22.6004 35.3489 22.3939 35.3489 22.1185C35.3489 21.8432 35.4177 21.5908 35.5095 21.3384C35.6013 21.109 35.7389 20.9484 35.9225 20.8107C36.106 20.673 36.3125 20.6271 36.542 20.6271C36.8173 20.6271 37.0238 20.696 37.1844 20.8566C37.3451 21.0172 37.4139 21.2466 37.4139 21.522ZM36.9321 21.499C36.9321 21.3384 36.8862 21.2237 36.8173 21.1549C36.7485 21.0631 36.6567 21.0172 36.519 21.0172C36.4043 21.0172 36.2896 21.0631 36.1749 21.1778C36.0831 21.2696 35.9913 21.4073 35.9454 21.5679C35.8766 21.7514 35.8537 21.935 35.8537 22.1185C35.8537 22.2791 35.8995 22.3939 35.9684 22.4856C36.0372 22.5545 36.129 22.6004 36.2667 22.6004C36.3814 22.6004 36.4961 22.5545 36.6108 22.4627C36.7026 22.3709 36.7714 22.2333 36.8403 22.0726C36.8862 21.8891 36.9321 21.7055 36.9321 21.499Z" fill="#898989"/>
<path d="M37.8269 20.6501H38.3087L38.4464 21.7744C38.4464 21.8432 38.4694 21.9809 38.4694 22.1185C38.4923 22.2791 38.4923 22.4168 38.4923 22.5086C38.63 22.2103 38.7217 21.9809 38.7906 21.8432L39.3871 20.6501H39.9149L38.4923 23.3346C38.3546 23.564 38.217 23.7247 38.0793 23.8394C37.9416 23.9312 37.7581 24 37.5516 24C37.4598 24 37.3451 23.977 37.2533 23.9541V23.564C37.368 23.587 37.4598 23.587 37.5286 23.587C37.6204 23.587 37.7122 23.564 37.804 23.4952C37.8728 23.4493 37.9646 23.3346 38.0564 23.174L38.1711 22.9904L37.8269 20.6501Z" fill="#898989"/>
<path d="M43.0812 21.522C43.0812 21.7973 43.0353 22.0497 42.9206 22.2791C42.8288 22.5086 42.6911 22.6921 42.5076 22.8069C42.324 22.9445 42.1175 23.0134 41.8881 23.0134C41.6357 23.0134 41.4062 22.9216 41.2456 22.761C41.108 22.6004 41.0162 22.3939 41.0162 22.1185C41.0162 21.8432 41.0621 21.5908 41.1768 21.3384C41.2686 21.109 41.4062 20.9484 41.5898 20.8107C41.7733 20.673 41.9798 20.6271 42.2093 20.6271C42.4846 20.6271 42.6911 20.696 42.8517 20.8566C43.0124 21.0172 43.0812 21.2466 43.0812 21.522ZM42.5764 21.499C42.5764 21.3384 42.5535 21.2237 42.4846 21.1549C42.4158 21.0631 42.324 21.0172 42.1863 21.0172C42.0487 21.0172 41.934 21.0631 41.8422 21.1778C41.7504 21.2696 41.6586 21.4073 41.6127 21.5679C41.5439 21.7514 41.521 21.935 41.521 22.1185C41.521 22.2791 41.5439 22.3939 41.6127 22.4856C41.6816 22.5545 41.7963 22.6004 41.934 22.6004C42.0487 22.6004 42.1634 22.5545 42.2781 22.4627C42.3699 22.3709 42.4387 22.2333 42.5076 22.0726C42.5535 21.8891 42.5764 21.7055 42.5764 21.499Z" fill="#898989"/>
<path d="M43.1271 24C42.9894 24 42.8976 23.977 42.8058 23.9541V23.5411C42.8976 23.587 42.9665 23.587 43.0353 23.587C43.2418 23.587 43.3565 23.4493 43.4254 23.151L43.8613 21.0172H43.4942L43.5401 20.8107L43.9531 20.6501L43.999 20.4436C44.0449 20.1682 44.1366 19.9847 44.2743 19.87C44.389 19.7552 44.5726 19.6864 44.802 19.6864C44.9626 19.6864 45.1232 19.7093 45.238 19.7782L45.1232 20.1453C45.0085 20.0994 44.9167 20.0994 44.825 20.0994C44.7332 20.0994 44.6644 20.1223 44.5955 20.1682C44.5496 20.2371 44.5037 20.3288 44.4808 20.4665L44.4349 20.6501H44.9167L44.825 21.0172H44.3661L43.8842 23.2199C43.8384 23.4952 43.7466 23.6788 43.6089 23.8164C43.4942 23.9311 43.3336 24 43.1271 24Z" fill="#898989"/>
<path d="M47.4866 19.9159C47.7849 19.9159 48.0372 19.9618 48.1749 20.0765C48.3355 20.1912 48.4273 20.3748 48.4273 20.6042C48.4273 20.8107 48.3585 20.9713 48.2437 21.109C48.129 21.2467 47.9455 21.3385 47.739 21.3843C47.8996 21.4302 48.0143 21.4991 48.0831 21.6138C48.1749 21.7056 48.2208 21.8432 48.2208 22.0038C48.2208 22.3021 48.1061 22.5316 47.8996 22.7151C47.6931 22.8757 47.3948 22.9675 47.0277 22.9675H45.9952L46.6376 19.9159H47.4866ZM46.5917 22.5545H47.0506C47.2571 22.5545 47.4177 22.5086 47.5325 22.3939C47.6472 22.3021 47.716 22.1645 47.716 22.0038C47.716 21.8662 47.6701 21.7515 47.5784 21.6826C47.4866 21.6138 47.3719 21.5679 47.2112 21.5679H46.7982L46.5917 22.5545ZM46.89 21.1778H47.303C47.4866 21.1778 47.6472 21.132 47.739 21.0402C47.8537 20.9713 47.8996 20.8337 47.8996 20.696C47.8996 20.4436 47.739 20.3289 47.4407 20.3289H47.0506L46.89 21.1778Z" fill="#898989"/>
<path d="M49.2992 23.0134C49.0927 23.0134 48.955 22.9445 48.8403 22.7839C48.7256 22.6463 48.6567 22.4627 48.6567 22.1874C48.6567 21.912 48.7026 21.6596 48.7944 21.4072C48.9091 21.1549 49.0239 20.9713 49.2074 20.8336C49.368 20.673 49.5516 20.6042 49.7581 20.6042C49.8957 20.6042 50.0105 20.6501 50.1252 20.696C50.217 20.7648 50.2858 20.8566 50.3317 20.9942H50.3546L50.4923 20.6501H50.8594L50.3776 22.9675H49.9875L50.0334 22.6004C49.804 22.8757 49.5516 23.0134 49.2992 23.0134ZM49.4827 22.6004C49.5975 22.6004 49.7122 22.5545 49.804 22.4398C49.9187 22.348 50.0105 22.1874 50.0793 22.0038C50.1481 21.8432 50.194 21.6367 50.194 21.4302C50.194 21.2925 50.1481 21.2007 50.1022 21.1319C50.0334 21.0401 49.9416 21.0172 49.8269 21.0172C49.7122 21.0172 49.5975 21.0631 49.5057 21.1778C49.391 21.2925 49.3221 21.4302 49.2533 21.6137C49.1845 21.7973 49.1615 21.9809 49.1615 22.1874C49.1615 22.325 49.1845 22.4398 49.2304 22.5086C49.2992 22.5774 49.368 22.6004 49.4827 22.6004Z" fill="#898989"/>
<path d="M52.4196 22.9675L52.695 21.5679C52.7409 21.4302 52.7409 21.3384 52.7409 21.2925C52.7409 21.109 52.6491 21.0172 52.4655 21.0172C52.3738 21.0172 52.282 21.0631 52.1673 21.1319C52.0755 21.2007 51.9837 21.3155 51.9149 21.4761C51.846 21.6367 51.7772 21.7973 51.7313 21.9809L51.5248 22.9675H51.043L51.5248 20.6501H51.9149L51.869 21.086H51.8919C52.0066 20.9254 52.1214 20.7877 52.259 20.7189C52.3738 20.6501 52.5114 20.6042 52.6491 20.6042C52.8326 20.6042 52.9703 20.673 53.085 20.7648C53.1768 20.8795 53.2456 21.0172 53.2456 21.2237C53.2456 21.3155 53.2227 21.4531 53.1768 21.5908L52.9015 22.9675H52.4196Z" fill="#898989"/>
<path d="M55.3107 20.6501H55.8843L54.8747 21.6596L55.4942 22.9675H54.9436L54.5076 21.9809L54.2093 22.1874L54.0487 22.9675H53.5669L54.2552 19.7094H54.7371C54.5535 20.5812 54.4388 21.086 54.4158 21.2466C54.37 21.3843 54.347 21.5449 54.2782 21.7055H54.3011L55.3107 20.6501Z" fill="#898989"/>
<path d="M56.3202 22.9675H55.8154L56.3202 20.6501H56.802L56.3202 22.9675ZM56.412 20.0765C56.412 19.9847 56.4349 19.9159 56.5038 19.847C56.5497 19.8011 56.6185 19.7782 56.7332 19.7782C56.802 19.7782 56.8709 19.7782 56.9168 19.8241C56.9627 19.87 56.9856 19.9159 56.9856 19.9847C56.9856 20.0994 56.9397 20.1683 56.8938 20.2141C56.825 20.283 56.7562 20.3059 56.6644 20.3059C56.5955 20.3059 56.5267 20.283 56.4808 20.26C56.4349 20.2141 56.412 20.1683 56.412 20.0765Z" fill="#898989"/>
<path d="M58.3623 22.9675L58.6606 21.5679C58.6835 21.4302 58.7064 21.3384 58.7064 21.2925C58.7064 21.109 58.6147 21.0172 58.4311 21.0172C58.3393 21.0172 58.2246 21.0631 58.1328 21.1319C58.041 21.2007 57.9493 21.3155 57.8804 21.4761C57.7887 21.6367 57.7428 21.7973 57.6969 21.9809L57.4904 22.9675H57.0085L57.4904 20.6501H57.8804L57.8345 21.086H57.8575C57.9722 20.9254 58.0869 20.7877 58.2017 20.7189C58.3393 20.6501 58.477 20.6042 58.6147 20.6042C58.7982 20.6042 58.9359 20.673 59.0506 20.7648C59.1424 20.8795 59.1883 21.0172 59.1883 21.2237C59.1883 21.3155 59.1883 21.4531 59.1424 21.5908L58.8671 22.9675H58.3623Z" fill="#898989"/>
<path d="M61.804 20.6501L61.7581 20.9484L61.3451 21.0172C61.391 21.086 61.4139 21.1778 61.4139 21.2925C61.4139 21.5679 61.3221 21.7744 61.1615 21.935C61.0009 22.0956 60.7715 22.1644 60.4961 22.1644C60.4273 22.1644 60.3585 22.1644 60.2896 22.1644C60.152 22.2103 60.0602 22.2791 60.0602 22.3709C60.0602 22.4168 60.0831 22.4627 60.129 22.4856C60.1749 22.5086 60.2437 22.5086 60.3355 22.5315L60.5879 22.5545C60.8403 22.6004 61.0009 22.6463 61.1156 22.738C61.2304 22.8298 61.2762 22.9675 61.2762 23.1281C61.2762 23.4034 61.1615 23.6099 60.955 23.7705C60.7485 23.9082 60.4502 24 60.0602 24C59.7848 24 59.5554 23.9311 59.4177 23.8394C59.2571 23.7246 59.1653 23.587 59.1653 23.4034C59.1653 23.2658 59.2112 23.1281 59.326 23.0363C59.4177 22.9216 59.5783 22.8298 59.7848 22.761C59.6701 22.7151 59.6242 22.6233 59.6242 22.5086C59.6242 22.4168 59.6701 22.325 59.716 22.2562C59.7848 22.1874 59.8996 22.1185 60.0372 22.0497C59.8537 21.935 59.739 21.7514 59.739 21.522C59.739 21.2466 59.8307 21.0401 60.0143 20.8566C60.1749 20.696 60.4044 20.6042 60.6797 20.6042C60.7944 20.6042 60.9091 20.6271 61.0239 20.6501H61.804ZM60.1061 22.9216C59.9455 22.9445 59.8307 22.9904 59.739 23.0822C59.6701 23.151 59.6242 23.2428 59.6242 23.3575C59.6242 23.4493 59.6472 23.5181 59.739 23.564C59.8078 23.6099 59.9225 23.6558 60.0831 23.6558C60.3126 23.6558 60.4961 23.6099 60.6109 23.5411C60.7485 23.4493 60.8174 23.3575 60.8174 23.2199C60.8174 23.1281 60.7715 23.0822 60.7256 23.0363C60.6567 22.9904 60.542 22.9675 60.3814 22.9675L60.1061 22.9216ZM60.6567 20.9484C60.5879 20.9484 60.4961 20.9713 60.4273 21.0172C60.3585 21.0631 60.3126 21.1549 60.2667 21.2466C60.2437 21.3384 60.2208 21.4302 60.2208 21.5449C60.2208 21.6367 60.2437 21.7285 60.2896 21.7744C60.3355 21.8202 60.4044 21.8432 60.4961 21.8432C60.5879 21.8432 60.6797 21.8202 60.7256 21.7744C60.7944 21.7285 60.8632 21.6367 60.8862 21.5449C60.9321 21.4531 60.955 21.3384 60.955 21.2466C60.955 21.0401 60.8632 20.9484 60.6567 20.9484Z" fill="#898989"/>
</g>
<defs>
<clipPath id="clip0_45_4250">
<rect width="61.8183" height="24" fill="white"/>
</clipPath>
</defs>
</svg>
