<svg width="176" height="57" viewBox="0 0 176 57" fill="none" xmlns="http://www.w3.org/2000/svg">
<g clip-path="url(#clip0_4_1362)">
<path fill-rule="evenodd" clip-rule="evenodd" d="M0 0H176V56.2929H0V0Z" fill="#005BAA"/>
<path fill-rule="evenodd" clip-rule="evenodd" d="M0 47.4819H176V57H0V47.4819Z" fill="#F58220"/>
<path fill-rule="evenodd" clip-rule="evenodd" d="M136.789 26.0525H139.697H140.023C140.023 26.0525 141.327 17.1055 141.545 15.365C141.562 15.1194 141.627 14.8793 141.735 14.658C144.18 17.3774 147.74 20.7494 150.349 23.3873L153.066 26.3244C153.267 25.6407 153.403 24.9396 153.473 24.2304L154.397 17.7852C154.832 15.0658 155.376 11.9384 155.674 9.11013H152.169C152.169 9.11013 150.865 18.9818 150.729 19.3354C150.593 19.6889 150.729 19.3354 150.729 19.5257L147.142 16.072C146.843 15.8 146.735 15.637 146.436 15.3378C146.137 15.0387 145.43 14.4132 144.941 13.9509L144.262 13.271L143.501 12.5639L140.621 9.84444C140.186 9.38213 139.588 8.97421 139.153 8.48471L136.816 26.1885L136.789 26.0525Z" fill="white"/>
<path fill-rule="evenodd" clip-rule="evenodd" d="M110.187 23.4418L110.866 18.5467C111.977 18.3426 113.125 18.5149 114.127 19.0362C114.546 19.2418 114.888 19.5788 115.098 19.9959C115.309 20.4131 115.378 20.8877 115.295 21.3477C115.245 21.8075 115.054 22.2403 114.747 22.5863C114.44 22.9322 114.034 23.1742 113.583 23.2786C112.5 23.551 111.373 23.6065 110.268 23.4418H110.187ZM111.899 11.5305C113.665 11.5305 115.431 12.0472 115.051 14.0868C114.972 14.4267 114.812 14.7426 114.585 15.0077C114.357 15.2727 114.07 15.4792 113.746 15.6097C112.964 15.9642 112.101 16.105 111.247 16.0177L111.899 11.5305ZM106.274 26.1068C109.643 26.1068 114.263 26.5148 116.736 24.8015C117.214 24.4698 117.619 24.0438 117.926 23.5496C118.234 23.0555 118.437 22.5038 118.523 21.9282C118.61 21.3525 118.578 20.7652 118.429 20.2024C118.281 19.6396 118.019 19.1132 117.659 18.6555C117.468 18.3643 117.229 18.1071 116.953 17.8941C116.64 17.6782 116.357 17.4221 116.11 17.1326C116.946 16.6502 117.59 15.8956 117.937 14.9947C118.283 14.0939 118.31 13.1014 118.013 12.1831C117.809 11.5921 117.464 11.0599 117.007 10.633C116.071 9.73931 114.848 9.209 113.556 9.13734C112.143 8.97417 110.078 9.13734 108.584 9.13734L106.274 26.1612V26.1068Z" fill="white"/>
<path fill-rule="evenodd" clip-rule="evenodd" d="M32.8794 23.4146C32.8794 22.8163 34.3468 12.156 34.4826 11.8568C37.0641 11.8568 38.4499 11.6122 40.0803 13.1351C40.7663 13.7991 41.273 14.6261 41.5534 15.5392C41.8337 16.4522 41.8786 17.4214 41.6836 18.3564C41.4928 19.6921 40.8484 20.9213 39.8587 21.8376C38.869 22.7538 37.5944 23.301 36.249 23.3873C35.1363 23.4687 34.0192 23.4687 32.9066 23.3873L32.8794 23.4146ZM29.1295 26.134C32.7097 26.453 36.3182 26.1774 39.8086 25.3182C41.1239 24.7172 42.2638 23.7896 43.1198 22.6235C43.9759 21.4573 44.5198 20.0913 44.6997 18.6555C45.1069 17.0291 44.9139 15.3103 44.1563 13.8149C43.5498 12.5457 42.6107 11.4648 41.4389 10.6875C38.5314 8.81104 35.1891 9.13736 31.3849 9.13736L29.0752 26.134H29.1295Z" fill="white"/>
<path fill-rule="evenodd" clip-rule="evenodd" d="M62.4981 11.884C62.7285 11.8144 62.9742 11.8144 63.2046 11.884C63.9603 11.8169 64.7215 11.919 65.4328 12.1831C65.8308 12.4069 66.1365 12.7649 66.2958 13.1931C66.455 13.6213 66.4574 14.0922 66.3024 14.522C65.8676 16.5072 64.0742 16.7247 61.846 16.6703L62.4981 12.0199V11.884ZM57.0635 26.1068H60.5417L61.2753 20.831C61.2753 20.5318 61.2753 20.2328 61.2753 19.9337C61.2626 19.6373 61.3383 19.3439 61.4927 19.0907C62.0905 19.0907 62.2263 19.7704 62.8242 20.695C63.422 21.6197 66.0306 26.134 66.248 26.134H69.6446C69.4001 25.5629 68.9109 24.8559 68.5848 24.2848L65.3512 18.8458C66.4957 18.6727 67.5403 18.0944 68.2951 17.2162C69.0499 16.338 69.465 15.218 69.465 14.0595C69.465 12.9011 69.0499 11.7811 68.2951 10.9029C67.5403 10.0247 66.4957 9.44643 65.3512 9.27326C63.388 9.13767 61.4179 9.13767 59.4547 9.27326L57.0635 26.1068Z" fill="white"/>
<path fill-rule="evenodd" clip-rule="evenodd" d="M155.539 26.1068H159.071L159.859 20.4504C160.022 19.2538 159.859 19.5801 160.457 18.8458C160.892 19.0362 165.104 24.2847 165.892 25.0734C166.176 25.3646 166.431 25.6835 166.653 26.0253H170.674C170.674 25.6989 165.511 19.4441 165.049 18.8731L163.201 16.4799C163.446 16.1536 168.799 11.2857 169.587 10.4971C170.375 9.70841 170.484 9.73558 171.082 9.1101C169.779 9.01278 168.471 9.01278 167.169 9.1101C167.169 9.1101 165.131 10.905 165.022 11.041C164.855 11.219 164.673 11.3827 164.479 11.5305C163.745 12.1016 161.191 14.6306 160.702 14.8754L161.49 9.05583H158.093C157.848 9.05583 157.903 9.51807 157.821 10.0076L157.386 13.2437C156.816 17.187 156.001 22.3539 155.593 26.1068H155.539Z" fill="white"/>
<path fill-rule="evenodd" clip-rule="evenodd" d="M78.041 19.6889C78.4214 18.9818 78.9107 18.3292 79.3726 17.5678C79.7864 16.8242 80.2588 16.1148 80.7855 15.4465L82.0627 19.7433H78.041V19.6889ZM70.1065 26.0797H73.9922L76.2748 22.4628H82.9051L84.1279 26.1068H87.5788C87.4429 25.5901 82.0083 9.13733 81.6551 8.43027C81.4007 8.76145 81.1648 9.10645 80.9485 9.46368L71.5196 23.8498C71.0006 24.5615 70.5286 25.3065 70.1065 26.0797Z" fill="white"/>
<path fill-rule="evenodd" clip-rule="evenodd" d="M125.866 19.6889C126.328 19.009 126.79 18.2476 127.224 17.5406L128.61 15.4193L129.914 19.7161L125.866 19.6889ZM117.958 26.0797H121.844C122.17 25.4543 122.605 24.8288 123.013 24.2033L123.61 23.2514C123.773 22.9794 123.991 22.4628 124.317 22.4628H130.757L131.871 26.1068H135.403L129.534 8.45749C129.181 8.81102 120.214 22.5716 119.371 23.877L117.958 26.0797Z" fill="white"/>
<path fill-rule="evenodd" clip-rule="evenodd" d="M44.5638 26.0797L54.6994 26.0253L55.0526 23.3874H48.2866L48.9659 18.4924H51.1669H55.7591L56.1667 15.6641H49.4278L49.9713 11.8025H56.7646L57.1721 9.05582L46.9279 9.08301L44.5638 26.0797Z" fill="white"/>
<path fill-rule="evenodd" clip-rule="evenodd" d="M16.8201 26.1068H26.9556L27.2817 23.3873H20.5156L21.195 18.5196H26.2763C26.8439 18.6029 27.4206 18.6029 27.9882 18.5196L28.4231 15.8001H21.7384L22.2547 11.9657H29.048L29.4285 9.24625H19.1842L16.8473 26.27L16.8201 26.1068Z" fill="white"/>
<path fill-rule="evenodd" clip-rule="evenodd" d="M5.59766 26.0253H8.88558C9.10296 25.8893 8.8856 26.0253 9.07581 25.6718L9.29324 24.2033C9.45628 23.0883 9.97253 19.009 10.1899 18.4651H15.9506L16.4669 15.7456H10.5704C10.5704 15.3377 11.0051 12.3736 11.1138 11.9113H17.0104L17.3364 9.1918H8.15193L5.73349 26.1612L5.59766 26.0253Z" fill="white"/>
<path fill-rule="evenodd" clip-rule="evenodd" d="M88.2853 26.0253L97.5785 26.0525L97.9046 23.3602H92.1983L93.9917 9.08301L90.7037 9.1102L88.2853 26.0253Z" fill="white"/>
<path d="M7.49978 37.1208C7.20088 36.6585 6.84756 36.0873 6.4128 35.4618L5.78787 34.5645L5.16286 33.7215L4.97263 33.4494H6.22265C6.27861 33.6108 6.35144 33.7657 6.43999 33.9117L6.82046 34.5645L7.20084 35.1627C7.52691 35.7066 7.82586 36.1417 8.0976 36.5224C8.34215 36.1689 8.61385 35.7339 8.91275 35.2444L9.34753 34.5645C9.51057 34.3197 9.61928 34.1021 9.7008 33.9661C9.78956 33.8012 9.86231 33.6282 9.91815 33.4494H10.8692L10.6519 33.7215L10.0541 34.5645L9.45625 35.4075L8.45078 36.9304V38.9428C8.45078 39.2419 8.45078 39.4867 8.45078 39.6771H7.41827C7.43772 39.4327 7.43772 39.1872 7.41827 38.9428V37.1208H7.49978ZM15.1626 39.8403C14.1797 39.9028 13.2093 39.592 12.4452 38.97C12.1065 38.7028 11.8362 38.3586 11.6566 37.9661C11.477 37.5736 11.3935 37.144 11.4127 36.7128C11.4005 36.2602 11.4893 35.8105 11.6726 35.3966C11.8559 34.9826 12.1291 34.6146 12.4724 34.3197C13.262 33.7448 14.2134 33.4353 15.1898 33.4353C16.1662 33.4353 17.1175 33.7448 17.9071 34.3197C18.2459 34.5869 18.5162 34.931 18.6957 35.3235C18.8753 35.716 18.9588 36.1456 18.9395 36.5769C18.9557 37.0301 18.8687 37.481 18.6851 37.8956C18.5015 38.3102 18.2263 38.6776 17.8799 38.97C17.1186 39.6022 16.1512 39.9313 15.1626 39.8945V39.8403ZM15.1626 39.4595C15.5293 39.4688 15.8941 39.4038 16.235 39.2683C16.5759 39.1327 16.8859 38.9294 17.1462 38.6707C17.4063 38.3847 17.6074 38.0501 17.7379 37.6861C17.8685 37.3221 17.9261 36.9359 17.9071 36.5496C17.9237 36.1801 17.8648 35.811 17.734 35.4649C17.6031 35.1189 17.4031 34.8033 17.1462 34.5373C16.8836 34.2835 16.5727 34.0853 16.2319 33.9545C15.891 33.8237 15.5274 33.7628 15.1626 33.7757C14.794 33.7699 14.4279 33.8393 14.0869 33.9796C13.7459 34.1198 13.437 34.328 13.1789 34.5915C12.6702 35.1667 12.4068 35.9184 12.4452 36.6856C12.425 37.0533 12.4797 37.4212 12.6058 37.7671C12.7319 38.113 12.9269 38.4297 13.1789 38.698C13.4415 38.9517 13.7526 39.1499 14.0934 39.2807C14.4342 39.4116 14.7978 39.4724 15.1626 39.4595ZM26.2491 37.0119C26.2808 37.3929 26.2319 37.7765 26.1055 38.1373C25.9791 38.4981 25.7781 38.8281 25.5155 39.1059C25.2202 39.3669 24.8758 39.5661 24.5025 39.6922C24.1293 39.8183 23.7347 39.8687 23.3417 39.8403C22.5725 39.9147 21.804 39.6907 21.195 39.2147C20.9486 38.9717 20.7578 38.678 20.6359 38.354C20.5139 38.0301 20.4636 37.6835 20.4884 37.3382V34.6188C20.4884 34.238 20.4884 33.9933 20.4884 33.8302C20.4884 33.667 20.4884 33.5854 20.4884 33.5039H21.521C21.5013 33.6209 21.5013 33.7404 21.521 33.8574C21.521 33.9934 21.521 34.238 21.521 34.6188C21.521 34.9995 21.521 35.8969 21.521 36.6856V37.0391C21.4677 37.6721 21.6518 38.3023 22.0373 38.8068C22.2538 39.0113 22.5109 39.1677 22.7918 39.2661C23.0727 39.3645 23.3712 39.4025 23.6678 39.3778C23.9731 39.4032 24.2802 39.3602 24.5669 39.252C24.8536 39.1438 25.1127 38.9732 25.3253 38.7524C25.7294 38.2049 25.9136 37.5256 25.8416 36.8487V34.6188C25.8607 34.3562 25.8607 34.0927 25.8416 33.8302C25.8604 33.7222 25.8604 33.6118 25.8416 33.5039H26.5753C26.5849 33.6306 26.5849 33.7579 26.5753 33.8846C26.5753 33.8846 26.5753 34.2652 26.5753 34.6188C26.5753 34.9723 26.5753 35.8969 26.5753 36.6856V37.0119H26.2491ZM28.2057 38.6165C28.2057 38.0182 28.2057 37.3654 28.2057 36.6311C28.2057 35.8969 28.2057 35.217 28.2057 34.6188C28.2057 34.0205 28.2057 33.9661 28.2057 33.803C28.2057 33.6398 28.2057 33.5582 28.2057 33.5039H30.4067C30.99 33.4644 31.573 33.5868 32.0914 33.8574C32.2691 33.9818 32.4123 34.1493 32.5073 34.3444C32.6024 34.5395 32.6463 34.7556 32.6349 34.9723C32.6306 35.233 32.5514 35.4871 32.4068 35.7041C32.2623 35.9211 32.0585 36.0918 31.8197 36.1961C31.4292 36.4246 30.993 36.5639 30.5425 36.6041L31.7653 38.0181L32.336 38.6165C32.7164 39.0244 32.9609 39.3235 33.124 39.4595L33.3956 39.7314H32.1186L31.8197 39.2963C31.6332 39.0588 31.4335 38.8318 31.2218 38.6165L30.6783 37.9638L29.4827 36.6856H29.1294C29.1294 37.3926 29.1294 38.0454 29.1294 38.6165C29.1294 39.1876 29.1294 39.2691 29.1294 39.4323C29.1221 39.5318 29.1221 39.6318 29.1294 39.7314H28.097C28.097 39.7314 28.097 39.5682 28.097 39.4323C28.097 39.2963 28.097 39.0244 28.097 38.6165H28.2057ZM29.0752 36.2778H29.5371C30.0562 36.3145 30.5749 36.201 31.0316 35.9513C31.2001 35.8641 31.3406 35.7311 31.4368 35.5675C31.5329 35.4039 31.5809 35.2165 31.5751 35.0267C31.5834 34.8671 31.5503 34.708 31.4789 34.565C31.4075 34.422 31.3 34.3001 31.1674 34.2109C30.7937 34.0066 30.3698 33.9122 29.9448 33.9389H29.0752V36.2778ZM37.2271 38.6165C37.2271 38.0182 37.2271 37.3654 37.2271 36.6311C37.2271 35.8969 37.2271 35.2171 37.2271 34.646C37.2464 34.3744 37.2464 34.1018 37.2271 33.8302C37.2444 33.7221 37.2444 33.6119 37.2271 33.5039H39.3193C39.9501 33.4543 40.5819 33.5864 41.1401 33.8846C41.3404 34.0093 41.5022 34.1871 41.6078 34.3983C41.7133 34.6096 41.7583 34.8459 41.7378 35.0812C41.7432 35.3451 41.6812 35.606 41.5575 35.8392C41.4339 36.0724 41.2527 36.2702 41.0313 36.4137C40.4365 36.7513 39.7577 36.9116 39.0749 36.876H38.0423C38.0423 37.5286 38.0423 38.127 38.0423 38.6437C38.0423 39.1604 38.0423 39.3235 38.0423 39.4595C38.0423 39.5955 38.0423 39.7042 38.0423 39.7586H37.0097C37.0275 39.6597 37.0275 39.5584 37.0097 39.4595C37.0283 39.1879 37.0283 38.9153 37.0097 38.6437L37.2271 38.6165ZM38.1239 36.4409H38.8032C39.2854 36.4647 39.7621 36.331 40.1619 36.0602C40.3257 35.9561 40.4594 35.8109 40.55 35.6392C40.6405 35.4675 40.6846 35.2752 40.678 35.0812C40.688 34.9136 40.656 34.7462 40.5848 34.5942C40.5136 34.4422 40.4056 34.3105 40.2705 34.2109C39.881 33.994 39.4385 33.8903 38.9933 33.9117H38.0423V36.3865L38.1239 36.4409ZM42.6617 39.7858C42.6805 39.6778 42.6805 39.5675 42.6617 39.4595C42.6617 39.4595 42.6617 39.0515 42.6617 38.6707C42.6617 38.29 42.6617 37.3655 42.6617 36.6041C42.6617 35.8426 42.6617 35.1628 42.6617 34.5645C42.6617 33.9662 42.6617 33.9117 42.6617 33.7485C42.6796 33.6496 42.6796 33.5483 42.6617 33.4494H43.2595H45.7051H46.33C46.2938 33.6472 46.2938 33.85 46.33 34.0478H45.7323H43.6399V36.3048H45.4605H46.0856C46.0856 36.3048 46.0856 36.4952 46.0856 36.6311C46.0856 36.7671 46.0856 36.8488 46.0856 36.9304H45.4605H43.6399C43.6399 37.9094 43.6399 38.7524 43.6399 39.4595H45.6235H46.33C46.3167 39.5679 46.3167 39.6774 46.33 39.7858C46.3152 39.885 46.3152 39.9858 46.33 40.0849H45.6779H43.2867H42.6617V39.7858ZM47.9605 38.6165V34.6188C47.9605 34.238 47.9605 33.9661 47.9605 33.803C47.9678 33.7034 47.9678 33.6034 47.9605 33.5039H50.1615C50.7454 33.457 51.3304 33.5798 51.8463 33.8574C52.0309 33.9766 52.1808 34.1425 52.281 34.3383C52.3811 34.534 52.428 34.7527 52.4168 34.9723C52.4137 35.2369 52.332 35.4946 52.1819 35.7126C52.0319 35.9305 51.8204 36.0989 51.5744 36.1961C51.1936 36.4241 50.7665 36.5635 50.3246 36.6041L51.5472 38.0181L52.0907 38.6165L52.8788 39.4595L53.1505 39.7314H51.9005C51.8097 39.5737 51.7002 39.4277 51.5744 39.2963C51.3992 39.0575 51.2087 38.8304 51.0039 38.6165L50.4332 37.9638C49.9984 37.4743 49.618 37.0391 49.2648 36.6856H48.9115C48.9115 37.3926 48.9115 38.0454 48.9115 38.6165C48.9115 39.1876 48.9115 39.2691 48.9115 39.4323C48.9115 39.5954 48.9115 39.677 48.9115 39.7314H47.8789C47.8862 39.6318 47.8862 39.5318 47.8789 39.4323C47.8789 39.2691 47.8789 39.0244 47.8789 38.6165H47.9605ZM48.8299 36.2778H49.292C49.8111 36.3145 50.3298 36.201 50.7865 35.9513C50.951 35.8594 51.0882 35.7254 51.1837 35.5629C51.2792 35.4004 51.3297 35.2153 51.33 35.0267C51.3383 34.8641 51.3022 34.7022 51.2256 34.5585C51.1491 34.4148 51.0347 34.2946 50.8951 34.2109C50.5236 34.0006 50.098 33.9059 49.6724 33.9389H48.9115V36.2778H48.8299ZM53.9929 38.6165C53.9929 38.0182 53.9929 37.3383 53.9929 36.6041C53.9929 35.8698 53.9929 35.1628 53.9929 34.5645C53.9929 33.9662 53.9929 33.9117 53.9929 33.7485C54.0107 33.6496 54.0107 33.5483 53.9929 33.4494H54.6722H57.0634H57.6884C57.6521 33.6472 57.6521 33.85 57.6884 34.0478H57.0906H54.8896C54.8896 34.6733 54.8896 35.4075 54.8896 36.2778H56.846H57.4711C57.4711 36.2778 57.4711 36.4681 57.4711 36.5769C57.4711 36.6856 57.4711 36.7944 57.4711 36.876H56.9004H54.8896C54.8896 37.6102 54.8896 38.263 54.8896 38.8341C54.8896 39.4052 54.8896 39.5139 54.8896 39.6499C54.8718 39.7488 54.8718 39.8501 54.8896 39.949H53.857C53.8749 39.8501 53.8749 39.7488 53.857 39.6499C53.857 39.4867 53.857 39.242 53.857 38.8341L53.9929 38.6165ZM58.9928 39.7858C58.9832 39.6772 58.9832 39.5681 58.9928 39.4595C58.9928 39.4595 58.9928 39.0515 58.9928 38.6707C58.9928 38.29 58.9928 37.3655 58.9928 36.6041C58.9928 35.8426 58.9928 35.1628 58.9928 34.5645C58.9928 33.9662 58.9928 33.9117 58.9928 33.7485C58.9826 33.6491 58.9826 33.5489 58.9928 33.4494H59.5905H62.009H62.6611C62.6249 33.6472 62.6249 33.85 62.6611 34.0478H62.0362H59.971V36.3048H61.7643H62.4165C62.4005 36.413 62.4005 36.523 62.4165 36.6311C62.4016 36.7303 62.4016 36.8313 62.4165 36.9304H61.7643H59.971C59.971 37.9094 59.971 38.7524 59.971 39.4595H61.9546H62.6611C62.6477 39.5679 62.6477 39.6774 62.6611 39.7858C62.6462 39.885 62.6462 39.9858 62.6611 40.0849H62.009H59.6177H58.9928V39.7858ZM69.699 38.8068C69.6887 38.8972 69.6887 38.9884 69.699 39.0787C69.699 39.0787 69.699 39.2418 69.699 39.3506C69.3599 39.5139 69.0047 39.6415 68.6392 39.7314C68.2237 39.7753 67.8047 39.7753 67.3892 39.7314C66.4663 39.7779 65.561 39.4662 64.8621 38.8611C64.5412 38.5817 64.2869 38.234 64.1176 37.8435C63.9483 37.4529 63.8685 37.0295 63.8839 36.6041C63.8644 36.1531 63.9472 35.7035 64.1261 35.289C64.3049 34.8746 64.5751 34.506 64.9165 34.2109C65.6712 33.567 66.6433 33.2361 67.6338 33.2863C68.0312 33.2435 68.432 33.2435 68.8294 33.2863C69.2004 33.3513 69.5642 33.4514 69.9163 33.5854C69.8632 33.7094 69.8179 33.8365 69.7804 33.9661V34.3469H69.6174C69.3878 34.0901 69.0985 33.8938 68.775 33.7757C68.4483 33.6364 68.0975 33.5626 67.7424 33.5583C67.3765 33.5426 67.0116 33.6074 66.6735 33.7483C66.3354 33.8893 66.0325 34.103 65.7861 34.3741C65.5187 34.6496 65.3127 34.9785 65.1815 35.3395C65.0504 35.7004 64.997 36.085 65.0251 36.468C65.0122 36.8331 65.073 37.1972 65.2038 37.5382C65.3345 37.8793 65.5325 38.1905 65.7861 38.4533C66.03 38.711 66.3254 38.9143 66.6531 39.0502C66.9808 39.1861 67.3334 39.2514 67.688 39.2419C68.0872 39.2381 68.4828 39.1644 68.8566 39.0243C69.2099 38.9156 69.5347 38.73 69.8076 38.4805L69.699 38.8068ZM72.4163 38.6165C72.4163 38.0182 72.4163 37.3654 72.4163 36.6311C72.4163 35.8969 72.4163 34.7003 72.4163 33.9117H70.8946H70.2153C70.2515 33.7139 70.2515 33.5113 70.2153 33.3135H71.4651H74.1824H75.4325C75.3594 33.5062 75.3594 33.719 75.4325 33.9117H74.7259H73.3673C73.3673 34.6459 73.3673 35.5434 73.3673 36.6311V38.6437C73.3673 39.0516 73.3673 39.2963 73.3673 39.4595C73.36 39.5591 73.36 39.659 73.3673 39.7586H72.3347C72.3347 39.7586 72.3347 39.5955 72.3347 39.4595V38.6437L72.4163 38.6165ZM79.3996 38.6165C79.3996 38.0182 79.3996 37.3654 79.3996 36.6311C79.3996 35.8969 79.3996 35.217 79.3996 34.6188C79.3996 34.0205 79.3996 33.9661 79.3996 33.803C79.3996 33.6398 79.3996 33.5582 79.3996 33.5039H81.329C81.9531 33.4676 82.5768 33.5794 83.1495 33.8302C83.3347 33.9305 83.4887 34.08 83.5942 34.2624C83.6997 34.4448 83.7527 34.6529 83.7474 34.8636C83.7416 35.103 83.67 35.3362 83.5406 35.5376C83.4112 35.7391 83.2289 35.901 83.0137 36.0057C82.7299 36.1791 82.4169 36.299 82.0899 36.3593C82.5081 36.3955 82.9148 36.5158 83.2855 36.7128C83.5012 36.8404 83.6781 37.0242 83.7977 37.2444C83.9173 37.4647 83.9752 37.7133 83.9649 37.9638C83.9636 38.2288 83.8893 38.4882 83.7502 38.7137C83.6112 38.9392 83.4128 39.1219 83.1767 39.2419C82.5673 39.5948 81.8693 39.7647 81.1659 39.7314H79.3996C79.3996 39.7314 79.3996 39.5682 79.3996 39.4323C79.3996 39.2963 79.3996 39.0244 79.3996 38.6165ZM80.2692 34.0206V36.1961H80.8943C81.3521 36.2226 81.807 36.1087 82.1985 35.8698C82.3487 35.7799 82.4728 35.6523 82.5586 35.4996C82.6444 35.347 82.6888 35.1746 82.6876 34.9995C82.6919 34.8449 82.6537 34.6922 82.577 34.5578C82.5003 34.4235 82.3882 34.313 82.2529 34.2382C81.8876 34.0374 81.4734 33.9431 81.0573 33.9661C80.7954 33.9382 80.5311 33.9382 80.2692 33.9661V34.0206ZM80.2692 36.74V39.2963H80.8943C81.4252 39.3301 81.9542 39.2072 82.416 38.9428C82.5841 38.83 82.72 38.6755 82.8105 38.4943C82.901 38.3131 82.943 38.1116 82.9323 37.9094C82.9406 37.7225 82.8968 37.5369 82.8055 37.3736C82.7143 37.2102 82.5794 37.0755 82.416 36.9847C81.9645 36.7494 81.456 36.6458 80.9485 36.6856L80.2692 36.74ZM85.3777 38.698C85.7038 38.1269 86.0299 37.4471 86.4103 36.7128C87.0353 35.489 87.5244 34.4556 87.9048 33.6126H88.1494L89.6167 36.7128C89.97 37.4471 90.296 38.1269 90.6221 38.698L91.1928 39.813H90.0788C90.0873 39.659 90.0873 39.5046 90.0788 39.3506L89.7798 38.698L89.2092 37.5014C88.7841 37.4708 88.3572 37.4708 87.932 37.5014C87.5174 37.4437 87.0968 37.4437 86.6822 37.5014C86.4648 37.9365 86.2745 38.3172 86.1115 38.698C85.9484 39.0787 85.8941 39.1876 85.8398 39.3236L85.6768 39.813H84.8614L85.0517 39.541L85.5136 38.698H85.3777ZM87.8234 34.8908C87.492 35.4723 87.1926 36.0714 86.9266 36.6856V36.9032C87.2521 36.9318 87.5794 36.9318 87.9048 36.9032H88.9102V36.6856L88.0408 34.8908H87.8234ZM93.0134 38.698C93.0134 39.0787 93.0134 39.3507 93.0134 39.4867C93.0134 39.6227 93.0134 39.7586 93.0134 39.813H92.3884C92.3958 39.7135 92.3958 39.6135 92.3884 39.5139C92.3884 39.3508 92.3884 39.1059 92.3884 38.698C92.3884 38.29 92.3884 37.4471 92.3884 36.7128C92.3884 35.9785 92.3884 35.2987 92.3884 34.7276C92.3884 34.1566 92.3884 34.0476 92.3884 33.9117C92.3958 33.8121 92.3958 33.7122 92.3884 33.6126H92.6873C93.5568 34.4828 94.6711 35.5435 96.0297 36.7945L97.6872 38.3716V34.7004C97.6872 34.3197 97.6872 34.0478 97.6872 33.8846C97.705 33.7857 97.705 33.6843 97.6872 33.5854H98.3937C98.3937 33.5854 98.3937 33.7486 98.3937 33.8846C98.3937 34.0206 98.3937 34.3197 98.3937 34.7004C98.3937 35.0812 98.3937 35.9786 98.3937 36.7672C98.3937 38.0182 98.3937 39.0787 98.3937 39.9218H98.1219C97.2524 39.0515 96.1384 37.9638 94.8069 36.7128L93.095 35.1355V36.6856C93.095 37.447 93.095 38.0997 93.095 38.698H93.0134ZM101.165 38.698C101.165 39.1059 101.165 39.3508 101.165 39.5139C101.165 39.6771 101.165 39.7586 101.165 39.813H100.133C100.14 39.7135 100.14 39.6135 100.133 39.5139C100.133 39.378 100.133 39.1059 100.133 38.698V34.7004C100.133 34.3197 100.133 34.0478 100.133 33.8846C100.14 33.785 100.14 33.6849 100.133 33.5854H101.165C101.165 33.5854 101.165 33.7486 101.165 33.8846C101.165 34.0206 101.165 34.3197 101.165 34.7004C101.165 35.0812 101.165 35.8153 101.165 36.468C101.627 36.1144 102.144 35.6794 102.741 35.1355C103.339 34.5916 103.91 34.0205 104.29 33.6126H105.35C105.216 33.6921 105.088 33.7832 104.97 33.8846L103.964 34.7276L103.258 35.3531L102.198 36.2778L103.312 37.4743L104.426 38.6437L105.241 39.5139L105.54 39.7586H104.236C104.145 39.6009 104.036 39.4549 103.91 39.3236L103.285 38.6437L102.769 38.0998C102.198 37.5015 101.709 36.9848 101.301 36.6041C101.301 37.3383 101.301 37.991 101.301 38.5892L101.165 38.698ZM106.437 38.698V34.7004C106.437 34.3197 106.437 34.0478 106.437 33.8846C106.455 33.7857 106.455 33.6843 106.437 33.5854H107.469C107.469 33.5854 107.469 33.7486 107.469 33.8846C107.469 34.0206 107.469 34.3197 107.469 34.7004C107.469 35.0812 107.469 35.9513 107.469 36.6856C107.469 37.4198 107.469 38.0997 107.469 38.698C107.469 39.2962 107.469 39.3508 107.469 39.5139C107.469 39.6771 107.469 39.7586 107.469 39.813H106.437C106.455 39.7141 106.455 39.6128 106.437 39.5139C106.437 39.3508 106.437 39.1059 106.437 38.698ZM109.915 38.698C109.915 39.0787 109.915 39.3507 109.915 39.4867C109.892 39.5943 109.892 39.7054 109.915 39.813H109.181C109.189 39.7135 109.189 39.6135 109.181 39.5139C109.181 39.3508 109.181 39.1059 109.181 38.698C109.181 38.29 109.181 37.4471 109.181 36.7128C109.181 35.9785 109.181 35.2987 109.181 34.7276C109.181 34.1566 109.181 34.0476 109.181 33.9117C109.189 33.8121 109.189 33.7122 109.181 33.6126H109.48C110.35 34.4828 111.464 35.5435 112.823 36.7945L114.48 38.3716V36.7672C114.48 36.0058 114.48 35.2987 114.48 34.7004C114.498 34.4288 114.498 34.1563 114.48 33.8846C114.498 33.7857 114.498 33.6843 114.48 33.5854H115.187C115.187 33.5854 115.187 33.7486 115.187 33.8846C115.187 34.0206 115.187 34.3197 115.187 34.7004C115.187 35.0812 115.187 35.9786 115.187 36.7672C115.187 38.0182 115.187 39.0787 115.187 39.9218H114.915C114.045 39.0515 112.931 37.9638 111.6 36.7128L109.915 35.1355V36.6856C109.915 37.447 109.915 38.0997 109.915 38.698ZM120.268 39.9218C119.285 39.987 118.313 39.6759 117.551 39.0515C117.217 38.7815 116.952 38.4362 116.777 38.0438C116.602 37.6515 116.523 37.2234 116.545 36.7945C116.534 36.3445 116.62 35.8971 116.798 35.4839C116.976 35.0706 117.243 34.7013 117.578 34.4013C118.338 33.7669 119.306 33.4373 120.295 33.4766C120.783 33.4313 121.274 33.4313 121.763 33.4766C122.197 33.564 122.618 33.7103 123.013 33.9117C123.004 34.0294 123.004 34.1475 123.013 34.2652C123.013 34.2652 123.013 34.51 123.013 34.646H122.85C122.558 34.3671 122.217 34.1457 121.844 33.9933C121.466 33.8285 121.061 33.7363 120.648 33.7215C120.262 33.7004 119.875 33.7622 119.514 33.9029C119.153 34.0436 118.827 34.2599 118.556 34.5373C118.289 34.8193 118.081 35.1527 117.945 35.5172C117.81 35.8818 117.75 36.2699 117.768 36.6584C117.759 37.0254 117.824 37.3906 117.959 37.7318C118.095 38.073 118.298 38.3831 118.556 38.6437C119.127 39.1627 119.878 39.4361 120.648 39.405C121.225 39.3994 121.796 39.2888 122.333 39.0787V38.4533C122.333 38.0454 122.333 37.7462 122.333 37.5286V36.7945H123.393C123.373 36.9206 123.373 37.0489 123.393 37.1751C123.393 37.311 123.393 37.5558 123.393 37.9094V38.0725C123.375 38.3714 123.375 38.6711 123.393 38.97C123.378 39.1147 123.378 39.2604 123.393 39.405C122.465 39.6698 121.504 39.798 120.54 39.7858L120.268 39.9218ZM127.768 38.698C127.768 38.0997 127.768 37.4471 127.768 36.7128C127.768 35.9785 127.768 35.2987 127.768 34.7276C127.787 34.456 127.787 34.1833 127.768 33.9117C127.785 33.8036 127.785 33.6934 127.768 33.5854H129.86C130.491 33.5358 131.123 33.6679 131.681 33.9661C131.877 34.0951 132.036 34.2738 132.141 34.484C132.245 34.6941 132.293 34.9282 132.278 35.1627C132.284 35.4266 132.222 35.6875 132.098 35.9207C131.975 36.1539 131.793 36.3517 131.572 36.4952C130.969 36.8364 130.28 36.997 129.588 36.9576H128.719C128.719 37.6103 128.719 38.2085 128.719 38.7252C128.719 39.2419 128.719 39.405 128.719 39.541C128.719 39.677 128.719 39.7859 128.719 39.8403H127.713C127.731 39.7413 127.731 39.6399 127.713 39.541C127.732 39.2694 127.732 38.9968 127.713 38.7252L127.768 38.698ZM128.637 36.5224H129.317C129.807 36.5407 130.29 36.4078 130.702 36.1417C130.861 36.0321 130.991 35.886 131.081 35.7156C131.17 35.5451 131.218 35.3554 131.219 35.1627C131.223 34.9931 131.186 34.825 131.11 34.6732C131.034 34.5214 130.922 34.3906 130.784 34.2924C130.397 34.0683 129.953 33.9642 129.507 33.9933H128.637V36.468V36.5224ZM133.23 38.698C133.556 38.1269 133.882 37.4471 134.262 36.7128C134.887 35.489 135.376 34.4556 135.757 33.6126H136.001L137.469 36.7128C137.822 37.4471 138.148 38.1269 138.447 38.698L139.045 39.813H137.931C137.939 39.659 137.939 39.5046 137.931 39.3506C137.931 39.3506 137.768 38.9971 137.632 38.698L137.061 37.5014C136.636 37.4708 136.209 37.4708 135.784 37.5014C135.36 37.4446 134.931 37.4446 134.507 37.5014L133.963 38.698C133.963 38.9699 133.746 39.1876 133.692 39.3236L133.529 39.813H132.713C132.713 39.813 132.713 39.677 132.903 39.541C133.094 39.405 133.121 39.1059 133.365 38.698H133.23ZM135.675 34.8908C135.344 35.4723 135.044 36.0714 134.778 36.6856V36.9032C135.104 36.9318 135.431 36.9318 135.757 36.9032H136.762V36.6856L135.893 34.8908H135.675Z" fill="white"/>
<path d="M140.213 38.562C140.213 37.9637 140.213 37.3111 140.213 36.5768C140.213 35.8426 140.213 35.1627 140.213 34.5645C140.231 34.2928 140.231 34.0201 140.213 33.7485C140.231 33.6496 140.231 33.5483 140.213 33.4494H142.414C142.998 33.4025 143.583 33.5253 144.099 33.8029C144.284 33.9222 144.433 34.088 144.534 34.2838C144.634 34.4795 144.681 34.6984 144.669 34.918C144.666 35.1826 144.585 35.4403 144.435 35.6583C144.285 35.8762 144.073 36.0444 143.827 36.1416C143.446 36.3696 143.019 36.5091 142.577 36.5496C142.903 36.9575 143.311 37.4471 143.8 37.9638L144.343 38.562L145.131 39.405L145.403 39.6771H144.017C143.927 39.5194 143.817 39.3732 143.691 39.2419C143.516 39.003 143.325 38.7759 143.121 38.562L142.55 37.9093C142.115 37.4198 141.735 36.9846 141.382 36.6311H141.028C141.028 37.3382 141.028 37.9909 141.028 38.562C141.028 39.1331 141.028 39.2146 141.028 39.3778C141.028 39.541 141.028 39.6227 141.028 39.6771H139.996C140.003 39.5775 140.003 39.4774 139.996 39.3778V38.562H140.213ZM141.11 36.2233H141.572C142.091 36.26 142.61 36.1467 143.066 35.897C143.231 35.8051 143.368 35.6709 143.463 35.5084C143.559 35.3459 143.609 35.1608 143.61 34.9723C143.618 34.8096 143.582 34.6478 143.505 34.504C143.429 34.3603 143.315 34.2402 143.175 34.1565C142.803 33.9462 142.378 33.8516 141.952 33.8846H141.11V36.2233ZM147.876 38.562C147.876 37.9637 147.876 37.3111 147.876 36.5768C147.876 35.8426 147.876 34.646 147.876 33.8574H146.327H145.648C145.721 33.6647 145.721 33.4517 145.648 33.259H146.925H149.642H150.865C150.829 33.4568 150.829 33.6596 150.865 33.8574H150.158H148.8C148.8 34.5916 148.8 35.4891 148.8 36.5768C148.8 37.6646 148.8 37.9909 148.8 38.5892C148.8 39.1875 148.8 39.2419 148.8 39.405C148.8 39.5682 148.8 39.6497 148.8 39.7041H147.767C147.785 39.6052 147.785 39.5039 147.767 39.405C147.786 39.1334 147.786 38.8608 147.767 38.5892L147.876 38.562ZM152.74 38.562C152.721 38.8245 152.721 39.088 152.74 39.3506C152.721 39.4585 152.721 39.5691 152.74 39.6771H152.169C152.187 39.5782 152.187 39.4767 152.169 39.3778C152.188 39.1062 152.188 38.8336 152.169 38.562C152.169 37.9637 152.169 37.3111 152.169 36.5768C152.169 35.8426 152.169 35.1626 152.169 34.5915C152.188 34.3199 152.188 34.0473 152.169 33.7757C152.187 33.6768 152.187 33.5755 152.169 33.4766H152.468C153.338 34.3468 154.452 35.4074 155.783 36.6583L157.468 38.2357V36.6311C157.468 35.8697 157.468 35.1627 157.468 34.5645C157.468 33.9662 157.468 33.9117 157.468 33.7485C157.486 33.6496 157.486 33.5483 157.468 33.4494H158.175C158.157 33.5483 158.157 33.6496 158.175 33.7485C158.175 33.9117 158.175 34.1837 158.175 34.5645V36.6311C158.175 37.8821 158.175 38.9428 158.175 39.7858H157.604C156.761 38.9156 155.647 37.8278 154.289 36.5768L152.604 34.9995V36.5496C152.604 37.3111 152.604 37.9637 152.604 38.562H152.74ZM159.696 39.7313C159.696 39.7313 159.696 39.5682 159.696 39.405C159.696 39.2419 159.696 38.9972 159.696 38.6164C159.696 38.2357 159.696 37.3111 159.696 36.5496C159.696 35.7882 159.696 35.1083 159.696 34.51C159.696 33.9117 159.696 33.8574 159.696 33.6942C159.696 33.531 159.696 33.4495 159.696 33.3951H160.294H162.74H163.365C163.328 33.5929 163.328 33.7955 163.365 33.9933H162.767H160.674V36.2505H162.495H163.147C163.131 36.3587 163.131 36.4686 163.147 36.5768C163.132 36.676 163.132 36.7768 163.147 36.8759H162.495H160.674C160.674 37.8549 160.674 38.698 160.674 39.405H162.658H163.365C163.351 39.5134 163.351 39.623 163.365 39.7313C163.35 39.8305 163.35 39.9313 163.365 40.0304H162.712H160.321H159.696V39.7313ZM165.131 38.562V34.5645C165.131 34.1837 165.131 33.9117 165.131 33.7485C165.138 33.6489 165.138 33.549 165.131 33.4494H167.359C167.934 33.4063 168.509 33.529 169.017 33.8029C169.201 33.9222 169.351 34.088 169.451 34.2838C169.552 34.4795 169.598 34.6984 169.587 34.918C169.584 35.1826 169.502 35.4403 169.352 35.6583C169.202 35.8762 168.991 36.0444 168.745 36.1416C168.368 36.378 167.939 36.5181 167.495 36.5496C167.821 36.9575 168.229 37.4471 168.718 37.9638L169.261 38.562C169.669 38.9699 169.913 39.269 170.049 39.405L170.321 39.6771H169.071C168.971 39.5256 168.862 39.3802 168.745 39.2419C168.57 39.003 168.379 38.7759 168.174 38.562L167.604 37.9093C167.169 37.4198 166.788 36.9846 166.435 36.6311H165.756C165.756 37.3382 165.756 37.9909 165.756 38.562C165.756 39.1331 165.756 39.2146 165.756 39.3778C165.756 39.541 165.756 39.6227 165.756 39.6771H164.723C164.73 39.5775 164.73 39.4774 164.723 39.3778C164.723 39.2146 164.723 38.9699 164.723 38.562H165.131ZM166 36.2233H166.462C166.981 36.26 167.5 36.1467 167.957 35.897C168.121 35.8051 168.258 35.6709 168.354 35.5084C168.45 35.3459 168.5 35.1608 168.5 34.9723C168.509 34.8096 168.473 34.6478 168.396 34.504C168.319 34.3603 168.205 34.2402 168.065 34.1565C167.694 33.9462 167.268 33.8516 166.843 33.8846H165.756V36.2233H166Z" fill="white"/>
</g>
<defs>
<clipPath id="clip0_4_1362">
<rect width="176" height="57" fill="white"/>
</clipPath>
</defs>
</svg>
