<svg width="78" height="24" viewBox="0 0 78 24" fill="none" xmlns="http://www.w3.org/2000/svg">
<g clip-path="url(#clip0_45_4251)">
<path d="M77.6905 0H0.041748V19.4125H77.6905V0Z" fill="#004E96"/>
<path d="M77.6905 17.4705H0.041748V19.4113H77.6905V17.4705Z" fill="#FAA61A"/>
<path d="M9.37926 4.41499L9.24506 5.83366H6.73815L6.50359 7.80377H9.02064L8.85261 9.23597H6.33443L5.85402 13.1029H4.40942L5.42888 4.40259L9.37926 4.41499Z" fill="white"/>
<path d="M10.1133 4.41841L9.12659 13.0691C9.12659 13.0691 13.3871 13.1548 13.3871 13.0567C13.3871 12.9586 13.5326 11.6865 13.5326 11.6865H10.6806L10.9693 9.21119H13.8314L14.0096 7.76659H11.1644L11.3967 5.81339H14.2498L14.4156 4.40601L10.1133 4.41841Z" fill="white"/>
<path d="M21.784 4.41841L20.7961 13.0691C20.7961 13.0691 25.0566 13.1548 25.0566 13.0567C25.0566 12.9586 25.2021 11.6865 25.2021 11.6865H22.349L22.6377 9.21119H25.501L25.678 7.76659H22.8373L23.0696 5.81339H25.9216L26.0896 4.40601L21.784 4.41841Z" fill="white"/>
<path d="M17.2124 4.43984L15.2761 4.42969L14.2983 13.0815H15.7114V13.0747C16.0125 13.1041 17.7131 13.2349 18.7731 12.6169C18.7731 12.6169 20.9552 11.7215 20.9349 8.13535C20.9361 8.13197 20.8086 4.84018 17.2124 4.43984ZM17.5597 11.6854C17.5597 11.6854 16.2233 11.7722 15.8681 11.726L16.5346 5.84271L17.5913 5.82241C17.5913 5.82241 19.1047 5.82241 19.5388 7.76208C19.5422 7.77388 19.5444 7.78596 19.5456 7.79817C19.9674 9.77505 18.7201 11.523 17.5597 11.6854Z" fill="white"/>
<path d="M31.3504 13.1029L29.5224 9.38147C29.5224 9.38147 31.1159 9.08827 31.267 6.83397C31.267 6.83397 31.2997 4.57854 29.0702 4.45111H26.9862L25.9972 13.1018H27.4553L27.8545 9.53484L28.0462 9.54725L29.8506 13.1041L31.3504 13.1029ZM28.2786 5.82805C28.2786 5.82805 29.6848 5.57093 29.8698 6.42799C29.8698 6.42799 30.1923 8.02709 28.7263 8.2391L28.0057 8.23233L28.2786 5.82805Z" fill="white"/>
<path d="M37.3848 13.1029H38.8824L36.3665 4.39807L31.5173 13.0916H33.1638L34.1257 11.2523H36.9168L37.3848 13.1029ZM34.8554 9.85733L36.0101 7.64927L36.574 9.86861L34.8554 9.85733Z" fill="white"/>
<path d="M56.7996 13.1029H58.3028L55.7812 4.39807L50.9321 13.0916H52.5774L53.5393 11.2523H56.3304L56.7996 13.1029ZM54.2701 9.85733L55.426 7.64927L55.9842 9.86861L54.2701 9.85733Z" fill="white"/>
<path d="M40.194 4.48607L39.1802 13.1029H43.0776L43.2253 11.7361H40.8109L41.5788 4.47253L40.194 4.48607Z" fill="white"/>
<path d="M50.164 8.57063C50.164 8.57063 51.3267 7.58163 51.0256 6.27686C51.0256 6.27686 50.8824 4.6101 48.9112 4.43756H47.0143L46.0366 13.0837H47.5173C47.5173 13.0837 47.7541 13.0837 48.2368 13.0837C48.2368 13.0837 50.1483 13.0995 50.7967 12.0147C50.7967 12.0181 52.0609 10.1167 50.164 8.57063ZM48.4082 5.68368C48.4082 5.68368 49.2856 5.62053 49.6025 6.13477C49.6025 6.13477 50.2204 7.34593 48.8976 7.91092L48.1274 7.95603L48.3789 5.82465L48.4082 5.68368ZM49.5303 11.3741C49.5303 11.3741 49.157 11.9245 47.7192 11.7361H47.6774L47.974 9.24726C48.2142 9.22809 48.7781 9.19764 48.9698 9.31943C48.9698 9.31379 50.3783 9.66113 49.5303 11.3741Z" fill="white"/>
<path d="M60.0857 4.36761L58.8339 13.0905H60.2199L60.9687 7.46206L65.6735 13.0555L66.8632 4.40708H65.3747L64.7657 9.60584L60.0857 4.36761Z" fill="white"/>
<path d="M73.3228 4.40599H71.6741L68.8965 7.44292L69.245 4.40599L67.7541 4.3902L66.7561 13.1029H68.2469L68.6439 9.64534L68.8785 9.38259L71.4575 13.0702H73.1502L69.952 8.18044L73.3228 4.40599Z" fill="white"/>
<path d="M1.16154 22.7099C1.02396 22.4844 0.85819 22.2126 0.66084 21.9036L0.373273 21.4649L0.0981111 21.0544C0.0462363 20.9834 0.0135326 20.9417 0 20.9225C0.0944157 20.9321 0.189281 20.9366 0.284184 20.936C0.377582 20.9365 0.470938 20.9319 0.563857 20.9225C0.593151 20.9994 0.626657 21.0747 0.664223 21.148C0.699182 21.2202 0.760079 21.324 0.841274 21.4604L1.01494 21.7649C1.16831 22.0186 1.30251 22.2397 1.42317 22.4235C1.53595 22.2498 1.66338 22.0434 1.79983 21.8055L1.9938 21.4672C2.06484 21.3476 2.1201 21.2495 2.15506 21.1773C2.19488 21.0952 2.2299 21.0109 2.25994 20.9247C2.32718 20.9342 2.39502 20.9387 2.46293 20.9383C2.53083 20.9388 2.59869 20.9343 2.66591 20.9247C2.65013 20.9405 2.61855 20.9856 2.5678 21.0567C2.51706 21.1277 2.42571 21.2664 2.29264 21.4672L2.02988 21.8709C1.84719 22.1539 1.69157 22.4032 1.56188 22.6197V22.87C1.56188 23.2084 1.56188 23.4497 1.56188 23.594C1.56381 23.7148 1.57322 23.8353 1.59008 23.9549C1.51526 23.9456 1.43992 23.9411 1.36453 23.9414C1.28689 23.9408 1.20929 23.9454 1.13222 23.9549C1.14795 23.8352 1.15736 23.7147 1.16042 23.594C1.16042 23.4497 1.16718 23.2072 1.16718 22.87L1.16154 22.7099Z" fill="#004E96"/>
<path d="M4.74307 24C5.26182 24 5.68171 23.8497 6.00273 23.5489C6.16294 23.4009 6.28916 23.2199 6.37268 23.0184C6.4562 22.8169 6.49504 22.5997 6.48652 22.3818C6.49349 22.1766 6.45517 21.9724 6.37428 21.7837C6.2934 21.5951 6.17193 21.4265 6.01852 21.2901C5.70652 21.0127 5.29791 20.8736 4.79269 20.8729C4.33024 20.8545 3.87869 21.0162 3.53304 21.324C3.37278 21.4722 3.24625 21.6531 3.162 21.8545C3.07775 22.0558 3.03776 22.273 3.04474 22.4911C3.03781 22.6965 3.07638 22.9009 3.15767 23.0896C3.23897 23.2783 3.36099 23.4467 3.51499 23.5828C3.8285 23.8609 4.23636 24 4.73856 24M4.76337 23.8094C4.59565 23.8171 4.42825 23.7885 4.27257 23.7257C4.11688 23.6628 3.97658 23.5672 3.8612 23.4452C3.62698 23.1775 3.5057 22.8295 3.52289 22.4742C3.50477 22.1031 3.62536 21.7385 3.8612 21.4514C3.97339 21.3241 4.11263 21.2235 4.26873 21.1569C4.42483 21.0904 4.59384 21.0596 4.76337 21.0668C4.93102 21.0598 5.09825 21.0886 5.25384 21.1514C5.40944 21.2142 5.54981 21.3096 5.66554 21.4311C5.89936 21.699 6.02058 22.0469 6.00386 22.4021C6.02172 22.7735 5.90117 23.1383 5.66554 23.426C5.55289 23.5527 5.41354 23.6528 5.25753 23.7191C5.10153 23.7854 4.93275 23.8162 4.76337 23.8094Z" fill="#004E96"/>
<path d="M9.91373 22.6298C9.91373 23.0809 9.80096 23.4192 9.57542 23.6504C9.34987 23.8816 9.02171 24 8.58867 24C8.15562 24 7.82182 23.9008 7.61094 23.7023C7.40006 23.5038 7.29405 23.1948 7.2918 22.7798V22.4686L7.28503 21.4638C7.28503 21.2867 7.27826 21.1616 7.27375 21.0894C7.27265 21.0334 7.26699 20.9776 7.25684 20.9225C7.33614 20.9324 7.41599 20.9373 7.49591 20.9371C7.57546 20.9374 7.65494 20.9325 7.73386 20.9225C7.72335 20.9787 7.71695 21.0356 7.71469 21.0928C7.71469 21.1638 7.70567 21.2879 7.70003 21.4638C7.6895 21.76 7.68462 22.0938 7.68537 22.4652V22.6445C7.68537 23.0257 7.76769 23.3099 7.92783 23.4937C8.08796 23.6775 8.33268 23.77 8.66084 23.77C9.00818 23.77 9.25965 23.673 9.41979 23.4779C9.57993 23.2828 9.65774 22.9749 9.65661 22.5532V22.4675L9.64984 21.4638C9.64984 21.2811 9.64984 21.1525 9.64984 21.0804C9.64984 21.0082 9.64984 20.9552 9.64195 20.9225C9.69628 20.9323 9.75138 20.9373 9.8066 20.9371C9.86219 20.9374 9.91768 20.9325 9.97237 20.9225C9.96069 20.9832 9.95315 21.0446 9.94982 21.1063C9.94305 21.1796 9.93741 21.2991 9.93064 21.4638C9.92313 21.76 9.91899 22.0942 9.91824 22.4663L9.91373 22.6298Z" fill="#004E96"/>
<path d="M10.8858 23.8027C10.8832 23.8533 10.8779 23.9037 10.87 23.9538C10.9483 23.9452 11.0269 23.9411 11.1057 23.9414C11.184 23.941 11.2624 23.9452 11.3402 23.9538C11.3331 23.9037 11.3286 23.8532 11.3267 23.8027C11.3267 23.7316 11.3188 23.6008 11.3132 23.4125C11.3132 23.1328 11.3053 22.817 11.3053 22.4675H11.4553C11.6139 22.6456 11.7928 22.8558 11.9921 23.0978L12.2503 23.4125C12.3732 23.558 12.4612 23.6662 12.5153 23.7384C12.5675 23.8066 12.6146 23.8786 12.6563 23.9538C12.7397 23.9459 12.8378 23.9414 12.945 23.9414C13.0521 23.9414 13.1502 23.9414 13.2337 23.9538C13.2156 23.9391 13.175 23.8951 13.1096 23.823C13.0442 23.7508 12.9258 23.6143 12.751 23.4125L12.5007 23.1193C12.283 22.8622 12.0958 22.6377 11.9368 22.4426C12.1405 22.4146 12.3367 22.3468 12.5142 22.243C12.6257 22.1864 12.7196 22.1003 12.7858 21.9942C12.852 21.8881 12.8879 21.7659 12.8897 21.6408C12.8963 21.5372 12.8764 21.4337 12.8318 21.3399C12.7872 21.2462 12.7194 21.1654 12.6349 21.1052C12.4657 20.9845 12.2108 20.9259 11.8703 20.9259H11.6842C11.6154 20.9259 11.5376 20.9259 11.4519 20.9371H11.2263C11.1282 20.9371 11.0087 20.9293 10.8655 20.9225C10.8732 20.9718 10.8778 21.0215 10.879 21.0713C10.879 21.1446 10.8869 21.2755 10.8937 21.4638C10.8982 21.751 10.9004 22.0761 10.9004 22.4393C10.9004 22.7979 10.9004 23.1159 10.8937 23.4125C10.8869 23.6008 10.8835 23.7316 10.8813 23.8027M11.2963 21.1424C11.409 21.1345 11.541 21.1277 11.6808 21.1266C11.8762 21.1145 12.0706 21.1625 12.2379 21.2642C12.301 21.3081 12.3519 21.3674 12.3856 21.4365C12.4194 21.5056 12.4349 21.5821 12.4307 21.6589C12.4314 21.7485 12.4085 21.8367 12.3643 21.9146C12.3202 21.9926 12.2564 22.0576 12.1793 22.1032C11.9753 22.2246 11.7397 22.2823 11.5026 22.269C11.4293 22.269 11.3583 22.269 11.2918 22.2757L11.2963 21.1424Z" fill="#004E96"/>
<path d="M15.1632 23.8015C15.1632 23.8748 15.1542 23.9256 15.1497 23.9549C15.2275 23.9453 15.3058 23.9408 15.3842 23.9414C15.463 23.9409 15.5417 23.9454 15.6199 23.9549C15.6115 23.9053 15.607 23.8552 15.6064 23.8049C15.6064 23.7328 15.5962 23.6019 15.5917 23.4125C15.5838 23.1542 15.5816 22.8655 15.5827 22.5475C15.7166 22.5641 15.8515 22.5709 15.9864 22.5678C16.3744 22.5678 16.6751 22.4926 16.8886 22.3423C16.9921 22.2691 17.0756 22.171 17.1314 22.0571C17.1872 21.9432 17.2134 21.8172 17.2077 21.6905C17.2155 21.5794 17.1948 21.4682 17.1476 21.3674C17.1005 21.2666 17.0284 21.1795 16.9382 21.1142C16.7578 20.989 16.4871 20.927 16.1093 20.927H15.9221C15.8534 20.927 15.7789 20.927 15.6966 20.9372C15.6346 20.9372 15.5579 20.9372 15.4711 20.9372C15.3842 20.9372 15.2771 20.9372 15.1598 20.9372C15.1598 20.9653 15.1688 21.0161 15.1733 21.0883C15.1779 21.1604 15.1812 21.2913 15.1869 21.4773C15.1869 21.766 15.1948 22.0885 15.1936 22.4426C15.1925 22.7967 15.1936 23.1193 15.1869 23.4136C15.1812 23.6008 15.1767 23.7316 15.1733 23.8027M15.5883 21.1582C15.7067 21.1469 15.8387 21.1401 15.9864 21.1401C16.1874 21.1271 16.3875 21.1776 16.5582 21.2845C16.6229 21.3342 16.6745 21.3991 16.7083 21.4734C16.7422 21.5478 16.7572 21.6293 16.7521 21.7108C16.7552 21.8029 16.7356 21.8943 16.6951 21.9771C16.6546 22.0598 16.5944 22.1314 16.5198 22.1855C16.3367 22.3126 16.1166 22.3753 15.8939 22.3637C15.7812 22.3637 15.6831 22.3637 15.5883 22.3513V21.1582Z" fill="#004E96"/>
<path d="M17.7356 23.9741C17.7444 23.9242 17.7493 23.8736 17.7503 23.823C17.7503 23.7497 17.757 23.6211 17.7638 23.4328C17.7638 23.1384 17.7638 22.8069 17.7638 22.437C17.7638 22.0671 17.7638 21.7356 17.7638 21.4435C17.757 21.2563 17.7525 21.1266 17.7503 21.0544C17.7493 21.0034 17.7444 20.9525 17.7356 20.9022C17.8253 20.9156 17.9156 20.9239 18.0062 20.927C18.1337 20.9338 18.2611 20.9371 18.3897 20.9371H18.7404C18.8802 20.9371 19.0054 20.9338 19.1159 20.927C19.2126 20.9219 19.309 20.9117 19.4046 20.8965C19.3866 20.9969 19.3866 21.0996 19.4046 21.1999C19.3129 21.1834 19.2203 21.1732 19.1272 21.1695C18.9953 21.1638 18.8656 21.1593 18.7404 21.1593H18.5769C18.4348 21.1593 18.3028 21.1593 18.1788 21.1649L18.1664 22.2656H18.5746C18.7099 22.2656 18.8498 22.2656 18.993 22.2543C19.0916 22.2511 19.1899 22.2417 19.2873 22.2261C19.2782 22.2763 19.274 22.3273 19.2749 22.3784C19.2741 22.4286 19.2782 22.4789 19.2873 22.5283C19.1899 22.5127 19.0916 22.5033 18.993 22.5002C18.8498 22.4934 18.7099 22.4889 18.5746 22.4889H18.1675C18.1675 22.9591 18.1675 23.3685 18.1788 23.7147H18.49H18.6445C18.7855 23.7147 18.9321 23.7147 19.0832 23.7012C19.1908 23.6965 19.2981 23.686 19.4046 23.6696C19.395 23.7209 19.3905 23.773 19.3911 23.8252C19.3905 23.8763 19.3951 23.9273 19.4046 23.9775C19.3403 23.9673 19.2422 23.9583 19.108 23.9504C18.9738 23.9425 18.852 23.9391 18.7404 23.9391H18.3897C18.2769 23.9391 18.1495 23.9391 18.022 23.9481C17.8946 23.9572 17.7965 23.9628 17.7356 23.9718" fill="#004E96"/>
<path d="M20.2278 23.8027C20.2278 23.8771 20.2176 23.9278 20.2131 23.9538C20.291 23.9452 20.3693 23.9411 20.4477 23.9414C20.5268 23.9411 20.6059 23.9452 20.6845 23.9538C20.6757 23.9039 20.6708 23.8533 20.6699 23.8027C20.6699 23.7316 20.6608 23.6008 20.6563 23.4125C20.6563 23.1328 20.6473 22.817 20.6473 22.4675H20.7984C20.9574 22.6456 21.1367 22.8554 21.3352 23.0978L21.5935 23.4125C21.7164 23.558 21.8055 23.6662 21.8585 23.7384C21.9099 23.8069 21.9566 23.8789 21.9983 23.9538C22.0829 23.9459 22.1799 23.9414 22.2881 23.9414C22.3964 23.9414 22.4922 23.9414 22.5779 23.9538C22.5334 23.9129 22.4916 23.8692 22.4528 23.823C22.3885 23.7497 22.2678 23.6143 22.093 23.4125L21.8427 23.1193C21.625 22.8622 21.4378 22.6377 21.2788 22.4426C21.4822 22.4146 21.678 22.3468 21.8551 22.243C22.1062 22.0927 22.2317 21.8919 22.2317 21.6408C22.2381 21.5372 22.2179 21.4336 22.1731 21.3398C22.1284 21.2461 22.0604 21.1654 21.9757 21.1052C21.8066 20.9845 21.5517 20.9259 21.2112 20.9259H21.0262C20.9563 20.9259 20.8807 20.9259 20.7939 20.9371H20.5684C20.4714 20.9371 20.3518 20.9293 20.2086 20.9225C20.2158 20.9718 20.22 21.0215 20.221 21.0713C20.221 21.1446 20.2312 21.2755 20.2357 21.4638C20.2417 21.751 20.2443 22.0761 20.2436 22.4393C20.2436 22.7979 20.2436 23.1159 20.2357 23.4125C20.2357 23.6008 20.2255 23.7316 20.2233 23.8027M20.6383 21.1424C20.751 21.1345 20.883 21.1277 21.0251 21.1266C21.2198 21.1143 21.4135 21.1624 21.5799 21.2642C21.6432 21.308 21.6943 21.3672 21.7283 21.4363C21.7622 21.5054 21.7779 21.582 21.7739 21.6589C21.7748 21.7487 21.7521 21.8371 21.7079 21.9154C21.6638 21.9936 21.5998 22.0587 21.5224 22.1043C21.3182 22.2252 21.0827 22.2828 20.8458 22.2701C20.7725 22.2701 20.7026 22.2701 20.6349 22.2769L20.6383 21.1424Z" fill="#004E96"/>
<path d="M23.0911 23.4125C23.0911 23.1227 23.0967 22.7945 23.0967 22.4291C23.0967 22.0637 23.0967 21.7356 23.0911 21.4446C23.0843 21.2563 23.0798 21.1266 23.0764 21.0544C23.073 20.9823 23.0674 20.9315 23.0629 20.9022C23.1638 20.9162 23.2655 20.9245 23.3674 20.927C23.5177 20.9338 23.6733 20.9371 23.8342 20.9371H24.115C24.256 20.9371 24.3812 20.9371 24.4917 20.927C24.6022 20.9168 24.6981 20.9101 24.7804 20.8965C24.7713 20.9468 24.7672 20.9978 24.768 21.0488C24.7671 21.0994 24.7713 21.1501 24.7804 21.1999C24.6895 21.1834 24.5975 21.1732 24.5052 21.1695C24.371 21.1638 24.2425 21.1593 24.115 21.1593H23.9301C23.779 21.1593 23.6414 21.1593 23.5106 21.1649C23.5031 21.4717 23.4982 21.8307 23.4959 22.2419H23.9639C24.1037 22.2419 24.2458 22.2419 24.3891 22.2318C24.4854 22.2282 24.5814 22.2188 24.6766 22.2036C24.6572 22.3034 24.6572 22.406 24.6766 22.5058C24.5873 22.4929 24.4973 22.485 24.4071 22.4821C24.2639 22.4742 24.1162 22.4697 23.9639 22.4663L23.4959 22.4596C23.4959 22.8152 23.4993 23.1343 23.5061 23.417C23.5121 23.6064 23.5166 23.7373 23.5196 23.8094C23.5207 23.8593 23.5252 23.909 23.5331 23.9583C23.3768 23.9418 23.2192 23.9418 23.0629 23.9583C23.0629 23.9301 23.0741 23.8793 23.0787 23.806C23.0832 23.7327 23.0787 23.6053 23.0911 23.417" fill="#004E96"/>
<path d="M25.4502 23.9741C25.4502 23.9459 25.4592 23.8951 25.4626 23.823C25.466 23.7508 25.4716 23.6211 25.4761 23.4328C25.4821 23.1388 25.4848 22.8069 25.484 22.437C25.4833 22.0671 25.4806 21.7359 25.4761 21.4435C25.4716 21.2563 25.4671 21.1266 25.4626 21.0544C25.4626 20.9823 25.4547 20.9315 25.4502 20.9022C25.5399 20.9157 25.6302 20.924 25.7208 20.927C25.8472 20.9338 25.9746 20.9371 26.1043 20.9371H26.455C26.5948 20.9371 26.72 20.9338 26.8305 20.927C26.9272 20.9218 27.0236 20.9116 27.1192 20.8965C27.1012 20.9969 27.1012 21.0996 27.1192 21.1999C27.0268 21.1835 26.9333 21.1733 26.8395 21.1695C26.7076 21.1638 26.579 21.1593 26.455 21.1593H26.2915C26.1494 21.1593 26.0163 21.1593 25.8934 21.1649L25.8799 22.2656H26.2881C26.4245 22.2656 26.5633 22.2656 26.7065 22.2543C26.8054 22.2511 26.9041 22.2416 27.0019 22.2261C26.9914 22.2762 26.9865 22.3272 26.9873 22.3784C26.9866 22.4287 26.9915 22.4791 27.0019 22.5283C26.9041 22.5128 26.8054 22.5034 26.7065 22.5002C26.5633 22.4934 26.4245 22.4889 26.2881 22.4889H25.881C25.881 22.9591 25.881 23.3685 25.8934 23.7147H26.2046H26.3591C26.499 23.7147 26.6456 23.7147 26.7978 23.7012C26.9054 23.6964 27.0127 23.6859 27.1192 23.6696C27.1096 23.7209 27.1051 23.773 27.1057 23.8252C27.1051 23.8763 27.1097 23.9273 27.1192 23.9775C27.0538 23.9677 26.9546 23.9587 26.8215 23.9504C26.6873 23.9425 26.5644 23.9391 26.455 23.9391H26.1043C25.9847 23.9391 25.8618 23.9391 25.7366 23.9481C25.6115 23.9572 25.5111 23.9628 25.4502 23.9718" fill="#004E96"/>
<path d="M30.4178 23.5005C30.4077 23.5501 30.3975 23.5929 30.393 23.629C30.3885 23.6651 30.3829 23.7102 30.3795 23.7598C30.2241 23.8416 30.0589 23.903 29.8878 23.9425C29.7026 23.9824 29.5135 24.0016 29.324 24C28.8964 24.0181 28.4788 23.8684 28.1602 23.5828C28.0115 23.4432 27.8944 23.2736 27.8166 23.0851C27.7388 22.8967 27.7022 22.6938 27.7091 22.49C27.7019 22.2724 27.7414 22.0558 27.8248 21.8547C27.9083 21.6535 28.0338 21.4726 28.1929 21.324C28.5286 21.0162 28.9726 20.854 29.4277 20.8729C29.6097 20.8714 29.7913 20.8876 29.9701 20.9214C30.1405 20.9532 30.3071 21.0023 30.4675 21.068L30.4088 21.2484C30.3953 21.3003 30.3795 21.3612 30.3626 21.4322H30.2882C30.1814 21.3145 30.0502 21.2218 29.9036 21.1604C29.6731 21.0591 29.4166 21.0328 29.1703 21.0852C28.924 21.1376 28.7005 21.2661 28.5312 21.4525C28.2949 21.7394 28.1742 22.1042 28.1929 22.4754C28.1791 22.826 28.3001 23.1686 28.5312 23.4328C28.6402 23.555 28.7746 23.6521 28.9249 23.7171C29.0753 23.7822 29.238 23.8137 29.4018 23.8094C29.5849 23.8096 29.7666 23.7775 29.9386 23.7147C30.0982 23.6565 30.2449 23.5676 30.3705 23.4531L30.4178 23.5005Z" fill="#004E96"/>
<path d="M31.8016 23.4147C31.8016 23.1238 31.8083 22.8001 31.8083 22.4449C31.8083 21.9453 31.8083 21.5168 31.7937 21.157H31.5501C31.399 21.157 31.2479 21.157 31.099 21.1694C30.9943 21.1731 30.8899 21.1837 30.7866 21.201C30.8047 21.1007 30.8047 20.998 30.7866 20.8976C30.9547 20.9078 31.1452 20.9179 31.3584 20.9258C31.5715 20.9337 31.7339 20.9382 31.8501 20.9382H32.0925C32.2143 20.9382 32.3846 20.9382 32.5977 20.9258C32.8109 20.9134 32.9947 20.9078 33.1548 20.8976C33.1368 20.998 33.1368 21.1007 33.1548 21.201C33.0521 21.1852 32.9486 21.1758 32.8447 21.1728C32.6936 21.1649 32.5425 21.1604 32.3936 21.1604H32.2199C32.2087 21.5179 32.2042 21.9498 32.2042 22.4437C32.2042 22.8035 32.2042 23.1283 32.2121 23.4158C32.2188 23.6019 32.2233 23.7316 32.2256 23.8038C32.2264 23.8544 32.2313 23.905 32.2402 23.9549C32.1616 23.9463 32.0825 23.9422 32.0034 23.9425C31.9251 23.9422 31.8468 23.9463 31.7689 23.9549C31.7765 23.9048 31.7814 23.8544 31.7835 23.8038C31.7835 23.7316 31.7914 23.6019 31.7971 23.4158" fill="#004E96"/>
<path d="M35.5636 22.455H35.8715C36.1044 22.44 36.3367 22.4916 36.5413 22.6039C36.6148 22.6512 36.6743 22.7172 36.7139 22.795C36.7536 22.8729 36.7718 22.9599 36.7669 23.0471C36.7732 23.1441 36.7551 23.2411 36.7143 23.3293C36.6736 23.4176 36.6114 23.4942 36.5334 23.5523C36.3801 23.6651 36.15 23.7248 35.8478 23.7248C35.7523 23.7247 35.657 23.7179 35.5625 23.7045L35.5636 22.455ZM35.1486 23.8083C35.1469 23.8586 35.1416 23.9087 35.1328 23.9583L35.3584 23.9447L35.9448 23.9583C36.2689 23.9727 36.5899 23.8894 36.8661 23.7192C36.9737 23.655 37.0627 23.564 37.1246 23.4551C37.1865 23.3462 37.219 23.2231 37.2191 23.0978C37.2257 22.9794 37.201 22.8613 37.1476 22.7554C37.0941 22.6495 37.0138 22.5595 36.9146 22.4945C36.7481 22.3951 36.5618 22.3335 36.3688 22.3141C36.5175 22.2834 36.6593 22.2257 36.7872 22.1438C36.8869 22.0874 36.9698 22.0054 37.0273 21.9063C37.0848 21.8072 37.1148 21.6945 37.1142 21.5799C37.1186 21.4809 37.0956 21.3825 37.0476 21.2958C36.9996 21.209 36.9286 21.1372 36.8424 21.0882C36.6605 20.9792 36.3868 20.9243 36.0215 20.9236L35.3584 20.9371L35.1328 20.9236C35.1419 20.9731 35.1464 21.0233 35.1463 21.0736C35.1463 21.1457 35.1565 21.2766 35.161 21.466C35.161 21.7525 35.17 22.0784 35.1689 22.4404C35.1678 22.8024 35.1689 23.117 35.161 23.4136C35.161 23.6019 35.152 23.7338 35.1486 23.806M35.5636 21.1796C35.6791 21.1601 35.7961 21.1514 35.9132 21.1536C36.1052 21.1436 36.2957 21.1916 36.4601 21.2912C36.5231 21.3284 36.5752 21.3815 36.6111 21.4453C36.6469 21.5091 36.6652 21.5812 36.6642 21.6543C36.6654 21.7378 36.6452 21.8202 36.6058 21.8938C36.5663 21.9674 36.5088 22.0297 36.4387 22.075C36.2617 22.1878 36.0541 22.243 35.8444 22.2329H35.5602L35.5636 21.1796Z" fill="#004E96"/>
<path d="M37.7604 23.8151C37.7357 23.8626 37.7086 23.9089 37.6792 23.9538C37.7397 23.9452 37.8008 23.9411 37.8619 23.9414C37.9241 23.9411 37.9863 23.9453 38.048 23.9538C38.0694 23.8669 38.0919 23.7869 38.1168 23.7147C38.1416 23.6425 38.1844 23.5422 38.2397 23.4125C38.3152 23.2287 38.4021 23.0324 38.4968 22.8238C38.6894 22.7889 38.8854 22.7764 39.0809 22.7866C39.2728 22.7885 39.4644 22.801 39.655 22.8238L39.9143 23.4125C39.9764 23.5523 40.0203 23.6594 40.0463 23.7316C40.0722 23.8038 40.097 23.8793 40.1173 23.9572C40.2012 23.9485 40.2856 23.9443 40.3699 23.9447C40.4547 23.9444 40.5394 23.9486 40.6237 23.9572L40.3564 23.4159C40.2177 23.1305 40.0688 22.8103 39.9053 22.4528C39.629 21.8506 39.4057 21.3476 39.2354 20.9394H39.1227C38.9528 21.3499 38.7246 21.8558 38.4382 22.4573C38.2701 22.8137 38.1134 23.1339 37.969 23.4159C37.8675 23.6121 37.7965 23.7463 37.7581 23.8184M39.0809 21.563L39.4802 22.4393L39.5253 22.543C39.3854 22.5599 39.2343 22.5701 39.0742 22.5734C38.9234 22.5763 38.7726 22.5677 38.6231 22.5475L38.6727 22.4347C38.8171 22.1133 38.8904 21.9543 38.8904 21.9543C38.8904 21.9543 38.9535 21.8235 39.0821 21.563" fill="#004E96"/>
<path d="M41.5551 23.4125C41.5619 23.5963 41.5686 23.7237 41.5731 23.797C41.576 23.8495 41.5817 23.9019 41.5901 23.9538C41.5352 23.9452 41.4798 23.941 41.4243 23.9414C41.3684 23.9411 41.3126 23.9452 41.2574 23.9538C41.2663 23.9039 41.2712 23.8533 41.272 23.8027C41.272 23.7305 41.2799 23.6008 41.2856 23.4125C41.2856 23.1227 41.2923 22.7979 41.2923 22.4404C41.2923 22.0829 41.2923 21.7638 41.2856 21.4773C41.2799 21.2901 41.2743 21.1604 41.272 21.0871C41.2712 21.0368 41.2663 20.9867 41.2574 20.9371H41.4017C41.7919 21.3589 42.2915 21.8765 42.9005 22.49L43.656 23.2399V22.4675C43.656 22.0964 43.656 21.7626 43.647 21.4638C43.6417 21.2751 43.6372 21.1443 43.6335 21.0713C43.6326 21.0214 43.6277 20.9716 43.6188 20.9225C43.6727 20.9325 43.7275 20.9374 43.7823 20.9371C43.8372 20.9373 43.8919 20.9324 43.9459 20.9225C43.937 20.9716 43.9321 21.0214 43.9312 21.0713C43.9312 21.1446 43.9244 21.2755 43.9177 21.4638C43.9177 21.7604 43.9098 22.0942 43.9098 22.4663C43.9098 23.0787 43.9177 23.594 43.9301 24H43.797C43.4068 23.5775 42.9072 23.0599 42.2983 22.4472L41.5393 21.6905V22.4415C41.5393 22.8035 41.5461 23.1272 41.554 23.4147" fill="#004E96"/>
<path d="M45.3476 23.4114C45.3532 23.5997 45.3589 23.7305 45.3634 23.8027C45.3628 23.8537 45.3669 23.9047 45.3758 23.9549C45.2192 23.9369 45.061 23.9369 44.9044 23.9549C44.9128 23.9053 44.9173 23.8552 44.918 23.8049C44.918 23.7327 44.9258 23.6008 44.9326 23.4125C44.9326 23.1215 44.9382 22.7967 44.9382 22.4393C44.9382 22.0818 44.9383 21.7514 44.9326 21.4649C44.9258 21.2755 44.9213 21.1446 44.918 21.0725C44.9173 21.0222 44.9128 20.9721 44.9044 20.9225C45.061 20.9405 45.2192 20.9405 45.3758 20.9225C45.3669 20.9727 45.3628 21.0237 45.3634 21.0747C45.3634 21.1469 45.3532 21.2766 45.3476 21.4638C45.3408 21.7265 45.3397 22.0119 45.3408 22.322H45.3476C45.5506 22.1551 45.7885 21.9397 46.0581 21.6769C46.3535 21.3905 46.5881 21.1435 46.7663 20.936H47.0076C47.0883 20.9366 47.1689 20.9321 47.2489 20.9225C47.1888 20.9637 47.1315 21.0089 47.0775 21.0578C46.9918 21.13 46.8384 21.2653 46.614 21.4638L46.2385 21.8021L45.7547 22.26L46.2565 22.8351L46.7708 23.4068L47.1463 23.8218C47.2128 23.8951 47.2591 23.9346 47.2704 23.9504C47.0761 23.9323 46.8805 23.9323 46.6862 23.9504C46.6408 23.8733 46.5895 23.7998 46.5328 23.7305C46.4742 23.6583 46.3829 23.5512 46.2532 23.4068L46.0107 23.1407C45.7479 22.8486 45.5247 22.6073 45.3341 22.4133V22.4359C45.3341 22.7975 45.3375 23.1227 45.3442 23.4114" fill="#004E96"/>
<path d="M47.8297 23.4125C47.8297 23.1204 47.8376 22.7979 47.8376 22.4393C47.8376 22.0806 47.8376 21.7514 47.8297 21.4649C47.8297 21.2766 47.8207 21.1469 47.8173 21.0747C47.8155 21.0237 47.8102 20.9728 47.8015 20.9225C47.8801 20.9324 47.9592 20.9373 48.0383 20.9371C48.1171 20.9373 48.1959 20.9324 48.274 20.9225C48.2664 20.9729 48.2619 21.0237 48.2605 21.0747C48.2605 21.1469 48.2526 21.2766 48.2458 21.4649C48.2458 21.7547 48.2402 22.0795 48.2402 22.437C48.2402 22.7945 48.2402 23.1238 48.2458 23.4125C48.2526 23.5997 48.2571 23.7305 48.2605 23.8027C48.2618 23.8533 48.2663 23.9037 48.274 23.9538C48.1958 23.9453 48.1171 23.9411 48.0383 23.9414C47.9592 23.9411 47.8802 23.9453 47.8015 23.9538C47.8109 23.9039 47.8162 23.8534 47.8173 23.8027C47.8173 23.7305 47.8252 23.5997 47.8297 23.4125Z" fill="#004E96"/>
<path d="M49.5224 23.4125C49.5292 23.5963 49.5348 23.7237 49.5393 23.797C49.5422 23.8495 49.5478 23.9019 49.5562 23.9538C49.5014 23.9452 49.4459 23.941 49.3904 23.9414C49.3349 23.9411 49.2795 23.9453 49.2247 23.9538C49.2325 23.9038 49.237 23.8533 49.2382 23.8027C49.2382 23.7305 49.2472 23.6008 49.2517 23.4125C49.2517 23.1227 49.2585 22.7979 49.2585 22.4404C49.2585 22.0829 49.2585 21.7638 49.2517 21.4773C49.2517 21.2901 49.2427 21.1604 49.2382 21.0871C49.237 21.0369 49.2325 20.9868 49.2247 20.9371H49.369C49.7592 21.3589 50.2584 21.8765 50.8666 22.49L51.6222 23.2399V22.4675C51.6222 22.0964 51.6222 21.7626 51.6109 21.4638C51.6064 21.2751 51.6019 21.1443 51.5974 21.0713C51.5969 21.0215 51.5928 20.9717 51.585 20.9225C51.6381 20.9325 51.6921 20.9374 51.7462 20.9371C51.8011 20.9374 51.8558 20.9325 51.9098 20.9225C51.9014 20.9717 51.8969 21.0215 51.8962 21.0713C51.8962 21.1446 51.8883 21.2755 51.8816 21.4638C51.8816 21.7604 51.8737 22.0942 51.8737 22.4663C51.8737 23.079 51.8812 23.5903 51.8962 24H51.762C51.3718 23.5775 50.8723 23.0599 50.2633 22.4472L49.5066 21.6905V22.4415C49.5066 22.8035 49.5134 23.1272 49.5224 23.4147" fill="#004E96"/>
<path d="M54.3333 24C53.8896 24.019 53.4551 23.87 53.1165 23.5827C52.963 23.4464 52.8416 23.2779 52.7609 23.0892C52.6802 22.9004 52.6422 22.6962 52.6496 22.4911C52.6416 22.2735 52.6804 22.0568 52.7632 21.8554C52.8461 21.6541 52.9712 21.4729 53.13 21.3239C53.4725 21.0161 53.9216 20.8543 54.3818 20.8728C54.6049 20.8714 54.8275 20.8937 55.046 20.9394C55.2457 20.9842 55.4392 21.0531 55.6222 21.1446C55.5986 21.2134 55.5783 21.2732 55.5625 21.3251C55.5467 21.3769 55.532 21.4378 55.5151 21.5111H55.4407C55.3099 21.3719 55.1522 21.2606 54.9772 21.1841C54.8071 21.1053 54.6222 21.0638 54.4348 21.0623C54.2582 21.0551 54.0822 21.0857 53.9184 21.152C53.7547 21.2183 53.607 21.3188 53.4852 21.4468C53.2373 21.7299 53.1091 22.0983 53.1277 22.4742C53.1193 22.6515 53.1467 22.8287 53.2083 22.9951C53.2699 23.1615 53.3645 23.3139 53.4863 23.4429C53.6115 23.5655 53.7607 23.6609 53.9245 23.7232C54.0882 23.7855 54.2631 23.8133 54.4381 23.8049C54.701 23.8037 54.9613 23.754 55.2061 23.6583V23.3538C55.2061 23.1587 55.2061 23.0053 55.196 22.9027C55.1858 22.8001 55.1757 22.6772 55.1576 22.5475C55.2381 22.5567 55.3191 22.5608 55.4001 22.5599C55.4803 22.5608 55.5606 22.5567 55.6403 22.5475C55.6289 22.6079 55.6206 22.6689 55.6155 22.7302C55.6155 22.8035 55.6087 22.9219 55.6053 23.0877V23.1677C55.6053 23.3696 55.6053 23.5128 55.6053 23.5997C55.6079 23.6709 55.6162 23.7418 55.6301 23.8117C55.2093 23.9442 54.7699 24.0078 54.3287 24" fill="#004E96"/>
<path d="M57.9216 23.8015C57.9193 23.8529 57.914 23.9041 57.9058 23.9549C57.984 23.9454 58.0627 23.9409 58.1415 23.9414C58.2199 23.9409 58.2983 23.9454 58.3761 23.9549C58.3761 23.9278 58.3671 23.8771 58.3626 23.8049C58.358 23.7328 58.3547 23.6019 58.349 23.4125C58.3415 23.1539 58.3389 22.8655 58.3411 22.5475H58.3344C58.4686 22.5641 58.6039 22.5709 58.7392 22.5678C59.126 22.5678 59.426 22.4911 59.6414 22.3423C59.7449 22.2691 59.8284 22.171 59.8842 22.0571C59.94 21.9432 59.9662 21.8172 59.9605 21.6905C59.9684 21.5796 59.948 21.4686 59.9012 21.3678C59.8545 21.2671 59.7829 21.1798 59.6933 21.1142C59.5128 20.9894 59.2361 20.927 58.8633 20.927H58.6749C58.6084 20.927 58.534 20.927 58.4494 20.9372C58.3874 20.9372 58.3129 20.9372 58.2238 20.9372C58.1347 20.9372 58.0299 20.9372 57.9103 20.9372C57.9187 20.9871 57.9232 21.0376 57.9239 21.0883C57.9239 21.1604 57.9318 21.2913 57.9385 21.4773C57.9385 21.766 57.9464 22.0885 57.9464 22.4426C57.9464 22.7967 57.9464 23.1193 57.9385 23.4136C57.9318 23.6008 57.9272 23.7316 57.9261 23.8027M58.3411 21.1582C58.4539 21.1469 58.5915 21.1401 58.7369 21.1401C58.9386 21.1274 59.1393 21.1779 59.311 21.2845C59.3757 21.3342 59.4273 21.3991 59.4611 21.4734C59.4949 21.5478 59.51 21.6293 59.5049 21.7108C59.5077 21.8031 59.4877 21.8946 59.4468 21.9774C59.4059 22.0602 59.3453 22.1316 59.2704 22.1855C59.0864 22.3134 58.8648 22.3758 58.6411 22.3626C58.5283 22.3626 58.4302 22.3626 58.3355 22.3502L58.3411 21.1582Z" fill="#004E96"/>
<path d="M60.2898 23.8151C60.2662 23.863 60.2394 23.9094 60.2097 23.9538C60.3317 23.9372 60.4554 23.9372 60.5774 23.9538C60.5973 23.8729 60.6214 23.7931 60.6495 23.7147C60.6743 23.6414 60.7138 23.5422 60.7702 23.4125C60.8446 23.2287 60.9326 23.0324 61.0284 22.8238C61.2207 22.789 61.4163 22.7765 61.6115 22.7866C61.8037 22.7886 61.9957 22.801 62.1866 22.8238L62.446 23.4125C62.5069 23.5523 62.552 23.6594 62.5779 23.7316C62.6039 23.8038 62.6264 23.8793 62.6467 23.9572C62.731 23.9485 62.8157 23.9444 62.9004 23.9447C62.9856 23.9444 63.0706 23.9486 63.1553 23.9572L62.8858 23.4159C62.749 23.1302 62.5986 22.8091 62.4347 22.4528C62.1595 21.8506 61.9363 21.3476 61.7648 20.9394H61.6521C61.4829 21.3499 61.2551 21.8558 60.9687 22.4573C60.8006 22.8137 60.6439 23.1339 60.4995 23.4159C60.398 23.6121 60.327 23.7463 60.2875 23.8184M61.6103 21.563L62.0118 22.4393L62.0569 22.543C61.9171 22.5599 61.7648 22.5701 61.6058 22.5734C61.455 22.5764 61.3042 22.5677 61.1547 22.5475L61.2044 22.4347L61.422 21.9543C61.422 21.9543 61.4852 21.8235 61.6126 21.563" fill="#004E96"/>
<path d="M63.7553 23.8027C63.7533 23.8533 63.748 23.9038 63.7395 23.9538C63.8962 23.9372 64.0542 23.9372 64.2109 23.9538C64.2032 23.9037 64.1983 23.8533 64.1962 23.8027C64.1962 23.7316 64.1883 23.6008 64.1827 23.4125C64.1827 23.1328 64.1725 22.817 64.1725 22.4675H64.3259C64.4838 22.6456 64.6642 22.8554 64.8638 23.0978L65.121 23.4125C65.2427 23.558 65.3307 23.6662 65.386 23.7384C65.4374 23.8069 65.4841 23.8789 65.5258 23.9538C65.6092 23.9459 65.7062 23.9414 65.8145 23.9414C65.9228 23.9414 66.0197 23.9414 66.1032 23.9538C66.0851 23.9391 66.0445 23.8951 65.9791 23.823C65.9137 23.7508 65.7965 23.6143 65.6205 23.4125L65.3679 23.1193C65.1514 22.8622 64.9653 22.6377 64.8108 22.4426C65.0141 22.4144 65.2099 22.3466 65.3871 22.243C65.4985 22.1863 65.5922 22.1002 65.6582 21.9941C65.7242 21.888 65.7599 21.7658 65.7615 21.6408C65.7682 21.5373 65.7484 21.4338 65.704 21.3401C65.6596 21.2464 65.5921 21.1655 65.5078 21.1052C65.3386 20.9845 65.0837 20.9259 64.742 20.9259H64.5571C64.4883 20.9259 64.4105 20.9259 64.3259 20.9371H64.1004C64.0034 20.9371 63.8827 20.9293 63.7395 20.9225C63.7478 20.9717 63.7524 21.0215 63.753 21.0713C63.753 21.1446 63.7609 21.2755 63.7677 21.4638C63.7677 21.7514 63.7756 22.0761 63.7756 22.4393C63.7756 22.8024 63.7756 23.1159 63.7677 23.4125C63.7609 23.6008 63.7564 23.7316 63.7553 23.8027ZM64.1669 21.1424C64.2797 21.1345 64.4127 21.1277 64.5515 21.1266C64.7469 21.1142 64.9414 21.1622 65.1085 21.2642C65.1717 21.3081 65.2225 21.3674 65.2563 21.4365C65.29 21.5056 65.3055 21.5821 65.3014 21.6589C65.3021 21.7486 65.2792 21.837 65.2351 21.9152C65.191 21.9933 65.1271 22.0586 65.0499 22.1043C64.8457 22.2253 64.6103 22.283 64.3733 22.2701C64.2988 22.2701 64.2289 22.2701 64.1624 22.2769L64.1669 21.1424Z" fill="#004E96"/>
<path d="M67.3516 23.4147C67.3561 23.1238 67.3584 22.8005 67.3584 22.4449C67.3584 21.9453 67.3584 21.5168 67.3437 21.157H67.1001C66.949 21.157 66.799 21.157 66.649 21.1694C66.5463 21.1723 66.4438 21.1817 66.3423 21.1976C66.3603 21.0973 66.3603 20.9946 66.3423 20.8943C66.5114 20.9044 66.7009 20.9146 66.914 20.9225C67.1272 20.9304 67.2907 20.9349 67.4057 20.9349H67.6482C67.7711 20.9349 67.9403 20.9349 68.1534 20.9225C68.3665 20.9101 68.5526 20.9044 68.7172 20.8943C68.6962 20.9943 68.6962 21.0976 68.7172 21.1976C68.6138 21.182 68.5095 21.1726 68.4049 21.1694C68.2538 21.1616 68.1027 21.157 67.9538 21.157H67.7756C67.7666 21.5145 67.7621 21.9464 67.7621 22.4404C67.7621 22.8001 67.7621 23.1249 67.7621 23.4125C67.7688 23.5985 67.7722 23.7282 67.7767 23.8004C67.7774 23.851 67.7819 23.9016 67.7903 23.9515C67.7124 23.943 67.6341 23.9389 67.5557 23.9391C67.4766 23.9388 67.3975 23.943 67.3189 23.9515C67.3277 23.9016 67.3326 23.8511 67.3335 23.8004C67.3335 23.7282 67.3414 23.5985 67.3471 23.4125" fill="#004E96"/>
<path d="M69.6544 23.4125C69.6623 23.5963 69.6668 23.7237 69.6724 23.797C69.6741 23.8496 69.6798 23.902 69.6893 23.9538C69.5772 23.9367 69.4631 23.9367 69.351 23.9538C69.3599 23.9039 69.3648 23.8533 69.3657 23.8027C69.3657 23.7305 69.3736 23.6008 69.3781 23.4125C69.3781 23.1227 69.386 22.7979 69.386 22.4404C69.386 22.0829 69.386 21.7638 69.3781 21.4773C69.3781 21.2901 69.3691 21.1604 69.3657 21.0871C69.3649 21.0368 69.36 20.9867 69.351 20.9371H69.4942C69.8867 21.3589 70.3863 21.8765 70.993 22.49L71.7485 23.2399V22.4675C71.7485 22.0964 71.7485 21.7626 71.7384 21.4638C71.7324 21.2751 71.7279 21.1443 71.7249 21.0713C71.7249 21.0003 71.7158 20.9496 71.7113 20.9225C71.7649 20.9326 71.8192 20.9375 71.8737 20.9371C71.9282 20.9373 71.9825 20.9324 72.0361 20.9225C72.0272 20.9716 72.0223 21.0214 72.0214 21.0713C72.0214 21.1446 72.0135 21.2755 72.009 21.4638C72.009 21.7604 72.0011 22.0942 72.0011 22.4663C72.0011 23.0787 72.009 23.594 72.0214 24H71.8884C71.4982 23.5775 70.9986 23.0599 70.3896 22.4472L69.6296 21.6905V22.4415C69.6296 22.8035 69.6352 23.1272 69.6454 23.4147" fill="#004E96"/>
<path d="M72.9134 23.9741C72.9134 23.9459 72.9224 23.8951 72.9281 23.823C72.9337 23.7508 72.9348 23.6211 72.9416 23.4328C72.9416 23.1384 72.9473 22.8069 72.9473 22.437C72.9473 22.0671 72.9473 21.7356 72.9416 21.4435C72.9348 21.2563 72.9303 21.1266 72.9281 21.0544C72.9224 20.9823 72.9179 20.9315 72.9134 20.9022C73.0031 20.9156 73.0935 20.9239 73.1841 20.927C73.3104 20.9338 73.4389 20.9371 73.5686 20.9371H73.9182C74.058 20.9371 74.1832 20.9371 74.2949 20.927C74.3912 20.9218 74.4872 20.9117 74.5824 20.8965C74.5644 20.9969 74.5644 21.0996 74.5824 21.1999C74.4908 21.1835 74.3981 21.1733 74.305 21.1695C74.1731 21.1638 74.0434 21.1593 73.9182 21.1593H73.7524C73.6103 21.1593 73.4784 21.1593 73.3544 21.1649L73.3408 22.2656H73.7524C73.8866 22.2656 74.0253 22.2656 74.1686 22.2543C74.2675 22.2511 74.3662 22.2416 74.464 22.2261C74.4541 22.2762 74.4492 22.3273 74.4494 22.3784C74.4492 22.4287 74.4541 22.479 74.464 22.5283C74.3662 22.5128 74.2675 22.5034 74.1686 22.5002C74.0253 22.4934 73.8866 22.4889 73.7524 22.4889H73.3431C73.3431 22.9591 73.3431 23.3685 73.3555 23.7147H73.6679H73.8212C73.9622 23.7147 74.1077 23.7147 74.2599 23.7012C74.3675 23.6964 74.4748 23.6859 74.5813 23.6696C74.5717 23.7209 74.5672 23.773 74.5678 23.8252C74.5672 23.8763 74.5718 23.9273 74.5813 23.9775C74.517 23.9673 74.4167 23.9583 74.2847 23.9504C74.1528 23.9425 74.0287 23.9391 73.9171 23.9391H73.5675C73.4468 23.9391 73.3239 23.9391 73.1999 23.9481C73.0758 23.9572 72.9743 23.9628 72.9123 23.9718" fill="#004E96"/>
<path d="M75.4057 23.8026C75.4057 23.8771 75.3956 23.9278 75.3911 23.9537C75.4689 23.9452 75.5473 23.941 75.6256 23.9413C75.7047 23.9411 75.7838 23.9452 75.8624 23.9537C75.8536 23.9038 75.8484 23.8533 75.8466 23.8026C75.8466 23.7316 75.8388 23.6008 75.8342 23.4124C75.8286 23.1328 75.8252 22.817 75.8252 22.4674H75.9763C76.1342 22.6456 76.3146 22.8554 76.5142 23.0978L76.7714 23.4124C76.8943 23.5579 76.9834 23.6662 77.0364 23.7384C77.0878 23.8069 77.1346 23.8788 77.1762 23.9537C77.2619 23.9459 77.3578 23.9413 77.466 23.9413C77.5743 23.9413 77.6702 23.9413 77.7559 23.9537C77.7115 23.9131 77.6701 23.8694 77.6318 23.8229C77.5664 23.7496 77.4469 23.6143 77.2709 23.4124L77.0228 23.1181C76.8052 22.861 76.618 22.6366 76.459 22.4415C76.6623 22.4135 76.8581 22.3456 77.0353 22.2419C77.1469 22.1854 77.2409 22.0994 77.3072 21.9932C77.3734 21.8871 77.4092 21.7648 77.4108 21.6397C77.4173 21.5362 77.3974 21.4328 77.353 21.3391C77.3087 21.2454 77.2412 21.1645 77.157 21.104C76.9868 20.9833 76.7319 20.9247 76.3913 20.9247H76.2064C76.1365 20.9247 76.0587 20.9247 75.9741 20.936H75.7485C75.6516 20.936 75.532 20.9281 75.3888 20.9213C75.3888 20.9495 75.3989 20.998 75.4035 21.0702C75.408 21.1424 75.4113 21.2743 75.4159 21.4626C75.4159 21.7502 75.4238 22.075 75.4238 22.4381C75.4238 22.8012 75.4238 23.1147 75.4159 23.4113C75.4159 23.5996 75.4057 23.7305 75.4035 23.8015M75.8185 21.1412C75.9312 21.1333 76.0632 21.1266 76.2053 21.1254C76.3999 21.1133 76.5936 21.1613 76.7601 21.263C76.8234 21.3068 76.8745 21.366 76.9084 21.4351C76.9424 21.5042 76.9581 21.5808 76.9541 21.6577C76.955 21.7475 76.9322 21.836 76.8881 21.9142C76.8439 21.9924 76.7799 22.0576 76.7026 22.1032C76.4983 22.224 76.2629 22.2817 76.0259 22.2689C75.9526 22.2689 75.8827 22.2689 75.8151 22.2757L75.8185 21.1412Z" fill="#004E96"/>
</g>
<defs>
<clipPath id="clip0_45_4251">
<rect width="77.7558" height="24" fill="white"/>
</clipPath>
</defs>
</svg>
