<svg width="41" height="24" viewBox="0 0 41 24" fill="none" xmlns="http://www.w3.org/2000/svg">
<g clip-path="url(#clip0_45_4253)">
<path d="M20.7681 0.626921C20.9499 0.472687 20.8548 0.125083 21.1318 0.0659982C21.3244 0.013052 21.4356 0.191841 21.5316 0.322288C21.4663 0.347611 21.4019 0.374467 21.3382 0.402092C21.3029 0.353749 21.2331 0.256298 21.1978 0.207188C21.1364 0.315382 21.0965 0.433552 21.0727 0.555559C21.2139 0.557094 21.3566 0.559396 21.4986 0.562465C21.4978 0.607738 21.4963 0.698284 21.4955 0.743557C21.2553 0.743557 21.0159 0.743557 20.7757 0.742789C20.7742 0.713631 20.7704 0.65608 20.7681 0.626921Z" fill="#00468C"/>
<path d="M4.25644 0.803401C4.26718 0.634587 4.27332 0.391341 4.48664 0.353742C4.65853 0.294657 4.80048 0.417431 4.87568 0.560156C4.83041 0.6108 4.78053 0.657607 4.73219 0.705182C4.68692 0.650701 4.59714 0.543274 4.55187 0.488793C4.50429 0.596988 4.46209 0.708252 4.42526 0.820283C4.60942 0.848674 4.89563 0.749688 4.90868 1.02516C4.65699 1.03897 4.4053 1.03744 4.15362 1.03897C4.14288 1.00291 4.12216 0.931547 4.11218 0.896249C4.14825 0.873229 4.22038 0.826421 4.25644 0.803401Z" fill="#00468C"/>
<path d="M1.20938 0.954538C1.32678 0.953003 1.44419 0.953003 1.56159 0.953003C1.56543 1.74029 1.56389 2.52758 1.56389 3.3141C1.58921 3.66938 1.30069 3.98936 0.965368 4.06609C0.530288 4.1881 0.0307519 3.84049 0.00696443 3.387C-0.00684764 3.05858 0.00466167 2.72939 0.00619634 2.40097C0.125134 2.40174 0.244838 2.40327 0.364543 2.40557C0.372983 2.72478 0.348429 3.0463 0.37682 3.36551C0.412885 3.64022 0.771232 3.81824 1.00297 3.64789C1.17562 3.54967 1.21705 3.33712 1.20938 3.15373C1.20938 2.42092 1.20554 1.68734 1.20938 0.954538Z" fill="#00468C"/>
<path d="M5.16347 0.949951C5.28624 0.951486 5.40901 0.95302 5.53256 0.955323C5.53332 1.60833 5.5387 2.26133 5.53179 2.91433C5.54407 3.20209 5.31463 3.46758 5.02458 3.486C4.62019 3.50979 4.2135 3.4906 3.80835 3.4906C3.80835 3.36706 3.80835 3.24275 3.80912 3.11921C4.18588 3.1077 4.56418 3.12612 4.94094 3.11154C5.05297 3.12305 5.16807 3.03711 5.15349 2.91817C5.17037 2.2621 5.14812 1.60602 5.16347 0.949951Z" fill="#00468C"/>
<path d="M5.88471 0.954595C6.00365 0.95306 6.12336 0.952292 6.24229 0.95306C6.28296 1.7979 6.25611 2.64504 6.24229 3.49064C6.12259 3.49141 6.00288 3.49141 5.88318 3.49064C5.88471 2.64504 5.88164 1.8002 5.88471 0.954595Z" fill="#00468C"/>
<path d="M14.2472 0.964566C14.3623 0.949986 14.4781 0.948452 14.594 0.943848C14.6048 1.32138 14.5994 1.69891 14.5986 2.0772C14.8802 1.88997 15.1849 1.66821 15.5432 1.70581C15.8724 1.71118 16.1471 2.00047 16.1924 2.31661C16.2231 2.566 16.2269 2.82152 16.1885 3.07014C16.1387 3.33257 15.8724 3.49908 15.6161 3.49294C15.2064 3.50215 14.7966 3.49064 14.3876 3.49524C14.053 3.49064 13.7093 3.53208 13.3885 3.41237C13.2166 3.47453 13.0356 3.50675 12.8529 3.49755C11.9283 3.48527 11.0021 3.51059 10.0782 3.48527C10.0545 3.46915 10.0076 3.43693 9.98462 3.42081C9.91249 3.16452 9.96851 2.88521 9.95546 2.61971C9.94088 2.4486 10.0061 2.21532 9.82732 2.1102C9.6869 1.99203 9.45516 2.13629 9.45823 2.30664C9.43598 2.79236 9.47281 3.27885 9.44519 3.76381C9.44672 3.94874 9.21191 3.90961 9.08914 3.92802C8.71008 3.92495 8.32794 3.95104 7.95118 3.90423C7.48464 3.84054 7.1708 3.28883 7.35649 2.85528C7.43169 2.59439 7.67187 2.44629 7.89209 2.31968C7.95732 2.42327 8.02177 2.52763 8.087 2.63199C7.94427 2.73711 7.75551 2.81615 7.70103 3.00108C7.60281 3.24816 7.8169 3.52977 8.07165 3.54359C8.40544 3.56354 8.74 3.54589 9.07379 3.55049C9.0853 3.11081 9.05614 2.67036 9.08684 2.23144C9.12367 1.76567 9.75749 1.52856 10.0967 1.8424C10.4657 2.15701 10.2954 2.69491 10.3292 3.11541C11.2768 3.10851 12.2252 3.12999 13.1721 3.1039C13.1852 2.66498 13.1583 2.22607 13.1844 1.78869C13.2941 1.74802 13.4131 1.75339 13.5251 1.78408C13.5788 2.223 13.5351 2.66729 13.5489 3.10851C13.773 3.11541 13.9986 3.11618 14.2234 3.11618C14.2357 2.39949 14.1866 1.67742 14.2472 0.964566ZM14.6009 2.54298C14.6002 2.73404 14.5994 2.92434 14.5994 3.11541C14.9662 3.10774 15.3345 3.13383 15.7013 3.10313C15.8839 3.05633 15.8187 2.82843 15.8371 2.69031C15.8517 2.4578 15.8279 2.12555 15.5386 2.08104C15.1741 2.06032 14.8733 2.33196 14.6009 2.54298Z" fill="#00468C"/>
<path d="M20.9476 0.94997C21.065 0.966084 21.2138 0.914673 21.3113 0.989105C21.3328 1.82243 21.3174 2.65653 21.3174 3.48986C21.1954 3.49216 21.0726 3.49369 20.9514 3.49446C20.933 2.64655 20.9407 1.79788 20.9476 0.94997Z" fill="#00468C"/>
<path d="M24.4074 0.960695C24.5302 0.954556 24.6522 0.949184 24.7758 0.94458C24.7965 1.66664 24.7719 2.38871 24.7896 3.11077C25.8562 3.11538 26.9235 3.12535 27.9901 3.1054C28.0001 2.65114 27.9763 2.19611 28.0086 1.74261C28.1252 1.76793 28.2702 1.73033 28.3669 1.82011C28.3838 2.24905 28.3661 2.67953 28.3723 3.10924C28.6807 3.11845 28.9892 3.11768 29.2984 3.11001C29.3077 2.66572 29.2969 2.22143 29.3053 1.77714C29.4297 1.77944 29.554 1.78328 29.679 1.78712C29.6721 2.21989 29.6913 2.65267 29.6721 3.08468C29.6599 3.32256 29.432 3.50518 29.1995 3.49291C28.868 3.49981 28.5273 3.5259 28.2104 3.41234C28.0577 3.46221 27.9004 3.50442 27.7392 3.49674C26.8683 3.49367 25.9981 3.49444 25.128 3.49674C24.9561 3.50288 24.7896 3.46068 24.6269 3.4131C24.145 3.56811 23.6294 3.47142 23.1329 3.49214C22.6318 3.49598 22.2543 2.94503 22.4108 2.47465C22.4814 2.1892 22.7354 2.01655 22.9817 1.89071C23.0385 1.99967 23.0953 2.10863 23.1521 2.21836C23.004 2.32272 22.7884 2.40712 22.7669 2.61354C22.7016 2.84758 22.8919 3.11154 23.136 3.11077C23.5572 3.12458 23.9785 3.11384 24.4005 3.11077C24.4159 2.39408 24.4028 1.67739 24.4074 0.960695Z" fill="#00468C"/>
<path d="M15.1686 1.04053C15.2799 1.04283 15.3919 1.0459 15.5032 1.0505C15.5047 1.17098 15.5047 1.29221 15.504 1.41345C15.3919 1.41652 15.2807 1.41806 15.1694 1.41959C15.1663 1.29298 15.1663 1.16637 15.1686 1.04053Z" fill="#00468C"/>
<path d="M28.0048 1.05818C28.1199 1.05741 28.235 1.05664 28.3508 1.05664C28.3462 1.17788 28.3416 1.29912 28.337 1.42036C28.2273 1.41806 28.1191 1.41575 28.0101 1.41268C28.0071 1.29452 28.0055 1.17634 28.0048 1.05818Z" fill="#00468C"/>
<path d="M4.31781 1.21626C4.43752 1.21319 4.55722 1.21089 4.67769 1.20935C4.69688 1.79483 4.68767 2.38107 4.68307 2.96655C4.56029 2.96732 4.43828 2.96578 4.31628 2.96425C4.31705 2.38184 4.31474 1.79867 4.31781 1.21626Z" fill="#00468C"/>
<path d="M23.4467 2.03036C23.4405 1.83776 23.5004 1.55845 23.7475 1.56996C23.9454 1.53543 24.0283 1.74414 24.0943 1.88687C23.9554 1.86692 23.8242 1.81857 23.6899 1.78404C23.6615 1.87075 23.6416 1.95976 23.6216 2.04801C23.7997 2.07947 24.0989 1.97358 24.0943 2.24828C23.8403 2.25519 23.5871 2.25365 23.3331 2.25519C23.327 2.21912 23.3155 2.14853 23.3093 2.11323C23.3431 2.09251 23.4121 2.05108 23.4467 2.03036Z" fill="#00468C"/>
<path d="M2.43944 1.73802C2.86378 1.58916 3.37789 1.86924 3.44619 2.3212C3.47688 2.70256 3.45846 3.087 3.45846 3.4699C3.47074 3.80676 3.20217 4.1183 2.87452 4.17739C2.68038 4.20194 2.48395 4.19043 2.28981 4.19043C2.28828 4.06842 2.28674 3.94488 2.30286 3.82364C2.49085 3.80216 2.68115 3.82057 2.86838 3.79295C2.98885 3.73617 3.04564 3.60802 3.12007 3.50597C2.78858 3.48755 2.3957 3.5474 2.14632 3.275C1.7404 2.84299 1.82787 1.94137 2.43944 1.73802ZM2.51848 2.11325C2.23456 2.246 2.25988 2.62046 2.32127 2.87598C2.44558 3.18445 2.81697 3.11079 3.08094 3.11846C3.07556 2.8591 3.10012 2.59744 3.06405 2.33961C2.99116 2.12936 2.72182 1.99968 2.51848 2.11325Z" fill="#00468C"/>
<path d="M16.5836 2.24601C16.7187 1.71271 17.4692 1.51627 17.8513 1.90761C18.2066 2.2061 18.0646 2.71101 18.0876 3.11463C18.802 3.11233 19.5164 3.12307 20.2308 3.10849C20.25 2.66881 20.2201 2.22836 20.2461 1.78944C20.3566 1.75951 20.4725 1.76412 20.5868 1.76028C20.5945 2.20073 20.5999 2.64195 20.5891 3.08317C20.5976 3.31721 20.3705 3.4983 20.1464 3.49139C19.4696 3.5006 18.7913 3.4937 18.1137 3.49293C18.0654 3.69857 17.9925 3.91113 17.8122 4.03927C17.5605 4.2595 17.2044 4.18123 16.8998 4.18123C16.9136 4.05692 16.929 3.93415 16.9451 3.81061C17.1262 3.80677 17.3111 3.82595 17.4914 3.79449C17.6203 3.74692 17.6786 3.60803 17.7561 3.50444C17.4293 3.48602 17.041 3.55125 16.7939 3.28191C16.4962 3.02562 16.5391 2.59514 16.5836 2.24601ZM17.1338 2.12477C16.8645 2.27056 16.899 2.63965 16.965 2.8898C17.0955 3.18753 17.4599 3.10773 17.7201 3.11847C17.717 2.87215 17.7324 2.62584 17.7093 2.38029C17.6633 2.13704 17.3456 1.98588 17.1338 2.12477Z" fill="#00468C"/>
<path d="M13.1875 3.79144C13.3026 3.79221 13.4177 3.79451 13.5336 3.79758C13.5305 3.91191 13.5297 4.02702 13.5175 4.14135C13.4085 4.1567 13.298 4.15746 13.1883 4.159C13.1867 4.03622 13.1867 3.91345 13.1875 3.79144Z" fill="#00468C"/>
<path d="M20.0214 3.80983C20.1342 3.79295 20.2493 3.79065 20.3644 3.78528C20.3629 3.90422 20.3629 4.02315 20.3498 4.14132C20.2708 4.1582 20.1902 4.16971 20.1097 4.16051C19.9416 4.14439 20.0329 3.92263 20.0214 3.80983Z" fill="#00468C"/>
<path d="M29.0928 3.79297C29.2102 3.7945 29.3284 3.79681 29.4466 3.80141C29.4466 3.91498 29.4458 4.02854 29.4458 4.14211C29.3284 4.14287 29.211 4.14287 29.0944 4.14287C29.0928 4.02624 29.0921 3.9096 29.0928 3.79297Z" fill="#00468C"/>
<path d="M8.07397 4.24646C8.19138 4.24646 8.30801 4.248 8.42541 4.24953C8.42541 4.3654 8.42541 4.48127 8.42465 4.5979C8.30801 4.59713 8.19138 4.59637 8.07474 4.59483C8.07397 4.47896 8.07397 4.36233 8.07397 4.24646Z" fill="#00468C"/>
<path d="M8.60181 4.25029C8.72074 4.24875 8.84045 4.24799 8.96015 4.24799C8.95708 4.36078 8.95632 4.47358 8.94557 4.58638C8.83201 4.59943 8.71768 4.59712 8.60411 4.60019C8.60181 4.48356 8.60181 4.36692 8.60181 4.25029Z" fill="#00468C"/>
<path d="M0.00146484 6.32898C2.65568 6.33205 5.3099 6.32744 7.96412 6.33128C7.96182 7.12087 7.96412 7.91046 7.96335 8.70005C6.25987 8.70159 4.55715 8.69852 2.85442 8.70159C2.85673 9.70066 2.85442 10.6997 2.85519 11.6988C4.36915 11.6996 5.88234 11.6988 7.39629 11.6988C7.41547 12.4216 7.38478 13.1437 7.41471 13.8665C5.89461 13.8719 4.37452 13.8681 2.85519 13.8688C2.85673 15.6821 2.85289 17.496 2.85673 19.3093C1.90523 19.3116 0.95373 19.3085 0.00223176 19.3116C0.0029991 14.9838 0.00376685 10.656 0.00146484 6.32898Z" fill="#00468C"/>
<path d="M11.5537 6.3313C12.6203 6.32823 13.6877 6.32977 14.7543 6.33054C16.3381 10.6568 17.9196 14.9838 19.5057 19.31C18.4644 19.3093 17.4231 19.3116 16.3818 19.3085C16.1087 18.4445 15.8255 17.5828 15.5493 16.7195C13.8711 16.7187 12.1929 16.7203 10.5148 16.7187C10.2132 17.5805 9.93159 18.4491 9.63003 19.3108C8.64554 19.3077 7.66104 19.3131 6.67578 19.3077C8.30944 14.9853 9.92775 10.6568 11.5537 6.3313ZM11.2599 14.4175C12.4392 14.4221 13.6186 14.4183 14.7973 14.419C14.4236 13.2811 14.0576 12.14 13.6854 11.0021C13.4659 10.323 13.2365 9.6462 13.0669 8.95253C12.5068 10.788 11.8791 12.6012 11.2599 14.4175Z" fill="#00468C"/>
<path d="M20.4181 6.32979C21.6811 6.32979 22.9442 6.32979 24.208 6.32979C25.1779 6.33669 26.167 6.26994 27.1123 6.5362C28.073 6.77791 29.0023 7.3703 29.4144 8.30108C29.9101 9.43597 29.7543 10.8993 28.868 11.8024C28.5304 12.1569 28.0884 12.3933 27.6226 12.5337C28.3125 12.701 28.9915 13.0233 29.4443 13.5865C30.0919 14.3638 30.1955 15.458 29.9945 16.418C29.8126 17.3188 29.231 18.1192 28.4437 18.588C27.5451 19.1359 26.4716 19.3009 25.4342 19.3093C23.7621 19.3108 22.0901 19.3101 20.4181 19.3093C20.4189 14.983 20.4204 10.656 20.4181 6.32979ZM23.2718 8.56965C23.2741 9.5856 23.2726 10.6016 23.2726 11.6175C23.9509 11.6106 24.6308 11.6405 25.3076 11.5991C25.8577 11.5607 26.4601 11.3106 26.6734 10.7627C26.8522 10.2716 26.8668 9.67614 26.5836 9.22035C26.2706 8.7446 25.6682 8.58422 25.1295 8.57118C24.5103 8.56581 23.8911 8.57118 23.2718 8.56965ZM23.2734 13.5781C23.2726 14.7406 23.2726 15.9039 23.2726 17.0671C23.9954 17.0526 24.7205 17.0994 25.4411 17.0372C26.0158 16.9927 26.6143 16.695 26.843 16.1379C27.0655 15.5655 27.0494 14.8833 26.7555 14.3393C26.4632 13.8205 25.8455 13.6118 25.2815 13.5896C24.6124 13.5619 23.9425 13.585 23.2734 13.5781Z" fill="#00468C"/>
<path d="M1.75255 21.3703C2.06332 21.2668 2.21219 21.7816 1.87763 21.8461C1.57606 21.9305 1.45866 21.4363 1.75255 21.3703Z" fill="#00468C"/>
<path d="M9.10522 21.4317C9.23797 21.4302 9.36996 21.4294 9.5027 21.4286C9.5027 21.698 9.50347 21.9666 9.49733 22.2359C9.82959 22.041 10.3337 22.0609 10.5378 22.4277C10.7703 22.8766 10.7404 23.548 10.29 23.8534C9.93625 24.089 9.48889 23.9939 9.10753 23.8887C9.10599 23.07 9.10906 22.2505 9.10522 21.4317ZM9.50347 22.5068C9.52035 22.8897 9.45973 23.2879 9.5334 23.6631C9.75362 23.7207 10.0368 23.6992 10.1618 23.4805C10.3069 23.2119 10.3145 22.8475 10.1473 22.5873C9.99764 22.3717 9.71295 22.427 9.50347 22.5068Z" fill="#00468C"/>
<path d="M15.7842 21.4302C15.9131 21.4302 16.042 21.4294 16.1725 21.4302C16.1733 21.7018 16.174 21.9743 16.1694 22.2459C16.3935 22.1415 16.6467 22.0663 16.893 22.1392C17.1148 22.1952 17.2514 22.4239 17.2514 22.6441C17.2652 23.0854 17.2498 23.5266 17.2567 23.9678C17.1278 23.967 16.9997 23.967 16.8715 23.9678C16.8616 23.5273 16.8999 23.0838 16.8523 22.6457C16.7833 22.341 16.3843 22.3994 16.1863 22.5352C16.1518 23.0109 16.1825 23.4905 16.1733 23.9678C16.0428 23.967 15.9131 23.967 15.7834 23.967C15.7865 23.1214 15.785 22.2758 15.7842 21.4302Z" fill="#00468C"/>
<path d="M19.2386 21.4317C19.3706 21.4302 19.5034 21.4294 19.6369 21.4294C19.6361 21.6988 19.6377 21.9681 19.6315 22.2382C19.8893 22.0986 20.2285 22.0487 20.4825 22.2236C20.7618 22.4178 20.8263 22.7892 20.8109 23.1076C20.804 23.433 20.6352 23.7698 20.3298 23.9087C19.9837 24.0745 19.5901 23.9816 19.2394 23.8857C19.2402 23.0677 19.2409 22.2497 19.2386 21.4317ZM19.6377 22.5052C19.6346 22.8935 19.6346 23.2818 19.6384 23.6701C19.8349 23.6785 20.0712 23.733 20.2239 23.5703C20.4526 23.324 20.4464 22.9211 20.3129 22.6303C20.1779 22.3779 19.8617 22.4147 19.6377 22.5052Z" fill="#00468C"/>
<path d="M21.088 21.4386C21.2077 21.2905 21.4946 21.3619 21.5085 21.5606C21.556 21.7555 21.3151 21.9305 21.1486 21.8146C21.0082 21.7509 20.969 21.5391 21.088 21.4386Z" fill="#00468C"/>
<path d="M28.205 21.4294C28.3347 21.4302 28.4636 21.431 28.5941 21.4333C28.5941 21.9259 28.591 22.4193 28.5964 22.9127C28.8059 22.6526 29.013 22.3894 29.2279 22.1323C29.3721 22.1331 29.5164 22.1346 29.6614 22.1369C29.4289 22.4093 29.2056 22.6894 28.9716 22.9603C29.1512 23.1912 29.3307 23.423 29.5133 23.6524C29.5555 23.6616 29.6399 23.6808 29.6822 23.69C29.6806 23.766 29.6775 23.9171 29.676 23.9923C29.5179 23.9716 29.333 23.9908 29.2141 23.8642C28.9839 23.6202 28.8028 23.3355 28.5948 23.0731C28.5918 23.3708 28.5933 23.6685 28.5948 23.9663C28.4636 23.9663 28.3332 23.967 28.2035 23.9678C28.2089 23.1214 28.2058 22.275 28.205 21.4294Z" fill="#00468C"/>
<path d="M0.00308742 21.6289C0.45198 21.6312 0.900872 21.6297 1.35053 21.6304C1.34976 21.744 1.34976 21.8583 1.35053 21.9727C1.03209 21.9727 0.714408 21.9727 0.396731 21.9727C0.397498 22.1806 0.397498 22.3893 0.398266 22.5981C0.679878 22.5981 0.962258 22.5973 1.24464 22.5973C1.24464 22.7024 1.24541 22.8083 1.24541 22.915C0.962259 22.9142 0.679111 22.9142 0.395964 22.9142C0.398266 23.2649 0.396732 23.6155 0.399034 23.967C0.267052 23.967 0.134301 23.967 0.00231934 23.9677C0.00385401 23.1881 0.00232009 22.4085 0.00308742 21.6289Z" fill="#00468C"/>
<path d="M7.62731 21.6259C7.77464 21.6289 7.9235 21.6251 8.07083 21.6443C8.377 22.4093 8.62869 23.1958 8.92027 23.967C8.77064 23.967 8.62178 23.967 8.47292 23.967C8.41537 23.7905 8.35705 23.6148 8.29873 23.4391C7.98336 23.4406 7.66798 23.4398 7.3526 23.4398C7.29275 23.6148 7.23367 23.7905 7.17381 23.9662C7.03416 23.967 6.8945 23.967 6.75562 23.9678C7.05257 23.1897 7.33496 22.4055 7.62731 21.6259ZM7.46617 23.0899C7.70788 23.0922 7.95036 23.0922 8.19207 23.0907C8.0716 22.7354 7.94729 22.3809 7.84523 22.0195C7.71632 22.3755 7.59892 22.7354 7.46617 23.0899Z" fill="#00468C"/>
<path d="M13.6003 21.6305C14.1382 21.6512 14.8096 21.5185 15.2025 21.9842C15.5869 22.4822 15.5677 23.3056 15.0859 23.7345C14.6707 24.0814 14.0937 23.9394 13.5988 23.967C13.6003 23.1882 13.598 22.4093 13.6003 21.6305ZM14.0108 21.9643C14.0108 22.5191 14.0116 23.0731 14.0108 23.6279C14.3147 23.6263 14.6976 23.6678 14.8925 23.3777C15.0974 23.0516 15.0859 22.6065 14.9232 22.2658C14.7413 21.9405 14.3316 21.9604 14.0108 21.9643Z" fill="#00468C"/>
<path d="M22.7837 23.967C22.7868 23.1881 22.7837 22.4093 22.7852 21.6304C23.2027 21.6496 23.6492 21.5652 24.0429 21.7394C24.4358 21.9381 24.4012 22.5558 24.0107 22.7423C24.4818 22.9004 24.5232 23.5964 24.1112 23.8419C23.7068 24.0652 23.2226 23.9325 22.7837 23.967ZM23.1827 21.9658C23.1835 22.1814 23.1835 22.397 23.1835 22.6134C23.3592 22.6073 23.538 22.6226 23.7122 22.5858C23.9639 22.5167 23.9999 22.1246 23.7674 22.0095C23.581 21.9404 23.3761 21.9742 23.1827 21.9658ZM23.1835 22.8973C23.1835 23.1482 23.1835 23.4007 23.1842 23.6524C23.3861 23.6409 23.6001 23.6693 23.792 23.5918C23.9746 23.502 23.9869 23.2603 23.9263 23.0907C23.7766 22.8275 23.4313 22.9165 23.1835 22.8973Z" fill="#00468C"/>
<path d="M5.10897 21.6681C5.21563 21.6642 5.32229 21.6612 5.42895 21.6581C5.42818 21.8162 5.42895 21.9758 5.42818 22.1346C5.56861 22.1338 5.70903 22.1331 5.84945 22.1338C5.84868 22.2083 5.84715 22.3571 5.84638 22.4316C5.70673 22.43 5.56707 22.43 5.42818 22.43C5.4466 22.8129 5.38982 23.202 5.46195 23.5803C5.55326 23.7399 5.7497 23.6478 5.89549 23.6593C5.89319 23.7629 5.89089 23.8657 5.88859 23.9701C5.70212 23.9831 5.50952 24.0184 5.32536 23.9685C5.15655 23.9148 5.04835 23.7437 5.05219 23.5703C5.03531 23.1905 5.05142 22.8099 5.04682 22.43C4.98696 22.4308 4.86803 22.4308 4.80894 22.4316C4.80587 22.3318 4.80357 22.2328 4.80127 22.1346C4.86342 22.1346 4.98773 22.1346 5.04989 22.1346C5.0683 21.9788 5.08825 21.8231 5.10897 21.6681Z" fill="#00468C"/>
<path d="M1.62451 22.1361C1.75573 22.1346 1.88771 22.1338 2.01892 22.1331C2.01816 22.7439 2.01739 23.3554 2.01969 23.967C1.88848 23.967 1.75726 23.967 1.62681 23.9678C1.62528 23.357 1.62835 22.7469 1.62451 22.1361Z" fill="#00468C"/>
<path d="M2.76702 22.2858C2.94504 22.1492 3.16067 22.0986 3.38243 22.1093C3.38626 22.2275 3.39087 22.3456 3.39547 22.4646C3.17601 22.4469 2.95655 22.473 2.77086 22.5981C2.77776 23.0547 2.77163 23.5112 2.77546 23.9678C2.64501 23.967 2.51534 23.967 2.38489 23.9678C2.38642 23.3562 2.38566 22.7454 2.38489 22.1346C2.51457 22.1339 2.64425 22.1331 2.7747 22.1331C2.77239 22.1715 2.76856 22.2474 2.76702 22.2858Z" fill="#00468C"/>
<path d="M3.78916 22.1745C4.05543 22.0655 4.35009 22.1254 4.62479 22.1653C4.62633 22.2451 4.63016 22.4055 4.6317 22.4853C4.4015 22.4622 4.09226 22.3303 3.9012 22.5121C3.78456 22.8121 4.19662 22.8367 4.37694 22.9342C4.77289 23.037 4.86727 23.6179 4.54576 23.8557C4.24496 24.0813 3.83981 23.9931 3.50371 23.9125C3.50371 23.8327 3.50371 23.6739 3.50371 23.5941C3.73238 23.6524 3.9787 23.7422 4.21427 23.6647C4.35546 23.6186 4.41685 23.4099 4.28793 23.314C4.10147 23.2035 3.88048 23.1651 3.70015 23.0439C3.40166 22.8421 3.44386 22.3026 3.78916 22.1745Z" fill="#00468C"/>
<path d="M17.6494 22.1799C17.9886 22.1246 18.3976 22.0233 18.69 22.262C18.937 22.5006 18.8465 22.8781 18.8611 23.1851C18.8764 23.3838 18.7805 23.6754 19.0521 23.7276C19.0529 23.8105 19.0544 23.8941 19.0575 23.9777C18.8595 24.01 18.6539 24.0015 18.5081 23.8458C18.2748 23.9962 17.9641 24.0621 17.7108 23.921C17.3932 23.7498 17.3878 23.2173 17.7062 23.0447C17.9433 22.9012 18.2303 22.9134 18.4966 22.9058C18.4482 22.7615 18.4805 22.5543 18.3293 22.4684C18.1014 22.3725 17.852 22.4607 17.628 22.5221C17.6341 22.4078 17.6418 22.2934 17.6494 22.1799ZM17.895 23.3209C17.8405 23.4329 17.8597 23.5956 17.9802 23.6593C18.1398 23.7552 18.3232 23.6647 18.4774 23.6017C18.4751 23.4521 18.4736 23.3025 18.4713 23.1529C18.2771 23.1797 18.027 23.1413 17.895 23.3209Z" fill="#00468C"/>
<path d="M21.0725 22.1331C21.2045 22.1338 21.3373 22.1338 21.4693 22.1346C21.4677 22.7454 21.4685 23.357 21.4693 23.9678C21.3357 23.967 21.2038 23.967 21.0718 23.967C21.0779 23.3554 21.0756 22.7446 21.0725 22.1331Z" fill="#00468C"/>
<path d="M24.7781 22.1791C25.1495 22.1131 25.6897 21.9973 25.9153 22.3963C26.0396 22.7477 25.9514 23.1298 25.9821 23.4943C25.9476 23.6378 26.0864 23.6785 26.1862 23.7337C26.1847 23.7974 26.1816 23.9248 26.1801 23.9885C25.9821 24.0069 25.7787 23.9985 25.6306 23.8488C25.4012 23.9939 25.0989 24.0576 24.848 23.9279C24.5126 23.7706 24.5096 23.2089 24.8357 23.0393C25.072 22.9012 25.3552 22.9158 25.6199 22.905C25.5716 22.7608 25.6038 22.5597 25.4565 22.4692C25.2324 22.374 24.9853 22.4584 24.7643 22.519C24.7682 22.4055 24.7728 22.2919 24.7781 22.1791ZM25.0198 23.3109C24.9592 23.4329 24.9853 23.5972 25.1127 23.6677C25.2554 23.7299 25.4311 23.7007 25.5593 23.6163C25.6145 23.469 25.5946 23.3079 25.6069 23.1544C25.4089 23.1774 25.1656 23.146 25.0198 23.3109Z" fill="#00468C"/>
<path d="M26.3727 22.1254C26.5208 22.1369 26.6903 22.1093 26.8062 22.2275C27.0349 22.1185 27.305 22.0648 27.5482 22.1607C27.7316 22.2459 27.836 22.4454 27.8467 22.6426C27.872 23.0838 27.8483 23.5258 27.8582 23.9678C27.7247 23.967 27.5912 23.967 27.4584 23.967C27.45 23.5266 27.4822 23.0838 27.4439 22.6449C27.371 22.3265 26.9796 22.4278 26.7655 22.526C26.7625 23.0063 26.7632 23.4867 26.7655 23.9678C26.6328 23.967 26.5016 23.967 26.3704 23.9678C26.3742 23.3532 26.3711 22.7393 26.3727 22.1254Z" fill="#00468C"/>
<path d="M10.9169 22.1361C11.0466 22.1346 11.1763 22.1346 11.306 22.1346C11.3067 22.5098 11.3013 22.885 11.3044 23.2603C11.3037 23.4076 11.329 23.5849 11.4778 23.6577C11.6528 23.7268 11.8293 23.6378 11.995 23.5864C11.995 23.1022 11.995 22.6188 11.995 22.1353C12.1316 22.1346 12.269 22.1346 12.4063 22.1353C12.4048 22.7492 12.4048 23.3623 12.4063 23.9762C12.2528 23.967 12.0886 23.9777 11.9567 23.8849C11.7165 23.9885 11.4295 24.0575 11.1847 23.9278C10.9967 23.8365 10.9269 23.6132 10.9192 23.4191C10.91 22.9917 10.9215 22.5635 10.9169 22.1361Z" fill="#00468C"/>
<path d="M29.3844 6.33974C33.238 4.22419 37.0946 2.11325 40.9497 0C39.2593 2.74707 37.7883 5.64069 36.7309 8.69239C35.7633 11.4801 35.1264 14.4006 35.032 17.3564C34.9545 18.9379 35.0911 20.5224 35.3182 22.0878C33.5372 19.4896 32.5405 16.3589 32.5251 13.2074C32.4983 10.8471 33.0116 8.48291 34.0114 6.34434C32.4691 6.33744 30.926 6.34818 29.3844 6.33974Z" fill="#EF2E24"/>
</g>
<defs>
<clipPath id="clip0_45_4253">
<rect width="40.9497" height="24" fill="white"/>
</clipPath>
</defs>
</svg>
