<svg width="49" height="24" viewBox="0 0 49 24" fill="none" xmlns="http://www.w3.org/2000/svg">
<path d="M0.482412 23.4935C0.337688 23.6623 0.144724 23.7106 0 23.7106V23.8553H2.4603V23.7106C2.43618 23.7106 1.95377 23.7106 1.80904 23.4693C1.71256 23.3487 1.68844 23.1799 1.68844 22.6251V21.1297H2.62914C3.01507 21.1297 3.20804 21.1538 3.35276 21.2985C3.52161 21.4673 3.52161 21.7327 3.52161 21.7327H3.76281V20.1407H3.52161C3.52161 20.1407 3.52161 20.406 3.35276 20.5749C3.20804 20.7196 3.01507 20.7437 2.62914 20.7437H1.68844V18.597H2.74975C3.08744 18.597 3.37688 18.597 3.56985 18.7417C3.83517 18.9588 3.81105 19.2482 3.81105 19.2724H4.05226V18.2111H0.0241206V18.3799C0.144724 18.3799 0.361809 18.4281 0.458291 18.5487C0.627135 18.6935 0.651256 18.8623 0.651256 19.5618V22.2874C0.651256 23.0593 0.651256 23.3246 0.482412 23.4935Z" fill="#002B59"/>
<path d="M18.1628 22.5769C18.1628 21.7326 17.6322 21.4191 17.1256 21.1055L16.6191 20.7919C16.1608 20.5266 15.9196 20.3578 15.9196 19.9236C15.9196 19.5859 16.0885 19.2 16.8603 19.2241C17.6081 19.2482 17.7769 19.8754 17.801 20.0683H18.0181V19.1276C18.0181 19.1276 17.5116 18.8864 16.8362 18.8864C15.5819 18.8864 15.0513 19.4653 15.0513 20.1889C15.0513 20.8884 15.3648 21.1779 15.992 21.5638L16.4503 21.8532C16.9327 22.1427 17.2462 22.3115 17.2462 22.8422C17.2462 23.2764 16.9086 23.6382 16.2332 23.6382C15.8955 23.6382 15.3407 23.4693 15.2925 22.8181H15.0513V23.7588C15.2442 23.8311 15.5819 24 16.2332 24C17.005 23.9759 18.1628 23.7829 18.1628 22.5769Z" fill="#002B59"/>
<path d="M7.54981 19.1759V19.007H5.4272V19.1759C5.59604 19.1759 5.74076 19.2482 5.81313 19.3206C5.93373 19.4412 5.95785 19.5618 5.95785 20.0924V22.5045C5.95785 23.1558 5.93373 23.3728 5.81313 23.5176C5.69252 23.6382 5.52368 23.6864 5.40308 23.6864V23.8311H7.52569V23.6864C7.35684 23.6864 7.21212 23.6141 7.11564 23.5176C6.99504 23.397 6.97091 23.2522 6.97091 22.7216V20.3337C6.97091 19.6824 6.97091 19.5136 7.11564 19.3688C7.26036 19.2241 7.42921 19.1759 7.54981 19.1759Z" fill="#002B59"/>
<path d="M23.6623 19.996V19.0311H19.3447V19.996H19.5618C19.5618 19.8753 19.5859 19.6583 19.7548 19.5135C19.9236 19.3929 20.1648 19.3688 20.4543 19.3688H20.9849V22.5286C20.9849 23.0834 20.9849 23.3728 20.8161 23.5417C20.6714 23.6623 20.4302 23.7105 20.2854 23.7105V23.8552H22.6975V23.7105C22.5045 23.7105 22.2633 23.6623 22.1668 23.5417C22.0462 23.4211 22.0221 23.2764 22.0221 22.7216V19.3688H22.5528C22.8181 19.3688 23.0834 19.3929 23.2523 19.5135C23.4211 19.6583 23.4452 19.8753 23.4452 19.996H23.6623Z" fill="#002B59"/>
<path d="M40.5709 22.0703L38.2794 19.0311H36.6875V19.2C36.8563 19.2 37.001 19.2723 37.0734 19.3447C37.194 19.4653 37.2181 19.61 37.2181 20.1407V22.5286C37.2181 23.1799 37.194 23.397 37.0734 23.5417C36.9528 23.6623 36.7839 23.7105 36.6633 23.7105V23.8553H38.2794V23.7105C38.1106 23.7105 37.9658 23.6382 37.8935 23.5417C37.7729 23.4211 37.7488 23.2764 37.7488 22.7457V19.9236C37.7488 19.9477 37.8211 20.0683 37.9658 20.2613L40.6915 23.8553H41.3668V20.3578C41.3668 19.7065 41.391 19.4894 41.5116 19.3447C41.6322 19.2241 41.801 19.1759 41.9216 19.1759V19.007H40.2814V19.1759C40.4503 19.1759 40.595 19.2482 40.6915 19.3206C40.8121 19.4412 40.8362 19.5859 40.8362 20.1166V22.4563C40.8362 22.4804 40.788 22.3357 40.5709 22.0703Z" fill="#002B59"/>
<path d="M47.1316 21.4191C47.1316 22.8181 46.6492 23.5417 45.419 23.5417C45.2261 23.5417 45.0814 23.5417 44.9849 23.5176C44.816 23.4693 44.7919 23.3728 44.7919 23.1557V19.3929C44.7919 19.3929 44.9366 19.3688 45.3708 19.3688C46.1668 19.3447 47.1316 19.6583 47.1316 21.4191ZM48.2412 21.3226C48.2412 19.0552 46.0944 19.0311 45.2984 19.0311H43.2241V19.2C43.3929 19.2 43.5376 19.2723 43.61 19.3447C43.7306 19.4653 43.7547 19.61 43.7547 20.1407V22.5286C43.7547 23.1799 43.7306 23.397 43.61 23.5417C43.4894 23.6623 43.3206 23.7105 43.2 23.7105V23.8794H45.1055C45.612 23.8794 46.1185 23.8794 46.4321 23.7829C47.3728 23.5176 48.2412 22.8181 48.2412 21.3226Z" fill="#002B59"/>
<path d="M33.6723 21.6844H32.3698L32.8281 20.5266C32.9969 20.0925 33.0452 19.8754 33.0452 19.8513C33.0452 19.8995 33.0693 20.0683 33.2382 20.5025L33.6723 21.6844ZM27.3527 21.0573C27.2804 21.0573 27.1115 21.0814 27.015 21.0814C26.605 21.0814 26.412 21.0814 26.412 21.0814V18.5729C26.412 18.5729 26.605 18.5487 26.8703 18.5487C27.4251 18.5487 28.2693 18.6935 28.2693 19.7789C28.2452 20.6714 27.811 20.9849 27.3527 21.0573ZM35.8432 23.8553V23.7106C35.6502 23.7106 35.5537 23.6141 35.5055 23.5417C35.4331 23.4452 35.3849 23.3487 35.3366 23.1799L33.7206 19.0312H32.9969L31.2603 23.0111C31.0673 23.4452 30.9467 23.6623 30.6331 23.7106H30.5366C30.1507 23.6864 29.8371 23.397 29.403 22.9387C28.8723 22.3598 27.9075 21.2744 27.9075 21.2744C27.9799 21.2503 29.3789 20.9849 29.3789 19.7065C29.3789 19.3206 29.21 18.5729 28.1487 18.3075C27.7869 18.2111 27.2321 18.2111 26.8703 18.2111H24.7236V18.3799C24.8442 18.3799 25.0613 18.4281 25.1578 18.5487C25.3266 18.6935 25.3507 18.8623 25.3507 19.5618V22.3116C25.3507 23.1075 25.3507 23.3487 25.1819 23.5176C25.0372 23.6864 24.8442 23.7347 24.6995 23.7347V23.8794H27.015V23.7347C26.8944 23.7347 26.7015 23.6864 26.5809 23.5658C26.412 23.4211 26.3879 23.2523 26.3879 22.5528V21.4673H26.8703C27.0633 21.7327 28.1246 22.9628 28.3899 23.2523C28.8723 23.7829 29.1377 23.8553 29.7648 23.8553H30.5366H30.6572H32.1768V23.6864C32.0804 23.6864 31.9115 23.6623 31.8392 23.59C31.7909 23.5417 31.7668 23.4935 31.7668 23.397C31.7668 23.2764 31.815 23.1558 31.8874 22.9387L32.2492 21.998H33.8412L34.203 22.9387C34.2753 23.1075 34.3236 23.2764 34.3236 23.3729C34.3236 23.4693 34.2995 23.5176 34.2512 23.5658C34.1547 23.6382 33.9859 23.6623 33.9135 23.6623V23.807H35.8432V23.8553Z" fill="#002B59"/>
<path d="M11.3126 21.4673C11.2402 21.4914 11.1437 21.4914 11.0472 21.4914C10.7819 21.4914 10.589 21.4914 10.589 21.4914V19.3688C10.589 19.3688 10.7578 19.3447 10.9508 19.3447C11.3367 19.3447 11.988 19.4171 11.988 20.3819C12.0121 21.2502 11.5779 21.4191 11.3126 21.4673ZM14.1106 23.8794V23.7105C13.7488 23.6864 13.4834 23.4211 13.1699 23.0834C12.7116 22.5769 11.9156 21.6362 11.9156 21.6362C12.4221 21.5156 13.0975 21.0573 13.0975 20.2854C13.0975 19.8995 12.9287 19.4171 12.2774 19.1759C11.9397 19.0553 11.5055 19.007 11.0472 19.007C10.999 19.007 10.9025 19.007 10.806 19.007H9.04524V19.1759C9.21408 19.1759 9.35881 19.2482 9.43117 19.3206C9.55177 19.4412 9.57589 19.5859 9.57589 20.1166V22.5286C9.57589 23.1799 9.55177 23.397 9.43117 23.5176C9.31056 23.6382 9.14172 23.6864 9.02112 23.6864V23.8311H11.1196V23.6864C10.9508 23.6864 10.806 23.6141 10.7096 23.5176C10.6131 23.4452 10.6131 23.3005 10.6131 22.7698V21.8291H10.9508C11.0472 21.9497 11.795 22.9628 12.1086 23.3246C12.4462 23.7347 12.6392 23.9276 13.3146 23.9276C13.8694 23.9276 14.1106 23.8794 14.1106 23.8794Z" fill="#002B59"/>
<path d="M15.3889 7.54975C15.3889 3.44924 19.2965 0 24.0964 0C28.8964 0 32.804 3.44924 32.804 7.54975C32.804 11.6261 28.9206 15.0995 24.0964 15.0995C19.2965 15.0754 15.3889 11.6261 15.3889 7.54975Z" fill="#002B59"/>
<path d="M15.9919 7.52563C15.9919 3.64222 19.61 0.482422 24.0965 0.482422C28.5588 0.482422 32.201 3.64222 32.201 7.54976C32.201 11.4573 28.5829 14.6171 24.0965 14.6171C19.61 14.593 15.9919 11.4332 15.9919 7.52563Z" fill="white"/>
<path d="M16.3538 7.52562C16.3538 3.81105 19.8271 0.771851 24.0965 0.771851C28.3658 0.771851 31.8392 3.78692 31.8392 7.52562C31.8392 11.2402 28.3658 14.2794 24.0965 14.2794C19.8271 14.2794 16.3538 11.2643 16.3538 7.52562Z" fill="#002B59"/>
<path d="M18.3075 7.52564C18.3075 4.75177 20.8884 2.48444 24.0964 2.48444C27.3045 2.48444 29.8854 4.75177 29.8854 7.52564C29.8854 10.2995 27.3045 12.5668 24.0964 12.5668C20.8884 12.5668 18.3075 10.3236 18.3075 7.52564Z" fill="#FFD200"/>
<path d="M25.2784 5.42712C25.4714 5.76481 25.4714 6.2231 25.4232 6.53667C25.3749 6.802 25.2543 7.21205 24.9166 7.59798C24.989 7.59798 25.1096 7.54974 25.3267 7.5015C25.592 7.42913 25.7367 7.38089 25.7367 7.38089C25.7367 7.38089 25.7126 7.47737 25.6644 7.52562C25.785 7.54974 26.1227 7.6221 26.8463 7.42913C26.991 7.40501 27.184 7.33265 27.2563 7.45325C27.3769 7.71858 27.0634 7.79094 27.0634 7.79094C27.0634 7.79094 27.184 7.91155 27.5699 7.76682C27.8352 7.67034 27.8111 7.42913 27.8111 7.42913L27.9317 7.59798C27.9317 7.59798 28.197 7.23617 27.787 7.01908C27.4493 6.82612 27.1598 7.01908 27.1598 7.01908C27.1598 7.01908 26.8945 6.9226 26.4603 6.82612C26.0262 6.70552 25.6402 6.41607 25.6402 6.41607C25.6402 6.41607 25.785 6.44019 26.0744 6.36783C26.3397 6.29547 26.4121 6.2231 26.4121 6.2231L26.388 6.39195C26.388 6.39195 26.6774 6.29547 27.0151 5.83717C27.2081 5.57185 27.3046 5.25828 27.3046 5.25828C27.3046 5.25828 27.3769 5.2824 27.4493 5.35476C27.4975 5.42712 27.5458 5.54773 27.5458 5.54773C27.5458 5.54773 27.7629 5.37888 27.7387 5.18592C27.7146 4.94471 27.5458 4.87235 27.5458 4.87235L27.8835 4.94471C27.8835 4.94471 27.8593 4.51054 27.3287 4.5829C26.8704 4.65527 26.8945 5.18592 26.8945 5.18592C26.8945 5.18592 26.798 5.35476 26.2433 5.47537C25.8814 5.57185 25.3749 5.45124 25.2784 5.42712Z" fill="#002B59"/>
<path d="M22.9145 3.90753C22.9145 3.90753 22.7215 4.1005 22.7215 4.31758C22.6733 4.9206 22.8421 4.87236 22.9869 5.45125C23.1557 6.15075 22.7215 6.85024 22.7215 6.85024C22.7215 6.85024 23.1557 7.06733 23.6381 6.70552C23.9999 6.41607 23.807 5.88542 23.807 5.88542C23.807 5.88542 24.0241 6.10251 23.9758 6.44019C23.8793 6.82612 23.6622 6.99497 23.6622 6.99497C23.6622 6.99497 24.217 6.99497 24.5065 6.58492C24.7477 6.22311 24.5306 5.76482 24.5306 5.76482C24.5306 5.76482 24.6753 5.76482 24.7718 6.07838C24.8683 6.39195 24.6753 6.72964 24.6753 6.72964C24.6753 6.72964 25.1095 6.60904 25.2301 6.19899C25.2783 6.00602 25.2783 5.83718 25.2301 5.71658C24.9406 5.0412 24.0241 5.35477 23.6622 4.70351C23.5658 4.51055 23.5175 4.36582 23.5175 4.17286C23.2763 4.17286 23.0592 4.07638 22.9145 3.90753Z" fill="#002B59"/>
<path d="M22.601 5.59594C22.9146 6.03011 22.6734 6.68137 22.1909 6.97081C21.7085 7.28438 21.1538 7.47735 20.6231 7.69443C19.8513 8.008 19.803 9.23815 20.8884 8.77986C21.0814 8.7075 21.3467 8.53865 21.5397 8.39393V8.34569C21.5397 8.34569 21.5638 8.15272 21.805 7.98388C22.3598 7.59795 22.3839 7.81503 22.6251 7.54971C22.794 7.35674 22.8422 7.09142 22.8422 7.09142C22.9387 7.11554 23.2523 7.13966 23.4935 7.01905L23.3487 7.21202C23.3487 7.21202 23.7105 7.21202 24 7.13966C24.1206 7.11554 24.2653 7.04317 24.41 6.94669L24.3618 7.0673C24.3618 7.0673 24.7236 6.94669 24.9166 6.80197C25.0131 6.72961 25.1337 6.65725 25.206 6.56076C25.1578 6.87433 25.0131 7.28438 24.6512 7.62207C24.1206 8.1286 23.0834 8.1286 23.0834 8.1286C23.0834 8.1286 23.6141 8.46629 23.7105 9.09343C23.7829 9.45523 23.5658 9.84116 23.1075 9.91353C22.6251 9.98589 21.998 9.93765 21.998 9.93765C21.998 9.93765 21.7327 10.203 22.0221 10.5648C22.3116 10.9025 22.7698 11.0231 22.7698 11.0231C22.7698 11.0231 23.4211 10.9025 23.6623 11.2402C23.7829 11.4331 23.6864 11.6261 23.6864 11.6261C23.6864 11.6261 23.5176 11.4814 23.3487 11.4572C23.1558 11.5537 23.1316 11.5778 22.9387 11.6261C22.6734 11.6743 22.5769 11.602 22.5769 11.602C22.5769 11.602 22.794 11.4331 22.6734 11.3849C22.6975 11.3849 21.9256 11.216 21.3467 10.7819C20.9367 10.4683 20.8402 10.2753 20.8402 10.2753L20.9849 10.2271C20.9849 10.2271 20.7678 10.0582 20.7196 9.8894C20.6714 9.74468 20.7196 9.72056 20.7196 9.72056C20.7196 9.72056 20.9608 9.7688 21.2744 9.69644C21.6121 9.62408 21.805 9.35875 21.805 9.35875C21.805 9.35875 21.7809 9.33463 21.6603 9.11755C21.5397 8.90046 21.6121 8.75574 21.6121 8.75574C21.1055 9.09343 20.2854 9.55172 19.8754 8.85222C19.5618 8.29745 20.0442 7.64619 20.5266 7.4291C20.9367 7.26026 21.8774 6.92257 22.1909 6.63312C22.4322 6.39192 22.5286 6.00599 22.3357 5.76478C22.3357 5.76478 21.9015 6.17483 21.4432 6.12659C21.0573 6.10247 20.8161 5.76478 20.8161 5.76478L20.9367 5.74066C20.9367 5.74066 20.8161 5.6683 20.7678 5.5477C20.7196 5.4271 20.7678 5.23413 20.7678 5.23413C20.7678 5.23413 21.0332 5.52358 21.2985 5.47534C21.6844 5.40297 21.7809 5.16177 22.1909 5.28237C22.3357 5.33061 22.4804 5.4271 22.601 5.59594Z" fill="#002B59"/>
<path d="M24.4824 3.81105L24.3135 3.95577C24.3135 3.95577 24.2894 3.95577 24.2171 3.85929C24.1688 3.78693 24.0723 3.73868 24.0723 3.73868C24.0723 3.73868 24.1447 3.7628 24.2894 3.78693C24.4341 3.81105 24.4824 3.81105 24.4824 3.81105ZM25.1578 3.73868C24.8924 3.6422 24.7477 3.6422 24.7477 3.6422C24.7477 3.6422 24.6271 3.49748 24.2412 3.44924C23.8553 3.401 23.614 3.54572 23.614 3.54572C23.614 3.54572 23.4211 3.49748 23.2522 3.49748C22.9869 3.5216 22.9146 3.61808 22.9146 3.61808C22.9146 3.61808 23.0352 3.85929 23.2522 3.93165C23.5176 4.00401 23.6864 3.97989 23.6864 3.97989C23.6864 3.97989 23.5658 4.26934 23.7588 4.60703C23.9276 4.87235 24.2171 4.92059 24.4824 4.94471C24.603 4.96883 24.6271 5.08944 24.7477 5.08944C24.796 5.08944 24.8442 5.0412 24.9407 4.94471C25.0372 4.84823 25.1095 4.72763 25.1095 4.72763L25.0854 4.67939C25.0854 4.67939 24.9166 4.77587 24.6995 4.72763C24.4341 4.67939 24.2894 4.38994 24.2894 4.38994C24.2894 4.38994 24.41 4.31758 24.603 4.29346C24.7718 4.29346 24.9166 4.36582 24.9166 4.36582C24.9166 4.36582 24.9166 4.41406 24.9166 4.4623C24.8924 4.51054 24.8683 4.53466 24.8683 4.53466L24.8924 4.5829C24.8924 4.5829 25.1336 4.43818 25.3025 4.12461C25.4955 3.83517 25.3266 3.78693 25.1578 3.73868Z" fill="#002B59"/>
<path d="M23.5176 8.22511C23.5176 8.22511 23.6623 8.24923 23.8311 8.63516C23.9517 8.90049 23.9276 9.14169 23.9276 9.14169C23.9276 9.14169 24.2894 9.02109 24.41 9.35878C24.5789 9.76883 23.9276 9.96179 23.9276 9.96179C23.9276 9.96179 24.0482 10.396 24.6995 10.7819C25.3266 11.1437 25.5919 11.1196 25.5919 11.1196C25.5919 11.1196 25.7126 10.9507 25.9538 11.0231C26.1708 11.0713 25.9779 11.3367 25.9779 11.3367C25.9779 11.3367 26.1467 11.409 26.412 11.2884C26.605 11.2161 26.605 11.1437 26.605 11.1437C26.605 11.1437 26.6774 11.1437 26.7739 11.1678C26.8462 11.1919 26.9427 11.2643 26.9427 11.2643C26.9427 11.2643 26.9909 10.9507 26.7015 10.7337C26.2673 10.4442 25.809 10.5889 25.7367 10.5889C25.3266 10.4683 24.9889 9.98591 24.9889 9.98591C24.9889 9.98591 25.4231 9.76883 25.6402 9.21405C25.7126 9.02109 26.002 8.08039 24.8201 8.03214C24.1206 8.00802 23.5176 8.22511 23.5176 8.22511Z" fill="#002B59"/>
</svg>
