<svg width="237" height="24" viewBox="0 0 237 24" fill="none" xmlns="http://www.w3.org/2000/svg">
<path d="M0 0H5.17576V9.03285H14.7031V0H19.8789V23.5382H14.7031V13.3844H5.17576V23.5382H0V0Z" fill="#0066B3"/>
<path d="M23.4062 11.7361C23.67 7.35156 27.593 6.0329 31.4171 6.0329C34.8127 6.0329 38.9006 6.79113 38.9006 10.879V19.747C38.9006 21.2961 39.0654 22.8459 39.494 23.5382H34.7468C34.5819 23.0107 34.4501 22.4503 34.4171 21.8898C32.9336 23.4393 30.7578 23.9997 28.6809 23.9997C25.4502 23.9997 22.8788 22.3843 22.8788 18.8899C22.8788 15.0328 25.7798 14.1097 28.6809 13.7141C31.549 13.2859 34.2193 13.3848 34.2193 11.4724C34.2193 9.46142 32.8347 9.16472 31.1864 9.16472C29.4062 9.16472 28.2523 9.88999 28.0875 11.7361H23.4062ZM34.219 15.1976C33.4278 15.8899 31.7794 15.9229 30.3289 16.1866C28.8784 16.4833 27.5597 16.9778 27.5597 18.6917C27.5597 20.439 28.9113 20.8679 30.4278 20.8679C34.0871 20.8679 34.219 17.9668 34.219 16.9448V15.1976Z" fill="#0066B3"/>
<path d="M42.1965 6.49443H46.647V8.86803H46.7459C47.9327 6.95596 49.9767 6.0329 51.9546 6.0329C56.9326 6.0329 58.1853 8.83506 58.1853 13.0548V23.5382H53.5041V13.9116C53.5041 11.1094 52.6799 9.72482 50.5041 9.72482C47.9657 9.72482 46.8778 11.1424 46.8778 14.6039V23.5378H42.1965V6.49443Z" fill="#0066B3"/>
<path d="M73.5804 21.3624H73.5145C72.4266 23.2082 70.5145 23.9997 68.3387 23.9997C63.196 23.9997 60.6905 19.5822 60.6905 14.8679C60.6905 10.2852 63.2289 6.03289 68.2398 6.03289C70.2508 6.03289 72.2288 6.89002 73.2837 8.57132H73.3497V0H78.0309V23.5382H73.5804V21.3624ZM69.4926 9.56032C66.4267 9.56032 65.3717 12.1976 65.3717 14.9998C65.3717 17.6701 66.5915 20.4723 69.4926 20.4723C72.5914 20.4723 73.5145 17.769 73.5145 14.9672C73.5145 12.1976 72.5255 9.56032 69.4926 9.56032Z" fill="#0066B3"/>
<path d="M85.0858 16.1536C85.2177 19.1206 86.6682 20.4722 89.2726 20.4722C91.1517 20.4722 92.6681 19.3184 92.9648 18.2638H97.0856C95.767 22.2857 92.9648 24 89.1077 24C83.7342 24 80.4045 20.3077 80.4045 15.0331C80.4045 9.92357 83.932 6.03351 89.1077 6.03351C94.9098 6.03351 97.712 10.9126 97.3823 16.1539L85.0858 16.1536ZM92.7008 13.1866C92.2722 10.813 91.2502 9.56026 88.9755 9.56026C86.0085 9.56026 85.1514 11.8679 85.0855 13.1866H92.7008Z" fill="#0066B3"/>
<path d="M99.9531 0H104.634V23.5382H99.9531V0Z" fill="#0066B3"/>
<path d="M111.623 17.9997C111.656 20.0437 113.37 20.8678 115.217 20.8678C116.568 20.8678 118.282 20.3404 118.282 18.6917C118.282 17.2741 116.337 16.7796 112.975 16.0544C110.272 15.461 107.568 14.5053 107.568 11.505C107.568 7.1534 111.327 6.03253 114.986 6.03253C118.711 6.03253 122.14 7.28526 122.502 11.472H118.052C117.92 9.65886 116.535 9.16436 114.854 9.16436C113.799 9.16436 112.25 9.36216 112.25 10.7468C112.25 12.4284 114.887 12.6588 117.557 13.2852C120.293 13.9112 122.964 14.9005 122.964 18.0653C122.964 22.5485 119.074 23.9993 115.184 23.9993C111.228 23.9993 107.371 22.5158 107.173 17.9994L111.623 17.9997Z" fill="#0066B3"/>
<path d="M125.37 0H130.051V8.57132H130.117C131.271 6.82409 133.381 6.03289 135.491 6.03289C138.886 6.03289 142.546 8.76912 142.546 14.9998C142.546 21.2635 138.886 23.9997 135.491 23.9997C132.986 23.9997 130.908 23.2415 129.886 21.3624H129.821V23.5382H125.37L125.37 0ZM133.875 9.56032C131.107 9.56032 129.886 12.1647 129.886 15.0328C129.886 17.8682 131.107 20.4723 133.875 20.4723C136.645 20.4723 137.864 17.8682 137.864 15.0328C137.864 12.1647 136.645 9.56032 133.875 9.56032Z" fill="#0066B3"/>
<path d="M144.985 11.7361C145.248 7.35156 149.172 6.0329 152.995 6.0329C156.391 6.0329 160.479 6.79113 160.479 10.879V19.747C160.479 21.2961 160.644 22.8459 161.072 23.5382H156.325C156.16 23.0107 156.029 22.4503 155.996 21.8898C154.512 23.4393 152.336 23.9997 150.259 23.9997C147.029 23.9997 144.457 22.3843 144.457 18.8899C144.457 15.0328 147.358 14.1097 150.259 13.7141C153.127 13.2859 155.798 13.3848 155.798 11.4724C155.798 9.46142 154.414 9.16472 152.765 9.16472C150.985 9.16472 149.831 9.88999 149.666 11.7361H144.985ZM155.798 15.1976C155.007 15.8899 153.358 15.9229 151.908 16.1866C150.457 16.4833 149.139 16.9778 149.139 18.6917C149.139 20.439 150.491 20.8679 152.007 20.8679C155.666 20.8679 155.798 17.9668 155.798 16.9448L155.798 15.1976Z" fill="#0066B3"/>
<path d="M163.775 6.49443H168.226V8.86803H168.324C169.511 6.95596 171.555 6.0329 173.533 6.0329C178.511 6.0329 179.764 8.83506 179.764 13.0548V23.5382H175.083V13.9116C175.083 11.1094 174.259 9.72482 172.083 9.72482C169.545 9.72482 168.457 11.1424 168.457 14.6039V23.5378H163.776L163.775 6.49443Z" fill="#0066B3"/>
<path d="M183.423 0H188.104V12.6262L194.005 6.49408H199.544L193.115 12.7577L200.269 23.5378H194.599L189.918 15.9225L188.105 17.6694V23.5375H183.424L183.423 0Z" fill="#0066B3"/>
<path d="M205.444 16.1536C205.577 19.1206 207.027 20.4722 209.631 20.4722C211.51 20.4722 213.027 19.3184 213.324 18.2638H217.444C216.126 22.2857 213.324 24 209.466 24C204.093 24 200.763 20.3077 200.763 15.0331C200.763 9.92357 204.291 6.03351 209.466 6.03351C215.269 6.03351 218.071 10.9126 217.741 16.1539L205.444 16.1536ZM213.059 13.1866C212.631 10.813 211.609 9.56026 209.335 9.56026C206.368 9.56026 205.51 11.8679 205.444 13.1866H213.059Z" fill="#0066B3"/>
<path d="M220.18 6.49443H224.63V8.86803H224.729C225.916 6.95596 227.96 6.0329 229.938 6.0329C234.916 6.0329 236.168 8.83506 236.168 13.0548V23.5382H231.487V13.9116C231.487 11.1094 230.663 9.72482 228.487 9.72482C225.949 9.72482 224.861 11.1424 224.861 14.6039V23.5378H220.18L220.18 6.49443Z" fill="#0066B3"/>
</svg>
