<svg width="139" height="24" viewBox="0 0 139 24" fill="none" xmlns="http://www.w3.org/2000/svg">
<g clip-path="url(#clip0_45_4258)">
<path d="M0.51355 0.51824H138.342V23.4877H0.51355V0.51824Z" fill="#004C8F"/>
<path d="M23.4858 0.51824H138.342V23.4877H23.4858V0.51824Z" fill="#004C8F"/>
<path d="M30.79 17.4369V6.5688H34.3656V10.2367H37.7158V6.5688H41.2971V17.4369H37.7158V13.2202H34.3656V17.4369H30.79Z" fill="white"/>
<path d="M46.9548 9.26921H47.882C48.5491 9.26921 49.0372 9.33849 49.3491 9.47713C49.5802 9.57821 49.7679 9.72842 49.9325 9.95369C50.0827 10.1761 50.204 10.4563 50.2935 10.8086C50.3744 11.1581 50.4177 11.5277 50.4177 11.9176C50.4177 12.553 50.3311 13.0844 50.1433 13.5148C49.9614 13.9451 49.6986 14.2541 49.3607 14.4447C49.0227 14.6382 48.5202 14.7307 47.856 14.7307L46.9548 14.7365V9.26921ZM48.3353 17.4369C49.1787 17.4369 49.8777 17.3676 50.4495 17.2145C51.0243 17.0672 51.4921 16.8708 51.8502 16.6368C52.2141 16.3971 52.5434 16.0737 52.8467 15.6723C53.147 15.2564 53.4098 14.7336 53.6149 14.0924C53.8257 13.4542 53.9268 12.735 53.9268 11.9205C53.9268 10.7248 53.6987 9.71398 53.2366 8.87064C52.7687 8.04463 52.1333 7.44681 51.3218 7.09446C50.5131 6.7421 49.5484 6.5688 48.4278 6.5688H43.4573V17.4369H48.3353Z" fill="white"/>
<path d="M55.5645 17.4369V6.5688H64.0441V9.24902H59.0937V10.9906H63.0534V13.5985H59.0937V17.4369H55.5645Z" fill="white"/>
<path d="M76.0183 10.7249H72.642C72.5785 10.1848 72.3821 9.75742 72.0557 9.45128C71.7265 9.15091 71.3134 9.00362 70.8051 9.00362C70.1726 9.00362 69.6585 9.24909 69.2628 9.7343C68.8643 10.2253 68.665 11.0195 68.665 12.1112C68.665 12.8737 68.7546 13.4455 68.9192 13.8354C69.0896 14.2369 69.3293 14.5257 69.6268 14.7192C69.9329 14.9127 70.3055 15.0023 70.7647 15.0023C71.3135 15.0023 71.7525 14.8636 72.0731 14.5459C72.4023 14.2484 72.5929 13.8037 72.6565 13.2087H76.0934C76.0183 13.8846 75.8825 14.4506 75.6861 14.9127C75.4983 15.372 75.1634 15.8282 74.7099 16.2874C74.2507 16.7524 73.702 17.1106 73.0695 17.359C72.437 17.6102 71.7062 17.7287 70.8686 17.7287C70.0426 17.7287 69.2716 17.6103 68.5755 17.3677C67.8708 17.1193 67.2758 16.7669 66.8022 16.325C66.3198 15.8658 65.9444 15.3517 65.6758 14.7712C65.2888 13.9538 65.1068 13.0557 65.1068 12.0535C65.1068 11.2159 65.2425 10.4217 65.5169 9.69384C65.7913 8.9718 66.1697 8.3566 66.652 7.85984C67.1372 7.36597 67.6657 6.99634 68.2549 6.74796C69 6.43027 69.8203 6.27721 70.7301 6.27721C71.5214 6.27721 72.255 6.39266 72.9481 6.6266C73.6384 6.86054 74.2045 7.20139 74.6464 7.65483C75.094 8.10827 75.4377 8.62811 75.6774 9.22018C75.8507 9.63319 75.9605 10.1328 76.0183 10.7249Z" fill="white"/>
<path d="M87.4698 9.0151C87.9752 9.0151 88.3016 9.03817 88.4633 9.08438C88.6713 9.14503 88.8445 9.26343 88.9687 9.41939C89.0958 9.58113 89.1623 9.7689 89.1623 9.98551C89.1623 10.2628 89.0525 10.4909 88.8417 10.6642C88.6164 10.8461 88.2323 10.9299 87.6806 10.9299H86.3347V9.0151H87.4698ZM88.368 17.4369C89.2143 17.4369 89.8092 17.3964 90.1587 17.3213C90.5024 17.2405 90.8576 17.1135 91.2186 16.946C91.571 16.7611 91.8424 16.5878 92.0215 16.3972C92.2988 16.1402 92.5038 15.8282 92.654 15.4527C92.8042 15.0744 92.8793 14.6469 92.8793 14.1877C92.8793 13.5321 92.7176 12.992 92.3883 12.553C92.0591 12.1111 91.6171 11.8194 91.0597 11.6606C92.0041 11.0656 92.475 10.2974 92.475 9.36166C92.475 8.39413 92.059 7.65473 91.2359 7.15219C90.6005 6.76518 89.6099 6.5688 88.2669 6.5688H82.8748V17.4369H88.368ZM87.7933 12.8852C88.5009 12.8852 88.9601 12.9718 89.1912 13.1538C89.4049 13.3299 89.5204 13.5725 89.5204 13.8989C89.5204 14.2281 89.4048 14.4881 89.1709 14.67C88.9485 14.8635 88.4835 14.9444 87.7933 14.9444H86.3347V12.8852H87.7933Z" fill="white"/>
<path d="M100.732 13.7834H98.4592L99.5798 9.82951L100.732 13.7834ZM97.3906 17.4369L97.8036 16.0102H101.362L101.778 17.4369H105.333L101.434 6.5688H97.8036L93.9017 17.4369H97.3906Z" fill="white"/>
<path d="M106.835 17.4369V6.5688H110.165L113.922 12.3885V6.5688H117.348V17.4369H113.945L110.269 11.7617V17.4369H106.835Z" fill="white"/>
<path d="M119.73 17.4369V6.5688H123.193V10.153L126.425 6.5688H130.624L126.642 10.6613L131.037 17.4369H126.757L124.143 13.1076L123.193 14.0462V17.4369H119.73Z" fill="white"/>
<path d="M0.51355 0.51824H23.483V23.4877H0.51355V0.51824Z" fill="#ED232A"/>
<path d="M4.53381 4.53846H19.4656V19.4702H4.53381V4.53846Z" fill="white"/>
<path d="M10.8502 0.51824H13.1462V23.4877H10.8502V0.51824Z" fill="white"/>
<path d="M0.51355 10.8578H23.483V13.1538H0.51355V10.8578Z" fill="white"/>
<path d="M8.5542 8.55885H15.4453V15.45H8.5542V8.55885Z" fill="#004C8F"/>
</g>
<defs>
<clipPath id="clip0_45_4258">
<rect width="138.72" height="24" fill="white"/>
</clipPath>
</defs>
</svg>
