<svg width="270" height="45" viewBox="0 0 270 45" fill="none" xmlns="http://www.w3.org/2000/svg">
<g clip-path="url(#clip0_4_987)">
<path d="M0 0H270V44.9937H0V0Z" fill="#004C8F"/>
<path d="M45.0031 0H270V44.9937H45.0031V0Z" fill="#004C8F"/>
<path d="M59.3146 33.1458V11.8573H66.3105V19.0412H72.8926V11.8573H79.8603V33.1458H72.8362V24.8805H66.2541V33.1458H59.2582" fill="white"/>
<path d="M90.9748 17.1418H92.7896C93.7656 17.0932 94.742 17.2304 95.6669 17.5461C96.1263 17.7516 96.5224 18.0763 96.8141 18.4864C97.1432 18.9999 97.3817 19.566 97.5193 20.1602C97.6836 20.8725 97.7657 21.6013 97.7638 22.3323C97.7993 23.4016 97.6169 24.4669 97.2278 25.4635C96.9356 26.2236 96.3956 26.863 95.6951 27.2783C94.7741 27.7119 93.7585 27.906 92.7426 27.8425H90.9748V17.1418ZM93.6829 33.127C95.0753 33.1588 96.4659 33.0102 97.8202 32.6851C98.7921 32.4651 99.7202 32.0837 100.566 31.5567C101.32 31.0452 101.981 30.4093 102.522 29.6761C103.18 28.7289 103.688 27.6853 104.026 26.5825C104.456 25.2044 104.663 23.7663 104.637 22.3229C104.7 20.25 104.234 18.1952 103.283 16.3519C102.452 14.8061 101.128 13.5818 99.5222 12.8728C97.7317 12.147 95.8118 11.7951 93.8803 11.8385H84.1293V33.1364H93.6829" fill="white"/>
<path d="M107.844 33.1458V11.8573H124.45V17.1042H114.755V20.5175H122.513V25.6234H114.755V33.1458H107.844Z" fill="white"/>
<path d="M147.91 19.9909H141.328C141.258 19.0493 140.851 18.1645 140.181 17.4991C139.507 16.9008 138.627 16.5873 137.727 16.6247C137.147 16.61 136.572 16.7316 136.047 16.9799C135.523 17.2281 135.065 17.596 134.708 18.0539C133.928 18.9942 133.533 20.5739 133.533 22.7554C133.484 23.9021 133.653 25.0477 134.031 26.1311C134.311 26.8348 134.796 27.4378 135.423 27.8613C136.095 28.2613 136.87 28.4543 137.652 28.4161C138.116 28.4463 138.582 28.3829 139.021 28.2294C139.461 28.0759 139.865 27.8356 140.209 27.5228C140.908 26.8276 141.318 25.8937 141.356 24.9088H148.089C147.984 26.054 147.715 27.1782 147.29 28.2468C146.838 29.2539 146.2 30.1664 145.409 30.9361C144.499 31.8562 143.402 32.5711 142.193 33.033C140.814 33.5482 139.349 33.794 137.877 33.7571C136.353 33.7774 134.836 33.5389 133.392 33.0518C132.103 32.6213 130.918 31.9263 129.913 31.0113C128.991 30.1437 128.242 29.1101 127.703 27.9648C126.941 26.2958 126.562 24.4772 126.594 22.6426C126.579 21.068 126.85 19.5039 127.393 18.0257C127.883 16.686 128.641 15.4605 129.621 14.4243C130.515 13.5 131.582 12.7617 132.762 12.2522C134.296 11.6129 135.943 11.293 137.605 11.3119C139.084 11.2999 140.555 11.5318 141.958 11.9983C143.211 12.391 144.35 13.0815 145.278 14.0106C146.153 14.8839 146.841 15.9271 147.299 17.076C147.666 18.0186 147.891 19.0105 147.967 20.0191" fill="white"/>
<path d="M170.346 16.6434C170.998 16.6146 171.651 16.662 172.293 16.7845C172.681 16.8932 173.026 17.1199 173.28 17.4333C173.531 17.7478 173.664 18.1404 173.656 18.5428C173.663 18.7983 173.611 19.052 173.503 19.2838C173.396 19.5155 173.235 19.719 173.035 19.8781C172.353 20.2924 171.554 20.4738 170.76 20.3952H168.118V16.634L170.346 16.6434ZM172.105 33.1458C173.278 33.1764 174.452 33.1009 175.612 32.9202C176.328 32.7438 177.024 32.4949 177.69 32.1773C178.269 31.9086 178.799 31.5465 179.26 31.1054C179.814 30.5832 180.239 29.9394 180.501 29.2248C180.802 28.4353 180.952 27.5964 180.943 26.7517C180.991 25.6087 180.66 24.4818 180.003 23.5453C179.357 22.6857 178.439 22.0694 177.398 21.7963C178.231 21.3695 178.933 20.7255 179.429 19.9327C179.926 19.1398 180.199 18.2275 180.219 17.2922C180.248 16.4186 180.036 15.5539 179.609 14.7916C179.181 14.0293 178.554 13.3983 177.793 12.9668C176.54 12.202 174.599 11.8228 171.973 11.8291H161.347V33.1176L172.105 33.1458ZM170.976 24.2223C171.921 24.1173 172.875 24.3009 173.712 24.7489C173.923 24.935 174.091 25.1638 174.207 25.4199C174.322 25.676 174.382 25.9537 174.382 26.2346C174.382 26.5155 174.322 26.7931 174.207 27.0493C174.091 27.3054 173.923 27.5341 173.712 27.7203C172.893 28.1821 171.947 28.3699 171.014 28.2562H168.193V24.2223H171.014" fill="white"/>
<path d="M196.327 25.9901H191.87L194.07 18.242L196.327 25.9901ZM189.745 33.1458L190.553 30.3249H197.521L198.339 33.1458H205.297L197.662 11.8573H190.553L182.909 33.1458H189.745Z" fill="white"/>
<path d="M208.278 33.1458V11.8573H214.804L222.167 23.2538V11.8573H228.871V33.1458H222.214L215.011 22.022V33.1458H208.278Z" fill="white"/>
<path d="M233.544 33.1458V11.8573H240.324V18.872L246.662 11.8573H254.88L247.085 19.8687L255.698 33.1458H247.32L242.195 24.6831L240.314 26.5167V33.1646H233.535" fill="white"/>
<path d="M0 0H44.9937V44.9937H0V0Z" fill="#ED232A"/>
<path d="M7.87976 7.87976H37.1233V37.1233H7.87976V7.87976Z" fill="white"/>
<path d="M20.2448 0H24.7489V44.9937H20.2448V0Z" fill="white"/>
<path d="M0 20.2542H44.9937V24.7489H0V20.2542Z" fill="white"/>
<path d="M15.7502 15.7502H29.253V29.253H15.7502V15.7502Z" fill="#004C8F"/>
</g>
<defs>
<clipPath id="clip0_4_987">
<rect width="270" height="44.9937" fill="white"/>
</clipPath>
</defs>
</svg>
