<svg width="180" height="49" viewBox="0 0 180 49" fill="none" xmlns="http://www.w3.org/2000/svg">
<g id="HSBC" clip-path="url(#clip0_4_1353)">
<path id="Vector" fill-rule="evenodd" clip-rule="evenodd" d="M24.37 0V24.25V48.49L0 24.25L24.37 0Z" fill="#DA000A"/>
<path id="Vector_2" fill-rule="evenodd" clip-rule="evenodd" d="M24.37 0H48.47H72.75L48.47 24.36L24.28 0.09L24.37 0Z" fill="#DA000A"/>
<path id="Vector_3" fill-rule="evenodd" clip-rule="evenodd" d="M72.68 48.49V24.25V0L97.05 24.25L72.68 48.49Z" fill="#DA000A"/>
<path id="Vector_4" fill-rule="evenodd" clip-rule="evenodd" d="M72.68 48.49H48.58H24.3L48.58 24.13L72.77 48.4L72.68 48.49Z" fill="#DA000A"/>
<path id="Vector_5" d="M104.88 34.26H109.36V25.75H118.02V34.26H122.5V13.96H118.02V22.23H109.36V13.96H104.88V34.26Z" fill="black"/>
<path id="Vector_6" d="M124.93 28C124.93 32.9 128.68 34.76 132.93 34.76C138.29 34.76 141.67 32.11 141.67 28.39C141.67 23.78 137.17 22.99 135.67 22.53C130.78 21.06 130.08 20.79 130.08 19.23C130.08 17.52 131.76 16.76 133.14 16.76C135.14 16.76 136.32 17.63 136.52 19.68H140.99C141.05 15.29 137.79 13.68 133.34 13.68C129.43 13.68 125.43 15.55 125.43 19.68C125.43 23.49 128.61 24.68 131.5 25.53C134.69 26.53 136.91 26.53 136.91 28.73C136.91 30.73 134.75 31.48 133.24 31.48C131.05 31.48 129.65 30.48 129.52 28.02L124.93 28Z" fill="black"/>
<path id="Vector_7" d="M148.34 25.39H152C153.92 25.39 155.48 26.21 155.48 28.29C155.48 30.37 153.73 31.13 151.92 31.13H148.33V25.39H148.34ZM144 34.26H152.5C156.39 34.26 160.29 32.87 160.29 28.55C160.29 26.01 158.64 24.28 155.68 23.77C158.4 22.91 159.54 21.32 159.54 19.33C159.54 15.55 156.31 13.96 152.67 13.96H144V34.26ZM148.38 17.17H151.64C153.2 17.17 154.98 17.82 154.98 19.76C154.965 20.1334 154.875 20.4998 154.714 20.8372C154.553 21.1745 154.326 21.4758 154.045 21.7226C153.765 21.9694 153.437 22.1568 153.082 22.2732C152.727 22.3896 152.352 22.4328 151.98 22.4H148.38V17.17Z" fill="black"/>
<path id="Vector_8" d="M180 20.07C179.8 15.97 176.49 13.53 171.83 13.53C165.55 13.53 161.99 17.77 161.99 24.19C161.99 31.08 165.26 34.72 171.83 34.72C176.47 34.72 179.76 32.21 179.96 28.19H175.34C175.244 29.086 174.803 29.9094 174.111 30.4861C173.418 31.0628 172.529 31.3475 171.63 31.28C167.88 31.28 166.63 27.64 166.63 24.28C166.63 20.73 168.08 17.03 171.89 17.03C172.737 17.0102 173.558 17.3187 174.183 17.8909C174.807 18.4632 175.186 19.2547 175.24 20.1L180 20.07Z" fill="black"/>
</g>
<defs>
<clipPath id="clip0_4_1353">
<rect width="180" height="48.49" fill="white"/>
</clipPath>
</defs>
</svg>
