<svg width="120" height="24" viewBox="0 0 120 24" fill="none" xmlns="http://www.w3.org/2000/svg">
<g clip-path="url(#clip0_45_4259)">
<path d="M21.8425 23.5666H25.8672L29.0223 11.808H25.039L21.8425 23.5666Z" fill="#004A7F"/>
<path d="M42.4767 23.5666H46.5014L49.6565 11.808H45.6318L42.4767 23.5666Z" fill="#004A7F"/>
<path d="M63.1484 23.5666H67.1337L70.2513 11.808H66.2266L63.1484 23.5666Z" fill="#004A7F"/>
<path d="M38.7281 15.8328H42.7528C43.3049 13.1904 41.6091 11.8495 37.6632 11.8495C33.0864 11.8495 30.0102 14.0975 28.9454 17.925C28.0363 21.4744 29.8919 23.6061 34.1907 23.6061C38.5309 23.6061 41.0944 22.2652 42.1612 19.2265H38.1365C37.5449 20.5674 36.5195 21.2378 35.0997 21.2378C33.1653 21.2378 32.3765 20.0547 32.9681 17.8067C33.5991 15.4778 35.0997 14.1764 37.0322 14.1764C38.2942 14.1764 38.8464 14.7285 38.7281 15.8328Z" fill="#004A7F"/>
<path d="M59.4018 15.8328H63.4265C63.9786 13.1904 62.2414 11.8495 58.2956 11.8495C53.7582 11.8495 50.6425 14.0975 49.6171 17.925C48.6706 21.4744 50.5242 23.6061 54.825 23.6061C59.1257 23.6061 61.6892 22.2652 62.7935 19.2265H58.7708C58.2167 20.5674 57.1518 21.2378 55.732 21.2378C53.7996 21.2378 53.0108 20.0547 53.6399 17.8067C54.2334 15.4778 55.732 14.1764 57.6645 14.1764C58.9285 14.1764 59.5201 14.7285 59.4018 15.8328Z" fill="#004A7F"/>
<path d="M6.33732 5.30072C11.7029 -0.0254468 18.2123 -1.40776 20.8172 2.22255C23.4221 5.85286 21.1327 13.1904 15.7671 18.5165C10.4015 23.8821 3.89215 25.2625 1.2478 21.5927C-1.3157 17.925 0.973696 10.6249 6.33732 5.30072Z" fill="#F06321"/>
<path d="M9.8888 2.45918C9.29723 2.893 8.70565 3.4057 8.11407 3.95981C3.41892 8.61355 1.44501 15.0046 3.77386 18.201C6.1796 21.3956 11.9396 20.2124 16.753 15.5173C19.358 12.9932 21.0932 10.0728 21.8031 7.35152C22.0003 5.34016 21.7243 3.56346 20.8172 2.22255C18.7664 -0.617019 14.3473 -0.382362 9.8888 2.45918Z" fill="#AE282E"/>
<path d="M16.6742 3.05076V3.16908C16.6349 3.83954 16.2404 4.66774 15.5305 5.37763C14.4657 6.40303 13.0459 6.79742 12.4523 6.20781C11.7819 5.5768 12.1782 4.19448 13.2431 3.0902C14.3474 2.02536 15.7671 1.67042 16.3587 2.30143C16.5559 2.49863 16.6742 2.73526 16.6742 3.05076ZM12.5726 21.1589C10.0466 23.052 7.44363 24.0005 4.9176 23.6061C5.98244 23.6455 6.85205 22.4604 7.56194 20.8829C8.27184 19.2659 8.66622 17.7672 9.02115 16.3455C9.53385 14.0975 9.57331 12.5199 9.29723 12.165C8.86341 11.6109 7.91688 11.7312 6.81063 12.3622C6.2585 12.6777 5.54861 12.4805 6.37879 11.4551C7.24644 10.4297 10.5987 7.98254 11.7819 7.58816C13.1247 7.23321 14.6234 7.74591 14.1107 9.20514C13.7538 10.27 9.10005 22.421 12.5726 21.1589Z" fill="white"/>
<path d="M76.2874 21.7111L77.1945 18.3194H79.403V16.5052H77.7072L78.4959 13.6242H79.403V11.8475H76.4037L73.2881 23.6061H79.403V21.7111H76.2874ZM79.403 18.3194H79.8368C81.8502 18.3194 82.7967 18.6743 82.4023 20.0547C82.0868 21.2773 81.1009 21.7111 79.403 21.7111V23.6061C81.0614 23.6061 82.284 23.4484 83.5066 22.6182C84.3348 22.066 84.9284 21.2378 85.165 20.2913C85.5968 18.6743 84.887 17.5681 83.0333 17.3334C84.7686 17.0179 85.8749 16.1089 86.2279 14.6891C86.5434 13.6242 86.2672 12.8355 85.518 12.3228C84.887 11.8889 83.8221 11.8475 82.4023 11.8475H79.403V13.6242H80.9431C82.8361 13.6242 83.7038 13.8609 83.4277 15.044C83.0728 16.1877 82.0474 16.5052 80.1149 16.5052H79.403V18.3194Z" fill="#004A7F"/>
<path d="M90.4498 15.3614V16.8187C90.1342 16.9784 89.8582 17.2545 89.7399 17.6489H87.3736C87.766 16.5052 88.8328 15.7144 90.4498 15.3614ZM90.4498 22.2652C90.1737 22.344 89.8582 22.3835 89.5427 22.3835C88.4778 22.3835 88.0046 21.9477 88.2412 21.1589C88.4778 20.2518 89.1877 19.9363 90.4498 19.818V18.4376C87.7265 18.6348 86.2279 19.3447 85.7546 21.1195C85.3208 22.7364 86.3482 23.8032 88.4778 23.8032C89.1877 23.8032 89.8582 23.6849 90.4498 23.4483V22.2652ZM92.7392 19.818L92.6997 19.9363C92.3842 21.1589 91.554 21.9891 90.4498 22.2652V23.4483C91.0413 23.2097 91.554 22.8962 92.0272 22.4623L91.8301 23.6061H94.1983C94.3167 23.0519 94.435 22.4209 94.5927 21.7899L95.4998 18.4771C95.5787 18.201 95.6181 17.9249 95.6181 17.6489V17.2545C95.5393 15.9116 94.3955 15.2017 92.2659 15.2017C91.5934 15.2017 91.0019 15.2806 90.4498 15.3614V16.8187C90.8047 16.6235 91.2385 16.5446 91.7926 16.5446C93.0132 16.5446 93.4885 17.0948 93.1316 18.2799L93.0941 18.3982H91.83C91.3588 18.3982 90.8836 18.4376 90.4498 18.4376V19.818L92.7392 19.818Z" fill="#004A7F"/>
<path d="M96.328 23.6061H98.7357L99.8794 19.3842C100.274 17.8856 101.654 16.8188 103.113 16.8188C104.533 16.8188 105.048 17.6489 104.575 19.3054L103.429 23.6061H105.837L107.178 18.5955C107.73 16.4658 106.665 15.2018 104.299 15.2018C102.758 15.2018 101.536 15.7539 100.471 16.8582L100.747 15.399H98.3413C98.1047 16.7004 97.947 17.4912 97.8661 17.8067L96.328 23.6061Z" fill="#004A7F"/>
<path d="M107.966 23.6061H110.335L111.518 19.187L114.714 23.6061H117.988L114.357 18.9109L119.25 15.3989H116.213L111.675 18.6743L113.49 11.8495H111.123L107.966 23.6061Z" fill="#004A7F"/>
</g>
<defs>
<clipPath id="clip0_45_4259">
<rect width="119.446" height="24" fill="white"/>
</clipPath>
</defs>
</svg>
