<svg width="185" height="37" viewBox="0 0 185 37" fill="none" xmlns="http://www.w3.org/2000/svg">
<g id="ICICI" clip-path="url(#clip0_4_1339)">
<path id="Vector" fill-rule="evenodd" clip-rule="evenodd" d="M33.6408 36.6578H39.8818L44.7762 18.2253H38.5351L33.6408 36.6578Z" fill="#005B76"/>
<path id="Vector_2" fill-rule="evenodd" clip-rule="evenodd" d="M65.7034 36.6578H71.9444L76.8388 18.2253H70.5978L65.7034 36.6578Z" fill="#005B76"/>
<path id="Vector_3" fill-rule="evenodd" clip-rule="evenodd" d="M97.7661 36.6578H104.007L108.901 18.2253H102.66L97.7661 36.6578Z" fill="#005B76"/>
<path id="Vector_4" fill-rule="evenodd" clip-rule="evenodd" d="M59.8831 24.5394H66.1306C66.9588 20.3969 64.3046 18.2615 58.181 18.2615C51.0987 18.2615 46.2859 21.7624 44.6718 27.8397C43.2078 33.3477 46.1033 36.7039 52.7682 36.7039C59.5048 36.7039 63.4862 34.5882 65.1883 29.8501H58.9244C58.0538 31.9361 56.4104 33.0253 54.1964 33.0253C51.1737 33.0253 49.9901 31.0905 50.9194 27.5929C51.8976 23.9439 54.1801 21.9335 57.2158 21.9335C59.1331 21.9335 60.0363 22.8021 59.8928 24.5394" fill="#005B76"/>
<g id="Group">
<path id="Vector_5" fill-rule="evenodd" clip-rule="evenodd" d="M91.9555 24.5394H98.203C99.0312 20.3969 96.377 18.2615 90.2534 18.2615C83.1711 18.2615 78.3583 21.7624 76.7442 27.8397C75.2802 33.3477 78.1757 36.7039 84.8406 36.7039C91.5772 36.7039 95.5585 34.5882 97.2574 29.8501H90.987C90.1164 31.9361 88.473 33.0253 86.259 33.0253C83.2363 33.0253 82.0527 31.0905 82.982 27.5929C83.9602 23.9439 86.2427 21.9335 89.2784 21.9335C91.1957 21.9335 92.0989 22.8021 91.9555 24.5394Z" fill="#005B76"/>
<path id="Vector_6" fill-rule="evenodd" clip-rule="evenodd" d="M9.5278 8.00213C17.8883 -0.358652 27.9965 -2.52699 32.0267 3.19493C36.057 8.91685 32.5289 20.387 24.1684 28.7511C15.8079 37.1152 5.69646 39.2802 1.66948 33.5583C-2.35751 27.8364 1.16733 16.3761 9.5278 8.00213Z" fill="#F99D27"/>
<path id="Vector_7" fill-rule="evenodd" clip-rule="evenodd" d="M15.0612 3.54371C14.0876 4.2753 13.1648 5.07345 12.2994 5.93251C4.97258 13.2141 1.93033 23.2233 5.53668 28.2214C9.25716 33.226 18.273 31.4064 25.714 24.013C29.7149 20.0876 32.4213 15.4811 33.5397 11.2168C33.8658 8.08769 33.4256 5.29418 32.017 3.19494C28.8052 -1.24046 21.9283 -0.89826 15.0612 3.52397" fill="#B02A30"/>
<path id="Vector_8" fill-rule="evenodd" clip-rule="evenodd" d="M19.2056 32.8772C15.2927 35.8385 11.2462 37.3126 7.30072 36.6973C8.95716 36.7828 10.2941 34.9304 11.3897 32.4396C12.3727 30.1381 13.1476 27.7517 13.7048 25.3094C14.4841 21.8052 14.5428 19.2979 14.1482 18.7616C13.4961 17.8699 11.9538 18.1035 10.2354 19.0906C9.41366 19.5513 8.31806 19.2453 9.61257 17.6626C10.9071 16.08 16.134 12.2204 18.0056 11.6215C20.0599 11.0227 22.4076 11.8387 21.6153 14.1123C21.0512 15.7575 13.845 34.8415 19.2089 32.8673L19.2056 32.8772ZM25.101 3.2739C26.0792 4.261 25.4825 6.40632 23.8228 8.10085C22.1631 9.79538 19.9686 10.3745 19.0263 9.41699C18.0187 8.42988 18.6154 6.26483 20.2882 4.55713C21.9609 2.84944 24.1554 2.32957 25.0977 3.28377L25.101 3.2739Z" fill="white"/>
</g>
<path id="Vector_9" fill-rule="evenodd" clip-rule="evenodd" d="M118.276 33.7458L119.704 28.3694H123.793C126.94 28.3694 128.335 28.9321 127.758 31.1103C127.227 33.1042 125.688 33.7426 122.844 33.7426H118.279L118.276 33.7458ZM121.644 21.0714H125.525C128.443 21.0714 129.796 21.4268 129.304 23.2727C128.811 25.1185 127.246 25.5759 124.23 25.5759H120.448L121.644 21.0714ZM113.564 36.6874H122.926C125.59 36.6874 127.572 36.4801 129.473 35.1508C130.747 34.2826 131.672 32.984 132.082 31.4887C132.757 28.9551 131.606 27.2639 128.746 26.8559C131.446 26.3426 133.145 24.9113 133.725 22.733C134.172 21.0451 133.807 19.8408 132.604 19.0215C131.625 18.3635 129.995 18.2516 127.784 18.2516H118.455L113.564 36.6874Z" fill="#005B76"/>
<path id="Vector_10" fill-rule="evenodd" clip-rule="evenodd" d="M143.817 30.7483L143.758 30.9819C143.505 32.0859 142.883 33.0681 141.996 33.7638C141.11 34.4594 140.013 34.826 138.89 34.802C137.188 34.802 136.477 34.144 136.803 32.9068C137.253 31.2188 138.721 30.7549 141.434 30.7549H143.817V30.7483ZM142.379 36.6907H146.136C146.264 35.7218 146.459 34.7631 146.719 33.8215L148.085 28.6754C148.992 25.2699 147.322 23.5293 143.083 23.5293C139.001 23.5293 136.337 24.9639 135.519 27.3724H139.118C139.591 26.1682 140.628 25.6055 142.353 25.6055C144.28 25.6055 144.962 26.4742 144.469 28.3431L144.407 28.5734H142.428C136.846 28.5734 133.833 29.5967 132.972 32.8509C132.304 35.3581 133.872 37 137.195 37C139.235 37.0352 141.214 36.294 142.738 34.9238L142.379 36.6907Z" fill="#005B76"/>
<path id="Vector_11" fill-rule="evenodd" clip-rule="evenodd" d="M149.357 36.6907H153.14L154.887 30.11C155.185 28.975 155.838 27.9675 156.749 27.2381C157.661 26.5086 158.782 26.0964 159.945 26.0629C162.152 26.0629 162.922 27.379 162.227 29.9817L160.447 36.6907H164.151L166.244 28.7939C167.128 25.4673 165.455 23.5458 161.777 23.5458C160.66 23.5153 159.55 23.7283 158.522 24.17C157.494 24.6118 156.572 25.272 155.82 26.1057L156.273 23.8287H152.54C152.155 25.8512 151.898 27.1059 151.77 27.5929L149.357 36.6808" fill="#005B76"/>
<path id="Vector_12" fill-rule="evenodd" clip-rule="evenodd" d="M167.48 36.6874H171.162L173.004 29.7514L177.96 36.6874H183.008L177.425 29.3401L185 23.8386H180.256L173.199 29.011L176.056 18.2549H172.375L167.48 36.6874Z" fill="#005B76"/>
</g>
<defs>
<clipPath id="clip0_4_1339">
<rect width="185" height="37" fill="white"/>
</clipPath>
</defs>
</svg>
