<svg width="115" height="24" viewBox="0 0 115 24" fill="none" xmlns="http://www.w3.org/2000/svg">
<g clip-path="url(#clip0_45_4274)">
<path d="M0.312622 23.9095H114.92V0.0904217H0.312622V23.9095Z" fill="#00836C"/>
<path d="M29.1555 11.9987C29.1555 18.6273 23.7848 24 17.1548 24C10.5288 24 5.15613 18.6273 5.15613 11.9987C5.15613 5.37527 10.5288 0 17.1548 0C23.7848 0 29.1555 5.37527 29.1555 11.9987Z" fill="white"/>
<path d="M33.309 16.1426C33.2986 15.6178 33.3203 15.0951 33.3439 14.5739C33.34 12.5903 33.3517 10.6049 33.3381 8.62236C33.2778 8.10722 33.3329 7.57877 33.2864 7.06469C33.2661 6.6867 33.271 6.30088 33.2547 5.92052C33.2146 5.78654 33.2318 5.63895 33.2037 5.49539C33.1363 5.29397 33.2648 5.2746 33.435 5.32098C34.0093 5.3184 34.5745 5.35096 35.1503 5.34101C35.5272 5.30755 35.9185 5.33648 36.2958 5.30612C36.3076 5.57618 36.2572 5.82834 36.255 6.0943C36.2203 6.50026 36.1994 6.92874 36.204 7.35026C36.1837 7.68891 36.1848 8.03572 36.1807 8.37816C36.1734 9.36966 36.1509 10.3595 36.1544 11.3519C36.1431 12.3523 36.1628 13.3531 36.1633 14.3536C36.1901 14.959 36.1712 15.5686 36.1917 16.1742C36.2001 16.6676 36.2139 17.1609 36.2428 17.6518C36.2633 17.9384 36.3007 18.2189 36.2958 18.5123C36.0746 18.496 35.8418 18.4998 35.6309 18.4748C35.1088 18.4684 34.5827 18.4476 34.0604 18.4748C33.8148 18.4637 33.5908 18.5088 33.3439 18.4987C33.1436 18.5864 33.2037 18.406 33.2037 18.27C33.2352 18.12 33.2303 17.9569 33.2547 17.8049C33.2793 17.3743 33.262 16.9358 33.3025 16.5076C33.3021 16.3857 33.3006 16.264 33.309 16.1426Z" fill="white"/>
<path d="M41.4895 17.2053C42.1072 17.2705 42.7269 17.3065 43.3615 17.2913C44.1168 17.2984 44.8711 17.1388 45.5267 16.7686C46.0214 16.49 46.4559 16.0746 46.7601 15.5876C46.9516 15.3256 47.0867 15.0335 47.2123 14.7335C47.4413 14.1223 47.5959 13.4606 47.6458 12.7985C47.7168 12.1522 47.7177 11.4863 47.6794 10.8338C47.6415 10.2237 47.5168 9.61945 47.2956 9.05004C47.1132 8.62981 46.8888 8.2265 46.5662 7.89293C46.2941 7.57824 45.9504 7.32274 45.5771 7.12801C45.3316 7.0236 45.0751 6.89148 44.8038 6.83665C43.9317 6.58843 43.0104 6.62395 42.1128 6.67123C41.9039 6.67866 41.6968 6.69914 41.4895 6.70806C41.4481 9.39932 41.4639 12.0943 41.461 14.7878C41.4892 15.5928 41.463 16.4006 41.4895 17.2053ZM38.6132 16.275C38.642 15.0139 38.6472 13.7488 38.6429 12.4845C38.6841 11.7212 38.6216 10.9557 38.6429 10.1892C38.6528 9.0127 38.6039 7.84184 38.5951 6.67123C38.5475 6.34969 38.584 6.01015 38.5447 5.68924C38.5521 5.58564 38.3939 5.23294 38.6132 5.32484C38.9997 5.38473 39.4044 5.43722 39.8097 5.43982C40.261 5.4773 40.7142 5.48785 41.1781 5.48249C41.5571 5.43016 41.9674 5.44255 42.3539 5.4056C42.9397 5.38376 43.5081 5.32543 44.0925 5.32097C44.7316 5.27995 45.3913 5.31516 46.0248 5.42693C46.4823 5.49347 46.9355 5.63489 47.3699 5.78458C47.8226 5.96217 48.2496 6.198 48.642 6.49484C49.1509 6.88513 49.5999 7.36673 49.9249 7.91103C50.2535 8.4583 50.4809 9.06617 50.6103 9.69358C50.7225 10.1032 50.7644 10.5254 50.7947 10.9488C50.8392 11.4365 50.8325 11.936 50.7999 12.4235C50.7562 12.8036 50.7418 13.1944 50.6506 13.5692C50.5856 13.902 50.5033 14.2346 50.3858 14.55C50.1814 15.2039 49.8398 15.8079 49.4148 16.3448C49.1445 16.6449 48.8754 16.9524 48.5419 17.1885C48.0076 17.6391 47.3699 17.9444 46.7149 18.1802C46.2985 18.3003 45.8835 18.432 45.45 18.4853C44.4936 18.6626 43.5097 18.6416 42.5483 18.584C42.1137 18.5769 41.6912 18.5236 41.2518 18.5239C40.655 18.4657 40.0285 18.4196 39.4368 18.4987C39.1187 18.5279 38.8057 18.5631 38.495 18.6273C38.5114 18.373 38.5673 18.1267 38.5654 17.8668C38.5838 17.3356 38.5996 16.8108 38.6132 16.275Z" fill="white"/>
<path d="M55.3514 17.1841C55.7676 17.2122 56.1777 17.2817 56.6093 17.2305C56.8938 17.1729 57.1879 17.1147 57.4414 16.9702C57.5637 16.9066 57.673 16.8251 57.7729 16.7396C57.8959 16.6536 58.0201 16.509 58.1179 16.37C58.225 16.2544 58.2837 16.0787 58.3731 15.9384C58.464 15.7106 58.531 15.4565 58.5746 15.209C58.5772 14.9538 58.6206 14.7143 58.614 14.4596C58.5503 14.2925 58.6147 14.0649 58.532 13.8969C58.4736 13.6451 58.3937 13.3934 58.2316 13.1836C58.1571 13.0599 58.0784 12.9462 57.9628 12.8632C57.8755 12.7333 57.7054 12.6589 57.5875 12.5563C57.4417 12.5149 57.3273 12.4032 57.1708 12.389C56.9742 12.3248 56.7685 12.2488 56.5538 12.2649C56.2641 12.1754 55.9284 12.2329 55.6199 12.2158C55.3479 12.1401 55.3146 12.303 55.3514 12.5361C55.3514 14.0854 55.3514 15.6348 55.3514 17.1841ZM55.3514 10.9967C55.7945 10.998 56.2501 11.0183 56.6649 10.892C56.874 10.824 57.1128 10.7547 57.3051 10.611C57.5142 10.4901 57.6732 10.3299 57.8259 10.149C57.9742 9.949 58.0994 9.70933 58.1702 9.45841C58.2289 9.30825 58.2532 9.13898 58.2697 8.97568C58.2999 8.70173 58.3321 8.42194 58.2697 8.15749C58.257 7.96375 58.2147 7.78243 58.1185 7.61908C58.0185 7.37382 57.8499 7.19515 57.6508 7.02597C57.4823 6.87671 57.2785 6.80904 57.0712 6.7081C56.5571 6.56252 55.9894 6.51639 55.4574 6.60345C55.2504 6.59524 55.3936 6.89998 55.3514 7.03863C55.3514 8.35798 55.3514 9.67732 55.3514 10.9967ZM52.5456 16.1426C52.5547 15.3098 52.5584 14.4756 52.5696 13.6434C52.5905 12.5001 52.5728 11.3523 52.5785 10.2072C52.544 9.66443 52.5708 9.11273 52.554 8.56684C52.5488 7.89484 52.5403 7.22737 52.5107 6.56015C52.4878 6.2646 52.4914 5.97972 52.4525 5.70107C52.4728 5.57703 52.3833 5.3686 52.4687 5.30616C53.0386 5.32011 53.6107 5.32697 54.1801 5.34105C54.836 5.30138 55.5052 5.34133 56.1646 5.31495C56.8243 5.31624 57.4973 5.26669 58.1466 5.37355C58.4007 5.41858 58.6637 5.44307 58.9022 5.5407C59.2013 5.60453 59.4693 5.73817 59.7434 5.8689C59.8944 5.9796 60.0882 6.06217 60.235 6.1971C60.467 6.37066 60.6888 6.59978 60.854 6.86319C61.0075 7.09847 61.1199 7.35948 61.1757 7.63785C61.2322 7.95445 61.2622 8.28996 61.197 8.6112C61.1686 8.91731 61.0871 9.22495 60.9367 9.49012C60.8085 9.81134 60.5793 10.087 60.3365 10.3436C60.1154 10.5603 59.8532 10.7316 59.6064 10.8921C59.3645 11.0333 59.0885 11.141 58.8163 11.2377C58.6735 11.2725 58.5226 11.3091 58.3841 11.3527C58.549 11.3751 58.7067 11.4326 58.8686 11.4755C59.0785 11.5232 59.2602 11.6398 59.4688 11.7009C59.7717 11.868 60.0691 12.0223 60.3228 12.2458C60.6294 12.4845 60.8802 12.7906 61.0846 13.1242C61.2776 13.5008 61.4305 13.9195 61.4658 14.3537C61.5384 14.9399 61.4709 15.5591 61.2674 16.1041C61.1548 16.4325 60.9829 16.7326 60.7667 17.0045C60.6027 17.2013 60.4303 17.4029 60.2202 17.5463C59.9679 17.7756 59.6643 17.9365 59.3622 18.0925C58.9914 18.2467 58.6159 18.3591 58.2215 18.4316C57.7334 18.4916 57.2492 18.5308 56.7535 18.5124C56.0861 18.4896 55.4119 18.5052 54.7466 18.4749C54.2964 18.4745 53.8594 18.4593 53.4139 18.4749C53.1219 18.5141 52.8052 18.4921 52.5068 18.5124C52.3507 18.5143 52.4785 18.2483 52.4526 18.1295C52.4782 17.854 52.4986 17.5814 52.503 17.2913C52.5376 16.9095 52.527 16.5246 52.5456 16.1426Z" fill="white"/>
<path d="M64.353 16.1426C64.3961 14.4135 64.3799 12.6822 64.3834 10.9511C64.3867 9.65486 64.3815 8.35705 64.3408 7.06471C64.3086 6.82387 64.3356 6.55576 64.3078 6.31143C64.3154 6.0857 64.2715 5.88133 64.2717 5.66277C64.2483 5.55164 64.2429 5.40811 64.249 5.30614C64.595 5.32423 64.9447 5.32842 65.2963 5.32487C65.601 5.36253 65.9403 5.33005 66.2583 5.34103C66.5796 5.30246 66.917 5.3423 67.239 5.3087C67.4339 5.26386 67.2872 5.5048 67.3301 5.61817C67.2862 5.88951 67.2936 6.1677 67.2817 6.45548C67.2448 6.76808 67.2797 7.09812 67.2507 7.41424C67.2063 7.70736 67.2526 8.02681 67.2261 8.32904C67.2178 9.02967 67.2019 9.72994 67.1951 10.4307C67.1977 12.0437 67.182 13.6574 67.2261 15.2671C67.2374 15.6414 67.2222 16.021 67.2435 16.3925C67.2868 16.7558 67.2428 17.1423 67.2888 17.5064C67.273 17.8271 67.3357 18.1181 67.3346 18.4316C67.375 18.5967 67.0996 18.4604 66.9957 18.4949C66.7656 18.4812 66.5371 18.4672 66.3003 18.4749C65.9764 18.4443 65.6398 18.471 65.3112 18.4619C65.1235 18.4964 64.8917 18.453 64.7097 18.4936C64.5511 18.4825 64.3699 18.5249 64.24 18.4988C64.2557 18.269 64.2671 18.0478 64.2949 17.8314C64.3089 17.4756 64.3331 17.1286 64.3259 16.7686C64.356 16.5722 64.3519 16.3492 64.353 16.1426Z" fill="white"/>
<path d="M75.7121 17.5826C76.0178 17.5878 76.3207 17.5567 76.6173 17.5193C76.7525 17.4566 76.9255 17.4826 77.0618 17.4017C77.197 17.3608 77.3149 17.2859 77.4307 17.1989C77.6205 17.0937 77.7423 16.9088 77.8502 16.7391C77.9053 16.6213 77.952 16.5065 77.9878 16.3855C78.0965 16.0579 78.0721 15.6927 78.0729 15.3427C78.0562 15.2025 78.0374 15.0558 77.9895 14.9317C77.9715 14.7799 77.879 14.6605 77.8299 14.5196C77.7277 14.3856 77.6375 14.2191 77.4856 14.1275C77.3998 14.029 77.2379 13.9642 77.1186 13.8917C76.9104 13.8003 76.6991 13.752 76.4784 13.705C76.3008 13.6596 76.1 13.6678 75.9086 13.6429C75.7787 13.6359 75.5772 13.5763 75.6437 13.7806C75.645 14.8273 75.6364 15.8773 75.6695 16.9188C75.6796 17.0871 75.6682 17.2732 75.6941 17.4182C75.6986 17.4732 75.6802 17.5467 75.7121 17.5826ZM77.9895 10.892C78.0043 10.6516 77.9768 10.4001 77.8971 10.1904C77.8499 10.0475 77.7694 9.91142 77.6781 9.7956C77.592 9.70171 77.4909 9.6163 77.3913 9.55593C77.2754 9.49462 77.1832 9.42944 77.0521 9.40088C76.9133 9.34945 76.7573 9.32299 76.6075 9.28976C76.3294 9.23504 76.0362 9.23812 75.747 9.24193C75.7 9.40808 75.7169 9.60462 75.7121 9.79174C75.669 9.92061 75.685 10.0837 75.6695 10.2318C75.641 11.0786 75.6428 11.9323 75.6437 12.7836C75.918 12.7908 76.1875 12.7657 76.4558 12.7494C76.6235 12.7035 76.8097 12.7159 76.9687 12.6473C77.1256 12.6091 77.2429 12.5286 77.3648 12.4141C77.4378 12.3443 77.5059 12.2674 77.576 12.1692C77.732 11.9645 77.7897 11.7193 77.8786 11.4851C77.9079 11.2866 77.9899 11.0946 77.9895 10.892ZM77.1535 13.1358C77.5326 13.1622 77.9183 13.1662 78.2921 13.2301C78.4789 13.243 78.6376 13.3118 78.8184 13.3451C78.9367 13.3844 79.0566 13.4206 79.1687 13.4736C79.3089 13.5264 79.436 13.6073 79.5743 13.6746C79.6687 13.7776 79.797 13.8511 79.8858 13.9517C79.9876 14.0564 80.0605 14.1753 80.1416 14.2993C80.1818 14.3936 80.2353 14.5012 80.2681 14.6016C80.3143 14.756 80.3573 14.9179 80.3825 15.0804C80.4334 15.4294 80.4257 15.7991 80.3929 16.1529C80.3471 16.359 80.3138 16.5716 80.2303 16.7637C80.1604 16.9096 80.1176 17.0786 79.9962 17.1885C79.88 17.4174 79.6693 17.5809 79.4871 17.7538C79.3042 17.8808 79.1104 17.9952 78.9133 18.0846C78.7752 18.1287 78.6543 18.2182 78.5077 18.2287C78.3848 18.2947 78.2382 18.3011 78.1051 18.346C77.8967 18.3669 77.6918 18.4398 77.4756 18.4362C76.6655 18.4709 75.8511 18.4421 75.0393 18.4516C74.4782 18.4484 73.905 18.4574 73.3514 18.4471C73.37 18.2593 73.391 18.0812 73.3954 17.8863C73.435 17.6208 73.4034 17.3319 73.4457 17.0688C73.469 16.1776 73.4569 15.2808 73.458 14.3859C73.4297 14.0425 73.46 13.6887 73.4193 13.3451C73.4244 12.7194 73.401 12.0985 73.387 11.475C73.3934 11.0394 73.3695 10.6094 73.3611 10.1776C73.3631 9.56648 73.3496 8.95682 73.3514 8.34586C73.8566 8.35258 74.3609 8.38424 74.866 8.38391C75.2392 8.3865 75.6097 8.40648 75.9825 8.41242C76.621 8.42948 77.2688 8.38804 77.8971 8.49574C78.0808 8.54413 78.2856 8.55302 78.4591 8.63601C78.6914 8.6915 78.9218 8.79586 79.1234 8.91763C79.235 8.95388 79.3354 9.05418 79.4377 9.11551C79.593 9.22406 79.6903 9.3744 79.8302 9.50167C79.8731 9.62109 79.9666 9.7156 80.0046 9.83957C80.0698 9.94557 80.0964 10.0708 80.1307 10.1805C80.1829 10.3997 80.1931 10.6489 80.1861 10.8881C80.1532 11.0185 80.1682 11.1516 80.1125 11.2727C80.0883 11.4151 80.0166 11.5554 79.9429 11.6878C79.8753 11.8468 79.7662 11.9695 79.6577 12.0995C79.6014 12.1874 79.5014 12.2453 79.4348 12.3256C79.3085 12.3924 79.19 12.5101 79.0575 12.5623C78.9542 12.6315 78.8309 12.7057 78.6996 12.7346C78.5968 12.8024 78.4756 12.8357 78.3522 12.867C78.1882 12.9121 78.0176 12.9776 77.8416 12.9917C77.6182 13.0513 77.3848 13.0692 77.1535 13.0893V13.1139V13.1358Z" fill="white"/>
<path d="M86.4569 14.5455C86.4074 14.3623 86.3609 14.1618 86.2534 13.9963C86.2381 13.8696 86.1571 13.7812 86.1377 13.6571C86.0974 13.5411 86.0649 13.4327 86.0163 13.3225C85.9507 13.1132 85.8742 12.9245 85.8166 12.7229C85.7421 12.5524 85.6956 12.3722 85.5976 12.2196C85.5868 12.0867 85.4737 12.0086 85.4762 11.8688C85.3881 11.7051 85.3267 11.5257 85.263 11.3578C85.2 11.2924 85.1916 11.0474 85.1253 11.2359C85.0899 11.3404 85.0335 11.4109 84.9858 11.5089C84.8921 11.7228 84.7984 11.9369 84.7131 12.1627C84.6442 12.2629 84.6438 12.4011 84.5762 12.4922C84.5525 12.6327 84.4755 12.7396 84.4502 12.8857C84.3659 13.034 84.3128 13.2098 84.2544 13.3592C84.1792 13.5511 84.0985 13.7477 84.0471 13.9498C83.9903 14.0526 83.9636 14.1775 83.9249 14.2903C83.9198 14.3668 83.7804 14.5653 83.9718 14.5196C84.232 14.534 84.5008 14.5563 84.7802 14.5455H86.4569ZM90.3617 18.4024C89.9216 18.3926 89.4946 18.4266 89.0566 18.4218C88.6516 18.437 88.2394 18.4491 87.8285 18.4515C87.7792 18.2977 87.7429 18.151 87.6973 18.0064C87.6597 17.8752 87.6289 17.7797 87.5946 17.6569C87.4705 17.3745 87.378 17.0661 87.2981 16.7674C87.2435 16.5495 87.1576 16.3431 87.1016 16.1251C87.0593 15.987 87.0127 15.86 86.9666 15.7252C86.9301 15.6472 86.9001 15.5313 86.8382 15.499C85.6972 15.499 84.5562 15.499 83.4152 15.499C83.3488 15.6456 83.2932 15.8184 83.2542 15.9746C83.1162 16.3137 82.9845 16.6663 82.8777 17.0186C82.7493 17.3434 82.6705 17.6959 82.5305 18.0138C82.4884 18.1607 82.4361 18.3062 82.3796 18.4515C82.0687 18.44 81.7639 18.4175 81.4486 18.4218C81.3677 18.3636 81.0968 18.4545 81.101 18.3721C81.1235 18.2908 81.1768 18.1848 81.2141 18.0923C81.3269 17.8345 81.4359 17.5456 81.5464 17.285C81.6489 16.9979 81.7856 16.7101 81.8918 16.41C82.0358 16.1378 82.1152 15.8403 82.2452 15.5597C82.3713 15.2351 82.5152 14.9221 82.6475 14.6047C82.7151 14.3541 82.8416 14.1146 82.9267 13.8734C83.0298 13.6786 83.0653 13.4612 83.1839 13.2746C83.2969 12.9912 83.3895 12.6759 83.5238 12.3884C83.64 12.1047 83.7418 11.8158 83.8792 11.5464C83.9592 11.3036 84.0456 11.0687 84.1414 10.8325C84.3004 10.408 84.5007 9.99997 84.643 9.56882C84.7103 9.3419 84.8243 9.12621 84.8831 8.88849C84.9909 8.67211 85.0769 8.44123 85.1731 8.22078C85.2242 8.15482 85.3384 8.25123 85.4308 8.23856C85.6909 8.26234 85.9676 8.23983 86.2237 8.2043C86.5279 8.35053 86.5322 9.00668 86.7337 9.33132C86.9121 9.75906 87.107 10.182 87.2468 10.6265C87.3662 10.9083 87.4469 11.2055 87.6015 11.4674C87.7547 11.9024 87.9242 12.3274 88.0903 12.7564C88.1396 12.9145 88.2584 13.0401 88.2819 13.2073C88.3725 13.436 88.4492 13.6706 88.5409 13.9011C88.6419 14.1639 88.7275 14.4275 88.8551 14.6526C88.9706 14.9398 89.083 15.2428 89.1956 15.5416C89.2679 15.7291 89.333 15.9354 89.4328 16.1149C89.6033 16.3851 89.6438 16.7052 89.7925 16.9895C89.854 17.1973 89.9345 17.3938 90.0102 17.5697C90.0553 17.677 90.0854 17.7757 90.153 17.8488C90.2152 18.0001 90.2708 18.1722 90.3294 18.3191C90.3281 18.3468 90.38 18.3654 90.3617 18.4024Z" fill="white"/>
<path d="M100.203 8.3459C100.178 8.59779 100.154 8.84589 100.137 9.09749C100.121 9.42785 100.091 9.75469 100.077 10.0848C100.043 10.7115 100.03 11.3373 100.034 11.9684C99.9862 12.4811 100.023 13.0125 100.011 13.5331C100.064 14.1433 100.012 14.7651 100.056 15.3758C100.06 15.9304 100.107 16.4797 100.122 17.0309C100.124 17.3857 100.142 17.7395 100.164 18.0892C100.151 18.2022 100.188 18.38 100.164 18.4516C99.915 18.4392 99.7092 18.3876 99.4468 18.4025C99.2344 18.382 99.0738 18.4375 98.8832 18.4516C98.7821 18.387 98.7351 18.2526 98.6293 18.1803C98.5352 18.0806 98.4688 17.9684 98.3677 17.8863C98.3102 17.7708 98.1917 17.7153 98.1332 17.6053C97.8911 17.3386 97.6416 17.0635 97.4054 16.7818C97.2693 16.6323 97.1328 16.4956 97.0105 16.3407C96.865 16.2179 96.7837 16.0439 96.6344 15.9195C96.4086 15.6856 96.1997 15.444 95.9868 15.1995C95.8752 15.1203 95.8149 14.9889 95.7085 14.9099C95.6086 14.7828 95.4767 14.6765 95.39 14.5313C95.1282 14.3126 94.9309 14.0466 94.6944 13.7906C94.4996 13.6229 94.3376 13.4226 94.1805 13.2301C94.0707 13.0954 93.9134 13.0033 93.8216 12.8539C93.6654 12.7292 93.564 12.5479 93.4152 12.4114C93.1674 12.2067 92.9702 11.943 92.7591 11.704C92.6319 11.6308 92.5551 11.5024 92.4517 11.4044C92.4536 12.9866 92.4442 14.571 92.4661 16.1512C92.482 16.8264 92.5121 17.5018 92.5053 18.1803C92.5277 18.2825 92.5833 18.5263 92.4136 18.4471C92.1971 18.4029 91.9796 18.3967 91.7316 18.4051C91.5664 18.4277 91.4116 18.4406 91.2358 18.4516V8.3459C91.5028 8.32936 91.7044 8.37975 91.9445 8.38983C92.1095 8.43292 92.3302 8.43238 92.5053 8.40272C92.6398 8.38741 92.7569 8.37691 92.8904 8.3459C93.0636 8.57906 93.2723 8.78035 93.4705 8.98936C93.8209 9.42141 94.212 9.81783 94.5731 10.2401C94.8773 10.5225 95.1062 10.8724 95.4087 11.1574C95.6648 11.4618 95.9556 11.7364 96.2098 12.0405C96.4806 12.3712 96.7969 12.6617 97.0628 12.9955C97.3816 13.2965 97.6346 13.658 97.9509 13.9634C98.2633 14.3301 98.5926 14.6792 98.911 15.0411C99.0588 15.2987 98.9892 14.924 99.0015 14.8061C98.9869 13.9808 98.9989 13.1544 98.9691 12.3301C98.9416 11.3136 98.9756 10.2935 98.9332 9.27762C98.9144 8.97916 98.9306 8.67822 98.9252 8.37883C99.133 8.42379 99.3633 8.44856 99.6256 8.43892C99.8397 8.42846 100.014 8.41464 100.203 8.3459Z" fill="white"/>
<path d="M110.63 18.4515C109.692 18.4515 108.753 18.4515 107.815 18.4515C107.631 18.1858 107.463 17.9185 107.291 17.6465C107.109 17.374 106.933 17.0963 106.752 16.8247C106.634 16.6486 106.527 16.4534 106.392 16.2866C106.293 16.0893 106.132 15.924 106.043 15.7251C105.897 15.5389 105.774 15.3367 105.633 15.1379C105.546 15.0205 105.456 14.8842 105.372 14.7543C105.266 14.6153 105.181 14.4527 105.06 14.3154C104.991 14.1888 104.879 14.0741 104.805 13.9498C104.806 15.0904 104.798 16.2329 104.813 17.372C104.875 17.5599 104.8 17.7929 104.859 17.9851C104.871 18.1381 104.883 18.3002 104.912 18.4515C104.675 18.4496 104.459 18.4168 104.224 18.4218C103.999 18.3836 103.754 18.4125 103.519 18.4024C103.321 18.4037 103.123 18.3992 102.925 18.405C102.79 18.4413 102.621 18.4425 102.46 18.4515C102.46 17.6065 102.455 16.7606 102.473 15.9185C102.486 15.1891 102.486 14.4585 102.497 13.7298C102.545 13.2778 102.505 12.8163 102.535 12.3623C102.542 11.2663 102.556 10.1671 102.517 9.07391C102.462 8.90696 102.502 8.70441 102.473 8.52702C102.429 8.37216 102.481 8.31444 102.628 8.36838C102.927 8.41554 103.242 8.43886 103.552 8.4569C103.84 8.49515 104.139 8.43939 104.434 8.4388C104.599 8.41438 104.774 8.41325 104.936 8.37875C104.906 8.62763 104.875 8.87692 104.881 9.14303C104.84 9.27026 104.867 9.4197 104.839 9.55309C104.828 9.89331 104.853 10.2452 104.821 10.5782C104.796 11.3737 104.807 12.1802 104.804 12.9807C104.901 12.8396 105.02 12.7403 105.135 12.6089C105.289 12.4226 105.438 12.2327 105.603 12.0571C105.793 11.8198 106.018 11.5914 106.193 11.3338C106.36 11.1889 106.464 11.0045 106.616 10.848C106.736 10.6865 106.879 10.5295 107.006 10.3723C107.138 10.1904 107.296 10.0267 107.42 9.83949C107.545 9.7037 107.645 9.55752 107.758 9.41204C107.848 9.2846 107.966 9.16945 108.046 9.02931C108.133 8.94825 108.207 8.83062 108.274 8.73139C108.39 8.63088 108.445 8.44923 108.574 8.37875C108.801 8.42798 109.084 8.41781 109.326 8.4388C109.626 8.43189 109.975 8.46356 110.229 8.38971C110.456 8.32672 110.264 8.49154 110.178 8.57256C109.982 8.80927 109.775 9.03203 109.567 9.25853C109.388 9.42864 109.236 9.62258 109.061 9.79836C108.848 10.0511 108.609 10.2894 108.397 10.5334C108.157 10.7703 107.947 11.0445 107.704 11.2821C107.414 11.5878 107.138 11.9039 106.845 12.2084C106.738 12.3411 106.602 12.4467 106.502 12.5866C106.695 12.9046 106.935 13.1921 107.138 13.5065C107.536 14.0467 107.896 14.6134 108.296 15.1516C108.409 15.3118 108.526 15.4689 108.638 15.6291C108.761 15.8062 108.888 15.9822 109.024 16.1528C109.221 16.4708 109.454 16.7633 109.652 17.0825C109.84 17.3021 109.982 17.556 110.158 17.789C110.32 18.007 110.465 18.235 110.63 18.4515Z" fill="white"/>
<path d="M17.0676 20.9803C18.1965 20.9822 19.331 20.6761 20.2842 20.0657C20.8613 19.7311 21.3759 19.283 21.7977 18.7667C22.0781 18.4659 22.2799 18.1103 22.4959 17.7629C22.8541 17.0675 23.1195 16.3169 23.1921 15.5337C23.2965 14.66 23.2127 13.7648 22.9601 12.9234C22.775 12.2839 22.4815 11.6784 22.1115 11.1255C21.6023 10.3739 20.945 9.7096 20.1591 9.25296C19.9821 9.1424 19.8301 9.03105 19.6513 8.92204C19.388 8.73989 18.9623 8.51146 18.6499 8.75485C18.3324 9.06736 18.3472 9.5596 18.3197 9.97935C18.3178 12.9504 18.3039 15.921 18.31 18.8922C18.2916 19.1416 18.3688 19.444 18.113 19.59C17.8484 19.7506 17.5514 19.8553 17.2421 19.9039C16.9884 19.9766 16.749 19.8666 16.5017 19.82C16.2905 19.7467 16.0602 19.6551 15.906 19.5079C15.6822 19.3107 15.8167 18.9625 15.78 18.6861C15.7762 15.6471 15.7878 12.6075 15.7742 9.56901C15.7299 9.24278 15.6941 8.84372 15.3893 8.64889C15.2483 8.57708 15.0913 8.58686 14.9468 8.64759C14.6011 8.74872 14.3074 9.04112 14.0145 9.21479C13.5048 9.51467 13.0349 9.88608 12.6388 10.3296C12.2888 10.683 12.0113 11.098 11.7552 11.5245C11.3896 12.19 11.1109 12.906 10.9846 13.6568C10.8567 14.3504 10.8437 15.0631 10.9528 15.7613C11.1172 16.8243 11.5769 17.8382 12.2449 18.6785C12.9058 19.5203 13.8144 20.138 14.7937 20.5565C15.5194 20.8246 16.2903 20.9901 17.0676 20.9803Z" fill="#F58220"/>
<path d="M17.091 7.06153C17.1743 7.0583 17.2604 7.07064 17.3407 7.0499C17.3916 7.04667 17.4371 7.00874 17.4909 7.01824C17.5254 6.99046 17.5641 6.96169 17.6084 6.96007C17.6489 6.93507 17.712 6.94411 17.7325 6.88965C17.7771 6.87408 17.8134 6.84859 17.8537 6.82604C17.8924 6.80724 17.9209 6.7667 17.9575 6.74158C18.0141 6.71742 18.0324 6.65293 18.0869 6.62541C18.1147 6.59085 18.1391 6.55394 18.1745 6.52462C18.2093 6.47332 18.2449 6.42386 18.2656 6.3644C18.3011 6.33695 18.3072 6.28819 18.3314 6.25108C18.3501 6.20973 18.3748 6.17329 18.384 6.12919C18.4023 6.09088 18.4195 6.0517 18.4141 6.00778C18.4343 5.95461 18.42 5.89299 18.4574 5.84496C18.4548 5.72221 18.4626 5.59667 18.4536 5.47567C18.4136 5.42496 18.4334 5.3585 18.4142 5.30083C18.4084 5.25883 18.3999 5.21387 18.3742 5.17961C18.3435 5.06065 18.2654 4.96268 18.2104 4.8554C18.1834 4.81941 18.1692 4.78195 18.1298 4.7576C18.0922 4.70489 18.0357 4.66945 18.0059 4.61095C17.9517 4.60772 17.9245 4.55197 17.8827 4.52527C17.8535 4.49458 17.8077 4.48147 17.7756 4.45634C17.7367 4.44051 17.7175 4.39968 17.6689 4.40129C17.6002 4.37228 17.5339 4.32933 17.458 4.31568C17.4165 4.29578 17.3818 4.26788 17.3323 4.28015C17.278 4.27886 17.2251 4.2671 17.1705 4.2671C17.077 4.25592 16.9821 4.26839 16.8892 4.27227C16.8325 4.29333 16.7643 4.26014 16.7149 4.30563C16.6552 4.3347 16.5881 4.33778 16.5309 4.3716C16.4939 4.40015 16.4421 4.39785 16.4134 4.43623C16.3633 4.44547 16.3287 4.48726 16.2811 4.50401C16.2412 4.53683 16.1986 4.57472 16.1626 4.60748C16.1115 4.60102 16.103 4.66627 16.0671 4.6927C16.029 4.71977 16.0202 4.76519 15.9844 4.79219C15.9168 4.86814 15.8584 4.95538 15.8191 5.04988C15.8127 5.09504 15.7722 5.12087 15.7704 5.16782C15.7496 5.21175 15.7303 5.24909 15.721 5.29523C15.7099 5.34252 15.7236 5.39727 15.6891 5.43955C15.6942 5.55137 15.667 5.66344 15.6891 5.77434C15.6871 5.83364 15.6845 5.89323 15.7149 5.9467C15.7081 6.02019 15.7398 6.08623 15.7705 6.15013C15.7659 6.20168 15.8111 6.2201 15.818 6.26515C15.8344 6.30366 15.845 6.345 15.8718 6.37876C15.8951 6.45618 15.9617 6.50388 16.0094 6.56457C16.0405 6.59235 16.0493 6.6412 16.0916 6.66062C16.1214 6.69325 16.1441 6.73198 16.1892 6.74785C16.2151 6.78965 16.2704 6.79925 16.3004 6.83969C16.3479 6.88291 16.4218 6.87568 16.4596 6.93208C16.493 6.95559 16.5447 6.95082 16.5755 6.97163C16.6093 6.98978 16.6535 7.00089 16.6895 7.01788C16.7412 7.02176 16.7827 7.05833 16.8352 7.04955C16.916 7.07461 17.0068 7.05507 17.091 7.06153Z" fill="#F58220"/>
<path d="M20.1068 4.57026C20.2615 4.23002 20.6706 3.97005 21.0184 4.22976C21.7068 4.66863 22.2286 5.33409 22.8249 5.89102C23.6025 6.64594 24.3103 7.4902 24.7961 8.46574C25.3015 9.46458 25.5991 10.564 25.6358 11.6847C25.7537 12.8164 25.5635 13.9769 25.2262 15.0584C24.5325 17.0928 23.0997 18.8953 21.1999 19.9246C18.572 21.4091 15.1677 21.3102 12.6036 19.7368C10.163 18.2801 8.57956 15.5334 8.45502 12.7029C8.38954 11.4023 8.59524 10.0868 9.11788 8.88853C9.62257 7.69063 10.4637 6.66378 11.4023 5.77351C11.9342 5.2386 12.4258 4.64854 13.0569 4.23493C13.3249 4.02915 13.7556 4.06771 13.8988 4.39258C14.2156 4.89442 14.4342 5.51702 14.4162 6.12726C14.3378 7.1323 13.4577 7.74854 12.7552 8.34586C11.9227 9.03162 11.3417 9.96544 10.8603 10.9223C10.4253 11.8554 10.1966 12.8774 10.2298 13.9235C10.2356 16.1648 11.3408 18.3868 13.1545 19.714C14.3438 20.5468 15.7842 21.028 17.2447 20.9803C19.2415 20.9549 21.1538 19.9191 22.3564 18.3443C23.432 16.9567 23.9799 15.1698 23.8656 13.4153C23.8179 12.3452 23.484 11.3071 22.9869 10.3784C22.5243 9.54321 21.8963 8.7905 21.1567 8.19042C20.6047 7.67682 19.9299 7.19275 19.7521 6.42249C19.6187 5.7884 19.8361 5.14007 20.1068 4.57026Z" fill="#F58220"/>
</g>
<defs>
<clipPath id="clip0_45_4274">
<rect width="115" height="24" fill="white"/>
</clipPath>
</defs>
</svg>
