<svg width="293" height="61" viewBox="0 0 293 61" fill="none" xmlns="http://www.w3.org/2000/svg">
<g clip-path="url(#clip0_4_1500)">
<path d="M0 60.7766H293V0.223343H0V60.7766Z" fill="#00836C"/>
<path d="M73.7455 30.4409C73.7481 36.4751 71.9509 42.3745 68.5811 47.393C65.2113 52.4115 60.4203 56.3237 54.8141 58.6347C49.2079 60.9456 43.0383 61.5516 37.0857 60.376C31.1331 59.2004 25.6648 56.296 21.3725 52.0301C17.0802 47.7642 14.1567 42.3284 12.9717 36.4104C11.7868 30.4923 12.3936 24.3578 14.7155 18.7827C17.0374 13.2076 20.97 8.44234 26.0159 5.08965C31.0619 1.73697 36.9944 -0.0525431 43.0634 -0.0525436C51.1985 -0.0525444 59.0006 3.1597 64.7543 8.87795C70.5079 14.5962 73.742 22.3523 73.7455 30.4409Z" fill="white"/>
<path d="M84.3561 41.0301C84.3561 39.7163 84.3561 38.4025 84.4486 37.0887C84.4486 32.0568 84.4486 26.9987 84.4486 21.9668C84.29 20.653 84.4486 19.3392 84.3164 18.0254C84.3164 17.0663 84.3164 16.0941 84.2372 15.1219C84.172 14.7657 84.1279 14.4059 84.105 14.0446C83.9332 13.5322 84.2636 13.4796 84.6997 13.5979C86.1664 13.5979 87.6067 13.6767 89.0734 13.5979C90.038 13.5059 91.0422 13.5979 92.0068 13.5059C92.0068 14.1891 91.9143 14.8197 91.9011 15.5161C91.8032 16.5774 91.7591 17.6429 91.769 18.7086C91.769 19.5626 91.769 20.4428 91.769 21.3362C91.769 23.8456 91.6897 26.3681 91.769 28.8906C91.8483 31.4131 91.769 33.975 91.769 36.5238C91.8483 38.0609 91.769 39.6112 91.8483 41.1484C91.8483 42.3965 91.8482 43.6578 91.9804 44.9059C91.9804 45.6285 92.1257 46.3511 92.1125 47.0868C91.5443 47.0868 90.9497 47.0868 90.408 46.9948C89.0866 46.9948 87.7652 46.9291 86.4439 46.9948C85.8228 46.9948 85.2546 47.0868 84.6204 47.0605C84.105 47.2839 84.2636 46.824 84.2636 46.4693C84.2636 46.1146 84.3297 45.681 84.3957 45.2869C84.3957 44.1964 84.3957 43.0797 84.5146 41.9892C84.5146 41.6871 84.5146 41.3717 84.5146 41.0696L84.3561 41.0301Z" fill="white"/>
<path d="M105.273 43.7234C106.861 43.9039 108.459 43.9786 110.057 43.9468C111.986 43.9979 113.895 43.5449 115.593 42.633C116.882 41.9076 117.967 40.8734 118.751 39.6244C119.222 38.9512 119.608 38.2232 119.901 37.4566C120.497 35.8775 120.87 34.2239 121.011 32.543C121.18 30.8842 121.211 29.2143 121.103 27.5505C121.007 25.9983 120.673 24.4699 120.112 23.0179C119.683 21.9292 119.051 20.9307 118.249 20.0749C117.539 19.2738 116.683 18.614 115.725 18.1305C115.093 17.8133 114.428 17.5623 113.743 17.3816C111.492 16.8678 109.17 16.7257 106.872 16.9612C106.33 16.9612 105.802 17.0401 105.273 17.0532C105.168 23.8981 105.207 30.7431 105.194 37.6011C105.273 39.6375 105.194 41.7002 105.273 43.7366V43.7234ZM97.9133 41.3586C97.9926 38.1661 98.0058 34.9473 97.9926 31.7284C98.0983 29.784 97.9926 27.787 97.9926 25.8951C97.9926 22.8996 97.9001 19.9304 97.8737 16.9481C97.7548 16.1336 97.8737 15.2664 97.7416 14.4518C97.7416 14.1891 97.3584 13.2957 97.9133 13.5322C98.9276 13.696 99.9517 13.7926 100.979 13.8212C102.129 13.9132 103.291 13.9395 104.481 13.9263C105.445 13.795 106.489 13.8344 107.48 13.7293C108.973 13.7293 110.427 13.5322 111.933 13.5191C113.581 13.4139 115.236 13.5065 116.862 13.7949C118.038 13.9839 119.194 14.2875 120.31 14.7015C121.471 15.1526 122.564 15.7581 123.561 16.5014C124.867 17.491 125.977 18.7113 126.838 20.1012C127.677 21.5027 128.271 23.0352 128.595 24.6338C128.849 25.6814 129.004 26.7502 129.058 27.8264C129.163 29.0723 129.163 30.3248 129.058 31.5707C128.996 32.5504 128.868 33.5248 128.675 34.4874C128.523 35.3373 128.298 36.1726 128.001 36.9837C127.46 38.6416 126.618 40.1869 125.517 41.5426C124.856 42.3376 124.107 43.056 123.284 43.684C121.891 44.7924 120.312 45.6464 118.619 46.2066C117.562 46.5497 116.48 46.8089 115.382 46.9817C112.93 47.3601 110.441 47.4439 107.969 47.2313C106.859 47.2313 105.775 47.0737 104.652 47.0868C103.114 46.8813 101.557 46.8592 100.014 47.0211C99.2062 47.0771 98.4028 47.1869 97.6094 47.3496C97.6094 46.6927 97.7812 46.0358 97.7812 45.4051C97.7812 44.0913 97.8737 42.7775 97.9001 41.3586H97.9133Z" fill="white"/>
<path d="M140.712 43.6709C141.776 43.8159 142.852 43.8555 143.923 43.7891C144.663 43.6846 145.381 43.4629 146.051 43.1322C146.358 42.9735 146.642 42.7747 146.896 42.541C147.243 42.2828 147.543 41.9673 147.782 41.6082C148.028 41.2563 148.249 40.8876 148.442 40.5046C148.671 39.9053 148.84 39.2847 148.945 38.6521C148.945 38.0084 149.063 37.3383 149.05 36.7471C148.892 36.3267 149.05 35.7486 148.839 35.3151C148.721 34.662 148.459 34.0429 148.072 33.502C147.907 33.1832 147.672 32.9049 147.385 32.6875C147.161 32.359 146.725 32.1751 146.421 31.9123C146.117 31.6496 145.76 31.5182 145.364 31.4788C144.86 31.2748 144.322 31.1678 143.778 31.1634C142.993 31.0315 142.194 30.9918 141.4 31.0452C140.699 30.8481 140.62 31.2685 140.712 31.8598V43.684V43.6709ZM140.712 27.9052C141.838 27.978 142.968 27.8894 144.069 27.6425C144.651 27.4928 145.205 27.2487 145.707 26.9199C146.212 26.6087 146.659 26.2131 147.029 25.7506C147.423 25.2204 147.718 24.6241 147.901 23.9901C148.045 23.5974 148.129 23.1856 148.152 22.7682C148.277 22.0819 148.277 21.3787 148.152 20.6924C148.134 20.23 148.002 19.7789 147.768 19.3786C147.503 18.7853 147.095 18.2663 146.579 17.8677C146.124 17.5326 145.627 17.2588 145.099 17.0532C143.756 16.6712 142.345 16.5815 140.963 16.7904C140.435 16.7904 140.805 17.5524 140.699 17.894V27.9578L140.712 27.9052ZM133.537 41.0433C133.537 38.9281 133.537 36.7997 133.603 34.6845C133.603 31.781 133.603 28.8643 133.603 25.9476C133.524 24.5681 133.603 23.1755 133.603 21.7829C133.603 20.0749 133.603 18.3801 133.485 16.6853C133.485 15.9364 133.485 15.2007 133.339 14.5044C133.339 14.1891 133.167 13.6504 133.339 13.4928L137.713 13.5848C139.391 13.4796 141.109 13.5847 142.787 13.519C144.48 13.4355 146.176 13.4838 147.861 13.6636C149.284 13.8832 150.662 14.3267 151.944 14.9774C152.38 15.2302 152.8 15.5111 153.199 15.8182C153.828 16.2727 154.362 16.8438 154.772 17.4999C155.172 18.0984 155.455 18.7672 155.604 19.4706C155.763 20.2907 155.763 21.1335 155.604 21.9537C155.54 22.737 155.311 23.4981 154.93 24.1871C154.563 25.0003 154.043 25.7361 153.398 26.3549C152.827 26.883 152.203 27.3498 151.534 27.7476C150.888 28.099 150.211 28.3935 149.513 28.6278C149.156 28.7066 148.76 28.8117 148.416 28.9168C148.833 28.9891 149.244 29.0946 149.645 29.2321C150.187 29.3504 150.649 29.6526 151.191 29.7971C151.963 30.1867 152.694 30.6533 153.371 31.1897C154.151 31.8095 154.809 32.5666 155.314 33.4232C155.844 34.3912 156.176 35.4538 156.291 36.5501C156.478 38.0489 156.306 39.5705 155.789 40.9907C155.482 41.8217 155.036 42.5948 154.468 43.2767C154.068 43.7803 153.596 44.223 153.067 44.5905C152.401 45.1495 151.664 45.6178 150.874 45.9832C149.934 46.3751 148.955 46.6658 147.954 46.8503C146.71 47.0148 145.455 47.0808 144.201 47.0474C142.496 47.0474 140.778 47.0474 139.074 46.9554C137.924 46.9554 136.801 46.9554 135.665 46.9554C134.912 47.0605 134.106 46.9554 133.339 47.0474C132.943 47.0474 133.273 46.3773 133.207 46.0751C133.273 45.3788 133.326 44.6825 133.339 43.9468C133.418 42.9746 133.339 42.0023 133.445 41.0301L133.537 41.0433Z" fill="white"/>
<path d="M163.717 41.0301C163.836 36.6289 163.797 32.2276 163.797 27.8264C163.797 24.5419 163.797 21.2573 163.691 17.9466C163.612 17.3422 163.691 16.6328 163.612 16.0416C163.532 15.4503 163.519 14.938 163.519 14.3862C163.458 14.088 163.436 13.7834 163.453 13.4796C164.338 13.4796 165.237 13.4796 166.096 13.4796C166.955 13.4796 167.748 13.4796 168.554 13.4796C169.36 13.4796 170.245 13.4796 171.064 13.4008C171.566 13.2826 171.183 13.9001 171.302 14.1891C171.211 14.8905 171.167 15.5971 171.17 16.3043C171.077 17.1057 171.17 17.9466 171.091 18.748C171.011 19.5494 171.091 20.3114 171.025 21.0734C171.025 22.8602 171.025 24.6338 170.945 26.4206C170.945 30.5197 170.945 34.6188 171.025 38.7047C171.025 39.6638 171.025 40.6229 171.025 41.5688C171.025 42.5147 171.025 43.4738 171.143 44.4066C171.262 45.3394 171.262 45.9569 171.249 46.7583C171.355 47.1788 170.655 46.824 170.39 46.916C169.796 46.916 169.214 46.8503 168.606 46.916C167.787 46.8372 166.915 46.916 166.083 46.916C165.607 47.008 165.012 46.916 164.55 47.0079C164.087 47.0999 163.678 47.0868 163.347 47.0079C163.347 46.4167 163.413 45.8518 163.48 45.3131C163.48 44.4066 163.585 43.5132 163.559 42.6067C163.599 42.0776 163.599 41.5461 163.559 41.017L163.717 41.0301Z" fill="white"/>
<path d="M192.761 44.6825C193.535 44.6832 194.307 44.6306 195.073 44.5249C195.43 44.3672 195.866 44.4329 196.21 44.2227C196.558 44.1153 196.881 43.9412 197.161 43.7103C197.609 43.4143 197.977 43.0126 198.232 42.541C198.373 42.2527 198.492 41.954 198.588 41.6476C198.796 40.788 198.867 39.9015 198.8 39.02C198.77 38.6628 198.699 38.3101 198.588 37.969C198.485 37.6109 198.348 37.2633 198.179 36.9311C197.95 36.5457 197.649 36.2069 197.293 35.9326C197.011 35.6881 196.695 35.4846 196.355 35.3282C195.83 35.119 195.286 34.9606 194.73 34.8552C194.244 34.7754 193.755 34.7227 193.263 34.6976C192.933 34.6976 192.418 34.5268 192.589 35.0523C192.589 37.68 192.589 40.3732 192.655 43.0271C192.655 43.4475 192.655 43.9336 192.721 44.3409C192.721 44.4723 192.721 44.6694 192.721 44.7482L192.761 44.6825ZM198.588 27.6819C198.632 27.0764 198.551 26.4685 198.35 25.8951C198.221 25.5346 198.034 25.1974 197.795 24.8966C197.575 24.6616 197.327 24.4542 197.056 24.2791C196.783 24.1111 196.49 23.9787 196.183 23.885C195.816 23.7653 195.441 23.6731 195.06 23.6091C194.331 23.4904 193.591 23.4508 192.854 23.4908C192.768 23.9499 192.737 24.4173 192.761 24.8835C192.691 25.2517 192.656 25.6255 192.655 26.0002C192.589 28.1549 192.589 30.3226 192.589 32.4904C193.29 32.4904 193.977 32.4904 194.664 32.3984C195.111 32.3471 195.553 32.2592 195.985 32.1357C196.375 32.0413 196.729 31.8358 197.003 31.5445C197.202 31.3562 197.384 31.1494 197.544 30.927C197.883 30.3888 198.141 29.8046 198.311 29.1927C198.446 28.6971 198.543 28.1921 198.601 27.6819H198.588ZM196.448 33.3838C197.412 33.4495 198.403 33.4626 199.368 33.6203C199.844 33.6203 200.24 33.8305 200.689 33.9093C201.139 33.9882 201.297 34.1064 201.588 34.2378C201.879 34.3692 202.275 34.5794 202.632 34.7502C202.988 34.921 203.2 35.1969 203.425 35.4596C203.67 35.7306 203.887 36.0255 204.072 36.3399C204.178 36.5763 204.31 36.8522 204.402 37.115C204.526 37.5112 204.623 37.9149 204.693 38.3237C204.799 39.2316 204.799 40.1486 204.693 41.0564C204.607 41.5864 204.465 42.106 204.27 42.6067C204.149 43.003 203.947 43.3699 203.676 43.684C203.323 44.2387 202.876 44.7278 202.354 45.1292C201.889 45.445 201.399 45.7219 200.887 45.9569C200.557 46.124 200.206 46.2476 199.844 46.3248C199.509 46.4532 199.164 46.5542 198.813 46.627C198.28 46.7334 197.742 46.8123 197.201 46.8634C195.14 46.9423 193.052 46.8634 190.977 46.8634C189.55 46.8634 188.083 46.8634 186.656 46.8634C186.656 46.3773 186.762 45.9307 186.775 45.4314C186.788 44.9322 186.775 44.0256 186.907 43.3556C186.907 41.0827 186.907 38.8098 186.907 36.537C186.907 35.6567 186.907 34.7633 186.815 33.9093C186.815 32.3328 186.815 30.7431 186.722 29.1665C186.722 28.0498 186.722 26.9593 186.656 25.8688C186.656 24.3054 186.656 22.7551 186.656 21.2048C187.978 21.2048 189.299 21.3099 190.541 21.3099C191.493 21.3099 192.431 21.3099 193.395 21.3756C195.028 21.3273 196.662 21.3976 198.284 21.5858C198.773 21.6652 199.255 21.7838 199.725 21.9406C200.322 22.0937 200.893 22.3374 201.416 22.6631C201.702 22.7995 201.973 22.9669 202.222 23.1624C202.579 23.4673 202.915 23.7965 203.226 24.1477C203.332 24.4499 203.57 24.6864 203.676 25.0017C203.816 25.277 203.922 25.5682 203.993 25.8688C204.115 26.4607 204.164 27.0651 204.138 27.6688C204.097 28.0007 204.035 28.3298 203.953 28.6541C203.862 29.0243 203.715 29.3786 203.517 29.7051C203.327 30.0887 203.083 30.4428 202.79 30.7562C202.645 30.9795 202.381 31.1241 202.222 31.3211C202.064 31.5182 201.588 31.7941 201.257 31.9255C200.983 32.1319 200.668 32.2795 200.332 32.359C200.061 32.5251 199.761 32.6408 199.447 32.7006C199.018 32.8465 198.575 32.9521 198.126 33.0159C197.549 33.1523 196.961 33.2359 196.368 33.2656V33.3838H196.448Z" fill="white"/>
<path d="M220.232 37.0099C220.14 36.5203 219.966 36.0496 219.717 35.6173C219.717 35.2888 219.466 35.0655 219.413 34.7502C219.36 34.4348 219.228 34.1721 219.109 33.8962C218.937 33.3707 218.739 32.8846 218.594 32.3722C218.449 31.9185 218.263 31.4787 218.039 31.0584C218.039 30.7168 217.722 30.5197 217.722 30.165C217.513 29.7392 217.332 29.3004 217.18 28.8512C217.021 28.6804 216.995 28.0629 216.836 28.5358C216.733 28.7757 216.614 29.0083 216.48 29.2322C216.229 29.784 215.991 30.3226 215.779 30.9007C215.594 31.1503 215.594 31.505 215.423 31.7415C215.251 31.978 215.171 32.359 215.105 32.74C214.908 33.1253 214.74 33.525 214.603 33.9356C214.397 34.4285 214.221 34.933 214.075 35.4465C213.947 35.7227 213.841 36.0082 213.758 36.3004C213.758 36.4975 213.388 37.0099 213.876 36.8917C214.365 36.7734 215.198 36.9836 215.951 36.9573L220.232 37.0099ZM230.222 46.8109C229.099 46.8109 228.002 46.8766 226.879 46.8109C225.756 46.7452 224.791 46.8109 223.747 46.8897C223.615 46.4956 223.522 46.1146 223.404 45.7467C223.285 45.3788 223.232 45.1818 223.139 44.8665C222.829 44.134 222.577 43.3784 222.386 42.6067C222.241 42.0549 222.029 41.5294 221.884 40.9645C221.778 40.6229 221.659 40.2944 221.54 39.9528C221.422 39.6112 221.369 39.4667 221.21 39.3747H212.463C212.29 39.7661 212.149 40.1703 212.04 40.5835C211.696 41.4506 211.353 42.344 211.088 43.2111C210.824 44.0782 210.56 44.9321 210.19 45.7467C210.084 46.1146 209.952 46.4824 209.807 46.8634C209.014 46.8634 208.234 46.7715 207.428 46.7846C207.217 46.6401 206.53 46.8634 206.543 46.6532C206.627 46.4119 206.724 46.1751 206.834 45.9438C207.124 45.2869 207.402 44.5511 207.679 43.8942C207.957 43.2373 208.287 42.4359 208.565 41.6739C208.842 40.9119 209.133 40.2156 209.463 39.5061C209.793 38.7967 210.15 37.8901 210.494 37.0756C210.837 36.261 210.996 35.8275 211.207 35.2231C211.419 34.6188 211.564 34.1721 211.868 33.6991C212.159 32.9765 212.397 32.1751 212.74 31.4394C213.084 30.7036 213.295 29.9942 213.639 29.2979C213.982 28.6016 214.075 28.0892 214.313 27.4848C214.722 26.4075 215.238 25.3696 215.634 24.2791C215.806 23.701 216.096 23.1492 216.255 22.5449C216.414 21.9405 216.744 21.415 216.995 20.8501C217.127 20.6793 217.418 20.9289 217.656 20.8501C218.331 20.8916 219.009 20.8608 219.677 20.7581C220.457 21.126 220.47 22.7945 220.999 23.6222C221.448 24.7127 221.95 25.79 222.32 26.9199C222.575 27.6491 222.88 28.3602 223.232 29.0482C223.615 30.1518 224.051 31.2423 224.474 32.3328C224.675 32.6966 224.839 33.0795 224.963 33.4758C225.201 34.0538 225.399 34.6582 225.623 35.2363C225.847 35.8934 226.117 36.5343 226.429 37.1544C226.733 37.877 227.011 38.6521 227.302 39.4141C227.471 39.909 227.674 40.3918 227.909 40.8593C228.345 41.5557 228.451 42.3702 228.821 43.0928C228.98 43.5945 229.17 44.0859 229.389 44.5643C229.462 44.821 229.583 45.0617 229.746 45.2738C229.905 45.6548 230.05 46.0883 230.195 46.4693C230.195 46.535 230.328 46.5875 230.288 46.6795L230.222 46.8109Z" fill="white"/>
<path d="M255.381 21.2442C255.381 21.888 255.249 22.558 255.209 23.1624C255.169 23.7667 255.09 24.8309 255.05 25.6718C254.971 27.2615 254.931 28.8512 254.945 30.454C254.826 31.7678 254.945 33.0816 254.945 34.3954C255.077 35.9457 254.945 37.5223 255.05 39.0726C255.156 40.6229 255.182 41.8841 255.222 43.2899C255.222 44.1833 255.222 45.0898 255.328 45.9175C255.348 46.2281 255.348 46.5397 255.328 46.8503C254.719 46.7659 254.106 46.7221 253.491 46.7189C253.008 46.7146 252.525 46.7586 252.051 46.8503C251.8 46.6795 251.681 46.3379 251.403 46.154C251.197 45.8927 250.976 45.6427 250.743 45.4051C250.597 45.1161 250.293 44.9716 250.135 44.6957C249.514 44.0125 248.88 43.3162 248.285 42.5936C247.928 42.2257 247.585 41.871 247.267 41.4768C246.95 41.0827 246.686 40.728 246.303 40.4127C245.735 39.8083 245.193 39.204 244.651 38.5733C244.36 38.3763 244.215 38.0478 243.938 37.8376C243.645 37.5389 243.375 37.2182 243.132 36.8785C242.497 36.291 241.901 35.6634 241.348 34.9998C240.866 34.5619 240.424 34.0828 240.026 33.5677C239.698 33.2723 239.389 32.9563 239.101 32.6218C238.705 32.2933 238.441 31.8335 238.058 31.4919C237.455 30.9372 236.898 30.3353 236.393 29.692C236.097 29.4724 235.831 29.2163 235.6 28.93C235.6 32.9503 235.6 36.9836 235.6 40.9907C235.6 42.7118 235.719 44.4329 235.706 46.154C235.706 46.4167 235.904 47.0343 235.468 46.8372C234.893 46.7279 234.307 46.6926 233.723 46.7321C233.301 46.7321 232.904 46.8109 232.402 46.8503V21.2442C233.007 21.2493 233.612 21.2887 234.212 21.3625C234.688 21.4546 235.177 21.4546 235.653 21.3625C235.981 21.3327 236.308 21.2844 236.63 21.218C237.096 21.7898 237.59 22.3379 238.11 22.8602C239.009 23.9507 240.013 24.9623 240.938 26.0396C241.705 26.7491 242.26 27.6425 243.066 28.3651C243.872 29.0877 244.466 29.8365 245.114 30.6117C245.761 31.3868 246.62 32.1883 247.294 33.0422C247.968 33.8962 248.761 34.7239 249.567 35.499C250.373 36.2742 251.205 37.3252 252.024 38.2449C252.394 38.9018 252.223 37.9427 252.249 37.6405C252.249 35.5516 252.249 33.4495 252.17 31.3474C252.104 28.7198 252.17 26.171 252.077 23.596C252.077 22.8339 252.077 22.0719 252.077 21.3099C252.668 21.4286 253.272 21.4771 253.874 21.4544C254.377 21.4571 254.877 21.3772 255.354 21.218L255.381 21.2442Z" fill="white"/>
<path d="M282.033 46.9029H274.844C274.369 46.2197 273.933 45.5891 273.523 44.8533C273.113 44.1176 272.611 43.4476 272.202 42.7644C271.898 42.3177 271.62 41.8184 271.277 41.4506C270.933 41.0827 270.616 40.5178 270.391 40.0185C270.167 39.5193 269.691 39.0332 269.334 38.5208C269.123 38.2317 268.885 37.877 268.674 37.5486C268.462 37.2201 268.185 36.7866 267.868 36.4318C267.55 36.0771 267.405 35.8275 267.22 35.499C267.22 38.4026 267.22 41.3061 267.22 44.2096C267.379 44.6826 267.22 45.2738 267.339 45.7599C267.357 46.1608 267.401 46.5602 267.471 46.9554C266.863 46.9554 266.308 46.8635 265.714 46.8766C265.111 46.8369 264.506 46.8369 263.903 46.8766C263.401 46.8766 262.899 46.8766 262.384 46.8766C261.992 46.9525 261.594 46.992 261.195 46.9948C261.195 44.8402 261.195 42.6856 261.195 40.5441C261.195 38.6916 261.195 36.8391 261.195 34.9866C261.314 33.8436 261.195 32.6612 261.287 31.5051C261.287 28.7198 261.287 25.9345 261.287 23.1493C261.207 22.6894 261.167 22.2234 261.168 21.7567C261.049 21.3625 261.168 21.218 261.565 21.3625C262.331 21.4807 263.137 21.5333 263.93 21.5859C264.678 21.6315 265.428 21.6315 266.176 21.5859C266.599 21.5859 267.048 21.5858 267.498 21.4413C267.412 22.086 267.368 22.7355 267.365 23.3858C267.309 23.7293 267.274 24.0759 267.26 24.4237C267.26 25.2908 267.26 26.1842 267.26 27.0513C267.194 29.0745 267.26 31.1241 267.26 33.1605C267.524 32.8298 267.806 32.514 268.105 32.2145C268.502 31.7416 268.885 31.2554 269.295 30.8088C269.704 30.3621 270.365 29.6263 270.814 28.9694C271.237 28.6016 271.501 28.1417 271.898 27.7345C272.294 27.3272 272.558 26.933 272.889 26.5257C273.219 26.1185 273.629 25.6455 273.946 25.2119C274.251 24.8677 274.537 24.5082 274.805 24.1346C275.073 23.823 275.32 23.4938 275.545 23.1493C275.767 22.923 275.962 22.6717 276.126 22.4004C276.43 22.1376 276.562 21.6778 276.893 21.507C277.533 21.5893 278.177 21.6375 278.822 21.6515C279.595 21.7002 280.37 21.6605 281.134 21.5333C281.702 21.3756 281.213 21.7829 281.002 21.9931C280.5 22.5975 279.971 23.1624 279.43 23.7405C278.888 24.3185 278.584 24.6601 278.108 25.0543C277.553 25.698 276.945 26.3681 276.404 26.933C275.862 27.4979 275.254 28.2468 274.633 28.8249C274.012 29.403 273.193 30.4146 272.44 31.1898C272.162 31.5182 271.818 31.7941 271.567 32.1488C272.056 32.9502 272.664 33.686 273.193 34.4874C274.21 35.8012 275.122 37.299 276.153 38.6653C276.43 39.0726 276.734 39.4667 277.025 39.874C277.332 40.3286 277.663 40.7671 278.016 41.1878C278.518 41.9892 279.112 42.7381 279.615 43.5527C280.09 44.1045 280.46 44.7482 280.936 45.3394C281.412 45.9307 281.715 46.4825 282.138 47.0343L282.033 46.9029Z" fill="white"/>
<path d="M42.8387 53.3274C45.7449 53.344 48.5957 52.5374 51.0576 51.0019C52.5364 50.1367 53.8475 49.0154 54.9292 47.6911C56.9348 45.3811 58.18 42.5152 58.4969 39.4799C58.7566 37.2511 58.5543 34.9931 57.9023 32.8451C57.4167 31.2209 56.686 29.6794 55.7353 28.2731C54.4466 26.3383 52.7403 24.7136 50.7405 23.5171C50.2912 23.2281 49.8948 22.9522 49.4191 22.6763C48.7452 22.2033 47.6485 21.6253 46.8557 22.2427C46.1993 23.1425 45.8984 24.2506 46.01 25.3565C46.01 32.9108 46.01 40.4652 46.01 48.0196C46.01 48.6502 46.1686 49.4254 45.5079 49.7932C44.8214 50.1989 44.0636 50.4709 43.2748 50.5946C42.636 50.6712 41.9881 50.5947 41.3852 50.3713C40.8304 50.2131 40.3136 49.945 39.8657 49.583C39.2975 49.0838 39.641 48.1904 39.5485 47.4941C39.5485 39.7689 39.5485 32.0437 39.5485 24.3185C39.5663 23.8815 39.488 23.4459 39.3191 23.042C39.1503 22.6381 38.8949 22.2757 38.5707 21.98C38.3932 21.8959 38.1991 21.8523 38.0025 21.8523C37.8059 21.8523 37.6118 21.8959 37.4343 21.98C36.5873 22.3621 35.7889 22.8428 35.0559 23.412C33.7431 24.1707 32.5572 25.1281 31.541 26.2498C30.6654 27.1654 29.9065 28.1847 29.2815 29.2847C28.3206 30.9693 27.6548 32.8042 27.3127 34.7107C26.9825 36.4759 26.9556 38.2839 27.2333 40.0579C27.6608 42.7735 28.8002 45.3292 30.5368 47.4678C32.2556 49.5728 34.4769 51.2169 36.9983 52.2501C38.853 52.962 40.8241 53.3272 42.8123 53.3274H42.8387Z" fill="#F58220"/>
<path d="M42.8916 17.9466C43.1066 17.973 43.324 17.973 43.5391 17.9466C43.658 17.9466 43.7769 17.8546 43.9222 17.8678C44.0009 17.7897 44.1029 17.739 44.2129 17.7233C44.3186 17.6576 44.4772 17.7232 44.5301 17.5393C44.642 17.5001 44.7485 17.4471 44.8472 17.3817C44.9416 17.3198 45.03 17.2494 45.1115 17.1714C45.2568 17.1057 45.2965 16.9481 45.4418 16.8693C45.5092 16.7797 45.5843 16.6962 45.6664 16.6197C45.7631 16.4947 45.843 16.3578 45.9043 16.2124C45.9836 16.1467 46.01 16.0153 46.0628 15.9233C46.1258 15.8271 46.1705 15.7202 46.195 15.608C46.2532 15.5183 46.281 15.4124 46.2743 15.3059C46.2743 15.1745 46.2742 15.0168 46.3932 14.8854C46.5121 14.754 46.3932 14.2548 46.3932 13.9526C46.3932 13.6505 46.3932 13.6504 46.2875 13.5059C46.2848 13.3987 46.2528 13.2943 46.195 13.2038C46.0807 12.9152 45.9391 12.638 45.7722 12.3761C45.7207 12.2786 45.6485 12.1935 45.5607 12.1264C45.4481 12.0099 45.3421 11.8871 45.2436 11.7586C45.1115 11.7586 45.0454 11.6009 44.9265 11.5352C44.8076 11.4695 44.7415 11.4301 44.6622 11.3644C44.5829 11.2987 44.5036 11.2199 44.3847 11.2199C44.2137 11.1242 44.0318 11.0493 43.8429 10.9966C43.7372 10.9966 43.658 10.8783 43.5258 10.9178H43.1162C42.8744 10.8981 42.6313 10.8981 42.3894 10.9178C42.2441 10.9178 42.0723 10.9177 41.9534 11.0097C41.8345 11.1017 41.6231 11.0885 41.4777 11.1673C41.3324 11.2462 41.2531 11.233 41.1738 11.3381C41.0945 11.4432 40.9624 11.4695 40.8435 11.5089L40.5395 11.7717C40.4074 11.7717 40.381 11.9162 40.2885 11.9819C40.196 12.0476 40.1695 12.1658 40.077 12.2447C39.8987 12.4374 39.7556 12.6598 39.6542 12.9016C39.6542 13.0067 39.5353 13.0724 39.5353 13.1906C39.48 13.2953 39.4357 13.4053 39.4032 13.5191C39.4032 13.6373 39.4032 13.7818 39.3239 13.8869C39.3041 14.1712 39.3041 14.4566 39.3239 14.7409C39.3056 14.8887 39.3285 15.0387 39.3899 15.1745C39.3915 15.3551 39.4417 15.532 39.5353 15.6868C39.5353 15.8182 39.641 15.8708 39.6542 15.989C39.6872 16.09 39.7315 16.187 39.7863 16.2781C39.878 16.4543 39.9986 16.6141 40.1431 16.751C40.2224 16.8167 40.2488 16.935 40.3546 16.9875C40.4603 17.0401 40.4867 17.1714 40.6056 17.2109C40.7245 17.2503 40.817 17.3422 40.8831 17.4473C40.9492 17.5524 41.2002 17.5393 41.2927 17.6838C41.3852 17.8284 41.5174 17.6838 41.5966 17.7758C41.6901 17.823 41.7874 17.8626 41.8873 17.8941C42.0195 17.8941 42.1252 17.9992 42.2573 17.9729C42.4727 17.9929 42.6894 17.9929 42.9048 17.9729L42.8916 17.9466Z" fill="#F58220"/>
<path d="M50.6084 11.6141C50.6817 11.3881 50.8055 11.1815 50.9704 11.0098C51.1352 10.838 51.337 10.7055 51.5606 10.6221C51.7842 10.5388 52.0238 10.5067 52.2617 10.5283C52.4995 10.5499 52.7293 10.6247 52.934 10.7469C54.5963 12.0159 56.1438 13.4271 57.5588 14.9643C59.5949 16.8583 61.2967 19.0789 62.5932 21.5333C63.8963 24.0753 64.631 26.8675 64.747 29.7183C64.9724 32.6195 64.613 35.5362 63.6899 38.2975C61.9207 43.5491 58.2522 47.9598 53.3965 50.6735C50.0108 52.51 46.1999 53.4316 42.3441 53.3463C38.4882 53.261 34.7223 52.1718 31.4221 50.1874C28.3371 48.2791 25.7636 45.6553 23.9225 42.541C22.0813 39.4266 21.0274 35.9148 20.8512 32.3065C20.6224 28.9768 21.1743 25.6397 22.4633 22.558C23.8414 19.5574 25.83 16.8734 28.3037 14.6752C29.5709 13.2183 30.9881 11.8972 32.5321 10.7338C32.6919 10.5989 32.8798 10.501 33.0823 10.4473C33.2849 10.3935 33.4969 10.3852 33.703 10.4229C33.9092 10.4606 34.1043 10.5435 34.2743 10.6654C34.4443 10.7873 34.5849 10.9453 34.6859 11.1279C35.5436 12.4427 36.0024 13.9752 36.0073 15.5423C35.8091 18.0911 33.5495 19.6677 31.7525 21.1786C29.7004 23.0118 28.0536 25.2487 26.9163 27.7476C25.7815 30.1255 25.2291 32.7367 25.3042 35.3677C25.3236 38.2428 26.014 41.0742 27.321 43.639C28.628 46.2037 30.5158 48.4319 32.836 50.148C35.8813 52.3104 39.5466 53.4391 43.288 53.3668C45.8313 53.2914 48.3253 52.6504 50.5868 51.4909C52.8483 50.3314 54.8197 48.6829 56.3563 46.6664C59.1205 43.0878 60.4908 38.6365 60.2147 34.1327C60.055 31.4274 59.2874 28.7921 57.9684 26.4206C56.7834 24.2824 55.1952 22.3911 53.2907 20.8501C51.8769 19.5363 50.1591 18.3145 49.6966 16.3569C49.4735 14.7321 49.7938 13.0794 50.6084 11.6535V11.6141Z" fill="#F58220"/>
</g>
<defs>
<clipPath id="clip0_4_1500">
<rect width="293" height="61" fill="white"/>
</clipPath>
</defs>
</svg>
