<svg width="68" height="24" viewBox="0 0 68 24" fill="none" xmlns="http://www.w3.org/2000/svg">
<g clip-path="url(#clip0_45_4260)">
<path d="M67.2941 0H0V24H67.2941V0Z" fill="#9C1D26"/>
<path d="M5.04495 5.05692H18.8394V18.889H5.04403V5.05692H5.04495ZM20.0014 3.89307H3.88293V20.0529H20.0014V3.89307Z" fill="white"/>
<path d="M6.56885 9.27876H17.3145V6.58545H6.56885V9.27876ZM6.56885 17.3587H9.2548V14.6654H6.56885V17.3587ZM6.56885 13.3187H13.2746V10.6171H6.56885V13.3187Z" fill="white"/>
<path d="M26.8237 7.50129V10.9809H27.79C28.851 10.9809 29.0944 10.5749 29.0944 9.22273C29.0944 7.78146 28.9401 7.50037 27.6715 7.50037H26.8237V7.50129ZM27.937 6.59281C29.6024 6.59281 30.1995 7.31666 30.1995 9.21446C30.1995 11.1123 29.5657 11.8894 27.9297 11.8894H25.7333V6.59097H27.9361L27.937 6.59281ZM23.6178 11.8894H24.7091V6.59281H23.6178V11.8894ZM31.0474 6.59281H34.7612V7.50129H32.1377V8.74231H34.4296V9.65171H32.1377V11.8894H31.0474V6.59281ZM39.8465 10.1459C39.773 11.1802 39.1989 12.0079 37.5693 12.0079C35.9398 12.0079 35.1746 11.217 35.1746 9.26682C35.1746 7.31665 35.9333 6.47339 37.5767 6.47339C38.8737 6.47339 39.6692 7.02822 39.8465 8.23984H38.7562C38.6312 7.76676 38.4769 7.40484 37.5776 7.40484C36.6783 7.40484 36.2806 7.94497 36.2806 9.36235C36.2806 10.4637 36.5754 11.0764 37.5932 11.0764C38.3226 11.0764 38.6689 10.8477 38.7571 10.145H39.8475L39.8465 10.1459ZM42.7502 6.59281H46.465V7.50129H43.8415V8.74231H46.1334V9.65171H43.8415V11.8894H42.7502V6.59281ZM47.1723 11.8894H48.2636V6.59281H47.1723V11.8894ZM50.3791 7.50129V8.89847H51.3592C52.2365 8.89847 52.5313 8.80936 52.5313 8.14522C52.5313 7.61336 52.3476 7.50221 51.4254 7.50221H50.3791V7.50129ZM49.2878 6.59281H51.5797C52.6774 6.59281 53.6355 6.62312 53.6355 8.18105C53.6355 9.21538 53.2083 9.59935 52.6039 9.74081L53.9818 11.8903H52.6563L51.3583 9.80695H50.3782V11.8903H49.2869V6.59189L49.2878 6.59281ZM55.3606 10.2277C55.4047 10.7816 55.4864 11.0774 56.5327 11.0774C57.0848 11.0774 57.4908 10.9965 57.4908 10.4573C57.4908 10.1321 57.3438 9.95484 56.879 9.829L55.5967 9.48177C54.9564 9.31183 54.3887 9.00135 54.3887 8.03407C54.3887 7.27348 54.735 6.47431 56.371 6.47431C58.0071 6.47431 58.4131 7.19816 58.4351 8.1443H57.3438C57.2924 7.70063 57.2703 7.40484 56.326 7.40484C55.774 7.40484 55.4929 7.50864 55.4929 7.92935C55.4929 8.31332 55.7216 8.42448 56.0312 8.50531L57.2106 8.82314C57.962 9.0234 58.5959 9.31826 58.5959 10.3756C58.5959 11.8673 57.3209 12.0079 56.5318 12.0079C54.8076 12.0079 54.3354 11.3291 54.2702 10.2277H55.3606ZM60.4459 7.52426H58.854V6.59281H63.1208V7.52334H61.5363V11.8894H60.445V7.52334L60.4459 7.52426ZM24.7073 17.5038V18.901H25.6874C26.6831 18.901 26.9036 18.8275 26.9036 18.2212C26.9036 17.615 26.6969 17.5038 25.9014 17.5038H24.7073ZM24.7073 15.4205V16.5953H25.9308C26.5867 16.5953 26.7484 16.5145 26.7484 15.967C26.7484 15.5233 26.6455 15.4205 25.7241 15.4205H24.7063H24.7073ZM26.1963 14.5111C27.2352 14.5111 27.8029 14.8803 27.8029 15.8853C27.8029 16.7065 27.4263 16.8755 27.1985 16.971C27.8461 17.2227 28.0087 17.7252 28.0087 18.2791C28.0087 19.1508 27.6109 19.8086 26.1513 19.8086H23.616V14.5111H26.1954H26.1963ZM31.0235 18.0136L30.3088 18.1321C29.9184 18.1918 29.6382 18.2727 29.6382 18.687C29.6382 18.9818 29.7861 19.1444 30.2427 19.1444C30.8692 19.1444 31.0235 18.8045 31.0235 18.325V18.0146V18.0136ZM28.7316 17.0978C28.783 16.0938 29.3581 15.82 30.4043 15.82C31.4506 15.82 32.0486 16.1085 32.0486 16.9582V19.8095H31.0685V19.5146C30.8692 19.7213 30.4934 19.9059 29.8743 19.9059C28.9465 19.9059 28.614 19.4916 28.614 18.8275C28.614 17.9631 29.1734 17.6379 29.7411 17.5497L31.0235 17.3495V17.1134C31.0235 16.7515 30.8398 16.6477 30.3603 16.6477C29.8514 16.6477 29.7485 16.7662 29.697 17.0978H28.7316ZM35.4538 17.5709C35.4538 16.9729 35.4465 16.6624 34.7897 16.6624C34.0603 16.6624 33.9795 17.0464 33.9795 17.9622V19.8086H32.9543V15.9147H33.9271V16.4171C34.2073 16.0405 34.5095 15.8191 35.2242 15.8191C36.2199 15.8191 36.4781 16.2472 36.4781 17.4294V19.8086H35.4529V17.5709H35.4538ZM37.4665 14.512H38.4907V17.3568L39.751 15.9165H41.0113L39.6555 17.3936L41.0627 19.8095H39.8759L38.9325 18.1174L38.4898 18.5758V19.8095H37.4655V14.512H37.4665Z" fill="white"/>
</g>
<defs>
<clipPath id="clip0_45_4260">
<rect width="67.2941" height="24" fill="white"/>
</clipPath>
</defs>
</svg>
