<svg width="190" height="74" viewBox="0 0 190 74" fill="none" xmlns="http://www.w3.org/2000/svg">
<g id="IDFC" clip-path="url(#clip0_4_1319)">
<path id="Vector" fill-rule="evenodd" clip-rule="evenodd" d="M0 0.728882H50.907V48.5466H0V0.728882Z" fill="#BD9DC5"/>
<path id="Vector_2" fill-rule="evenodd" clip-rule="evenodd" d="M47.6985 1.67972H98.6055V49.4668H47.6985V1.67972Z" fill="#FACB0D"/>
<path id="Vector_3" fill-rule="evenodd" clip-rule="evenodd" d="M47.6985 1.67972H50.907V48.5466H47.6985V1.67972Z" fill="#CE7EA7"/>
<path id="Vector_4" fill-rule="evenodd" clip-rule="evenodd" d="M90.8983 0.268799H141.805V48.0866H90.8983V0.268799Z" fill="#E76F6D"/>
<path id="Vector_5" fill-rule="evenodd" clip-rule="evenodd" d="M98.6055 48.0866H90.8983V1.67972H98.6055V48.0866Z" fill="#E25933"/>
<path id="Vector_6" fill-rule="evenodd" clip-rule="evenodd" d="M139.093 0.728882H190V48.5466H139.093V0.728882Z" fill="#E9925C"/>
<path id="Vector_7" fill-rule="evenodd" clip-rule="evenodd" d="M139.093 0.728882H141.805V48.0866H139.093V0.728882Z" fill="#DA4124"/>
<path id="Vector_8" fill-rule="evenodd" clip-rule="evenodd" d="M38.7343 61.3676H41.116V73.0536H38.7343V61.3676Z" fill="#69747A"/>
<path id="Vector_9" fill-rule="evenodd" clip-rule="evenodd" d="M61.1281 61.3676H63.5098H70.39V63.2386H63.5098V66.4898H69.7615V68.3608H63.5098V73.0536H61.1281V68.3608V66.4898V63.2386V61.3676Z" fill="#69747A"/>
<path id="Vector_10" fill-rule="evenodd" clip-rule="evenodd" d="M80.181 61.0609C81.9776 61.0701 83.6991 61.7305 84.9774 62.9011L83.3566 64.4961C82.9268 64.0906 82.4108 63.7722 81.8414 63.561C81.272 63.3498 80.6617 63.2504 80.0488 63.2692C79.4412 63.2202 78.8294 63.289 78.2519 63.471C77.6745 63.6529 77.1441 63.9442 76.6946 64.3263C76.245 64.7085 75.8862 65.1732 75.6407 65.6909C75.3951 66.2085 75.2682 66.7677 75.2682 67.3332C75.2682 67.8987 75.3951 68.4582 75.6407 68.9758C75.8862 69.4934 76.245 69.958 76.6946 70.3402C77.1441 70.7223 77.6745 71.0137 78.2519 71.1957C78.8294 71.3777 79.4412 71.4463 80.0488 71.3973C80.6764 71.3927 81.2958 71.2646 81.866 71.0214C82.4363 70.7782 82.9444 70.4253 83.3566 69.9863L85.0765 71.4892C84.4487 72.1609 83.671 72.6982 82.7971 73.0637C81.9233 73.4291 80.9742 73.6139 80.0157 73.6056C78.2216 73.6056 76.501 72.9449 75.2324 71.7686C73.9639 70.5922 73.2513 68.9968 73.2513 67.3332C73.2513 65.6697 73.9639 64.0742 75.2324 62.8979C76.501 61.7216 78.2216 61.0609 80.0157 61.0609H80.181Z" fill="#69747A"/>
<path id="Vector_11" fill-rule="evenodd" clip-rule="evenodd" d="M45.9454 61.429H50.5433C51.4176 61.3878 52.2921 61.5079 53.116 61.7824C53.9399 62.0569 54.6967 62.4803 55.3428 63.0281C55.989 63.5759 56.5116 64.2371 56.8801 64.9735C57.2485 65.7099 57.4557 66.5067 57.4896 67.3179C57.4896 71.428 54.1817 73.2683 50.0139 73.2376H45.9454V61.429ZM48.2278 63.2387C49.329 63.1656 50.4344 63.1656 51.5356 63.2387C52.579 63.391 53.5303 63.8813 54.2207 64.6225C54.9111 65.3638 55.2957 66.3079 55.3063 67.2872C55.3062 68.2549 54.938 69.1915 54.2664 69.9321C53.5947 70.6727 52.6628 71.1699 51.6347 71.336C50.5346 71.4332 49.427 71.4332 48.3269 71.336V63.1466L48.2278 63.2387Z" fill="#69747A"/>
<path id="Vector_12" fill-rule="evenodd" clip-rule="evenodd" d="M96.5547 61.6129V73.2376H102.641C106.313 73.2376 108.827 69.3116 104.593 67.2872C105.193 66.9445 105.659 66.4332 105.924 65.8275C106.188 65.2219 106.238 64.5536 106.064 63.9203C105.89 63.2869 105.503 62.7216 104.959 62.3065C104.415 61.8915 103.742 61.6485 103.038 61.6129H96.4224H96.5547ZM98.5724 68.1461H103.005C103.491 68.146 103.957 68.3228 104.303 68.6383C104.65 68.9538 104.849 69.3828 104.857 69.833C104.849 70.2832 104.65 70.7123 104.303 71.0278C103.957 71.3433 103.491 71.52 103.005 71.52H98.5724V68.1461ZM98.5724 63.2999H102.542C103.024 63.2999 103.487 63.4777 103.828 63.7941C104.169 64.1105 104.361 64.5394 104.361 64.9868C104.352 65.4289 104.157 65.8503 103.817 66.16C103.476 66.4698 103.019 66.6433 102.542 66.6432H98.5724V63.2999Z" fill="#69747A"/>
<path id="Vector_13" fill-rule="evenodd" clip-rule="evenodd" d="M109.157 73.1149H111.539L112.697 70.2932H118.783L119.908 73.0228H122.389L116.699 61.3063H114.814L109.157 73.1149ZM113.424 68.5448L115.343 63.8826H116.17L118.055 68.5448H113.424Z" fill="#69747A"/>
<path id="Vector_14" fill-rule="evenodd" clip-rule="evenodd" d="M125.035 72.9616H127.152V64.6801L133.867 72.9616H135.951V61.4596H133.999V69.6183L127.053 61.6436H125.134L125.035 72.9616Z" fill="#69747A"/>
<path id="Vector_15" fill-rule="evenodd" clip-rule="evenodd" d="M142.963 67.2566L143.492 67.1032L148.95 61.5516H151.365L146.536 66.5818L151.795 73.115H149.314L145.345 67.9314H144.584L142.963 69.5263V73.0536H140.747V61.3676H142.963V67.2566Z" fill="#69747A"/>
<path id="Vector_16" fill-rule="evenodd" clip-rule="evenodd" d="M21.5669 5.5444H28.1825V43.8538H21.5669V5.5444Z" fill="#231F20"/>
<path id="Vector_17" fill-rule="evenodd" clip-rule="evenodd" d="M61.2936 5.29907H70.2245C73.2366 5.29906 76.126 6.40653 78.259 8.37863C80.392 10.3507 81.5946 13.0265 81.6034 15.8196V33.5479C81.5946 36.341 80.392 39.0169 78.259 40.989C76.126 42.9611 73.2366 44.0686 70.2245 44.0686H61.2936V5.29907ZM67.6776 10.8507H69.4638C70.9464 10.8507 72.3683 11.3969 73.4166 12.369C74.465 13.3411 75.054 14.6595 75.054 16.0343V33.64C75.054 35.0176 74.4661 36.3392 73.4186 37.3162C72.3712 38.2932 70.9494 38.8462 69.4638 38.8543H67.5452V10.8507H67.6776Z" fill="#231F20"/>
<path id="Vector_18" fill-rule="evenodd" clip-rule="evenodd" d="M109.323 5.5444H115.938H127.979V10.912H115.938V21.5552H124.572V26.9228H115.938V43.8538H109.323V26.9228V21.5552V10.912V5.5444Z" fill="#231F20"/>
<path id="Vector_19" fill-rule="evenodd" clip-rule="evenodd" d="M165.39 5.36029H166.349C168.941 5.41638 171.406 6.41061 173.217 8.13021C175.028 9.84981 176.042 12.1582 176.041 14.5619V19.715H169.756V14.2553C169.761 13.7679 169.661 13.2845 169.464 12.8327C169.267 12.3808 168.976 11.9695 168.607 11.622C168.239 11.2745 167.8 10.9977 167.316 10.8075C166.832 10.6172 166.313 10.5174 165.787 10.5134C165.261 10.5174 164.742 10.6172 164.258 10.8075C163.774 10.9977 163.335 11.2745 162.966 11.622C162.598 11.9695 162.307 12.3808 162.109 12.8327C161.912 13.2845 161.813 13.7679 161.817 14.2553V35.7257C161.813 36.2131 161.912 36.6965 162.109 37.1483C162.307 37.6001 162.598 38.0115 162.966 38.359C163.335 38.7065 163.774 38.9833 164.258 39.1735C164.742 39.3637 165.261 39.4638 165.787 39.4678C166.313 39.4638 166.832 39.3637 167.316 39.1735C167.8 38.9833 168.239 38.7065 168.607 38.359C168.976 38.0115 169.267 37.6001 169.464 37.1483C169.661 36.6965 169.761 36.2131 169.756 35.7257V29.5913H176.041V35.0203C176.042 37.424 175.028 39.7324 173.217 41.452C171.406 43.1716 168.941 44.1659 166.349 44.2219H165.39C162.798 44.1659 160.333 43.1716 158.522 41.452C156.711 39.7324 155.697 37.424 155.698 35.0203V14.5926C155.697 12.1889 156.711 9.88051 158.522 8.16091C160.333 6.44132 162.798 5.44708 165.39 5.39099V5.36029Z" fill="#231F20"/>
</g>
<defs>
<clipPath id="clip0_4_1319">
<rect width="190" height="73.3369" fill="white" transform="translate(0 0.268799)"/>
</clipPath>
</defs>
</svg>
