<svg width="268" height="47" viewBox="0 0 268 47" fill="none" xmlns="http://www.w3.org/2000/svg">
<g clip-path="url(#clip0_4_1019)">
<path d="M26.3622 7.62939e-06L38.6768 11.524L37.543 12.6563L26.3806 2.20982C22.7581 5.81678 19.0895 9.37809 15.4578 12.985L14.278 11.8893C17.4119 8.79366 20.5551 5.72548 23.6799 2.62989C24.5924 1.78066 25.4681 0.885766 26.3622 7.62939e-06Z" fill="#013CC8"/>
<path d="M16.3243 13.6699C19.6979 10.3369 23.0992 7.04955 26.4636 3.7348C29.9048 6.93693 33.3429 10.1451 36.778 13.3594L35.6443 14.4917C32.5933 11.6336 29.5515 8.78452 26.482 5.94462L17.5041 14.7748L16.3243 13.6699Z" fill="#013CC8"/>
<path d="M18.2692 15.5053C20.9883 12.8389 23.7352 10.2091 26.4451 7.53352C29.2104 10.0812 31.9756 12.6563 34.7409 15.204C34.3538 15.5784 33.9759 15.9528 33.5979 16.3363C31.229 14.1356 28.8417 11.9532 26.482 9.75248C24.1223 12.0262 21.7811 14.3182 19.4306 16.6011C19.0434 16.2359 18.6655 15.8615 18.2692 15.5053Z" fill="#013CC8"/>
<path d="M100.969 11.7797C101.188 11.7143 101.419 11.6954 101.646 11.7242C101.873 11.753 102.092 11.8289 102.288 11.9469C102.483 12.0649 102.652 12.2224 102.782 12.4091C102.912 12.5959 103.001 12.8077 103.043 13.0307C103.177 13.4932 103.122 13.9897 102.889 14.412C102.656 14.8344 102.264 15.1486 101.799 15.2862C101.399 15.3478 100.99 15.2619 100.651 15.0447C100.311 14.8275 100.063 14.4943 99.955 14.1082C99.7867 13.6656 99.7984 13.1755 99.9875 12.7412C100.177 12.3069 100.528 11.9622 100.969 11.7797Z" fill="#013CC8"/>
<path d="M138.908 11.8527C140.227 11.7473 141.552 11.9474 142.78 12.4371C144.498 13.2509 145.837 14.6852 146.522 16.4459C147.158 18.1209 147.324 19.9356 147.001 21.6965C146.687 23.6473 145.688 25.4258 144.181 26.7188C143.237 27.4288 142.14 27.9135 140.976 28.1352C139.813 28.3569 138.613 28.3098 137.47 27.9973C135.769 27.5663 134.302 26.4994 133.378 25.0204C132.137 23.0368 131.666 20.6747 132.05 18.3726C132.308 16.6349 133.138 15.0301 134.41 13.8069C135.597 12.6069 137.213 11.918 138.908 11.8892V11.8527ZM138.908 12.6928C138.49 12.7906 138.098 12.9735 137.755 13.2297C137.412 13.4859 137.127 13.81 136.917 14.1813C136.304 15.2708 135.939 16.4801 135.848 17.7243C135.714 18.9372 135.689 20.1596 135.774 21.3769C135.812 22.6552 136.067 23.9179 136.53 25.1117C136.818 25.9105 137.366 26.5917 138.088 27.0476C138.74 27.3609 139.478 27.4569 140.19 27.3215C140.626 27.2163 141.033 27.0168 141.382 26.7374C141.731 26.458 142.013 26.1055 142.208 25.7053C142.826 24.4674 143.168 23.113 143.213 21.733C143.264 20.9333 143.264 20.1312 143.213 19.3314C143.23 18.1171 143.093 16.9054 142.807 15.7245C142.581 14.8049 142.098 13.9667 141.416 13.3046C141.068 13.0177 140.659 12.8127 140.22 12.7052C139.781 12.5976 139.323 12.5903 138.881 12.6837L138.908 12.6928Z" fill="#013CC8"/>
<path d="M35.0543 16.0715C36.4738 14.7383 37.8196 13.3321 39.2114 11.9897C43.3101 15.8432 47.415 19.6876 51.526 23.5228L50.4015 24.6369C46.6776 21.173 42.9629 17.7 39.2575 14.2178C35.5705 17.7791 31.9572 21.3952 28.2978 24.9839C27.9107 24.6095 27.5236 24.2442 27.1272 23.8881C29.7726 21.2856 32.4273 18.6831 35.0543 16.0715Z" fill="#013CC8"/>
<path d="M66.652 12.0354H74.2196V12.4828C73.942 12.3862 73.6428 12.3676 73.3552 12.4291C73.0676 12.4905 72.8027 12.6296 72.5899 12.831C72.3772 13.0323 72.2247 13.288 72.1496 13.5699C72.0744 13.8517 72.0795 14.1486 72.1641 14.4278C72.1641 18.19 72.1641 21.9522 72.1641 25.7053C72.1641 26.1892 72.1641 26.7828 72.5881 27.1024C73.0714 27.4103 73.6523 27.5306 74.2196 27.4403V27.8694H66.652V27.4403C67.2234 27.5285 67.8076 27.4049 68.2928 27.0933C68.7352 26.6732 68.6615 26.0066 68.7076 25.4587C68.7076 22.8288 68.7076 20.199 68.7076 17.5782C68.7076 16.382 68.7076 15.1857 68.7076 13.9986C68.7281 13.7998 68.7068 13.599 68.6449 13.4088C68.5831 13.2186 68.482 13.0432 68.3481 12.8937C68.113 12.7161 67.8437 12.5879 67.5568 12.5173C67.2699 12.4466 66.9714 12.4349 66.6797 12.4828V12.0354H66.652Z" fill="#013CC8"/>
<path d="M92.3874 12.0354H96.8026V24.9382C96.7699 25.4221 96.8261 25.9079 96.9685 26.3719C97.1437 26.7645 97.6137 26.8284 97.9917 26.9015V27.3124C96.6182 27.5864 95.2264 27.8968 93.8806 28.1799C93.8806 27.6137 93.8806 27.0476 93.8806 26.4723C93.4608 27.1132 92.8836 27.6379 92.203 27.9973C91.604 28.2072 90.9547 28.2323 90.3409 28.0693C89.7271 27.9063 89.1777 27.5628 88.7649 27.0841C87.7508 25.8605 87.226 24.3103 87.2901 22.7284C87.238 21.2185 87.6252 19.7255 88.4054 18.4274C88.77 17.8329 89.3016 17.3566 89.9351 17.0565C90.5686 16.7565 91.2766 16.6458 91.9726 16.7381C92.7492 16.9315 93.4336 17.3868 93.9083 18.0256C93.9083 16.7381 93.9083 15.4597 93.9083 14.1721C93.9561 13.7175 93.8384 13.2609 93.5764 12.8846C93.2907 12.5559 92.8114 12.5924 92.4151 12.5559V12.0354H92.3874ZM91.6869 17.8339C91.0048 18.053 90.7651 18.8201 90.6176 19.4228C90.3535 20.9644 90.31 22.5353 90.4886 24.089C90.5421 24.8059 90.7495 25.5033 91.097 26.1344C91.1783 26.3035 91.301 26.4496 91.454 26.5597C91.6069 26.6697 91.7852 26.7401 91.9726 26.7645C92.269 26.7661 92.5603 26.689 92.8165 26.5413C93.0726 26.3935 93.2841 26.1805 93.429 25.9244C93.7202 25.6241 93.899 25.2343 93.9359 24.8195C93.9359 23.258 93.9359 21.7057 93.9359 20.1533C93.9974 19.7838 93.9325 19.4046 93.7516 19.0758C93.2999 18.4274 92.5533 17.6512 91.6592 17.843L91.6869 17.8339Z" fill="#013CC8"/>
<path d="M219.092 12.0354H223.074C224.744 11.9928 226.414 12.0416 228.079 12.1815C228.981 12.263 229.83 12.6387 230.494 13.2498C230.879 13.6307 231.182 14.0855 231.383 14.5865C231.584 15.0874 231.68 15.6238 231.664 16.1628C231.66 16.6447 231.538 17.1184 231.311 17.5442C231.083 17.9701 230.755 18.3356 230.356 18.6101C229.722 19.0229 229.024 19.3313 228.291 19.5232C229.146 19.7294 229.968 20.052 230.733 20.482C231.183 20.7709 231.558 21.1585 231.832 21.6146C232.105 22.0707 232.269 22.583 232.31 23.1119C232.377 23.7274 232.311 24.3501 232.116 24.9382C231.74 25.9044 231.009 26.6938 230.07 27.148C229.045 27.6331 227.924 27.8887 226.788 27.8968H219.092V27.4676C219.664 27.5464 220.245 27.4131 220.723 27.0933C220.881 26.9054 220.998 26.6883 221.07 26.4546C221.141 26.2209 221.164 25.9754 221.138 25.7327C221.138 21.87 221.138 17.9982 221.138 14.1356C221.19 13.7135 221.074 13.288 220.815 12.9485C220.332 12.5982 219.732 12.4446 219.138 12.5193V12.0354H219.092ZM224.539 12.9485C224.539 14.2817 224.539 15.6058 224.539 16.939C224.539 17.6969 224.456 18.4548 224.484 19.2127C225.374 19.3012 226.27 19.1026 227.037 18.6466C227.413 18.3575 227.711 17.9815 227.905 17.5516C228.1 17.1217 228.185 16.6511 228.153 16.1811C228.206 15.7149 228.15 15.2428 227.991 14.8011C227.831 14.3594 227.571 13.96 227.231 13.6334C226.443 13.1127 225.501 12.8714 224.558 12.9485H224.539ZM224.502 20.1168C224.502 21.9431 224.502 23.7694 224.502 25.5957C224.495 25.9118 224.564 26.2251 224.705 26.5088C224.796 26.6475 224.92 26.7613 225.066 26.8395C225.213 26.9178 225.377 26.958 225.544 26.9563C226.015 26.98 226.483 26.8842 226.906 26.6781C227.329 26.4719 227.691 26.1622 227.959 25.7783C228.546 24.8379 228.738 23.7069 228.494 22.6279C228.445 22.1846 228.291 21.7589 228.047 21.3847C227.802 21.0104 227.472 20.6982 227.083 20.4729C226.269 20.1569 225.394 20.0198 224.521 20.0711L224.502 20.1168Z" fill="#013CC8"/>
<path d="M256.515 12.0354H260.534C260.534 15.4962 260.534 18.9571 260.534 22.4179C261.363 21.5048 262.138 20.5916 262.976 19.6784C263.367 19.3347 263.652 18.8883 263.797 18.3909C263.837 18.2561 263.837 18.1125 263.796 17.9779C263.755 17.8432 263.675 17.7233 263.566 17.633C263.284 17.4699 262.97 17.3672 262.645 17.3316C262.645 17.1947 262.645 17.0577 262.645 16.9299H267.124V17.3316C266.638 17.3627 266.173 17.5377 265.788 17.8339C264.822 18.6811 263.919 19.5967 263.087 20.5733C264.212 22.3997 265.29 24.2716 266.461 26.0523C266.82 26.6184 267.207 27.2941 267.954 27.3763V27.7781H262.857V27.3763C263.096 27.3307 263.41 27.285 263.493 27.0111C263.468 26.647 263.336 26.298 263.115 26.0066L261.124 22.7375L260.488 23.4224C260.432 24.5474 260.478 25.6751 260.626 26.7919C260.737 27.2028 261.216 27.3033 261.548 27.3763C261.539 27.5101 261.539 27.6443 261.548 27.7781H256.432V27.3763C256.81 27.2941 257.298 27.1754 257.409 26.7462C257.523 25.9755 257.563 25.1959 257.529 24.4177V14.5374C257.552 14.0207 257.496 13.5034 257.363 13.0033C257.216 12.638 256.773 12.5741 256.441 12.4737C256.441 12.3276 256.441 12.1906 256.441 12.0445L256.515 12.0354Z" fill="#013CC8"/>
<path d="M7.65975 17.8795C9.50325 16.0532 11.3468 14.2269 13.1903 12.4006C17.2951 16.2541 21.4 20.0985 25.5049 23.9338L24.3712 25.0569L13.2179 14.6196C11.0426 16.7564 8.84881 18.884 6.68269 21.0116C5.18945 22.427 3.76074 23.9246 2.25828 25.34C1.88036 24.9748 1.484 24.6186 1.09686 24.2534C2.36888 22.9841 3.66857 21.7422 4.94059 20.4729C5.85313 19.6419 6.73799 18.7379 7.65975 17.8795Z" fill="#013CC8"/>
<path d="M29.1735 25.6505C32.5533 22.3449 35.9331 19.0453 39.3128 15.7519C39.6376 15.9994 39.9455 16.2678 40.2346 16.5555C43.3778 19.4867 46.5025 22.427 49.6549 25.3491C49.277 25.7235 48.8991 26.1071 48.5119 26.4814C45.4794 23.6233 42.4191 20.7925 39.3773 17.9343C36.3724 20.8686 33.3675 23.8059 30.3626 26.7462C29.9478 26.3901 29.5607 26.0157 29.1735 25.6505Z" fill="#013CC8"/>
<path d="M13.3286 16.1354C16.7575 19.3588 20.2048 22.5275 23.643 25.7783C23.2558 26.1436 22.8872 26.5271 22.5 26.8923L13.347 18.3544C10.3513 21.2947 7.33717 24.2168 4.33225 27.1572C3.96355 26.7828 3.53032 26.4632 3.19849 26.0523C5.64113 23.5868 8.16674 21.2126 10.6278 18.747C11.5404 17.9069 12.4068 16.9938 13.3286 16.1354Z" fill="#013CC8"/>
<path d="M79.2985 18.4274C79.6238 17.9415 80.0537 17.5331 80.5573 17.2315C81.061 16.9299 81.6258 16.7427 82.2113 16.6833C82.7157 16.6646 83.2132 16.8047 83.6322 17.0836C84.0512 17.3626 84.3702 17.7659 84.5433 18.2357C84.8101 19.0797 84.9224 19.9641 84.8751 20.8473V25.8422C84.8691 26.2387 84.9282 26.6334 85.0503 27.0111C85.2162 27.3489 85.631 27.4128 85.972 27.495V27.8968H80.9485V27.495C81.1089 27.4709 81.2627 27.4148 81.4005 27.33C81.5384 27.2452 81.6574 27.1336 81.7504 27.0019C81.9048 26.597 81.9738 26.165 81.9532 25.7326C81.9532 23.8516 81.9532 21.9704 81.9532 20.0985C82.005 19.5486 81.8825 18.9965 81.6029 18.5187C81.4678 18.3822 81.2928 18.2911 81.1026 18.2583C80.9124 18.2255 80.7166 18.2527 80.5429 18.3361C80.0325 18.6119 79.6229 19.0401 79.3723 19.5597C79.298 19.7259 79.2694 19.9087 79.2893 20.0894C79.2893 22.0435 79.2893 23.9976 79.2893 25.9518C79.28 26.3164 79.3426 26.6793 79.4736 27.0202C79.5619 27.1527 79.6788 27.2641 79.8159 27.3462C79.9531 27.4284 80.1069 27.4792 80.2664 27.495V27.8968H75.2428V27.495C75.6115 27.4128 76.0539 27.3215 76.2199 26.938C76.3057 26.5791 76.346 26.211 76.3397 25.8422V19.8793C76.3755 19.268 76.3352 18.6546 76.2199 18.053C76.1092 17.6147 75.6207 17.5325 75.252 17.4321C75.252 17.2951 75.252 17.1581 75.252 17.0303H79.2985C79.2985 17.5051 79.2985 17.9435 79.2985 18.464V18.4274Z" fill="#013CC8"/>
<path d="M106.942 17.5599C107.981 16.8922 109.208 16.5721 110.445 16.6468C111.274 16.6547 112.067 16.9822 112.657 17.5599C112.927 17.7867 113.148 18.0655 113.307 18.3794C113.465 18.6934 113.558 19.0359 113.579 19.3862C113.652 21.1578 113.579 22.9293 113.579 24.7008C113.542 25.2014 113.57 25.7047 113.661 26.1984C113.661 26.3993 113.947 26.4267 114.095 26.5362C114.261 26.381 114.417 26.2258 114.574 26.0614L114.869 26.3353C114.517 27.044 113.918 27.6021 113.182 27.906C112.834 28.0226 112.461 28.0452 112.101 27.9713C111.742 27.8975 111.408 27.73 111.136 27.4859C110.855 27.1287 110.676 26.7027 110.62 26.2532C109.976 26.9281 109.197 27.463 108.334 27.8238C108.013 27.9579 107.665 28.0154 107.317 27.9916C106.97 27.9678 106.633 27.8634 106.334 27.6868C105.968 27.4169 105.691 27.0454 105.538 26.6195C105.386 26.1936 105.364 25.7324 105.476 25.2943C105.674 24.4022 106.208 23.6184 106.97 23.1028C108.133 22.2741 109.366 21.5469 110.657 20.9295C110.695 20.0593 110.646 19.1874 110.509 18.327C110.4 18.117 110.243 17.935 110.05 17.7954C109.858 17.6558 109.635 17.5624 109.4 17.5225C109.165 17.4827 108.924 17.4975 108.696 17.5658C108.468 17.6341 108.258 17.754 108.085 17.9161C107.999 17.986 107.936 18.0801 107.905 18.186C107.873 18.2919 107.875 18.4047 107.91 18.5096C108.094 18.9205 108.481 19.2402 108.564 19.6967C108.597 19.894 108.585 20.096 108.53 20.2882C108.474 20.4804 108.377 20.658 108.243 20.8082C108.11 20.9585 107.945 21.0776 107.76 21.157C107.575 21.2364 107.374 21.274 107.172 21.2673C106.772 21.2772 106.384 21.1303 106.092 20.8585C105.801 20.5867 105.629 20.2119 105.615 19.8154C105.633 19.3558 105.764 18.9074 105.995 18.5083C106.226 18.1093 106.551 17.7714 106.942 17.5234V17.5599ZM108.325 24.4908C108.214 25.1209 108.601 26.0249 109.357 25.9975C109.854 25.9694 110.321 25.7498 110.657 25.3857C110.657 24.1712 110.657 22.9475 110.657 21.733C109.548 22.3074 108.713 23.2918 108.334 24.4725L108.325 24.4908Z" fill="#013CC8"/>
<path d="M121.939 16.8203C122.371 16.6533 122.842 16.6093 123.298 16.6932C123.754 16.7771 124.177 16.9856 124.52 17.2951C124.845 17.658 125.094 18.0816 125.253 18.541C125.411 19.0003 125.475 19.4864 125.442 19.9707C125.442 21.5595 125.442 23.1393 125.442 24.7282C125.395 25.4615 125.441 26.1978 125.58 26.9197C125.718 27.3124 126.179 27.3946 126.502 27.4768V27.8786H121.589V27.4768C121.75 27.4526 121.905 27.3955 122.043 27.309C122.181 27.2226 122.299 27.1087 122.391 26.9745C122.532 26.6011 122.601 26.2045 122.593 25.8057C122.593 24.1529 122.593 22.491 122.593 20.829C122.615 20.1902 122.572 19.5508 122.464 18.9205C122.407 18.6993 122.269 18.5072 122.076 18.3821C121.883 18.257 121.65 18.208 121.423 18.2448C121.087 18.3636 120.781 18.5533 120.526 18.8009C120.271 19.0484 120.074 19.3479 119.948 19.6784C119.893 21.3586 119.948 23.048 119.948 24.7282C119.89 25.468 119.94 26.2122 120.095 26.938C120.177 27.0896 120.296 27.2184 120.441 27.3126C120.586 27.4067 120.752 27.4632 120.925 27.4768V27.8786H115.911C115.911 27.7416 115.911 27.6046 115.911 27.4768C116.279 27.3946 116.731 27.3033 116.888 26.9106C116.974 26.5519 117.015 26.1837 117.007 25.8148V19.8611C117.043 19.2497 117.003 18.6364 116.888 18.0348C116.786 17.5965 116.289 17.5143 115.966 17.4138C115.966 17.2769 115.966 17.1399 115.966 17.012H120.012C120.012 17.4869 120.012 17.9252 120.012 18.4457C120.539 17.748 121.241 17.2 122.049 16.8568L121.939 16.8203Z" fill="#013CC8"/>
<path d="M161.694 17.3773C162.125 17.0575 162.623 16.8373 163.151 16.733C163.679 16.6287 164.223 16.6429 164.745 16.7746C165.592 17.0722 166.304 17.6579 166.755 18.4274C167.37 19.5476 167.687 20.8047 167.676 22.08H162.146C162.134 23.4107 162.594 24.7032 163.445 25.7327C163.706 26.0359 164.053 26.2546 164.441 26.3604C164.829 26.4663 165.24 26.4543 165.621 26.3262C166.355 25.975 166.942 25.3807 167.28 24.646L167.649 24.9656C167.289 25.8206 166.767 26.5989 166.109 27.2576C165.357 27.9119 164.377 28.2516 163.377 28.2057C162.377 28.1597 161.433 27.7315 160.745 27.0111C159.603 25.493 159.112 23.5894 159.38 21.7148C159.418 20.8753 159.639 20.0538 160.027 19.3067C160.415 18.5596 160.962 17.9045 161.63 17.3864L161.694 17.3773ZM162.726 18.053C162.229 19.0462 162.003 20.1515 162.072 21.2582H165.049C165.091 20.2887 164.982 19.3187 164.727 18.3818C164.552 17.9526 164.22 17.423 163.676 17.4686C163.482 17.4696 163.293 17.525 163.129 17.6285C162.966 17.7319 162.836 17.8792 162.754 18.053H162.726Z" fill="#013CC8"/>
<path d="M174.645 17.3134C175.1 16.888 175.706 16.6582 176.332 16.6742C176.621 16.7013 176.892 16.8288 177.096 17.0343C177.3 17.2397 177.424 17.51 177.447 17.7974C177.557 18.366 177.442 18.9548 177.124 19.441C176.987 19.6141 176.799 19.7417 176.587 19.807C176.375 19.8722 176.147 19.872 175.935 19.8063C175.484 19.6967 175.225 19.2767 174.857 19.0393C174.488 18.8018 174.165 19.0393 173.935 19.3223C173.398 20.081 173.1 20.9802 173.078 21.9065C173.013 23.2124 173.078 24.5182 173.078 25.824C172.998 26.2853 173.101 26.7592 173.364 27.148C173.652 27.3695 174.013 27.4798 174.377 27.4585C174.368 27.5984 174.368 27.7387 174.377 27.8786H169.059V27.4768C169.446 27.4037 169.981 27.2759 169.981 26.8102C170.1 26.0124 170.147 25.2055 170.119 24.3995C170.119 22.6279 170.119 20.8656 170.119 19.094C170.143 18.6432 170.061 18.193 169.879 17.7791C169.704 17.4869 169.326 17.4686 169.031 17.3773C169.031 17.2403 169.031 17.1034 169.031 16.9755H172.976C173.022 17.7882 173.05 18.6101 173.032 19.4319C173.45 18.6487 173.988 17.9341 174.626 17.3134H174.645Z" fill="#013CC8"/>
<path d="M179.364 17.6604C179.655 17.3088 180.03 17.0346 180.455 16.8624C180.88 16.6903 181.341 16.6256 181.798 16.6742C182.469 16.7562 183.114 16.9838 183.687 17.3408C183.981 17.2052 184.22 16.9773 184.369 16.6925H184.701C184.812 17.9252 184.775 19.1671 184.885 20.409H184.498C184.205 19.5008 183.688 18.6788 182.996 18.0165C182.789 17.8164 182.533 17.6732 182.254 17.6011C181.974 17.529 181.68 17.5306 181.401 17.6056C181.199 17.6937 181.028 17.8402 180.912 18.0259C180.795 18.2116 180.737 18.428 180.747 18.6466C180.773 18.9411 180.915 19.2134 181.143 19.4045C182.065 20.3177 183.153 20.9477 184.056 21.8244C184.693 22.3361 185.136 23.048 185.309 23.8424C185.457 24.5329 185.41 25.2503 185.172 25.9157C184.935 26.5811 184.517 27.1687 183.964 27.6138C183.58 27.8882 183.136 28.0693 182.669 28.1423C182.201 28.2153 181.723 28.1781 181.272 28.0338C180.802 27.9151 180.35 27.6777 179.917 27.559C179.484 27.4403 179.41 27.8786 179.244 28.1069H178.912C178.82 26.8102 178.774 25.5044 178.71 24.2077H179.078C179.327 25.128 179.828 25.9624 180.526 26.6184C180.736 26.8282 180.988 26.993 181.265 27.103C181.543 27.2129 181.84 27.2655 182.139 27.2576C182.351 27.2298 182.551 27.1418 182.715 27.0041C182.878 26.8664 182.998 26.685 183.06 26.4815C183.133 26.2279 183.138 25.9601 183.075 25.704C183.012 25.4479 182.883 25.2124 182.701 25.0204C182.077 24.4421 181.419 23.9023 180.728 23.4041C180.049 22.9231 179.467 22.3189 179.014 21.6235C178.673 20.9949 178.525 20.2811 178.589 19.5703C178.653 18.8595 178.926 18.1829 179.373 17.6239L179.364 17.6604Z" fill="#013CC8"/>
<path d="M189.162 17.3773C189.595 17.0579 190.094 16.8381 190.624 16.7338C191.153 16.6295 191.699 16.6435 192.223 16.7746C193.04 17.049 193.736 17.594 194.195 18.3179C194.858 19.4491 195.201 20.7357 195.191 22.0435H189.66C189.671 23.0943 189.943 24.1261 190.453 25.0478C190.774 25.6551 191.313 26.1211 191.965 26.3536C192.297 26.4456 192.649 26.4493 192.984 26.3644C193.319 26.2795 193.625 26.1088 193.873 25.8696C194.231 25.4986 194.54 25.0845 194.794 24.6369L195.154 24.9565C194.796 25.815 194.273 26.5965 193.614 27.2576C193.231 27.589 192.785 27.8421 192.303 28.0026C191.82 28.1632 191.311 28.2279 190.803 28.1931C190.295 28.1583 189.8 28.0247 189.344 27.8C188.889 27.5752 188.482 27.2637 188.148 26.8832C187.048 25.31 186.606 23.3759 186.913 21.4865C186.973 20.6857 187.201 19.9061 187.584 19.1982C187.966 18.4903 188.495 17.87 189.135 17.3773H189.162ZM190.232 18.0439C189.737 19.038 189.511 20.1425 189.577 21.2491H192.564C192.605 20.2796 192.496 19.3095 192.241 18.3726C192.066 17.9435 191.743 17.4595 191.199 17.4595C191.003 17.4581 190.81 17.5123 190.643 17.6159C190.477 17.7194 190.344 17.8679 190.259 18.0439H190.232Z" fill="#013CC8"/>
<path d="M197.79 17.8065C198.587 17.1854 199.546 16.8021 200.555 16.7016C201.52 16.5431 202.51 16.7104 203.367 17.1764C203.851 17.4944 204.247 17.9277 204.519 18.4366C204.721 19.0235 204.809 19.6434 204.777 20.2629C204.777 21.7787 204.777 23.2945 204.777 24.8286C204.749 25.2929 204.777 25.7588 204.86 26.2166C204.86 26.4267 205.146 26.4541 205.302 26.5636L205.772 26.0888L206.067 26.3719C205.713 27.0982 205.088 27.6608 204.325 27.9425C203.996 28.0425 203.648 28.0607 203.31 27.9954C202.972 27.9301 202.656 27.7833 202.39 27.5681C202.076 27.2045 201.88 26.7559 201.827 26.2806C201.181 26.9527 200.403 27.4872 199.541 27.8512C199.232 27.9773 198.898 28.0346 198.563 28.0188C198.229 28.003 197.902 27.9146 197.606 27.7599C197.301 27.5608 197.051 27.2895 196.879 26.9706C196.707 26.6517 196.617 26.2952 196.619 25.9336C196.615 25.2555 196.836 24.5949 197.246 24.0525C197.702 23.4897 198.254 23.0106 198.878 22.6371C199.841 22.0276 200.835 21.4669 201.855 20.9569C201.855 20.3359 201.855 19.7058 201.855 19.1306C201.87 18.9194 201.841 18.7073 201.77 18.5077C201.699 18.3081 201.586 18.1253 201.44 17.9709C201.172 17.7464 200.838 17.6136 200.488 17.5923C200.137 17.5709 199.789 17.662 199.495 17.8521C199.265 18.0074 199.016 18.2813 199.136 18.5735C199.256 18.8657 199.716 19.3223 199.799 19.7972C199.828 19.9928 199.812 20.1921 199.755 20.3813C199.697 20.5706 199.599 20.7451 199.467 20.8928C199.334 21.0406 199.171 21.158 198.988 21.2368C198.805 21.3157 198.607 21.3542 198.408 21.3495C198.006 21.3595 197.617 21.2128 197.324 20.9412C197.031 20.6696 196.857 20.2948 196.841 19.8976C196.852 19.5045 196.948 19.1184 197.123 18.7655C197.298 18.4125 197.547 18.101 197.855 17.8521L197.79 17.8065ZM199.864 23.7329C199.707 23.9617 199.605 24.2228 199.565 24.4965C199.525 24.7701 199.549 25.0492 199.634 25.3126C199.682 25.5062 199.786 25.6817 199.934 25.8179C200.081 25.954 200.265 26.045 200.463 26.0797C200.732 26.0884 200.999 26.0372 201.244 25.9297C201.49 25.8222 201.708 25.6612 201.883 25.4587C201.883 24.2442 201.883 23.0297 201.883 21.8061C201.046 22.2592 200.332 22.9043 199.799 23.6872L199.864 23.7329Z" fill="#013CC8"/>
<path d="M208.04 17.5143C208.334 17.2007 208.698 16.9597 209.103 16.8106C209.508 16.6616 209.943 16.6086 210.372 16.6559C211.029 16.7407 211.658 16.9683 212.215 17.3225C212.509 17.187 212.749 16.959 212.898 16.6742H213.229C213.34 17.9069 213.303 19.1488 213.404 20.3907H213.027C212.727 19.488 212.211 18.6703 211.524 18.0074C211.316 17.8065 211.059 17.6629 210.777 17.5908C210.496 17.5187 210.201 17.5207 209.92 17.5965C209.77 17.6605 209.636 17.7582 209.53 17.8819C209.425 18.0055 209.349 18.1518 209.31 18.3093C209.27 18.4668 209.268 18.6311 209.304 18.7894C209.34 18.9478 209.412 19.0958 209.515 19.2219C210.667 20.5186 212.344 21.2582 213.368 22.6827C213.794 23.4057 213.974 24.2454 213.881 25.0776C213.788 25.9097 213.427 26.6901 212.851 27.3033C212.484 27.6646 212.029 27.9253 211.53 28.0597C211.03 28.1942 210.504 28.1979 210.003 28.0703C209.469 27.9608 208.98 27.7051 208.464 27.5498C208.104 27.4585 207.939 27.8694 207.773 28.0977H207.441C207.349 26.801 207.312 25.4952 207.238 24.1986H207.607C207.858 25.118 208.358 25.9517 209.054 26.6093C209.264 26.8195 209.516 26.9846 209.793 27.0946C210.071 27.2045 210.368 27.2569 210.667 27.2485C210.944 27.2062 211.195 27.0647 211.373 26.8509C211.552 26.6372 211.645 26.366 211.635 26.0888C211.64 25.8781 211.601 25.6685 211.52 25.4735C211.439 25.2786 211.318 25.1025 211.165 24.9565C210.565 24.3447 209.837 23.8881 209.183 23.3402C208.475 22.8481 207.884 22.2093 207.45 21.4682C207.139 20.8237 207.026 20.1031 207.124 19.3954C207.222 18.6878 207.528 18.0242 208.003 17.4869L208.04 17.5143Z" fill="#013CC8"/>
<path d="M235.269 17.8521C236.06 17.2137 237.02 16.8143 238.034 16.7016C238.982 16.5529 239.954 16.7165 240.799 17.1673C241.286 17.486 241.683 17.923 241.951 18.4366C242.158 19.0225 242.246 19.6432 242.209 20.2629C242.209 21.9979 242.209 23.7328 242.209 25.477C242.2 25.7232 242.228 25.9695 242.292 26.2075C242.338 26.4084 242.578 26.4358 242.725 26.5454C242.891 26.3901 243.048 26.2349 243.205 26.0705L243.5 26.3536C243.143 27.0782 242.519 27.6401 241.758 27.9242C241.429 28.0251 241.08 28.0437 240.742 27.9783C240.405 27.913 240.088 27.7658 239.822 27.5498C239.504 27.188 239.305 26.7389 239.251 26.2623C238.609 26.9393 237.83 27.4745 236.965 27.8329C236.67 27.9506 236.354 28.0065 236.037 27.997C235.72 27.9876 235.408 27.913 235.121 27.7781C234.893 27.6432 234.694 27.4648 234.535 27.2532C234.377 27.0416 234.263 26.801 234.199 26.5454C234.01 25.8024 234.122 25.0153 234.513 24.3538C234.998 23.6041 235.655 22.9784 236.43 22.5275C237.368 21.9343 238.337 21.3917 239.333 20.9021C239.333 20.2811 239.333 19.651 239.333 19.021C239.347 18.8078 239.317 18.5941 239.244 18.393C239.171 18.192 239.057 18.0079 238.909 17.8521C238.654 17.6446 238.34 17.5195 238.011 17.4934C237.681 17.4673 237.352 17.5414 237.066 17.706C236.799 17.8521 236.522 18.1444 236.642 18.464C236.762 18.7836 237.223 19.2127 237.306 19.6876C237.334 19.8848 237.318 20.0857 237.26 20.2763C237.201 20.4669 237.101 20.6424 236.967 20.7905C236.832 20.9385 236.667 21.0555 236.482 21.1332C236.296 21.2109 236.096 21.2473 235.895 21.2399C235.517 21.2431 235.151 21.1094 234.866 20.8638C234.581 20.6183 234.396 20.2779 234.347 19.9067C234.336 19.5084 234.412 19.1126 234.572 18.7467C234.731 18.3808 234.969 18.0537 235.269 17.7882V17.8521ZM237.112 24.0707C236.968 24.3834 236.938 24.7356 237.025 25.0681C237.112 25.4006 237.312 25.6933 237.591 25.897C237.893 25.9957 238.219 26.0006 238.523 25.9108C238.828 25.821 239.098 25.6409 239.297 25.3948C239.37 24.1712 239.297 22.9475 239.297 21.7422C238.343 22.2963 237.588 23.1331 237.14 24.1346L237.112 24.0707Z" fill="#013CC8"/>
<path d="M250.634 16.8203C251.066 16.6533 251.537 16.6093 251.993 16.6932C252.449 16.7771 252.872 16.9856 253.215 17.2951C253.539 17.6569 253.788 18.079 253.946 18.5367C254.104 18.9944 254.169 19.4787 254.137 19.9615C254.137 21.9522 254.137 23.9429 254.137 25.9244C254.136 26.2898 254.192 26.6532 254.303 27.0019C254.478 27.3307 254.893 27.3946 255.224 27.4768V27.8786H250.201C250.201 27.7416 250.201 27.6137 250.201 27.4768C250.406 27.458 250.602 27.382 250.765 27.2575C250.928 27.1331 251.052 26.9653 251.123 26.7737C251.25 25.7011 251.29 24.62 251.242 23.5411C251.242 22.1714 251.243 20.8016 251.196 19.4319C251.215 19.1917 251.159 18.9516 251.038 18.743C250.916 18.5345 250.734 18.3672 250.514 18.2631C250.228 18.2263 249.938 18.2722 249.678 18.3953C249.418 18.5185 249.199 18.7136 249.049 18.957C248.837 19.2584 248.542 19.5597 248.579 19.9615V25.1665C248.535 25.761 248.585 26.3586 248.726 26.938C248.81 27.0892 248.931 27.2175 249.077 27.3115C249.224 27.4055 249.391 27.4622 249.565 27.4768C249.556 27.6105 249.556 27.7448 249.565 27.8786H244.541C244.541 27.7416 244.541 27.6046 244.541 27.4768C244.929 27.3946 245.463 27.2759 245.537 26.8467C245.644 26.1459 245.678 25.4359 245.638 24.7282V19.8519C245.674 19.2406 245.634 18.6273 245.518 18.0256C245.408 17.5964 244.919 17.5143 244.551 17.4047C244.551 17.2769 244.551 17.1399 244.551 17.012H248.597C248.597 17.4869 248.597 17.9252 248.597 18.4457C249.124 17.7486 249.826 17.2007 250.634 16.8568V16.8203Z" fill="#013CC8"/>
<path d="M98.8305 16.9755H102.96C102.96 19.9159 102.96 22.8654 102.96 25.8148C102.94 26.2429 103.016 26.67 103.181 27.0659C103.384 27.3855 103.799 27.4129 104.103 27.4676V27.8786H98.7936V27.4676C98.9955 27.4711 99.1952 27.4255 99.3752 27.3347C99.5552 27.244 99.71 27.1109 99.826 26.9471C99.9377 26.6178 99.9907 26.2717 99.9826 25.9244C99.9826 23.5776 99.9826 21.2308 99.9826 18.884C99.9994 18.4917 99.9137 18.1017 99.7338 17.7517C99.4727 17.5345 99.1513 17.4008 98.812 17.3682L98.8305 16.9755Z" fill="#013CC8"/>
<path d="M148.052 16.9755H153.306C153.306 17.1034 153.306 17.2312 153.306 17.3682C153.102 17.3595 152.9 17.4185 152.733 17.5359C152.566 17.6533 152.444 17.8224 152.384 18.0165C152.388 18.5596 152.511 19.0954 152.744 19.5871C153.297 20.9751 153.822 22.3722 154.403 23.7511H154.495C154.836 22.9658 155.085 22.1531 155.417 21.3586C155.824 20.412 156.133 19.4268 156.339 18.4183C156.379 18.2441 156.363 18.0617 156.291 17.8974C156.22 17.7332 156.098 17.5958 155.942 17.5051C155.725 17.4239 155.499 17.3657 155.269 17.3316V16.939H158.459C158.459 17.0668 158.459 17.2038 158.459 17.3316C158.104 17.4186 157.795 17.6335 157.592 17.9343C157.208 18.6366 156.884 19.3697 156.624 20.1259C155.611 22.8014 154.56 25.477 153.555 28.1616H153.076C152.154 25.8148 151.232 23.4772 150.31 21.1304C149.936 20.0915 149.505 19.0734 149.02 18.0804C148.924 17.9012 148.793 17.7426 148.635 17.6141C148.477 17.4855 148.294 17.3895 148.098 17.3316V16.939L148.052 16.9755Z" fill="#013CC8"/>
<path d="M34.4459 24.2625L39.3128 19.5323C42.078 22.0892 44.8433 24.6643 47.6086 27.2211C47.2214 27.5864 46.8251 27.9516 46.4472 28.326C44.0875 26.1253 41.7001 23.9429 39.3404 21.7422C36.9807 24.0159 34.6487 26.3079 32.2983 28.5817C31.8927 28.2256 31.5055 27.8512 31.1184 27.4768C32.2522 26.4358 33.3306 25.3218 34.4459 24.2625Z" fill="#013CC8"/>
<path d="M5.10651 27.9151C7.82568 25.2487 10.5817 22.6188 13.2825 19.9433C16.0477 22.4818 18.813 25.0661 21.5782 27.6137C21.2095 27.9973 20.8224 28.3717 20.4445 28.746C18.0664 26.5423 15.6852 24.3447 13.3009 22.1531C10.9873 24.4634 8.60917 26.7188 6.28635 29.0017L5.10651 27.9151Z" fill="#013CC8"/>
<path d="M0 25.3948C4.46129 29.2848 8.94101 33.1749 13.3931 37.074C17.5041 33.3179 21.6059 29.5648 25.6985 25.8148C25.6524 26.5362 25.763 27.2576 25.6985 27.979L13.3839 39.2108C9.00553 35.3847 4.64565 31.5312 0.267317 27.6959C0.165924 27.5863 0.00921642 27.4859 0.0276515 27.3215C0.0553041 26.6458 0.0184351 26.034 0 25.3948Z" fill="#013CC8"/>
<path d="M26.9705 25.5774C31.4042 29.4309 35.8931 33.2388 40.3544 37.0649C44.3302 33.254 48.2999 29.4401 52.2635 25.6231C52.2635 26.3445 52.3187 27.0659 52.3372 27.7781C48.3829 31.6134 44.3824 35.3938 40.4097 39.2199C35.9668 35.3573 31.5055 31.522 27.0535 27.6685C27.0258 26.9745 27.0166 26.2805 26.9705 25.5774Z" fill="#013CC8"/>
<path d="M40.5388 41.2563C44.5392 37.3114 48.4843 33.3027 52.4386 29.3214C52.4386 30.0062 52.4386 30.6911 52.5031 31.3851C48.5396 35.3908 44.5791 39.3965 40.6217 43.4022L27.2471 31.8051C27.2471 31.0563 27.1641 30.2984 27.1457 29.5496L40.5388 41.2563Z" fill="#013CC8"/>
<path d="M0.129028 29.3031C4.59032 33.2723 9.05775 37.2293 13.5313 41.1741C17.6516 37.2841 21.7165 33.3392 25.7999 29.4218C25.7999 30.0884 25.9013 30.755 25.7999 31.4216C25.4873 31.7922 25.1451 32.1372 24.7767 32.4535C21.0436 36.1061 17.2644 39.6856 13.5313 43.3291L1.1614 32.3713C0.807131 32.0885 0.471527 31.7835 0.15668 31.4581C0.184332 30.7915 0.138246 30.0428 0.129028 29.3031Z" fill="#013CC8"/>
<path d="M40.7323 44.8541C44.6959 40.8606 48.6502 36.8579 52.5953 32.8461C52.6506 33.5645 52.6875 34.2859 52.7059 35.0103L40.7876 46.9817C36.3448 43.1739 31.8835 39.3934 27.4314 35.5947C27.3577 34.8642 27.3761 34.1428 27.3392 33.4123C31.8005 37.2384 36.2802 41.028 40.7323 44.8541Z" fill="#013CC8"/>
<path d="M13.642 44.845C17.7622 40.9367 21.8272 36.9736 25.9013 33.0196C25.9566 33.7502 25.9843 34.4807 25.975 35.2112C21.8763 39.1378 17.7776 43.0674 13.6789 47L0.313416 35.403C0.313416 34.6724 0.313416 33.9419 0.313416 33.2205C2.08318 34.8094 3.89904 36.3435 5.69646 37.905L13.642 44.845Z" fill="#013CC8"/>
</g>
<defs>
<clipPath id="clip0_4_1019">
<rect width="268" height="47" fill="white"/>
</clipPath>
</defs>
</svg>
