<svg width="102" height="24" viewBox="0 0 102 24" fill="none" xmlns="http://www.w3.org/2000/svg">
<path fill-rule="evenodd" clip-rule="evenodd" d="M94.058 12.7821L94.3845 13.3418L94.2446 23.2537C93.988 23.4869 93.9181 23.6735 94.058 23.8134L97.0433 23.7435C97.09 23.6268 96.9733 23.4869 96.8334 23.3704L96.9033 21.4113L97.0433 21.3646L98.2561 23.3237L98.1161 23.8134H101.848C101.848 23.8134 101.568 23.3704 101.171 23.2537C100.775 22.6473 98.3259 18.5426 98.3259 18.5426C98.3259 18.2861 99.3288 16.4669 99.8885 16.0238C100.355 15.8373 100.495 15.8373 100.565 15.674H98.536L98.3961 15.7207C98.3961 15.7207 99.0723 16.1405 98.7925 16.5137C98.4659 16.8168 97.1599 19.219 97.1599 19.219C97.1599 19.219 96.8334 19.3355 96.9033 18.8459C96.9033 18.4261 96.7634 13.0387 96.7634 13.0387C96.7634 13.0387 96.5535 12.0592 95.6673 12.3623C94.8043 12.7354 94.058 12.7821 94.058 12.7821Z" fill="#0C419A"/>
<path fill-rule="evenodd" clip-rule="evenodd" d="M72.9516 18.2395V23.0672C73.4413 23.1373 75.4003 22.9971 75.657 21.4114C76.2166 18.2862 73.3714 18.2395 72.9516 18.2395ZM72.8815 12.9688L73.0214 17.6799C73.0214 17.6799 75.0505 17.8664 75.1206 15.5342C75.2604 13.1553 73.7679 13.1553 73.0915 13.0387C72.4851 12.8986 72.8815 12.9688 72.8815 12.9688ZM69.9663 12.409V12.5955C69.9663 12.5955 70.3862 12.9687 70.4562 13.1553C70.5961 13.3418 70.526 23.1372 70.526 23.1372C70.526 23.1372 69.7797 23.8134 70.0364 23.8134H75.5403C75.657 23.8134 76.8929 23.4403 77.4994 22.4607C78.2456 21.2946 78.5256 19.4523 76.2867 17.9364C77.2429 17.0734 79.3418 13.6451 74.3742 12.4089L69.9663 12.409Z" fill="#0C419A"/>
<path fill-rule="evenodd" clip-rule="evenodd" d="M88.834 16.0238L89.0205 16.5137C89.3703 16.2804 89.5104 16.2804 89.8368 16.0238C90.1866 15.8373 90.5831 15.7207 90.9329 15.7207C91.3994 15.7207 91.8192 15.9072 92.1456 16.2104C92.4256 16.467 92.4256 16.7003 92.5655 17.1434C92.6353 17.4465 92.6353 18.0529 92.6353 18.9624V22.041C92.6353 22.3442 92.4954 23.5571 92.9619 23.6269V23.7436L89.9066 23.8135V23.6269C90.3965 23.1372 90.2566 22.7641 90.2566 22.041V18.5427C90.2566 17.8664 90.3265 17.19 90.2566 17.0035C90.1165 16.8169 90.0467 16.8169 89.5802 16.8169C89.0905 16.8169 89.0205 17.19 88.9738 17.4933L88.9039 22.041C88.8339 22.6474 88.9738 23.0672 88.9738 23.2538C88.9738 23.4404 89.0205 23.6269 89.3003 23.6736V23.8135H86.0585L86.1052 23.6269C86.6649 23.5571 86.525 22.7641 86.525 22.041V17.5631C86.525 16.9569 86.455 16.5836 86.3851 16.467C86.2451 16.3272 86.2451 16.2805 86.525 16.2104L88.2742 15.8374C88.554 15.7207 88.834 15.7907 88.834 16.0238Z" fill="#0C419A"/>
<path fill-rule="evenodd" clip-rule="evenodd" d="M82.2571 19.7555V22.5776C82.2571 22.5776 81.5806 23.2538 81.2308 22.7641C80.6244 21.9711 80.7645 18.6127 82.2571 19.7555ZM79.2019 17.19C79.9482 17.0734 80.9044 16.7703 81.5806 17.26C82.2571 17.7964 82.187 17.7964 82.187 18.2396C82.187 18.6594 81.3708 19.0326 80.5546 19.2658C79.8081 19.5223 78.2456 20.1286 78.4554 21.7146C78.642 23.3239 79.8782 24.3034 82.0471 23.2539C82.187 23.1373 82.4437 22.9507 82.6535 23.2539C82.9333 23.5572 84.4959 24.35 85.4988 23.0673C85.1023 23.0673 84.8225 23.1373 84.8225 22.3443C84.8923 21.598 84.7525 17.7497 84.7525 17.7497C84.7525 17.7497 84.8225 16.024 82.6535 15.6742C80.3447 15.8373 79.4583 17.0034 79.2019 17.19Z" fill="#0C419A"/>
<path fill-rule="evenodd" clip-rule="evenodd" d="M55.7398 19.7087L55.7865 22.4607C55.7865 22.4607 55.32 23.1371 54.9235 22.6472C54.2472 21.7145 54.2472 20.2452 55.1801 19.5221C55.39 19.3355 55.7398 19.7087 55.7398 19.7087ZM52.8245 17.1899C53.5009 17.0733 54.4338 16.7702 55.1102 17.26C55.7865 17.7963 55.7398 17.7963 55.7398 18.2395C55.7398 18.6593 54.9235 19.0325 54.1772 19.2657C53.361 19.5222 51.7985 20.1285 52.0082 21.7145C52.2648 23.3238 53.4309 24.3033 55.5298 23.2538C55.7398 23.1372 55.9963 22.9506 56.2063 23.2538C56.486 23.5571 58.0255 24.3499 59.0515 23.0672C58.655 23.0672 58.3752 23.1372 58.3752 22.3442C58.4451 21.598 58.3052 17.6331 58.3052 17.6331C58.3052 17.6331 58.3752 15.9073 56.2062 15.5342C53.8975 15.7207 53.0111 17.0033 52.8245 17.1899Z" fill="#0C419A"/>
<path fill-rule="evenodd" clip-rule="evenodd" d="M32.6744 23.557V23.8134H29.3393V23.557C29.7591 23.4403 29.7591 22.9506 29.7591 21.8543V14.3213C29.7591 13.6451 29.6892 12.5955 29.2227 12.5955V12.4089H32.8142V12.5488C32.2545 12.8521 32.2545 13.4585 32.2545 14.3213V21.8543C32.2545 22.4607 32.1846 23.3237 32.6744 23.557Z" fill="#0C419A"/>
<path fill-rule="evenodd" clip-rule="evenodd" d="M35.6595 15.8373C35.7995 15.7907 36.056 15.7907 36.196 15.8373C36.3358 15.9774 36.1259 16.3271 36.4758 16.467C36.6624 16.5835 36.9422 16.2104 37.222 16.0238C37.5486 15.8373 38.155 15.7207 38.5048 15.7207C38.9013 15.7207 39.2511 15.8373 39.5076 16.1406C39.7875 16.397 39.9975 16.5137 40.0674 16.9568V22.8805C40.1373 23.3237 40.1373 23.3704 40.3938 23.6268V23.8134H37.362V23.6268C37.7585 23.557 37.6884 22.5308 37.6884 22.2043V18.7759C37.7585 18.1694 37.6884 17.4465 37.6884 17.3066C37.6185 17.1434 37.5485 17.0034 37.4785 16.9568C37.4085 16.8168 37.2687 16.8168 37.222 16.8168C36.8022 16.8168 36.6623 16.6535 36.4057 17.3066L36.3357 23.1838C36.3357 23.3704 36.4757 23.557 36.6156 23.6268V23.8134H33.4905V23.557C33.747 23.4402 33.8869 23.3237 33.8169 22.8338L33.8869 17.0734C33.8869 16.7702 33.8869 16.5835 33.8169 16.5137C33.6069 16.3969 33.6069 16.2103 33.7469 16.2103L35.6595 15.8373Z" fill="#0C419A"/>
<path fill-rule="evenodd" clip-rule="evenodd" d="M47.787 12.8521V21.3647C47.787 21.901 47.717 22.2043 47.717 22.3442C47.857 22.694 47.6705 22.764 47.9969 23.0672L48.0669 23.3237C47.4606 23.4403 47.1806 23.5571 46.5743 23.6736C46.2945 23.6736 46.2244 23.7436 45.9679 23.6736C45.4316 23.2538 44.9418 23.3237 44.5453 23.5571C44.2654 23.6736 43.9389 23.8134 43.589 23.8134C42.7029 23.8134 42.0265 23.3704 41.4901 22.5775C41.0704 21.8543 40.8837 21.0614 40.8837 20.012C40.8837 19.219 41.0704 18.4727 41.2801 17.8664C41.56 17.26 41.9565 16.7703 42.3763 16.4669C42.8428 16.0939 43.589 15.5342 45.2217 15.8373V14.6712C45.2217 14.3214 45.2217 14.0182 45.1517 13.4586L44.7552 12.8522L47.0407 12.3623C47.4606 12.3623 47.6004 12.6656 47.787 12.8521ZM45.2915 16.7702C44.6152 16.2104 43.9389 16.6535 43.7289 17.5631C43.3792 18.8459 43.2392 20.315 43.519 21.6677C43.7989 22.764 44.6851 23.2537 45.2915 22.764V16.7702Z" fill="#0C419A"/>
<path fill-rule="evenodd" clip-rule="evenodd" d="M50.2358 12.7354C50.6323 12.7354 50.9821 12.8521 51.2619 13.0852C51.4485 13.3418 51.5886 13.6451 51.5886 14.0182C51.5886 14.368 51.4485 14.6712 51.2619 14.9277C50.9821 15.1843 50.6323 15.3008 50.2358 15.3008C49.886 15.3008 49.5595 15.1843 49.2796 14.9277C49.0231 14.6711 48.9531 14.368 48.9531 14.0182C48.9531 13.6451 49.0231 13.3418 49.2796 13.0852C49.5595 12.8521 49.886 12.7354 50.2358 12.7354ZM51.6584 16.2804V22.8338C51.6584 23.1838 51.6584 23.4402 52.0082 23.6268V23.8134H48.7433V23.6268C49.0931 23.4869 49.0931 22.9971 49.0931 22.2042V16.6535C48.953 16.5137 48.8832 16.3969 48.8832 16.2804L50.5157 15.8372C51.1921 15.674 51.5186 15.9072 51.6584 16.2804Z" fill="#0C419A"/>
<path fill-rule="evenodd" clip-rule="evenodd" d="M62.3866 16.0238L62.5732 16.5137C62.993 16.2804 63.0631 16.2804 63.3895 16.0238C63.7393 15.8373 64.1357 15.7207 64.5556 15.7207C64.9521 15.7207 65.3719 15.9072 65.6984 16.2104C65.9782 16.467 66.0481 16.7003 66.0948 17.1434C66.1648 17.4465 66.1648 18.0529 66.1648 18.9624V22.041C66.1648 22.3442 66.0481 23.5571 66.5146 23.6269V23.7436L63.4595 23.8135V23.6269C63.9492 23.1372 63.8093 22.7641 63.8093 22.041V18.5427C63.8093 17.8664 63.856 17.19 63.8093 17.0035C63.6693 16.8169 63.5994 16.8169 63.1329 16.8169C62.7131 16.8169 62.5732 17.19 62.5032 17.4933L62.4567 22.041C62.3866 22.6474 62.5032 23.0672 62.5032 23.2538C62.5032 23.4404 62.5732 23.6269 62.8532 23.6736V23.8135H59.5879L59.658 23.6269C60.2176 23.5571 60.0777 22.7641 60.0777 22.041V17.5631C60.0777 16.9569 60.0778 16.5836 59.9379 16.467C59.8679 16.3272 59.7979 16.2805 60.1478 16.2104L61.8269 15.8374C62.1068 15.7207 62.3866 15.7907 62.3866 16.0238Z" fill="#0C419A"/>
<path fill-rule="evenodd" clip-rule="evenodd" d="M69.9663 6.71837C69.43 6.042 69.0335 5.24914 68.6136 4.52612C68.6837 4.45616 68.6837 4.38615 68.6837 4.33954C70.2463 4.33954 70.1063 5.55226 70.0364 6.67175C70.0364 6.67175 69.9663 6.67175 69.9663 6.71837ZM77.1729 5.13256L77.1028 7.16149C75.8668 8.14106 75.4003 6.71837 75.657 5.55226C75.7969 4.8759 76.4265 3.89649 77.1729 5.13256ZM68.1471 5.24918L69.3599 7.58139C67.7275 8.0711 67.8674 5.85546 68.1471 5.24918ZM43.3791 2.4971C42.7728 2.4971 41.5599 2.4971 40.9536 2.4971C40.2773 2.4971 39.5776 2.4971 38.9712 2.4971C38.9013 2.4971 38.9013 2.4971 38.9013 2.4971C38.8313 2.45041 38.8313 2.38045 38.7847 2.38045C38.7147 1.89071 38.7147 1.51758 38.9712 1.21434C39.9274 0.164895 42.5628 0.164892 43.519 1.28431C43.7989 1.77409 43.659 2.12398 43.3791 2.4971ZM51.6584 3.17343C51.6584 3.59325 51.5886 4.08303 51.5886 4.52612C51.5886 5.43568 51.5886 6.48521 51.5886 7.39481C50.9822 7.95448 50.0959 8.00113 49.6994 7.69785C49.5595 7.58135 49.4196 7.46477 49.3496 7.39481C49.2097 6.90499 49.0931 6.41525 49.2796 5.85546C50.096 5.69223 50.5157 5.50564 50.9822 4.8759C51.1922 4.38615 51.2619 3.96645 50.9122 3.17343H51.6584ZM56.9526 8.07109C55.7865 7.95447 55.6699 6.53182 56.8127 6.29866C57.0227 6.29866 57.2326 6.29866 57.4191 6.29866C57.489 6.41528 57.559 6.41528 57.6988 6.48521C58.2353 7.09161 58.1653 7.65131 57.4191 8.07109C57.279 8.07109 57.0924 8.07109 56.9526 8.07109ZM74.6541 0.468094C75.1206 0.468094 75.5402 0.841217 75.5402 1.28431C75.5402 1.70412 75.1207 2.07729 74.6541 2.07729C74.1642 2.07729 73.7679 1.70416 73.7679 1.28431C73.7679 0.841217 74.1642 0.468094 74.6541 0.468094ZM34.1669 0.0482766C34.8433 0.0482766 35.3796 0.538055 35.3796 1.09772C35.3796 1.70412 34.8433 2.19387 34.1669 2.19387C33.5606 2.19387 33.0008 1.70412 33.0008 1.09772C33.0008 0.538055 33.5606 0.0482766 34.1669 0.0482766ZM29.3392 4.26961C30.1555 3.42994 31.5782 3.2434 32.7443 3.66321L32.6743 3.17343H28.8029V2.56703H36.3358C36.8023 1.51758 36.7323 1.09768 37.8984 0.538017C38.4349 0.351474 39.0412 0.234818 39.5776 0.1182C41.4901 -0.138307 45.0117 -0.138307 45.8979 1.82078C45.9679 2.00732 46.0378 2.31053 45.9679 2.56707H63.3195V3.17347H62.3166V8.864L62.7831 9.35382H59.4714C59.3315 9.35382 59.8678 9.23724 59.8678 9.05062V5.69226C59.5181 5.5523 59.4013 5.6223 59.1216 5.6223C59.0515 5.85546 59.2614 5.85546 59.3315 5.92546C59.9379 7.51131 59.2614 8.98062 57.3491 9.23724C55.7398 9.47044 54.6437 8.44426 54.7138 6.90503C54.7836 5.69226 55.5298 5.06263 56.8825 4.82932C57.4889 4.7127 58.655 4.82932 59.4013 4.82932C59.5181 4.75943 59.7279 4.82932 59.8678 4.75943V3.24339C59.4013 3.24339 54.1073 3.10351 54.1073 3.24339L54.0373 8.79403C54.0373 9.05062 54.3637 9.16724 54.5737 9.30716V9.35378L51.1921 9.42382C51.122 9.42382 51.1921 9.30716 51.1921 9.30716C51.5186 9.05058 51.7284 8.86396 51.5186 8.25771C50.9821 8.37425 50.5857 8.49087 50.1659 8.49087C47.4605 8.6308 46.5043 7.27815 46.7842 4.94598C47.3904 4.75943 47.857 4.94598 48.2767 4.4562C48.8131 3.8498 48.5333 3.36001 48.0669 3.17343H46.0378C45.9678 3.17343 45.8979 3.17343 45.8979 3.17343V4.26958C45.8979 4.33954 45.9678 4.45616 45.8979 4.52612C45.3614 4.71266 44.3353 4.52612 43.7289 4.57278C43.589 4.57278 43.519 4.57278 43.449 4.52612C43.379 4.33954 43.379 4.26958 43.2391 4.22292C42.4928 4.03634 41.6999 4.71266 42.3062 5.24914C42.9826 5.85546 44.4752 5.62226 45.4781 6.11201C46.2243 6.48517 46.6442 7.16145 46.2243 7.88443C45.618 9.30716 43.3791 9.77356 41.8864 9.42378C41.1402 9.2372 40.1373 8.63076 39.7174 8.37422C39.9273 7.81455 40.2773 7.46477 40.4638 7.02157C40.8835 7.76797 42.0963 9.65698 43.7289 8.49087C44.4052 8.00113 44.4052 7.16149 43.7289 6.60183C42.6327 5.5523 40.4638 6.78841 39.8574 5.20252C39.251 3.59329 42.0963 3.10351 43.3791 3.73318C43.589 3.73318 43.3091 3.36001 43.3791 3.24339V3.17343H38.9712L38.9012 8.86396C38.9012 9.05058 39.321 9.2372 39.4609 9.30716C39.4609 9.35378 39.4609 9.42382 39.4609 9.42382H37.7585C36.9421 9.42382 36.1258 9.47044 36.0559 9.35378C36.2659 9.2372 36.4058 9.12062 36.4757 8.86396V3.17343H35.1231L35.053 4.57278L32.6742 4.52612C32.7442 3.96645 32.1377 3.96645 31.788 4.26958C31.5781 4.52612 31.4382 4.94594 31.648 5.20248C32.6742 6.53182 35.5895 4.52612 35.916 7.16149C36.1959 8.86396 33.957 9.30716 33.957 9.30716C34.0269 10.2634 34.9132 10.8931 35.6594 10.7531C35.7994 10.8931 35.3796 11.0797 35.3096 11.1263C34.0969 11.686 33.1407 11.4993 32.4643 11.0096C31.4382 10.4033 30.8318 9.23716 29.759 8.56088C29.549 8.44418 29.3391 8.37418 29.0826 8.3276C29.0826 8.25764 28.9427 8.25764 29.0127 8.18763L29.619 7.58132C29.8289 8.07106 29.8988 8.07105 30.2254 8.3276C31.1816 9.05054 32.2544 9.35374 33.2106 8.44422C33.817 7.81451 33.7003 6.67175 32.6742 6.48517C31.5081 6.22866 30.2954 6.97491 29.4791 6.04196C29.0127 5.55226 28.8728 4.82928 29.3392 4.26961ZM76.9629 4.08307C77.033 4.08307 77.1028 4.22296 77.1729 4.08307L77.2195 3.24339H72.625C72.5551 3.54659 72.625 3.54659 72.5551 3.89649C72.5551 3.89649 72.4851 3.89649 72.5551 5.80884C72.5551 6.67175 72.4851 8.6308 72.625 8.93408C72.695 9.12062 73.3014 9.42382 73.0915 9.42382H69.5698C69.4998 9.42382 69.5698 9.30716 69.5698 9.30716C69.8963 8.93408 70.0364 8.6308 69.8963 7.95451C69.29 8.37422 68.2872 8.67742 67.4708 8.37422C64.882 7.46477 65.3019 4.03634 68.0773 3.59325C68.9634 3.47663 70.0364 4.22292 70.1062 3.96641C70.1762 3.84972 70.0363 3.47663 70.1062 3.17339L65.6283 3.24336V2.56703H65.8383C66.3047 2.56703 68.8235 2.56703 68.8935 2.49707C68.6836 2.00729 67.6574 1.02776 67.1211 0.794485C66.981 0.724522 66.7944 0.6546 66.9112 0.607945C70.3862 0.23482 70.1062 2.12394 70.9925 2.38041L71.5289 2.56699C71.5289 2.49703 71.599 2.49703 71.599 2.45034C71.389 1.8207 70.7126 1.14434 70.0364 0.794447C69.8264 0.724484 69.7097 0.794446 69.7797 0.654558C70.526 0.42136 72.415 0.654559 72.765 1.09765C73.0214 1.58747 73.4413 2.45034 74.1176 2.45034C77.2195 2.49703 80.6244 2.49703 83.7496 2.49703V3.24332H79.8081L79.7383 4.15292C80.6244 3.47659 83.3999 3.05677 83.8196 5.62222C84.0062 6.71829 83.4698 8.1876 81.9072 8.37414C81.1607 8.44418 80.9044 8.2576 80.2746 7.95444C80.2046 7.88436 80.2046 7.81447 80.2046 7.81447C81.3707 7.39477 81.3707 5.80877 80.7645 4.87586C80.6945 4.75936 80.6244 4.71262 80.4845 4.71262C80.0647 4.64266 79.7382 4.71262 79.7382 5.06255L79.6682 8.56088C79.6682 9.23716 79.9481 9.12054 80.1581 9.30713C80.1581 9.35374 80.2046 9.4704 80.2046 9.4704C80.0179 9.54032 79.7382 9.4704 79.5283 9.4704C79.2019 9.4704 76.7529 9.54032 76.6831 9.4704C76.613 9.42378 76.543 9.4704 76.613 9.42378C77.2892 9.12058 77.0329 9.05058 77.1027 8.00109C76.4732 8.37418 76.2866 8.44422 75.9366 8.49083C74.5141 8.794 73.0914 7.69781 72.9515 6.41524C72.8814 5.50564 73.0213 4.94594 73.7678 4.33954C74.864 3.54659 75.657 3.42994 76.9629 4.08307Z" fill="#0C419A"/>
<path fill-rule="evenodd" clip-rule="evenodd" d="M14.4365 13.5052C14.4597 13.5285 14.4597 13.5518 14.4831 13.5518C20.9899 4.10638 32.5111 12.9921 23.1122 21.6912L24.8847 23.3471L24.2783 23.9534L16.1389 23.3005L15.9523 18.9158C14.3898 23.7437 5.17752 25.7726 2.91527 16.0939L0.489746 16.5836L4.24457 10.2167L4.78105 9.61037L8.909 12.0592C3.89476 8.21102 7.67293 -1.28102 18.3312 2.54376L18.6343 1.23777L19.1708 0.701294L23.3688 7.79124L22.7624 8.4443L14.9262 11.3828L15.8357 8.91077C12.5007 7.67466 11.0314 11.4529 14.4365 13.6219C14.4365 13.5751 14.4365 13.5518 14.4365 13.5052ZM10.2384 12.8522L12.5007 14.2049L11.8242 14.8113L9.8186 14.7412C10.0051 17.7265 14.5996 17.8197 14.4364 13.6219C12.7572 13.6684 11.3579 13.3652 10.2384 12.8522ZM14.5064 13.5751C15.1827 14.3681 15.6491 15.1377 15.9056 15.9073L16.4421 15.3243L18.2612 17.0968C20.7334 14.8113 17.9347 11.3129 14.5064 13.5751Z" fill="white"/>
<path fill-rule="evenodd" clip-rule="evenodd" d="M14.0166 14.2282C20.8501 22.8339 5.5041 29.714 2.47218 16.8169L0 17.2133L4.24457 10.2167L11.8243 14.8578L9.2122 15.3943C9.8886 18.636 13.8766 18.1694 14.0166 14.2282C13.9933 14.2514 13.9699 14.2514 13.9467 14.2747C1.93574 14.508 4.47784 -1.58424 17.8881 3.19677L18.5644 1.35437L22.6925 8.44425L14.4364 12.0359L15.416 9.56369C12.011 8.32762 10.5416 12.0825 13.9467 14.2747C20.0104 4.36287 32.1612 13.6916 22.6925 22.4141L24.1618 23.9535L15.7191 24L15.9057 15.9774L17.7715 17.8196C20.3136 15.4641 17.445 11.9658 14.0166 14.2282Z" fill="#F4B035"/>
</svg>
