<svg width="136" height="24" viewBox="0 0 136 24" fill="none" xmlns="http://www.w3.org/2000/svg">
<path d="M13.3326 0C15.4086 1.96254 17.4852 3.92397 19.5618 5.8854C19.373 6.07972 19.1803 6.27016 18.9893 6.46171C17.1076 4.68463 15.2254 2.90755 13.3453 1.12825C11.5095 2.97066 9.6533 4.79203 7.81643 6.63333C7.62045 6.44455 7.41949 6.2602 7.22351 6.07031C8.80517 4.49253 10.3962 2.92471 11.9757 1.34416C12.4402 0.909024 12.8836 0.45119 13.3326 0Z" fill="#013CC8"/>
<path d="M8.25537 6.97877C9.96159 5.28141 11.685 3.60176 13.3929 1.90662C15.1345 3.54363 16.8701 5.1873 18.6112 6.82431C18.4196 7.01586 18.2275 7.20741 18.0365 7.40007C16.4958 5.94297 14.9551 4.48587 13.4061 3.03819C11.8898 4.53736 10.3668 6.02878 8.85382 7.53127C8.65065 7.35079 8.45412 7.16312 8.25537 6.97877Z" fill="#013CC8"/>
<path d="M9.23975 7.9176C10.6144 6.55683 12.005 5.21212 13.3757 3.84692C14.7808 5.1479 16.1731 6.46161 17.5749 7.76536C17.3828 7.95691 17.1907 8.14846 16.9991 8.34111C15.8 7.21895 14.5953 6.10343 13.3973 4.98016C12.2049 6.14052 11.0207 7.31029 9.83321 8.47619C9.63391 8.29184 9.4396 8.1014 9.23975 7.9176Z" fill="#013CC8"/>
<path d="M51.0725 6.01825C51.5271 5.84331 52.0369 6.19817 52.1233 6.65545C52.2539 7.12214 51.9843 7.69402 51.4927 7.80419C51.077 7.91103 50.6524 7.60323 50.5405 7.20684C50.3794 6.75621 50.6114 6.18212 51.0725 6.01825Z" fill="#013CC8"/>
<path d="M70.2661 6.05361C70.9276 6.03202 71.6119 6.07077 72.2214 6.35256C73.0989 6.73843 73.7582 7.51957 74.1159 8.39648C74.4508 9.24405 74.5073 10.1868 74.36 11.0804C74.1961 12.0625 73.6951 12.9981 72.9334 13.6436C72.0044 14.4214 70.6863 14.5725 69.5375 14.2952C68.6778 14.092 67.9343 13.5174 67.4659 12.7755C66.8038 11.789 66.635 10.5428 66.7961 9.38356C66.9251 8.49945 67.3381 7.65299 67.9869 7.03405C68.5792 6.42342 69.4157 6.0669 70.2661 6.05361ZM70.2888 6.46439C69.857 6.54909 69.5015 6.85358 69.2812 7.22505C68.9424 7.76592 68.8145 8.40534 68.7409 9.03092C68.6839 9.65317 68.6468 10.2799 68.7032 10.9032C68.7398 11.5515 68.8322 12.207 69.083 12.8104C69.2502 13.2001 69.4883 13.5899 69.8719 13.7986C70.1924 13.9813 70.5772 13.9829 70.9337 13.9386C71.3888 13.8567 71.7442 13.5041 71.959 13.1105C72.2951 12.4899 72.4141 11.7796 72.465 11.0831C72.4689 10.6751 72.5237 10.2677 72.4794 9.86022C72.4739 9.24129 72.4301 8.61682 72.2718 8.01671C72.1328 7.56164 71.9369 7.09661 71.5676 6.77995C71.2227 6.47712 70.7333 6.37415 70.2888 6.46439Z" fill="#013CC8"/>
<path d="M17.7332 8.20837C18.4479 7.52798 19.1338 6.8177 19.8347 6.12292C21.9068 8.08989 23.9851 10.0497 26.0622 12.0111C25.8718 12.201 25.6808 12.3903 25.4931 12.583C23.6086 10.8153 21.7324 9.03822 19.8579 7.26003C17.9978 9.0803 16.1643 10.9277 14.313 12.7574C14.1198 12.5658 13.9199 12.382 13.7212 12.1966C15.0604 10.869 16.4001 9.54201 17.7332 8.20837Z" fill="#013CC8"/>
<path d="M33.7152 6.15283C34.9918 6.15283 36.2679 6.15283 37.544 6.15283C37.5434 6.22923 37.5434 6.30563 37.544 6.38203C37.2561 6.38203 36.914 6.35102 36.6953 6.578C36.4877 6.78616 36.5104 7.10227 36.501 7.37298C36.5015 9.29289 36.4987 11.2128 36.5026 13.1327C36.5159 13.3774 36.4982 13.6797 36.7169 13.8452C36.9427 14.0484 37.2627 14.0141 37.544 14.0146C37.5434 14.0882 37.5434 14.1619 37.544 14.2355C36.2679 14.2355 34.9918 14.2355 33.7152 14.2355C33.7152 14.1619 33.7152 14.0888 33.7152 14.0152C33.9964 14.0135 34.3197 14.0456 34.5451 13.8402C34.7665 13.6238 34.7305 13.2866 34.7532 13.0037C34.7632 11.6623 34.7543 10.3204 34.7571 8.979C34.751 8.37003 34.772 7.75995 34.7422 7.15154C34.7244 6.95501 34.7278 6.72526 34.5606 6.58797C34.3419 6.35933 34.0053 6.3776 33.7152 6.38147C33.7152 6.30507 33.7152 6.22923 33.7152 6.15283Z" fill="#013CC8"/>
<path d="M46.7339 6.15283C47.4779 6.15283 48.2226 6.15283 48.9666 6.15283C48.9666 8.34844 48.9677 10.544 48.966 12.7397C48.9694 12.9838 48.955 13.239 49.0502 13.4693C49.136 13.6719 49.3746 13.7046 49.565 13.7417C49.565 13.8109 49.5656 13.8801 49.5667 13.9493C48.8725 14.091 48.1816 14.2482 47.489 14.3961C47.4907 14.1049 47.4918 13.8142 47.4879 13.5236C47.2454 13.8209 47.0052 14.1519 46.6376 14.3003C46.0402 14.54 45.3161 14.3335 44.8976 13.8546C44.3573 13.2545 44.1557 12.4224 44.1557 11.6319C44.1353 10.8568 44.2925 10.0585 44.7099 9.39642C45.0853 8.8024 45.8049 8.40491 46.5152 8.53168C46.9238 8.59258 47.2266 8.89928 47.4907 9.19214C47.4874 8.53556 47.4951 7.87898 47.4874 7.22296C47.4713 6.9993 47.4879 6.73855 47.3191 6.56582C47.1735 6.39974 46.9332 6.41746 46.7339 6.39753C46.7333 6.31615 46.7328 6.23421 46.7339 6.15283ZM46.3619 9.11187C46.0192 9.22369 45.9101 9.61454 45.8221 9.92456C45.6677 10.7063 45.6859 11.5129 45.7562 12.3034C45.7955 12.666 45.8791 13.0336 46.0657 13.3514C46.1593 13.5125 46.3115 13.6636 46.508 13.673C46.8186 13.709 47.0782 13.4815 47.2449 13.2445C47.3584 13.0763 47.5106 12.903 47.4918 12.686C47.4896 11.8915 47.489 11.0977 47.4918 10.3038C47.4901 10.1178 47.5184 9.9146 47.3999 9.75516C47.1956 9.38922 46.818 9.01332 46.3619 9.11187Z" fill="#013CC8"/>
<path d="M110.823 6.15271C111.494 6.15271 112.166 6.15271 112.838 6.15271C113.681 6.15548 114.528 6.13001 115.368 6.22634C115.819 6.27617 116.263 6.44945 116.591 6.77054C116.976 7.15972 117.211 7.70669 117.184 8.25808C117.183 8.75024 116.925 9.22966 116.522 9.50868C116.211 9.73511 115.841 9.85524 115.478 9.96873C115.901 10.1005 116.338 10.2179 116.714 10.4614C117.167 10.7532 117.479 11.2614 117.512 11.8023C117.527 12.1112 117.523 12.4312 117.411 12.7235C117.238 13.2217 116.839 13.6148 116.377 13.8528C115.867 14.1186 115.287 14.211 114.718 14.2354C113.419 14.2354 112.121 14.2354 110.823 14.2354C110.822 14.1623 110.822 14.0898 110.823 14.0173C111.102 14.0045 111.431 14.0394 111.648 13.8235C111.846 13.6513 111.831 13.3662 111.839 13.1276C111.837 11.1529 111.84 9.17818 111.837 7.20346C111.829 6.9953 111.83 6.75559 111.67 6.59837C111.451 6.37471 111.112 6.3891 110.823 6.37858C110.822 6.30329 110.822 6.228 110.823 6.15271ZM113.555 6.60999C113.553 7.28816 113.554 7.96578 113.555 8.64395C113.562 9.03258 113.513 9.4201 113.53 9.80874C113.97 9.80597 114.451 9.79434 114.818 9.51865C115.222 9.24074 115.396 8.73142 115.383 8.25697C115.406 7.78585 115.287 7.26768 114.908 6.956C114.537 6.63546 114.019 6.62715 113.555 6.60999ZM113.53 10.2671C113.526 11.2027 113.541 12.1394 113.519 13.075C113.523 13.2389 113.537 13.4116 113.622 13.5567C113.706 13.7045 113.88 13.7787 114.047 13.7825C114.518 13.8008 115.006 13.5821 115.269 13.1824C115.582 12.7146 115.645 12.1156 115.536 11.572C115.461 11.1319 115.24 10.6801 114.825 10.4725C114.422 10.2843 113.966 10.2677 113.53 10.2671Z" fill="#013CC8"/>
<path d="M129.756 6.15283C130.433 6.15283 131.109 6.15283 131.786 6.15283C131.789 7.91884 131.782 9.6843 131.79 11.4503C132.21 10.9975 132.604 10.5214 133.027 10.0707C133.198 9.87751 133.4 9.68208 133.444 9.4158C133.478 9.27739 133.439 9.1174 133.324 9.02827C133.193 8.93194 133.026 8.91367 132.875 8.87326C132.874 8.80461 132.874 8.73652 132.876 8.66787C133.632 8.66898 134.388 8.66898 135.145 8.66787C135.143 8.73597 135.143 8.80406 135.145 8.87215C134.904 8.90758 134.656 8.96461 134.468 9.12903C133.966 9.55198 133.542 10.0558 133.104 10.5418C133.67 11.4796 134.214 12.4307 134.806 13.3525C134.988 13.6431 135.185 13.9897 135.565 14.0323C135.563 14.0993 135.562 14.1674 135.563 14.235C134.704 14.2361 133.845 14.2355 132.986 14.2355C132.984 14.1669 132.984 14.0988 132.986 14.0307C133.107 14.0091 133.267 13.9858 133.309 13.8452C133.325 13.6548 133.2 13.4931 133.118 13.332C132.782 12.7745 132.445 12.2182 132.109 11.6612C132 11.778 131.893 11.896 131.786 12.0139C131.808 12.5858 131.73 13.1681 131.857 13.7323C131.914 13.9438 132.155 13.9914 132.341 14.029C132.339 14.0977 132.339 14.1663 132.34 14.2355C131.479 14.2355 130.618 14.2355 129.756 14.2355C129.755 14.1669 129.755 14.0982 129.756 14.0301C129.947 13.9875 130.191 13.9277 130.247 13.709C130.329 13.3176 130.306 12.9152 130.31 12.5182C130.31 10.8209 130.31 9.12349 130.31 7.42613C130.303 7.16427 130.307 6.89411 130.225 6.64278C130.151 6.45233 129.928 6.42022 129.757 6.36929C129.755 6.29677 129.755 6.2248 129.756 6.15283Z" fill="#013CC8"/>
<path d="M3.87299 9.13182C4.80028 8.19179 5.74806 7.27391 6.68034 6.33887C8.7536 8.30362 10.8352 10.2612 12.9079 12.227C12.7174 12.418 12.527 12.6085 12.336 12.7989C10.4554 11.0235 8.57312 9.24863 6.69695 7.46823C5.59305 8.56105 4.48584 9.65 3.3908 10.7517C2.63291 11.4775 1.91267 12.2414 1.15146 12.9639C0.958247 12.7762 0.759502 12.5957 0.565186 12.4097C1.20626 11.7592 1.86561 11.127 2.5089 10.4787C2.96175 10.0281 3.40741 9.56917 3.87299 9.13182Z" fill="#013CC8"/>
<path d="M14.7548 13.0972C16.466 11.412 18.1755 9.72465 19.8895 8.04224C20.06 8.15739 20.194 8.31904 20.3473 8.45523C21.9362 9.95108 23.5189 11.4536 25.1139 12.9428C24.9218 13.1365 24.7286 13.3292 24.5353 13.5224C22.9991 12.0636 21.4506 10.6176 19.9144 9.15886C18.3931 10.6569 16.869 12.1528 15.3527 13.6569C15.1489 13.4753 14.9535 13.2843 14.7548 13.0972Z" fill="#013CC8"/>
<path d="M6.7401 8.23999C8.47566 9.88476 10.2201 11.5201 11.9578 13.1621C11.7646 13.352 11.577 13.5474 11.3788 13.7312C9.83698 12.2775 8.29407 10.8253 6.75227 9.37212C5.23539 10.8735 3.70909 12.3649 2.19165 13.8663C2.00287 13.6759 1.78697 13.512 1.61646 13.3044C2.851 12.0466 4.12873 10.832 5.37324 9.58415C5.83605 9.14292 6.27728 8.68066 6.7401 8.23999Z" fill="#013CC8"/>
<path d="M40.1105 9.40032C40.4864 8.95909 40.9659 8.50236 41.587 8.51177C42.1068 8.46859 42.5818 8.83342 42.7667 9.30343C42.9345 9.72639 42.924 10.1914 42.9328 10.6387C42.9328 11.488 42.9317 12.3372 42.9328 13.187C42.9395 13.3874 42.9483 13.5939 43.0186 13.7838C43.1061 13.9576 43.3159 13.9892 43.4864 14.0296C43.4859 14.0977 43.4859 14.1663 43.4864 14.2355C42.6394 14.2355 41.7924 14.2361 40.9454 14.235C40.9443 14.1674 40.9437 14.0999 40.9443 14.0324C41.0976 13.9864 41.272 13.9327 41.3506 13.7782C41.4475 13.5789 41.4425 13.3475 41.4552 13.1305C41.4552 12.1717 41.4591 11.2123 41.453 10.2529C41.4325 9.98105 41.4641 9.66881 41.2748 9.44682C41.1463 9.29236 40.916 9.27741 40.7427 9.35658C40.4709 9.47671 40.2949 9.73248 40.1498 9.9805C40.0983 10.0602 40.1105 10.1582 40.1072 10.2484C40.1122 11.2466 40.1072 12.2453 40.1094 13.2435C40.1177 13.4273 40.1282 13.6188 40.2024 13.7899C40.2777 13.9443 40.4532 13.993 40.6071 14.0296C40.6066 14.0977 40.6071 14.1663 40.6077 14.2355C39.7606 14.2355 38.9136 14.2361 38.0666 14.235C38.0655 14.1663 38.0649 14.0977 38.0649 14.029C38.2498 13.9903 38.4757 13.941 38.5565 13.7467C38.6091 13.5651 38.6158 13.3736 38.6208 13.1859C38.6197 12.1711 38.6202 11.1558 38.6202 10.141C38.6197 9.82327 38.6368 9.49996 38.5599 9.18884C38.5034 8.96905 38.2537 8.92477 38.0677 8.87217C38.0661 8.80353 38.0649 8.73543 38.0644 8.66734C38.7464 8.67011 39.4285 8.66789 40.1105 8.66789C40.1083 8.91203 40.1083 9.15617 40.1105 9.40032Z" fill="#013CC8"/>
<path d="M54.0936 8.96836C54.6107 8.62291 55.2495 8.48395 55.8663 8.51496C56.277 8.52492 56.6945 8.67218 56.9829 8.97279C57.2508 9.2125 57.4302 9.55408 57.4308 9.91835C57.469 10.8213 57.4407 11.7259 57.4496 12.6299C57.454 12.8851 57.4252 13.1459 57.4933 13.3961C57.5132 13.5002 57.64 13.514 57.7137 13.5694C57.7956 13.4908 57.8753 13.4094 57.9534 13.3264C58.0026 13.3734 58.0514 13.421 58.1023 13.4686C57.8958 13.7991 57.645 14.1529 57.2508 14.2664C56.9043 14.3555 56.4758 14.3372 56.2184 14.0566C56.0512 13.8877 56.0069 13.6452 55.9554 13.4232C55.6166 13.7493 55.2457 14.0649 54.7972 14.2271C54.4717 14.3411 54.0814 14.3627 53.7864 14.1584C53.3961 13.8993 53.2532 13.3773 53.3518 12.9344C53.4304 12.4727 53.7415 12.089 54.108 11.8145C54.6854 11.3766 55.3287 11.0366 55.9714 10.7056C55.9526 10.2632 56.0074 9.80929 55.8995 9.37582C55.7151 8.89252 55.0248 8.84269 54.6743 9.16655C54.5968 9.24184 54.5321 9.36142 54.5858 9.46882C54.6793 9.68085 54.872 9.84306 54.9157 10.0789C55.001 10.4897 54.6273 10.9099 54.2099 10.88C53.8035 10.9005 53.4237 10.545 53.421 10.1392C53.4182 9.6648 53.7105 9.22856 54.0936 8.96836ZM54.7956 12.5247C54.7386 12.848 54.9334 13.3098 55.3143 13.2959C55.5745 13.3136 55.7882 13.1409 55.9726 12.9798C55.9665 12.3592 55.9742 11.7386 55.9687 11.1175C55.4555 11.4507 54.9201 11.8947 54.7956 12.5247Z" fill="#013CC8"/>
<path d="M61.6802 8.5876C62.1159 8.44034 62.6546 8.48906 62.9867 8.83395C63.3615 9.17885 63.4484 9.71142 63.4623 10.1969C63.4822 11.0074 63.4662 11.8185 63.4717 12.6295C63.4772 13.0021 63.4412 13.3829 63.5426 13.7461C63.6101 13.9482 63.8437 13.9886 64.0253 14.0296C64.0242 14.0977 64.0242 14.1663 64.0253 14.2355C63.1783 14.2355 62.3313 14.2361 61.4842 14.235C61.4831 14.1674 61.4826 14.0999 61.4831 14.0323C61.637 13.9858 61.8125 13.9321 61.8906 13.7766C61.9808 13.5928 61.9781 13.3796 61.993 13.1798C61.998 12.3328 61.993 11.4857 61.9952 10.6387C61.9914 10.3121 62.0041 9.97992 61.9316 9.65994C61.8729 9.43462 61.6437 9.25636 61.4062 9.31891C61.0463 9.40251 60.8149 9.73744 60.6588 10.0486C60.6328 10.9078 60.6555 11.7692 60.6483 12.6295C60.6572 13.0043 60.6095 13.3913 60.7252 13.755C60.7889 13.931 60.9794 13.993 61.146 14.029C61.1454 14.0977 61.1454 14.1663 61.1465 14.2355C60.2995 14.2355 59.4525 14.2361 58.606 14.235C58.6044 14.1663 58.6038 14.0977 58.6038 14.0296C58.7887 13.9903 59.0174 13.9404 59.0965 13.7433C59.148 13.5623 59.1547 13.3713 59.1596 13.1842C59.1585 12.17 59.1591 11.1558 59.1591 10.1416C59.158 9.82436 59.1751 9.5016 59.0993 9.19103C59.0439 8.96903 58.7932 8.9253 58.6066 8.87215C58.6044 8.8035 58.6033 8.73541 58.6033 8.66732C59.2853 8.67009 59.9674 8.66787 60.6494 8.66787C60.6472 8.91201 60.6472 9.15615 60.6494 9.40029C60.94 9.07256 61.2539 8.73209 61.6802 8.5876Z" fill="#013CC8"/>
<path d="M81.7883 8.87599C82.2229 8.54936 82.8064 8.42646 83.3335 8.56652C83.7692 8.68887 84.1135 9.01827 84.3593 9.38642C84.7108 9.94113 84.8044 10.611 84.836 11.2543C83.9076 11.2548 82.9786 11.2543 82.0502 11.2548C82.0823 11.923 82.2373 12.635 82.7095 13.1371C82.9764 13.4377 83.4254 13.5861 83.8096 13.4377C84.2087 13.3021 84.4379 12.919 84.6494 12.5802C84.7097 12.6339 84.7723 12.6881 84.8354 12.7424C84.6355 13.1681 84.4041 13.5922 84.0565 13.916C83.3174 14.6097 82.0087 14.5538 81.341 13.787C80.7066 13.0507 80.5798 12.021 80.654 11.0849C80.7088 10.2357 81.0902 9.38642 81.7883 8.87599ZM82.3464 9.21203C82.0524 9.70253 82.0236 10.2921 82.0148 10.8496C82.5163 10.8502 83.0179 10.8496 83.52 10.8496C83.4907 10.3608 83.5328 9.84979 83.3584 9.38309C83.2659 9.16331 83.1009 8.8937 82.8264 8.91806C82.6176 8.89315 82.4433 9.04207 82.3464 9.21203Z" fill="#013CC8"/>
<path d="M88.3425 8.84005C88.5783 8.64297 88.8762 8.48575 89.1934 8.51343C89.4973 8.51675 89.7276 8.80241 89.7592 9.08862C89.7863 9.37373 89.7813 9.69316 89.5936 9.92789C89.4563 10.1073 89.2061 10.1826 88.9913 10.115C88.7638 10.0597 88.6353 9.8443 88.4493 9.7214C88.2877 9.62286 88.0961 9.74354 87.9871 9.867C87.6715 10.2279 87.6156 10.7284 87.5547 11.1851C87.5226 11.8511 87.5547 12.5182 87.5425 13.1853C87.5486 13.4134 87.5148 13.6808 87.6881 13.8613C87.8166 14.0041 88.023 14.0008 88.1991 14.0229C88.198 14.0938 88.198 14.1647 88.1991 14.2355C87.3028 14.2355 86.4071 14.2361 85.5113 14.235C85.5091 14.1663 85.5086 14.0971 85.5091 14.029C85.7084 13.9936 85.9647 13.9294 85.9963 13.6891C86.0721 13.285 86.0649 12.8698 86.0644 12.4601C86.0627 11.5572 86.0677 10.6537 86.0622 9.75074C86.0378 9.52597 86.0666 9.2774 85.9404 9.07921C85.8496 8.93085 85.6602 8.92088 85.5113 8.87327C85.5091 8.80462 85.508 8.73542 85.5086 8.66733C86.1746 8.66899 86.8411 8.66954 87.5076 8.66677C87.5314 9.08475 87.5414 9.50272 87.5348 9.92125C87.7662 9.53594 88.002 9.14122 88.3425 8.84005Z" fill="#013CC8"/>
<path d="M90.7297 9.0178C91.0131 8.64135 91.502 8.47748 91.9609 8.51402C92.3102 8.51402 92.6097 8.70889 92.9137 8.8556C93.0692 8.7947 93.175 8.66516 93.2597 8.52675C93.3023 8.52565 93.387 8.52343 93.4291 8.52232C93.485 9.15399 93.4662 9.78953 93.5188 10.4218C93.47 10.4234 93.3732 10.4278 93.325 10.4301C93.134 9.99049 92.9502 9.5166 92.5654 9.20769C92.3457 9.02998 92.039 8.8938 91.7588 9.00064C91.5607 9.09365 91.4051 9.30679 91.4272 9.5321C91.4289 9.68601 91.5269 9.815 91.6298 9.92074C92.0744 10.3858 92.6424 10.7063 93.1036 11.1536C93.4086 11.4254 93.6655 11.7742 93.7374 12.1844C93.8587 12.8803 93.6494 13.6853 93.0554 14.1121C92.6668 14.3933 92.1464 14.4736 91.6913 14.323C91.4555 14.2649 91.2407 14.1442 91.007 14.0822C90.8299 14.0457 90.7513 14.2466 90.6699 14.3623C90.6273 14.364 90.5415 14.3673 90.4983 14.3684C90.4518 13.7052 90.4324 13.0398 90.397 12.376C90.4579 12.3765 90.521 12.3776 90.5846 12.3793C90.7341 12.836 90.9445 13.2944 91.3176 13.6133C91.5418 13.8043 91.8247 13.9737 92.1314 13.9388C92.3484 13.9161 92.5322 13.7456 92.5948 13.5391C92.6679 13.2811 92.5981 12.9872 92.4093 12.7945C92.1132 12.4779 91.7428 12.2464 91.4123 11.9691C91.0917 11.7006 90.7491 11.4354 90.5448 11.0623C90.1888 10.4267 90.268 9.58082 90.7297 9.0178Z" fill="#013CC8"/>
<path d="M95.6839 8.87599C96.119 8.54881 96.7037 8.42646 97.2313 8.56708C97.6531 8.68555 97.9875 9.00055 98.2322 9.35265C98.6025 9.91235 98.7 10.5977 98.7315 11.2543C97.8031 11.2548 96.8742 11.2543 95.9458 11.2548C95.9707 11.7858 96.0726 12.3294 96.3455 12.7928C96.5215 13.0845 96.7706 13.363 97.1111 13.4554C97.4449 13.5617 97.8247 13.451 98.0749 13.2118C98.2654 13.0292 98.4071 12.8038 98.545 12.5802C98.6048 12.6339 98.6679 12.6881 98.731 12.7424C98.5311 13.1681 98.2992 13.5927 97.9509 13.9166C97.1925 14.6291 95.8356 14.5472 95.1857 13.7273C94.5717 12.96 94.4682 11.9203 94.5595 10.9736C94.6359 10.162 95.0174 9.36427 95.6839 8.87599ZM96.2414 9.21314C95.948 9.70364 95.9192 10.2927 95.9103 10.8491C96.4119 10.8507 96.9135 10.8496 97.4156 10.8496C97.3868 10.3597 97.4283 9.84757 97.2528 9.38033C97.1609 9.16332 96.9982 8.89592 96.7264 8.91807C96.5154 8.89149 96.3388 9.04097 96.2414 9.21314Z" fill="#013CC8"/>
<path d="M100.048 9.09243C100.433 8.76304 100.933 8.60249 101.428 8.53108C101.909 8.48679 102.434 8.49398 102.852 8.77023C103.088 8.93853 103.304 9.15056 103.432 9.41408C103.574 9.70971 103.545 10.0452 103.563 10.363C103.567 11.1364 103.564 11.9103 103.565 12.6837C103.567 12.9195 103.545 13.1609 103.608 13.3923C103.625 13.4992 103.753 13.5135 103.829 13.5695C103.911 13.4903 103.991 13.4089 104.069 13.3259C104.118 13.374 104.166 13.4216 104.218 13.4698C104.006 13.8086 103.746 14.1712 103.337 14.2753C103.007 14.3489 102.611 14.3334 102.358 14.0804C102.174 13.911 102.122 13.6564 102.071 13.4233C101.732 13.7488 101.362 14.0644 100.914 14.2266C100.601 14.3357 100.228 14.3628 99.9362 14.1806C99.6134 13.9885 99.444 13.6082 99.4374 13.2423C99.4374 12.8996 99.5464 12.5558 99.7535 12.2812C99.9716 11.9828 100.276 11.7647 100.579 11.5599C101.063 11.2426 101.573 10.9681 102.087 10.7034C102.087 10.3846 102.081 10.0651 102.073 9.74625C102.062 9.53587 102.036 9.29727 101.863 9.15278C101.604 8.89314 101.177 8.91971 100.879 9.0941C100.761 9.17049 100.638 9.31443 100.699 9.46335C100.792 9.67981 100.99 9.84368 101.032 10.0839C101.113 10.4925 100.742 10.9083 100.327 10.88C99.9201 10.9022 99.5381 10.5451 99.5365 10.1376C99.532 9.73351 99.7507 9.35484 100.048 9.09243ZM101.066 12.0963C100.932 12.3371 100.841 12.6344 100.948 12.9029C101.013 13.0867 101.152 13.2855 101.367 13.2927C101.649 13.3364 101.891 13.157 102.089 12.9793C102.081 12.3587 102.09 11.7381 102.084 11.1175C101.683 11.3689 101.311 11.6872 101.066 12.0963Z" fill="#013CC8"/>
<path d="M105.233 8.9552C105.52 8.6175 105.981 8.48242 106.413 8.51397C106.762 8.51508 107.059 8.7094 107.362 8.85555C107.518 8.79521 107.624 8.66622 107.708 8.52671C107.751 8.5256 107.836 8.52338 107.878 8.52228C107.935 9.15394 107.915 9.78949 107.968 10.4223C107.919 10.4239 107.821 10.4272 107.772 10.4289C107.584 9.98934 107.399 9.51711 107.016 9.2082C106.795 9.02938 106.486 8.89264 106.205 9.0017C105.893 9.13235 105.757 9.57358 106 9.83101C106.581 10.4909 107.43 10.8696 107.945 11.5948C108.218 11.9923 108.263 12.4999 108.186 12.965C108.115 13.332 107.959 13.6952 107.686 13.9587C107.317 14.3263 106.748 14.4885 106.243 14.349C105.973 14.2942 105.729 14.1608 105.466 14.0844C105.284 14.0373 105.2 14.2444 105.118 14.3628C105.076 14.3639 104.991 14.3667 104.948 14.3678C104.9 13.7046 104.882 13.0397 104.846 12.3759C104.907 12.3765 104.97 12.3776 105.034 12.3787C105.183 12.8343 105.392 13.2922 105.763 13.6105C105.989 13.8031 106.274 13.9748 106.583 13.9388C106.868 13.9078 107.082 13.6282 107.071 13.3475C107.082 13.1294 106.986 12.9163 106.832 12.7657C106.529 12.4551 106.159 12.2226 105.83 11.9436C105.499 11.6662 105.145 11.3855 104.955 10.9869C104.631 10.3353 104.745 9.49552 105.233 8.9552Z" fill="#013CC8"/>
<path d="M119.008 9.11845C119.395 8.77078 119.91 8.60414 120.418 8.53051C120.898 8.48678 121.422 8.49398 121.839 8.76912C122.075 8.93686 122.292 9.14945 122.421 9.41352C122.563 9.70804 122.534 10.0435 122.552 10.3607C122.555 11.2476 122.553 12.1345 122.553 13.0214C122.552 13.1476 122.563 13.2755 122.598 13.3978C122.619 13.5008 122.743 13.5141 122.818 13.5689C122.9 13.4903 122.979 13.4095 123.058 13.3259C123.106 13.374 123.154 13.4216 123.206 13.4698C122.995 13.8081 122.735 14.1701 122.327 14.2747C121.997 14.3484 121.602 14.334 121.349 14.0826C121.163 13.9132 121.111 13.6575 121.06 13.4233C120.72 13.7494 120.349 14.0655 119.9 14.2277C119.599 14.3312 119.245 14.3611 118.959 14.2C118.718 14.0705 118.548 13.8308 118.476 13.5711C118.367 13.1958 118.447 12.785 118.633 12.4484C118.856 12.0537 119.233 11.783 119.603 11.5366C120.076 11.2316 120.571 10.9603 121.074 10.7073C121.077 10.3873 121.07 10.0673 121.062 9.74734C121.051 9.53476 121.024 9.29449 120.849 9.15C120.599 8.90088 120.194 8.92136 119.901 9.07416C119.769 9.14834 119.626 9.29781 119.686 9.46058C119.779 9.6787 119.979 9.84367 120.022 10.0856C120.101 10.4964 119.727 10.911 119.311 10.88C118.925 10.8977 118.564 10.5783 118.528 10.1963C118.499 9.78554 118.713 9.39193 119.008 9.11845ZM119.951 12.3238C119.82 12.6388 119.902 13.0546 120.195 13.2478C120.5 13.3884 120.846 13.2163 121.058 12.9898C121.096 12.3681 121.066 11.7414 121.073 11.1175C120.609 11.4148 120.154 11.7968 119.951 12.3238Z" fill="#013CC8"/>
<path d="M126.782 8.58813C127.218 8.44031 127.758 8.48848 128.09 8.83393C128.464 9.17772 128.552 9.70863 128.567 10.1925C128.588 11.2084 128.568 12.2242 128.577 13.2401C128.586 13.4239 128.596 13.6132 128.663 13.7865C128.751 13.9581 128.96 13.9891 129.13 14.0295C129.128 14.0976 129.128 14.1663 129.13 14.2355C128.282 14.2355 127.435 14.236 126.588 14.2349C126.586 14.1674 126.586 14.0998 126.587 14.0323C126.781 13.9858 126.992 13.8834 127.039 13.6697C127.148 13.1277 127.08 12.5708 127.099 12.0227C127.089 11.3224 127.121 10.6215 127.078 9.92232C127.07 9.68593 126.98 9.40359 126.731 9.32553C126.435 9.25135 126.162 9.4584 125.993 9.68095C125.886 9.8354 125.734 9.98986 125.751 10.1919C125.753 11.0783 125.752 11.9651 125.752 12.8515C125.753 13.1537 125.734 13.4643 125.829 13.7555C125.894 13.9299 126.083 13.9958 126.25 14.0295C126.249 14.0976 126.249 14.1663 126.251 14.2355C125.404 14.2355 124.557 14.236 123.71 14.2349C123.708 14.1663 123.707 14.0976 123.708 14.029C123.902 13.9902 124.151 13.9299 124.212 13.7101C124.288 13.3547 124.257 12.9888 124.263 12.6284C124.263 11.7985 124.263 10.9692 124.263 10.1399C124.262 9.82212 124.279 9.49881 124.203 9.18824C124.146 8.96901 123.896 8.92472 123.711 8.87157C123.708 8.80348 123.706 8.73539 123.707 8.66729C124.389 8.67006 125.071 8.6684 125.754 8.66785C125.751 8.91199 125.751 9.15613 125.754 9.40027C126.044 9.07309 126.357 8.73373 126.782 8.58813Z" fill="#013CC8"/>
<path d="M49.9897 8.66896C50.6867 8.6673 51.3837 8.67062 52.0807 8.66675C52.0773 10.1726 52.0807 11.6784 52.0796 13.1842C52.0917 13.3979 52.0906 13.626 52.1936 13.8197C52.2938 13.9836 52.5064 13.9963 52.6769 14.0268C52.6758 14.096 52.6752 14.1657 52.6758 14.2355C51.7812 14.2355 50.8865 14.2355 49.9919 14.2355C49.9908 14.1657 49.9908 14.0965 49.9913 14.0279C50.1879 14.0041 50.4154 13.9515 50.5156 13.7599C50.5771 13.595 50.5898 13.4156 50.5915 13.2407C50.5892 12.041 50.5915 10.8408 50.5903 9.6411C50.5793 9.44567 50.5699 9.2342 50.4625 9.06479C50.3468 8.92805 50.1541 8.91366 49.993 8.86937C49.9919 8.81954 49.9908 8.71879 49.9897 8.66896Z" fill="#013CC8"/>
<path d="M74.8915 8.66779C75.7767 8.66779 76.6625 8.67 77.5477 8.66724C77.5455 8.73422 77.5444 8.80121 77.5444 8.86875C77.3401 8.87927 77.1292 8.98335 77.0899 9.20202C77.0605 9.47993 77.1829 9.74456 77.2698 10.0025C77.5532 10.71 77.8184 11.4253 78.1113 12.1295C78.1223 12.1295 78.1445 12.1306 78.1561 12.1312C78.3283 11.732 78.4562 11.3151 78.615 10.9105C78.7916 10.4189 78.9998 9.93168 79.0779 9.41184C79.11 9.24022 79.0363 9.04147 78.878 8.95677C78.7689 8.90916 78.651 8.892 78.5364 8.86986C78.5337 8.80232 78.5331 8.73478 78.5331 8.66724C79.0718 8.66945 79.611 8.66945 80.1496 8.66724C80.1469 8.73478 80.1463 8.80287 80.1463 8.87096C79.9747 8.9302 79.7948 9.00715 79.704 9.17489C79.4992 9.5281 79.363 9.91507 79.2152 10.2943C78.7014 11.6639 78.1738 13.028 77.6639 14.3987C77.582 14.3993 77.5017 14.3993 77.422 14.3998C76.9575 13.2007 76.4837 12.0055 76.0153 10.808C75.8033 10.2871 75.6261 9.75009 75.3604 9.25351C75.2718 9.05864 75.0913 8.9385 74.8954 8.87096C74.8942 8.82003 74.8926 8.71872 74.8915 8.66779Z" fill="#013CC8"/>
<path d="M17.4238 12.3887C18.2425 11.5838 19.0635 10.7799 19.8834 9.97607C21.2868 11.2798 22.6819 12.5924 24.0831 13.8984C23.8866 14.0866 23.6867 14.2715 23.4946 14.4642C22.2999 13.3403 21.0936 12.2287 19.8989 11.1049C18.7076 12.2658 17.5245 13.435 16.3348 14.5976C16.1327 14.4132 15.9357 14.2239 15.7402 14.0329C16.3143 13.4981 16.8585 12.9323 17.4238 12.3887Z" fill="#013CC8"/>
<path d="M2.58423 14.2532C3.95773 12.8913 5.35061 11.5499 6.72023 10.1836C8.12695 11.4818 9.5154 12.7999 10.921 14.0998C10.7311 14.2958 10.5368 14.4873 10.3441 14.6805C9.14171 13.5573 7.93983 12.4329 6.73296 11.3146C5.55987 12.4899 4.35743 13.6359 3.18489 14.8118C2.98283 14.6274 2.78076 14.4436 2.58423 14.2532Z" fill="#013CC8"/>
<path d="M0 12.9666C2.25817 14.9551 4.52131 16.9381 6.77616 18.9306C8.85219 17.0162 10.9271 15.1007 12.9982 13.1808C12.9766 13.5506 13.0303 13.9193 13.0197 14.2891C10.9415 16.1969 8.86824 18.1096 6.79443 20.0223C4.57889 18.0669 2.37387 16.0994 0.159439 14.1424C0.105185 14.0887 0.0276803 14.0378 0.0381989 13.9503C0.0293411 13.6226 0.00664329 13.2948 0 12.9666Z" fill="#013CC8"/>
<path d="M13.6404 13.0635C15.8858 15.031 18.1551 16.9719 20.411 18.9273C22.42 16.9814 24.4313 15.0371 26.4343 13.0856C26.4298 13.4527 26.4664 13.8186 26.4752 14.1851C24.4728 16.1415 22.4477 18.0747 20.4409 20.0262C18.1921 18.0565 15.9345 16.0967 13.6836 14.1292C13.6703 13.7738 13.6642 13.4183 13.6404 13.0635Z" fill="#013CC8"/>
<path d="M20.5068 21.0454C22.5291 19.0286 24.5221 16.9836 26.5251 14.9474C26.5406 15.2984 26.54 15.6505 26.5555 16.002C24.5531 18.0487 22.5452 20.0899 20.5461 22.1393C18.2891 20.1679 16.0386 18.1888 13.7799 16.219C13.7749 15.8337 13.7423 15.4501 13.7312 15.0648C15.9877 17.0611 18.2497 19.0502 20.5068 21.0454Z" fill="#013CC8"/>
<path d="M0.0631104 14.9641C2.32294 16.992 4.57944 19.0243 6.84425 21.046C8.92748 19.0619 10.9836 17.049 13.0507 15.0483C13.0358 15.3887 13.1017 15.7292 13.0674 16.0697C12.9251 16.2701 12.7252 16.4234 12.5525 16.5973C10.6608 18.4524 8.75143 20.2887 6.86307 22.1472C4.77487 20.2898 2.68998 18.4291 0.603431 16.5696C0.435135 16.4123 0.246908 16.2745 0.0963267 16.0996C0.0913443 15.7214 0.0686464 15.3428 0.0631104 14.9641Z" fill="#013CC8"/>
<path d="M20.6046 22.9039C22.6087 20.8644 24.6061 18.8188 26.6019 16.771C26.6323 17.1397 26.65 17.509 26.6583 17.8788C24.651 19.9177 22.6403 21.9539 20.6312 23.9917C18.3836 22.048 16.1248 20.117 13.8755 18.1749C13.8379 17.8051 13.8479 17.4337 13.8296 17.0633C16.0828 19.0159 18.352 20.9502 20.6046 22.9039Z" fill="#013CC8"/>
<path d="M6.9018 22.9C8.98392 20.902 11.0417 18.8797 13.1033 16.8618C13.1282 17.2338 13.1415 17.6064 13.1387 17.9796C11.0633 19.9847 8.98613 21.9888 6.91674 24C4.66744 22.0231 2.41204 20.0523 0.158855 18.0803C0.142246 17.7072 0.148336 17.334 0.137817 16.9615C1.03245 17.7747 1.95476 18.557 2.86046 19.358C4.2085 20.5378 5.55487 21.7192 6.9018 22.9Z" fill="#013CC8"/>
</svg>
