<svg width="268" height="64" viewBox="0 0 268 64" fill="none" xmlns="http://www.w3.org/2000/svg">
<g clip-path="url(#clip0_4_1005)">
<path fill-rule="evenodd" clip-rule="evenodd" d="M247.465 33.6352L248.37 35.0817L248.005 61.1733C247.289 61.8222 247.1 62.2954 247.465 62.6199L255.319 62.4576C255.481 62.1467 255.13 61.8223 254.778 61.4978L254.954 56.3471L255.319 56.1849L258.523 61.3356L258.172 62.6199H267.986C267.555 61.9651 266.932 61.4598 266.202 61.1733C265.134 59.5646 258.699 48.7764 258.699 48.7764C259.628 46.3397 261.003 44.0977 262.755 42.1657C264.012 41.6925 264.363 41.6925 264.539 41.2058H259.132L258.78 41.368C258.78 41.368 260.565 42.4901 259.848 43.4635C258.269 45.7307 256.838 48.0968 255.563 50.5474C255.563 50.5474 254.67 50.8719 254.846 49.5876C255.022 48.3033 254.495 34.2706 254.495 34.2706C254.495 34.2706 253.954 31.702 251.642 32.4996C250.275 33.0792 248.832 33.4615 247.357 33.6352H247.465Z" fill="#0C419A"/>
<path fill-rule="evenodd" clip-rule="evenodd" d="M184.115 32.6348V33.1215C184.599 33.5444 185.018 34.0364 185.359 34.5815C185.724 35.0547 185.548 60.8353 185.548 60.8353C185.548 60.8353 183.574 62.5928 184.291 62.5928H198.742C200.848 62.0954 202.693 60.833 203.92 59.0509C205.88 55.9956 206.624 51.1693 200.716 47.1407C203.217 44.883 208.733 35.8523 195.714 32.6348H184.115ZM191.794 34.0948L192.145 46.4917C192.145 46.4917 197.553 46.9784 197.674 40.8543C197.796 34.7302 194.105 34.5815 192.267 34.2436C190.428 33.9056 191.739 34.0948 191.739 34.0948H191.794ZM191.969 47.9383V60.6731C193.213 60.8353 198.391 60.5109 199.094 56.32C200.54 48.1005 193.037 47.9383 191.969 47.9383Z" fill="#0C419A"/>
<path fill-rule="evenodd" clip-rule="evenodd" d="M233.716 42.1656L234.257 43.5175C235.149 42.8686 235.5 42.8686 236.406 42.1656C237.282 41.682 238.259 41.4089 239.259 41.368C240.46 41.3915 241.607 41.8754 242.463 42.7199C243.179 43.3688 243.179 44.0718 243.531 45.1398C243.714 46.7416 243.773 48.3552 243.706 49.9661V58.0775C243.706 58.8886 243.368 62.1332 244.599 62.2683V62.5793L236.582 62.7415V62.2683C237.826 60.984 237.474 60.0107 237.474 58.0775V48.8981C237.569 47.5478 237.569 46.1926 237.474 44.8424C237.109 44.3557 236.933 44.3557 235.69 44.3557C234.446 44.3557 234.257 45.3291 234.094 46.1267L233.905 58.0504C233.831 59.1266 233.895 60.2078 234.094 61.2679C234.064 61.5309 234.137 61.7955 234.299 62.0052C234.46 62.2148 234.697 62.353 234.96 62.39V62.7145H226.416L226.591 62.2413C228.011 62.0791 227.659 59.9836 227.659 58.0504V46.1537C227.724 45.1749 227.6 44.1927 227.294 43.2606C226.943 42.9362 226.943 42.774 227.659 42.6118L232.296 41.6519C233.013 41.3275 233.716 41.4897 233.716 42.1251V42.1656Z" fill="#0C419A"/>
<path fill-rule="evenodd" clip-rule="evenodd" d="M208.381 45.2345C210.342 44.91 212.856 44.0989 214.627 45.3967C216.398 46.6945 216.236 46.8432 216.236 47.9653C216.236 49.0874 214.1 50.0607 211.95 50.6691C209.801 51.2774 205.88 52.9268 206.421 57.1041C206.962 61.2815 210.166 63.8636 215.884 61.1598C216.236 60.8489 216.952 60.3622 217.48 61.1598C218.007 61.9574 222.306 64.0664 224.983 60.6866C223.901 60.6866 223.198 60.8489 223.198 58.7534C223.198 56.658 223.022 46.6675 223.022 46.6675C223.022 46.6675 223.198 42.1521 217.48 41.1923C214.045 41.3528 210.797 42.8008 208.381 45.248V45.2345ZM216.412 51.9939V59.4023C216.412 59.4023 214.627 61.1733 213.708 59.889C212.113 57.7936 212.464 48.9387 216.412 51.9939Z" fill="#0C419A"/>
<path fill-rule="evenodd" clip-rule="evenodd" d="M138.975 45.2345C140.746 44.91 143.247 44.0989 145.031 45.3967C146.816 46.6945 146.64 46.8432 146.64 47.9653C146.64 49.0874 144.504 50.0607 142.585 50.6691C140.665 51.2775 136.352 52.9268 136.88 57.1041C137.407 61.2815 140.624 63.8636 146.167 61.1598C146.694 60.8489 147.411 60.3622 147.938 61.1598C148.465 61.9575 152.764 64.0664 155.441 60.6867C154.373 60.6867 153.643 60.8489 153.643 58.7535C153.643 56.658 153.467 46.3431 153.467 46.3431C153.467 46.3431 153.643 41.8412 147.938 40.9355C146.231 40.9949 144.555 41.4133 143.02 42.1633C141.485 42.9133 140.125 43.9781 139.029 45.2885L138.975 45.2345ZM146.64 51.8452L146.816 59.0779C146.816 59.0779 145.572 60.8624 144.504 59.5646C142.72 57.1447 142.72 53.2918 145.221 51.345C145.748 50.8719 146.64 51.8452 146.64 51.8452Z" fill="#0C419A"/>
<path fill-rule="evenodd" clip-rule="evenodd" d="M85.9671 61.9845V62.6199H77.2203V61.9845C78.3019 61.66 78.3018 60.3757 78.3018 57.4827V37.6639C78.3018 35.8793 78.1126 33.1485 76.8688 33.1485V32.6348H86.3321V32.9592C84.9126 33.7704 84.9126 35.3792 84.9126 37.6368V57.4556C84.9126 59.0508 84.7369 61.3085 85.9806 61.9574L85.9671 61.9845Z" fill="#0C419A"/>
<path fill-rule="evenodd" clip-rule="evenodd" d="M93.8216 41.6925C94.281 41.5307 94.7818 41.5307 95.2411 41.6925C95.6061 42.0034 95.0654 42.9768 95.9576 43.3012C96.4984 43.6257 97.2014 42.6523 97.9314 42.1656C98.9934 41.6765 100.143 41.4053 101.311 41.368C101.817 41.3404 102.323 41.4269 102.791 41.6211C103.259 41.8153 103.677 42.1123 104.015 42.4901C104.731 43.139 105.272 43.4634 105.448 44.5855V60.2134C105.624 61.3355 105.624 61.5653 106.327 62.1466V62.6198H98.3099V62.1466C99.3779 61.9844 99.2022 59.2401 99.2022 58.4289V49.4253C99.2962 48.1382 99.2962 46.846 99.2022 45.5589C99.0914 45.2004 98.9072 44.8689 98.6614 44.5855C98.5864 44.471 98.4808 44.3798 98.3565 44.3224C98.2322 44.2651 98.0942 44.2438 97.9584 44.2611C96.8769 44.2611 96.5254 43.7879 95.8089 45.613L95.6061 61.0246C95.6186 61.2575 95.6911 61.4833 95.8167 61.68C95.9422 61.8766 96.1165 62.0373 96.3226 62.1466V62.6198H88.1031V61.9844C88.8196 61.66 89.1846 61.3355 88.9953 60.0512L89.1846 44.91C89.1846 44.0988 89.1846 43.6257 88.9953 43.4635C88.4546 43.139 88.4546 42.6523 88.8196 42.6523L93.8216 41.6925Z" fill="#0C419A"/>
<path fill-rule="evenodd" clip-rule="evenodd" d="M119.156 44.0989C117.372 42.6524 115.587 43.7879 115.1 46.1943C114.112 49.7134 113.928 53.4094 114.56 57.0095C115.276 59.9161 117.588 61.2004 119.197 59.9161V44.0989H119.156ZM125.753 33.7974V56.1849C125.753 57.6314 125.578 58.429 125.578 58.7669C125.929 59.7268 125.402 59.889 126.294 60.7002L126.483 61.3356C124.875 61.66 124.145 61.9845 122.549 62.2954C122.016 62.3756 121.474 62.3756 120.941 62.2954C120.444 61.8273 119.803 61.5416 119.123 61.4851C118.442 61.4286 117.763 61.6047 117.196 61.9845C115.786 62.6931 114.154 62.8196 112.652 62.3366C111.15 61.8536 109.898 60.7998 109.166 59.4023C108.039 57.332 107.484 54.9989 107.557 52.6429C107.611 50.7189 107.971 48.8159 108.625 47.0055C109.255 45.5501 110.24 44.2764 111.491 43.3013C112.735 42.3279 114.695 40.8814 118.98 41.6925V38.6237C118.997 37.5484 118.938 36.4732 118.805 35.4062L117.737 33.7974L123.793 32.4455C124.875 32.4455 125.226 33.2566 125.753 33.7974Z" fill="#0C419A"/>
<path fill-rule="evenodd" clip-rule="evenodd" d="M135.933 42.8146V60.0512C135.933 61.0246 135.933 61.66 136.825 62.1467V62.6198H128.254V62.1467C129.147 61.8222 129.147 60.5379 129.147 58.429V43.7879C128.995 43.6721 128.87 43.5255 128.779 43.3577C128.688 43.1899 128.634 43.0048 128.619 42.8146L132.905 41.6925C134.676 41.2058 135.609 41.8547 135.933 42.8146ZM132.188 33.473C133.182 33.4352 134.151 33.7841 134.892 34.4463C135.467 35.1165 135.783 35.9699 135.785 36.8527C135.782 37.7393 135.466 38.5965 134.892 39.2726C134.15 39.9312 133.18 40.2753 132.188 40.2324C131.264 40.2357 130.372 39.8934 129.687 39.2726C129.367 38.9621 129.12 38.5833 128.965 38.1644C128.811 37.7455 128.753 37.2972 128.795 36.8527C128.752 36.4102 128.81 35.9636 128.964 35.5468C129.119 35.1299 129.366 34.7536 129.687 34.4463C130.371 33.8218 131.263 33.4747 132.188 33.473Z" fill="#0C419A"/>
<path fill-rule="evenodd" clip-rule="evenodd" d="M164.134 42.1656L164.661 43.5175C165.402 43.1066 166.119 42.6553 166.811 42.1656C167.741 41.6605 168.78 41.387 169.839 41.368C170.981 41.4274 172.06 41.9092 172.867 42.7199C173.529 43.3533 173.913 44.2236 173.935 45.1398C174.133 46.7405 174.196 48.3549 174.124 49.9661V58.0775C174.124 58.8886 173.759 62.1332 175.017 62.2683V62.5793L166.986 62.7415V62.2683C168.23 60.984 167.879 60.0107 167.879 58.0775V48.8981C167.973 47.5478 167.973 46.1926 167.879 44.8424C167.514 44.3557 167.338 44.3557 166.094 44.3557C164.85 44.3557 164.661 45.3291 164.485 46.1267L164.309 58.0504C164.241 59.1261 164.3 60.2061 164.485 61.2679C164.458 61.5343 164.537 61.8007 164.703 62.0103C164.87 62.2199 165.112 62.3561 165.378 62.39V62.7145H156.766L156.942 62.2413C158.361 62.0791 158.01 59.9836 158.01 58.0504V46.1537C158.01 44.545 158.01 43.5851 157.658 43.2606C157.307 42.9362 157.293 42.774 158.185 42.6118L162.647 41.6519C163.35 41.3275 164.08 41.4897 164.08 42.1251L164.134 42.1656Z" fill="#0C419A"/>
<path fill-rule="evenodd" clip-rule="evenodd" d="M202.487 10.7611C202.676 10.7611 202.852 11.0856 203.028 10.7611L203.217 8.50343H191.05C190.861 9.31457 191.05 9.31456 190.861 10.2744C190.861 10.2744 190.699 10.2744 190.861 15.2764C190.861 17.5206 190.699 22.6848 191.05 23.4825C191.226 23.9692 192.835 24.8344 192.294 24.8344H183.02C182.844 24.8344 183.02 24.5099 183.02 24.5099C183.489 24.0651 183.823 23.4958 183.981 22.8686C184.139 22.2414 184.115 21.5821 183.912 20.9679C182.992 21.6252 181.936 22.0674 180.822 22.2616C179.708 22.4558 178.565 22.3972 177.477 22.09C170.718 19.6701 171.772 10.653 179.099 9.53088C181.411 9.19291 184.264 11.1396 184.439 10.4907C184.629 10.1663 184.264 9.13884 184.439 8.3953L172.664 8.55752V6.78654H173.205C174.449 6.78654 181.06 6.78654 181.235 6.62431C180.085 4.75592 178.486 3.20399 176.585 2.10898C176.233 1.94676 175.692 1.78452 176.058 1.63581C185.156 0.662447 184.439 5.69148 186.765 6.29983L188.198 6.78654C188.198 6.62431 188.373 6.62432 188.373 6.46209C187.545 4.5993 186.117 3.06702 184.318 2.10898C183.777 1.94676 183.425 2.10896 183.601 1.7845C185.575 1.14911 190.563 1.7845 191.456 2.92009C192.348 4.05568 193.24 6.46209 195.025 6.46209C203.244 6.62432 212.167 6.62431 220.373 6.62431V8.55752H210.017L209.841 10.9774C212.167 9.19292 219.48 8.07083 220.548 14.8438C220.735 15.6511 220.75 16.4883 220.595 17.3021C220.439 18.1158 220.116 18.8882 219.645 19.5699C219.175 20.2517 218.567 20.828 217.861 21.2619C217.156 21.6958 216.367 21.9778 215.546 22.09C214.036 22.2191 212.527 21.8227 211.274 20.9679C211.222 20.9296 211.179 20.8811 211.146 20.8253C211.114 20.7695 211.093 20.7076 211.085 20.6435C214.127 19.5079 214.127 15.3305 212.518 12.9106C212.329 12.5727 212.167 12.4239 211.802 12.4239C210.72 12.2617 209.841 12.424 209.841 13.3838L209.666 22.5767C209.666 24.3477 210.369 24.0232 210.909 24.5099C210.942 24.676 211.002 24.8358 211.085 24.9831C210.498 25.0642 209.902 25.0642 209.314 24.9831C208.408 24.9831 201.987 25.1453 201.811 24.9831C201.635 24.8208 201.446 24.9831 201.622 24.8344C203.42 24.0232 202.703 23.861 202.879 21.1301C201.975 21.7793 200.935 22.2139 199.837 22.4009C198.967 22.5704 198.071 22.5644 197.202 22.3831C196.334 22.2019 195.51 21.8491 194.78 21.3455C194.05 20.8418 193.427 20.1974 192.949 19.4501C192.471 18.7028 192.147 17.8675 191.996 16.9933C191.794 15.9701 191.888 14.9103 192.266 13.9382C192.644 12.9662 193.292 12.122 194.132 11.5046C196.985 9.42272 199.121 9.09826 202.514 10.8692L202.487 10.7611ZM77.2204 11.2343C78.4069 10.156 79.8728 9.43329 81.4506 9.14881C83.0285 8.86432 84.6545 9.02952 86.1429 9.62553L85.9671 8.27363H75.8008V6.66487H95.6062C96.8499 3.96108 96.6742 2.79841 99.6619 1.35188C101.129 0.899076 102.618 0.520075 104.123 0.216297C109.125 -0.419095 118.399 -0.4191 120.724 4.73163C120.964 5.34659 121.025 6.01678 120.9 6.66487H166.581V8.30065H163.877V23.2797L165.121 24.564H156.387C156.022 24.564 157.455 24.253 157.455 23.7664V14.8979C156.822 14.7 156.151 14.6491 155.495 14.7492C155.319 15.3846 155.86 15.3846 156.022 15.5468C157.645 19.7377 155.86 23.6582 150.845 24.253C146.573 24.8884 143.707 22.1576 143.896 18.1289C144.072 14.8979 146.045 13.2892 149.614 12.6538C151.81 12.4912 154.016 12.4912 156.212 12.6538C156.563 12.478 157.104 12.6538 157.455 12.478V8.42232C156.212 8.42232 142.287 8.09786 142.287 8.42232L142.179 23.1715C142.179 23.8204 143.071 24.1449 143.598 24.5234V24.6721L134.676 24.8479C134.5 24.8479 134.676 24.5234 134.676 24.5234C134.917 24.4101 135.133 24.2488 135.309 24.0494C135.486 23.8499 135.62 23.6166 135.704 23.3635C135.787 23.1105 135.818 22.843 135.795 22.5776C135.772 22.3121 135.695 22.0542 135.568 21.8196C134.409 22.1584 133.217 22.3715 132.013 22.455C124.875 22.793 122.374 19.2375 123.077 13.1134C124.699 12.6267 125.929 13.1134 127.011 11.7615C128.444 10.1527 127.727 8.86845 126.483 8.38176H120.765V11.2748C120.765 11.4371 120.941 11.7615 120.765 11.9237C119.332 12.4104 116.709 11.9237 115.06 12.0859C114.695 12.0859 114.519 12.086 114.343 11.9237C114.168 11.437 114.168 11.2748 113.803 11.1261C111.842 10.6394 109.747 12.4104 111.302 13.8299C112.856 15.2494 117.007 14.8033 119.697 16.0876C121.657 17.061 122.725 18.7914 121.657 20.7651C120.048 24.4693 114.168 25.7536 110.234 24.8208C108.225 24.1644 106.308 23.2559 104.529 22.117C105.107 20.8965 105.762 19.7136 106.489 18.5751C107.557 20.5083 110.774 25.4968 115.06 22.428C115.47 22.1553 115.806 21.7855 116.039 21.3515C116.271 20.9175 116.393 20.4328 116.393 19.9405C116.393 19.4481 116.271 18.9634 116.039 18.5294C115.806 18.0955 115.47 17.7257 115.06 17.453C112.207 14.7492 106.489 17.9261 104.88 13.7353C103.271 9.54438 110.774 8.32771 114.168 9.88239C114.695 9.88239 113.978 8.90903 114.168 8.53049V8.30065H102.555L102.379 23.2797C102.379 23.7663 103.461 24.2531 103.812 24.4153V24.7397H99.3509C97.2014 24.7397 95.0654 24.8884 94.8897 24.564C95.1513 24.4418 95.3827 24.2633 95.5673 24.0412C95.7519 23.8192 95.8852 23.5592 95.9576 23.2797V8.30065H92.3886L92.2129 12.0048L85.9671 11.8426C86.1429 10.3961 84.5476 10.3961 83.6419 11.1937C83.1146 11.8426 82.7496 12.9647 83.2904 13.6136C85.9942 17.1691 93.6324 11.8426 94.5382 18.7643C95.2411 23.2797 89.3604 24.4153 89.3604 24.4153C89.3834 24.9677 89.519 25.5096 89.7591 26.0076C89.9992 26.5057 90.3385 26.9494 90.7564 27.3115C91.1742 27.6736 91.6616 27.9465 92.1888 28.1133C92.7159 28.2802 93.2716 28.3375 93.8216 28.2817C94.1731 28.6061 93.1051 29.0793 92.9159 29.2415C89.7119 30.7016 87.2244 30.2149 85.4399 28.9171C82.7361 27.3083 81.1408 24.253 78.3019 22.482C77.7427 22.1673 77.1351 21.948 76.5039 21.8332C76.5039 21.6709 76.1524 21.6709 76.3281 21.5087L77.9369 19.8999C78.0622 20.3133 78.2691 20.6974 78.5454 21.0295C78.8217 21.3615 79.1619 21.6348 79.5456 21.8332C82.0331 23.7664 84.9532 24.5369 87.4001 22.1576C87.8123 21.7856 88.1126 21.3061 88.2674 20.7729C88.4221 20.2397 88.4253 19.6739 88.2765 19.1391C88.1277 18.6042 87.8328 18.1214 87.4249 17.7447C87.0169 17.3681 86.5122 17.1126 85.9671 17.0069C82.9254 16.358 79.7214 18.2912 77.5854 15.8713C76.9308 15.2905 76.527 14.4785 76.459 13.6061C76.3909 12.7337 76.6638 11.869 77.2204 11.1937V11.2343ZM89.8876 0.121695C90.2862 0.0738032 90.6903 0.11096 91.0735 0.230736C91.4566 0.350513 91.8099 0.550169 92.1102 0.816539C92.4105 1.08291 92.6509 1.40995 92.8156 1.77604C92.9802 2.14214 93.0653 2.53898 93.0653 2.94039C93.0653 3.3418 92.9802 3.73864 92.8156 4.10473C92.6509 4.47083 92.4105 4.79787 92.1102 5.06424C91.8099 5.33061 91.4566 5.53026 91.0735 5.65004C90.6903 5.76982 90.2862 5.80697 89.8876 5.75908C89.501 5.78587 89.1131 5.73286 88.7479 5.60334C88.3827 5.47381 88.048 5.27055 87.7647 5.00619C87.4814 4.74183 87.2554 4.422 87.101 4.06661C86.9465 3.71123 86.8669 3.32789 86.8669 2.94039C86.8669 2.55289 86.9465 2.16951 87.101 1.81412C87.2554 1.45874 87.4814 1.13895 87.7647 0.874587C88.048 0.610223 88.3827 0.406961 88.7479 0.277439C89.1131 0.147917 89.501 0.0949072 89.8876 0.121695ZM196.431 1.25728C196.832 1.30161 197.213 1.46114 197.526 1.71663C197.839 1.97213 198.071 2.31269 198.195 2.6973C198.319 3.08192 198.329 3.49416 198.224 3.88438C198.119 4.27461 197.904 4.62617 197.604 4.89669C197.303 5.16721 196.931 5.34516 196.532 5.4091C196.133 5.47304 195.724 5.42024 195.355 5.25707C194.985 5.0939 194.67 4.82733 194.449 4.48945C194.227 4.15157 194.108 3.7568 194.105 3.35271C194.147 2.77062 194.412 2.22728 194.846 1.83661C195.279 1.44594 195.847 1.23832 196.431 1.25728ZM149.844 21.2248C146.816 20.9138 146.464 17.1691 149.493 16.5607H151.088C151.277 16.8852 151.467 16.8852 151.818 17.0474C153.237 18.6562 153.062 20.1027 151.088 21.2248H149.844ZM135.933 8.30065C135.933 9.43625 135.757 10.7205 135.757 11.8426V19.4132C135.116 20.059 134.287 20.4853 133.388 20.631C132.49 20.7767 131.568 20.6344 130.755 20.2244L129.863 19.4132C129.344 18.1209 129.282 16.69 129.687 15.3576C130.567 15.2564 131.416 14.9763 132.184 14.5346C132.951 14.0928 133.62 13.4988 134.149 12.789C134.47 12.0737 134.621 11.294 134.59 10.5107C134.56 9.72738 134.348 8.96175 133.973 8.27363L135.933 8.30065ZM114.168 6.52967H102.379C102.203 6.36744 102.203 6.20523 102.028 6.20523C101.878 5.68932 101.848 5.14613 101.939 4.61681C102.031 4.08749 102.241 3.58588 102.555 3.14993C105.056 0.446137 112.018 0.446131 114.519 3.31215C114.816 3.81461 114.941 4.39945 114.878 4.97933C114.815 5.55921 114.566 6.10305 114.168 6.52967ZM179.289 13.7758L182.506 19.8999C178.234 21.1842 178.586 15.3846 179.289 13.7758ZM203.028 13.4514L202.852 18.7643C199.635 21.3464 198.391 17.6423 199.094 14.587C199.472 12.816 201.068 10.2339 203.028 13.4514ZM184.101 17.6423C182.745 15.8165 181.551 13.8759 180.532 11.8426C180.598 11.7812 180.648 11.7051 180.679 11.6204C180.709 11.5358 180.719 11.4452 180.708 11.356C184.764 11.356 184.453 14.587 184.277 17.48C184.277 17.48 184.101 17.48 184.101 17.6423Z" fill="#0C419A"/>
<path fill-rule="evenodd" clip-rule="evenodd" d="M38.1776 35.7307C39.7894 37.5036 41.0386 39.5749 41.8547 41.8277L43.2066 40.3406L48.0058 44.9912C54.5085 38.9888 47.1406 29.7553 38.1235 35.7307H38.1776ZM26.9839 33.8245L32.9593 37.38L31.2018 38.9482L25.9294 38.7995C26.4025 46.6405 38.475 46.9108 38.0965 35.8388C34.2971 36.0057 30.5087 35.3173 27.0109 33.8245H26.9839ZM38.0694 35.5279L38.1911 35.6766C55.2926 10.8287 85.6021 34.1895 60.9029 57.0906L65.5399 61.4302L63.9447 62.9984L42.5442 61.2815L42.0575 49.7498C37.9342 62.4306 13.6677 67.8382 7.71933 42.355L1.33838 43.5987L11.2478 26.8487L12.6808 25.294L23.496 31.7426C10.3285 21.5763 20.2649 -3.40676 48.2898 6.67838L49.0738 3.27162L50.5204 1.91972L61.4708 20.4677L59.8755 22.1846L39.2726 29.931L41.6654 23.4149C32.8916 20.1703 29.0523 30.0797 38.0018 35.8253C38.0085 35.7262 38.0085 35.6269 38.0018 35.5279H38.0694Z" fill="white"/>
<path fill-rule="evenodd" clip-rule="evenodd" d="M36.9068 37.434C54.887 60.0648 14.5194 78.1802 6.54317 44.1935L0 45.275L11.1802 26.8217L31.1342 39.0698L24.2665 40.4217C26.0105 48.9387 36.5282 47.7085 36.8797 37.3664L36.7175 37.4611C5.09666 38.083 11.8021 -4.25845 47.1001 8.30067L48.8575 3.50145L59.6727 22.1171L37.9612 31.5803L40.5163 25.0777C31.5668 21.8061 27.7274 31.7425 36.677 37.4746C52.6429 11.4235 84.5882 35.9335 59.6592 58.8887L63.4986 62.9443L41.3004 63.093L41.8547 42.0981L46.8162 46.9108C53.4675 40.7462 45.9509 31.5262 36.9338 37.4476L36.9068 37.434Z" fill="#F4B035"/>
</g>
<defs>
<clipPath id="clip0_4_1005">
<rect width="268" height="63.1471" fill="white"/>
</clipPath>
</defs>
</svg>
