<svg width="208" height="30" viewBox="0 0 208 30" fill="none" xmlns="http://www.w3.org/2000/svg">
<g id="IndusInd" clip-path="url(#clip0_4_1278)">
<path id="Vector" fill-rule="evenodd" clip-rule="evenodd" d="M189.529 0C199.738 0 207.991 6.71537 207.991 15C207.991 23.2846 199.722 29.9978 189.529 29.9978C179.335 29.9978 171.066 23.2846 171.066 15C171.066 6.71537 179.338 0 189.529 0Z" fill="white"/>
<path id="Vector_2" fill-rule="evenodd" clip-rule="evenodd" d="M188.048 29.9978C182.585 29.6756 177.748 27.3568 174.652 23.9597H180.639C182.531 25.9716 185.001 27.9843 188.048 29.9978Z" fill="#1C9ECD"/>
<path id="Vector_3" fill-rule="evenodd" clip-rule="evenodd" d="M189.944 23.9597H197.424C195.53 25.9497 193.037 27.9383 189.944 29.9255V23.9597Z" fill="#1C9ECD"/>
<path id="Vector_4" fill-rule="evenodd" clip-rule="evenodd" d="M189.168 29.9255C186.101 27.9376 183.606 25.9497 181.707 23.9597H189.168V29.9255Z" fill="#1C9ECD"/>
<path id="Vector_5" fill-rule="evenodd" clip-rule="evenodd" d="M204.355 23.9597C201.267 27.3568 196.451 29.6581 191.015 30C194.055 27.9836 196.551 25.9738 198.423 23.9597H204.355Z" fill="#1C9ECD"/>
<path id="Vector_6" fill-rule="evenodd" clip-rule="evenodd" d="M171.06 14.623C171.136 11.7497 172.235 9.08459 174.031 6.82275H179.739C177.53 9.41115 176.421 12.0083 176.373 14.623H171.06Z" fill="#1C9ECD"/>
<path id="Vector_7" fill-rule="evenodd" clip-rule="evenodd" d="M180.015 23.1772H174.031C172.235 20.9154 171.136 18.27 171.06 15.4033H176.399C176.573 17.996 177.769 20.5866 180.015 23.1772Z" fill="#1C9ECD"/>
<path id="Vector_8" fill-rule="evenodd" clip-rule="evenodd" d="M207.998 15.4033C207.924 18.27 206.827 20.9154 205.033 23.1794H199.121C201.338 20.5866 202.563 17.9938 202.711 15.4033H207.998Z" fill="#1C9ECD"/>
<path id="Vector_9" fill-rule="evenodd" clip-rule="evenodd" d="M205.031 6.82275C206.827 9.08459 207.924 11.7519 207.998 14.6274H202.737C202.687 11.9974 201.59 9.41334 199.394 6.82275H205.031Z" fill="#1C9ECD"/>
<path id="Vector_10" fill-rule="evenodd" clip-rule="evenodd" d="M191.041 0C196.471 0.357247 201.267 2.64538 204.355 6.04252H198.695C196.801 4.02835 194.255 2.02075 191.041 0Z" fill="#1C9ECD"/>
<path id="Vector_11" fill-rule="evenodd" clip-rule="evenodd" d="M180.439 6.04252H174.707C177.826 2.64319 182.639 0.330947 188.104 0C184.862 2.01344 182.309 4.02762 180.445 6.04252" fill="#1C9ECD"/>
<path id="Vector_12" fill-rule="evenodd" clip-rule="evenodd" d="M189.168 6.04253H181.488C183.38 4.05685 185.928 2.06459 189.168 0.0767212V6.04253Z" fill="#1C9ECD"/>
<path id="Vector_13" fill-rule="evenodd" clip-rule="evenodd" d="M189.944 0.0767212C193.187 2.06679 195.755 4.05539 197.648 6.04253H189.944V0.0767212Z" fill="#1C9ECD"/>
<path id="Vector_14" fill-rule="evenodd" clip-rule="evenodd" d="M195.124 20.2119L195.196 20.3346L195.224 20.5384V20.7576C195.209 21.3318 194.931 21.5685 194.401 21.7132H194.201L194.175 21.6891L194.125 21.6628L194.077 21.6145L194.051 21.5619V21.5269L194.025 21.4545V21.3756L194.051 21.3274V21.277L194.099 21.2244L194.125 21.1762L194.227 21.0513L194.299 21.0228L194.401 21.0009L194.501 20.9263L194.624 20.8474L194.648 20.8255L194.672 20.7729L194.698 20.7006L194.724 20.6217L194.698 20.5472L194.672 20.4179L194.624 20.3236L194.548 20.1702L194.331 19.8195C193.992 19.0634 194.49 19.0634 194.236 18.4059L194.162 18.2064L194.012 17.9873L193.738 17.584L193.51 17.2552L193.436 17.104L193.363 16.9813C193.145 16.3808 193.397 15.7452 193.484 15.1446V14.5989L193.46 14.3797V14.3271L193.484 14.2504L193.51 14.2285L193.536 14.2022H193.56L193.586 14.2285L193.61 14.2504L193.634 14.2767L193.686 14.4521V14.5792L193.738 14.7567V15.0088L193.71 15.3068C193.541 16.1835 193.525 16.7577 194.21 17.3758L194.331 17.4722L194.433 17.5511C194.981 18.1473 194.79 18.4519 194.783 19.1335V19.3352L194.857 19.5543L194.909 19.7538L195.009 19.973L195.124 20.2119Z" fill="white"/>
<path id="Vector_15" fill-rule="evenodd" clip-rule="evenodd" d="M194.507 15.9819V16.1331L194.531 16.2646C194.62 17.1413 195.515 17.481 196.025 18.0684L196.128 18.2459L196.178 18.4475C196.336 18.9122 196.208 19.9488 195.554 19.905L195.502 19.8809L195.478 19.8612L195.502 19.8349L195.53 19.8086C196.043 19.2935 195.841 18.533 195.478 17.996L195.33 17.8207L195.154 17.6432L194.955 17.4941C194.772 17.3203 194.635 17.1034 194.555 16.8629L194.507 16.7117L194.459 16.5868C194.395 16.2993 194.378 16.0032 194.407 15.7101L194.431 15.6597L194.459 15.6378H194.481L194.507 15.686V15.7364L194.531 15.8394L194.507 15.9819Z" fill="white"/>
<path id="Vector_16" fill-rule="evenodd" clip-rule="evenodd" d="M192.687 17.6169L192.637 17.7199V17.847C192.42 18.6404 193.128 19.1817 193.413 19.8327L193.434 20.008V20.1812C193.402 20.6195 193.05 21.4786 192.461 21.277L192.439 21.2529L192.411 21.2244L192.439 21.2025V21.1762H192.487L192.561 21.1258C193.139 20.7773 193.102 19.9971 192.859 19.4426L192.761 19.2431L192.661 19.0108L192.589 18.9122L192.535 18.7872L192.511 18.6601L192.487 18.5111V17.9697L192.535 17.7506L192.589 17.5511L192.637 17.4021L192.661 17.3232L192.711 17.2991H192.761V17.4021L192.739 17.5029L192.687 17.6169Z" fill="white"/>
<path id="Vector_17" d="M192.687 17.6169L192.637 17.7199V17.847C192.42 18.6404 193.128 19.1817 193.413 19.8327L193.434 20.008V20.1812C193.402 20.6195 193.05 21.4786 192.461 21.277L192.439 21.2529L192.411 21.2244L192.439 21.2025V21.1762H192.487L192.561 21.1258C193.139 20.7773 193.102 19.9971 192.859 19.4426L192.761 19.2431L192.661 19.0108L192.589 18.9122L192.535 18.7872L192.511 18.6601L192.487 18.5111V17.9697L192.535 17.7506L192.589 17.5511L192.637 17.4021L192.661 17.3232L192.711 17.2991H192.761V17.4021L192.739 17.5029L192.687 17.6169Z" stroke="white" stroke-width="0.42" stroke-miterlimit="2.41"/>
<path id="Vector_18" fill-rule="evenodd" clip-rule="evenodd" d="M195.902 16.966L195.606 16.5145L195.478 16.3348L195.43 16.2098C195.402 15.7057 195.487 15.9074 195.53 15.6049V15.5545L195.478 15.4537C195.317 15.1469 194.787 14.7962 194.609 14.4718L194.509 14.2526L194.433 14.0335L194.383 13.9064V13.7683L194.359 13.6434V13.5184L194.383 13.3891L194.409 13.2883L194.462 13.1634L194.509 13.0867L194.609 13.0165L194.709 12.9398L194.783 12.8828H194.857L194.979 12.8368L195.031 12.8127H195.083L195.124 12.7601L195.174 12.7119L195.224 12.6111L195.3 12.4292L195.322 12.3831L195.348 12.3283H195.398L195.448 12.3042L195.65 12.3283V12.2823L195.621 12.2034C195.163 11.3815 194.798 10.45 194.874 9.48789V9.28626L194.922 9.06709L194.97 8.84792L195.05 8.64628L195.124 8.42711L195.248 8.22547L195.372 8.02384L195.524 7.80467L195.65 7.60303L195.745 7.42769L195.774 7.35318L195.795 7.27647V7.20195L195.774 7.15154L195.745 7.12305L195.697 7.09894H195.671L195.621 7.12305H195.558L195.383 7.22387L195.235 7.32468L195.111 7.42769L194.981 7.55481L194.835 7.65563L194.735 7.77837L194.638 7.90329L194.535 8.03041L194.464 8.18383L194.283 8.4556C193.995 9.20955 193.795 10.0446 193.936 10.8489V10.9761H193.912L193.886 10.9519L193.688 10.7766L193.471 10.6232C192.059 9.81884 190.107 10.45 190.382 12.3327L190.402 12.4116L190.482 12.5848L190.554 12.7404L190.604 12.839V12.885L190.58 12.9376L190.526 13.0428L190.456 13.0867L190.354 13.1656L190.254 13.2138L190.154 13.2664L189.983 13.3146L189.931 13.3453H189.907L189.881 13.365H189.855L189.683 13.4154L189.466 13.4658L189.266 13.4921H189.049L188.832 13.5184L188.582 13.4921L188.332 13.4658L188.045 13.4176L187.522 13.3387L186.977 13.2401L185.878 12.9617L185.328 12.8587L184.783 12.736L184.229 12.6615L183.955 12.6352C181.566 12.2472 180.339 13.8275 180.563 16.1068L180.736 17.2684L180.888 18.2218L180.936 18.6602C181.112 19.642 180.743 20.5187 180.736 21.5094V21.8929L180.76 22.2129C180.789 22.5044 180.923 22.9953 181.234 22.5943L181.284 22.4956L181.312 22.3641L181.362 22.2129L181.412 21.8622L181.434 21.5642V21.4107L181.488 20.8825C181.788 18.6908 179.813 15.0154 181.885 13.7113L182.057 13.6083L182.309 13.536L182.609 13.4834C183.287 13.3699 183.982 13.5119 184.564 13.8823L184.811 14.0379L185.089 14.211C186.051 14.8948 187.307 15.0154 188.454 15.0439H188.851L189.227 15.0197L189.577 14.9956L189.868 14.9518L190.141 14.8992L190.389 14.851C190.7 14.7261 191.208 14.5639 191.54 14.6976L191.686 14.7984L191.84 14.8992L191.964 15.0263L192.061 15.1512L192.164 15.3266L192.214 15.4756L192.285 15.6268L192.337 15.7803L192.385 15.9359L192.411 16.0827V16.2844L192.385 16.4334L192.361 16.5868L192.285 16.8608L192.24 16.8871L192.185 16.9353C191.859 17.1786 191.631 17.8865 191.614 18.2963L191.562 18.601V18.7237L191.514 18.8245L191.486 18.9254L191.438 18.9999L191.388 19.081L191.314 19.1007L191.238 19.1511L191.19 19.2059L191.041 19.2563H190.889L190.765 19.2804H190.641L190.513 19.2563H190.369L190.115 19.1796L189.918 19.1007L189.868 19.081L189.894 19.4294L189.97 19.71L190.022 19.859L190.094 19.9576L190.141 20.0607L190.191 20.1089L190.217 20.1571L190.241 20.2097L190.27 20.385L190.319 20.6612C190.419 21.1697 190.35 21.7943 190.369 22.3225L190.341 22.5417L190.319 22.6666L190.369 22.6951L190.513 22.7696L190.567 22.8156L190.641 22.8682L190.667 22.9471L190.691 22.9975V23.0216L190.739 23.0699H191.988V22.9975L191.964 22.9186L191.938 22.8419L191.888 22.7959L191.814 22.6666L191.714 22.568L191.514 22.4145L191.438 22.3663L191.414 22.3137L191.388 22.2896L191.364 22.2392L191.34 22.1866V22.088L191.388 21.9652L191.54 21.9872H191.664L191.914 22.0135H192.361L192.385 22.3378L192.361 22.568V22.7192L192.411 22.7389C192.522 22.831 192.689 22.9011 192.687 23.0699L192.711 23.1181H193.956V23.0216L193.932 22.9186L193.882 22.8419L193.806 22.7696L193.684 22.6162L193.558 22.5176L193.508 22.4693L193.458 22.3904L193.384 22.3137L193.36 22.2392V22.0661L193.412 21.9126L193.63 22.088L193.78 22.1669L193.83 22.1866C194.327 22.305 194.442 22.3225 194.916 22.1866L195.115 22.088L195.315 21.9652C195.728 21.6957 195.737 21.2946 195.91 20.8562L195.962 20.7817L195.986 20.7291L196.036 20.6787C197.177 20.2185 197.437 18.9254 196.688 17.9391L196.562 17.7572L196.345 17.4591L195.902 16.966Z" fill="#98272B"/>
<path id="Vector_19" fill-rule="evenodd" clip-rule="evenodd" d="M195.656 14.143L195.728 14.2241L195.776 14.2943L195.797 14.371V14.7699L195.847 14.6953L195.897 14.5967L195.973 14.4959L196.023 14.371L196.047 14.2219V14.1671L196.023 14.0926V14.0444L195.999 13.9896L195.949 13.9436C195.845 13.9085 195.469 13.6521 195.35 13.8143V13.9151L195.326 14.0203L195.656 14.143Z" fill="#98272B"/>
<path id="Vector_20" d="M195.656 14.143L195.728 14.2241L195.776 14.2943L195.797 14.371V14.7699L195.847 14.6953L195.897 14.5967L195.973 14.4959L196.023 14.371L196.047 14.2219V14.1671L196.023 14.0926V14.0444L195.999 13.9896L195.949 13.9436C195.845 13.9085 195.469 13.6521 195.35 13.8143V13.9151L195.326 14.0203L195.656 14.143Z" stroke="#9A292D" stroke-width="0.21" stroke-miterlimit="2.41"/>
<path id="Vector_21" fill-rule="evenodd" clip-rule="evenodd" d="M195.181 20.3105L195.231 20.385L195.254 20.5121L195.278 20.6108L195.307 20.7116V20.8365L195.278 20.9395L195.254 21.0403L195.231 21.1653L195.181 21.2924L195.105 21.4436L195.007 21.5664L194.881 21.6957C194.598 21.7811 194.703 21.8863 194.331 21.8732L194.257 21.8425L194.181 21.7943L194.134 21.7439L194.084 21.6672L194.058 21.5664L194.084 21.494L194.108 21.4151L194.134 21.3428L194.181 21.2661L194.257 21.1916L194.357 21.1412L194.531 21.0403L194.607 21.0119L194.655 20.9395L194.705 20.8891L194.731 20.8146L194.757 20.762V20.6108L194.731 20.5363L194.679 20.385L194.607 20.2338L194.459 19.9598L194.381 19.859C194.315 19.7458 194.272 19.6204 194.255 19.4902C194.237 19.36 194.245 19.2276 194.279 19.1007L194.331 18.9517L194.357 18.8749C194.367 18.5991 194.291 18.3272 194.14 18.0969L194.016 17.9457L193.821 17.6673L193.604 17.3408C192.909 16.44 193.647 15.4274 193.504 14.222L193.53 14.1957L193.554 14.1694L193.58 14.1431L193.628 14.1957L193.654 14.2439C194.064 15.1973 193.204 16.2296 193.977 17.115L194.053 17.1917L194.203 17.3408C195.311 18.235 194.616 18.7522 194.876 19.5807L194.95 19.8327L195.052 20.0519L195.181 20.3105Z" fill="white"/>
<path id="Vector_22" fill-rule="evenodd" clip-rule="evenodd" d="M194.705 15.9819V16.2339L194.731 16.3611C195.081 17.5117 195.843 17.4306 196.204 18.0684L196.301 18.2459L196.377 18.4476C196.503 18.91 196.429 19.8481 195.802 19.905H195.754L195.704 19.8809L195.678 19.8612V19.8349C196.128 19.4886 196.091 18.8749 195.895 18.3972L195.795 18.1977L195.65 17.9961C194.935 17.1391 194.635 17.2706 194.564 15.9337V15.6794L194.59 15.6312H194.638L194.661 15.6531L194.687 15.7036V15.9819H194.705Z" fill="white"/>
<path id="Vector_23" fill-rule="evenodd" clip-rule="evenodd" d="M198.771 8.05453L198.721 7.95371L198.645 7.80468L198.597 7.77838L198.573 7.72797H198.495L198.473 7.75208V7.77838L198.447 7.877L198.473 8.00412V8.15754L198.521 8.48629L198.573 8.78656L198.597 9.06271V9.53831L198.573 9.76844L198.521 9.96788L198.495 10.1695L198.473 10.3186C198.357 10.6631 198.174 10.9808 197.935 11.2529C197.695 11.525 197.404 11.7461 197.079 11.9032L196.777 12.0325L196.453 12.1333L196.777 12.4094L197.055 12.6286C197.502 13.1217 197.989 13.9436 197.426 14.5398L197.253 14.794L197.177 14.943L197.103 15.0987L197.055 15.2696L197.003 15.4471L196.927 15.8285L196.875 16.177L196.827 16.3567L196.803 16.429L196.775 16.4816L196.751 16.5079L196.725 16.5298L196.653 16.5583H196.601L196.525 16.5298H196.499L196.451 16.5583V16.5846C196.466 16.7271 196.547 17.0887 196.725 17.0865H196.751V17.0602H196.775L196.827 16.9879L196.849 16.8586L196.927 16.6394L196.977 16.4202L197.053 15.9644L197.101 15.5392V15.4844L197.174 15.3376L197.274 15.2104L197.376 15.0833L197.476 14.9847L197.694 14.7809L197.841 14.6077L197.967 14.4543L198.091 14.279L198.141 14.1759L198.191 14.0773L198.219 13.9743V13.9042L198.191 13.8056L198.167 13.6762L198.091 13.3475L197.917 12.8193L198.115 12.5716L198.141 12.5212C198.517 12.0171 198.877 11.5744 199.064 10.9563L199.138 10.7569L199.188 10.5377C199.297 10.03 199.28 9.50292 199.138 9.00354L199.064 8.80409L198.94 8.45123L198.771 8.05453Z" fill="#98272B"/>
<path id="Vector_24" d="M198.771 8.05453L198.721 7.95371L198.645 7.80468L198.597 7.77838L198.573 7.72797H198.495L198.473 7.75208V7.77838L198.447 7.877L198.473 8.00412V8.15754L198.521 8.48629L198.573 8.78656L198.597 9.06271V9.53831L198.573 9.76844L198.521 9.96788L198.495 10.1695L198.473 10.3186C198.357 10.6631 198.174 10.9808 197.935 11.2529C197.695 11.525 197.404 11.7461 197.079 11.9032L196.777 12.0325L196.453 12.1333L196.777 12.4094L197.055 12.6286C197.503 13.1217 197.989 13.9436 197.426 14.5398L197.253 14.794L197.177 14.943L197.103 15.0987L197.055 15.2696L197.003 15.4471L196.927 15.8285L196.875 16.177L196.827 16.3567L196.803 16.429L196.775 16.4816L196.751 16.5079L196.725 16.5298L196.653 16.5583H196.601L196.525 16.5298H196.499L196.451 16.5583V16.5846C196.466 16.7271 196.547 17.0887 196.725 17.0865H196.751V17.0602H196.775L196.827 16.9879L196.849 16.8586L196.927 16.6394L196.977 16.4203L197.053 15.9644L197.101 15.5392V15.4844L197.175 15.3376L197.274 15.2104L197.377 15.0833L197.476 14.9847L197.694 14.7809L197.841 14.6077L197.967 14.4543L198.091 14.279L198.141 14.1759L198.191 14.0773L198.219 13.9743V13.9042L198.191 13.8056L198.167 13.6762L198.091 13.3475L197.917 12.8193L198.115 12.5716L198.141 12.5212C198.619 11.8922 198.895 11.5328 199.138 10.7569L199.188 10.5377L199.214 10.3361C199.302 9.8204 199.25 9.29036 199.064 8.8019L198.94 8.44904L198.771 8.05453Z" stroke="#9A292D" stroke-width="0.63" stroke-miterlimit="2.41"/>
<path id="Vector_25" fill-rule="evenodd" clip-rule="evenodd" d="M192.837 17.5928L192.787 17.7659L192.761 17.9457V18.1232C192.783 18.9429 193.393 19.2585 193.584 19.9598V20.133C193.584 20.5713 193.332 21.2288 192.837 21.3165H192.687L192.637 21.2924L192.589 21.242V21.2135L192.611 21.1916L192.637 21.1675L192.739 21.1149L192.809 21.0666L192.859 21.0119L192.937 20.9417L192.985 20.8869L193.035 20.8146L193.111 20.6612L193.158 20.4858L193.187 20.3324V19.9598C192.969 19.1905 192.355 18.487 192.711 17.6454L192.787 17.3912L192.837 17.3145V17.2903L192.885 17.2662H192.911L192.937 17.3145L192.911 17.3429V17.4175L192.859 17.5446L192.837 17.5928Z" fill="white"/>
<path id="Vector_26" d="M192.837 17.5928L192.787 17.7659L192.761 17.9457V18.1232C192.783 18.9429 193.393 19.2585 193.584 19.9598V20.133C193.584 20.5713 193.332 21.2288 192.837 21.3165H192.687L192.637 21.2924L192.589 21.242V21.2135L192.611 21.1916L192.637 21.1675L192.739 21.1149L192.809 21.0666L192.859 21.0119L192.937 20.9417L192.985 20.8869L193.035 20.8146L193.111 20.6612L193.158 20.4858L193.187 20.3324V19.9598C192.969 19.1905 192.355 18.487 192.711 17.6454L192.787 17.3912L192.837 17.3145V17.2903L192.885 17.2662H192.911L192.937 17.3145L192.911 17.3429V17.4175L192.859 17.5446L192.837 17.5928Z" stroke="white" stroke-width="0.42" stroke-miterlimit="2.41"/>
<path id="Vector_27" fill-rule="evenodd" clip-rule="evenodd" d="M185.654 22.2479L185.552 22.1208L185.478 22.0244L185.43 21.8973C185.376 21.7647 185.349 21.6222 185.353 21.4788C185.356 21.3354 185.389 21.1942 185.45 21.0644L185.504 20.9395L185.552 20.865L185.628 20.7905L185.704 20.7094L185.778 20.6633L185.854 20.6107L185.978 20.5362L186.004 20.5121L186.054 20.4858L186.077 20.4069L186.101 20.3324V20.2623L186.054 20.1571L185.978 20.0606C185.728 19.9335 185.795 19.9094 185.45 20.0343L185.302 20.1571L185.128 20.3324C184.203 21.5554 184.531 21.0688 184.531 22.3247V22.4496L184.507 22.5745V22.6008L184.557 22.6271L184.705 22.7016L184.783 22.7498L184.833 22.8024L184.881 22.8507V22.9296L184.907 22.9778L184.928 23.0041H186.232L186.208 22.9559C186.167 22.7447 186.051 22.556 185.882 22.4255L185.782 22.3466L185.654 22.2479Z" fill="#98272B"/>
<path id="Vector_28" fill-rule="evenodd" clip-rule="evenodd" d="M187.919 19.2804L187.872 19.3308L187.748 19.4316C187.691 19.4885 187.623 19.5333 187.548 19.5635C187.474 19.5936 187.394 19.6083 187.313 19.6069L187.168 19.5806L187.04 19.5061C186.759 19.3949 186.468 19.3113 186.171 19.2563L185.895 19.1292L185.471 18.9757L185.571 18.6251L185.647 18.3752L185.719 18.1254C185.967 17.2487 184.994 16.5079 184.351 16.1309L184.251 16.0827L184.155 16.0476C183.443 15.8087 183.428 16.7468 183.632 17.1829L183.732 17.4854L183.808 17.7572L183.858 18.0114L183.879 18.2612C183.89 18.6185 183.817 18.9732 183.666 19.2966C183.515 19.6199 183.29 19.9027 183.011 20.122L182.935 20.1505L182.785 20.1724L182.635 20.2009C182.418 20.2666 182.481 20.1483 182.261 20.3543L182.209 20.4266L182.187 20.5034C182.147 20.9407 182.147 21.381 182.187 21.8184L182.209 22.2677V22.5964L182.187 22.7455L182.261 22.7718C182.861 23.0764 182.287 23.1904 183.011 23.1531L183.91 23.1224L183.882 23.026L183.86 22.9515L183.81 22.8463L183.734 22.7718L183.612 22.6227L183.484 22.4715L183.284 22.2962L183.184 22.191L183.16 22.1186L183.113 22.02L183.084 21.917V21.6978L183.134 21.6474L183.16 21.5444L183.184 21.4458L183.334 21.1937L183.382 21.0951L183.462 20.9921L183.512 20.9417L183.56 20.8913L183.882 20.8168L184.134 20.6918L184.385 20.5647L184.581 20.4617L184.755 20.3149L184.907 20.1834L185.157 19.9335L185.254 19.7341L185.356 19.5828L185.404 19.5083L185.452 19.4579L185.528 19.4075L185.63 19.3812H185.706L186.006 19.5083L186.479 19.7078L186.729 19.8108L186.851 19.8634L186.953 19.9072L187.051 19.9883L187.153 20.0343H187.255L187.324 20.065H187.4L187.45 20.0343L187.5 20.0102L187.55 19.962L187.626 19.8634L187.776 19.7078L187.922 19.5083L188.071 19.2891L187.919 19.2804Z" fill="#98272B"/>
<path id="Vector_29" fill-rule="evenodd" clip-rule="evenodd" d="M20.8843 19.5653L19.8851 24.5185H15.604C15.9494 22.8813 16.2904 21.0929 16.6336 19.425C16.7161 19.0503 16.803 18.6733 16.8877 18.27C16.9025 17.9815 16.9322 17.694 16.9768 17.4087C17.1418 15.423 15.6931 15.0197 14.3225 15.6553C13.5232 15.995 13.1518 16.532 12.7565 17.2925C12.4144 17.9364 12.1935 18.6386 12.1049 19.3637L11.0514 24.4879H6.81808L9.27033 12.2845C10.5736 12.256 11.8768 12.199 13.18 12.1705C13.0063 12.9464 12.8368 13.7047 12.6891 14.4433C14.2617 12.5409 16.3165 11.5678 18.6601 12.2231C21.0255 12.9179 21.5142 15.2762 21.1688 17.584C21.1167 18.2471 21.0217 18.906 20.8843 19.5565" fill="#98272B"/>
<path id="Vector_30" fill-rule="evenodd" clip-rule="evenodd" d="M98.003 6.72632L96.3218 14.5134C96.0517 13.9554 95.6635 13.464 95.1846 13.074C94.7057 12.6839 94.1478 12.4047 93.5503 12.256C93.3354 12.2113 93.1176 12.1828 92.8986 12.1705C91.7222 12.0677 90.5399 12.2857 89.4755 12.8017C86.4781 14.3556 85.1314 18.7609 86.3347 21.871C86.8495 23.1663 87.5619 24.1175 88.9303 24.6084C90.1293 25.0467 90.7874 24.9788 91.9256 24.6939C92.2593 24.6082 92.5849 24.4931 92.8986 24.3498C93.7284 23.9443 94.4082 23.3109 95.1532 22.5964C94.9838 23.2298 94.81 23.8939 94.6406 24.5536H98.4678L102.16 6.72632H98.003ZM93.8391 21.3077C93.5489 21.4933 93.2305 21.6296 92.8965 21.711C92.5416 21.7789 92.1763 21.7676 91.8262 21.6779C91.476 21.5882 91.1497 21.4222 90.8699 21.1915C90.6021 20.9504 90.4223 20.6255 90.3595 20.2688C90.1271 19.436 90.2705 18.3423 90.5572 17.5643C90.7817 16.7806 91.2763 16.1037 91.9516 15.6553C92.2382 15.4755 92.5583 15.3569 92.8921 15.3068C93.384 15.2058 93.895 15.2673 94.3496 15.4822C94.6573 15.6219 94.9225 15.8421 95.1176 16.1199C95.3127 16.3977 95.4308 16.7231 95.4595 17.0624L95.5138 17.755C95.5138 19.1379 95.0316 20.5187 93.8348 21.2967" fill="#98272B"/>
<path id="Vector_31" fill-rule="evenodd" clip-rule="evenodd" d="M63.5369 12.4291L62.6528 15.0789C61.602 14.7727 60.5211 14.5831 59.4295 14.5134C59.1144 14.4879 58.7973 14.5056 58.4868 14.566C57.631 14.7677 57.2596 15.5194 57.9156 16.1178C58.7431 16.9287 60.1702 17.1281 61.1737 17.7922C61.4606 17.9847 61.7283 18.2049 61.973 18.4497C62.7984 19.7187 62.6832 21.0798 61.834 22.3641C60.4873 24.4112 57.9243 24.6128 55.611 24.4418C54.4015 24.3347 53.201 24.1414 52.0185 23.8632L52.7874 20.9001C54.3295 21.3384 55.3265 21.6803 56.7839 21.5335C57.4356 21.4787 58.35 21.5335 58.35 20.6107C58.2088 19.9773 57.5833 19.5697 56.923 19.2585C55.9542 18.8201 54.9268 18.5374 54.1579 17.7615C53.6692 17.104 53.5889 16.5824 53.5889 15.778C53.5593 15.0825 53.7705 14.3983 54.1862 13.8428C56.2388 10.8511 60.522 11.7168 63.5434 12.4357" fill="#98272B"/>
<path id="Vector_32" fill-rule="evenodd" clip-rule="evenodd" d="M39.4292 12.1376L43.7082 12.085C43.3911 13.6192 43.0805 15.1337 42.7416 16.7183C42.5374 17.755 42.1378 19.0502 42.4245 20.0825C42.5961 20.6611 42.7677 20.8628 43.3368 21.0337C43.6466 21.1327 43.9748 21.1585 44.296 21.1091C44.6173 21.0597 44.923 20.9364 45.1895 20.7488C46.6448 19.6836 47.0466 17.8996 47.4159 16.1988L48.2934 12.085H52.4876L49.9007 24.5185C48.6735 24.5492 47.4485 24.4616 46.1908 24.49C46.3342 23.7975 46.5036 22.7937 46.6448 22.0989C46.2212 22.5088 45.8172 22.9339 45.3611 23.3109C44.7347 23.8143 44.0043 24.1693 43.2238 24.3498C42.3376 24.5492 41.1104 24.5492 40.2829 24.2051C39.3424 23.8282 38.656 22.9646 38.2867 22.0134C37.8002 20.7159 38.0022 19.8809 38.202 18.5571C38.5126 16.4246 38.9731 14.268 39.4292 12.1354" fill="#98272B"/>
<path id="Vector_33" fill-rule="evenodd" clip-rule="evenodd" d="M34.6095 6.72632L32.8957 14.5134C32.6257 13.9558 32.2378 13.4646 31.7593 13.0746C31.2809 12.6845 30.7235 12.4051 30.1264 12.256C29.9115 12.2113 29.6937 12.1828 29.4748 12.1705C28.2975 12.0671 27.1144 12.2851 26.0494 12.8017C23.0542 14.3556 21.7053 18.7609 22.9108 21.871C23.4234 23.1663 24.1663 24.1175 25.5173 24.6084C26.7119 25.0467 27.37 24.9788 28.5125 24.6939C28.8455 24.6079 29.1703 24.4928 29.4834 24.3498C30.311 23.9443 31.0039 23.3109 31.7337 22.5964C31.5643 23.2298 31.3905 23.8939 31.2211 24.5536H35.0439L38.7842 6.73289L34.6095 6.72632ZM30.4109 21.3077C30.125 21.4985 29.807 21.6351 29.4726 21.711C29.1177 21.7791 28.7523 21.7679 28.4022 21.6781C28.0521 21.5884 27.7257 21.4223 27.4461 21.1915C27.1777 20.9502 26.9965 20.6256 26.9313 20.2688C26.701 19.436 26.8444 18.3423 27.1311 17.5643C27.3681 16.7863 27.8607 16.113 28.5277 15.6553C28.8153 15.4759 29.136 15.3573 29.4704 15.3068C29.9616 15.206 30.4719 15.2675 30.9257 15.4822C31.2336 15.6255 31.5 15.846 31.6996 16.1226C31.8992 16.3992 32.0253 16.7227 32.066 17.0624L32.0986 17.755C32.0986 19.1379 31.6077 20.5187 30.4087 21.2967" fill="#98272B"/>
<path id="Vector_34" fill-rule="evenodd" clip-rule="evenodd" d="M3.67946 6.72632H8.01704L4.39189 24.4922H0L3.67946 6.72632Z" fill="#98272B"/>
<path id="Vector_35" fill-rule="evenodd" clip-rule="evenodd" d="M84.3342 19.5653L83.3373 24.5185H79.0301C79.3689 22.8813 79.7403 21.0929 80.0857 19.425C80.1682 19.0503 80.2595 18.6733 80.342 18.3007C80.3458 18.0026 80.3647 17.7049 80.3985 17.4087C80.5983 15.423 79.1126 15.0197 77.7442 15.6553C76.9753 16.0257 76.6061 16.532 76.2064 17.2925C75.8068 17.95 75.6916 18.5878 75.5548 19.3637L74.4688 24.4879H70.2963L72.7246 12.2823C74.0083 12.2538 75.318 12.2209 76.6343 12.1683C76.4627 12.9442 76.2911 13.7025 76.1174 14.4411C77.7182 12.5387 79.7729 11.5656 82.11 12.2209C84.4776 12.9157 84.9641 15.274 84.6231 17.6103C84.5645 18.2678 84.4515 18.899 84.3342 19.5631" fill="#98272B"/>
<path id="Vector_36" fill-rule="evenodd" clip-rule="evenodd" d="M66.8753 6.72632H71.2694L67.6181 24.4922H63.2284L66.8753 6.72632Z" fill="#98272B"/>
<path id="Vector_37" fill-rule="evenodd" clip-rule="evenodd" d="M147.639 19.6113L146.644 24.5142H142.4C142.715 22.8616 143.106 21.1105 143.421 19.4733C143.492 19.0788 143.599 18.7215 143.67 18.3248C143.676 18.0379 143.7 17.7517 143.742 17.4679C143.918 15.5063 142.465 15.1096 141.12 15.7145C140.341 16.0696 139.989 16.6087 139.561 17.3605C139.233 17.9975 139.018 18.6872 138.924 19.3987L137.862 24.4703H133.714L136.127 12.3897L139.989 12.2823C139.843 13.0319 139.669 13.7814 139.528 14.5354C141.049 12.6374 143.106 11.673 145.406 12.3196C147.78 12.9968 148.247 15.3551 147.923 17.641C147.854 18.3204 147.747 18.9319 147.639 19.6135" fill="#98272B"/>
<path id="Vector_38" fill-rule="evenodd" clip-rule="evenodd" d="M152.424 6.88196H156.642L154.481 17.3254L158.697 12.3196H163.41L158.449 17.8251L161.568 24.4397H157.1L154.339 18.0377L153.028 24.4397H148.922L152.424 6.88196Z" fill="#98272B"/>
<path id="Vector_39" fill-rule="evenodd" clip-rule="evenodd" d="M132.936 14.8181C131.946 12.4248 129.213 11.9974 126.594 12.3196C125.54 12.4372 124.497 12.6395 123.475 12.9245L123.012 15.7474C123.614 15.4149 124.258 15.1643 124.926 15.0022C125.473 14.8832 126.03 14.8099 126.589 14.783C127.026 14.7879 127.462 14.826 127.893 14.897C128.959 15.1469 129.346 15.9337 129.346 16.9682C128.386 16.9682 127.43 16.9331 126.581 17.0032C125.093 17.0777 123.644 17.2881 122.15 18.0421C121.124 18.7566 120.736 19.2585 120.525 20.1505C120.314 21.0425 120.201 21.9389 120.666 22.7608C121.372 24.1942 123.003 24.9065 124.561 24.764C125.264 24.6803 125.947 24.4741 126.581 24.1547C127.287 23.7612 127.932 23.2658 128.496 22.6841L128.279 24.5142H131.755L131.9 23.1531C132.219 21.4743 132.606 19.756 132.964 18.0421C133.103 16.7928 133.388 16.0038 132.927 14.8203L132.936 14.8181ZM127.79 21.3274C127.496 21.5928 127.161 21.8102 126.8 21.9718C126.726 22.0091 126.657 22.0091 126.583 22.0419C126.016 22.2611 125.28 22.2918 124.776 21.9367C123.887 21.2573 124.207 20.1111 124.993 19.5434C125.465 19.2227 126.02 19.0483 126.589 19.0415C127.154 19.0042 127.758 19.0415 128.29 19.0415H128.894C128.646 19.7911 128.36 20.7182 127.795 21.3274" fill="#98272B"/>
<path id="Vector_40" fill-rule="evenodd" clip-rule="evenodd" d="M120.108 10.8511C119.537 8.59584 116.567 8.31311 114.654 8.31311H108.459L105.236 24.4703H111.717C111.961 24.4396 112.21 24.4396 112.458 24.4002C115.401 24.181 118.479 23.6901 119.12 20.3609C119.58 18.0004 118.162 16.4991 116.005 16.1441C116.829 15.9257 117.634 15.6383 118.412 15.2849C119.615 14.4652 120.253 13.3124 120.253 11.9974V11.9206C120.258 11.559 120.21 11.1986 120.11 10.8511H120.108ZM112.923 21.4304C112.772 21.4771 112.616 21.5022 112.458 21.505C111.574 21.6102 110.62 21.6102 109.91 21.654L110.757 17.6081C111.289 17.573 111.891 17.4985 112.458 17.4985C112.837 17.4675 113.219 17.4926 113.592 17.573C115.931 18.1056 115.366 21.0074 112.923 21.4304ZM113.913 14.7808C113.436 14.8888 112.947 14.9381 112.458 14.9277C112.071 14.9277 111.648 14.897 111.252 14.897L112.106 11.1031H112.458C113.488 11.033 114.941 10.9212 115.542 11.5678C116.995 13.102 115.223 14.4652 113.913 14.7808Z" fill="#98272B"/>
</g>
<defs>
<clipPath id="clip0_4_1278">
<rect width="208" height="30" fill="white"/>
</clipPath>
</defs>
</svg>
