<svg width="219" height="24" viewBox="0 0 219 24" fill="none" xmlns="http://www.w3.org/2000/svg">
<g clip-path="url(#clip0_45_4268)">
<path fill-rule="evenodd" clip-rule="evenodd" d="M27.7605 16.883L26.464 23.4331H20.7839C21.2161 21.2666 21.6483 18.9429 22.1366 16.7203C22.2432 16.2319 22.3555 15.7436 22.4621 15.2048C22.4621 14.8232 22.5183 14.4471 22.5688 14.071C22.7877 11.4218 20.8906 10.9335 19.0496 11.7418C17.9663 12.1739 17.478 12.9317 16.9392 13.9083C16.4509 14.7726 16.2881 15.5865 16.0749 16.6697L14.6661 23.4331H9.0365L12.3368 7.30772C14.0711 7.25159 15.7998 7.20107 17.5342 7.14495C17.3153 8.17207 17.0459 9.14869 16.8831 10.1758C18.9935 7.63325 21.6988 6.3311 24.8363 7.25159C27.9738 8.11595 28.6249 11.2535 28.1366 14.2843C28.0805 15.2048 27.9738 16.013 27.7605 16.883Z" fill="#98272B"/>
<path fill-rule="evenodd" clip-rule="evenodd" d="M130.412 0H135.929L131.007 23.4836H125.921C126.135 22.6193 126.354 21.7493 126.623 20.8849C125.596 21.8616 124.732 22.6698 123.592 23.2142V19.695C124.024 19.5884 124.457 19.4256 124.838 19.2067C126.46 18.1796 127.111 16.3386 127.111 14.4977L127.005 13.5772C126.898 12.7128 126.516 11.9551 125.545 11.5229C125.007 11.1974 124.249 11.1974 123.598 11.3096V7.145C123.923 7.145 124.193 7.25164 124.462 7.25164C126.034 7.62769 127.386 8.66043 128.144 10.2264L130.417 0L130.412 0ZM123.592 23.2142V19.695C122.672 19.8578 121.645 19.695 120.887 19.044C120.561 18.7184 120.348 18.3424 120.236 17.7979C119.91 16.7147 120.129 15.2554 120.505 14.2283C120.831 13.2011 121.426 12.3368 122.346 11.7418C122.672 11.5229 123.16 11.3602 123.592 11.3096V7.145C122.021 6.98223 120.348 7.36389 119.046 8.00936C115.044 10.0131 113.254 15.8559 114.881 19.9701C115.583 21.6483 116.503 22.8943 118.344 23.5398C119.916 24.1347 120.78 24.0281 122.296 23.6464C122.784 23.5398 123.216 23.4275 123.592 23.2142Z" fill="#98272B"/>
<path fill-rule="evenodd" clip-rule="evenodd" d="M84.522 7.52096L83.3882 10.984C81.8166 10.5518 80.6829 10.3329 79.0608 10.2263C78.5725 10.2263 78.1964 10.1702 77.8148 10.2824C76.681 10.5518 76.1927 11.579 77.057 12.3367C78.1403 13.4199 80.0318 13.6893 81.3844 14.5537C81.71 14.7726 82.086 15.0925 82.4677 15.4181C83.551 17.0963 83.3882 18.8811 82.2544 20.6154C80.4696 23.2646 77.057 23.5397 73.9757 23.3208C72.2975 23.2141 70.8887 22.8886 69.2161 22.5631L70.2432 18.6678C72.2974 19.2066 73.5996 19.695 75.5472 19.4817C76.4116 19.4255 77.6576 19.4817 77.6576 18.2918C77.4387 17.4274 76.6305 16.883 75.7661 16.5069C74.4696 15.912 73.0608 15.5303 72.0336 14.5032C71.4387 13.6388 71.2759 12.9878 71.2759 11.9045C71.2759 10.8212 71.6015 10.0635 72.0898 9.36194C74.8512 5.41058 80.5313 6.54996 84.5332 7.52096H84.522Z" fill="#98272B"/>
<path fill-rule="evenodd" clip-rule="evenodd" d="M52.4341 7.14497L58.1703 7.03833C57.7381 9.04207 57.3059 11.0402 56.8737 13.1562C56.6043 14.5089 56.0599 16.2376 56.4416 17.5959C56.6605 18.3536 56.9299 18.623 57.6315 18.8419C58.4453 19.1113 59.4724 18.9485 60.1179 18.4658C62.0655 17.057 62.6043 14.7334 63.0926 12.4602L64.2825 7.04956H69.856L66.3929 23.4443C64.7708 23.5004 63.1488 23.3882 61.4706 23.4443C61.6333 22.5238 61.8466 21.1712 62.0655 20.2507C61.4706 20.7895 60.9823 21.3901 60.3368 21.8728C59.5229 22.5238 58.5519 22.956 57.5248 23.2254C56.3349 23.4948 54.7128 23.4948 53.5735 23.0065C52.3274 22.5182 51.407 21.3844 50.9243 20.1384C50.2732 18.4602 50.5482 17.3265 50.8176 15.5921C51.2498 12.7801 51.8447 9.91204 52.4397 7.15058L52.4341 7.14497Z" fill="#98272B"/>
<path fill-rule="evenodd" clip-rule="evenodd" d="M46.0524 0H51.5697L46.5913 23.4836H41.5061C41.725 22.6193 41.9944 21.7493 42.2077 20.8849C41.2311 21.8616 40.3162 22.6698 39.233 23.2142V19.695C39.6652 19.5884 40.0973 19.4256 40.479 19.2067C42.0506 18.1796 42.696 16.3386 42.696 14.4977L42.6399 13.5772C42.5333 12.7128 42.1011 11.9551 41.1245 11.5229C40.5856 11.1974 39.8279 11.1974 39.233 11.3096V7.145C39.5024 7.145 39.7718 7.25164 40.0973 7.25164C41.6128 7.62769 42.9654 8.66043 43.7793 10.2264L46.0524 0ZM39.233 23.2142V19.695C38.262 19.8578 37.2854 19.695 36.5276 19.044C36.146 18.7184 35.9327 18.3424 35.826 17.7979C35.5005 16.7147 35.7194 15.2554 36.0955 14.2283C36.421 13.2011 37.0721 12.3368 37.9364 11.7418C38.3181 11.5229 38.7503 11.3602 39.233 11.3096V7.145C37.6614 6.98223 35.9327 7.36389 34.6305 8.00936C30.6792 10.0131 28.8943 15.8559 30.4659 19.9701C31.1675 21.6483 32.1441 22.8943 33.9289 23.5398C35.5005 24.1347 36.4154 24.0281 37.9308 23.6464C38.363 23.5398 38.7952 23.4275 39.2274 23.2142H39.233Z" fill="#98272B"/>
<path fill-rule="evenodd" clip-rule="evenodd" d="M4.87184 0H10.6586L5.84284 23.4331H0L4.87184 0Z" fill="#98272B"/>
<path fill-rule="evenodd" clip-rule="evenodd" d="M112.232 16.883L110.879 23.4331H105.143C105.631 21.2666 106.12 18.9429 106.552 16.7203C106.659 16.2319 106.771 15.7436 106.934 15.2609C106.934 14.8288 106.934 14.4471 106.99 14.071C107.259 11.4218 105.255 10.9335 103.471 11.7418C102.443 12.2301 101.955 12.9317 101.416 13.9083C100.877 14.7726 100.715 15.6426 100.552 16.6697L99.0926 23.4331H93.5753L96.769 7.30772C98.5033 7.25159 100.232 7.25159 101.966 7.14495C101.747 8.17207 101.534 9.14869 101.315 10.1758C103.426 7.63325 106.131 6.3311 109.268 7.25159C112.406 8.11595 113.057 11.2535 112.625 14.3405C112.518 15.2048 112.406 16.0187 112.249 16.883H112.232Z" fill="#98272B"/>
<path fill-rule="evenodd" clip-rule="evenodd" d="M88.9617 0H94.8045L89.9888 23.4331H84.1459L88.9617 0Z" fill="#98272B"/>
<path fill-rule="evenodd" clip-rule="evenodd" d="M197.298 17.0458L195.946 23.6464H190.21C190.642 21.4294 191.181 19.044 191.618 16.8831C191.725 16.3443 191.832 15.8559 191.944 15.3115C191.944 14.9355 192 14.5538 192.051 14.1777C192.264 11.5285 190.316 11.0402 188.481 11.8485C187.454 12.2806 186.965 13.0384 186.37 14.015C185.882 14.8793 185.719 15.6932 185.506 16.7764L184.097 23.5959H178.468L181.712 7.3639C183.446 7.30777 185.231 7.25725 186.96 7.20113C186.741 8.22826 186.528 9.25538 186.309 10.232C188.363 7.68943 191.181 6.38728 194.262 7.25725C197.506 8.17774 198.107 11.3714 197.669 14.4022C197.613 15.3227 197.45 16.131 197.293 17.0515L197.298 17.0458Z" fill="#98272B"/>
<path fill-rule="evenodd" clip-rule="evenodd" d="M203.792 0H209.472L206.548 13.9588L212.284 7.25164H218.672L211.959 14.666L216.18 23.5398H210.123L206.385 14.9355L204.601 23.5398H199.027L203.792 0Z" fill="#98272B"/>
<path fill-rule="evenodd" clip-rule="evenodd" d="M177.435 14.9355C176.947 17.2647 176.458 19.5379 176.026 21.8054L175.807 23.6464H171.098L171.424 21.16C170.61 21.9738 169.746 22.6754 168.825 23.1637V20.3517C168.881 20.2956 168.988 20.2956 169.094 20.2451C169.689 19.9196 170.122 19.7063 170.447 19.3807C171.205 18.5669 171.586 17.3265 171.906 16.2937H171.093C170.391 16.2937 169.577 16.2376 168.819 16.2937V13.5884C169.959 13.4818 171.255 13.5323 172.552 13.5323C172.552 12.1235 172.013 11.0459 170.548 10.7203C169.897 10.6137 169.302 10.6137 168.814 10.6137V7.25726C172.333 6.82508 176.065 7.42003 177.362 10.6137C178.013 12.2357 177.631 13.2629 177.418 14.9411L177.435 14.9355ZM168.831 23.1581V20.3461C168.017 20.6155 167.046 20.6717 166.344 20.1834C165.154 19.2629 165.587 17.7474 166.67 16.9392C167.209 16.5632 168.022 16.3443 168.836 16.2881V13.5828C166.782 13.6389 164.834 13.9589 162.831 14.9355C161.422 15.9121 160.883 16.5575 160.614 17.7474C160.344 18.9935 160.181 20.1834 160.833 21.2666C161.753 23.2142 163.97 24.1908 166.08 23.972C167.001 23.8653 167.972 23.5903 168.842 23.1581H168.831ZM168.831 10.6024V7.24604C167.315 7.40881 165.906 7.73434 164.61 8.05988L163.959 11.8485C164.879 11.4163 165.581 11.0908 166.557 10.8775C167.422 10.6586 168.073 10.6081 168.831 10.6081V10.6024Z" fill="#98272B"/>
<path fill-rule="evenodd" clip-rule="evenodd" d="M149.674 1.89148H152.649C155.248 1.89148 159.25 2.26753 160.007 5.2984C160.17 5.78671 160.221 6.27502 160.221 6.75771V6.81384C160.221 8.59868 159.356 10.1702 157.734 11.2535C156.595 11.7923 155.624 12.0673 154.49 12.3873C157.414 12.8756 159.306 14.8737 158.711 18.0673C157.847 22.507 153.676 23.2086 149.674 23.478V19.5828C149.893 19.5828 150.107 19.5267 150.269 19.4761C153.626 18.9373 154.384 15.0365 151.19 14.3349C150.702 14.2282 150.213 14.1721 149.674 14.2282V10.7652C150.326 10.7652 151.027 10.7091 151.622 10.6024C153.407 10.1702 155.787 8.32927 153.839 6.27502C153.025 5.41066 151.078 5.5173 149.674 5.62394V1.89148ZM144.264 1.89148L139.88 23.5903H148.647C148.973 23.5341 149.349 23.5341 149.674 23.4836V19.5884C148.485 19.7512 147.182 19.7512 146.211 19.8073L147.351 14.3966C148.108 14.3405 148.922 14.2339 149.68 14.2339V10.7708C149.141 10.7708 148.546 10.7147 148.058 10.7147L149.192 5.62955H149.68V1.89148H144.269H144.264Z" fill="#98272B"/>
</g>
<defs>
<clipPath id="clip0_45_4268">
<rect width="218.672" height="24" fill="white"/>
</clipPath>
</defs>
</svg>
