<svg width="181" height="24" viewBox="0 0 181 24" fill="none" xmlns="http://www.w3.org/2000/svg">
<path fill-rule="evenodd" clip-rule="evenodd" d="M85.2253 10.2057H87.9766V14.3074H90.2308V10.2057H92.8915V10.8905H95.1461V3.23425V3.12527V3.01716V2.90817V2.80205H95.047H94.9375H94.8124H94.6943H90.2308V0.880342L90.276 0.835461L90.3205 0.791498L90.3308 0.770546L90.3566 0.74272L90.3657 0.708094L90.3838 0.663212L90.3657 0.635644L90.347 0.590542L90.3308 0.56584L90.3115 0.554519L90.285 0.537463L90.2392 0.518753L87.9764 0.446119V2.80202H83.5027H83.377H83.2589H83.1513H83.0527V2.92714V3.03639V3.14423V3.23418V10.8904H85.2252L85.2253 10.2057ZM90.2307 8.11396V5.02823H92.6922H92.7912H92.8914V5.1284V5.1982V8.11396H90.2307ZM85.2252 8.11396V5.1982V5.13689V5.02823H85.3067H85.4057H87.9764V8.11396H85.2252ZM108.438 9.15601L108.988 8.82368L108.782 8.55355L108.574 8.28396L108.438 8.13866L108.321 7.99538L108.194 7.86169L108.051 7.72462H106.896L106.283 8.09495L106.509 8.29246L106.77 8.53708L106.905 8.67048L107.05 8.81545L107.194 8.98715L107.33 9.15601H106.147V7.72462H108.466V6.16446H106.147V5.15589H108.762V3.58379H101.863V5.15589H104.434V6.16446H102.233V7.72462H104.434V9.15601H101.684V11.0525H109.016V9.15601H108.438ZM101.206 13.4787H109.35V14.0395H111.334V1.60021V1.49211V1.37577V1.28578V1.18562H111.233H111.125H111.026H110.9H99.7806H99.6372H99.5195H99.419H99.3478V1.29486V1.39448V1.50402V1.60021V14.0395H101.206V13.4787ZM101.206 11.4688V3.0083V3.03635H101.26H101.341H109.16H109.24H109.35V3.12519V3.19018V11.4687L101.206 11.4688ZM120.54 11.3209H115.554V13.54H127.89V11.3209H122.967V3.75659H127.268V1.54768H115.896V3.75659H120.54V11.3209ZM139.668 12.2142H138.595L138.622 12.8203L138.667 12.8828L138.712 12.9543L138.739 13.0195L138.766 13.0809L138.811 13.2176L138.848 13.3414L138.883 13.6138L138.902 13.885H140.733L140.885 13.8743L141.021 13.8572L141.148 13.8283L141.263 13.7863L141.373 13.75L141.48 13.6841L141.562 13.624L141.634 13.54L141.706 13.4582L141.769 13.3623L141.814 13.2528L141.85 13.137L141.895 13.0099L141.913 12.8828V12.7386L141.923 12.5842V4.73957L141.354 4.78327H140.687H139.253L139.317 4.58577L139.389 4.40614L139.46 4.22426L139.534 4.04661L139.587 3.882L139.65 3.72141L139.686 3.55144L139.74 3.3786H142.616V1.70857H137.35L137.333 0.907764L137.368 0.807598L137.386 0.707984V0.674497L137.377 0.654354L137.368 0.635607L137.342 0.609546L137.305 0.582014L137.261 0.565804L137.206 0.546763L137.143 0.528347L135.087 0.500779L135.06 1.7085H129.927V3.37853H132.58L132.715 3.63249L132.823 3.8462L132.914 4.02665L132.994 4.17963L133.067 4.3249L133.13 4.46877L133.202 4.62202L133.275 4.7832H130.416L130.434 5.23694V5.84933V13.91H132.246V6.39986H140.174L140.191 11.7014L140.182 11.7652V11.8279L140.174 11.881L140.155 11.9298L140.137 11.9704L140.11 12.0187L140.091 12.0538L140.056 12.0921L140.021 12.1075L139.975 12.1351L139.939 12.1631L139.894 12.1785L139.83 12.1887L139.785 12.2086L139.721 12.2146L139.668 12.2142ZM135.419 4.78361L135.384 4.68572L135.348 4.5861L135.285 4.4973L135.24 4.40647L135.132 4.22459L135.024 4.04694L134.916 3.88234L134.816 3.72174L134.771 3.63289L134.735 3.55173L134.698 3.45896L134.672 3.37893L137.567 3.35133L137.513 3.51255L137.441 3.67711L137.368 3.84653L137.296 4.01937L137.206 4.19187L137.125 4.39026L137.035 4.57839L136.963 4.78357L135.419 4.78361ZM136.99 12.7468L138.604 12.7571L138.595 8.95223L137.405 8.10429H137.081H135.303H133.22L133.229 9.51098L133.22 12.7469H134.708L134.727 12.4778H136.98L136.99 12.7468ZM136.98 10.9645H134.727V9.54646H136.98V10.9645ZM136.441 7.49164L136.575 7.56343L136.719 7.64375L136.871 7.74108L137.035 7.8418L137.377 8.06713L137.73 8.34862L138.117 8.61879L138.497 8.90569L138.883 9.18604L139.253 9.45563L140.192 8.69058V8.15851L139.885 7.8858L139.578 7.63382L139.28 7.39148L138.991 7.17325L138.839 7.05691L138.685 6.96042L138.533 6.85117L138.379 6.76773L138.225 6.66984L138.054 6.57023L137.882 6.49021L137.721 6.40022H137.197L136.441 7.49164ZM134.492 6.40022L134.267 6.55406L134.049 6.72403L133.806 6.8869L133.545 7.05691L133.257 7.21923L132.95 7.39912L132.607 7.5799L132.237 7.78082L132.255 8.71896L132.724 9.51098L132.859 9.44798L133.031 9.36682L133.111 9.32852L133.166 9.30352L133.202 9.27798L133.229 9.2575V8.10425H135.024L135.077 8.09521L135.132 8.07617L135.195 8.06717L135.249 8.03022L135.367 7.94142L135.492 7.8418L135.727 7.62471L135.925 7.45474L135.123 6.40022H134.492ZM149.228 3.73788L151.87 3.75688V2.17117H149.408L149.498 1.96257L149.588 1.79062L149.669 1.64814L149.732 1.54004L149.796 1.45605L149.849 1.39477L149.904 1.35845L149.948 1.32302L150.02 1.27847L150.102 1.22282L150.138 1.20639L150.174 1.15018L150.219 1.08803L150.274 1.01539L148.496 0.321289L148.29 0.742977L148.117 1.08803L147.974 1.35849L147.856 1.60054L147.74 1.80966L147.613 2.02675L147.477 2.25947L147.306 2.52905L147.126 2.79209L146.946 3.05348L146.738 3.32332L146.512 3.59603L146.269 3.88237L146.017 4.19195L145.737 4.50612L145.449 4.83073L146.674 6.00243L146.82 5.81287L146.964 5.59691L147.126 5.3875L147.261 5.18122L147.252 6.19228H148.207V7.27518H146.604V9.22243H148.207V11.8383L147.018 12.3612L147.396 14.0296L151.778 12.2951L150.996 10.8351L150.184 11.2228L150.21 9.22243H151.626V7.27518H150.21V6.19228H151.436V4.72318L147.748 4.74817L147.875 4.60573L147.974 4.46925L148.055 4.3614L148.127 4.24363L148.199 4.13523L148.299 4.02713L148.407 3.88241L148.542 3.73795H148.64L148.884 3.74986H149.011H149.119H149.2L149.228 3.73788ZM157.614 10.414L157.921 10.1964L158.155 10.0139L158.362 9.87143L158.524 9.73664L158.688 9.60016L158.841 9.46592L159.013 9.30363L159.219 9.10554L158.291 7.92304L158.127 8.09528L158.002 8.23067L157.885 8.35608L157.777 8.49088L157.641 8.61887L157.469 8.76333L157.253 8.92447L156.956 9.14131L156.847 8.93271L156.774 8.80758L156.712 8.70767L156.667 8.61887L156.612 8.5008L156.56 8.35608L156.513 8.13899L156.45 7.81747H158.434V7.22923V5.88554V1.12522H157.577H156.974H152.212V1.70071V2.29637V8.9523V10.0139V12.3335L151.291 12.8026L152.023 14.3542L156.126 12.6958L155.621 10.8908L154.042 11.9904L154.025 7.81747L154.611 7.78086L154.683 8.13899L154.756 8.46503L154.837 8.76329L154.907 9.02434L154.999 9.27805L155.071 9.49088L155.152 9.6986L155.225 9.88106L155.315 10.0511L155.395 10.2156L155.477 10.3783L155.558 10.5198L155.738 10.8096L155.937 11.1237L156.054 11.2962L156.189 11.4762L156.325 11.6666L156.46 11.8383L156.757 12.1967L157.064 12.5585L157.407 12.9365L157.75 13.3173L158.101 13.6947L158.471 14.1102L159.949 12.462L159.562 12.189L159.22 11.9455L159.048 11.821L158.886 11.6921L158.741 11.5752L158.596 11.4586L158.462 11.332L158.327 11.2151L158.2 11.0982L158.074 10.9645L157.956 10.8351L157.84 10.6981L157.722 10.5556L157.614 10.414ZM156.974 5.24621V6.19228H154.025V5.24621H156.974ZM154.025 3.65679V2.65506H156.974V3.65679H154.025ZM167.02 0.968856L166.849 1.22285L166.649 1.50435L166.434 1.77279L166.199 2.03528L165.965 2.287L165.721 2.52196L165.495 2.73905L165.27 2.93655L165.09 3.08127L164.928 3.21804L164.747 3.33468L164.568 3.45899L164.377 3.58412L164.17 3.69395L163.945 3.82135L163.701 3.95445L164.268 5.78537L164.495 5.67811L164.72 5.54332L164.963 5.39831L165.216 5.24621L165.469 5.06514L165.721 4.88381L165.857 4.78364L165.982 4.67609L166.1 4.57846L166.226 4.46157L166.443 4.26149L166.696 4.05462L166.967 3.82929L167.245 3.59603L167.534 3.33468L167.813 3.06226L167.958 2.92747L168.094 2.77537L168.229 2.63036L168.346 2.47825L168.363 2.45701L168.39 2.44995L168.418 2.44087H168.445H168.517H168.571H168.598L168.617 2.42955L168.635 2.41334L168.652 2.38551V2.36081L168.635 2.31365L168.617 2.25947L168.579 2.20525L167.02 0.968856ZM165.505 8.83537V14.1255H167.48V6.91252L167.686 6.66988L167.921 6.4003L168.183 6.10348L168.462 5.77769L168.734 5.46326L168.995 5.13722L169.113 4.96526L169.247 4.81202L169.356 4.65822L169.455 4.50608L168.21 3.32332L168.102 3.47686L168.004 3.64911L167.886 3.8097L167.76 3.97346L167.526 4.28789L167.272 4.58614L167.02 4.88381L166.75 5.16501L166.506 5.43547L166.263 5.69653L166.037 5.94766L165.767 6.22011L165.46 6.52572L165.136 6.83107L164.792 7.12958L164.459 7.41905L164.288 7.56347L164.134 7.68095L163.972 7.79762L163.819 7.91337L164.279 9.80049L164.459 9.69378L164.612 9.58171L164.748 9.48323L164.864 9.38421L165 9.27805L165.145 9.15149L165.307 9.00534L165.505 8.83537ZM169.284 1.3142V3.2419H176.029V1.3142H169.284ZM170.943 12.143L171.132 12.5409L171.277 12.8831L171.331 13.0284L171.369 13.1527L171.413 13.2685L171.44 13.3854L171.456 13.4972L171.475 13.6039L171.485 13.7049V13.8014L171.475 13.9104L171.467 14.0296L171.448 14.1459L171.42 14.2736H172.746H172.91L173.072 14.2628L173.233 14.2373L173.396 14.2072L173.559 14.1816L173.712 14.1255L173.864 14.075L174.002 14.0194L174.136 13.9387L174.254 13.8576L174.306 13.8213L174.361 13.7685L174.406 13.7197L174.452 13.6698L174.486 13.6142L174.524 13.5529L174.559 13.487L174.577 13.4258L174.595 13.3628L174.614 13.2895L174.623 13.218L174.631 13.1374L174.668 7.22923H176.544V5.40739H168.788V7.22923H172.763V11.6411V11.7376L172.757 11.8284L172.746 11.8897V11.9632L172.728 12.0114L172.719 12.0472L172.691 12.0793L172.665 12.1079L172.629 12.1154L172.603 12.1279L172.557 12.1355L172.502 12.1432H172.396H172.259L170.943 12.143Z" fill="#201E1D"/>
<path fill-rule="evenodd" clip-rule="evenodd" d="M180.673 17.7524H81.7221V17.1979H180.673V17.7524Z" fill="#CB0202"/>
<path d="M83.4595 23.765V20.95H84.027V23.765H83.4595Z" fill="#231F20"/>
<path d="M84.574 23.765V20.95H85.1235L86.285 22.8433V20.95H86.8088V23.765H86.2424L85.0982 21.9079V23.765H84.574Z" fill="#231F20"/>
<path d="M87.411 20.95H88.4496C88.6843 20.95 88.8627 20.9681 88.9856 21.0033C89.1508 21.0522 89.2921 21.139 89.4101 21.2633C89.5279 21.3876 89.6173 21.5391 89.6789 21.7196C89.7402 21.8989 89.7711 22.1214 89.7711 22.3847C89.7711 22.6163 89.7422 22.8161 89.6846 22.9835C89.6142 23.1884 89.5137 23.3541 89.3829 23.4813C89.2845 23.5772 89.1513 23.6521 88.9836 23.7054C88.8582 23.7452 88.6902 23.765 88.4805 23.765H87.411V20.95ZM87.9783 21.4267V23.2888H88.4039C88.5634 23.2888 88.6783 23.2792 88.7487 23.2616C88.8415 23.2388 88.9184 23.1997 88.9791 23.1447C89.0404 23.0896 89.0898 23 89.1286 22.8734C89.1672 22.7474 89.1864 22.5754 89.1864 22.3586C89.1864 22.1407 89.1666 21.9744 89.1286 21.8581C89.0901 21.7411 89.0361 21.6515 88.9666 21.5856C88.8974 21.5209 88.8094 21.4761 88.7027 21.4534C88.623 21.4357 88.4672 21.4267 88.2345 21.4267H87.9783Z" fill="#231F20"/>
<path d="M90.2473 20.95H90.8146V22.4778C90.8146 22.7201 90.8218 22.8774 90.8363 22.9489C90.8609 23.0647 90.9188 23.1572 91.0108 23.227C91.1024 23.2968 91.2284 23.332 91.3878 23.332C91.5496 23.332 91.672 23.2991 91.7542 23.2327C91.8366 23.1668 91.8862 23.0857 91.9029 22.9892C91.9192 22.8933 91.9282 22.7338 91.9282 22.5101V20.95H92.4954V22.4307C92.4954 22.769 92.4798 23.0079 92.4497 23.1475C92.419 23.2877 92.3623 23.4057 92.2794 23.5017C92.1969 23.5981 92.0862 23.6748 91.9477 23.7315C91.8092 23.7883 91.6288 23.8172 91.4057 23.8172C91.1364 23.8172 90.9321 23.7866 90.793 23.7242C90.654 23.6617 90.5442 23.5811 90.4633 23.4812C90.3824 23.3825 90.3294 23.278 90.3038 23.1691C90.2664 23.0079 90.2478 22.769 90.2478 22.454L90.2473 20.95Z" fill="#231F20"/>
<path d="M92.9454 22.8428L93.4996 22.7905C93.5333 22.9772 93.6007 23.1134 93.7028 23.2008C93.8047 23.2882 93.942 23.3319 94.1154 23.3319C94.2985 23.3319 94.4366 23.2928 94.5297 23.2156C94.6225 23.1384 94.669 23.0476 94.669 22.9431C94.669 22.8767 94.6491 22.8194 94.6106 22.7729C94.5714 22.7263 94.5031 22.6855 94.406 22.6508C94.3393 22.6276 94.1875 22.5867 93.9505 22.5277C93.6458 22.4528 93.4318 22.3603 93.3086 22.2496C93.1358 22.0952 93.0492 21.9057 93.0492 21.6832C93.0492 21.5402 93.0896 21.4056 93.1713 21.2813C93.2524 21.1565 93.3696 21.0612 93.5223 20.9959C93.6753 20.9306 93.8597 20.8977 94.0757 20.8977C94.4289 20.8977 94.6946 20.976 94.8731 21.1315C95.0516 21.287 95.1452 21.4959 95.154 21.7558L94.5868 21.7774C94.5621 21.6327 94.5101 21.5288 94.4301 21.4652C94.3501 21.4017 94.2297 21.3699 94.0694 21.3699C93.9043 21.3699 93.7749 21.404 93.6813 21.472C93.6208 21.5152 93.5907 21.5736 93.5907 21.6468C93.5907 21.7127 93.619 21.77 93.6756 21.8171C93.7471 21.8773 93.9216 21.9397 94.1982 22.005C94.4749 22.0702 94.6798 22.1378 94.8127 22.2076C94.9452 22.278 95.049 22.3733 95.1242 22.4948C95.1991 22.6162 95.2363 22.766 95.2363 22.9442C95.2363 23.1066 95.1918 23.2576 95.1018 23.3995C95.0124 23.5402 94.8853 23.6457 94.7212 23.7138C94.5572 23.7831 94.3529 23.8171 94.1083 23.8171C93.7522 23.8171 93.4783 23.7343 93.2876 23.568C93.0966 23.4023 92.9826 23.16 92.9454 22.8428Z" fill="#231F20"/>
<path d="M96.3533 23.765V21.4267H95.5219V20.95H97.7523V21.4267H96.9206V23.765H96.3533Z" fill="#231F20"/>
<path d="M98.124 23.765V20.95H99.3167C99.6167 20.95 99.8343 20.9755 99.9703 21.026C100.106 21.0771 100.215 21.1667 100.297 21.2961C100.379 21.4255 100.419 21.5731 100.419 21.74C100.419 21.9511 100.357 22.1259 100.234 22.2638C100.11 22.4017 99.926 22.488 99.6803 22.5237C99.8026 22.5958 99.9039 22.6742 99.9833 22.7598C100.063 22.8455 100.171 22.9976 100.306 23.2167L100.649 23.765H99.9694L99.5613 23.152C99.4158 22.9341 99.3162 22.7967 99.2623 22.74C99.2087 22.6832 99.1519 22.6435 99.0917 22.6231C99.0315 22.6015 98.9368 22.5913 98.8063 22.5913H98.6913V23.765H98.124ZM98.6913 22.1406H99.1101C99.3817 22.1406 99.5512 22.1293 99.6184 22.1065C99.6863 22.0838 99.739 22.0436 99.7773 21.9874C99.8158 21.9306 99.8345 21.8602 99.8345 21.7762C99.8345 21.6815 99.8092 21.6048 99.759 21.5464C99.709 21.4879 99.6376 21.4516 99.5459 21.4357C99.5002 21.4294 99.3623 21.4266 99.1327 21.4266H98.6912L98.6913 22.1406Z" fill="#231F20"/>
<path d="M100.943 23.765V20.95H101.511V23.765H100.943Z" fill="#231F20"/>
<path d="M104.591 23.765H103.973L103.73 23.1242H102.608L102.376 23.765H101.768L102.854 20.95H103.464L104.591 23.765ZM103.545 22.6481L103.156 21.6083L102.78 22.6481H103.545Z" fill="#231F20"/>
<path d="M104.912 23.7649V20.9714H105.479V23.2887H106.895V23.7649H104.912Z" fill="#231F20"/>
<path d="M110.711 23.765H110.093L109.85 23.1242H108.728L108.496 23.765H107.888L108.974 20.95H109.584L110.711 23.765ZM109.665 22.6481L109.276 21.6083L108.9 22.6481H109.665Z" fill="#231F20"/>
<path d="M111.019 23.765V20.95H111.568L112.729 22.8433V20.95H113.253V23.765H112.687L111.543 21.9079V23.765H111.019Z" fill="#231F20"/>
<path d="M113.855 20.95H114.895C115.129 20.95 115.307 20.9681 115.43 21.0033C115.595 21.0522 115.736 21.139 115.855 21.2633C115.973 21.3876 116.062 21.5391 116.124 21.7196C116.185 21.8989 116.216 22.1214 116.216 22.3847C116.216 22.6163 116.187 22.8161 116.129 22.9835C116.059 23.1884 115.958 23.3541 115.828 23.4813C115.73 23.5772 115.596 23.6521 115.428 23.7054C115.303 23.7452 115.135 23.765 114.925 23.765H113.855V20.95ZM114.423 21.4267V23.2888H114.849C115.008 23.2888 115.123 23.2792 115.194 23.2616C115.286 23.2388 115.363 23.1997 115.424 23.1447C115.484 23.0896 115.534 23 115.573 22.8734C115.612 22.7474 115.631 22.5754 115.631 22.3586C115.631 22.1407 115.612 21.9744 115.573 21.8581C115.534 21.7411 115.481 21.6515 115.411 21.5856C115.342 21.5209 115.254 21.4761 115.147 21.4534C115.068 21.4357 114.912 21.4267 114.679 21.4267H114.423Z" fill="#231F20"/>
<path d="M119.591 22.7298L120.141 22.8989C120.057 23.2076 119.916 23.4375 119.72 23.5873C119.523 23.7377 119.273 23.8126 118.972 23.8126C118.598 23.8126 118.292 23.6849 118.051 23.429C117.81 23.1736 117.69 22.824 117.69 22.3802C117.69 21.9114 117.81 21.547 118.052 21.287C118.294 21.0282 118.612 20.8977 119.006 20.8977C119.35 20.8977 119.63 20.9999 119.844 21.2031C119.973 21.3234 120.068 21.4959 120.133 21.7206L119.57 21.8552C119.536 21.7093 119.466 21.5941 119.361 21.5095C119.255 21.4255 119.127 21.3829 118.977 21.3829C118.768 21.3829 118.599 21.4584 118.469 21.6083C118.339 21.7587 118.275 22.0022 118.275 22.3381C118.275 22.6946 118.338 22.9488 118.466 23.1004C118.595 23.2519 118.761 23.328 118.966 23.328C119.117 23.328 119.247 23.2791 119.356 23.1838C119.465 23.0873 119.544 22.9364 119.591 22.7298Z" fill="#231F20"/>
<path d="M120.513 22.3745C120.513 22.0873 120.556 21.8455 120.642 21.6514C120.706 21.5072 120.793 21.3778 120.905 21.2643C121.015 21.1497 121.137 21.0646 121.269 21.0095C121.444 20.9352 121.647 20.8977 121.876 20.8977C122.291 20.8977 122.623 21.0271 122.872 21.2848C123.121 21.5424 123.246 21.9017 123.246 22.3614C123.246 22.8172 123.123 23.1736 122.875 23.4313C122.628 23.6878 122.297 23.8172 121.884 23.8172C121.465 23.8172 121.132 23.6889 120.884 23.4335C120.637 23.177 120.513 22.824 120.513 22.3745ZM121.098 22.3552C121.098 22.6759 121.172 22.9188 121.319 23.0839C121.468 23.2491 121.655 23.3319 121.882 23.3319C122.11 23.3319 122.297 23.2502 122.443 23.0862C122.588 22.9222 122.662 22.6759 122.662 22.3478C122.662 22.0237 122.59 21.782 122.448 21.6225C122.306 21.463 122.118 21.383 121.882 21.383C121.647 21.383 121.458 21.4642 121.314 21.6253C121.17 21.7871 121.098 22.03 121.098 22.3552Z" fill="#231F20"/>
<path d="M123.686 23.765V20.95H124.535L125.043 22.8705L125.545 20.95H126.397V23.765H125.873L125.87 21.5493L125.314 23.765H124.766L124.212 21.5493L124.21 23.765H123.686Z" fill="#231F20"/>
<path d="M126.963 23.765V20.95H127.812L128.321 22.8705L128.822 20.95H129.674V23.765H129.15L129.148 21.5493L128.591 23.765H128.043L127.489 21.5493L127.487 23.765H126.963Z" fill="#231F20"/>
<path d="M130.249 23.765V20.95H132.336V21.4267H130.816V22.0498H132.232V22.5266H130.816V23.2888H132.388V23.765H130.249Z" fill="#231F20"/>
<path d="M132.872 23.765V20.95H134.065C134.365 20.95 134.583 20.9755 134.719 21.026C134.855 21.0771 134.964 21.1667 135.045 21.2961C135.127 21.4255 135.168 21.5731 135.168 21.74C135.168 21.9511 135.106 22.1259 134.983 22.2638C134.859 22.4017 134.674 22.488 134.428 22.5237C134.551 22.5958 134.652 22.6742 134.732 22.7598C134.812 22.8455 134.92 22.9976 135.055 23.2167L135.398 23.765H134.718L134.31 23.152C134.164 22.9341 134.065 22.7967 134.011 22.74C133.957 22.6832 133.9 22.6435 133.84 22.6231C133.78 22.6015 133.685 22.5913 133.555 22.5913H133.439V23.765H132.872ZM133.439 22.1406H133.858C134.13 22.1406 134.299 22.1293 134.367 22.1065C134.434 22.0838 134.487 22.0436 134.526 21.9874C134.564 21.9306 134.583 21.8602 134.583 21.7762C134.583 21.6815 134.558 21.6048 134.508 21.5464C134.458 21.4879 134.386 21.4516 134.294 21.4357C134.249 21.4294 134.111 21.4266 133.882 21.4266H133.439V22.1406Z" fill="#231F20"/>
<path d="M137.511 22.7298L138.06 22.8989C137.976 23.2076 137.836 23.4375 137.639 23.5873C137.443 23.7377 137.194 23.8126 136.891 23.8126C136.518 23.8126 136.211 23.6849 135.971 23.429C135.73 23.1736 135.61 22.824 135.61 22.3802C135.61 21.9114 135.73 21.547 135.972 21.287C136.214 21.0282 136.531 20.8977 136.926 20.8977C137.27 20.8977 137.55 20.9999 137.764 21.2031C137.892 21.3234 137.988 21.4959 138.052 21.7206L137.489 21.8552C137.455 21.7093 137.386 21.5941 137.281 21.5095C137.175 21.4255 137.047 21.3829 136.896 21.3829C136.688 21.3829 136.519 21.4584 136.388 21.6083C136.259 21.7587 136.194 22.0022 136.194 22.3381C136.194 22.6946 136.258 22.9488 136.386 23.1004C136.514 23.2519 136.681 23.328 136.886 23.328C137.038 23.328 137.167 23.2791 137.276 23.1838C137.385 23.0873 137.463 22.9364 137.511 22.7298Z" fill="#231F20"/>
<path d="M138.533 23.765V20.95H139.1V23.765H138.533Z" fill="#231F20"/>
<path d="M142.181 23.765H141.563L141.32 23.1242H140.197L139.966 23.765H139.357L140.444 20.95H141.054L142.181 23.765ZM141.134 22.6481L140.745 21.6083L140.37 22.6481H141.134Z" fill="#231F20"/>
<path d="M142.501 23.7649V20.9714H143.069V23.2887H144.485V23.7649H142.501Z" fill="#231F20"/>
<path d="M145.913 20.95H147.037C147.26 20.95 147.426 20.959 147.535 20.9777C147.644 20.9965 147.742 21.035 147.829 21.0935C147.915 21.1525 147.987 21.2309 148.044 21.3285C148.101 21.4267 148.13 21.5356 148.13 21.6571C148.13 21.7888 148.095 21.9102 148.024 22.0198C147.954 22.1293 147.859 22.2122 147.738 22.2667C147.909 22.3166 148.04 22.4017 148.132 22.5226C148.223 22.6429 148.27 22.7843 148.27 22.9477C148.27 23.076 148.239 23.2003 148.18 23.3217C148.121 23.4426 148.039 23.5402 147.936 23.6117C147.834 23.6844 147.707 23.7292 147.556 23.7462C147.461 23.7559 147.232 23.7627 146.871 23.765H145.913V20.95ZM146.481 21.4176V22.0674H146.852C147.073 22.0674 147.21 22.0638 147.264 22.0577C147.361 22.0464 147.438 22.0124 147.493 21.9573C147.549 21.9016 147.576 21.8285 147.576 21.7376C147.576 21.6514 147.552 21.5799 147.504 21.5259C147.457 21.472 147.385 21.4391 147.291 21.4278C147.234 21.421 147.073 21.4175 146.806 21.4175L146.481 21.4176ZM146.481 22.535V23.2888H147.007C147.213 23.2888 147.343 23.2825 147.398 23.2711C147.483 23.2563 147.552 23.2177 147.604 23.1587C147.658 23.0991 147.684 23.0191 147.684 22.9192C147.684 22.8352 147.664 22.7626 147.623 22.7047C147.582 22.6457 147.523 22.602 147.445 22.5753C147.367 22.5486 147.199 22.535 146.94 22.535L146.481 22.535Z" fill="#231F20"/>
<path d="M151.288 23.765H150.669L150.427 23.1242H149.304L149.073 23.765H148.464L149.55 20.95H150.161L151.288 23.765ZM150.241 22.6481L149.852 21.6083L149.476 22.6481H150.241Z" fill="#231F20"/>
<path d="M151.595 23.765V20.95H152.145L153.306 22.8433V20.95H153.83V23.765H153.263L152.119 21.9079V23.765H151.595Z" fill="#231F20"/>
<path d="M154.436 23.765V20.95H155.003V22.2008L156.162 20.95H156.928L155.86 22.0464L156.98 23.765H156.245L155.466 22.4437L155.003 22.9148V23.765H154.436Z" fill="#231F20"/>
<path d="M158.249 22.3745C158.249 22.0873 158.292 21.8455 158.378 21.6514C158.441 21.5072 158.529 21.3778 158.64 21.2643C158.751 21.1497 158.873 21.0646 159.004 21.0095C159.18 20.9352 159.382 20.8977 159.611 20.8977C160.026 20.8977 160.359 21.0271 160.608 21.2848C160.857 21.5424 160.982 21.9017 160.982 22.3614C160.982 22.8172 160.858 23.1736 160.611 23.4313C160.363 23.6878 160.033 23.8172 159.619 23.8172C159.2 23.8172 158.867 23.6889 158.619 23.4335C158.372 23.177 158.249 22.824 158.249 22.3745ZM158.834 22.3552C158.834 22.6759 158.908 22.9188 159.055 23.0839C159.203 23.2491 159.391 23.3319 159.618 23.3319C159.845 23.3319 160.033 23.2502 160.178 23.0862C160.324 22.9222 160.397 22.6759 160.397 22.3478C160.397 22.0237 160.326 21.782 160.184 21.6225C160.042 21.463 159.853 21.383 159.618 21.383C159.383 21.383 159.193 21.4642 159.05 21.6253C158.905 21.7871 158.834 22.03 158.834 22.3552Z" fill="#231F20"/>
<path d="M161.43 23.765V20.95H163.362V21.4267H161.997V22.093H163.176V22.5697H161.997V23.765H161.43Z" fill="#231F20"/>
<path d="M166.723 22.7298L167.273 22.8989C167.189 23.2076 167.049 23.4375 166.852 23.5873C166.656 23.7377 166.406 23.8126 166.104 23.8126C165.731 23.8126 165.423 23.6849 165.183 23.429C164.942 23.1736 164.822 22.824 164.822 22.3802C164.822 21.9114 164.943 21.547 165.185 21.287C165.426 21.0282 165.744 20.8977 166.138 20.8977C166.482 20.8977 166.762 20.9999 166.977 21.2031C167.105 21.3234 167.201 21.4959 167.264 21.7206L166.701 21.8552C166.668 21.7093 166.599 21.5941 166.493 21.5095C166.388 21.4255 166.26 21.3829 166.109 21.3829C165.9 21.3829 165.731 21.4584 165.601 21.6083C165.472 21.7587 165.407 22.0022 165.407 22.3381C165.407 22.6946 165.471 22.9488 165.599 23.1004C165.727 23.2519 165.894 23.328 166.098 23.328C166.249 23.328 166.38 23.2791 166.489 23.1838C166.598 23.0873 166.676 22.9364 166.723 22.7298Z" fill="#231F20"/>
<path d="M167.767 23.765V20.95H168.335V22.0589H169.447V20.95H170.015V23.765H169.447V22.5351H168.335V23.765H167.767Z" fill="#231F20"/>
<path d="M170.587 23.765V20.95H171.154V23.765H170.587Z" fill="#231F20"/>
<path d="M171.701 23.765V20.95H172.25L173.412 22.8433V20.95H173.936V23.765H173.369L172.225 21.9079V23.765H171.701Z" fill="#231F20"/>
<path d="M177.075 23.765H176.457L176.214 23.1242H175.092L174.86 23.765H174.252L175.338 20.95H175.948L177.075 23.765ZM176.029 22.6481L175.64 21.6083L175.264 22.6481H176.029Z" fill="#231F20"/>
<path fill-rule="evenodd" clip-rule="evenodd" d="M61.0278 16.6063V18.4497H67.009V12.9186H63.3302V11.0747H67.009V5.53737H61.0278V7.38247H65.163V9.23048H61.4767V14.7629H65.163V16.6063H61.0278ZM50.3952 11.999C50.3952 6.40036 54.9359 1.85468 60.5364 1.85468C66.1357 1.85468 70.6773 6.40036 70.6773 11.999C70.6773 17.5996 66.1357 22.142 60.5364 22.142C54.9359 22.142 50.3952 17.5996 50.3952 11.999ZM48.5375 11.999C48.5375 5.36952 53.9061 0 60.5364 0C67.1651 0 72.5375 5.36952 72.5375 11.999C72.5375 18.6284 67.1651 24 60.5364 24C53.9061 24 48.5375 18.6284 48.5375 11.999ZM60.0975 7.37747V5.53321H54.1089V11.0672H57.7784V12.9132H54.1089V18.4464H60.0975V16.6021H55.952V14.7587H59.6378V9.22132H55.952V7.37747" fill="#CB0202"/>
<path fill-rule="evenodd" clip-rule="evenodd" d="M20.1584 13.0245V12.9943H24.6097C25.0164 12.9943 25.6017 13.0596 26.0705 13.3679C26.5074 13.6569 26.7309 14.084 26.7309 14.637C26.7309 15.0775 26.6111 15.4222 26.3764 15.6602C25.9399 16.099 25.1863 16.0982 24.635 16.0982H20.1423V16.071L20.1584 13.0245ZM20.1584 10.6146V7.90855H24.2333C24.95 7.90855 26.1513 7.90856 26.1513 9.33499C26.1513 9.85787 25.9263 10.2276 25.4827 10.436C25.0827 10.6242 24.5832 10.6439 24.2432 10.6439H20.1584V10.6146ZM24.7751 18.4892C26.3196 18.4892 27.4849 18.1127 28.2377 17.3694C29.0108 16.6056 29.1737 15.6238 29.1737 14.9324C29.1737 13.4214 28.5445 12.3706 27.3025 11.8114L27.2478 11.7884L27.2996 11.7608C27.8596 11.465 28.6012 10.8644 28.6012 9.07358C28.6012 8.08972 28.2307 7.20332 27.5562 6.5767C26.8171 5.88858 25.7385 5.52591 24.4406 5.52591L17.7135 5.52173V18.4855" fill="#201E1D"/>
<path fill-rule="evenodd" clip-rule="evenodd" d="M0 18.4892H2.56265V5.52588H0V18.4892Z" fill="#201E1D"/>
<path fill-rule="evenodd" clip-rule="evenodd" d="M4.64319 11.8972C4.64319 13.1504 4.85377 14.1853 5.28696 15.06C5.64885 15.7887 6.15873 16.4027 6.89494 16.9938C8.0403 17.912 9.65325 18.3784 11.6894 18.3784H15.1968V15.9317H11.8839C10.0408 15.9317 8.70438 15.4716 7.91262 14.563C7.34968 13.9188 7.06075 13.0488 7.05329 11.9787C7.04294 10.8309 7.36377 9.91814 8.00382 9.26809C8.8047 8.45448 10.1101 8.04245 11.8839 8.04245H15.1968V5.61584H11.8117C10.6718 5.61584 9.71626 5.7313 8.88802 5.96472C8.06144 6.19939 7.38202 6.54909 6.81286 7.03265C6.00328 7.7216 4.64319 9.26809 4.64319 11.8972Z" fill="#201E1D"/>
<path fill-rule="evenodd" clip-rule="evenodd" d="M30.7198 11.8972C30.7198 13.1479 30.9354 14.2523 31.3636 15.1751C31.7342 15.9749 32.2744 16.6642 32.9708 17.2223C34.0473 18.0877 35.5711 18.4897 37.7653 18.4897H41.4629V16.0435H37.9605C36.1208 16.0435 34.7844 15.5632 33.9876 14.6166C33.4255 13.9502 33.1366 13.063 33.1295 11.9788C33.1188 10.7991 33.4508 9.85837 34.1132 9.18573C34.9187 8.36626 36.2124 7.95088 37.9605 7.95088H41.4629V5.52637H37.8867C36.7476 5.52637 35.7929 5.64057 34.9639 5.87441C34.1373 6.10866 33.4578 6.45669 32.8904 6.94067C32.2362 7.49535 30.7198 9.0891 30.7198 11.8972Z" fill="#201E1D"/>
</svg>
