<svg width="83" height="24" viewBox="0 0 83 24" fill="none" xmlns="http://www.w3.org/2000/svg">
<g clip-path="url(#clip0_45_4278)">
<path d="M6.02802 0.298963C5.35893 0.63305 4.86043 1.20784 4.62478 1.91754L0.145126 15.3811C-0.0922454 16.0886 -0.0369466 16.8498 0.300123 17.5218C0.634669 18.1864 1.21014 18.686 1.91732 18.9225L16.6084 23.855C17.3208 24.0913 18.0812 24.0375 18.7494 23.702C19.4185 23.3642 19.918 22.7922 20.1507 22.0807L24.6323 8.62108C25.1231 7.15498 24.325 5.56416 22.859 5.07577L8.1693 0.144884C7.45557 -0.0904224 6.70009 -0.0391391 6.02802 0.298963Z" fill="white"/>
<path d="M13.2092 13.2293C12.4113 14.1195 11.4163 14.8379 10.263 15.2834L9.60008 15.5401V9.30215L10.255 9.55604C11.4099 9.99694 12.4074 10.7154 13.2092 11.6016C13.78 10.683 14.1346 9.61742 14.2071 8.45833C14.3886 5.46772 12.5157 2.72366 9.94278 1.76856L7.82054 1.06241C6.86268 0.743234 5.84321 1.27167 5.52714 2.22666L1.03452 15.6978C0.715573 16.6567 1.25284 17.697 2.21185 18.0122L12.4074 21.4162C13.4468 20.3111 14.1212 18.8465 14.2195 17.213C14.3097 15.7552 13.9297 14.3808 13.2092 13.2293ZM7.31597 15.9243H6.30373V8.93043H7.31597V15.9243Z" fill="#0099DA"/>
<path d="M12.6211 12.4156C12.0518 11.7483 11.3637 11.1875 10.5692 10.7769V14.0643C11.3637 13.6526 12.0556 13.0852 12.6211 12.4156Z" fill="#F15C21"/>
<path d="M22.5333 5.97467L13.1768 2.84766C14.4335 4.22347 15.2024 6.0512 15.2061 8.05285C15.208 9.63529 14.7147 11.1488 13.8562 12.4156C14.7179 13.6786 15.2141 15.1911 15.2185 16.7733C15.219 18.6634 14.5398 20.4048 13.409 21.7529L16.9226 22.9257C17.8836 23.2452 18.898 22.7169 19.2175 21.759L23.7124 8.28919C24.0306 7.3319 23.4927 6.2927 22.5333 5.97467ZM20.0545 15.9021L18.7905 15.9055L16.1904 12.408L18.8315 8.91147L20.1063 8.90643L17.4592 12.4131L20.0545 15.9021Z" fill="#0055A2"/>
<path d="M49.0542 8.20863C49.4376 8.20863 49.7479 8.28928 50.0335 8.37349C50.0299 8.39208 49.9723 8.98166 49.9684 9.02044C49.7632 8.91076 49.3125 8.80877 49.14 8.80877C48.7778 8.80877 48.3924 8.95677 48.3924 9.36933C48.3924 9.77351 48.7053 9.94641 49.1462 10.1473L49.1684 10.1566C49.672 10.385 50.3628 10.698 50.3628 11.4491C50.3628 12.2922 49.5241 12.7462 48.7356 12.7462C48.3925 12.7462 47.9508 12.7197 47.5577 12.5157C47.5599 12.4976 47.5975 11.8929 47.5989 11.8521C47.9291 12.0526 48.3687 12.1459 48.5829 12.1459C48.9656 12.1459 49.3803 11.9724 49.3803 11.4918C49.3803 11.1387 48.9734 10.897 48.6188 10.7244C48.0319 10.4382 47.4288 10.0601 47.4288 9.42853C47.4286 8.68635 48.0656 8.20863 49.0542 8.20863ZM61.5929 8.20863C62.8311 8.20863 63.4834 8.82586 63.4834 9.99505C63.4834 9.99505 63.4834 12.6139 63.4834 12.6429C63.4583 12.6429 62.6872 12.6429 62.6585 12.6429C62.6585 12.617 62.6585 11.9992 62.6585 11.9992L62.5804 12.1045C62.4406 12.2979 62.0274 12.7463 61.2578 12.7463C60.2084 12.7463 59.6074 12.2584 59.6074 11.4065C59.6074 10.283 60.9686 9.9853 61.6884 9.9853C61.9825 9.9853 62.2167 9.9853 62.5266 10.0019L62.572 10.0046V9.96017C62.5667 9.14343 62.2453 8.80888 61.4626 8.80888C61.0209 8.80888 60.5452 8.9726 60.215 9.23418C60.2122 9.19207 60.1759 8.62509 60.1759 8.61006C60.6267 8.34332 61.1037 8.20863 61.5929 8.20863ZM61.3278 12.1459C62.0938 12.1459 62.5721 11.6919 62.5721 10.9674V10.5553L62.0324 10.5371C61.567 10.5371 60.4841 10.6223 60.4841 11.4065C60.4841 11.8614 60.9221 12.1459 61.3278 12.1459ZM37.1297 17.0081C38.3689 17.0081 39.0223 17.6248 39.0223 18.7964C39.0223 18.7964 39.0223 21.4157 39.0223 21.4425C38.9948 21.4425 38.2224 21.4425 38.1935 21.4425C38.1935 21.4169 38.1935 20.7991 38.1935 20.7991L38.1175 20.9045C37.977 21.0995 37.5653 21.5479 36.794 21.5479C35.7441 21.5479 35.1431 21.0582 35.1431 20.2058C35.1431 19.0835 36.5062 18.7874 37.2235 18.7874C37.5188 18.7874 37.7518 18.7874 38.0619 18.8043L38.1083 18.8055V18.7601C38.1052 17.9451 37.7815 17.6107 36.9995 17.6107C36.5574 17.6107 36.0814 17.7738 35.7514 18.0343C35.7486 17.9874 35.7123 17.4258 35.7112 17.409C36.1619 17.1444 36.64 17.0081 37.1297 17.0081ZM36.8644 20.9449C37.6328 20.9449 38.1097 20.4931 38.1097 19.7671V19.3558L37.5688 19.3377C37.1033 19.3377 36.0217 19.4236 36.0217 20.2058C36.0217 20.6635 36.4577 20.9449 36.8644 20.9449ZM80.7123 17.0081C81.9504 17.0081 82.6039 17.6248 82.6039 18.7964C82.6039 18.7964 82.6039 21.4157 82.6039 21.4425C82.5776 21.4425 81.8066 21.4425 81.7766 21.4425C81.7766 21.4169 81.7766 20.7991 81.7766 20.7991L81.7001 20.9045C81.5591 21.0995 81.1479 21.5479 80.3782 21.5479C79.3291 21.5479 78.7258 21.0582 78.7258 20.2058C78.7258 19.0835 80.0863 18.7874 80.8064 18.7874C81.1018 18.7874 81.3358 18.7874 81.6453 18.8043L81.6903 18.8055V18.7601C81.6853 17.9451 81.365 17.6107 80.5821 17.6107C80.1404 17.6107 79.6637 17.7738 79.3346 18.0343C79.3329 17.9909 79.2966 17.4258 79.2944 17.409C79.7483 17.1444 80.2255 17.0081 80.7123 17.0081ZM80.4444 20.9449C81.2133 20.9449 81.6924 20.4931 81.6924 19.7671V19.3558L81.1496 19.3377C80.6849 19.3377 79.6033 19.4236 79.6033 20.2058C79.6033 20.6635 80.0414 20.9449 80.4444 20.9449ZM53.0469 17.0081C54.3709 17.0081 55.3338 17.9612 55.3338 19.2774C55.3338 20.55 54.3285 21.5478 53.0469 21.5478C51.7572 21.5478 50.7498 20.55 50.7498 19.2774C50.7498 17.9612 51.7161 17.0081 53.0469 17.0081ZM53.0469 20.9449C53.9931 20.9449 54.4263 20.0806 54.4263 19.2774C54.4263 18.4698 53.9444 17.6106 53.0469 17.6106C52.1426 17.6106 51.6584 18.4698 51.6584 19.2774C51.6584 20.0806 52.0929 20.9449 53.0469 20.9449ZM68.0854 17.0081C69.4106 17.0081 70.3723 17.9612 70.3723 19.2774C70.3723 20.55 69.3681 21.5478 68.0854 21.5478C66.7969 21.5478 65.7894 20.55 65.7894 19.2774C65.7894 17.9612 66.7545 17.0081 68.0854 17.0081ZM68.0854 20.9449C69.0328 20.9449 69.466 20.0806 69.466 19.2774C69.466 18.4698 68.984 17.6106 68.0854 17.6106C67.1839 17.6106 66.6959 18.4698 66.6959 19.2774C66.6959 20.0806 67.1321 20.9449 68.0854 20.9449ZM76.1847 17.0081C77.4491 17.0081 78.1212 17.8475 78.1277 19.4324C78.0986 19.4324 74.9666 19.4324 74.9666 19.4324V19.4751C74.9745 20.3005 75.6201 20.9449 76.4349 20.9449C76.9622 20.9449 77.5716 20.6847 77.7929 20.5279C77.7929 20.5779 77.7929 21.2524 77.7929 21.2716C77.7708 21.2791 77.6915 21.3079 77.6915 21.3079C77.3875 21.424 77.0121 21.5478 76.4008 21.5478C74.9204 21.5478 74.0375 20.6689 74.0375 19.2007C74.0374 17.9301 74.9403 17.0081 76.1847 17.0081ZM74.9628 18.8828H77.2838V18.8379C77.2761 18.2289 76.9294 17.6107 76.167 17.6107C75.3861 17.6107 75.0366 18.2425 74.9675 18.8338L74.9644 18.8668L74.9628 18.8828ZM30.416 6.75537C30.416 6.78394 30.416 12.6138 30.416 12.6427C30.4407 12.6427 31.2784 12.6427 31.3049 12.6427C31.3049 12.6138 31.3049 6.78394 31.3049 6.75537C31.2784 6.75537 30.4407 6.75537 30.416 6.75537ZM30.416 15.5552C30.4437 15.5552 31.3819 15.5583 31.3819 15.5583H32.1222C33.5032 15.5583 34.233 16.0685 34.233 17.0298C34.233 17.7514 33.8558 18.2015 33.0787 18.4069L33.0561 18.4122L33.0622 18.487L33.085 18.4901C33.9335 18.5786 34.5246 19.152 34.5246 19.8866C34.5246 20.8899 33.662 21.4426 32.0957 21.4426C32.0957 21.4426 30.4437 21.4426 30.416 21.4426C30.416 21.4157 30.416 15.5838 30.416 15.5552ZM31.341 18.0915H31.833C32.6665 18.0915 33.4168 18.0178 33.4168 17.1151C33.4168 16.2936 32.6065 16.2045 32.2588 16.2045H31.341V18.0792V18.0915ZM31.341 20.798H32.0021C33.0475 20.798 33.5531 20.4742 33.5531 19.8107C33.5531 18.8495 32.6205 18.7399 31.9168 18.7399H31.341V20.7836V20.798ZM64.4847 6.75537C64.4847 6.78394 64.4847 12.6138 64.4847 12.6427C64.511 12.6427 65.3473 12.6427 65.3735 12.6427C65.3735 12.6138 65.3735 6.78394 65.3735 6.75537C65.3473 6.75537 64.5109 6.75537 64.4847 6.75537ZM56.4476 16.8903V17.1121C56.4476 17.1121 55.4892 17.1121 55.4631 17.1121C55.4631 17.1383 55.4631 17.6864 55.4631 17.7135C55.4892 17.7135 56.4476 17.7135 56.4476 17.7135C56.4476 17.7135 56.4476 21.4157 56.4476 21.4425C56.4765 21.4425 57.3114 21.4425 57.335 21.4425C57.335 21.4157 57.335 17.7135 57.335 17.7135C57.335 17.7135 58.3834 17.7135 58.4105 17.7135C58.4105 17.6863 58.4105 17.1382 58.4105 17.1121C58.3833 17.1121 57.335 17.1121 57.335 17.1121V16.8222C57.335 16.2554 57.3971 15.7862 58.1315 15.7862C58.2644 15.7862 58.3407 15.8018 58.421 15.8286C58.422 15.7956 58.4521 15.2279 58.4521 15.2027C58.2455 15.1713 58.0554 15.1539 57.8927 15.1539C56.6221 15.1539 56.4476 15.9882 56.4476 16.8903ZM45.1901 15.5552C45.1901 15.5838 45.1901 21.4157 45.1901 21.4425C45.2189 21.4425 46.0526 21.4425 46.0801 21.4425C46.0801 21.4157 46.0801 19.1504 46.0801 19.1504C46.0801 19.1504 48.0666 21.4344 48.0758 21.4425C48.0894 21.4425 49.1122 21.4425 49.1719 21.4425C49.1323 21.399 46.9664 18.9031 46.9664 18.9031C46.9664 18.9031 48.6903 17.1586 48.7337 17.1121C48.6715 17.1121 47.9079 17.1121 47.8957 17.1121C47.8865 17.1193 46.0801 18.9265 46.0801 18.9265C46.0801 18.9265 46.0801 15.5839 46.0801 15.5552C46.0526 15.5552 45.219 15.5552 45.1901 15.5552ZM57.9152 8.31005C57.9152 8.33827 57.9152 12.6138 57.9152 12.6427C57.9399 12.6427 58.7736 12.6427 58.8016 12.6427C58.8016 12.6138 58.8016 8.33827 58.8016 8.31005C58.7736 8.31005 57.9399 8.31005 57.9152 8.31005ZM57.9152 6.75537C57.9152 6.78222 57.9152 7.58898 57.9152 7.61525C57.9399 7.61525 58.7736 7.61525 58.8016 7.61525C58.8016 7.58898 58.8016 6.78233 58.8016 6.75537C58.7736 6.75537 57.9399 6.75537 57.9152 6.75537ZM56.5821 8.20863C56.1549 8.21425 55.7169 8.49854 55.4941 8.91535V8.91225C55.493 8.92051 55.4806 8.9391 55.4412 9.01424L55.4125 9.06427C55.4125 9.06427 55.4125 8.33678 55.4125 8.31005C55.3865 8.31005 54.5852 8.31005 54.5564 8.31005C54.5564 8.33827 54.5564 12.6138 54.5564 12.6427C54.5854 12.6427 55.419 12.6427 55.4479 12.6427C55.4479 12.6138 55.4479 10.674 55.4479 10.674C55.4479 9.6083 55.9132 8.91225 56.6631 8.86016C56.8501 8.84984 57.0487 8.90296 57.1418 8.93095C57.1418 8.89676 57.1418 8.28217 57.1418 8.26014C57.0826 8.24419 56.8926 8.20243 56.5821 8.20863ZM73.1313 17.0081C72.7058 17.0142 72.2702 17.2996 72.0458 17.716V17.7134C72.0423 17.7194 72.0322 17.7392 71.9898 17.8148L71.9659 17.8653C71.9659 17.8653 71.9659 17.1381 71.9659 17.1118C71.9379 17.1118 71.1371 17.1118 71.1084 17.1118C71.1084 17.1391 71.1084 21.4156 71.1084 21.4422C71.1371 21.4422 71.9707 21.4422 71.998 21.4422C71.998 21.4155 71.998 19.4749 71.998 19.4749C71.998 18.4091 72.4626 17.7132 73.2139 17.6617C73.4015 17.6484 73.601 17.7042 73.6919 17.7305C73.6919 17.6981 73.6919 17.0827 73.6919 17.0615C73.6308 17.044 73.4458 17.0035 73.1313 17.0081ZM51.7424 7.22656C51.7424 7.25593 51.7424 8.31005 51.7424 8.31005C51.7424 8.31005 50.7811 8.31005 50.7536 8.31005C50.7536 8.33678 50.7536 8.88529 50.7536 8.91225C50.7811 8.91225 51.7424 8.91225 51.7424 8.91225V11.4994C51.7424 12.3379 52.1527 12.7462 52.9955 12.7462C53.2646 12.7462 53.6488 12.6712 53.7991 12.6314C53.7991 12.6108 53.7991 12.0026 53.7991 11.9606C53.7049 12.0062 53.5373 12.0717 53.3396 12.0717C53.1295 12.0717 52.6376 12.0011 52.6376 11.336L52.6311 8.91225C52.6311 8.91225 53.7039 8.91225 53.7299 8.91225C53.7299 8.88529 53.7299 8.33678 53.7299 8.31005C53.7039 8.31005 52.6311 8.31005 52.6311 8.31005C52.6311 8.31005 52.6311 7.25593 52.6311 7.22656C52.6022 7.22656 51.7687 7.22656 51.7424 7.22656ZM41.5312 6.75537C41.5312 6.78394 41.5312 12.6138 41.5312 12.6427C41.5023 12.6427 40.6669 12.6427 40.6409 12.6427C40.6409 12.6159 40.6409 11.9405 40.6409 11.9405L40.5646 12.0564C40.3341 12.3879 39.83 12.7462 39.105 12.7462C37.768 12.7462 37.1596 11.5292 37.1596 10.3999C37.1596 9.34363 37.7704 8.20863 39.1125 8.20863C39.7795 8.20863 40.2802 8.43911 40.5632 8.87978L40.6409 9.0038C40.6409 9.0038 40.6409 6.78405 40.6409 6.75549C40.6669 6.75537 41.5023 6.75537 41.5312 6.75537ZM38.0558 10.4589V10.5052C38.0558 10.9051 38.1785 11.4596 38.5304 11.8205C38.7409 12.0356 38.9957 12.1459 39.2926 12.1459C40.1964 12.1459 40.6045 11.2857 40.6045 10.4853C40.6045 9.67886 40.194 8.80877 39.2852 8.80877C38.9606 8.80877 38.6934 8.91845 38.4839 9.13058C38.2114 9.41178 38.0557 9.87355 38.0557 10.4007V10.4589H38.0558ZM33.323 8.92969L33.2437 9.03742C33.2437 9.03742 33.2437 8.33678 33.2437 8.31005C33.2174 8.31005 32.3839 8.31005 32.3563 8.31005C32.3563 8.33827 32.3563 12.6138 32.3563 12.6427C32.3839 12.6427 33.2174 12.6427 33.2437 12.6427C33.2437 12.6138 33.2437 10.6398 33.2437 10.6398C33.2437 9.45996 33.7273 8.80877 34.6006 8.80877C35.287 8.85087 35.557 9.29854 35.557 10.3999C35.557 10.3999 35.557 12.6139 35.557 12.6427C35.5824 12.6427 36.4196 12.6427 36.445 12.6427C36.445 12.6138 36.445 10.0634 36.445 10.0634C36.445 8.84973 35.8804 8.20851 34.8086 8.20851C34.2012 8.20863 33.6431 8.47835 33.323 8.92969ZM41.0728 17.7295L40.9941 17.8384C40.9941 17.8384 40.9941 17.1381 40.9941 17.112C40.97 17.112 40.1355 17.112 40.1078 17.112C40.1078 17.1393 40.1078 21.4157 40.1078 21.4424C40.1355 21.4424 40.97 21.4424 40.9941 21.4424C40.9941 21.4156 40.9941 19.4407 40.9941 19.4407C40.9941 18.2606 41.4774 17.6106 42.3533 17.6106C43.0404 17.6511 43.3085 18.0982 43.3085 19.2007C43.3085 19.2007 43.3085 21.4157 43.3085 21.4425C43.3348 21.4425 44.1697 21.4425 44.1975 21.4425C44.1975 21.4157 44.1975 18.865 44.1975 18.865C44.1975 17.6511 43.6304 17.0081 42.5614 17.0081C41.9531 17.0081 41.3948 17.2769 41.0728 17.7295ZM45.7145 8.31005C45.7145 8.33827 45.7145 10.3148 45.7145 10.3148C45.7145 11.4947 45.2301 12.1457 44.3552 12.1457C43.6691 12.1011 43.4026 11.6575 43.4026 10.5552C43.4026 10.5552 43.4026 8.33827 43.4026 8.31005C43.3763 8.31005 42.5401 8.31005 42.5126 8.31005C42.5126 8.33827 42.5126 10.8888 42.5126 10.8888C42.5126 12.1044 43.0798 12.7462 44.1488 12.7462C44.7572 12.7462 45.3128 12.4762 45.6345 12.0262L45.7146 11.9165C45.7146 11.9165 45.7146 12.6159 45.7146 12.6427C45.7409 12.6427 46.5761 12.6427 46.6036 12.6427C46.6036 12.6138 46.6036 8.33827 46.6036 8.31005C46.576 8.31005 45.7408 8.31005 45.7145 8.31005ZM64.5635 15.5541C64.5547 15.5632 62.3329 18.1953 62.3329 18.1953H62.2503C62.2503 18.1953 62.2503 15.5818 62.2503 15.5541C62.223 15.5541 61.2763 15.5541 61.249 15.5541C61.249 15.5818 61.249 21.4157 61.249 21.4425C61.2763 21.4425 62.223 21.4425 62.2503 21.4425C62.2503 21.4157 62.2503 18.544 62.2503 18.544H62.3329C62.3329 18.544 64.6238 21.4331 64.6335 21.4425C64.6451 21.4425 65.7589 21.4425 65.818 21.4425C65.7806 21.3992 63.1845 18.2379 63.1845 18.2379C63.1845 18.2379 65.5042 15.5996 65.5455 15.5542C65.4848 15.5541 64.5763 15.5541 64.5635 15.5541Z" fill="#0055A2"/>
</g>
<defs>
<clipPath id="clip0_45_4278">
<rect width="82.6039" height="24" fill="white"/>
</clipPath>
</defs>
</svg>
