<svg width="67" height="24" viewBox="0 0 67 24" fill="none" xmlns="http://www.w3.org/2000/svg">
<g clip-path="url(#clip0_45_4261)">
<path d="M6.94398 0H7.04831C7.48469 1.10305 8.09538 2.12467 8.54448 3.22136C7.0623 2.96182 5.55849 3.17047 4.06614 3.09922C3.33077 3.06614 2.60304 2.88294 1.95037 2.53688C2.61067 2.06233 3.40202 1.8346 4.10685 1.44147C5.04577 0.947832 6.06231 0.595417 6.94398 0ZM0 5.13483C1.54452 5.46435 3.14375 5.45671 4.67428 5.86129C5.66536 6.06867 6.67172 6.49742 7.31548 7.30912C7.69334 7.84601 7.83965 8.51649 7.81421 9.16662C6.66281 9.74041 5.4847 10.2608 4.31804 10.8053C3.89184 10.9999 3.48726 11.304 2.99871 11.2926C2.04325 9.21878 0.951649 7.20861 0 5.13483Z" fill="#DE4019"/>
<path d="M12.8995 1.03695C12.9618 0.811757 13.229 0.945345 13.3728 0.99369C15.9682 2.01531 18.5394 3.09928 21.1399 4.1069C21.2786 4.26975 21.1107 4.48349 21.0738 4.65652C20.0432 7.1247 19.0267 9.59924 18.0483 12.0891C17.9987 12.1794 17.9402 12.2659 17.8753 12.346C17.7672 11.944 17.7659 11.5204 17.6412 11.1234C17.3295 10.2506 16.7417 9.44275 15.8919 9.03054C15.1629 8.58525 14.2914 8.55726 13.4809 8.37024C13.7532 7.90459 14.1425 7.52165 14.5204 7.14251C14.7074 6.92877 15.0102 6.96185 15.2646 6.92368C15.2506 6.8588 15.2226 6.72903 15.2099 6.66287C14.8168 6.49875 14.4466 6.21249 14.014 6.1845C13.1412 6.42114 12.2914 6.75193 11.411 6.96694C11.2825 6.55218 11.112 6.15015 11.0115 5.72649C11.6005 4.15016 12.2685 2.59928 12.8995 1.03695Z" fill="#0084C4"/>
<path d="M62.1218 9.701C62.2935 9.44019 62.6332 9.35113 62.8877 9.18701C63.0034 10.9402 62.8877 12.7073 62.9449 14.4643C63.763 13.5661 64.3419 12.4809 65.1077 11.5407C65.3953 11.4135 65.7439 11.5127 66.0556 11.4885C65.5747 12.2201 65.0225 12.8982 64.5085 13.6056C65.1765 14.8498 65.7451 16.1437 66.4004 17.3943C66.0912 17.3867 65.7706 17.444 65.4703 17.3562C65.0301 16.5432 64.6586 15.6895 64.2515 14.8562C64.1446 14.7022 64.1383 14.4007 63.8991 14.4084C63.5899 14.8307 63.2592 15.2391 62.9602 15.6679C62.8927 16.2404 62.9551 16.8218 62.9335 17.3982H62.1167C62.1154 14.8333 62.104 12.2659 62.1218 9.701ZM29.2224 9.47581C30.3344 9.13867 31.5138 9.53688 32.4349 10.1794C32.2135 10.5623 31.9769 10.9351 31.7377 11.3079C31.1754 11.1068 30.6563 10.7099 30.0265 10.7621C29.6932 10.7252 29.2835 10.9478 29.3039 11.3231C29.2962 11.8524 29.7619 12.187 30.0532 12.5687C30.6868 13.2493 31.2568 13.9885 31.9222 14.6386C32.1321 14.229 32.1894 13.7061 32.4832 13.3638C32.9082 13.4262 33.3038 13.6068 33.6995 13.7671C33.5265 14.4771 33.1741 15.1157 32.8217 15.748C33.3331 16.2684 33.8306 16.8053 34.2733 17.3867C33.6779 17.4058 33.0825 17.4033 32.4883 17.3867C32.2971 17.1914 32.11 16.9921 31.9273 16.7888C30.9985 17.5076 29.7492 17.6717 28.6207 17.4376C28.1945 17.3218 27.7454 17.1717 27.4553 16.8193C26.8242 16.0534 26.8433 14.8536 27.4158 14.061C27.7466 13.6844 28.1588 13.3893 28.5927 13.1425C27.9158 12.514 27.4362 11.4885 27.8573 10.5878C28.0443 9.97963 28.6537 9.65266 29.2224 9.47581ZM28.6499 14.9249C28.5049 15.2989 28.6041 15.8524 29.0342 15.9834C29.6576 16.2226 30.4044 16.159 30.9756 15.8053C30.51 15.1895 29.9527 14.6437 29.4006 14.103C29.113 14.3333 28.7301 14.5318 28.6499 14.9249ZM24.9706 9.52798C25.5164 9.45546 26.0672 9.5038 26.6156 9.5038C26.6258 10.958 26.6156 12.4135 26.6219 13.8676C26.6143 14.8435 26.4451 15.8727 25.8153 16.6526C25.0304 17.5534 23.6652 17.6921 22.5711 17.3931C21.5342 17.1374 20.851 16.201 20.5037 15.2442C21.0177 15.0737 21.5329 14.8969 22.066 14.7926C22.3294 15.2455 22.5851 15.8435 23.1703 15.9274C23.608 15.9936 24.1067 15.9872 24.4718 15.7022C24.8662 15.2799 25.0062 14.6883 24.9884 14.1221C24.9795 12.5916 25.0075 11.0585 24.9706 9.52798ZM34.5685 9.50253C35.1079 9.48981 35.6473 9.49108 36.1868 9.49617C36.1944 10.6527 36.2071 11.8091 36.1677 12.9643C37.1206 11.8002 38.0405 10.6069 39.0468 9.48854C39.6651 9.50253 40.2835 9.47836 40.9018 9.50508C40.1588 10.4326 39.3674 11.3193 38.5964 12.2239C39.5315 13.9643 40.5583 15.6526 41.4832 17.3982C40.8585 17.3969 40.2351 17.4007 39.6104 17.3918C38.8496 16.1552 38.1893 14.8587 37.4336 13.6196C37.0392 14.1157 36.5685 14.5509 36.2097 15.0725C36.1486 15.8473 36.2351 16.6284 36.1702 17.4045C35.641 17.3918 35.113 17.3994 34.585 17.3956C34.5443 14.7659 34.5774 12.1336 34.5685 9.50253ZM44.8445 9.57505L44.9234 9.50253C45.8089 9.47581 46.6956 9.50508 47.5811 9.49235C48.1549 9.47454 48.7554 9.58905 49.2274 9.93255C49.8826 10.4402 50.0887 11.3957 49.7949 12.1539C49.632 12.5979 49.2096 12.8626 48.8292 13.1043C49.258 13.2837 49.7363 13.4796 49.9628 13.9185C50.5798 14.9618 50.2923 16.5572 49.1714 17.1386C48.6753 17.3549 48.1231 17.3994 47.5888 17.3982C46.6715 17.3943 45.7542 17.4007 44.8369 17.3943C44.8483 14.7875 44.833 12.1806 44.8445 9.57505ZM45.7491 10.327C45.7236 11.1361 45.7389 11.9465 45.7414 12.7557C46.5849 12.7163 47.4539 12.8651 48.2796 12.6526C48.9857 12.444 49.1829 11.5076 48.8839 10.902C48.6931 10.528 48.2554 10.3346 47.8483 10.3371C47.1486 10.318 46.4488 10.3435 45.7491 10.327ZM45.7453 13.561C45.7313 14.5712 45.7325 15.5827 45.744 16.5928C46.529 16.5992 47.3139 16.6055 48.0977 16.5903C48.6905 16.6017 49.2872 16.1246 49.3292 15.5165C49.3801 15.0241 49.3801 14.4592 49.0442 14.0598C48.6804 13.7404 48.1982 13.5509 47.7122 13.5572C47.057 13.5496 46.4005 13.5559 45.7453 13.561ZM51.3165 11.832C52.1409 11.3944 53.0989 11.2621 54.0187 11.4007C54.8063 11.5458 55.4717 12.2786 55.4195 13.1017C55.4017 14.5381 55.4577 15.9771 55.3928 17.4122C55.1345 17.4007 54.8763 17.3969 54.6193 17.3969C54.5849 17.187 54.5518 16.977 54.52 16.7684C53.9691 17.3142 53.1918 17.6157 52.4144 17.5178C51.6689 17.4987 51.0175 16.9478 50.8445 16.229C50.7338 15.6208 50.7618 14.9198 51.2172 14.4516C51.646 13.8982 52.3928 13.7748 53.0506 13.7684C53.5658 13.7442 54.062 13.8918 54.5595 14.0025C54.5391 13.4185 54.6701 12.6908 54.1231 12.2951C53.3572 11.7926 52.3724 12.131 51.6396 12.5356C51.5289 12.3015 51.4208 12.0674 51.3165 11.832ZM52.1345 14.617C51.3585 15.1246 51.5022 16.5432 52.4259 16.7938C53.1918 16.9949 54.0913 16.6412 54.5264 15.9796C54.5913 15.5534 54.548 15.1196 54.5378 14.6921C53.7681 14.4465 52.9055 14.3002 52.1345 14.617ZM57.3114 12.1768C57.7121 11.7201 58.2668 11.3269 58.903 11.3549C59.623 11.2824 60.361 11.6476 60.735 12.2684C60.9996 12.7532 61.0314 13.3206 61.0314 13.8613C61.0302 15.0407 61.0302 16.2188 61.0314 17.3982C60.763 17.3982 60.4945 17.3982 60.2261 17.3994C60.2134 16.1361 60.2439 14.8727 60.2121 13.6094C60.193 13.0216 59.9233 12.4071 59.3533 12.1666C59.0187 12.0814 58.6587 12.0814 58.3215 12.1514C57.7681 12.3689 57.3966 12.9007 57.3737 13.4936C57.2846 14.7913 57.3622 16.0966 57.3355 17.3969H56.4818C56.4437 15.43 56.4768 13.4618 56.464 11.4936C56.7566 11.4885 57.0505 11.486 57.3444 11.4898C57.3355 11.7188 57.3253 11.9478 57.3114 12.1768Z" fill="#1F1A16"/>
<path d="M10.2201 11.472C10.3142 11.2391 10.6043 11.2697 10.8091 11.248C11.4478 11.243 12.1272 11.1628 12.7188 11.4554C14.0089 11.9961 14.9122 13.1933 15.374 14.4809C13.6005 16.3549 11.9287 18.3218 10.1616 20.2022C9.64376 19.9032 9.25699 19.4388 8.79643 19.0661C7.11196 17.5266 5.39314 16.0254 3.71631 14.477C4.16923 13.8804 4.70867 13.3549 5.21376 12.8027C5.77228 13.3078 6.40841 13.7964 7.17558 13.9096C7.89059 13.9936 8.61577 13.9745 9.33205 13.9083C9.62213 13.0941 9.88676 12.2684 10.2201 11.472Z" fill="#68B92E"/>
<path d="M30.3618 22.4236C30.3618 22.538 30.3395 22.6452 30.2949 22.7455C30.2531 22.8459 30.1904 22.9324 30.1068 23.0048C30.0231 23.0773 29.9214 23.1345 29.8015 23.1763C29.6817 23.2181 29.5451 23.239 29.3919 23.239C29.1911 23.239 29.0057 23.2013 28.8356 23.126C28.6685 23.048 28.5263 22.9505 28.4092 22.8334L28.6267 22.5909C28.7382 22.6969 28.858 22.7818 28.9863 22.8459C29.1144 22.91 29.2538 22.9421 29.4043 22.9421C29.5994 22.9421 29.7527 22.8975 29.8643 22.8083C29.9786 22.7191 30.0358 22.5965 30.0358 22.4404C30.0358 22.3734 30.0246 22.3121 30.0023 22.2564C29.98 22.2006 29.941 22.1491 29.8853 22.1017C29.8322 22.0542 29.7611 22.0082 29.6719 21.9637C29.5828 21.9163 29.4713 21.8689 29.3374 21.8216C29.1786 21.7658 29.0448 21.71 28.936 21.6543C28.8301 21.5958 28.7437 21.5344 28.6769 21.4703C28.6127 21.4034 28.5653 21.3295 28.5346 21.2487C28.5067 21.1679 28.4928 21.0745 28.4928 20.9685C28.4928 20.8515 28.5151 20.747 28.5597 20.6549C28.6043 20.563 28.6656 20.485 28.7437 20.4208C28.8245 20.3539 28.9207 20.3037 29.0322 20.2703C29.1465 20.2368 29.2719 20.2201 29.4085 20.2201C29.6036 20.2201 29.7694 20.248 29.906 20.3038C30.0454 20.3595 30.1765 20.4361 30.2991 20.5337L30.0901 20.7888C29.9841 20.6995 29.8768 20.6327 29.7682 20.5881C29.6622 20.5406 29.5353 20.5169 29.3877 20.5169C29.2873 20.5169 29.2008 20.5295 29.1284 20.5547C29.0559 20.577 28.9959 20.6076 28.9486 20.6467C28.904 20.6857 28.8705 20.7316 28.8482 20.7846C28.8287 20.8348 28.819 20.8891 28.819 20.9477C28.819 21.009 28.8273 21.0648 28.844 21.115C28.8607 21.1623 28.8942 21.2097 28.9444 21.2571C28.9945 21.3017 29.0642 21.3463 29.1535 21.3909C29.2455 21.4355 29.3653 21.4842 29.513 21.5372C29.6747 21.5958 29.8099 21.6543 29.9186 21.7128C30.0273 21.7713 30.1138 21.8355 30.1779 21.9052C30.2448 21.9749 30.2922 22.0516 30.32 22.1352C30.3479 22.2187 30.3618 22.3149 30.3618 22.4236ZM32.6406 22.0306C32.6406 22.0696 32.6392 22.1017 32.6364 22.1268C32.6364 22.1519 32.6336 22.177 32.628 22.202H31.1646C31.1785 22.439 31.2385 22.6257 31.3444 22.7623C31.4503 22.8988 31.5939 22.9671 31.7751 22.9671C31.9033 22.9671 32.0106 22.949 32.0969 22.9128C32.1862 22.8766 32.281 22.825 32.3813 22.7581L32.5276 22.9839C32.4608 23.0257 32.398 23.0634 32.3394 23.0968C32.2809 23.1275 32.221 23.154 32.1597 23.1763C32.0983 23.1958 32.0343 23.2111 31.9674 23.2222C31.9004 23.2334 31.8252 23.239 31.7416 23.239C31.6413 23.239 31.5381 23.2195 31.4322 23.1805C31.3263 23.1415 31.2301 23.0773 31.1436 22.9881C31.06 22.8961 30.9903 22.7762 30.9346 22.6286C30.8789 22.4808 30.851 22.2996 30.851 22.0849C30.851 21.9094 30.8733 21.7519 30.9179 21.6124C30.9653 21.4731 31.0294 21.3546 31.1102 21.2571C31.191 21.1595 31.2858 21.0843 31.3945 21.0313C31.5061 20.9783 31.6274 20.9519 31.7584 20.9519C31.9005 20.9519 32.0259 20.9783 32.1346 21.0313C32.2461 21.0843 32.3395 21.1595 32.4148 21.2571C32.49 21.3518 32.5458 21.4661 32.5821 21.6C32.6211 21.7309 32.6406 21.8745 32.6406 22.0306ZM32.348 21.947C32.334 21.7324 32.2796 21.5581 32.1847 21.4244C32.09 21.2905 31.9464 21.2236 31.7541 21.2236C31.5896 21.2236 31.4545 21.2835 31.3486 21.4034C31.2455 21.5204 31.1841 21.7017 31.1645 21.947H32.348ZM34.3426 21.324C34.298 21.2989 34.2492 21.2794 34.1963 21.2655C34.1461 21.2487 34.0847 21.2403 34.0122 21.2403C33.8589 21.2403 33.7405 21.2988 33.6569 21.4159C33.576 21.533 33.5356 21.6961 33.5356 21.9052V23.193H33.222V20.9978H33.5356V21.2697C33.5857 21.1805 33.6596 21.1052 33.7572 21.0439C33.8548 20.9825 33.9621 20.9519 34.0791 20.9519C34.16 20.9519 34.2269 20.9574 34.2799 20.9685C34.3356 20.9769 34.383 20.9895 34.422 21.0062L34.3426 21.324ZM35.8029 23.193H35.5268L34.7408 20.9978H35.0754L35.6356 22.7246L35.6691 22.8292L35.7025 22.7246L36.2628 20.9978H36.5889L35.8029 23.193ZM37.5024 20.3832C37.5024 20.4445 37.4801 20.4975 37.4356 20.5422C37.3938 20.5839 37.3436 20.6048 37.2851 20.6048C37.221 20.6048 37.1666 20.5839 37.122 20.5421C37.0774 20.4975 37.0551 20.4445 37.0551 20.3832C37.0551 20.319 37.0774 20.2661 37.122 20.2243C37.1666 20.1797 37.221 20.1575 37.2851 20.1575C37.3436 20.1575 37.3938 20.1797 37.4356 20.2243C37.4802 20.2661 37.5025 20.3191 37.5025 20.3833L37.5024 20.3832ZM37.122 23.193V20.9978H37.4356V23.193H37.122ZM39.5301 23.193V21.9092C39.5301 21.6723 39.4869 21.4996 39.4006 21.3909C39.317 21.2794 39.1873 21.2236 39.0117 21.2236C38.8584 21.2236 38.7288 21.278 38.6229 21.3867C38.5197 21.4954 38.4682 21.6696 38.4682 21.9094V23.1931H38.1545V20.9978H38.4682V21.2655C38.5323 21.1735 38.6145 21.0982 38.7148 21.0397C38.8152 20.9811 38.935 20.9519 39.0744 20.9519C39.1914 20.9519 39.2974 20.97 39.3922 21.0062C39.4869 21.0396 39.5678 21.094 39.6347 21.1693C39.7016 21.2417 39.7532 21.3351 39.7894 21.4494C39.8256 21.5609 39.8437 21.6961 39.8437 21.855V23.193H39.5301ZM42.1661 22.9965C42.1661 23.161 42.1466 23.3045 42.1076 23.4272C42.0686 23.5498 42.0044 23.653 41.9152 23.7366C41.8287 23.8202 41.7144 23.8829 41.5723 23.9248C41.4302 23.9693 41.2574 23.9943 41.0539 23.9999L40.9534 23.7617C41.1374 23.7561 41.2866 23.7393 41.4008 23.7114C41.5179 23.6836 41.6099 23.6404 41.6769 23.5819C41.7438 23.5261 41.7897 23.4536 41.8148 23.3643C41.8399 23.2752 41.8525 23.1665 41.8525 23.0382V22.9254C41.7745 23.009 41.6824 23.0829 41.5764 23.147C41.4706 23.2083 41.3424 23.239 41.1918 23.239C41.0831 23.239 40.9799 23.2181 40.8824 23.1763C40.7877 23.1317 40.704 23.0648 40.6315 22.9755C40.5619 22.8864 40.5061 22.7721 40.4643 22.6326C40.4253 22.4905 40.4058 22.3233 40.4058 22.131C40.4058 21.9359 40.4267 21.7659 40.4685 21.6208C40.5131 21.4731 40.573 21.3504 40.6483 21.2529C40.7235 21.1525 40.8113 21.0773 40.9117 21.0271C41.012 20.9769 41.1193 20.9519 41.2335 20.9519C41.373 20.9519 41.4915 20.9783 41.589 21.0313C41.6865 21.0843 41.7743 21.1553 41.8524 21.2445V20.9978H42.1661V22.9965ZM41.8525 21.5539C41.7912 21.462 41.7089 21.3839 41.6057 21.3198C41.5054 21.2557 41.3898 21.2236 41.2587 21.2236C41.0747 21.2236 40.9381 21.3003 40.8491 21.4536C40.7598 21.6069 40.7152 21.8313 40.7152 22.1267C40.7152 22.4055 40.764 22.6159 40.8615 22.7581C40.9591 22.8975 41.0956 22.9673 41.2712 22.9673C41.3882 22.9673 41.4942 22.9393 41.589 22.8835C41.6865 22.825 41.7743 22.747 41.8524 22.6494L41.8525 21.5539ZM44.9899 20.5629V23.193H44.6638V20.5629H43.8025V20.2661H45.8512V20.5629H44.9899ZM47.7676 22.0807C47.7676 22.2675 47.7425 22.4334 47.6923 22.5783C47.6422 22.7205 47.5739 22.8418 47.4874 22.9422C47.401 23.0397 47.2992 23.1136 47.1821 23.1637C47.0651 23.2139 46.9397 23.239 46.8059 23.239C46.6721 23.239 46.5467 23.2153 46.4296 23.1679C46.3153 23.1178 46.2164 23.0453 46.1328 22.9505C46.0491 22.8529 45.9822 22.7331 45.932 22.5909C45.8847 22.4488 45.861 22.2843 45.861 22.0975C45.861 21.9108 45.8861 21.7463 45.9362 21.6042C45.9864 21.462 46.0547 21.3435 46.141 21.2487C46.2275 21.1511 46.3293 21.0773 46.4464 21.0271C46.5634 20.9769 46.6889 20.9519 46.8227 20.9519C46.9565 20.9519 47.0805 20.9756 47.1947 21.023C47.3118 21.0703 47.4121 21.1414 47.4958 21.2362C47.5795 21.331 47.645 21.4494 47.6923 21.5916C47.7425 21.7309 47.7676 21.894 47.7676 22.0807ZM47.454 22.0891C47.454 21.7992 47.3955 21.5832 47.2784 21.4411C47.1614 21.2961 47.0067 21.2236 46.8143 21.2236C46.6219 21.2236 46.4672 21.2961 46.3502 21.4411C46.2358 21.5832 46.1787 21.7992 46.1787 22.0891C46.1787 22.379 46.2358 22.5979 46.3502 22.7456C46.4672 22.8934 46.6219 22.9673 46.8143 22.9673C47.0066 22.9673 47.1613 22.8934 47.2784 22.7456C47.3955 22.5979 47.454 22.379 47.454 22.0891ZM49.47 23.193V20.2661H51.2387V20.5629H49.7962V21.4828H50.6325V21.7797H49.7962V22.8961H51.3014V23.193H49.47ZM54.4411 23.193V21.9092C54.4411 21.6584 54.4021 21.4815 54.3241 21.3783C54.246 21.2752 54.1275 21.2236 53.9686 21.2236C53.8208 21.2236 53.7024 21.278 53.6132 21.3867C53.524 21.4927 53.4794 21.6669 53.4794 21.9094V23.1931H53.1658V21.9094C53.1658 21.6585 53.1254 21.4815 53.0445 21.3783C52.9637 21.2752 52.8467 21.2236 52.6934 21.2236C52.5429 21.2236 52.423 21.278 52.3337 21.3867C52.2473 21.4927 52.2041 21.6669 52.2041 21.9094V23.1931H51.8906V20.9978H52.2041V21.2655C52.2599 21.1707 52.3338 21.0954 52.4257 21.0397C52.5177 20.9811 52.6293 20.9519 52.7603 20.9519C52.9164 20.9519 53.0418 20.9881 53.1365 21.0605C53.2341 21.133 53.3093 21.2223 53.3624 21.3282C53.3958 21.2752 53.432 21.2264 53.471 21.1819C53.51 21.1344 53.556 21.0939 53.609 21.0605C53.662 21.0271 53.7219 21.0006 53.7888 20.9811C53.8585 20.9616 53.938 20.9519 54.0271 20.9519C54.2502 20.9519 54.4272 21.0229 54.5582 21.1651C54.6892 21.3045 54.7547 21.5344 54.7547 21.855V23.193H54.4411ZM57.195 22.0599C57.195 22.255 57.1728 22.4264 57.1282 22.5741C57.0864 22.7192 57.0279 22.8418 56.9527 22.9421C56.8773 23.0396 56.7895 23.1135 56.6892 23.1637C56.5888 23.2139 56.4816 23.239 56.3673 23.239C56.2279 23.239 56.1094 23.2125 56.0118 23.1595C55.9143 23.1066 55.8265 23.0355 55.7485 22.9463V23.8244L55.4347 23.9999V20.9978H55.7483V21.2655C55.8264 21.1819 55.9184 21.1093 56.0244 21.0479C56.1303 20.9839 56.2585 20.9519 56.409 20.9519C56.5178 20.9519 56.6195 20.9742 56.7144 21.0188C56.8119 21.0606 56.8955 21.1261 56.965 21.2152C57.0375 21.3045 57.0933 21.4201 57.1324 21.5623C57.1742 21.7017 57.195 21.8676 57.195 22.0599ZM56.8857 22.0641C56.8857 21.7853 56.837 21.5762 56.7394 21.4369C56.6418 21.2947 56.5052 21.2236 56.3296 21.2236C56.2126 21.2236 56.1053 21.2529 56.0076 21.3114C55.9129 21.3671 55.8265 21.4438 55.7483 21.5414V22.6368C55.8097 22.7289 55.8905 22.8069 55.9908 22.8709C56.094 22.9351 56.2111 22.9673 56.3421 22.9673C56.5262 22.9673 56.6627 22.8906 56.7518 22.7372C56.8411 22.5839 56.8857 22.3595 56.8857 22.0641ZM59.56 22.0807C59.56 22.2675 59.5349 22.4334 59.4847 22.5783C59.4345 22.7205 59.3662 22.8418 59.2799 22.9422C59.1934 23.0397 59.0916 23.1136 58.9745 23.1637C58.8575 23.2139 58.7321 23.239 58.5983 23.239C58.4645 23.239 58.339 23.2153 58.222 23.1679C58.1077 23.1178 58.0087 23.0453 57.9251 22.9505C57.8415 22.8529 57.7746 22.7331 57.7244 22.5909C57.677 22.4488 57.6533 22.2843 57.6533 22.0975C57.6533 21.9108 57.6784 21.7463 57.7286 21.6042C57.7787 21.462 57.847 21.3435 57.9335 21.2487C58.0199 21.1511 58.1217 21.0773 58.2388 21.0271C58.3558 20.9769 58.4812 20.9519 58.615 20.9519C58.7488 20.9519 58.8729 20.9756 58.9871 21.023C59.1042 21.0703 59.2045 21.1414 59.2881 21.2362C59.3718 21.331 59.4373 21.4494 59.4847 21.5916C59.5349 21.7309 59.56 21.894 59.56 22.0807ZM59.2464 22.0891C59.2464 21.7992 59.1879 21.5832 59.0709 21.4411C58.9538 21.2961 58.7991 21.2236 58.6066 21.2236C58.4143 21.2236 58.2596 21.2961 58.1425 21.4411C58.0282 21.5832 57.9711 21.7992 57.9711 22.0891C57.9711 22.379 58.0282 22.5979 58.1425 22.7456C58.2595 22.8934 58.4142 22.9673 58.6066 22.9673C58.799 22.9673 58.9537 22.8934 59.0707 22.7456C59.1878 22.5979 59.2464 22.379 59.2464 22.0891ZM61.9927 23.193H61.7042L61.307 21.7212C61.3015 21.7017 61.2945 21.6794 61.2861 21.6543L61.2694 21.5707C61.2638 21.54 61.2582 21.5107 61.2526 21.4829C61.247 21.455 61.2428 21.4313 61.24 21.4117C61.2373 21.4313 61.2332 21.455 61.2276 21.4829C61.222 21.5107 61.215 21.54 61.2067 21.5707L61.1899 21.6543C61.1843 21.6794 61.1788 21.7017 61.1733 21.7212L60.7761 23.193H60.4959L59.9146 20.9978H60.2366L60.5795 22.4487C60.5823 22.4682 60.5864 22.4919 60.592 22.5198C60.5976 22.5449 60.6032 22.5728 60.6088 22.6034C60.6171 22.6313 60.6227 22.6592 60.6254 22.6871C60.631 22.7149 60.6366 22.7386 60.6422 22.7581C60.645 22.7386 60.6492 22.7149 60.6547 22.6871C60.6631 22.6592 60.6701 22.6313 60.6757 22.6034C60.6813 22.5728 60.6868 22.5449 60.6923 22.5198C60.7007 22.4919 60.7077 22.4682 60.7133 22.4487L61.1063 20.9978H61.3907L61.7837 22.4487C61.7893 22.4682 61.7948 22.4919 61.8004 22.5198C61.8087 22.5449 61.8157 22.5728 61.8213 22.6034L61.838 22.6871C61.8436 22.7149 61.8492 22.7386 61.8548 22.7581C61.8576 22.7386 61.8618 22.7149 61.8673 22.6871L61.8841 22.6034C61.8924 22.5728 61.8979 22.5449 61.9007 22.5198C61.9063 22.4919 61.9119 22.4682 61.9175 22.4487L62.2603 20.9978H62.5739L61.9927 23.193ZM64.7185 22.0306C64.7185 22.0696 64.7171 22.1017 64.7142 22.1268C64.7142 22.1519 64.7114 22.177 64.7059 22.202H63.2425C63.2564 22.439 63.3163 22.6257 63.4222 22.7623C63.5282 22.8988 63.6718 22.9671 63.8529 22.9671C63.9811 22.9671 64.0884 22.949 64.1748 22.9128C64.2641 22.8766 64.3589 22.825 64.4592 22.7581L64.6056 22.9839C64.5386 23.0257 64.4759 23.0634 64.4174 23.0968C64.3589 23.1275 64.2989 23.154 64.2376 23.1763C64.1763 23.1958 64.1122 23.2111 64.0452 23.2222C63.9783 23.2334 63.9031 23.239 63.8194 23.239C63.7191 23.239 63.6159 23.2195 63.51 23.1805C63.4042 23.1415 63.308 23.0773 63.2216 22.9881C63.138 22.8961 63.0683 22.7762 63.0126 22.6286C62.9567 22.4808 62.9288 22.2996 62.9288 22.0849C62.9288 21.9094 62.9511 21.7519 62.9958 21.6124C63.0432 21.4731 63.1073 21.3546 63.1881 21.2571C63.269 21.1595 63.3637 21.0843 63.4725 21.0313C63.5839 20.9783 63.7052 20.9519 63.8362 20.9519C63.9784 20.9519 64.1038 20.9783 64.2126 21.0313C64.324 21.0843 64.4174 21.1595 64.4927 21.2571C64.5679 21.3518 64.6237 21.4661 64.6599 21.6C64.6989 21.7309 64.7184 21.8745 64.7184 22.0306H64.7185ZM64.4258 21.947C64.4118 21.7324 64.3574 21.5581 64.2627 21.4244C64.1679 21.2905 64.0244 21.2236 63.832 21.2236C63.6676 21.2236 63.5324 21.2835 63.4264 21.4034C63.3233 21.5204 63.262 21.7017 63.2425 21.947H64.4258ZM66.4204 21.324C66.3758 21.2989 66.327 21.2794 66.2741 21.2655C66.2239 21.2487 66.1626 21.2403 66.0902 21.2403C65.9368 21.2403 65.8183 21.2988 65.7347 21.4159C65.6539 21.533 65.6134 21.6961 65.6134 21.9052V23.193H65.3V20.9978H65.6134V21.2697C65.6636 21.1805 65.7375 21.1052 65.8351 21.0439C65.9326 20.9825 66.0399 20.9519 66.1569 20.9519C66.2379 20.9519 66.3048 20.9574 66.3577 20.9685C66.4135 20.9769 66.4609 20.9895 66.4999 21.0062L66.4204 21.324Z" fill="black"/>
</g>
<defs>
<clipPath id="clip0_45_4261">
<rect width="66.4999" height="24" fill="white"/>
</clipPath>
</defs>
</svg>
