<svg width="170" height="24" viewBox="0 0 170 24" fill="none" xmlns="http://www.w3.org/2000/svg">
<g clip-path="url(#clip0_45_4269)">
<path d="M37.5257 13.5429C37.5257 14.6017 37.314 15.3781 36.7493 15.8723C36.1846 16.437 35.4787 16.7193 34.4198 16.7193C33.7846 16.7193 33.2198 16.5781 32.7257 16.3664C32.3022 16.1546 31.8787 15.7311 31.6669 15.3781C31.4551 14.9546 31.314 14.4605 31.314 13.8252V13.6134H33.2198C33.2198 14.037 33.2904 14.4605 33.5022 14.6723C33.6434 14.884 33.9257 14.9546 34.3493 14.9546C34.6316 14.9546 34.914 14.884 35.0551 14.7429C35.1963 14.6017 35.2669 14.4605 35.3375 14.3193C35.4081 14.1076 35.4081 13.8958 35.4081 13.6134V7.2605H37.5257V13.5429Z" fill="#0B509D"/>
<path d="M40.7728 7.96643C40.7022 8.1076 40.561 8.24878 40.4199 8.31937C40.2787 8.38995 40.0669 8.46054 39.7846 8.46054C39.5022 8.46054 39.4316 8.38995 39.1493 8.31937C39.0081 8.24878 38.8669 8.1076 38.7963 7.96643C38.7257 7.82525 38.6552 7.61348 38.6552 7.40172C38.6552 7.18995 38.7257 7.04878 38.7963 6.83701C38.8669 6.69584 39.0081 6.55466 39.1493 6.48407C39.361 6.41348 39.5728 6.3429 39.7846 6.3429C39.9963 6.3429 40.1375 6.41348 40.4199 6.48407C40.561 6.55466 40.7022 6.69584 40.7728 6.83701C40.8434 6.97819 40.914 7.18995 40.914 7.40172C40.914 7.68407 40.8434 7.82525 40.7728 7.96643ZM40.7728 9.51937V16.437H38.8669V9.51937H40.7728Z" fill="#0B509D"/>
<path d="M48.2552 14.8841C47.9728 15.4488 47.5493 15.8723 47.0552 16.1546C46.4905 16.437 45.9258 16.5782 45.2199 16.5782C44.514 16.5782 43.9493 16.437 43.3846 16.1546C42.8199 15.8723 42.4669 15.3782 42.1846 14.8841C41.9022 14.3194 41.761 13.6841 41.761 12.9782C41.761 12.2017 41.9022 11.637 42.1846 11.0723C42.4669 10.5076 42.8905 10.0841 43.3846 9.8017C43.9493 9.51935 44.514 9.37817 45.2199 9.37817C45.9258 9.37817 46.4905 9.51935 47.0552 9.8017C47.6199 10.0841 47.9728 10.5782 48.2552 11.0723C48.5375 11.637 48.6787 12.2723 48.6787 12.9782C48.6787 13.6841 48.5375 14.3899 48.2552 14.8841ZM46.4199 14.6017C46.7022 14.2488 46.7728 13.6841 46.7728 12.9782C46.7728 12.3429 46.6316 11.8488 46.4199 11.3546C46.2081 11.0017 45.714 10.7194 45.2199 10.7194C44.6552 10.7194 44.3022 10.9311 44.0905 11.3546C43.8081 11.7076 43.7375 12.2723 43.7375 13.0488C43.7375 13.7546 43.8787 14.2488 44.0905 14.6723C44.3728 15.0252 44.7963 15.3076 45.2905 15.3076C45.7846 15.3076 46.1375 14.9546 46.4199 14.6017Z" fill="#0B509D"/>
<path d="M58.4905 7.47233C58.9141 7.68409 59.3376 8.10762 59.5494 8.53115C59.7611 8.95468 59.9023 9.51938 59.9023 10.0841C59.9023 10.7194 59.7611 11.1429 59.5494 11.637C59.3376 12.0606 58.9141 12.4841 58.4905 12.6959C58.067 12.9076 57.4317 13.0488 56.7258 13.0488H54.6082V16.2959H52.4905V7.11938H56.7964C57.4317 7.11938 57.9964 7.26056 58.4905 7.47233ZM57.5023 11.1429C57.7847 10.9311 57.9258 10.5782 57.9258 10.0841C57.9258 9.66056 57.7847 9.30762 57.5729 9.09585C57.2905 8.88409 56.867 8.8135 56.3023 8.8135H54.6788V11.4959H56.3023C56.7258 11.4959 57.1494 11.4253 57.5023 11.1429Z" fill="#0B509D"/>
<path d="M64.4905 11.8487C64.4905 11.4252 64.4199 11.0722 64.2788 10.8605C64.1376 10.6487 63.8552 10.5781 63.3611 10.5781C63.0082 10.5781 62.6552 10.6487 62.514 10.7899C62.3023 10.9311 62.2317 11.1428 62.1611 11.4252H60.2552C60.2552 10.7193 60.5376 10.2252 61.1729 9.80164C61.7376 9.4487 62.514 9.23694 63.4317 9.23694C64.4905 9.23694 65.1964 9.4487 65.6905 9.94282C66.114 10.3664 66.3964 11.0722 66.3964 11.9899V16.4369H64.6317L64.5611 15.5193C64.4199 15.8016 64.2082 16.1546 63.7846 16.2958C63.4317 16.5075 62.9376 16.5781 62.4435 16.5781C62.0199 16.5781 61.5258 16.5075 61.1729 16.3664C60.8199 16.2252 60.5376 15.9428 60.3258 15.5899C60.114 15.3075 60.0435 14.8134 60.0435 14.3899C60.0435 13.6134 60.3258 13.0487 60.9611 12.6252C61.5964 12.2722 62.4435 12.0605 63.5729 12.0605H64.5611V11.8487H64.4905ZM63.714 13.3311C63.0788 13.3311 62.6552 13.4016 62.3729 13.5428C62.0905 13.684 61.9493 13.8958 61.9493 14.3193C61.9493 14.6016 62.0199 14.884 62.2317 15.0252C62.4435 15.1663 62.6552 15.2369 63.0082 15.2369C63.3611 15.2369 63.5729 15.1663 63.7846 15.0958C63.9964 14.9546 64.1376 14.8134 64.3493 14.5311C64.4905 14.3193 64.4905 14.1075 64.4905 13.684V13.2605H63.7846V13.3311H63.714Z" fill="#0B509D"/>
<path d="M70.2788 14.2488L71.7611 9.51941H73.7376L71.4082 16.2253C71.1258 17.0018 70.7729 17.5665 70.42 18.0606C70.067 18.4135 69.5729 18.7665 69.1494 18.9076C68.7258 19.0488 68.1611 19.1194 67.5964 19.1194V17.4959C68.02 17.4959 68.4435 17.4253 68.7258 17.2841C69.0082 17.1429 69.2905 16.9312 69.3611 16.5076L66.8199 9.59H68.7964L70.2788 14.2488Z" fill="#0B509D"/>
<path d="M80.867 9.58997C81.2199 9.37821 81.6434 9.30762 82.067 9.30762C82.8434 9.30762 83.4081 9.51938 83.8317 10.0135C84.1846 10.437 84.467 11.0723 84.467 11.8488V16.5076H82.5611V12.6959C82.5611 12.0606 82.4905 11.5664 82.2787 11.3547C82.1375 11.0723 81.8552 11.0017 81.4317 11.0017C81.0081 11.0017 80.7258 11.1429 80.514 11.4253C80.3022 11.7076 80.2317 12.2017 80.2317 12.7664V16.5782H78.3258V12.6959C78.3258 12.0606 78.2552 11.5664 78.0434 11.3547C77.9022 11.0723 77.6199 11.0017 77.1964 11.0017C76.7728 11.0017 76.4905 11.1429 76.2787 11.4253C76.067 11.7076 75.9964 12.2017 75.9964 12.7664V16.5782H74.1611V9.66056H75.9964V10.437C76.5611 9.66056 77.1964 9.30762 78.0434 9.30762C78.467 9.30762 78.9611 9.37821 79.2434 9.58997C79.5258 9.80174 79.8787 10.0135 80.0199 10.437C80.2317 10.0841 80.514 9.80174 80.867 9.58997Z" fill="#0B509D"/>
<path d="M92.0905 13.4723H87.2199C87.2199 14.1076 87.3611 14.5311 87.6434 14.7428C87.9258 15.0252 88.3493 15.1664 88.8434 15.1664C89.1963 15.1664 89.5493 15.0958 89.7611 14.9546C89.9728 14.8134 90.114 14.6723 90.1846 14.3899H91.8787C91.7375 15.0958 91.314 15.6605 90.8199 16.084C90.2552 16.437 89.6199 16.6487 88.7728 16.6487C88.0669 16.6487 87.4316 16.5076 86.8669 16.2252C86.3022 15.9428 85.9493 15.4487 85.6669 14.9546C85.3846 14.4605 85.2434 13.7546 85.2434 13.0487C85.2434 12.3428 85.3846 11.7781 85.6669 11.1428C85.9493 10.5781 86.3728 10.1546 86.8669 9.87226C87.4316 9.58991 87.9963 9.44873 88.7022 9.44873C89.4081 9.44873 89.9728 9.58991 90.5375 9.87226C91.1022 10.1546 91.3846 10.6487 91.6669 11.2134C91.8787 11.8487 92.0199 12.4134 92.0199 13.1899L92.0905 13.4723ZM90.1846 12.2017C90.114 11.2134 89.5493 10.7193 88.7022 10.7193C88.2787 10.7193 87.9258 10.8605 87.6434 11.0723C87.4316 11.284 87.2199 11.7076 87.2199 12.1311H90.1846V12.2017Z" fill="#0B509D"/>
<path d="M99.2905 16.437H97.3846V12.6252C97.3846 11.9899 97.3141 11.4958 97.1023 11.284C96.8905 11.0017 96.5376 10.9311 96.1846 10.9311C95.7611 10.9311 95.4082 11.0723 95.1964 11.3546C94.9846 11.637 94.9141 12.1311 94.9141 12.6958V16.5076H93.0082V9.58991H94.8435V10.5781C95.0552 10.2252 95.4082 9.94285 95.7611 9.73108C96.1141 9.51932 96.5376 9.44873 96.8905 9.44873C97.7376 9.44873 98.3729 9.6605 98.7964 10.1546C99.1494 10.5781 99.4317 11.284 99.4317 12.2723V16.437H99.2905Z" fill="#0B509D"/>
<path d="M102.82 9.51941H104.161V10.79H102.82V13.8253C102.82 14.1076 102.82 14.4606 102.891 14.6018C102.961 14.7429 103.032 14.8841 103.173 14.9547C103.314 15.0253 103.455 15.0253 103.738 15.0253C103.879 15.0253 104.091 15.0253 104.302 14.9547V16.4371C104.091 16.5076 103.738 16.5782 103.385 16.5782C102.608 16.5782 102.043 16.3665 101.62 15.9429C101.267 15.59 100.985 14.9547 100.985 14.0371V10.6488H99.8552V9.37824H100.985V7.33118H102.891V9.44882H102.82V9.51941Z" fill="#0B509D"/>
<path d="M108.749 11.3546C108.749 11.0723 108.608 10.9311 108.467 10.7193C108.255 10.5781 108.043 10.5781 107.62 10.5781C107.267 10.5781 106.985 10.6487 106.843 10.7193C106.702 10.7899 106.632 11.0017 106.632 11.1429C106.632 11.284 106.702 11.4252 106.773 11.4958C106.843 11.5664 106.985 11.7076 107.196 11.7076C107.408 11.7781 107.62 11.8487 107.973 11.9193L108.749 12.0605C109.455 12.2017 109.949 12.4134 110.373 12.837C110.655 13.1193 110.938 13.6134 110.938 14.1076C110.938 14.6723 110.796 15.0958 110.514 15.3781C110.232 15.7311 109.808 16.0134 109.385 16.1546C108.961 16.2958 108.396 16.3664 107.761 16.3664C107.126 16.3664 106.632 16.2958 106.067 16.1546C105.643 16.0134 105.22 15.7311 104.938 15.3781C104.655 15.0958 104.585 14.6017 104.585 14.1781H106.42C106.42 14.4605 106.561 14.7429 106.773 14.9546C106.985 15.0958 107.408 15.1664 107.761 15.1664C108.043 15.1664 108.396 15.0958 108.608 14.9546C108.82 14.8134 108.89 14.6723 108.89 14.3193C108.89 14.1076 108.82 13.8958 108.608 13.684C108.396 13.5429 108.043 13.4017 107.62 13.3311L106.843 13.1899C106.279 13.0487 105.926 12.9781 105.643 12.7664C105.361 12.6252 105.079 12.4134 104.938 12.1311C104.796 11.8487 104.726 11.5664 104.726 11.2134C104.726 10.7899 104.867 10.3664 105.079 10.084C105.29 9.80168 105.714 9.51932 106.138 9.37815C106.561 9.23697 107.126 9.16638 107.761 9.16638C108.679 9.16638 109.385 9.30756 109.879 9.73109C110.443 10.084 110.655 10.5781 110.726 11.284H108.749V11.3546Z" fill="#0B509D"/>
<path d="M121.738 9.4488C121.738 9.87233 121.667 10.2959 121.455 10.5782C121.243 10.8606 120.89 11.2135 120.538 11.3547C121.102 11.4959 121.526 11.7782 121.808 12.2017C122.09 12.5547 122.232 13.1194 122.232 13.7547C122.232 14.39 122.09 14.8135 121.808 15.3076C121.526 15.6606 121.102 16.0135 120.608 16.2253C120.043 16.437 119.549 16.5076 118.985 16.5076H114.396V7.11938H118.914C120.82 7.11938 121.738 7.89585 121.738 9.4488ZM119.408 10.6488C119.62 10.5076 119.69 10.2253 119.69 9.80174C119.69 9.09585 119.267 8.8135 118.349 8.8135H116.443V10.9311H118.49C118.914 10.9311 119.267 10.79 119.408 10.6488ZM119.761 14.5311C119.973 14.3194 120.114 14.1076 120.114 13.6135C120.114 13.19 119.973 12.837 119.761 12.6253C119.549 12.4135 119.126 12.3429 118.702 12.3429H116.514V14.8135H118.632C119.126 14.8135 119.479 14.6723 119.761 14.5311Z" fill="#0B509D"/>
<path d="M127.314 11.8487C127.314 11.4252 127.243 11.0722 127.102 10.8605C126.961 10.6487 126.679 10.5781 126.185 10.5781C125.832 10.5781 125.479 10.6487 125.338 10.7899C125.126 10.9311 125.055 11.1428 124.985 11.4252H123.079C123.079 10.7193 123.361 10.2252 123.996 9.80164C124.561 9.4487 125.338 9.23694 126.255 9.23694C127.314 9.23694 128.02 9.4487 128.514 9.94282C128.938 10.3664 129.22 11.0722 129.22 11.9899V16.4369H127.455L127.385 15.5193C127.243 15.8016 127.032 16.1546 126.608 16.2958C126.255 16.5075 125.761 16.5781 125.267 16.5781C124.843 16.5781 124.349 16.5075 123.996 16.3664C123.643 16.2252 123.361 15.9428 123.149 15.5899C122.938 15.3075 122.867 14.8134 122.867 14.3899C122.867 13.6134 123.149 13.0487 123.785 12.6252C124.42 12.2722 125.267 12.0605 126.396 12.0605H127.455V11.8487H127.314ZM126.538 13.3311C125.902 13.3311 125.479 13.4016 125.196 13.5428C124.914 13.684 124.773 13.8958 124.773 14.3193C124.773 14.6016 124.843 14.884 125.055 15.0252C125.267 15.1663 125.479 15.2369 125.832 15.2369C126.114 15.2369 126.396 15.1663 126.608 15.0958C126.82 14.9546 126.961 14.8134 127.173 14.5311C127.314 14.3193 127.314 14.1075 127.314 13.684V13.2605H126.608V13.3311H126.538Z" fill="#0B509D"/>
<path d="M136.773 16.437H134.867V12.6252C134.867 11.9899 134.796 11.4958 134.585 11.284C134.373 11.0017 134.02 10.9311 133.667 10.9311C133.243 10.9311 132.89 11.0723 132.679 11.3546C132.467 11.637 132.396 12.1311 132.396 12.6958V16.5076H130.49V9.58991H132.326V10.5781C132.538 10.2252 132.89 9.94285 133.243 9.73108C133.596 9.51932 134.02 9.44873 134.373 9.44873C135.22 9.44873 135.855 9.6605 136.279 10.1546C136.632 10.5781 136.914 11.284 136.914 12.2723V16.437H136.773Z" fill="#0B509D"/>
<path d="M139.949 11.99L142.208 9.4488H144.396L141.502 12.4135C141.714 12.4841 142.067 12.5547 142.279 12.7664C142.491 12.9782 142.843 13.4017 143.196 13.8959C143.549 14.4606 144.114 15.237 144.749 16.3664H142.491C142.067 15.4488 141.643 14.8135 141.432 14.5312C141.22 14.2488 141.079 13.9664 140.867 13.8253C140.726 13.6841 140.585 13.6135 140.302 13.6135L139.879 14.037V16.2959H137.973V6.83704H139.879V11.99H139.949Z" fill="#0B509D"/>
<path d="M150.043 7.11938V14.6723H154.561V16.5076H147.926V7.11938H150.043Z" fill="#0B509D"/>
<path d="M157.667 9.51941H159.008V10.79H157.667V13.8253C157.667 14.1076 157.667 14.4606 157.738 14.6018C157.808 14.7429 157.879 14.8841 158.02 14.9547C158.161 15.0253 158.302 15.0253 158.585 15.0253C158.726 15.0253 158.938 15.0253 159.149 14.9547V16.4371C158.938 16.5076 158.585 16.5782 158.232 16.5782C157.455 16.5782 156.891 16.3665 156.467 15.9429C156.114 15.59 155.832 14.9547 155.832 14.0371V10.6488H154.702V9.37824H155.832V7.33118H157.738V9.44882H157.667V9.51941Z" fill="#0B509D"/>
<path d="M166.208 16.437H164.373V15.5194C164.161 15.8723 163.949 16.1547 163.526 16.3664C163.173 16.5076 162.749 16.6488 162.326 16.6488C161.691 16.6488 161.126 16.5076 160.632 16.0841C160.208 15.8017 159.855 15.3076 159.643 14.7429C159.432 14.1782 159.291 13.5429 159.291 12.837C159.291 12.1312 159.432 11.5664 159.643 11.0017C159.855 10.437 160.279 10.0135 160.632 9.73115C161.055 9.4488 161.62 9.30762 162.255 9.30762C162.608 9.30762 163.032 9.37821 163.385 9.58998C163.738 9.73115 164.02 10.0135 164.232 10.3664V6.83704H166.138V16.437H166.208ZM164.02 14.6017C164.232 14.2488 164.373 13.6841 164.373 12.9076C164.373 12.2017 164.232 11.7076 164.02 11.2841C163.808 10.9312 163.314 10.6488 162.82 10.6488C162.255 10.6488 161.902 10.8606 161.691 11.2841C161.408 11.637 161.338 12.2017 161.338 12.9076C161.338 13.2606 161.408 13.6841 161.479 13.9664C161.549 14.2488 161.761 14.6017 162.043 14.8135C162.255 15.0253 162.608 15.0959 162.961 15.0959C163.314 15.237 163.738 14.9547 164.02 14.6017Z" fill="#0B509D"/>
<path d="M169.102 14.3194C169.243 14.39 169.385 14.5311 169.526 14.7429C169.596 14.8841 169.667 15.0959 169.667 15.3782C169.667 15.59 169.596 15.8017 169.526 16.0135C169.455 16.1547 169.314 16.2959 169.102 16.437C168.961 16.5076 168.749 16.5782 168.467 16.5782C168.255 16.5782 168.043 16.5076 167.832 16.437C167.69 16.3664 167.549 16.2253 167.408 16.0135C167.338 15.8723 167.267 15.6606 167.267 15.3782C167.267 15.1664 167.338 14.9547 167.408 14.7429C167.479 14.6017 167.62 14.4606 167.832 14.3194C167.973 14.2488 168.185 14.1782 168.467 14.1782C168.749 14.1076 168.891 14.1076 169.102 14.3194Z" fill="#0B509D"/>
<path d="M24.6787 12.3429C24.6787 18.9782 19.314 24.3429 12.6787 24.3429C6.04342 24.3429 0.678711 18.9782 0.678711 12.3429C0.678711 5.7076 6.04342 0.342896 12.6787 0.342896C19.314 0.342896 24.6787 5.7076 24.6787 12.3429Z" fill="#0B509D"/>
<path d="M20.4434 11.9194V7.11937C20.4434 6.20172 19.8081 5.42525 18.961 5.28407L17.2669 5.00172C14.7963 4.78995 10.7022 4.78995 8.23161 5.00172L6.39631 5.21348C5.47867 5.42525 4.91396 6.20172 4.91396 7.11937V11.9194C4.91396 11.9194 4.63161 17.0723 11.5493 20.8841C12.2551 21.3076 13.1022 21.3076 13.8081 20.8841C14.3022 20.6017 14.7963 20.3194 15.1493 19.9664L9.71396 14.8135C9.43161 14.6017 9.36102 14.1782 9.5022 13.8958C9.64337 13.5429 9.92573 13.3311 10.2787 13.3311H11.4081C12.2551 13.3311 12.8904 12.837 13.2434 12.1311H9.29043C8.79631 12.1311 8.44337 11.7782 8.44337 11.2841C8.44337 10.79 8.79631 10.437 9.29043 10.437H13.2434C12.8904 9.73113 12.1845 9.23701 11.4081 9.23701H9.29043C8.79631 9.23701 8.44337 8.88407 8.44337 8.38995C8.44337 7.89584 8.79631 7.5429 9.29043 7.5429H11.4081H15.7845C16.2787 7.5429 16.6316 7.89584 16.6316 8.38995C16.6316 8.88407 16.2787 9.23701 15.7845 9.23701H14.4434C14.7257 9.58995 14.8669 10.0135 15.0081 10.437H15.7845C16.2787 10.437 16.6316 10.79 16.6316 11.2841C16.6316 11.7782 16.2787 12.1311 15.7845 12.1311H14.9375C14.5846 13.4723 13.5963 14.5311 12.1845 14.8841L16.4198 18.9076C20.6551 15.59 20.4434 11.9194 20.4434 11.9194Z" fill="white"/>
</g>
<defs>
<clipPath id="clip0_45_4269">
<rect width="170" height="24" fill="white"/>
</clipPath>
</defs>
</svg>
