<svg width="130" height="24" viewBox="0 0 130 24" fill="none" xmlns="http://www.w3.org/2000/svg">
<path d="M113.647 0C113.143 0 112.84 0.403361 112.84 0.806723V6.75631H128.571L121.412 0H113.647Z" fill="#126BC5"/>
<path d="M129.076 8.57137C129.076 8.06717 128.672 7.76465 128.269 7.76465H122.319V23.4957L129.076 16.3361V8.57137Z" fill="#126BC5"/>
<path d="M120.504 24C121.008 24 121.311 23.5966 121.311 23.1932V17.2437H105.58L112.74 24H120.504Z" fill="#126BC5"/>
<path d="M105.076 15.4285C105.076 15.9327 105.479 16.2352 105.882 16.2352H111.832V0.60498L105.076 7.76465V15.4285Z" fill="#126BC5"/>
<path d="M33.1765 2.82349V10.084H23.0924V2.82349H19.4622V21.1764H23.0924V13.3109H33.1765V21.1764H36.9075V2.82349H33.1765Z" fill="black"/>
<path d="M82.084 2.82349V21.0756H98.2185L96.2017 17.9495H85.8151V13.3109H95.7983V10.1848H85.8151V6.05038H96.1009L98.1177 2.82349H82.084Z" fill="black"/>
<path d="M5.7479 2.82349C1.91597 2.82349 0 5.14282 0 8.57139V15.4285C0 19.3613 2.52101 21.1764 5.7479 21.1764H17.2437L15.1261 17.7479H6.45378C4.63866 17.7479 3.83193 17.042 3.83193 15.0252V8.87391C3.83193 6.8571 4.53782 6.05038 6.55462 6.05038H15.2269L17.2437 2.82349H5.7479Z" fill="black"/>
<path d="M65.9496 2.82349C63.7311 2.82349 61.5127 4.13441 61.5127 7.56298V8.47055C61.5127 12 63.7311 13.4117 65.8488 13.4117H73.5127C74.3194 13.4117 74.9244 13.5126 74.9244 14.9243V16.4369C74.9244 17.647 74.3194 17.9495 73.4118 17.9495H63.3278L61.311 21.1764H73.7143C76.7396 21.1764 78.7564 19.6638 78.7564 16.2353V15.0252C78.7564 11.6974 76.8404 10.1848 73.916 10.1848H66.5547C65.748 10.1848 65.1429 9.98315 65.1429 8.77307V7.3613C65.1429 6.3529 65.5463 5.94954 66.4538 5.94954H76.0337L78.0505 2.82349H65.9496Z" fill="black"/>
<path d="M47.5967 2.82349L38.9244 21.0756H43.0588L44.7731 17.3445H54.1513L55.8656 21.0756H60L51.2269 2.82349H47.5967ZM49.3109 6.65542L52.6387 14.2184H45.9832L49.3109 6.65542Z" fill="black"/>
</svg>
