<svg width="185" height="24" viewBox="0 0 185 24" fill="none" xmlns="http://www.w3.org/2000/svg">
<g clip-path="url(#clip0_45_4277)">
<path d="M31.5034 18.3327V6.07306H33.1273V12.1531L39.2158 6.07306H41.4137L36.2699 11.04L41.639 18.3327H39.4986L35.1338 12.1274L33.1273 14.0854V18.3327H31.5034ZM48.5981 17.2368C48.0386 17.7105 47.5018 18.0446 46.9883 18.2413C46.4717 18.4356 45.9177 18.5325 45.3271 18.5325C44.3507 18.5325 43.6028 18.2958 43.0776 17.8189C42.5552 17.3423 42.2927 16.7315 42.2927 15.9921C42.2927 15.5554 42.3896 15.1587 42.5893 14.7989C42.7864 14.4396 43.0464 14.1511 43.366 13.9341C43.6884 13.7174 44.0481 13.5515 44.4507 13.4405C44.7447 13.3634 45.1901 13.2863 45.7865 13.2147C47.0024 13.0691 47.8985 12.8982 48.4725 12.6954C48.4782 12.4899 48.4811 12.3586 48.4811 12.3044C48.4811 11.6906 48.3381 11.2569 48.0527 11.0085C47.6704 10.6658 47.0966 10.4977 46.3402 10.4977C45.6323 10.4977 45.1099 10.6202 44.7703 10.8686C44.4335 11.1171 44.1853 11.5565 44.0225 12.1873L42.5524 11.9844C42.6867 11.3565 42.9063 10.8457 43.2118 10.4603C43.5172 10.0722 43.9626 9.77239 44.5419 9.56406C45.1215 9.35572 45.7923 9.25021 46.557 9.25021C47.3164 9.25021 47.93 9.3414 48.404 9.51847C48.8777 9.69842 49.2262 9.92108 49.4515 10.192C49.6742 10.4634 49.8284 10.8029 49.9195 11.2168C49.9682 11.4737 49.9938 11.9362 49.9938 12.604V14.6108C49.9938 16.012 50.025 16.8969 50.0909 17.2652C50.1535 17.6363 50.282 17.9932 50.4704 18.3327H48.8976C48.7437 18.0217 48.641 17.6561 48.5981 17.2368ZM48.4725 13.8742C47.9243 14.0997 47.1052 14.2881 46.0147 14.445C45.3953 14.5337 44.9557 14.6334 44.7018 14.7448C44.445 14.8561 44.2452 15.0188 44.1082 15.2358C43.9684 15.4499 43.8968 15.6869 43.8968 15.9494C43.8968 16.3518 44.0509 16.6859 44.3534 16.9542C44.6562 17.2196 45.1013 17.3537 45.6865 17.3537C46.2661 17.3537 46.7827 17.2282 47.2336 16.974C47.6844 16.7201 48.0185 16.3718 48.2298 15.9322C48.3926 15.5926 48.4725 15.0901 48.4725 14.4279V13.8742ZM52.3115 18.3327V9.45277H53.6647V10.797C54.0101 10.1691 54.3297 9.75257 54.6237 9.5528C54.9149 9.35303 55.2373 9.25021 55.5884 9.25021C56.0965 9.25021 56.6104 9.413 57.1355 9.7354L56.6161 11.1342C56.2507 10.9142 55.8824 10.8056 55.5141 10.8056C55.1831 10.8056 54.8891 10.9057 54.6264 11.1027C54.364 11.3023 54.1784 11.5765 54.0669 11.9276C53.8987 12.4615 53.8158 13.0465 53.8158 13.683V18.3327H52.3115ZM58.0319 18.3327V9.45277H59.385V10.7144C60.0386 9.7381 60.9804 9.25021 62.2107 9.25021C62.7473 9.25021 63.2382 9.34717 63.6863 9.53833C64.1375 9.73257 64.4714 9.9837 64.6939 10.2975C64.9196 10.6089 65.0738 10.9801 65.165 11.408C65.2191 11.6878 65.2478 12.176 65.2478 12.8725V18.3327H63.7408V12.9293C63.7408 12.3185 63.6836 11.8591 63.5664 11.5535C63.4496 11.251 63.2413 11.0085 62.9442 10.8286C62.6444 10.646 62.2964 10.5545 61.8938 10.5545C61.2515 10.5545 60.7006 10.76 60.2326 11.1653C59.7673 11.5737 59.5362 12.3443 59.5362 13.483V18.3327H58.0319ZM73.3515 17.2368C72.7921 17.7105 72.2553 18.0446 71.7417 18.2413C71.225 18.4356 70.671 18.5325 70.0804 18.5325C69.104 18.5325 68.3562 18.2958 67.8309 17.8189C67.3085 17.3423 67.0461 16.7315 67.0461 15.9921C67.0461 15.5554 67.1431 15.1587 67.3428 14.7989C67.5398 14.4396 67.7998 14.1511 68.1195 13.9341C68.4419 13.7174 68.8015 13.5515 69.2042 13.4405C69.498 13.3634 69.9434 13.2863 70.5398 13.2147C71.7557 13.0691 72.652 12.8982 73.2257 12.6954C73.2317 12.4899 73.2344 12.3586 73.2344 12.3044C73.2344 11.6906 73.0916 11.2569 72.8062 11.0085C72.4238 10.6658 71.8499 10.4977 71.0935 10.4977C70.3856 10.4977 69.8632 10.6202 69.5237 10.8686C69.187 11.1171 68.9385 11.5565 68.7758 12.1873L67.3058 11.9844C67.44 11.3565 67.6598 10.8457 67.9653 10.4603C68.2705 10.0722 68.7159 9.77239 69.2952 9.56406C69.8748 9.35572 70.5457 9.25021 71.3104 9.25021C72.0699 9.25021 72.6835 9.3414 73.1573 9.51847C73.6311 9.69842 73.9795 9.92108 74.205 10.192C74.4277 10.4634 74.5818 10.8029 74.673 11.2168C74.7215 11.4737 74.7473 11.9362 74.7473 12.604V14.6108C74.7473 16.012 74.7785 16.8969 74.8442 17.2652C74.9069 17.6363 75.0353 17.9932 75.2239 18.3327H73.651C73.4971 18.0217 73.3943 17.6561 73.3515 17.2368ZM73.2257 13.8742C72.6777 14.0997 71.8585 14.2881 70.768 14.445C70.1486 14.5337 69.709 14.6334 69.4552 14.7448C69.1982 14.8561 68.9985 15.0188 68.8615 15.2358C68.7217 15.4499 68.6502 15.6869 68.6502 15.9494C68.6502 16.3518 68.8042 16.6859 69.1068 16.9542C69.4097 17.2196 69.8547 17.3537 70.4398 17.3537C71.0195 17.3537 71.5362 17.2282 71.987 16.974C72.4379 16.7201 72.7718 16.3718 72.9832 15.9322C73.146 15.5926 73.2257 15.0901 73.2257 14.4279V13.8742ZM80.3675 16.9854L80.5844 18.3156C80.1619 18.4041 79.7824 18.4499 79.4483 18.4499C78.9005 18.4499 78.4781 18.3642 78.1753 18.19C77.8757 18.0189 77.6645 17.7905 77.5418 17.5078C77.4189 17.2282 77.3561 16.6345 77.3561 15.7324V10.623H76.2516V9.45277H77.3561V7.25187L78.8546 6.35016V9.45277H80.3675V10.623H78.8546V15.815C78.8546 16.2463 78.8803 16.5201 78.9316 16.643C78.9862 16.7657 79.0717 16.8627 79.1913 16.937C79.3113 17.0083 79.4826 17.0453 79.7053 17.0453C79.8738 17.0453 80.0934 17.0253 80.3675 16.9854ZM87.6349 17.2368C87.0754 17.7105 86.5386 18.0446 86.0251 18.2413C85.5084 18.4356 84.9544 18.5325 84.3639 18.5325C83.3875 18.5325 82.6395 18.2958 82.1144 17.8189C81.592 17.3423 81.3295 16.7315 81.3295 15.9921C81.3295 15.5554 81.4264 15.1587 81.6262 14.7989C81.8231 14.4396 82.0832 14.1511 82.4028 13.9341C82.7252 13.7174 83.0849 13.5515 83.4875 13.4405C83.7814 13.3634 84.2267 13.2863 84.8233 13.2147C86.0391 13.0691 86.9353 12.8982 87.5091 12.6954C87.515 12.4899 87.5177 12.3586 87.5177 12.3044C87.5177 11.6906 87.375 11.2569 87.0895 11.0085C86.7071 10.6658 86.1334 10.4977 85.3768 10.4977C84.6691 10.4977 84.1467 10.6202 83.8071 10.8686C83.4704 11.1171 83.2219 11.5565 83.0592 12.1873L81.5892 11.9844C81.7235 11.3565 81.9431 10.8457 82.2486 10.4603C82.5539 10.0722 82.9993 9.77239 83.5787 9.56406C84.1582 9.35572 84.8291 9.25021 85.5938 9.25021C86.3533 9.25021 86.9669 9.3414 87.4407 9.51847C87.9145 9.69842 88.2629 9.92108 88.4883 10.192C88.711 10.4634 88.8652 10.8029 88.9563 11.2168C89.0049 11.4737 89.0306 11.9362 89.0306 12.604V14.6108C89.0306 16.012 89.0619 16.8969 89.1275 17.2652C89.1903 17.6363 89.3187 17.9932 89.5072 18.3327H87.9344C87.7805 18.0217 87.6778 17.6561 87.6349 17.2368ZM87.5091 13.8742C86.9611 14.0997 86.1419 14.2881 85.0515 14.445C84.432 14.5337 83.9925 14.6334 83.7386 14.7448C83.4816 14.8561 83.282 15.0188 83.1448 15.2358C83.0051 15.4499 82.9336 15.6869 82.9336 15.9494C82.9336 16.3518 83.0877 16.6859 83.3902 16.9542C83.693 17.2196 84.1381 17.3537 84.7231 17.3537C85.3028 17.3537 85.8195 17.2282 86.2704 16.974C86.7212 16.7201 87.0552 16.3718 87.2666 15.9322C87.4294 15.5926 87.5091 15.0901 87.5091 14.4279V13.8742ZM91.3712 18.3327V6.07306H92.8784V13.0637L96.4406 9.45277H98.3872L94.9935 12.7467L98.7325 18.3327H96.8744L93.9403 13.7913L92.8784 14.8133V18.3327H91.3712ZM105.723 17.2368C105.164 17.7105 104.627 18.0446 104.113 18.2413C103.597 18.4356 103.043 18.5325 102.452 18.5325C101.476 18.5325 100.728 18.2958 100.203 17.8189C99.6802 17.3423 99.4177 16.7315 99.4177 15.9921C99.4177 15.5554 99.5146 15.1587 99.7144 14.7989C99.9114 14.4396 100.171 14.1511 100.491 13.9341C100.813 13.7174 101.173 13.5515 101.576 13.4405C101.87 13.3634 102.315 13.2863 102.912 13.2147C104.127 13.0691 105.024 12.8982 105.597 12.6954C105.603 12.4899 105.606 12.3586 105.606 12.3044C105.606 11.6906 105.463 11.2569 105.178 11.0085C104.795 10.6658 104.222 10.4977 103.465 10.4977C102.757 10.4977 102.235 10.6202 101.895 10.8686C101.559 11.1171 101.31 11.5565 101.148 12.1873L99.6774 11.9844C99.8117 11.3565 100.031 10.8457 100.337 10.4603C100.642 10.0722 101.087 9.77239 101.667 9.56406C102.247 9.35572 102.917 9.25021 103.682 9.25021C104.441 9.25021 105.055 9.3414 105.529 9.51847C106.003 9.69842 106.351 9.92108 106.577 10.192C106.799 10.4634 106.953 10.8029 107.045 11.2168C107.093 11.4737 107.119 11.9362 107.119 12.604V14.6108C107.119 16.012 107.15 16.8969 107.216 17.2652C107.279 17.6363 107.407 17.9932 107.595 18.3327H106.023C105.869 18.0217 105.766 17.6561 105.723 17.2368ZM105.597 13.8742C105.049 14.0997 104.23 14.2881 103.14 14.445C102.52 14.5337 102.081 14.6334 101.827 14.7448C101.57 14.8561 101.37 15.0188 101.233 15.2358C101.093 15.4499 101.022 15.6869 101.022 15.9494C101.022 16.3518 101.176 16.6859 101.478 16.9542C101.781 17.2196 102.226 17.3537 102.812 17.3537C103.391 17.3537 103.908 17.2282 104.359 16.974C104.809 16.7201 105.144 16.3718 105.355 15.9322C105.518 15.5926 105.597 15.0901 105.597 14.4279V13.8742ZM114.335 18.3327V6.07306H118.936C119.872 6.07306 120.623 6.19882 121.188 6.44442C121.756 6.69243 122.199 7.07518 122.518 7.59173C122.838 8.10559 123.001 8.64494 123.001 9.21015C123.001 9.73257 122.858 10.2263 122.573 10.6889C122.29 11.1513 121.859 11.525 121.285 11.8105C122.027 12.0273 122.595 12.3983 122.995 12.9207C123.395 13.446 123.595 14.0654 123.595 14.779C123.595 15.3529 123.472 15.8866 123.229 16.3804C122.986 16.8743 122.687 17.2539 122.33 17.5222C121.973 17.7905 121.525 17.9902 120.988 18.1272C120.452 18.2642 119.792 18.3327 119.01 18.3327H114.335ZM115.959 11.2254H118.61C119.327 11.2254 119.844 11.177 120.158 11.0827C120.569 10.9598 120.88 10.7573 121.088 10.4719C121.297 10.1863 121.402 9.82966 121.402 9.40132C121.402 8.99605 121.305 8.63633 121.111 8.32825C120.914 8.01696 120.635 7.80584 120.275 7.69176C119.912 7.5774 119.29 7.52055 118.408 7.52055H115.959V11.2254ZM115.959 16.8857H119.01C119.536 16.8857 119.904 16.8657 120.115 16.8284C120.489 16.7599 120.8 16.6486 121.051 16.4917C121.302 16.3375 121.508 16.1093 121.671 15.8124C121.831 15.5126 121.913 15.1702 121.913 14.779C121.913 14.3224 121.796 13.9257 121.562 13.5858C121.328 13.2491 121.002 13.0123 120.586 12.8753C120.172 12.741 119.573 12.6724 118.793 12.6724H115.959V16.8857ZM131.43 17.2368C130.87 17.7105 130.333 18.0446 129.82 18.2413C129.303 18.4356 128.749 18.5325 128.159 18.5325C127.182 18.5325 126.434 18.2958 125.909 17.8189C125.387 17.3423 125.124 16.7315 125.124 15.9921C125.124 15.5554 125.221 15.1587 125.421 14.7989C125.618 14.4396 125.878 14.1511 126.198 13.9341C126.52 13.7174 126.88 13.5515 127.282 13.4405C127.576 13.3634 128.022 13.2863 128.618 13.2147C129.834 13.0691 130.73 12.8982 131.304 12.6954C131.31 12.4899 131.313 12.3586 131.313 12.3044C131.313 11.6906 131.17 11.2569 130.884 11.0085C130.502 10.6658 129.928 10.4977 129.172 10.4977C128.464 10.4977 127.941 10.6202 127.602 10.8686C127.265 11.1171 127.017 11.5565 126.854 12.1873L125.384 11.9844C125.518 11.3565 125.738 10.8457 126.043 10.4603C126.349 10.0722 126.794 9.77239 127.373 9.56406C127.953 9.35572 128.624 9.25021 129.388 9.25021C130.148 9.25021 130.762 9.3414 131.235 9.51847C131.709 9.69842 132.058 9.92108 132.283 10.192C132.506 10.4634 132.66 10.8029 132.751 11.2168C132.8 11.4737 132.825 11.9362 132.825 12.604V14.6108C132.825 16.012 132.857 16.8969 132.922 17.2652C132.985 17.6363 133.114 17.9932 133.302 18.3327H131.729C131.575 18.0217 131.473 17.6561 131.43 17.2368ZM131.304 13.8742C130.756 14.0997 129.937 14.2881 128.846 14.445C128.227 14.5337 127.787 14.6334 127.533 14.7448C127.276 14.8561 127.077 15.0188 126.94 15.2358C126.8 15.4499 126.728 15.6869 126.728 15.9494C126.728 16.3518 126.882 16.6859 127.185 16.9542C127.488 17.2196 127.933 17.3537 128.518 17.3537C129.098 17.3537 129.614 17.2282 130.065 16.974C130.516 16.7201 130.85 16.3718 131.061 15.9322C131.224 15.5926 131.304 15.0901 131.304 14.4279V13.8742ZM135.16 18.3327V9.45277H136.513V10.7144C137.167 9.7381 138.109 9.25021 139.339 9.25021C139.876 9.25021 140.367 9.34717 140.815 9.53833C141.266 9.73257 141.6 9.9837 141.822 10.2975C142.048 10.6089 142.202 10.9801 142.293 11.408C142.347 11.6878 142.376 12.176 142.376 12.8725V18.3327H140.869V12.9293C140.869 12.3185 140.812 11.8591 140.695 11.5535C140.578 11.251 140.37 11.0085 140.073 10.8286C139.773 10.646 139.425 10.5545 139.022 10.5545C138.38 10.5545 137.829 10.76 137.361 11.1653C136.896 11.5737 136.664 12.3443 136.664 13.483V18.3327H135.16ZM144.691 18.3327V6.07306H146.198V13.0637L149.76 9.45277H151.707L148.313 12.7467L152.052 18.3327H150.194L147.26 13.7913L146.198 14.8133V18.3327H144.691ZM158.13 18.3327V6.07306H159.754V16.8857H165.791V18.3327H158.13ZM170.817 16.9854L171.034 18.3156C170.612 18.4041 170.232 18.4499 169.898 18.4499C169.35 18.4499 168.928 18.3642 168.625 18.19C168.326 18.0189 168.114 17.7905 167.992 17.5078C167.868 17.2282 167.806 16.6345 167.806 15.7324V10.623H166.701V9.45277H167.806V7.25187L169.304 6.35016V9.45277H170.817V10.623H169.304V15.815C169.304 16.2463 169.33 16.5201 169.381 16.643C169.436 16.7657 169.522 16.8627 169.641 16.937C169.761 17.0083 169.932 17.0453 170.155 17.0453C170.324 17.0453 170.543 17.0253 170.817 16.9854ZM178.05 18.3327V17.211C177.488 18.0929 176.66 18.5325 175.567 18.5325C174.859 18.5325 174.208 18.3385 173.615 17.9473C173.021 17.5592 172.561 17.0141 172.233 16.3118C171.908 15.6126 171.745 14.8105 171.745 13.8999C171.745 13.015 171.893 12.2102 172.187 11.488C172.484 10.766 172.927 10.212 173.518 9.82966C174.108 9.44421 174.771 9.25021 175.501 9.25021C176.035 9.25021 176.512 9.36433 176.929 9.58979C177.348 9.81514 177.688 10.1092 177.95 10.4719V6.07306H179.446V18.3327H178.05ZM173.292 13.8999C173.292 15.0387 173.532 15.8894 174.011 16.4516C174.491 17.0141 175.056 17.2967 175.71 17.2967C176.366 17.2967 176.926 17.0253 177.385 16.489C177.845 15.952 178.076 15.1302 178.076 14.0257C178.076 12.8095 177.842 11.919 177.374 11.351C176.906 10.7799 176.329 10.4977 175.641 10.4977C174.973 10.4977 174.414 10.7714 173.966 11.3168C173.518 11.8619 173.292 12.7238 173.292 13.8999ZM182.241 18.3327V16.6174H183.956V18.3327H182.241Z" fill="#853A93" stroke="#853A93" stroke-width="0.430154"/>
<path d="M114.115 20.5118H115.005L115.528 21.4221L116.051 20.5118H116.935L115.927 22.0786V23.2075H115.125V22.0786L114.115 20.5118ZM116.93 22.2367C116.93 21.939 117.027 21.6932 117.22 21.5004C117.414 21.307 117.674 21.2105 118.003 21.2105C118.379 21.2105 118.663 21.3239 118.855 21.5507C119.01 21.7333 119.087 21.9586 119.087 22.2259C119.087 22.5261 118.991 22.772 118.799 22.9641C118.608 23.1555 118.343 23.2517 118.005 23.2517C117.703 23.2517 117.459 23.1717 117.273 23.0123C117.044 22.8154 116.93 22.5567 116.93 22.2367ZM117.651 22.2348C117.651 22.4091 117.685 22.5379 117.753 22.6207C117.821 22.704 117.906 22.7461 118.008 22.7461C118.113 22.7461 118.197 22.7046 118.264 22.6226C118.331 22.5403 118.364 22.4091 118.364 22.2271C118.364 22.0582 118.33 21.9322 118.263 21.8493C118.196 21.767 118.113 21.7257 118.014 21.7257C117.909 21.7257 117.822 21.7677 117.754 21.8511C117.686 21.9353 117.651 22.0634 117.651 22.2348ZM121.593 23.2074H120.92V22.8911C120.82 23.0212 120.72 23.1138 120.618 23.1685C120.515 23.2236 120.39 23.2515 120.242 23.2515C120.044 23.2515 119.888 23.19 119.776 23.0668C119.664 22.9437 119.607 22.7539 119.607 22.4975V21.255H120.33V22.3286C120.33 22.4513 120.352 22.5384 120.396 22.5899C120.44 22.6413 120.5 22.667 120.579 22.667C120.666 22.667 120.736 22.6327 120.791 22.5642C120.846 22.495 120.873 22.3721 120.873 22.1943V21.255H121.593V23.2074ZM122.217 21.255H122.89V21.5744C122.956 21.4364 123.022 21.341 123.091 21.2889C123.16 21.2367 123.245 21.2104 123.346 21.2104C123.453 21.2104 123.568 21.2449 123.695 21.3133L123.472 21.8469C123.388 21.8098 123.32 21.7916 123.271 21.7916C123.176 21.7916 123.103 21.8322 123.052 21.9126C122.978 22.027 122.94 22.2403 122.94 22.5529V23.2074H122.217V21.255ZM125.679 20.5117H127.659V21.0911H126.483V21.5618H127.487V22.1059H126.483V23.2074H125.679V20.5117ZM128.786 21.8869L128.099 21.8117C128.125 21.6866 128.162 21.5881 128.211 21.5165C128.26 21.445 128.33 21.3828 128.422 21.3303C128.488 21.2921 128.579 21.2623 128.694 21.2419C128.809 21.221 128.934 21.2104 129.069 21.2104C129.284 21.2104 129.458 21.2229 129.588 21.2479C129.719 21.273 129.829 21.326 129.915 21.4055C129.977 21.4608 130.025 21.5386 130.061 21.6398C130.096 21.7413 130.113 21.8374 130.113 21.9295V22.7921C130.113 22.8835 130.119 22.9556 130.13 23.008C130.142 23.0599 130.166 23.1264 130.204 23.2074H129.529C129.501 23.1573 129.484 23.119 129.475 23.0928C129.467 23.0661 129.459 23.0248 129.45 22.9682C129.357 23.063 129.262 23.1303 129.17 23.1704C129.042 23.2243 128.894 23.2515 128.726 23.2515C128.502 23.2515 128.332 23.1974 128.216 23.0893C128.1 22.982 128.042 22.8489 128.042 22.6908C128.042 22.5422 128.084 22.4205 128.167 22.325C128.251 22.2289 128.405 22.158 128.63 22.1114C128.901 22.0551 129.076 22.0157 129.156 21.9931C129.235 21.9704 129.32 21.9401 129.41 21.9038C129.41 21.8117 129.392 21.7475 129.355 21.7105C129.319 21.674 129.255 21.6554 129.162 21.6554C129.045 21.6554 128.957 21.6753 128.898 21.7145C128.852 21.745 128.814 21.8028 128.786 21.8869ZM129.41 22.2804C129.311 22.3176 129.207 22.3501 129.101 22.3785C128.955 22.4186 128.862 22.4587 128.823 22.4975C128.783 22.5384 128.763 22.5844 128.763 22.6357C128.763 22.6948 128.783 22.7425 128.822 22.7801C128.862 22.8172 128.92 22.8358 128.996 22.8358C129.076 22.8358 129.151 22.8159 129.22 22.7756C129.289 22.7348 129.338 22.6852 129.367 22.6275C129.396 22.569 129.41 22.4932 129.41 22.4002L129.41 22.2804ZM130.731 21.255H131.403V21.5398C131.5 21.4205 131.597 21.3364 131.695 21.2856C131.794 21.2354 131.913 21.2104 132.052 21.2104C132.201 21.2104 132.32 21.2379 132.407 21.2932C132.494 21.3483 132.565 21.4305 132.621 21.5398C132.734 21.4126 132.837 21.3253 132.93 21.2794C133.023 21.2336 133.138 21.2104 133.275 21.2104C133.477 21.2104 133.634 21.2725 133.747 21.3976C133.86 21.5217 133.916 21.7162 133.916 21.9811V23.2074H133.195V22.0952C133.195 22.0069 133.179 21.9408 133.146 21.8983C133.097 21.831 133.037 21.7973 132.965 21.7973C132.881 21.7973 132.812 21.8291 132.76 21.8925C132.709 21.9567 132.683 22.0589 132.683 22.2002V23.2074H131.962V22.1317C131.962 22.0457 131.956 21.9878 131.947 21.9573C131.932 21.9084 131.905 21.8686 131.868 21.8386C131.83 21.8083 131.786 21.7933 131.735 21.7933C131.652 21.7933 131.585 21.826 131.532 21.8906C131.478 21.9561 131.452 22.0625 131.452 22.2109V23.2074H130.731V21.255ZM134.554 20.5117H135.274V21.0212H134.554V20.5117ZM134.554 21.255H135.274V23.2074H134.554V21.255ZM135.939 20.5117H136.66V23.2074H135.939V20.5117ZM137.155 21.255H137.914L138.302 22.5546L138.661 21.255H139.37L138.625 23.3418C138.541 23.5797 138.454 23.7403 138.365 23.8232C138.24 23.9413 138.05 24 137.794 24C137.69 24 137.53 23.985 137.313 23.9556L137.257 23.4334C137.36 23.468 137.476 23.4849 137.603 23.4849C137.688 23.4849 137.757 23.4647 137.809 23.4246C137.862 23.3839 137.906 23.3117 137.942 23.2074L137.155 21.255ZM141.435 20.5117H142.934C143.184 20.5117 143.376 20.5765 143.509 20.705C143.643 20.8338 143.71 20.9932 143.71 21.1828C143.71 21.3422 143.662 21.4789 143.567 21.5933C143.503 21.6692 143.41 21.7293 143.288 21.7735C143.474 21.8196 143.611 21.9002 143.698 22.0129C143.786 22.1267 143.83 22.2692 143.83 22.4406C143.83 22.5804 143.799 22.7062 143.737 22.8177C143.674 22.9293 143.589 23.0172 143.48 23.0826C143.413 23.1227 143.312 23.1521 143.176 23.1704C142.996 23.195 142.876 23.2074 142.817 23.2074H141.435V20.5117ZM142.242 21.5694H142.591C142.716 21.5694 142.803 21.5468 142.852 21.5021C142.901 21.4568 142.925 21.3923 142.925 21.3083C142.925 21.23 142.901 21.1684 142.852 21.1244C142.803 21.0797 142.718 21.0577 142.596 21.0577H142.242V21.5694ZM142.242 22.6281H142.651C142.789 22.6281 142.887 22.6031 142.942 22.5522C142.999 22.5014 143.028 22.4329 143.028 22.347C143.028 22.2671 143 22.2033 142.944 22.1548C142.888 22.1066 142.79 22.0821 142.649 22.0821H142.242V22.6281ZM145.038 21.8869L144.351 21.8117C144.377 21.6866 144.414 21.5881 144.463 21.5165C144.512 21.445 144.582 21.3828 144.675 21.3303C144.74 21.2921 144.831 21.2623 144.946 21.2419C145.062 21.221 145.187 21.2104 145.321 21.2104C145.537 21.2104 145.711 21.2229 145.841 21.2479C145.972 21.273 146.081 21.326 146.168 21.4055C146.229 21.4608 146.277 21.5386 146.313 21.6398C146.348 21.7413 146.366 21.8374 146.366 21.9295V22.7921C146.366 22.8835 146.372 22.9556 146.383 23.008C146.394 23.0599 146.418 23.1264 146.456 23.2074H145.781C145.754 23.1573 145.736 23.119 145.728 23.0928C145.72 23.0661 145.712 23.0248 145.703 22.9682C145.609 23.063 145.515 23.1303 145.422 23.1704C145.294 23.2243 145.147 23.2515 144.979 23.2515C144.755 23.2515 144.585 23.1974 144.468 23.0893C144.352 22.982 144.294 22.8489 144.294 22.6908C144.294 22.5422 144.336 22.4205 144.42 22.325C144.504 22.2289 144.657 22.158 144.883 22.1114C145.153 22.0551 145.328 22.0157 145.408 21.9931C145.488 21.9704 145.573 21.9401 145.662 21.9038C145.662 21.8117 145.644 21.7475 145.608 21.7105C145.571 21.674 145.507 21.6554 145.415 21.6554C145.297 21.6554 145.209 21.6753 145.15 21.7145C145.104 21.745 145.066 21.8028 145.038 21.8869ZM145.662 22.2804C145.563 22.3176 145.46 22.3501 145.353 22.3785C145.207 22.4186 145.114 22.4587 145.076 22.4975C145.035 22.5384 145.015 22.5844 145.015 22.6357C145.015 22.6948 145.035 22.7425 145.074 22.7801C145.114 22.8172 145.172 22.8358 145.249 22.8358C145.329 22.8358 145.403 22.8159 145.473 22.7756C145.541 22.7348 145.59 22.6852 145.619 22.6275C145.648 22.569 145.662 22.4932 145.662 22.4002V22.2804ZM146.978 21.255H147.648V21.5725C147.749 21.4424 147.85 21.3504 147.952 21.2945C148.055 21.2384 148.18 21.2104 148.327 21.2104C148.527 21.2104 148.682 21.2725 148.795 21.3954C148.907 21.5186 148.963 21.7086 148.963 21.9659V23.2074H148.241V22.1334C148.241 22.0112 148.218 21.9246 148.175 21.8737C148.131 21.8224 148.07 21.7973 147.991 21.7973C147.904 21.7973 147.833 21.8315 147.779 21.9002C147.725 21.9687 147.698 22.0921 147.698 22.2699V23.2074H146.978V21.255ZM149.574 20.5117H150.309V21.9019L150.847 21.255H151.733L151.059 21.9389L151.771 23.2074H150.96L150.58 22.4241L150.309 22.6997V23.2074H149.574V20.5117ZM152.171 22.4574H152.941V23.2074H152.171V22.4574ZM156.829 22.7623H155.916L155.791 23.2074H154.973L155.946 20.5117H156.82L157.794 23.2074H156.956L156.829 22.7623ZM156.661 22.1794L156.374 21.2104L156.09 22.1794H156.661ZM159.584 22.4443L160.268 22.5253C160.23 22.6733 160.168 22.8021 160.082 22.9105C159.996 23.0191 159.886 23.1031 159.752 23.1634C159.619 23.2231 159.449 23.2533 159.243 23.2533C159.044 23.2533 158.877 23.2337 158.745 23.1955C158.613 23.1566 158.499 23.0945 158.403 23.008C158.307 22.9212 158.232 22.8202 158.179 22.7033C158.124 22.5874 158.097 22.4329 158.097 22.2403C158.097 22.0396 158.13 21.872 158.196 21.7383C158.245 21.6403 158.31 21.5523 158.394 21.4746C158.478 21.3966 158.564 21.3385 158.652 21.3009C158.792 21.2406 158.972 21.2104 159.191 21.2104C159.498 21.2104 159.731 21.2675 159.892 21.3816C160.053 21.4954 160.166 21.662 160.231 21.8821L159.554 21.9754C159.533 21.8918 159.494 21.8291 159.438 21.7873C159.382 21.7444 159.307 21.7236 159.212 21.7236C159.094 21.7236 158.997 21.7682 158.923 21.8567C158.85 21.946 158.813 22.0802 158.813 22.2604C158.813 22.421 158.85 22.5427 158.923 22.6262C158.995 22.7098 159.089 22.751 159.202 22.751C159.296 22.751 159.375 22.726 159.44 22.6758C159.504 22.6257 159.552 22.5486 159.584 22.4443ZM160.786 21.255H161.46V21.5744C161.525 21.4364 161.592 21.341 161.661 21.2889C161.729 21.2367 161.815 21.2104 161.916 21.2104C162.022 21.2104 162.138 21.2449 162.264 21.3133L162.042 21.8469C161.957 21.8098 161.89 21.7916 161.84 21.7916C161.746 21.7916 161.673 21.8322 161.621 21.9126C161.547 22.027 161.509 22.2403 161.509 22.5529V23.2074H160.786V21.255ZM162.538 22.2365C162.538 21.9389 162.634 21.693 162.827 21.5002C163.021 21.3069 163.281 21.2104 163.61 21.2104C163.986 21.2104 164.27 21.3238 164.462 21.5505C164.617 21.7331 164.694 21.9585 164.694 22.2258C164.694 22.526 164.598 22.7718 164.407 22.964C164.215 23.1554 163.95 23.2515 163.612 23.2515C163.31 23.2515 163.067 23.1716 162.881 23.0122C162.652 22.8153 162.538 22.5565 162.538 22.2365ZM163.259 22.2346C163.259 22.4089 163.293 22.5377 163.361 22.6206C163.428 22.7038 163.513 22.7459 163.616 22.7459C163.72 22.7459 163.805 22.7044 163.871 22.6225C163.938 22.5402 163.971 22.4089 163.971 22.227C163.971 22.0581 163.937 21.932 163.871 21.8492C163.803 21.7669 163.72 21.7256 163.621 21.7256C163.516 21.7256 163.43 21.7676 163.361 21.8509C163.293 21.9351 163.259 22.0633 163.259 22.2346ZM165.094 22.6669L165.808 22.5967C165.838 22.6851 165.879 22.7485 165.932 22.786C165.985 22.8244 166.056 22.8433 166.145 22.8433C166.241 22.8433 166.316 22.8218 166.369 22.7788C166.41 22.7473 166.431 22.7072 166.431 22.6595C166.431 22.6053 166.403 22.564 166.35 22.5344C166.31 22.5139 166.207 22.4881 166.04 22.4573C165.791 22.4113 165.617 22.37 165.519 22.3313C165.422 22.2921 165.34 22.227 165.274 22.1352C165.207 22.0437 165.174 21.9388 165.174 21.821C165.174 21.6922 165.21 21.5812 165.282 21.4882C165.354 21.3946 165.453 21.3252 165.578 21.2793C165.705 21.2335 165.874 21.2102 166.086 21.2102C166.31 21.2102 166.475 21.2285 166.582 21.2635C166.689 21.2992 166.777 21.3545 166.849 21.4292C166.92 21.5038 166.979 21.6051 167.027 21.7323L166.344 21.8027C166.326 21.7399 166.297 21.6941 166.256 21.6647C166.199 21.6249 166.131 21.6058 166.05 21.6058C165.97 21.6058 165.91 21.6206 165.873 21.6506C165.836 21.681 165.818 21.7173 165.818 21.7599C165.818 21.8082 165.841 21.844 165.888 21.8685C165.935 21.8929 166.038 21.9149 166.196 21.9351C166.435 21.9633 166.613 22.0022 166.729 22.0526C166.846 22.1027 166.936 22.1743 166.997 22.2676C167.06 22.3606 167.09 22.4631 167.09 22.5747C167.09 22.6876 167.057 22.7974 166.992 22.9041C166.926 23.0109 166.823 23.0956 166.683 23.1583C166.542 23.2216 166.35 23.2531 166.107 23.2531C165.764 23.2531 165.52 23.2024 165.375 23.1006C165.229 22.9989 165.136 22.854 165.094 22.6669ZM167.487 22.6669L168.201 22.5967C168.231 22.6851 168.272 22.7485 168.325 22.786C168.378 22.8244 168.448 22.8433 168.537 22.8433C168.634 22.8433 168.709 22.8218 168.761 22.7788C168.803 22.7473 168.823 22.7072 168.823 22.6595C168.823 22.6053 168.796 22.564 168.742 22.5344C168.703 22.5139 168.6 22.4881 168.433 22.4573C168.183 22.4113 168.009 22.37 167.912 22.3313C167.815 22.2921 167.733 22.227 167.666 22.1352C167.599 22.0437 167.566 21.9388 167.566 21.821C167.566 21.6922 167.603 21.5812 167.674 21.4882C167.746 21.3946 167.845 21.3252 167.971 21.2793C168.097 21.2335 168.266 21.2102 168.478 21.2102C168.702 21.2102 168.867 21.2285 168.975 21.2635C169.081 21.2992 169.17 21.3545 169.241 21.4292C169.313 21.5038 169.372 21.6051 169.419 21.7323L168.737 21.8027C168.719 21.7399 168.69 21.6941 168.648 21.6647C168.592 21.6249 168.523 21.6058 168.443 21.6058C168.362 21.6058 168.303 21.6206 168.266 21.6506C168.228 21.681 168.21 21.7173 168.21 21.7599C168.21 21.8082 168.234 21.844 168.281 21.8685C168.328 21.8929 168.43 21.9149 168.588 21.9351C168.827 21.9633 169.005 22.0022 169.122 22.0526C169.239 22.1027 169.328 22.1743 169.39 22.2676C169.452 22.3606 169.483 22.4631 169.483 22.5747C169.483 22.6876 169.45 22.7974 169.384 22.9041C169.319 23.0109 169.216 23.0956 169.075 23.1583C168.934 23.2216 168.742 23.2531 168.5 23.2531C168.157 23.2531 167.913 23.2024 167.767 23.1006C167.622 22.9989 167.528 22.854 167.487 22.6669ZM171.716 20.5115H172.519V23.2072H171.716V20.5115ZM173.227 21.2549H173.897V21.5724C173.997 21.4423 174.098 21.3502 174.201 21.2943C174.303 21.2383 174.428 21.2102 174.576 21.2102C174.775 21.2102 174.93 21.2723 175.043 21.3953C175.155 21.5185 175.212 21.7084 175.212 21.9657V23.2072H174.489V22.1333C174.489 22.011 174.467 21.9244 174.423 21.8736C174.38 21.8223 174.318 21.7972 174.24 21.7972C174.153 21.7972 174.082 21.8314 174.028 21.9C173.974 21.9685 173.946 22.092 173.946 22.2698V23.2072H173.227V21.2549ZM177.799 20.5115V23.2072H177.126V22.9185C177.031 23.0409 176.945 23.1237 176.867 23.1672C176.764 23.223 176.648 23.2514 176.521 23.2514C176.265 23.2514 176.07 23.1502 175.934 22.9483C175.8 22.7459 175.732 22.5001 175.732 22.2108C175.732 21.8867 175.807 21.6397 175.956 21.468C176.105 21.2962 176.295 21.2102 176.524 21.2102C176.636 21.2102 176.738 21.2304 176.829 21.2693C176.92 21.3087 177.001 21.3671 177.072 21.4457V20.5115H177.799ZM177.077 22.2257C177.077 22.0719 177.046 21.9578 176.983 21.8824C176.922 21.807 176.842 21.7693 176.747 21.7693C176.663 21.7693 176.593 21.8058 176.537 21.8779C176.48 21.9502 176.452 22.0712 176.452 22.2419C176.452 22.4013 176.481 22.5182 176.539 22.5922C176.597 22.6662 176.67 22.7032 176.756 22.7032C176.848 22.7032 176.924 22.6662 176.986 22.5915C177.047 22.5163 177.077 22.3946 177.077 22.2257ZM178.445 20.5115H179.164V21.0211H178.445V20.5115ZM178.445 21.2549H179.164V23.2072H178.445V21.2549ZM180.461 21.8867L179.773 21.8115C179.799 21.6864 179.837 21.5879 179.886 21.5163C179.935 21.4449 180.005 21.3827 180.097 21.3301C180.162 21.2919 180.254 21.2621 180.369 21.2418C180.484 21.2208 180.609 21.2102 180.744 21.2102C180.959 21.2102 181.133 21.2227 181.263 21.2478C181.394 21.2729 181.504 21.3258 181.59 21.4053C181.651 21.4607 181.7 21.5385 181.736 21.6397C181.771 21.7412 181.788 21.8373 181.788 21.9294V22.792C181.788 22.8834 181.794 22.9555 181.805 23.0079C181.816 23.0598 181.841 23.1263 181.879 23.2072H181.203C181.176 23.1571 181.159 23.1189 181.15 23.0927C181.142 23.066 181.134 23.0246 181.125 22.9681C181.031 23.0629 180.937 23.1302 180.844 23.1703C180.717 23.2241 180.569 23.2514 180.401 23.2514C180.177 23.2514 180.007 23.1972 179.891 23.0892C179.775 22.9819 179.716 22.8488 179.716 22.6907C179.716 22.5421 179.758 22.4203 179.842 22.3249C179.926 22.2287 180.08 22.1578 180.305 22.1113C180.575 22.055 180.75 22.0156 180.831 21.9929C180.91 21.9703 180.995 21.9399 181.085 21.9036C181.085 21.8115 181.066 21.7473 181.03 21.7103C180.994 21.6739 180.929 21.6552 180.837 21.6552C180.72 21.6552 180.631 21.6752 180.572 21.7143C180.526 21.7449 180.489 21.8027 180.461 21.8867ZM181.085 22.2802C180.986 22.3175 180.882 22.3499 180.775 22.3784C180.63 22.4184 180.537 22.4585 180.498 22.4974C180.458 22.5383 180.438 22.5843 180.438 22.6356C180.438 22.6946 180.458 22.7423 180.497 22.78C180.537 22.817 180.595 22.8357 180.671 22.8357C180.752 22.8357 180.826 22.8158 180.895 22.7754C180.964 22.7347 181.013 22.6851 181.042 22.6273C181.071 22.5689 181.085 22.4931 181.085 22.4001V22.2802ZM182.402 22.4573H183.172V23.2072H182.402V22.4573Z" fill="#853A93"/>
<path fill-rule="evenodd" clip-rule="evenodd" d="M18.638 16.3783L16.8973 13.5481L15.1902 16.3783H18.638ZM18.6347 7.60066H15.1689L16.8961 10.3742L18.6347 7.60066ZM10.5206 3.19531L8.80343 6.01038H12.2518L10.5206 3.19531ZM2.4435 7.60066L4.15722 10.3913L5.86223 7.60066H2.4435ZM2.44161 16.402L5.86516 16.381L4.15773 13.5757L2.44161 16.402ZM-0.486328 6.01038H6.8692L10.3291 0.357361L10.5478 -4.3869e-05L10.7666 0.357361L14.2263 6.01038H21.5817L21.3627 6.36608L17.9035 11.9825L21.3636 17.6392L21.5812 17.9949H14.2262L10.7666 23.6347L10.5478 23.9913L10.3291 23.6347L6.86934 17.9949H-0.485619L-0.268206 17.6392L3.19172 11.9825L-0.26726 6.36608L-0.486328 6.01038ZM7.83179 7.65372L5.04472 11.9839L7.83179 16.3518H13.2635L16.0507 11.9839L13.2635 7.65372H7.83179ZM10.5451 20.7863L12.2521 17.9949H8.80695L10.5451 20.7863ZM10.348 10.1403C10.891 10.1403 11.3849 10.3491 11.7428 10.6859V10.6849C12.1001 11.0207 12.322 11.4849 12.322 11.9961C12.322 12.5064 12.1001 12.9701 11.7428 13.3063V13.3072C11.3857 13.6431 10.8916 13.8517 10.348 13.8517C9.80439 13.8517 9.31064 13.6431 8.95347 13.3072H8.95442C8.59621 12.9706 8.37407 12.5063 8.37407 11.996C8.37407 11.4861 8.59569 11.0222 8.95333 10.6858C8.95361 10.6855 8.95427 10.6848 8.95427 10.6848C9.31211 10.3486 9.80572 10.1403 10.348 10.1403Z" fill="#853A93"/>
</g>
<defs>
<clipPath id="clip0_45_4277">
<rect width="185" height="24" fill="white"/>
</clipPath>
</defs>
</svg>
