<svg width="195" height="55" viewBox="0 0 195 55" fill="none" xmlns="http://www.w3.org/2000/svg">
<g id="Karur Vysya" clip-path="url(#clip0_4_1255)">
<path id="Vector" fill-rule="evenodd" clip-rule="evenodd" d="M0.13907 31.6607H11.0435C11.2104 32.165 11.3774 33.0336 11.5165 33.594C12.4784 37.0919 14.215 40.3247 16.596 43.0493C18.9769 45.7738 21.9402 47.9192 25.2629 49.3242C28.5855 50.7292 32.1811 51.3572 35.7794 51.161C39.3778 50.9648 42.8851 49.9496 46.0378 48.1916C49.0323 46.4867 51.6459 44.1786 53.7154 41.4112C54.1327 40.8508 55.4401 38.6094 55.6348 38.6094H195V0H4.14478C3.00427 0 1.72473 0 0.639848 0C4.75347e-05 0 0.13907 -8.20816e-05 0.13907 1.31678V31.6607Z" fill="#E2E42B"/>
<path id="Vector_2" fill-rule="evenodd" clip-rule="evenodd" d="M195 38.7214H55.6348C55.4401 38.7214 54.1327 40.9628 53.7154 41.5232C51.6458 44.2906 49.0322 46.5987 46.0378 48.3036C42.8796 50.0607 39.3667 51.073 35.7636 51.2639C32.1606 51.4549 28.5614 50.8197 25.2375 49.4061C21.9137 47.9925 18.9518 45.8373 16.575 43.1031C14.1982 40.369 12.4686 37.1272 11.5164 33.622C11.3773 33.0616 11.2104 32.1931 11.0435 31.6887H0.139041C-0.111316 32.0249 0.139041 42.8961 0.139041 43.2603V55.028H195V38.7494V38.7214Z" fill="#00934C"/>
<path id="Vector_3" d="M62.9229 33.3698V23.3953H65.8994V26.7016L68.6812 23.3953H72.1583L68.8202 27.0657L72.6033 33.3698H69.015L66.7339 29.3632L65.9828 30.2039V33.3698H62.9229ZM77.5828 30.0917C77.2482 30.2285 76.9042 30.3409 76.5535 30.4279C75.8581 30.624 75.5243 30.8763 75.5243 31.2125C75.5188 31.3016 75.5334 31.3908 75.5671 31.4733C75.6008 31.5558 75.6527 31.6294 75.7189 31.6888C75.7979 31.7597 75.8906 31.8137 75.991 31.8475C76.0915 31.8812 76.1976 31.8939 76.3031 31.8849C76.4838 31.8987 76.6655 31.8761 76.8374 31.8184C77.0094 31.7607 77.1682 31.669 77.3045 31.5487C77.5292 31.2312 77.6375 30.8449 77.6106 30.4559V30.2317L77.5828 30.0917ZM77.833 33.3698L77.6661 32.6693C77.3397 32.9885 76.9515 33.2365 76.5257 33.3978C76.0925 33.5724 75.6292 33.6582 75.1627 33.6501C74.504 33.6843 73.8571 33.4637 73.3545 33.0336C73.138 32.8018 72.9699 32.5287 72.8601 32.2303C72.7502 31.932 72.7007 31.6144 72.7147 31.2965C72.6935 30.9946 72.74 30.6919 72.8507 30.4106C72.9615 30.1293 73.1336 29.8767 73.3545 29.6715C74.0701 29.2299 74.8815 28.9703 75.7189 28.915H76.331C77.1933 28.915 77.6106 28.5507 77.6106 28.1865C77.6151 28.0948 77.5971 28.0034 77.5583 27.9204C77.5195 27.8373 77.461 27.7652 77.388 27.7102C77.1407 27.6546 76.8842 27.6546 76.6369 27.7102C76.3982 27.6931 76.1614 27.7627 75.9693 27.9063C75.8931 27.9726 75.8314 28.0541 75.7883 28.1458C75.7452 28.2374 75.7215 28.3373 75.7189 28.4387H72.9371C72.9281 28.0683 73.0128 27.7017 73.1832 27.3733C73.3535 27.0449 73.6039 26.7655 73.9109 26.5614C74.757 26.0827 75.7252 25.8683 76.6926 25.945C77.2257 25.9411 77.7576 25.9975 78.2782 26.1131C78.6738 26.1906 79.0512 26.3427 79.3908 26.5614C79.6865 26.7573 79.9263 27.0279 80.0862 27.3459C80.2247 27.761 80.2906 28.197 80.281 28.6347V32.7254C80.2656 32.8463 80.2656 32.9688 80.281 33.0897C80.3393 33.1948 80.4146 33.2894 80.5036 33.3698V33.5659L77.833 33.3698ZM81.8944 33.3698V26.0011H84.4257V27.3459C84.5672 26.8862 84.8378 26.4775 85.2047 26.1692C85.6188 25.9037 86.1055 25.7762 86.5956 25.805H86.8182V28.6068H86.2339C85.7914 28.5768 85.354 28.7169 85.01 28.9989C84.7281 29.3553 84.5891 29.8052 84.6205 30.2598V33.2858L81.8944 33.3698ZM95.2189 26.0011V33.3698H92.7154V32.2772C92.4566 32.684 92.0977 33.0164 91.6737 33.2422C91.2496 33.468 90.7748 33.5795 90.2953 33.5659C89.9121 33.5811 89.5306 33.5044 89.1826 33.3419C88.8476 33.2005 88.5586 32.9675 88.3481 32.6693C88.1186 32.3971 87.9649 32.0684 87.9029 31.7168C87.8434 31.0831 87.8434 30.4452 87.9029 29.8116V26.0011H90.6847V29.8116C90.6523 30.2078 90.7294 30.6053 90.9072 30.9603C90.9866 31.0767 91.0957 31.1694 91.223 31.2286C91.3503 31.2877 91.4911 31.3112 91.6305 31.2965C91.779 31.2977 91.926 31.2657 92.0608 31.2027C92.1955 31.1397 92.3144 31.0473 92.4093 30.9322C92.5982 30.5806 92.685 30.1825 92.6598 29.7835V26.0011H95.2189ZM96.7212 33.3698V26.0011H99.2525V27.3459C99.392 26.8781 99.6742 26.4664 100.059 26.1692C100.461 25.9003 100.941 25.7723 101.422 25.805H101.645V28.6068H101.089C100.646 28.5768 100.209 28.7169 99.8645 28.9989C99.5827 29.3553 99.4437 29.8052 99.4751 30.2598V33.2858L96.7212 33.3698ZM106.318 23.3953H109.378L110.964 29.8396L112.66 23.3953H115.609L112.466 33.3698H109.461L106.318 23.3953ZM116.471 36.2838V34.0983H117.25C117.441 34.1568 117.644 34.1568 117.834 34.0983C117.895 34.0301 117.941 33.9502 117.97 33.8635C117.998 33.7768 118.009 33.6851 118.001 33.594C118.014 33.4916 118.014 33.3882 118.001 33.2858C118.01 33.1552 118.01 33.0241 118.001 32.8935L115.693 26.1412H118.474L119.671 30.624L120.867 26.1412H123.426L121.2 33.482C121.036 34.0525 120.841 34.6136 120.616 35.163C120.511 35.4215 120.36 35.6588 120.171 35.8635C119.966 36.0855 119.707 36.2497 119.42 36.3397C118.955 36.4494 118.478 36.4966 118.001 36.48H116.611L116.471 36.2838ZM123.648 31.0444H126.43C126.419 31.1702 126.433 31.2968 126.472 31.417C126.51 31.5373 126.571 31.6488 126.653 31.7448C126.747 31.8281 126.858 31.891 126.977 31.9295C127.097 31.9681 127.223 31.9814 127.348 31.9689C127.566 32.0327 127.798 32.0327 128.016 31.9689C128.087 31.9183 128.144 31.8511 128.183 31.7729C128.221 31.6947 128.24 31.608 128.238 31.5207C128.238 31.1844 127.904 30.9322 127.209 30.7921H127.07C126.165 30.6723 125.3 30.3466 124.539 29.8396C124.336 29.6531 124.177 29.4223 124.076 29.165C123.975 28.9077 123.933 28.6305 123.954 28.3546C123.934 28.0064 124.003 27.6589 124.154 27.3451C124.305 27.0312 124.533 26.7614 124.817 26.5614C125.577 26.098 126.461 25.8828 127.348 25.945C128.182 25.899 129.012 26.0935 129.74 26.5054C130.019 26.7055 130.251 26.9647 130.419 27.2649C130.587 27.5651 130.688 27.8989 130.714 28.2426H128.238C128.236 28.1412 128.212 28.0415 128.169 27.9498C128.126 27.8581 128.064 27.7765 127.988 27.7102C127.809 27.5825 127.595 27.5139 127.376 27.5141C127.194 27.4626 127.002 27.4626 126.82 27.5141C126.758 27.5589 126.708 27.618 126.675 27.6863C126.641 27.7545 126.624 27.83 126.625 27.9063C126.625 28.1865 126.959 28.4106 127.571 28.5507H127.932C128.808 28.6981 129.643 29.0324 130.38 29.5313C130.584 29.7234 130.742 29.9591 130.843 30.221C130.944 30.4828 130.986 30.7642 130.964 31.0444C130.989 31.4219 130.914 31.7992 130.748 32.1385C130.582 32.4778 130.331 32.7672 130.019 32.9777C129.177 33.4709 128.207 33.6955 127.237 33.622C126.338 33.6762 125.445 33.4513 124.678 32.9777C124.385 32.7404 124.146 32.4422 123.978 32.1038C123.81 31.7654 123.717 31.3945 123.704 31.0163L123.648 31.0444ZM131.994 36.2838V34.0983H132.772C132.954 34.1545 133.148 34.1545 133.329 34.0983C133.399 34.0361 133.453 33.9578 133.487 33.87C133.521 33.7822 133.534 33.6876 133.524 33.594C133.524 33.594 133.524 33.3979 133.524 33.2858C133.524 33.1737 133.524 33.0336 133.524 32.8935L131.187 26.1412H133.969L135.193 30.624L136.361 26.1412H138.948L136.723 33.482C136.444 34.2945 136.25 34.8548 136.111 35.163C136.003 35.4143 135.863 35.6498 135.693 35.8635C135.479 36.0733 135.223 36.2355 134.942 36.3397C134.477 36.446 134 36.4932 133.524 36.48H132.133L131.994 36.2838ZM144.178 30.0917C143.833 30.228 143.48 30.3404 143.121 30.4279C142.425 30.624 142.091 30.8763 142.091 31.2125C142.091 31.3009 142.108 31.3885 142.142 31.4702C142.175 31.5519 142.224 31.6261 142.286 31.6888C142.365 31.7597 142.458 31.8137 142.558 31.8475C142.659 31.8812 142.765 31.8939 142.87 31.8849C143.051 31.9038 143.234 31.8835 143.407 31.8256C143.58 31.7676 143.738 31.6733 143.872 31.5487C144.108 31.237 144.217 30.8461 144.178 30.4559V30.0917ZM144.428 33.3698L144.261 32.6693C143.926 32.9767 143.54 33.2233 143.121 33.3978C142.687 33.5696 142.224 33.6553 141.758 33.6501C141.099 33.6843 140.452 33.4637 139.949 33.0336C139.727 32.8056 139.556 32.5331 139.445 32.2338C139.335 31.9344 139.289 31.615 139.31 31.2965C139.285 30.9968 139.327 30.6954 139.433 30.4142C139.539 30.133 139.706 29.8793 139.922 29.6715C140.648 29.2307 141.468 28.9713 142.314 28.915H142.898C143.76 28.915 144.205 28.5507 144.205 28.1865C144.21 28.0918 144.189 27.9978 144.145 27.914C144.101 27.8303 144.035 27.76 143.955 27.7102C143.708 27.6485 143.451 27.6485 143.204 27.7102C142.973 27.6893 142.744 27.7597 142.564 27.9063C142.48 27.9672 142.411 28.047 142.363 28.1394C142.314 28.2318 142.288 28.3343 142.286 28.4387H139.504C139.49 28.0705 139.569 27.7045 139.734 27.3759C139.9 27.0473 140.146 26.7668 140.45 26.5614C141.297 26.0843 142.264 25.87 143.232 25.945C143.756 25.9411 144.278 25.9975 144.79 26.1131C145.194 26.1911 145.58 26.343 145.93 26.5614C146.218 26.758 146.449 27.029 146.598 27.3459C146.75 27.7575 146.816 28.1962 146.792 28.6347V32.7254C146.764 32.8452 146.764 32.9699 146.792 33.0897C146.851 33.1948 146.926 33.2894 147.015 33.3698V33.5659L144.428 33.3698ZM155.805 31.0444H157.196C157.536 31.0715 157.875 30.9932 158.17 30.8202C158.272 30.7362 158.353 30.6288 158.407 30.5071C158.46 30.3853 158.483 30.2525 158.476 30.1197C158.488 29.9864 158.467 29.8519 158.413 29.7293C158.36 29.6067 158.276 29.5 158.17 29.4193C157.865 29.2472 157.517 29.1692 157.168 29.1951H155.777V31.0444H155.805ZM155.805 27.374H157.057C157.358 27.4069 157.662 27.3379 157.919 27.1778C158.011 27.0939 158.082 26.989 158.125 26.8721C158.169 26.7551 158.184 26.6295 158.17 26.5054C158.186 26.3786 158.169 26.2496 158.12 26.1316C158.071 26.0136 157.992 25.9105 157.892 25.8328C157.493 25.6809 157.064 25.6234 156.64 25.6647H155.777V27.374H155.805ZM153.024 33.3698V23.3953H156.862H158.67C159.003 23.4307 159.33 23.506 159.644 23.6195C160.089 23.7977 160.469 24.1111 160.729 24.5161C160.989 24.9567 161.123 25.4607 161.118 25.9731C161.119 26.3819 161.023 26.785 160.84 27.1498C160.634 27.5033 160.336 27.7938 159.978 27.9903C160.426 28.1486 160.814 28.4421 161.09 28.8308C161.327 29.2886 161.442 29.8002 161.424 30.3159C161.438 30.8492 161.324 31.3778 161.09 31.8569C160.878 32.2964 160.526 32.6515 160.089 32.8655C159.769 33.0399 159.42 33.1539 159.06 33.2017C158.431 33.2605 157.798 33.2605 157.168 33.2017L153.024 33.3698ZM167.405 30.0917C167.062 30.2321 166.709 30.3446 166.348 30.4279C165.68 30.624 165.347 30.8763 165.347 31.2125C165.341 31.3016 165.356 31.3908 165.389 31.4733C165.423 31.5558 165.475 31.6294 165.541 31.6888C165.62 31.7597 165.713 31.8137 165.813 31.8475C165.914 31.8812 166.02 31.8939 166.125 31.8849C166.306 31.8987 166.488 31.8761 166.66 31.8184C166.832 31.7607 166.991 31.669 167.127 31.5487C167.352 31.2312 167.46 30.8449 167.433 30.4559V30.2317L167.405 30.0917ZM167.656 33.3698L167.489 32.6693C167.158 32.9827 166.771 33.2299 166.348 33.3978C165.915 33.5724 165.451 33.6582 164.985 33.6501C164.326 33.6843 163.679 33.4637 163.177 33.0336C162.96 32.8018 162.792 32.5287 162.682 32.2303C162.573 31.932 162.523 31.6144 162.537 31.2965C162.516 30.9946 162.562 30.6919 162.673 30.4106C162.784 30.1293 162.956 29.8767 163.177 29.6715C163.892 29.2299 164.704 28.9703 165.541 28.915H166.125C167.016 28.915 167.433 28.5507 167.433 28.1865C167.437 28.0948 167.419 28.0034 167.381 27.9204C167.342 27.8373 167.283 27.7652 167.21 27.7102C166.963 27.6546 166.707 27.6546 166.459 27.7102C166.221 27.6931 165.984 27.7627 165.792 27.9063C165.715 27.9726 165.654 28.0541 165.611 28.1458C165.568 28.2374 165.544 28.3373 165.541 28.4387H162.76C162.753 28.0717 162.835 27.7085 163 27.3812C163.165 27.0539 163.407 26.7723 163.705 26.5614C164.555 26.092 165.52 25.8781 166.487 25.945C167.02 25.9411 167.552 25.9975 168.073 26.1131C168.468 26.1906 168.846 26.3427 169.185 26.5614C169.481 26.7573 169.721 27.0279 169.881 27.3459C170.019 27.761 170.085 28.197 170.076 28.6347V32.7254C170.06 32.8463 170.06 32.9688 170.076 33.0897C170.134 33.1948 170.209 33.2894 170.298 33.3698V33.5659L167.656 33.3698ZM171.717 33.3698V26.0011H174.22V27.0937C174.494 26.6897 174.855 26.3542 175.277 26.1131C175.693 25.9092 176.15 25.8038 176.613 25.805C177.004 25.798 177.393 25.8742 177.753 26.029C178.088 26.1704 178.377 26.4034 178.588 26.7016C178.802 26.9836 178.953 27.3083 179.033 27.6541C179.094 28.2783 179.094 28.9071 179.033 29.5313V33.3698H176.251V29.5593C176.283 29.1631 176.206 28.7656 176.029 28.4107C175.949 28.2942 175.84 28.2015 175.713 28.1423C175.586 28.0832 175.445 28.0597 175.305 28.0745C175.16 28.0688 175.016 28.099 174.885 28.1625C174.754 28.226 174.64 28.3209 174.554 28.4387C174.341 28.7711 174.244 29.1651 174.276 29.5593V33.3698H171.717ZM180.591 33.3698V23.3953H183.372V28.2706L185.18 26.0011H188.268L185.681 28.803L188.463 33.4539H185.264L183.762 30.8202L183.289 31.3245V33.4539L180.591 33.3698Z" fill="#231F20"/>
<path id="Vector_4" fill-rule="evenodd" clip-rule="evenodd" d="M44.5079 27.0656C44.9837 26.9063 45.4933 26.8796 45.983 26.9881C46.4727 27.0966 46.9242 27.3364 47.2897 27.6821C47.5797 28.0908 47.7355 28.5806 47.7355 29.083C47.7355 29.5854 47.5797 30.0752 47.2897 30.4839C46.7333 30.9883 44.8974 31.3805 44.5079 30.4839C44.3549 29.331 44.3549 28.1626 44.5079 27.0097V27.0656ZM45.0365 22.835C47.2062 22.3867 47.8181 25.6367 46.3438 26.197C45.7596 26.4212 44.4245 26.6455 44.3967 25.3006C44.3967 24.5161 44.1463 23.0311 45.0365 22.835ZM41.142 22.3585C40.9472 23.1711 42.2269 22.3587 42.3938 23.8997V29.7274C42.3938 30.2317 42.3938 30.6521 42.0321 30.9043C41.6705 31.1564 41.1698 31.1283 41.4758 31.6606C41.7817 32.193 42.7554 31.6606 43.2561 31.6606C45.1317 31.9695 47.0555 31.7564 48.8196 31.0443C49.2411 30.7261 49.5642 30.2937 49.7514 29.7977C49.9385 29.3017 49.982 28.7624 49.8767 28.2425C49.6541 27.0377 48.7362 26.6733 47.4566 26.5332C47.9016 26.2811 49.07 26.0851 49.2091 24.7682C49.4594 22.1906 46.4274 22.1625 44.7584 22.3026C44.1464 22.3026 43.59 22.3026 42.9502 22.3026C42.3104 22.3026 41.5871 22.1065 41.2255 22.3026L41.142 22.3585Z" fill="#231F20"/>
<path id="Vector_5" fill-rule="evenodd" clip-rule="evenodd" d="M21.8366 24.7121C21.9758 26.7224 21.9013 28.7417 21.6142 30.736C21.4473 30.9601 21.3639 30.9602 21.1135 31.1283C20.8632 31.2964 20.9744 31.1283 20.8909 31.3244C20.5015 32.1089 22.1984 31.6047 23.0329 31.6047C23.8675 31.6047 24.702 31.9129 25.1192 31.6047C25.5365 31.2965 24.6462 31.1003 24.2846 30.8482C23.923 30.596 23.8396 29.223 23.8396 28.2984C23.8316 28.0412 23.9056 27.7883 24.0508 27.5766C24.196 27.3648 24.4046 27.2053 24.6462 27.1217C25.2304 27.682 26.6213 30.1197 27.2889 31.0443C27.9565 31.9689 27.9844 31.6606 29.7369 31.6606C30.0707 31.6606 30.2653 31.6606 30.3488 31.6606C30.4322 31.6606 30.3489 31.2685 29.9316 31.0724C29.6704 30.9022 29.4439 30.6834 29.264 30.4278C28.1583 28.9171 27.1366 27.3457 26.204 25.7208L28.04 24.0117C28.4988 23.5684 29.0369 23.2166 29.6256 22.975C30.0151 22.8069 29.9872 22.9751 30.0428 22.4987C30.0984 22.0224 28.791 22.4987 28.1234 22.4987C27.4558 22.4987 26.9272 22.3026 26.5378 22.4987C26.5378 23.0591 26.8717 22.7788 27.3168 23.1151C27.3168 23.8155 26.4267 24.5721 25.8147 25.1044L23.8953 26.6454C23.7215 25.4783 23.7782 24.2881 24.0622 23.1431C24.3403 22.8349 24.7853 22.975 24.7853 22.4427C24.7853 21.9103 23.4779 22.4427 22.9216 22.4427C22.3652 22.4427 19.9173 22.0784 20.6405 22.8069C21.3638 23.5354 21.8366 22.4146 21.8366 24.8522V24.7121Z" fill="#231F20"/>
<path id="Vector_6" fill-rule="evenodd" clip-rule="evenodd" d="M35.7176 31.9129C36.3852 31.7167 36.7189 30.3438 37.0527 29.6434L39.8345 23.3952C40.1961 22.7788 40.6411 22.947 40.6411 22.2745C40.1126 22.2745 39.5564 22.2745 39.0278 22.2745C38.4993 22.2745 37.8317 22.0504 37.4422 22.2745C37.4422 23.0591 38.6383 22.4426 38.7496 23.4793C38.6871 24.157 38.4883 24.8148 38.1653 25.4126C37.7759 26.3092 37.0805 28.2144 36.6633 28.9149C36.246 28.7748 36.3295 28.6067 36.1626 28.1864L34.3822 23.9275C33.798 22.4986 34.9108 23.1151 34.9664 22.2745C34.6604 22.0504 34.6605 22.1064 33.9372 22.2745C32.6298 22.2745 30.6547 22.0504 30.905 22.6108C31.1554 23.1711 31.6562 22.8348 32.0735 23.7314C32.4907 24.628 35.189 31.5486 35.7176 31.9129Z" fill="#231F20"/>
<path id="Vector_7" fill-rule="evenodd" clip-rule="evenodd" d="M55.7738 32.6973C54.8214 35.4289 53.3258 37.9363 51.3786 40.0661C50.7257 40.7555 50.0288 41.4013 49.2923 41.9994C46.0438 44.6171 42.0683 46.1542 37.9151 46.3983C33.8211 46.6598 29.7475 45.6326 26.2588 43.4589C22.77 41.2853 20.0387 38.0727 18.4429 34.2663C17.191 31.1953 16.7087 27.8612 17.0386 24.558C17.3684 21.2549 18.5004 18.0842 20.3345 15.3259C20.8304 14.5364 21.3984 13.7954 22.0313 13.1125C23.9248 10.9421 26.2711 9.22003 28.9023 8.0692C31.4856 6.91211 34.2813 6.31429 37.1085 6.31429C39.9356 6.31429 42.7312 6.91211 45.3145 8.0692C46.2881 8.54551 47.067 9.07789 47.9293 9.49816C46.214 8.12583 44.275 7.06404 42.1989 6.36012C39.4476 5.40419 36.535 5.00892 33.6306 5.19742C30.7262 5.38592 27.8879 6.15432 25.2811 7.45801C22.6744 8.76169 20.3511 10.5746 18.4464 12.7911C16.5418 15.0077 15.0938 17.5838 14.1869 20.3693C12.6734 24.8683 12.6704 29.7437 14.1784 34.2446C15.6863 38.7454 18.6215 42.622 22.532 45.2775C26.2611 47.7778 30.6635 49.0625 35.142 48.9573C39.6206 48.852 43.9585 47.362 47.5677 44.6892L50.0156 42.6437C52.6831 39.8832 54.5992 36.4769 55.5791 32.7533L55.7738 32.6973Z" fill="#00934C"/>
<path id="Vector_8" fill-rule="evenodd" clip-rule="evenodd" d="M26.816 11.9359C27.2333 11.7678 28.346 11.0953 29.5977 10.563C30.6262 10.1628 31.6873 9.85342 32.769 9.63835C35.2165 9.1056 37.7487 9.1056 40.1962 9.63835C43.0639 10.3025 45.7239 11.6713 47.9388 13.6224C50.1538 15.5735 51.855 18.0464 52.8906 20.8205C53.9262 23.5947 54.2639 26.5839 53.874 29.5216C53.484 32.4592 52.3784 35.254 50.6555 37.6567C50.0157 38.5253 48.8474 39.7301 48.7083 40.0103C49.1925 39.8054 49.6502 39.5419 50.0713 39.2257C52.9468 36.4567 54.8187 32.7974 55.3883 28.8317C55.9578 24.866 55.1923 20.8224 53.2137 17.3461C51.2351 13.8699 48.1575 11.1611 44.472 9.65237C40.7865 8.1436 36.7055 7.92162 32.8802 9.02185C31.0071 9.53915 29.2309 10.3628 27.6227 11.4596L26.9551 12.0479L26.816 11.9359Z" fill="#00934C"/>
<path id="Vector_9" fill-rule="evenodd" clip-rule="evenodd" d="M69.0707 50.0407C69.7661 50.2649 69.9052 50.0408 70.1278 49.5645C70.4533 48.3973 70.9806 47.2971 71.6855 46.3144C71.9081 46.0622 72.5478 45.754 72.6312 46.4545C72.7147 47.1549 71.5463 49.2562 71.5741 50.0127C71.8603 50.1252 72.1781 50.1252 72.4643 50.0127C72.7981 49.2002 73.5771 46.5385 74.6063 46.0341C74.6542 46.0116 74.7064 45.9999 74.7593 45.9999C74.8122 45.9999 74.8644 46.0116 74.9123 46.0341C76.2475 46.0341 73.9665 48.836 74.4673 50.1249C74.712 50.2007 74.9733 50.204 75.2199 50.1344C75.4665 50.0649 75.6881 49.9254 75.8581 49.7326C75.9972 49.7326 76.4979 49.2002 76.5536 49.0041C76.6092 48.8079 76.5536 49.0042 76.5536 48.752C76.5536 48.4998 76.3309 49.3124 75.552 49.2844C75.552 48.2757 76.8317 46.4824 76.3588 45.6699C75.8859 44.8573 75.1348 45.4457 74.7175 45.6699C74.3205 45.9859 73.9486 46.3325 73.6049 46.7065C73.6049 45.838 73.6048 45.0535 72.4365 45.4737C71.741 45.6979 71.4073 46.3143 70.9622 46.7346C70.9622 46.2303 71.2404 45.838 70.9622 45.5298C70.6841 45.2216 69.3488 46.2303 69.3209 46.7907C69.8495 46.7907 69.321 46.7906 69.7104 46.5384C70.0999 46.2863 69.7103 46.3703 70.1554 46.5384C70.4336 47.6031 69.0985 49.3403 69.2376 50.0968L69.0707 50.0407Z" fill="#FBFDFF"/>
<path id="Vector_10" fill-rule="evenodd" clip-rule="evenodd" d="M108.488 48.92C107.459 49.5645 106.541 49.1441 106.93 47.7712C107.32 46.3983 107.959 46.1182 108.182 45.3897H106.513C105.122 45.3897 104.315 48.1915 105.845 47.6031C106.012 46.6505 105.539 47.1828 105.567 46.5103C105.595 45.8379 106.652 46.2022 107.292 46.2022C106.902 47.0707 105.79 48.0514 106.04 49.3402C106.29 50.6291 107.375 50.6571 108.599 49.3402C109.267 50.9933 110.658 49.9847 111.381 48.8639C112.104 47.7432 113.217 44.8574 111.381 45.4177C111.075 46.5105 111.715 46.006 111.77 46.9026C111.732 47.3605 111.583 47.8018 111.335 48.1878C111.088 48.5738 110.75 48.8927 110.352 49.1162C110.252 49.1776 110.139 49.2161 110.023 49.2294C109.906 49.2426 109.788 49.2301 109.677 49.1928C109.566 49.1555 109.464 49.0942 109.379 49.0132C109.294 48.9322 109.227 48.8335 109.183 48.7239C109.434 48.1075 111.158 46.3984 110.129 45.3897C108.794 45.1375 108.432 47.5751 108.404 48.8639L108.488 48.92Z" fill="#EAF0EE"/>
<path id="Vector_11" fill-rule="evenodd" clip-rule="evenodd" d="M180.062 47.6312C180.284 47.1862 180.621 46.809 181.036 46.5384C182.621 45.4457 183.205 46.9027 181.815 47.435C181.243 47.5876 180.653 47.6538 180.062 47.6312ZM181.592 42.2517L179.561 42.6719C179.561 42.952 179.561 42.6719 179.84 42.9241H180.229C179.766 45.3631 179.143 47.7686 178.365 50.1248C179.645 50.321 179.116 50.1248 179.979 47.7993C180.758 48.0514 180.702 49.4523 181.286 50.0126C181.465 50.1761 181.698 50.2666 181.94 50.2666C182.181 50.2666 182.414 50.1761 182.593 50.0126C182.764 49.8876 182.922 49.747 183.066 49.5925C183.233 49.3963 183.066 49.5924 183.233 49.3683C183.4 49.1441 183.233 49.2283 183.233 49.0882C183.233 48.9481 182.872 49.4804 182.315 49.5644C181.759 49.6485 181.564 48.4156 181.119 47.7712C182.26 47.7712 184.151 46.9867 183.317 45.8099C182.482 44.6331 180.674 46.3983 180.368 46.6785L181.62 42.1675L181.592 42.2517Z" fill="#FBFDFF"/>
<path id="Vector_12" fill-rule="evenodd" clip-rule="evenodd" d="M159.727 46.2022C160.061 47.6312 158.058 50.3209 157.14 49.5364C156.222 48.7519 158.364 45.782 159.727 46.2022ZM158.921 42.0836L156.946 42.5599C156.946 42.8961 156.946 42.5599 157.558 42.9522C157.725 44.6053 155.138 49.3123 156.306 50.0688C157.474 50.8253 161.619 47.8834 160.812 45.9221C160.173 44.4091 157.836 46.5104 157.307 47.407L158.921 42.0836Z" fill="#FBFDFF"/>
<path id="Vector_13" fill-rule="evenodd" clip-rule="evenodd" d="M62.0328 48.3316C61.6155 48.3316 61.6434 48.3316 61.393 49.6764C61.9167 49.9982 62.5182 50.1686 63.1316 50.1686C63.745 50.1686 64.3466 49.9982 64.8702 49.6764C66.8174 48.3876 64.8702 46.4264 64.1191 45.3897C62.8673 43.8767 63.8966 42.8401 65.0093 42.9802C66.122 43.1203 65.5656 43.9888 66.0106 44.325C66.3445 44.325 66.4279 43.4284 66.5113 43.0922C65.3708 42.5599 64.2026 42.1956 63.1734 43.0922C62.1441 43.9888 62.5614 45.3337 63.1734 46.2583C63.7854 47.1829 64.9815 48.0515 64.3417 49.0601C64.2059 49.2247 64.0358 49.3571 63.8435 49.448C63.6512 49.5389 63.4413 49.5862 63.2289 49.5862C63.0165 49.5862 62.8068 49.5389 62.6145 49.448C62.4222 49.3571 62.2521 49.2247 62.1163 49.0601C61.9494 48.7239 62.1163 48.6117 61.9773 48.2475V47.9954L62.0328 48.3316Z" fill="#FBFDFF"/>
<path id="Vector_14" fill-rule="evenodd" clip-rule="evenodd" d="M171.717 50.0969C172.162 48.9201 172.941 46.5946 173.775 46.1183C174.61 45.642 174.193 47.3791 174.026 47.7993C173.624 48.4927 173.467 49.3024 173.581 50.0969C174.499 50.4331 175.834 49.3124 175.75 48.724C175.361 48.724 175.528 48.7239 175.222 49.0041C174.916 49.2843 174.665 49.1722 174.665 49.1722C174.387 48.1916 176.195 46.5945 175.222 45.4457C174.926 45.3829 174.62 45.3935 174.329 45.4765C174.038 45.5595 173.772 45.7124 173.553 45.9222C173.219 46.2216 172.912 46.5497 172.635 46.9027C172.635 46.3704 172.969 45.8941 172.635 45.5579C172.301 45.2217 170.966 46.3985 171.021 46.7907C171.578 46.7907 171.021 46.4265 171.856 46.4545C172.162 47.5192 170.743 49.2564 170.91 49.9849C171.077 50.7133 171.327 50.153 171.772 49.9849L171.717 50.0969Z" fill="#FBFDFF"/>
<path id="Vector_15" fill-rule="evenodd" clip-rule="evenodd" d="M126.124 45.4738C125.735 46.1182 126.736 47.7994 124.9 49.5925C124.98 48.3064 124.791 47.0176 124.344 45.81C123.621 44.6612 122.258 46.0902 122.258 46.9588C122.258 46.9588 122.452 46.9588 122.675 46.4545C123.843 44.6613 124.733 51.0494 123.008 51.7498C122.452 51.974 122.257 51.4977 121.84 51.7498C121.423 52.002 121.84 53.1788 123.12 52.1141C123.639 51.6648 124.106 51.1572 124.511 50.6012C125.262 49.6485 128.544 44.7733 126.069 45.3337L126.124 45.4738Z" fill="#FBFDFF"/>
<path id="Vector_16" fill-rule="evenodd" clip-rule="evenodd" d="M116.138 49.2563C115.637 48.0515 117.195 45.8661 118.363 46.3144C118.53 46.8468 117.89 47.7433 117.584 48.1636C117.278 48.5838 116.805 49.3684 116.138 49.2563ZM118.586 49.2563C118.586 48.0235 119.782 46.2022 119.782 45.3337C118.753 45.3337 119.476 45.5579 118.697 45.726H118.335C117.866 45.7707 117.417 45.9346 117.028 46.2022C114.663 47.7433 114.246 50.9934 116.249 50.0407C116.958 49.5122 117.554 48.8451 118.001 48.0794C117.835 48.7799 117.334 49.5365 117.807 50.1249C118.28 50.7133 119.198 49.4524 119.392 49.1722C119.587 48.892 119.392 48.6679 119.392 48.6679C119.392 48.6679 119.142 49.1722 118.474 49.2283L118.586 49.2563Z" fill="#FBFDFF"/>
<path id="Vector_17" fill-rule="evenodd" clip-rule="evenodd" d="M164.512 49.2563C164.039 48.0515 165.625 45.8381 166.738 46.3144C166.932 46.9028 166.265 47.7152 165.986 48.1355C165.708 48.5558 165.235 49.3684 164.512 49.2563ZM166.96 49.2563C166.96 48.0235 168.184 46.1742 168.184 45.3337C167.489 45.3337 167.85 45.3337 167.461 45.5579C167.071 45.782 167.461 45.5579 167.099 45.726H166.71C166.05 45.8654 165.433 46.1586 164.906 46.5819C164.38 47.0052 163.959 47.5469 163.678 48.1636C163.066 49.5365 163.511 52.1422 166.459 48.1636C166.459 48.864 165.792 49.6205 166.293 50.2088C166.793 50.7972 167.628 49.5925 167.878 49.2563V48.752C167.544 48.752 167.628 49.2282 166.96 49.3122V49.2563Z" fill="#FBFDFF"/>
<path id="Vector_18" fill-rule="evenodd" clip-rule="evenodd" d="M81.8945 46.3144C83.953 45.5579 81.3103 48.9481 81.06 49.1162C79.6135 50.1529 80.3089 46.9028 81.8945 46.3144ZM82.8403 49.1162C82.8403 48.0235 84.0085 46.1463 84.0641 45.2497C83.4243 45.2497 83.5079 45.2496 83.2575 45.6418C80.1141 45.6418 78.4452 49.5645 79.697 50.0968C80.9487 50.6292 81.9223 48.4157 82.2283 48.1355C82.0614 48.948 81.6718 49.2843 81.9778 50.0688C82.8124 50.2649 83.2576 49.6205 83.6748 49.0882C84.0921 48.5558 83.953 48.808 83.6748 48.5839C83.3132 48.836 83.3409 49.2283 82.729 49.1162H82.8403Z" fill="#FBFDFF"/>
<path id="Vector_19" fill-rule="evenodd" clip-rule="evenodd" d="M143.26 49.7887C142.648 48.724 143.677 45.1656 144.901 45.838C145.569 46.2303 145.123 47.8273 144.901 48.4437C144.678 49.0601 144.317 50.0128 143.287 49.7887H143.26ZM146.208 47.8554C146.959 44.5492 142.787 44.6893 142.091 47.8554C141.396 51.0215 145.485 51.1616 146.208 47.8554Z" fill="#FBFDFF"/>
<path id="Vector_20" fill-rule="evenodd" clip-rule="evenodd" d="M94.9965 45.7259C95.1634 44.7733 95.8031 44.2409 94.3566 44.409L93.995 45.7259H93.1048C93.1048 46.3143 93.1048 46.1182 93.8559 46.1182C93.4943 47.2774 93.1971 48.4559 92.9657 49.6484C93.1048 50.7131 94.9686 50.2369 95.4694 48.892C95.0799 48.892 95.1355 48.892 94.8573 49.2282C94.5791 49.5645 94.0785 49.5645 94.1063 48.892C94.1063 48.892 94.7182 46.0902 95.0242 46.0902C95.3302 46.0902 95.8588 46.0902 95.9979 45.9221C96.137 45.754 95.7754 45.6979 94.9965 45.6979V45.7259Z" fill="#FBFDFF"/>
<path id="Vector_21" fill-rule="evenodd" clip-rule="evenodd" d="M137.529 45.726C136.416 45.726 136.166 46.0903 137.39 46.1183C137.168 47.211 136.222 49.1722 136.667 50.0968C137.091 50.2039 137.538 50.172 137.944 50.0057C138.349 49.8394 138.691 49.5475 138.92 49.1722C139.087 48.7519 138.92 49.0041 138.92 48.836C138.92 48.6679 138.391 49.5925 137.835 49.3964C137.279 49.2003 138.252 46.9869 138.419 46.1183C139.699 46.1183 139.532 46.2864 139.56 45.726H138.558L138.892 44.4371C137.668 44.2129 137.863 44.7454 137.557 45.726H137.529Z" fill="#FBFDFF"/>
<path id="Vector_22" fill-rule="evenodd" clip-rule="evenodd" d="M88.4593 47.2108C88.4593 46.6784 89.0713 45.3897 88.1255 45.4177C87.7995 45.5052 87.5044 45.6827 87.2734 45.9303C87.0423 46.1778 86.8847 46.4856 86.8182 46.8187C87.3467 46.8187 86.8181 46.8186 87.2353 46.5384C87.6526 46.2582 87.2354 46.3983 87.6527 46.5384C87.9586 47.491 86.6234 49.3403 86.7346 50.1248H87.5413C87.9317 49.3622 88.2756 48.5761 88.5707 47.7712C89.4608 45.6418 89.5443 46.8185 90.2953 46.5103C91.0464 46.2021 90.6847 46.0902 90.5734 45.5578C90.3205 45.4558 90.0393 45.4507 89.7829 45.5436C89.5266 45.6366 89.3129 45.8211 89.1826 46.0621C88.8993 46.4364 88.6568 46.8403 88.4593 47.2669V47.2108Z" fill="#FBFDFF"/>
</g>
<defs>
<clipPath id="clip0_4_1255">
<rect width="195" height="55" fill="white"/>
</clipPath>
</defs>
</svg>
