<svg width="110" height="24" viewBox="0 0 110 24" fill="none" xmlns="http://www.w3.org/2000/svg">
<g clip-path="url(#clip0_45_4273)">
<path d="M37.687 6.46388V19.2487H35.1862V13.0955H29.995V19.2487H27.4941V6.46388H29.995V11.4328H35.1862V6.46388H37.687Z" fill="#231F20"/>
<path d="M45.1791 19.2488C45.1061 19.2012 45.0246 19.0943 44.9335 18.9218C44.8394 18.7503 44.7938 18.5831 44.7938 18.4095C44.4171 18.8117 43.9853 19.0858 43.4974 19.2319C43.0095 19.38 42.53 19.4509 42.057 19.4509C41.1902 19.4509 40.4705 19.1863 39.899 18.6551C39.3243 18.1269 39.0386 17.4062 39.0386 16.4929C39.0386 15.6536 39.3402 14.918 39.9445 14.2894C40.5478 13.665 41.4198 13.2882 42.565 13.1675L44.6118 12.9305C44.6118 12.1494 44.4372 11.6171 44.09 11.3324C43.744 11.0445 43.3503 10.9027 42.9121 10.9027C42.3776 10.9027 41.8675 11.0223 41.3892 11.2572C40.9076 11.4964 40.4652 11.797 40.0641 12.1632L39.6429 10.3174C40.1297 9.97559 40.6451 9.71947 41.1881 9.55119C41.7278 9.3808 42.3512 9.29507 43.0592 9.29507C43.4974 9.29507 43.9503 9.3554 44.4202 9.47711C44.8891 9.59988 45.3124 9.80096 45.6881 10.0793C46.0787 10.3619 46.3951 10.7302 46.6396 11.1863C46.882 11.6425 47.0058 12.2045 47.0058 12.8765V16.858C47.0058 17.2358 47.0344 17.639 47.0968 18.0624C47.1582 18.491 47.2778 18.8858 47.463 19.2488H45.1791ZM44.6319 14.4661L43.4053 14.627C42.8338 14.7011 42.3713 14.8979 42.0178 15.2133C41.6643 15.5298 41.4886 15.9245 41.4886 16.4029C41.4886 16.8273 41.6082 17.167 41.8464 17.4242C42.0813 17.6803 42.3639 17.8073 42.6941 17.8073C42.9492 17.8073 43.1979 17.7703 43.436 17.6973C43.6731 17.6242 43.8763 17.4919 44.0445 17.2972C44.2297 17.1003 44.3726 16.8432 44.4763 16.5193C44.579 16.1976 44.6319 15.7806 44.6319 15.2673V14.4661Z" fill="#231F20"/>
<path d="M51.1706 9.4767V10.317C51.4976 9.98893 51.8839 9.73705 52.3284 9.55925C52.7729 9.38144 53.2333 9.2936 53.7095 9.2936C54.879 9.2936 55.7976 9.63439 56.4782 10.317C57.1502 10.9986 57.4889 11.9321 57.4889 13.1132V19.2505H55.0981V13.4603C55.0981 12.7173 54.9309 12.1141 54.5932 11.6516C54.2588 11.1891 53.7878 10.9563 53.1782 10.9563C52.6173 10.9563 52.1464 11.1859 51.7643 11.6421C51.378 12.0972 51.1886 12.73 51.1886 13.5323V19.2505H48.8115V9.4767H51.1706Z" fill="#231F20"/>
<path d="M64.9083 19.2488C64.8342 19.2012 64.7516 19.0943 64.6606 18.9218C64.5707 18.7503 64.523 18.5831 64.523 18.4095C64.1452 18.8117 63.7134 19.0858 63.2266 19.2319C62.7397 19.38 62.2561 19.4509 61.783 19.4509C60.9173 19.4509 60.2008 19.1863 59.625 18.6551C59.0557 18.1269 58.7699 17.4062 58.7699 16.4929C58.7699 15.6536 59.0705 14.918 59.6758 14.2894C60.2749 13.665 61.1501 13.2882 62.2952 13.1675L64.3389 12.9305C64.3389 12.1494 64.1674 11.6171 63.8203 11.3324C63.4732 11.0445 63.0805 10.9027 62.6424 10.9027C62.1047 10.9027 61.5988 11.0223 61.1141 11.2572C60.6336 11.4964 60.1934 11.797 59.7923 12.1632L59.3732 10.3174C59.8589 9.97559 60.3722 9.71947 60.913 9.55119C61.4581 9.3808 62.0815 9.29507 62.7895 9.29507C63.2266 9.29507 63.6806 9.3554 64.1484 9.47711C64.6194 9.59988 65.0406 9.80096 65.4184 10.0793C65.8079 10.3619 66.1211 10.7302 66.3699 11.1863C66.6133 11.6425 66.7329 12.2045 66.7329 12.8765V16.858C66.7329 17.2358 66.7657 17.639 66.8249 18.0624C66.8842 18.491 67.008 18.8858 67.1901 19.2488H64.9083ZM64.3579 14.4661L63.1366 14.627C62.5619 14.7011 62.1016 14.8979 61.7481 15.2133C61.3946 15.5298 61.2168 15.9245 61.2168 16.4029C61.2168 16.8273 61.3364 17.167 61.5724 17.4242C61.8084 17.6803 62.0952 17.8073 62.4222 17.8073C62.6784 17.8073 62.9239 17.7703 63.162 17.6973C63.397 17.6242 63.6033 17.4919 63.7748 17.2972C63.9568 17.1003 64.0976 16.8432 64.2034 16.5193C64.3061 16.1976 64.3579 15.7806 64.3579 15.2673V14.4661Z" fill="#231F20"/>
<path d="M75.248 19.2488H71.1733V6.464H75.52C76.591 6.464 77.48 6.736 78.1806 7.28316C78.8781 7.8335 79.2284 8.53835 79.2284 9.40408C79.2284 10.2677 79.0188 10.9503 78.5891 11.4499C78.1648 11.9504 77.6948 12.2912 77.1837 12.4743C77.9266 12.6553 78.5532 12.9929 79.0643 13.4776C79.5755 13.9655 79.8306 14.6418 79.8306 15.5086C79.8306 16.64 79.4379 17.548 78.6526 18.2285C77.8695 18.9101 76.7339 19.2488 75.248 19.2488ZM73.6943 8.05257V11.797H74.6257C75.3178 11.797 75.8427 11.6107 76.1952 11.2403C76.5487 10.8678 76.7275 10.3725 76.7275 9.75015C76.7275 9.24003 76.5783 8.82834 76.2788 8.51719C75.9814 8.20815 75.5559 8.05257 75.0077 8.05257H73.6943ZM73.6943 13.3887V17.6602H75.0077C75.6438 17.6602 76.1687 17.475 76.591 17.1046C77.009 16.7331 77.2218 16.2008 77.2218 15.5086C77.2218 14.7381 76.9699 14.1941 76.4714 13.8735C75.9719 13.5475 75.4099 13.3887 74.7908 13.3887H73.6943Z" fill="#231F20"/>
<path d="M87.1191 19.2488C87.0482 19.2012 86.9646 19.0943 86.8736 18.9218C86.7805 18.7503 86.736 18.5831 86.736 18.4095C86.3561 18.8117 85.9253 19.0858 85.4396 19.2319C84.9506 19.38 84.4691 19.4509 83.996 19.4509C83.1281 19.4509 82.4137 19.1863 81.8391 18.6551C81.2676 18.1269 80.9818 17.4062 80.9818 16.4929C80.9818 15.6536 81.2856 14.918 81.8888 14.2894C82.4878 13.665 83.3631 13.2882 84.5082 13.1675L86.5508 12.9305C86.5508 12.1494 86.3794 11.6171 86.0333 11.3324C85.6861 11.0445 85.2935 10.9027 84.8543 10.9027C84.3166 10.9027 83.8108 11.0223 83.3271 11.2572C82.8466 11.4964 82.4063 11.797 82.0031 12.1632L81.5851 10.3174C82.0719 9.97559 82.5863 9.71947 83.126 9.55119C83.6711 9.3808 84.2944 9.29507 85.0025 9.29507C85.4396 9.29507 85.8936 9.3554 86.3603 9.47711C86.8313 9.59988 87.2525 9.80096 87.6314 10.0793C88.0208 10.3619 88.3341 10.7302 88.5828 11.1863C88.8241 11.6425 88.9458 12.2045 88.9458 12.8765V16.858C88.9458 17.2358 88.9776 17.639 89.0369 18.0624C89.0972 18.491 89.2189 18.8858 89.402 19.2488H87.1191ZM86.5709 14.4661L85.3475 14.627C84.7749 14.7011 84.3124 14.8979 83.96 15.2133C83.6076 15.5298 83.4287 15.9245 83.4287 16.4029C83.4287 16.8273 83.5472 17.167 83.7854 17.4242C84.0214 17.6803 84.3071 17.8073 84.6342 17.8073C84.8913 17.8073 85.1369 17.7703 85.375 17.6973C85.6099 17.6242 85.8153 17.4919 85.9867 17.2972C86.1687 17.1003 86.3106 16.8432 86.4153 16.5193C86.5201 16.1976 86.5709 15.7806 86.5709 15.2673V14.4661Z" fill="#231F20"/>
<path d="M93.1136 9.4767V10.317C93.4406 9.98893 93.8269 9.73705 94.2703 9.55925C94.7159 9.38144 95.1752 9.2936 95.6525 9.2936C96.8199 9.2936 97.7417 9.63439 98.4201 10.317C99.0953 10.9986 99.4308 11.9321 99.4308 13.1132V19.2505H97.0411V13.4603C97.0411 12.7173 96.8739 12.1141 96.5384 11.6516C96.1997 11.1891 95.7308 10.9563 95.1202 10.9563C94.5582 10.9563 94.0904 11.1859 93.7073 11.6421C93.321 12.0972 93.1294 12.73 93.1294 13.5323V19.2505H90.7545V9.4767H93.1136Z" fill="#231F20"/>
<path d="M101.113 19.2488V5.91578H103.486V12.9125L106.594 9.4771H109.133L105.351 13.6628L109.606 19.2488H106.886L103.486 14.8133V19.2488H101.113Z" fill="#231F20"/>
<path d="M17.2768 14.2217C17.2154 13.8555 17.117 13.501 16.9688 13.1729C16.5053 12.1717 15.8586 11.3324 14.8934 10.7662C13.3874 9.8899 11.5692 9.89413 10.0801 10.799C9.40593 11.2054 8.85136 11.7907 8.49469 12.4955C8.37404 12.7337 8.27456 12.9834 8.19518 13.2395C7.80254 14.4863 7.8163 16.1627 8.52327 17.3015C8.75399 17.6719 9.08842 17.9915 9.49377 18.1471C9.90335 18.3048 10.387 18.2868 10.7553 18.0508C11.2284 17.7449 11.3131 17.1607 11.2242 16.6421C11.113 15.9796 11.0273 15.3266 11.2718 14.6778C11.349 14.4715 11.4602 14.2714 11.6189 14.119C11.7163 14.0259 11.8316 13.9508 11.9523 13.8915C12.2095 13.7655 12.5016 13.7105 12.7842 13.756C13.2773 13.8343 13.6806 14.2175 13.8996 14.6662C14.1166 15.1149 14.1769 15.6219 14.2013 16.1225C14.3039 18.2942 13.7853 20.5442 13.2318 22.6302C13.1747 22.8461 13.1154 23.0599 13.0551 23.2748C13.0085 23.4399 12.9239 23.6505 13.0286 23.8103C13.0741 23.878 13.1451 23.9277 13.2213 23.9584C13.544 24.0886 13.8076 23.8907 14.0235 23.6727C15.2977 22.391 16.1126 20.7379 16.6714 19.0382C16.8799 18.4021 17.0588 17.7587 17.1795 17.0993C17.3446 16.1997 17.4377 15.17 17.2768 14.2217Z" fill="#009591"/>
<path d="M26.3967 4.17979C26.3967 3.85382 26.1078 3.63898 25.7988 3.64956C25.4834 3.66015 25.1913 3.82207 24.9023 3.93214C19.2984 6.06153 12.9791 6.46581 7.0735 5.61596C6.06385 5.46991 5.03937 5.26565 4.02336 5.10796C3.38941 5.00953 2.76182 4.86348 2.12046 4.81797C1.5733 4.77458 0.892782 4.75447 0.450395 5.13548C-0.131694 5.63819 -0.0904175 6.5907 0.239785 7.22147C0.636664 7.97818 1.33094 8.5444 2.05484 8.9762C2.75758 9.39425 3.59473 9.84087 4.43082 9.78795C6.68827 9.64296 8.93936 9.42388 11.182 9.13389C15.0068 8.63753 19.018 8.16869 22.61 6.68383C23.7847 6.19911 24.9457 5.5948 25.9512 4.81268C26.1343 4.67298 26.3967 4.44544 26.3967 4.17979Z" fill="#009591"/>
<path d="M10.3262 2.25853C10.3262 3.47668 11.3136 4.46411 12.5307 4.46411C13.7478 4.46411 14.7352 3.47668 14.7352 2.25853C14.7352 2.07861 14.6929 1.89551 14.6167 1.73147C14.4262 1.33036 14.2135 1.13668 14.2357 0.655136C14.2632 0.00954723 13.4345 2.19345e-05 12.9868 2.19345e-05C12.5 2.19345e-05 11.9814 0.0688143 11.5411 0.288949C11.1908 0.465693 10.8892 0.737687 10.6765 1.06577C10.4574 1.4055 10.3357 1.8045 10.3262 2.20878V2.25853Z" fill="#ED1651"/>
</g>
<defs>
<clipPath id="clip0_45_4273">
<rect width="109.606" height="24" fill="white"/>
</clipPath>
</defs>
</svg>
