<svg width="74" height="24" viewBox="0 0 74 24" fill="none" xmlns="http://www.w3.org/2000/svg">
<g clip-path="url(#clip0_45_4275)">
<path d="M33.1472 12.3157L32.8561 12.13C31.8625 11.1384 30.4789 10.7086 28.629 10.8167C27.0889 10.9109 25.8671 11.5218 24.9346 12.0889C24.9346 12.0749 24.9332 12.061 24.9332 12.0471C24.9332 11.5642 24.9876 11.0416 25.042 10.5335C25.0951 10.0175 25.1508 9.49215 25.1508 8.99535C25.1508 8.48795 25.0937 8.00707 24.9186 7.59584C24.8749 7.49038 24.7774 7.42737 24.6547 7.42737C24.1572 7.43864 23.1855 7.7789 22.95 7.98585C22.95 7.98717 22.822 8.26641 22.822 8.26641C22.8141 8.81759 22.6927 10.3557 22.5693 10.5428C22.5746 10.5361 22.5043 10.7285 22.5043 10.7285C22.2947 12.9259 22.2907 14.8581 22.4837 16.5169C22.5056 16.6827 22.826 16.9315 23.0721 17.0217C23.3427 17.1218 24.189 16.895 24.6772 16.7119C24.6706 16.7139 24.8596 16.6827 24.8596 16.6827C25.0135 16.6661 25.1044 16.5361 25.0977 16.3604C25.0951 16.3564 25.1097 15.8828 25.1097 15.8828C25.4619 14.4515 26.8872 12.7429 28.574 12.4862C29.5278 12.335 30.2799 12.5804 30.8749 13.2277C30.9551 13.3445 31.1289 14.3745 30.5008 15.5585C30.0332 16.4347 29.0979 17.1742 27.8669 17.6352C26.7022 18.0783 25.4207 18.2567 23.8382 18.2023C23.7718 18.1598 22.3564 17.2001 22.3564 17.2001C21.1008 16.3186 19.5415 15.2222 18.128 14.6856C17.8793 14.5901 17.4349 14.2206 17.1669 13.9991L17.0203 13.8791C16.2052 13.2257 14.6538 12.1904 13.4075 11.3613C13.4075 11.3613 12.845 10.9839 12.7362 10.9109C12.7376 10.8645 12.7376 10.7703 12.7376 10.7703C12.774 10.7305 13.5574 10.2609 13.5574 10.2609C14.6531 9.6195 15.1599 9.3051 15.2673 9.1426C15.2454 9.16913 15.4126 9.05704 15.4126 9.05704C15.4232 9.05239 18.1307 7.51956 18.1307 7.51956C20.74 6.08688 23.6949 4.45987 25.247 2.85275C25.2496 2.85076 25.3232 2.60667 25.3232 2.60667L25.3551 2.38779C25.4585 2.04355 25.4639 1.78089 25.377 1.47512C25.3551 1.38757 25.2748 1.28675 25.1674 1.26752C23.9549 1.14614 22.3922 1.87309 20.9688 3.20826C20.6478 3.50873 20.3778 3.65664 20.0933 3.81118L19.8751 3.93322C18.3064 4.82533 14.7725 7.01879 12.9213 8.20274C13.0433 6.21291 13.4108 3.38271 13.8645 1.02343L13.8141 0.741538C13.8088 0.732252 13.6224 0.384695 13.6224 0.384695L13.4778 0.129334L13.436 0.118058C13.0665 -0.0683228 12.7648 0.00729076 12.5432 0.0623427L12.1738 0.198978L11.6803 0.378062C11.5835 0.397297 11.5145 0.457656 11.4767 0.551841C10.5932 2.68759 9.85629 6.2003 9.68119 9.01061C7.91554 7.88768 6.28322 7.07981 5.48264 6.6898L5.46076 6.6772L5.36591 6.65664C5.07805 6.6195 4.72717 6.40791 4.39023 6.20362C4.35375 6.18173 3.71767 5.76785 3.71767 5.76785L2.69224 5.11054C2.69954 5.11717 2.42096 5.04886 2.42096 5.04886C1.98054 5.12513 1.13487 5.69356 0.883484 6.08091C0.850984 6.13265 0.837055 6.1877 0.837055 6.24541C0.837055 6.32765 0.862923 6.40924 0.883484 6.48949L0.928587 6.69843L0.976343 6.82378C1.46849 7.32788 2.70949 8.16758 3.92593 8.82224L5.33672 9.56975L7.49635 10.7491C7.49635 10.759 7.86447 11.0416 7.86447 11.0416L8.11851 11.1875C8.11851 11.1875 8.14835 11.2047 8.16494 11.216C7.58987 11.6014 4.23701 13.8393 4.23701 13.8393L2.17223 15.2076C1.97656 15.3403 1.16206 15.7051 0.981649 15.7774C0.534601 15.9598 0.195003 16.2397 0.0557152 16.5434L0 16.6635L0.0557152 16.7424L0.213575 16.8625C0.205616 16.8625 0.424497 17.0004 0.424497 17.0004L0.652664 17.1563C0.65797 17.1583 0.867566 17.1908 0.867566 17.1908C1.23038 17.2047 1.76763 16.9978 2.77316 16.5574C3.6971 16.1488 6.20495 14.6352 7.27747 13.9892L7.73447 13.7152C7.9235 13.7305 8.13111 13.5706 8.31749 13.4307C8.53239 13.2589 9 12.9717 9.28521 12.8457C9.29449 12.843 9.45634 12.7522 9.61022 12.6666C9.60889 12.7137 9.60756 12.7893 9.60756 12.7893C9.65532 16.0699 9.84302 18.4543 10.2019 20.2929L10.2072 20.3241L10.2423 20.3984C10.4187 20.6571 10.6191 21.4351 10.7981 22.1203L11.2061 23.4893C11.2153 23.5059 11.3215 23.618 11.3215 23.618C11.5549 23.7765 12.266 24.0491 12.7402 23.9927L12.8583 23.9788L12.9339 23.8116C12.9744 23.6067 12.9883 23.4057 12.9883 23.1842C12.9883 22.9341 12.9704 22.6589 12.9478 22.3206L12.9153 21.8271C12.7648 19.5375 12.6149 16.231 12.6149 14.0329C12.6149 13.9713 12.6149 13.9155 12.6149 13.8578C13.0049 14.1013 14.7055 15.1738 14.7055 15.1738C17.602 17.0528 21.977 19.891 24.6208 20.6412C24.7581 20.683 24.9034 20.6511 25.0042 20.5536C25.0082 20.5483 25.4108 20.2923 25.4108 20.2923L25.4871 20.2611C25.639 20.1888 25.7398 19.9334 25.7577 19.6562C27.9856 19.5441 31.0937 18.6858 32.7572 16.5952C33.4013 15.784 33.6898 14.7917 33.6898 13.9421C33.6911 13.247 33.4981 12.646 33.1472 12.3157Z" fill="#FCAF16"/>
<path d="M41.342 3.33362H43.9421V10.621L52.69 3.33362H56.3719L47.1252 10.6867L57.1386 19.6144H53.4614L43.9421 10.891V19.6144H41.342V3.33362Z" fill="#776C61"/>
<path d="M58.9514 3.36682H66.9545C70.7603 3.36682 72.7515 4.63235 72.7515 7.39755C72.7515 9.36483 71.3785 10.7179 69.5518 11.0814V11.1504C72.1711 11.4608 73.4108 13.182 73.4108 15.1181C73.4108 17.5477 71.6292 19.6503 67.2078 19.6503H58.9514V3.36682ZM61.5448 10.2264H66.8264C68.7864 10.2264 70.2363 9.48091 70.2363 7.74378C70.2363 6.23085 69.5227 5.22201 66.526 5.22201H61.5448V10.2264ZM61.5448 17.8024H66.6633C69.8424 17.8024 70.6854 16.5601 70.6854 14.9841C70.6854 13.1117 69.39 12.0756 66.526 12.0756H61.5448V17.8024Z" fill="#776C61"/>
</g>
<defs>
<clipPath id="clip0_45_4275">
<rect width="73.4115" height="24" fill="white"/>
</clipPath>
</defs>
</svg>
