<svg width="192" height="50" viewBox="0 0 192 50" fill="none" xmlns="http://www.w3.org/2000/svg">
<g id="Kotak Mahindra" clip-path="url(#clip0_4_1247)">
<path id="Vector" fill-rule="evenodd" clip-rule="evenodd" d="M29.2716 50.0001C13.1461 50.0001 0 38.7805 0 25C0 11.2196 13.1461 0 29.2716 0C45.397 0 58.5737 11.2196 58.5737 25C58.5737 38.7805 45.397 50.0001 29.2716 50.0001Z" fill="#004A8F"/>
<path id="Vector_2" fill-rule="evenodd" clip-rule="evenodd" d="M48.0692 27.439L51.325 27.5914C49.3899 41.067 36.5203 42.0427 30.0394 28.9939L30.8686 27.5914C37.5952 31.8292 45.4584 33.4146 48.0692 27.439Z" fill="white"/>
<path id="Vector_3" fill-rule="evenodd" clip-rule="evenodd" d="M25.9235 7.92684L32.4351 5.82318L32.7116 42.5L25.6164 44.8781L25.9235 7.92684Z" fill="#ED1C24"/>
<path id="Vector_4" fill-rule="evenodd" clip-rule="evenodd" d="M48.2227 22.5914H51.2942C50.1271 16.4938 46.9941 12.561 40.9125 12.0122C35.8445 12.0122 31.6979 15.061 27.9814 20.7622C25.647 24.2988 21.8385 29.9086 17.3233 30.5183C16.2498 30.8114 15.1126 30.7797 14.0574 30.4271C13.0022 30.0746 12.0771 29.4173 11.4006 28.5395C10.7242 27.6617 10.3272 26.6034 10.2606 25.5002C10.194 24.3971 10.4607 23.2993 11.0267 22.3476C11.9663 21.1545 13.2018 20.2238 14.6123 19.6466C16.0229 19.0695 17.5604 18.8655 19.0741 19.0549C21.4549 19.2329 23.7645 19.9415 25.8313 21.128V15.9145C24.7042 14.8421 23.4574 13.9011 22.1149 13.1097C20.358 12.1739 18.3384 11.8416 16.3712 12.1646C8.07812 13.9634 6.57307 20.7012 8.10882 29.6646C11.3339 40.0304 21.3778 40.8232 27.1522 34.1769C31.1145 29.4513 40.9432 13.5975 48.192 22.5914H48.2227Z" fill="white"/>
<path id="Vector_5" fill-rule="evenodd" clip-rule="evenodd" d="M92.4523 31.4939C93.6043 31.6266 94.7717 31.5171 95.8782 31.1726C96.9847 30.828 98.0057 30.256 98.8749 29.4939C99.744 28.7318 100.442 27.7968 100.923 26.7494C101.404 25.702 101.657 24.5657 101.667 23.4146C101.667 20.9888 100.696 18.6624 98.9681 16.9471C97.24 15.2318 94.8962 14.2682 92.4523 14.2682C90.0085 14.2682 87.6649 15.2318 85.9368 16.9471C84.2088 18.6624 83.2378 20.9888 83.2378 23.4146C83.2473 24.5657 83.501 25.702 83.9821 26.7494C84.4631 27.7968 85.1608 28.7318 86.03 29.4939C86.8992 30.256 87.9202 30.828 89.0267 31.1726C90.1332 31.5171 91.3004 31.6266 92.4523 31.4939ZM92.4523 27.7135C90.0259 27.7135 88.951 25.5792 88.951 23.4146C88.951 21.25 90.0259 18.8719 92.4523 18.8719C94.8788 18.8719 95.9847 21.0061 95.9847 23.4146C95.9847 25.8231 94.8788 27.7135 92.4523 27.7135ZM101.114 19.3902H104.186V25.4877C104.186 29.2377 105.537 31.4024 110.329 31.4024C111.68 31.4024 112.509 31.1281 113.584 31.1281L113.308 27.6219C112.755 27.6219 112.233 27.8964 111.68 27.8964C110.052 27.8964 109.53 26.8293 109.53 24.8476V19.2073H113.308V15.4573H109.53V10.0914L104.431 12.1951V15.6708H101.176V19.4207L101.114 19.3902ZM132.075 31.2195H137.512V23.4146H137.757L142.088 31.2195H148.6L142.641 22.6219L148.047 15.6402H142.211L137.88 22.0731H137.634V10.2744L132.075 12.1951V31.25V31.2195ZM68.8019 31.2195H74.2076V23.4146L78.5385 31.2195H85.0193L79.3371 22.6219L84.743 15.6402H78.9378L74.3306 22.0731V10.2744L68.9247 11.8903V31.2195H68.8019ZM130.232 31.2195C130.003 29.9832 129.91 28.7258 129.956 27.4695V21.5549C129.956 16.7073 126.454 15.0915 122.369 15.0915C120.268 15.0421 118.178 15.4154 116.226 16.189V19.9389C117.826 19.1838 119.584 18.818 121.355 18.8719C123.26 18.8719 124.887 19.3902 124.887 21.5549C124.093 21.3128 123.259 21.2197 122.43 21.2804C119.359 21.2804 114.076 21.8292 114.076 26.6463C114.076 30.1524 117.147 31.4939 120.004 31.4939C121.028 31.5539 122.05 31.3358 122.959 30.8631C123.868 30.3904 124.63 29.6811 125.164 28.811C125.164 29.6037 125.41 30.3963 125.41 31.2195H130.232ZM119.144 26.128C119.144 24.7561 120.772 24.2378 122.645 24.2378H124.826C124.878 25.1596 124.567 26.0653 123.96 26.7646C123.353 27.464 122.496 27.9024 121.57 27.9878C120.219 27.9878 119.144 27.1951 119.144 26.128Z" fill="#ED1C24"/>
<path id="Vector_6" fill-rule="evenodd" clip-rule="evenodd" d="M150.504 11.0671C150.945 11.0739 151.378 11.1891 151.763 11.4024C152.173 11.6099 152.506 11.9407 152.715 12.3475C152.936 12.7276 153.053 13.1588 153.053 13.5976C153.053 14.0365 152.936 14.4675 152.715 14.8475C152.508 15.2454 152.188 15.574 151.794 15.7927C151.397 16.0061 150.955 16.1211 150.504 16.128C150.063 16.1211 149.63 16.0059 149.245 15.7927C148.851 15.574 148.53 15.2454 148.323 14.8475C148.102 14.4675 147.986 14.0365 147.986 13.5976C147.986 13.1588 148.102 12.7276 148.323 12.3475C148.525 11.9354 148.86 11.6025 149.275 11.4024C149.65 11.1892 150.072 11.0738 150.504 11.0671ZM150.504 11.494C150.138 11.4983 149.779 11.5925 149.459 11.7682C149.132 11.94 148.865 12.2056 148.692 12.5304C148.492 12.8512 148.386 13.2206 148.385 13.5976C148.385 13.961 148.48 14.3181 148.661 14.6341C148.846 14.9578 149.114 15.2273 149.437 15.4147C149.761 15.6022 150.129 15.7011 150.504 15.7013C150.88 15.7007 151.249 15.6063 151.579 15.4268C151.907 15.2425 152.174 14.967 152.347 14.6341C152.528 14.3181 152.623 13.961 152.623 13.5976C152.619 13.225 152.524 12.8589 152.347 12.5304C152.161 12.2045 151.884 11.9396 151.548 11.7682C151.23 11.5888 150.87 11.4943 150.504 11.494ZM149.398 14.9999V12.1951H150.35H151.026C151.172 12.2502 151.3 12.3454 151.395 12.4696C151.499 12.5994 151.556 12.7605 151.556 12.9268C151.556 13.093 151.499 13.2544 151.395 13.3842C151.235 13.5314 151.028 13.6176 150.811 13.6279L151.057 13.7805C151.208 13.9386 151.342 14.1123 151.456 14.2988L151.794 14.8475H151.241L150.995 14.4207C150.883 14.1807 150.727 13.9638 150.535 13.7805C150.426 13.7409 150.306 13.7409 150.197 13.7805H149.92V14.9391L149.398 14.9999ZM149.828 13.4755H150.504C150.675 13.5223 150.855 13.5223 151.026 13.4755C151.064 13.3774 151.064 13.2689 151.026 13.1707C151.049 13.1015 151.049 13.0265 151.026 12.9573C151.007 12.9209 150.981 12.8886 150.95 12.8624C150.918 12.8362 150.881 12.8167 150.842 12.8049H149.89V13.6279L149.828 13.4755Z" fill="#004A8F"/>
<path id="Vector_7" d="M75.7128 45.7317H74.2691L70.5832 41.4939L70.3376 41.1891V45.7317H69.324V36.5854H70.3376V40.9451L70.5832 40.6403L74.1463 36.5854H75.4362L71.3818 41.0367L75.7128 45.8536V45.7317ZM76.2041 42.683C76.1503 41.7278 76.4692 40.7888 77.0948 40.061C77.4189 39.7383 77.8083 39.4872 78.237 39.3243C78.6658 39.1615 79.1243 39.0904 79.5827 39.1159C80.0097 39.101 80.4352 39.1745 80.8318 39.332C81.2285 39.4895 81.5876 39.7274 81.8863 40.0305C82.473 40.7408 82.7691 41.6441 82.7157 42.5611C82.7682 43.4884 82.4479 44.3983 81.825 45.0914C81.5214 45.4174 81.1497 45.6736 80.7358 45.8421C80.322 46.0106 79.876 46.0874 79.4292 46.0671C78.9949 46.0824 78.5622 46.0061 78.1598 45.8432C77.7574 45.6803 77.3944 45.4344 77.0948 45.1219C76.4862 44.4569 76.1662 43.5806 76.2041 42.683ZM77.2178 42.683C77.189 43.3656 77.4069 44.0359 77.8321 44.5732C78.0422 44.8007 78.2989 44.9809 78.585 45.1018C78.8711 45.2228 79.1798 45.2816 79.4907 45.2743C79.7981 45.2899 80.1049 45.2348 80.3873 45.1132C80.6697 44.9916 80.92 44.8067 81.1185 44.5732C81.5423 44.0249 81.7498 43.3419 81.7021 42.6524C81.7385 41.9549 81.5324 41.266 81.1185 40.7012C80.9184 40.4713 80.6671 40.291 80.3845 40.1746C80.1019 40.0581 79.7959 40.0089 79.4907 40.0305C79.1798 40.0233 78.8711 40.0821 78.585 40.203C78.2989 40.324 78.0422 40.5042 77.8321 40.7317C77.4072 41.2925 77.1902 41.9818 77.2178 42.683ZM87.4765 45.7317C87.1859 45.891 86.8557 45.9651 86.5243 45.9452C85.3572 45.9452 84.8043 45.3049 84.8043 44.0244V40.0305H83.6371V39.1768H84.8043V37.561L85.7872 37.2257V39.1768H87.4765V40.0305H85.7872V43.8415C85.758 44.1847 85.8445 44.5279 86.033 44.8171C86.1312 44.9183 86.2515 44.9956 86.3847 45.0432C86.5178 45.0908 86.6602 45.1073 86.8009 45.0914C87.045 45.1062 87.2859 45.0301 87.4765 44.878V45.7317ZM89.1045 39.6342C89.771 39.2039 90.5517 38.9809 91.3466 38.9939C92.8824 38.9939 93.681 39.8172 93.681 41.433V45.7317H92.6674V44.6951C92.4729 45.0685 92.1772 45.3806 91.8136 45.5961C91.45 45.8116 91.0329 45.9219 90.6095 45.9147C90.3246 45.9326 90.039 45.8932 89.7698 45.7989C89.5006 45.7046 89.2534 45.5574 89.043 45.3659C88.8566 45.1903 88.7108 44.9767 88.6154 44.7399C88.52 44.5031 88.4772 44.2486 88.4902 43.9939C88.4902 42.7744 89.1967 42.0426 90.671 41.8292L92.6981 41.5549C92.6981 40.3964 92.2373 39.8171 91.2851 39.8171C90.488 39.8041 89.7171 40.0994 89.1352 40.6403V39.6342H89.1045ZM91.0088 42.683C90.5866 42.7115 90.1815 42.8596 89.8416 43.1098C89.6235 43.3414 89.5023 43.6464 89.5023 43.9634C89.5023 44.2804 89.6235 44.5856 89.8416 44.8171C90.1095 45.0332 90.4492 45.1419 90.7938 45.1219C91.0405 45.128 91.2857 45.0824 91.5133 44.9878C91.7409 44.8932 91.9458 44.7519 92.1145 44.5732C92.4822 44.1868 92.681 43.6717 92.6674 43.1403V42.4695L91.0088 42.683ZM101.176 45.7317H99.7318L96.6603 42.683V45.7317H95.6468V35.9756H96.6603V42.0732L99.517 39.0244H100.838L97.7662 42.0732L101.145 45.4878L101.176 45.7317ZM113.953 45.7317V39.6342C113.953 39.1464 113.953 38.567 113.953 37.8353C113.902 38.1412 113.809 38.4388 113.677 38.7196L110.574 45.7317H110.114L106.858 38.5975C106.745 38.2991 106.653 37.9935 106.581 37.6829C106.623 38.2716 106.623 38.8625 106.581 39.4513V45.7317H105.598V36.5854H106.919L109.991 43.1098C110.169 43.4648 110.323 43.8315 110.452 44.2073L110.912 43.0793L113.984 36.5854H115.274V45.7317H113.953ZM117.454 39.6342C118.132 39.2032 118.923 38.9804 119.727 38.9939C121.263 38.9939 122.062 39.8172 122.062 41.433V45.7317H121.048V44.6951C120.859 45.066 120.569 45.377 120.21 45.5925C119.852 45.8081 119.44 45.9197 119.021 45.9147C118.736 45.9326 118.45 45.8932 118.181 45.7989C117.912 45.7046 117.665 45.5574 117.454 45.3659C117.257 45.1973 117.102 44.9857 117.001 44.7477C116.9 44.5097 116.855 44.2518 116.871 43.9939C116.871 42.7744 117.608 42.0426 119.082 41.8292L121.11 41.5549C121.11 40.3964 120.618 39.8171 119.697 39.8171C118.893 39.8175 118.117 40.1104 117.516 40.6403V39.6342H117.454ZM119.39 42.683C118.959 42.7183 118.546 42.8656 118.192 43.1098C118.072 43.2288 117.979 43.3722 117.921 43.5302C117.863 43.6881 117.84 43.8568 117.854 44.0244C117.849 44.1759 117.88 44.3264 117.944 44.464C118.008 44.6015 118.103 44.7225 118.222 44.8171C118.49 45.0332 118.83 45.1419 119.174 45.1219C119.421 45.128 119.666 45.0824 119.894 44.9878C120.122 44.8932 120.326 44.7519 120.495 44.5732C120.863 44.1868 121.062 43.6717 121.048 43.1403V42.4695L119.39 42.683ZM129.556 45.7317H128.573V41.9208C128.573 40.5183 128.051 39.8171 126.976 39.8171C126.72 39.8183 126.468 39.8731 126.235 39.9782C126.002 40.0833 125.794 40.2363 125.625 40.4269C125.255 40.8588 125.068 41.416 125.102 41.9818V45.7317H124.089V35.9756H125.102V40.244C125.313 39.8552 125.629 39.5323 126.014 39.3115C126.399 39.0907 126.839 38.9808 127.283 38.9939C128.788 38.9939 129.525 39.8781 129.525 41.7073V45.7317H129.556ZM131.491 36.5854C131.487 36.4053 131.553 36.2307 131.676 36.0977C131.801 35.9819 131.965 35.9175 132.136 35.9175C132.307 35.9175 132.472 35.9819 132.597 36.0977C132.666 36.1589 132.721 36.234 132.758 36.3182C132.795 36.4023 132.814 36.4935 132.812 36.5854C132.816 36.6731 132.798 36.7604 132.761 36.84C132.723 36.9195 132.667 36.9892 132.597 37.0428C132.537 37.1034 132.465 37.1508 132.386 37.1823C132.307 37.2138 132.222 37.2287 132.136 37.2257C132.049 37.2354 131.961 37.2254 131.878 37.1967C131.796 37.1679 131.72 37.121 131.659 37.0595C131.597 36.998 131.549 36.9235 131.521 36.8414C131.492 36.7594 131.482 36.6718 131.491 36.5854ZM131.491 45.7317V39.1159H132.505V45.7317H131.491ZM140.184 45.7317H139.17V41.9513C139.17 40.5183 138.648 39.8171 137.604 39.8171C137.343 39.8139 137.084 39.8667 136.845 39.9719C136.607 40.0772 136.394 40.2324 136.221 40.4269C135.869 40.8567 135.684 41.3975 135.699 41.9513V45.7317H134.686V39.1159H135.699V40.2134C135.91 39.8247 136.226 39.5019 136.611 39.2812C136.996 39.0604 137.436 38.9504 137.88 38.9635C138.197 38.9476 138.513 39.0022 138.805 39.1236C139.097 39.2449 139.359 39.4299 139.569 39.6647C140.004 40.2542 140.211 40.979 140.153 41.7073V45.7317H140.184ZM147.862 45.7317H146.849V44.6037C146.629 45.0159 146.296 45.3577 145.888 45.5898C145.48 45.8218 145.015 45.9344 144.545 45.9147C144.163 45.929 143.784 45.8536 143.437 45.6947C143.09 45.5358 142.785 45.2978 142.549 45.0001C142.013 44.3132 141.74 43.4593 141.781 42.5914C141.725 41.6411 142.032 40.7048 142.641 39.9695C142.905 39.6419 143.242 39.3803 143.626 39.2056C144.01 39.0309 144.43 38.948 144.852 38.9635C145.256 38.9345 145.66 39.0227 146.015 39.2175C146.369 39.4124 146.659 39.7056 146.849 40.061V35.9756H147.862V45.7317ZM146.849 41.7684C146.858 41.2469 146.659 40.7429 146.296 40.3659C146.12 40.1878 145.91 40.0473 145.677 39.9529C145.445 39.8586 145.196 39.8124 144.945 39.8171C144.639 39.8051 144.335 39.8652 144.057 39.9924C143.78 40.1196 143.536 40.3102 143.347 40.5488C142.953 41.1329 142.759 41.8281 142.794 42.5306C142.76 43.1854 142.955 43.8318 143.347 44.3597C143.512 44.5845 143.73 44.7658 143.981 44.888C144.233 45.0102 144.511 45.0697 144.791 45.0611C145.073 45.0731 145.353 45.0184 145.609 44.9018C145.866 44.7852 146.09 44.6099 146.265 44.3903C146.664 43.9473 146.873 43.3679 146.849 42.7745V41.7684ZM153.483 40.1524C153.25 39.9918 152.968 39.9164 152.685 39.939C152.447 39.9364 152.214 39.9974 152.008 40.1154C151.803 40.2334 151.633 40.4042 151.518 40.6098C151.192 41.13 151.031 41.7356 151.057 42.3476V45.7317H150.043V39.1159H151.057V40.4879C151.192 40.0672 151.435 39.6886 151.763 39.3902C152.053 39.1399 152.423 38.9995 152.808 38.9939C153.021 38.9549 153.239 38.9549 153.453 38.9939V40.061L153.483 40.1524ZM154.804 39.6037C155.471 39.1734 156.251 38.9506 157.046 38.9635C158.613 38.9635 159.381 39.7867 159.381 41.4025V45.7317H158.367V44.6951C158.175 45.0708 157.88 45.3849 157.516 45.6007C157.152 45.8166 156.733 45.9255 156.309 45.9147C155.735 45.9407 155.173 45.7439 154.743 45.3659C154.556 45.1903 154.41 44.9767 154.315 44.7399C154.219 44.5031 154.177 44.2486 154.19 43.9939C154.19 42.7744 154.927 42.0426 156.37 41.8292L158.398 41.5549C158.398 40.3964 157.937 39.8171 157.016 39.8171C156.212 39.8175 155.436 40.1104 154.835 40.6403V39.6342L154.804 39.6037ZM156.739 42.6524C156.306 42.6751 155.89 42.8236 155.541 43.0793C155.421 43.1983 155.329 43.3417 155.271 43.4997C155.212 43.6576 155.189 43.8262 155.203 43.9939C155.199 44.1454 155.229 44.2958 155.293 44.4334C155.357 44.571 155.453 44.692 155.572 44.7866C155.83 44.9981 156.159 45.1067 156.493 45.0914C156.745 45.098 156.994 45.0527 157.227 44.9582C157.46 44.8637 157.67 44.7222 157.845 44.5427C158.191 44.1451 158.377 43.635 158.367 43.1098V42.439L156.739 42.6524ZM164.664 45.7012V36.5549H167.274C167.949 36.5168 168.615 36.7226 169.148 37.1342C169.375 37.3248 169.556 37.5633 169.678 37.8323C169.801 38.1013 169.861 38.394 169.854 38.6891C169.878 39.173 169.726 39.6494 169.424 40.0305C169.141 40.4355 168.731 40.7357 168.257 40.8841C168.833 40.9114 169.374 41.1636 169.762 41.5854C170.143 42.0127 170.341 42.5704 170.315 43.1403C170.329 43.5015 170.262 43.861 170.118 44.1932C169.975 44.5254 169.759 44.8219 169.486 45.0611C168.874 45.563 168.098 45.8235 167.305 45.7928L164.664 45.7012ZM165.677 37.3781V40.4269H166.814C167.33 40.4541 167.84 40.3033 168.257 40C168.435 39.8456 168.575 39.6524 168.666 39.4356C168.756 39.2188 168.795 38.9843 168.779 38.7501C168.779 37.8355 168.196 37.3781 166.967 37.3781H165.677ZM165.677 41.372V44.7561H167.182C167.732 44.7884 168.276 44.6265 168.718 44.2989C168.9 44.146 169.044 43.9539 169.14 43.7373C169.236 43.5207 169.281 43.2852 169.271 43.0488C169.271 41.9207 168.472 41.372 166.936 41.372H165.677ZM172.25 39.5731C172.928 39.1422 173.719 38.9195 174.523 38.933C176.059 38.933 176.827 39.7561 176.827 41.372V45.7317H175.844V44.6951C175.655 45.066 175.364 45.377 175.006 45.5925C174.648 45.8081 174.236 45.9197 173.817 45.9147C173.532 45.9326 173.246 45.8932 172.977 45.7989C172.708 45.7046 172.461 45.5574 172.25 45.3659C172.053 45.1973 171.898 44.9857 171.797 44.7477C171.695 44.5097 171.651 44.2518 171.667 43.9939C171.667 42.7744 172.404 42.0426 173.878 41.8292L175.875 41.5549C175.875 40.3964 175.414 39.8171 174.492 39.8171C173.689 39.8175 172.913 40.1104 172.312 40.6403V39.6342L172.25 39.5731ZM174.185 42.6219C173.755 42.6573 173.342 42.8046 172.987 43.0488C172.868 43.1678 172.775 43.3112 172.717 43.4692C172.659 43.6271 172.636 43.7957 172.65 43.9634C172.645 44.1149 172.676 44.2653 172.74 44.4029C172.804 44.5405 172.899 44.6615 173.018 44.7561C173.286 44.9722 173.626 45.0811 173.97 45.0611C174.217 45.0672 174.462 45.0213 174.69 44.9267C174.917 44.8322 175.122 44.6908 175.291 44.5121C175.469 44.3193 175.607 44.0936 175.696 43.8476C175.786 43.6017 175.826 43.3405 175.813 43.0793V42.4085L174.185 42.6219ZM184.352 45.6707H183.338V41.8902C183.338 40.4573 182.816 39.7561 181.772 39.7561C181.515 39.7511 181.26 39.8033 181.026 39.9088C180.793 40.0143 180.585 40.1705 180.42 40.3659C180.044 40.7838 179.846 41.3302 179.868 41.8902V45.7317H178.885V39.1159H179.868V40.2134C180.086 39.8246 180.408 39.5025 180.798 39.2821C181.187 39.0618 181.631 38.9517 182.079 38.9635C182.392 38.9431 182.705 38.9958 182.993 39.1176C183.281 39.2394 183.536 39.4269 183.738 39.6647C184.172 40.2542 184.38 40.979 184.321 41.7073V45.7317L184.352 45.6707ZM191.877 45.6707H190.434L187.362 42.6219V45.6707H186.348V35.9756H187.362V42.0732L190.219 39.0244H191.539L188.468 42.0732L191.877 45.4878V45.6707Z" fill="#003974"/>
</g>
<defs>
<clipPath id="clip0_4_1247">
<rect width="192" height="50" fill="white"/>
</clipPath>
</defs>
</svg>
