<svg width="81" height="24" viewBox="0 0 81 24" fill="none" xmlns="http://www.w3.org/2000/svg">
<g clip-path="url(#clip0_45_4303)">
<path fill-rule="evenodd" clip-rule="evenodd" d="M0.177612 12C0.177612 5.37307 6.42402 0 14.1302 0C21.8365 0 28.0823 5.37307 28.0823 12C28.0823 18.6269 21.8359 24 14.1302 24C6.42455 24 0.177612 18.6277 0.177612 12Z" fill="#003874"/>
<path fill-rule="evenodd" clip-rule="evenodd" d="M12.436 3.85389L15.6776 2.78284L15.6936 20.3063L12.4246 21.4015L12.436 3.85389ZM46.1553 18.9369C49.2705 18.9369 51.643 17.1253 51.643 14.0077C51.643 10.873 49.2705 9.05825 46.1553 9.05825C43.0419 9.05825 40.6691 10.8677 40.6691 14.0077C40.6691 17.1256 43.0416 18.9369 46.1553 18.9369ZM46.1553 16.6543C44.6529 16.6543 44.0379 15.4036 44.0379 14.0077C44.0379 12.5934 44.6499 11.3467 46.1553 11.3467C47.6606 11.3467 48.2742 12.5958 48.2742 14.0077C48.2742 15.4036 47.6622 16.6543 46.1553 16.6543ZM51.3437 11.5612H53.2064V15.4036C53.2064 17.6495 53.9126 18.9369 56.8269 18.9369C57.642 18.9369 58.2585 18.8305 58.8759 18.756L58.7694 16.6362C58.4437 16.6902 58.0997 16.7626 57.7742 16.7626C56.7417 16.7626 56.4695 16.1825 56.4695 15.041V11.5612H58.7513V9.27805H56.4695L56.4687 6.01301L53.2654 7.15724V9.27805H51.3458V11.5612M70.159 18.72H73.4187V14.0447H73.4544L76.0627 18.72H80.0073L76.4576 13.6096L79.7348 9.27858H76.1683L73.452 13.2472H73.4163V6.02525L70.1563 7.15804V18.7227" fill="#ED1C24"/>
<path fill-rule="evenodd" clip-rule="evenodd" d="M31.9897 18.72H35.2505V14.0447H35.2862L37.8945 18.72H41.8415L38.2918 13.6096L41.5693 9.27884H38.0028L35.2867 13.2474H35.2511V6.02551L31.9903 7.10055V18.72M68.9993 18.7639C68.8522 18.0127 68.8131 17.2605 68.8131 16.5079V12.9502C68.8131 10.0338 66.7048 8.98533 64.2676 8.98533C62.8567 8.98533 61.6284 9.1865 60.4559 9.66388L60.5092 11.901C61.424 11.3882 62.4876 11.1825 63.5507 11.1825C64.7423 11.1825 65.7127 11.5316 65.7311 12.8337C65.2224 12.75 64.7078 12.7072 64.1922 12.7057C62.436 12.7057 59.263 13.0548 59.263 15.9707C59.263 18.0431 60.949 18.9776 62.8362 18.9776C64.1922 18.9776 65.1082 18.4454 65.8602 17.2541H65.9041C65.9041 17.749 65.9589 18.2445 65.9772 18.7576H69.002L68.9993 18.7639ZM62.3458 15.7384C62.3458 14.8209 63.2258 14.4728 64.3434 14.4728C64.8383 14.4728 65.3157 14.5093 65.7362 14.5276C65.7362 15.6469 64.9485 16.7828 63.7032 16.7828C62.9328 16.7828 62.3458 16.3981 62.3458 15.7384Z" fill="#ED1C24"/>
<path fill-rule="evenodd" clip-rule="evenodd" d="M24.6231 13.2081C24.3189 15.7148 22.9129 18.2472 19.8426 18.252C18.0502 18.2552 16.65 17.0279 15.6803 15.5264V13.7871C16.8937 14.3896 18.0278 15.0362 19.4038 15.0559C21.0989 15.0809 22.6316 14.4292 23.2655 13.2078H24.6234L24.6231 13.2081ZM14.3597 14.7821C12.9512 16.4798 11.5901 18.214 9.03981 18.214C5.43763 18.214 3.729 14.7312 3.729 11.8196C3.729 9.02183 5.06429 5.70996 8.5736 5.70996C10.0957 5.70996 11.5608 6.64078 12.4342 7.62534L12.4315 10.0003C11.7019 9.50906 10.0675 9.02715 9.00042 9.00985C6.77504 8.9726 4.81309 9.93721 4.84715 12.1339C4.8703 13.6461 6.36871 14.674 7.85939 14.674C10.1425 14.674 11.5257 12.5884 12.6816 11.0053C13.1451 10.4011 13.6032 9.79273 14.056 9.18042C15.34 7.38638 16.8256 5.74855 19.3759 5.74855C22.3801 5.74855 24.0667 8.17005 24.5435 10.6629H23.1864C22.6409 9.85445 21.5917 9.35977 20.5582 9.35977C18.1979 9.35977 16.7875 11.5311 15.6071 13.1299L14.3565 14.7818" fill="white"/>
</g>
<defs>
<clipPath id="clip0_45_4303">
<rect width="80.185" height="24" fill="white"/>
</clipPath>
</defs>
</svg>
