<svg width="176" height="24" viewBox="0 0 176 24" fill="none" xmlns="http://www.w3.org/2000/svg">
<g clip-path="url(#clip0_45_4276)">
<path d="M16.7714 18.6916C16.7714 18.6916 16.9068 18.4465 16.9794 18.7958C16.9794 18.7958 17.1263 20.6848 16.008 21.8379C15.2635 22.6074 13.5495 23.708 11.6063 23.2269C11.6063 23.2269 14.7111 23.0135 15.5025 19.9373L15.5891 19.5916C15.5891 19.5916 16.3702 19.394 16.7714 18.6916ZM12.9983 0.721085C12.9965 0.724133 12.9965 0.728401 12.9965 0.72962C12.9782 0.886936 13.0818 1.02596 13.2264 1.04303C13.3544 1.06193 13.4703 0.974129 13.5075 0.845472C13.5782 0.89913 13.6392 0.956448 13.6885 1.00401C13.4105 1.00645 13.3666 1.14852 13.1288 1.09791C13.0038 1.07535 12.8733 0.936325 12.8672 0.764984C12.9209 0.739376 12.9349 0.733889 12.9983 0.721085ZM13.1947 0.710716C13.2459 0.716814 13.2971 0.73267 13.3453 0.750961C13.3514 0.768644 13.3575 0.787546 13.3575 0.808277C13.3575 0.87291 13.3087 0.925959 13.2501 0.925959C13.191 0.925959 13.1422 0.87291 13.1422 0.808277C13.1422 0.768034 13.1642 0.732668 13.1947 0.710716ZM23.8555 9.19414C23.8494 9.15817 23.8445 9.12524 23.8366 9.08866C23.8366 9.08866 23.7963 8.89354 23.6774 8.5844C23.6579 8.53318 23.6396 8.48927 23.622 8.45086C23.6146 8.43074 23.6061 8.41245 23.5994 8.39659C23.3854 7.90148 22.9957 7.20698 22.311 6.53016C22.311 6.53016 23.0329 6.47345 22.2384 5.59724C22.2384 5.59724 20.9238 4.05397 18.3964 2.88508C17.0373 2.25826 15.5166 2.5174 15.6599 4.03384C15.7586 5.09725 14.7672 5.50395 13.9861 5.40578C13.0697 5.29115 12.5178 4.54055 12.6648 3.92287C12.8184 3.2613 13.166 2.75033 13.6818 2.3546C14.0306 2.08387 14.2757 1.89485 14.9105 1.76558C15.2965 1.68387 15.8032 1.56071 15.9403 1.9979C16.205 1.85765 16.6751 0.975349 15.1471 0.961325C15.1471 0.961325 14.9166 0.46682 14.4026 0.568037C14.4026 0.568037 12.8818 -0.922798 11.1892 0.925959C11.1892 0.925959 10.5233 1.18815 10.4868 0.934496C10.638 1.05279 10.8825 0.691206 10.5483 0.566208C10.3892 0.505232 10.2057 0.673523 10.177 0.833885C10.1544 0.957664 10.191 1.22961 10.5246 1.28022C10.6154 1.29669 10.7752 1.28022 10.7752 1.28022L10.663 1.41315C10.1581 1.63022 9.66787 1.4601 9.57397 1.10218C9.69104 1.17108 9.82274 1.08327 9.86238 0.952789C9.90384 0.819254 9.80689 0.63328 9.61177 0.604012C9.33677 0.563768 9.20629 0.883886 9.26543 1.16376C9.35507 1.59729 9.78921 1.90582 10.349 1.82961L10.2526 1.97594C10.2526 1.97594 9.69104 2.67594 9.23738 3.47227C8.77154 4.27958 6.88254 5.17042 7.20509 3.24544C7.30753 2.63569 6.28803 1.90095 4.51245 3.12044C3.56673 3.77287 2.40028 4.75213 1.53992 6.33625C1.53992 6.33625 1.15578 6.93991 1.79053 6.96064C1.79053 6.96064 0.494206 7.57648 0.442378 10.4825L0.4375 10.4832C0.4375 10.4832 0.438719 10.5984 0.440548 10.7673C0.442987 10.8655 0.444817 10.9667 0.448475 11.0685C0.458231 11.3923 0.473475 11.777 0.503962 11.9819C0.503962 11.9819 0.647864 13.7331 0.950908 14.0429C0.950908 14.0429 0.966152 14.049 0.986884 14.052C1.07713 14.1337 1.20273 14.1465 1.36371 13.977C1.36493 13.9764 1.36676 13.9746 1.3698 13.9733C1.37285 13.9953 1.75882 15.9599 2.57284 17.6056C3.22039 18.9087 4.42403 20.8202 3.95209 21.2848C3.4838 21.747 2.82283 20.8269 2.92466 21.1958C3.14478 21.9793 3.94904 22.0921 4.38196 21.7507C5.50146 20.8672 3.86368 18.7471 3.35393 16.0502C4.42098 15.591 4.37952 13.8996 4.37952 13.8996C4.37952 13.8996 5.90877 13.863 6.37889 12.0533C6.37889 12.0533 8.22154 12.5813 9.09897 10.9728C9.09897 10.9728 9.09653 10.9612 9.09165 10.9399C9.10141 10.9313 9.1069 10.9252 9.11604 10.9167C9.29714 11.477 9.66482 11.9819 10.1423 12.4106C10.1423 12.4106 10.0484 13.1953 9.18556 13.4709C9.18556 13.4709 8.12764 13.0203 6.98498 13.4709C5.93499 13.8819 6.35815 15.0166 7.12095 14.7435C6.89046 14.6197 6.82278 14.2441 7.19351 14.1648C7.29168 14.2459 7.39168 14.2916 7.48985 14.3111V14.316C7.50204 14.3111 8.4374 14.4837 9.08373 14.227C9.13068 14.213 9.17641 14.1935 9.22153 14.1648C9.22519 14.1605 9.23373 14.1599 9.2386 14.1575L9.23495 14.1544C9.29531 14.116 9.35263 14.066 9.40751 14.0038C9.64714 14.0185 9.79591 14.3837 9.46665 14.5532C10.1063 14.6922 10.3355 14.0185 10.0715 13.6563C10.0715 13.6563 10.2227 13.5575 10.3892 13.4173C10.3892 13.4173 10.5886 13.2215 10.741 12.9929C10.741 12.9929 11.366 13.4904 12.53 13.7697C12.53 13.7697 11.9233 14.7788 11.0233 14.9739C11.0233 14.9739 9.74652 14.5581 8.88312 15.0935C8.88312 15.0935 8.41666 15.3398 8.49044 15.855C8.54593 16.2404 8.85385 16.5111 9.31482 16.4459C9.1258 16.355 8.71239 15.8855 9.2386 15.6825C9.33007 15.8276 9.45811 15.9056 9.60262 15.9404C9.6014 15.9434 9.59958 15.9465 9.59958 15.9465C9.59958 15.9465 10.4014 16.1337 11.3874 15.7203C11.427 15.7075 11.463 15.6928 11.4959 15.6739C11.5075 15.6691 11.5209 15.666 11.5331 15.6581C11.5331 15.6581 11.5319 15.6563 11.5319 15.6544C11.5953 15.6124 11.6453 15.5642 11.6642 15.505C11.9148 15.4599 12.277 15.5831 12.1416 16.0642C12.441 16.0184 12.927 15.4703 12.2123 15.0368C12.2123 15.0368 12.6373 14.8282 12.9764 14.5221L13.4861 14.0014C14.4879 14.149 15.2538 15.1008 15.2538 16.2611C15.2538 17.2136 14.4404 18.3379 13.5782 18.566C13.6099 18.5562 13.6416 18.5489 13.6684 18.5391L13.5593 18.5709C13.5635 18.569 13.5721 18.5678 13.5782 18.566C13.4446 18.5958 13.2934 18.6117 13.1081 18.6032C12.2233 18.5727 12.7465 17.5422 12.7465 17.5422C12.6172 17.5276 12.4715 17.5709 12.3453 17.7142C12.205 17.8763 12.1538 18.1916 12.1989 18.5068C12.1538 18.4934 12.113 18.48 12.0776 18.4648C11.2977 18.1312 11.3593 17.5446 11.3593 17.5446C11.1508 17.6331 10.9971 17.9026 11.0898 18.3452C11.2166 18.9379 11.9684 19.1952 12.5684 19.2678C12.9306 19.6135 13.4745 19.9751 14.7513 19.7678C14.7513 19.7678 14.1843 22.733 10.4246 22.6043C10.4246 22.6043 9.27763 22.1763 9.31665 21.23C9.36909 19.9501 10.2526 19.4952 10.2526 19.4952C9.92518 19.4593 9.138 19.533 8.77641 20.5995C8.6191 21.0763 8.65264 21.8617 9.09165 22.4037C7.67155 22.0269 6.59901 20.9507 7.02888 19.4855C7.09839 19.2513 7.23741 19.0086 7.42095 18.8135C8.49044 17.8056 10.0807 18.4166 10.0807 18.4166C10.0197 18.0696 9.56421 17.5916 8.77641 17.5446C7.95082 17.4965 6.40389 18.0007 6.28986 19.8714C6.18316 21.6043 7.27887 22.8531 10.0008 23.2379L10.0362 23.272C10.0362 23.272 11.6904 24.4415 14.0306 23.8159C14.0306 23.8159 18.747 22.8434 17.7409 17.4709C17.7409 17.4709 18.8501 13.8947 16.5257 11.838C17.9641 13.013 19.6885 12.3295 19.6885 12.3295C19.5635 15.588 20.9622 16.002 20.9622 16.002L21.0067 15.9752C21.0067 15.9752 18.4239 21.5623 19.9196 22.2702C20.4403 22.5159 21.0464 22.3964 21.3573 21.7367C21.6116 21.1915 20.7927 22.261 20.3202 21.7952C19.7555 21.2428 20.4513 19.8873 21.1378 18.4904C22.089 16.566 22.7323 15.152 22.8598 14.2057C22.8598 14.2057 22.9994 14.3032 23.1592 14.227C23.1659 14.2343 23.172 14.2404 23.1781 14.241C23.547 14.1459 23.7915 12.6002 23.8293 12.3465C24.1043 10.9313 24.0073 9.87401 23.8555 9.19414Z" fill="#00A4E4"/>
<path d="M36.7211 17.9359L32.1919 12.7299L30.9468 13.828V17.9359H28.4877V5.9129H30.9468V10.7452L36.465 5.9068L40.0022 5.9129L33.9864 11.1391L39.8796 17.9359H36.7211Z" fill="#00A4E4"/>
<path d="M43.5235 10.9756H46.4533C47.0649 10.9756 47.5405 10.8452 47.8661 10.5836C48.1552 10.3482 48.2887 9.99577 48.2887 9.46773C48.2887 9.03542 48.1484 8.74335 47.8356 8.52201C47.5113 8.29519 47.046 8.18116 46.4533 8.18116H43.5235V10.9756ZM48.7533 17.9359L48.493 17.5152C48.2405 17.1103 48.1125 16.6268 48.1125 16.0804V15.0189C48.1125 14.0158 47.8808 13.6713 47.8119 13.5872C47.6033 13.3671 47.121 13.247 46.4533 13.247H43.5235V17.9359H41.0632V5.9129H46.4533C50.1887 5.9129 50.7466 8.11775 50.7466 9.43359C50.7466 10.3196 50.4667 11.0945 49.9131 11.7305C49.8192 11.8378 49.7216 11.9354 49.6161 12.0299L49.5978 12.0482L49.6161 12.064C49.885 12.314 50.0935 12.6153 50.2393 12.9585C50.4435 13.4683 50.5557 14.0817 50.5716 14.778C50.5783 15.25 50.585 15.6591 50.5966 15.9146V15.9244L50.6149 15.9426L50.6301 16.2884C50.6344 16.3926 50.6618 16.4762 50.7155 16.5439L51.8295 17.9359H48.7533Z" fill="#00A4E4"/>
<path d="M56.7999 17.9341C55.0828 17.9341 53.7932 17.4249 52.9694 16.4225C52.2438 15.5676 51.8768 14.3482 51.8768 12.8012V5.9129H54.3383V12.8012C54.3383 13.7305 54.5347 14.4482 54.9219 14.9427C55.3157 15.4475 55.9316 15.6926 56.7999 15.6926C57.7828 15.6926 58.4578 15.4609 58.8572 14.9859C59.2431 14.5457 59.4389 13.8085 59.4389 12.8012V5.9129H61.8962V12.8012C61.8962 14.3707 61.4955 15.6091 60.7065 16.4811C59.8523 17.4457 58.5377 17.9341 56.7999 17.9341Z" fill="#00A4E4"/>
<path d="M71.2659 17.9359L70.9964 17.5597L65.7794 10.3025V17.9359H63.3203V5.9129H65.508L70.9732 13.5024V5.9129H73.4165V17.9359H71.2659Z" fill="#00A4E4"/>
<path d="M90.3943 17.9359V8.18116H86.606V5.9129H96.6442V8.18116H92.8534V17.9359H90.3943Z" fill="#00A4E4"/>
<path d="M105.425 17.9359V12.8555H100.365V17.9359H97.9067V5.9129H100.365V10.5836H105.425V5.9129H107.883V17.9359H105.425Z" fill="#00A4E4"/>
<path d="M121.348 5.91309H123.803V17.9361H121.348V5.91309Z" fill="#00A4E4"/>
<path d="M132.597 10.5838H135.331C135.931 10.5838 136.399 10.4692 136.722 10.2436C137.036 10.0283 137.17 9.75578 137.17 9.33688C137.17 8.92896 137.041 8.67957 136.718 8.47409C136.386 8.28689 135.895 8.18141 135.331 8.18141H132.597V10.5838ZM132.597 15.6679H135.331C136.048 15.6679 136.599 15.5441 136.967 15.2966C137.349 15.0472 137.519 14.7057 137.519 14.1966C137.519 13.7167 137.352 13.4094 136.963 13.1691C136.589 12.9631 136.041 12.8557 135.331 12.8557H132.597V15.6679ZM130.135 17.9362V5.91315H135.331C136.518 5.91315 137.503 6.17534 138.258 6.69301C139.168 7.32776 139.628 8.25519 139.628 9.4509C139.628 10.2789 139.342 10.9814 138.777 11.5369C138.768 11.5484 138.764 11.5551 138.757 11.56L138.737 11.5777L138.758 11.5942C139.207 11.9759 139.541 12.4557 139.748 13.021C139.905 13.4185 139.982 13.8143 139.982 14.1966C139.982 15.449 139.463 16.4283 138.439 17.1106C137.611 17.6599 136.566 17.9362 135.331 17.9362H130.135Z" fill="#00A4E4"/>
<path d="M160.149 17.9359L159.885 17.5621L154.663 10.3025V17.9359H152.201V5.9129H154.394L154.661 6.2879L159.861 13.5043V5.9129H162.302V17.9359H160.149Z" fill="#00A4E4"/>
<path d="M171.977 17.9359L167.448 12.7299L166.203 13.828V17.9359H163.744V5.9129H166.203V10.7445L171.726 5.9068L175.254 5.9129L169.243 11.1391L175.132 17.9359H171.977Z" fill="#00A4E4"/>
<path d="M80.424 17.9401C78.5972 17.9401 77.1064 17.3273 75.9973 16.1126C74.9814 15.0188 74.4662 13.5883 74.4662 11.87C74.4662 10.6725 74.7436 9.57249 75.2912 8.60299C75.8735 7.51459 76.754 6.69631 77.9113 6.17254C78.6692 5.84144 79.521 5.67315 80.4417 5.67315C81.7765 5.67315 82.9521 6.04571 83.9411 6.78167C84.9557 7.5091 85.5795 8.50665 85.8014 9.74932L85.8416 9.97005H83.3588C83.1533 9.33164 82.821 8.84506 82.3454 8.48348C81.838 8.09873 81.2173 7.91215 80.4417 7.91215C79.6234 7.91215 78.9497 8.11885 78.3783 8.54628C77.7942 8.98225 77.3954 9.55847 77.1619 10.3109C76.9924 10.8036 76.9064 11.328 76.9064 11.87C76.9064 13.017 77.2143 13.9401 77.8204 14.6054L77.8418 14.6316C78.4637 15.3505 79.3137 15.6998 80.4417 15.6998C81.4899 15.6998 82.2697 15.4212 82.8271 14.8462C83.2246 14.4273 83.4655 13.9291 83.5661 13.3212L83.5716 13.295H79.66V11.0523H85.9892V17.9358H83.6277V17.0571L83.5929 17.0803C83.5033 17.137 83.4051 17.1919 83.3039 17.2456C82.4447 17.7096 81.4777 17.9401 80.424 17.9401Z" fill="#00A4E4"/>
<path d="M112.947 13.6468H116.064L114.521 9.8237L112.947 13.6468ZM117.797 17.9358L116.974 15.8974H112.019L111.18 17.9358H108.56L113.561 5.91278H115.481L120.41 17.9358H117.797Z" fill="#00A4E4"/>
<path d="M144.27 13.6468H147.387L145.844 9.8237L144.27 13.6468ZM149.12 17.9358L148.296 15.8974H143.343L142.502 17.9358H139.884L144.881 5.91278H146.803L151.733 17.9358H149.12Z" fill="#00A4E4"/>
</g>
<defs>
<clipPath id="clip0_45_4276">
<rect width="176" height="24" fill="white"/>
</clipPath>
</defs>
</svg>
