<svg width="81" height="24" viewBox="0 0 81 24" fill="none" xmlns="http://www.w3.org/2000/svg">
<path d="M12.0357 -4.57764e-05C11.3663 1.70465 10.6518 3.41545 9.91551 5.13795L8.91941 7.42143L7.91161 5.13795C7.15177 3.41545 6.4234 1.70465 5.74033 -4.57764e-05H0.165247V0.446764C0.783401 0.446764 1.29134 0.962607 1.29134 1.59839C1.20072 2.77555 1.10236 3.95485 0.982258 5.13795L0.612224 8.73253C0.434949 10.4531 0.234114 12.1676 0 13.8704H1.78148C1.8917 12.1676 2.02943 10.4531 2.20275 8.73253L2.75204 3.31298C3.54335 4.96067 4.30121 6.61825 5.03552 8.27979L5.23833 8.73253C6.00015 10.4531 6.72457 12.1676 7.41159 13.8704H7.95099C8.62417 12.1676 9.33689 10.4531 10.077 8.73253L10.3979 7.99427C11.1164 6.33274 11.8644 4.67532 12.6361 3.0296L13.2168 8.73253C13.3902 10.4531 13.5338 12.1676 13.6381 13.8704H17.7367C17.5004 12.1676 17.2976 10.4531 17.1244 8.73253L16.7584 5.13795C16.587 3.41545 16.4394 1.70465 16.3391 -4.57764e-05H12.0357Z" fill="#183181"/>
<path d="M30.4199 12.4919C30.8667 11.6414 31.3491 10.7812 31.8609 9.9209L36.8394 1.6353V1.28487H25.8844V3.8341H26.3174C26.3174 3.2199 26.7899 2.71789 27.3804 2.68049C27.7229 2.6688 28.0636 2.66286 28.4002 2.66286H31.9357C31.4968 3.49553 31.0282 4.3361 30.5222 5.17667L25.5182 13.5214V13.8699H37.3335V12.3896C36.5028 12.4565 35.6602 12.4919 34.8216 12.4919H30.4199Z" fill="#183181"/>
<path d="M50.6727 13.8703C50.7081 13.8683 50.7436 13.8644 50.777 13.8624C50.7121 13.0119 50.6727 12.1597 50.6727 11.3013V8.18319H55.5646V11.3013C55.5646 12.1597 55.5351 13.0198 55.4702 13.8703H59.2379C59.169 13.0198 59.1376 12.1597 59.1376 11.3013V3.85627C59.1376 2.99198 59.169 2.13773 59.2379 1.28332H54.4347V1.68103H54.5429C55.0784 1.68103 55.5095 2.10412 55.5469 2.63973C55.5586 3.04321 55.5646 3.44867 55.5646 3.85627V6.80321H50.6727V3.85627C50.6727 2.99198 50.7042 2.13773 50.7731 1.28332H45.9718V1.68103H46.0761C46.6096 1.68103 47.0427 2.10033 47.0801 2.6338C47.0939 3.04124 47.1017 3.4467 47.1017 3.85627V12.5711C46.6076 12.634 46.0997 12.6636 45.586 12.6636C45.0327 12.6636 44.4876 12.6203 43.9561 12.5337C42.4481 12.2462 42.2079 10.8308 42.2079 9.94885V3.78345C42.2079 2.94667 42.2453 2.11401 42.3084 1.28332H37.507V1.68103H37.6093C38.1447 1.68103 38.5739 2.10033 38.6113 2.63183C38.6251 3.04124 38.633 3.4467 38.633 3.85627V9.35244C38.633 10.5887 39.0247 13.321 42.3792 13.8171C43.4264 13.9609 44.4973 14.0435 45.586 14.0435C47.2946 14.0435 48.9916 13.9825 50.6727 13.8703Z" fill="#183181"/>
<path d="M75.3657 7.57822C75.3657 11.8658 71.6589 14.043 68.0072 14.043C64.3556 14.043 60.6566 11.8658 60.6566 7.57822C60.6566 3.2887 64.3556 1.11149 68.0072 1.11149C71.6589 1.11149 75.3657 3.2887 75.3657 7.57822ZM71.779 7.57822C71.7751 5.24152 70.7986 2.49146 68.0072 2.49146C65.2197 2.49146 64.2394 5.24152 64.2394 7.57822C64.2394 9.91294 65.2197 12.663 68.0072 12.663C70.7986 12.663 71.7751 9.91294 71.779 7.57822Z" fill="#183181"/>
<path d="M23.8145 3.85645C23.8145 2.99232 23.8459 2.13791 23.9188 1.2835H18.9895V1.73048H19.0918C19.7297 1.73048 20.2278 2.24615 20.2278 2.88787C20.2375 3.20683 20.2415 3.52975 20.2415 3.85645V11.3015C20.2415 12.1599 20.208 13.0202 20.151 13.8705H23.9188C23.8459 13.0202 23.8145 12.1599 23.8145 11.3015V3.85645Z" fill="#183181"/>
<path d="M6.85492 20.7833C16.7805 18.5588 27.0957 17.3836 37.6865 17.3836C52.6379 17.3836 67.0653 19.6257 80.6563 23.7951C80.7075 23.811 80.737 23.8582 80.7271 23.9152C80.7154 23.9685 80.6583 24.0098 80.6052 23.998C66.6383 21.6927 52.3326 20.3778 37.7593 20.1238C27.3496 19.9407 17.0638 20.3088 6.9218 21.1868C6.81949 21.1967 6.72888 21.1317 6.70137 21.0314C6.67583 20.921 6.7447 20.8088 6.85492 20.7833Z" fill="#ED1A3A"/>
</svg>
