<svg width="102" height="24" viewBox="0 0 102 24" fill="none" xmlns="http://www.w3.org/2000/svg">
<path d="M94.2086 20.0265C89.4046 20.0265 86.1476 16.627 86.1476 12.0061V11.9654C86.1476 7.54812 89.5063 3.94507 94.2086 3.94507C96.9771 3.94507 98.6259 4.67789 100.275 6.08247L98.0967 8.64736C96.8753 7.67026 95.9186 7.10028 94.1069 7.10028C91.6234 7.10028 89.7303 9.2784 89.7303 11.9654C89.7303 14.8357 91.6234 16.9323 94.3511 16.9323C95.6132 16.9323 96.5293 16.6474 97.5063 16.0163V13.9807H93.9644V10.6423H100.763V17.543C99.1145 18.9069 97.0178 20.0265 94.2086 20.0265ZM76.7023 7.38527V10.6423H83.5623V13.94H76.7023V19.8229H73.4453V4.12827H85.4962V7.38527H76.7023ZM64.1628 20.0265C60.0305 20.0265 57.5471 17.6855 57.5471 13.085V4.14863H60.8041V13.0036C60.8041 15.5888 62.1069 16.8916 64.2036 16.8916C66.2392 16.8916 67.603 15.6295 67.603 13.1461V4.14863H70.86V13.0036C70.86 17.6855 68.3359 20.0265 64.1628 20.0265ZM51.7252 19.8229V9.62446L47.3486 16.2402H47.3079L42.9109 9.66517V19.8229H39.6539V4.12827H43.2977L47.3282 10.683L51.4198 4.12827H54.9211V19.8229H51.7252Z" fill="#5A5A5A"/>
<path d="M22.3552 12.0061C22.3552 14.6728 20.1771 16.8713 17.4493 16.8713C14.7827 16.8713 12.6453 14.6932 12.6453 12.0061C12.6453 9.2784 14.7827 7.10029 17.4493 7.10029C20.1771 7.10029 22.3552 9.2784 22.3552 12.0061ZM17.4493 22.5914C11.6682 22.5914 6.9048 17.828 6.9048 11.9858C6.9048 6.10283 11.6682 1.33947 17.4493 1.33947C23.3323 1.33947 28.0549 6.10283 28.0549 11.9858C28.0346 17.828 23.3323 22.5914 17.4493 22.5914ZM22.2534 0.240234C20.5435 0.240234 18.9557 0.58629 17.4493 1.21733C16.0448 0.58629 14.3959 0.240234 12.7267 0.240234C6.21269 0.240234 1.02185 5.45143 1.02185 12.0061C1.02185 18.4794 6.23305 23.772 12.7267 23.772C14.3755 23.772 16.0244 23.3853 17.4493 22.7542C18.9557 23.3853 20.5638 23.772 22.2534 23.772C28.7267 23.772 33.9175 18.4794 33.9175 12.0061C33.9175 5.45143 28.7267 0.240234 22.2534 0.240234Z" fill="#E60000"/>
</svg>
