<svg width="22" height="24" viewBox="0 0 22 24" fill="none" xmlns="http://www.w3.org/2000/svg">
<g clip-path="url(#clip0_45_4280)">
<path d="M8.86298 20.5261V21.1931H8.05018V22.9309C8.05018 23.2409 8.197 23.3013 8.46858 23.3013C8.62691 23.3013 8.7459 23.2706 8.80252 23.2534L8.86298 23.2342V23.903L8.82939 23.9117C8.601 23.9692 8.411 23.9884 8.12983 23.9884C7.93503 23.9884 7.29976 23.9241 7.29976 23.0912V21.1931H6.82283V21.148C6.82283 21.1153 6.82283 20.886 6.82283 20.673V20.5261H7.29976V19.6702L8.05018 19.4072V20.5252H8.86298V20.5261ZM13.9048 19.4351L13.0066 23.9165H12.2437L11.4491 20.7958L10.6421 23.9165H9.89169L8.95222 19.4351H9.73527L10.3446 22.4751L11.1018 19.4351H11.832C11.905 19.7191 12.5901 22.4377 12.5988 22.4722C12.6045 22.4358 13.1381 19.5349 13.1573 19.4351H13.9048ZM14.6831 21.8706C14.7022 21.551 14.9278 21.1336 15.4056 21.1336C15.9238 21.1336 16.0812 21.5913 16.0985 21.8706H14.6831ZM15.4392 20.4647C14.8673 20.4647 13.901 20.838 13.901 22.2371C13.901 23.903 15.2272 23.9884 15.492 23.9884C16.0553 23.9884 16.3058 23.8714 16.5533 23.7552L16.5802 23.7428V23.0346L16.5092 23.0778C16.3298 23.19 15.9824 23.3157 15.5928 23.3157C14.8049 23.3157 14.6936 22.7524 14.6831 22.5154H16.8489L16.8527 22.477C16.9209 22.0097 16.8537 21.3543 16.4699 20.909C16.2165 20.6144 15.8682 20.4647 15.4392 20.4647ZM19.628 22.9732C19.628 23.4818 19.1856 23.9952 18.344 23.9952C17.9745 23.9952 17.5667 23.904 17.274 23.762L17.2471 23.7485V23.0211L17.3162 23.0586C17.56 23.19 17.9505 23.3292 18.3238 23.3292C18.6645 23.3292 18.8593 23.2073 18.8593 22.9943C18.8593 22.7937 18.7393 22.7323 18.4438 22.6018L18.3277 22.5519C18.1847 22.4905 18.059 22.4348 17.8536 22.3398C17.6559 22.2506 17.1944 22.0433 17.1944 21.4234C17.1944 21.0904 17.4496 20.4647 18.4083 20.4647C18.8036 20.4647 19.1952 20.5712 19.3497 20.6461L19.3765 20.6595V21.3744L19.3074 21.3418C19.0013 21.1902 18.7326 21.1201 18.4352 21.1201C18.3258 21.1201 17.963 21.1422 17.963 21.3956C17.963 21.5884 18.1914 21.6882 18.3757 21.7717L18.4112 21.7871C18.5445 21.8456 18.6491 21.8946 18.7384 21.9301L18.8353 21.9713C19.412 22.2247 19.628 22.4943 19.628 22.9732ZM2.67153 19.4351H3.40468V23.9165H2.69169L0.736948 20.7958V23.9165H0.00476074V19.4351H0.735988L2.67249 22.5797V19.4351H2.67153ZM20.9302 21.1931V22.9309C20.9302 23.2419 21.077 23.3013 21.3485 23.3013C21.503 23.3013 21.622 23.2706 21.6815 23.2543L21.7429 23.2342V23.903L21.7046 23.9117C21.48 23.9692 21.29 23.9884 21.0079 23.9884C20.8131 23.9884 20.1817 23.9241 20.1817 23.0912V21.1931H19.7018V21.148C19.6999 21.1153 19.6999 20.886 19.7018 20.673V20.5261H20.1817V19.6702L20.9302 19.4072V20.5252H21.7429V21.1921H20.9302V21.1931ZM5.86034 22.9261C5.77397 23.0327 5.50432 23.3129 5.08497 23.3129C4.76254 23.3129 4.55622 23.1277 4.55622 22.8407C4.55622 22.5471 4.79133 22.3772 5.20108 22.3772H5.86034V22.9261ZM5.28169 20.4542C4.90072 20.4542 4.53031 20.5204 4.27026 20.6336L4.24051 20.6442V21.3341L4.30864 21.3005C4.48425 21.2151 4.90648 21.1374 5.17037 21.1374C5.82867 21.1374 5.85746 21.3879 5.85938 21.7141H5.15598C4.22323 21.7141 3.79908 22.2985 3.79908 22.8398C3.79908 23.595 4.3998 23.9875 4.99573 23.9875C5.40164 23.9875 5.65786 23.8349 5.86418 23.6526V23.9155H6.60692V21.6239C6.60788 20.5684 5.67993 20.4542 5.28169 20.4542Z" fill="#3C1053"/>
<path d="M9.52614 16.3451L10.8725 14.0046L12.2227 16.3451H17.6138H17.6147L20.3084 11.6775L17.6128 7.009H17.6138H14.9153L16.2646 4.67329L13.569 0.00476074H8.17884L5.48519 4.67041L6.83825 7.009H4.13406L1.44137 11.6747H1.44041L1.43945 11.6766L4.13406 16.3451H9.52422H9.52614Z" fill="white"/>
<mask id="mask0_45_4280" style="mask-type:luminance" maskUnits="userSpaceOnUse" x="9" y="7" width="9" height="5">
<mask id="mask1_45_4280" style="mask-type:luminance" maskUnits="userSpaceOnUse" x="9" y="7" width="9" height="5">
<mask id="mask2_45_4280" style="mask-type:luminance" maskUnits="userSpaceOnUse" x="9" y="7" width="9" height="5">
<path d="M14.9154 7.00903L13.571 9.33994H10.8754L9.52905 11.6747H14.9192L17.6138 7.00903H14.9154Z" fill="white"/>
</mask>
<g mask="url(#mask2_45_4280)">
<path d="M11.5502 3.50904L7.50879 10.5088L15.5922 15.1759L19.6336 8.17614L11.5502 3.50904Z" fill="white"/>
</g>
</mask>
<g mask="url(#mask1_45_4280)">
<path d="M10.5405 -1.7417L24.6852 6.42559L16.6024 20.4254L2.45667 12.2591L10.5405 -1.7417Z" fill="url(#paint0_linear_45_4280)"/>
</g>
</mask>
<g mask="url(#mask0_45_4280)">
<mask id="mask3_45_4280" style="mask-type:luminance" maskUnits="userSpaceOnUse" x="9" y="7" width="9" height="5">
<path d="M14.9154 7.00903L13.571 9.33994H10.8754L9.52905 11.6747H14.9192L17.6138 7.00903H14.9154Z" fill="white"/>
</mask>
<g mask="url(#mask3_45_4280)">
<path d="M11.55 3.50928L19.6338 8.17589L15.5919 15.1753L7.50903 10.5087L11.55 3.50928Z" fill="url(#paint1_linear_45_4280)"/>
</g>
</g>
<mask id="mask4_45_4280" style="mask-type:luminance" maskUnits="userSpaceOnUse" x="5" y="4" width="9" height="6">
<mask id="mask5_45_4280" style="mask-type:luminance" maskUnits="userSpaceOnUse" x="5" y="4" width="9" height="6">
<mask id="mask6_45_4280" style="mask-type:luminance" maskUnits="userSpaceOnUse" x="5" y="4" width="9" height="6">
<path d="M5.48621 4.67041L6.83831 7.00899H9.52523L10.8754 9.3399H13.571L10.8754 4.67041H5.48621Z" fill="white"/>
</mask>
<g mask="url(#mask6_45_4280)">
<path d="M8.8263 0.689571L3.18652 7.41028L10.2299 13.3209L15.8697 6.60014L8.8263 0.689571Z" fill="white"/>
</g>
</mask>
<g mask="url(#mask5_45_4280)">
<path d="M22.0894 5.90828L10.6297 19.5655L-3.03333 8.10196L8.42641 -5.5553L22.0894 5.90828Z" fill="url(#paint2_linear_45_4280)"/>
</g>
</mask>
<g mask="url(#mask4_45_4280)">
<mask id="mask7_45_4280" style="mask-type:luminance" maskUnits="userSpaceOnUse" x="5" y="4" width="9" height="6">
<path d="M5.48621 4.67041L6.83831 7.00899H9.52523L10.8754 9.3399H13.571L10.8754 4.67041H5.48621Z" fill="white"/>
</mask>
<g mask="url(#mask7_45_4280)">
<path d="M15.8693 6.60022L10.2306 13.3214L3.18701 7.41109L8.82668 0.689941L15.8693 6.60022Z" fill="url(#paint3_linear_45_4280)"/>
</g>
</g>
<mask id="mask8_45_4280" style="mask-type:luminance" maskUnits="userSpaceOnUse" x="6" y="7" width="5" height="10">
<mask id="mask9_45_4280" style="mask-type:luminance" maskUnits="userSpaceOnUse" x="6" y="7" width="5" height="10">
<mask id="mask10_45_4280" style="mask-type:luminance" maskUnits="userSpaceOnUse" x="6" y="7" width="5" height="10">
<path d="M6.83154 11.6747L9.52614 16.3451L10.8734 14.0046L9.52902 11.6747L10.8754 9.33994L9.52519 7.00903L6.83154 11.6747Z" fill="white"/>
</mask>
<g mask="url(#mask10_45_4280)">
<path d="M8.50173 5.01879L2.23401 12.4878L9.2039 18.3367L15.4716 10.8677L8.50173 5.01879Z" fill="white"/>
</g>
</mask>
<g mask="url(#mask9_45_4280)">
<path d="M7.70385 -1.50085L22.03 10.5212L10.0021 24.855L-4.32397 12.8339L7.70385 -1.50085Z" fill="url(#paint4_linear_45_4280)"/>
</g>
</mask>
<g mask="url(#mask8_45_4280)">
<mask id="mask11_45_4280" style="mask-type:luminance" maskUnits="userSpaceOnUse" x="6" y="7" width="5" height="10">
<path d="M6.83154 11.6747L9.52614 16.3451L10.8734 14.0046L9.52902 11.6747L10.8754 9.33994L9.52519 7.00903L6.83154 11.6747Z" fill="white"/>
</mask>
<g mask="url(#mask11_45_4280)">
<path d="M8.50222 5.01782L15.4729 10.8667L9.20466 18.3363L2.23401 12.4875L8.50222 5.01782Z" fill="url(#paint5_linear_45_4280)"/>
</g>
</g>
<path d="M17.6147 16.3451H17.6138H12.2236L9.52902 11.6747H14.9192L17.6128 7.00902L20.3084 11.6766L17.6147 16.3451ZM6.83154 11.6747L9.52518 7.00902H4.13502L1.44137 11.6747L1.43945 11.6766L4.13502 16.3451H9.52518H9.5271L6.83154 11.6747ZM13.569 0.0057373L16.2646 4.67331L13.5709 9.33992L10.8763 4.67043H5.48615L8.17884 0.0057373H13.569Z" fill="#E40521"/>
<path d="M17.6128 7.00902L20.3084 11.6766L17.6147 16.3451L14.9192 11.6747L17.6128 7.00902ZM6.83154 11.6747H1.44137L1.43945 11.6766L4.13406 16.3451H9.52422H9.52518L6.83154 11.6747ZM10.8754 4.67043L13.5709 9.33992L16.2646 4.67331L13.569 0.0057373L10.8754 4.67043Z" fill="#D20A18"/>
</g>
<defs>
<linearGradient id="paint0_linear_45_4280" x1="11.55" y1="8.17416" x2="15.5948" y2="10.5094" gradientUnits="userSpaceOnUse">
<stop stop-color="#1A1A1A"/>
<stop offset="0.1413" stop-color="#222222"/>
<stop offset="0.3718" stop-color="#3B3B3B"/>
<stop offset="0.6627" stop-color="#626262"/>
<stop offset="1" stop-color="#999999"/>
</linearGradient>
<linearGradient id="paint1_linear_45_4280" x1="11.55" y1="8.17408" x2="15.5949" y2="10.5094" gradientUnits="userSpaceOnUse">
<stop stop-color="#E40521"/>
<stop offset="1" stop-color="#E40521"/>
</linearGradient>
<linearGradient id="paint2_linear_45_4280" x1="11.233" y1="4.96999" x2="8.41374" y2="8.32994" gradientUnits="userSpaceOnUse">
<stop stop-color="#1A1A1A"/>
<stop offset="0.1413" stop-color="#222222"/>
<stop offset="0.3718" stop-color="#3B3B3B"/>
<stop offset="0.6627" stop-color="#626262"/>
<stop offset="1" stop-color="#999999"/>
</linearGradient>
<linearGradient id="paint3_linear_45_4280" x1="11.2331" y1="4.97005" x2="8.41384" y2="8.33" gradientUnits="userSpaceOnUse">
<stop stop-color="#E40521"/>
<stop offset="1" stop-color="#E40521"/>
</linearGradient>
<linearGradient id="paint4_linear_45_4280" x1="6.94614" y1="10.0803" x2="11.5442" y2="13.9386" gradientUnits="userSpaceOnUse">
<stop stop-color="#1A1A1A"/>
<stop offset="0.1413" stop-color="#222222"/>
<stop offset="0.3718" stop-color="#3B3B3B"/>
<stop offset="0.6627" stop-color="#626262"/>
<stop offset="1" stop-color="#999999"/>
</linearGradient>
<linearGradient id="paint5_linear_45_4280" x1="6.94611" y1="10.0802" x2="11.5442" y2="13.9386" gradientUnits="userSpaceOnUse">
<stop stop-color="#E40521"/>
<stop offset="1" stop-color="#E40521"/>
</linearGradient>
<clipPath id="clip0_45_4280">
<rect width="21.7478" height="24" fill="white"/>
</clipPath>
</defs>
</svg>
