<svg width="47" height="63" viewBox="0 0 47 63" fill="none" xmlns="http://www.w3.org/2000/svg">
<g id="OBC" clip-path="url(#clip0_4_1243)">
<path id="Vector" d="M23.0074 21.4719C26.3632 21.4786 29.5909 22.7614 32.0358 25.06C34.4808 27.3587 35.9601 30.5011 36.1736 33.8501H32.2611C32.0694 32.3661 31.3199 31.0107 30.165 30.0594C29.01 29.108 27.5361 28.632 26.0429 28.728C24.5496 28.8241 23.1489 29.485 22.1254 30.5765C21.1018 31.668 20.5322 33.1082 20.5322 34.6046C20.5322 36.1009 21.1018 37.5412 22.1254 38.6327C23.1489 39.7242 24.5496 40.3852 26.0429 40.4812C27.5361 40.5773 29.01 40.1012 30.165 39.1498C31.3199 38.1984 32.0694 36.8431 32.2611 35.359H36.1469C35.9958 38.7901 34.5115 42.0267 32.0098 44.3797C29.5082 46.7326 26.1869 48.0161 22.753 47.957C19.3192 47.8978 16.0441 46.5005 13.625 44.0628C11.2059 41.625 9.83395 38.3393 9.80121 34.9051V8.19885H13.6468V25.3709C14.8674 24.1314 16.3225 23.1471 17.9273 22.4754C19.532 21.8037 21.2544 21.458 22.994 21.4585L23.0074 21.4719ZM23.7551 25.3442C23.5061 25.3309 23.2565 25.3309 23.0074 25.3442C20.5284 25.3442 18.1509 26.3291 16.398 28.082C14.645 29.8349 13.6602 32.2124 13.6602 34.6914C13.6602 37.1704 14.645 39.5479 16.398 41.3009C18.1509 43.0538 20.5284 44.0386 23.0074 44.0386H23.4347C21.4279 43.4083 19.6788 42.1457 18.4486 40.4395C17.2185 38.7332 16.5733 36.6748 16.6093 34.5717C16.6454 32.4685 17.3608 30.4334 18.6487 28.7703C19.9366 27.1073 21.7279 25.9054 23.7551 25.3442ZM26.4258 32.0208C26.954 32.0208 27.4703 32.1774 27.9095 32.4709C28.3487 32.7643 28.691 33.1815 28.8931 33.6694C29.0953 34.1574 29.1482 34.6944 29.0451 35.2124C28.9421 35.7305 28.6877 36.2064 28.3142 36.5798C27.9407 36.9533 27.4649 37.2077 26.9468 37.3107C26.4288 37.4138 25.8918 37.3609 25.4038 37.1587C24.9158 36.9566 24.4987 36.6143 24.2053 36.1751C23.9118 35.7359 23.7551 35.2196 23.7551 34.6914C23.7721 33.9884 24.0589 33.319 24.5561 32.8218C25.0534 32.3245 25.7228 32.0377 26.4258 32.0208Z" fill="#00A651"/>
<path id="Vector_2" d="M13.7537 55.7626V56.4169H14.2878V55.7626H13.7537ZM35.6928 54.868H34.7181V54.0801H35.6394V52.865H33.9703L34.0905 53.0119L34.1839 53.1187C34.2509 53.2418 34.3046 53.3716 34.3441 53.506C34.3588 53.6525 34.3588 53.8001 34.3441 53.9466C34.3471 54.1104 34.32 54.2734 34.264 54.4273C34.2123 54.5603 34.13 54.6793 34.0237 54.7745C33.9265 54.8684 33.8113 54.9416 33.6851 54.9898C33.5589 55.038 33.4243 55.0601 33.2893 55.0549V55.135V55.2686V55.3753L33.3828 55.5089L33.4896 55.6024H34.7181V56.3768H33.5563H33.4896C33.4444 56.3654 33.4029 56.3424 33.3694 56.3101L33.2359 56.1899L33.0222 55.9095L32.8086 55.4956C32.791 55.4297 32.764 55.3667 32.7285 55.3086C32.7285 55.2285 32.7285 55.1483 32.6483 55.0415H32.0341V54.2671H33.0088H33.0757C33.1551 54.2823 33.2366 54.2823 33.316 54.2671C33.3834 54.2426 33.44 54.1954 33.4762 54.1335C33.5179 54.0722 33.5495 54.0046 33.5697 53.9333C33.5777 53.8444 33.5777 53.755 33.5697 53.6662C33.5687 53.5545 33.5412 53.4447 33.4896 53.3457C33.4351 53.2369 33.3576 53.1412 33.2625 53.0653L33.1424 52.9852L32.9554 52.865H31.7804V52.0772H35.2522C35.2597 52.033 35.2597 51.9879 35.2522 51.9437C35.246 51.9039 35.246 51.8633 35.2522 51.8235C35.2129 51.7064 35.186 51.5856 35.1721 51.4629C35.165 51.3384 35.165 51.2136 35.1721 51.089C35.1669 50.8737 35.2078 50.6596 35.2922 50.4614C35.3642 50.2775 35.4841 50.1161 35.6394 49.9941C35.7638 49.8992 35.9039 49.8269 36.0534 49.7805C36.2073 49.7245 36.3703 49.6973 36.5341 49.7003C36.745 49.6994 36.9524 49.7548 37.135 49.8606C37.3392 49.9785 37.5166 50.1376 37.6558 50.3279C37.7746 50.4865 37.8775 50.6565 37.9629 50.8353C38.0601 51.0392 38.1448 51.2487 38.2166 51.4629C38.2323 51.571 38.2545 51.6781 38.2833 51.7834L38.3634 52.0905H38.724V52.8917H38.2833V56.457H37.3887V52.8917H36.5474V56.457H35.6794V54.8947L35.6928 54.868ZM36.1335 52.0638H37.4688C37.4688 51.8769 37.4688 51.7033 37.3753 51.5564C37.2818 51.4095 37.3085 51.2894 37.2818 51.1825C37.2087 50.9444 37.0908 50.7223 36.9346 50.5282C36.8775 50.4592 36.8062 50.4033 36.7256 50.3641C36.645 50.3249 36.5569 50.3035 36.4673 50.3012C36.3871 50.303 36.3088 50.326 36.2403 50.3679C36.1707 50.4199 36.1155 50.4889 36.0801 50.5683C36.041 50.6635 36.0098 50.7618 35.9866 50.8621C35.9511 51.0877 35.9511 51.3174 35.9866 51.543C35.999 51.6486 36.0259 51.752 36.0667 51.8502C36.0633 51.8857 36.0633 51.9214 36.0667 51.957C36.0627 51.9924 36.0627 52.0283 36.0667 52.0638H36.1335ZM39.0177 55.7626V56.4303H39.5519V55.7626H39.0177ZM22.5267 55.8561L22.2462 55.9763L22.0994 56.043C21.9534 56.104 21.8012 56.1488 21.6454 56.1766H21.2447C21.0536 56.1803 20.8635 56.1486 20.6839 56.0831C20.521 56.0302 20.3708 55.9438 20.2432 55.8294C20.099 55.7053 19.9848 55.55 19.9094 55.3753C19.837 55.1787 19.8009 54.9707 19.8027 54.7612C19.8022 54.5648 19.8383 54.37 19.9094 54.187C19.9809 54.0208 20.0854 53.8709 20.2166 53.7463C20.3323 53.6299 20.4743 53.5429 20.6305 53.4926C20.7938 53.4368 20.9655 53.4097 21.138 53.4125C21.3199 53.3921 21.5035 53.3921 21.6854 53.4125C21.8576 53.4393 22.0243 53.4934 22.1795 53.5727L22.3664 53.6662L22.5267 53.7997V54.227H22.4198H22.3397L22.1395 54.1469H22.0192H21.3649L22.3263 55.3621H22.4866V52.9451H19.6023V52.0772H22.0727C22.0784 52.0373 22.0784 51.9968 22.0727 51.957C22.0664 51.9171 22.0664 51.8766 22.0727 51.8368C22.0333 51.7198 22.0064 51.5989 21.9925 51.4763C21.9859 51.3473 21.9859 51.218 21.9925 51.089C21.9897 50.8739 22.0306 50.6603 22.1127 50.4614C22.1879 50.2792 22.3072 50.1187 22.4599 49.9941C22.5813 49.9022 22.7165 49.8301 22.8605 49.7805C23.0245 49.7601 23.1905 49.7601 23.3545 49.7805C23.5636 49.7817 23.7694 49.832 23.9555 49.9273C24.1567 50.0492 24.3334 50.2077 24.4762 50.3947C24.5925 50.5525 24.691 50.7227 24.77 50.9021C24.8717 51.1102 24.9609 51.3242 25.0371 51.543C25.0294 51.6452 25.0294 51.748 25.0371 51.8502L25.1172 52.1573H25.5712V52.9584H25.1305V56.5238H24.2626V52.9584H23.3813V56.5238H22.5133V55.9496L22.5267 55.8561ZM22.0326 55.4822L21.0579 54.2404L20.951 54.3205H20.8709C20.8058 54.3872 20.7517 54.4638 20.7107 54.5475C20.6906 54.6354 20.6906 54.7266 20.7107 54.8145C20.7084 54.9308 20.736 55.0458 20.7908 55.1484C20.8434 55.2433 20.9163 55.3254 21.0044 55.3887C21.0915 55.4423 21.186 55.4828 21.2848 55.5089C21.3957 55.5229 21.5078 55.5229 21.6187 55.5089H21.7789H21.9792L22.0326 55.4822ZM23.0074 52.0638H24.3427C24.3427 51.8769 24.2759 51.7033 24.2492 51.5564C24.221 51.4341 24.1854 51.3138 24.1424 51.1959C24.0782 50.9528 23.9646 50.7255 23.8086 50.5282C23.7514 50.4592 23.6801 50.4033 23.5995 50.3641C23.5188 50.3249 23.4308 50.3035 23.3412 50.3012C23.2609 50.303 23.1826 50.326 23.1142 50.3679C23.0436 50.4189 22.9883 50.4882 22.954 50.5683C22.9149 50.6635 22.8836 50.7618 22.8605 50.8621C22.8534 50.9777 22.8534 51.0936 22.8605 51.2092C22.8468 51.3245 22.8468 51.4411 22.8605 51.5564C22.8728 51.6577 22.8998 51.7567 22.9406 51.8502C22.9316 51.8852 22.9316 51.9219 22.9406 51.957C22.9549 51.997 22.9776 52.0334 23.0074 52.0638ZM25.8917 55.776V56.4303H26.4257V55.776H25.8917ZM11.2032 52.8517V56.4703H10.3353V54.414H9.18691L9.32041 54.5342H9.40053C9.46061 54.6046 9.50606 54.6863 9.53411 54.7745C9.54708 54.8675 9.54708 54.9619 9.53411 55.0549C9.54846 55.2545 9.51041 55.4543 9.42375 55.6347C9.33709 55.815 9.20484 55.9696 9.04005 56.0831C8.8985 56.1669 8.74555 56.2299 8.586 56.2701C8.39976 56.3256 8.20617 56.3526 8.01183 56.3502C7.78649 56.3551 7.56293 56.3094 7.35754 56.2166C7.16723 56.1364 7.00144 56.0075 6.87685 55.8428C6.77568 55.723 6.69445 55.5878 6.63642 55.4422C6.56556 55.2802 6.5162 55.1096 6.48956 54.9348V54.8145C6.48297 54.7703 6.48297 54.7253 6.48956 54.681C6.48307 54.6412 6.48307 54.6006 6.48956 54.5608C6.48956 54.5608 6.48956 54.4674 6.48956 54.4273H7.34417C7.32918 54.5783 7.32918 54.7303 7.34417 54.8813C7.36364 54.9971 7.39964 55.1095 7.45102 55.2151C7.51524 55.3259 7.60732 55.418 7.7181 55.4822C7.82868 55.5427 7.95251 55.5749 8.07858 55.5757C8.16647 55.5957 8.25776 55.5957 8.34566 55.5757C8.42687 55.5414 8.50318 55.4965 8.57264 55.4422C8.63657 55.3773 8.68662 55.3 8.71958 55.2151C8.74096 55.1184 8.74096 55.0181 8.71958 54.9214C8.74118 54.8427 8.74118 54.7597 8.71958 54.681C8.68612 54.608 8.63571 54.5439 8.57264 54.4941H8.47916H8.34566H7.94508V53.8532H8.35902H8.43914H8.51925C8.57228 53.8223 8.61425 53.7755 8.63939 53.7196C8.65342 53.649 8.65342 53.5765 8.63939 53.506C8.65921 53.4316 8.65921 53.3533 8.63939 53.279C8.61127 53.2102 8.56518 53.1502 8.50589 53.1054L8.30556 52.9985H8.07858C7.96229 52.9963 7.84736 53.0239 7.74475 53.0786C7.64223 53.1388 7.55889 53.2267 7.50441 53.3324C7.50441 53.3324 7.50441 53.3324 7.50441 53.4125V53.506C7.50902 53.5414 7.50902 53.5773 7.50441 53.6128H6.64979C6.6459 53.4347 6.67769 53.2576 6.74327 53.092C6.8092 52.9222 6.90922 52.7677 7.03708 52.638C7.16913 52.4816 7.3393 52.362 7.53114 52.2908C7.68238 52.2008 7.84372 52.1292 8.01183 52.0772C8.18477 52.0559 8.35968 52.0559 8.53262 52.0772C8.67213 52.1142 8.80662 52.168 8.9332 52.2374C9.0783 52.3329 9.1939 52.467 9.26703 52.6246C9.34461 52.7963 9.3812 52.9838 9.37387 53.1721C9.38782 53.2561 9.38782 53.3418 9.37387 53.4258C9.34669 53.4955 9.30579 53.5591 9.25366 53.6128L9.13353 53.6929H10.3219V52.7448H10.0014L9.72107 51.957H12.3917L12.2715 51.8101L12.1646 51.6766C12.0712 51.5564 11.9644 51.4496 11.8709 51.3428L11.5771 51.0623L11.2032 50.7151L10.9094 50.4748L10.8027 50.3947L10.6825 50.3145L11.0029 49.5534L11.1631 49.7136L11.2967 49.8472L11.6038 50.181L11.9644 50.5816L12.138 50.7952L12.3115 51.0223L12.4851 51.2626L12.6721 51.5297C12.7071 51.5993 12.7473 51.6662 12.7923 51.73C12.8426 51.8021 12.8872 51.878 12.9258 51.957H13.4599V52.7448H13.0326V56.3101H12.1513V52.7448L11.2032 52.8517Z" fill="#231F20"/>
<path id="Vector_3" fill-rule="evenodd" clip-rule="evenodd" d="M0 0H46.3487V63H0V0ZM2.7641 2.7641H43.5846V60.1825H2.7641V2.7641Z" fill="#00A651"/>
</g>
<defs>
<clipPath id="clip0_4_1243">
<rect width="46.3487" height="63" fill="white"/>
</clipPath>
</defs>
</svg>
