<svg width="141" height="24" viewBox="0 0 141 24" fill="none" xmlns="http://www.w3.org/2000/svg">
<g clip-path="url(#clip0_45_4281)">
<path d="M75.2078 6.97822C74.8628 5.99483 74.221 5.14281 73.371 4.5398C72.521 3.93679 71.5048 3.61254 70.4626 3.61182H70.4142C69.7365 3.61144 69.0657 3.74842 68.4424 4.01449C67.819 4.28057 67.2561 4.67022 66.7876 5.15991C66.3199 4.67009 65.7576 4.28032 65.1348 4.01422C64.512 3.74811 63.8417 3.61122 63.1645 3.61182H63.1189C61.9155 3.61048 60.7519 4.04353 59.8421 4.83138V4.44667C59.829 4.26003 59.7456 4.0853 59.6088 3.9577C59.4719 3.83009 59.2918 3.7591 59.1047 3.75902H55.7419C55.5448 3.75921 55.3558 3.83754 55.2164 3.97684C55.0769 4.11614 54.9984 4.30504 54.9981 4.50213V22.7663C54.9977 22.8642 55.0166 22.9613 55.0539 23.0518C55.0911 23.1424 55.1458 23.2247 55.2149 23.2941C55.284 23.3635 55.3661 23.4185 55.4566 23.4561C55.547 23.4936 55.644 23.513 55.7419 23.513H59.1047C59.2837 23.5131 59.4566 23.4482 59.5914 23.3306C59.7262 23.2129 59.8138 23.0503 59.8379 22.873V9.76222C59.8379 9.71813 59.8379 9.67404 59.8443 9.62995C59.8675 9.33361 59.9979 9.05588 60.2111 8.84879C60.4244 8.64171 60.7058 8.51947 61.0027 8.50497H61.6242C61.8835 8.52192 62.1316 8.61742 62.3353 8.77875C62.481 8.89734 62.5978 9.0475 62.6769 9.21789C62.756 9.38827 62.7953 9.57441 62.7918 9.76222L62.8025 22.8083C62.8031 23.0059 62.882 23.1952 63.022 23.3346C63.162 23.4741 63.3516 23.5523 63.5492 23.5521H66.912C67.1029 23.5515 67.2862 23.4772 67.4236 23.3447C67.561 23.2122 67.6419 23.0317 67.6494 22.841V9.74231C67.6453 9.53492 67.6935 9.32983 67.7894 9.14591C67.8853 8.962 68.026 8.80517 68.1984 8.68986C68.3851 8.57117 68.598 8.50011 68.8185 8.48293H69.4386C69.7584 8.5004 70.0589 8.64172 70.2763 8.87693C70.4938 9.11215 70.6111 9.42279 70.6034 9.74302L70.6169 22.7706C70.6165 22.8684 70.6355 22.9654 70.6726 23.0559C70.7098 23.1465 70.7645 23.2288 70.8335 23.2981C70.9025 23.3675 70.9846 23.4225 71.0749 23.4601C71.1653 23.4977 71.2621 23.5172 71.36 23.5172H74.7221C74.8201 23.5172 74.9171 23.4978 75.0076 23.4602C75.098 23.4226 75.1802 23.3676 75.2494 23.2983C75.3186 23.2289 75.3735 23.1466 75.4109 23.0561C75.4483 22.9656 75.4675 22.8685 75.4674 22.7706V8.76168C75.4962 8.15825 75.4095 7.55486 75.2121 6.98391" fill="#00B2F1"/>
<path d="M52.4381 3.80736H50.5181V0.678474C50.521 0.577458 50.5008 0.477112 50.459 0.38511C50.4171 0.293108 50.3548 0.211888 50.2768 0.147658C50.1988 0.0834292 50.1071 0.0378921 50.0088 0.0145313C49.9105 -0.00882947 49.8081 -0.0093941 49.7095 0.0128766C47.5762 0.598121 48.0029 3.55208 44.1131 3.80452H43.7319C43.6772 3.80518 43.6226 3.81137 43.5691 3.82301C43.4048 3.86042 43.258 3.9526 43.153 4.0844C43.0479 4.2162 42.9908 4.3798 42.991 4.54834V7.90834C42.9906 8.0062 43.0095 8.10318 43.0467 8.1937C43.0839 8.28423 43.1385 8.36653 43.2076 8.43589C43.2766 8.50525 43.3586 8.56031 43.449 8.59791C43.5393 8.63551 43.6362 8.65492 43.7341 8.65501H45.7643V22.9135C45.7641 23.0102 45.783 23.106 45.8199 23.1954C45.8569 23.2848 45.9111 23.366 45.9795 23.4344C46.0478 23.5027 46.129 23.5569 46.2184 23.5939C46.3078 23.6308 46.4036 23.6497 46.5003 23.6495H49.824C49.9205 23.6494 50.0161 23.6303 50.1052 23.5932C50.1942 23.5562 50.2752 23.5019 50.3433 23.4335C50.4113 23.3652 50.4653 23.2841 50.502 23.1948C50.5387 23.1056 50.5575 23.01 50.5572 22.9135V8.65501H52.4409C52.5387 8.65482 52.6355 8.63535 52.7258 8.59771C52.8161 8.56007 52.898 8.50499 52.967 8.43564C53.0359 8.36629 53.0905 8.28401 53.1277 8.19353C53.1648 8.10305 53.1837 8.00614 53.1833 7.90834V4.54834C53.1836 4.4507 53.1646 4.35397 53.1274 4.26369C53.0902 4.17341 53.0356 4.09136 52.9666 4.02226C52.8976 3.95315 52.8157 3.89834 52.7255 3.86098C52.6353 3.82361 52.5386 3.80443 52.4409 3.80452" fill="#00B2F1"/>
<path d="M40.3371 3.80807H36.9757C36.8779 3.80788 36.781 3.82698 36.6906 3.86427C36.6002 3.90157 36.518 3.95633 36.4488 4.02542C36.3796 4.09451 36.3247 4.17657 36.2872 4.26691C36.2497 4.35725 36.2304 4.45409 36.2304 4.55189V11.5037C36.2275 11.7098 36.1439 11.9065 35.9977 12.0518C35.8515 12.197 35.6543 12.2793 35.4482 12.281H34.0352C33.8257 12.2806 33.625 12.1971 33.477 12.0488C33.329 11.9006 33.2459 11.6997 33.2459 11.4902L33.2338 4.55047C33.234 4.45279 33.2149 4.35604 33.1776 4.26576C33.1404 4.17548 33.0856 4.09344 33.0166 4.02434C32.9476 3.95524 32.8656 3.90044 32.7753 3.86309C32.6851 3.82573 32.5884 3.80655 32.4907 3.80664H29.1257C29.0281 3.80664 28.9314 3.82589 28.8413 3.86329C28.7511 3.90069 28.6692 3.9555 28.6003 4.02459C28.5313 4.09368 28.4766 4.17569 28.4394 4.26592C28.4022 4.35616 28.3831 4.45285 28.3833 4.55047V12.1722C28.3571 12.8305 28.4674 13.4871 28.7074 14.1007C28.9474 14.7143 29.3118 15.2715 29.7778 15.7373C30.2437 16.2031 30.801 16.5674 31.4147 16.8072C32.0283 17.047 32.685 17.1572 33.3433 17.1307C33.3433 17.1307 35.5179 17.1307 35.5847 17.1428C35.7779 17.1608 35.9574 17.2499 36.0885 17.3929C36.2196 17.5358 36.293 17.7223 36.2943 17.9163C36.2957 18.1103 36.2249 18.2978 36.0957 18.4425C35.9666 18.5872 35.7883 18.6788 35.5954 18.6994C35.5783 18.6994 35.562 18.7058 35.5406 18.7087L30.6219 18.7272C30.5241 18.7271 30.4273 18.7462 30.3369 18.7836C30.2465 18.8209 30.1644 18.8757 30.0952 18.9447C30.026 19.0138 29.9711 19.0958 29.9336 19.1861C29.8961 19.2764 29.8767 19.3732 29.8766 19.471V22.8338C29.8774 23.0311 29.9562 23.2201 30.0958 23.3595C30.2355 23.4988 30.4246 23.5773 30.6219 23.5777H36.1188C36.7773 23.6042 37.4342 23.4941 38.0481 23.2542C38.6619 23.0144 39.2195 22.65 39.6856 22.1841C40.1517 21.7181 40.5162 21.1607 40.7562 20.5469C40.9962 19.9331 41.1066 19.2762 41.0802 18.6177V4.55189C41.0804 4.45416 41.0613 4.35735 41.024 4.26702C40.9866 4.17669 40.9319 4.09462 40.8628 4.02551C40.7936 3.9564 40.7116 3.90162 40.6212 3.8643C40.5309 3.82699 40.4348 3.80788 40.3371 3.80807Z" fill="#0C2756"/>
<path d="M8.07971 3.80954H0.728243C0.632498 3.80935 0.537658 3.82804 0.449147 3.86456C0.360636 3.90107 0.280197 3.95467 0.212428 4.02231C0.14466 4.08994 0.0908922 4.17028 0.0542089 4.25872C0.0175257 4.34716 -0.00135222 4.44197 -0.00135203 4.53771V7.83087V7.8458V7.89772V22.8111C-0.00726131 22.9995 0.0603926 23.1828 0.187287 23.3222C0.314182 23.4616 0.490346 23.5461 0.678466 23.5578H4.10531C4.20353 23.5583 4.30087 23.5393 4.39171 23.5019C4.48256 23.4646 4.5651 23.4096 4.63459 23.3402C4.70407 23.2708 4.75912 23.1883 4.79655 23.0975C4.83399 23.0067 4.85307 22.9094 4.85269 22.8111L4.86478 17.6997H8.08185C8.69005 17.7293 9.29771 17.6313 9.86578 17.412C10.4338 17.1927 10.9497 16.857 11.3803 16.4264C11.8109 15.9958 12.1466 15.4799 12.3659 14.9119C12.5852 14.3438 12.6832 13.7361 12.6536 13.1279V8.38411C12.6828 7.77584 12.5846 7.16818 12.3652 6.60009C12.1458 6.032 11.8102 5.51602 11.3797 5.08524C10.9493 4.65447 10.4336 4.3184 9.86565 4.09859C9.29773 3.87878 8.69014 3.78008 8.08185 3.80883M7.78673 9.96847V12.0456C7.78636 12.2545 7.70322 12.4547 7.55554 12.6023C7.40786 12.75 7.20767 12.8332 6.99882 12.8335H4.86549V8.67353H6.99882C7.10232 8.67344 7.20482 8.69376 7.30045 8.73332C7.39609 8.77288 7.48298 8.83092 7.55617 8.9041C7.62935 8.97728 7.68738 9.06418 7.72695 9.15981C7.76651 9.25545 7.78683 9.35794 7.78673 9.46144V9.96847Z" fill="#0C2756"/>
<path d="M21.2054 3.82652H16.5405C16.349 3.82037 16.1627 3.89029 16.0226 4.021C15.8824 4.15171 15.7997 4.33259 15.7924 4.52411V5.83043V5.84891V5.88518V7.67789C15.7998 7.88106 15.8876 8.07297 16.0364 8.2115C16.1852 8.35003 16.3829 8.42384 16.586 8.41673H21.0291C21.2055 8.43992 21.3685 8.52338 21.4904 8.65297C21.6124 8.78257 21.6858 8.95033 21.6982 9.12785V9.56092C21.6856 9.73386 21.6137 9.89713 21.4946 10.0232C21.3755 10.1492 21.2166 10.2304 21.0447 10.2528H18.8474C15.9204 10.2528 13.834 12.1963 13.834 14.9255V18.8366C13.7991 19.4605 13.8973 20.0846 14.1219 20.6677C14.3465 21.2507 14.6924 21.7794 15.1368 22.2186C15.5812 22.6578 16.1139 22.9975 16.6995 23.2153C17.2851 23.433 17.9104 23.5238 18.5338 23.4816H24.6323C25.1401 23.4985 25.634 23.3134 26.0056 22.9669C26.3772 22.6203 26.5963 22.1405 26.6148 21.6327V8.87469C26.6148 5.77923 25.017 3.82652 21.2054 3.82652ZM21.7423 17.8646V18.3894C21.7408 18.4307 21.7358 18.4719 21.7274 18.5124C21.72 18.5495 21.7103 18.5861 21.6982 18.6219C21.6401 18.7732 21.5369 18.9029 21.4026 18.9935C21.2682 19.084 21.1093 19.1311 20.9473 19.1282H19.5485C19.3456 19.1347 19.1484 19.0607 19 18.9222C18.8515 18.7838 18.7639 18.5922 18.7563 18.3894V17.7536V17.7373V16.042V15.5101C18.7647 15.3077 18.8526 15.1169 19.0009 14.979C19.1493 14.8412 19.3461 14.7675 19.5485 14.7741H20.9473C21.1507 14.7673 21.3486 14.8414 21.4975 14.9802C21.6465 15.1189 21.7345 15.3109 21.7423 15.5143V17.8646Z" fill="#0C2756"/>
<path d="M81.1549 8.71546H81.871C82.7342 8.76837 83.5903 8.53025 84.3023 8.03919C84.5953 7.80347 84.8282 7.50152 84.9817 7.1582C85.1353 6.81489 85.2051 6.44001 85.1855 6.06444C85.1855 4.42533 84.1366 3.59546 82.0687 3.59546H79.8507V11.7789H81.1549V8.71404M81.1549 4.77733H81.9656C82.4744 4.73775 82.9832 4.85515 83.4233 5.11368C83.5701 5.23139 83.6858 5.38333 83.7602 5.55616C83.8346 5.729 83.8654 5.91744 83.85 6.10497C83.8702 6.30959 83.8391 6.51602 83.7596 6.70561C83.68 6.8952 83.5544 7.06197 83.3942 7.19084C82.899 7.46471 82.3339 7.58594 81.77 7.53928H81.1556L81.1549 4.77733Z" fill="#00B2F1"/>
<path d="M89.4991 11.4767C89.918 11.2661 90.2852 10.9655 90.5743 10.5963L90.7826 11.5969H91.8073V6.3574C91.8394 5.99633 91.7953 5.63254 91.6779 5.28957C91.5606 4.9466 91.3726 4.63206 91.1261 4.36629C90.5408 3.90789 89.8052 3.68493 89.0639 3.74122C88.608 3.74289 88.1541 3.80166 87.7128 3.91616C87.2802 4.02733 86.8622 4.18916 86.4676 4.39829L86.3887 4.44238L86.8153 5.49625L86.9113 5.44931C87.5552 5.1058 88.2679 4.91138 88.997 4.88042C89.2049 4.86108 89.4145 4.88573 89.6123 4.95274C89.81 5.01976 89.9915 5.12765 90.1448 5.2694C90.4106 5.62747 90.537 6.07009 90.5003 6.51456V6.88433L89.3177 6.9206C86.8288 6.99669 85.5716 7.83437 85.5716 9.41375C85.5525 9.73111 85.6023 10.0488 85.7176 10.3451C85.8328 10.6414 86.0108 10.9093 86.2393 11.1304C86.7488 11.5549 87.4005 11.7701 88.0626 11.7327C88.5549 11.7478 89.0449 11.6599 89.5012 11.4746M90.4726 7.89411V8.47153C90.4898 8.75824 90.4472 9.04541 90.3474 9.31475C90.2477 9.58409 90.0929 9.82971 89.893 10.036C89.4527 10.426 88.876 10.6261 88.2888 10.5928C87.9364 10.6132 87.5883 10.5076 87.3067 10.2948C87.1883 10.1847 87.0961 10.0493 87.0369 9.89882C86.9777 9.74831 86.953 9.58645 86.9647 9.42514C86.9497 9.21191 86.9935 8.99866 87.0913 8.80859C87.1891 8.61852 87.3372 8.4589 87.5193 8.34709C88.1165 8.05663 88.7756 7.91628 89.4393 7.9382L90.4726 7.89411Z" fill="#00B2F1"/>
<path d="M96.7851 12.5775L100.022 4.00081L100.073 3.8657H98.634L98.6098 3.9297C97.561 6.83103 96.9316 8.59032 96.7439 9.15281C96.6116 9.54677 96.5114 9.85681 96.4417 10.0879C96.3265 9.64703 96.121 9.02126 95.8259 8.22268L94.1533 3.86499H92.7133L95.7924 11.5386L95.3878 12.574C95.3022 12.9302 95.0999 13.2475 94.813 13.4754C94.5261 13.7032 94.1712 13.8285 93.8049 13.8312C93.5276 13.8333 93.2509 13.8064 92.9793 13.7509L92.8577 13.7238V14.841L92.9352 14.8595C93.281 14.9379 93.6345 14.9772 93.989 14.9768C94.5843 14.9933 95.1659 14.7972 95.6296 14.4236C96.1637 13.9142 96.5606 13.2782 96.7837 12.5747" fill="#00B2F1"/>
<path d="M109.348 3.72703C108.824 3.7182 108.307 3.84043 107.844 4.08259C107.458 4.28326 107.131 4.58014 106.894 4.94446C106.668 4.5312 106.324 4.1946 105.906 3.97763C105.488 3.76067 105.015 3.67317 104.547 3.72632C104.074 3.71944 103.606 3.82961 103.186 4.04704C102.845 4.22369 102.552 4.48039 102.333 4.79512L102.164 3.86428H101.055V11.5976H102.392V7.54428C102.332 6.83027 102.499 6.11564 102.869 5.50197C103.052 5.29062 103.283 5.12565 103.543 5.02049C103.802 4.91533 104.083 4.87295 104.362 4.89681C104.569 4.87904 104.777 4.90703 104.972 4.97881C105.166 5.05059 105.343 5.16438 105.488 5.3121C105.756 5.68455 105.884 6.13965 105.849 6.59708V11.599H107.19V7.29112C107.139 6.64742 107.311 6.00576 107.675 5.47281C107.865 5.27021 108.099 5.11308 108.358 5.01312C108.617 4.91315 108.896 4.87291 109.173 4.89539C109.378 4.87764 109.585 4.90568 109.779 4.97748C109.972 5.04929 110.148 5.16308 110.292 5.31068C110.562 5.68218 110.691 6.13775 110.655 6.59566V11.5976H111.995V6.58428C112.061 5.80219 111.823 5.02488 111.331 4.41326C111.064 4.17014 110.75 3.98388 110.409 3.86579C110.067 3.7477 109.706 3.70025 109.345 3.72632" fill="#00B2F1"/>
<path d="M116.738 3.72695C116.266 3.7091 115.796 3.79976 115.365 3.99196C114.933 4.18415 114.552 4.47276 114.249 4.83558C113.601 5.68127 113.275 6.7302 113.329 7.79451C113.27 8.8517 113.627 9.89007 114.325 10.6866C114.677 11.0406 115.099 11.3167 115.565 11.4971C116.03 11.6776 116.528 11.7583 117.027 11.7341C117.472 11.7402 117.916 11.7016 118.352 11.6189C118.752 11.5301 119.141 11.4027 119.516 11.2384L119.576 11.2114V9.97691L119.434 10.0374C118.688 10.362 117.883 10.5313 117.07 10.5351C116.753 10.5539 116.437 10.5053 116.141 10.3925C115.845 10.2797 115.576 10.1053 115.353 9.88091C114.926 9.36069 114.699 8.70493 114.713 8.03202H119.899V7.21069C119.939 6.29251 119.635 5.39251 119.046 4.68695C118.754 4.36619 118.396 4.11352 117.996 3.94688C117.595 3.78023 117.163 3.70369 116.73 3.72269M115.344 5.43646C115.519 5.24968 115.733 5.10308 115.97 5.00671C116.207 4.91035 116.462 4.86652 116.718 4.87824C116.961 4.86228 117.205 4.9024 117.429 4.99549C117.654 5.08859 117.855 5.23217 118.015 5.41513C118.331 5.84586 118.492 6.37105 118.471 6.90491H114.747C114.79 6.36571 115.001 5.85354 115.35 5.44073L115.344 5.43646Z" fill="#00B2F1"/>
<path d="M125.308 3.72705C124.806 3.72036 124.31 3.8281 123.856 4.04207C123.489 4.21662 123.17 4.47745 122.926 4.80225L122.758 3.86429H121.648V11.5976H122.988V7.5443C122.923 6.82345 123.109 6.10226 123.513 5.50198C123.728 5.28601 123.988 5.11987 124.274 5.0153C124.56 4.91073 124.866 4.87029 125.169 4.89683C125.394 4.87665 125.62 4.90382 125.834 4.97658C126.047 5.04933 126.243 5.16607 126.409 5.31923C126.699 5.68981 126.84 6.1561 126.803 6.62554V11.599H128.144V6.58572C128.178 6.19365 128.131 5.79876 128.008 5.42522C127.884 5.05168 127.685 4.70734 127.423 4.41327C126.833 3.91872 126.074 3.67291 125.306 3.72776" fill="#00B2F1"/>
<path d="M133.39 10.5494C133.202 10.5784 133.012 10.5932 132.821 10.5935C132.67 10.6017 132.518 10.5762 132.378 10.5189C132.237 10.4616 132.111 10.374 132.008 10.2621C131.793 9.9833 131.688 9.63555 131.711 9.28436V4.95298H133.898V3.86712H131.711V2.12134H130.878L130.389 3.75689L129.294 4.2376V4.95298H130.372V9.33627C130.372 10.927 131.138 11.7384 132.657 11.7384C132.88 11.7349 133.103 11.7147 133.323 11.678C133.52 11.6511 133.712 11.599 133.896 11.5229L133.953 11.4938V10.4271L133.825 10.4648C133.683 10.5027 133.537 10.5322 133.391 10.553" fill="#00B2F1"/>
<path d="M139.819 8.12873C139.282 7.66565 138.651 7.32239 137.971 7.12179C137.524 6.96635 137.089 6.78251 136.666 6.57139C136.486 6.48026 136.326 6.35237 136.198 6.19593C136.106 6.06073 136.059 5.89994 136.064 5.73655C136.062 5.6103 136.096 5.48606 136.161 5.37778C136.226 5.2695 136.319 5.18147 136.432 5.12357C136.792 4.93946 137.196 4.85639 137.599 4.88322C138.296 4.90498 138.981 5.06096 139.618 5.3426L139.708 5.37886L140.194 4.27024L140.1 4.23184C139.337 3.90202 138.514 3.73074 137.683 3.72837C136.939 3.68976 136.202 3.88201 135.572 4.27877C135.322 4.44818 135.119 4.67782 134.981 4.9465C134.843 5.21519 134.775 5.51428 134.783 5.8162C134.774 6.14299 134.852 6.46627 135.009 6.75273C135.185 7.03433 135.422 7.27239 135.703 7.44891C136.182 7.73145 136.689 7.96379 137.216 8.14224C137.734 8.31405 138.225 8.55774 138.675 8.86615C138.781 8.94315 138.868 9.04433 138.928 9.16139C138.988 9.27845 139.019 9.40806 139.019 9.53957C139.028 9.69731 138.992 9.85429 138.916 9.9926C138.839 10.1309 138.726 10.245 138.588 10.3218C138.178 10.525 137.723 10.6184 137.267 10.5927C136.869 10.5899 136.473 10.5373 136.088 10.4363C135.693 10.3377 135.309 10.1946 134.946 10.0096L134.799 9.93851V11.2185L134.851 11.2455C135.592 11.607 136.412 11.7753 137.235 11.7348C138.032 11.7802 138.823 11.5737 139.496 11.1446C139.764 10.9514 139.979 10.6948 140.123 10.3978C140.267 10.1007 140.334 9.77259 140.32 9.44286C140.334 8.95613 140.155 8.48365 139.822 8.12802" fill="#00B2F1"/>
<path d="M84.3044 19.6182C84.55 19.5132 84.7687 19.3542 84.9444 19.1531C85.2377 18.7958 85.3916 18.3444 85.3775 17.8823C85.3988 17.5661 85.338 17.2496 85.2009 16.9638C85.0639 16.678 84.8552 16.4324 84.5953 16.251C83.8746 15.8644 83.0584 15.6917 82.2429 15.7533H79.8493V23.9311H82.7606C83.5124 23.9736 84.2553 23.7503 84.8591 23.3003C85.1171 23.0826 85.3218 22.8086 85.4574 22.4995C85.593 22.1903 85.6559 21.8541 85.6413 21.5168C85.6624 21.0964 85.5426 20.681 85.3008 20.3364C85.059 19.9918 84.7091 19.7378 84.3065 19.6146M84.2731 21.4528C84.2906 21.637 84.2634 21.8227 84.1938 21.9942C84.1243 22.1656 84.0144 22.3178 83.8735 22.4377C83.4876 22.6808 83.0341 22.7941 82.5793 22.7613H81.157V20.2482H82.5081C82.9843 20.214 83.46 20.3203 83.8763 20.554C84.0136 20.6583 84.1219 20.796 84.1909 20.9539C84.26 21.1118 84.2876 21.2848 84.271 21.4564L84.2731 21.4528ZM81.1535 19.0841V16.933H82.2863C82.7624 16.8987 83.2393 16.9889 83.6701 17.1947C83.7971 17.2775 83.899 17.3936 83.9647 17.5302C84.0303 17.6669 84.0573 17.8189 84.0427 17.9698C84.062 18.1288 84.0413 18.2901 83.9826 18.4391C83.9239 18.5881 83.8289 18.7201 83.7064 18.8231C83.3196 19.0316 82.8805 19.123 82.4427 19.0862L81.1535 19.0841Z" fill="#00B2F1"/>
<path d="M90.021 15.9246C89.1051 15.9307 88.2044 16.1591 87.3963 16.5902L87.3188 16.6301L87.7455 17.6967L87.8429 17.6484C88.4943 17.3022 89.215 17.1064 89.9521 17.0752C90.1615 17.0557 90.3728 17.0804 90.5721 17.1478C90.7714 17.2152 90.9544 17.3237 91.109 17.4663C91.3782 17.8287 91.5064 18.2765 91.4696 18.7264V19.1005L90.2749 19.1389C87.7618 19.2164 86.489 20.0633 86.489 21.6555C86.4701 21.9762 86.5206 22.2972 86.6371 22.5967C86.7536 22.8961 86.9332 23.1669 87.1638 23.3906C87.6789 23.8191 88.3373 24.0363 89.0063 23.9986C89.5045 24.0128 90.0002 23.9242 90.4626 23.7383C90.8854 23.5258 91.2556 23.222 91.5464 22.8487L91.7597 23.8614H92.7951V18.5657C92.8265 18.2006 92.7814 17.8329 92.6625 17.4862C92.5436 17.1395 92.3536 16.8215 92.1046 16.5526C91.5133 16.09 90.7703 15.8655 90.0218 15.9232M91.444 20.1188V20.7026C91.4614 20.9921 91.4186 21.282 91.3181 21.554C91.2176 21.826 91.0616 22.0741 90.8602 22.2827C90.4147 22.6777 89.8311 22.8804 89.2367 22.8466C88.879 22.8703 88.525 22.7625 88.2411 22.5437C88.1224 22.4327 88.0299 22.2967 87.9703 22.1455C87.9106 21.9944 87.8853 21.8318 87.8962 21.6697C87.8807 21.4536 87.9249 21.2374 88.0238 21.0447C88.1227 20.852 88.2727 20.6901 88.4573 20.5767C89.059 20.2827 89.7236 20.1406 90.393 20.1629L91.444 20.1188Z" fill="#00B2F1"/>
<path d="M98.6703 15.9111C98.1626 15.9041 97.6601 16.0134 97.2011 16.2304C96.8299 16.4052 96.5074 16.6684 96.2617 16.997L96.0918 16.0498H94.9711V23.8628H96.3222V19.7696C96.2574 19.0404 96.4447 18.311 96.8527 17.7031C97.0699 17.484 97.3328 17.3154 97.6226 17.2094C97.9125 17.1035 98.2221 17.0628 98.5295 17.0902C98.7565 17.07 98.9853 17.0976 99.201 17.1711C99.4168 17.2446 99.6149 17.3623 99.7825 17.5168C100.075 17.8926 100.217 18.3645 100.179 18.8395V23.8635H101.53V18.7961C101.564 18.4006 101.517 18.0024 101.393 17.6254C101.269 17.2484 101.07 16.9004 100.808 16.6023C100.211 16.1038 99.4434 15.8563 98.6674 15.9119" fill="#00B2F1"/>
<path d="M109.912 16.0498H108.27L105.781 18.688C105.459 19.0486 105.201 19.3586 105.006 19.6125C105.031 19.2093 105.045 18.9014 105.045 18.688V12.8569H103.702V23.8678H105.042V20.965L105.791 20.3172L108.447 23.8678H110.093L106.722 19.4056L109.909 16.0548" fill="#00B2F1"/>
</g>
<defs>
<clipPath id="clip0_45_4281">
<rect width="140.316" height="24" fill="white"/>
</clipPath>
</defs>
</svg>
