<svg width="265" height="52" viewBox="0 0 265 52" fill="none" xmlns="http://www.w3.org/2000/svg">
<g clip-path="url(#clip0_4_1055)">
<path d="M0 0H265V52H0V0Z" fill="#A20E37"/>
<path d="M49.7352 10.2059H57.0817V39.0882H49.7352V31.9853C43.2263 34.4117 37.1435 34.6323 31.5161 29.0441C29.1947 26.6029 27.9017 23.2647 28.46 17.4265C28.403 15.1014 27.9303 12.8053 27.0642 10.647H33.6613C36.7321 15.6029 32.7063 21.4117 37.4373 25.4559C43.8581 29.6764 49.4708 24.647 49.7352 20.0735V10.2059ZM42.3888 13.3088C43.6465 13.3117 44.8751 13.6877 45.9194 14.3891C46.9636 15.0906 47.7768 16.086 48.2561 17.2498C48.7353 18.4136 48.8592 19.6935 48.6121 20.9277C48.3649 22.162 47.7578 23.2952 46.8675 24.1842C45.9772 25.0733 44.8436 25.6783 43.6099 25.9228C42.3762 26.1673 41.0977 26.0403 39.9361 25.558C38.7744 25.0756 37.7817 24.2594 37.0833 23.2126C36.3849 22.1658 36.0121 20.9352 36.0121 19.6765C36.016 17.9863 36.6896 16.3667 37.885 15.173C39.0805 13.9792 40.7002 13.3088 42.3888 13.3088Z" fill="#FBBC09"/>
<path d="M67.9544 19.4118C69.3404 19.4273 70.664 19.9913 71.6359 20.9806C72.6077 21.9698 73.1488 23.3039 73.141 24.6912C73.1402 25.5044 72.9447 26.3055 72.5709 27.0275C72.1971 27.7495 71.6558 28.3713 70.9925 28.8408C70.3291 29.3103 69.563 29.6138 68.7583 29.726C67.9536 29.8381 67.1338 29.7556 66.3676 29.4853V27.0883C66.7699 27.3511 67.2352 27.5013 67.7151 27.5231C68.195 27.545 68.672 27.4377 69.0965 27.2125C69.521 26.9873 69.8774 26.6524 70.1287 26.2426C70.3801 25.8328 70.5171 25.3632 70.5256 24.8824C70.5256 24.1492 70.2346 23.4459 69.7166 22.9274C69.1986 22.409 68.496 22.1177 67.7634 22.1177C67.0308 22.1177 66.3282 22.409 65.8102 22.9274C65.2922 23.4459 65.0011 24.1492 65.0011 24.8824C65.0011 28.1177 64.9277 31.3677 64.9277 34.603H62.7678V24.2059C62.8507 22.8952 63.4337 21.6666 64.3964 20.7742C65.3591 19.8819 66.6277 19.3941 67.9397 19.4118" fill="white"/>
<path d="M73.9049 19.8529H76.1823V25C76.13 25.3198 76.1477 25.6473 76.2344 25.9596C76.3211 26.2719 76.4745 26.5616 76.6842 26.8086C76.8938 27.0556 77.1546 27.2541 77.4485 27.3901C77.7425 27.5262 78.0624 27.5967 78.3863 27.5967C78.7101 27.5967 79.03 27.5262 79.3239 27.3901C79.6178 27.2541 79.8787 27.0556 80.0884 26.8086C80.298 26.5616 80.4515 26.2719 80.5381 25.9596C80.6248 25.6473 80.6426 25.3198 80.5902 25V19.8529H82.8823V25.1765C83.1027 31.7794 73.5229 31.3382 73.8608 25.1765L73.9049 19.8529Z" fill="white"/>
<path d="M84.1312 29.6765H86.4085V24.4853C86.3562 24.1654 86.3739 23.838 86.4606 23.5257C86.5473 23.2134 86.7007 22.9237 86.9104 22.6767C87.12 22.4297 87.3809 22.2313 87.6748 22.0952C87.9687 21.9591 88.2886 21.8886 88.6125 21.8886C88.9363 21.8886 89.2563 21.9591 89.5502 22.0952C89.8441 22.2313 90.1049 22.4297 90.3145 22.6767C90.5242 22.9237 90.6777 23.2134 90.7643 23.5257C90.851 23.838 90.8687 24.1654 90.8164 24.4853V29.6765H93.0938V24.3529C93.3288 17.75 83.7344 18.2059 84.0724 24.3529L84.1312 29.6765Z" fill="white"/>
<path d="M115.53 30.0441C116.916 30.0286 118.239 29.4646 119.211 28.4753C120.183 27.4861 120.724 26.152 120.716 24.7647C120.711 23.9544 120.514 23.157 120.14 22.4383C119.766 21.7196 119.227 21.1004 118.566 20.6319C117.905 20.1634 117.143 19.8591 116.342 19.7441C115.54 19.629 114.723 19.7067 113.958 19.9706V22.3676C114.359 22.1036 114.823 21.9525 115.303 21.9302C115.782 21.9079 116.259 22.0152 116.683 22.2408C117.107 22.4664 117.462 22.8021 117.712 23.2125C117.961 23.623 118.096 24.0931 118.101 24.5735C118.101 25.3067 117.81 26.01 117.292 26.5285C116.774 27.047 116.071 27.3382 115.339 27.3382C114.606 27.3382 113.904 27.047 113.386 26.5285C112.868 26.01 112.576 25.3067 112.576 24.5735C112.576 21.3382 112.503 18.0882 112.503 14.8529H110.343V24.7647V25.2647C110.422 26.5727 111.003 27.7998 111.964 28.6901C112.924 29.5804 114.191 30.0654 115.5 30.0441" fill="white"/>
<path d="M93.7843 22.2353V19.8823H98.3097V29.4118C98.3626 30.7949 97.8753 32.1442 96.9509 33.1737C96.0266 34.2032 94.7379 34.8319 93.3583 34.9265V32.7794C94.1074 32.578 94.7687 32.1341 95.2392 31.5169C95.7096 30.8997 95.9627 30.1439 95.9589 29.3676V22.2059L93.7843 22.2353Z" fill="white"/>
<path d="M99.1473 25.4118C99.0746 24.2213 99.4068 23.0412 100.09 22.0639C100.773 21.0865 101.766 20.3694 102.909 20.0294C103.633 19.7776 104.407 19.7034 105.166 19.8131C105.924 19.9228 106.646 20.2132 107.269 20.6598C107.893 21.1065 108.4 21.6965 108.748 22.38C109.096 23.0636 109.275 23.8209 109.271 24.5883V29.5441H107.17V24.5148C107.077 23.9646 106.822 23.455 106.436 23.0522C106.05 22.6494 105.553 22.3721 105.007 22.2563C104.462 22.1405 103.895 22.1916 103.379 22.4029C102.863 22.6142 102.423 22.976 102.115 23.4412C101.916 23.7489 101.78 24.0938 101.717 24.4552C101.654 24.8167 101.665 25.1871 101.749 25.5443C101.832 25.9015 101.987 26.238 102.204 26.5337C102.421 26.8293 102.696 27.078 103.011 27.2647C103.888 27.5973 104.839 27.6788 105.759 27.5V29.6471C104.874 29.9639 103.918 30.0214 103.002 29.8131C102.086 29.6047 101.248 29.1389 100.587 28.4706C99.7858 27.6327 99.2712 26.5615 99.1179 25.4118" fill="white"/>
<path d="M124.228 29.6765H126.505V24.4853C126.453 24.1654 126.471 23.838 126.557 23.5257C126.644 23.2134 126.798 22.9237 127.007 22.6767C127.217 22.4297 127.478 22.2313 127.772 22.0952C128.065 21.9591 128.385 21.8886 128.709 21.8886C129.033 21.8886 129.353 21.9591 129.647 22.0952C129.941 22.2313 130.202 22.4297 130.411 22.6767C130.621 22.9237 130.774 23.2134 130.861 23.5257C130.948 23.838 130.966 24.1654 130.913 24.4853V29.6765H133.205V24.3529C133.426 17.75 123.846 18.2059 124.184 24.3529L124.228 29.6765Z" fill="white"/>
<path d="M134.263 25.4118C134.191 24.2194 134.526 23.0379 135.212 22.0602C135.897 21.0826 136.894 20.3667 138.039 20.0294C138.763 19.7776 139.537 19.7034 140.296 19.8131C141.055 19.9228 141.776 20.2132 142.4 20.6598C143.023 21.1065 143.53 21.6965 143.879 22.38C144.227 23.0636 144.406 23.8209 144.401 24.5883V29.5441H142.285V24.5148C142.193 23.9646 141.938 23.455 141.552 23.0522C141.166 22.6494 140.669 22.3721 140.123 22.2563C139.578 22.1405 139.011 22.1916 138.495 22.4029C137.979 22.6142 137.539 22.976 137.231 23.4412C137.031 23.7489 136.896 24.0938 136.833 24.4552C136.77 24.8167 136.781 25.1871 136.865 25.5443C136.948 25.9015 137.103 26.238 137.32 26.5337C137.537 26.8293 137.812 27.078 138.127 27.2647C139.004 27.5973 139.955 27.6788 140.875 27.5V29.6471C139.99 29.9639 139.034 30.0214 138.118 29.8131C137.202 29.6047 136.364 29.1389 135.703 28.4706C134.902 27.6327 134.387 26.5615 134.234 25.4118" fill="white"/>
<path d="M166.485 29.6765H168.777V24.4853C168.724 24.1654 168.742 23.838 168.829 23.5257C168.915 23.2134 169.069 22.9237 169.278 22.6767C169.488 22.4297 169.749 22.2313 170.043 22.0952C170.337 21.9591 170.657 21.8886 170.981 21.8886C171.304 21.8886 171.624 21.9591 171.918 22.0952C172.212 22.2313 172.473 22.4297 172.683 22.6767C172.892 22.9237 173.046 23.2134 173.132 23.5257C173.219 23.838 173.237 24.1654 173.184 24.4853V29.6765H175.462V24.3529C175.697 17.75 166.102 18.2059 166.44 24.3529L166.485 29.6765Z" fill="white"/>
<path d="M176.52 25.4118C176.451 24.2199 176.786 23.0396 177.471 22.0626C178.157 21.0855 179.152 20.369 180.296 20.0294C181.02 19.7776 181.794 19.7034 182.553 19.8131C183.312 19.9228 184.033 20.2132 184.656 20.6598C185.28 21.1065 185.787 21.6965 186.135 22.38C186.483 23.0636 186.663 23.8209 186.658 24.5883V29.5441H184.557V24.5148C184.464 23.9646 184.209 23.455 183.823 23.0522C183.438 22.6494 182.94 22.3721 182.395 22.2563C181.849 22.1405 181.282 22.1916 180.766 22.4029C180.25 22.6142 179.81 22.976 179.502 23.4412C179.303 23.7489 179.167 24.0938 179.104 24.4552C179.041 24.8167 179.052 25.1871 179.136 25.5443C179.219 25.9015 179.375 26.238 179.592 26.5337C179.809 26.8293 180.083 27.078 180.399 27.2647C181.275 27.5981 182.226 27.6796 183.146 27.5V29.6471C182.262 29.9657 181.305 30.0242 180.388 29.8157C179.472 29.6072 178.634 29.1404 177.974 28.4706C177.169 27.6357 176.653 26.563 176.505 25.4118" fill="white"/>
<path d="M153.232 15.1176C153.589 15.1176 153.938 15.2238 154.236 15.4225C154.533 15.6213 154.764 15.9038 154.901 16.2343C155.038 16.5648 155.074 16.9285 155.004 17.2794C154.934 17.6302 154.762 17.9525 154.509 18.2055C154.257 18.4585 153.935 18.6307 153.584 18.7005C153.234 18.7703 152.87 18.7345 152.54 18.5976C152.21 18.4607 151.928 18.2289 151.729 17.9314C151.53 17.634 151.424 17.2842 151.424 16.9265C151.424 16.4468 151.615 15.9867 151.954 15.6474C152.293 15.3082 152.752 15.1176 153.232 15.1176Z" fill="white"/>
<path d="M152.056 19.9559H154.613V29.6765H152.056V19.9559Z" fill="white"/>
<path d="M145.635 16.5735H148.089V20H151.028V22.3382H148.089V23.9412C148.001 26.7941 148.883 27.4265 150.925 27.9265V29.8529C147.002 30.1912 145.621 27.8235 145.65 23.9706V16.6176L145.635 16.5735Z" fill="white"/>
<path d="M160.563 19.9118C159.56 19.9089 158.579 20.204 157.743 20.7597C156.908 21.3154 156.256 22.1068 155.87 23.0336C155.484 23.9604 155.381 24.9809 155.575 25.9661C155.769 26.9512 156.251 27.8566 156.959 28.5676C157.667 29.2786 158.571 29.7633 159.554 29.9602C160.538 30.1572 161.558 30.0576 162.485 29.6741C163.412 29.2905 164.205 28.6402 164.762 27.8055C165.32 26.9709 165.618 25.9894 165.618 24.9853C165.618 23.6423 165.086 22.354 164.138 21.403C163.191 20.4519 161.905 19.9157 160.563 19.9118ZM160.563 27.6177C160.043 27.6177 159.535 27.4633 159.102 27.174C158.67 26.8848 158.333 26.4737 158.133 25.9927C157.934 25.5117 157.882 24.9824 157.984 24.4717C158.085 23.9611 158.336 23.4921 158.704 23.1239C159.071 22.7558 159.54 22.5051 160.05 22.4036C160.56 22.302 161.089 22.3541 161.57 22.5533C162.05 22.7526 162.461 23.09 162.75 23.5229C163.039 23.9558 163.193 24.4647 163.193 24.9853C163.193 25.6834 162.916 26.353 162.423 26.8466C161.93 27.3403 161.261 27.6177 160.563 27.6177Z" fill="white"/>
<path d="M208.903 25.4118C208.834 24.2199 209.169 23.0396 209.854 22.0626C210.54 21.0855 211.535 20.369 212.679 20.0294C213.403 19.7776 214.177 19.7034 214.936 19.8131C215.695 19.9228 216.416 20.2132 217.039 20.6598C217.663 21.1065 218.17 21.6965 218.518 22.38C218.866 23.0636 219.046 23.8209 219.041 24.5883V29.5441H216.925V24.5148C216.833 23.9646 216.577 23.455 216.192 23.0522C215.806 22.6494 215.308 22.3721 214.763 22.2563C214.218 22.1405 213.65 22.1916 213.134 22.4029C212.619 22.6142 212.178 22.976 211.871 23.4412C211.673 23.7495 211.539 24.0944 211.478 24.4554C211.416 24.8164 211.427 25.1862 211.51 25.5428C211.594 25.8994 211.748 26.2356 211.964 26.5314C212.18 26.8272 212.453 27.0766 212.767 27.2647C213.643 27.5973 214.595 27.6788 215.514 27.5V29.6471C214.63 29.9639 213.673 30.0214 212.757 29.8131C211.841 29.6047 211.004 29.1389 210.343 28.4706C209.541 27.6327 209.027 26.5615 208.873 25.4118" fill="white"/>
<path d="M220.393 29.6765H222.67V24.4853C222.618 24.1654 222.635 23.838 222.722 23.5257C222.809 23.2134 222.962 22.9237 223.172 22.6767C223.381 22.4297 223.642 22.2313 223.936 22.0952C224.23 21.9591 224.55 21.8886 224.874 21.8886C225.198 21.8886 225.518 21.9591 225.812 22.0952C226.105 22.2313 226.366 22.4297 226.576 22.6767C226.786 22.9237 226.939 23.2134 227.026 23.5257C227.112 23.838 227.13 24.1654 227.078 24.4853V29.6765H229.37V24.3529C229.59 17.75 220.011 18.2059 220.348 24.3529L220.393 29.6765Z" fill="white"/>
<path d="M203.04 30.0441C203.727 30.0383 204.406 29.8972 205.039 29.6287C205.671 29.3603 206.244 28.9698 206.726 28.4796C207.208 27.9893 207.588 27.4089 207.846 26.7715C208.103 26.1341 208.233 25.4522 208.227 24.7647C208.222 23.9544 208.024 23.157 207.651 22.4383C207.277 21.7196 206.737 21.1004 206.077 20.6319C205.416 20.1634 204.654 19.8591 203.852 19.7441C203.051 19.629 202.234 19.7067 201.468 19.9706V22.3676C201.87 22.1048 202.336 21.9546 202.816 21.9328C203.296 21.9109 203.773 22.0182 204.197 22.2434C204.622 22.4686 204.978 22.8035 205.229 23.2133C205.481 23.6231 205.618 24.0927 205.626 24.5735C205.654 24.9545 205.603 25.3371 205.476 25.6975C205.35 26.0579 205.15 26.3884 204.89 26.6681C204.63 26.9479 204.316 27.171 203.966 27.3236C203.616 27.4762 203.238 27.555 202.857 27.555C202.475 27.555 202.097 27.4762 201.747 27.3236C201.398 27.171 201.083 26.9479 200.823 26.6681C200.563 26.3884 200.364 26.0579 200.237 25.6975C200.11 25.3371 200.059 24.9545 200.087 24.5735C200.087 21.3382 200.014 18.0882 200.014 14.8529H197.854V24.7647V25.2647C197.933 26.5727 198.514 27.7998 199.474 28.6901C200.435 29.5804 201.702 30.0654 203.011 30.0441" fill="white"/>
<path d="M187.877 15.0294H190.111V23.25C189.964 26.5588 191.418 27.3824 193.769 27.6618V29.8088C189.361 30.1765 187.892 27.5441 187.892 23.2059L187.877 15.0294Z" fill="white"/>
<path d="M230.56 14.9118H233.058V22.5441C233.357 21.5946 233.94 20.7599 234.728 20.1524C235.517 19.545 236.472 19.1941 237.466 19.147H237.892V21.5441C237.113 21.6497 236.399 22.0342 235.882 22.6264C235.365 23.2186 235.08 23.9783 235.08 24.7647C235.08 25.5511 235.365 26.3108 235.882 26.903C236.399 27.4952 237.113 27.8797 237.892 27.9853V30.0882H237.466C236.472 30.0411 235.517 29.6902 234.728 29.0828C233.94 28.4754 233.357 27.6406 233.058 26.6912V29.6323H230.56V14.9118Z" fill="white"/>
</g>
<defs>
<clipPath id="clip0_4_1055">
<rect width="265" height="52" fill="white"/>
</clipPath>
</defs>
</svg>
