<svg width="60" height="24" viewBox="0 0 60 24" fill="none" xmlns="http://www.w3.org/2000/svg">
<g clip-path="url(#clip0_45_4309)">
<path fill-rule="evenodd" clip-rule="evenodd" d="M26.5517 0.338379H55.8827C57.449 0.338379 58.7425 1.69343 58.7425 3.3471V20.6829C58.7425 22.3362 57.449 23.6916 55.8831 23.6916H26.5521C24.9823 23.6916 23.6997 22.3362 23.6997 20.6833V3.3471C23.6997 1.69343 24.9823 0.338379 26.5517 0.338379Z" fill="#FAB90C"/>
<path d="M26.5518 0.648303C25.1496 0.648303 24.0093 1.85873 24.0093 3.34711V20.6833C24.0093 22.1709 25.1496 23.3821 26.5518 23.3821H55.8827C57.2896 23.3821 58.4338 22.1709 58.4338 20.6833V3.3475C58.4338 1.85834 57.2897 0.648303 55.8831 0.648303H26.5518ZM55.8827 24H26.5518C24.8104 24 23.3922 22.5124 23.3922 20.6833V3.3475C23.3922 1.51919 24.8104 0.0300293 26.5518 0.0300293H55.8827C57.6308 0.0300293 59.0517 1.51919 59.0517 3.3475V20.6833C59.0517 22.5124 57.6308 24 55.8831 24" fill="white"/>
<path fill-rule="evenodd" clip-rule="evenodd" d="M20.7308 0.309814H3.30263C1.67391 0.309814 0.334839 1.66253 0.334839 3.31542V20.6672C0.334839 22.3193 1.67391 23.6724 3.30263 23.6724H20.7308C22.3693 23.6724 23.6994 22.3193 23.6994 20.6672V3.31581C23.6994 1.66292 22.3693 0.309814 20.7308 0.309814Z" fill="#9E173B"/>
<path d="M3.30258 0.619443C1.83604 0.619443 0.644711 1.8287 0.644711 3.31591V20.6673C0.644711 22.1541 1.83604 23.363 3.30258 23.363H20.7308C22.1966 23.363 23.3922 22.1541 23.3922 20.6669V3.31591C23.3922 1.8287 22.1962 0.619443 20.7308 0.619443H3.30258ZM20.7308 23.9813H3.30258C1.49493 23.9813 0.0252686 22.4941 0.0252686 20.6669V3.31591C0.0252686 1.48799 1.49493 0 3.30258 0H20.7308C22.5373 0 24.0093 1.48799 24.0093 3.31591V20.6673C24.0093 22.4941 22.5373 23.9813 20.7308 23.9813Z" fill="white"/>
<path fill-rule="evenodd" clip-rule="evenodd" d="M50.9841 16.7295C53.6057 16.7295 55.7487 14.6209 55.7487 12.0442C55.7487 8.89275 52.5411 6.84575 49.5086 7.81682V9.92464C51.1627 8.95396 53.3777 9.92464 53.3777 11.8769C53.3777 13.2441 52.1809 14.3933 50.8134 14.3933C49.3889 14.3933 48.251 13.2441 48.251 11.8769C48.251 9.01282 48.1894 6.15419 48.1894 3.29126H46.1779L46.1802 12.0442L46.2282 12.4991C46.3022 14.7886 48.4303 16.6695 50.9841 16.7295ZM37.0165 16.3939H39.0771V11.8044C38.9087 9.12159 43.3068 8.89276 43.1867 11.8044V16.3939H45.27V11.6984C45.4481 5.81386 36.6594 6.19902 37.0165 11.6984V16.3939ZM31.4372 7.30029C34.06 7.30029 36.1908 9.40889 36.1908 11.9849C36.1908 15.1363 33.0425 17.1977 30.0123 16.2142V14.104C31.6177 15.0755 33.8089 14.104 33.8089 12.1638C33.8089 10.7869 32.6815 9.63655 31.2586 9.63655C29.8311 9.63655 28.7076 10.7869 28.7076 12.1638C28.7076 15.0151 28.6483 17.8172 28.6483 20.6789H26.682V11.53C26.7413 9.24165 28.8865 7.34863 31.4372 7.30029Z" fill="#9E173B"/>
<path fill-rule="evenodd" clip-rule="evenodd" d="M16.3982 3.36112H20.6524V20.6252H16.3982V15.7367C12.6507 17.107 9.14652 17.2278 5.92729 14.0737C4.59368 12.6859 3.84169 10.7952 4.15629 7.50114C4.21008 6.9967 3.97423 4.65692 3.38208 3.35645H7.16072C8.93095 6.16713 6.61106 9.75437 9.32312 12.0442C13.0195 14.437 16.2422 11.5757 16.3982 8.99224V3.36112ZM12.1595 5.14266C14.1742 5.14266 15.8017 6.77254 15.8017 8.74821C15.8017 10.7422 14.1742 12.3561 12.1595 12.3561C10.1453 12.3561 8.50018 10.7422 8.50018 8.74821C8.50018 6.77254 10.1453 5.14266 12.1595 5.14266Z" fill="#FAB90C"/>
</g>
<defs>
<clipPath id="clip0_45_4309">
<rect width="59.0769" height="24" fill="white"/>
</clipPath>
</defs>
</svg>
