<svg width="122" height="24" viewBox="0 0 122 24" fill="none" xmlns="http://www.w3.org/2000/svg">
<g clip-path="url(#clip0_45_4292)">
<path fill-rule="evenodd" clip-rule="evenodd" d="M-0.386963 0H122.046V24H-0.386963V0Z" fill="#A20E37"/>
<path d="M52.4454 17.7981H53.003L52.8918 18.4023H52.3351L52.4454 17.7981Z" fill="white"/>
<path d="M53.4739 17.7981H54.0314L53.9211 18.4023H53.3636L53.4739 17.7981Z" fill="white"/>
<path d="M54.5032 17.7981H55.0598L54.9495 18.4023H54.392L54.5032 17.7981Z" fill="white"/>
<path d="M56.3249 18.4183C56.2409 18.4251 56.1349 18.4285 56.0059 18.4285C55.8175 18.4285 55.6911 18.3929 55.6266 18.3216C55.5621 18.2512 55.5451 18.129 55.5765 17.9559L55.8243 16.6118H55.5553L55.6325 16.196H55.9023L56.0101 15.6021H56.5294L56.4208 16.196H56.7339L56.6558 16.6118H56.3427L56.1136 17.8566C56.1052 17.9024 56.1143 17.9355 56.1408 17.9576C56.1671 17.978 56.2138 17.9881 56.28 17.9881L56.4047 17.9805L56.3249 18.4183Z" fill="white"/>
<path d="M56.6576 18.4023L57.2074 15.4214H57.4663H57.7259L57.5316 16.4778L57.5817 16.4209C57.7455 16.2317 57.9449 16.1375 58.1791 16.1375C58.3912 16.1375 58.5448 16.2045 58.6407 16.3395C58.7357 16.4735 58.7603 16.6594 58.7162 16.8978L58.4387 18.4023H58.1808H57.9211L58.1723 17.0395C58.1969 16.8995 58.1901 16.7943 58.1502 16.7272C58.1103 16.6594 58.0365 16.6254 57.927 16.6254C57.7938 16.6254 57.6818 16.6704 57.5902 16.7603C57.4977 16.8503 57.4374 16.975 57.4086 17.1354L57.1761 18.4023H56.9181L56.6576 18.4023Z" fill="white"/>
<path d="M59.7335 18.4607C59.4764 18.4607 59.2796 18.3929 59.143 18.2579C59.0063 18.1213 58.9376 17.9253 58.9376 17.6699C58.939 17.6156 58.9424 17.5579 58.9487 17.496C58.9548 17.4332 58.9631 17.3712 58.9741 17.3076C59.0411 16.9402 59.1769 16.6542 59.3797 16.4472C59.5834 16.2401 59.8312 16.1375 60.1239 16.1375C60.3708 16.1375 60.5575 16.2044 60.6848 16.3402C60.8112 16.4752 60.8749 16.6746 60.8749 16.9368C60.8749 17.0004 60.8708 17.0708 60.8638 17.1447C60.8561 17.2193 60.8442 17.2965 60.8281 17.3763L60.8146 17.4467H59.4671L59.4644 17.4756C59.459 17.5163 59.4567 17.5545 59.4567 17.591C59.4574 17.7251 59.489 17.8252 59.5484 17.8922C59.6095 17.9592 59.6994 17.9924 59.8216 17.9924C59.9098 17.9924 59.9896 17.9712 60.0617 17.9287C60.1347 17.8863 60.1856 17.8303 60.2161 17.7616H60.7406C60.6489 17.9763 60.5123 18.1468 60.3307 18.2724C60.1491 18.398 59.9508 18.4607 59.7335 18.4607ZM60.3562 17.0683L60.3582 16.9911C60.3582 16.8638 60.3319 16.7688 60.2776 16.7077C60.2241 16.6457 60.1427 16.6152 60.0332 16.6152C59.8949 16.6152 59.7795 16.6755 59.6887 16.7959C59.6352 16.8664 59.5903 16.9572 59.5529 17.0683H60.3562Z" fill="white"/>
<path d="M62.0085 18.4022L62.4149 16.196H62.667H62.919L62.8612 16.5125L62.9334 16.4209C63.0971 16.2316 63.2966 16.1375 63.5291 16.1375C63.742 16.1375 63.8956 16.2045 63.9907 16.3394C64.0857 16.4735 64.1112 16.6593 64.0662 16.8977L63.7887 18.4022H63.5308H63.2711L63.5223 17.0394C63.5477 16.8994 63.5401 16.7942 63.5002 16.7272C63.4603 16.6593 63.3865 16.6254 63.2771 16.6254C63.1447 16.6254 63.0318 16.6703 62.9402 16.7603C62.8485 16.8502 62.7874 16.975 62.7586 17.1353L62.5269 18.4022H62.269H62.0085Z" fill="white"/>
<path d="M64.7518 18.4607C64.5914 18.4607 64.4641 18.4183 64.3716 18.3326C64.28 18.2469 64.2333 18.1272 64.2333 17.9745C64.2333 17.9499 64.2347 17.9228 64.2381 17.8913C64.2408 17.86 64.2457 17.8302 64.2508 17.7997C64.2856 17.6156 64.3662 17.462 64.4944 17.3381C64.6216 17.2134 64.7786 17.137 64.9645 17.109L65.4014 17.0394C65.4422 17.0326 65.4812 17.0216 65.5168 17.0047C65.5627 16.9851 65.5983 16.9554 65.6221 16.9173C65.6458 16.8782 65.6577 16.8333 65.6568 16.7823C65.6555 16.728 65.639 16.6865 65.6076 16.6585C65.5627 16.6185 65.4829 16.5991 65.3649 16.5991C65.2767 16.5991 65.2003 16.6253 65.1375 16.678C65.0747 16.7298 65.0264 16.8069 64.9916 16.9096H64.5011C64.552 16.6568 64.6632 16.465 64.8337 16.3335C65.0051 16.2028 65.2291 16.1375 65.5075 16.1375C65.7629 16.1375 65.9462 16.1926 66.0599 16.3029C66.1439 16.3852 66.1854 16.4938 66.1846 16.6321C66.1853 16.6788 66.1805 16.7306 66.1701 16.784L65.947 17.9864C65.9291 18.084 65.9241 18.1587 65.9309 18.2104C65.9385 18.263 65.9597 18.2987 65.9945 18.319V18.3218L65.98 18.3998H65.6992H65.4183C65.4098 18.3133 65.4106 18.2276 65.4217 18.1427C65.2181 18.3548 64.9953 18.4607 64.7518 18.4607ZM65.5117 17.5996L65.56 17.3315C65.5108 17.3629 65.4565 17.3858 65.3971 17.4011L65.1883 17.4469C65.05 17.4783 64.9516 17.5182 64.8922 17.5649C64.8328 17.6124 64.7946 17.6811 64.7776 17.7719C64.7749 17.7846 64.7749 17.7846 64.7776 17.7719C64.7749 17.7846 64.7736 17.7991 64.7715 17.8118C64.7709 17.8262 64.7702 17.8381 64.7702 17.8509C64.7702 17.9128 64.788 17.9612 64.8237 17.9951C64.8593 18.029 64.9093 18.0452 64.973 18.0452C65.1368 18.0452 65.2819 17.9731 65.4083 17.8263C65.4304 17.8025 65.4508 17.7686 65.4703 17.7253C65.4907 17.6804 65.504 17.6387 65.5117 17.5996Z" fill="white"/>
<path d="M66.3258 18.4022L66.7323 16.196H66.9843H67.2372L67.1777 16.5083L67.2567 16.403C67.4069 16.2257 67.5868 16.1375 67.7989 16.1375C67.9907 16.1375 68.129 16.1977 68.2147 16.3199C68.252 16.37 68.2766 16.4293 68.2885 16.4972L68.3598 16.403C68.5023 16.2257 68.6771 16.1375 68.8825 16.1375C69.0929 16.1375 69.2456 16.2045 69.3398 16.3377C69.4051 16.4285 69.4374 16.5431 69.4357 16.6822C69.4377 16.7476 69.4296 16.8171 69.4162 16.8918L69.137 18.4022H68.8791H68.6186L68.8791 16.9724C68.9028 16.8545 68.8969 16.7679 68.8629 16.7111C68.829 16.6542 68.7662 16.6254 68.6746 16.6254C68.5566 16.6254 68.4599 16.6627 68.3869 16.7374C68.3131 16.812 68.2622 16.9232 68.235 17.0717L67.9915 18.4022H67.7327H67.4722L67.7327 16.9894C67.7556 16.8655 67.7489 16.7747 67.714 16.7153C67.6784 16.655 67.6122 16.6254 67.518 16.6254C67.4018 16.6254 67.3084 16.6627 67.2372 16.7374C67.165 16.812 67.1158 16.9232 67.0878 17.0717L66.8451 18.4022H66.5863H66.3258Z" fill="white"/>
<path d="M70.4353 18.4607C70.179 18.4607 69.9822 18.3929 69.8455 18.2579C69.7089 18.1213 69.6402 17.9253 69.6402 17.6699C69.6409 17.6156 69.645 17.5579 69.6512 17.496C69.6573 17.4332 69.6657 17.3712 69.6767 17.3076C69.7437 16.9402 69.8786 16.6542 70.0822 16.4472C70.2859 16.2401 70.5328 16.1375 70.8264 16.1375C71.0733 16.1375 71.26 16.2044 71.3865 16.3402C71.5129 16.4752 71.5765 16.6746 71.5765 16.9368C71.5765 17.0004 71.5732 17.0708 71.5655 17.1447C71.5578 17.2193 71.5468 17.2965 71.5307 17.3763L71.5171 17.4467H70.1697L70.1663 17.4756C70.1608 17.5163 70.1586 17.5545 70.1586 17.591C70.16 17.7251 70.1908 17.8252 70.2511 17.8922C70.3114 17.9592 70.4021 17.9924 70.5235 17.9924C70.6117 17.9924 70.6923 17.9712 70.7645 17.9287C70.8366 17.8863 70.8875 17.8303 70.918 17.7616H71.4424C71.3516 17.9763 71.2142 18.1468 71.0326 18.2724C70.8518 18.398 70.6525 18.4607 70.4353 18.4607ZM71.0581 17.0683L71.0594 16.9911C71.0594 16.8638 71.033 16.7688 70.9796 16.7077C70.9261 16.6457 70.8439 16.6152 70.7344 16.6152C70.5961 16.6152 70.4816 16.6755 70.3899 16.7959C70.3373 16.8664 70.2923 16.9572 70.2541 17.0683H71.0581Z" fill="white"/>
<path d="M74.8833 16.1961L73.8116 18.3862C73.6139 18.7935 73.4595 19.0514 73.3483 19.1609C73.2372 19.2703 73.0768 19.3255 72.8663 19.3255C72.7705 19.3255 72.6899 19.3207 72.6254 19.311L72.7102 18.8486C72.7213 18.8547 72.7552 18.8571 72.812 18.8571C72.952 18.8571 73.0488 18.8265 73.1006 18.7654C73.1353 18.7264 73.1794 18.6381 73.2329 18.5015L72.9215 16.196H73.2108H73.5002L73.6198 17.8422L74.3369 16.196H74.6101L74.8833 16.1961Z" fill="white"/>
<path d="M75.6589 18.4607C75.4052 18.4607 75.2041 18.3852 75.0564 18.235C74.9088 18.084 74.8341 17.8786 74.8333 17.6198C74.8333 17.5749 74.8346 17.5248 74.8409 17.4688C74.847 17.4128 74.8536 17.3585 74.8638 17.3076C74.93 16.9486 75.0734 16.6644 75.2932 16.4531C75.5129 16.2427 75.7777 16.1375 76.0874 16.1375C76.3419 16.1375 76.543 16.213 76.6907 16.3657C76.8383 16.5193 76.9122 16.7263 76.9122 16.9894C76.9122 17.0343 76.9088 17.0861 76.9028 17.143C76.8967 17.199 76.8892 17.255 76.879 17.3076C76.8145 17.6614 76.672 17.9423 76.4514 18.1493C76.2316 18.3572 75.9677 18.4607 75.6589 18.4607ZM75.7496 17.9728C75.9066 17.9728 76.0347 17.9143 76.1349 17.798C76.235 17.6818 76.3063 17.507 76.3496 17.2728C76.3563 17.2346 76.3622 17.1964 76.3656 17.1591C76.3697 17.1209 76.3717 17.087 76.3717 17.0556C76.3717 16.919 76.3386 16.8129 76.2741 16.7382C76.2088 16.6627 76.1163 16.6254 75.9975 16.6254C75.8406 16.6254 75.7124 16.6848 75.6123 16.8027C75.5122 16.9215 75.44 17.0997 75.3959 17.3381C75.3898 17.3738 75.3849 17.4103 75.3807 17.4467C75.3766 17.4841 75.3746 17.518 75.3766 17.5486C75.3766 17.6835 75.4079 17.7879 75.4733 17.8617C75.5378 17.9355 75.6291 17.9728 75.7496 17.9728Z" fill="white"/>
<path d="M77.9634 16.196L77.7115 17.5588C77.6851 17.6988 77.6919 17.804 77.7309 17.8711C77.7708 17.9389 77.8455 17.9729 77.9541 17.9729C78.0856 17.9729 78.1985 17.9279 78.2893 17.8371C78.3818 17.7472 78.4411 17.6233 78.47 17.4629L78.7033 16.196H78.963H79.2244L78.8179 18.4022H78.5676H78.3164L78.3733 18.0798C78.3529 18.112 78.3283 18.1451 78.2994 18.1774C78.1365 18.3666 77.9379 18.4608 77.7046 18.4608C77.4924 18.4608 77.3389 18.387 77.2447 18.2385C77.1844 18.1417 77.1547 18.0204 77.1547 17.8728C77.1547 17.7972 77.1632 17.7141 77.1802 17.6233L77.4441 16.196H77.7029H77.9634Z" fill="white"/>
<path d="M82.1739 17.5969C82.0908 17.8625 81.9533 18.073 81.7624 18.2274C81.5715 18.3835 81.3543 18.4607 81.109 18.4607C80.8731 18.4607 80.6915 18.3946 80.5651 18.2622C80.4387 18.1298 80.3751 17.9389 80.3751 17.6886C80.3751 17.6317 80.3784 17.5706 80.3852 17.5044C80.392 17.4391 80.4014 17.3729 80.4133 17.3076C80.4803 16.9402 80.616 16.6542 80.8205 16.4472C81.025 16.2401 81.2745 16.1375 81.5698 16.1375C81.8218 16.1375 82.011 16.2113 82.1375 16.3598C82.2427 16.482 82.2945 16.644 82.2936 16.8468L82.286 16.9826H81.7616C81.7568 16.857 81.7319 16.7662 81.6869 16.7102C81.6428 16.6542 81.5732 16.6254 81.4799 16.6254C81.3449 16.6254 81.2329 16.6848 81.1447 16.8027C81.0556 16.9215 80.9894 17.0988 80.9444 17.3356C80.9376 17.3797 80.9317 17.4247 80.9266 17.4705C80.9218 17.5154 80.9189 17.5571 80.9189 17.5952C80.9189 17.7183 80.9435 17.8142 80.9919 17.8812C81.0394 17.9491 81.1081 17.983 81.1955 17.983C81.2956 17.983 81.3873 17.9474 81.4705 17.8761C81.5536 17.8048 81.613 17.7123 81.6495 17.5969H82.1739Z" fill="white"/>
<path d="M82.8638 18.4607C82.7026 18.4607 82.5761 18.4183 82.4836 18.3326C82.392 18.2469 82.3453 18.1272 82.3453 17.9745C82.3453 17.9499 82.3474 17.9228 82.3494 17.8913C82.3528 17.86 82.3579 17.8302 82.363 17.7997C82.3969 17.6156 82.4784 17.462 82.6057 17.3381C82.7338 17.2134 82.8908 17.137 83.0757 17.109L83.5136 17.0394C83.5543 17.0326 83.5934 17.0216 83.629 17.0047C83.6748 16.9851 83.7096 16.9554 83.7342 16.9173C83.758 16.8782 83.7699 16.8333 83.769 16.7823C83.7676 16.728 83.7511 16.6865 83.7198 16.6585C83.6748 16.6185 83.5942 16.5991 83.4771 16.5991C83.3889 16.5991 83.3125 16.6253 83.2497 16.678C83.1869 16.7298 83.1385 16.8069 83.1029 16.9096H82.6133C82.6642 16.6568 82.7753 16.465 82.9459 16.3335C83.1165 16.2028 83.3413 16.1375 83.6196 16.1375C83.875 16.1375 84.0583 16.1926 84.1712 16.3029C84.256 16.3852 84.2976 16.4938 84.2959 16.6321C84.298 16.6788 84.2925 16.7306 84.2823 16.784L84.0592 17.9864C84.0413 18.084 84.0363 18.1587 84.0431 18.2104C84.0508 18.263 84.072 18.2987 84.1067 18.319V18.3218L84.0923 18.3998H83.8114H83.5305C83.522 18.3133 83.5228 18.2276 83.5339 18.1427C83.3303 18.3548 83.1073 18.4607 82.8638 18.4607ZM83.6239 17.5996L83.6723 17.3315C83.623 17.3629 83.5687 17.3858 83.5093 17.4011L83.2997 17.4469C83.1623 17.4783 83.0638 17.5182 83.0044 17.5649C82.9442 17.6124 82.9069 17.6811 82.8899 17.7719C82.8872 17.7846 82.8872 17.7846 82.8899 17.7719C82.8872 17.7846 82.8858 17.7991 82.8838 17.8118C82.8831 17.8262 82.8818 17.8381 82.8818 17.8509C82.8818 17.9128 82.8996 17.9612 82.9353 17.9951C82.9709 18.029 83.0209 18.0452 83.0846 18.0452C83.2483 18.0452 83.3935 17.9731 83.5199 17.8263C83.542 17.8025 83.5623 17.7686 83.5818 17.7253C83.6022 17.6804 83.6163 17.6387 83.6239 17.5996Z" fill="white"/>
<path d="M84.4412 18.4022L84.8485 16.196H85.0997H85.3525L85.294 16.5125L85.367 16.4209C85.5308 16.2316 85.7293 16.1375 85.9627 16.1375C86.1748 16.1375 86.3292 16.2045 86.4234 16.3394C86.5185 16.4735 86.5439 16.6593 86.4998 16.8977L86.2223 18.4022H85.9644H85.7039L85.955 17.0394C85.9805 16.8994 85.9729 16.7942 85.9339 16.7272C85.894 16.6593 85.8193 16.6254 85.7107 16.6254C85.5775 16.6254 85.4655 16.6703 85.3738 16.7603C85.2813 16.8502 85.2211 16.975 85.1922 17.1353L84.9597 18.4022H84.7018H84.4412Z" fill="white"/>
<path d="M87.7734 18.4023L88.3233 15.4214H88.5999H89.6309C89.8506 15.4214 90.0195 15.4731 90.1366 15.5758C90.2537 15.6785 90.3123 15.8261 90.314 16.0196C90.3126 16.0552 90.3106 16.0926 90.3063 16.1325C90.3029 16.1723 90.2978 16.2131 90.2902 16.253C90.2528 16.4541 90.1425 16.617 89.9576 16.7392C89.9287 16.7603 89.8982 16.7782 89.8659 16.7943C89.9032 16.8105 89.9372 16.8308 89.9669 16.8546C90.101 16.9599 90.1672 17.1092 90.1672 17.3052C90.1672 17.3366 90.1651 17.3688 90.1617 17.4036C90.1583 17.4385 90.1541 17.4724 90.1473 17.5063C90.0955 17.7872 89.9674 18.0069 89.7629 18.1648C89.5584 18.3234 89.3013 18.4024 88.9899 18.4024H88.0497L87.7734 18.4023ZM88.7807 15.9424L88.6618 16.5856H89.3144C89.4433 16.5856 89.5435 16.5593 89.6156 16.5075C89.6869 16.4558 89.7327 16.3751 89.7531 16.2674C89.7558 16.2495 89.7571 16.2334 89.7598 16.2173C89.7612 16.2021 89.7626 16.1859 89.7626 16.1681C89.7626 16.0892 89.7371 16.0324 89.6853 15.9967C89.6327 15.9611 89.5505 15.9424 89.4367 15.9424L88.7807 15.9424ZM88.566 17.0947L88.4226 17.8813H89.0607C89.2151 17.8813 89.3347 17.849 89.4204 17.7854C89.507 17.7218 89.5613 17.6242 89.5859 17.4918C89.59 17.4689 89.5936 17.4477 89.5961 17.429C89.5988 17.4104 89.5995 17.3925 89.5981 17.3764C89.5981 17.2822 89.5693 17.2109 89.5116 17.1643C89.4539 17.1176 89.3665 17.0947 89.2485 17.0947H88.566Z" fill="white"/>
<path d="M90.2401 18.4023L91.7607 15.4214H92.0806H92.4005L92.773 18.4023H92.4709H92.1671L92.1078 17.7778H91.1226L90.8273 18.4023H90.5346H90.2401ZM91.944 16.0782L91.3636 17.2856H92.0619L91.9423 16.0782H91.944Z" fill="white"/>
<path d="M93.6122 18.4023H93.3534H93.0946L93.6445 15.4214H93.9355H94.2274L94.9139 17.5325L95.3042 15.4214H95.563H95.8209L95.2711 18.4023H94.997H94.7195L94.0051 16.2589L93.6122 18.4023Z" fill="white"/>
<path d="M95.8353 18.4023L96.3852 15.4214H96.6626H96.9393L96.7136 16.6484L97.9762 15.4214H98.3326H98.6889L97.3788 16.6594L98.1866 18.4023H97.8286H97.4688L96.907 17.1023L96.5702 17.4222L96.3894 18.4023H96.1128H95.8353Z" fill="white"/>
<path d="M100.389 16.196L100.137 17.5588C100.111 17.6988 100.117 17.804 100.157 17.8711C100.197 17.9389 100.271 17.9729 100.38 17.9729C100.512 17.9729 100.624 17.9279 100.715 17.8371C100.808 17.7472 100.867 17.6233 100.896 17.4629L101.129 16.196H101.389H101.65L101.244 18.4022H100.994H100.742L100.799 18.0798C100.779 18.112 100.754 18.1451 100.725 18.1774C100.563 18.3666 100.364 18.4608 100.131 18.4608C99.9185 18.4608 99.7649 18.387 99.6708 18.2385C99.6105 18.1417 99.5808 18.0204 99.5808 17.8728C99.5808 17.7972 99.5893 17.7141 99.6054 17.6233L99.8701 16.196H100.129H100.389Z" fill="white"/>
<path d="M102.112 16.196H102.356H102.599L102.543 16.5125L102.582 16.4658C102.777 16.2461 102.992 16.1375 103.225 16.1375C103.426 16.1375 103.582 16.2053 103.694 16.342C103.807 16.4786 103.863 16.6678 103.863 16.9096C103.863 16.9648 103.858 17.0267 103.852 17.0963C103.845 17.165 103.836 17.2329 103.824 17.2991C103.762 17.6317 103.633 17.9083 103.435 18.1298C103.236 18.3504 103.019 18.4607 102.781 18.4607C102.543 18.4607 102.374 18.3572 102.276 18.1485L102.272 18.1408L102.064 19.266H101.806H101.546L102.112 16.196ZM102.725 17.983C102.856 17.983 102.972 17.9227 103.076 17.8022C103.178 17.6818 103.247 17.5231 103.284 17.3262C103.291 17.2821 103.298 17.2388 103.303 17.1955C103.309 17.1506 103.31 17.1098 103.309 17.0717C103.309 16.9359 103.28 16.8298 103.221 16.7552C103.163 16.6796 103.08 16.6423 102.973 16.6423C102.845 16.6423 102.729 16.7025 102.626 16.823C102.522 16.9435 102.453 17.0971 102.419 17.2855H102.42C102.378 17.5078 102.383 17.6801 102.437 17.8014C102.49 17.9227 102.585 17.983 102.725 17.983Z" fill="white"/>
<path d="M104.871 18.4607C104.617 18.4607 104.416 18.3852 104.268 18.235C104.12 18.084 104.046 17.8786 104.045 17.6198C104.045 17.5749 104.046 17.5248 104.053 17.4688C104.058 17.4128 104.065 17.3585 104.075 17.3076C104.142 16.9486 104.285 16.6644 104.505 16.4531C104.725 16.2427 104.989 16.1375 105.299 16.1375C105.554 16.1375 105.755 16.213 105.902 16.3657C106.05 16.5193 106.124 16.7263 106.124 16.9894C106.124 17.0343 106.12 17.0861 106.114 17.143C106.108 17.199 106.101 17.255 106.091 17.3076C106.026 17.6614 105.884 17.9423 105.663 18.1493C105.443 18.3572 105.179 18.4607 104.871 18.4607ZM104.961 17.9728C105.118 17.9728 105.246 17.9143 105.347 17.798C105.447 17.6818 105.518 17.507 105.561 17.2728C105.568 17.2346 105.574 17.1964 105.577 17.1591C105.581 17.1209 105.583 17.087 105.583 17.0556C105.583 16.919 105.55 16.8129 105.486 16.7382C105.42 16.6627 105.328 16.6254 105.209 16.6254C105.052 16.6254 104.924 16.6848 104.824 16.8027C104.724 16.9215 104.652 17.0997 104.608 17.3381C104.601 17.3738 104.597 17.4103 104.592 17.4467C104.588 17.4841 104.586 17.518 104.588 17.5486C104.588 17.6835 104.62 17.7879 104.685 17.8617C104.75 17.9355 104.841 17.9728 104.961 17.9728Z" fill="white"/>
<path d="M106.244 18.4022L106.65 16.196H106.902H107.155L107.096 16.5125L107.168 16.4209C107.333 16.2316 107.532 16.1375 107.765 16.1375C107.977 16.1375 108.131 16.2045 108.226 16.3394C108.321 16.4735 108.346 16.6593 108.302 16.8977L108.024 18.4022H107.766H107.506L107.757 17.0394C107.783 16.8994 107.775 16.7942 107.736 16.7272C107.695 16.6593 107.622 16.6254 107.512 16.6254C107.38 16.6254 107.268 16.6703 107.175 16.7603C107.084 16.8502 107.023 16.975 106.994 17.1353L106.762 18.4022H106.504H106.244Z" fill="white"/>
<path d="M108.899 17.5851L109.016 16.1562L109.149 15.4358H109.432H109.718L109.584 16.1562L109.172 17.5851H109.035H108.899ZM108.72 17.8159H109.266L109.16 18.4023H108.613L108.72 17.8159Z" fill="white"/>
<path fill-rule="evenodd" clip-rule="evenodd" d="M22.5888 4.7085H26.0195V18.0449H22.5888V14.7637C19.585 15.8837 16.7713 15.9864 14.1748 13.4162C13.098 12.2834 12.5031 10.7467 12.7585 8.05343C12.7891 7.65631 12.6041 5.98639 12.1179 4.92318H15.165C16.5821 7.21253 14.7238 9.89051 16.9088 11.7564C19.8752 13.7064 22.4684 11.3839 22.5888 9.26938V4.7085ZM19.1811 6.14507C20.8001 6.14507 22.1213 7.46369 22.1213 9.08101C22.1213 10.6975 20.8001 12.0161 19.1811 12.0161C17.5613 12.0161 16.2401 10.6975 16.2401 9.08101C16.2401 7.46369 17.5613 6.14507 19.1811 6.14507Z" fill="#FBBC09"/>
<path fill-rule="evenodd" clip-rule="evenodd" d="M31.0063 8.96143C32.3258 8.96143 33.4017 10.0552 33.4017 11.3976C33.4017 13.0454 31.8005 14.1103 30.2774 13.6114V12.5032C31.1115 12.9988 32.1959 12.4922 32.1959 11.4867C32.1959 10.7705 31.6223 10.1867 30.9189 10.1867C30.2146 10.1867 29.641 10.7705 29.641 11.4867C29.641 12.9818 29.6079 14.4786 29.6079 15.9754H28.6108V11.3976L28.621 11.1702C28.6474 9.9627 29.7165 8.97585 31.0063 8.96143Z" fill="white"/>
<path fill-rule="evenodd" clip-rule="evenodd" d="M33.7565 9.16748H34.8104V11.5604C34.7332 12.963 36.9216 13.0665 36.8698 11.5604V9.16748H37.9254V11.6231C38.0297 14.6719 33.6003 14.4632 33.7565 11.6231V9.16748Z" fill="white"/>
<path fill-rule="evenodd" clip-rule="evenodd" d="M38.4828 13.698H39.5367V11.3043C39.4595 9.90164 41.6478 9.79812 41.5961 11.3043V13.698H42.6525V11.2415C42.756 8.19269 38.3267 8.40143 38.4828 11.2415V13.698Z" fill="white"/>
<path fill-rule="evenodd" clip-rule="evenodd" d="M52.9886 13.8701C54.308 13.8701 55.384 12.7763 55.384 11.4339C55.384 9.78608 53.7828 8.72116 52.2596 9.21925V10.3274C53.0937 9.83274 54.1782 10.3393 54.1782 11.3448C54.1782 12.061 53.6046 12.6439 52.9011 12.6439C52.1977 12.6439 51.6232 12.061 51.6232 11.3448C51.6232 9.84971 51.591 8.35205 51.591 6.85522H50.5931V11.4339L50.6042 11.6605C50.6297 12.8688 51.6988 13.8548 52.9886 13.8701Z" fill="white"/>
<path fill-rule="evenodd" clip-rule="evenodd" d="M42.9427 10.2673V9.17773H45.0326V13.5867C45.0428 14.9554 44.1018 16.0229 42.7424 16.134V15.1446C43.4119 14.8697 43.9295 14.476 43.9456 13.5689V10.2673H42.9427Z" fill="white"/>
<path fill-rule="evenodd" clip-rule="evenodd" d="M45.4179 11.7294C45.3093 10.437 46.2571 9.52826 47.1608 9.24825C48.4412 8.8715 50.0424 9.54014 50.1001 11.3509V13.6394H49.1251L49.1328 11.317C49.0649 10.2555 47.4578 9.81167 46.7976 10.8172C46.5219 11.3433 46.4591 12.163 47.2109 12.5881C47.5715 12.7179 47.9771 12.7807 48.482 12.6967V13.6852C47.6784 13.9288 46.88 13.8694 46.0917 13.1422C45.6962 12.7349 45.5053 12.2639 45.4179 11.7294Z" fill="white"/>
<path fill-rule="evenodd" clip-rule="evenodd" d="M57.0055 13.698H58.0594V11.3043C57.9821 9.90164 60.1697 9.79812 60.1188 11.3043V13.698H61.1743V11.2415C61.2787 8.19269 56.8485 8.40143 57.0055 11.2415V13.698Z" fill="white"/>
<path fill-rule="evenodd" clip-rule="evenodd" d="M61.6427 11.7294C61.5341 10.437 62.482 9.52826 63.3856 9.24825C64.6661 8.8715 66.2673 9.54014 66.325 11.3509V13.6394H65.35L65.3577 11.317C65.2898 10.2555 63.6826 9.81167 63.0225 10.8172C62.7467 11.3433 62.6839 12.163 63.4357 12.5881C63.7964 12.7179 64.202 12.7807 64.7068 12.6967V13.6852C63.9033 13.9288 63.1048 13.8694 62.3165 13.1422C61.9211 12.7349 61.7301 12.2639 61.6427 11.7294Z" fill="white"/>
<path fill-rule="evenodd" clip-rule="evenodd" d="M76.5329 13.698H77.5868V11.3043C77.5095 9.90164 79.6971 9.79812 79.6462 11.3043V13.698H80.7017V11.2415C80.8061 8.19269 76.3759 8.40143 76.5329 11.2415V13.698Z" fill="white"/>
<path fill-rule="evenodd" clip-rule="evenodd" d="M81.1701 11.7294C81.0615 10.437 82.0101 9.52826 82.913 9.24825C84.1934 8.8715 85.7946 9.54014 85.8523 11.3509V13.6394H84.8782L84.885 11.317C84.8171 10.2555 83.21 9.81167 82.5498 10.8172C82.2741 11.3433 82.2113 12.163 82.9631 12.5881C83.3237 12.7179 83.7293 12.7807 84.2342 12.6967V13.6852C83.4306 13.9288 82.6321 13.8694 81.8439 13.1422C81.4484 12.7349 81.2575 12.2639 81.1701 11.7294Z" fill="white"/>
<path fill-rule="evenodd" clip-rule="evenodd" d="M70.4064 6.97827C70.8672 6.97827 71.2414 7.35247 71.2414 7.81323C71.2414 8.27484 70.8672 8.64904 70.4064 8.64904C69.9448 8.64904 69.5706 8.27484 69.5706 7.81323C69.5706 7.35247 69.9448 6.97827 70.4064 6.97827Z" fill="white"/>
<path fill-rule="evenodd" clip-rule="evenodd" d="M69.8651 9.21265H71.0445V13.698H69.8651V9.21265Z" fill="white"/>
<path fill-rule="evenodd" clip-rule="evenodd" d="M66.9002 7.6521H68.0305V9.22868H69.4068V10.3131H68.0305V11.053C67.9898 12.3708 68.4013 12.6576 69.3406 12.8927L69.3372 13.7794C67.5248 13.9355 66.8833 12.8443 66.9002 11.053V7.6521Z" fill="white"/>
<path fill-rule="evenodd" clip-rule="evenodd" d="M73.7955 9.19312C75.0827 9.19312 76.1332 10.2428 76.1332 11.5308C76.1332 12.8181 75.0827 13.8686 73.7955 13.8686C72.5083 13.8686 71.4578 12.8181 71.4578 11.5308C71.4578 10.2428 72.5083 9.19312 73.7955 9.19312ZM73.7955 10.3157C74.4642 10.3157 75.0106 10.8613 75.0106 11.5308C75.0106 12.1995 74.4642 12.7459 73.7955 12.7459C73.126 12.7459 72.5804 12.1995 72.5804 11.5308C72.5804 10.8613 73.126 10.3157 73.7955 10.3157Z" fill="white"/>
<path fill-rule="evenodd" clip-rule="evenodd" d="M96.1298 11.7294C96.0212 10.437 96.969 9.52826 97.8727 9.24825C99.1531 8.8715 100.753 9.54014 100.812 11.3509V13.6394H99.8371L99.8447 11.317C99.7768 10.2555 98.1697 9.81167 97.5095 10.8172C97.2329 11.3433 97.171 12.163 97.9219 12.5881C98.2834 12.7179 98.689 12.7807 99.193 12.6967V13.6852C98.3903 13.9288 97.5919 13.8694 96.8036 13.1422C96.4082 12.7349 96.2172 12.2639 96.1298 11.7294Z" fill="white"/>
<path fill-rule="evenodd" clip-rule="evenodd" d="M101.421 13.698H102.475V11.3043C102.398 9.90164 104.586 9.79812 104.534 11.3043V13.698H105.59V11.2415C105.694 8.19269 101.264 8.40143 101.421 11.2415V13.698Z" fill="white"/>
<path fill-rule="evenodd" clip-rule="evenodd" d="M93.423 13.8701C94.7416 13.8701 95.8184 12.7763 95.8184 11.4339C95.8184 9.78608 94.2172 8.72116 92.6933 9.21925V10.3274C93.5282 9.83274 94.6126 10.3393 94.6126 11.3448C94.6126 12.061 94.039 12.6439 93.3347 12.6439C92.6313 12.6439 92.0577 12.061 92.0577 11.3448C92.0577 9.84971 92.0246 8.35205 92.0246 6.85522H91.0267V11.4339L91.0377 11.6605C91.064 12.8688 92.1332 13.8548 93.423 13.8701Z" fill="white"/>
<path fill-rule="evenodd" clip-rule="evenodd" d="M86.4166 6.93945H87.4442V10.735C87.3822 12.2572 88.0534 12.6399 89.1404 12.7884L89.137 13.7778C87.1132 13.9526 86.3979 12.7341 86.4166 10.735V6.93945Z" fill="white"/>
<path fill-rule="evenodd" clip-rule="evenodd" d="M106.132 6.88574H107.285V10.408C107.621 9.4899 108.418 8.84077 109.345 8.84077C109.411 8.84077 109.476 8.84417 109.542 8.85095V9.95659C108.795 10.1195 108.239 10.7262 108.239 11.4458C108.239 12.1645 108.795 12.7712 109.542 12.9341V13.8997C109.476 13.9059 109.411 13.9099 109.345 13.9099C108.418 13.9099 107.621 13.2599 107.285 12.3418V13.6978H106.132V6.88574Z" fill="white"/>
</g>
<defs>
<clipPath id="clip0_45_4292">
<rect width="122" height="24" fill="white"/>
</clipPath>
</defs>
</svg>
