<svg width="90" height="24" viewBox="0 0 90 24" fill="none" xmlns="http://www.w3.org/2000/svg">
<path d="M24.6692 13.5565C24.7786 12.9118 24.8484 12.2508 24.8484 11.5794C24.8484 10.9824 24.7879 10.3971 24.7064 9.82219H20.0051C20.6417 9.19264 22.1289 7.69147 23.6137 6.21009C23.0796 5.09527 22.3825 4.07006 21.5598 3.17634L14.4159 10.3261C14.0726 10.6647 13.8853 11.086 13.8853 11.5794C13.8853 12.0611 14.0726 12.5441 14.4171 12.8792L21.5365 20.0068C22.3651 19.1143 23.0598 18.0902 23.5974 16.9766C22.1952 15.586 20.6126 14.1593 20.0051 13.5565H24.6692Z" fill="#00295B"/>
<path d="M10.976 11.5789C10.976 11.0855 10.7863 10.6642 10.4372 10.3256L3.28976 3.17585C2.4647 4.07655 1.76998 5.09478 1.23584 6.2096C2.72304 7.69797 4.21373 9.18633 4.84911 9.82287H0.140807C0.0605124 10.3966 0 10.9819 0 11.5789C0 12.2503 0.0709859 12.9125 0.174555 13.556H4.84911C4.24632 14.16 2.65438 15.5808 1.25213 16.9761C1.79325 18.0897 2.48448 19.1115 3.31536 20.0063L10.4372 12.8799C10.7816 12.5436 10.976 12.0607 10.976 11.5789Z" fill="#00295B"/>
<path d="M12.4242 13.0566C11.9401 13.0566 11.4851 13.244 11.1442 13.5884L4.0282 20.7056C4.91842 21.5318 5.93898 22.2312 7.0538 22.7665C8.53169 21.2874 10.0096 19.8142 10.6368 19.1835V23.8545C11.2198 23.943 11.8145 24 12.4242 24C13.0899 24 13.7357 23.9302 14.3676 23.8336V19.1835C14.9739 19.7816 16.3983 21.3712 17.7865 22.7665C18.906 22.2323 19.9208 21.5318 20.8191 20.7056L13.6927 13.5931C13.3552 13.244 12.9107 13.0566 12.4242 13.0566Z" fill="#00295B"/>
<path d="M12.4243 10.1589C12.9223 10.1589 13.3832 9.96111 13.7241 9.60618L20.8587 2.4774C19.9464 1.63372 18.9084 0.923868 17.7703 0.375769C16.7288 1.42193 15.1962 3.0639 14.3502 3.90758V1.86297C14.3502 0.830771 13.4774 -0.000103951 12.4301 -0.000103951C11.3828 -0.000103951 10.6182 0.816808 10.6066 1.83737V3.90758C9.63606 2.9452 8.05344 1.35909 7.07826 0.375769C5.9425 0.923868 4.90215 1.63372 3.98633 2.4774L11.1233 9.61433C11.47 9.96111 11.9309 10.1589 12.4243 10.1589Z" fill="#C60751"/>
<path d="M40.9961 0.926741C47.0042 0.926741 50.8747 5.14047 50.8747 10.8798C50.8747 14.1277 49.9821 16.5447 48.6834 17.9108L51.0213 19.9764L48.6544 22.2305L46.1955 20.0532C44.7816 20.8643 43.5388 21.3973 40.9111 21.3973C34.8774 21.3973 30.9744 17.4826 30.9744 11.1509C30.9744 5.16491 34.6412 0.926741 40.9961 0.926741ZM40.882 17.8841C41.7176 17.8841 42.6474 17.6967 43.2502 17.3755L41.1416 15.4927L43.4538 13.2654L45.5042 15.1215C45.9942 14.0997 46.313 13.2956 46.3968 11.1987C46.3968 7.06173 44.6943 4.48997 40.9367 4.48997C37.5911 4.48997 35.4523 6.7487 35.4523 11.1509C35.4523 15.6358 37.7052 17.8841 40.882 17.8841Z" fill="#00295B"/>
<path d="M57.5829 1.54181L65.6694 14.8254V1.54181H69.8319V20.8638H65.3855L57.1198 7.33933V20.8638H52.9363V1.54181H57.5829Z" fill="#00295B"/>
<path d="M81.3248 1.54181C86.2123 1.54181 88.4314 3.36881 88.4314 6.58758C88.4314 8.17021 87.9927 9.45958 85.9155 10.5022C87.7367 11.0922 89.0645 12.5946 89.0645 15.0092C89.0645 17.8289 87.4772 20.8638 81.298 20.8638H71.8185V1.54181H81.3248ZM76.0695 9.10349H81.1793C83.2588 9.10349 84.1258 8.44251 84.1258 7.01815C84.1258 5.67757 83.3158 4.99681 80.5742 4.99681H76.0695V9.10349ZM76.0695 17.3995H81.092C83.4089 17.3995 84.5331 16.6756 84.5331 14.716C84.5331 13.2148 83.5195 12.406 81.2072 12.406H76.0695V17.3995Z" fill="#00295B"/>
</svg>
