<svg width="20" height="24" viewBox="0 0 20 24" fill="none" xmlns="http://www.w3.org/2000/svg">
<g clip-path="url(#clip0_45_4270)">
<path d="M11.7494 22.6792C11.6639 23.2168 11.3884 23.4971 11.0553 23.4971C10.8431 23.4971 10.7222 23.3483 10.7577 23.1199L10.8739 22.3922C10.918 22.1224 11.0803 21.9103 11.3702 21.9103C11.6918 21.9103 11.8377 22.1282 11.7494 22.6792ZM10.6118 23.7487C10.6559 23.7487 10.7635 23.9359 11.1158 23.9359C11.8627 23.9359 12.2899 23.3963 12.4051 22.6984C12.5539 21.8392 12.1353 21.4475 11.6092 21.4475C11.3615 21.4475 11.1763 21.4696 11.0419 21.5416L11.2435 20.3599H10.6233L10.006 23.8917H10.4745C10.4745 23.8917 10.5407 23.7458 10.6147 23.7458H10.6118V23.7487ZM17.207 22.2443C17.3011 21.7096 17.1023 21.4485 16.5235 21.4485C16.0905 21.4485 15.9225 21.6386 15.7603 21.8008L15.7766 21.5032L15.2035 21.5061L15.1593 21.9467L14.8262 23.8975H15.454L15.6556 22.6331C15.7276 22.1983 16.0271 21.8642 16.3113 21.8642C16.6252 21.8642 16.6223 22.0437 16.5734 22.3192L16.3007 23.9003H16.9238L17.207 22.2443ZM19.8307 21.4533H19.0982L18.2553 22.3461L18.2447 22.3432L18.5807 20.3647H17.9692L17.3519 23.8936H17.9721L18.0355 23.5413L18.1622 22.7675C18.4905 22.7675 18.6748 22.8031 18.8179 23.4568L18.9167 23.8946H19.5503C19.5503 23.8946 19.3929 23.2274 19.2883 22.9663C19.1807 22.6907 19.0627 22.5112 18.8111 22.4623L19.8307 21.4533ZM1.81435 22.3183C2.26939 22.2194 2.50363 21.8527 2.56699 21.6127C2.72923 20.957 2.43739 20.4443 1.60027 20.453H0.640267L0.0393066 23.8965H0.664267L0.911947 22.5131C1.48795 22.4968 1.55899 22.637 1.66651 23.309L1.76539 23.8955H2.41243C2.33563 23.5403 2.28571 23.2043 2.22235 22.9336C2.15611 22.6495 2.04859 22.4296 1.77883 22.325L1.81435 22.3183ZM1.94107 21.4975C1.88635 21.8037 1.64923 22.0178 1.35739 22.0178H0.987787L1.17787 20.9291L1.51387 20.9263C1.91035 20.9301 1.98715 21.1912 1.94107 21.4975ZM4.76443 22.1503C4.85563 21.6299 4.57435 21.4475 4.01179 21.4475C3.30907 21.4475 3.00379 21.7807 3.00379 21.7807L3.21883 22.1445C3.21883 22.1445 3.44443 21.8795 3.89947 21.8795C4.15291 21.8795 4.15867 22.0063 4.13371 22.1445L4.08379 22.4555C3.18043 22.4335 2.71675 22.6264 2.61211 23.2187C2.52667 23.7035 2.89051 23.9378 3.30139 23.9378C3.51355 23.9378 3.68443 23.9071 3.89083 23.7256C3.93211 23.8418 4.00411 23.9051 4.08379 23.9186C4.21339 23.9464 4.43899 23.9157 4.50523 23.8658C4.49947 23.7938 4.50523 23.6095 4.58203 23.1765L4.76443 22.1503ZM4.02331 22.7839C3.92443 23.4943 3.82747 23.5663 3.48571 23.5663C3.25147 23.5663 3.16603 23.4069 3.20443 23.1967C3.26011 22.9077 3.47515 22.7839 4.02331 22.7839ZM14.6783 22.1503C14.7695 21.6299 14.4883 21.4475 13.9257 21.4475C13.223 21.4475 12.9196 21.7807 12.9196 21.7807L13.1347 22.1445C13.1347 22.1445 13.3603 21.8795 13.8153 21.8795C14.0687 21.8795 14.0745 22.0063 14.0495 22.1445L13.9996 22.4555C13.0963 22.4335 12.6326 22.6264 12.5279 23.2187C12.4425 23.7035 12.8063 23.9378 13.2172 23.9378C13.4294 23.9378 13.6003 23.9071 13.8067 23.7256C13.8479 23.8418 13.9199 23.9051 13.9996 23.9186C14.1292 23.9464 14.3548 23.9157 14.4211 23.8658C14.4153 23.7938 14.4211 23.6095 14.4979 23.1765L14.6783 22.1503ZM13.9372 22.7839C13.8383 23.4943 13.7414 23.5663 13.3996 23.5663C13.1654 23.5663 13.0799 23.4069 13.1183 23.1967C13.174 22.9077 13.3891 22.7839 13.9372 22.7839ZM6.01819 23.9387C6.76507 23.9387 7.19227 23.3983 7.30747 22.7013C7.45627 21.8421 7.03771 21.4504 6.51163 21.4504C6.26395 21.4504 6.08731 21.4725 5.94715 21.5445L6.14875 20.3627H5.52571L4.90843 23.8946H5.37691C5.37691 23.8946 5.44315 23.7487 5.51227 23.7487C5.56123 23.7487 5.66875 23.9387 6.01819 23.9387ZM6.28027 21.9103C6.59995 21.9103 6.73531 22.1253 6.66043 22.6792C6.58363 23.2437 6.29947 23.4971 5.96059 23.4971C5.74843 23.4971 5.62747 23.3483 5.66875 23.1199L5.78683 22.3922C5.83099 22.1224 5.99323 21.9103 6.27739 21.9103H6.28027ZM7.57243 22.8943C7.66843 21.9957 8.07355 21.4399 9.03835 21.4399C9.75451 21.4399 9.98875 21.9851 9.89563 22.5727C9.74107 23.5125 9.37723 23.9531 8.46043 23.9531C7.86139 23.9522 7.50907 23.4674 7.57243 22.8943ZM9.23899 22.6159C9.28603 22.3682 9.33307 21.8853 8.90587 21.8853C8.61979 21.8853 8.34907 22.0811 8.22811 22.7647C8.15419 23.1803 8.23387 23.5173 8.56699 23.5173C8.81467 23.5144 9.10939 23.3128 9.23899 22.6159Z" fill="#2C3696"/>
<path d="M3.60469 12.1901C3.11125 13.176 3.26869 14.5872 4.31029 15.6086C5.49493 16.7712 7.34677 17.471 9.86773 17.471C12.3973 17.471 14.2482 16.7491 15.381 15.6086C16.4937 14.4902 16.5349 13.0349 16.0809 12.1565C15.8965 11.8013 15.6479 11.4729 15.309 11.1619C15.5625 11.4201 15.7689 11.7024 15.9215 11.999C15.9273 12.0096 15.9321 12.024 15.9378 12.0345C15.9599 12.0787 15.982 12.1257 16.0012 12.1718C16.0953 12.3897 16.1577 12.6125 16.1884 12.839C16.2575 13.3401 16.1663 13.8336 15.91 14.3184C15.7525 14.6131 15.5356 14.9049 15.2514 15.1833C14.0975 16.3152 12.1295 17.0131 9.84853 17.0131C7.70485 17.0131 5.84245 16.3987 4.66549 15.3878C4.58869 15.3216 4.51381 15.2525 4.44469 15.1843C3.43669 14.1945 3.25141 13.0627 3.75541 12.0345C3.76597 12.0125 3.77749 11.9904 3.78805 11.9683C3.94261 11.6765 4.14901 11.4009 4.39669 11.1475C4.39957 11.1446 4.40437 11.1398 4.40725 11.136C4.09045 11.4509 3.83605 11.7264 3.60469 12.1901Z" fill="url(#paint0_linear_45_4270)"/>
<path d="M13.4293 9.94959C12.3599 9.50607 11.1148 9.27759 9.85043 9.27759C8.58611 9.27759 7.34003 9.50607 6.27155 9.94959C5.10035 10.4344 4.19411 11.1563 3.76115 12.0357C3.25715 13.0629 3.44147 14.1957 4.45043 15.1845C5.60531 16.3173 7.57235 17.0142 9.85331 17.0142C12.1343 17.0142 14.1023 16.3173 15.2562 15.1845C16.2642 14.1957 16.4495 13.0629 15.9426 12.0357C15.5039 11.1563 14.6005 10.4353 13.4293 9.94959Z" fill="#F36717"/>
<path d="M10.0713 12.1624C10.0713 12.1624 9.96951 12.1902 9.85623 12.22C9.86391 12.4849 9.87255 12.7547 9.88119 13.0245C10.0598 12.7461 10.1865 12.4571 10.2614 12.1595C10.2364 12.1566 10.2086 12.1566 10.1846 12.1566C10.1462 12.1566 10.1068 12.1595 10.0713 12.1624ZM9.84855 11.9915C9.84855 12.0241 9.85143 12.0577 9.85143 12.0904C9.88215 12.0462 9.91191 12.0078 9.94263 11.9713C9.93207 11.9656 9.92055 11.9608 9.90999 11.955C9.88983 11.9694 9.87063 11.98 9.84855 11.9915ZM9.84855 11.9224C8.65239 11.9416 7.70775 11.9973 6.53175 12.0961C7.56471 12.099 8.36631 12.1374 9.41655 12.22C8.66967 12.6798 7.94007 13.1704 7.22871 13.683C7.96695 13.2664 8.71959 12.8728 9.48279 12.5061C9.46359 12.4206 9.44439 12.3352 9.42519 12.2497L9.41943 12.219C9.56247 12.1307 9.70839 12.0424 9.85143 11.9541C9.84855 11.9445 9.84855 11.9339 9.84855 11.9224ZM9.84855 11.9224C9.85911 11.9281 9.86775 11.9329 9.87831 11.9397C9.86775 11.9454 9.85623 11.9531 9.84855 11.9589C9.85431 11.956 9.85623 11.9531 9.86199 11.9502L9.88119 11.9397C9.89175 11.9339 9.90327 11.9253 9.91383 11.9205C9.88983 11.9195 9.87063 11.9195 9.84855 11.9224ZM9.91191 11.9195C9.93975 11.9195 9.96471 11.9195 9.99159 11.9195C10.0242 11.884 10.0578 11.8475 10.0962 11.812C10.0329 11.8485 9.97239 11.884 9.91191 11.9195ZM10.3228 11.3934C10.3228 11.3963 10.3257 11.4011 10.3257 11.404C10.3247 11.4021 10.3247 11.3963 10.3228 11.3934ZM8.97495 11.691C9.12375 11.6747 9.27543 11.6584 9.42423 11.644C8.82135 11.308 8.20407 10.9941 7.57239 10.7157C8.05527 11.019 8.51991 11.3464 8.97495 11.691ZM9.42423 11.644C9.58359 11.7323 9.74391 11.8225 9.90327 11.9166C9.90615 11.9195 9.90903 11.9195 9.91095 11.9224C9.91095 11.3329 9.91095 10.7435 9.91095 10.1502C9.73239 10.6417 9.57303 11.1429 9.42423 11.644ZM9.90327 9.85069C8.28279 9.85069 5.69079 10.4046 5.28279 12.2728C5.21367 12.5867 5.21943 12.8737 5.28279 13.1349C5.51415 13.9614 6.33783 14.5288 7.27767 14.8869C8.26743 14.5374 9.03831 14.0305 9.55863 13.443C9.50679 13.2088 9.45399 12.9745 9.39927 12.7374C8.44023 13.1896 7.56951 13.6216 6.61911 14.1256C7.29111 13.4584 7.92759 12.8833 8.64951 12.2718C7.62423 12.2056 6.64407 12.1921 5.59671 12.1777C6.62391 11.9541 7.64151 11.7813 8.68503 11.6488C8.19447 11.2629 7.71447 10.9048 7.18839 10.5688L7.10871 10.5189C7.89975 10.7195 8.64951 10.9595 9.41463 11.2408C9.56631 10.7886 9.72567 10.3393 9.90807 9.89869C9.90615 9.88333 9.90615 9.86701 9.90327 9.85069ZM6.26967 9.94957C5.12919 10.4238 4.23927 11.1179 3.79287 11.9694C3.78231 11.9915 3.77079 12.0136 3.76023 12.0357C3.25335 13.0629 3.44055 14.1957 4.44951 15.1845C4.52151 15.2536 4.59255 15.3227 4.67031 15.388C5.52471 15.3381 6.29847 15.1979 6.97623 14.9886C6.06999 14.6027 5.30391 14.019 5.10519 13.1896C5.02551 12.9006 5.01399 12.5781 5.09463 12.2248C5.52663 10.2933 8.20791 9.71725 9.88887 9.71725C9.89175 9.71725 9.89655 9.71725 9.89943 9.71725C9.89943 9.56269 9.91575 9.41389 9.93495 9.27661C9.90519 9.27661 9.87735 9.27661 9.84663 9.27661C8.58423 9.27757 7.33815 9.50605 6.26967 9.94957Z" fill="url(#paint1_linear_45_4270)"/>
<path fill-rule="evenodd" clip-rule="evenodd" d="M7.11066 10.5179C7.9017 10.7185 8.6505 10.9585 9.41658 11.2398C9.56826 10.7847 9.72762 10.3335 9.9129 9.89291C10.0972 10.3364 10.2575 10.7857 10.4092 11.2398C11.1724 10.9585 11.9107 10.7271 12.7017 10.5294C12.1449 10.8788 11.6543 11.2379 11.1398 11.642C12.1843 11.7745 13.1625 11.9483 14.1897 12.171C13.1644 12.1489 12.1977 12.1844 11.1753 12.2507C11.8972 12.8622 12.5145 13.4545 13.1865 14.1217C12.2659 13.5956 11.4038 13.155 10.4447 12.7028C10.2604 13.5044 10.0838 14.3089 9.9129 15.1134C9.7449 14.3089 9.58746 13.5428 9.40314 12.7412C8.4441 13.1934 7.57338 13.6254 6.62298 14.1294C7.29498 13.4622 7.93146 12.8871 8.65338 12.2756C7.6281 12.2094 6.64794 12.1959 5.60058 12.1815C6.62874 11.9588 7.64538 11.7851 8.6889 11.6526C8.17146 11.2427 7.66458 10.8683 7.11066 10.5179ZM9.9129 11.9204C9.9129 11.331 9.9129 10.7415 9.9129 10.1492C9.73338 10.6427 9.57402 11.1409 9.42522 11.643C9.58842 11.7332 9.75066 11.8273 9.9129 11.9204ZM7.57146 10.7137C8.20506 10.9921 8.81946 11.306 9.4233 11.642C9.2745 11.6555 9.12282 11.6727 8.97402 11.6891C8.51898 11.3473 8.05338 11.0199 7.57146 10.7137ZM9.9129 11.9204C11.1331 11.9233 12.3513 11.9838 13.5638 12.1047C12.4972 11.9118 11.4643 11.7659 10.3977 11.642C10.2326 11.7332 10.0732 11.8244 9.9129 11.9204ZM12.2495 10.7137C11.6159 10.9921 10.9987 11.306 10.3958 11.642C10.3708 11.5595 10.3459 11.4769 10.3219 11.3943C10.9545 11.1409 11.5996 10.9124 12.2495 10.7137ZM9.84666 11.9204C9.87162 12.7748 9.90426 13.6839 9.91002 14.5105C10.0694 13.7444 10.2355 12.9812 10.4111 12.218C10.246 12.1163 10.0147 12.0174 9.84666 11.9204ZM12.599 13.6839C11.8886 13.1713 11.1609 12.6807 10.414 12.218C10.5657 12.2075 10.7203 12.1931 10.871 12.1854C11.4643 12.6644 12.0403 13.1655 12.599 13.6839ZM9.9129 11.9204C8.68698 11.9367 7.72794 11.9924 6.53274 12.0971C7.5657 12.0999 8.3673 12.1383 9.41754 12.2209C9.57978 12.1191 9.7449 12.0193 9.9129 11.9204ZM7.22682 13.6839C7.9401 13.1713 8.66778 12.6807 9.41466 12.2209C9.43674 12.3169 9.45882 12.411 9.4809 12.507C8.71482 12.8737 7.96506 13.2683 7.22682 13.6839ZM10.0319 16.7819C10.0319 16.4487 10.0319 16.1175 10.0291 15.7873C9.99354 15.7623 9.9465 15.7374 9.91098 15.7124C9.87546 15.7374 9.82266 15.7623 9.78714 15.7873C9.78714 16.1175 9.78714 16.4516 9.78714 16.7819C9.82554 16.8068 9.87546 16.8347 9.91098 16.8615C9.9465 16.8366 9.99642 16.8087 10.0319 16.7819ZM4.12698 14.3751C4.10778 14.4107 4.08858 14.4491 4.06938 14.4884C4.1049 14.5019 4.1769 14.5239 4.20762 14.5383C4.55514 14.354 4.89882 14.1668 5.24058 13.9873C5.25402 13.9345 5.26266 13.9047 5.2761 13.8663C5.24058 13.8577 5.2041 13.8471 5.17146 13.8385C4.82106 14.0123 4.47354 14.1908 4.12698 14.3751ZM3.87066 12.3332C3.83802 12.3582 3.8073 12.3831 3.77466 12.41L3.82746 12.482C4.1529 12.435 4.47738 12.3966 4.80282 12.3639C4.83354 12.3332 4.86906 12.3006 4.89882 12.2727L4.84122 12.2151C4.5177 12.2478 4.19514 12.2862 3.87066 12.3332ZM5.11962 10.6868C5.08698 10.7003 5.05338 10.7147 5.02074 10.7281L5.02938 10.802C5.26938 10.8347 5.50842 10.8759 5.74554 10.923C5.77626 10.9038 5.81754 10.8788 5.8473 10.8654L5.83386 10.802C5.59674 10.7588 5.35674 10.7204 5.11962 10.6868ZM12.4348 9.67115C12.3081 9.75083 12.1843 9.83339 12.0604 9.91403L12.0959 9.95531C12.1286 9.95531 12.1593 9.95531 12.1919 9.95531C12.3129 9.86987 12.4348 9.78731 12.5615 9.70763L12.526 9.67211C12.4953 9.67115 12.4646 9.67115 12.4348 9.67115ZM9.82554 9.32555C9.82554 9.42443 9.82554 9.52139 9.82266 9.61739L9.89466 9.64235L9.96666 9.61739C9.96666 9.52139 9.96378 9.42155 9.96378 9.32555L9.89466 9.30347L9.82554 9.32555ZM7.20666 9.71531C7.33338 9.79499 7.45434 9.87755 7.57626 9.96587C7.60698 9.96587 7.65306 9.95723 7.68378 9.95723L7.7193 9.91595C7.59834 9.83051 7.4745 9.75083 7.34778 9.67115C7.31706 9.67115 7.2873 9.67115 7.25658 9.67115L7.20666 9.71531ZM6.44346 16.1742C6.68634 15.8823 6.93402 15.5924 7.17882 15.3063C7.16538 15.2785 7.1433 15.2295 7.13178 15.1988C7.08186 15.2075 7.02138 15.218 6.97242 15.2295C6.72186 15.5156 6.4761 15.8055 6.23418 16.0945C6.24474 16.13 6.2697 16.1636 6.28122 16.1991C6.33018 16.1847 6.39354 16.1847 6.44346 16.1742ZM15.6143 14.3751C15.2697 14.1908 14.9203 14.0113 14.5699 13.8375C14.5372 13.8462 14.5007 13.8567 14.4652 13.8654C14.4787 13.9038 14.4873 13.9345 14.5007 13.9863C14.8425 14.1659 15.1871 14.3531 15.5337 14.5374C15.5644 14.5239 15.6355 14.5019 15.6719 14.4875C15.6527 14.45 15.6335 14.4116 15.6143 14.3751ZM15.8707 12.3332C15.5481 12.2862 15.2236 12.2478 14.9011 12.2151L14.8435 12.2727C14.8742 12.3006 14.9097 12.3332 14.9395 12.3639C15.2649 12.3966 15.5894 12.4359 15.9148 12.482L15.9676 12.41C15.934 12.3822 15.9033 12.3572 15.8707 12.3332ZM14.6246 10.6868C14.3846 10.7195 14.1455 10.7588 13.9055 10.803L13.895 10.8663C13.9257 10.8798 13.967 10.9047 13.9967 10.9239C14.2339 10.8769 14.4739 10.8356 14.7129 10.803L14.7235 10.7291C14.6899 10.7147 14.6572 10.7012 14.6246 10.6868ZM13.2979 16.1742C13.3391 16.1799 13.4111 16.1905 13.4601 16.1991C13.4764 16.1665 13.4908 16.13 13.5071 16.0945C13.2643 15.8055 13.0195 15.5156 12.7689 15.2295C12.719 15.219 12.6585 15.2075 12.6095 15.1988C12.599 15.2295 12.5769 15.2785 12.5625 15.3063C12.8102 15.5924 13.055 15.8823 13.2979 16.1742Z" fill="white"/>
<path fill-rule="evenodd" clip-rule="evenodd" d="M9.88701 11.9348L9.91197 11.9184V11.954C9.74685 12.0528 9.58365 12.1498 9.42141 12.2487L9.41565 12.218C9.56445 12.1268 9.71325 12.0365 9.86205 11.9482L9.88701 11.9348ZM10.3968 11.642C10.3718 11.5594 10.3468 11.4768 10.3228 11.3943V11.424C10.3449 11.4989 10.367 11.5728 10.3891 11.6468L10.3968 11.642Z" fill="#C4161D"/>
<path fill-rule="evenodd" clip-rule="evenodd" d="M9.91186 9.92257C10.0962 10.3661 10.2565 10.8154 10.4082 11.2694C11.1464 10.9968 11.8578 10.776 12.621 10.5782L12.7007 10.5283C11.9096 10.7299 11.1743 10.9584 10.4082 11.2387C10.2565 10.7837 10.0971 10.3354 9.91186 9.89185C9.72754 10.3354 9.56722 10.7846 9.41554 11.2387C8.65234 10.9574 7.90066 10.7184 7.10962 10.5168L7.1893 10.5667C7.9525 10.7654 8.6773 10.9968 9.41554 11.2694C9.56722 10.8144 9.72658 10.3661 9.91186 9.92257Z" fill="#C82128"/>
<path fill-rule="evenodd" clip-rule="evenodd" d="M4.12319 14.4327L4.09055 14.4932L4.06847 14.4846C4.08767 14.4462 4.10687 14.4107 4.12607 14.3713C4.47359 14.187 4.82015 14.0075 5.17055 13.8337C5.20607 13.8423 5.23967 13.8529 5.27519 13.8615L5.25599 13.922C5.22815 13.9134 5.18975 13.9086 5.16191 13.8999C4.81247 14.0747 4.47071 14.2484 4.12319 14.4327ZM3.88319 12.3783C4.20575 12.3313 4.52255 12.2929 4.84991 12.2574L4.88255 12.29L4.90175 12.2708L4.84415 12.2132C4.51871 12.2459 4.19711 12.2881 3.87167 12.3342C3.84095 12.362 3.80831 12.387 3.77759 12.411L3.79967 12.4417L3.88319 12.3783ZM5.12447 10.7444C5.36159 10.7771 5.84639 10.874 5.85215 10.8711L5.83871 10.8078C5.59871 10.7607 5.36159 10.7223 5.12255 10.6897C5.08991 10.7031 5.05631 10.7175 5.02367 10.731L5.02943 10.7809L5.12447 10.7444Z" fill="#C95222"/>
<path fill-rule="evenodd" clip-rule="evenodd" d="M10.4112 12.2181C11.161 12.6779 11.8877 13.1714 12.5962 13.684V13.7282C11.6592 13.0533 10.9181 12.5685 10.4083 12.2546C10.2317 13.0178 10.0694 13.7752 9.91007 14.5413V14.5106C10.0675 13.7531 10.2384 12.9698 10.4112 12.2181ZM11.2051 12.2786L11.1725 12.2507V12.2978C11.8694 12.8872 12.4262 13.4162 13.0733 14.0584L13.1837 14.1218C12.5021 13.444 11.8934 12.8622 11.2051 12.2786ZM11.135 11.643V11.6786C12.1267 11.8053 13.0358 11.9627 14.0141 12.1691C14.064 12.1691 14.135 12.172 14.1849 12.172C13.1577 11.9493 12.1795 11.7755 11.135 11.643ZM9.91199 11.9186L9.93695 11.9349L9.96767 11.9512C11.1715 11.9541 12.3677 12.0146 13.5629 12.1355V12.1029C12.3504 11.9819 11.1322 11.9214 9.91199 11.9186ZM10.3968 11.6421L10.441 11.6478C11.0304 11.3224 11.6342 11.0171 12.2515 10.7445V10.7138C11.617 10.9922 10.9997 11.3061 10.3968 11.6421ZM12.5261 9.72303L12.5318 9.72879L12.5626 9.70959L12.527 9.67407C12.4963 9.67407 12.4665 9.67407 12.4358 9.67407C12.3091 9.75375 12.1853 9.83343 12.0643 9.91887L12.0922 9.94959C12.2054 9.87279 12.3206 9.79503 12.4368 9.72399C12.4656 9.72303 12.4953 9.72303 12.5261 9.72303ZM7.12703 15.2402L7.17119 15.3227L7.18463 15.3093C7.17887 15.2958 7.15199 15.2296 7.13759 15.2018C7.08767 15.2123 7.02719 15.2238 6.97823 15.2325C6.73055 15.5186 6.48191 15.8056 6.23999 16.0974L6.25919 16.1387C6.41663 15.9544 6.75263 15.5493 6.99743 15.268C7.03295 15.2536 7.08575 15.2488 7.12703 15.2402ZM15.6202 14.4328L15.6528 14.4933L15.6749 14.4846C15.6557 14.4462 15.6365 14.4107 15.6173 14.3714C15.2697 14.187 14.9232 14.0075 14.5728 13.8338C14.5373 13.8424 14.5008 13.853 14.4682 13.8616L14.4874 13.9221L14.5814 13.9C14.929 14.0747 15.2726 14.2485 15.6202 14.4328ZM15.8611 12.3784L15.9437 12.4418L15.9657 12.411C15.935 12.3861 15.9024 12.3611 15.8717 12.3342C15.5462 12.2872 15.2246 12.2459 14.8992 12.2133L14.8416 12.2709L14.8608 12.2901L14.8934 12.2574C15.2189 12.293 15.5357 12.3314 15.8611 12.3784ZM14.7158 10.78L14.7216 10.7301C14.689 10.7166 14.6554 10.7022 14.6227 10.6888C14.3827 10.7214 14.1437 10.7608 13.9066 10.8069L13.8931 10.8702C13.8989 10.8731 14.3837 10.7762 14.6208 10.7435L14.7158 10.78ZM12.6173 15.2402C12.6557 15.2488 12.7113 15.2536 12.7469 15.2709C12.9917 15.5522 13.3306 15.9544 13.488 16.1387L13.5043 16.0974C13.2614 15.8056 13.0138 15.5186 12.7661 15.2325C12.7161 15.2238 12.6557 15.2133 12.6067 15.2018C12.5933 15.2296 12.5654 15.2958 12.5597 15.3093L12.5731 15.3227L12.6173 15.2402ZM10.009 15.8229L10.031 16.7819L10.0282 15.7874C9.99263 15.7624 9.94559 15.7374 9.91007 15.7134C9.87455 15.7384 9.82175 15.7634 9.78623 15.7874V16.7819L9.80831 15.8229C9.83903 15.8037 9.88031 15.7845 9.90719 15.7653L10.009 15.8229Z" fill="#A61B20"/>
<path fill-rule="evenodd" clip-rule="evenodd" d="M8.64866 12.3169C7.94882 12.9063 7.3757 13.4247 6.72578 14.066L6.62114 14.1265C7.28258 13.4708 7.93826 12.8756 8.64866 12.2727V12.3169ZM9.42434 11.6439L9.37731 11.6497C9.24194 11.6631 9.10754 11.6775 8.97218 11.6938C8.51714 11.3492 8.05154 11.0218 7.56962 10.7156V10.7511C8.05154 11.0573 8.51714 11.3847 8.97218 11.7293C9.12098 11.713 9.27266 11.6967 9.42146 11.6823C9.56738 11.762 9.70563 11.8397 9.85154 11.9252H9.90914C9.75171 11.8282 9.5837 11.7322 9.42434 11.6439ZM7.2269 13.7261C7.96514 13.3105 8.71779 12.9159 9.48099 12.5501V12.5089C8.71491 12.8756 7.96514 13.2692 7.2269 13.6849V13.7261ZM8.6525 11.6525C7.61954 11.785 6.61346 11.9588 5.59682 12.1757C5.64674 12.1757 5.70722 12.1786 5.75906 12.1786C6.7373 11.9722 7.69346 11.809 8.68514 11.6823V11.6468L8.6525 11.6525ZM9.41571 12.2199C8.45378 12.1373 7.49762 12.0903 6.53378 12.0961V12.1268C7.48418 12.1181 8.42978 12.1652 9.37731 12.2477L9.41571 12.2199ZM7.35074 9.71335C7.4669 9.78535 7.57922 9.86791 7.6925 9.94471L7.72034 9.91399C7.59938 9.82855 7.47555 9.74599 7.34882 9.66919C7.3181 9.66919 7.28834 9.66919 7.25762 9.66919L7.20771 9.71335L7.23843 9.73255L7.2605 9.71335C7.29026 9.71335 7.32002 9.71335 7.35074 9.71335ZM5.09282 12.2276C4.55522 14.6324 8.1485 15.5309 9.88994 15.5309C11.6314 15.5309 15.2237 14.6324 14.6842 12.2276C14.2493 10.2961 11.568 9.72007 9.88706 9.72007C8.2061 9.72007 5.52482 10.2932 5.09282 12.2276ZM5.2685 12.2141C4.7645 14.5258 8.21378 15.3802 9.88899 15.3802C11.5642 15.3802 15.0135 14.5258 14.5095 12.2141C14.1024 10.346 11.5095 9.79207 9.88899 9.79207C8.26946 9.79207 5.6765 10.346 5.2685 12.2141Z" fill="#C93E25"/>
<path fill-rule="evenodd" clip-rule="evenodd" d="M5.109 12.2881C5.54196 10.3537 8.11188 9.77002 9.90324 9.77002C11.6917 9.77002 14.2645 10.3537 14.6975 12.2881C15.238 14.6929 11.6447 15.5886 9.90324 15.5886C8.1618 15.5886 4.56852 14.6929 5.109 12.2881ZM5.28468 12.2737C5.69268 10.4055 8.28468 9.85162 9.90516 9.85162C11.5228 9.85162 14.1176 10.4055 14.5256 12.2737C15.0296 14.5854 11.5804 15.4398 9.90516 15.4398C8.22996 15.4398 4.78068 14.5825 5.28468 12.2737Z" fill="white"/>
<path d="M9.85339 12.0932C9.85339 12.1344 9.85627 12.1786 9.85627 12.2199C9.96859 12.1901 10.0713 12.1623 10.0713 12.1623C10.1068 12.1565 10.1433 12.1565 10.1817 12.1565C10.2067 12.1565 10.2336 12.1565 10.2585 12.1594C10.2614 12.1517 10.2614 12.146 10.2643 12.1373C10.1596 12.0826 10.0435 12.0269 9.94171 11.9751C9.91483 12.0106 9.88411 12.049 9.85339 12.0932ZM10.0934 11.8119C10.0569 11.8474 10.0214 11.8839 9.98875 11.9194C10.0934 11.9194 10.198 11.9223 10.3027 11.9223C10.3132 11.8426 10.3219 11.7591 10.3248 11.6765C10.2508 11.7245 10.1731 11.7687 10.0934 11.8119Z" fill="url(#paint2_linear_45_4270)"/>
<path d="M11.9049 10.7733C11.8828 10.7676 11.8636 10.7618 11.8473 10.7599C12.1257 10.6773 12.4089 10.6005 12.6988 10.5256L12.6191 10.5756C12.6191 10.5756 12.6191 10.5756 12.6162 10.5756C12.3762 10.6418 12.1391 10.7071 11.9049 10.7733Z" fill="#8A223A"/>
<path d="M14.9567 14.0314C14.8934 14.0006 14.8358 13.9709 14.7859 13.9459C14.8435 13.9738 14.8991 14.0016 14.9567 14.0314ZM11.4201 12.4618C11.3481 12.4013 11.2771 12.3379 11.2079 12.2803L11.1753 12.2525V12.2995C11.2281 12.3466 11.2799 12.3907 11.3327 12.4349C11.3596 12.4426 11.3894 12.4512 11.4201 12.4618ZM14.1868 12.1699C13.8172 12.0902 13.4543 12.0182 13.0953 11.9491C13.1039 11.9597 13.1116 11.9741 13.1203 11.9875C13.415 12.0422 13.7126 12.1037 14.0159 12.167C14.0659 12.167 14.1369 12.1699 14.1868 12.1699ZM12.0902 12.0192C12.0297 12.0029 11.9577 11.9866 11.8809 11.975C11.2531 11.9395 10.6214 11.9222 9.99354 11.9203C9.98298 11.9309 9.97434 11.9395 9.9657 11.951L9.96858 11.9539C10.6761 11.9558 11.3846 11.9779 12.0902 12.0192ZM13.5609 12.1382V12.1056C13.4342 12.095 13.3046 12.0806 13.175 12.0701C13.1836 12.0816 13.1913 12.095 13.1999 12.1056C13.3209 12.1133 13.4399 12.1267 13.5609 12.1382ZM12.0825 10.8173C12.1372 10.7923 12.1929 10.7674 12.2476 10.7434V10.7126C12.1785 10.7434 12.1075 10.7731 12.0383 10.8067C12.0575 10.8115 12.0719 10.8144 12.0825 10.8173Z" fill="#7C1E33"/>
<path d="M15.8573 14.4203C15.6999 14.3675 15.2736 14.186 14.9587 14.0315C14.9011 14.0007 14.8455 13.9739 14.7879 13.946C14.7024 13.9019 14.6391 13.8635 14.6083 13.8356C14.6083 13.8356 14.5507 13.8049 14.4653 13.7588C14.6861 13.4113 14.7955 13.0091 14.7437 12.5435L14.8426 12.5655L15.6279 12.6836L16.1818 12.7998C16.1847 12.8132 16.1847 12.8247 16.1875 12.8382C16.201 12.9428 16.2096 13.0475 16.2096 13.1521C16.2096 13.5438 16.1136 13.9345 15.9091 14.3175C15.8938 14.354 15.8765 14.3876 15.8573 14.4203ZM12.0384 10.8087C12.1104 10.7761 12.1786 10.7425 12.2477 10.7127C12.1594 10.7406 12.0739 10.7675 11.9856 10.7953C12.0048 10.8011 12.0221 10.8059 12.0384 10.8087ZM11.8762 11.9742C11.8128 11.9655 11.7408 11.9579 11.664 11.9521C10.9095 11.8859 10.6195 11.7841 10.5456 11.7591C10.4103 11.7121 10.4083 11.6871 10.3277 11.6766C10.3248 11.7591 10.3171 11.8417 10.3056 11.9214C10.8288 11.93 11.352 11.9473 11.8762 11.9742ZM13.5619 12.1038C13.4247 12.0788 13.2864 12.0539 13.1511 12.0318C13.1597 12.0423 13.1674 12.0567 13.176 12.0673C13.3027 12.0788 13.4323 12.0903 13.5619 12.1038ZM10.3162 12.1614C10.2999 12.1527 10.2835 12.1451 10.2663 12.1335C10.2634 12.1422 10.2634 12.147 10.2605 12.1556C10.2807 12.1595 10.297 12.1595 10.3162 12.1614ZM11.0688 12.3438C11.0026 12.291 10.9363 12.2391 10.873 12.1844C10.7741 12.1902 10.6771 12.195 10.5811 12.2036C10.68 12.2257 10.7463 12.2449 10.7463 12.2449C10.8451 12.267 10.9834 12.3131 11.0688 12.3438ZM14.256 13.6523C14.4787 13.3134 14.592 12.9198 14.545 12.4647C14.4317 12.4014 14.3107 12.3073 14.2416 12.2027C14.1341 12.0347 13.8701 11.7428 13.7232 11.5604C13.5216 11.3099 13.0647 11.0785 12.9984 10.9739C12.9322 10.8692 12.8218 10.6878 12.792 10.6158C12.7613 10.5467 12.6979 10.4919 12.5914 10.4919C12.5856 10.4919 12.5779 10.4919 12.5722 10.4919C12.4512 10.5006 12.4426 10.5419 12.3408 10.5467C12.3274 10.5467 12.313 10.5467 12.2995 10.5467C12.2035 10.5467 12.096 10.5303 12.096 10.5303C12.0327 10.5198 11.9914 10.5111 11.9472 10.5111C11.8867 10.6158 11.7898 10.6791 11.5555 10.6791L11.5143 10.6734C11.5363 10.7233 11.7399 10.7531 11.7869 10.7531C11.7898 10.7531 11.7898 10.7531 11.7927 10.7531H11.7955C11.8061 10.7531 11.8234 10.7559 11.8455 10.7617C12.1239 10.6791 12.4071 10.6023 12.697 10.5275L12.6173 10.5774C12.6144 10.5774 12.6144 10.5774 12.6144 10.5774C12.4791 10.6628 12.3475 10.7511 12.2179 10.8395C12.24 10.85 12.2707 10.8644 12.312 10.8894C12.5655 11.0324 12.9399 11.4318 13.0147 11.7793C13.0253 11.8292 13.056 11.8868 13.0944 11.9473C13.4554 12.0135 13.8192 12.0875 14.1879 12.1681C14.1379 12.1681 14.0669 12.1652 14.017 12.1652C13.8711 12.1623 13.7251 12.1623 13.5792 12.1623C13.4659 12.1623 13.3584 12.1652 13.249 12.1652C13.3315 12.2756 13.4083 12.3831 13.4256 12.4628C13.0925 12.4407 12.6759 12.267 12.4944 12.1844C12.0595 12.1979 11.6237 12.2228 11.1744 12.2507C11.257 12.3227 11.3395 12.3937 11.4192 12.4628C11.7581 12.5732 12.3063 12.7662 12.4858 12.8958C12.6595 13.0225 13.5552 13.3556 13.7914 13.4382C13.9008 13.4756 14.088 13.5668 14.256 13.6523ZM16.0339 12.2555C16.0234 12.2276 16.0147 12.2007 15.9984 12.1787C15.9792 12.1316 15.9571 12.0875 15.9351 12.0414C15.9351 12.0385 15.9322 12.0385 15.9322 12.0356V12.0327C15.9322 12.0299 15.9322 12.0299 15.9322 12.0299C15.9264 12.0212 15.9235 12.0107 15.9187 12.002C15.8909 11.9444 15.8583 11.8859 15.8247 11.8311C15.8141 11.8283 15.6787 11.7899 15.337 11.7899C15.3043 11.7899 15.2679 11.7899 15.2323 11.7899C15.2295 11.7899 15.2295 11.7899 15.2266 11.7899C15.1527 11.7899 15.0691 11.8091 15.0691 11.8091L14.8541 11.9358C14.8263 11.9799 14.9232 12.0375 14.9232 12.0375C14.9232 12.0375 15.193 12.0539 15.193 12.1259C15.3917 12.2334 15.816 12.2449 16.0339 12.2555ZM13.2672 14.5287C13.3498 14.4817 13.4295 14.4299 13.5101 14.3771C13.4631 14.3684 13.3968 14.3607 13.3085 14.3607C13.2317 14.3607 13.2365 14.4404 13.2672 14.5287ZM15.1546 15.2785C15.1872 15.2478 15.2179 15.218 15.2535 15.1902C15.3773 15.0692 15.4848 14.9473 15.5837 14.8235C15.1066 14.8129 14.4288 14.8043 13.9143 14.5374C13.8979 14.4846 13.8595 14.4577 13.8183 14.4414C13.6781 14.5489 13.5264 14.6449 13.3632 14.7361C13.3767 14.7582 13.3853 14.7745 13.3853 14.7745C13.5427 14.8791 14.1072 15.0395 14.2253 15.0558C14.3434 15.0692 14.7379 15.1883 14.7379 15.1883C14.7379 15.1883 14.9424 15.2151 15.1546 15.2785Z" fill="#9C3F39"/>
<path d="M14.2971 13.6733C14.2837 13.6676 14.2693 13.6599 14.2559 13.6541C14.4786 13.3152 14.5919 12.9236 14.5477 12.4695C14.5506 12.4724 14.5535 12.4724 14.5563 12.4752C14.6168 12.9293 14.5122 13.3287 14.2971 13.6733ZM13.2882 14.5863C13.3899 14.5258 13.4869 14.4653 13.58 14.3991C13.5637 14.3933 13.5387 14.3856 13.508 14.3799C13.4312 14.4327 13.3487 14.4816 13.2651 14.5316C13.2747 14.5479 13.2805 14.5671 13.2882 14.5863Z" fill="#892F3B"/>
<path d="M12.2188 10.8422C12.1612 10.8172 12.1526 10.8316 12.0834 10.8201H12.0806C12.1353 10.7952 12.191 10.7702 12.2486 10.7462V10.7155C12.1602 10.7433 12.0719 10.7702 11.9865 10.798C11.9586 10.7923 11.9318 10.7846 11.9039 10.7788C12.1382 10.7097 12.3753 10.6464 12.6172 10.583C12.4809 10.6656 12.3484 10.7539 12.2188 10.8422ZM10.0943 11.8118C10.1135 11.7955 10.1298 11.7763 10.1519 11.7571C10.1826 11.7292 10.2018 11.6995 10.2182 11.6716L10.2873 11.6745C10.3036 11.6745 10.318 11.6774 10.3314 11.6774C10.2489 11.7235 10.1721 11.7676 10.0943 11.8118ZM14.0159 12.167C13.87 12.1641 13.7241 12.1641 13.5782 12.1641C13.4678 12.1641 13.3574 12.1641 13.2498 12.167C13.2335 12.1449 13.2191 12.1257 13.2028 12.1036C13.3238 12.1142 13.4428 12.1257 13.5638 12.1363V12.1036C13.4342 12.0902 13.3046 12.0787 13.1778 12.0681C13.3074 12.0787 13.437 12.0931 13.5638 12.1036C13.4255 12.0787 13.2882 12.0537 13.15 12.0316C13.1394 12.0182 13.1308 12.0009 13.1193 11.9875C13.415 12.0432 13.7126 12.1036 14.0159 12.167ZM14.1858 12.1699C13.8162 12.0902 13.4534 12.0153 13.0924 11.9491C13.4562 12.0182 13.8172 12.0902 14.1858 12.1699ZM9.646 12.2716C9.70936 12.2553 9.76408 12.2246 9.7948 12.1756C9.814 12.1449 9.8332 12.118 9.84952 12.0931C9.84952 12.1372 9.8524 12.1785 9.8524 12.2198C9.78328 12.239 9.7036 12.2582 9.646 12.2716ZM11.4201 12.4617C11.3481 12.4012 11.2799 12.3408 11.2079 12.2803L11.1753 12.2524V12.2995C11.2281 12.3436 11.2799 12.3907 11.3327 12.4348C11.2194 12.3993 11.1455 12.3744 11.1455 12.3744C11.1455 12.3744 11.1148 12.3638 11.0716 12.3465C11.0054 12.2918 10.942 12.239 10.8758 12.1872C10.7798 12.1929 10.6799 12.2006 10.5839 12.2064C10.51 12.19 10.4159 12.1737 10.319 12.1651C10.3026 12.1564 10.2863 12.1488 10.269 12.1372C10.1644 12.0825 10.0482 12.0268 9.94648 11.975C9.95224 11.9664 9.95992 11.9587 9.96568 11.9529L9.96856 11.9558C10.677 11.9587 11.3846 11.9808 12.0902 12.022C12.2418 12.0633 12.3273 12.1075 12.3273 12.1075L12.4012 12.143C12.4012 12.143 12.4367 12.1593 12.4953 12.1872C12.0604 12.2006 11.6217 12.2256 11.1753 12.2534C11.2578 12.3216 11.3375 12.3907 11.4201 12.4617ZM14.4623 13.7577C14.6831 13.4102 14.7926 13.008 14.7436 12.5424H14.7407C14.6908 12.5318 14.6274 12.5068 14.5593 12.4704C14.6169 12.9302 14.5122 13.3296 14.2972 13.6713C14.3577 13.702 14.4153 13.7328 14.4623 13.7577ZM15.9378 12.0355C15.9378 12.0326 15.935 12.0326 15.935 12.0297C15.9378 12.0326 15.9378 12.0355 15.9378 12.0355ZM13.3612 14.7331C13.5206 14.6419 13.6751 14.5459 13.8182 14.4384C13.7826 14.4249 13.7442 14.422 13.7106 14.422C13.6694 14.422 13.6367 14.4278 13.6367 14.4278C13.6367 14.4278 13.6262 14.4144 13.5839 14.3971C13.4898 14.4633 13.391 14.5238 13.2892 14.5843C13.3113 14.6419 13.342 14.6976 13.3612 14.7331Z" fill="#987A8F"/>
<path d="M12.1824 6.92842L12.0202 6.77674C12.0096 6.72682 12.0643 6.65867 12.0778 6.57323L12.0279 6.55402C11.9895 6.4081 11.9559 6.14315 12.0279 6.00299C12.0605 5.93387 12.1018 5.84363 12.0807 5.76299C11.9482 5.31371 11.689 4.92299 11.5075 4.49867C11.4576 4.38251 11.4663 4.29995 11.4576 4.18187C11.3175 4.02443 11.1514 3.61739 11.0746 3.36587C10.9095 3.78155 10.7991 4.26155 10.7991 4.37195C10.7991 4.84043 11.2762 5.06891 11.1101 5.84843C11.0775 6.00011 11.0218 6.2065 10.9671 6.42155C11.0659 6.96394 11.0659 7.35851 11.2119 7.98923C11.4154 8.18987 11.5834 8.44907 11.6746 8.77738C11.7293 8.98091 11.9002 9.45802 12.121 9.52714C12.2563 9.57131 11.6611 9.68171 11.4931 9.46955C11.3309 9.26602 11.0496 9.10283 10.9171 8.88778C10.8125 8.71691 10.6474 8.34731 10.5427 8.17451L10.416 8.84171C10.5898 9.55499 10.4851 9.71242 10.3306 10.2913C10.2643 10.5419 9.76035 9.37066 9.75747 9.28043C9.75747 9.02699 9.74115 8.93291 9.68355 8.7073C9.57891 8.50091 9.58947 8.20907 9.60387 7.98538C9.62883 7.61386 9.62595 6.91402 9.63939 6.72874C9.51267 6.41482 9.18435 5.84939 9.15171 5.53259C9.10179 5.03627 9.18435 4.53515 9.11619 4.03883C9.03075 4.28651 8.93955 4.60043 8.74659 4.79147C8.45763 5.07563 8.19267 5.38955 7.93347 5.70347C7.83939 5.83307 7.92291 5.89355 7.77603 6.09995C7.63299 6.30059 7.70979 6.21034 7.68003 6.4033C7.67427 6.43594 7.65795 6.46378 7.64739 6.4753C7.57059 6.53866 7.48995 6.59339 7.38051 6.54923C7.16835 6.44171 7.15203 6.28427 7.13763 6.08363C7.10979 5.69771 7.39683 5.67851 7.55907 5.44427C7.87587 4.98443 8.03811 4.21259 8.37987 3.86603C8.40195 3.79691 8.48163 3.54923 8.63331 3.18251C8.63907 2.72555 8.75139 2.31755 9.22275 2.13035C9.41571 2.05355 9.66915 2.03435 9.67779 1.76651C9.67779 1.73387 9.67203 1.65323 9.65283 1.62347C9.57603 1.56011 9.52035 1.56011 9.48195 1.51595C9.40515 1.41707 9.34179 0.788265 9.34947 0.746985C9.45987 0.212265 9.71619 0.0365853 10.0387 0.0500253C10.4218 0.0692253 10.7251 0.253545 10.7079 0.766185C10.6944 1.17995 10.2672 1.71083 10.9066 1.91243C11.1514 1.98923 11.1955 1.93739 11.4077 2.14667C11.6419 2.38379 11.6995 2.80235 11.7379 3.19115L11.9779 3.74795C12.4186 4.48907 12.2592 4.72331 12.4186 5.47499C12.4599 5.67083 12.5319 5.84171 12.5482 6.26891C12.5655 6.46571 12.4051 6.92074 12.1824 6.92842Z" fill="#F9A93F"/>
<path d="M9.5317 0.76422C9.53458 0.79686 9.5509 1.3047 9.62578 1.41222C9.7717 1.52262 9.85426 1.48902 9.84658 1.76262C9.8389 1.9911 9.69202 2.12646 9.49426 2.1975C9.1717 2.30982 9.00658 2.37606 8.89906 2.71014C8.86642 2.81478 8.8357 2.96646 8.8357 3.18918V3.20358C8.7445 3.43206 8.62642 3.69414 8.5573 3.93894C8.16082 4.3383 7.9621 5.24166 7.55986 5.6247C7.29298 5.87814 7.21234 5.89446 7.3093 6.28614C7.31986 6.32454 7.44658 6.42726 7.47442 6.44358L7.59826 6.36678C7.61746 6.16806 7.59058 6.18534 7.7173 6.00294C7.83346 5.83494 7.77778 5.74662 7.87954 5.6007C8.13298 5.2839 8.37298 4.96422 8.65618 4.67526C8.84626 4.4823 9.10546 3.8295 9.16594 3.60102C9.1765 3.56838 9.1957 3.5511 9.20434 3.57894C9.24274 4.01382 9.3061 4.37766 9.28978 4.80774C9.25714 5.70918 9.2821 5.6151 9.6565 6.4551C9.68626 6.11622 9.76882 5.62566 9.96466 5.46054C9.7333 6.33702 9.7189 7.5879 9.6949 7.96998C9.6805 8.16582 9.62866 8.47398 9.72274 8.6535C9.7525 8.77446 9.75538 8.95878 9.75826 9.0999C9.75826 9.18534 9.76402 10.6369 9.76402 10.6369L9.62962 11.3117C9.58258 11.5076 9.32914 11.833 9.14482 11.9348C9.08722 11.9674 8.9461 12.0423 8.9461 12.1057C8.9461 12.2132 9.63154 12.4119 9.78898 12.169C9.90706 11.9876 10.004 11.8877 10.1442 11.7524C10.3592 11.546 10.1192 11.3309 10.1499 11.0525C10.1999 10.5649 10.4091 10.1405 10.4783 9.67782C10.5195 9.39942 10.5109 9.15462 10.3871 8.83686L10.4783 7.95558C10.58 8.10726 10.6741 8.35014 10.7701 8.55078C10.941 8.90886 10.9439 8.94246 11.2415 9.23718C11.3403 9.33606 11.445 9.45222 11.5199 9.57318C11.66 9.79398 11.7541 10.0138 11.7426 10.2788C11.6408 10.4631 11.5967 10.4525 11.4642 10.5649C11.4699 10.5706 11.4277 10.6724 11.5525 10.6724C11.9989 10.6724 11.9442 10.4381 12.1112 10.1386C12.2216 9.94278 12.5327 9.64518 12.1909 9.54342C12.0834 9.51078 11.9816 9.44646 11.9183 9.34182C11.6811 8.94534 11.6706 8.95398 11.5467 8.58726C11.4719 8.36454 11.3183 8.18502 11.1387 8.04198C11.0283 7.79142 10.9842 7.61478 10.9487 7.3479C10.9016 6.98694 10.869 6.73062 10.8056 6.36198C10.9794 5.67078 11.0706 5.5239 10.773 4.86054C10.7039 4.70886 10.6655 4.54662 10.6655 4.36422C10.6655 4.14342 10.7864 3.64806 10.9045 3.38886C10.9458 3.28422 11.0034 3.18534 11.084 3.15462C11.156 3.42246 11.4037 3.9735 11.5467 4.1079C11.5544 4.21542 11.5525 4.32582 11.5938 4.42758C11.7752 4.86246 12.0344 5.25702 12.164 5.71686C12.2082 5.8743 12.1496 5.9511 12.1035 6.07782C12.0891 6.1383 12.0872 6.31494 12.1141 6.44742L12.1775 6.48006C12.1669 6.51846 12.1391 6.63174 12.117 6.6807C12.1256 6.74406 12.2024 6.77766 12.2024 6.77766C12.3013 6.75558 12.4453 6.39462 12.4395 6.25158C12.4232 5.81094 12.332 5.61222 12.3042 5.48262C12.1583 4.73574 12.2408 4.52934 11.8251 3.80454L11.588 3.2151C11.5583 2.91462 11.4392 2.2263 11.0533 2.10246C10.9871 2.08326 10.9237 2.0775 10.8248 2.04774C10.3208 1.8855 10.3208 1.4967 10.4581 1.07238C10.5819 0.6951 10.5963 0.25158 10.0424 0.20454C10.0261 0.20166 10.0098 0.20166 9.9925 0.20166C9.6997 0.2103 9.60274 0.4695 9.5317 0.76422Z" fill="url(#paint3_linear_45_4270)"/>
</g>
<defs>
<linearGradient id="paint0_linear_45_4270" x1="3.33669" y1="14.3038" x2="20.6923" y2="14.3038" gradientUnits="userSpaceOnUse">
<stop stop-color="#C95222"/>
<stop offset="0.00217" stop-color="#C95222"/>
<stop offset="0.00606" stop-color="#C95222"/>
<stop offset="0.00995" stop-color="#C85222"/>
<stop offset="0.0138" stop-color="#C85222"/>
<stop offset="0.0177" stop-color="#C85122"/>
<stop offset="0.0216" stop-color="#C75122"/>
<stop offset="0.0255" stop-color="#C75122"/>
<stop offset="0.0294" stop-color="#C65122"/>
<stop offset="0.0333" stop-color="#C65123"/>
<stop offset="0.0372" stop-color="#C65123"/>
<stop offset="0.0411" stop-color="#C55123"/>
<stop offset="0.045" stop-color="#C55023"/>
<stop offset="0.0489" stop-color="#C55023"/>
<stop offset="0.0527" stop-color="#C45023"/>
<stop offset="0.0566" stop-color="#C45023"/>
<stop offset="0.0605" stop-color="#C45023"/>
<stop offset="0.0644" stop-color="#C35023"/>
<stop offset="0.0683" stop-color="#C35023"/>
<stop offset="0.0722" stop-color="#C34F23"/>
<stop offset="0.0761" stop-color="#C24F23"/>
<stop offset="0.08" stop-color="#C24F23"/>
<stop offset="0.0838" stop-color="#C14F23"/>
<stop offset="0.0877" stop-color="#C14F23"/>
<stop offset="0.0916" stop-color="#C14F24"/>
<stop offset="0.0955" stop-color="#C04F24"/>
<stop offset="0.0994" stop-color="#C04E24"/>
<stop offset="0.1033" stop-color="#C04E24"/>
<stop offset="0.1072" stop-color="#BF4E24"/>
<stop offset="0.1111" stop-color="#BF4E24"/>
<stop offset="0.115" stop-color="#BF4E24"/>
<stop offset="0.1189" stop-color="#BE4E24"/>
<stop offset="0.1227" stop-color="#BE4E24"/>
<stop offset="0.1266" stop-color="#BE4E24"/>
<stop offset="0.1305" stop-color="#BD4D24"/>
<stop offset="0.1344" stop-color="#BD4D24"/>
<stop offset="0.1383" stop-color="#BC4D24"/>
<stop offset="0.1422" stop-color="#BC4D24"/>
<stop offset="0.1461" stop-color="#BC4D24"/>
<stop offset="0.15" stop-color="#BB4D25"/>
<stop offset="0.1539" stop-color="#BB4D25"/>
<stop offset="0.1577" stop-color="#BB4C25"/>
<stop offset="0.1616" stop-color="#BA4C25"/>
<stop offset="0.1655" stop-color="#BA4C25"/>
<stop offset="0.1694" stop-color="#BA4C25"/>
<stop offset="0.1733" stop-color="#B94C25"/>
<stop offset="0.1772" stop-color="#B94C25"/>
<stop offset="0.1811" stop-color="#B84C25"/>
<stop offset="0.185" stop-color="#B84B25"/>
<stop offset="0.1889" stop-color="#B84B25"/>
<stop offset="0.1928" stop-color="#B74B25"/>
<stop offset="0.1966" stop-color="#B74B25"/>
<stop offset="0.2005" stop-color="#B74B25"/>
<stop offset="0.2044" stop-color="#B64B25"/>
<stop offset="0.2083" stop-color="#B64B26"/>
<stop offset="0.2122" stop-color="#B64A26"/>
<stop offset="0.2161" stop-color="#B54A26"/>
<stop offset="0.22" stop-color="#B54A26"/>
<stop offset="0.2239" stop-color="#B54A26"/>
<stop offset="0.2278" stop-color="#B44A26"/>
<stop offset="0.2316" stop-color="#B44A26"/>
<stop offset="0.2355" stop-color="#B34A26"/>
<stop offset="0.2394" stop-color="#B34926"/>
<stop offset="0.2433" stop-color="#B34926"/>
<stop offset="0.2472" stop-color="#B24926"/>
<stop offset="0.2511" stop-color="#B24926"/>
<stop offset="0.255" stop-color="#B24926"/>
<stop offset="0.2589" stop-color="#B14926"/>
<stop offset="0.2628" stop-color="#B14926"/>
<stop offset="0.2666" stop-color="#B14827"/>
<stop offset="0.2705" stop-color="#B04827"/>
<stop offset="0.2744" stop-color="#B04827"/>
<stop offset="0.2783" stop-color="#AF4827"/>
<stop offset="0.2822" stop-color="#AF4827"/>
<stop offset="0.2861" stop-color="#AF4827"/>
<stop offset="0.29" stop-color="#AE4827"/>
<stop offset="0.2939" stop-color="#AE4727"/>
<stop offset="0.2978" stop-color="#AE4727"/>
<stop offset="0.3016" stop-color="#AD4727"/>
<stop offset="0.3055" stop-color="#AD4727"/>
<stop offset="0.3094" stop-color="#AD4727"/>
<stop offset="0.3133" stop-color="#AC4727"/>
<stop offset="0.3172" stop-color="#AC4727"/>
<stop offset="0.3211" stop-color="#AC4627"/>
<stop offset="0.325" stop-color="#AB4628"/>
<stop offset="0.3289" stop-color="#AB4628"/>
<stop offset="0.3328" stop-color="#AA4628"/>
<stop offset="0.3367" stop-color="#AA4628"/>
<stop offset="0.3405" stop-color="#AA4628"/>
<stop offset="0.3444" stop-color="#A94628"/>
<stop offset="0.3483" stop-color="#A94528"/>
<stop offset="0.3522" stop-color="#A94528"/>
<stop offset="0.3561" stop-color="#A84528"/>
<stop offset="0.36" stop-color="#A84528"/>
<stop offset="0.3639" stop-color="#A84528"/>
<stop offset="0.3678" stop-color="#A74528"/>
<stop offset="0.3717" stop-color="#A74528"/>
<stop offset="0.3755" stop-color="#A74528"/>
<stop offset="0.3794" stop-color="#A64428"/>
<stop offset="0.3833" stop-color="#A64429"/>
<stop offset="0.3872" stop-color="#A54429"/>
<stop offset="0.3911" stop-color="#A54429"/>
<stop offset="0.395" stop-color="#A54429"/>
<stop offset="0.3989" stop-color="#A44429"/>
<stop offset="0.4028" stop-color="#A44429"/>
<stop offset="0.4067" stop-color="#A44329"/>
<stop offset="0.4105" stop-color="#A34329"/>
<stop offset="0.4144" stop-color="#A34329"/>
<stop offset="0.4183" stop-color="#A34329"/>
<stop offset="0.4222" stop-color="#A24329"/>
<stop offset="0.4261" stop-color="#A24329"/>
<stop offset="0.43" stop-color="#A14329"/>
<stop offset="0.4339" stop-color="#A14229"/>
<stop offset="0.4378" stop-color="#A14229"/>
<stop offset="0.4417" stop-color="#A0422A"/>
<stop offset="0.4455" stop-color="#A0422A"/>
<stop offset="0.4494" stop-color="#A0422A"/>
<stop offset="0.4533" stop-color="#9F422A"/>
<stop offset="0.4572" stop-color="#9F422A"/>
<stop offset="0.4611" stop-color="#9F412A"/>
<stop offset="0.465" stop-color="#9E412A"/>
<stop offset="0.4689" stop-color="#9E412A"/>
<stop offset="0.4728" stop-color="#9E412A"/>
<stop offset="0.4767" stop-color="#9D412A"/>
<stop offset="0.4805" stop-color="#9D412A"/>
<stop offset="0.4844" stop-color="#9C412A"/>
<stop offset="0.4883" stop-color="#9C402A"/>
<stop offset="0.4922" stop-color="#9C402A"/>
<stop offset="0.4961" stop-color="#9B402A"/>
<stop offset="0.5" stop-color="#9B402A"/>
<stop offset="0.5039" stop-color="#9B402B"/>
<stop offset="0.5078" stop-color="#9A402B"/>
<stop offset="0.5117" stop-color="#9A402B"/>
<stop offset="0.5156" stop-color="#9A3F2B"/>
<stop offset="0.5195" stop-color="#993F2B"/>
<stop offset="0.5233" stop-color="#993F2B"/>
<stop offset="0.5272" stop-color="#983F2B"/>
<stop offset="0.5311" stop-color="#983F2B"/>
<stop offset="0.535" stop-color="#983F2B"/>
<stop offset="0.5389" stop-color="#973F2B"/>
<stop offset="0.5428" stop-color="#973E2B"/>
<stop offset="0.5467" stop-color="#973E2B"/>
<stop offset="0.5506" stop-color="#963E2B"/>
<stop offset="0.5544" stop-color="#963E2B"/>
<stop offset="0.5583" stop-color="#963E2B"/>
<stop offset="0.5622" stop-color="#953E2C"/>
<stop offset="0.5661" stop-color="#953E2C"/>
<stop offset="0.57" stop-color="#953D2C"/>
<stop offset="0.5739" stop-color="#943D2C"/>
<stop offset="0.5778" stop-color="#943D2C"/>
<stop offset="0.5817" stop-color="#933D2C"/>
<stop offset="0.5856" stop-color="#933D2C"/>
<stop offset="0.5895" stop-color="#933D2C"/>
<stop offset="0.5933" stop-color="#923D2C"/>
<stop offset="0.5972" stop-color="#923C2C"/>
<stop offset="0.6011" stop-color="#923C2C"/>
<stop offset="0.605" stop-color="#913C2C"/>
<stop offset="0.6089" stop-color="#913C2C"/>
<stop offset="0.6128" stop-color="#913C2C"/>
<stop offset="0.6167" stop-color="#903C2C"/>
<stop offset="0.6206" stop-color="#903C2D"/>
<stop offset="0.6245" stop-color="#903B2D"/>
<stop offset="0.6284" stop-color="#8F3B2D"/>
<stop offset="0.6322" stop-color="#8F3B2D"/>
<stop offset="0.6361" stop-color="#8E3B2D"/>
<stop offset="0.64" stop-color="#8E3B2D"/>
<stop offset="0.6439" stop-color="#8E3B2D"/>
<stop offset="0.6478" stop-color="#8D3B2D"/>
<stop offset="0.6517" stop-color="#8D3B2D"/>
<stop offset="0.6556" stop-color="#8D3A2D"/>
<stop offset="0.6595" stop-color="#8C3A2D"/>
<stop offset="0.6633" stop-color="#8C3A2D"/>
<stop offset="0.6672" stop-color="#8C3A2D"/>
<stop offset="0.6711" stop-color="#8B3A2D"/>
<stop offset="0.675" stop-color="#8B3A2D"/>
<stop offset="0.6789" stop-color="#8A3A2E"/>
<stop offset="0.6828" stop-color="#8A392E"/>
<stop offset="0.6867" stop-color="#8A392E"/>
<stop offset="0.6906" stop-color="#89392E"/>
<stop offset="0.6945" stop-color="#89392E"/>
<stop offset="0.6984" stop-color="#89392E"/>
<stop offset="0.7022" stop-color="#88392E"/>
<stop offset="0.7061" stop-color="#88392E"/>
<stop offset="0.71" stop-color="#88382E"/>
<stop offset="0.7139" stop-color="#87382E"/>
<stop offset="0.7178" stop-color="#87382E"/>
<stop offset="0.7217" stop-color="#87382E"/>
<stop offset="0.7256" stop-color="#86382E"/>
<stop offset="0.7295" stop-color="#86382E"/>
<stop offset="0.7334" stop-color="#85382E"/>
<stop offset="0.7372" stop-color="#85372F"/>
<stop offset="0.7411" stop-color="#85372F"/>
<stop offset="0.745" stop-color="#84372F"/>
<stop offset="0.7489" stop-color="#84372F"/>
<stop offset="0.7528" stop-color="#84372F"/>
<stop offset="0.7567" stop-color="#83372F"/>
<stop offset="0.7606" stop-color="#83372F"/>
<stop offset="0.7645" stop-color="#83362F"/>
<stop offset="0.7684" stop-color="#82362F"/>
<stop offset="0.7722" stop-color="#82362F"/>
<stop offset="0.7761" stop-color="#81362F"/>
<stop offset="0.78" stop-color="#81362F"/>
<stop offset="0.7839" stop-color="#81362F"/>
<stop offset="0.7878" stop-color="#80362F"/>
<stop offset="0.7917" stop-color="#80352F"/>
<stop offset="0.7956" stop-color="#803530"/>
<stop offset="0.7995" stop-color="#7F3530"/>
<stop offset="0.8034" stop-color="#7F3530"/>
<stop offset="0.8073" stop-color="#7F3530"/>
<stop offset="0.8111" stop-color="#7E3530"/>
<stop offset="0.815" stop-color="#7E3530"/>
<stop offset="0.8189" stop-color="#7E3430"/>
<stop offset="0.8228" stop-color="#7D3430"/>
<stop offset="0.8267" stop-color="#7D3430"/>
<stop offset="0.8306" stop-color="#7C3430"/>
<stop offset="0.8345" stop-color="#7C3430"/>
<stop offset="0.8384" stop-color="#7C3430"/>
<stop offset="0.8422" stop-color="#7B3430"/>
<stop offset="0.8461" stop-color="#7B3330"/>
<stop offset="0.85" stop-color="#7B3330"/>
<stop offset="0.8539" stop-color="#7A3331"/>
<stop offset="0.8578" stop-color="#7A3331"/>
<stop offset="0.8617" stop-color="#7A3331"/>
<stop offset="0.8656" stop-color="#793331"/>
<stop offset="0.8695" stop-color="#793331"/>
<stop offset="0.8734" stop-color="#783231"/>
<stop offset="0.8773" stop-color="#783231"/>
<stop offset="0.8812" stop-color="#783231"/>
<stop offset="0.885" stop-color="#773231"/>
<stop offset="0.8889" stop-color="#773231"/>
<stop offset="0.8928" stop-color="#773231"/>
<stop offset="0.8967" stop-color="#763231"/>
<stop offset="0.9006" stop-color="#763231"/>
<stop offset="0.9045" stop-color="#763131"/>
<stop offset="0.9084" stop-color="#753131"/>
<stop offset="0.9123" stop-color="#753132"/>
<stop offset="0.9161" stop-color="#753132"/>
<stop offset="0.92" stop-color="#743132"/>
<stop offset="0.9239" stop-color="#743132"/>
<stop offset="0.9278" stop-color="#733132"/>
<stop offset="0.9317" stop-color="#733032"/>
<stop offset="0.9356" stop-color="#733032"/>
<stop offset="0.9395" stop-color="#723032"/>
<stop offset="0.9434" stop-color="#723032"/>
<stop offset="0.9473" stop-color="#723032"/>
<stop offset="0.9512" stop-color="#713032"/>
<stop offset="0.955" stop-color="#713032"/>
<stop offset="0.9589" stop-color="#712F32"/>
<stop offset="0.9628" stop-color="#702F32"/>
<stop offset="0.9667" stop-color="#702F32"/>
<stop offset="0.9706" stop-color="#702F33"/>
<stop offset="0.9745" stop-color="#6F2F33"/>
<stop offset="0.9784" stop-color="#6F2F33"/>
<stop offset="0.9823" stop-color="#6E2F33"/>
<stop offset="0.9862" stop-color="#6E2E33"/>
<stop offset="1" stop-color="#6D2E33"/>
</linearGradient>
<linearGradient id="paint1_linear_45_4270" x1="2.25844" y1="13.1695" x2="12.9871" y2="11.2778" gradientUnits="userSpaceOnUse">
<stop stop-color="#FDDB63"/>
<stop offset="0.00346" stop-color="#FDDB63"/>
<stop offset="0.0112" stop-color="#FDDA62"/>
<stop offset="0.019" stop-color="#FDD962"/>
<stop offset="0.0267" stop-color="#FDD861"/>
<stop offset="0.0345" stop-color="#FDD761"/>
<stop offset="0.0422" stop-color="#FDD660"/>
<stop offset="0.05" stop-color="#FDD65F"/>
<stop offset="0.0578" stop-color="#FCD55F"/>
<stop offset="0.0655" stop-color="#FCD45E"/>
<stop offset="0.0733" stop-color="#FCD35E"/>
<stop offset="0.081" stop-color="#FCD25D"/>
<stop offset="0.0888" stop-color="#FCD15C"/>
<stop offset="0.0966" stop-color="#FCD05C"/>
<stop offset="0.1043" stop-color="#FCCF5B"/>
<stop offset="0.1121" stop-color="#FCCE5B"/>
<stop offset="0.1198" stop-color="#FCCD5A"/>
<stop offset="0.1276" stop-color="#FCCC5A"/>
<stop offset="0.1354" stop-color="#FCCC59"/>
<stop offset="0.1431" stop-color="#FCCB58"/>
<stop offset="0.1509" stop-color="#FCCA58"/>
<stop offset="0.1586" stop-color="#FBC957"/>
<stop offset="0.1664" stop-color="#FBC857"/>
<stop offset="0.1741" stop-color="#FBC756"/>
<stop offset="0.1819" stop-color="#FBC655"/>
<stop offset="0.1897" stop-color="#FBC555"/>
<stop offset="0.1974" stop-color="#FBC454"/>
<stop offset="0.2052" stop-color="#FBC354"/>
<stop offset="0.2129" stop-color="#FBC353"/>
<stop offset="0.2207" stop-color="#FBC252"/>
<stop offset="0.2285" stop-color="#FBC152"/>
<stop offset="0.2362" stop-color="#FBC051"/>
<stop offset="0.244" stop-color="#FBBF51"/>
<stop offset="0.2517" stop-color="#FBBE50"/>
<stop offset="0.2595" stop-color="#FABD4F"/>
<stop offset="0.2672" stop-color="#FABC4F"/>
<stop offset="0.275" stop-color="#FABB4E"/>
<stop offset="0.2828" stop-color="#FABA4E"/>
<stop offset="0.2905" stop-color="#FAB94D"/>
<stop offset="0.2983" stop-color="#FAB94C"/>
<stop offset="0.306" stop-color="#FAB84C"/>
<stop offset="0.3138" stop-color="#FAB74B"/>
<stop offset="0.3216" stop-color="#FAB64B"/>
<stop offset="0.3293" stop-color="#FAB54A"/>
<stop offset="0.3371" stop-color="#FAB449"/>
<stop offset="0.3448" stop-color="#FAB349"/>
<stop offset="0.3526" stop-color="#F9B248"/>
<stop offset="0.3604" stop-color="#F9B148"/>
<stop offset="0.3681" stop-color="#F9B047"/>
<stop offset="0.3759" stop-color="#F9AF47"/>
<stop offset="0.3836" stop-color="#F9AF46"/>
<stop offset="0.3914" stop-color="#F9AE45"/>
<stop offset="0.3991" stop-color="#F9AD45"/>
<stop offset="0.4069" stop-color="#F9AC44"/>
<stop offset="0.4147" stop-color="#F9AB44"/>
<stop offset="0.4224" stop-color="#F9AA43"/>
<stop offset="0.4302" stop-color="#F9A942"/>
<stop offset="0.4379" stop-color="#F9A842"/>
<stop offset="0.4457" stop-color="#F9A741"/>
<stop offset="0.4535" stop-color="#F8A641"/>
<stop offset="0.4612" stop-color="#F8A640"/>
<stop offset="0.469" stop-color="#F8A53F"/>
<stop offset="0.4767" stop-color="#F8A43F"/>
<stop offset="0.4845" stop-color="#F8A33E"/>
<stop offset="0.4922" stop-color="#F8A23E"/>
<stop offset="0.5" stop-color="#F8A13D"/>
<stop offset="0.5078" stop-color="#F8A03C"/>
<stop offset="0.5155" stop-color="#F89F3C"/>
<stop offset="0.5233" stop-color="#F89E3B"/>
<stop offset="0.531" stop-color="#F89D3B"/>
<stop offset="0.5388" stop-color="#F89C3A"/>
<stop offset="0.5465" stop-color="#F89C39"/>
<stop offset="0.5543" stop-color="#F79B39"/>
<stop offset="0.5621" stop-color="#F79A38"/>
<stop offset="0.5698" stop-color="#F79938"/>
<stop offset="0.5776" stop-color="#F79837"/>
<stop offset="0.5853" stop-color="#F79736"/>
<stop offset="0.5931" stop-color="#F79636"/>
<stop offset="0.6009" stop-color="#F79535"/>
<stop offset="0.6086" stop-color="#F79435"/>
<stop offset="0.6164" stop-color="#F79334"/>
<stop offset="0.6241" stop-color="#F79234"/>
<stop offset="0.6319" stop-color="#F79233"/>
<stop offset="0.6396" stop-color="#F79132"/>
<stop offset="0.6474" stop-color="#F79032"/>
<stop offset="0.6552" stop-color="#F68F31"/>
<stop offset="0.6629" stop-color="#F68E31"/>
<stop offset="0.6707" stop-color="#F68D30"/>
<stop offset="0.6784" stop-color="#F68C2F"/>
<stop offset="0.6862" stop-color="#F68B2F"/>
<stop offset="0.694" stop-color="#F68A2E"/>
<stop offset="0.7017" stop-color="#F6892E"/>
<stop offset="0.7095" stop-color="#F6892D"/>
<stop offset="0.7172" stop-color="#F6882C"/>
<stop offset="0.725" stop-color="#F6872C"/>
<stop offset="0.7328" stop-color="#F6862B"/>
<stop offset="0.7405" stop-color="#F6852B"/>
<stop offset="0.7483" stop-color="#F5842A"/>
<stop offset="0.756" stop-color="#F58329"/>
<stop offset="0.7638" stop-color="#F58229"/>
<stop offset="0.7715" stop-color="#F58128"/>
<stop offset="0.7793" stop-color="#F58028"/>
<stop offset="0.7871" stop-color="#F57F27"/>
<stop offset="0.7948" stop-color="#F57F26"/>
<stop offset="0.8026" stop-color="#F57E26"/>
<stop offset="0.8103" stop-color="#F57D25"/>
<stop offset="0.8181" stop-color="#F57C25"/>
<stop offset="0.8259" stop-color="#F57B24"/>
<stop offset="0.8336" stop-color="#F57A23"/>
<stop offset="0.8414" stop-color="#F57923"/>
<stop offset="0.8491" stop-color="#F47822"/>
<stop offset="0.8569" stop-color="#F47722"/>
<stop offset="0.8647" stop-color="#F47621"/>
<stop offset="0.8724" stop-color="#F47521"/>
<stop offset="0.8802" stop-color="#F47520"/>
<stop offset="0.8879" stop-color="#F4741F"/>
<stop offset="0.8957" stop-color="#F4731F"/>
<stop offset="0.9034" stop-color="#F4721E"/>
<stop offset="0.9112" stop-color="#F4711E"/>
<stop offset="0.919" stop-color="#F4701D"/>
<stop offset="0.9267" stop-color="#F46F1C"/>
<stop offset="0.9345" stop-color="#F46E1C"/>
<stop offset="0.9422" stop-color="#F46D1B"/>
<stop offset="0.95" stop-color="#F36C1B"/>
<stop offset="0.9578" stop-color="#F36C1A"/>
<stop offset="0.9655" stop-color="#F36B19"/>
<stop offset="0.9733" stop-color="#F36A19"/>
<stop offset="0.981" stop-color="#F36918"/>
<stop offset="0.9888" stop-color="#F36818"/>
<stop offset="0.9965" stop-color="#F36717"/>
<stop offset="1" stop-color="#F36717"/>
</linearGradient>
<linearGradient id="paint2_linear_45_4270" x1="2.28623" y1="13.3268" x2="13.0149" y2="11.4351" gradientUnits="userSpaceOnUse">
<stop stop-color="#996F5B"/>
<stop offset="0.00346" stop-color="#996F5B"/>
<stop offset="0.0112" stop-color="#996F5B"/>
<stop offset="0.019" stop-color="#996E5A"/>
<stop offset="0.0267" stop-color="#996E5A"/>
<stop offset="0.0345" stop-color="#996D5A"/>
<stop offset="0.0422" stop-color="#996D5A"/>
<stop offset="0.05" stop-color="#996D59"/>
<stop offset="0.0578" stop-color="#996C59"/>
<stop offset="0.0655" stop-color="#996C59"/>
<stop offset="0.0733" stop-color="#996C59"/>
<stop offset="0.081" stop-color="#996B58"/>
<stop offset="0.0888" stop-color="#996B58"/>
<stop offset="0.0966" stop-color="#996A58"/>
<stop offset="0.1043" stop-color="#996A58"/>
<stop offset="0.1121" stop-color="#996A57"/>
<stop offset="0.1198" stop-color="#996957"/>
<stop offset="0.1276" stop-color="#996957"/>
<stop offset="0.1354" stop-color="#996956"/>
<stop offset="0.1431" stop-color="#996856"/>
<stop offset="0.1509" stop-color="#996856"/>
<stop offset="0.1586" stop-color="#996756"/>
<stop offset="0.1664" stop-color="#996755"/>
<stop offset="0.1741" stop-color="#9A6755"/>
<stop offset="0.1819" stop-color="#9A6655"/>
<stop offset="0.1897" stop-color="#9A6655"/>
<stop offset="0.1974" stop-color="#9A6654"/>
<stop offset="0.2052" stop-color="#9A6554"/>
<stop offset="0.2129" stop-color="#9A6554"/>
<stop offset="0.2207" stop-color="#9A6454"/>
<stop offset="0.2285" stop-color="#9A6453"/>
<stop offset="0.2362" stop-color="#9A6453"/>
<stop offset="0.244" stop-color="#9A6353"/>
<stop offset="0.2517" stop-color="#9A6352"/>
<stop offset="0.2595" stop-color="#9A6352"/>
<stop offset="0.2672" stop-color="#9A6252"/>
<stop offset="0.275" stop-color="#9A6252"/>
<stop offset="0.2828" stop-color="#9A6151"/>
<stop offset="0.2905" stop-color="#9A6151"/>
<stop offset="0.2983" stop-color="#9A6151"/>
<stop offset="0.306" stop-color="#9A6051"/>
<stop offset="0.3138" stop-color="#9A6050"/>
<stop offset="0.3216" stop-color="#9A6050"/>
<stop offset="0.3293" stop-color="#9A5F50"/>
<stop offset="0.3371" stop-color="#9A5F50"/>
<stop offset="0.3448" stop-color="#9A5E4F"/>
<stop offset="0.3526" stop-color="#9A5E4F"/>
<stop offset="0.3604" stop-color="#9A5E4F"/>
<stop offset="0.3681" stop-color="#9A5D4F"/>
<stop offset="0.3759" stop-color="#9A5D4E"/>
<stop offset="0.3836" stop-color="#9A5D4E"/>
<stop offset="0.3914" stop-color="#9A5C4E"/>
<stop offset="0.3991" stop-color="#9A5C4D"/>
<stop offset="0.4069" stop-color="#9A5B4D"/>
<stop offset="0.4147" stop-color="#9A5B4D"/>
<stop offset="0.4224" stop-color="#9A5B4D"/>
<stop offset="0.4302" stop-color="#9A5A4C"/>
<stop offset="0.4379" stop-color="#9A5A4C"/>
<stop offset="0.4457" stop-color="#9A5A4C"/>
<stop offset="0.4535" stop-color="#9A594C"/>
<stop offset="0.4612" stop-color="#9A594B"/>
<stop offset="0.469" stop-color="#9A584B"/>
<stop offset="0.4767" stop-color="#9A584B"/>
<stop offset="0.4845" stop-color="#9A584B"/>
<stop offset="0.4922" stop-color="#9A574A"/>
<stop offset="0.5" stop-color="#9A574A"/>
<stop offset="0.5078" stop-color="#9B574A"/>
<stop offset="0.5155" stop-color="#9B5649"/>
<stop offset="0.5233" stop-color="#9B5649"/>
<stop offset="0.531" stop-color="#9B5549"/>
<stop offset="0.5388" stop-color="#9B5549"/>
<stop offset="0.5465" stop-color="#9B5548"/>
<stop offset="0.5543" stop-color="#9B5448"/>
<stop offset="0.5621" stop-color="#9B5448"/>
<stop offset="0.5698" stop-color="#9B5448"/>
<stop offset="0.5776" stop-color="#9B5347"/>
<stop offset="0.5853" stop-color="#9B5347"/>
<stop offset="0.5931" stop-color="#9B5247"/>
<stop offset="0.6009" stop-color="#9B5247"/>
<stop offset="0.6086" stop-color="#9B5246"/>
<stop offset="0.6164" stop-color="#9B5146"/>
<stop offset="0.6241" stop-color="#9B5146"/>
<stop offset="0.6319" stop-color="#9B5145"/>
<stop offset="0.6396" stop-color="#9B5045"/>
<stop offset="0.6474" stop-color="#9B5045"/>
<stop offset="0.6552" stop-color="#9B4F45"/>
<stop offset="0.6629" stop-color="#9B4F44"/>
<stop offset="0.6707" stop-color="#9B4F44"/>
<stop offset="0.6784" stop-color="#9B4E44"/>
<stop offset="0.6862" stop-color="#9B4E44"/>
<stop offset="0.694" stop-color="#9B4E43"/>
<stop offset="0.7017" stop-color="#9B4D43"/>
<stop offset="0.7095" stop-color="#9B4D43"/>
<stop offset="0.7172" stop-color="#9B4C43"/>
<stop offset="0.725" stop-color="#9B4C42"/>
<stop offset="0.7328" stop-color="#9B4C42"/>
<stop offset="0.7405" stop-color="#9B4B42"/>
<stop offset="0.7483" stop-color="#9B4B41"/>
<stop offset="0.756" stop-color="#9B4B41"/>
<stop offset="0.7638" stop-color="#9B4A41"/>
<stop offset="0.7715" stop-color="#9B4A41"/>
<stop offset="0.7793" stop-color="#9B4A40"/>
<stop offset="0.7871" stop-color="#9B4940"/>
<stop offset="0.7948" stop-color="#9B4940"/>
<stop offset="0.8026" stop-color="#9B4840"/>
<stop offset="0.8103" stop-color="#9B483F"/>
<stop offset="0.8181" stop-color="#9B483F"/>
<stop offset="0.8259" stop-color="#9B473F"/>
<stop offset="0.8336" stop-color="#9C473F"/>
<stop offset="0.8414" stop-color="#9C473E"/>
<stop offset="0.8491" stop-color="#9C463E"/>
<stop offset="0.8569" stop-color="#9C463E"/>
<stop offset="0.8647" stop-color="#9C453E"/>
<stop offset="0.8724" stop-color="#9C453D"/>
<stop offset="0.8802" stop-color="#9C453D"/>
<stop offset="0.8879" stop-color="#9C443D"/>
<stop offset="0.8957" stop-color="#9C443C"/>
<stop offset="0.9034" stop-color="#9C443C"/>
<stop offset="0.9112" stop-color="#9C433C"/>
<stop offset="0.919" stop-color="#9C433C"/>
<stop offset="0.9267" stop-color="#9C423B"/>
<stop offset="0.9345" stop-color="#9C423B"/>
<stop offset="0.9422" stop-color="#9C423B"/>
<stop offset="0.95" stop-color="#9C413B"/>
<stop offset="0.9578" stop-color="#9C413A"/>
<stop offset="0.9655" stop-color="#9C413A"/>
<stop offset="0.9733" stop-color="#9C403A"/>
<stop offset="0.981" stop-color="#9C403A"/>
<stop offset="0.9888" stop-color="#9C3F39"/>
<stop offset="0.9965" stop-color="#9C3F39"/>
<stop offset="1" stop-color="#9C3F39"/>
</linearGradient>
<linearGradient id="paint3_linear_45_4270" x1="7.75216" y1="4.30992" x2="13.9624" y2="10.5202" gradientUnits="userSpaceOnUse">
<stop stop-color="#2C3696"/>
<stop offset="0.00428" stop-color="#2C3696"/>
<stop offset="0.012" stop-color="#2C3696"/>
<stop offset="0.0198" stop-color="#2C3696"/>
<stop offset="0.0275" stop-color="#2C3695"/>
<stop offset="0.0353" stop-color="#2C3695"/>
<stop offset="0.043" stop-color="#2C3695"/>
<stop offset="0.0507" stop-color="#2C3595"/>
<stop offset="0.0585" stop-color="#2C3594"/>
<stop offset="0.0662" stop-color="#2B3594"/>
<stop offset="0.074" stop-color="#2B3594"/>
<stop offset="0.0817" stop-color="#2B3594"/>
<stop offset="0.0895" stop-color="#2B3593"/>
<stop offset="0.0972" stop-color="#2B3593"/>
<stop offset="0.105" stop-color="#2B3593"/>
<stop offset="0.1127" stop-color="#2B3593"/>
<stop offset="0.1205" stop-color="#2B3592"/>
<stop offset="0.1282" stop-color="#2B3592"/>
<stop offset="0.1359" stop-color="#2B3592"/>
<stop offset="0.1437" stop-color="#2B3492"/>
<stop offset="0.1514" stop-color="#2B3492"/>
<stop offset="0.1592" stop-color="#2B3491"/>
<stop offset="0.1669" stop-color="#2B3491"/>
<stop offset="0.1747" stop-color="#2A3491"/>
<stop offset="0.1824" stop-color="#2A3491"/>
<stop offset="0.1902" stop-color="#2A3490"/>
<stop offset="0.1979" stop-color="#2A3490"/>
<stop offset="0.2057" stop-color="#2A3490"/>
<stop offset="0.2134" stop-color="#2A3490"/>
<stop offset="0.2212" stop-color="#2A348F"/>
<stop offset="0.2289" stop-color="#2A348F"/>
<stop offset="0.2367" stop-color="#2A338F"/>
<stop offset="0.2444" stop-color="#2A338F"/>
<stop offset="0.2521" stop-color="#2A338F"/>
<stop offset="0.2599" stop-color="#2A338E"/>
<stop offset="0.2676" stop-color="#2A338E"/>
<stop offset="0.2754" stop-color="#2A338E"/>
<stop offset="0.2831" stop-color="#29338E"/>
<stop offset="0.2909" stop-color="#29338D"/>
<stop offset="0.2986" stop-color="#29338D"/>
<stop offset="0.3064" stop-color="#29338D"/>
<stop offset="0.3141" stop-color="#29338D"/>
<stop offset="0.3219" stop-color="#29328C"/>
<stop offset="0.3296" stop-color="#29328C"/>
<stop offset="0.3373" stop-color="#29328C"/>
<stop offset="0.3451" stop-color="#29328C"/>
<stop offset="0.3528" stop-color="#29328B"/>
<stop offset="0.3606" stop-color="#29328B"/>
<stop offset="0.3683" stop-color="#29328B"/>
<stop offset="0.3761" stop-color="#29328B"/>
<stop offset="0.3838" stop-color="#29328B"/>
<stop offset="0.3916" stop-color="#28328A"/>
<stop offset="0.3993" stop-color="#28328A"/>
<stop offset="0.4071" stop-color="#28328A"/>
<stop offset="0.4148" stop-color="#28318A"/>
<stop offset="0.4225" stop-color="#283189"/>
<stop offset="0.4303" stop-color="#283189"/>
<stop offset="0.438" stop-color="#283189"/>
<stop offset="0.4458" stop-color="#283189"/>
<stop offset="0.4535" stop-color="#283188"/>
<stop offset="0.4613" stop-color="#283188"/>
<stop offset="0.469" stop-color="#283188"/>
<stop offset="0.4768" stop-color="#283188"/>
<stop offset="0.4845" stop-color="#283187"/>
<stop offset="0.4922" stop-color="#283187"/>
<stop offset="0.5" stop-color="#273087"/>
<stop offset="0.5077" stop-color="#273087"/>
<stop offset="0.5155" stop-color="#273087"/>
<stop offset="0.5232" stop-color="#273086"/>
<stop offset="0.531" stop-color="#273086"/>
<stop offset="0.5387" stop-color="#273086"/>
<stop offset="0.5465" stop-color="#273086"/>
<stop offset="0.5542" stop-color="#273085"/>
<stop offset="0.562" stop-color="#273085"/>
<stop offset="0.5697" stop-color="#273085"/>
<stop offset="0.5775" stop-color="#273085"/>
<stop offset="0.5852" stop-color="#273084"/>
<stop offset="0.5929" stop-color="#272F84"/>
<stop offset="0.6007" stop-color="#272F84"/>
<stop offset="0.6084" stop-color="#272F84"/>
<stop offset="0.6162" stop-color="#262F83"/>
<stop offset="0.6239" stop-color="#262F83"/>
<stop offset="0.6317" stop-color="#262F83"/>
<stop offset="0.6394" stop-color="#262F83"/>
<stop offset="0.6472" stop-color="#262F83"/>
<stop offset="0.6549" stop-color="#262F82"/>
<stop offset="0.6627" stop-color="#262F82"/>
<stop offset="0.6704" stop-color="#262F82"/>
<stop offset="0.6781" stop-color="#262F82"/>
<stop offset="0.6859" stop-color="#262E81"/>
<stop offset="0.6936" stop-color="#262E81"/>
<stop offset="0.7014" stop-color="#262E81"/>
<stop offset="0.7091" stop-color="#262E81"/>
<stop offset="0.7169" stop-color="#262E80"/>
<stop offset="0.7246" stop-color="#252E80"/>
<stop offset="0.7324" stop-color="#252E80"/>
<stop offset="0.7401" stop-color="#252E80"/>
<stop offset="0.7479" stop-color="#252E80"/>
<stop offset="0.7556" stop-color="#252E7F"/>
<stop offset="0.7634" stop-color="#252E7F"/>
<stop offset="0.7711" stop-color="#252D7F"/>
<stop offset="0.7788" stop-color="#252D7F"/>
<stop offset="0.7866" stop-color="#252D7E"/>
<stop offset="0.7943" stop-color="#252D7E"/>
<stop offset="0.8021" stop-color="#252D7E"/>
<stop offset="0.8098" stop-color="#252D7E"/>
<stop offset="0.8176" stop-color="#252D7D"/>
<stop offset="0.8253" stop-color="#252D7D"/>
<stop offset="0.8331" stop-color="#242D7D"/>
<stop offset="0.8408" stop-color="#242D7D"/>
<stop offset="0.8486" stop-color="#242D7C"/>
<stop offset="0.8563" stop-color="#242D7C"/>
<stop offset="0.864" stop-color="#242C7C"/>
<stop offset="0.8718" stop-color="#242C7C"/>
<stop offset="0.8795" stop-color="#242C7C"/>
<stop offset="0.8873" stop-color="#242C7B"/>
<stop offset="0.895" stop-color="#242C7B"/>
<stop offset="0.9028" stop-color="#242C7B"/>
<stop offset="0.9105" stop-color="#242C7B"/>
<stop offset="0.9183" stop-color="#242C7A"/>
<stop offset="0.926" stop-color="#242C7A"/>
<stop offset="0.9338" stop-color="#242C7A"/>
<stop offset="0.9415" stop-color="#232C7A"/>
<stop offset="0.9492" stop-color="#232C79"/>
<stop offset="0.957" stop-color="#232B79"/>
<stop offset="0.9647" stop-color="#232B79"/>
<stop offset="0.9725" stop-color="#232B79"/>
<stop offset="0.9802" stop-color="#232B78"/>
<stop offset="0.988" stop-color="#232B78"/>
<stop offset="0.9957" stop-color="#232B78"/>
<stop offset="1" stop-color="#232B78"/>
</linearGradient>
<clipPath id="clip0_45_4270">
<rect width="19.8701" height="24" fill="white"/>
</clipPath>
</defs>
</svg>
