<svg width="83" height="24" viewBox="0 0 83 24" fill="none" xmlns="http://www.w3.org/2000/svg">
<path d="M30.6905 22.81C30.6905 22.81 30.3468 22.9363 29.5326 22.9363C26.4785 22.9363 27.5059 19.7175 25.6575 19.7175H25.2289V22.862H22.8606V13.7267H26.2711C28.726 13.7267 29.9583 14.567 29.9583 16.7145C29.9583 18.0743 29.0452 18.7419 28.541 19.0215C29.267 19.8957 29.2133 20.9755 30.2864 20.9755H30.6905V22.81ZM26.0207 17.9425C26.9734 17.9425 27.6546 17.5502 27.6546 16.7972C27.6546 16.0337 27.0879 15.6177 26.1748 15.6177H25.2289V17.9425H26.0207Z" fill="#21317D"/>
<path d="M38.2823 18.5176C38.7262 18.8757 39.0889 19.4344 39.0889 20.2461C39.0889 22.1773 37.6653 22.8618 35.9812 22.8618H31.6555V13.7265H35.5166C37.3832 13.7265 38.4753 14.4161 38.4753 16.1991C38.4753 17.7549 37.4994 17.9872 37.0023 17.9872V18.0235C37.3148 18.0235 37.8351 18.1645 38.2823 18.5176ZM34.955 17.3524C35.7392 17.3524 36.042 17.0488 36.042 16.4677C36.042 15.9043 35.6311 15.6176 34.7835 15.6176H34.0369V17.3524H34.955ZM35.2354 20.975C36.0116 20.975 36.3613 20.7081 36.3613 19.9889C36.3613 19.2667 35.868 18.9791 35.1843 18.9791H34.0369V20.975H35.2354Z" fill="#21317D"/>
<path d="M40.2166 22.8618V13.7265H42.5946V20.9754H46.264V22.8618H40.2166Z" fill="#21317D"/>
<path d="M48.5405 22.8618V13.7265H51.8759C53.7484 13.7265 54.8354 14.4474 54.8354 16.1244C54.8354 17.7726 53.859 18.0518 53.4186 18.0518V18.0741C54.014 18.0741 55.4427 18.5792 55.4427 20.3238C55.4427 22.2258 53.93 22.8618 52.2399 22.8618H48.5405ZM51.7813 17.5724C52.8105 17.5724 53.1504 17.0678 53.1504 16.3098C53.1504 15.5302 52.6382 15.0593 51.5148 15.0593H50.1867V17.5724H51.7813ZM51.9321 21.5311C52.8751 21.5311 53.666 21.2309 53.666 20.1396C53.666 19.1257 52.9143 18.7418 51.9215 18.7418H50.1867V21.5311H51.9321Z" fill="#ED1C24"/>
<path d="M61.7955 20.5108H58.4597L57.6489 22.8618H55.9381L59.3009 13.7265H60.9631L64.32 22.8618H62.6143L61.7955 20.5108ZM58.8968 19.241H61.3698L60.1236 15.746L58.8968 19.241Z" fill="#ED1C24"/>
<path d="M70.7141 22.8618L67.1351 16.7143V22.8618H65.4855V13.7265H67.2085L70.8121 20.0611V13.7265H72.4396V22.8618H70.7141Z" fill="#ED1C24"/>
<path d="M81.9495 21.6224C80.7742 21.6224 80.7447 19.6489 79.7679 18.6675C79.6788 18.5792 79.2277 18.0391 78.4731 17.8326L81.9634 13.7265H79.8646L76.3679 17.7942V17.7726V13.7265H74.7226V18.3267V20.7077V22.8618H76.3679V20.7077V20.3031L77.3933 19.1046H77.49C79.4191 19.1046 78.7978 22.926 81.4529 22.926C81.99 22.926 82.3308 22.8433 82.3308 22.8433V21.6224H81.9495Z" fill="#ED1C24"/>
<path d="M4.56638 5.79992V-1.71661e-05H0V13.7173C0 10.3405 1.83872 7.37722 4.56638 5.79992Z" fill="#21317D"/>
<path d="M9.71177 4.59253V9.18003C11.9673 9.46086 13.7169 11.3828 13.7169 13.7118C13.7169 16.2443 11.6721 18.2904 9.1425 18.2904C6.62092 18.2904 4.57147 16.2443 4.57147 13.7118H4.56641V21.6342C5.91398 22.4108 7.47735 22.8652 9.1425 22.8652C14.1928 22.8652 18.2854 18.7718 18.2854 13.7173C18.2854 8.86161 14.4965 4.88434 9.71177 4.59253Z" fill="#21317D"/>
<path d="M4.56638 5.79993C1.83872 7.37724 0 10.3406 0 13.7173V22.168V24H4.56638V22.8023V21.6338V13.7118H4.57145C4.57145 11.3828 6.31599 9.46132 8.57236 9.18006V4.59256C7.11921 4.67914 5.7539 5.10946 4.56638 5.79993Z" fill="#ED1C24"/>
</svg>
