<svg width="212" height="61" viewBox="0 0 212 61" fill="none" xmlns="http://www.w3.org/2000/svg">
<g id="RBL" clip-path="url(#clip0_4_1232)">
<path id="Vector" fill-rule="evenodd" clip-rule="evenodd" d="M0 0H11.763V5.13493V9.21373V36.6728V37.6197V55.1003L0 49.2006V0Z" fill="#1E398D"/>
<path id="Vector_2" fill-rule="evenodd" clip-rule="evenodd" d="M24.9826 11.7994C30.5172 12.2334 35.7119 14.6408 39.6205 18.5833C43.5291 22.5257 45.8915 27.7408 46.2777 33.2789C46.6639 38.817 45.0481 44.3097 41.7246 48.7565C38.401 53.2033 33.5909 56.3085 28.1701 57.5065C22.7493 58.7044 17.0785 57.9156 12.1906 55.2835C7.30264 52.6514 3.52273 48.3511 1.53917 43.166C-0.444402 37.9809 -0.499626 32.2558 1.38357 27.0334C3.26677 21.811 6.9631 17.4386 11.7994 14.7128V32.2298C11.6107 33.1158 11.513 34.019 11.508 34.9249C11.5062 37.1683 12.1483 39.365 13.3575 41.2547C14.5668 43.1443 16.2927 44.6475 18.3305 45.5857C20.3684 46.524 22.6324 46.8579 24.8544 46.548C27.0763 46.2381 29.1627 45.2973 30.8661 43.8373C32.5695 42.3773 33.8182 40.4592 34.4643 38.3108C35.1104 36.1624 35.1267 33.8739 34.5112 31.7165C33.8957 29.5592 32.6741 27.6236 30.9917 26.1396C29.3092 24.6556 27.2364 23.6852 25.0191 23.3438V11.7994H24.9826Z" fill="#1E398D"/>
<path id="Vector_3" fill-rule="evenodd" clip-rule="evenodd" d="M0 34.9249C0.00804449 29.0077 2.27341 23.3164 6.3339 19.0123C10.3944 14.7081 15.9441 12.1153 21.8507 11.7629V23.2711C19.0394 23.6632 16.4701 25.074 14.6305 27.2359C12.791 29.3977 11.8094 32.1597 11.8723 34.9976V61H0V34.9249Z" fill="#ED1C24"/>
<path id="Vector_4" fill-rule="evenodd" clip-rule="evenodd" d="M104.92 34.3423H110.893V53.1339H120.143V57.8318H110.893H104.92V53.1339V34.3423Z" fill="#1E398D"/>
<path id="Vector_5" fill-rule="evenodd" clip-rule="evenodd" d="M60.745 34.8155H72.6173C79.646 35.1068 80.9207 45.231 75.4215 47.9623C76.0771 49.3462 76.9875 52.8787 79.0633 52.9515H80.5199V57.7952H76.1497C73.1635 57.7952 71.5612 54.8089 70.8329 51.8226C70.5779 50.6572 69.9588 49.7468 69.012 49.7468H66.6447V57.7223H60.6721V34.7064L60.745 34.8155ZM66.7176 39.2948H70.068C70.4554 39.2996 70.838 39.3807 71.1941 39.5333C71.5501 39.686 71.8729 39.9073 72.1434 40.1846C72.4139 40.4619 72.6271 40.7898 72.7709 41.1495C72.9147 41.5092 72.9862 41.8937 72.9814 42.2811C72.9912 43.067 72.691 43.8251 72.1456 44.391C71.6002 44.9568 70.8537 45.2848 70.068 45.3039H66.7176V39.2948Z" fill="#1E398D"/>
<path id="Vector_6" fill-rule="evenodd" clip-rule="evenodd" d="M95.852 45.5953C103.864 45.5953 103.828 57.6496 96.3619 57.6496H83.3971V45.5953V34.6699H95.415C101.934 34.6699 102.334 45.3404 95.852 45.5953ZM89.1874 47.7074H92.3922C92.7509 47.7026 93.107 47.7686 93.4402 47.9014C93.7735 48.0343 94.0772 48.2313 94.3342 48.4816C94.5913 48.7318 94.7965 49.0302 94.9382 49.3598C95.0798 49.6893 95.1553 50.0438 95.16 50.4025C95.1409 51.1205 94.8398 51.802 94.3218 52.2996C93.8038 52.7972 93.1104 53.0708 92.3922 53.0609H89.1874V47.7074ZM89.1874 39.2222H92.0646C92.6842 39.2016 93.2877 39.4212 93.7492 39.8352C94.2107 40.2492 94.4943 40.8254 94.541 41.4436C94.5269 41.7546 94.4517 42.0597 94.3196 42.3416C94.1875 42.6235 94.001 42.8765 93.771 43.0862C93.541 43.296 93.2719 43.4583 92.979 43.5639C92.6862 43.6695 92.3755 43.7162 92.0646 43.7015H89.1874V39.2222Z" fill="#1E398D"/>
<path id="Vector_7" fill-rule="evenodd" clip-rule="evenodd" d="M169.161 57.8314L173.422 57.7586V42.3174L182.417 57.9043H186.824V34.3783H182.454V50.2201L173.349 34.3783H169.343L169.161 57.8314Z" fill="#ED1C24"/>
<path id="Vector_8" fill-rule="evenodd" clip-rule="evenodd" d="M144.761 57.9408H149.313L151.353 51.7862H159.51L161.623 57.8317H166.175L157.398 34.4877H153.137L144.652 57.9408H144.761ZM152.591 48.4358L155.395 39.9141L158.418 48.4358H152.591Z" fill="#ED1C24"/>
<path id="Vector_9" fill-rule="evenodd" clip-rule="evenodd" d="M126.188 34.4877V57.7224H136.167C144.251 57.9409 146.618 47.8896 139.226 45.7774C140.167 45.2269 140.942 44.4318 141.469 43.4766C141.995 42.5214 142.253 41.4416 142.216 40.3516C142.179 39.2616 141.847 38.202 141.257 37.2851C140.666 36.3681 139.839 35.6282 138.862 35.1434C137.846 34.6793 136.737 34.4548 135.62 34.4877H126.188ZM130.376 38.1295H134.491C135.339 38.1195 136.156 38.4419 136.769 39.0273C137.381 39.6127 137.741 40.4147 137.769 41.2616C137.731 42.1021 137.368 42.8949 136.757 43.4726C136.145 44.0503 135.333 44.3673 134.491 44.357H130.376V38.1295ZM130.376 47.4527H135.074C136.04 47.4527 136.966 47.8362 137.649 48.5192C138.332 49.2022 138.716 50.1286 138.716 51.0945C138.716 52.0604 138.332 52.9866 137.649 53.6696C136.966 54.3525 136.04 54.7363 135.074 54.7363H130.376V47.3433V47.4527Z" fill="#ED1C24"/>
<path id="Vector_10" fill-rule="evenodd" clip-rule="evenodd" d="M192.505 34.1965H196.657V44.8669L205.543 34.3056H210.896L202.301 44.8669C207.509 47.3433 206.344 54.6269 211.661 54.6269V57.9408C204.377 58.2321 204.96 54.299 202.483 50.0017C202.168 49.3506 201.611 48.8489 200.93 48.6038C200.249 48.3588 199.5 48.39 198.842 48.6907C198.194 49.483 197.488 50.2255 196.73 50.9122V57.8317H192.469V34.1965H192.505Z" fill="#ED1C24"/>
</g>
<defs>
<clipPath id="clip0_4_1232">
<rect width="211.77" height="61" fill="white"/>
</clipPath>
</defs>
</svg>
