<svg width="240" height="82" viewBox="0 0 240 82" fill="none" xmlns="http://www.w3.org/2000/svg">
<g id="Saraswat Bank" clip-path="url(#clip0_4_1077)">
<path id="Vector" fill-rule="evenodd" clip-rule="evenodd" d="M35.6207 0L71.2367 20.3533L48.8025 33.1775L35.6207 25.6437L0 45.997V20.3533L35.6207 0Z" fill="url(#paint0_radial_4_1077)"/>
<path id="Vector_2" fill-rule="evenodd" clip-rule="evenodd" d="M35.6207 81.4179L71.2413 61.0646V35.4209L35.6207 55.7742L22.4388 48.2404L0 61.0646L35.6207 81.4179Z" fill="url(#paint1_radial_4_1077)"/>
<path id="Vector_3" d="M109.175 17.8033C109.133 17.0597 108.93 16.3341 108.581 15.676C108.233 15.0178 107.746 14.4427 107.155 13.99C105.966 13.092 104.368 12.6445 102.361 12.6476C100.296 12.6476 98.7259 13.0316 97.6514 13.7995C97.1201 14.1841 96.6944 14.6964 96.4135 15.289C96.1326 15.8816 96.0056 16.5355 96.0443 17.1902C96.0152 17.6262 96.0985 18.0623 96.2864 18.4568C96.4743 18.8512 96.7604 19.1908 97.1172 19.4429C97.8325 19.9384 99.2678 20.4292 101.423 20.9153L106.156 22.0022C108.692 22.5781 110.503 23.4343 111.59 24.5707C112.677 25.7072 113.221 27.2988 113.221 29.3456C113.256 30.4396 113.02 31.5255 112.534 32.5062C112.048 33.4869 111.326 34.3319 110.434 34.9657C108.576 36.3498 106.043 37.0419 102.835 37.0419C99.2833 37.0419 96.5072 36.2446 94.5069 34.6499C92.5561 33.0768 91.5807 30.9232 91.5807 28.189V27.9939H94.976C94.9629 28.8422 95.1505 29.6815 95.5234 30.4435C95.8963 31.2054 96.444 31.8685 97.1219 32.3786C98.4782 33.4004 100.378 33.9113 102.821 33.9113C105.075 33.9113 106.789 33.5382 107.963 32.792C108.523 32.4529 108.982 31.9689 109.291 31.3911C109.6 30.8132 109.748 30.1627 109.718 29.5081C109.718 28.2695 109.333 27.3406 108.562 26.7213C107.791 26.102 106.243 25.5415 103.917 25.0399L99.1795 23.953C96.789 23.408 95.0859 22.6524 94.0703 21.6863C93.0546 20.7202 92.5468 19.3763 92.5468 17.6547C92.5468 15.1558 93.4309 13.1771 95.199 11.7187C96.9671 10.2602 99.3545 9.53101 102.361 9.53101C105.417 9.53101 107.851 10.2633 109.663 11.728C111.474 13.1926 112.442 15.2177 112.566 17.8033H109.175Z" fill="#CE1432"/>
<path id="Vector_4" d="M122.487 36.8236C120.545 36.8236 119.008 36.3282 117.875 35.3373C117.308 34.8357 116.861 34.2137 116.566 33.5169C116.271 32.8201 116.136 32.0661 116.17 31.3103C116.134 30.5587 116.259 29.8081 116.535 29.1082C116.811 28.4084 117.233 27.7752 117.772 27.2508C118.841 26.2475 120.4 25.6282 122.45 25.3929L126.988 24.8401C127.343 24.8089 127.696 24.7499 128.042 24.6636C128.44 24.578 128.795 24.3522 129.041 24.0273C129.284 23.6729 129.408 23.2496 129.394 22.8197V22.6571C129.408 22.1906 129.305 21.7279 129.094 21.3116C128.883 20.8953 128.571 20.5386 128.186 20.2743C127.183 19.6453 126.009 19.3449 124.828 19.415C123.686 19.3517 122.558 19.6794 121.628 20.344C121.227 20.682 120.897 21.0963 120.658 21.5628C120.419 22.0292 120.275 22.5386 120.234 23.0612H117.169C117.327 20.9803 118.09 19.4166 119.459 18.37C120.827 17.3234 122.786 16.8 125.334 16.8C127.74 16.8 129.573 17.3001 130.834 18.3003C132.094 19.3005 132.722 20.7589 132.719 22.6757V33.1078C132.713 33.2513 132.737 33.3946 132.79 33.5282C132.843 33.6618 132.923 33.7828 133.026 33.8835C133.252 34.0862 133.549 34.1914 133.853 34.1761C134 34.1716 134.148 34.1591 134.294 34.1389C134.484 34.1157 134.693 34.0786 134.916 34.0321V36.3545C134.583 36.4751 134.242 36.5699 133.894 36.6378C133.596 36.7015 133.293 36.7372 132.989 36.7446C131.732 36.7446 130.818 36.4118 130.248 35.746C129.83 35.204 129.557 34.5647 129.454 33.8881C129.197 34.1964 128.912 34.4809 128.604 34.7381C126.89 36.1611 124.713 36.9034 122.487 36.8236ZM129.394 28.8021V26.7445C128.74 27.0386 128.047 27.2357 127.336 27.3297L124.284 27.7524C122.677 27.966 121.505 28.3252 120.768 28.83C120.42 29.0449 120.134 29.3469 119.939 29.7061C119.743 30.0654 119.645 30.4694 119.654 30.8783C119.626 31.3302 119.695 31.7828 119.855 32.2062C120.015 32.6297 120.263 33.0145 120.583 33.3354C121.293 33.9503 122.218 34.2607 123.156 34.1993C124.746 34.2498 126.309 33.7693 127.596 32.8337C128.349 32.2902 128.923 31.5352 129.245 30.6647C129.308 30.4262 129.345 30.1818 129.356 29.9354C129.389 29.5586 129.402 29.1803 129.394 28.8021Z" fill="#CE1432"/>
<path id="Vector_5" d="M137.861 17.3388H141.02V20.5902C141.292 20.102 141.603 19.6361 141.948 19.1967C143.209 17.5711 144.757 16.7598 146.593 16.7629C146.909 16.7658 147.223 16.8191 147.522 16.9208V20.1721H146.835C145.026 20.1721 143.633 20.6908 142.654 21.7281C141.676 22.7655 141.185 24.2409 141.182 26.1546V36.322H137.856L137.861 17.3388Z" fill="#CE1432"/>
<path id="Vector_6" d="M154.276 36.8236C152.337 36.8236 150.8 36.3282 149.663 35.3373C149.097 34.8357 148.65 34.2137 148.355 33.5169C148.06 32.8201 147.925 32.0662 147.959 31.3103C147.923 30.5587 148.047 29.8081 148.324 29.1083C148.6 28.4084 149.022 27.7752 149.561 27.2508C150.63 26.2475 152.189 25.6282 154.238 25.3929L158.776 24.8402C159.132 24.8093 159.485 24.7503 159.831 24.6636C160.229 24.5781 160.584 24.3523 160.829 24.0273C161.075 23.6739 161.199 23.2499 161.182 22.8197V22.6571C161.206 22.1896 161.109 21.724 160.903 21.3039C160.697 20.8838 160.387 20.5231 160.003 20.2558C158.998 19.6267 157.823 19.3263 156.64 19.3965C155.499 19.3339 154.37 19.6615 153.44 20.3254C153.038 20.6626 152.708 21.0767 152.468 21.5433C152.229 22.0099 152.086 22.5197 152.046 23.0426H148.976C149.134 20.9618 149.897 19.398 151.266 18.3514C152.635 17.3048 154.593 16.7815 157.141 16.7815C159.547 16.7815 161.381 17.2816 162.641 18.2818C163.901 19.2819 164.531 20.7404 164.531 22.6571V33.0892C164.525 33.2328 164.549 33.376 164.602 33.5096C164.655 33.6432 164.735 33.7643 164.838 33.8649C165.062 34.0674 165.358 34.1726 165.66 34.1575C165.815 34.1539 165.97 34.1415 166.124 34.1204C166.315 34.0972 166.524 34.06 166.742 34.0135V36.3359C166.412 36.456 166.074 36.5507 165.73 36.6193C165.424 36.6841 165.113 36.7199 164.801 36.7261C163.54 36.7261 162.628 36.3932 162.065 35.7275C161.647 35.1848 161.373 34.546 161.266 33.8696C161.009 34.1779 160.724 34.4624 160.416 34.7195C158.699 36.1554 156.512 36.9049 154.276 36.8236ZM161.182 28.8021V26.7445C160.53 27.038 159.838 27.2351 159.129 27.3297L156.073 27.7524C154.469 27.9661 153.296 28.3253 152.552 28.83C152.206 29.0461 151.922 29.3485 151.728 29.7077C151.535 30.0669 151.438 30.4703 151.447 30.8783C151.417 31.3285 151.482 31.7801 151.638 32.2035C151.794 32.6268 152.038 33.0125 152.353 33.3354C153.064 33.9495 153.988 34.2597 154.926 34.1993C156.517 34.2498 158.079 33.7694 159.366 32.8338C160.12 32.2918 160.695 31.5363 161.015 30.6647C161.08 30.4267 161.118 30.182 161.127 29.9355C161.166 29.559 161.184 29.1806 161.182 28.8021Z" fill="#CE1432"/>
<path id="Vector_7" d="M180.519 22.8243C180.491 22.3422 180.356 21.8724 180.123 21.449C179.891 21.0256 179.568 20.6592 179.176 20.3765C178.229 19.7507 177.105 19.4447 175.971 19.5033C174.878 19.4371 173.787 19.6767 172.822 20.1954C172.478 20.4058 172.197 20.7047 172.007 21.0609C171.817 21.417 171.727 21.8174 171.745 22.2205C171.727 22.519 171.788 22.8169 171.921 23.0848C172.054 23.3527 172.254 23.5815 172.502 23.7486C173.445 24.2509 174.463 24.599 175.516 24.7798L178.953 25.5601C180.881 26.0245 182.251 26.633 183.078 27.418C183.5 27.8494 183.827 28.3645 184.039 28.9301C184.25 29.4957 184.34 30.0992 184.304 30.7018C184.335 31.5619 184.159 32.4169 183.791 33.1945C183.422 33.9722 182.872 34.6498 182.186 35.1701C180.793 36.2709 178.86 36.819 176.459 36.819C173.672 36.819 171.593 36.291 170.221 35.2351C168.849 34.1792 168.091 32.5179 167.945 30.2513H171.15C171.313 31.5983 171.805 32.5737 172.641 33.1728C173.477 33.772 174.745 34.0786 176.459 34.0786C177.952 34.0786 179.083 33.8061 179.854 33.2611C180.232 32.9942 180.535 32.6362 180.736 32.2203C180.938 31.8045 181.031 31.3444 181.006 30.883C181.022 30.5873 180.961 30.2926 180.828 30.0279C180.695 29.7632 180.496 29.5376 180.249 29.3734C179.757 29.0328 178.737 28.6875 177.188 28.3376L173.747 27.5573C171.889 27.13 170.562 26.5324 169.766 25.7644C169.357 25.3442 169.041 24.8434 168.837 24.2939C168.633 23.7445 168.546 23.1585 168.582 22.5735C168.549 21.7578 168.713 20.9463 169.059 20.2068C169.405 19.4674 169.923 18.8216 170.569 18.3235C171.898 17.28 173.697 16.7567 175.967 16.7536C178.236 16.7505 180.071 17.2878 181.471 18.3653C182.145 18.8953 182.691 19.5708 183.067 20.3413C183.444 21.1118 183.641 21.9575 183.644 22.815H180.509L180.519 22.8243Z" fill="#CE1432"/>
<path id="Vector_8" d="M190.872 36.3173L185.247 17.3389H188.898L192.706 32.4483L196.571 17.3389H200.287L204.267 32.5551L208.28 17.3389H211.559L205.986 36.3173H202.414L198.322 21.4866L194.453 36.3173H190.886H190.872Z" fill="#CE1432"/>
<path id="Vector_9" d="M217.714 36.8236C215.772 36.8236 214.233 36.3282 213.097 35.3373C212.533 34.8336 212.088 34.2111 211.794 33.5148C211.5 32.8184 211.365 32.0655 211.397 31.3103C211.361 30.5587 211.485 29.8081 211.762 29.1082C212.038 28.4084 212.46 27.7752 212.999 27.2508C214.068 26.2475 215.625 25.6282 217.672 25.3929L222.21 24.8401C222.567 24.8093 222.921 24.7502 223.269 24.6636C223.667 24.5769 224.021 24.3513 224.267 24.0273C224.511 23.6729 224.635 23.2496 224.621 22.8197V22.6571C224.635 22.1906 224.532 21.7279 224.321 21.3116C224.11 20.8953 223.798 20.5386 223.413 20.2743C222.41 19.6453 221.236 19.3449 220.055 19.415C218.912 19.3525 217.782 19.6801 216.85 20.344C216.45 20.6826 216.121 21.097 215.882 21.5633C215.642 22.0297 215.498 22.5387 215.456 23.0612H212.391C212.549 20.9803 213.312 19.4166 214.681 18.37C216.049 17.3234 218.008 16.8 220.556 16.8C222.962 16.8 224.795 17.3001 226.056 18.3003C227.316 19.3005 227.945 20.7589 227.942 22.6757V33.1078C227.935 33.2513 227.96 33.3946 228.012 33.5282C228.065 33.6618 228.146 33.7828 228.248 33.8835C228.474 34.0867 228.771 34.1919 229.075 34.1761C229.221 34.1715 229.367 34.1591 229.511 34.1389C229.702 34.1157 229.911 34.0786 230.134 34.0321V36.3545C229.803 36.4752 229.463 36.5699 229.117 36.6378C228.819 36.7015 228.515 36.7372 228.211 36.7446C226.948 36.7446 226.037 36.4102 225.471 35.746C225.053 35.204 224.779 34.5647 224.676 33.8881C224.417 34.1965 224.131 34.4809 223.822 34.7381C222.111 36.1597 219.937 36.902 217.714 36.8236ZM224.621 28.8021V26.7445C223.966 27.0378 223.273 27.2349 222.563 27.3297L219.511 27.7524C217.904 27.966 216.724 28.3237 215.991 28.83C215.644 29.0458 215.359 29.3481 215.164 29.7072C214.97 30.0664 214.872 30.4699 214.88 30.8783C214.854 31.3301 214.923 31.7824 215.083 32.2058C215.243 32.6291 215.491 33.014 215.809 33.3354C216.521 33.9494 217.445 34.2596 218.383 34.1993C219.975 34.2505 221.539 33.77 222.828 32.8337C223.58 32.2902 224.154 31.5352 224.477 30.6647C224.537 30.4257 224.574 30.1815 224.588 29.9354C224.619 29.5585 224.63 29.1802 224.621 28.8021Z" fill="#CE1432"/>
<path id="Vector_10" d="M239.135 36.2941C238.315 36.4274 237.486 36.5081 236.655 36.5356C235.201 36.5356 234.17 36.2337 233.576 35.6067C232.981 34.9796 232.675 33.9346 232.675 32.4343V19.9399H229.929V17.3295H232.675V12.0067H236V17.3388H239.135V19.9492H236V32.4343C235.994 32.6336 236.04 32.8311 236.133 33.0076C236.226 33.1841 236.362 33.3338 236.53 33.4422C236.944 33.7081 237.431 33.8395 237.923 33.8184H239.112L239.135 36.2941Z" fill="#CE1432"/>
<path id="Vector_11" d="M92.5468 43.9998H104.623C106.964 43.9998 108.848 44.5711 110.276 45.7137C110.966 46.2419 111.522 46.9267 111.896 47.7117C112.269 48.4967 112.451 49.3593 112.426 50.2284C112.463 51.2191 112.249 52.2031 111.805 53.0896C111.361 53.976 110.701 54.7364 109.886 55.3004C109.495 55.5855 109.077 55.8298 108.636 56.0297C109.475 56.304 110.272 56.6916 111.005 57.1816C111.861 57.7378 112.559 58.5054 113.032 59.4101C113.505 60.3149 113.736 61.3263 113.704 62.3465C113.704 64.7711 112.829 66.6662 111.079 68.0317C109.33 69.3973 106.901 70.0801 103.792 70.0801H92.5468V43.9998ZM96.2626 55.1054H102.872C104.885 55.1054 106.357 54.7586 107.289 54.065C108.218 53.3729 108.683 52.286 108.683 50.7904C108.683 49.4899 108.251 48.533 107.396 47.9246C106.541 47.3161 105.19 46.9956 103.351 46.9956H96.2719L96.2626 55.1054ZM96.2626 67.0749H103.815C105.942 67.0749 107.5 66.6832 108.488 65.8998C109.475 65.1164 109.969 63.8855 109.969 62.2072C109.969 60.7395 109.454 59.6634 108.423 58.9791C107.391 58.2948 105.769 57.9557 103.555 57.9619H96.2626V67.0749Z" fill="#CE1432"/>
<path id="Vector_12" d="M121.981 70.6049C120.027 70.6049 118.478 70.108 117.336 69.114C116.766 68.6151 116.316 67.9946 116.019 67.2984C115.721 66.6022 115.584 65.848 115.617 65.0916C115.582 64.3385 115.709 63.5866 115.989 62.8864C116.268 62.1863 116.694 61.554 117.238 61.0321C118.31 60.0288 119.881 59.4018 121.953 59.151L126.528 58.6029C126.888 58.5697 127.245 58.5108 127.596 58.4264C127.998 58.3401 128.356 58.1127 128.604 57.7854C128.851 57.434 128.975 57.0113 128.957 56.5824V56.4198C128.971 55.9517 128.867 55.4876 128.654 55.0703C128.442 54.653 128.127 54.2961 127.74 54.0325C126.726 53.4058 125.544 53.1058 124.354 53.1732C123.196 53.1048 122.05 53.4324 121.103 54.1021C120.701 54.4393 120.371 54.8534 120.132 55.32C119.892 55.7866 119.749 56.2964 119.709 56.8193H116.611C116.775 54.7385 117.55 53.1747 118.934 52.1281C120.318 51.0815 122.293 50.5582 124.86 50.5582C127.285 50.5582 129.132 51.0583 130.402 52.0584C131.674 53.0617 132.311 54.5155 132.311 56.4338V66.8706C132.304 67.0134 132.328 67.156 132.381 67.2889C132.434 67.4218 132.514 67.542 132.617 67.6416C132.847 67.8449 133.147 67.95 133.453 67.9342C133.601 67.9316 133.748 67.9207 133.894 67.9017C134.085 67.8738 134.299 67.8413 134.521 67.7949V70.1173C134.188 70.2394 133.844 70.3342 133.495 70.4006C133.19 70.4673 132.878 70.5031 132.566 70.5074C131.298 70.5074 130.374 70.1776 129.802 69.5134C129.385 68.9702 129.109 68.3318 128.999 67.6555C128.737 67.9628 128.45 68.2472 128.14 68.5055C126.412 69.9336 124.221 70.6804 121.981 70.6049ZM128.948 62.5742V60.5165C128.289 60.81 127.591 61.0071 126.876 61.1018L123.797 61.5291C122.176 61.7427 121.01 62.1004 120.248 62.602C119.898 62.8169 119.611 63.1193 119.414 63.4793C119.216 63.8394 119.117 64.2446 119.124 64.655C119.097 65.1069 119.166 65.5592 119.327 65.9826C119.487 66.406 119.734 66.7909 120.053 67.1121C120.774 67.725 121.705 68.0332 122.649 67.9714C124.253 68.0223 125.829 67.5423 127.132 66.6058C127.89 66.0671 128.469 65.3131 128.794 64.4414C128.859 64.2033 128.897 63.9586 128.906 63.7121C128.941 63.3292 128.955 62.9447 128.948 62.5602V62.5742Z" fill="#CE1432"/>
<path id="Vector_13" d="M137.025 51.0969H140.207V53.8838L140.954 52.9548C141.633 52.1743 142.475 51.5522 143.42 51.1325C144.366 50.7127 145.392 50.5056 146.426 50.5256C148.632 50.5256 150.328 51.0969 151.535 52.2303C152.743 53.3636 153.328 54.9799 153.328 57.0747V70.0801H149.975V58.1477C149.975 56.4802 149.636 55.2726 148.957 54.534C148.279 53.7955 147.178 53.424 145.655 53.424C144.921 53.395 144.19 53.5383 143.522 53.8424C142.853 54.1465 142.265 54.6029 141.804 55.175C140.857 56.3424 140.383 57.9201 140.383 59.908V70.0801H137.034L137.025 51.0969Z" fill="#CE1432"/>
<path id="Vector_14" d="M157.392 43.9998H160.741V59.0441L169.181 51.0969H173.472L165.878 58.1338L173.974 70.0754H169.603L163.393 60.4329L160.755 62.8807V70.0754H157.406L157.392 43.9998Z" fill="#CE1432"/>
</g>
<defs>
<radialGradient id="paint0_radial_4_1077" cx="0" cy="0" r="1" gradientUnits="userSpaceOnUse" gradientTransform="translate(35.5749 23.0008) scale(30.0612 29.7636)">
<stop offset="0.01" stop-color="#FDB913"/>
<stop offset="0.29" stop-color="#FDB913"/>
<stop offset="0.98" stop-color="#F47920"/>
</radialGradient>
<radialGradient id="paint1_radial_4_1077" cx="0" cy="0" r="1" gradientUnits="userSpaceOnUse" gradientTransform="translate(35.5749 58.4217) scale(30.0612 29.7636)">
<stop offset="0.01" stop-color="#ED1A3B"/>
<stop offset="0.16" stop-color="#ED1B31"/>
<stop offset="0.31" stop-color="#ED1C24"/>
<stop offset="0.45" stop-color="#E51A24"/>
<stop offset="0.68" stop-color="#CF1424"/>
<stop offset="0.95" stop-color="#AB0B25"/>
<stop offset="0.98" stop-color="#A70A25"/>
</radialGradient>
<clipPath id="clip0_4_1077">
<rect width="239.14" height="81.418" fill="white"/>
</clipPath>
</defs>
</svg>
