<svg width="154" height="24" viewBox="0 0 154 24" fill="none" xmlns="http://www.w3.org/2000/svg">
<g clip-path="url(#clip0_45_4305)">
<path d="M21.5739 5.01782C22.1364 5.75484 22.6126 6.55554 22.9928 7.40386L12.2067 15.4619L7.69885 12.5981V9.15286L12.2067 12.0167L21.5739 5.01782Z" fill="#21A038"/>
<path d="M3.09826 12.3551C3.09826 12.2005 3.10198 12.0469 3.10942 11.8942L0.377549 11.7585C0.368251 11.9564 0.362674 12.1562 0.362674 12.3579C0.361512 13.9334 0.667287 15.4935 1.26247 16.9489C1.85764 18.4043 2.7305 19.7263 3.83098 20.8391L5.76876 18.8761C4.92166 18.0211 4.24964 17.0048 3.79135 15.8857C3.33305 14.7666 3.09751 13.5667 3.09826 12.3551Z" fill="url(#paint0_linear_45_4305)"/>
<path d="M12.2042 3.12673C12.3567 3.12673 12.5082 3.13239 12.6588 3.13992L12.7955 0.370345C12.5997 0.360921 12.4025 0.35621 12.2042 0.35621C10.6489 0.354288 9.10859 0.663731 7.67167 1.26677C6.23475 1.86981 4.92952 2.75457 3.83093 3.87025L5.76872 5.83411C6.61244 4.97533 7.61535 4.29402 8.71978 3.8294C9.82421 3.36477 11.0083 3.12596 12.2042 3.12673Z" fill="url(#paint1_linear_45_4305)"/>
<path d="M12.2042 21.5834C12.0517 21.5834 11.9002 21.5834 11.7486 21.5711L11.6119 24.3397C11.8084 24.3498 12.0059 24.3549 12.2042 24.3549C13.7589 24.3565 15.2984 24.0468 16.7346 23.4436C18.1707 22.8404 19.4751 21.9555 20.5728 20.8399L18.6388 18.877C17.7949 19.7353 16.7921 20.4162 15.6879 20.8807C14.5837 21.3451 13.3998 21.584 12.2042 21.5834Z" fill="url(#paint2_linear_45_4305)"/>
<path d="M17.3371 4.73694L19.6393 3.01715C17.535 1.29025 14.9083 0.350187 12.2006 0.354999V3.12646C14.0341 3.12416 15.8251 3.68572 17.3371 4.73694Z" fill="url(#paint3_linear_45_4305)"/>
<path d="M24.0449 12.355C24.0464 11.6341 23.9841 10.9143 23.8589 10.2046L21.3102 12.1081C21.3102 12.1902 21.3102 12.2721 21.3102 12.355C21.3109 13.6444 21.0442 14.9196 20.5275 16.0979C20.0107 17.2761 19.2554 18.3312 18.3105 19.1946L20.1489 21.2537C21.3772 20.1299 22.3588 18.7569 23.03 17.224C23.7012 15.691 24.0469 14.0322 24.0449 12.355Z" fill="#21A038"/>
<path d="M12.2042 21.5835C10.9318 21.5839 9.67352 21.3136 8.51076 20.7899C7.34806 20.2662 6.30681 19.5008 5.45447 18.5435L3.42371 20.4055C4.5325 21.6506 5.88714 22.6456 7.39978 23.326C8.91241 24.0063 10.5492 24.3569 12.2042 24.3549V21.5835Z" fill="url(#paint4_linear_45_4305)"/>
<path d="M6.09793 5.51534L4.26057 3.4563C3.03185 4.57994 2.0499 5.95277 1.37839 7.48576C0.706893 9.01874 0.36084 10.6777 0.362678 12.3549H3.09827C3.0977 11.0656 3.36444 9.79042 3.88118 8.61218C4.39793 7.43397 5.15315 6.37889 6.09793 5.51534Z" fill="url(#paint5_linear_45_4305)"/>
<path d="M68.696 7.2176L72.084 4.71655H60.7449V19.7457H72.084V17.2446H63.9804V13.3949H70.8932V10.8939H63.9804V7.2176H68.696Z" fill="#21A038"/>
<path d="M53.1152 10.5714H49.1785V7.21665H55.4614L58.8474 4.70801H45.9449V19.7371H52.6988C56.4854 19.7371 58.6585 18.0175 58.6585 15.0186C58.6585 12.1496 56.6902 10.5714 53.1152 10.5714ZM52.5532 17.2353H49.1785V13.0709H52.5532C54.6012 13.0709 55.5615 13.7688 55.5615 15.1531C55.5615 16.5374 54.5397 17.2353 52.5532 17.2353Z" fill="#21A038"/>
<path d="M80.4191 4.71436H74.2469V19.7434H77.482V15.4859H80.4191C84.3571 15.4859 86.7932 13.4097 86.7932 10.0921C86.7932 6.77467 84.3571 4.71436 80.4191 4.71436ZM80.3509 12.983H77.482V7.21731H80.3509C82.4222 7.21731 83.5654 8.24177 83.5654 10.1013C83.5654 11.9608 82.4222 12.983 80.3509 12.983Z" fill="#21A038"/>
<path d="M41.0901 16.1965C40.2544 16.65 39.3181 16.8848 38.3678 16.8792C35.5235 16.8792 33.4602 14.8446 33.4602 12.0429C33.4602 9.24122 35.5235 7.20221 38.3678 7.20221C39.3935 7.18476 40.3979 7.4964 41.2343 8.09166L43.4973 6.42174L43.3443 6.31279C42.0242 5.14986 40.2604 4.53394 38.2414 4.53394C36.0515 4.53394 34.0659 5.27215 32.6481 6.61519C31.9313 7.3067 31.3644 8.13884 30.9826 9.05969C30.6009 9.98054 30.4126 10.9703 30.4295 11.9673C30.4143 12.9744 30.6018 13.9743 30.9807 14.9073C31.3596 15.8402 31.9222 16.687 32.6349 17.3973C34.0592 18.7937 36.0404 19.563 38.2147 19.563C40.4866 19.563 42.4724 18.7692 43.8169 17.3239L41.7912 15.8119L41.0901 16.1965Z" fill="#21A038"/>
<path d="M99.6212 10.5714H95.6861V7.21665H104.143V4.70801H92.4503V19.7371H99.1956C102.982 19.7371 105.155 18.0175 105.155 15.0186C105.164 12.1496 103.196 10.5714 99.6212 10.5714ZM99.0591 17.2353H95.6861V13.0709H99.0591C101.107 13.0709 102.067 13.7688 102.067 15.1531C102.067 16.5374 101.054 17.2353 99.0591 17.2353Z" fill="#21A038"/>
<path d="M141.936 19.7156H138.656V4.68652H141.936V10.9988H143.721L148.542 4.68652H152.259L146.541 11.836L153.181 19.7156H148.829L143.949 13.8048H141.936V19.7156Z" fill="#21A038"/>
<path d="M117.071 16.8594H110.133L108.957 19.7778H105.466L111.974 4.74878H115.463L121.865 19.7778H118.247L117.071 16.8594ZM115.984 14.1362L113.622 8.29924L111.247 14.1362H115.984Z" fill="#21A038"/>
<path d="M126.281 4.74878V11.0247H133.068V4.74878H136.45V19.7778H133.068V13.8559H126.281V19.7778H122.899V4.74878H126.281Z" fill="#21A038"/>
</g>
<defs>
<linearGradient id="paint0_linear_45_4305" x1="4.38423" y1="20.4932" x2="1.32361" y2="11.7631" gradientUnits="userSpaceOnUse">
<stop offset="0.14" stop-color="#F1E813"/>
<stop offset="0.3" stop-color="#E6E418"/>
<stop offset="0.58" stop-color="#C9DA26"/>
<stop offset="0.89" stop-color="#A2CC39"/>
</linearGradient>
<linearGradient id="paint1_linear_45_4305" x1="4.61199" y1="4.36027" x2="12.336" y2="1.45586" gradientUnits="userSpaceOnUse">
<stop offset="0.06" stop-color="#0FA7DF"/>
<stop offset="0.54" stop-color="#0098F8"/>
<stop offset="0.92" stop-color="#0290EA"/>
</linearGradient>
<linearGradient id="paint2_linear_45_4305" x1="11.4316" y1="22.6821" x2="20.1479" y2="20.7392" gradientUnits="userSpaceOnUse">
<stop offset="0.12" stop-color="#A2CC39"/>
<stop offset="0.28" stop-color="#86C239"/>
<stop offset="0.87" stop-color="#219F38"/>
</linearGradient>
<linearGradient id="paint3_linear_45_4305" x1="11.6315" y1="1.28322" x2="19.0911" y2="3.55464" gradientUnits="userSpaceOnUse">
<stop offset="0.06" stop-color="#0290EA"/>
<stop offset="0.79" stop-color="#0C89CA"/>
</linearGradient>
<linearGradient id="paint4_linear_45_4305" x1="4.10992" y1="20.0682" x2="12.237" y2="23.0652" gradientUnits="userSpaceOnUse">
<stop offset="0.13" stop-color="#F1E813"/>
<stop offset="0.3" stop-color="#EAE616"/>
<stop offset="0.53" stop-color="#D8DF1F"/>
<stop offset="0.8" stop-color="#BAD52D"/>
<stop offset="0.98" stop-color="#A2CC39"/>
</linearGradient>
<linearGradient id="paint5_linear_45_4305" x1="1.38178" y1="12.6904" x2="4.70994" y2="4.14764" gradientUnits="userSpaceOnUse">
<stop offset="0.07" stop-color="#A2CC39"/>
<stop offset="0.26" stop-color="#81C45E"/>
<stop offset="0.92" stop-color="#0FA7DF"/>
</linearGradient>
<clipPath id="clip0_45_4305">
<rect width="154" height="24" fill="white"/>
</clipPath>
</defs>
</svg>
