<svg width="222" height="78" viewBox="0 0 222 78" fill="none" xmlns="http://www.w3.org/2000/svg">
<g id="SBI" clip-path="url(#clip0_4_1175)">
<path id="Vector" fill-rule="evenodd" clip-rule="evenodd" d="M76.1108 38.1054C76.0942 30.6909 73.912 23.4428 69.8323 17.2516C65.7526 11.0604 59.9532 6.19576 53.1466 3.25549C46.34 0.315217 38.8227 -0.572645 31.5184 0.700994C24.2142 1.97463 17.441 5.3543 12.0312 10.4247C6.62144 15.4951 2.81069 22.0354 1.06717 29.242C-0.676343 36.4486 -0.276677 44.0076 2.21708 50.9901C4.71085 57.9727 9.19007 64.0747 15.1044 68.5464C21.0187 73.018 28.1105 75.6646 35.5084 76.1608V46.6886C33.4209 46.0942 31.6188 44.7652 30.4342 42.9466C29.2496 41.128 28.7624 38.9424 29.0625 36.7929C29.3626 34.6433 30.4297 32.6748 32.067 31.2501C33.7044 29.8254 35.8016 29.0408 37.972 29.0408C40.1424 29.0408 42.2396 29.8254 43.877 31.2501C45.5143 32.6748 46.5814 34.6433 46.8815 36.7929C47.1816 38.9424 46.6944 41.128 45.5098 42.9466C44.3252 44.7652 42.5231 46.0942 40.4357 46.6886V76.1608C50.1012 75.5311 59.1652 71.2481 65.7888 64.1809C72.4124 57.1136 76.0997 47.7914 76.1025 38.1054H76.1108Z" fill="#00B6F0"/>
<path id="Vector_2" fill-rule="evenodd" clip-rule="evenodd" d="M130.032 22.2396L136.952 8.40392C123.854 -3.84351 98.9716 -3.30159 90.8595 14.24C88.6959 18.913 88.7751 24.0905 90.8345 29.5347C91.8308 32.1609 93.6233 35.4375 96.4663 37.7844C97.9211 38.985 103.503 41.753 108.018 43.7998C112.245 45.7132 118.06 47.0888 120.728 50.8614C123.779 55.1759 121.895 60.5034 114.817 61.4747C110.852 62.0166 104.949 60.37 96.1536 53.2709L86.8492 65.4474C116.447 91.2513 143.751 68.6573 137.352 48.577C135.726 43.4788 132.379 39.5561 128.235 36.563C121.828 31.9317 115.138 30.6769 110.669 28.7301C102.298 25.0826 103.482 14.8111 115.088 15.4406C122.433 15.8366 124.792 17.9417 130.032 22.2604V22.2396Z" fill="#271E79" stroke="black" stroke-width="0.0416863" stroke-miterlimit="22.93"/>
<path id="Vector_3" fill-rule="evenodd" clip-rule="evenodd" d="M145.031 0.020813H173.719C183.365 0.020813 194.675 8.39976 194.675 18.4086C194.675 20.7181 194.833 22.4522 194.675 25.1368C194.362 30.4476 189.464 36.3921 186.309 36.3921C191.219 36.3921 196.13 43.4329 197.335 48.3019C200.253 60.1366 194.046 76.9862 173.719 76.9862H145.031V0.020813ZM160.417 14.0691H171.672C175.904 14.0691 179.364 17.6583 179.364 22.052V23.1942C179.364 26.946 176.4 30.0308 172.773 30.0308H168.142V44.2667H173.561C178.467 44.2667 182.478 48.4353 182.478 53.5168C182.478 58.6026 178.467 62.767 173.561 62.767H160.417V14.0691Z" fill="#271E79" stroke="black" stroke-width="0.0416863" stroke-miterlimit="22.93"/>
<path id="Vector_4" fill-rule="evenodd" clip-rule="evenodd" d="M205.005 0.020813H221.229V76.9987H205.005V0.020813Z" fill="#271E79" stroke="black" stroke-width="0.0416863" stroke-miterlimit="22.93"/>
</g>
<defs>
<clipPath id="clip0_4_1175">
<rect width="221.25" height="77.0196" fill="white"/>
</clipPath>
</defs>
</svg>
