<svg width="169" height="24" viewBox="0 0 169 24" fill="none" xmlns="http://www.w3.org/2000/svg">
<path d="M15.4671 19.3062C15.8483 18.3791 16.0324 17.3809 16.0066 16.3795C16.0421 14.9064 15.5349 13.4689 14.582 12.3415C13.5192 11.1721 11.7005 10.1998 9.18076 9.46001C8.69297 9.33402 8.21811 9.16281 7.75939 8.95283C7.36205 8.75901 7.00671 8.49412 6.70628 8.17108C6.39294 7.81574 6.22819 7.35379 6.2508 6.87893C6.26048 6.18762 6.64814 5.55447 7.26191 5.23466C8.51853 4.68226 9.94959 4.68226 11.203 5.23466C11.7618 5.43817 12.2981 5.69014 12.8117 5.98734L14.9276 1.77168C13.9811 1.18698 12.9635 0.737959 11.8943 0.431072C10.7927 0.146798 9.66209 0.001431 8.52499 0.001431C7.44281 -0.0179513 6.36709 0.15972 5.34952 0.524753C4.44501 0.876866 3.62126 1.41634 2.93319 2.10118C2.24189 2.79249 1.69272 3.61623 1.32446 4.52074C0.959425 5.45109 0.778523 6.44605 0.784984 7.44424C0.843131 9.04006 1.51828 10.5486 2.66184 11.6599C3.75371 12.6161 5.03294 13.3332 6.41878 13.7597C7.07778 14.0116 7.80785 14.2377 8.27302 14.4154C8.75112 14.5963 9.20984 14.8257 9.63625 15.1067C9.94313 15.3264 10.1919 15.6139 10.3631 15.9499C10.5117 16.2697 10.5666 16.6218 10.5214 16.9707C10.4729 17.5004 10.2177 17.9915 9.81392 18.3371C9.15169 18.8184 8.33763 19.0413 7.52357 18.967C6.56092 18.9412 5.61441 18.7151 4.74221 18.3016C3.97984 17.9365 3.24008 17.5263 2.52616 17.0708L0 21.4124C1.99315 23.0502 4.48378 23.958 7.0584 23.9838C8.3344 23.9838 9.60394 23.7835 10.8153 23.3862C11.8588 23.0373 12.8246 22.4978 13.6645 21.7936C14.4334 21.0991 15.0471 20.2527 15.4671 19.3062Z" fill="#EB0F19"/>
<path d="M29.1059 17.9494C27.8363 19.5323 25.5266 19.7875 23.9437 18.5212C22.3608 17.2516 22.1024 14.9387 23.3687 13.3558C24.6383 11.7696 26.948 11.5144 28.5309 12.7808C28.7408 12.9487 28.9347 13.1393 29.1059 13.3461L32.3977 10.0414C30.8245 8.30344 28.5858 7.31494 26.2405 7.31817C21.6502 7.30202 17.6897 10.5809 17.6897 15.6397C17.6897 20.6952 21.6921 23.9837 26.2825 23.9837C28.631 23.9837 30.8697 22.992 32.4493 21.2541L29.1059 17.9494Z" fill="#EB0F19"/>
<path d="M40.9388 7.30201C36.3322 7.29554 32.5947 11.0299 32.5914 15.6396C32.5882 20.2526 36.3225 23.9902 40.9291 23.9934C45.5356 23.9934 49.2699 20.2559 49.2699 15.6461C49.2699 11.0396 45.5421 7.30524 40.9388 7.30201ZM40.9388 19.3223C38.9101 19.3094 37.2755 17.6522 37.2852 15.6203C37.2948 13.5916 38.9456 11.9505 40.9743 11.9538C43.003 11.9602 44.6472 13.6077 44.6472 15.6396C44.6472 16.6184 44.2564 17.5617 43.5586 18.253C42.8641 18.9443 41.9208 19.3287 40.9388 19.3223Z" fill="#EB0F19"/>
<path d="M59.8946 7.69625H57.6204V2.77637H52.6327V7.69625H50.3585V12.2156H52.6327V23.5865H57.6204V12.2156H59.8946V7.69625Z" fill="#EB0F19"/>
<path d="M64.6692 0.00147638C63.545 -0.00175391 62.5274 0.673397 62.0945 1.71358C61.6617 2.75054 61.8975 3.94901 62.6922 4.74692C63.4868 5.54482 64.6853 5.78387 65.7223 5.35423C66.7624 4.92459 67.4408 3.91025 67.4408 2.78284C67.4408 1.25164 66.2036 0.00470678 64.6692 0.00147638Z" fill="#EB0F19"/>
<path d="M62.1752 7.69629H67.1565V23.5801H62.1752V7.69629Z" fill="#EB0F19"/>
<path d="M86.639 23.6058V7.69616H81.787V9.38242L81.3315 8.98832C80.2008 7.90291 78.689 7.29559 77.1223 7.30205C72.8323 7.30205 69.2111 11.1204 69.2111 15.6397C69.2111 20.1558 72.842 23.9838 77.1223 23.9838C78.689 23.9871 80.2008 23.3829 81.3315 22.2975L81.787 21.9002V23.5864L86.639 23.6058ZM77.9299 19.3902C75.856 19.3772 74.1859 17.6845 74.1988 15.6106C74.2084 13.5367 75.8947 11.8634 77.9686 11.8698C80.0426 11.8795 81.7159 13.5658 81.7127 15.6397C81.7094 16.6379 81.3089 17.5973 80.5982 18.3015C79.8907 19.0057 78.9281 19.3966 77.9299 19.3902Z" fill="#EB0F19"/>
<path d="M94.0786 23.6058V21.9195L94.5244 22.3136C95.6583 23.399 97.1668 24.0031 98.7368 23.9999C103.024 23.9999 106.645 20.1816 106.645 15.6558C106.645 11.13 103.024 7.31817 98.7368 7.31817C97.1668 7.31494 95.6583 7.91902 94.5244 9.00443L94.0786 9.40177V0.398682H89.2169V23.6058H94.0786ZM94.1787 15.6558C94.1691 14.1311 95.0768 12.7549 96.482 12.1638C97.884 11.5726 99.5024 11.8892 100.585 12.9617C101.664 14.0341 101.99 15.6558 101.408 17.0642C100.83 18.4695 99.4572 19.3901 97.9357 19.3901C95.865 19.3901 94.1852 17.7103 94.1787 15.6396V15.6558Z" fill="#EB0F19"/>
<path d="M125.769 23.6058V7.69612H120.917V9.38238L120.461 8.98828C119.327 7.90287 117.819 7.29878 116.249 7.30201C111.962 7.30201 108.341 11.1203 108.341 15.6396C108.341 20.1557 111.972 23.9837 116.249 23.9837C117.819 23.987 119.327 23.3829 120.461 22.2975L120.917 21.9001V23.5864L125.769 23.6058ZM117.092 19.3901C115.015 19.3934 113.328 17.7136 113.325 15.6364C113.322 13.5593 115.005 11.873 117.082 11.8698C119.156 11.8698 120.839 13.5528 120.839 15.63C120.839 17.7039 119.163 19.3837 117.092 19.3901Z" fill="#EB0F19"/>
<path d="M136.106 11.9796C137.74 11.9861 139.065 13.3106 139.068 14.9484V23.6058H144.049V14.3314C144.049 10.1157 141.614 7.36987 137.763 7.36987C136.18 7.36987 134.513 8.06118 133.14 10.2869V7.75752H128.153V23.6058H133.098V14.9484C133.098 14.1537 133.418 13.3945 133.984 12.8357C134.549 12.2801 135.311 11.9699 136.106 11.9796Z" fill="#EB0F19"/>
<path d="M162.201 23.5864L156.086 15.6461L161.771 7.69613H155.95L151.376 14.1311V0.398682H146.398V23.5864H151.376V17.0384L156.396 23.5864H162.201Z" fill="#EB0F19"/>
<path d="M165.716 18.0335C164.588 18.027 163.571 18.699 163.135 19.7359C162.698 20.7729 162.931 21.9713 163.723 22.7725C164.514 23.5736 165.709 23.8159 166.753 23.3895C167.793 22.9598 168.474 21.9487 168.478 20.8213C168.481 19.2901 167.247 18.0432 165.716 18.0335ZM165.716 23.0309C164.814 23.0341 164 22.4947 163.655 21.6644C163.306 20.831 163.496 19.8748 164.13 19.2352C164.766 18.5956 165.722 18.405 166.556 18.7506C167.386 19.0931 167.928 19.9039 167.928 20.8052C167.932 21.3963 167.699 21.9616 167.282 22.3784C166.869 22.7951 166.304 23.0309 165.716 23.0309Z" fill="#EB0F19"/>
<path d="M165.706 21.2703H165.26V22.3234H164.721V19.29H165.874C166.433 19.29 166.885 19.7423 166.885 20.3012C166.875 20.6823 166.649 21.0248 166.304 21.1863L166.943 22.3234H166.287L165.706 21.2703ZM165.26 20.7631H165.9C166.155 20.7631 166.362 20.5564 166.362 20.3012C166.362 20.0427 166.155 19.836 165.9 19.836H165.26V20.7631Z" fill="#EB0F19"/>
</svg>
