<svg width="143" height="24" viewBox="0 0 143 24" fill="none" xmlns="http://www.w3.org/2000/svg">
<g clip-path="url(#clip0_45_4297)">
<mask id="mask0_45_4297" style="mask-type:luminance" maskUnits="userSpaceOnUse" x="0" y="0" width="25" height="24">
<path d="M11.7516 0.172359C5.21904 0.46772 0.163648 6.00112 0.457766 12.5376C0.754547 19.0682 6.29114 24.1234 12.8231 23.8316C19.3575 23.5326 24.4145 17.9987 24.1189 11.4649C23.8305 5.11699 18.5951 0.160111 12.3001 0.158691C12.1179 0.158691 11.9367 0.163661 11.7516 0.172359Z" fill="white"/>
</mask>
<g mask="url(#mask0_45_4297)">
<path d="M24.4143 0.158691H0.163696V24.1234H24.4143V0.158691Z" fill="url(#paint0_radial_45_4297)"/>
</g>
<mask id="mask1_45_4297" style="mask-type:luminance" maskUnits="userSpaceOnUse" x="0" y="0" width="25" height="24">
<path d="M9.58323 22.1732C8.25766 22.0429 6.67507 21.6259 5.29642 20.4314C4.02747 19.3371 3.24203 17.831 2.86023 16.5042C2.47079 15.1497 2.30572 13.5664 2.952 13.6901C3.14867 13.7281 3.49266 14.5992 3.86595 15.2341C4.25254 15.8889 4.56263 16.2507 4.85622 16.4729C4.98828 16.573 5.44037 15.567 6.10085 14.994C6.48408 14.6768 6.8996 14.5694 6.97043 15.5125C7.0503 16.6676 6.84138 18.0433 7.18201 18.0433C7.49317 18.0433 8.20547 17.8065 9.76961 17.6721C10.3557 17.6228 10.6912 17.7342 10.1314 18.5209C9.85072 18.9164 9.47815 19.4743 8.59225 20.1103C9.92031 21.354 11.5123 21.2026 11.5427 21.7331C11.5602 22.0361 10.9654 22.2037 10.1867 22.2037C9.99414 22.2039 9.79268 22.1941 9.58323 22.1732ZM14.0538 10.9951C12.8372 10.7416 12.5883 9.63703 12.5883 9.63703C12.4889 9.24795 12.4632 8.75574 12.5457 8.13023C12.7087 6.81832 13.0656 6.20612 13.4692 5.18851C14.0092 3.82389 12.6927 3.02567 12.9082 2.5253C13.203 1.84671 14.1439 2.70848 15.1972 2.77344C16.0989 2.8219 16.6435 2.77948 17.3459 2.87213C18.2809 2.99461 19.3974 3.31216 19.8955 3.89631C20.3513 4.43112 19.6535 5.08201 18.8182 4.675C18.205 4.37556 17.4337 4.55821 17.8876 5.19757C18.4295 5.80444 18.6901 5.82059 19.2474 5.96561C20.7759 6.36871 20.8076 7.83575 19.7719 8.59137C18.5965 9.45314 17.4009 9.09512 16.9255 7.40638C16.6863 6.56148 16.0922 6.13211 15.4793 6.37368C14.8742 6.61118 15.2331 7.72127 15.6955 8.75006C16.4931 10.7902 14.8768 11.0066 14.2577 11.0066C14.1627 11.0068 14.0891 10.9997 14.0538 10.9951ZM13.1765 22.5566C13.1629 22.2846 13.5603 22.2181 13.5603 22.2181C17.1105 21.5164 16.0723 19.1897 14.8172 18.0019C14.2877 17.5046 9.34645 13.2385 9.34645 13.2385C4.63594 9.18209 5.01278 6.01655 5.01278 6.01655C5.24424 2.11776 8.65242 1.15251 11.2338 1.37758C11.5368 1.40332 11.7058 1.5849 11.6497 1.83837C11.5948 2.1135 11.1948 2.13178 11.1948 2.13178C10.3729 2.18201 9.63613 2.26384 9.07966 2.64174C7.00131 4.04009 7.61014 6.4209 10.385 9.07116C10.7345 9.4045 11.1055 9.75613 11.4887 10.1141C11.4887 10.1141 12.0432 10.6049 13.1545 11.6588C15.2874 13.623 16.4543 14.6816 16.4543 14.6816C20.2159 17.8136 18.9267 20.6767 17.4946 21.6705C16.3975 22.4309 15.1848 22.7871 13.5917 22.8729C13.5782 22.8748 13.564 22.8755 13.5498 22.8755C13.4043 22.8755 13.1854 22.7871 13.1765 22.5566ZM11.7434 0.0122475C5.12371 0.310803 -1.15037e-05 5.92283 0.299077 12.5425C0.599052 19.1626 6.20931 24.2865 12.8306 23.9876C19.4501 23.6894 24.576 18.08 24.2764 11.4584C23.9877 5.02007 18.6739 0.000710002 12.293 0C12.1105 0 11.9271 0.00390501 11.7434 0.0122475Z" fill="white"/>
</mask>
<g mask="url(#mask1_45_4297)">
<path d="M24.576 0H0V24.2865H24.576V0Z" fill="url(#paint1_radial_45_4297)"/>
</g>
<path d="M30.8276 15.5724C31.7868 16.3397 33.3044 16.819 34.3595 16.819C35.654 16.819 36.4373 16.2593 36.4373 15.1892C36.4373 14.3576 36.1017 13.8295 35.0464 13.3038C33.8307 12.68 32.8413 12.2957 31.9139 11.5133C31.0832 10.7786 30.4923 9.88279 30.4923 8.55668C30.4923 6.70305 32.0254 5.40942 34.584 5.40942C35.9893 5.40942 37.1716 5.63254 38.2746 6.11233V8.07743C38.2746 8.36516 38.0021 8.46065 37.7785 8.26913C36.8846 7.51831 35.9565 7.16668 34.9019 7.16668C33.7679 7.16668 33.1285 7.69421 33.1285 8.55668C33.1285 9.17989 33.3513 9.61192 33.7679 9.94722C34.5668 10.602 35.5578 11.0813 36.4371 11.4979C38.0985 12.2805 39.0735 13.2065 39.0735 15.1569C39.0735 17.5861 37.011 18.5926 34.3911 18.5926C32.4572 18.5926 30.0123 17.6665 30.3327 16.8667L30.8276 15.5724Z" fill="#717271"/>
<path d="M40.4969 5.57788H43.2284V10.0367C43.8992 9.46141 44.7468 9.10996 45.7537 9.10996C47.7675 9.10996 49.0936 10.2767 49.0936 11.9706V18.3941H46.5844V12.3057C46.5844 11.3944 46.1206 10.9796 45.1298 10.9796C44.4752 10.9796 43.8676 11.2668 43.2283 11.7302V18.3939H40.7198V7.17592C40.7198 6.63223 40.6392 6.36137 40.3189 6.02536C40.1286 5.78556 40.2569 5.57788 40.4969 5.57788Z" fill="#717271"/>
<path d="M53.8077 9.41285V18.3944H51.2992V10.9951C51.2992 10.4835 51.1871 10.2125 50.8999 9.87719C50.7076 9.63668 50.8361 9.41285 51.06 9.41285H53.8077ZM53.9046 6.56841C53.9046 7.43142 53.2652 8.08728 52.3862 8.08728C51.5076 8.08728 50.8679 7.43142 50.8679 6.56841C50.8679 5.70594 51.5076 5.05078 52.3862 5.05078C53.265 5.05096 53.9046 5.70594 53.9046 6.56841Z" fill="#717271"/>
<path d="M55.8537 9.41315H58.5226V10.2925C59.1781 9.65313 59.977 9.10962 61.0951 9.10962C62.9966 9.10962 64.4521 10.1803 64.4521 12.1456V18.3948H61.9421V12.3696C61.9421 11.3625 61.4955 10.9152 60.4875 10.9152C59.7851 10.9152 59.1782 11.2031 58.6023 11.7148V18.3945H56.0931V11.0273C56.0931 10.4836 55.9978 10.2123 55.6952 9.87678C55.4868 9.63697 55.6144 9.41315 55.8537 9.41315Z" fill="#717271"/>
<path d="M66.3534 5.57788H69.0864V10.0367C69.757 9.46141 70.6038 9.10996 71.6101 9.10996C73.6247 9.10996 74.951 10.2767 74.951 11.9706V18.3941H72.4422V12.3057C72.4422 11.3944 71.9785 10.9796 70.9861 10.9796C70.3326 10.9796 69.7248 11.2668 69.0862 11.7302V18.3939H66.5769V7.17592C66.5769 6.63223 66.497 6.36137 66.177 6.02536C65.9858 5.78556 66.1143 5.57788 66.3534 5.57788Z" fill="#717271"/>
<path d="M80.6409 10.804C79.6657 10.804 78.6419 11.2515 77.924 11.715C77.5728 11.9537 77.3637 11.8264 77.3637 11.4588V9.78057C78.3067 9.36575 79.7296 9.10962 80.8003 9.10962C83.2767 9.10962 84.6992 10.0687 84.6992 12.0497V18.3943H82.2373V17.4197C81.5349 18.2827 80.5285 18.6822 79.458 18.6822C77.6681 18.6822 76.437 17.532 76.437 15.8371C76.437 13.9202 77.7641 12.7216 80.5764 12.7216H82.1906V12.0497C82.1908 11.1711 81.6317 10.804 80.6409 10.804ZM82.1908 14.383H80.5603C79.33 14.383 78.8511 14.9428 78.8511 15.7898C78.8511 16.4929 79.2667 16.9722 80.0015 16.9722C80.8638 16.9722 81.6317 16.5723 82.1906 15.9331L82.1908 14.383Z" fill="#717271"/>
<path d="M86.5543 9.41315H89.2223V10.2925C89.8786 9.65313 90.6777 9.10962 91.7956 9.10962C93.6971 9.10962 95.1519 10.1803 95.1519 12.1456V18.3948H92.6417V12.3696C92.6417 11.3625 92.1944 10.9152 91.1871 10.9152C90.484 10.9152 89.8786 11.2031 89.302 11.7148V18.3945H86.7934V11.0273C86.7934 10.4836 86.6981 10.2123 86.3948 9.87678C86.1865 9.63697 86.3142 9.41315 86.5543 9.41315Z" fill="#717271"/>
<path d="M102.055 5.92944H106.45C109.072 5.92944 110.733 7.12775 110.733 9.06197C110.733 10.2766 110.254 11.1707 109.327 11.7303C110.621 12.2257 111.404 13.1683 111.404 14.8302C111.404 17.1799 109.503 18.3941 106.642 18.3941H102.295V7.54434C102.295 7.00013 102.199 6.72855 101.895 6.39325C101.704 6.15327 101.832 5.92944 102.055 5.92944ZM104.9 11.012H106.274C107.472 11.012 108.128 10.5638 108.128 9.3655C108.128 8.15157 107.472 7.7032 106.226 7.7032H104.9V11.012H104.9ZM108.719 14.6871C108.719 13.3603 107.984 12.7857 106.482 12.7857H104.9V16.6205H106.498C108 16.6205 108.719 16.0289 108.719 14.6871Z" fill="#717271"/>
<path d="M116.646 10.804C115.671 10.804 114.649 11.2515 113.929 11.715C113.578 11.9537 113.37 11.8264 113.37 11.4588V9.78057C114.313 9.36575 115.735 9.10962 116.805 9.10962C119.282 9.10962 120.704 10.0687 120.704 12.0497V18.3943H118.244V17.4197C117.541 18.2827 116.534 18.6822 115.463 18.6822C113.674 18.6822 112.444 17.532 112.444 15.8371C112.444 13.9202 113.769 12.7216 116.582 12.7216H118.196V12.0497C118.196 11.1711 117.637 10.804 116.646 10.804ZM118.196 14.383H116.566C115.336 14.383 114.856 14.9428 114.856 15.7898C114.856 16.4929 115.272 16.9722 116.007 16.9722C116.869 16.9722 117.637 16.5723 118.196 15.9331L118.196 14.383Z" fill="#717271"/>
<path d="M122.56 9.41315H125.227V10.2925C125.883 9.65313 126.683 9.10962 127.801 9.10962C129.702 9.10962 131.157 10.1803 131.157 12.1456V18.3948H128.648V12.3696C128.648 11.3625 128.201 10.9152 127.193 10.9152C126.491 10.9152 125.883 11.2031 125.308 11.7148V18.3945H122.799V11.0273C122.799 10.4836 122.703 10.2123 122.4 9.87678C122.192 9.63697 122.32 9.41315 122.56 9.41315Z" fill="#717271"/>
<path d="M133.283 18.3944V7.17605C133.283 6.6329 133.203 6.36097 132.882 6.02585C132.691 5.78587 132.819 5.57837 133.059 5.57837H135.791V12.9294L138.972 9.41362H141.848L138.413 13.249L142.264 18.3942H139.499L136.734 14.6385C136.447 14.2391 136.319 14.1756 136.015 14.1756H135.791V18.3944H133.283Z" fill="#717271"/>
</g>
<defs>
<radialGradient id="paint0_radial_45_4297" cx="0" cy="0" r="1" gradientUnits="userSpaceOnUse" gradientTransform="translate(13.7604 8.17018) scale(11.2357 11.235)">
<stop stop-color="white"/>
<stop offset="0.3372" stop-color="#E9D2B2"/>
<stop offset="0.6542" stop-color="#DAB37C"/>
<stop offset="0.8826" stop-color="#D1A25D"/>
<stop offset="1" stop-color="#CE9B51"/>
</radialGradient>
<radialGradient id="paint1_radial_45_4297" cx="0" cy="0" r="1" gradientUnits="userSpaceOnUse" gradientTransform="translate(14.2001 8.80581) scale(25.1315 25.1299)">
<stop stop-color="#1ABFF1"/>
<stop offset="0.1013" stop-color="#15ABE2"/>
<stop offset="0.2191" stop-color="#1197D4"/>
<stop offset="0.2228" stop-color="#1196D3"/>
<stop offset="0.2823" stop-color="#1184C7"/>
<stop offset="0.3449" stop-color="#1077BD"/>
<stop offset="0.4111" stop-color="#0F6EB7"/>
<stop offset="0.4834" stop-color="#0E69B4"/>
<stop offset="0.573" stop-color="#0E67B2"/>
<stop offset="1" stop-color="#0E67B2"/>
</radialGradient>
<clipPath id="clip0_45_4297">
<rect width="142.264" height="24" fill="white"/>
</clipPath>
</defs>
</svg>
