<svg width="123" height="24" viewBox="0 0 123 24" fill="none" xmlns="http://www.w3.org/2000/svg">
<path d="M0 0H23.9155V12.2535H0V0Z" fill="#E60028"/>
<path d="M0 11.9155H23.9155V23.9155H0V11.9155Z" fill="black"/>
<path d="M4.14087 11.2395H19.6902V12.6761H4.14087V11.2395Z" fill="white"/>
<path d="M39.8873 2.70416C38.6197 2.19711 37.1831 1.77457 36 1.77457C34.2254 1.77457 33.2958 2.1971 33.2958 2.87316C33.2958 4.81682 41.324 3.29569 41.324 7.52104C41.324 9.29569 39.7183 10.6478 36.4226 10.6478C34.4789 10.6478 32.9578 10.2253 31.1831 9.2957L31.9437 7.69007C33.4648 8.53514 34.9014 8.95767 36.4226 8.95767C38.3662 8.95767 39.3803 8.36611 39.3803 7.52104C39.3803 5.32386 31.3521 7.01401 31.3521 3.04218C31.3521 1.35204 32.9578 0.168945 35.9155 0.168945C37.6902 0.168945 39.1268 0.59147 40.5634 1.26753L39.8873 2.70416Z" fill="black"/>
<path d="M48.845 10.6479C45.6338 10.6479 43.014 8.5352 43.014 5.32393C43.014 2.19717 45.6338 0 48.845 0C52.0563 0 54.676 2.19717 54.676 5.32393C54.5915 8.5352 52.0563 10.6479 48.845 10.6479ZM48.845 1.69014C46.4788 1.69014 44.9577 3.29576 44.9577 5.32393C44.9577 7.3521 46.4788 8.95775 48.845 8.95775C51.2112 8.95775 52.7323 7.43661 52.7323 5.32393C52.7323 3.29576 51.2112 1.69014 48.845 1.69014Z" fill="black"/>
<path d="M62.2816 10.6479C58.9014 10.6479 56.3661 8.5352 56.3661 5.32393C56.3661 2.19717 58.9014 0 62.2816 0C64.2253 0 65.6619 0.591539 66.9295 1.52112L65.9155 2.95775C64.9859 2.28169 63.8028 1.69014 62.2816 1.69014C59.8309 1.69014 58.3099 3.21128 58.3099 5.23945C58.3099 7.26762 59.8309 8.78873 62.2816 8.78873C63.8028 8.78873 65.0704 8.28169 65.9155 7.60563L66.9295 9.04226C65.7464 10.0563 64.2253 10.6479 62.2816 10.6479Z" fill="black"/>
<path d="M69.0422 0.337891H70.9014V10.3942H69.0422V0.337891Z" fill="black"/>
<path d="M73.6057 10.3097V0.337891H82.7324V1.94352H75.4648V4.39424H81.1268V6.08439H75.4648V8.70408H83.0705V10.3097H73.6057Z" fill="black"/>
<path d="M84.0845 1.94352V0.337891H94.1408V1.94352H90V10.3097H88.1409V1.94352H84.0845Z" fill="black"/>
<path d="M95.5775 10.3097V0.337891H104.704V1.94352H97.4367V4.39424H103.099V6.08439H97.4367V8.70408H105.042V10.3097H95.5775Z" fill="black"/>
<path d="M36.9296 22.2253C37.9437 22.2253 38.9577 21.9718 39.8028 21.6338V18.7605H41.5774V22.6478C40.3098 23.4929 38.5352 23.9999 36.8451 23.9999C33.4648 23.9999 30.9296 21.8873 30.9296 18.676C30.9296 15.5492 33.4648 13.3521 36.8451 13.3521C38.7887 13.3521 40.2253 13.8591 41.4929 14.8732L40.4789 16.3098C39.5493 15.6337 38.3662 15.1267 36.8451 15.1267C34.3944 15.0422 32.8732 16.6478 32.8732 18.676C32.8732 20.7042 34.3944 22.2253 36.9296 22.2253Z" fill="black"/>
<path d="M44.0282 23.662V13.6902H53.1549V15.2958H45.8874V17.7465H51.5493V19.4367H45.8874V22.0564H53.493V23.662H44.0282Z" fill="black"/>
<path d="M57.1267 23.662H55.2676V13.6057H57.1267L63.6338 21.1268H63.7183C63.6338 19.2677 63.6338 17.6621 63.6338 16.2254V13.6057H65.4084V23.662H63.5493L57.0423 16.1409C57.1268 17.6621 57.1267 20.1973 57.1267 21.0423V23.662Z" fill="black"/>
<path d="M68.0282 23.662V13.6902H77.1549V15.2958H69.8873V17.7465H75.5493V19.4367H69.8873V22.0564H77.4929V23.662H68.0282Z" fill="black"/>
<path d="M84.338 20.0282H81.3803V23.7465H79.5211V13.6902H85.9436C88.0563 13.6902 89.4085 15.0423 89.4085 16.9014C89.4085 18.6761 88.1408 19.7747 86.5352 20.0282L89.4929 23.7465H87.1268L84.338 20.0282ZM85.6901 18.3381C86.8732 18.3381 87.5493 17.7465 87.5493 16.9014C87.5493 15.9719 86.9577 15.3803 85.9436 15.3803H81.3803V18.4226H85.6901V18.3381Z" fill="black"/>
<path d="M93.2957 21.2958L92.1127 23.7465H90.0845L94.9859 13.6902H96.9295L101.831 23.7465H99.8028L98.6197 21.2958H93.2957ZM94.0563 19.6057H97.9436L96 15.5493L94.0563 19.6057Z" fill="black"/>
<path d="M103.268 23.662V13.6902H105.127V22.0564H111.803V23.662H103.268Z" fill="black"/>
<path d="M113.07 23.662V13.6902H122.197V15.2958H114.93V17.7465H120.592V19.4367H114.93V22.0564H122.535V23.662H113.07Z" fill="black"/>
</svg>
