<svg width="213" height="76" viewBox="0 0 213 76" fill="none" xmlns="http://www.w3.org/2000/svg">
<g id="South Indian Bank" clip-path="url(#clip0_4_1205)">
<path id="Vector" d="M16.0479 1.41806C17.1334 0.180909 18.9132 0.0466849 20.4538 0C21.6516 0.0413879 22.8431 0.191793 24.0135 0.449345C24.387 0.612742 24.9414 0.758635 24.9589 1.25466C24.5796 2.04247 23.6459 2.24671 22.9573 2.67271C20.4071 4.1783 17.7986 5.64304 15.5519 7.5863C15.5869 6.70512 15.4585 5.83562 15.5052 4.95444C15.5286 3.76981 15.1843 2.39261 16.0479 1.41806Z" fill="#AA0000"/>
<path id="Vector_2" d="M27.1706 2.67855C29.3298 1.47058 31.9733 2.23505 33.9049 3.51888C34.4243 3.84568 34.8736 4.56929 34.4126 5.12368C33.7349 5.82774 32.8637 6.31513 31.9091 6.52423C25.986 8.22447 20.4408 11.0367 15.5694 14.8108C15.5694 13.8596 15.5694 12.9142 15.5694 11.9689C18.919 8.27492 23.0156 5.37461 27.1706 2.67855Z" fill="#AA0000"/>
<path id="Vector_3" d="M36.8752 5.94069C38.0832 5.49718 39.4371 6.01072 40.3766 6.78102C41.0769 7.32373 41.853 7.76723 42.5066 8.36247C42.9735 8.80014 43.3411 9.52959 42.9326 10.1132C42.279 11.0585 41.0827 11.3211 40.0498 11.6479C31.4073 14.4899 22.8698 18.0671 15.5052 23.4767C15.441 22.543 15.441 21.6093 15.3301 20.6756C19.3275 16.118 24.3987 12.6692 29.6332 9.69299C32.0142 8.37414 34.4476 7.16617 36.8752 5.94069Z" fill="#AA0000"/>
<path id="Vector_4" d="M44.1931 11.8813C45.2494 11.4495 46.6207 11.4145 47.5136 12.2198C48.2489 12.9609 49.0308 13.6612 49.772 14.3965C50.2446 14.9392 50.7699 15.692 50.4547 16.4389C50.0696 17.3493 49.0717 17.7578 48.2255 18.1021C40.9543 20.3255 33.7007 22.7181 26.8555 26.0561C22.8401 27.9708 19.036 30.3002 15.5052 33.0063C15.5052 32.1659 15.4702 31.3198 15.4527 30.4736C19.1291 25.916 23.9552 22.4496 28.9505 19.4618C33.8634 16.6105 38.9548 14.0784 44.1931 11.8813Z" fill="#AA0000"/>
<path id="Vector_5" d="M49.7603 19.4034C50.5773 19.0358 51.4585 18.5806 52.3863 18.8199C53.5243 19.0766 54.3004 20.0512 54.8081 21.0432C55.4325 22.2104 56.4479 23.3775 56.4012 24.7956C56.4012 25.8635 55.5726 26.7096 54.6914 27.1998C52.8649 28.2094 50.764 28.4953 48.7332 28.8105C36.7826 30.8126 25.4519 35.5346 15.6161 42.6117C15.6161 41.643 15.5052 40.6743 15.5052 39.6939C19.4496 35.6237 23.9297 32.1095 28.8221 29.2481C35.476 25.3148 42.4866 22.0186 49.7603 19.4034Z" fill="#AA0000"/>
<path id="Vector_6" d="M40.7618 32.907C40.8785 33.8641 40.8201 34.827 40.9018 35.7898C36.7469 40.2483 31.7224 43.8138 26.4937 46.8775C20.2084 50.4888 13.618 53.5409 6.79847 55.9986C6.06318 56.2962 5.3454 56.7455 4.51674 56.6989C3.19789 56.7339 2.1825 55.6251 1.65146 54.5338C0.986198 53.2734 -0.0992267 52.0829 0.0058144 50.5715C0.058335 49.4977 0.93951 48.7041 1.82652 48.2372C3.57721 47.3035 5.5905 47.0059 7.53376 46.7083C19.5255 44.7306 30.8976 40.0071 40.7618 32.907Z" fill="#AA0000"/>
<path id="Vector_7" d="M50.3439 35.1887C52.0045 34.0791 54.014 33.6161 55.9928 33.8874C56.8726 33.9293 57.7425 34.0923 58.5779 34.3718C59.7482 34.6402 60.8728 35.0787 61.9159 35.6731C61.9159 37.3538 61.9159 39.0344 61.9159 40.7151C60.9388 39.9588 59.8553 39.3512 58.7005 38.9119C57.6092 38.5092 56.3662 38.1708 55.2516 38.5384C54.9429 38.6097 54.6738 38.7979 54.5008 39.0634C54.3278 39.3289 54.2643 39.651 54.3238 39.9623C54.6589 40.59 55.2043 41.0796 55.8644 41.3453C57.5832 42.0786 59.2058 43.0193 60.6963 44.1464C61.2133 44.591 61.6211 45.1485 61.8882 45.7759C62.1554 46.4033 62.2747 47.0837 62.2369 47.7645C62.269 48.5159 62.1279 49.2647 61.8243 49.9528C61.5207 50.6409 61.0629 51.2499 60.4862 51.7327C58.991 52.8816 57.1547 53.4979 55.2691 53.4834C52.7528 53.5505 50.2571 53.0121 47.9921 51.9136C47.9921 50.2155 47.9921 48.5115 47.9921 46.8133C49.3123 47.6989 50.7609 48.376 52.2871 48.8207C52.8071 48.9821 53.3551 49.0328 53.8959 48.9694C54.4366 48.9061 54.9581 48.7302 55.4267 48.4531C55.7535 48.2664 55.8294 47.8695 55.9344 47.5427C55.6426 46.7316 54.7673 46.3756 54.0612 46.0372C52.4762 45.4504 51.0154 44.5715 49.7545 43.4461C47.4728 41.2345 47.782 37.0211 50.3439 35.1887Z" fill="#AA0000"/>
<path id="Vector_8" d="M71.9648 34.8795C74.2867 34.5458 76.655 34.9306 78.7517 35.9824C79.9534 36.6116 80.9975 37.5042 81.8059 38.5935C82.6143 39.6828 83.1661 40.9407 83.4202 42.2732C83.7649 44.2378 83.5044 46.2607 82.6732 48.0738C81.9761 49.4111 80.9763 50.567 79.7534 51.4495C78.5305 52.3319 77.1184 52.9165 75.6296 53.1566C73.1463 53.6099 70.5827 53.2132 68.3526 52.0304C66.2497 50.8793 64.6731 48.9598 63.9525 46.6733C63.6004 45.4451 63.5026 44.1579 63.6651 42.8906C63.8277 41.6232 64.2472 40.4024 64.8979 39.3029C65.6756 38.0892 66.7118 37.0624 67.9325 36.2957C69.1531 35.529 70.5281 35.0414 71.959 34.8678L71.9648 34.8795ZM72.3442 40.2424C69.6423 41.1644 69.0821 45.1327 71.0778 47.0117C71.7549 47.6619 72.6572 48.0249 73.5959 48.0249C74.5346 48.0249 75.4369 47.6619 76.114 47.0117C76.5189 46.6029 76.8299 46.1108 77.0254 45.5696C77.2209 45.0285 77.2962 44.4512 77.2461 43.878C77.2641 43.172 77.0854 42.475 76.7298 41.8649C76.3743 41.2547 75.8559 40.7556 75.2328 40.4233C74.3303 39.9946 73.2964 39.9339 72.35 40.2541L72.3442 40.2424Z" fill="#AA0000"/>
<path id="Vector_9" d="M106.903 35.0371H125.822C125.822 36.601 125.822 38.1649 125.822 39.7347C123.721 39.7347 121.62 39.7347 119.519 39.7347V53.1041H113.164C113.164 48.6535 113.164 44.197 113.164 39.7347H106.897C106.909 38.1649 106.897 36.601 106.903 35.0371Z" fill="#AA0000"/>
<path id="Vector_10" d="M128.133 35.0371H134.272C134.272 37.2488 134.272 39.4721 134.272 41.6897H141.607V35.0371H147.758C147.758 41.1061 147.758 47.1751 147.758 53.2442H141.607V46.5274H134.272C134.272 48.7683 134.272 51.0091 134.272 53.25H128.133V35.0371Z" fill="#AA0000"/>
<path id="Vector_11" d="M85.4918 35.2179H91.7418C91.7418 38.2291 91.7418 41.2364 91.7418 44.2398C91.6552 45.1481 91.7687 46.0644 92.0744 46.9242C92.2446 47.3234 92.5122 47.6736 92.8527 47.9427C93.1932 48.2118 93.5957 48.3913 94.0235 48.4648C94.537 48.5932 95.0713 48.6159 95.594 48.5316C96.1166 48.4474 96.6166 48.2578 97.0638 47.9746C97.4567 47.6131 97.765 47.1694 97.9667 46.6752C98.1684 46.1809 98.2587 45.6482 98.231 45.1151C98.231 41.818 98.231 38.5209 98.231 35.2238H104.481C104.481 37.879 104.481 40.5342 104.481 43.1894C104.481 45.0976 104.557 47.0759 103.792 48.8733C103.422 49.7742 102.86 50.5844 102.147 51.2481C101.434 51.9119 100.586 52.4136 99.6607 52.7189C97.2427 53.4819 94.6763 53.6501 92.1794 53.2091C90.2537 52.8882 88.3104 52.042 87.0966 50.4781C85.919 48.8201 85.3519 46.8055 85.4918 44.7767C85.4918 41.5826 85.4918 38.3964 85.4918 35.2179Z" fill="#AA0000"/>
<path id="Vector_12" d="M29.5865 49.4043C33.5775 47.5034 37.355 45.1834 40.8551 42.4833C40.8551 43.3295 40.9718 44.1931 40.931 45.0276C38.0599 48.6049 34.4243 51.4935 30.6253 54.032C25.0056 57.7376 18.919 60.6729 12.7566 63.369C12.2179 63.6887 11.6075 63.868 10.9815 63.8904C10.3554 63.9129 9.73378 63.7777 9.17357 63.4974C8.53748 62.9488 7.95976 62.3302 7.33535 61.7467C6.80856 61.3156 6.36548 60.7914 6.02817 60.2002C5.8854 59.908 5.83953 59.5778 5.89726 59.2577C5.95498 58.9377 6.11327 58.6443 6.34912 58.4204C7.23459 57.7055 8.27961 57.215 9.39532 56.9906C16.2697 54.8957 23.109 52.5731 29.5865 49.4043Z" fill="#AA0000"/>
<path id="Vector_13" d="M16.8883 63.6432C25.3266 60.8188 33.6715 57.3233 40.861 52.0012C40.861 52.9349 41.0711 53.8744 41.0127 54.8081C38.4939 57.6474 35.6161 60.1466 32.4519 62.2427C28.5946 64.8212 24.5555 67.1167 20.3663 69.1112C19.8252 69.5024 19.1781 69.7202 18.5106 69.7356C17.6217 69.6594 16.7751 69.3224 16.0771 68.7669C15.2236 68.219 14.4191 67.5981 13.6729 66.9112C13.432 66.6694 13.2967 66.3421 13.2967 66.0008C13.2967 65.6595 13.432 65.3322 13.6729 65.0905C14.5424 64.2093 15.797 64.04 16.8883 63.6432Z" fill="#AA0000"/>
<path id="Vector_14" d="M47.9921 55.3859H53.9153V72.8927H47.9921V55.3859Z" fill="#AA0000"/>
<path id="Vector_15" d="M57.0782 55.38H62.5987C65.2072 58.2978 67.8099 61.2156 70.4476 64.1043C70.4768 61.1865 70.4476 58.2686 70.4476 55.38H76.4524C76.4524 61.2156 76.4524 67.0512 76.4524 72.8869C74.6084 72.8869 72.7527 72.9335 70.9144 72.8518C68.3059 69.9807 65.7557 67.0454 63.1064 64.2151V72.8869H57.0782V55.38Z" fill="#AA0000"/>
<path id="Vector_16" d="M79.2593 55.3859C82.5915 55.4325 85.9236 55.275 89.2499 55.4851C91.6523 55.6489 93.9029 56.7189 95.5465 58.4787C96.9194 60.0654 97.6681 62.0974 97.6531 64.1955C97.6381 66.2937 96.8603 68.3147 95.4648 69.8815C93.8338 71.601 91.6147 72.6428 89.2499 72.7993C85.9236 73.0094 82.5915 72.8577 79.2593 72.9044C79.2593 67.0688 79.2593 61.2331 79.2593 55.3975V55.3859ZM85.235 59.8735C85.235 62.7212 85.235 65.569 85.235 68.4168H87.6918C88.3216 68.4001 88.9381 68.2323 89.4896 67.9277C90.041 67.623 90.5112 67.1904 90.8605 66.6661C91.499 65.6181 91.7237 64.3696 91.4908 63.1647C91.3737 62.4759 91.079 61.8294 90.6359 61.2891C90.1928 60.7488 89.6166 60.3333 88.964 60.0835C87.7618 59.6925 86.4722 59.9085 85.235 59.8618V59.8735Z" fill="#AA0000"/>
<path id="Vector_17" d="M99.4973 55.3859H105.397C105.397 61.2215 105.397 67.0571 105.397 72.8927H99.4973C99.4973 67.0532 99.4973 61.2176 99.4973 55.3859Z" fill="#AA0000"/>
<path id="Vector_18" d="M113.503 55.3859C115.837 55.3859 118.171 55.3859 120.505 55.3859C122.682 61.2215 124.9 67.0571 127.082 72.8927C125.267 72.8927 123.447 72.8927 121.632 72.8927L121.533 72.8285C121.165 71.8598 120.832 70.8794 120.488 69.9107C118.078 69.9107 115.674 69.9107 113.269 69.9107C112.913 70.8969 112.54 71.8773 112.166 72.8577C111.921 72.9861 111.624 72.8985 111.355 72.9277C109.756 72.9277 108.157 72.9277 106.552 72.9277C108.887 67.0921 111.2 61.2565 113.491 55.4209L113.503 55.3859ZM116.934 60.1477C116.17 62.0151 115.51 63.9234 114.734 65.7791C116.164 65.8725 117.605 65.7791 119.041 65.8199C118.36 63.902 117.664 61.9996 116.952 60.1127L116.934 60.1477Z" fill="#AA0000"/>
<path id="Vector_19" d="M128.261 55.3858C130.111 55.3858 131.955 55.3858 133.799 55.3858C136.402 58.3036 139.051 61.2214 141.654 64.1392C141.654 61.2214 141.654 58.3036 141.654 55.345H147.694V72.8518C145.855 72.8518 144.017 72.8518 142.185 72.8518C139.53 69.9632 136.933 67.0162 134.307 64.0984C134.248 67.0162 134.307 69.934 134.307 72.8226H128.267C128.267 67.0298 128.265 61.2176 128.261 55.3858Z" fill="#AA0000"/>
<path id="Vector_20" d="M156.47 55.3859H162.306C164.028 55.4734 165.877 55.5259 167.36 56.518C167.949 56.889 168.427 57.4125 168.743 58.0329C169.059 58.6533 169.202 59.3476 169.156 60.0424C169.11 60.7372 168.877 61.4066 168.481 61.9799C168.086 62.5531 167.543 63.0089 166.91 63.299C168.159 63.7541 169.402 64.5361 169.916 65.8258C170.224 66.5989 170.354 67.4312 170.297 68.2614C170.241 69.0916 169.999 69.8985 169.589 70.6227C168.719 72.0115 167.039 72.5776 165.504 72.7643C162.499 73.0153 159.476 72.8402 156.465 72.8927V55.3859H156.47ZM160.374 58.4904C160.374 59.7509 160.374 61.0172 160.374 62.2836C161.436 62.2836 162.504 62.2836 163.572 62.2836C163.922 62.3128 164.272 62.2416 164.582 62.0782C164.892 61.9148 165.149 61.6662 165.323 61.3615C165.743 60.3928 165.411 58.9398 164.273 58.6538C163 58.3562 161.682 58.5429 160.386 58.4962L160.374 58.4904ZM160.386 65.464C160.386 66.8587 160.386 68.2534 160.386 69.654C161.676 69.654 162.971 69.654 164.267 69.654C164.652 69.7043 165.044 69.6432 165.396 69.4779C165.749 69.3125 166.046 69.0498 166.253 68.7208C166.461 68.3918 166.57 68.0103 166.567 67.6214C166.565 67.2324 166.451 66.8523 166.239 66.5261C166 66.1849 165.678 65.9102 165.303 65.7275C164.929 65.5448 164.514 65.4601 164.098 65.4815C162.86 65.4406 161.623 65.464 160.386 65.4581V65.464Z" fill="#AA0000"/>
<path id="Vector_21" d="M200.488 55.3859H204.147V72.5659H200.488V55.3859Z" fill="#AA0000"/>
<path id="Vector_22" d="M172.886 61.9684C174.896 60.8986 177.183 60.4651 179.445 60.7254C180.496 60.8772 181.639 61.309 182.17 62.2719C182.941 63.5557 182.684 65.1021 182.754 66.526C182.789 67.6932 182.69 68.8078 182.801 69.9457C183.157 70.4592 183.869 70.0799 184.341 69.9457C184.341 70.5584 184.388 71.177 184.388 71.7897C183.25 72.3325 182.025 72.9569 180.723 72.7468C180.397 72.6679 180.098 72.5019 179.859 72.2666C179.619 72.0312 179.448 71.7353 179.363 71.4104C178.285 72.2367 176.97 72.6967 175.611 72.7235C174.658 72.7575 173.73 72.4207 173.02 71.7839C172.554 71.2744 172.281 70.6176 172.249 69.9278C172.217 69.238 172.428 68.5588 172.845 68.0083C173.619 67.1767 174.594 66.5579 175.675 66.2109C176.837 65.7922 178.02 65.4319 179.218 65.1313C179.256 64.8384 179.224 64.5404 179.122 64.2629C179.02 63.9854 178.853 63.7367 178.634 63.5382C178.281 63.2928 177.88 63.1252 177.458 63.0467C177.035 62.9683 176.601 62.9806 176.183 63.083C174.966 63.3466 173.835 63.9103 172.892 64.7228C172.892 63.8066 172.892 62.8904 172.892 61.9743L172.886 61.9684ZM176.341 68.3292C175.815 68.9653 175.839 70.22 176.726 70.5118C177.582 70.6395 178.454 70.4304 179.159 69.9282C179.159 68.9186 179.159 67.9149 179.159 66.9053C178.156 67.2496 177.029 67.4948 176.335 68.3234L176.341 68.3292Z" fill="#AA0000"/>
<path id="Vector_23" d="M24.352 69.0061C30.3372 67.299 35.9421 64.4669 40.8668 60.6612C40.8668 61.6007 40.8668 62.5461 40.8668 63.4856C38.0249 66.6836 34.5644 69.2454 31.0455 71.6555C30.0884 72.2391 29.2131 73.0444 28.081 73.2837C26.7021 73.589 25.2601 73.4118 23.9961 72.7818C23.2115 72.518 22.5122 72.0485 21.9711 71.4221C21.8451 71.2063 21.8058 70.9506 21.861 70.7069C21.9163 70.4631 22.062 70.2495 22.2687 70.1091C22.8745 69.594 23.5855 69.2176 24.352 69.0061Z" fill="#AA0000"/>
<path id="Vector_24" d="M189.687 62.4761C190.692 61.4585 192.045 60.86 193.474 60.8013C194.055 60.7398 194.641 60.8131 195.189 61.0155C195.737 61.2179 196.23 61.544 196.631 61.9684C197.512 62.9721 197.693 64.3727 197.646 65.6624C197.646 67.9558 197.646 70.255 197.646 72.5484H194.034C194.034 70.1266 194.034 67.7048 194.034 65.2889C194.034 64.5011 193.766 63.4974 192.902 63.2698C191.572 62.9488 190.323 64.0051 189.739 65.108C189.704 67.5823 189.739 70.0624 189.739 72.5426H186.156V61.0756H189.687C189.681 61.5191 189.681 61.9976 189.687 62.4761Z" fill="#AA0000"/>
<path id="Vector_25" d="M208.524 61.0756C210 61.0756 211.471 61.0756 212.947 61.0756C211.483 62.9021 209.971 64.6937 208.536 66.5435C208.888 67.1176 209.277 67.6674 209.703 68.1892C210.8 69.6714 211.899 71.1517 213 72.6301C211.588 72.6301 210.176 72.6301 208.763 72.6301C207.269 70.6187 205.76 68.623 204.235 66.6428C205.705 64.7695 207.094 62.9021 208.524 61.0756Z" fill="#AA0000"/>
<path id="Vector_26" d="M36.7936 70.821C38.2308 69.9589 39.5968 68.9831 40.8785 67.9032C40.8493 69.4964 40.9135 71.0895 40.9427 72.6768C40.8717 73.2301 40.6414 73.7508 40.2798 74.1756C39.9183 74.6004 39.441 74.911 38.9061 75.0694C37.3895 75.503 35.7975 75.6065 34.2376 75.3728C33.3797 75.2386 32.446 75.2328 31.7049 74.7309C31.4481 74.6025 31.489 74.2991 31.4832 74.0598C31.7178 73.8082 31.9894 73.5937 32.2885 73.4237C33.8524 72.6417 35.3055 71.7197 36.7936 70.821Z" fill="#AA0000"/>
</g>
<defs>
<clipPath id="clip0_4_1205">
<rect width="213" height="75.4662" fill="white"/>
</clipPath>
</defs>
</svg>
