<svg width="68" height="24" viewBox="0 0 68 24" fill="none" xmlns="http://www.w3.org/2000/svg">
<path d="M5.10342 0.45067C5.45 0.0579514 6.01489 0.0146285 6.50495 0C6.88416 0.0270065 7.26788 0.0461361 7.63697 0.142347C7.75624 0.194109 7.93291 0.240245 7.93854 0.398345C7.81701 0.64928 7.51994 0.713421 7.30051 0.849578C6.49088 1.32894 5.66156 1.79424 4.94701 2.41201C4.9577 2.13239 4.91606 1.85444 4.93069 1.57481C4.93857 1.19954 4.82886 0.76012 5.10342 0.45067Z" fill="#AA0000"/>
<path d="M8.64117 0.850502C9.32758 0.466785 10.1687 0.709843 10.7837 1.11944C10.9474 1.22184 11.0909 1.45252 10.9446 1.62863C10.742 1.86437 10.4416 1.9949 10.1473 2.07479C8.26927 2.61099 6.49978 3.51514 4.95535 4.70905C4.95253 4.40804 4.95141 4.10703 4.95591 3.80602C6.0176 2.63124 7.31898 1.70796 8.64117 0.850502Z" fill="#AA0000"/>
<path d="M11.7272 1.88936C12.112 1.7487 12.5419 1.91074 12.8474 2.15549C13.0685 2.32934 13.3155 2.46944 13.5237 2.66017C13.6722 2.79858 13.7898 3.03432 13.6598 3.22393C13.4516 3.52382 13.0707 3.60765 12.7427 3.71174C9.99482 4.61589 7.27842 5.74679 4.93673 7.47295C4.91704 7.17644 4.91648 6.87881 4.88159 6.58342C6.15146 5.13295 7.76509 4.03581 9.43049 3.08946C10.1816 2.66242 10.9564 2.27871 11.7272 1.88936Z" fill="#AA0000"/>
<path d="M14.0542 3.77859C14.3913 3.64131 14.8273 3.62949 15.1114 3.88549C15.3449 4.1218 15.5925 4.3446 15.8288 4.57753C15.979 4.75082 16.1461 4.99107 16.0454 5.2285C15.9239 5.51657 15.6071 5.6471 15.3365 5.75625C13.0246 6.46405 10.7178 7.22473 8.54041 8.28586C7.26942 8.90363 6.04625 9.62774 4.93167 10.4976C4.93336 10.2286 4.9193 9.96026 4.91479 9.69132C6.08395 8.24141 7.61938 7.13865 9.20657 6.18836C10.76 5.2662 12.3967 4.49314 14.0542 3.77859Z" fill="#AA0000"/>
<path d="M15.825 6.17092C16.0855 6.05276 16.3657 5.90873 16.6605 5.9785C17.0217 6.06064 17.2692 6.37122 17.4307 6.68573C17.6288 7.06776 17.9528 7.42391 17.9382 7.8802C17.9382 8.22003 17.6738 8.48841 17.3941 8.64482C16.8129 8.96553 16.1445 9.05723 15.4981 9.15626C11.72 9.80554 8.06904 11.2841 4.96724 13.5465C4.97005 13.2376 4.93179 12.9298 4.93066 12.6215C6.16227 11.3055 7.63075 10.2331 9.16562 9.29917C11.2699 8.0293 13.5227 7.02275 15.825 6.17092Z" fill="#AA0000"/>
<path d="M12.9644 10.4656C13.001 10.7694 12.9813 11.0766 13.0083 11.3815C11.6867 12.7999 10.0894 13.9331 8.42566 14.9155C6.43562 16.0773 4.32349 17.0197 2.16297 17.817C1.92892 17.9115 1.69992 18.055 1.43717 18.0392C1.01745 18.0499 0.698996 17.6971 0.524579 17.35C0.314154 16.9499 -0.0284907 16.5713 0.00189155 16.0908C0.0193332 15.7487 0.2984 15.4961 0.58028 15.3436C1.14123 15.0482 1.77757 14.9531 2.39646 14.8575C6.1875 14.2155 9.85306 12.7352 12.9644 10.4656Z" fill="#AA0000"/>
<path d="M16.0106 11.1913C16.5209 10.8137 17.1882 10.7181 17.8071 10.7766C18.0867 10.7867 18.363 10.8458 18.6297 10.9302C18.9926 11.0416 19.3718 11.1311 19.6919 11.3449C19.6886 11.8794 19.6886 12.4139 19.6919 12.9484C19.3853 12.7025 19.032 12.5197 18.6679 12.3745C18.3225 12.2462 17.9354 12.1393 17.5725 12.2563C17.3834 12.3137 17.2158 12.5022 17.2777 12.7098C17.3615 12.9236 17.5742 13.0446 17.766 13.1492C18.3022 13.4002 18.8418 13.6652 19.3043 14.0405C19.6464 14.3133 19.8062 14.7612 19.7943 15.1905C19.8118 15.6648 19.6154 16.1509 19.2435 16.453C18.7822 16.8328 18.1751 17.0016 17.5854 17.0123C16.7887 17.0416 15.9892 16.8548 15.2708 16.5144C15.2753 15.9731 15.2736 15.4319 15.2719 14.8906C15.6899 15.164 16.1473 15.3807 16.6284 15.5174C16.9587 15.617 17.3311 15.5815 17.6271 15.4003C17.7312 15.3401 17.7565 15.2158 17.7891 15.1106C17.6968 14.8518 17.4206 14.7426 17.1927 14.6318C16.6987 14.4298 16.2126 14.18 15.8244 13.8075C15.098 13.1161 15.1959 11.7742 16.0106 11.1913Z" fill="#AA0000"/>
<path d="M22.8877 11.0923C23.6203 11.0062 24.3911 11.0917 25.0465 11.4473C25.7988 11.8563 26.3946 12.5906 26.5325 13.448C26.6129 14.0675 26.5876 14.7274 26.295 15.2923C25.868 16.1526 24.9953 16.7529 24.0546 16.9088C23.2737 17.0337 22.4365 16.9465 21.7411 16.5504C21.0895 16.179 20.5488 15.5753 20.3412 14.8462C20.1291 14.0686 20.2084 13.1937 20.6411 12.5033C21.1233 11.7207 21.9807 11.2053 22.8877 11.0923ZM23.0092 12.8021C22.1507 13.0947 21.9723 14.3567 22.607 14.9547C23.0256 15.3823 23.7936 15.3807 24.2082 14.9491C24.4749 14.6942 24.5947 14.3162 24.5689 13.9527C24.5869 13.5031 24.3264 13.0604 23.9275 12.8539C23.6433 12.7177 23.3069 12.6975 23.0092 12.8021Z" fill="#AA0000"/>
<path d="M33.9981 11.1431C36.0039 11.1436 38.0091 11.1425 40.0149 11.1436C40.0138 11.6421 40.0127 12.1401 40.016 12.6385C39.3471 12.6346 38.6787 12.6374 38.0103 12.6369C38.0108 14.0541 38.0108 15.472 38.0103 16.8893C37.3368 16.8893 36.6627 16.8893 35.9893 16.8893C35.9887 15.472 35.9887 14.0541 35.9893 12.6369C35.3248 12.6363 34.6603 12.6374 33.9958 12.6363C34.0009 12.1384 33.997 11.641 33.9981 11.1431Z" fill="#AA0000"/>
<path d="M40.7497 11.1431C41.4001 11.1431 42.0511 11.1431 42.702 11.1436C42.7015 11.8486 42.7015 12.5542 42.702 13.2597C43.4802 13.2603 44.2577 13.2597 45.0358 13.2597C45.0364 12.5542 45.0364 11.8492 45.0364 11.1436C45.6879 11.1431 46.34 11.1431 46.9916 11.1436C46.9904 13.074 46.9899 15.0039 46.9916 16.9343C46.34 16.9348 45.6879 16.9348 45.0364 16.9343C45.0364 16.222 45.0364 15.5097 45.0364 14.7974C44.2583 14.7957 43.4802 14.7974 42.702 14.7963C42.702 15.5091 42.7015 16.222 42.702 16.9348C42.0511 16.9348 41.4001 16.9348 40.7497 16.9343C40.7503 15.0039 40.7503 13.0735 40.7497 11.1431Z" fill="#AA0000"/>
<path d="M27.1901 11.1993C27.8524 11.1987 28.5151 11.2004 29.1779 11.1987C29.1762 12.1552 29.1774 13.1117 29.1774 14.0676C29.1751 14.354 29.1605 14.6533 29.282 14.9206C29.3889 15.176 29.6297 15.3667 29.9032 15.4112C30.2261 15.4736 30.5952 15.4556 30.8686 15.2548C31.1455 15.0443 31.2327 14.6775 31.2417 14.3467C31.2405 13.2974 31.2417 12.2486 31.2411 11.1993C31.9033 11.1987 32.5661 11.2004 33.2289 11.1987C33.2272 12.0432 33.2283 12.8872 33.2283 13.7311C33.2345 14.3382 33.252 14.9684 33.01 15.5395C32.7844 16.1201 32.2797 16.5623 31.6957 16.7626C30.9339 17.0231 30.1057 17.0394 29.3158 16.919C28.7042 16.8166 28.0853 16.5528 27.6988 16.0498C27.2993 15.54 27.1727 14.8699 27.1896 14.2358C27.1907 13.2237 27.1901 12.2115 27.1901 11.1993Z" fill="#AA0000"/>
<path d="M9.40913 15.7176C10.67 15.101 11.8892 14.3864 12.9937 13.5166C12.9897 13.7861 13.0302 14.0601 13.0173 14.3257C12.1036 15.4639 10.9479 16.381 9.73995 17.1884C7.9519 18.3671 6.017 19.3016 4.05791 20.1568C3.71076 20.334 3.26797 20.4066 2.91801 20.1968C2.71434 20.0235 2.53148 19.8266 2.33343 19.6465C2.17421 19.5025 2.01498 19.3489 1.91652 19.1553C1.82425 18.968 1.86588 18.7294 2.02004 18.5876C2.28505 18.3367 2.64513 18.2304 2.98778 18.1325C5.17361 17.459 7.34876 16.7197 9.40913 15.7176Z" fill="#AA0000"/>
<path d="M5.37116 20.2409C8.0538 19.3412 10.7083 18.2306 12.9954 16.5376C13.0016 16.8352 13.0624 17.1329 13.0432 17.4299C12.2589 18.347 11.312 19.1133 10.3207 19.7953C9.10199 20.628 7.80174 21.3324 6.47786 21.98C6.29951 22.0891 6.10202 22.1893 5.88653 22.1786C5.6069 22.151 5.33121 22.0503 5.11291 21.8708C4.86085 21.6671 4.56434 21.5147 4.34773 21.2699C4.19525 21.1152 4.18681 20.8389 4.35279 20.691C4.62567 20.4198 5.02345 20.3663 5.37116 20.2409Z" fill="#AA0000"/>
<path d="M15.2622 17.6133C15.8907 17.6133 16.5191 17.6133 17.1476 17.6138C17.1476 19.4689 17.1476 21.3244 17.1476 23.1794C16.5191 23.18 15.8907 23.1794 15.2622 23.18C15.2628 21.3244 15.2628 19.4689 15.2622 17.6133Z" fill="#AA0000"/>
<path d="M18.1525 17.6125C18.7376 17.6142 19.3227 17.6131 19.9079 17.6131C20.7383 18.5398 21.5654 19.4692 22.4037 20.388C22.4133 19.4631 22.4054 18.5381 22.4077 17.6131C23.044 17.6137 23.6809 17.6125 24.3173 17.6137C24.3161 19.4687 24.3161 21.3243 24.3173 23.1793C23.731 23.1719 23.1419 23.1956 22.5573 23.168C21.7269 22.2548 20.9167 21.322 20.0727 20.4212C20.0744 21.3406 20.0727 22.2599 20.0733 23.1793C19.433 23.1804 18.7927 23.1787 18.1525 23.1804C18.1536 21.3243 18.1536 19.4687 18.1525 17.6125Z" fill="#AA0000"/>
<path d="M25.2074 17.6137C26.2663 17.6283 27.3274 17.5788 28.384 17.6457C29.1408 17.6969 29.8722 18.0385 30.387 18.5972C30.8568 19.0771 31.0841 19.759 31.056 20.424C31.0751 21.0851 30.8292 21.753 30.36 22.2233C29.8519 22.7713 29.1261 23.0937 28.3852 23.1466C27.3274 23.2141 26.2663 23.1646 25.2074 23.1793C25.2085 21.3243 25.2085 19.4687 25.2074 17.6137ZM27.1069 19.0377C27.1063 19.9435 27.1063 20.8494 27.1069 21.7552C27.3674 21.7541 27.6284 21.7569 27.8895 21.7558C28.2878 21.7485 28.676 21.5414 28.896 21.2078C29.1211 20.886 29.147 20.4735 29.0975 20.0955C29.0232 19.6594 28.7132 19.265 28.2929 19.1159C27.9109 18.9837 27.5018 19.0557 27.1069 19.0377Z" fill="#AA0000"/>
<path d="M31.635 17.6131C32.2601 17.6131 32.8852 17.6142 33.5103 17.6125C33.5091 19.4687 33.5091 21.3243 33.5103 23.1804C32.8852 23.1787 32.2601 23.1798 31.635 23.1798C31.6356 21.3243 31.6356 19.4687 31.635 17.6131Z" fill="#AA0000"/>
<path d="M36.0994 17.6138C36.8432 17.6149 37.5864 17.6093 38.3303 17.6166C39.0223 19.4733 39.7278 21.3244 40.4221 23.18C39.8449 23.176 39.2665 23.1861 38.6892 23.1755L38.6566 23.1563C38.5407 22.8474 38.4338 22.5357 38.3241 22.2252C37.5589 22.2207 36.7937 22.2252 36.0285 22.2223C35.9154 22.5363 35.7973 22.848 35.678 23.1591C35.5998 23.1996 35.5047 23.1726 35.4209 23.1811C34.9117 23.1794 34.4025 23.1777 33.8933 23.1822C34.6309 21.3272 35.3674 19.4711 36.0994 17.6138ZM37.1937 19.1166C36.9518 19.7107 36.7414 20.3178 36.4944 20.9092C36.9501 20.9379 37.4075 20.9148 37.8644 20.9215C37.6438 20.319 37.4205 19.7169 37.1937 19.1166Z" fill="#AA0000"/>
<path d="M40.7919 17.6142C41.3787 17.6148 41.9661 17.6086 42.5529 17.6176C43.3794 18.5527 44.2245 19.4721 45.0499 20.4083C45.0431 19.4766 45.0499 18.5448 45.0465 17.6125C45.6868 17.6142 46.3271 17.6125 46.9673 17.6137C46.9673 19.4687 46.9673 21.3243 46.9673 23.1793C46.3833 23.1804 45.7993 23.1776 45.2153 23.1809C44.3719 22.2627 43.5493 21.3259 42.7093 20.4049C42.6919 21.3293 42.7065 22.2548 42.702 23.1798C42.0657 23.1793 41.4288 23.1804 40.7924 23.1793C40.7936 21.3243 40.7941 19.4692 40.7919 17.6142Z" fill="#AA0000"/>
<path d="M49.7625 17.6137C50.3837 17.6125 51.0048 17.6137 51.6265 17.6125C52.174 17.6396 52.7614 17.6576 53.234 17.9726C53.8377 18.3519 53.9558 19.2841 53.5029 19.8226C53.3909 19.9548 53.2435 20.0504 53.0905 20.1281C53.4872 20.2738 53.8821 20.5231 54.0464 20.9315C54.2377 21.4188 54.2124 22.0039 53.9418 22.4574C53.6655 22.8996 53.1304 23.0797 52.6381 23.1399C51.6817 23.2181 50.7207 23.1635 49.7625 23.1793C49.7625 21.3243 49.7625 19.4687 49.7625 17.6137ZM51.0071 18.6005C51.0076 19.0028 51.0071 19.4051 51.0076 19.8074C51.3463 19.8057 51.685 19.8102 52.0243 19.8063C52.2387 19.8085 52.4823 19.7213 52.5757 19.5131C52.7102 19.2037 52.6033 18.7423 52.2415 18.6506C51.8369 18.5572 51.4178 18.6169 51.0071 18.6005ZM51.0076 20.8168C51.0076 21.2607 51.0065 21.7052 51.0082 22.1491C51.4189 22.1468 51.8308 22.1536 52.242 22.1468C52.4632 22.1238 52.7203 22.0765 52.8548 21.879C52.9802 21.6601 52.9791 21.376 52.8699 21.151C52.7349 20.9135 52.4463 20.8274 52.1892 20.8196C51.7953 20.8117 51.4015 20.819 51.0076 20.8168Z" fill="#AA0000"/>
<path d="M63.7614 17.6138C64.1496 17.6133 64.5378 17.6133 64.926 17.6133C64.9254 19.4351 64.926 21.2569 64.926 23.0787C64.5378 23.0776 64.1496 23.0776 63.7614 23.0787C63.7614 21.2569 63.7619 19.4351 63.7614 17.6138Z" fill="#AA0000"/>
<path d="M54.9843 19.7067C55.6195 19.3737 56.3589 19.2212 57.0734 19.3129C57.4065 19.3607 57.7705 19.4896 57.9399 19.8041C58.1852 20.212 58.1036 20.7043 58.1182 21.1566C58.1283 21.519 58.0968 21.8836 58.1334 22.2442C58.2465 22.4079 58.4732 22.2864 58.6223 22.242C58.6218 22.4383 58.637 22.6336 58.6381 22.8299C58.2757 23.0021 57.8853 23.1996 57.4717 23.1343C57.2534 23.0972 57.1055 22.9076 57.0391 22.7084C56.7015 22.9768 56.2739 23.1118 55.8457 23.1259C55.5509 23.1169 55.2353 23.0477 55.0226 22.8282C54.7261 22.5115 54.685 21.9668 54.9663 21.627C55.1942 21.344 55.5352 21.1859 55.866 21.0548C56.2323 20.9119 56.6148 20.8168 56.9935 20.7122C57.0064 20.5282 56.9597 20.3228 56.8084 20.2041C56.5907 20.0314 56.2913 20.0128 56.0275 20.0606C55.6404 20.1377 55.282 20.329 54.981 20.5811C54.9877 20.2896 54.9832 19.9982 54.9843 19.7067ZM56.0809 21.7277C55.9138 21.9303 55.9211 22.3292 56.2036 22.422C56.4748 22.4895 56.7465 22.3663 56.9761 22.2313C56.971 21.9111 56.9817 21.5904 56.9687 21.2703C56.6587 21.3868 56.3009 21.4599 56.0809 21.7277Z" fill="#AA0000"/>
<path d="M7.74493 21.9454C9.64608 21.412 11.433 20.4949 12.9966 19.292C12.9915 19.5913 12.9983 19.8912 12.9915 20.1905C12.0885 21.2066 10.9874 22.0219 9.86776 22.782C9.56337 22.9699 9.28543 23.2248 8.9259 23.3002C8.49042 23.4155 8.02681 23.3244 7.62397 23.1404C7.38935 23.0352 7.13166 22.926 6.97975 22.7083C6.87904 22.5705 6.95387 22.387 7.07484 22.2908C7.26782 22.1265 7.50244 22.0135 7.74493 21.9454Z" fill="#AA0000"/>
<path d="M60.326 19.8681C60.6489 19.5587 61.076 19.3398 61.5306 19.3364C61.8941 19.3168 62.2924 19.413 62.536 19.7022C62.8145 20.0217 62.873 20.4673 62.8578 20.8764C62.8567 21.6061 62.8562 22.3364 62.8578 23.0667C62.4719 23.0678 62.0859 23.0662 61.7005 23.0678C61.6983 22.2982 61.7078 21.5285 61.696 20.7594C61.6938 20.5101 61.6105 20.1894 61.3359 20.1185C60.9128 20.0155 60.515 20.3509 60.3294 20.702C60.3198 21.4897 60.3271 22.2785 60.326 23.0667C59.9518 23.0673 59.5777 23.0667 59.2041 23.0667C59.2047 21.8492 59.2047 20.6316 59.2041 19.4135C59.5777 19.4141 59.9518 19.413 60.326 19.4141C60.3243 19.5654 60.3249 19.7168 60.326 19.8681Z" fill="#AA0000"/>
<path d="M66.3175 19.4136C66.7862 19.4147 67.2548 19.4119 67.7235 19.4153C67.2576 19.9965 66.7783 20.5676 66.3214 21.1555C66.4131 21.3463 66.574 21.501 66.6922 21.6788C67.0416 22.1497 67.3904 22.6206 67.741 23.0904C67.2914 23.0859 66.8424 23.0904 66.3934 23.0882C65.9191 22.4496 65.437 21.8166 64.9542 21.1848C65.4145 20.5991 65.8629 20.0038 66.3175 19.4136Z" fill="#AA0000"/>
<path d="M11.7008 22.5221C12.1481 22.2351 12.5999 21.9476 12.9966 21.592C12.9881 22.0978 13.009 22.6037 13.0174 23.1089C12.9977 23.4735 12.6984 23.7548 12.3704 23.8696C11.8972 24.0356 11.3846 24.0119 10.8929 23.9669C10.62 23.9236 10.3235 23.9225 10.0866 23.7627C10.0045 23.7216 10.0186 23.6254 10.0157 23.55C10.0951 23.4746 10.1738 23.3958 10.2734 23.3475C10.7657 23.1016 11.2322 22.809 11.7008 22.5221Z" fill="#AA0000"/>
</svg>
