<svg width="177" height="68" viewBox="0 0 177 68" fill="none" xmlns="http://www.w3.org/2000/svg">
<g id="Standard Chartered" clip-path="url(#clip0_4_1180)">
<path id="Vector" fill-rule="evenodd" clip-rule="evenodd" d="M35 30H33.17C31.95 30 31.44 29.22 31.44 28.09V20H35V17.72H31.4V13.42H28.84V28C28.84 31.08 30.38 32.39 33.13 32.39H35V30Z" fill="#0072AA"/>
<path id="Vector_2" fill-rule="evenodd" clip-rule="evenodd" d="M10.28 25.47V25.57C10.28 30.81 14.56 32.68 18.56 32.68C22.56 32.68 26.4 30.81 26.4 26.68C26.4 22.55 23.1 21.57 20 20.86L18.92 20.63C16.14 20.02 13.74 19.51 13.74 17.44C13.74 14.5 16.74 14.16 18.06 14.16C20.92 14.16 22.59 15.54 22.86 18.16V18.25H25.57V18.14C25.42 14.09 22.72 11.78 18.17 11.78C14.55 11.78 10.89 13.6 10.89 17.68C10.89 21.32 13.89 22.28 17.32 23.02L17.99 23.17C20.85 23.78 23.55 24.35 23.55 26.8C23.55 29.8 20.48 30.29 18.64 30.29C17.244 30.3321 15.8687 29.9447 14.7 29.18C14.145 28.7723 13.6987 28.2343 13.4005 27.6135C13.1023 26.9927 12.9613 26.3081 12.99 25.62V25.52L10.28 25.47Z" fill="#0072AA"/>
<path id="Vector_3" fill-rule="evenodd" clip-rule="evenodd" d="M50.4 30.05L50.26 30.11C50.0391 30.1923 49.8057 30.2363 49.57 30.24C48.96 30.24 48.93 29.9 48.93 28.74V21.37C48.93 18.65 47.14 17.37 43.45 17.37C41.21 17.37 37.45 18 37.27 22.27V22.38H39.83V22.28C39.92 20.5 41.03 19.65 43.3 19.65C45.4 19.65 46.38 20.38 46.38 21.94C46.38 23.24 45.06 23.42 43.25 23.68C42.73 23.75 42.2 23.83 41.64 23.94C39.15 24.42 36.7 25.16 36.7 28.45C36.7 31.03 38.52 32.58 41.55 32.58C42.485 32.6145 43.4164 32.4455 44.2798 32.0847C45.1431 31.7238 45.9177 31.1797 46.55 30.49C46.5275 30.7693 46.5658 31.0501 46.6623 31.3132C46.7587 31.5763 46.911 31.8154 47.1087 32.014C47.3063 32.2126 47.5447 32.366 47.8073 32.4637C48.0699 32.5615 48.3506 32.6011 48.63 32.58C49.2413 32.6081 49.848 32.4624 50.38 32.16V30.16L50.4 30.05ZM42.09 30.24C41.29 30.24 39.42 30.04 39.42 28.24C39.42 26.44 40.84 26 42.22 25.75C42.64 25.68 43.09 25.62 43.51 25.57C44.4958 25.5196 45.463 25.282 46.36 24.87V27.1C46.36 28.31 45.2 30.23 42.09 30.23V30.24Z" fill="#0072AA"/>
<path id="Vector_4" fill-rule="evenodd" clip-rule="evenodd" d="M52.67 17.71V32.24H55.24V24.05C55.24 21.31 56.78 19.66 59.37 19.66C59.7445 19.63 60.121 19.6815 60.4736 19.811C60.8263 19.9404 61.1467 20.1448 61.4128 20.4099C61.6789 20.6751 61.8844 20.9947 62.0151 21.3469C62.1458 21.6991 62.1987 22.0755 62.17 22.45V32.24H64.74V22.72C64.74 19.12 63.09 17.38 59.74 17.38C58.8245 17.3201 57.9101 17.5132 57.097 17.9383C56.2838 18.3634 55.6034 19.004 55.13 19.79V17.71H52.67Z" fill="#0072AA"/>
<path id="Vector_5" fill-rule="evenodd" clip-rule="evenodd" d="M78.37 12.25V19.48C77.8237 18.7991 77.1262 18.2548 76.333 17.8903C75.5397 17.5257 74.6725 17.351 73.8 17.38C69.8 17.38 67.15 20.38 67.15 24.93C67.0937 26.8528 67.6815 28.7394 68.82 30.29C69.4206 31.0318 70.1841 31.6253 71.0512 32.0242C71.9184 32.4231 72.8659 32.6167 73.82 32.59C74.6896 32.6641 75.5635 32.5092 76.3547 32.1407C77.1459 31.7723 77.8269 31.2032 78.33 30.49V32.24H81V12.24L78.37 12.25ZM74.19 30.25C71.19 30.25 69.86 27.65 69.86 25.06C69.86 23.43 70.27 19.62 74.05 19.62C78.14 19.62 78.46 23.7 78.46 24.95C78.46 27.52 77.34 30.25 74.19 30.25Z" fill="#0072AA"/>
<path id="Vector_6" fill-rule="evenodd" clip-rule="evenodd" d="M97.21 30.1H97.07C96.8541 30.1889 96.6235 30.2364 96.39 30.24C95.76 30.24 95.74 29.9 95.74 28.74V21.37C95.74 18.65 93.95 17.37 90.27 17.37C88.03 17.37 84.27 18 84.09 22.27V22.38H86.66V22.28C86.75 20.5 87.85 19.65 90.13 19.65C92.23 19.65 93.2 20.39 93.2 21.94C93.2 23.24 91.89 23.42 90.08 23.68C89.55 23.75 89.02 23.83 88.47 23.94C85.98 24.42 83.54 25.16 83.54 28.45C83.54 31.03 85.34 32.58 88.38 32.58C89.3152 32.6159 90.247 32.4475 91.1105 32.0865C91.974 31.7256 92.7485 31.1808 93.38 30.49C93.3575 30.7693 93.3959 31.0501 93.4923 31.3132C93.5888 31.5763 93.741 31.8154 93.9387 32.014C94.1363 32.2126 94.3747 32.366 94.6373 32.4637C94.8999 32.5615 95.1806 32.6011 95.46 32.58C96.0716 32.6109 96.6791 32.465 97.21 32.16H97.26V30.16L97.21 30.1ZM88.9 30.29C88.1 30.29 86.25 30.09 86.25 28.29C86.25 26.49 87.65 26.06 89.03 25.81C89.45 25.74 89.89 25.68 90.33 25.63C91.3121 25.5762 92.2754 25.3387 93.17 24.93V27.16C93.17 28.37 92.02 30.29 88.9 30.29Z" fill="#0072AA"/>
<path id="Vector_7" fill-rule="evenodd" clip-rule="evenodd" d="M107.2 17.38H107.1C106.012 17.2903 104.923 17.544 103.987 18.1055C103.05 18.667 102.313 19.5079 101.88 20.51V17.71H99.46V32.24H102V25.76C102 21.89 103.63 20.08 107.08 20.08H107.19V17.38H107.2Z" fill="#0072AA"/>
<path id="Vector_8" fill-rule="evenodd" clip-rule="evenodd" d="M118.78 12.25V19.48C118.231 18.7975 117.53 18.2524 116.733 17.8879C115.936 17.5234 115.066 17.3495 114.19 17.38C110.19 17.38 107.55 20.38 107.55 24.93C107.487 26.8553 108.079 28.745 109.23 30.29C109.83 31.0324 110.594 31.6263 111.461 32.0252C112.328 32.4242 113.276 32.6175 114.23 32.59C115.101 32.6659 115.977 32.5118 116.77 32.1433C117.563 31.7748 118.246 31.2048 118.75 30.49V32.24H121.33V12.24L118.78 12.25ZM114.6 30.25C111.6 30.25 110.27 27.65 110.27 25.06C110.27 23.43 110.67 19.62 114.46 19.62C118.54 19.62 118.86 23.7 118.86 24.95C118.86 27.52 117.74 30.25 114.6 30.25Z" fill="#0072AA"/>
<path id="Vector_9" fill-rule="evenodd" clip-rule="evenodd" d="M15.59 52.44V52.54C15.32 55.99 13.18 58.15 9.98999 58.15C9.01226 58.2039 8.03668 58.0115 7.15262 57.5904C6.26856 57.1693 5.50432 56.5331 4.92999 55.74C3.8206 54.0225 3.27199 52.0028 3.35999 49.96C3.30139 48.0115 3.85005 46.0929 4.92999 44.47C5.5088 43.6971 6.26558 43.0754 7.13605 42.6576C8.00652 42.2398 8.96496 42.0382 9.92999 42.07C12.83 42.07 14.85 43.61 15.36 46.2V46.28H18.21V46.16C18.0951 45.2015 17.7879 44.2762 17.3068 43.4394C16.8257 42.6026 16.1805 41.8715 15.41 41.29C13.8198 40.1646 11.9074 39.5857 9.95999 39.64C8.62677 39.5923 7.29991 39.8453 6.07776 40.3802C4.85561 40.9151 3.76952 41.7182 2.9 42.73C1.25906 44.8526 0.403944 47.4781 0.480012 50.16C0.480012 56.58 4.02999 60.58 9.73999 60.58C11.9394 60.6559 14.085 59.8906 15.74 58.44C17.2967 56.8621 18.2277 54.7727 18.36 52.56V52.44H15.59Z" fill="#0072AA"/>
<path id="Vector_10" fill-rule="evenodd" clip-rule="evenodd" d="M20.9 40.09V60.09H23.47V51.88C23.47 49.13 25.02 47.5 27.6 47.5C27.9735 47.4669 28.3496 47.5156 28.7023 47.6426C29.055 47.7697 29.3758 47.9721 29.6423 48.2358C29.9088 48.4994 30.1147 48.818 30.2455 49.1693C30.3764 49.5206 30.4291 49.8963 30.4 50.27V60.09H33V50.54C33 46.95 31.36 45.21 28 45.21C27.1291 45.1648 26.2612 45.3432 25.4788 45.7283C24.6963 46.1134 24.0255 46.6923 23.53 47.41V40.06L20.9 40.09Z" fill="#0072AA"/>
<path id="Vector_11" fill-rule="evenodd" clip-rule="evenodd" d="M38.35 50.24V50.13C38.44 48.36 39.54 47.53 41.82 47.53C43.92 47.53 44.9 48.25 44.9 49.8C44.9 51.11 43.59 51.3 41.76 51.56C41.25 51.63 40.76 51.7 40.17 51.81C37.67 52.29 35.23 53.03 35.23 56.31C35.23 58.9 37.04 60.44 40.08 60.44C41.0049 60.4678 41.9252 60.2975 42.7789 59.9405C43.6326 59.5835 44.4002 59.048 45.03 58.37C45.0088 58.6481 45.0482 58.9275 45.1454 59.1889C45.2426 59.4503 45.3953 59.6875 45.593 59.8843C45.7907 60.081 46.0286 60.2326 46.2905 60.3285C46.5524 60.4244 46.832 60.4625 47.11 60.44C47.7158 60.4707 48.3183 60.3321 48.85 60.04V58.04H48.71C48.4938 58.1269 48.2629 58.1711 48.03 58.17C47.42 58.17 47.39 57.84 47.39 56.66V49.29C47.39 46.58 45.6 45.29 41.91 45.29C39.67 45.29 35.91 45.93 35.73 50.17V50.29L38.35 50.24ZM40.6 58.15C39.8 58.15 37.94 57.96 37.94 56.15C37.94 54.34 39.34 53.93 40.73 53.69C41.15 53.61 41.59 53.56 42.01 53.5C42.9992 53.4508 43.9699 53.2132 44.87 52.8V55C44.87 56.21 43.71 58.14 40.6 58.14V58.15Z" fill="#0072AA"/>
<path id="Vector_12" fill-rule="evenodd" clip-rule="evenodd" d="M121.36 60.11V40.11H118.78V47.34C118.229 46.6593 117.528 46.1154 116.732 45.751C115.935 45.3867 115.065 45.2118 114.19 45.24C110.19 45.24 107.55 48.24 107.55 52.8C107.49 54.7218 108.082 56.6073 109.23 58.15C109.83 58.8924 110.593 59.4855 111.461 59.8829C112.328 60.2802 113.276 60.4709 114.23 60.44C116.34 60.44 117.96 59.68 118.75 58.36V60.11H121.36ZM114.6 58.11C111.6 58.11 110.27 55.5 110.27 52.93C110.27 51.3 110.67 47.49 114.46 47.49C118.54 47.49 118.86 51.57 118.86 52.81C118.86 55.37 117.74 58.11 114.6 58.11Z" fill="#0072AA"/>
<path id="Vector_13" fill-rule="evenodd" clip-rule="evenodd" d="M79.09 55.6C78.9013 56.3815 78.4379 57.0691 77.7843 57.5373C77.1307 58.0054 76.3307 58.2229 75.53 58.1501C74.9446 58.178 74.3596 58.0859 73.811 57.8795C73.2625 57.6732 72.7619 57.3569 72.34 56.95C71.5358 56.0446 71.1192 54.8596 71.18 53.6501H81.89V53.55C82.0739 51.1787 81.3118 48.8311 79.77 47.02C79.1881 46.431 78.4905 45.9687 77.7213 45.6623C76.952 45.356 76.1276 45.2122 75.3 45.24C71.3 45.24 68.46 48.41 68.46 52.8C68.62 57.66 71.16 60.44 75.46 60.44C76.9092 60.5436 78.3453 60.106 79.4905 59.212C80.6358 58.318 81.4087 57.031 81.66 55.6H79.09ZM75.17 47.5301C76.2037 47.5292 77.1976 47.9286 77.9433 48.6445C78.689 49.3604 79.1286 50.3371 79.17 51.37H71.17C71.2113 50.3371 71.651 49.3604 72.3967 48.6445C73.1424 47.9286 74.1363 47.5292 75.17 47.5301Z" fill="#0072AA"/>
<path id="Vector_14" fill-rule="evenodd" clip-rule="evenodd" d="M103.06 55.63C102.863 56.4049 102.397 57.0843 101.744 57.5462C101.092 58.0081 100.296 58.2222 99.5 58.1501C98.9161 58.1778 98.3327 58.0856 97.7858 57.8792C97.2388 57.6729 96.74 57.3566 96.32 56.95C95.9149 56.5053 95.6021 55.9846 95.3995 55.4182C95.197 54.8517 95.1088 54.2508 95.14 53.6501H105.87V53.55C106.047 51.1795 105.286 48.8343 103.75 47.02C103.168 46.431 102.471 45.9687 101.701 45.6623C100.932 45.356 100.108 45.2122 99.28 45.24C95.28 45.24 92.45 48.41 92.45 52.8C92.6 57.66 95.14 60.44 99.45 60.44C100.894 60.5443 102.325 60.1105 103.468 59.2224C104.611 58.3343 105.384 57.0547 105.64 55.63H103.06ZM99.14 47.5301C100.174 47.5292 101.168 47.9286 101.913 48.6445C102.659 49.3604 103.099 50.3371 103.14 51.37H95.14C95.1814 50.3371 95.621 49.3604 96.3667 48.6445C97.1124 47.9286 98.1063 47.5292 99.14 47.5301Z" fill="#0072AA"/>
<path id="Vector_15" fill-rule="evenodd" clip-rule="evenodd" d="M53.73 60.12V53.63C53.73 49.74 55.35 47.94 58.81 47.94H58.92V45.24H58.82C57.7326 45.1464 56.6433 45.3974 55.7064 45.9574C54.7695 46.5174 54.0326 47.3579 53.6 48.36V45.55H51.17V60.12H53.73Z" fill="#0072AA"/>
<path id="Vector_16" fill-rule="evenodd" clip-rule="evenodd" d="M87 60.11V53.63C87 49.74 88.61 47.94 92.08 47.94H92.18V45.24H92.08C90.9923 45.1449 89.9023 45.3952 88.9651 45.9554C88.028 46.5156 87.2913 47.357 86.86 48.36V45.56H84.43V60.11H87Z" fill="#0072AA"/>
<path id="Vector_17" fill-rule="evenodd" clip-rule="evenodd" d="M67.18 57.84H65.35C64.12 57.84 63.62 57.06 63.62 55.91V47.85H67.18V45.57H63.62V41.28H61.05V55.88C61.05 58.97 62.6 60.29 65.35 60.29H67.18V57.84Z" fill="#0072AA"/>
<path id="Vector_18" fill-rule="evenodd" clip-rule="evenodd" d="M145.94 65.57C144.457 66.5734 142.728 67.151 140.94 67.24C138.847 67.2106 136.843 66.3898 135.331 64.9427C133.819 63.4955 132.911 61.5295 132.79 59.44L141.22 54.44L154.32 60.3L145.96 65.59L145.94 65.57Z" fill="#72B0D2"/>
<path id="Vector_19" fill-rule="evenodd" clip-rule="evenodd" d="M151 44L144.74 41.25C141.94 40 139.3 38.96 139.3 35.88C139.267 35.2792 139.361 34.6782 139.577 34.1164C139.792 33.5546 140.124 33.0446 140.55 32.62L153.79 38.45L150.51 40.35C149.6 40.9 148.98 41.35 148.98 42.09C148.98 42.83 149.84 43.48 150.98 44H151Z" fill="#A5D1A1"/>
<path id="Vector_20" fill-rule="evenodd" clip-rule="evenodd" d="M157.09 15.12L150.68 19.02C150.11 19.36 149.35 19.92 149.35 20.77C149.35 21.62 150.83 22.49 152.14 23.11L144.14 19.57C141.77 18.57 139.41 17.35 139.41 14.5C139.399 13.4319 139.713 12.3857 140.31 11.5L157.67 0.890015C158.888 1.55573 159.909 2.53151 160.629 3.7186C161.349 4.90568 161.743 6.26194 161.77 7.65002C161.77 11.08 160.03 13.37 157.11 15.12H157.09Z" fill="#72B0D2"/>
<path id="Vector_21" fill-rule="evenodd" clip-rule="evenodd" d="M170.74 27.66L169.15 28.57L155.89 22.71L171.3 13.44C172.519 14.1063 173.542 15.0817 174.265 16.2683C174.988 17.4549 175.387 18.8108 175.42 20.2C175.42 23.62 173.73 25.98 170.74 27.66Z" fill="#A5D1A1"/>
<path id="Vector_22" fill-rule="evenodd" clip-rule="evenodd" d="M159.55 38.92L167.39 42.37C170.33 43.68 171.24 45.23 171.24 47.18C171.211 47.7597 171.06 48.3268 170.796 48.8439C170.533 49.361 170.162 49.8163 169.71 50.18L156.52 44.32L158.75 43.07C160.64 42.07 161.27 41.4 161.27 40.71C161.27 40.02 160.82 39.51 159.55 38.93V38.92Z" fill="#72B0D2"/>
<path id="Vector_23" fill-rule="evenodd" clip-rule="evenodd" d="M173.53 67.87C170.05 65.3457 166.284 63.2411 162.31 61.6L142.31 52.75C137.31 50.51 133.95 47.53 133.95 42.5C133.95 37.47 136.32 35.26 139.39 33.31L140.5 32.62C140.074 33.0446 139.742 33.5546 139.527 34.1164C139.311 34.6782 139.217 35.2792 139.25 35.88C139.25 38.96 141.89 40 144.69 41.25L168 51.5C172 53.24 175.75 56.23 175.75 61.32C175.788 63.6859 175.023 65.995 173.58 67.87H173.53Z" fill="#22AA47"/>
<path id="Vector_24" fill-rule="evenodd" clip-rule="evenodd" d="M171.17 49.26L169.71 50.17C170.162 49.8063 170.533 49.351 170.796 48.8339C171.06 48.3168 171.211 47.7497 171.24 47.17C171.24 45.22 170.33 43.67 167.39 42.36L142.52 31.36C137.52 29.14 134.37 26.27 134.37 21.27C134.37 16.66 136.66 13.65 140.29 11.44C139.693 12.3257 139.379 13.3719 139.39 14.44C139.39 17.29 141.75 18.44 144.12 19.51L168.3 30.18C172.69 32.12 176.3 35.06 176.3 40.43C176.3 44.61 174.3 47.25 171.22 49.2L171.17 49.26Z" fill="#0072AA"/>
</g>
<defs>
<clipPath id="clip0_4_1180">
<rect width="177" height="68" fill="white"/>
</clipPath>
</defs>
</svg>
