<svg width="62" height="24" viewBox="0 0 62 24" fill="none" xmlns="http://www.w3.org/2000/svg">
<g clip-path="url(#clip0_45_4283)">
<path d="M11.6123 24.0228L1.54786 17.4709C1.54786 17.4709 0.285756 16.7452 -0.00317101 15.3934C-0.409029 13.4953 0.928765 11.8679 0.928765 11.8679L13.9906 20.3745C14.9982 21.0311 15.2731 22.3746 14.6255 23.3879C13.9601 24.4289 12.5929 24.6586 11.6118 24.0228H11.6123Z" fill="#38D200"/>
<path d="M2.0794 10.4638C2.0794 10.4638 0.537796 9.53294 0.537796 7.37992C0.537796 5.23436 2.07874 4.31493 2.07874 4.31493L7.58085 0.71399C8.06504 0.407164 8.65068 0.303607 9.21073 0.42578C9.77078 0.547954 10.2601 0.886007 10.5725 1.36661C10.8849 1.84721 10.9952 2.43161 10.8796 2.99304C10.7639 3.55447 10.4315 4.04765 9.95457 4.36561L5.31726 7.38519L13.2183 12.531C13.2183 12.531 14.6406 13.3458 14.9207 14.7213C15.3119 16.6403 13.991 18.2214 13.991 18.2214L2.0794 10.4638ZM2.05022 24.37C2.56664 24.37 2.93433 24.2061 3.29302 23.9736L5.97892 22.224L3.29302 20.4749C2.93104 20.2417 2.55107 20.0784 2.05022 20.0784C1.76585 20.0744 1.48351 20.1269 1.2196 20.2329C0.955703 20.3389 0.715504 20.4963 0.512971 20.696C0.310438 20.8956 0.149611 21.1335 0.039838 21.3959C-0.0699353 21.6583 -0.126465 21.9398 -0.126465 22.2242C-0.126465 22.5086 -0.0699353 22.7902 0.039838 23.0525C0.149611 23.3149 0.310438 23.5528 0.512971 23.7525C0.715504 23.9521 0.955703 24.1095 1.2196 24.2156C1.48351 24.3216 1.76585 24.3741 2.05022 24.37Z" fill="#0473EA"/>
<path d="M12.4356 5.23975C11.919 5.23975 11.5513 5.40362 11.1926 5.63595L8.50647 7.38531L11.1926 9.13466C11.5546 9.36808 11.9348 9.5313 12.4356 9.5313C12.7174 9.5313 12.9964 9.4758 13.2568 9.36797C13.5171 9.26013 13.7537 9.10207 13.9529 8.90282C14.1522 8.70357 14.3102 8.46702 14.4181 8.20668C14.5259 7.94634 14.5814 7.66731 14.5814 7.38553C14.5814 7.10374 14.5259 6.82471 14.4181 6.56437C14.3102 6.30403 14.1522 6.06748 13.9529 5.86823C13.7537 5.66898 13.5171 5.51092 13.2568 5.40308C12.9964 5.29525 12.7174 5.23975 12.4356 5.23975Z" fill="#38D200"/>
<path d="M23.6099 17.5587C24.1779 17.5587 24.7075 17.4047 25.1212 17.0484V17.8474C24.659 18.1651 24.1103 18.2998 23.5327 18.2998C22.0782 18.2998 21.0681 17.2889 21.0681 15.8353C21.0681 14.3911 22.1078 13.3804 23.552 13.3804C24.1199 13.3804 24.6493 13.5442 25.0729 13.8617V14.7377C24.6976 14.3336 24.1779 14.1217 23.6 14.1217C22.5891 14.1217 21.8768 14.8246 21.8768 15.835C21.8768 16.846 22.599 17.5587 23.6099 17.5587ZM26.7675 18.2134H25.9875V11.9627L26.7675 12.4447V14.2759C27.1237 13.7272 27.6917 13.3808 28.4137 13.3808C29.6076 13.3808 30.2429 14.2566 30.2429 15.4215V18.2134H29.4536V15.5562C29.4536 14.6319 29.0492 14.1412 28.2211 14.1412C27.3451 14.1412 26.7668 14.8919 26.7668 15.8355L26.7675 18.2134ZM35.0853 17.4041C34.6909 17.9624 34.0843 18.2994 33.343 18.2994C31.9567 18.2994 30.9651 17.2694 30.9651 15.8638C30.9651 14.4299 31.9567 13.3799 33.343 13.3799C34.0843 13.3799 34.6909 13.7266 35.0853 14.2948V13.4666H35.8749V18.2127H35.0853V17.4041ZM31.7738 15.8541C31.7738 16.8361 32.4574 17.5581 33.42 17.5581C34.3923 17.5581 35.0853 16.8361 35.0853 15.8541C35.0853 14.8529 34.3923 14.1212 33.42 14.1212C32.4574 14.1219 31.7738 14.8533 31.7738 15.8548V15.8541ZM37.8678 18.2134H37.0879V13.4672H37.8678V14.4779C38.2431 13.775 38.8497 13.3806 39.6007 13.3806V14.2759C38.6571 14.1412 37.8678 14.7765 37.8678 15.9509V18.2134ZM47.5912 16.1435H43.8462C43.9618 17.0004 44.6357 17.5684 45.5791 17.5684C46.1856 17.5684 46.7729 17.3951 47.2736 17.0388V17.7897C46.7633 18.1364 46.1856 18.3 45.5791 18.3C44.0868 18.3 43.0186 17.3374 43.0186 15.8829C43.0186 14.458 43.9236 13.3799 45.3581 13.3799C46.7251 13.3799 47.6206 14.3906 47.6206 15.7482C47.6208 15.8805 47.611 16.0127 47.5912 16.1435ZM43.8558 15.5086H46.7922C46.7152 14.6997 46.205 14.103 45.3674 14.103C44.5008 14.1026 43.9809 14.7092 43.8558 15.5082V15.5086ZM49.2568 18.2134H48.4769V13.4672H49.2568V14.4779C49.6321 13.775 50.2385 13.3806 50.9895 13.3806V14.2759C50.0463 14.1412 49.2568 14.7765 49.2568 15.9509V18.2134ZM55.6204 16.1435H51.8755C51.9907 17.0004 52.6649 17.5684 53.6082 17.5684C54.2148 17.5684 54.8021 17.3951 55.3027 17.0388V17.7897C54.7925 18.1364 54.2148 18.3 53.6082 18.3C52.116 18.3 51.0478 17.3374 51.0478 15.8829C51.0478 14.458 51.9526 13.3799 53.3871 13.3799C54.7541 13.3799 55.6494 14.3906 55.6494 15.7482C55.6497 15.8805 55.64 16.0126 55.6204 16.1435ZM51.8852 15.5086H54.8212C54.7442 14.6997 54.2339 14.103 53.3965 14.103C52.5302 14.1026 52.0107 14.7092 51.8852 15.5082V15.5086ZM60.3016 17.3984C59.9168 17.9666 59.3005 18.313 58.5592 18.313C57.1728 18.313 56.1811 17.2827 56.1811 15.8772C56.1811 14.4433 57.1728 13.3933 58.5592 13.3933C59.3005 13.3933 59.9168 13.7498 60.3016 14.3272V11.9638L61.0911 12.446V18.2131H60.3016V17.3984ZM56.99 15.8677C56.99 16.8497 57.6734 17.5719 58.6363 17.5719C59.6086 17.5719 60.3016 16.8497 60.3016 15.8677C60.3016 14.8665 59.6086 14.1348 58.6363 14.1348C57.6734 14.1348 56.99 14.866 56.99 15.8677ZM40.9632 16.6358C40.9632 17.3001 41.3676 17.56 41.8779 17.56C42.2742 17.5639 42.6617 17.4426 42.9851 17.2134V17.974C42.6573 18.2147 42.2052 18.311 41.8105 18.311C40.7996 18.311 40.1833 17.8584 40.1833 16.5779V11.9616L40.9632 12.4436V16.6358ZM42.2238 13.4052C42.1575 13.3621 42.0833 13.3326 42.0055 13.3182C41.9278 13.3038 41.8479 13.3049 41.7706 13.3214C41.6932 13.3379 41.6199 13.3694 41.5547 13.4142C41.4896 13.4591 41.4339 13.5163 41.3908 13.5826C41.3478 13.649 41.3182 13.7232 41.3039 13.8009C41.2895 13.8787 41.2906 13.9585 41.307 14.0359C41.3235 14.1132 41.3551 14.1866 41.3999 14.2517C41.4447 14.3169 41.502 14.3726 41.5683 14.4156L41.585 14.4262C41.6818 14.4882 41.7944 14.5212 41.9094 14.5212C42.0245 14.5212 42.1371 14.4882 42.2339 14.4262L43.0094 13.9288L42.2238 13.4052ZM22.6953 10.7144C23.2534 10.7144 23.6579 10.4738 23.6579 10.0405C23.6579 9.78052 23.5232 9.57847 23.1663 9.4339L22.0398 8.98153C21.4621 8.73122 21.1445 8.4039 21.1445 7.78765C21.1445 6.9597 21.8088 6.43977 22.7714 6.43977C23.3295 6.43977 23.8494 6.59377 24.2154 6.87305V7.69244C23.7823 7.30721 23.2525 7.08585 22.7815 7.08585C22.2806 7.08585 21.9244 7.31686 21.9244 7.70209C21.9244 7.9908 22.0593 8.16411 22.4349 8.30847L23.5614 8.76105C24.1678 9.02102 24.4473 9.38673 24.4473 9.89701C24.4473 10.802 23.7154 11.3603 22.6856 11.3603C22.0595 11.3603 21.4915 11.187 21.0778 10.8792V10.0308C21.5782 10.5025 22.1367 10.7144 22.6953 10.7144ZM25.9301 9.68421C25.9301 10.3485 26.3342 10.6085 26.8447 10.6085C27.2406 10.612 27.6277 10.4907 27.9508 10.2618V11.0224C27.623 11.2631 27.1707 11.3594 26.776 11.3594C25.7651 11.3594 25.1493 10.9071 25.1493 9.62652V5.48874L25.929 5.0061L25.9301 9.68421ZM32.3128 10.4639C31.9181 11.0224 31.3115 11.3594 30.5702 11.3594C29.1839 11.3594 28.1923 10.3294 28.1923 8.92361C28.1923 7.48973 29.1839 6.43977 30.5702 6.43977C31.3115 6.43977 31.9181 6.78639 32.3128 7.35459V6.52708H33.1023V11.2728H32.3128V10.4639ZM29.001 8.91418C29.001 9.89614 29.6846 10.6181 30.6472 10.6181C31.6198 10.6181 32.3128 9.89614 32.3128 8.91418C32.3128 7.91292 31.6198 7.18106 30.6472 7.18106C29.6846 7.18106 29.001 7.91292 29.001 8.91418ZM35.095 11.2728H34.3151V6.52708H35.095V7.33573C35.4513 6.78705 36.0192 6.44043 36.7412 6.44043C37.9351 6.44043 38.5704 7.31664 38.5704 8.48156V11.2734H37.7811V8.61648C37.7811 7.69222 37.3768 7.20124 36.5488 7.20124C35.6726 7.20124 35.0943 7.95219 35.0943 8.89575L35.095 11.2728ZM43.4131 10.4448C43.0281 11.013 42.4118 11.3596 41.6705 11.3596C40.2843 11.3596 39.2927 10.3294 39.2927 8.92361C39.2927 7.48973 40.2843 6.43977 41.6705 6.43977C42.4118 6.43977 43.0281 6.79604 43.4131 7.37368V5.48809L44.2026 5.0061V11.2728H43.4131V10.4448ZM40.1013 8.91418C40.1013 9.89614 40.7849 10.6181 41.7475 10.6181C42.7201 10.6181 43.4131 9.89614 43.4131 8.91418C43.4131 7.91292 42.7201 7.18106 41.7475 7.18106C40.7855 7.18106 40.1013 7.91292 40.1013 8.91418ZM57.8544 10.4448C57.4694 11.013 56.8531 11.3596 56.1118 11.3596C54.7253 11.3596 53.7337 10.3294 53.7337 8.92361C53.7337 7.48973 54.7253 6.43977 56.1118 6.43977C56.8531 6.43977 57.4694 6.79604 57.8544 7.37368V5.48809L58.6437 5.0061V11.2728H57.8544V10.4448ZM54.5426 8.91418C54.5426 9.89614 55.226 10.6181 56.1888 10.6181C57.1611 10.6181 57.8544 9.89614 57.8544 8.91418C57.8544 7.91292 57.1611 7.18106 56.1888 7.18106C55.2266 7.18106 54.5426 7.91292 54.5426 8.91418ZM49.1703 10.4639C48.7757 11.0224 48.1691 11.3594 47.4278 11.3594C46.0415 11.3594 45.0499 10.3294 45.0499 8.92361C45.0499 7.48973 46.0415 6.43977 47.4278 6.43977C48.1691 6.43977 48.7757 6.78639 49.1703 7.35459V6.52708H49.9599V11.2728H49.1703V10.4639ZM45.8585 8.91418C45.8585 9.89614 46.5421 10.6181 47.5048 10.6181C48.4771 10.6181 49.1703 9.89614 49.1703 8.91418C49.1703 7.91292 48.4771 7.18106 47.5048 7.18106C46.5415 7.18106 45.8585 7.91292 45.8585 8.91418ZM51.9526 11.2728H51.1726V6.52708H51.9526V7.538C52.3279 6.83509 52.9345 6.44043 53.6855 6.44043V7.33573C52.7419 7.20102 51.9526 7.83636 51.9526 9.01093V11.2728ZM27.0292 7.538C27.1124 7.59227 27.2078 7.62512 27.3068 7.63362C27.4058 7.64213 27.5053 7.62602 27.5966 7.58674C27.6879 7.54746 27.768 7.48622 27.8299 7.40847C27.8917 7.33073 27.9334 7.23889 27.9512 7.14113C27.9655 7.06302 27.9641 6.98286 27.9471 6.90528C27.9302 6.82771 27.898 6.75427 27.8525 6.68921C27.8072 6.62413 27.7494 6.56866 27.6825 6.52598L27.6658 6.51567C27.5688 6.45399 27.456 6.42141 27.341 6.4218C27.226 6.42219 27.1135 6.45553 27.0169 6.51787L26.2418 7.01696L27.0292 7.538Z" fill="#525355"/>
</g>
<defs>
<clipPath id="clip0_45_4283">
<rect width="62" height="24" fill="white"/>
</clipPath>
</defs>
</svg>
