<svg width="89" height="24" viewBox="0 0 89 24" fill="none" xmlns="http://www.w3.org/2000/svg">
<path fill-rule="evenodd" clip-rule="evenodd" d="M0.115479 21.0192V21.048L0.122697 21.1419L0.144349 21.2645L0.180436 21.3872L0.238176 21.5172L0.324785 21.6543L0.440264 21.7914L0.584614 21.943L0.721745 22.0657L0.76505 22.1018L0.988791 22.2822L1.02488 22.3183L1.13314 22.4121L1.25584 22.5204L1.34966 22.6286L1.42184 22.7225L1.47958 22.8235L1.51566 22.9173L1.5301 23.0184L1.53732 23.105V23.1339V23.1627L1.5301 23.2493L1.49401 23.3576L1.44349 23.4587L1.37132 23.5525L1.27749 23.6319L1.16201 23.6896L1.02488 23.7329L0.909399 23.7474H0.873312H0.851659L0.79392 23.7401L0.700093 23.7329L0.599048 23.7113L0.498004 23.668L0.39696 23.6102L0.303133 23.5308L0.230958 23.4153L0.194871 23.3143L0.187654 23.2782L0.180436 23.2638L0.173219 23.1844V23.1266V23.105V23.0978V23.0906L0.166001 23.0761V23.0617L0.158784 23.0473L0.151566 23.0328L0.144349 23.0256L0.122697 23.0184L0.108262 23.0112H0.101044H0.0938269L0.079392 23.0184L0.0577396 23.0256L0.0505222 23.04L0.0360873 23.0545V23.0761L0.0288698 23.0906V23.1122L0.0216524 23.1194V23.1266V23.1339V23.1555V23.1772V23.1844V23.206L0.0144349 23.271L0.00721745 23.3793L0 23.502V23.6102V23.6463V23.668V23.7329L0.0144349 23.7907L0.0433047 23.8267L0.079392 23.8556L0.0938269 23.8628L0.129914 23.8773L0.238176 23.9206L0.404177 23.9639L0.577396 23.9927L0.721745 24H0.76505H0.822789L0.981573 23.9855L1.18366 23.9422L1.3641 23.8773L1.48679 23.8123L1.5301 23.7907L1.55897 23.769L1.63836 23.6968L1.73219 23.5958L1.80436 23.4875L1.8621 23.3793L1.90541 23.271L1.93428 23.1555L1.95593 23.0473L1.96315 22.9751V22.9462V22.9101L1.95593 22.8091L1.93428 22.6719L1.89097 22.5348L1.82601 22.3977L1.72497 22.2533L1.60227 22.1018L1.43627 21.943L1.28471 21.8131L1.22697 21.777L1.08984 21.6687L1.05375 21.6326L0.931051 21.5316L0.801137 21.4161L0.700093 21.3151L0.627918 21.2212L0.570179 21.1346L0.534091 21.048L0.512439 20.9614L0.505222 20.8965V20.8748V20.8459L0.519656 20.7593L0.548526 20.6583L0.599048 20.5717L0.664005 20.4923L0.750615 20.4273L0.844442 20.384L0.952704 20.3551L1.04653 20.3479H1.0754H1.11149L1.21253 20.3551L1.32801 20.3696L1.42906 20.4057L1.50123 20.4418L1.55897 20.4778L1.60227 20.5139L1.63836 20.55L1.6528 20.5789V20.5861L1.66001 20.5933L1.67445 20.6366L1.6961 20.6944L1.71054 20.7593V20.8026L1.71775 20.8171V20.8315V20.8459L1.72497 20.8604L1.73219 20.8748L1.73941 20.8892L1.75384 20.9037L1.76828 20.9109H1.78271H1.78993H1.79715H1.81158L1.83323 20.8965L1.84045 20.8748L1.85488 20.8532V20.8315L1.8621 20.8098V20.781V20.7665V20.7593V20.716V20.5861L1.86932 20.449L1.87654 20.3479V20.2974V20.283L1.88375 20.2469V20.2397L1.87654 20.218L1.8621 20.1891L1.83323 20.1819L1.80436 20.1747H1.79715H1.78993H1.76828L1.73941 20.1675L1.68888 20.1603L1.64558 20.1531H1.63114L1.59506 20.1458L1.41462 20.117L1.22697 20.1025H1.16923H1.11149L0.945486 20.117L0.73618 20.1675L0.562961 20.2469L0.404177 20.3551L0.281481 20.4851L0.194871 20.6438L0.137132 20.8171L0.115479 20.9686V21.0192Z" fill="#005B47"/>
<path fill-rule="evenodd" clip-rule="evenodd" d="M6.10088 20.2055L6.09366 20.2128L6.08645 20.2344L6.07201 20.2777L6.04314 20.3355L6.01427 20.4004L5.97819 20.4798L5.9421 20.5664L5.89879 20.6675L5.84827 20.7757L5.79775 20.8912L5.74723 21.0211L5.68949 21.1438L5.63175 21.2809L5.57401 21.4181L5.51627 21.5552L5.45131 21.6923L5.39357 21.8367L5.32861 21.9738L5.27088 22.1037L5.21314 22.2409L5.1554 22.3708L5.10487 22.4935L5.05435 22.6089L5.00383 22.7172L4.96052 22.8183L4.91722 22.9121L4.88835 22.9915L4.85226 23.0564L4.83061 23.1142L4.81618 23.1575L4.80174 23.1791V23.1863L4.79452 23.1936V23.1863L4.78009 23.1575L4.75844 23.1142L4.73678 23.0636L4.70791 22.9915L4.67183 22.9121L4.62852 22.8183L4.578 22.7244L4.5347 22.6089L4.47696 22.4935L4.41922 22.3708L4.36148 22.2409L4.30374 22.1037L4.23878 21.9666L4.18104 21.8295L4.11608 21.6923L4.05113 21.548L3.98617 21.4109L3.92843 21.2737L3.86347 21.1438L3.80573 21.0139L3.75521 20.8912L3.69747 20.7757L3.65417 20.6602L3.60364 20.5664L3.56756 20.4726L3.53147 20.3932L3.49538 20.321L3.47373 20.2705L3.45208 20.2272L3.44486 20.2055L3.43764 20.1983V20.1911L3.42321 20.1622L3.40156 20.1334L3.3799 20.1117L3.35103 20.1045H3.3366H3.31495L3.30051 20.1189L3.28608 20.1334L3.27164 20.1478L3.26442 20.1694V20.1839L3.25721 20.2055V20.22V20.2272L3.24999 20.2561L3.24277 20.3571L3.22112 20.5159L3.20668 20.718L3.17781 20.9634L3.14894 21.2304L3.12007 21.5263L3.09121 21.8222L3.06234 22.1182L3.02625 22.4069L3.0046 22.6811L2.97573 22.9193L2.95407 23.1286L2.93964 23.2802L2.9252 23.3884V23.4245V23.439L2.91799 23.4823L2.91077 23.5472L2.90355 23.605L2.88912 23.6555L2.86746 23.6988L2.84581 23.7349L2.81694 23.7637L2.78807 23.7782H2.77364H2.76642L2.73033 23.7854H2.70146L2.67259 23.7926H2.65094H2.64372H2.63651H2.61485L2.58598 23.807L2.57155 23.8287L2.56433 23.8431V23.8504V23.8648L2.57155 23.872V23.8864L2.58598 23.9009L2.60042 23.9081L2.61485 23.9225H2.64372L2.66538 23.9297H2.67981H2.69425H2.74477L2.82416 23.9225H2.90355L2.93964 23.9153H2.95407H2.96851H2.99016H3.01903H3.03347H3.0479H3.06955H3.10564H3.14173H3.14894H3.16338H3.20668L3.29329 23.9225H3.38712L3.4593 23.9297H3.48095H3.49538H3.51703L3.53147 23.9225L3.55312 23.9153L3.56756 23.9081L3.58199 23.8937L3.59643 23.8792V23.8576V23.8504V23.8431L3.58921 23.8287L3.57477 23.807L3.55312 23.7926H3.53147H3.52425H3.51703L3.48816 23.7854H3.45208L3.40877 23.7782L3.37269 23.771H3.36547L3.35103 23.7637L3.32216 23.7565L3.30051 23.7277L3.27886 23.6916L3.27164 23.6627V23.6483V23.6194V23.5256V23.4245L3.27886 23.4029V23.3812L3.28608 23.309L3.29329 23.208L3.30051 23.0709L3.31495 22.9049L3.32938 22.7244L3.34382 22.5296L3.35825 22.3275L3.37269 22.1254L3.39434 21.9305L3.40877 21.7501L3.41599 21.5913L3.43043 21.4469L3.43764 21.3459L3.44486 21.2737V21.2521L3.4593 21.2809L3.49538 21.3603L3.5459 21.4758L3.61808 21.6346L3.69747 21.815L3.7913 22.0243L3.89234 22.2481L3.99339 22.4718L4.09443 22.7028L4.19548 22.9193L4.2893 23.1286L4.37591 23.309L4.44809 23.4678L4.49861 23.5905L4.5347 23.6627L4.54913 23.6916L4.56357 23.7204L4.60687 23.807L4.64296 23.8792L4.67904 23.9081L4.7007 23.9153H4.70791H4.72235L4.75122 23.9081L4.78009 23.8792L4.81618 23.8143L4.85226 23.7349L4.85948 23.7132L4.87392 23.6843L4.91 23.605L4.96052 23.4823L5.0327 23.3163L5.11931 23.1286L5.21314 22.9193L5.30696 22.6883L5.41522 22.4574L5.51627 22.2264L5.61731 21.9955L5.70392 21.7862L5.79053 21.5985L5.86271 21.4325L5.91323 21.3098L5.94932 21.2304L5.96375 21.2015V21.2304L5.97097 21.3098L5.97819 21.4253L5.99262 21.5769L6.00706 21.7645L6.02871 21.9666L6.04314 22.1831L6.06479 22.4069L6.08645 22.6306L6.10088 22.8471L6.12253 23.0492L6.13697 23.2296L6.1514 23.3884L6.15862 23.5039L6.16584 23.5833L6.17306 23.6122V23.6194V23.6483V23.6771V23.6843V23.6916V23.7132V23.7421V23.7637L6.16584 23.7782H6.15862L6.14419 23.7854L6.12975 23.7998L6.12253 23.8215V23.8359V23.8431V23.8576L6.12975 23.8792L6.14419 23.8864L6.16584 23.9009L6.18749 23.9081L6.21636 23.9153H6.24523L6.2741 23.9225H6.28132H6.29575H6.36071L6.46175 23.9297H6.57002H6.69271H6.80097H6.90202H6.98863H7.02472H7.03915H7.05359L7.08246 23.9225L7.11133 23.9153L7.13298 23.9081L7.15463 23.8937L7.16185 23.8792L7.16906 23.872V23.8576V23.8504V23.8431V23.8359L7.16185 23.8143L7.1402 23.7998L7.11133 23.7926H7.09689H7.08967H7.05359L6.98863 23.7854L6.90924 23.771L6.83706 23.7565L6.81541 23.7493L6.80097 23.7421L6.75767 23.7204L6.70715 23.6699L6.67106 23.6122L6.64219 23.54L6.62776 23.4678L6.61332 23.3957L6.59889 23.3235V23.2802L6.59167 23.2585L6.28854 20.2633V20.2561V20.2416L6.28132 20.2128V20.1839L6.2741 20.155L6.25967 20.1334L6.24523 20.1189L6.22358 20.1045H6.20914H6.20193H6.18749L6.15862 20.1117L6.13697 20.1406L6.11532 20.1694L6.10088 20.1983V20.2055Z" fill="#005B47"/>
<path fill-rule="evenodd" clip-rule="evenodd" d="M8.44207 20.4235V20.4163L8.44929 20.4091H8.4565L8.47094 20.4019H8.49259L8.59363 20.3874L8.67303 20.3802H8.7019H8.7452L8.86068 20.3946L8.99781 20.4524L9.09886 20.5318L9.18547 20.6328L9.25042 20.7555L9.29373 20.8926L9.31538 21.037L9.32981 21.1453V21.1813V21.2174L9.31538 21.3113L9.28651 21.434L9.22877 21.5494L9.17825 21.6288L9.1566 21.6505L9.14938 21.6577L9.12773 21.6866L9.09164 21.7154L9.05555 21.7371L9.01946 21.7515L8.96894 21.7587L8.90398 21.766H8.83181H8.76685H8.73798H8.71633H8.62972L8.54311 21.7587L8.48537 21.7515H8.46372L8.4565 21.7443H8.44929L8.44207 21.7299V21.7227V21.7154V21.6721V21.6072V21.5206V21.4195V21.3113V21.1886V21.0731V20.9504V20.8349V20.7194V20.6256V20.539V20.474V20.4379V20.4235ZM8.40598 20.1781L8.21833 20.1853H8.16059L8.13172 20.1781H8.05954L7.93685 20.1709H7.79971H7.69867H7.6698H7.66258H7.65537H7.64093H7.61928L7.59763 20.1781L7.58319 20.1853L7.56876 20.1998L7.56154 20.2214L7.55432 20.2359V20.2431V20.2503L7.56154 20.2719L7.57597 20.2936L7.59763 20.308L7.61928 20.3152H7.6265H7.64093H7.6698H7.71311H7.75641L7.77806 20.3225H7.78528L7.80693 20.3297L7.87189 20.3513L7.92241 20.3946L7.9585 20.4668L7.96572 20.539L7.97293 20.5679V20.5823V20.6256V20.6906L7.98015 20.7699V20.871V20.9937V21.1597V21.3618V21.5566V21.6216V22.4805V22.5599V22.8053V23.1012L7.97293 23.3466L7.9585 23.4837V23.5342L7.95128 23.5559L7.93685 23.6281L7.91519 23.7002L7.88632 23.7508L7.85745 23.7652L7.84302 23.7724H7.82858L7.76363 23.7868H7.72032H7.70589H7.69145L7.6698 23.7941L7.64815 23.8085L7.63371 23.8301L7.6265 23.8518V23.859L7.63371 23.8807L7.64093 23.8951L7.65537 23.9095L7.67702 23.924H7.69145L7.71311 23.9312H7.72754H7.74197H7.76363H7.82858L7.92241 23.924H8.02346L8.08841 23.9168H8.11006H8.21833L8.4132 23.924H8.44207L8.54311 23.9312L8.68024 23.9384L8.79572 23.9456H8.85346H8.87511H8.9112L9.02668 23.9384L9.17103 23.9168L9.30816 23.8879L9.43086 23.8518L9.54634 23.8013L9.6546 23.7435L9.74843 23.6714L9.83504 23.5992L9.90721 23.5198L9.97217 23.4332L10.0299 23.3394L10.0804 23.2455L10.1165 23.1517L10.1382 23.0507L10.1526 22.9496L10.1598 22.8702V22.8486V22.7908L10.1382 22.632L10.0804 22.4444L9.9866 22.2784L9.87834 22.1413L9.74843 22.0186L9.61129 21.9247L9.47416 21.8526L9.37312 21.8093L9.33703 21.802L9.3659 21.7876L9.43086 21.7299L9.51025 21.6505L9.58242 21.5566L9.64738 21.4556L9.6979 21.3401L9.74121 21.2174L9.76286 21.0803L9.77008 20.972V20.9359V20.9215V20.8782L9.76286 20.8205L9.74843 20.7627L9.72677 20.6978L9.6979 20.6328L9.66182 20.5679L9.61851 20.5101L9.56799 20.4452L9.50303 20.3874L9.43086 20.3369L9.34425 20.2936L9.25042 20.2503L9.14938 20.2142L9.02668 20.1926L8.89677 20.1781L8.78851 20.1709H8.75242H8.70911H8.56476L8.42763 20.1781H8.40598ZM8.59363 23.6425H8.58642L8.55033 23.6208L8.52146 23.5992L8.49981 23.5703L8.47815 23.5414L8.47094 23.5054L8.46372 23.4548L8.4565 23.3899L8.44929 23.3394V23.3177V23.2961V23.2816V23.2455V23.1517L8.44207 23.029V22.8774V22.7187V22.5527V22.3939V22.2784V22.2423V22.2351V22.199V22.1557V22.1052V22.0547V22.0113V21.9825V21.9753V21.968H8.47815H8.58642L8.69468 21.9753H8.76685H8.80294H8.81738L8.83903 21.9825L8.90398 21.9897L8.99781 22.0113L9.09164 22.0474L9.17825 22.098L9.20712 22.1124L9.2432 22.1413L9.34425 22.2279L9.45251 22.3578L9.5319 22.4877L9.58964 22.6248L9.62573 22.7547L9.6546 22.8702L9.66182 22.9785V23.0362V23.0579V23.0867V23.1734L9.64016 23.2672L9.61129 23.3538L9.57521 23.4332L9.52469 23.4909L9.47416 23.5487L9.42364 23.592L9.3659 23.6281L9.30094 23.6569L9.25042 23.6786L9.19268 23.693L9.14216 23.7002L9.09886 23.7075L9.05555 23.7147H9.02668H9.01225H9.00503H8.98338H8.94729H8.89677L8.83903 23.7075L8.77407 23.7002L8.70911 23.6858L8.65137 23.6714L8.60807 23.6497L8.59363 23.6425Z" fill="#005B47"/>
<path fill-rule="evenodd" clip-rule="evenodd" d="M11.362 20.6649L11.3259 20.7082L11.2321 20.8309L11.1238 21.0041L11.0444 21.1846L10.9795 21.365L10.9289 21.5454L10.9001 21.7187L10.8856 21.8847L10.8784 21.9929V22.0362V22.094L10.8929 22.26L10.9289 22.4693L10.9795 22.6714L11.0444 22.859L11.1238 23.0394L11.2249 23.1982L11.3476 23.3498L11.4414 23.4581L11.4775 23.4869L11.5136 23.523L11.629 23.6096L11.795 23.7179L11.961 23.8045L12.1487 23.8767L12.3436 23.9272L12.5529 23.9633L12.7766 23.9777L12.957 23.9849H13.0148L13.0725 23.9777L13.2313 23.9705L13.4623 23.9416L13.6716 23.9055L13.8015 23.8622L13.8448 23.8406H13.852L13.8737 23.8261L13.9025 23.8117L13.9242 23.7973L13.9386 23.7828L13.9458 23.7612L13.9603 23.7395L13.9675 23.7107L13.9747 23.689L13.9819 23.6746V23.6601L13.9964 23.6024L14.0108 23.5086L14.0252 23.4075L14.0397 23.3065L14.0469 23.2127L14.0541 23.1333L14.0613 23.0755V23.0467V23.0394V23.0322V23.0106L14.0541 22.9817L14.0469 22.9673L14.0324 22.9528L14.0252 22.9456L14.0108 22.9384H14.0036H13.9964H13.9891H13.9747L13.9531 22.9456L13.9458 22.9601L13.9314 22.9745L13.9242 22.9889V23.0034L13.917 23.025V23.0322V23.0394L13.9097 23.0611L13.8953 23.1261L13.8664 23.2343L13.8231 23.3426L13.7798 23.4148L13.7654 23.4364L13.751 23.4508L13.7004 23.5014L13.621 23.5591L13.5417 23.6024L13.4478 23.6313L13.3468 23.6601L13.2457 23.6746L13.1303 23.6818L13.0364 23.689H13.0076H12.9643L12.8416 23.6818L12.6828 23.6601L12.524 23.6241L12.3724 23.5663L12.2281 23.4941L12.0909 23.4075L11.961 23.3065L11.8672 23.2199L11.8383 23.191L11.8095 23.1621L11.7373 23.0683L11.6435 22.9312L11.5641 22.7868L11.4919 22.6353L11.4414 22.4765L11.3981 22.3177L11.3692 22.1517L11.362 22.0218V21.9857L11.3548 21.9424V21.8269L11.362 21.6609L11.3764 21.5021L11.4053 21.3361L11.4558 21.1773L11.5208 21.0186L11.6074 20.867L11.694 20.7515L11.7229 20.7226L11.7445 20.701L11.8095 20.636L11.9033 20.5639L12.0188 20.4989L12.1343 20.4484L12.2642 20.4123L12.4085 20.3762L12.5673 20.3618L12.69 20.3473H12.7333H12.7694L12.8777 20.3546L13.022 20.3618L13.1519 20.3906L13.2746 20.4195L13.3829 20.4556L13.4767 20.4989L13.5561 20.5494L13.6066 20.5783L13.621 20.5927L13.6427 20.6144L13.6932 20.6793L13.751 20.7876L13.7943 20.9175L13.8087 21.0258L13.8159 21.0619V21.0691V21.0835V21.1052L13.8231 21.1268L13.8304 21.1485L13.8376 21.1701L13.852 21.1846L13.8664 21.1918L13.8881 21.199L13.8953 21.1918H13.9097L13.9314 21.1846L13.9458 21.1629L13.9531 21.1485L13.9603 21.1268V21.1052V21.0835V21.0619V20.8886V20.8598V20.7154V20.5783V20.5566V20.5278L13.9675 20.4267L13.9747 20.3546V20.3473V20.2824V20.2752V20.2463L13.9531 20.2174L13.9242 20.203L13.8953 20.1958H13.8809H13.852L13.6716 20.1741L13.4839 20.1452L13.4406 20.138H13.4262L13.3757 20.1236L13.2169 20.1092L13.0292 20.0947H12.8704H12.7838H12.755H12.6972L12.5312 20.1092L12.3219 20.138L12.127 20.1886L11.9466 20.2463L11.7806 20.3257L11.629 20.4267L11.4847 20.535L11.3909 20.6288L11.362 20.6649Z" fill="#005B47"/>
<path fill-rule="evenodd" clip-rule="evenodd" d="M0.726685 9.26867V18.5431L4.5375 16.9336V7.65918L0.726685 9.26867Z" fill="#B3D056"/>
<path fill-rule="evenodd" clip-rule="evenodd" d="M9.328 1.60949V10.8839L13.1388 9.27442V0L9.328 1.60949Z" fill="#B3D056"/>
<path fill-rule="evenodd" clip-rule="evenodd" d="M5.02783 7.44992V16.7243L8.83865 11.0875V1.82031L5.02783 7.44992Z" fill="#B3D056"/>
<path fill-rule="evenodd" clip-rule="evenodd" d="M38.6675 9.49951V11.0513H35.564V9.49951H34.0411V11.0513H32.0491V12.0473H34.0411V14.1981V14.2197V14.2919L34.0339 14.4002V14.5301L34.0267 14.6672L34.0194 14.8116L34.005 14.9487L33.9978 15.0786L33.9906 15.158L33.9833 15.1869H32.0491V16.1757H33.8101L33.7957 16.2262L33.7596 16.385L33.6874 16.5798L33.6153 16.7819L33.5286 16.9696L33.4276 17.1572L33.3338 17.3304L33.2255 17.5037L33.1173 17.6624L33.0018 17.814L32.8935 17.9656L32.778 18.0955L32.6698 18.2254L32.5687 18.3409L32.4677 18.4492L32.3811 18.543L32.3161 18.6079L32.2945 18.6224L32.7925 19.5895L32.8141 19.5679L32.8935 19.5173L33.0306 19.4235L33.1822 19.3152L33.3482 19.1781L33.5359 19.0193L33.7235 18.8389L33.9256 18.644L34.1277 18.4347L34.3298 18.2038L34.5247 17.9511L34.7051 17.6913L34.8783 17.4171L35.0371 17.1211L35.1742 16.818L35.2825 16.5004L35.3474 16.255L35.3619 16.1757H38.6675V19.3658H40.1543V16.1757H41.9803V15.1869H40.1543V12.0473H41.9803V11.0513H40.1543V9.49951H38.6675ZM38.6675 12.0473V15.1869H35.5351V15.1724L35.5423 15.1219V15.0425L35.5495 14.9415L35.5568 14.8332V14.7249V14.6311L35.564 14.5445V14.5012V14.4868V12.0473H38.6675Z" fill="#005B47"/>
<path fill-rule="evenodd" clip-rule="evenodd" d="M82.1332 10.9148H87.7989V9.87549H82.1332V10.9148Z" fill="#005B47"/>
<path fill-rule="evenodd" clip-rule="evenodd" d="M81.8185 12.8796V13.8756H85.2323V17.8452V17.8741L85.2251 17.9463L85.1962 18.0329L85.1529 18.1051L85.1024 18.17L85.0302 18.2133L84.9509 18.2494L84.8642 18.2711L84.7921 18.2783H84.7704H83.2908L83.4641 19.2743H85.3839H85.42L85.5355 19.2671L85.6798 19.2599L85.8169 19.2382L85.9469 19.2093L86.0623 19.1733L86.1706 19.1227L86.2644 19.0722L86.3438 19L86.4232 18.9206L86.4882 18.834L86.5459 18.733L86.5892 18.6175L86.6253 18.4948L86.647 18.3505L86.6614 18.1989L86.6686 18.0762V18.0329V13.8756H88.1193V12.8796H81.8185Z" fill="#005B47"/>
<path fill-rule="evenodd" clip-rule="evenodd" d="M77.7052 14.8364L78.1743 15.5365L78.2609 15.4859L78.6579 15.2405L79.0476 14.9735L79.1198 14.923V19.3689H80.4839V13.7754L80.5705 13.6888L80.8376 13.4217L81.1479 13.0825L81.415 12.7577L81.5882 12.5412L81.6459 12.4618L80.6211 11.6968L80.585 11.7473L80.4839 11.9061L80.3396 12.1154L80.1808 12.3319L80.0076 12.5412L79.8343 12.7577L79.6539 12.9743L79.4663 13.1908L79.2786 13.4001L79.0837 13.6022L78.8889 13.8043L78.6868 13.9991L78.4919 14.1868L78.2898 14.3672L78.0949 14.5332L77.9001 14.692L77.7557 14.8075L77.7052 14.8364Z" fill="#005B47"/>
<path fill-rule="evenodd" clip-rule="evenodd" d="M81.4258 10.1146L80.3793 9.27734L80.3432 9.32787L80.2349 9.47943L80.0834 9.68152L79.9246 9.89083L79.7658 10.0857L79.5926 10.2878L79.4266 10.4754L79.2534 10.6631L79.0801 10.8435L78.9141 11.0167L78.7409 11.1828L78.5821 11.3343L78.4234 11.4787L78.279 11.6158L78.1419 11.7313L78.012 11.8395L77.9254 11.9117L77.8965 11.9334L78.4234 12.6623L78.4594 12.6407L78.5677 12.5902L78.7337 12.4963L78.9141 12.3881L79.1018 12.2654L79.3039 12.1282L79.506 11.9767L79.7153 11.8179L79.9246 11.6447L80.1411 11.4714L80.3504 11.2838L80.5525 11.0889L80.7474 10.9013L80.935 10.6992L81.1155 10.5043L81.2743 10.3094L81.3897 10.1651L81.4258 10.1146Z" fill="#005B47"/>
<path fill-rule="evenodd" clip-rule="evenodd" d="M50.8766 18.0917V15.3347H53.345V14.3747H50.8766V12.0146H53.5904V11.0475H50.523H50.5374L51.3458 10.5278L51.3169 10.5062L51.2447 10.4268L51.1365 10.3185L51.021 10.2103L50.8983 10.102L50.7756 9.98653L50.6457 9.87105L50.5158 9.76279L50.3858 9.65453L50.2559 9.55348L50.1332 9.45244L50.0105 9.35861L49.9023 9.272L49.8012 9.19261L49.7074 9.12766L49.628 9.06992L49.5775 9.03383L49.5558 9.02661L48.466 9.71949L48.5093 9.74836L48.6176 9.84218L48.798 9.99375L48.9857 10.1598L49.1877 10.3402L49.3898 10.5278L49.5847 10.7083L49.7724 10.8887L49.8951 11.0114L49.9384 11.0475H46.7194V12.0146H49.4404V14.3747H46.9576V15.3347H49.4404V18.0917H46.4812V19.0589H53.8358V18.0917H50.8766Z" fill="#005B47"/>
<path fill-rule="evenodd" clip-rule="evenodd" d="M46.8385 9.74715L45.4816 9.19141L45.4672 9.22749L45.4383 9.32132L45.3878 9.48732L45.3156 9.68941L45.2362 9.92759L45.1352 10.1946L45.0269 10.4905L44.9042 10.8009L44.7671 11.1329L44.6155 11.4721L44.4495 11.8258L44.2691 12.1794L44.0742 12.5331L43.8722 12.8795L43.6484 13.2187L43.4175 13.5435L43.237 13.7745L43.1721 13.8539L43.6412 14.6406L43.6989 14.5973L43.8722 14.4457L44.1031 14.222L44.3341 13.9766L44.5073 13.7745L44.565 13.7095V19.368H45.9291V11.8546L45.9508 11.8258L45.9941 11.7319L46.0663 11.5948L46.1384 11.4505L46.2106 11.2989L46.2828 11.1473L46.3477 10.9958L46.4199 10.8442L46.4849 10.6926L46.5498 10.5483L46.6076 10.4039L46.6653 10.2668L46.7158 10.1369L46.7591 10.0214L46.788 9.92037L46.8169 9.82654L46.8313 9.7688L46.8385 9.74715Z" fill="#005B47"/>
<path fill-rule="evenodd" clip-rule="evenodd" d="M21.4622 15.1505H29.6395V13.938H21.4622V15.1505Z" fill="#005B47"/>
<path fill-rule="evenodd" clip-rule="evenodd" d="M21.0157 11.5433H30.0809V10.3308H21.0157V11.5433Z" fill="#005B47"/>
<path fill-rule="evenodd" clip-rule="evenodd" d="M20.6215 19.0589H30.4733V17.8391H20.6215V19.0589Z" fill="#005B47"/>
<path fill-rule="evenodd" clip-rule="evenodd" d="M64.9605 18.1718L64.8884 18.1502L64.6646 18.0996L64.3326 18.0058L63.979 17.9048L63.5964 17.7893L63.1922 17.6522L62.7736 17.5006L62.3478 17.3202L62.0158 17.1686L61.9075 17.1181L61.9508 17.0676L62.088 16.9232L62.2684 16.7139L62.4416 16.4974L62.6076 16.2664L62.7592 16.0355L62.9108 15.7901L63.0479 15.5375L63.185 15.2776L63.3005 15.0178L63.416 14.7508L63.517 14.4765L63.6109 14.2022L63.6903 13.928L63.7552 13.6465L63.813 13.3722L63.849 13.1629L63.8563 13.0907H58.8906L58.9195 12.9753L59.035 12.4051L59.136 11.806L59.1505 11.6906H64.91V10.6801H59.266L59.2804 10.5574L59.3309 9.93671L59.367 9.28714L59.3742 9.15723H57.8008V9.1861L57.7936 9.27271V9.42427L57.7792 9.60471L57.7719 9.8068L57.7575 10.0233L57.7431 10.2471L57.7286 10.4636L57.7142 10.6296L57.707 10.6801H55.051V11.6906H57.5915L57.5843 11.7844L57.541 12.0731L57.476 12.4628L57.3966 12.8598L57.31 13.2712L57.209 13.6826L57.0935 14.1012L56.9564 14.5198L56.812 14.9528L56.646 15.3787L56.4656 15.8117L56.2563 16.2448L56.0325 16.685L55.7871 17.1181L55.5201 17.5511L55.2242 17.9842L54.986 18.3017L54.9066 18.41L55.4191 19.2617L55.4335 19.2544L55.4696 19.2256L55.549 19.1534L55.6572 19.0451L55.7944 18.9008L55.9531 18.7203L56.1336 18.5038L56.3285 18.2584L56.5378 17.9842L56.7615 17.681L56.9852 17.3418L57.2162 16.9809L57.4544 16.5912L57.6853 16.1726L57.9091 15.7323L58.1328 15.2704L58.2916 14.9023L58.3421 14.7796L58.3638 14.8734L58.4648 15.1333L58.6164 15.4797L58.7896 15.8045L58.9917 16.1148L59.2082 16.4108L59.4464 16.6922L59.6918 16.9593L59.8939 17.1542L59.9588 17.2119L59.8867 17.2624L59.6701 17.4068L59.3526 17.5872L59.0206 17.7676L58.6669 17.9409L58.2844 18.0996L57.8802 18.2512L57.4472 18.3956L57.1079 18.5038L56.9925 18.5327L57.4616 19.3627L57.4977 19.3555L57.5987 19.3266L57.7503 19.2905L57.9163 19.2472L58.0967 19.1895L58.2916 19.1317L58.4937 19.0596L58.7102 18.9874L58.9412 18.9008L59.1721 18.807L59.4103 18.7059L59.6485 18.5977L59.9011 18.4822L60.1465 18.3595L60.3919 18.2223L60.6373 18.078L60.8249 17.9697L60.8827 17.9264L60.9404 17.9625L61.1136 18.0708L61.3446 18.2079L61.5755 18.3378L61.8137 18.4605L62.0447 18.5688L62.2829 18.677L62.5066 18.7781L62.7376 18.8719L62.9541 18.9585L63.1706 19.0379L63.3727 19.1101L63.5748 19.175L63.7624 19.2328L63.9356 19.2833L64.0944 19.3266L64.2027 19.3555L64.2388 19.3699L64.9605 18.1718ZM59.0422 14.0218H62.1024L62.0808 14.1012L62.0158 14.3538L61.9148 14.6786L61.7921 14.9961L61.6477 15.3065L61.4817 15.6168L61.2868 15.9055L61.0703 16.1942L60.8899 16.4108L60.8249 16.4757L60.7455 16.418L60.5074 16.2303L60.2114 15.9633L59.9444 15.6746L59.699 15.3715L59.4825 15.0611L59.2948 14.7291L59.1505 14.3827L59.0639 14.1156L59.0422 14.0218Z" fill="#005B47"/>
<path fill-rule="evenodd" clip-rule="evenodd" d="M70.2411 13.0083V12.2577L70.27 12.2793L70.5731 12.5391L70.6092 12.5608L71.0567 11.5937L71.0278 11.5648L70.9412 11.4782L70.8257 11.3555L70.7102 11.2256L70.5947 11.0884L70.472 10.9441L70.3638 10.7997L70.2555 10.6554L70.1473 10.511L70.0462 10.3667L69.9524 10.2296L69.8658 10.0852L69.7792 9.95529L69.707 9.8326L69.642 9.7099L69.5915 9.60164L69.5554 9.52946L69.5482 9.50781H67.9748L67.9604 9.5439L67.9171 9.64494L67.8449 9.78929L67.7655 9.94086L67.6789 10.1069L67.5778 10.2656L67.4696 10.4389L67.3541 10.6049L67.2314 10.7781L67.1087 10.9441L66.9716 11.1173L66.8344 11.2833L66.6901 11.4421L66.5457 11.6009L66.4014 11.7524L66.2498 11.8968L66.1344 11.9906L66.0983 12.0267L66.488 12.9289L66.5385 12.8928L66.7839 12.7124L67.0293 12.5247L67.0726 12.4814V13.0083H68.0614V13.961H66.4375V14.8271H68.0614V18.0172L68.0181 18.0244L67.881 18.0461L67.6789 18.0821L67.4624 18.1182L67.2386 18.1471L67.0004 18.1832L66.7695 18.2193L66.5385 18.2481L66.3653 18.2698H66.3076L66.6251 19.3668L66.6973 19.3524L66.9138 19.3019L67.2098 19.2297L67.5201 19.1575L67.8305 19.0854L68.1408 19.006L68.4512 18.9266L68.7543 18.8544L69.0502 18.775L69.3389 18.7028L69.6132 18.6235L69.8658 18.5585L70.104 18.4863L70.3133 18.4286L70.5009 18.3708L70.6597 18.3131L70.7463 18.2842L70.7824 18.2698V17.4181L70.7391 17.4326L70.6236 17.4614L70.4432 17.512L70.2555 17.5625L70.0534 17.613L69.8513 17.6563L69.642 17.7068L69.4399 17.7501L69.2956 17.779L69.2523 17.7862V14.8271H70.7824V13.961H69.2523V13.0083H70.2411ZM67.4551 12.1422L67.5129 12.0917L67.6789 11.9257L67.8954 11.7091L68.0903 11.4926L68.2707 11.2833L68.4295 11.0884L68.5739 10.9008L68.6893 10.7276L68.7615 10.6121L68.7832 10.5688L68.8048 10.6121L68.8914 10.7348L69.0141 10.908L69.1585 11.1029L69.3173 11.2977L69.4977 11.507L69.6926 11.7164L69.8946 11.9329L70.0606 12.0917L70.1184 12.1422H67.4551Z" fill="#005B47"/>
<path fill-rule="evenodd" clip-rule="evenodd" d="M67.5008 15.4463H66.5048L66.7935 17.3445H67.7029L67.5008 15.4463Z" fill="#005B47"/>
<path fill-rule="evenodd" clip-rule="evenodd" d="M74.9817 16.7491L74.9962 16.7419L75.0395 16.7202L75.1044 16.6769L75.1838 16.6264L75.2704 16.5614L75.3643 16.4965L75.4653 16.4243L75.5736 16.3521L75.6746 16.2655L75.7829 16.1861L75.8911 16.1067L75.9922 16.0201L76.0932 15.9407L76.187 15.8613L76.2664 15.782L76.3458 15.7098L76.3891 15.6593L76.4108 15.6448L75.5952 14.9086L75.5663 14.9447L75.4797 15.0386L75.3426 15.1829L75.191 15.3417L75.0322 15.5005L74.8735 15.652L74.7147 15.7964L74.5776 15.9119L74.4982 15.984L74.4693 16.0057L74.4115 15.9263L74.2672 15.6593L74.094 15.3056L73.9424 14.9375L73.8558 14.6633L73.8269 14.5694H75.8983V9.69043H71.2503V19.3835L71.2936 19.3762L71.4235 19.3546L71.604 19.3113L71.7916 19.2608L71.9865 19.2102L72.1814 19.1453L72.3834 19.0803L72.5855 19.0082L72.7804 18.936L72.9681 18.8566L73.1557 18.7844L73.3289 18.705L73.4949 18.6256L73.6465 18.5535L73.7836 18.4885L73.8991 18.4235L73.9785 18.373L74.0002 18.3586V17.442L73.9713 17.4564L73.8775 17.4997L73.7042 17.5719L73.5021 17.6513L73.2856 17.7307L73.0619 17.8028L72.8381 17.875L72.6361 17.9328L72.5134 17.9616L72.4701 17.9761V14.5694H72.9031L72.9175 14.6488L72.9681 14.887L73.0619 15.2046L73.1701 15.5366L73.2928 15.8686L73.4372 16.2006L73.596 16.5326L73.7692 16.8574L73.9496 17.1821L74.1517 17.5069L74.3538 17.8173L74.5703 18.1204L74.7941 18.4091L75.025 18.6906L75.2632 18.9504L75.5014 19.203L75.6818 19.3762L75.7468 19.434L76.6417 18.4019L76.5984 18.373L76.4613 18.2648L76.2664 18.0988L76.0643 17.9183L75.8478 17.7162L75.6313 17.4997L75.4148 17.2615L75.1983 17.0161L75.0322 16.8141L74.9817 16.7491ZM72.4701 10.5349H74.6786V11.7113H72.4701V10.5349ZM74.6786 13.7322H72.4701V12.5413H74.6786V13.7322Z" fill="#005B47"/>
<path fill-rule="evenodd" clip-rule="evenodd" d="M70.5024 16.9449L70.755 15.4509H69.7951L69.6146 16.9449H70.5024Z" fill="#005B47"/>
</svg>
