<svg width="78" height="25" viewBox="0 0 78 25" fill="none" xmlns="http://www.w3.org/2000/svg">
<path fill-rule="evenodd" clip-rule="evenodd" d="M39.8404 19.1793C39.7349 19.1793 39.6799 19.1356 39.6799 19.0466V0.528178C39.6799 0.42194 39.7348 0.369141 39.8404 0.369141H48.8448C55.8464 0.369141 56.055 7.96993 52.3218 9.46969C53.8189 10.111 55.1106 11.4455 55.1414 13.782C55.1414 15.4399 54.6101 16.7537 53.5458 17.7242C52.4991 18.6941 51.2591 19.1793 49.823 19.1793H39.8404ZM43.0233 3.57184V7.96993H48.8643C52.3578 7.72834 52.312 3.49932 48.5261 3.57184H43.0233ZM43.0233 11.1799V15.9557H49.1307C52.747 15.8352 52.3505 11.0995 49.1307 11.1799H43.0233Z" fill="#C72E8F"/>
<path fill-rule="evenodd" clip-rule="evenodd" d="M41.6465 21.2215C41.7285 21.334 41.77 21.4688 41.77 21.6265C41.7701 21.7884 41.7285 21.9196 41.6459 22.016C41.5993 22.072 41.5323 22.1225 41.4421 22.1681C41.5784 22.2179 41.6809 22.2963 41.7506 22.4018C41.8197 22.5092 41.8545 22.6383 41.8545 22.7907C41.8546 22.9476 41.814 23.0888 41.7357 23.215C41.6855 23.2969 41.6219 23.3662 41.5467 23.4225C41.462 23.4869 41.3616 23.5319 41.2448 23.5557C41.1295 23.58 41.0045 23.5915 40.8693 23.5915H39.6667V20.939H40.9552C41.2807 20.9439 41.5107 21.0373 41.6465 21.2215ZM40.198 21.3997V21.9838H40.8467C40.9625 21.9838 41.0568 21.9627 41.129 21.9196C41.2007 21.8743 41.2366 21.7975 41.2366 21.6859C41.2366 21.5625 41.1889 21.4806 41.0937 21.4415C41.0116 21.4137 40.9062 21.3997 40.779 21.3997L40.198 21.3997ZM40.198 22.4237V23.1312H40.8462C40.9614 23.1312 41.0522 23.1153 41.1162 23.0848C41.233 23.0267 41.2914 22.9161 41.2914 22.7535C41.2914 22.6151 41.235 22.5201 41.1213 22.4691C41.0578 22.4393 40.9697 22.4245 40.855 22.4237H40.198Z" fill="#C72E8F"/>
<path fill-rule="evenodd" clip-rule="evenodd" d="M43.5213 21.6696C43.6597 21.7316 43.7729 21.828 43.8625 21.9604C43.9431 22.0769 43.9963 22.2106 44.0204 22.3652C44.0336 22.4553 44.0388 22.5853 44.0373 22.7548H42.5995C42.6088 22.9512 42.6775 23.0889 42.8071 23.1697C42.885 23.2189 42.9797 23.2428 43.091 23.2428C43.2083 23.2428 43.304 23.2123 43.3773 23.1527C43.4173 23.1199 43.4522 23.0754 43.4833 23.018H44.0107C43.9962 23.1338 43.9322 23.253 43.8185 23.3724C43.6427 23.5629 43.3937 23.6593 43.0766 23.6593C42.8148 23.6593 42.5821 23.5788 42.3818 23.4177C42.1809 23.2566 42.08 22.9941 42.08 22.6318C42.08 22.2913 42.1707 22.0316 42.3531 21.8493C42.534 21.6691 42.7691 21.5781 43.0582 21.5781C43.2293 21.5781 43.3846 21.6083 43.5213 21.6696ZM42.7507 22.1128C42.6775 22.1877 42.6318 22.2882 42.6128 22.4171H43.5013C43.4923 22.2803 43.446 22.1771 43.3646 22.1072C43.2825 22.0364 43.1792 22.0006 43.0582 22.0006C42.9259 22.0006 42.8224 22.0387 42.7507 22.1128Z" fill="#C72E8F"/>
<path fill-rule="evenodd" clip-rule="evenodd" d="M45.9977 22.3977C46.0934 22.3855 46.1621 22.3718 46.203 22.3536C46.2769 22.3223 46.3142 22.2729 46.3142 22.2071C46.3143 22.1274 46.2861 22.0713 46.2292 22.0409C46.1718 22.0108 46.0888 21.9957 45.9786 21.9957C45.8546 21.9957 45.7675 22.0252 45.7163 22.0856C45.6795 22.1296 45.6554 22.1903 45.6435 22.2658H45.145C45.1564 22.094 45.2044 21.9529 45.29 21.8427C45.4283 21.6691 45.6625 21.5837 45.9955 21.5837C46.2133 21.5837 46.4049 21.6255 46.574 21.7112C46.7421 21.7966 46.8255 21.9569 46.8255 22.1929V23.0936C46.8255 23.1553 46.8267 23.2316 46.8306 23.3198C46.8326 23.3874 46.8433 23.434 46.8603 23.457C46.8771 23.481 46.9028 23.5008 46.9371 23.5161V23.5915H46.3756C46.3602 23.5523 46.3489 23.515 46.3428 23.4809C46.3368 23.4458 46.3325 23.4055 46.3284 23.3616C46.2562 23.4379 46.1746 23.5036 46.081 23.5584C45.9692 23.6208 45.8433 23.6532 45.7028 23.6532C45.523 23.6532 45.3748 23.6018 45.2576 23.5008C45.1407 23.3994 45.0818 23.2559 45.0818 23.0696C45.0818 22.829 45.1756 22.6531 45.3636 22.5466C45.4671 22.4875 45.6193 22.4457 45.8202 22.421L45.9977 22.3977ZM46.3127 22.6377C46.2794 22.658 46.2456 22.6748 46.2132 22.6873C46.1795 22.6995 46.1333 22.712 46.0739 22.7224L45.9566 22.7441C45.8459 22.7636 45.7675 22.7867 45.7194 22.8142C45.6383 22.8605 45.5979 22.9347 45.5979 23.0328C45.5979 23.1194 45.6226 23.1832 45.6717 23.2215C45.7219 23.2606 45.7829 23.2806 45.8535 23.2806C45.9663 23.2806 46.0698 23.2479 46.1652 23.1832C46.2594 23.1185 46.3096 22.9999 46.3127 22.8289L46.3127 22.6377Z" fill="#C72E8F"/>
<path fill-rule="evenodd" clip-rule="evenodd" d="M48.5954 22.9651C48.606 23.0567 48.6306 23.122 48.6656 23.1593C48.7306 23.2276 48.8494 23.2632 49.0226 23.2632C49.1246 23.2632 49.2055 23.2475 49.2656 23.2178C49.3246 23.1867 49.3557 23.1419 49.3557 23.083C49.3557 23.0251 49.3316 22.9808 49.2824 22.9512C49.2338 22.9216 49.0544 22.8697 48.744 22.7965C48.5191 22.7412 48.3612 22.6725 48.2695 22.5891C48.1777 22.5076 48.1322 22.3898 48.1322 22.2361C48.1322 22.0557 48.2039 21.8999 48.3474 21.7684C48.4902 21.6387 48.6922 21.5735 48.9519 21.5735C49.1989 21.5735 49.3998 21.6226 49.5549 21.72C49.7097 21.8187 49.7989 21.9872 49.823 22.227H49.307C49.299 22.1612 49.2804 22.1094 49.2501 22.0704C49.1937 22.0011 49.097 21.9665 48.9607 21.9665C48.8484 21.9665 48.767 21.9838 48.7193 22.0185C48.6712 22.0531 48.6476 22.0939 48.6476 22.1408C48.6477 22.2 48.6733 22.2422 48.7234 22.2688C48.7741 22.2962 48.9545 22.3437 49.2625 22.4115C49.4679 22.4584 49.6217 22.5313 49.7247 22.6291C49.8265 22.7272 49.8762 22.85 49.8762 22.9976C49.8762 23.1923 49.8036 23.3511 49.658 23.4732C49.512 23.5965 49.2871 23.6592 48.9822 23.6592C48.6712 23.6592 48.4431 23.5939 48.2941 23.4633C48.1465 23.3335 48.0722 23.1673 48.0722 22.965L48.5954 22.9651Z" fill="#C72E8F"/>
<path fill-rule="evenodd" clip-rule="evenodd" d="M49.9982 22.0131V21.6487H50.2732V21.1008H50.7842V21.6487H51.1034V22.0131H50.7842V23.0494C50.7842 23.1302 50.7933 23.1812 50.8134 23.2004C50.8338 23.2208 50.8964 23.2309 51.0019 23.2309C51.0182 23.2309 51.0348 23.2306 51.0516 23.2277C51.0696 23.2277 51.0865 23.2274 51.1033 23.227L51.1034 23.6103L50.8596 23.6193C50.6157 23.6273 50.4491 23.5854 50.3594 23.4934C50.3025 23.4348 50.2733 23.3443 50.2733 23.221V22.0134L49.9982 22.0131Z" fill="#C72E8F"/>
<path fill-rule="evenodd" clip-rule="evenodd" d="M52.664 21.6696C52.8019 21.7316 52.9157 21.828 53.0053 21.9604C53.0862 22.0769 53.138 22.2106 53.1626 22.3652C53.1765 22.4553 53.1816 22.5853 53.1795 22.7548H51.7433C51.7504 22.9512 51.8202 23.0889 51.9488 23.1697C52.0282 23.2189 52.123 23.2428 52.2327 23.2428C52.3506 23.2428 52.4463 23.2123 52.5202 23.1527C52.5596 23.1199 52.5954 23.0754 52.6267 23.018H53.1529C53.1391 23.1338 53.0755 23.253 52.9612 23.3724C52.785 23.5629 52.5375 23.6593 52.2199 23.6593C51.9575 23.6593 51.7254 23.5788 51.5251 23.4177C51.3248 23.2566 51.2238 22.9941 51.2238 22.6318C51.2238 22.2913 51.3134 22.0316 51.4953 21.8493C51.6762 21.6691 51.9114 21.5781 52.2009 21.5781C52.3725 21.5781 52.5273 21.6083 52.664 21.6696ZM51.8935 22.1128C51.8202 22.1877 51.7741 22.2882 51.7562 22.4171H52.6441C52.634 22.2803 52.5893 22.1771 52.5068 22.1072C52.4248 22.0364 52.3233 22.0006 52.2009 22.0006C52.0687 22.0006 51.9657 22.0387 51.8935 22.1128Z" fill="#C72E8F"/>
<path fill-rule="evenodd" clip-rule="evenodd" d="M55.1722 21.8635C55.3313 22.0308 55.4126 22.2761 55.4126 22.5987C55.4126 22.94 55.3332 23.2005 55.1773 23.3797C55.0203 23.5586 54.8192 23.6478 54.5732 23.6478C54.4163 23.6478 54.2864 23.6095 54.1824 23.5319C54.1254 23.4891 54.0694 23.4272 54.0154 23.3453V24.355H53.509V21.6548H53.9996V21.9418C54.0556 21.857 54.1146 21.7903 54.1774 21.7429C54.292 21.6559 54.4285 21.6123 54.5853 21.6123C54.8172 21.6123 55.0123 21.6957 55.1722 21.8635ZM54.7779 22.2277C54.7082 22.113 54.5961 22.0551 54.4392 22.0551C54.2512 22.0551 54.1223 22.1417 54.0525 22.3164C54.0154 22.4096 53.998 22.5266 53.998 22.6694C53.9981 22.8929 54.0587 23.0523 54.1824 23.1436C54.2533 23.1957 54.3393 23.2233 54.4392 23.2233C54.5839 23.2233 54.6934 23.1685 54.7698 23.0603C54.8446 22.9502 54.8823 22.8051 54.8823 22.6244C54.8824 22.4746 54.8473 22.3414 54.7779 22.2277Z" fill="#C72E8F"/>
<path fill-rule="evenodd" clip-rule="evenodd" d="M57.3473 22.3977C57.4436 22.3855 57.5132 22.3718 57.5538 22.3536C57.6281 22.3223 57.6643 22.2729 57.6643 22.2071C57.6643 22.1274 57.6362 22.0713 57.5798 22.0409C57.523 22.0108 57.4394 21.9957 57.3298 21.9957C57.2068 21.9957 57.1176 22.0252 57.0669 22.0856C57.0307 22.1296 57.0055 22.1903 56.9937 22.2658H56.4967C56.5067 22.094 56.5556 21.9529 56.6417 21.8427C56.7785 21.6691 57.0137 21.5837 57.3472 21.5837C57.5635 21.5837 57.7567 21.6255 57.9246 21.7112C58.0933 21.7966 58.1767 21.9569 58.1767 22.1929V23.0936C58.1767 23.1553 58.1787 23.2316 58.1807 23.3198C58.1848 23.3874 58.1955 23.434 58.2121 23.457C58.2295 23.481 58.2535 23.5008 58.288 23.5161V23.5915H57.7264C57.712 23.5523 57.7011 23.515 57.6945 23.4809C57.6875 23.4458 57.6837 23.4055 57.6802 23.3616C57.608 23.4379 57.5255 23.5036 57.4322 23.5584C57.3211 23.6208 57.1945 23.6532 57.054 23.6532C56.8737 23.6532 56.7256 23.6018 56.6093 23.5008C56.4916 23.3994 56.4337 23.2559 56.4337 23.0696C56.4337 22.829 56.5274 22.6531 56.7155 22.5466C56.8195 22.4875 56.9716 22.4457 57.1715 22.421L57.3473 22.3977ZM57.663 22.6377C57.6301 22.658 57.5967 22.6748 57.5635 22.6873C57.5292 22.6995 57.4836 22.712 57.4251 22.7224L57.3074 22.7441C57.1977 22.7636 57.1176 22.7867 57.0701 22.8142C56.9891 22.8605 56.9491 22.9347 56.9491 23.0328C56.9491 23.1194 56.9727 23.1832 57.0225 23.2215C57.0721 23.2606 57.1335 23.2806 57.2043 23.2806C57.3161 23.2806 57.4205 23.2479 57.5153 23.1832C57.6097 23.1185 57.6593 22.9999 57.6629 22.8289L57.663 22.6377Z" fill="#C72E8F"/>
<path fill-rule="evenodd" clip-rule="evenodd" d="M59.9896 21.6414C60.089 21.6828 60.1704 21.7475 60.2339 21.8341C60.2883 21.9066 60.3206 21.982 60.3338 22.0591C60.3447 22.1374 60.3514 22.2644 60.3514 22.4382V23.5916H59.8241V22.3972C59.8241 22.2914 59.8062 22.206 59.7703 22.141C59.7242 22.0505 59.6356 22.0049 59.5044 22.0049C59.3696 22.0049 59.2667 22.0505 59.1964 22.1405C59.1273 22.231 59.0915 22.3601 59.0915 22.5286V23.5916H58.576V20.9478H59.0915V21.8826C59.1662 21.7707 59.2523 21.6911 59.3501 21.6455C59.4486 21.6008 59.5511 21.5782 59.6597 21.5782C59.7805 21.5782 59.8912 21.5997 59.9896 21.6414Z" fill="#C72E8F"/>
<path fill-rule="evenodd" clip-rule="evenodd" d="M62.0657 21.6696C62.2024 21.7316 62.3162 21.828 62.4065 21.9604C62.4869 22.0769 62.5391 22.2106 62.5631 22.3652C62.578 22.4553 62.5832 22.5853 62.5806 22.7548H61.144C61.153 22.9512 61.2208 23.0889 61.3494 23.1697C61.4293 23.2189 61.5242 23.2428 61.6353 23.2428C61.7522 23.2428 61.848 23.2123 61.9212 23.1527C61.9612 23.1199 61.9971 23.0754 62.0273 23.018H62.554C62.5401 23.1338 62.4761 23.253 62.3623 23.3724C62.1861 23.5629 61.9381 23.6593 61.6199 23.6593C61.3587 23.6593 61.126 23.5788 60.9262 23.4177C60.7248 23.2566 60.6239 22.9941 60.6239 22.6318C60.6239 22.2913 60.7147 22.0316 60.897 21.8493C61.0779 21.6691 61.3125 21.5781 61.602 21.5781C61.7732 21.5781 61.9283 21.6083 62.0657 21.6696ZM61.2945 22.1128C61.2218 22.1877 61.1756 22.2882 61.1572 22.4171H62.0452C62.0352 22.2803 61.9898 22.1771 61.9069 22.1072C61.8258 22.0364 61.7239 22.0006 61.6019 22.0006C61.4698 22.0006 61.3669 22.0387 61.2945 22.1128Z" fill="#C72E8F"/>
<path fill-rule="evenodd" clip-rule="evenodd" d="M63.567 22.3977C63.6633 22.3855 63.732 22.3718 63.7734 22.3536C63.8473 22.3223 63.8846 22.2729 63.8846 22.2071C63.8846 22.1274 63.8559 22.0713 63.7991 22.0409C63.7422 22.0108 63.6585 21.9957 63.5484 21.9957C63.425 21.9957 63.3379 22.0252 63.2867 22.0856C63.2499 22.1296 63.2247 22.1903 63.2129 22.2658H62.7155C62.7267 22.094 62.7744 21.9529 62.8604 21.8427C62.9972 21.6691 63.2329 21.5837 63.5655 21.5837C63.7827 21.5837 63.9753 21.6255 64.1445 21.7112C64.312 21.7966 64.3965 21.9569 64.3965 22.1929V23.0936C64.3965 23.1553 64.3976 23.2316 64.4005 23.3198C64.4025 23.3874 64.4143 23.434 64.4301 23.457C64.4481 23.481 64.4737 23.5008 64.5069 23.5161V23.5915H63.9465C63.9306 23.5523 63.9187 23.515 63.9131 23.4809C63.9071 23.4458 63.9018 23.4055 63.8993 23.3616C63.8271 23.4379 63.7445 23.5036 63.6518 23.5584C63.5402 23.6208 63.4152 23.6532 63.2727 23.6532C63.0928 23.6532 62.9442 23.6018 62.8279 23.5008C62.7111 23.3994 62.6522 23.2559 62.6522 23.0696C62.6522 22.829 62.7464 22.6531 62.9355 22.5466C63.038 22.4875 63.1897 22.4457 63.3915 22.421L63.567 22.3977ZM63.8821 22.6377C63.8498 22.658 63.8154 22.6748 63.7827 22.6873C63.7488 22.6995 63.7032 22.712 63.6443 22.7224L63.5265 22.7441C63.4163 22.7636 63.3379 22.7867 63.2893 22.8142C63.2083 22.8605 63.1673 22.9347 63.1673 23.0328C63.1673 23.1194 63.1925 23.1832 63.2426 23.2215C63.2918 23.2606 63.3522 23.2806 63.423 23.2806C63.5363 23.2806 63.6392 23.2479 63.7345 23.1832C63.8293 23.1185 63.8791 22.9999 63.8821 22.8289L63.8821 22.6377Z" fill="#C72E8F"/>
<path fill-rule="evenodd" clip-rule="evenodd" d="M65.8368 21.6612C65.9295 21.7138 66.0054 21.7862 66.0631 21.8785V20.9426H66.5853V23.5916H66.0848V23.3199C66.0105 23.4368 65.9274 23.5212 65.8332 23.5742C65.7394 23.6273 65.6225 23.6533 65.4821 23.6533C65.2511 23.6533 65.0585 23.561 64.9012 23.3745C64.7429 23.1892 64.6644 22.9513 64.6644 22.6618C64.6644 22.3262 64.7423 22.0629 64.897 21.8708C65.0513 21.6797 65.2593 21.5838 65.5191 21.5838C65.6379 21.5838 65.7439 21.6098 65.8368 21.6612ZM65.9633 23.0595C66.0396 22.9513 66.078 22.8112 66.078 22.6402C66.0781 22.4004 66.0171 22.2281 65.8937 22.1254C65.8203 22.0624 65.7337 22.0316 65.6348 22.0316C65.4838 22.0316 65.3725 22.0884 65.3012 22.2016C65.232 22.3152 65.1962 22.4553 65.1962 22.6244C65.1962 22.8045 65.232 22.9496 65.3038 23.0582C65.3751 23.1675 65.4846 23.2208 65.6302 23.2208C65.7768 23.2208 65.888 23.1675 65.9633 23.0595Z" fill="#C72E8F"/>
<path fill-rule="evenodd" clip-rule="evenodd" d="M69.618 23.3513C69.451 23.5568 69.1984 23.6592 68.8597 23.6592C68.5201 23.6592 68.268 23.5568 68.1019 23.3513C67.9344 23.1475 67.8514 22.9021 67.8514 22.6143C67.8514 22.3309 67.9343 22.0855 68.1019 21.8773C68.268 21.6709 68.52 21.5676 68.8597 21.5676C69.1984 21.5676 69.4509 21.6709 69.618 21.8773C69.785 22.0855 69.8676 22.3309 69.8676 22.6143C69.8676 22.9021 69.785 23.1475 69.618 23.3513ZM69.2056 23.068C69.286 22.9616 69.326 22.8103 69.326 22.6143C69.326 22.4176 69.2861 22.2662 69.2056 22.1597C69.1251 22.0541 69.0083 22.0006 68.8582 22.0006C68.7075 22.0006 68.5913 22.0541 68.5103 22.1597C68.4283 22.2662 68.3879 22.4176 68.3879 22.6143C68.3879 22.8103 68.4283 22.9616 68.5103 23.068C68.5913 23.1745 68.7075 23.2276 68.8582 23.2276C69.0084 23.2276 69.1251 23.1745 69.2056 23.068Z" fill="#C72E8F"/>
<path fill-rule="evenodd" clip-rule="evenodd" d="M70.9968 20.9141C71.0235 20.9161 71.0594 20.918 71.1059 20.9231V21.3405C71.0768 21.3374 71.028 21.3346 70.9599 21.3325C70.8918 21.3317 70.8446 21.3458 70.8185 21.3777C70.7928 21.409 70.7801 21.4439 70.7801 21.4835C70.7801 21.5209 70.7801 21.5768 70.7801 21.6493H71.1178V22.0109H70.7801V23.5921H70.2677V22.0109H69.9787V21.6493H70.26V21.5227C70.26 21.3127 70.2969 21.1685 70.3666 21.089C70.4425 20.9712 70.6232 20.9131 70.9086 20.9131C70.941 20.9131 70.9711 20.9131 70.9968 20.9151" fill="#C72E8F"/>
<path fill-rule="evenodd" clip-rule="evenodd" d="M72.8603 23.5915H72.3444V20.939H72.8603V23.5915Z" fill="#C72E8F"/>
<path fill-rule="evenodd" clip-rule="evenodd" d="M73.8379 21.3966H73.3154V20.9229H73.8379V21.3966ZM73.3154 21.6297H73.8379V23.5917H73.3154V21.6297Z" fill="#C72E8F"/>
<path fill-rule="evenodd" clip-rule="evenodd" d="M75.0979 20.9141C75.1241 20.9161 75.1604 20.918 75.2055 20.9231V21.3405C75.1767 21.3374 75.1285 21.3346 75.0604 21.3325C74.9923 21.3317 74.9457 21.3458 74.9201 21.3777C74.8934 21.409 74.8811 21.4439 74.8811 21.4835C74.8811 21.5209 74.8811 21.5768 74.8811 21.6493H75.2193V22.0109H74.8811V23.5921H74.3682V22.0109H74.0798V21.6493H74.3616V21.5227C74.3616 21.3127 74.3968 21.1685 74.4677 21.089C74.543 20.9712 74.7228 20.9131 75.0092 20.9131C75.0415 20.9131 75.0707 20.9131 75.0978 20.9151" fill="#C72E8F"/>
<path fill-rule="evenodd" clip-rule="evenodd" d="M76.7446 21.6696C76.8835 21.7316 76.9961 21.828 77.0853 21.9604C77.1668 22.0769 77.219 22.2106 77.2437 22.3652C77.257 22.4553 77.2626 22.5853 77.2605 22.7548H75.8238C75.8319 22.9512 75.9008 23.0889 76.0304 23.1697C76.1083 23.2189 76.2041 23.2428 76.3142 23.2428C76.432 23.2428 76.5274 23.2123 76.6007 23.1527C76.6401 23.1199 76.676 23.0754 76.7062 23.018H77.2339C77.2196 23.1338 77.1566 23.253 77.0428 23.3724C76.865 23.5629 76.6186 23.6593 76.2999 23.6593C76.0375 23.6593 75.8065 23.5788 75.6051 23.4177C75.4042 23.2566 75.3043 22.9941 75.3043 22.6318C75.3044 22.2913 75.395 22.0316 75.5769 21.8493C75.7573 21.6691 75.9924 21.5781 76.2819 21.5781C76.453 21.5781 76.6073 21.6083 76.7446 21.6696ZM75.974 22.1128C75.9013 22.1877 75.8557 22.2882 75.8361 22.4171H76.7246C76.7156 22.2803 76.6698 22.1771 76.5878 22.1072C76.5053 22.0364 76.4038 22.0006 76.2819 22.0006C76.1488 22.0006 76.0468 22.0387 75.974 22.1128Z" fill="#C72E8F"/>
<path fill-rule="evenodd" clip-rule="evenodd" d="M6.26179 19.1793C6.15552 19.1793 6.10223 19.1356 6.10223 19.0466V3.57954H0.259393C0.153023 3.57954 0.0997314 3.52663 0.0997314 3.42078V0.528178C0.0997314 0.42194 0.153024 0.369141 0.259393 0.369141H15.4631C15.5698 0.369141 15.6231 0.421948 15.6231 0.528178V3.42078C15.6231 3.52659 15.5698 3.57954 15.4631 3.57954H9.64835V19.0466C9.64835 19.1356 9.59506 19.1793 9.48897 19.1793H6.26179Z" fill="#C72E8F"/>
<path fill-rule="evenodd" clip-rule="evenodd" d="M15.2707 19.0475C15.2215 19.1489 15.159 19.1825 15.0837 19.1825H11.5652C11.4905 19.1825 11.4294 19.1219 11.4294 19.0475L18.8297 0.490004C18.8399 0.451963 18.8942 0.373111 18.9674 0.373111L22.5356 0.35498C22.611 0.35498 22.6718 0.416066 22.6718 0.49001L15.2707 19.0475Z" fill="#C72E8F"/>
<path fill-rule="evenodd" clip-rule="evenodd" d="M26.3066 19.0591C26.3384 19.1321 26.4065 19.194 26.4808 19.194H30.0131C30.0875 19.194 30.1735 19.1321 30.1489 19.0591L22.7082 0.49001C22.6717 0.383796 22.5996 0.35498 22.5253 0.35498H19.0033C18.928 0.35498 18.8541 0.396332 18.8362 0.470679L26.3066 19.0591Z" fill="#3052A1"/>
<path fill-rule="evenodd" clip-rule="evenodd" d="M34.1019 19.0271C34.129 19.0994 34.1875 19.1624 34.2632 19.1624H37.8074C37.8822 19.1624 37.9606 19.1021 37.9437 19.0271L30.5224 0.489992C30.4794 0.410565 30.4543 0.368217 30.38 0.368217L26.8169 0.35498C26.7416 0.35498 26.6797 0.41607 26.6797 0.49001L34.1019 19.0271Z" fill="#3052A1"/>
<path fill-rule="evenodd" clip-rule="evenodd" d="M25.0308 4.83668C25.0974 4.99133 26.4495 8.42986 26.7769 9.26635C26.8138 9.35194 26.9065 9.37863 26.9624 9.26038C27.0157 9.14387 30.5014 0.458965 30.5014 0.458965C30.4835 0.397776 30.4168 0.355225 30.3472 0.355225H26.7769C26.7262 0.3572 26.6653 0.421595 26.6406 0.490254L25.0164 4.54453C25.0164 4.54453 24.9564 4.66049 25.0308 4.83668Z" fill="#C72E8F"/>
<path fill-rule="evenodd" clip-rule="evenodd" d="M62.3879 4.39409V7.00739H61.9273V4.39409H61.0895V3.98193H63.2246V4.39409H62.3879Z" fill="#3052A1"/>
<path fill-rule="evenodd" clip-rule="evenodd" d="M64.4338 7.00768V6.81214C64.2755 6.96868 64.1254 7.03288 63.8568 7.03288C63.5875 7.03288 63.407 6.96871 63.2748 6.83685C63.1646 6.72295 63.1047 6.55734 63.1047 6.37537C63.1047 6.01264 63.3569 5.75425 63.8523 5.75425H64.4246V5.60065C64.4246 5.32891 64.2879 5.19739 63.9501 5.19739C63.7108 5.19739 63.5961 5.2529 63.4768 5.40594L63.1909 5.13879C63.3953 4.9003 63.6084 4.82788 63.968 4.82788C64.5614 4.82788 64.8596 5.07889 64.8596 5.56768V7.00768H64.4338ZM64.4248 6.05599H63.9161C63.6603 6.05599 63.5282 6.1707 63.5282 6.36592C63.5282 6.56142 63.6516 6.67152 63.9248 6.67152C64.0919 6.67152 64.2158 6.65927 64.3306 6.54864C64.3952 6.48467 64.4248 6.38303 64.4248 6.22987L64.4248 6.05599Z" fill="#3052A1"/>
<path fill-rule="evenodd" clip-rule="evenodd" d="M68.0205 7.00768V5.69462C68.0205 5.35943 67.8288 5.21441 67.5843 5.21441C67.3507 5.21441 67.1365 5.3633 67.1365 5.67372V7.00768H66.7006V5.69462C66.7006 5.35943 66.5089 5.21441 66.2655 5.21441C66.0216 5.21441 65.8178 5.36329 65.8178 5.69462V7.00768H65.3812V4.85337H65.8086V5.07051C65.954 4.91256 66.1672 4.82788 66.3843 4.82788C66.6544 4.82788 66.8645 4.9344 67.0002 5.14237C67.1745 4.92929 67.3927 4.82788 67.6791 4.82788C67.9011 4.82788 68.0972 4.90032 68.2258 5.02369C68.3928 5.18441 68.4569 5.38909 68.4569 5.63068V7.00768H68.0205Z" fill="#3052A1"/>
<path fill-rule="evenodd" clip-rule="evenodd" d="M68.9647 4.42868V3.96948H69.4259V4.42868H68.9647ZM68.9782 7.0076V4.85328H69.4135V7.0076H68.9782Z" fill="#3052A1"/>
<path fill-rule="evenodd" clip-rule="evenodd" d="M70.5371 7.00739C70.1226 7.00739 69.9433 6.73135 69.9433 6.41257V3.98193H70.3784V6.38675C70.3784 6.55248 70.4388 6.63706 70.6135 6.63706L70.8057 6.63696V7.00739H70.5371Z" fill="#3052A1"/>
<path fill-rule="evenodd" clip-rule="evenodd" d="M72.4536 7.00768V5.69462C72.4536 5.35943 72.2628 5.21441 72.019 5.21441C71.7756 5.21441 71.5706 5.36329 71.5706 5.69462V7.00768H71.1346V4.85337H71.5619V5.07051C71.7115 4.90898 71.9206 4.82788 72.1388 4.82788C72.3602 4.82788 72.5436 4.90032 72.6722 5.02369C72.8382 5.18441 72.8894 5.38909 72.8894 5.63068L72.8895 7.00768H72.4536Z" fill="#3052A1"/>
<path fill-rule="evenodd" clip-rule="evenodd" d="M74.5777 7.00768V6.81214C74.4195 6.96868 74.2693 7.03288 74.0018 7.03288C73.7308 7.03288 73.552 6.96871 73.4193 6.83685C73.3086 6.72295 73.2491 6.55734 73.2491 6.37537C73.2491 6.01264 73.5002 5.75425 73.9962 5.75425H74.5685V5.60065C74.5685 5.32891 74.4312 5.19739 74.0951 5.19739C73.8558 5.19739 73.7395 5.2529 73.6206 5.40594L73.3347 5.13879C73.5391 4.9003 73.7528 4.82788 74.1114 4.82788C74.7054 4.82788 75.0041 5.07889 75.0041 5.56768V7.00768H74.5777ZM74.5687 6.05599H74.0614C73.8042 6.05599 73.6716 6.1707 73.6716 6.36592C73.6716 6.56142 73.7961 6.67152 74.0686 6.67152C74.2357 6.67152 74.3592 6.65927 74.4749 6.54864C74.539 6.48467 74.5687 6.38303 74.5687 6.22987L74.5687 6.05599Z" fill="#3052A1"/>
<path fill-rule="evenodd" clip-rule="evenodd" d="M76.7686 7.00739V6.77779C76.6057 6.97269 76.4304 7.03259 76.1957 7.03259C75.9781 7.03259 75.7858 6.96114 75.666 6.84124C75.4489 6.62542 75.4236 6.2552 75.4236 5.92755C75.4237 5.60036 75.4489 5.23567 75.666 5.01891C75.7858 4.90001 75.974 4.82759 76.1907 4.82759C76.4217 4.82759 76.6016 4.8834 76.7599 5.07023V3.98193H77.1945V7.00739H76.7686ZM76.3116 5.21412C75.9182 5.21412 75.8582 5.54528 75.8582 5.92755C75.8582 6.3104 75.9182 6.64613 76.3116 6.64613C76.7036 6.64613 76.7599 6.3104 76.7599 5.92755C76.7599 5.54518 76.7035 5.21412 76.3116 5.21412Z" fill="#3052A1"/>
<path fill-rule="evenodd" clip-rule="evenodd" d="M60.962 11.256V9.2336L60.262 10.7085H59.9202L59.2019 9.2336V11.256H58.7418V8.23047H59.2019L60.0904 10.113L60.962 8.23047H61.4237V11.256H60.962Z" fill="#3052A1"/>
<path fill-rule="evenodd" clip-rule="evenodd" d="M62.3341 10.305C62.3341 10.6737 62.5292 10.9085 62.8844 10.9085C63.1273 10.9084 63.2559 10.8399 63.4091 10.6875L63.6872 10.9461C63.4645 11.1676 63.2559 11.2821 62.8751 11.2821C62.3341 11.2821 61.9017 10.9972 61.9017 10.1771C61.9018 9.48034 62.2639 9.07666 62.8208 9.07666C63.401 9.07655 63.7386 9.50168 63.7386 10.1131V10.305H62.3341ZM63.2467 9.70906C63.1786 9.54861 63.0248 9.43819 62.8208 9.43819C62.6145 9.43819 62.4571 9.54861 62.389 9.70916C62.3464 9.80752 62.3377 9.8713 62.3341 10.0032H63.3077C63.3027 9.8713 63.2897 9.80753 63.2467 9.70906Z" fill="#3052A1"/>
<path fill-rule="evenodd" clip-rule="evenodd" d="M65.3571 9.60743C65.2588 9.50938 65.1824 9.4635 65.0322 9.4635C64.7975 9.4635 64.6009 9.64997 64.6009 9.94822V11.2561H64.1653V9.10159H64.5927V9.33575C64.7033 9.18268 64.9257 9.07666 65.1691 9.07666C65.3786 9.07655 65.5369 9.13166 65.685 9.28056L65.3571 9.60743Z" fill="#3052A1"/>
<path fill-rule="evenodd" clip-rule="evenodd" d="M66.6129 11.2821C66.1257 11.2821 65.6476 10.9844 65.6476 10.1771C65.6476 9.36975 66.1257 9.07666 66.6129 9.07666C66.9118 9.07655 67.1212 9.16126 67.3267 9.3786L67.027 9.66712C66.8902 9.51803 66.7825 9.4635 66.6129 9.4635C66.446 9.4635 66.305 9.53076 66.2117 9.65464C66.1171 9.77391 66.0827 9.9265 66.0827 10.1771C66.0827 10.4283 66.117 10.5853 66.2117 10.7038C66.3051 10.8275 66.446 10.8952 66.6129 10.8952C66.7826 10.8952 66.8902 10.8399 67.027 10.6913L67.3267 10.9755C67.1213 11.1926 66.9118 11.2821 66.6129 11.2821Z" fill="#3052A1"/>
<path fill-rule="evenodd" clip-rule="evenodd" d="M68.8286 11.2561V11.0609C68.6706 11.2183 68.5211 11.2821 68.2525 11.2821C67.9842 11.2821 67.8037 11.2183 67.6715 11.0861C67.5604 10.9717 67.5009 10.8059 67.5009 10.6231C67.501 10.2624 67.7525 10.0032 68.2479 10.0032H68.8193V9.84957C68.8193 9.57871 68.684 9.44667 68.3463 9.44667C68.1065 9.44667 67.9918 9.50166 67.8719 9.65464L67.5855 9.38728C67.7909 9.14823 68.004 9.07666 68.3642 9.07666C68.9572 9.07655 69.2563 9.3277 69.2563 9.81488V11.2561H68.8286ZM68.8196 10.305H68.3128C68.0566 10.305 67.9233 10.4191 67.9233 10.6146C67.9233 10.8105 68.0473 10.9201 68.3205 10.9201C68.487 10.9201 68.6114 10.9085 68.7262 10.7971C68.7909 10.7337 68.8196 10.6317 68.8196 10.4798V10.305Z" fill="#3052A1"/>
<path fill-rule="evenodd" clip-rule="evenodd" d="M71.0966 11.2561V9.94316C71.0966 9.60743 70.9051 9.4635 70.6611 9.4635C70.4167 9.4635 70.2122 9.61178 70.2122 9.94316L70.2124 11.2561H69.7773V9.10159H70.2041V9.31922C70.3538 9.15757 70.5623 9.07666 70.7805 9.07666C71.0029 9.07655 71.1864 9.14821 71.3139 9.27289C71.4814 9.43341 71.5326 9.63753 71.5326 9.87995L71.5328 11.2561H71.0966Z" fill="#3052A1"/>
<path fill-rule="evenodd" clip-rule="evenodd" d="M72.6989 11.256C72.2931 11.256 72.1045 10.9678 72.1045 10.6568V9.47147H71.8571V9.14074H72.1045V8.48633H72.5411V9.14074H72.9592V9.47147H72.5411V10.6359C72.5411 10.7932 72.6174 10.8869 72.7803 10.8869H72.9592V11.256H72.6989Z" fill="#3052A1"/>
<path fill-rule="evenodd" clip-rule="evenodd" d="M73.3528 8.67813V8.21802H73.8132V8.67813H73.3528ZM73.365 11.2561V9.10165H73.8005V11.2561H73.365Z" fill="#3052A1"/>
<path fill-rule="evenodd" clip-rule="evenodd" d="M74.9236 11.256C74.5096 11.256 74.3307 10.9803 74.3307 10.6617L74.3308 8.23047H74.7657V10.636C74.7657 10.8013 74.8251 10.887 75.001 10.887H75.1926V11.256H74.9236Z" fill="#3052A1"/>
<path fill-rule="evenodd" clip-rule="evenodd" d="M75.7348 10.305C75.7348 10.6737 75.9309 10.9085 76.285 10.9085C76.5284 10.9084 76.6576 10.8399 76.8113 10.6875L77.0883 10.9461C76.8665 11.1676 76.6576 11.2821 76.2768 11.2821C75.7348 11.2821 75.3033 10.9972 75.3033 10.1771C75.3033 9.48034 75.6661 9.07666 76.2209 9.07666C76.8024 9.07655 77.1401 9.50168 77.1401 10.1131L77.1402 10.305H75.7348ZM76.6484 9.70906C76.5807 9.54861 76.4269 9.43819 76.2209 9.43819C76.0166 9.43819 75.8582 9.54861 75.7901 9.70916C75.7476 9.80752 75.7383 9.8713 75.7347 10.0032H76.7088C76.7037 9.8713 76.6912 9.80753 76.6484 9.70906Z" fill="#3052A1"/>
<path fill-rule="evenodd" clip-rule="evenodd" d="M63.0535 15.5048H61.8239V12.4802H63.0063C63.5705 12.4802 63.9245 12.7988 63.9245 13.3079C63.9246 13.6357 63.7195 13.8689 63.5151 13.9507C63.7503 14.0433 63.9717 14.2683 63.9717 14.6512C63.9717 15.2079 63.5919 15.5048 63.0535 15.5048ZM62.9684 12.8921H62.2849V13.7586H62.9684C63.2635 13.7586 63.4633 13.6061 63.4633 13.3258C63.4633 13.0455 63.2635 12.8921 62.9684 12.8921ZM63.0108 14.1707H62.2849V15.0934H63.0108C63.3316 15.0934 63.51 14.8973 63.51 14.6301C63.51 14.3621 63.3316 14.1707 63.0108 14.1707Z" fill="#3052A1"/>
<path fill-rule="evenodd" clip-rule="evenodd" d="M65.62 15.5049V15.31C65.4632 15.4663 65.3131 15.5306 65.0441 15.5306C64.7745 15.5306 64.5957 15.4663 64.463 15.3355C64.3524 15.2208 64.2925 15.0552 64.2925 14.8715C64.2925 14.5113 64.544 14.2516 65.0395 14.2516H65.6123V14.0993C65.6123 13.8265 65.4754 13.6953 65.1379 13.6953C64.8991 13.6953 64.7832 13.7509 64.6638 13.9029L64.378 13.6359C64.5825 13.3984 64.7972 13.3259 65.1553 13.3259C65.7486 13.3259 66.0473 13.5766 66.0473 14.0651V15.5049H65.62ZM65.612 14.5537H65.1038C64.847 14.5537 64.7153 14.668 64.7153 14.8638C64.7153 15.0584 64.8387 15.1693 65.1114 15.1693C65.279 15.1693 65.4019 15.1572 65.5172 15.0463C65.5813 14.9821 65.612 14.8801 65.612 14.7277L65.612 14.5537Z" fill="#3052A1"/>
<path fill-rule="evenodd" clip-rule="evenodd" d="M67.8887 15.5049V14.1922C67.8887 13.8564 67.6965 13.7118 67.4537 13.7118C67.2094 13.7118 67.0039 13.8607 67.0039 14.1922V15.5049H66.5689V13.351H66.9956V13.567C67.1453 13.4066 67.3542 13.3259 67.5726 13.3259C67.7944 13.3259 67.9784 13.3984 68.1065 13.521C68.272 13.6823 68.3237 13.8867 68.3237 14.1286L68.3238 15.5049H67.8887Z" fill="#3052A1"/>
<path fill-rule="evenodd" clip-rule="evenodd" d="M70.2083 15.5048L69.6011 14.5112L69.2809 14.8713V15.5048H68.8448V12.4802H69.2809V14.3452L70.1226 13.3508H70.6526L69.9004 14.197L70.7462 15.5048H70.2083Z" fill="#3052A1"/>
<path fill-rule="evenodd" clip-rule="evenodd" d="M71.9631 15.5048V12.4802H72.4242V15.0934H73.8896V15.5048H71.9631Z" fill="#3052A1"/>
<path fill-rule="evenodd" clip-rule="evenodd" d="M74.8597 15.505C74.4528 15.505 74.2652 15.2162 74.2652 14.9061V13.7208H74.0188V13.3889H74.2652V12.7358H74.7013V13.3889H75.1199V13.7208H74.7013V14.8851C74.7013 15.0432 74.778 15.1356 74.94 15.1356H75.1199V15.505H74.8597Z" fill="#3052A1"/>
<path fill-rule="evenodd" clip-rule="evenodd" d="M76.7686 15.5048V15.2755C76.6057 15.4715 76.4304 15.5304 76.1963 15.5304C75.9781 15.5304 75.7858 15.4589 75.666 15.3392C75.4489 15.123 75.4236 14.753 75.4236 14.4257C75.4237 14.0991 75.4489 13.7331 75.666 13.5164C75.7858 13.3982 75.974 13.3258 76.1907 13.3258C76.4217 13.3258 76.6021 13.3806 76.7599 13.5668V12.4802H77.1945V15.5048H76.7686ZM76.3116 13.7116C75.9175 13.7116 75.8582 14.0433 75.8582 14.4257C75.8582 14.808 75.9175 15.144 76.3116 15.144C76.7036 15.144 76.7599 14.808 76.7599 14.4257C76.7599 14.0433 76.7035 13.7116 76.3116 13.7116Z" fill="#3052A1"/>
</svg>
