<svg width="175" height="81" viewBox="0 0 175 81" fill="none" xmlns="http://www.w3.org/2000/svg">
<g id="TMB" clip-path="url(#clip0_4_1167)">
<path id="Vector" fill-rule="evenodd" clip-rule="evenodd" d="M136.466 34.817C140.74 34.817 145.157 34.817 149.43 34.817C153.704 34.817 158.085 34.2056 160.815 36.2558C166.345 40.4281 164.801 50.1034 155.32 50.1034H136.466V34.817ZM136.466 10.3948C142.069 10.3948 147.743 10.3948 153.309 10.3948C157.726 10.3948 163.113 11.8695 163.041 17.5884C162.969 23.3073 157.654 24.6022 153.058 24.6022H136.466V10.5386V10.3948ZM125.693 1.29477V60.2464L158.373 60.4622C162.7 60.4624 166.853 58.7504 169.927 55.6988C173.001 52.6473 174.747 48.5033 174.784 44.1688C175.122 40.6081 174.166 37.0448 172.091 34.1336C169.613 30.7886 168.787 31.2923 166.058 29.314C168.372 28.2557 170.295 26.4936 171.552 24.2784C172.59 22.4229 173.247 20.3785 173.485 18.2652C173.723 16.1519 173.537 14.0123 172.938 11.9719C172.339 9.93154 171.34 8.0315 169.998 6.38329C168.656 4.73509 166.999 3.37192 165.124 2.37377C159.378 -0.611574 152.842 0.107988 145.911 0.107988H129.751C125.98 0.107988 125.657 -0.359754 125.657 1.29477H125.693Z" fill="#B41E8E"/>
<path id="Vector_2" fill-rule="evenodd" clip-rule="evenodd" d="M1.01477e-05 1.29491V10.2509C2.51386 10.9703 15.1191 10.2509 18.9258 10.4667V60.3546H30.238V10.4667C33.8292 10.4667 46.9731 10.8983 49.1638 10.2509C49.5436 6.94076 49.5436 3.59807 49.1638 0.287919C48.661 -0.215633 7.39793 0.287963 2.47796 0.108123C0.574614 0.108123 -0.215454 -0.467524 -0.215454 1.29491H1.01477e-05Z" fill="#B41E8E"/>
<path id="Vector_3" fill-rule="evenodd" clip-rule="evenodd" d="M65.7552 16.0776L83.3523 59.9946H95.2392C95.4547 59.7788 95.5983 59.9947 94.9878 58.52L92.6893 52.6932C87.7694 40.2123 82.3826 27.2637 77.714 14.9986C75.8466 10.1069 73.6918 4.20825 71.6449 -0.21582H60.8712C59.8298 -0.21582 60.0451 -0.215908 59.3987 0.143772L65.4678 15.826L65.7552 16.0776Z" fill="#0050A4"/>
<path id="Vector_4" fill-rule="evenodd" clip-rule="evenodd" d="M65.7552 16.0776L59.686 0.395569C59.2191 1.00703 36.2353 58.9876 36.0557 60.2824H47.9786C48.9194 58.5935 49.6778 56.8091 50.2411 54.9592L65.7552 15.9698V16.0776Z" fill="#B41E8E"/>
<path id="Vector_5" fill-rule="evenodd" clip-rule="evenodd" d="M90.6423 16.0418L95.0237 26.8322C96.3165 30.0334 107.88 59.8508 108.419 60.2104H120.306C120.306 58.9875 115.422 47.2979 114.596 45.3196C109.604 33.1265 104.792 20.1422 99.7641 7.94901C98.882 5.41368 97.8628 2.9282 96.7114 0.503601C95.6341 2.9854 94.5927 5.61093 93.623 8.2366C92.4394 10.7491 91.4431 13.346 90.6423 16.0058V16.0418Z" fill="#0050A4"/>
<path id="Vector_6" fill-rule="evenodd" clip-rule="evenodd" d="M90.6423 16.0418C91.4431 13.382 92.4394 10.7851 93.6231 8.2726C94.5927 5.64694 95.6341 3.0214 96.7114 0.539608L96.2446 0H84.6091C82.4929 4.66501 80.7049 9.47246 79.2582 14.3872C80.9641 19.2898 82.9422 24.0931 85.1836 28.7744L85.5428 28.3428C86.3329 26.8681 89.4573 17.5524 90.5347 16.1496L90.6423 16.0418Z" fill="#B41E8E"/>
<path id="Vector_7" d="M15.2986 75.9285H17.9561C18.4221 75.9653 18.8877 75.852 19.2848 75.6049C19.4285 75.4749 19.5394 75.3123 19.6081 75.1309C19.6768 74.9496 19.7013 74.7545 19.6798 74.5617C19.7042 74.3633 19.6812 74.1621 19.6125 73.9744C19.5438 73.7868 19.4314 73.6182 19.2848 73.4827C18.8766 73.2304 18.3979 73.117 17.9201 73.1591H15.3705V75.9285H15.2986ZM15.2986 71.3247H17.9561C18.3673 71.3602 18.7798 71.2726 19.1412 71.0729C19.2692 70.9633 19.3687 70.8242 19.4312 70.6676C19.4938 70.511 19.5175 70.3415 19.5003 70.1737C19.5149 70.0166 19.4896 69.8584 19.4268 69.7138C19.364 69.5691 19.2659 69.4429 19.1412 69.3465C18.7864 69.1278 18.3715 69.027 17.9561 69.0587H15.4781V71.3247H15.2986ZM13.2156 77.8349V67.2243H18.2075C19.0856 67.1772 19.9552 67.417 20.6854 67.9077C20.9756 68.1532 21.2046 68.4629 21.3542 68.8126C21.5038 69.1622 21.5699 69.5421 21.5473 69.9219C21.5644 70.3869 21.4524 70.8475 21.224 71.2527C20.9902 71.6277 20.6538 71.9274 20.2545 72.1159C20.7479 72.2944 21.1741 72.621 21.4754 73.0511C21.7725 73.5109 21.9228 74.0503 21.9063 74.5977C21.9268 75.0488 21.8474 75.4988 21.6735 75.9155C21.4997 76.3322 21.2358 76.7051 20.9009 77.0075C20.0632 77.5987 19.0512 77.8902 18.028 77.8349H13.2156ZM28.2269 75.4609H30.3099C30.1258 76.2428 29.6669 76.9324 29.0171 77.4033C28.3468 77.9088 27.5208 78.1632 26.6827 78.1225C26.1782 78.1309 25.6775 78.0328 25.2135 77.8344C24.7494 77.6361 24.3323 77.3423 23.9893 76.9717C23.3023 76.0925 22.9576 74.993 23.0196 73.8783C22.9516 72.7848 23.2979 71.7061 23.9893 70.8571C24.3194 70.4823 24.73 70.1872 25.1902 69.9941C25.6505 69.801 26.1485 69.7149 26.6468 69.7421C27.1637 69.7089 27.6818 69.7881 28.1653 69.9743C28.6488 70.1606 29.0864 70.4495 29.448 70.8211C30.1441 71.6955 30.4896 72.7983 30.4175 73.9143V74.2741C30.4343 74.345 30.4343 74.4189 30.4175 74.4899H25.1385C25.1307 74.9802 25.2819 75.4598 25.5694 75.8567C25.721 76.0165 25.9057 76.141 26.1104 76.2218C26.3151 76.3025 26.535 76.3374 26.7546 76.3241C27.0677 76.3335 27.3776 76.259 27.6524 76.1083C27.8859 75.9439 28.0716 75.7205 28.191 75.4609H28.2269ZM25.1745 73.0871H28.2628C28.2525 72.6549 28.1012 72.2379 27.8319 71.9001C27.6881 71.7524 27.5142 71.6376 27.3221 71.5631C27.13 71.4886 26.9243 71.4563 26.7186 71.4685C26.5184 71.4567 26.3181 71.4894 26.1319 71.564C25.9457 71.6386 25.7782 71.7533 25.6413 71.9001C25.3461 72.2253 25.18 72.6476 25.1745 73.0871ZM40.4731 76.6839C40.2081 77.0768 39.8502 77.3981 39.4315 77.6191C38.9726 77.8404 38.4685 77.9512 37.9592 77.9427C37.6367 77.967 37.3128 77.9218 37.0092 77.8101C36.7057 77.6984 36.4296 77.5229 36.1995 77.2953C35.974 77.0489 35.8003 76.7594 35.6892 76.4442C35.5782 76.1289 35.532 75.7945 35.5531 75.4609C35.5272 75.1486 35.5716 74.8346 35.6835 74.5419C35.7955 74.2493 35.9719 73.9855 36.1995 73.7705C36.7684 73.2932 37.471 73.0043 38.2106 72.9433H39.0724C39.9702 72.9433 40.4012 72.5835 40.4012 72.1879C40.4097 72.0594 40.3881 71.9307 40.3383 71.812C40.2884 71.6934 40.2115 71.5882 40.1138 71.5045C39.8061 71.3378 39.4573 71.263 39.1084 71.2887C38.7667 71.2676 38.4271 71.3558 38.1387 71.5405C38.0338 71.6279 37.9501 71.7381 37.8941 71.8628C37.8381 71.9874 37.8113 72.1233 37.8156 72.2599H35.9122C35.8981 71.9021 35.9688 71.546 36.1186 71.2208C36.2684 70.8957 36.493 70.6109 36.774 70.3895C37.4491 69.8967 38.2746 69.655 39.1084 69.7061C39.98 69.6506 40.85 69.8374 41.6223 70.2457C41.9022 70.42 42.1319 70.6641 42.2893 70.9541C42.4467 71.2441 42.5263 71.57 42.5201 71.9001V76.3601C42.4928 76.5991 42.4928 76.8405 42.5201 77.0795C42.5507 77.1617 42.5984 77.2365 42.6604 77.2986C42.7223 77.3606 42.797 77.4087 42.8791 77.4393V77.7989H40.6885C40.6731 77.6554 40.6731 77.5107 40.6885 77.3673C40.6507 77.1894 40.6507 77.0055 40.6885 76.8277L40.4731 76.6839ZM40.4731 73.8065L39.2879 74.2021H38.6056C38.3162 74.2737 38.0464 74.4088 37.8156 74.5977C37.7376 74.6853 37.6782 74.7878 37.6411 74.8991C37.6041 75.0104 37.59 75.1282 37.5999 75.2451C37.5941 75.3732 37.6171 75.5012 37.6668 75.6194C37.7165 75.7376 37.7917 75.8431 37.8873 75.9285C37.9893 76.0196 38.1088 76.0889 38.2384 76.1322C38.3681 76.1755 38.5053 76.1919 38.6415 76.1803C38.8811 76.201 39.1223 76.1703 39.3491 76.0901C39.5758 76.0098 39.783 75.882 39.9564 75.7151C40.1299 75.5482 40.2656 75.3461 40.3547 75.1224C40.4438 74.8986 40.4842 74.6585 40.4731 74.4179V73.6625V73.8065ZM48.0505 75.1013H50.277C50.2794 75.2735 50.3192 75.443 50.3936 75.5983C50.4681 75.7536 50.5753 75.8909 50.708 76.0005C51.0783 76.2135 51.5028 76.3136 51.9291 76.2883C52.2544 76.3062 52.578 76.2314 52.8626 76.0725C52.9658 76.0176 53.0512 75.9341 53.1085 75.8321C53.1658 75.7301 53.1927 75.6137 53.1859 75.4969C53.1859 75.1372 52.791 74.8855 51.9291 74.7057L51.1389 74.5257C50.368 74.3886 49.6414 74.068 49.0202 73.5907C48.8189 73.4107 48.6597 73.1883 48.5542 72.9396C48.4486 72.6908 48.3992 72.4219 48.4095 72.1519C48.3954 71.7889 48.4662 71.4277 48.6158 71.0968C48.7654 70.7659 48.9897 70.4745 49.2714 70.2457C49.9561 69.7448 50.7959 69.5027 51.6417 69.5623C52.5098 69.5039 53.3716 69.7451 54.0837 70.2457C54.3865 70.4784 54.6316 70.7778 54.7998 71.121C54.968 71.4641 55.0548 71.8416 55.0534 72.2239H53.0064C53.0069 72.0739 52.975 71.9256 52.913 71.789C52.851 71.6524 52.7603 71.5308 52.6471 71.4325C52.3466 71.245 51.995 71.1569 51.6417 71.1807C51.3487 71.0937 51.0369 71.0937 50.7439 71.1807C50.6502 71.2345 50.5736 71.3138 50.5227 71.4092C50.4719 71.5046 50.449 71.6124 50.4565 71.7203C50.4565 72.008 50.9952 72.2957 52.0367 72.5475H52.5755C53.3553 72.6697 54.0943 72.9782 54.7301 73.4467C54.9297 73.6339 55.085 73.8637 55.1845 74.1189C55.2839 74.3741 55.3251 74.6483 55.3048 74.9215C55.3219 75.3076 55.2459 75.6921 55.0834 76.0426C54.9209 76.3932 54.6766 76.6995 54.3711 76.9357C53.5601 77.4585 52.6045 77.7103 51.6417 77.6551C50.7298 77.709 49.8278 77.4417 49.0919 76.8997C48.7958 76.6653 48.56 76.3637 48.4038 76.0196C48.2477 75.6755 48.1757 75.299 48.1941 74.9215L48.0505 75.1013ZM60.0093 77.7269H58.7882C58.5012 77.7636 58.2097 77.741 57.9318 77.6606C57.6539 77.5802 57.3953 77.4436 57.1721 77.2593C56.9804 77.0118 56.8402 76.7283 56.76 76.4255C56.6798 76.1227 56.6612 75.807 56.7052 75.4969V71.2527H55.6638V69.7781H56.7052V67.6559H58.7882V69.7781H60.0093V71.2527H58.7882V75.6049C58.7882 75.8207 58.7882 75.9645 58.7882 76.0005C58.9756 76.0565 59.1755 76.0565 59.3629 76.0005H59.8655V77.5831L60.0093 77.7269ZM66.0066 75.2811H68.2331C68.049 76.063 67.5902 76.7523 66.9403 77.2233C66.261 77.7109 65.4414 77.9635 64.6059 77.9427C64.0995 77.9657 63.5944 77.8743 63.1282 77.6751C62.6619 77.4758 62.2464 77.1738 61.9125 76.7917C61.2156 75.9159 60.8586 74.8173 60.9071 73.6985C60.8342 72.5983 61.1951 71.5136 61.9125 70.6773C62.241 70.3004 62.6513 70.0039 63.1119 69.8106C63.5726 69.6173 64.0714 69.5324 64.57 69.5623C65.0811 69.5344 65.5923 69.6161 66.0693 69.8022C66.5462 69.9883 66.9778 70.2745 67.3353 70.6413C68.0314 71.5157 68.3771 72.6185 68.305 73.7345V74.3099H63.0977C63.0725 74.8026 63.2255 75.2878 63.5286 75.6767C63.677 75.8406 63.861 75.9681 64.0665 76.0492C64.2721 76.1303 64.4937 76.1629 64.7138 76.1443C65.016 76.1585 65.3157 76.0834 65.5756 75.9285C65.8261 75.7834 66.0169 75.554 66.1142 75.2811H66.0066ZM62.9899 72.9073H66.0425C66.0602 72.4766 65.9197 72.0542 65.6475 71.7203C65.4969 71.5717 65.3166 71.4566 65.1186 71.3822C64.9207 71.3078 64.7094 71.2759 64.4983 71.2887C64.2989 71.2838 64.1005 71.3194 63.9153 71.3936C63.7301 71.4678 63.5618 71.579 63.4208 71.7203C63.1515 72.0581 63.0002 72.4751 62.9899 72.9073ZM75.1282 73.8065C75.1728 73.1607 75.0091 72.5177 74.6613 71.9721C74.5131 71.771 74.3175 71.6099 74.0919 71.5032C73.8662 71.3964 73.6177 71.3475 73.3685 71.3607C73.1248 71.3504 72.8823 71.4008 72.6629 71.5076C72.4436 71.6143 72.2542 71.7739 72.1117 71.9721C71.7936 72.5288 71.6439 73.1661 71.6808 73.8065C71.6383 74.4069 71.8031 75.0036 72.1476 75.4969C72.2911 75.703 72.4859 75.868 72.7127 75.9752C72.9395 76.0825 73.1904 76.1283 73.4404 76.1083C73.6781 76.1126 73.9132 76.0593 74.1258 75.9528C74.3385 75.8464 74.5222 75.69 74.6613 75.4969C75.0006 75.0012 75.1649 74.4063 75.1282 73.8065ZM69.6337 80.8201V69.8139H71.6448V70.8931C71.894 70.481 72.2388 70.1354 72.6502 69.8859C73.0449 69.6651 73.4913 69.5535 73.9432 69.5623C74.4009 69.5538 74.854 69.6536 75.2658 69.8536C75.6777 70.0536 76.0365 70.348 76.3133 70.7131C76.9346 71.5811 77.2504 72.6312 77.2112 73.6985C77.2477 74.7877 76.9328 75.8599 76.3133 76.7559C76.0502 77.1292 75.7001 77.4324 75.2932 77.6393C74.8864 77.8461 74.4352 77.9502 73.979 77.9427C73.5186 77.9569 73.0631 77.8477 72.659 77.6263C72.2549 77.405 71.9172 77.0797 71.6808 76.6839V80.8201H69.6337ZM87.3025 76.6839C87.0375 77.0768 86.6799 77.3981 86.2611 77.6191C85.7904 77.8434 85.2737 77.9541 84.7526 77.9427C84.4358 77.9641 84.1181 77.9176 83.8208 77.8059C83.5235 77.6942 83.2535 77.5201 83.0289 77.2953C82.8098 77.046 82.6428 76.7553 82.5379 76.4402C82.4331 76.1251 82.3925 75.792 82.4185 75.4609C82.388 75.1513 82.4268 74.839 82.5324 74.5465C82.6381 74.254 82.8077 73.9889 83.0289 73.7705C83.5978 73.2932 84.3004 73.0043 85.04 72.9433H85.9018C86.7996 72.9433 87.2306 72.5835 87.2306 72.1879C87.2391 72.0594 87.2175 71.9307 87.1677 71.812C87.1178 71.6934 87.0411 71.5882 86.9434 71.5045C86.6357 71.3378 86.2867 71.263 85.9378 71.2887C85.5956 71.2624 85.2544 71.351 84.9681 71.5405C84.8632 71.6279 84.7797 71.7381 84.7237 71.8628C84.6677 71.9874 84.6407 72.1233 84.645 72.2599H82.598C82.5839 71.9021 82.6546 71.546 82.8045 71.2208C82.9543 70.8957 83.1788 70.6109 83.4598 70.3895C84.1349 69.8967 84.9604 69.655 85.7942 69.7061C86.6658 69.6506 87.5358 69.8374 88.3081 70.2457C88.588 70.42 88.8177 70.6641 88.9751 70.9541C89.1325 71.2441 89.2121 71.57 89.2059 71.9001V76.3601C89.1565 76.5973 89.1565 76.8422 89.2059 77.0795C89.2219 77.1633 89.2603 77.2411 89.3173 77.3045C89.3742 77.3679 89.4475 77.4146 89.529 77.4393V77.7989H87.3384C87.323 77.6554 87.323 77.5107 87.3384 77.3673C87.3006 77.1894 87.3006 77.0055 87.3384 76.8277L87.3025 76.6839ZM87.3025 73.8065L86.1173 74.2021H85.435C85.1456 74.2737 84.8758 74.4088 84.645 74.5977C84.567 74.6853 84.5078 74.7878 84.4707 74.8991C84.4337 75.0104 84.4196 75.1282 84.4295 75.2451C84.4237 75.3732 84.4465 75.5012 84.4962 75.6194C84.5459 75.7376 84.6213 75.8431 84.7169 75.9285C84.8189 76.0196 84.9384 76.0889 85.068 76.1322C85.1977 76.1755 85.3347 76.1919 85.4709 76.1803C85.7105 76.201 85.9519 76.1703 86.1787 76.0901C86.4054 76.0098 86.6124 75.882 86.7858 75.7151C86.9593 75.5482 87.095 75.3461 87.1841 75.1224C87.2732 74.8986 87.3136 74.6585 87.3025 74.4179V73.6625V73.8065ZM91.181 77.6551V67.0445H93.3716V70.6413C93.6363 70.2893 93.9812 70.0056 94.3773 69.8139C94.7851 69.6378 95.2261 69.5521 95.6701 69.5623C96.0985 69.5585 96.5241 69.6316 96.9269 69.7781C97.2746 69.9337 97.5818 70.1676 97.8247 70.4615C97.9924 70.6606 98.1151 70.8937 98.184 71.1449C98.2123 71.552 98.2123 71.9605 98.184 72.3677V77.5831H96.101V73.7345C96.166 73.1117 96.0798 72.4823 95.8496 71.9001C95.7241 71.7727 95.5722 71.6746 95.4046 71.6125C95.2371 71.5503 95.0579 71.5257 94.8799 71.5405C94.6693 71.532 94.4591 71.5658 94.2618 71.6399C94.0644 71.7141 93.8838 71.827 93.7307 71.9721C93.437 72.31 93.283 72.7472 93.2997 73.1949V77.8349L91.181 77.6551ZM104.828 75.2811H106.911C106.726 76.063 106.267 76.7523 105.618 77.2233C104.938 77.7109 104.119 77.9635 103.283 77.9427C102.777 77.9657 102.272 77.8743 101.806 77.6751C101.339 77.4758 100.924 77.1738 100.59 76.7917C99.8931 75.9159 99.5358 74.8173 99.5844 73.6985C99.5114 72.5983 99.8726 71.5136 100.59 70.6773C100.92 70.3025 101.331 70.0074 101.791 69.8143C102.251 69.6212 102.749 69.5351 103.247 69.5623C103.759 69.5344 104.27 69.6161 104.747 69.8022C105.223 69.9883 105.655 70.2745 106.013 70.6413C106.738 71.5016 107.099 72.6115 107.018 73.7345V74.0941C107.018 74.0941 107.018 74.0941 107.018 74.3099H101.811C101.786 74.8026 101.939 75.2878 102.242 75.6767C102.393 75.8365 102.578 75.9612 102.783 76.042C102.988 76.1228 103.207 76.1576 103.427 76.1443C103.729 76.1585 104.029 76.0834 104.289 75.9285C104.542 75.7769 104.743 75.5509 104.864 75.2811H104.828ZM101.775 72.9073H104.828C104.845 72.4766 104.705 72.0542 104.433 71.7203C104.282 71.5717 104.102 71.4566 103.904 71.3822C103.706 71.3078 103.494 71.2759 103.283 71.2887C103.089 71.2798 102.895 71.3138 102.715 71.3883C102.535 71.4629 102.373 71.5763 102.242 71.7203C101.947 72.0455 101.781 72.4678 101.775 72.9073ZM112.872 76.5041C112.616 76.9045 112.256 77.2278 111.831 77.4393C111.373 77.6646 110.868 77.7755 110.358 77.7629C110.036 77.7849 109.713 77.7385 109.409 77.627C109.106 77.5154 108.83 77.3412 108.598 77.1155C108.379 76.8662 108.212 76.5753 108.107 76.2602C108.002 75.9451 107.962 75.6122 107.988 75.2811C107.957 74.9715 107.996 74.659 108.102 74.3665C108.208 74.074 108.377 73.8091 108.598 73.5907C109.177 73.1065 109.893 72.817 110.645 72.7633H111.471C112.369 72.7633 112.8 72.4037 112.8 72.0081C112.809 71.8796 112.787 71.7509 112.737 71.6322C112.687 71.5136 112.611 71.4084 112.513 71.3247C112.206 71.1725 111.868 71.0933 111.525 71.0933C111.183 71.0933 110.845 71.1725 110.538 71.3247C110.433 71.4121 110.349 71.5223 110.293 71.647C110.237 71.7716 110.21 71.9075 110.214 72.0441H108.239C108.225 71.6863 108.296 71.3302 108.446 71.005C108.596 70.6799 108.82 70.3951 109.101 70.1737C109.776 69.6809 110.602 69.4392 111.436 69.4903C112.307 69.4348 113.177 69.6213 113.949 70.0297C114.234 70.1984 114.468 70.4415 114.626 70.7328C114.784 71.0242 114.861 71.353 114.847 71.6843V76.1443C114.798 76.3815 114.798 76.6264 114.847 76.8637C114.904 77.0209 115.02 77.1497 115.17 77.2233V77.5831H112.98C112.964 77.4396 112.964 77.2949 112.98 77.1515C112.96 76.9722 112.96 76.7912 112.98 76.6119L112.872 76.5041ZM112.872 73.6265C112.488 73.7906 112.092 73.9231 111.687 74.0223H111.004C110.718 74.1018 110.45 74.2361 110.214 74.4179C110.136 74.5055 110.077 74.608 110.04 74.7193C110.003 74.8306 109.989 74.9484 109.999 75.0653C109.993 75.1934 110.016 75.3211 110.066 75.4394C110.115 75.5576 110.191 75.6633 110.286 75.7487C110.388 75.8398 110.508 75.9091 110.637 75.9524C110.767 75.9957 110.904 76.0121 111.04 76.0005C111.539 76.03 112.029 75.862 112.405 75.5329C112.716 75.1746 112.883 74.7129 112.872 74.2381V73.4827V73.6265ZM123.897 66.8647V77.4751H121.922V76.4321C121.647 76.8351 121.292 77.1779 120.88 77.4393C120.474 77.6647 120.015 77.7764 119.552 77.7629C119.099 77.7685 118.653 77.6672 118.247 77.4672C117.841 77.2672 117.489 76.9741 117.217 76.6119C116.633 75.7128 116.322 74.6634 116.322 73.5907C116.322 72.518 116.633 71.4683 117.217 70.5693C117.475 70.1988 117.819 69.8969 118.219 69.6901C118.62 69.4832 119.065 69.3775 119.516 69.3823C119.991 69.3741 120.46 69.4855 120.88 69.7061C121.286 69.9191 121.622 70.2435 121.85 70.6413V67.0445L123.897 66.8647ZM118.51 73.8783C118.467 74.5077 118.618 75.1353 118.941 75.6767C119.08 75.8894 119.273 76.0615 119.5 76.1752C119.727 76.289 119.98 76.3402 120.234 76.3241C120.481 76.3338 120.727 76.2794 120.947 76.166C121.168 76.0526 121.355 75.884 121.491 75.6767C121.814 75.1353 121.965 74.5077 121.922 73.8783C121.962 73.2719 121.811 72.6683 121.491 72.1519C121.335 71.9619 121.137 71.811 120.912 71.7111C120.688 71.6112 120.443 71.5652 120.198 71.5765C119.953 71.5593 119.709 71.6066 119.488 71.7139C119.267 71.8212 119.079 71.9847 118.941 72.1879C118.626 72.6931 118.476 73.2837 118.51 73.8783ZM131.762 73.8783C131.715 74.513 131.879 75.1454 132.229 75.6767C132.394 75.8797 132.602 76.0433 132.838 76.1557C133.074 76.2681 133.332 76.3265 133.593 76.3265C133.855 76.3265 134.113 76.2681 134.349 76.1557C134.585 76.0433 134.793 75.8797 134.958 75.6767C135.273 75.1299 135.439 74.5096 135.439 73.8783C135.439 73.2469 135.273 72.6267 134.958 72.0799C134.786 71.8877 134.576 71.734 134.341 71.6287C134.106 71.5235 133.851 71.4689 133.593 71.4689C133.336 71.4689 133.081 71.5235 132.846 71.6287C132.611 71.734 132.4 71.8877 132.229 72.0799C131.879 72.6111 131.715 73.2436 131.762 73.8783ZM129.643 73.8783C129.605 73.3249 129.678 72.7697 129.856 72.2447C130.035 71.7198 130.317 71.2358 130.684 70.8211C131.483 70.1007 132.519 69.7021 133.593 69.7021C134.668 69.7021 135.704 70.1007 136.502 70.8211C137.178 71.6966 137.544 72.7718 137.544 73.8783C137.544 74.9848 137.178 76.0602 136.502 76.9357C135.712 77.6714 134.672 78.0801 133.593 78.0801C132.514 78.0801 131.475 77.6714 130.684 76.9357C130.317 76.521 130.035 76.037 129.856 75.512C129.678 74.9871 129.605 74.4316 129.643 73.8783ZM139.339 77.7989V71.4325H138.226V69.9579H139.339V69.2385C139.315 68.9433 139.353 68.6462 139.452 68.3672C139.552 68.0881 139.709 67.8333 139.914 67.6199C140.421 67.2458 141.046 67.067 141.674 67.1163H142.14H142.679V68.7709H142.14C141.941 68.7157 141.73 68.7157 141.53 68.7709C141.53 68.7709 141.53 69.0227 141.53 69.2385V69.7781H142.823V71.2527H141.53V77.6191L139.339 77.7989ZM148.03 77.7989V67.1883H150.113V77.7989H148.03ZM152.016 69.0947V67.1883H154.135V69.0947H152.016ZM152.016 77.7989V69.9579H154.135V77.7989H152.016ZM156.361 77.7989V71.4325H155.248V69.9579H156.361V69.2385C156.337 68.9433 156.376 68.6462 156.475 68.3672C156.574 68.0881 156.731 67.8333 156.936 67.6199C157.443 67.2458 158.068 67.067 158.696 67.1163H159.163H159.701V68.7709H159.163C158.964 68.7098 158.751 68.7098 158.552 68.7709C158.552 68.7709 158.552 69.0227 158.552 69.2385V69.7781H159.845V71.2527H158.552V77.6191L156.361 77.7989ZM165.591 75.4249H167.674C167.49 76.2068 167.031 76.8964 166.381 77.3673C165.711 77.8728 164.885 78.1274 164.047 78.0867C163.542 78.0951 163.042 77.997 162.578 77.7987C162.113 77.6004 161.696 77.3063 161.353 76.9357C160.666 76.0565 160.322 74.9572 160.384 73.8425C160.316 72.7491 160.662 71.6701 161.353 70.8211C161.683 70.4463 162.094 70.1512 162.554 69.9581C163.015 69.765 163.513 69.6789 164.011 69.7061C164.528 69.6729 165.046 69.7523 165.529 69.9386C166.013 70.1248 166.45 70.4135 166.812 70.7851C167.508 71.6595 167.854 72.7623 167.782 73.8783V74.2381C167.798 74.309 167.798 74.3829 167.782 74.4539H162.574C162.567 74.9442 162.718 75.4238 163.005 75.8207C163.157 75.9805 163.341 76.105 163.546 76.1858C163.751 76.2665 163.971 76.3016 164.19 76.2883C164.503 76.2977 164.813 76.2232 165.088 76.0725C165.322 75.9081 165.508 75.6845 165.627 75.4249H165.591ZM162.538 73.0511H165.627C165.602 72.6438 165.451 72.2543 165.196 71.9361C165.052 71.7884 164.878 71.6734 164.686 71.5989C164.494 71.5244 164.288 71.4923 164.083 71.5045C163.882 71.4927 163.682 71.5254 163.496 71.6C163.31 71.6746 163.142 71.7893 163.005 71.9361C162.71 72.2613 162.544 72.6836 162.538 73.1231V73.0511Z" fill="#D8218C"/>
</g>
<defs>
<clipPath id="clip0_4_1167">
<rect width="175" height="81" fill="white"/>
</clipPath>
</defs>
</svg>
