<svg width="152" height="25" viewBox="0 0 152 25" fill="none" xmlns="http://www.w3.org/2000/svg">
<path fill-rule="evenodd" clip-rule="evenodd" d="M131.172 14.9533V13.2491H131.953L131.172 10.5512V8.49197H132.38L135.009 16.1601H132.735L132.38 14.9533H131.172ZM135.72 8.49197H137.78L140.41 12.7518V8.49197H142.47V16.1601H140.41L137.78 11.9713V16.1601H135.72V8.49197ZM143.891 8.49197H146.094V11.4029L148.368 8.49197H151.281L148.723 11.4029L151.352 16.1601H148.723L147.23 13.036L146.094 14.3139V16.1601H143.891V8.49197ZM131.172 8.49197V10.5512V10.4802L130.39 13.2491H131.172V14.9533H129.893L129.538 16.1601H127.335L129.964 8.49197H131.172ZM123.711 16.1601V14.527H123.853C124.279 14.527 124.492 14.4559 124.634 14.3139C124.848 14.1718 124.919 13.9596 124.919 13.7465C124.919 13.5333 124.848 13.3201 124.634 13.178C124.492 13.0359 124.279 12.965 123.853 12.965H123.711V11.545C124.066 11.545 124.279 11.474 124.421 11.3319C124.563 11.1898 124.634 11.0476 124.634 10.7644C124.634 10.5513 124.563 10.4092 124.421 10.2671C124.279 10.125 124.066 10.054 123.711 10.054V8.49197H124.634C125.346 8.49197 125.843 8.70513 126.198 9.06037C126.554 9.41457 126.767 9.91188 126.767 10.4092C126.767 10.9065 126.625 11.2608 126.341 11.6161C126.198 11.8292 125.914 11.9713 125.63 12.1134C126.127 12.2555 126.483 12.4676 126.696 12.8228C126.98 13.107 127.051 13.5333 127.051 14.0306C127.051 14.3849 126.98 14.7401 126.838 15.0954C126.625 15.3795 126.412 15.6627 126.127 15.8048C125.914 15.9469 125.701 16.0179 125.275 16.089C124.777 16.16 124.492 16.1601 124.35 16.1601H123.711ZM123.711 8.49197V10.054H122.787V11.545H123.711V12.965H122.787V14.527H123.711V16.1601H120.585V8.49197H123.711ZM112.484 16.3021V14.527C112.911 14.527 113.266 14.3849 113.55 14.0306C113.834 13.7465 113.976 13.107 113.976 12.2554C113.976 11.545 113.834 11.0477 113.55 10.6934C113.266 10.3382 112.911 10.1961 112.484 10.1961V8.4209C113.621 8.4209 114.545 8.70511 115.184 9.41455C115.824 10.125 116.108 11.0477 116.108 12.3266C116.108 13.1781 115.966 13.9596 115.682 14.527C115.397 15.0954 115.042 15.5217 114.474 15.8759C113.976 16.1601 113.337 16.3021 112.556 16.3021C112.484 16.3021 112.484 16.3021 112.484 16.3021ZM97.8469 8.49197H99.9783V13.107C99.9783 13.5333 99.9072 13.9595 99.8362 14.3849C99.6941 14.8112 99.4809 15.1665 99.1968 15.4506C98.9126 15.7338 98.6284 15.9469 98.3442 16.089C97.9179 16.2311 97.4206 16.3021 96.7812 16.3021C96.4259 16.3021 96.0707 16.3021 95.6444 16.2311C95.2892 16.2311 94.934 16.089 94.6488 15.9469C94.3646 15.8048 94.1515 15.5927 93.9383 15.3085C93.6541 15.0243 93.512 14.6691 93.441 14.3849C93.2989 13.8885 93.2278 13.4622 93.2278 13.107V8.49197H95.4313V13.178C95.4313 13.6043 95.5023 13.9595 95.7155 14.1717C95.9286 14.4559 96.2838 14.527 96.6391 14.527C96.9943 14.527 97.2785 14.4559 97.4916 14.1717C97.7048 13.9595 97.8469 13.6043 97.8469 13.178V8.49197ZM112.484 8.4209V10.1961C111.987 10.1961 111.632 10.3382 111.419 10.6934C111.135 11.0477 110.992 11.6161 110.992 12.3976C110.992 13.1781 111.135 13.6754 111.419 14.0306C111.632 14.3849 111.987 14.527 112.484 14.527V16.3021C111.703 16.3021 111.064 16.1601 110.566 15.9469C110.069 15.6627 109.642 15.1664 109.286 14.598C109.002 14.0306 108.789 13.2491 108.789 12.3976C108.789 11.1187 109.144 10.125 109.785 9.41455C110.424 8.70511 111.348 8.4209 112.484 8.4209ZM106.16 13.036L108.008 13.6753C107.936 14.2428 107.723 14.7401 107.439 15.1664C107.155 15.5216 106.8 15.8048 106.373 16.0179C106.018 16.2311 105.45 16.3021 104.881 16.3021C104.1 16.3021 103.461 16.2311 102.963 15.9469C102.466 15.7338 102.039 15.3085 101.683 14.669C101.328 14.1016 101.186 13.3202 101.186 12.3266C101.186 11.0477 101.47 10.125 102.11 9.41455C102.75 8.70511 103.603 8.4209 104.739 8.4209C105.663 8.4209 106.302 8.56302 106.871 8.9893C107.368 9.3435 107.723 9.98289 107.936 10.7644L106.018 11.2608C105.947 10.9766 105.876 10.8355 105.805 10.7644C105.734 10.5513 105.592 10.4092 105.379 10.3382C105.237 10.1961 105.024 10.1961 104.81 10.1961C104.313 10.1961 103.958 10.4092 103.674 10.8355C103.461 11.1188 103.389 11.6161 103.389 12.3266C103.389 13.1781 103.461 13.7464 103.745 14.1017C103.958 14.3849 104.313 14.527 104.739 14.527C105.166 14.527 105.45 14.4559 105.663 14.1717C105.876 13.8885 106.018 13.5333 106.16 13.036Z" fill="#0044AA"/>
<path fill-rule="evenodd" clip-rule="evenodd" d="M7.46358 14.1017V12.5397C7.46358 12.5397 6.39787 13.3202 5.40322 13.5333C4.90589 13.6044 4.12438 13.6043 3.62705 13.178C3.34188 12.8938 3.34188 12.7518 3.19978 12.5397C3.48397 12.5397 4.69275 12.3975 5.19008 11.4739C5.75845 10.5513 4.83485 9.48561 4.83485 9.48561H6.39787V8.13672H0.144775V9.48561H2.56036C2.56036 9.48561 3.91124 9.91191 3.48397 10.8355C3.12874 11.6161 1.21048 11.3319 1.21048 11.3319C1.21048 11.3319 1.21048 11.9713 1.35257 12.6097C1.7078 13.8885 3.19979 14.8822 4.69275 14.8822C6.46892 15.0243 7.46358 14.1017 7.46358 14.1017Z" fill="#0044AA"/>
<path fill-rule="evenodd" clip-rule="evenodd" d="M10.3054 9.48549V8.13659H5.75842V9.48549H7.17936V16.5151H8.95553V9.48549H10.3054Z" fill="#0044AA"/>
<path fill-rule="evenodd" clip-rule="evenodd" d="M11.3722 19.4973C11.3722 19.4973 11.1581 18.7168 10.1634 17.2958C9.23979 16.018 6.89525 15.7338 5.68746 16.7995C4.97699 17.4379 4.76384 18.5747 5.90059 19.2842C7.10838 20.0657 8.52932 19.4973 8.52932 19.4973L8.17408 18.5036C8.17408 18.5036 7.46363 18.7878 6.89525 18.5747C6.39793 18.2905 6.54002 17.7221 6.89525 17.509C7.46363 17.1547 8.67141 17.2258 9.23979 18.3615C9.73712 19.4262 9.87922 19.9236 9.87922 19.9236L11.3722 19.4973Z" fill="#0044AA"/>
<path fill-rule="evenodd" clip-rule="evenodd" d="M22.8116 9.48561V8.13672H13.9298V9.48561H15.4928V10.7644C15.0666 10.4802 14.5692 10.3382 13.9298 10.3382V11.6161C14.7824 11.6161 15.4928 11.9712 15.4928 12.6807C15.4928 13.6043 14.4982 13.8885 13.9298 13.8885V15.2375C14.8534 15.1664 15.4928 14.8112 15.4928 14.8112V16.5153H17.269V12.6807C17.269 12.6807 17.4111 11.6161 18.9041 11.6161C19.7566 11.6161 20.325 12.0423 20.325 12.8228C20.325 13.4622 19.4724 13.8885 18.762 13.8885V15.1664C20.5381 15.2374 22.1722 14.1717 22.0301 12.6097C21.888 11.2608 20.5381 10.4802 18.833 10.4802C18.0505 10.4802 17.5532 10.6223 17.269 10.7644V9.48561H22.8116ZM9.73706 8.13672H13.9298V9.48561L9.73706 9.48566V8.13672ZM13.9298 10.3382V11.6161C13.9298 11.6161 13.9298 11.6161 13.8588 11.6161C12.7931 11.6161 12.4378 12.2555 12.4378 12.7518C12.4378 13.4623 13.2193 13.8885 13.9298 13.8885V15.2375C13.6456 15.2375 13.4325 15.2374 13.2193 15.1664C12.0115 14.9532 10.6607 14.2428 10.6607 12.6807C10.6607 11.3318 12.0826 10.2671 13.8588 10.3382C13.9298 10.3382 13.9298 10.3382 13.9298 10.3382Z" fill="#0044AA"/>
<path fill-rule="evenodd" clip-rule="evenodd" d="M18.4058 8.49197C18.4058 8.49197 18.3347 8.4209 18.2637 8.4209V8.49197C18.2637 8.56301 18.2637 8.56303 18.2637 8.56303C18.3347 8.56303 18.4058 8.56301 18.4058 8.49197Z" fill="#0044AA"/>
<path fill-rule="evenodd" clip-rule="evenodd" d="M26.5071 9.48561V8.13672H21.9591V9.48561H23.38V16.5153H25.0852V9.48561H26.5071Z" fill="#0044AA"/>
<path fill-rule="evenodd" clip-rule="evenodd" d="M24.8009 8.27878C24.8009 8.27878 24.4457 6.78777 23.8773 6.07833C23.2379 5.15472 22.6695 4.87052 21.888 4.58633C21.0354 4.30309 19.8276 4.37414 19.8276 4.37414L20.1118 5.65206C20.1118 5.65206 20.8223 5.65206 21.3907 5.79415C21.959 5.93624 22.4564 6.43252 22.6695 6.78775C23.0958 7.56927 23.2379 8.27878 23.2379 8.27878H24.8009Z" fill="#0044AA"/>
<path fill-rule="evenodd" clip-rule="evenodd" d="M26.293 8.49197C26.293 8.49197 26.2219 8.4209 26.1509 8.4209V8.49197C26.1509 8.56301 26.1509 8.56303 26.1509 8.56303C26.2219 8.56303 26.293 8.56301 26.293 8.49197Z" fill="#0044AA"/>
<path fill-rule="evenodd" clip-rule="evenodd" d="M26.8623 8.49197V8.4209C26.7913 8.4209 26.7913 8.49197 26.7913 8.49197C26.7913 8.56301 26.7913 8.56303 26.8623 8.56303C26.8623 8.56303 26.8623 8.56301 26.8623 8.49197Z" fill="#0044AA"/>
<path fill-rule="evenodd" clip-rule="evenodd" d="M38.4439 9.48551H38.657V8.13647H38.4439V9.48551ZM38.4439 15.1663V12.6096L39.7938 13.5332V14.7401C39.7938 14.7401 39.2964 15.0242 38.4439 15.1663ZM38.4439 11.616V10.3381C39.3675 10.5512 39.7938 10.9064 39.7938 10.9064V12.2553C39.7938 12.2553 39.1543 11.7581 38.4439 11.616ZM38.4439 8.13647L37.0938 8.13662V9.48556L38.4439 9.48551V8.13647ZM38.4439 10.3381V11.616C38.3728 11.616 38.3018 11.616 38.3018 11.616C37.8755 11.4739 37.4492 11.4739 37.094 11.616V10.267C37.2361 10.267 37.3782 10.267 37.5203 10.267C37.8755 10.267 38.1597 10.267 38.4439 10.3381ZM38.4439 12.6096V15.1663C38.1597 15.2373 37.8755 15.3084 37.5203 15.3084C37.3782 15.3084 37.2361 15.3084 37.094 15.3084V14.1016C37.2361 14.1016 37.2361 14.1016 37.3071 14.1016C37.9465 14.1718 38.4439 14.0305 38.4439 14.0305L37.094 13.1069V11.758L38.4439 12.6096ZM33.1144 8.13662H37.0938V9.48556H33.1144V8.13662ZM37.094 10.267C35.602 10.4091 34.1811 11.4028 34.1811 12.8227C34.1811 14.2427 35.531 15.1663 37.094 15.3084V14.1016C36.5967 13.9595 35.8151 13.5332 35.8151 12.8937C35.8151 12.4675 36.0283 12.3264 36.0283 12.3264L37.094 13.1069V11.758L36.9519 11.616C37.0229 11.616 37.094 11.616 37.094 11.616V10.267Z" fill="#0044AA"/>
<path fill-rule="evenodd" clip-rule="evenodd" d="M42.5656 9.48561V8.13672H38.0176V9.48561H39.4386V16.5153H41.2147V9.48561H42.5656Z" fill="#0044AA"/>
<path fill-rule="evenodd" clip-rule="evenodd" d="M41.1437 8.20754C41.1437 8.20754 40.5753 6.36126 39.8649 5.58077C39.4386 5.0124 38.9412 4.65718 38.3729 4.44499V5.86495C38.515 6.00704 38.7281 6.21915 38.8702 6.43229C39.5096 7.28485 39.7228 8.20754 39.7228 8.20754H41.1437ZM38.3729 8.20754V6.71651C38.515 6.8586 38.6571 7.0007 38.7281 7.21384C39.0833 7.71117 39.2254 8.20754 39.2254 8.20754H38.3729ZM38.3729 4.44499C38.1597 4.30289 37.8755 4.23186 37.6624 4.16081C37.5914 4.16081 37.5203 4.16081 37.5203 4.16081V5.36762C37.8045 5.50971 38.0887 5.65181 38.3729 5.86495V4.44499ZM38.3729 6.71651V8.20754H38.0176C38.0176 8.20754 37.9466 7.92334 37.8045 7.64011C37.7335 7.49801 37.6624 7.35594 37.5203 7.21384V6.14917C37.8045 6.29024 38.0887 6.50337 38.3729 6.71651ZM37.5203 4.16081V5.36762C37.3782 5.36762 37.3782 5.36762 37.3072 5.36762C36.8809 5.15448 36.2415 5.22553 36.2415 5.22553L35.6731 4.01868C35.6731 4.01868 36.7388 3.94767 37.5203 4.16081ZM37.5203 6.14917C37.3782 6.07813 37.2361 6.07808 37.023 6.00704C36.4546 5.86494 35.6021 5.93602 35.6021 5.93602L36.0283 6.92962C36.0283 6.92962 36.4546 6.85859 36.9519 7.00069C37.1651 7.07173 37.3782 7.1428 37.5203 7.21384V6.14917Z" fill="#0044AA"/>
<path fill-rule="evenodd" clip-rule="evenodd" d="M42.0683 4.94136C42.0683 4.51602 41.7131 4.23183 41.1437 4.23183C41.0016 4.23183 40.8595 4.23185 40.7174 4.3029V5.50971C40.8595 5.58075 41.0016 5.65184 41.1437 5.65184C41.7131 5.65184 42.0683 5.36764 42.0683 4.94136ZM40.5043 8.20754V6.50336C40.5753 6.7165 40.6464 6.85861 40.7174 7.07175V8.20754H40.5043ZM40.5043 5.36762V4.44499C40.5043 4.37394 40.5753 4.37395 40.7174 4.3029V5.50971C40.5753 5.50971 40.5043 5.43866 40.5043 5.36762ZM40.7174 8.20754H41.1437C41.1437 8.20754 41.0016 7.64013 40.7174 7.07175V8.20754ZM40.5043 4.44499V5.36762C40.3622 5.22552 40.2201 5.08345 40.2201 4.94136C40.2201 4.72822 40.3622 4.58613 40.5043 4.44499ZM40.5043 6.50336C40.2911 6.14915 40.078 5.79391 39.8649 5.58077C39.4386 5.0124 38.9412 4.65718 38.3729 4.44499V5.86495C38.515 6.00704 38.7281 6.21915 38.8702 6.43229C39.5096 7.28485 39.7228 8.20754 39.7228 8.20754H40.5043V6.50336ZM38.3729 8.20754V6.71651C38.515 6.8586 38.6571 7.0007 38.7281 7.21384C39.0833 7.71117 39.2254 8.20754 39.2254 8.20754H38.3729ZM38.3729 4.44499V5.86495C38.0887 5.65181 37.8045 5.50971 37.5203 5.36762V4.16081C37.5203 4.16081 37.5914 4.16081 37.6624 4.16081C37.8755 4.23186 38.1597 4.30289 38.3729 4.44499ZM38.3729 6.71651V8.20754H38.0176C38.0176 8.20754 37.9466 7.92334 37.8045 7.64011C37.7335 7.49801 37.6624 7.35594 37.5203 7.21384V6.14917C37.8045 6.29024 38.0887 6.50337 38.3729 6.71651ZM37.5203 4.16081C36.7388 3.94767 35.6731 4.01868 35.6731 4.01868L36.2415 5.22553C36.2415 5.22553 36.8809 5.15448 37.3072 5.36762C37.3782 5.36762 37.3782 5.36762 37.5203 5.36762V4.16081ZM37.5203 6.14917C37.3782 6.07813 37.2361 6.07808 37.023 6.00704C36.4546 5.86494 35.6021 5.93602 35.6021 5.93602L36.0283 6.92962C36.0283 6.92962 36.4546 6.85859 36.9519 7.00069C37.1651 7.07173 37.3782 7.1428 37.5203 7.21384V6.14917Z" fill="#0044AA"/>
<path fill-rule="evenodd" clip-rule="evenodd" d="M55.1419 9.48561V8.13672H46.2601V9.48561H47.8231V10.7644C47.3258 10.4802 46.8284 10.3382 46.2601 10.3382V11.6161C47.1126 11.6161 47.752 11.9712 47.752 12.6807C47.752 13.6043 46.7574 13.8885 46.2601 13.8885V15.2375C47.1837 15.1664 47.8231 14.8112 47.8231 14.8112V16.5153H49.6002V12.6807C49.6002 12.6807 49.7423 11.6161 51.1633 11.6161C52.0869 11.6161 52.6552 12.0423 52.6552 12.8228C52.6552 13.4622 51.7316 13.8885 51.0212 13.8885V15.1664C52.8684 15.2374 54.4314 14.1717 54.2893 12.6097C54.1472 11.2608 52.8684 10.4802 51.1633 10.4802C50.3818 10.4802 49.8134 10.6223 49.6002 10.7644V9.48561H55.1419ZM42.0683 8.13672H46.2601V9.48561L42.0683 9.48566V8.13672ZM46.2601 10.3382V11.6161C46.189 11.6161 46.189 11.6161 46.189 11.6161C45.1233 11.6161 44.697 12.2555 44.697 12.7518C44.697 13.4623 45.5496 13.8885 46.189 13.8885C46.189 13.8885 46.189 13.8885 46.2601 13.8885V15.2375C46.0469 15.2375 45.7627 15.2374 45.4785 15.1664C44.3418 14.9532 42.9209 14.2428 42.9209 12.6807C42.9209 11.3318 44.4128 10.2671 46.189 10.3382C46.189 10.3382 46.189 10.3382 46.2601 10.3382Z" fill="#0044AA"/>
<path fill-rule="evenodd" clip-rule="evenodd" d="M50.6659 8.49197C50.6659 8.49197 50.6659 8.4209 50.5948 8.4209L50.5238 8.49197C50.5238 8.56301 50.5948 8.56303 50.5948 8.56303C50.6659 8.56303 50.6659 8.56301 50.6659 8.49197Z" fill="#0044AA"/>
<path fill-rule="evenodd" clip-rule="evenodd" d="M82.337 24.3549L86.3185 20.3693V4.44705L82.3143 0.35498H66.5804L62.5702 4.47466V20.397L66.5232 24.3549H82.337Z" fill="white"/>
<path d="M82.337 24.355L86.3185 20.3695V4.44711L82.3143 0.354981H66.5804L62.5702 4.47475V20.3971L66.5232 24.355H82.337Z" stroke="white" stroke-width="0.148077" stroke-miterlimit="2.613"/>
<path fill-rule="evenodd" clip-rule="evenodd" d="M82.3143 20.3191H78.4116V15.926L81.74 12.4517L74.9382 5.06382V6.92681L79.2652 11.9958L74.9688 16.4096V24.3549H82.337L86.3185 20.3693V4.44705L82.3143 0.35498H66.5804L62.5702 4.47466V20.397L66.5232 24.3549H73.9505L73.9489 16.4096L69.6526 11.9958L73.9795 6.92681V5.06382L67.1778 12.4517L70.5051 15.926V20.3191H66.6015V4.39082H82.287L82.3143 20.3191ZM71.4007 11.7284C71.4007 10.0449 72.7634 8.68125 74.4439 8.68125C76.1253 8.68125 77.487 10.0449 77.487 11.7284C77.487 13.4107 76.1253 14.7755 74.4439 14.7755C72.7634 14.7755 71.4007 13.4107 71.4007 11.7284Z" fill="black"/>
<path d="M82.3143 20.3192H78.4116V15.9261L81.74 12.4517L74.9382 5.06383V6.92684L79.2652 11.9958L74.9688 16.4096V24.355H82.337L86.3185 20.3695V4.44711L82.3143 0.35498H66.5804L62.5702 4.47475V20.3971L66.5232 24.355H73.9505L73.9485 16.4096L69.6522 11.9958L73.9791 6.92684V5.06383L67.1774 12.4517L70.5047 15.9261V20.3192H66.6011V4.39086H82.2866L82.3143 20.3192ZM71.4007 11.7284C71.4007 10.045 72.7634 8.68131 74.4439 8.68131C76.1253 8.68131 77.4871 10.045 77.4871 11.7284C77.4871 13.4108 76.1253 14.7755 74.4439 14.7755C72.7634 14.7755 71.4007 13.4108 71.4007 11.7284Z" fill="#0044AA" stroke="black" stroke-width="0.148077" stroke-miterlimit="2.613"/>
</svg>
