<svg width="265" height="42" viewBox="0 0 265 42" fill="none" xmlns="http://www.w3.org/2000/svg">
<g clip-path="url(#clip0_4_1092)">
<path d="M229.631 25.5351V22.562H231.01L229.631 17.8519V14.2609H231.761L236.373 27.6429H232.382L231.761 25.5351H229.631ZM237.6 14.2609H241.212L245.823 21.69V14.2609H249.428V27.6429H245.823L241.212 20.3305V27.6429H237.6V14.2609ZM251.924 14.2609H255.784V19.3418L259.768 14.2609H264.848L260.368 19.3418L264.972 27.6429H260.368L257.748 22.1912L255.756 24.4227V27.6429H251.896V14.2609H251.924ZM229.631 14.2609V17.6939L228.253 22.5002H229.631V25.4732H227.391L226.764 27.5811H222.91L227.515 14.1991L229.631 14.2609ZM216.534 27.6429V24.7935H216.783C217.026 24.8287 217.273 24.814 217.51 24.7502C217.747 24.6864 217.969 24.575 218.161 24.4227C218.315 24.3069 218.44 24.157 218.526 23.9848C218.613 23.8127 218.657 23.6229 218.657 23.4306C218.657 23.2382 218.613 23.0485 218.526 22.8763C218.44 22.7042 218.315 22.5543 218.161 22.4384C217.969 22.2862 217.747 22.1747 217.51 22.111C217.273 22.0472 217.026 22.0325 216.783 22.0677H216.534V19.589C216.757 19.6137 216.982 19.5936 217.196 19.5299C217.41 19.4662 217.61 19.3602 217.782 19.2182C217.914 19.09 218.016 18.9342 218.08 18.762C218.145 18.5899 218.17 18.4057 218.154 18.2226C218.159 18.0601 218.128 17.8986 218.064 17.7492C218 17.5998 217.903 17.4661 217.782 17.3575C217.61 17.2155 217.41 17.1096 217.196 17.0459C216.982 16.9822 216.757 16.9621 216.534 16.9867V14.2403H218.154C218.657 14.2087 219.161 14.2801 219.636 14.4501C220.11 14.6202 220.544 14.8853 220.911 15.229C221.538 15.8552 221.894 16.7002 221.904 17.5841C221.923 18.3537 221.658 19.1035 221.16 19.692C220.82 20.0763 220.392 20.3731 219.912 20.5571C220.29 20.6317 220.65 20.7798 220.97 20.9931C221.291 21.2063 221.566 21.4805 221.78 21.7999C222.018 22.0933 222.195 22.4305 222.301 22.7922C222.408 23.1539 222.441 23.533 222.4 23.9078C222.397 24.5438 222.27 25.1732 222.028 25.7616C221.715 26.2647 221.291 26.6898 220.787 27.0044C220.333 27.2796 219.821 27.4486 219.292 27.4987C218.756 27.5811 218.214 27.6224 217.672 27.6223L216.534 27.6429ZM216.534 14.2609V17.0073H214.914V19.6096H216.534V22.0883H214.914V24.8347H216.534V27.6841H211.02V14.2609H216.534ZM196.882 27.8901V24.7935C197.24 24.8081 197.596 24.7372 197.921 24.5867C198.246 24.4362 198.53 24.2105 198.75 23.9284C199.246 23.434 199.494 22.3148 199.494 20.8249C199.573 19.8512 199.31 18.8806 198.75 18.0784C198.53 17.7963 198.246 17.5706 197.921 17.4201C197.596 17.2696 197.24 17.1987 196.882 17.2133V14.1167C198.874 14.1167 200.494 14.6111 201.611 15.847C202.727 17.0829 203.231 18.6964 203.231 20.9279C203.273 22.2488 203.019 23.5625 202.486 24.7729C202.024 25.745 201.289 26.563 200.37 27.128C199.332 27.6606 198.173 27.9161 197.006 27.8695L196.882 27.8901ZM171.226 14.2609H174.962V22.3148C174.94 23.0642 174.857 23.8105 174.714 24.5463C174.493 25.245 174.11 25.8823 173.597 26.407C173.16 26.8536 172.655 27.2289 172.101 27.5193C171.208 27.7909 170.277 27.9161 169.344 27.8901C168.678 27.9067 168.011 27.8653 167.352 27.7665C166.741 27.7336 166.145 27.5647 165.608 27.2722C164.604 26.6287 163.856 25.6579 163.492 24.5257C163.267 23.8021 163.141 23.0514 163.119 22.2942V14.2609H166.966V22.4384C166.9 23.0606 167.081 23.6838 167.469 24.1756C167.67 24.3981 167.921 24.5701 168.201 24.6775C168.481 24.7849 168.783 24.8246 169.082 24.7935C169.363 24.8248 169.648 24.7846 169.91 24.6765C170.171 24.5685 170.401 24.3961 170.578 24.1756C171.002 23.6983 171.225 23.0756 171.198 22.4384V14.2609H171.226ZM196.882 14.1373V17.2339C196.521 17.1917 196.155 17.2503 195.825 17.403C195.495 17.5558 195.214 17.7967 195.014 18.099C194.447 18.9826 194.185 20.0267 194.269 21.0721C194.18 22.0812 194.443 23.0902 195.014 23.9284C195.214 24.2307 195.495 24.4717 195.825 24.6244C196.155 24.7772 196.521 24.8357 196.882 24.7935V27.8901C195.73 27.9114 194.586 27.7013 193.518 27.2722C192.591 26.6794 191.822 25.8712 191.278 24.9171C190.695 23.719 190.395 22.4036 190.402 21.0721C190.31 19.1799 190.935 17.3223 192.153 15.8676C193.27 14.6317 194.89 14.1373 196.882 14.1373ZM185.798 22.1912L189.038 23.3036C188.913 24.2389 188.571 25.1323 188.038 25.9127C187.509 26.5802 186.824 27.1092 186.044 27.4538C185.263 27.7984 184.409 27.9481 183.558 27.8901C182.402 27.9728 181.244 27.7601 180.194 27.2722C179.216 26.8007 178.427 26.0145 177.953 25.0407C177.285 23.7746 176.982 22.3485 177.078 20.921C177.078 18.6895 177.581 17.0829 178.698 15.8401C179.815 14.5973 181.317 14.1098 183.309 14.1098C184.632 14.0039 185.95 14.3529 187.045 15.0986C187.997 15.8946 188.655 16.9845 188.914 18.1952L185.577 19.0946C185.529 18.7773 185.401 18.4774 185.205 18.2226C185.151 18.0468 185.054 17.887 184.923 17.7576C184.792 17.6282 184.631 17.5332 184.454 17.4811C184.169 17.2709 183.812 17.182 183.461 17.2339C183.059 17.2243 182.662 17.3225 182.312 17.5182C181.962 17.7139 181.67 17.9999 181.469 18.3462C181.097 18.8406 180.973 19.7194 180.973 20.9485C180.973 22.4384 181.097 23.434 181.593 24.052C181.803 24.3052 182.071 24.5046 182.375 24.6336C182.678 24.7626 183.008 24.8174 183.337 24.7935C183.637 24.8355 183.944 24.8008 184.227 24.6927C184.51 24.5847 184.761 24.4067 184.957 24.1756C185.365 23.5724 185.66 22.8999 185.825 22.1912" fill="#0044AA"/>
<path d="M12.8282 24.0657V21.3193C11.7351 22.1022 10.5126 22.6879 9.21614 23.0495C8.34761 23.1731 6.97587 23.1731 6.10734 22.4316C5.79984 22.1024 5.54629 21.727 5.35599 21.3193C5.85229 21.3193 7.96849 21.0652 8.84392 19.4586C9.83653 17.845 8.22354 15.9843 8.22354 15.9843H10.9808V13.6292H0.0206909V15.9843H4.25308C4.25308 15.9843 6.62433 16.7327 5.87297 18.3394C5.25259 19.7126 1.88874 19.2045 1.88874 19.2045C1.89953 19.9545 1.98263 20.7018 2.13689 21.436C2.76417 23.6743 5.37666 25.4046 7.98916 25.4046C9.71581 25.5912 11.4473 25.0984 12.8144 24.0314" fill="#0044AA"/>
<path d="M17.805 15.9911V13.636H9.83655V15.9911H12.3319V28.2609H15.4407V15.9911H17.805Z" fill="#0044AA"/>
<path d="M19.68 33.4654C19.1707 32.0866 18.4549 30.7926 17.5569 29.6272C15.9439 27.3957 11.8287 26.8808 9.71247 28.7621C8.47171 29.8744 8.09948 31.8587 10.0847 33.0946C10.7796 33.488 11.5525 33.7251 12.3492 33.7892C13.1459 33.8533 13.947 33.7427 14.6962 33.4654L14.0758 31.7351C13.3588 32.0122 12.572 32.0555 11.8287 31.8587C11.6602 31.7681 11.5195 31.6337 11.4214 31.47C11.3234 31.3062 11.2716 31.119 11.2716 30.9283C11.2716 30.7376 11.3234 30.5505 11.4214 30.3867C11.5195 30.2229 11.6602 30.0886 11.8287 29.998C12.1962 29.8125 12.5979 29.704 13.0092 29.679C13.4204 29.654 13.8324 29.7131 14.2199 29.8527C14.6073 29.9922 14.962 30.2093 15.262 30.4906C15.5621 30.7718 15.8011 31.1112 15.9646 31.4879C16.4013 32.376 16.7745 33.2938 17.0812 34.2344L19.7006 33.486" fill="#0044AA"/>
<path d="M39.7252 15.9911V13.636H24.1605V15.9911H26.9177V18.2226C26.0973 17.6983 25.1343 17.4393 24.1605 17.4811V19.7126C25.6563 19.7126 26.9177 20.3305 26.9177 21.5664C26.9177 23.1799 25.1807 23.6812 24.1605 23.6812V26.0362C25.1204 25.9721 26.0578 25.7177 26.9177 25.2878V28.2609H30.0334V21.5664C30.0334 21.5664 30.2816 19.7126 32.901 19.7126C34.3899 19.7126 35.3894 20.4541 35.3894 21.8136C35.3894 22.9328 33.8936 23.6812 32.6321 23.6812V25.9058C35.7478 26.0362 38.6154 24.1755 38.3603 21.4428C38.1122 19.0877 35.7478 17.7282 32.7631 17.7282C31.8183 17.6829 30.8755 17.852 30.0059 18.2226V15.9911H39.7252ZM16.8124 13.636H24.1605V15.9911H16.8124V13.636ZM24.1605 17.4811V19.7126H24.0364C22.1683 19.7126 21.548 20.8249 21.548 21.69C21.548 22.9328 22.9266 23.6812 24.1605 23.6812V26.0362C23.7406 26.0626 23.3192 26.0208 22.9128 25.9127C20.7966 25.535 18.4323 24.2922 18.4323 21.5664C18.4323 19.2113 20.9207 17.3575 24.0364 17.4811H24.1605Z" fill="#0044AA"/>
<path d="M32.0049 14.2609C31.9392 14.1908 31.8518 14.1449 31.7567 14.1304V14.3845C31.8808 14.3845 32.0049 14.3845 32.0049 14.2609Z" fill="#0044AA"/>
<path d="M46.2047 15.9911V13.636H38.2294V15.9911H40.7247V28.2609H43.7094V15.9911H46.2047Z" fill="#0044AA"/>
<path d="M43.2131 13.8833C43.2131 13.8833 42.5927 11.281 41.5932 10.0451C40.786 8.78352 39.5467 7.85647 38.1053 7.43599C36.9273 7.12995 35.7089 7.0072 34.4933 7.07209L34.9965 9.30358C35.7497 9.30955 36.5004 9.39236 37.2367 9.55075C38.1671 9.8423 38.9618 10.4561 39.477 11.281C39.9243 12.1006 40.2604 12.9756 40.4765 13.8833H43.2338" fill="#0044AA"/>
<path d="M45.8256 14.2609C45.76 14.1908 45.6726 14.1449 45.5775 14.1304V14.3845C45.7015 14.3845 45.8256 14.3845 45.8256 14.2609Z" fill="#0044AA"/>
<path d="M46.8251 14.2609V14.1304C46.701 14.1304 46.701 14.2609 46.701 14.2609C46.701 14.3845 46.701 14.3845 46.8251 14.3845V14.2609Z" fill="#0044AA"/>
<path d="M67.1254 15.9911H67.4977V13.636H67.1254V15.9911ZM67.1254 25.9127V21.4428L69.4898 23.0564V25.1643C68.7461 25.5361 67.9482 25.7887 67.1254 25.9127ZM67.1254 19.7332V17.5017C67.9749 17.6609 68.7808 17.9979 69.4898 18.4904V20.8455C68.7839 20.3216 67.98 19.9434 67.1254 19.7332ZM67.1254 13.6566H64.7542V16.0117H67.1254V13.6566ZM67.1254 17.5017V19.7332H66.8704C66.1869 19.4855 65.4377 19.4855 64.7542 19.7332V17.3781H65.5055C66.0477 17.3463 66.5917 17.3809 67.1254 17.4811V17.5017ZM67.1254 21.4634V25.9333C66.5984 26.0846 66.0539 26.1676 65.5055 26.1804H64.7542V24.0657H65.1264C65.7949 24.141 66.4715 24.0992 67.1254 23.9421L64.7542 22.3285V19.946L67.1254 21.4634ZM57.7852 13.6566H64.7542V16.0117H57.7852V13.6566ZM64.7542 17.3781C62.1417 17.6253 59.6533 19.3624 59.6533 21.8411C59.6533 24.3197 62.0176 25.9607 64.7542 26.1804V24.0657C63.8857 23.8185 62.5139 23.0701 62.5139 21.9578C62.4925 21.7743 62.515 21.5884 62.5797 21.4154C62.6444 21.2423 62.7495 21.087 62.8862 20.9622L64.7542 22.3354V19.946L64.506 19.6988H64.7542V17.3437" fill="#0044AA"/>
<path d="M74.3426 15.9911V13.636H66.3741V15.9911H68.8625V28.2609H71.9782V15.9911H74.3426Z" fill="#0044AA"/>
<path d="M71.8403 13.7665C71.8403 13.7665 70.8408 10.5463 69.6001 9.17997C68.9408 8.27897 68.0298 7.59123 66.9807 7.20253V9.64686C67.3046 9.94682 67.5978 10.278 67.8561 10.6356C68.5451 11.5653 69.0525 12.6158 69.3519 13.7322L71.8403 13.7665ZM67.0151 13.7665V11.1574C67.2951 11.3904 67.5109 11.6905 67.6424 12.0294C68.0194 12.5583 68.3123 13.1419 68.511 13.7597L67.0151 13.7665ZM67.0151 7.20253C66.6249 6.98307 66.2079 6.81461 65.7744 6.7013H65.5262V8.8092C66.0473 9.04234 66.5457 9.32275 67.0151 9.64686V7.20253ZM67.0151 11.1643V13.7665H66.3948C66.3028 13.4258 66.1782 13.0947 66.0225 12.7778C65.9014 12.5039 65.7334 12.253 65.5262 12.0363V10.1755C66.05 10.4595 66.5482 10.788 67.0151 11.1574V11.1643ZM65.5262 6.7013V8.8092H65.1471C64.5554 8.58003 63.9172 8.49529 63.2859 8.56203L62.2864 6.45413C63.3655 6.38819 64.4484 6.46904 65.5055 6.69444L65.5262 6.7013ZM65.5262 10.1755C65.2396 10.0759 64.9473 9.9934 64.6508 9.92838C63.8303 9.77877 62.9937 9.73722 62.1624 9.80479L62.9068 11.535C63.4497 11.4681 64.0005 11.5101 64.5267 11.6586C64.8664 11.7668 65.2 11.8929 65.5262 12.0363V10.1755Z" fill="#0044AA"/>
<path d="M73.474 8.06081C73.474 7.31927 72.8536 6.81804 71.8541 6.81804C71.5989 6.79764 71.3426 6.84254 71.1097 6.9485V9.04953C71.3357 9.18852 71.59 9.27533 71.8541 9.30357C72.8536 9.30357 73.474 8.80235 73.474 8.06081ZM70.7167 13.7597V10.7867C70.8408 11.1574 70.9649 11.4046 71.0959 11.7822V13.7665L70.7167 13.7597ZM70.7167 8.80234V7.19567C70.7167 7.07208 70.8408 7.07209 71.0959 6.9485V9.04953C70.8546 9.04953 70.7305 8.96026 70.7305 8.80234H70.7167ZM71.0959 13.7597H71.8403C71.6569 13.0781 71.4076 12.4159 71.0959 11.7822V13.7597ZM70.7167 7.19567V8.80234C70.4686 8.55516 70.2204 8.30799 70.2204 8.06081C70.2384 7.89019 70.2917 7.72516 70.3772 7.57621C70.4626 7.42727 70.5783 7.29767 70.7167 7.19567ZM70.7167 10.7867C70.4022 10.2114 70.028 9.67055 69.6001 9.17312C68.9408 8.27211 68.0298 7.58437 66.9807 7.19567V9.64688C67.3046 9.94684 67.5978 10.278 67.8561 10.6356C68.5451 11.5653 69.0525 12.6158 69.3519 13.7322H70.7305L70.7167 10.7867ZM67.0151 13.7665V11.1574C67.2951 11.3904 67.5109 11.6905 67.6424 12.0294C68.0194 12.5583 68.3123 13.1419 68.511 13.7597L67.0151 13.7665ZM67.0151 7.20255V9.64688C66.547 9.3109 66.0486 9.01899 65.5262 8.77489V6.69446H65.7744C66.2079 6.80777 66.6249 6.97622 67.0151 7.19567V7.20255ZM67.0151 11.1643V13.7665H66.3948C66.3028 13.4258 66.1782 13.0947 66.0225 12.7778C65.9014 12.5039 65.7334 12.253 65.5262 12.0363V10.1756C66.05 10.4595 66.5482 10.788 67.0151 11.1574V11.1643ZM65.5262 6.70131C64.4627 6.47173 63.3726 6.38857 62.2864 6.45414L63.2859 8.56204C63.9172 8.4953 64.5554 8.58005 65.1471 8.80921H65.5262V6.70131ZM65.5262 10.1756C65.2396 10.0759 64.9473 9.99341 64.6508 9.92839C63.8303 9.77878 62.9937 9.73724 62.1624 9.80481L62.9068 11.5351C63.4497 11.4681 64.0005 11.5101 64.5267 11.6586C64.8664 11.7668 65.2 11.8929 65.5262 12.0363V10.1756Z" fill="#0044AA"/>
<path d="M96.3868 15.9911V13.636H80.8014V15.9911H83.5587V18.2226C82.7243 17.7304 81.7711 17.4741 80.8014 17.4811V19.7126C82.2972 19.7126 83.4139 20.3305 83.4139 21.5664C83.4139 23.1799 81.6699 23.6812 80.8014 23.6812V26.0362C81.7614 25.9721 82.6988 25.7177 83.5587 25.2878V28.2609H86.6744V21.5664C86.6744 21.5664 86.9225 19.7126 89.4316 19.7126C91.0515 19.7126 92.051 20.4541 92.051 21.8136C92.051 22.9328 90.4311 23.6812 89.1835 23.6812V25.9058C92.4233 26.0362 95.1598 24.1755 94.9117 21.4428C94.6635 19.0877 92.4232 17.7282 89.4316 17.7282C88.4858 17.6671 87.5394 17.8368 86.6744 18.2226V15.9911H96.3868ZM73.474 13.636H80.8014V15.9911H73.474V13.636ZM80.8221 17.4811V19.7126H80.698C78.83 19.7126 78.0786 20.8249 78.0786 21.69C78.0786 22.9328 79.5744 23.6812 80.698 23.6812H80.8014V26.0362C80.3385 26.0518 79.8755 26.0103 79.4228 25.9127C77.4307 25.535 74.9422 24.2922 74.9422 21.5664C74.9422 19.2113 77.5547 17.3575 80.6704 17.4811H80.8014" fill="#0044AA"/>
<path d="M88.5425 14.2609C88.5425 14.2609 88.5425 14.1304 88.4184 14.1304L88.2943 14.2609C88.2943 14.2937 88.3074 14.3251 88.3307 14.3483C88.3539 14.3715 88.3855 14.3845 88.4184 14.3845C88.5425 14.3845 88.5425 14.3845 88.5425 14.2609Z" fill="#0044AA"/>
<path d="M144.046 41.9519L151.022 34.9897V7.19565L144.005 0.0343018H116.432L109.408 7.24372V35.0515L116.336 41.9656H144.046" fill="white"/>
<path d="M144.046 41.9519L151.022 34.9897V7.19565L144.005 0.0343018H116.432L109.408 7.24372V35.0515L116.336 41.9656L144.046 41.9519Z" stroke="white" stroke-width="0.15" stroke-miterlimit="2.61"/>
<path d="M144.005 34.9073H137.167V27.2378L142.998 21.1682L131.08 8.27363V11.5282L138.662 20.3717L131.121 28.0824V41.9519H144.032L151.008 34.9897V7.19565L144.005 0.0343018H116.432L109.408 7.24372V35.0515L116.336 41.9656H129.35V28.0961L121.816 20.3717L129.398 11.5282V8.27363L117.48 21.1682L123.311 27.2378V34.9073H116.467V7.09954H143.956L144.005 34.9073ZM124.918 19.9048C124.919 18.8537 125.233 17.8267 125.821 16.9535C126.408 16.0803 127.242 15.4002 128.217 14.9992C129.193 14.5983 130.266 14.4944 131.3 14.7008C132.335 14.9072 133.285 15.4145 134.03 16.1587C134.775 16.9029 135.282 17.8505 135.487 18.8817C135.691 19.9128 135.584 20.9812 135.179 21.9518C134.774 22.9223 134.089 23.7514 133.211 24.3343C132.333 24.9171 131.301 25.2274 130.246 25.2261C129.545 25.2261 128.851 25.0883 128.204 24.8207C127.556 24.5532 126.968 24.161 126.473 23.6667C125.978 23.1724 125.586 22.5857 125.319 21.9401C125.052 21.2946 124.916 20.603 124.918 19.9048Z" fill="black"/>
<path d="M144.005 34.9073H137.167V27.2378L142.998 21.1682L131.08 8.27363V11.5282L138.662 20.3717L131.121 28.0755V41.9519H144.032L151.008 34.9897V7.19565L144.005 0.0343018H116.432L109.408 7.24372V35.0515L116.336 41.9656H129.35V28.0755L121.816 20.3717L129.398 11.5282V8.27363L117.48 21.1682L123.311 27.2378V34.9073H116.467V7.09954H143.956L144.005 34.9073ZM124.918 19.9048C124.919 18.8537 125.233 17.8267 125.821 16.9535C126.408 16.0803 127.242 15.4002 128.217 14.9992C129.193 14.5983 130.266 14.4944 131.3 14.7008C132.335 14.9072 133.285 15.4145 134.03 16.1587C134.775 16.9029 135.282 17.8505 135.487 18.8817C135.691 19.9128 135.584 20.9812 135.179 21.9518C134.774 22.9223 134.089 23.7514 133.211 24.3343C132.333 24.9171 131.301 25.2274 130.246 25.2261C129.545 25.2261 128.851 25.0883 128.204 24.8207C127.556 24.5532 126.968 24.161 126.473 23.6667C125.978 23.1724 125.586 22.5857 125.319 21.9401C125.052 21.2946 124.916 20.603 124.918 19.9048Z" fill="#0044AA" stroke="black" stroke-width="0.15" stroke-miterlimit="2.61"/>
</g>
<defs>
<clipPath id="clip0_4_1092">
<rect width="265" height="42" fill="white"/>
</clipPath>
</defs>
</svg>
