<svg width="254" height="24" viewBox="0 0 254 24" fill="none" xmlns="http://www.w3.org/2000/svg">
<path d="M20.1142 3.94481C20.1868 0.656288 21.4932 0.0150031 21.4932 0.0150031C21.4932 0.0150031 18.6675 -0.0801783 18.044 0.208935C15.1624 1.26307 14.7043 4.50162 14.702 6.58966C14.7043 6.2827 14.677 0.44213 8.39381 0.0340394C8.19988 0.0221417 0 0.0161929 0 0.0161929C0 0.0161929 1.31826 0.652719 1.38251 3.946V13.8853C1.58953 11.6676 2.58299 9.02868 4.97799 6.00073C7.02796 8.59085 8.05116 10.8931 8.43307 12.8966C9.89054 11.6795 11.9036 10.6539 14.6805 10.0424C14.6805 10.0424 14.9958 13.8377 13.4325 17.3309C15.1945 16.8728 17.2933 16.7872 19.7644 17.3273C19.9548 16.6682 20.075 15.9769 20.113 15.2702L20.1142 3.94481Z" fill="#008572"/>
<path d="M4.7233 21.8841C4.64002 19.8877 4.90653 15.8377 8.43419 12.8966C8.05227 10.8931 7.02788 8.59086 4.9791 6.00073C2.58291 9.02869 1.58945 11.6676 1.38243 13.8853C1.38243 13.8853 0.780411 18.6361 4.7233 21.8841Z" fill="#F58232"/>
<path d="M14.6817 10.041C11.9047 10.6526 9.89166 11.6793 8.43419 12.8953C4.90653 15.8364 4.64002 19.8863 4.7233 21.8828C4.81967 21.978 6.19624 22.8762 6.19624 22.8762C7.28249 21.1166 9.54781 18.3325 13.4336 17.3295C14.9958 13.8376 14.6817 10.041 14.6817 10.041Z" fill="#FAA634"/>
<path d="M13.4336 17.3296C9.54787 18.3326 7.28255 21.1167 6.19629 22.8763C6.20105 22.8799 6.207 22.8835 6.21414 22.887C8.51039 24.1613 10.9066 23.9923 10.9066 23.9923C15.1112 23.9888 18.6591 21.1738 19.7656 17.3261C17.2956 16.7859 15.1957 16.8739 13.4336 17.3296Z" fill="#FDB933"/>
<path d="M40.571 5.52124V5.9091C41.4657 6.08995 41.6299 6.70982 41.6299 7.94004V21.2761C41.5776 22.3196 40.9042 23.1929 39.969 23.5403V23.9912C40.0285 23.9948 40.0892 23.996 40.1475 23.996C40.6698 23.996 41.1683 23.9032 41.6299 23.7283C43.2087 23.1417 44.339 21.6414 44.3842 19.871V7.94004C44.3842 6.70982 44.5508 6.08995 45.4443 5.9091V5.52124H40.571Z" fill="#F58232"/>
<path d="M47.5787 5.52124V5.9091C48.4734 6.08995 48.64 6.70982 48.64 7.94004V21.2761C48.5853 22.3196 47.9131 23.1929 46.9779 23.5403V23.9912C47.0374 23.9948 47.0957 23.996 47.1564 23.996C47.6775 23.996 48.1784 23.9032 48.64 23.7283C50.2176 23.1417 51.3467 21.6414 51.3943 19.871V7.94004C51.3943 6.70982 51.5597 6.08995 52.4532 5.9091V5.52124H47.5787Z" fill="#F58232"/>
<path d="M68.6365 5.52368V5.91155C69.2432 6.08287 69.436 6.43266 69.436 6.84908C69.436 7.38091 69.223 7.93772 68.9886 8.57901L67.0683 13.8521L64.0392 6.28275C63.8441 5.83659 63.3991 5.52368 62.8792 5.52368H60.0677V5.90917C60.9636 6.01387 61.3848 6.65634 61.8976 7.96033L65.9595 18.1757H66.408L70.3188 7.96033C70.7507 6.81339 71.1445 6.11738 71.8453 5.90917V5.52368H68.6365Z" fill="#F58232"/>
<path d="M72.9006 12.736L74.5746 8.20179L76.3604 12.736H72.9006ZM80.8352 16.9799C80.6341 16.6598 80.1939 15.5938 80.1939 15.5938L76.2498 5.52124H74.5996L70.7602 15.7604C70.3426 16.8669 69.9583 17.5676 69.298 17.7901V18.1756H72.0808V17.7901C71.5312 17.6628 71.411 17.4332 71.411 17.0739C71.411 16.6277 71.6014 16.2054 71.7715 15.7604L72.5163 13.8698L76.8114 13.8675L78.2058 17.4035C78.4128 17.8651 78.8661 18.1506 79.3824 18.1756H82.0904V17.7901C81.5431 17.7366 81.1671 17.4951 80.8352 16.9799Z" fill="#F58232"/>
<path d="M58.6461 16.053C58.6461 14.4076 58.6461 6.89063 58.6461 6.86208C58.5996 6.11609 57.9833 5.52478 57.2255 5.52002H57.2219H57.2183H54.7377V5.90788C55.6347 6.08873 55.8001 6.70741 55.8001 7.93763V15.9959C55.7692 17.0572 55.5527 17.6223 54.7139 17.7901V18.1732H59.7299V17.7901C58.903 17.6235 58.6829 17.0762 58.6461 16.053Z" fill="#F58232"/>
<path d="M95.3813 15.7604V9.73894C95.3813 6.90134 94.0868 5.52121 91.417 5.52121C89.7204 5.52121 88.2784 6.11728 86.9875 7.36773L86.9839 6.81687C86.9399 6.09587 86.3438 5.5224 85.6109 5.52002H85.6085H85.6061H83.2064V5.90788C84.0297 6.06969 84.2165 6.60866 84.2308 7.67945V15.7592C84.2308 16.9882 84.0654 17.6093 83.1719 17.7889V18.1732H88.0475V17.7889C87.1505 17.6093 86.9863 16.9882 86.9863 15.7592V8.69551C88.0464 7.48671 89.2123 6.89301 90.3973 6.89301C92.0273 6.89301 92.6222 7.84602 92.6222 9.90312V15.7604C92.6222 16.9894 92.458 17.6104 91.5621 17.7901V18.1744H96.439V17.7901C95.5478 17.6104 95.3813 16.9894 95.3813 15.7604Z" fill="#F58232"/>
<path d="M26.2617 7.93766V13.9591C26.2617 16.7991 27.5526 18.1756 30.226 18.1756C31.9202 18.1756 33.3622 17.5807 34.6567 16.3315L34.6578 16.8788C34.7007 17.601 35.2956 18.1744 36.0296 18.1756H36.032H36.0344H38.4342V17.7949C37.6144 17.6295 37.4264 17.0882 37.411 16.015V7.93766C37.411 6.70863 37.5752 6.08995 38.4699 5.9091V5.52124H33.5942V5.9091C34.4889 6.08757 34.6578 6.70863 34.6578 7.93766V15.0025C33.5954 16.2113 32.4294 16.8038 31.2444 16.8038C29.612 16.8038 29.0195 15.8484 29.0195 13.7949V7.93766C29.0195 6.70863 29.1849 6.08995 30.0796 5.9091V5.52124H25.2028V5.9091C26.0963 6.08757 26.2617 6.70863 26.2617 7.93766Z" fill="#F58232"/>
<path d="M106.2 11.2702C106.628 11.413 106.996 11.5808 107.3 11.7676C107.607 11.9567 107.855 12.1828 108.043 12.4481C108.231 12.717 108.366 13.0251 108.451 13.3761C108.537 13.7259 108.578 14.1435 108.578 14.6218V14.993C108.578 15.5522 108.504 16.046 108.354 16.4755C108.205 16.9026 107.958 17.2643 107.614 17.5546C107.269 17.8497 106.823 18.071 106.278 18.2197C105.732 18.3672 105.07 18.4445 104.29 18.4445C103.976 18.4445 103.568 18.41 103.061 18.3458C102.554 18.2815 102.014 18.184 101.444 18.0543L101.484 16.5516C102.014 16.6801 102.527 16.7789 103.012 16.8443C103.499 16.9121 103.912 16.9407 104.25 16.9407C105.253 16.9407 105.948 16.7884 106.338 16.4826C106.727 16.1792 106.921 15.7247 106.921 15.1287V14.485C106.921 14.0281 106.823 13.6831 106.629 13.4428C106.434 13.2012 106.076 12.9954 105.557 12.8253L103.549 12.1626C103.096 12.0198 102.715 11.858 102.409 11.6771C102.103 11.4939 101.86 11.275 101.678 11.0132C101.497 10.7527 101.362 10.4457 101.279 10.0959C101.194 9.74615 101.153 9.32854 101.153 8.85025V8.63609C101.153 7.52961 101.448 6.67893 102.039 6.08999C102.631 5.49868 103.601 5.20361 104.954 5.20361C105.291 5.20361 105.711 5.23098 106.212 5.29047C106.713 5.34876 107.203 5.42253 107.683 5.51414L107.644 6.97637C107.189 6.88713 106.726 6.8098 106.251 6.75269C105.777 6.6932 105.343 6.66465 104.954 6.66465C104.174 6.66465 103.62 6.81813 103.297 7.12271C102.971 7.42729 102.81 7.88059 102.81 8.47785V8.98589C102.81 9.21908 102.829 9.41658 102.868 9.57958C102.907 9.74377 102.985 9.88892 103.102 10.0162C103.218 10.1483 103.38 10.2601 103.588 10.3589C103.797 10.4564 104.062 10.5588 104.388 10.6611L106.2 11.2702Z" fill="#008572"/>
<path d="M119.028 18.2102L118.93 7.72118L116.22 16.8836H114.171L111.463 7.72118L111.367 18.2102H109.747L109.864 5.43921H112.32L115.206 15.4023L118.073 5.43921H120.529L120.645 18.2102H119.028Z" fill="#008572"/>
<path d="M124.466 13.764H128.327L126.416 6.95854L124.466 13.764ZM128.757 15.2453H124.057L123.219 18.209H121.523L125.423 5.43921H127.469L131.39 18.209H129.594L128.757 15.2453Z" fill="#008572"/>
<path d="M132.363 18.2102V5.43921H134.02V16.748H139.089V18.2102H132.363Z" fill="#008572"/>
<path d="M140.259 18.2102V5.43921H141.915V16.748H146.985V18.2102H140.259Z" fill="#008572"/>
<path d="M152.76 6.94189V10.9776H156.581V12.4588H152.76V18.2102H151.103V5.43921H157.829V6.94189H152.76Z" fill="#008572"/>
<path d="M159.779 5.43921H161.437V18.209H159.779V5.43921Z" fill="#008572"/>
<path d="M169.429 18.2102L165.218 7.4285V18.2102H163.581V5.43921H166.232L170.364 16.2221V5.43921H172.002V18.2102H169.429Z" fill="#008572"/>
<path d="M175.921 13.764H179.781L177.871 6.95854L175.921 13.764ZM180.211 15.2453H175.512L174.675 18.209H172.978L176.877 5.43921H178.924L182.842 18.209H181.049L180.211 15.2453Z" fill="#008572"/>
<path d="M189.667 18.2102L185.456 7.4285V18.2102H183.818V5.43921H186.47L190.6 16.2221V5.43921H192.24V18.2102H189.667Z" fill="#008572"/>
<path d="M198.439 5.20728C198.883 5.20728 199.334 5.24178 199.795 5.31317C200.256 5.38574 200.702 5.45237 201.13 5.51781L201.09 6.98003C200.767 6.91221 200.363 6.84678 199.881 6.77539C199.401 6.70281 198.92 6.66831 198.439 6.66831C197.542 6.66831 196.903 6.84559 196.52 7.20371C196.137 7.55945 195.945 8.1698 195.945 9.02762V14.6029C195.945 15.4476 196.137 16.0484 196.52 16.4066C196.903 16.7635 197.542 16.942 198.439 16.942C198.92 16.942 199.401 16.9075 199.881 16.8337C200.362 16.7623 200.766 16.6957 201.09 16.629L201.13 18.1317C200.702 18.1972 200.256 18.265 199.795 18.3364C199.334 18.4078 198.883 18.4458 198.439 18.4458C197.672 18.4458 197.023 18.3649 196.491 18.2007C195.957 18.0389 195.526 17.7915 195.203 17.4595C194.879 17.1288 194.644 16.7159 194.501 16.2221C194.358 15.7284 194.288 15.1561 194.288 14.5053V9.14422C194.288 7.81882 194.597 6.8325 195.221 6.1817C195.846 5.5297 196.92 5.20728 198.439 5.20728Z" fill="#008572"/>
<path d="M202.884 18.2102V5.43921H209.613V6.94189H204.544V10.9788H209.222V12.4577H204.544V16.7087H209.613V18.2102H202.884Z" fill="#008572"/>
<path d="M216.551 16.8836C216.813 16.9122 217.024 16.9288 217.194 16.9419C217.365 16.9562 217.517 16.9681 217.654 16.98C217.792 16.9943 217.918 17.0002 218.033 17.0002H218.463C219.499 17.0002 220.249 16.8027 220.704 16.4065C221.16 16.0103 221.386 15.4821 221.386 14.817V14.4077C221.386 13.7581 221.165 13.2608 220.722 12.9158C220.278 12.5731 219.564 12.3982 218.578 12.3982H216.55V16.8836H216.551ZM216.551 11.0561H218.463C219.254 11.0561 219.851 10.867 220.256 10.4886C220.659 10.1138 220.859 9.58321 220.859 8.91099V8.57905C220.859 7.95561 220.647 7.47494 220.227 7.13705C219.805 6.79915 219.085 6.62902 218.073 6.62902C217.605 6.62902 217.099 6.64924 216.551 6.68732V11.0561ZM214.895 5.28458C215.349 5.25721 215.861 5.23937 216.424 5.22628C216.99 5.21319 217.624 5.20605 218.326 5.20605C219.73 5.20605 220.778 5.49517 221.474 6.0734C222.17 6.65162 222.519 7.40118 222.519 8.32682V8.75394C222.519 9.40356 222.374 9.96988 222.089 10.4494C221.804 10.9324 221.347 11.3108 220.725 11.582C221.454 11.7367 222.023 12.0686 222.433 12.5743C222.84 13.0823 223.046 13.72 223.046 14.4851V14.9134C223.046 15.4226 222.955 15.8902 222.773 16.3268C222.59 16.7611 222.314 17.137 221.945 17.4476C221.574 17.7617 221.099 18.0044 220.522 18.1793C219.943 18.353 219.258 18.4434 218.465 18.4434H217.666C217.432 18.4434 217.189 18.4339 216.934 18.422C216.68 18.4077 216.394 18.3958 216.075 18.3827C215.757 18.3696 215.363 18.3506 214.897 18.3244V5.28458H214.895Z" fill="#008572"/>
<path d="M226.084 13.764H229.943L228.034 6.95854L226.084 13.764ZM230.375 15.2453H225.676L224.838 18.209H223.139L227.04 5.43921H229.087L233.008 18.209H231.212L230.375 15.2453Z" fill="#008572"/>
<path d="M239.831 18.2102L235.619 7.4285V18.2102H233.981V5.43921H236.634L240.766 16.2221V5.43921H242.406V18.2102H239.831Z" fill="#008572"/>
<path d="M244.55 18.2102V5.43921H246.206V11.601L250.962 5.43921H252.815L247.921 11.6212L253.323 18.2102H251.197L246.206 11.8925V18.2102H244.55Z" fill="#008572"/>
</svg>
