<svg width="191" height="24" viewBox="0 0 191 24" fill="none" xmlns="http://www.w3.org/2000/svg">
<path d="M97.7164 9.04729C97.3623 10.2612 97.4632 9.80576 96.9393 11.7968C96.4659 13.6875 95.9744 15.5597 95.6036 16.8078C95.4848 17.0443 95.3485 17.2825 95.1643 17.5177C94.9441 17.8045 94.6897 18.0914 94.4035 18.3446C92.7959 19.7451 90.3963 20.5732 88.3189 20.2522C88.1485 20.233 87.945 20.2 87.7104 20.1334C86.4065 19.8291 85.5454 19.1865 85.0552 18.3794C84.5313 17.5177 84.3957 16.3872 84.5811 15.1715C84.5991 15.0035 84.6495 14.7838 84.7155 14.5306C85.5106 11.3227 86.3225 8.1352 87.1182 4.94589C87.4386 3.32694 84.0225 2.9033 83.2964 5.0125L81.0984 13.6539C81.0498 13.9228 80.9814 14.26 80.9292 14.6134C80.6081 16.6722 80.9124 18.6326 81.8604 20.2522C82.8571 21.9209 84.4977 23.1721 86.8463 23.7259C87.1002 23.7943 87.405 23.8453 87.759 23.8963C90.8847 24.3686 94.4869 23.1865 96.8385 21.1115C97.3095 20.689 97.7506 20.233 98.1226 19.7451C98.4941 19.2381 98.8151 18.698 99.0701 18.1238V18.1076L99.1367 17.9227C99.5087 16.7058 100.016 14.716 100.54 12.7076C101.029 10.8013 101.215 10.143 101.587 8.89367C101.943 7.19011 98.6291 6.46404 97.7164 9.04729Z" fill="#ED1D24"/>
<path d="M91.9197 14.9358C92.2888 13.7393 92.1891 14.1918 92.6962 12.1852C93.1876 10.3124 93.6773 8.4204 94.0295 7.18908C94.1501 6.95386 94.3025 6.70063 94.4868 6.48161C94.7076 6.17678 94.9608 5.90796 95.247 5.65533C96.8546 4.23739 99.2722 3.42612 101.334 3.73095C101.503 3.76395 101.706 3.79755 101.942 3.84856C103.245 4.17019 104.123 4.79485 104.615 5.62113C105.12 6.48161 105.275 7.59652 105.087 8.82544C105.053 8.99585 105.02 9.19747 104.952 9.4681C104.105 12.8428 103.261 16.1995 102.434 19.5761C102.212 21.5845 105.763 21.7861 106.27 19.5251L108.553 10.3454C108.619 10.0586 108.688 9.73872 108.738 9.36789C109.042 7.32469 108.756 5.3685 107.791 3.74835C106.813 2.07719 105.172 0.827864 102.822 0.27161C102.568 0.221205 102.262 0.152798 101.892 0.101793C98.7652 -0.369253 95.1648 0.827866 92.8144 2.88786C92.3242 3.3091 91.9011 3.76395 91.5279 4.2536C91.157 4.74264 90.8348 5.2989 90.6002 5.87435L90.5144 6.07597C90.1603 7.27429 89.6353 9.28268 89.1282 11.2743C88.6212 13.1981 88.4532 13.8563 88.0799 15.087C88.0469 17.3991 91.5111 17.1968 91.9197 14.9358Z" fill="#006CB7"/>
<path d="M97.7164 9.04729C97.3623 10.2612 97.4632 9.80576 96.9393 11.7968C96.4659 13.6875 95.9744 15.5597 95.6036 16.8078C95.4848 17.0443 95.3485 17.2825 95.1643 17.5177C94.9441 17.8045 94.6897 18.0914 94.4035 18.3446C92.7959 19.7451 90.3963 20.5732 88.3189 20.2522C88.1485 20.233 87.945 20.2 87.7104 20.1334C86.4065 19.8291 85.5454 19.1865 85.0552 18.3794C84.5313 17.5177 84.3957 16.3872 84.5811 15.1715C84.5991 15.0035 84.6495 14.7838 84.7155 14.5306C85.5106 11.3227 86.3225 8.1352 87.1182 4.94589C87.4386 3.32694 84.0225 2.9033 83.2964 5.0125L81.0984 13.6539C81.0498 13.9228 80.9814 14.26 80.9292 14.6134C80.6081 16.6722 80.9124 18.6326 81.8604 20.2522C82.8571 21.9209 84.4977 23.1721 86.8463 23.7259C87.1002 23.7943 87.405 23.8453 87.759 23.8963C90.8847 24.3686 94.4869 23.1865 96.8385 21.1115C97.3095 20.689 97.7506 20.233 98.1226 19.7451C98.4941 19.2381 98.8151 18.698 99.0701 18.1238V18.1076L99.1367 17.9227C99.5087 16.7058 100.016 14.716 100.54 12.7076C101.029 10.8013 101.215 10.143 101.587 8.89367C101.943 7.19011 98.6291 6.46404 97.7164 9.04729Z" fill="#ED1D24"/>
<path d="M91.9197 14.9361C92.2888 13.7396 92.1891 14.192 92.6962 12.1854C93.1876 10.3126 93.6773 8.42064 94.0295 7.18932C94.1501 6.9541 94.3025 6.70088 94.4868 6.48185C94.7076 6.17702 94.9608 5.9082 95.247 5.65557C96.8546 4.23764 99.2722 3.42636 101.334 3.73119C101.503 3.76419 101.706 3.7978 101.942 3.8488C103.245 4.17043 104.123 4.79509 104.615 5.62137C105.12 6.48185 105.275 7.59676 105.087 8.82568C105.053 8.9961 105.02 9.19772 104.952 9.46834C104.105 12.8431 103.261 16.1998 102.434 19.5763C102.212 21.5847 105.763 21.7863 106.27 19.5253L108.553 10.3456C108.619 10.0588 108.688 9.73897 108.738 9.36813C109.042 7.32494 108.756 5.36875 107.791 3.74859C106.813 2.07743 105.172 0.828108 102.822 0.271854C102.568 0.221449 102.262 0.153042 101.892 0.102037C98.7652 -0.369009 95.1648 0.82811 92.8144 2.88811C92.3242 3.30935 91.9011 3.76419 91.5279 4.25384C91.157 4.74289 90.8348 5.29914 90.6002 5.8746L90.5144 6.07621C90.1603 7.27453 89.6353 9.28292 89.1282 11.2745C88.6212 13.1983 88.4532 13.8566 88.0799 15.0873C88.0469 17.3993 91.5111 17.1971 91.9197 14.9361Z" fill="#006CB7"/>
<path d="M178.514 18.579C178.277 18.579 178.058 18.6325 177.84 18.7321C177.62 18.8329 177.415 18.9685 177.248 19.1713L177.35 18.6661H176.588L175.827 22.276L175.81 22.3762H176.604L177.059 20.2172C177.113 19.9136 177.248 19.676 177.45 19.5073C177.653 19.3231 177.907 19.2403 178.21 19.2403C178.43 19.2403 178.583 19.3075 178.684 19.4251C178.768 19.5427 178.785 19.7108 178.735 19.9472L178.226 22.3762H179.023L179.511 20.0144C179.631 19.4911 179.614 19.1041 179.446 18.8995C179.293 18.6817 178.99 18.579 178.514 18.579ZM182.894 20.504C182.793 20.9253 182.638 21.2457 182.436 21.4827C182.285 21.6333 182.099 21.7372 181.896 21.7864C181.812 21.8044 181.727 21.8188 181.626 21.8188C181.323 21.8188 181.101 21.7005 180.967 21.4827C180.849 21.2631 180.83 20.9421 180.916 20.5544C181.002 20.1332 181.152 19.8122 181.371 19.5763C181.524 19.4251 181.71 19.3231 181.896 19.2727C181.98 19.2559 182.066 19.2403 182.166 19.2403C182.487 19.2403 182.707 19.3405 182.844 19.5583C182.962 19.778 182.978 20.0816 182.894 20.504ZM184.313 17.3135H183.553L183.163 19.1191C183.062 18.9331 182.928 18.7819 182.76 18.6817C182.589 18.5976 182.372 18.5442 182.135 18.5442C182.048 18.5442 181.98 18.5442 181.896 18.564C181.524 18.6139 181.17 18.7819 180.865 19.0867C180.493 19.4581 180.239 19.9472 180.121 20.5394C179.986 21.1275 180.036 21.5997 180.254 21.9724C180.477 22.3264 180.83 22.5124 181.302 22.5124C181.507 22.5124 181.71 22.4608 181.896 22.393C181.929 22.3762 181.946 22.3762 181.964 22.3582C182.183 22.2574 182.388 22.1062 182.589 21.904L182.487 22.3762H183.248L184.245 17.601L184.313 17.3135ZM172.006 17.2457C171.684 17.2457 171.433 17.3321 171.228 17.4827C171.043 17.6358 170.909 17.8902 170.841 18.2094L170.755 18.6661H170.18L170.062 19.2559H170.621L169.959 22.3762H170.755L171.416 19.2559H172.058L172.192 18.6661H171.534L171.601 18.3792C171.637 18.2094 171.684 18.0732 171.751 18.0246C171.821 17.9562 171.922 17.9388 172.075 17.9388H172.176L172.345 17.9562L172.478 17.2799H172.446C172.244 17.2649 172.093 17.2457 172.006 17.2457ZM175.861 17.3135H174.999L173.933 22.3762H174.78L175.827 17.4155L175.861 17.3135ZM186.055 17.3135H185.26L185.091 18.1074H185.885L186.055 17.3135ZM188.387 20.9919C188.339 21.2457 188.202 21.4491 187.967 21.6183C187.848 21.7005 187.728 21.7696 187.593 21.8188C187.456 21.8536 187.324 21.871 187.188 21.871C187.003 21.871 186.866 21.8188 186.765 21.7372C186.682 21.6333 186.665 21.5007 186.699 21.3297C186.73 21.1791 186.798 21.0603 186.901 20.9589C187.018 20.8755 187.172 20.8077 187.357 20.7729C187.405 20.7729 187.491 20.7573 187.593 20.7399L187.66 20.7219C188.033 20.6726 188.303 20.6042 188.489 20.5214L188.387 20.9919ZM188.184 18.5442C187.967 18.5442 187.762 18.564 187.593 18.6139C187.373 18.6661 187.172 18.7495 187.003 18.8653C186.682 19.0867 186.478 19.3723 186.41 19.7432L186.392 19.8122H187.137V19.778C187.188 19.5943 187.272 19.4407 187.424 19.3405C187.475 19.3075 187.526 19.2889 187.593 19.2559C187.711 19.2211 187.848 19.1887 188.016 19.1887C188.271 19.1887 188.456 19.2403 188.576 19.3231C188.675 19.4065 188.708 19.5427 188.675 19.7108C188.623 19.9304 188.339 20.0816 187.829 20.15H187.746C187.695 20.1656 187.644 20.1656 187.593 20.1836C187.053 20.252 186.665 20.3858 186.427 20.5544C186.155 20.7399 185.985 21.0261 185.902 21.3987C185.836 21.7516 185.885 22.0222 186.055 22.2082C186.223 22.411 186.493 22.5124 186.866 22.5124C187.119 22.5124 187.357 22.4608 187.593 22.3426C187.829 22.2418 188.049 22.09 188.237 21.8866C188.202 22.09 188.237 22.2262 188.339 22.3084C188.422 22.411 188.591 22.4608 188.826 22.4608C188.895 22.4608 188.963 22.4446 189.03 22.4446C189.098 22.426 189.182 22.411 189.25 22.393L189.369 21.8188C189.317 21.8374 189.283 21.8374 189.266 21.8374H189.217C189.132 21.8374 189.081 21.8188 189.048 21.7696C189.03 21.7186 189.03 21.6333 189.065 21.4827L189.452 19.6436C189.521 19.2889 189.452 19.0015 189.25 18.8161C189.03 18.6325 188.675 18.5442 188.184 18.5442ZM168.475 21.4323C168.253 21.7372 167.966 21.904 167.628 21.9724C167.544 21.9724 167.458 21.9892 167.373 21.9892C167.053 21.9892 166.8 21.904 166.629 21.7186C166.445 21.5517 166.36 21.2967 166.36 20.9589C166.36 20.7219 166.393 20.4698 166.477 20.2172C166.564 19.964 166.664 19.7432 166.8 19.5583C166.919 19.3909 167.088 19.2403 167.256 19.1539C167.373 19.1041 167.495 19.0531 167.628 19.0357C167.695 19.0189 167.781 19.0189 167.848 19.0189C168.204 19.0189 168.457 19.1041 168.642 19.2727C168.813 19.4407 168.897 19.6934 168.897 20.0144C168.897 20.5892 168.761 21.0603 168.475 21.4323ZM167.932 18.444C167.83 18.444 167.729 18.444 167.628 18.462C167.088 18.5298 166.629 18.7495 166.276 19.1371C165.836 19.6093 165.632 20.1998 165.632 20.9097C165.632 21.4323 165.785 21.8374 166.073 22.1236C166.377 22.411 166.8 22.5466 167.358 22.5466H167.628C168.185 22.4782 168.642 22.2574 168.998 21.8536C169.437 21.3987 169.657 20.8077 169.657 20.0996C169.657 19.5943 169.488 19.1887 169.186 18.8833C168.878 18.5976 168.457 18.444 167.932 18.444ZM184.245 22.09L184.196 22.3762H184.989L185.767 18.6661H184.972L184.245 22.09ZM190.805 7.7642H188.033L185.361 10.2268L186.41 5.21696H184.094L182.048 14.9361H184.363L184.768 12.9931L185.836 12.1008L186.883 14.9679H189.485L187.728 10.4981L190.805 7.7642ZM170.333 12.3882C170.266 12.7585 170.062 13.0633 169.775 13.2805C169.605 13.3993 169.437 13.5008 169.251 13.5494C169.082 13.6022 168.914 13.6358 168.709 13.6358C168.457 13.6358 168.271 13.5494 168.135 13.3993C168.015 13.2481 167.982 13.0297 168.033 12.7759C168.067 12.5731 168.169 12.4045 168.303 12.2856C168.457 12.1674 168.676 12.0672 168.965 11.9838C169.049 11.9652 169.15 11.9496 169.251 11.9148C169.335 11.8992 169.403 11.8818 169.505 11.8656C169.959 11.7792 170.316 11.6616 170.52 11.5614L170.333 12.3882ZM172.92 8.52388C172.734 8.20405 172.446 7.96702 172.04 7.81401C171.637 7.66339 171.11 7.59559 170.468 7.59559C170.029 7.59559 169.623 7.62919 169.251 7.6964C168.761 7.79781 168.337 7.94962 167.966 8.18544C167.34 8.57488 166.869 9.18094 166.58 9.99042H168.744C168.846 9.72039 169.014 9.51757 169.251 9.38256C169.488 9.24935 169.757 9.18094 170.079 9.18094C170.383 9.18094 170.603 9.23134 170.74 9.35016C170.873 9.44977 170.924 9.60398 170.873 9.8218L170.841 9.99042C170.79 10.243 170.351 10.4303 169.505 10.5653C169.419 10.5809 169.335 10.5995 169.251 10.5995C168.813 10.6823 168.423 10.7507 168.118 10.8197C167.441 10.9703 166.919 11.2385 166.513 11.6112C166.123 11.9838 165.871 12.4543 165.736 13.0453C165.6 13.7036 165.701 14.2094 166.021 14.6001C166.343 14.9679 166.851 15.1539 167.544 15.1539C167.982 15.1539 168.405 15.0861 168.813 14.9187C168.965 14.8665 169.115 14.7993 169.251 14.7165C169.521 14.5809 169.775 14.3954 170.029 14.1914C170.011 14.3276 170.011 14.4464 169.995 14.5809V14.9361H172.395L172.446 14.6655C172.345 14.6001 172.278 14.4795 172.261 14.2934C172.244 14.1086 172.261 13.8554 172.329 13.5356L172.903 10.8011C173.038 10.1254 173.122 9.62078 173.106 9.31655C173.106 9.01292 173.038 8.7423 172.92 8.52388ZM176.756 11.0873C176.874 10.4981 177.059 10.0588 177.314 9.7714C177.553 9.50257 177.889 9.36636 178.295 9.36636C178.684 9.36636 178.921 9.48457 179.005 9.72039C179.106 9.94001 179.055 10.4795 178.887 11.3249L178.126 14.9361H180.477L181.455 10.2616C181.659 9.31655 181.608 8.64149 181.323 8.21845C181.033 7.79781 180.459 7.59559 179.631 7.59559C179.141 7.59559 178.684 7.6802 178.295 7.88122C177.889 8.06723 177.536 8.35406 177.197 8.7423L177.415 7.7642H175.118L173.613 14.9361H175.947L176.756 11.0873ZM150.284 7.59559C149.793 7.59559 149.353 7.6802 148.949 7.88122C148.56 8.06723 148.188 8.35406 147.867 8.7423L148.069 7.7642H145.771L144.264 14.9361H146.599L147.409 11.0873C147.527 10.4981 147.713 10.0588 147.967 9.7714C148.223 9.50257 148.543 9.36636 148.963 9.36636C149.337 9.36636 149.574 9.48457 149.659 9.72039C149.758 9.94001 149.707 10.4795 149.541 11.3249L148.777 14.9361H151.129L152.111 10.2616C152.312 9.31655 152.26 8.64149 151.974 8.21845C151.686 7.79781 151.129 7.59559 150.284 7.59559ZM134.138 5.21696L133.733 7.10654H136.084L136.473 5.21696H134.138ZM129.659 7.59559C129.169 7.59559 128.731 7.6802 128.324 7.88122C127.934 8.06723 127.565 8.35406 127.242 8.7423L127.447 7.7642H125.147L123.946 13.5008L123.642 14.9361H125.973L126.785 11.0873C126.922 10.4981 127.108 10.0588 127.342 9.7714C127.597 9.50257 127.918 9.36636 128.341 9.36636C128.713 9.36636 128.947 9.48457 129.05 9.72039C129.134 9.94001 129.101 10.4795 128.916 11.3249L128.155 14.9361H130.504L131.484 10.2616C131.687 9.31655 131.638 8.64149 131.351 8.21845C131.064 7.79781 130.504 7.59559 129.659 7.59559ZM132.095 14.9361H134.427L135.931 7.7642H133.598L132.095 14.9361ZM141.645 11.3411C141.509 11.9838 141.273 12.4897 140.951 12.8425C140.75 13.0783 140.513 13.2313 140.24 13.3159C140.108 13.3495 139.954 13.3651 139.803 13.3651C139.362 13.3651 139.058 13.1983 138.89 12.8425C138.721 12.4897 138.704 12.0006 138.839 11.3411C138.975 10.6823 139.194 10.1938 139.517 9.8392C139.716 9.60398 139.971 9.44977 140.24 9.36636C140.377 9.33395 140.513 9.31655 140.665 9.31655C141.104 9.31655 141.424 9.48457 141.595 9.8392C141.763 10.1938 141.78 10.6991 141.645 11.3411ZM141.035 7.51038C140.767 7.51038 140.495 7.52718 140.24 7.56198C139.397 7.68019 138.653 8.00003 138.028 8.52388C137.215 9.19774 136.674 10.1428 136.419 11.3411C136.168 12.5389 136.304 13.484 136.844 14.1578C137.369 14.8341 138.232 15.1713 139.431 15.1713C139.7 15.1713 139.971 15.1539 140.24 15.1203C141.086 14.9853 141.813 14.6655 142.44 14.1578C143.267 13.484 143.792 12.5389 144.046 11.3411C144.3 10.1428 144.164 9.19774 143.623 8.52388C143.099 7.84761 142.236 7.51038 141.035 7.51038ZM124.234 5.21696H121.766L120.482 11.2913C120.344 11.9496 120.125 12.4201 119.804 12.7075C119.499 12.9931 119.06 13.1299 118.484 13.1299C117.894 13.1299 117.505 12.9931 117.319 12.7075C117.115 12.4201 117.099 11.9496 117.235 11.2913L118.501 5.21696H116.068L114.85 10.9853C114.682 11.7966 114.615 12.4393 114.682 12.9271C114.75 13.4167 114.92 13.8218 115.222 14.1578C115.526 14.4963 115.916 14.7663 116.388 14.9361C116.863 15.1047 117.42 15.2055 118.063 15.2055C118.705 15.2055 119.297 15.1047 119.838 14.9361C120.378 14.7663 120.886 14.4963 121.342 14.1578C121.766 13.8218 122.119 13.4167 122.372 12.9271C122.643 12.4543 122.863 11.7966 123.034 10.9853L123.946 6.6499L124.234 5.21696ZM163.082 8.08344C163.014 8.38826 162.86 8.62649 162.624 8.7927C162.389 8.94512 162.049 9.01292 161.626 9.01292H159.633L160.02 7.17375H162.118C162.489 7.17375 162.776 7.25775 162.927 7.40957C163.098 7.56198 163.148 7.78161 163.082 8.08344ZM162.504 11.9148C162.422 12.3036 162.237 12.5899 161.965 12.7585C161.813 12.8425 161.61 12.9109 161.374 12.9421C161.169 12.9787 160.936 12.9931 160.662 12.9931H158.787L159.244 10.8527H161.374C161.813 10.8527 162.133 10.9535 162.32 11.1215C162.522 11.3069 162.574 11.5614 162.504 11.9148ZM162.761 5.21696H158.043L155.998 14.9361H159.801C160.443 14.9361 160.95 14.9187 161.374 14.8851C161.543 14.8665 161.677 14.8515 161.813 14.8173C162.27 14.7507 162.659 14.6331 162.996 14.4644C163.485 14.2262 163.908 13.8884 164.264 13.4504C164.603 13.0111 164.821 12.5221 164.94 11.9652C165.058 11.4084 165.008 10.9535 164.786 10.5653C164.57 10.1938 164.194 9.94001 163.653 9.7894C164.179 9.60398 164.603 9.35016 164.924 8.99732C165.228 8.65889 165.446 8.23705 165.549 7.7144C165.736 6.86892 165.6 6.24426 165.144 5.83862C164.687 5.41858 163.892 5.21696 162.761 5.21696Z" fill="#ED1D24"/>
<path fill-rule="evenodd" clip-rule="evenodd" d="M53.7076 20.586C53.6722 20.6526 53.6062 20.7222 53.5222 20.7546C53.4532 20.7888 53.3703 20.8231 53.2995 20.8231C53.0991 20.8231 52.9629 20.6034 53.0319 20.3502L53.2995 18.9329H53.5222H54.0286L53.7076 20.586ZM52.1522 18.46H52.0844H50.2758H50.1408H48.1786L48.0952 18.9329H48.6713L48.4499 20.0298H47.7916L47.7238 20.385C47.5696 20.1996 47.3692 20.0976 47.1315 20.1144C47.4706 20.0814 47.773 19.7748 47.8582 19.4045C47.977 18.8321 47.6212 18.4432 46.9623 18.46C46.6413 18.46 46.3539 18.5266 46.1343 18.646L46.016 19.2035C46.1511 19.0325 46.3695 18.9179 46.5717 18.9329C46.8105 18.9329 46.9623 19.1345 46.9107 19.4045C46.8615 19.6565 46.6581 19.878 46.4559 19.878C46.4373 19.878 46.3875 19.8618 46.3191 19.8282L46.2021 20.4696C46.2693 20.385 46.3875 20.334 46.5063 20.3502C46.7439 20.3502 46.8777 20.6526 46.8105 21.0583C46.7091 21.5311 46.3011 21.9188 45.9152 21.9188C45.677 21.9188 45.494 21.8167 45.3908 21.6493L45.2708 22.2398C45.4244 22.3412 45.611 22.3922 45.8126 22.3922C46.8615 22.3922 47.6566 21.8684 47.8078 21.0583C47.8582 20.8231 47.8582 20.6202 47.773 20.5026H48.3473L47.977 22.3922H48.9923L49.6848 18.9329H50.0382H50.1918H50.5471L49.8534 22.3922H50.8675L51.5612 18.9329H51.9824H52.0676H52.3052L52.0166 20.3502C51.917 20.8747 52.3208 21.2785 52.9137 21.2959C53.1675 21.2959 53.3703 21.2785 53.5222 21.2281C53.539 21.2281 53.5552 21.2113 53.5714 21.2113L53.5222 21.4789L53.3343 22.3922H53.5222H54.3508L54.8231 20.0298C54.9257 19.929 55.0439 19.8618 55.1447 19.878C55.4153 19.878 55.5846 20.2674 55.4832 20.7384C55.3649 21.3121 55.0439 21.7675 54.7727 21.7675L55.0439 22.154C55.6866 22.154 56.3286 21.5149 56.4799 20.7384C56.6329 19.9956 56.2278 19.4045 55.5996 19.4045C55.2785 19.4045 55.0265 19.4555 54.9257 19.5575L55.0439 18.9329H57.1045L57.2053 18.46H53.5222H52.1522ZM68.7882 20.9059C68.7018 21.0427 68.4666 21.1603 68.1624 21.1951C68.0604 21.2113 67.9584 21.2113 67.8563 21.2113C66.8777 21.2113 67.0625 20.4 67.1315 20.1816C67.5191 20.1816 67.8905 20.0814 68.1624 19.911C68.3292 19.7946 68.4666 19.6421 68.4996 19.4735C68.5488 19.2209 68.4816 19.0013 68.3118 18.9329H69.2431L68.7882 20.9059ZM63.5803 18.46H63.3451H63.1897H62.6838H62.3964C62.3292 18.3424 62.295 18.2248 62.3292 18.0898C62.415 17.7844 62.9047 17.5485 63.4285 17.5317C63.4789 17.5317 63.5305 17.5317 63.5803 17.5485C64.3064 17.5827 64.8141 17.953 64.8315 18.46H63.5803ZM68.1624 18.46H66.3184H65.7621C65.6607 17.6841 64.7973 17.1609 63.5803 17.1273H63.4789C62.4486 17.1273 61.4999 17.5485 61.3661 18.0556C61.3163 18.2248 61.3487 18.3592 61.4495 18.46H61.4315H61.3163H60.5872H58.4912L58.406 18.9329H59.794L59.6926 19.4045H59.4051C59.0163 19.4045 58.6101 19.7597 58.5248 20.1816C58.457 20.586 58.6773 20.9059 59.0331 20.8903C59.4051 20.8903 59.6578 21.0751 59.6073 21.2959C59.5407 21.6331 59.2005 21.9188 58.8315 21.9188C58.508 21.9188 58.2548 21.8516 58.0862 21.7171L57.968 22.307C58.1036 22.307 58.2884 22.4756 58.5596 22.7786C58.8315 23.1009 59.2863 23.2527 59.8612 23.2527C60.0808 23.2527 60.25 23.2185 60.3856 23.1333L60.5038 22.628C60.301 22.7288 60.1318 22.7786 59.9632 22.7786C59.6926 22.7786 59.5053 22.7288 59.4051 22.628C59.2701 22.4756 59.1681 22.4102 59.1003 22.3922C59.776 22.3922 60.4012 21.953 60.5872 21.3973C60.6052 21.3619 60.6052 21.3277 60.6227 21.2959C60.6401 21.1603 60.6226 21.0427 60.5872 20.9407C60.487 20.7222 60.2662 20.5698 59.9632 20.586H59.7436C59.5905 20.586 59.4711 20.4852 59.5053 20.3502C59.5557 20.1306 59.7094 19.9452 59.8792 19.9452H60.5872L60.7925 18.9329H61.2317H61.3313H61.7376L61.0451 22.3922H62.0418L62.7343 18.9329H63.1075H63.2431H63.5803H64.8483L64.763 19.4045H64.1036C63.917 19.4045 63.7322 19.4735 63.5803 19.5743C63.3775 19.7249 63.2095 19.9452 63.1585 20.1816C63.1075 20.4852 63.2773 20.7546 63.5803 20.8573C63.6649 20.8903 63.767 20.9059 63.8852 20.8903H64.391C64.5944 20.8903 64.7126 21.1099 64.6622 21.3619C64.5944 21.6823 64.1372 21.9704 63.6991 21.9704H63.5803C63.1585 21.953 62.9047 21.8516 62.7685 21.7675L62.6658 22.307C62.8525 22.4102 63.1897 22.4606 63.5803 22.4606C64.4252 22.4432 65.5077 22.154 65.6607 21.3619C65.7771 20.8573 65.5077 20.4354 65.0691 20.4186H64.4084C64.2554 20.4186 64.1372 20.3166 64.172 20.1816C64.1894 20.0466 64.3412 19.9452 64.5104 19.9452H65.6607L65.8624 18.9329H66.4018H67.1465C67.3499 18.9329 67.4867 19.1693 67.4003 19.4735C67.2833 19.98 66.6736 19.98 66.337 19.896C66.2008 20.0976 66.0994 20.385 66.0652 20.586C65.8276 21.5977 67.1981 21.953 68.1624 21.7171C68.3466 21.6823 68.4996 21.6151 68.6514 21.5311L68.4486 22.3922H69.5305L70.325 18.9329H70.4444H70.9508L70.2572 22.3922H71.2725L71.9649 18.9329H72.472L72.5578 18.46H70.9856H68.1624ZM60.5872 17.9194C60.8237 17.887 61.0265 17.7172 61.0607 17.5173C61.1123 17.2785 60.9431 17.0931 60.6719 17.0931H60.5872C60.3508 17.1273 60.1498 17.2965 60.1138 17.5173C60.064 17.7358 60.2338 17.9194 60.5038 17.9194H60.5872ZM50.9509 18.106C51.68 18.106 52.3887 17.8018 52.8117 17.3133L52.1522 16.9917C51.866 17.4471 51.4244 17.7358 51.0523 17.7358C50.6995 17.7358 50.4451 17.4471 50.3947 16.9917L49.515 17.3133C49.668 17.8018 50.2236 18.106 50.9509 18.106ZM68.8716 9.46756C68.9389 9.43335 69.0223 9.41595 69.0925 9.43335C69.6985 9.43335 70.0214 10.259 69.8191 11.2713C69.6661 11.998 69.2947 12.6227 68.8716 12.9245C68.7018 13.0433 68.517 13.1123 68.3466 13.1123C68.0436 13.1123 67.8239 12.9587 67.8726 12.7583L68.4312 9.98901C68.4816 9.75378 68.6514 9.55157 68.8716 9.46756ZM65.8462 10.1576L65.4057 12.385C65.3385 12.6551 65.1357 12.9095 64.8825 13.0277C64.763 13.0955 64.646 13.1123 64.526 13.1123C64.019 13.1123 63.7669 12.2836 63.986 11.2713C64.1372 10.5123 64.4936 9.85579 64.8825 9.56837C65.0181 9.48316 65.1513 9.43335 65.2695 9.43335C65.6775 9.43335 65.9302 9.75378 65.8462 10.1576ZM57.1885 11.4561L55.5846 10.0394L55.1789 9.70218C55.3133 9.61757 55.4483 9.55156 55.5846 9.50056C55.7202 9.44955 55.8552 9.41595 55.9734 9.43335C56.7175 9.43335 57.2743 9.70218 57.4621 10.1576L57.1885 11.4561ZM55.5846 13.2797C55.4483 13.2953 55.3133 13.2953 55.1789 13.2953C54.4685 13.2953 54.0796 12.4024 54.3166 11.2713C54.4006 10.8831 54.4853 10.6311 54.5699 10.5291L55.5846 11.3727L56.9035 12.4696C56.6659 12.8921 56.1594 13.1789 55.5846 13.2797ZM68.8716 6.10903H64.8825H62.7343H62.109H61.8396H61.7376L61.3487 3.52698C61.1633 2.31127 60.3178 1.48439 59.2191 1.48439C58.5596 1.48439 57.968 1.6194 57.5113 1.85582L58.0202 2.86812C58.2884 2.6815 58.5771 2.58189 58.8129 2.59749C59.3193 2.59749 59.5905 3.74601 59.7094 5.36496C59.0829 4.09884 58.2884 3.33977 57.5636 3.33977C57.2401 3.33977 56.7847 3.45978 56.2278 3.713L56.5651 4.7241C56.8183 4.53868 57.0709 4.41987 57.2575 4.43907C57.6284 4.43907 58.1036 5.07933 58.457 6.10903H55.5846H52.22L51.9986 7.20534H55.5846H58.0526L57.581 9.61757L57.3421 8.50386C56.9203 8.36945 56.4798 8.30344 56.0082 8.31965C55.8708 8.31965 55.7202 8.33765 55.5846 8.33765C53.743 8.52186 52.0844 9.80299 51.746 11.3727C51.4082 13.0433 52.7787 14.4102 54.7727 14.4102C55.0769 14.4102 55.3307 14.3928 55.5846 14.3766C56.0418 14.3436 56.4126 14.259 56.6497 14.1414L56.4126 15.3391H58.9641L60.6052 7.20534H61.6019H61.8726H62.7343H64.8825H66.4534L66.0652 9.14653L65.6775 8.31965H64.8825H64.6784C63.986 8.31965 63.3085 8.62388 62.7343 9.09492C62.109 9.63497 61.6199 10.4126 61.4315 11.2713C61.1633 12.6227 61.7376 13.7706 62.7343 14.1246C62.9383 14.1918 63.1585 14.2242 63.3955 14.2242C64.019 14.2242 64.526 14.1564 64.8825 14.0388C64.9671 14.0052 65.0181 13.9896 65.0847 13.9554L64.8825 14.9335L64.7973 15.3391H64.8825H67.3499L67.7543 13.2953L67.9422 14.2242H68.8554H68.8716C70.427 14.2092 71.9649 12.8921 72.2692 11.2713C72.6094 9.65178 71.6097 8.33765 70.0544 8.31965C69.5641 8.31965 69.1585 8.38745 68.8716 8.52187C68.8218 8.53807 68.7714 8.57227 68.7204 8.59027L68.8716 7.8462L69.0067 7.20534H73.7405L73.9607 6.10903H68.8716ZM62.6004 3.713C62.634 3.713 62.6838 3.695 62.7343 3.695C63.1897 3.644 63.5977 3.33977 63.6481 2.97013C63.7322 2.56569 63.3955 2.22726 62.8873 2.22726C62.8369 2.22726 62.7853 2.22726 62.7343 2.24466C62.295 2.29567 61.8894 2.5975 61.8396 2.97013C61.7544 3.37397 62.076 3.713 62.6004 3.713ZM40.6407 11.9134C40.4871 12.5537 40.1835 13.0955 39.8798 13.3475C39.7622 13.4315 39.644 13.4819 39.542 13.4819C39.0848 13.4819 38.8807 12.7907 39.0848 11.9134C39.2534 11.2377 39.5576 10.6311 39.8798 10.31C40.0323 10.1576 40.1991 10.0736 40.3527 10.0736C40.7409 10.0736 40.8765 10.8999 40.6407 11.9134ZM32.8814 11.8288C32.6774 12.1822 32.0857 12.4354 31.3416 12.5213C31.1562 12.5537 30.9372 12.5699 30.7164 12.5699C28.4175 12.5699 28.9246 10.6149 28.9246 10.1576C29.8721 10.1576 30.7494 9.905 31.3416 9.50056C31.7491 9.21493 32.0179 8.8765 32.0857 8.50386C32.2219 7.89661 32.0179 7.37395 31.6297 7.20534H33.8109L32.8814 11.8288ZM18.9846 11.9638C18.8334 12.5879 18.5286 13.1453 18.2244 13.3817C18.1061 13.4819 17.9885 13.5329 17.8853 13.5329C17.4299 13.5329 17.2277 12.8423 17.4299 11.9638C17.5979 11.2887 17.9027 10.6809 18.2244 10.3598C18.3762 10.2092 18.5454 10.1246 18.681 10.1246C19.0854 10.1246 19.2211 10.9497 18.9846 11.9638ZM18.2244 6.10903H16.2124H15.8415H14.894C14.6048 5.7376 14.5052 5.29716 14.5898 4.84411C14.8094 3.89782 16.33 3.13875 17.9711 3.10394C18.0551 3.10394 18.1379 3.12194 18.2244 3.12194C20.6918 3.18855 22.4158 4.40487 22.4668 6.10903H18.2244ZM6.40742 11.8288C6.2034 12.1822 5.61234 12.4354 4.85387 12.5369C4.66545 12.5537 4.46323 12.5699 4.24421 12.5699C1.96099 12.5699 2.34923 10.6647 2.46684 10.1576C3.38133 10.1576 4.25981 9.905 4.85387 9.51736C5.27451 9.22993 5.54513 8.8765 5.61234 8.50386C5.74735 7.89661 5.56073 7.37395 5.15629 7.20534H7.33871L6.40742 11.8288ZM45.7958 15.3391L47.4364 7.20534H48.7223L48.9401 6.10903H39.8798H37.8504H37.4946H31.3416H27.3014H26.9306H25.3584C25.0362 3.57679 22.2141 1.87323 18.2244 1.83962H18.0887C14.8604 1.83962 11.9526 3.15435 11.5457 4.7589C11.4107 5.31516 11.5967 5.83841 11.985 6.10903H11.3939H11.1059H4.85387H0.455441L0.237021 7.20534H2.41583C2.92588 7.20534 3.23011 7.77839 3.0771 8.50386C2.84067 9.67038 1.40354 9.65177 0.591657 9.46756C0.322231 9.9554 0.10141 10.6149 0 11.0853V11.1027V11.98C0.371436 13.6356 2.94208 14.2092 4.85387 13.785C5.32551 13.6854 5.74735 13.5155 6.10259 13.2953L5.71435 15.2707C5.41192 15.3727 5.12329 15.5239 4.85387 15.7424C4.71825 15.8456 4.59824 15.9626 4.47883 16.097C3.46653 17.3133 3.85477 18.6634 4.85387 19.3037C4.91867 19.3541 5.00508 19.3871 5.08969 19.4387C6.67804 20.2326 9.18149 19.878 9.89195 18.3244C9.46651 17.8018 8.92646 17.4639 8.45301 17.1609C8.40201 18.0898 7.76115 18.3592 7.2523 18.3592C5.88357 18.2752 6.2034 16.6893 7.3213 16.4522C8.82445 16.148 10.9877 18.3088 11.7827 19.1519C12.9661 19.2035 14.2838 19.1519 15.4527 19.2035C13.5247 17.7514 10.9205 15.8456 8.2658 15.2377L9.89195 7.20534H10.888H11.1569H12.1542L10.516 15.3391H13.0663L14.7074 7.20534H15.6213H15.9933H18.2244H23.2444L22.9402 8.74089H19.5595C19.1022 8.74089 18.6624 8.80989 18.2244 8.94371C16.753 9.38055 15.5037 10.5291 15.1809 11.8804C14.792 13.4993 15.7899 14.8147 17.3969 14.8327C17.6663 14.8327 17.9543 14.7817 18.2244 14.7139C19.5763 14.3766 20.7764 13.2299 21.0992 11.8804C21.2486 11.2209 21.1148 10.5639 20.708 10.0226H22.6702L21.6051 15.3391H24.1583L25.7977 7.20534H26.7104H27.065H28.8916C29.3974 7.20534 29.7017 7.77839 29.5324 8.50386C29.4148 9.11232 28.6546 9.61757 27.8607 9.61757H27.0476C26.7602 10.1084 26.5574 10.6149 26.4728 11.0853C26.0017 13.3643 29.1274 14.1564 31.3416 13.7358C31.8169 13.6356 32.2381 13.4993 32.5771 13.2953L32.1541 15.3391H34.7067L36.3617 7.20534H37.2582H37.6308H39.8798H44.9005L44.5957 8.68928H41.2168C40.7565 8.68928 40.3185 8.75589 39.8798 8.8921C38.4085 9.34754 37.1742 10.4787 36.8352 11.8288C36.4475 13.4489 37.4628 14.7643 39.0518 14.7817C39.338 14.7817 39.6098 14.7475 39.8798 14.6629C41.233 14.3244 42.4325 13.1789 42.7529 11.8288C42.9059 11.1873 42.7691 10.5123 42.3641 9.97281H44.3431L43.2438 15.3391H45.7958Z" fill="#ED1D24"/>
</svg>
