<svg width="265" height="56" viewBox="0 0 265 56" fill="none" xmlns="http://www.w3.org/2000/svg">
<g clip-path="url(#clip0_4_1122)">
<path d="M44.2391 0H47.17C47.4205 0.0446745 47.6737 0.0730961 47.9279 0.0850841C51.2982 0.376134 54.5506 1.46996 57.4149 3.27566C59.5022 4.60048 61.2561 6.39123 62.54 8.50821C62.8846 9.07634 63.1995 9.66207 63.4834 10.263C64.3389 12.1237 64.8764 14.1154 65.0734 16.155C65.1317 16.4793 65.1052 16.8144 65.1635 17.144C65.2218 17.4737 65.1635 17.9417 65.1635 18.3458C65.1838 18.8071 65.1696 19.2693 65.1211 19.7284C65.0577 20.9111 64.9089 22.0876 64.6759 23.2487C64.554 23.94 64.342 24.6153 64.2042 25.3066L60.0225 42.0731C59.7946 43.1101 59.519 44.1364 59.2699 45.1627C59.1391 45.8387 58.8954 46.4877 58.5491 47.0823C58.2612 47.5319 57.9033 47.9323 57.4891 48.2682C56.5021 49.0248 55.2915 49.429 54.0494 49.4168C53.5255 49.3853 53.0074 49.2888 52.5071 49.1296C51.9735 48.9522 51.4888 48.6517 51.092 48.2522C50.553 47.7519 50.2329 47.058 50.2016 46.3219C50.1749 45.8681 50.2343 45.4134 50.3765 44.9819C51.0408 42.3266 51.7015 39.6766 52.3587 37.032C52.6449 35.9153 52.8887 34.7826 53.1802 33.6659C54.1448 29.8053 55.1076 25.9465 56.0687 22.0895C56.2987 21.1432 56.4476 20.179 56.5139 19.2073C56.536 18.4589 56.5183 17.7098 56.4609 16.9632C56.3675 16.0298 56.1408 15.1147 55.7878 14.2459C55.4604 13.4109 54.9885 12.6404 54.3939 11.97C54.196 11.7484 53.9816 11.5422 53.7526 11.3532C53.6597 11.2544 53.5586 11.1636 53.4505 11.0819C52.8375 10.5931 52.1619 10.1889 51.4418 9.88016C50.8055 9.57609 50.1394 9.33908 49.4543 9.17292C48.5122 8.89619 47.5409 8.73198 46.5605 8.68369C46.1223 8.6358 45.6813 8.61981 45.2408 8.63583C44.891 8.63583 44.5518 8.71028 44.1808 8.69964C42.5579 8.85011 40.9625 9.21856 39.4373 9.79509C38.4373 10.1625 37.4679 10.6088 36.5382 11.1298C35.4033 11.7813 34.3377 12.5474 33.3582 13.4164C33.0296 13.7567 32.6904 14.0864 32.3618 14.4267C31.688 15.1641 31.1353 16.0041 30.7241 16.9154C30.3107 18.2661 29.9609 19.638 29.5846 20.994C29.1235 22.7595 28.6465 24.5143 28.2066 26.2798C27.6766 28.2792 27.1943 30.2892 26.6166 32.278C26.3622 33.1111 26.106 33.946 25.8481 34.7826C25.7558 35.2458 25.6117 35.6971 25.4188 36.128C25.0611 36.8736 24.5311 37.5227 23.8729 38.0212C23.2147 38.5198 22.4473 38.8533 21.6346 38.9942C20.5235 39.2329 19.3636 39.043 18.3857 38.4624C18.0899 38.2701 17.8268 38.0313 17.6066 37.7552C17.1906 37.2502 16.9292 36.6352 16.854 35.9844C16.7824 35.6838 16.7824 35.3704 16.854 35.0698C18.1684 30.7519 19.2125 26.3542 20.3573 21.9937C20.9986 19.5317 21.6346 17.0643 22.3501 14.6235C22.5221 14.0312 22.7567 13.4589 23.0497 12.9165C23.8461 11.3034 24.8668 9.81201 26.0813 8.48694L27.4805 7.08309C28.2111 6.43003 28.9753 5.81587 29.7701 5.24318C30.1729 4.90817 30.6393 4.66357 31.0686 4.36047C32.7886 3.27808 34.6208 2.38656 36.5329 1.70164C37.0046 1.54211 37.4657 1.34536 37.948 1.22306C38.9605 0.910801 39.9905 0.658664 41.0326 0.467954C41.8382 0.29779 42.6597 0.223344 43.4759 0.111674C43.7196 0.112894 43.9629 0.0897341 44.202 0.042542L44.2391 0Z" fill="#00579C"/>
<path d="M10.07 8.39655C10.3562 8.39655 10.6371 8.3221 10.9233 8.32742C11.677 8.36419 12.4182 8.53524 13.1122 8.83259C13.5996 9.05888 14.0211 9.40674 14.3365 9.84295C14.5203 10.1148 14.643 10.4234 14.6961 10.7476C14.7492 11.0717 14.7314 11.4035 14.6439 11.7201C14.2782 13.1505 13.9443 14.5969 13.5574 16.022C13.1263 17.7556 12.6953 19.4874 12.2642 21.2174C11.9409 22.5308 11.5805 23.839 11.2678 25.1577C10.8897 26.6573 10.5152 28.1586 10.1442 29.6618C9.8262 30.8423 9.54 32.0387 9.2432 33.2299C8.87674 34.5077 8.66672 35.8255 8.6178 37.1543C8.55706 37.5062 8.55706 37.8659 8.6178 38.2178C8.63918 39.6115 8.94776 40.9857 9.5241 42.2539C9.78717 42.776 10.0977 43.2726 10.4516 43.7375C10.7221 44.0754 11.0199 44.3902 11.342 44.6788C11.7051 44.9929 12.0914 45.2791 12.4974 45.5349C12.9419 45.8098 13.404 46.0549 13.8807 46.2687C14.9429 46.6958 16.0457 47.0129 17.172 47.2153C18.2225 47.3892 19.289 47.4462 20.352 47.3854C23.0195 47.2115 25.6204 46.4739 27.984 45.2212C29.3734 44.5016 30.6663 43.6082 31.8318 42.5623C32.5079 41.9315 33.1138 41.229 33.6391 40.4672C33.9808 40.01 34.2457 39.4999 34.4235 38.957C35.8227 34.1179 37.0046 29.2204 38.2978 24.3495C38.5628 23.387 38.8861 22.4457 39.167 21.4886C39.4191 20.5936 39.8622 19.7644 40.4655 19.0584C40.8109 18.6351 41.2269 18.2752 41.6951 17.9949C42.6887 17.3804 43.8577 17.1148 45.0182 17.2398C45.5737 17.2927 46.1138 17.4535 46.6082 17.713C47.2263 17.9946 47.7362 18.4706 48.0604 19.069C48.3371 19.6508 48.3991 20.3122 48.2353 20.9355C47.3661 23.8496 46.5923 26.7849 45.8397 29.7362C44.8115 33.7032 43.8204 37.6754 42.6597 41.6105C42.5569 41.9659 42.4221 42.3112 42.2569 42.6421C41.973 43.2931 41.6418 43.9223 41.2658 44.5246C40.6221 45.5902 39.8727 46.5879 39.0292 47.5024C38.6847 47.9385 38.2554 48.3001 37.8791 48.7042C35.9367 50.5129 33.7359 52.0202 31.3495 53.1763C30.6764 53.4794 30.0086 53.8038 29.3143 54.0644C28.7154 54.325 28.0794 54.5058 27.4646 54.7291C26.5106 55.0375 25.5407 55.2608 24.5655 55.4948C24.1892 55.5693 23.8182 55.6171 23.4472 55.6969C22.8748 55.7979 22.3024 55.8405 21.73 55.9309C21.4352 55.9358 21.1411 55.9625 20.8502 56.0106H17.9087C17.8004 55.9774 17.688 55.9595 17.5748 55.9575C17.1561 55.9575 16.7427 55.8458 16.324 55.8245C15.0517 55.6599 13.7961 55.3841 12.5716 55.0003C11.2032 54.5821 9.88313 54.0188 8.6337 53.3199C7.73052 52.7944 6.87092 52.1969 6.0632 51.5332C5.79987 51.3206 5.54861 51.0933 5.3106 50.8525C4.9449 50.4697 4.5421 50.1293 4.2135 49.7146C2.03549 47.1868 0.639372 44.0767 0.196097 40.765C0.105997 40.2332 0.0901 39.7015 0 39.1697V36.1599C0.0389293 35.9582 0.0619698 35.7537 0.0689026 35.5484C0.203755 34.0665 0.464401 32.5988 0.848003 31.1613C1.4681 28.7046 2.0564 26.2319 2.703 23.7805L4.1817 17.8513C4.6428 16.1178 5.0509 14.3682 5.4961 12.6241C5.58288 12.1858 5.71064 11.7567 5.8777 11.3425C6.07763 10.8663 6.35927 10.4289 6.7098 10.0503C6.8953 9.87485 7.0702 9.68341 7.2398 9.51856C8.0556 8.87852 9.03849 8.48887 10.07 8.39655Z" fill="#DA251C"/>
<path d="M82.521 12.1827H88.5736C87.6019 16.8374 86.6285 21.4868 85.6533 26.1308C85.4038 27.05 85.2685 27.9967 85.2505 28.9492C85.2166 29.4752 85.3304 30.0003 85.5791 30.4647C85.829 30.8733 86.2162 31.1788 86.6709 31.3262C87.0849 31.4633 87.5137 31.5508 87.9482 31.5867C88.5063 31.6259 89.0671 31.5956 89.6177 31.4963C90.3104 31.3964 90.9677 31.1261 91.531 30.7093C92.2845 30.0166 92.8205 29.1185 93.0733 28.125C93.2588 27.5294 93.3648 26.9178 93.4973 26.3116C94.4866 21.6108 95.4724 16.9118 96.4547 12.2146C96.5236 12.1667 96.619 12.2146 96.7038 12.1827C98.6489 12.1827 100.599 12.1827 102.534 12.1827C102.306 13.427 102.004 14.6554 101.771 15.905C101.237 18.4362 100.707 20.9674 100.181 23.4986C99.9209 24.711 99.6877 25.9341 99.4068 27.1412C99.1145 28.422 98.6918 29.6694 98.1454 30.8635C97.6516 31.8325 97.0015 32.7129 96.2215 33.4692C94.4635 35.0831 92.2692 36.1394 89.9145 36.5055C89.507 36.5834 89.0942 36.6296 88.6796 36.6438C88.0895 36.6988 87.4965 36.7165 86.9041 36.697C86.5755 36.697 86.2575 36.6172 85.9289 36.6332C84.705 36.5265 83.5125 36.1872 82.415 35.6334C81.5257 35.1734 80.752 34.517 80.1519 33.7138C79.4262 32.6728 79.0646 31.4199 79.1237 30.151C79.1034 29.5521 79.1335 28.9526 79.2138 28.3589C79.3887 26.9444 79.7438 25.5565 80.0141 24.158C80.7667 20.6005 81.5034 17.0377 82.256 13.4855C82.3249 13.0441 82.4627 12.624 82.5104 12.1827H82.521Z" fill="#DA251C"/>
<path d="M126.67 12.1827C128.594 12.1827 130.518 12.1827 132.436 12.1827C132.113 13.7461 131.779 15.3148 131.451 16.8835H125.674C126.007 15.3148 126.331 13.7461 126.67 12.1827Z" fill="#DA251C"/>
<path d="M185.012 12.2306C185.076 12.1721 185.171 12.204 185.256 12.1933H196.879C197.132 12.1773 197.386 12.188 197.637 12.2252C198.846 12.2555 200.04 12.4966 201.167 12.9378C201.652 13.1312 202.093 13.4219 202.462 13.7923C202.831 14.1626 203.121 14.6047 203.313 15.0915C203.565 15.8386 203.639 16.6342 203.531 17.4153C203.466 18.0303 203.341 18.6376 203.16 19.2286C202.943 19.8503 202.641 20.439 202.264 20.9781C201.964 21.36 201.632 21.7158 201.273 22.0416C200.545 22.6441 199.713 23.1073 198.819 23.4082C199.482 23.5817 200.102 23.8894 200.642 24.3122C200.901 24.5307 201.134 24.7787 201.336 25.0514C201.81 25.7169 202.052 26.5205 202.025 27.338C202.042 27.8946 201.983 28.4509 201.85 28.9917C201.563 30.1495 201.057 31.2415 200.361 32.2089C199.966 32.7256 199.525 33.2045 199.042 33.6394C198.181 34.3989 197.174 34.9743 196.084 35.3304C195.226 35.6208 194.336 35.8082 193.434 35.8887C193.082 35.9284 192.728 35.9479 192.374 35.9472C191.616 36.0642 190.848 35.9472 190.084 36.0163C189.533 36.0695 188.979 36.0855 188.426 36.0642C185.622 36.0642 182.824 36.0642 180.025 36.0642C181.689 28.1126 183.357 20.1609 185.028 12.2093L185.012 12.2306ZM189.867 17.059C189.837 17.3046 189.791 17.5479 189.729 17.7875C189.47 19.0159 189.199 20.2496 188.956 21.4726C190.546 21.4726 192.136 21.4726 193.726 21.4726C194.451 21.5122 195.176 21.3868 195.846 21.1057C196.321 20.9079 196.718 20.5584 196.975 20.1113C197.218 19.7069 197.348 19.2438 197.351 18.7712C197.386 18.483 197.342 18.1907 197.224 17.9257C197.06 17.6152 196.785 17.3779 196.455 17.261C196.012 17.0932 195.539 17.019 195.066 17.043C193.333 17.043 191.6 17.043 189.867 17.043V17.059ZM187.98 26.083C187.943 26.4446 187.837 26.7902 187.768 27.1465C187.62 27.875 187.466 28.6036 187.313 29.3321C187.196 29.9702 187.026 30.5977 186.931 31.2411C188.632 31.2677 190.328 31.2411 192.03 31.2411C192.905 31.2284 193.769 31.0366 194.568 30.6774C194.919 30.4577 195.218 30.1649 195.445 29.819C195.673 29.4731 195.824 29.0822 195.888 28.6727C196.014 28.3153 196.035 27.929 195.947 27.5601C195.86 27.1912 195.668 26.8556 195.395 26.5935C194.675 26.1645 193.838 25.9782 193.005 26.0617C191.33 26.0617 189.655 26.0617 187.98 26.0617V26.083Z" fill="#DA251C"/>
<path d="M248.634 12.1827C250.526 12.1827 252.412 12.1827 254.305 12.1827L254.225 12.624C253.949 13.9003 253.695 15.1818 253.414 16.4581C252.884 19.1169 252.301 21.7225 251.771 24.3547C252.077 24.1265 252.366 23.8759 252.635 23.605C252.927 23.3816 253.165 23.0732 253.446 22.8658C253.727 22.6584 253.939 22.3659 254.225 22.1532C254.393 21.9772 254.57 21.8103 254.755 21.6534C255.02 21.446 255.227 21.1695 255.497 20.9621C255.767 20.7547 255.937 20.5207 256.186 20.3293C256.372 20.1611 256.548 19.9836 256.716 19.7975C257.05 19.5423 257.32 19.2126 257.654 18.952C257.845 18.8031 257.988 18.5957 258.184 18.4522C258.799 18.4149 259.424 18.4522 260.044 18.4522C261.687 18.4522 263.33 18.4522 264.968 18.4522V18.4947L258.242 24.5196C257.988 24.711 257.792 24.9769 257.522 25.1471C257.781 25.9128 258.11 26.6573 258.386 27.4177C259.34 29.8372 260.267 32.2621 261.221 34.6763C261.391 35.1708 261.619 35.6388 261.778 36.1386C259.658 36.1386 257.5 36.1386 255.365 36.1386C254.522 33.8095 253.669 31.475 252.821 29.1406C252.615 29.2918 252.417 29.4533 252.227 29.6245L250.637 30.9752C250.483 31.1135 250.282 31.2251 250.234 31.4325C249.906 32.9853 249.588 34.538 249.254 36.0854H243.641C243.671 35.8205 243.717 35.5577 243.779 35.2984C245.129 28.8641 246.478 22.428 247.828 15.9901C248.098 14.7298 248.358 13.4589 248.634 12.204V12.1827Z" fill="#DA251C"/>
<path d="M142.406 17.83C142.798 17.7821 143.195 17.83 143.588 17.83C145.004 17.7828 146.413 18.0554 147.711 18.6276C148.244 18.8628 148.735 19.1843 149.163 19.5795C149.368 19.7262 149.547 19.9059 149.693 20.1113C150.042 20.4893 150.327 20.9222 150.536 21.3928C150.956 22.2728 151.188 23.2308 151.22 24.2058C151.235 24.6282 151.221 25.0511 151.177 25.4714C151.132 26.065 151.047 26.6548 150.923 27.2369C150.774 27.935 150.579 28.6225 150.34 29.2948C150.185 29.7325 150.008 30.162 149.81 30.5817C149.399 31.4145 148.884 32.1918 148.278 32.8948C148.043 33.1734 147.793 33.4397 147.531 33.6925C147.36 33.8247 147.199 33.9686 147.048 34.1232C146.81 34.3147 146.561 34.4795 146.333 34.655C144.593 35.8614 142.543 36.539 140.429 36.6066C139.136 36.7129 137.834 36.5942 136.581 36.2556C135.963 36.0842 135.373 35.8265 134.827 35.4898C133.722 34.8064 132.879 33.7709 132.431 32.5492C132.062 31.4333 131.925 30.2533 132.028 29.0821C132.081 28.7577 132.06 28.4227 132.14 28.1037C132.441 25.6874 133.423 23.4073 134.97 21.5311C135.189 21.2519 135.427 20.9872 135.68 20.7387C135.871 20.6058 136.014 20.4197 136.21 20.2708C137.029 19.5897 137.948 19.0391 138.934 18.6383C140.057 18.1799 141.244 17.9 142.453 17.8087L142.406 17.83ZM142.04 22.334C141.593 22.4067 141.161 22.5541 140.763 22.7701C140.38 23.0079 140.037 23.3039 139.745 23.6475C138.958 24.653 138.427 25.8357 138.197 27.0933C138.028 27.7893 137.946 28.5039 137.954 29.2204C137.928 29.7423 138.011 30.2638 138.197 30.7518C138.293 31.0309 138.447 31.2863 138.649 31.5009C138.851 31.7155 139.097 31.8843 139.369 31.9962C139.976 32.2209 140.634 32.2698 141.267 32.1372C141.901 32.0046 142.485 31.6959 142.952 31.2464C143.201 31.0167 143.428 30.7639 143.63 30.4913C144.455 29.2322 144.96 27.7901 145.103 26.2903C145.226 25.5597 145.193 24.8114 145.008 24.0942C144.946 23.8037 144.827 23.5286 144.657 23.2848C144.488 23.0411 144.272 22.8336 144.022 22.6744C143.416 22.3488 142.72 22.2293 142.04 22.334Z" fill="#DA251C"/>
<path d="M114.003 18.165C114.921 17.9751 115.864 17.9303 116.796 18.0321C117.698 18.0771 118.569 18.3817 119.303 18.9095C119.673 19.2158 119.972 19.5987 120.181 20.0319C120.389 20.4651 120.502 20.9384 120.511 21.4194C120.546 21.999 120.535 22.5803 120.48 23.1583C120.368 24.1899 120.109 25.1949 119.913 26.2159C119.414 28.5344 118.943 30.8635 118.444 33.1873C118.259 34.1232 118.047 35.0538 117.867 35.9897C117.867 36.0854 117.724 36.0588 117.66 36.0642H112.047C112.54 33.7616 113.012 31.4485 113.5 29.1512C113.717 28.0877 113.971 26.9976 114.157 25.9075C114.3 25.174 114.357 24.4262 114.326 23.6794C114.32 23.5032 114.275 23.3304 114.197 23.1727C114.118 23.015 114.007 22.8759 113.871 22.7648C113.654 22.6046 113.401 22.5021 113.134 22.467C112.453 22.34 111.749 22.4139 111.109 22.6797C110.723 22.8607 110.379 23.1195 110.097 23.4401C109.409 24.3843 108.952 25.477 108.761 26.6307C108.231 29.231 107.701 31.826 107.134 34.421C107.007 34.9528 106.917 35.5218 106.774 36.0695H101.05C101.069 35.8375 101.11 35.6078 101.172 35.3835C102.295 30.0233 103.419 24.6614 104.543 19.2977C104.601 19.0158 104.643 18.7234 104.728 18.4468H110.383C110.229 19.1966 110.055 19.9411 109.922 20.6909C110.293 20.3931 110.579 19.9996 110.982 19.7124C111.851 18.9522 112.894 18.4205 114.019 18.165H114.003Z" fill="#DA251C"/>
<path d="M163.07 18.5691C164.272 18.0869 165.57 17.892 166.86 18.0002C167.43 18.0439 167.994 18.1528 168.54 18.3245C169.163 18.5143 169.716 18.8843 170.13 19.388C170.629 20.1359 170.886 21.0196 170.867 21.9192C170.893 22.2862 170.798 22.6424 170.808 23.0094C170.681 24.1846 170.384 25.3332 170.162 26.4871C169.558 29.3515 168.957 32.2142 168.36 35.0751C168.307 35.3994 168.201 35.7132 168.169 36.0429H162.418C162.452 35.6967 162.513 35.3536 162.599 35.0166L164.189 27.4283C164.337 26.6998 164.48 25.9713 164.576 25.2374C164.626 24.9369 164.653 24.6329 164.655 24.3281C164.674 24.0289 164.674 23.7287 164.655 23.4295C164.592 23.1493 164.437 22.8985 164.215 22.7169C163.948 22.5424 163.642 22.4365 163.325 22.4085C162.941 22.3453 162.548 22.3597 162.169 22.451C161.795 22.5111 161.435 22.6429 161.109 22.8392C160.867 22.9912 160.649 23.1795 160.463 23.3976C160.137 23.7631 159.877 24.1822 159.694 24.6366C159.265 25.8466 158.942 27.0922 158.73 28.3589C158.274 30.5604 157.802 32.7566 157.352 34.9634C157.264 35.314 157.195 35.669 157.145 36.0269C155.221 36.0269 153.297 36.0269 151.368 36.0269C152.587 30.1509 153.832 24.2803 155.078 18.4043C156.965 18.4043 158.846 18.4043 160.733 18.4043C160.595 19.17 160.394 19.9304 160.272 20.7015C161.039 19.795 161.994 19.0674 163.07 18.5691Z" fill="#DA251C"/>
<path d="M211.825 18.383C212.764 18.1659 213.72 18.0307 214.682 17.9789H216.113C216.34 18.0179 216.571 18.0357 216.802 18.0321C217.501 18.0971 218.193 18.2271 218.869 18.4203C219.493 18.6186 220.077 18.9284 220.591 19.3349C221.016 19.6948 221.347 20.1528 221.556 20.6696C221.816 21.4018 221.907 22.1837 221.821 22.9562C221.675 24.2081 221.459 25.4508 221.174 26.6785C220.867 28.1675 220.554 29.6511 220.242 31.14C220.083 31.943 219.881 32.7353 219.78 33.5489C219.78 33.852 219.78 34.1604 219.78 34.4689C219.771 34.6419 219.809 34.8143 219.889 34.9678C219.969 35.1213 220.089 35.2502 220.236 35.341C220.173 35.5696 220.157 35.8089 220.088 36.0376C220.019 36.0907 219.918 36.0376 219.844 36.0695H214.173C214.156 35.7411 214.169 35.4119 214.21 35.0857C214.231 34.8203 214.231 34.5535 214.21 34.2881C213.274 35.0767 212.211 35.7006 211.067 36.1333C210.185 36.4501 209.253 36.6033 208.316 36.5853C207.348 36.6551 206.378 36.4584 205.513 36.0163C205.288 35.9107 205.08 35.7708 204.898 35.6015C204.588 35.3337 204.324 35.0156 204.119 34.6603C203.847 34.1855 203.69 33.654 203.658 33.1076C203.625 32.7387 203.638 32.3673 203.695 32.0015C203.837 30.7654 204.299 29.5883 205.036 28.5876C205.258 28.3141 205.499 28.0565 205.757 27.8165C206.072 27.5035 206.429 27.2352 206.817 27.0189C207.782 26.4428 208.843 26.0464 209.949 25.849C210.813 25.6682 211.687 25.5086 212.556 25.3704C213.69 25.257 214.795 24.9456 215.821 24.4504C216.052 24.3126 216.22 24.0891 216.288 23.8283C216.325 23.5837 216.404 23.3444 216.42 23.0944C216.394 22.8136 216.266 22.5522 216.06 22.3606C215.894 22.2199 215.698 22.1198 215.487 22.0681C214.912 21.9195 214.312 21.8977 213.728 22.0043C213.008 22.079 212.335 22.3979 211.82 22.9083C211.574 23.2094 211.365 23.5398 211.2 23.8921H205.857C206.244 22.7827 206.836 21.7562 207.601 20.8664C207.974 20.4547 208.385 20.0807 208.831 19.7497C209.734 19.1092 210.75 18.6472 211.825 18.3883V18.383ZM213.299 28.4918C212.302 28.7311 211.232 28.8215 210.357 29.3958C210.079 29.572 209.848 29.8129 209.682 30.098C209.517 30.3832 209.423 30.7042 209.408 31.0337C209.369 31.2387 209.372 31.4495 209.416 31.6534C209.461 31.8573 209.547 32.0499 209.668 32.2195C209.93 32.549 210.311 32.7612 210.728 32.8098C211.52 32.8742 212.314 32.7236 213.028 32.3737C213.53 32.1177 213.969 31.7547 214.316 31.3102C214.669 30.8636 214.909 30.3382 215.016 29.7787C215.154 29.13 215.297 28.4812 215.424 27.8271C214.744 28.1283 214.033 28.353 213.304 28.4972L213.299 28.4918Z" fill="#DA251C"/>
<path d="M235.85 18.1969C237.287 17.8593 238.788 17.907 240.201 18.3352C240.697 18.4938 241.148 18.7691 241.516 19.1382C242.007 19.6213 242.323 20.2562 242.411 20.9408C242.563 22.1553 242.497 23.3872 242.215 24.5781C241.404 28.4068 240.625 32.2355 239.804 36.0642C237.88 36.0642 235.951 36.0642 234.027 36.0642C234.271 34.7135 234.589 33.3681 234.854 32.0175C235.119 30.6668 235.431 29.2682 235.728 27.8963C236.002 26.7206 236.19 25.5262 236.29 24.3228C236.338 24.1057 236.338 23.8807 236.29 23.6635C236.285 23.3726 236.176 23.0933 235.982 22.8764C235.765 22.6602 235.485 22.5187 235.182 22.4723C234.517 22.3337 233.827 22.3928 233.195 22.6425C232.615 22.8764 232.124 23.2876 231.79 23.8177C231.253 24.7384 230.894 25.7522 230.73 26.8062C230.089 29.8957 229.426 32.9799 228.796 36.0695H222.987C224.103 30.727 225.223 25.3828 226.347 20.0368C226.442 19.5051 226.596 18.9733 226.66 18.4415H232.32C232.271 18.8157 232.2 19.1868 232.108 19.5529C232.039 19.9517 231.933 20.3453 231.859 20.7441C232.092 20.5686 232.214 20.2921 232.447 20.1219C232.6 20.0089 232.741 19.8825 232.871 19.7444C233.721 18.9884 234.744 18.4566 235.85 18.1969Z" fill="#DA251C"/>
<path d="M125.334 18.4415H131.117C129.961 23.8815 128.838 29.3214 127.688 34.7613C127.619 35.1974 127.476 35.6228 127.433 36.0642H121.656C122.679 31.1241 123.729 26.1893 124.757 21.2546C124.948 20.3187 125.165 19.3881 125.334 18.4415Z" fill="#DA251C"/>
<path d="M218.455 41.6849C218.647 41.6424 218.846 41.6424 219.038 41.6849C219.325 41.6849 219.611 41.7328 219.897 41.77C219.833 42.3337 219.68 42.8814 219.574 43.4397C219.221 43.4124 218.867 43.4124 218.514 43.4397C218.409 43.4484 218.308 43.4794 218.216 43.5308C218.125 43.5822 218.046 43.6527 217.984 43.7375C217.786 44.1908 217.649 44.6682 217.576 45.1573C218.106 45.1573 218.636 45.1573 219.166 45.1573C219.07 45.6519 218.964 46.1411 218.864 46.6356C218.334 46.6356 217.804 46.6356 217.274 46.6356C216.956 48.0023 216.701 49.3849 216.399 50.7568C216.155 51.9426 215.901 53.1338 215.652 54.3196C214.995 54.3196 214.337 54.3196 213.675 54.3196C214.157 52.0756 214.613 49.8315 215.09 47.5928C215.132 47.2684 215.249 46.9547 215.27 46.6303C214.809 46.6037 214.353 46.6303 213.892 46.6303C213.982 46.1358 214.131 45.6466 214.189 45.1467C214.661 45.1467 215.127 45.1467 215.599 45.1467C215.717 44.4521 215.894 43.7689 216.129 43.1047C216.317 42.7379 216.583 42.4167 216.908 42.1635C217.348 41.8689 217.863 41.7065 218.392 41.6956L218.455 41.6849Z" fill="#DA251C"/>
<path d="M226.029 41.8179H228.149C228.101 42.3496 227.937 42.8814 227.847 43.4132C227.084 47.0504 226.31 50.693 225.557 54.3356H223.437C223.456 54.0739 223.504 53.8153 223.58 53.5645C224.386 49.6401 225.25 45.7317 226.029 41.8179Z" fill="#DA251C"/>
<path d="M246.869 41.8179H248.809C247.976 45.838 247.123 49.8528 246.28 53.8729C246.227 54.0165 246.28 54.2079 246.148 54.3196C245.528 54.3196 244.902 54.3196 244.282 54.3196C244.378 53.958 244.441 53.5911 244.51 53.2295C244.102 53.5979 243.654 53.9189 243.175 54.1867C242.618 54.4887 241.989 54.6339 241.357 54.6068C240.942 54.6202 240.529 54.5435 240.147 54.382C239.765 54.2204 239.422 53.9779 239.141 53.6709C238.913 53.3693 238.722 53.0407 238.574 52.6924C238.445 52.2703 238.363 51.8351 238.33 51.3949C238.333 51.0696 238.354 50.7447 238.394 50.4218C238.534 49.3319 238.895 48.2823 239.454 47.3375C239.659 46.9986 239.903 46.6845 240.18 46.4017C240.323 46.2214 240.489 46.0605 240.673 45.9231C241.171 45.4678 241.772 45.1415 242.424 44.9729C243.076 44.8042 243.76 44.7981 244.415 44.9553C244.854 45.071 245.253 45.3045 245.57 45.6306C245.724 45.8008 245.851 45.9975 245.994 46.1624C246.259 44.7691 246.572 43.3865 246.853 42.004L246.885 41.7913L246.869 41.8179ZM243 46.6303C242.36 46.7837 241.797 47.1608 241.41 47.6938C241.105 48.1094 240.873 48.5731 240.721 49.0658C240.496 49.7241 240.39 50.4174 240.408 51.1131C240.44 51.6217 240.648 52.1031 240.996 52.4744C241.29 52.6952 241.642 52.823 242.009 52.8413C242.316 52.86 242.624 52.8385 242.925 52.7775C243.463 52.64 243.945 52.3413 244.309 51.9214C245.012 50.9492 245.407 49.7876 245.443 48.5872C245.459 48.1224 245.341 47.6628 245.104 47.2631C244.945 47.0499 244.736 46.8799 244.496 46.7684C244.255 46.657 243.99 46.6077 243.726 46.625C243.478 46.6186 243.23 46.6293 242.984 46.6569L243 46.6303Z" fill="#DA251C"/>
<path d="M251.045 41.8179H253.043C252.927 42.4879 252.794 43.1579 252.63 43.8173C251.967 43.8173 251.31 43.8173 250.648 43.8173C250.769 43.1473 250.95 42.4879 251.045 41.8126V41.8179Z" fill="#DA251C"/>
<path d="M208.067 44.6681C208.82 44.5924 209.581 44.6482 210.315 44.833C210.87 44.9896 211.382 45.2753 211.807 45.667C212.233 46.0587 212.56 46.5454 212.763 47.0876C213.105 48.2451 213.105 49.4771 212.763 50.6345C212.561 51.3715 212.217 52.0616 211.751 52.6658C211.497 52.9997 211.203 53.3015 210.876 53.5645C209.827 54.4029 208.506 54.8233 207.166 54.745C206.53 54.7392 205.901 54.6129 205.311 54.3728C205.056 54.2886 204.821 54.1549 204.617 53.9793C204.161 53.6463 203.791 53.2094 203.537 52.7046C203.282 52.1998 203.151 51.6415 203.154 51.0759C203.101 50.8485 203.101 50.6119 203.154 50.3846C203.147 49.1771 203.506 47.9959 204.182 46.9972C204.844 45.996 205.823 45.2469 206.96 44.8702C207.314 44.762 207.678 44.6855 208.046 44.6415L208.067 44.6681ZM208.216 46.0773C207.803 46.1179 207.403 46.2408 207.039 46.4389C206.701 46.6209 206.404 46.8728 206.17 47.178C205.685 47.8064 205.34 48.5317 205.158 49.3051C205.033 49.7732 204.974 50.2564 204.983 50.7409C204.954 51.0911 204.997 51.4435 205.109 51.7763C205.221 52.1092 205.4 52.4156 205.635 52.6765C205.837 52.8503 206.069 52.9871 206.318 53.0806C206.938 53.2992 207.609 53.3279 208.245 53.1631C208.881 52.9984 209.454 52.6476 209.891 52.1553C210.22 51.7747 210.486 51.3439 210.68 50.8791C210.923 50.2454 211.07 49.5785 211.115 48.9009C211.185 48.2641 211.073 47.6204 210.792 47.0451C210.612 46.7717 210.372 46.543 210.091 46.3763C209.81 46.2095 209.495 46.1091 209.17 46.0826C208.861 46.031 208.545 46.0328 208.237 46.0879L208.216 46.0773Z" fill="#DA251C"/>
<path d="M257.58 44.8808C258.412 44.7914 259.253 44.8691 260.055 45.1095C260.501 45.2389 260.886 45.5236 261.142 45.9124C261.305 46.16 261.392 46.4505 261.391 46.7473C261.363 47.5045 261.248 48.2558 261.046 48.986C260.829 50.0123 260.617 51.044 260.394 52.0703C260.339 52.3207 260.339 52.5803 260.394 52.8307C260.652 52.8939 260.919 52.9172 261.184 52.8998C261.073 53.389 260.977 53.8729 260.871 54.3622C260.264 54.5297 259.623 54.5297 259.016 54.3622C258.773 54.2915 258.566 54.1297 258.439 53.9102C258.324 53.6762 258.282 53.4133 258.317 53.155C257.87 53.6284 257.328 54.0012 256.727 54.2487C256.125 54.4962 255.479 54.6128 254.829 54.5908C254.505 54.5989 254.182 54.5419 253.88 54.4232C253.578 54.3045 253.302 54.1264 253.07 53.8995C252.842 53.6559 252.687 53.3542 252.619 53.0274C252.545 52.4492 252.613 51.8616 252.815 51.3151C253.003 50.713 253.373 50.1849 253.875 49.8049C254.37 49.4695 254.921 49.2263 255.502 49.0871C256.063 48.9461 256.634 48.8448 257.209 48.7839C257.856 48.7484 258.486 48.5666 259.053 48.2522C259.2 48.1392 259.311 47.9865 259.374 47.8123C259.437 47.638 259.449 47.4493 259.408 47.2684C259.385 47.1177 259.317 46.9772 259.215 46.8647C259.112 46.7521 258.978 46.6725 258.831 46.6356C258.36 46.5177 257.872 46.4817 257.389 46.5293C256.931 46.5743 256.498 46.76 256.149 47.061C255.916 47.3296 255.765 47.6602 255.714 48.0129C255.089 48.0129 254.464 48.0129 253.833 48.0129C253.87 47.7327 253.944 47.459 254.055 47.1993C254.183 46.8571 254.377 46.5442 254.628 46.2793C255.394 45.4464 256.452 44.9449 257.58 44.8808ZM257.765 50.1187C257.026 50.2163 256.295 50.3655 255.577 50.5654C255.393 50.6319 255.226 50.7357 255.085 50.8702C254.943 51.0047 254.831 51.167 254.755 51.3471C254.652 51.5362 254.598 51.7483 254.598 51.9639C254.598 52.1795 254.652 52.3916 254.755 52.5807C254.884 52.7573 255.072 52.8818 255.285 52.9317C255.888 53.0601 256.516 53.0045 257.087 52.7722C257.436 52.6372 257.755 52.4329 258.023 52.1716C258.292 51.9103 258.505 51.5973 258.651 51.2513C258.791 50.7727 258.902 50.2862 258.984 49.7943C258.585 49.9279 258.178 50.0362 257.765 50.1187Z" fill="#DA251C"/>
<path d="M232.829 45.3701C233.463 45.0363 234.175 44.8801 234.891 44.9181C235.476 44.9225 236.05 45.0762 236.56 45.3647C236.788 45.538 236.97 45.7643 237.09 46.0241C237.183 46.2642 237.241 46.5169 237.26 46.7739C237.275 47.1095 237.261 47.4458 237.217 47.7789C237.122 48.4596 236.952 49.119 236.82 49.789C236.513 51.2779 236.189 52.7616 235.892 54.2505C235.892 54.3515 235.749 54.3196 235.686 54.3303C235.087 54.3303 234.493 54.3303 233.9 54.3303C234.011 53.623 234.191 52.9317 234.318 52.2032C234.456 51.5864 234.573 50.9642 234.716 50.3527C234.864 49.5338 235.076 48.7308 235.198 47.9119C235.244 47.6607 235.201 47.4012 235.076 47.1786C234.951 46.9561 234.752 46.7846 234.514 46.6941C233.922 46.5409 233.296 46.5819 232.728 46.8111C232.19 47.0372 231.741 47.4354 231.451 47.9438C231.179 48.501 231 49.0992 230.921 49.7146C230.587 51.2407 230.285 52.7775 229.946 54.3037C229.283 54.3037 228.621 54.3037 227.964 54.3037C228.494 51.7618 229.024 49.2147 229.554 46.6729C229.66 46.1411 229.766 45.6093 229.893 45.1148C230.518 45.1148 231.149 45.1148 231.78 45.1148C231.726 45.4997 231.652 45.8814 231.557 46.2581C231.921 45.8858 232.341 45.5735 232.802 45.3328L232.829 45.3701Z" fill="#DA251C"/>
<path d="M250.361 45.1467H252.354C251.734 48.2096 251.066 51.262 250.446 54.3249H248.448C249.068 51.262 249.741 48.2096 250.361 45.1467Z" fill="#DA251C"/>
</g>
<defs>
<clipPath id="clip0_4_1122">
<rect width="265" height="56" fill="white"/>
</clipPath>
</defs>
</svg>
