<svg width="86" height="24" viewBox="0 0 86 24" fill="none" xmlns="http://www.w3.org/2000/svg">
<g clip-path="url(#clip0_45_4299)">
<path d="M17.7883 23.3644C17.7883 23.9294 18.5651 23.9998 18.9886 23.9998H19.3418C20.4006 23.9301 20.4006 23.5059 20.4006 23.3644V0.635075C20.4703 0.069418 19.6942 -0.000244141 19.2003 -0.000244141H18.9914C18.565 -0.000244141 17.7883 0.069418 17.7883 0.635075V23.3644Z" fill="#E1091D"/>
<path d="M3.6001 23.3644C3.6001 23.9294 4.37684 23.9998 4.80037 23.9998H5.15359C6.21244 23.9301 6.21243 23.5059 6.21243 23.3644V0.635075C6.21243 0.069418 5.50607 -0.000244141 5.01216 -0.000244141H4.80317C4.3058 -0.000244141 3.6001 0.069418 3.6001 0.635075V23.3644Z" fill="#E1091D"/>
<path d="M8.32947 23.3644C8.32947 23.9294 9.10624 23.9998 9.52979 23.9998H9.95332C11.0122 23.9301 11.0122 23.5059 11.0122 23.3644V0.635075C11.0122 0.069418 10.2355 -0.000244141 9.81193 -0.000244141H9.52979C9.10624 -0.000244141 8.32947 0.069418 8.32947 0.635075V23.3644Z" fill="#E1091D"/>
<path d="M13.0588 23.3644C13.0588 23.9294 13.8356 23.9998 14.2591 23.9998H14.6123C15.6711 23.9301 15.6712 23.5059 15.6712 23.3644V0.635075C15.6712 0.069418 14.8944 -0.000244141 14.4709 -0.000244141H14.2619C13.8356 -0.000244141 13.0588 0.069418 13.0588 0.635075V23.3644Z" fill="#E1091D"/>
<path d="M0.635313 10.6587C0.069672 10.6587 0 11.4354 0 11.859V12.2825C0.069671 13.3414 0.493908 13.3414 0.635313 13.3414H23.3647C23.9296 13.3414 24 12.5646 24 12.1411V11.859C24 11.4354 23.9303 10.6587 23.3647 10.6587H0.635313Z" fill="#E1091D"/>
<path d="M57.1056 19.1994C53.3647 19.1994 51.9506 17.1521 51.9506 11.8584C51.9506 6.63379 53.2915 4.72922 57.0359 4.72922H57.1753C60.8458 4.72922 62.2606 6.63518 62.2606 11.8584C62.1909 17.1528 60.7781 19.1994 57.1056 19.1994ZM57.1056 1.7644C50.7524 1.7644 47.8586 4.941 47.8586 11.9288C47.8586 18.8463 50.8234 22.1643 56.8938 22.2346H57.1759C63.3173 22.2346 66.2815 18.8463 66.2815 11.9288C66.2815 4.86994 63.4588 1.7644 57.1056 1.7644Z" fill="#002469"/>
<path d="M31.4825 20.6818C32.7531 21.6704 34.5176 22.0939 37.341 22.0939H37.4803C40.3037 22.0939 42.0683 21.6704 43.41 20.6818C45.2449 19.2705 45.6002 17.5798 45.6002 14.3997V2.89431C45.6087 2.7906 45.5945 2.68626 45.5584 2.58864C45.5223 2.49103 45.4652 2.40253 45.3912 2.32935C45.1056 2.04513 44.4702 1.90581 43.4114 1.90581C42.7461 1.82087 42.0721 1.97065 41.5055 2.32935C41.4314 2.40252 41.3744 2.49103 41.3383 2.58864C41.3022 2.68625 41.2878 2.79059 41.2964 2.89431V14.8943C41.2964 16.8706 41.2965 17.2942 40.379 18.0709C39.4724 18.6384 38.4116 18.9099 37.3438 18.8476C36.2723 18.9438 35.2003 18.6683 34.3079 18.0674C33.3905 17.3617 33.3905 16.9382 33.3905 14.9619V2.89431C33.399 2.79059 33.3848 2.68625 33.3487 2.58864C33.3126 2.49103 33.2555 2.40252 33.1815 2.32935C32.6135 1.96953 31.9375 1.8197 31.2707 1.90581C30.6054 1.82087 29.9314 1.97065 29.3647 2.32935C29.2907 2.40252 29.2336 2.49103 29.1975 2.58864C29.1614 2.68625 29.1472 2.79059 29.1557 2.89431V14.3997C29.2951 17.5763 29.5792 19.2705 31.4852 20.6818" fill="#002469"/>
<path d="M77.2226 19.1297H72.705V13.1297H77.5047C80.1874 13.1297 80.6813 14.2589 80.6813 16.1648C80.7509 18.7061 79.8342 19.1297 77.2226 19.1297ZM72.705 4.80017H77.2929C79.6927 4.80017 79.8342 6.00044 79.8342 7.55321C79.8342 9.45917 78.9871 10.2352 76.9404 10.2352H72.705V4.80017ZM82.2347 3.10598C81.1759 2.32925 79.9052 2.04712 77.435 2.04712H69.2462C69.0592 2.04749 68.8799 2.12195 68.7476 2.25421C68.6154 2.38647 68.5409 2.56575 68.5405 2.7528V21.3881C68.5409 21.5752 68.6154 21.7544 68.7476 21.8867C68.8799 22.019 69.0592 22.0934 69.2462 22.0938H77.8579C80.1874 22.0938 81.8105 22.0241 83.2218 20.9646C84.7746 19.7643 85.0574 17.859 85.0574 16.447C85.1092 15.6632 84.9766 14.8783 84.6701 14.1551C84.3637 13.4318 83.892 12.7905 83.2929 12.2826C82.7881 11.9536 82.2421 11.6924 81.6691 11.5058L81.3159 11.3665L81.6691 11.2272C83.3632 10.4505 83.9282 9.32124 83.9282 7.13315C83.8586 6.00393 83.6461 4.09797 82.234 3.10947" fill="#002469"/>
</g>
<defs>
<clipPath id="clip0_45_4299">
<rect width="85.0684" height="24" fill="white" transform="translate(0 -0.000244141)"/>
</clipPath>
</defs>
</svg>
