<svg width="155" height="72" viewBox="0 0 155 72" fill="none" xmlns="http://www.w3.org/2000/svg">
<g id="Vijaya Bank" clip-path="url(#clip0_4_1146)">
<path id="Vector" fill-rule="evenodd" clip-rule="evenodd" d="M0 0H154.974V72H0V0Z" fill="#FFF200"/>
<path id="Vector_2" fill-rule="evenodd" clip-rule="evenodd" d="M4.10852 7.51593H33.7867V65.0446H4.10852V7.51593Z" fill="#ED1C24"/>
<path id="Vector_3" fill-rule="evenodd" clip-rule="evenodd" d="M26.4117 37.5031C26.5931 36.6832 26.8495 35.8817 27.1774 35.1084C27.4403 34.825 27.6873 34.5272 27.9173 34.2165C27.9173 33.8599 27.9173 33.1211 27.9173 32.7134C28.1725 31.5415 29.0913 29.0446 29.0913 29.0446C29.0913 29.0446 29.0913 28.4331 29.0913 28.3057C29.0913 28.1783 29.4485 28.1019 29.7037 28.1783C29.7037 29.2484 29.9844 30.2929 30.0354 31.312C30.0865 32.3312 30.0354 33.5287 30.1885 34.5733C30.1885 36.2038 29.6015 35.9236 28.5298 36.3822C28.0959 36.5606 27.7642 36.7643 27.3814 36.9427C27.0348 37.1647 26.6673 37.3524 26.2841 37.5031H26.4117ZM25.3655 24C26.1055 24.4331 26.7435 24.7134 27.4325 25.1465C28.0901 25.53 28.6985 25.992 29.2444 26.5222C29.0344 27.2286 28.7341 27.9052 28.3511 28.5351C27.9756 28.6406 27.5782 28.6406 27.2027 28.5351C27.0241 28.3312 27.2028 27.7961 27.0496 27.4904H26.6414C26.6309 27.6601 26.6309 27.8303 26.6414 28C26.6414 28.3057 26.6415 27.9999 26.3607 28.2802V30.0892H26.8965L27.1007 29.172H28.1725C28.0313 30.3804 27.7837 31.5739 27.4325 32.7388C26.7635 34.8643 25.9096 36.9275 24.8806 38.9045C24.6254 39.4395 24.4212 39.8727 24.166 40.3568C23.9108 40.8408 23.7323 41.2994 23.4516 41.758H22.1501C22.1501 40.9172 23.324 40.0255 23.5791 38.0382C23.6323 37.2844 23.7779 36.54 24.0129 35.8216C24.5233 34.4459 24.5999 35.2102 24.5233 33.9108C24.529 33.1169 24.5973 32.3246 24.7275 31.5414C24.7275 31.0573 25.0337 30.828 25.0337 30.5222C24.7135 29.3862 24.6611 28.1915 24.8806 27.0318C24.97 26.863 25.0168 26.6751 25.0168 26.4841C25.0168 26.2932 24.97 26.1051 24.8806 25.9363C24.8164 25.5568 24.8164 25.1692 24.8806 24.7898C24.5234 24.6114 24.3702 24.9426 24.0129 24.7898V25.0701C24.5491 28.1725 24.5491 31.3436 24.0129 34.4459C23.7631 35.7281 23.4133 36.9888 22.9667 38.2166C22.5861 39.4329 22.0546 40.5969 21.3846 41.6815C20.3383 41.6815 19.2155 41.6815 18.1437 41.6815C17.0899 41.7452 16.0332 41.7452 14.9794 41.6815C14.9353 40.9943 14.9353 40.305 14.9794 39.6178C14.9794 39.6178 14.9794 39.3121 14.9794 39.2102V38.9809C16.1899 39.0042 17.4006 38.9446 18.603 38.8025V38.2166H15.7449C15.5663 37.8344 15.4643 37.1975 15.3367 36.8408C15.2205 37.0056 15.0681 37.1418 14.8912 37.2389C14.7144 37.336 14.5175 37.3915 14.3159 37.4013L13.7546 37.9872L13.4483 38.2676C13.2697 38.4714 13.4482 38.4458 13.1931 38.5223C13.3753 38.8528 13.4882 39.2168 13.5248 39.5923C13.5248 40.5095 13.8822 41.6051 13.9332 42.5223C13.9842 43.4395 14.1373 44.5859 14.2394 45.6305C14.3415 46.6751 14.469 48.535 14.6221 49.8344C14.7752 51.1338 14.8008 52.7898 15.0305 54.0128C15.0305 54.4968 15.2602 57.3758 15.3878 58.2675C15.592 59.7126 15.592 61.1792 15.3878 62.6242H19.1645C19.0114 62.1656 18.0926 61.0192 17.965 60.5861C17.8374 60.1529 17.965 58.0382 17.965 57.6051C18.1437 55.7197 17.965 53.5541 18.2968 51.5413C18.5775 51.5413 18.2968 51.5413 18.603 51.6942C19.0061 52.2984 19.3159 52.9598 19.5218 53.656C19.781 54.5471 19.9603 55.4594 20.0576 56.3822C20.2137 57.3781 20.3159 58.3816 20.3638 59.3885C20.3084 60.4494 20.3084 61.5124 20.3638 62.5732C21.587 62.6634 22.8152 62.6634 24.0385 62.5732C23.785 62.0781 23.4485 61.6299 23.0434 61.2483C22.6606 60.9171 22.7116 61.0192 22.7116 60.4077C22.7116 56.9937 22.5329 53.8599 22.5839 50.395L22.737 46.1146C22.737 45.5541 22.9157 43.7453 23.0178 43.3886C23.1471 43.062 23.3186 42.7535 23.5281 42.4713C24.2634 40.8975 25.2943 39.4792 26.5648 38.2931C27.1332 37.8383 27.7708 37.4769 28.4533 37.2229C30.6734 36.2802 31.005 36.586 30.7243 33.9108C30.7243 33.0446 30.7243 31.949 30.7243 31.0318C30.9382 29.1282 30.5548 27.2054 29.627 25.5287C29.0418 24.9557 28.3477 24.5052 27.5856 24.2038L25.4675 23.0573V23.2102C25.4675 23.3885 25.2634 23.7197 25.4675 23.8726L25.3655 24ZM20.5424 21.4522L23.0943 22.9299C23.426 23.1338 23.7578 23.1847 23.7833 23.5924C22.6099 23.5474 21.464 23.2243 20.4404 22.6497L20.5935 21.4522H20.5424ZM18.7307 15.414C18.7307 18.6751 20.6701 19.6178 19.5218 21.7579C19.2921 22.191 18.6541 22.3185 18.2458 22.4714L15.2856 23.414C14.921 23.4743 14.583 23.643 14.3159 23.8981L14.0608 24.0765C14.0226 24.1883 13.9514 24.2859 13.8566 24.3567C12.5441 25.543 11.3634 26.8669 10.335 28.3057C9.82462 29.0445 9.26322 29.8345 8.75285 30.6498C8.49766 31.0319 7.40037 32.9682 7.24726 33.1975C7.09415 33.4268 6.45622 34.8281 7.52801 35.5669L13.3462 39.6688C13.3095 39.2933 13.1966 38.9293 13.0144 38.5988C12.6018 38.2408 12.1673 37.9089 11.7131 37.6051L9.16123 35.6178C8.80397 35.363 8.03833 34.93 7.96178 34.4714C7.88522 34.0128 9.03355 31.9236 9.39081 31.2612C10.5551 29.4004 11.9435 27.6892 13.5248 26.1657C14.1883 25.9109 14.6987 26.5733 14.8518 26.9555C15.0446 27.6519 15.1305 28.3734 15.107 29.0955C15.054 29.6807 14.8621 30.2449 14.547 30.7412C14.2319 31.2375 13.8028 31.6515 13.2952 31.949C12.3472 32.5479 11.4881 33.277 10.7434 34.1147C11.822 35.3538 12.9905 36.5118 14.2394 37.5796C14.441 37.5699 14.6377 37.5142 14.8146 37.4171C14.9915 37.32 15.1438 37.184 15.2601 37.0192C14.8039 36.6329 14.3174 36.2835 13.8055 35.9745C13.5503 35.9745 13.2441 35.7198 13.2186 35.4141C13.1931 35.1083 13.2186 34.5477 13.2186 34.2165C13.2186 32.9427 13.2186 33.2229 13.8055 32.4841C15.0814 30.828 15.847 31.0319 15.898 28.8663C16.0343 28.047 15.8713 27.2062 15.4387 26.4969C15.0304 25.9364 14.418 24.9681 15.4387 24.6624C16.8638 24.1086 18.3437 23.7073 19.8535 23.465C20.1342 23.465 21.0784 24 21.895 24.2038L23.7067 24.6114C24.0385 24.6114 23.9365 24.6115 23.962 25.0191V24.7389C24.3193 24.9682 24.4723 24.7389 24.8295 24.7389C25.0592 24.4332 24.8295 24.4841 24.8295 24.0765H25.2124C25.0848 23.9236 25.2124 23.5924 25.2124 23.414V23.2612C25.2124 23.2612 25.2124 23.2611 25.2124 23.0318C25.4043 22.8226 25.6394 22.6574 25.9014 22.5477C26.9732 21.9108 27.2539 20.9681 27.6111 20.6879C27.7426 20.2815 27.9135 19.889 28.1215 19.5159C28.7595 17.9872 28.9891 16.4077 29.2953 15.6178C29.1167 15.6178 29.4739 15.6178 29.1422 15.6178H28.9635C28.5702 15.5164 28.1576 15.5164 27.7642 15.6178C27.7642 15.8981 27.7642 15.7961 27.7642 16.0509H28.5809C28.461 16.6614 28.2814 17.2588 28.0449 17.8344H26.9221C26.9221 17.5796 26.9221 17.5542 26.9221 17.3758H26.6159C26.6159 18.1147 26.6158 19.312 25.4675 18.5732V17.605H25.0848C24.9671 17.9093 24.9614 18.2454 25.0689 18.5534C25.1764 18.8614 25.3901 19.1213 25.6717 19.2866C26.3862 19.5924 26.8711 18.8535 26.9476 18.3185H28.1471C28.1471 19.7707 26.0545 22.7516 24.7531 22.7516C24.0653 22.773 23.3807 22.6503 22.7434 22.3914C22.1061 22.1325 21.5302 21.7432 21.0528 21.2485C20.7721 21.0701 20.4913 20.9936 20.3382 20.6369C20.2058 20.3245 20.1033 20.0004 20.032 19.6687C19.6748 18.4458 18.5265 17.1211 19.0114 15.6433L18.8327 15.2866C18.6286 15.2866 18.8327 15.2866 18.603 15.2866C18.3733 15.2866 18.603 15.4904 18.603 15.2866L18.7307 15.414Z" fill="#2E3192"/>
<path id="Vector_4" fill-rule="evenodd" clip-rule="evenodd" d="M13.6779 32.1783V35.6688C14.1899 35.9777 14.6763 36.327 15.1325 36.7133C15.1325 37.07 15.3623 37.707 15.5409 38.0892H18.399V38.5478C17.1966 38.6899 15.9857 38.7495 14.7752 38.7261V38.9553C14.7752 38.9553 14.7752 39.2612 14.7752 39.3631C14.7311 40.0503 14.7311 40.7396 14.7752 41.4268C15.829 41.4905 16.8858 41.4905 17.9396 41.4268C19.0114 41.4268 20.1341 41.4268 21.1804 41.4268C21.9029 40.4323 22.5027 39.3544 22.9667 38.2165C23.4033 36.8871 23.7277 35.5236 23.9364 34.1402C24.4727 31.0378 24.4727 27.8666 23.9364 24.7642C23.9364 24.4076 23.9365 24.4331 23.6813 24.3567L21.8694 23.9491C21.0529 23.7453 20.1087 23.2866 19.828 23.2101C18.3182 23.4524 16.8382 23.8539 15.4132 24.4077C14.3924 24.7134 15.0049 25.6815 15.4132 26.242C15.8457 26.9513 16.0087 27.7922 15.8725 28.6114C15.8725 30.777 15.056 30.5733 13.7801 32.2294L13.6779 32.1783Z" fill="#FBFDFF"/>
<path id="Vector_5" fill-rule="evenodd" clip-rule="evenodd" d="M22.9667 19.7708C22.9667 19.6179 23.1453 19.5924 23.2729 19.5159C23.4005 19.4395 23.8088 20.2548 24.6764 20.5351C25.3656 20.6862 26.084 20.633 26.7434 20.3822C26.831 20.4918 26.8842 20.6248 26.8965 20.7645C26.5369 20.9606 26.1414 21.0819 25.7335 21.1214C25.3257 21.1608 24.9139 21.1173 24.5233 20.9937C23.8792 20.7766 23.3295 20.3448 22.9667 19.7708ZM19.8024 17.5798C19.6686 17.2122 19.5995 16.8243 19.5982 16.4332H20.032L20.2107 17.5032H19.8024V17.5798ZM23.1709 16.6624C23.9365 16.6624 24.1406 16.6625 24.4213 15.9491H24.8295C24.7882 16.1363 24.709 16.313 24.5965 16.4684C24.4841 16.6237 24.3409 16.7544 24.1758 16.8523C24.0108 16.9502 23.8275 17.0133 23.6371 17.0377C23.4467 17.062 23.2531 17.0469 23.0687 16.9937V16.5351L23.1709 16.6624ZM24.8295 15.0065C24.501 14.9413 24.1629 14.9413 23.8344 15.0065V14.5732C24.2254 14.4549 24.6427 14.4549 25.0337 14.5732C25.3594 14.6768 25.6624 14.8411 25.9268 15.0573L25.6461 15.3886C25.3654 15.3886 25.2634 15.1338 24.9062 15.0573L24.8295 15.0065ZM19.1645 15.5161C18.6796 16.9173 19.8279 18.3185 20.1851 19.5414C20.2564 19.8731 20.3591 20.1972 20.4915 20.5096C20.6446 20.8663 20.9252 20.9427 21.2059 21.121C21.6833 21.6157 22.2592 22.0051 22.8965 22.264C23.5338 22.5229 24.2184 22.6457 24.9062 22.6243C26.2076 22.6243 28.3257 19.6434 28.3002 18.1912H27.1007C27.1007 18.7262 26.5393 19.4651 25.8248 19.1594C25.5432 18.994 25.3297 18.7342 25.2222 18.4262C25.1147 18.1182 25.1202 17.782 25.2379 17.4777H25.6206V18.4459C26.7179 19.1848 26.6669 17.9874 26.769 17.2485H27.0752C27.2028 17.4269 27.0752 17.4523 27.0752 17.7071H28.198C28.4345 17.1315 28.6141 16.5342 28.7339 15.9236H27.9173C27.9173 15.6689 27.9173 15.7708 27.9173 15.4906C28.3107 15.3892 28.7233 15.3892 29.1166 15.4906C29.1166 14.8791 29.3973 14.2675 29.1166 13.8089C28.3256 12.8153 26.0034 13.809 24.0129 13.0191C23.2729 12.7134 21.7418 11.8727 21.0784 12.5606C20.4149 13.2485 21.0783 14.7516 20.5169 15.8981C20.1596 15.8981 20.1087 15.7199 19.8535 15.5161C19.5983 15.3122 19.4706 15.2358 19.2665 15.5161H19.1645Z" fill="#FBFDFF"/>
<path id="Vector_6" fill-rule="evenodd" clip-rule="evenodd" d="M24.8551 24.6624C24.7908 25.0419 24.7908 25.4295 24.8551 25.809C24.9445 25.9777 24.9912 26.1657 24.9912 26.3566C24.9912 26.5476 24.9445 26.7357 24.8551 26.9045C24.6355 28.0642 24.6879 29.2588 25.0082 30.3949C25.0082 30.7006 24.753 30.93 24.702 31.4141C24.5718 32.1973 24.5035 32.9896 24.4978 33.7835C24.4978 35.0828 24.4979 34.3185 23.9875 35.6943C23.7525 36.4126 23.6067 37.1571 23.5536 37.9109C23.2984 39.8981 22.1501 40.7899 22.1246 41.6307H23.426C23.7068 41.1721 23.911 40.6879 24.1406 40.2293C24.3703 39.7707 24.5999 39.312 24.8551 38.777C25.8841 36.8 26.738 34.737 27.4069 32.6115C27.7582 31.4465 28.0059 30.253 28.1471 29.0447H27.0752L26.8711 29.9618H26.3352V28.1529C26.5394 27.9236 26.5138 28.1529 26.6159 27.8726C26.6054 27.7029 26.6054 27.5327 26.6159 27.3631H27.0243C27.0243 27.6688 27.0242 28.2039 27.1774 28.4077C27.5528 28.5133 27.9501 28.5133 28.3256 28.4077C28.7086 27.7779 29.0088 27.1013 29.2188 26.3949C28.673 25.8646 28.0645 25.4027 27.4069 25.0191C26.7179 24.586 26.08 24.3057 25.3399 23.8726H24.9573C24.9573 24.2803 24.9573 24.2293 24.9573 24.5351L24.8551 24.6624Z" fill="#FBFDFF"/>
<path id="Vector_7" fill-rule="evenodd" clip-rule="evenodd" d="M13.0144 38.4968C13.2185 38.4968 13.0145 38.4969 13.2697 38.2421L13.5759 37.9619L14.1372 37.3758C12.8883 36.308 11.7198 35.15 10.6412 33.9109C11.3859 33.0732 12.245 32.3442 13.193 31.7453C13.7006 31.4479 14.1297 31.0337 14.4448 30.5374C14.7599 30.0411 14.952 29.4771 15.0049 28.8919C15.0285 28.1697 14.9425 27.4481 14.7498 26.7517C14.5967 26.3695 14.0863 25.7071 13.4228 25.9619C11.8414 27.4854 10.4531 29.1966 9.28877 31.0574C8.93151 31.6434 7.73215 33.6052 7.85974 34.2676C7.98733 34.93 8.70178 35.1594 9.05904 35.4141L11.6109 37.4013C12.0651 37.7051 12.4998 38.037 12.9124 38.395L13.0144 38.4968Z" fill="#FBFDFF"/>
<path id="Vector_8" fill-rule="evenodd" clip-rule="evenodd" d="M18.7307 15.4139C18.7307 15.4139 18.7307 15.5413 18.7307 15.4139C18.7307 15.4139 18.7306 15.4139 18.9603 15.4139L19.1389 15.7707C19.3431 15.4649 19.5217 15.5668 19.7258 15.7707C19.93 15.9745 20.0321 16.1019 20.3893 16.1529C20.8997 15.0064 20.3894 13.6051 20.9508 12.8153C21.5122 12.0255 23.1453 12.9682 23.8854 13.2739C25.8758 14.0892 28.198 13.0701 28.9891 14.0637C29.3719 14.5223 29.1422 15.1337 28.9891 15.7452H29.1677C29.4995 15.7452 29.1677 15.7452 29.3208 15.7452C30.3161 12.4585 27.8663 9.98723 24.2171 10.2165C18.1947 10.5987 19.241 14.0637 19.1134 14.7006C18.9858 15.3376 18.7051 14.9553 18.6285 15.7196L18.7307 15.4139Z" fill="#2E3192"/>
<path id="Vector_9" fill-rule="evenodd" clip-rule="evenodd" d="M26.4117 37.5031C26.7948 37.3524 27.1625 37.1647 27.5091 36.9427C27.8919 36.7643 28.2235 36.5606 28.6573 36.3822C29.7291 35.9236 30.4182 36.2038 30.3161 34.5733C30.3161 33.5287 30.3161 32.3821 30.163 31.3121C30.0099 30.242 29.9333 29.2484 29.8312 28.1783C29.5761 28.1783 29.3209 28.1783 29.2188 28.3057C29.1167 28.4331 29.2188 28.8663 29.2188 29.0447C29.2188 29.223 28.3001 31.5924 28.0449 32.7135C28.0449 33.1211 28.0449 33.8599 28.0449 34.2165C27.8149 34.5272 27.5679 34.825 27.3049 35.1084C26.9771 35.8817 26.7208 36.6832 26.5394 37.5031H26.4117Z" fill="#F6F6F6"/>
<path id="Vector_10" fill-rule="evenodd" clip-rule="evenodd" d="M20.4149 22.6497C21.4385 23.2243 22.5843 23.5474 23.7578 23.5924C23.7578 23.1848 23.4005 23.1338 23.0687 22.93L20.5169 21.4522L20.3638 22.6497H20.4149Z" fill="#FBFBFB"/>
<path id="Vector_11" fill-rule="evenodd" clip-rule="evenodd" d="M26.8456 20.3822C26.1862 20.633 25.4679 20.6861 24.7786 20.535C23.911 20.2548 23.7067 19.7197 23.375 19.5159C23.0433 19.312 23.1453 19.5159 23.0688 19.7707C23.4316 20.3447 23.9814 20.7765 24.6255 20.9936C25.0162 21.1172 25.4277 21.1607 25.8356 21.1213C26.2434 21.0819 26.6391 20.9605 26.9988 20.7644C26.9864 20.6248 26.9332 20.4918 26.8456 20.3822Z" fill="#2F318F"/>
<path id="Vector_12" fill-rule="evenodd" clip-rule="evenodd" d="M23.8599 14.5987V15.0319C24.1884 14.9667 24.5266 14.9667 24.8551 15.0319C25.2124 15.0319 25.3146 15.3122 25.5953 15.3631L25.8759 15.0319C25.6115 14.8156 25.3084 14.6514 24.9827 14.5478C24.5917 14.4295 24.1744 14.4295 23.7834 14.5478L23.8599 14.5987Z" fill="#2F318F"/>
<path id="Vector_13" fill-rule="evenodd" clip-rule="evenodd" d="M23.2729 16.6624V17.1209C23.4574 17.1742 23.6507 17.1893 23.8411 17.1649C24.0316 17.1406 24.215 17.0775 24.38 16.9796C24.5451 16.8817 24.6883 16.751 24.8007 16.5956C24.9132 16.4403 24.9924 16.2636 25.0337 16.0764H24.6255C24.3448 16.6624 24.1405 16.7899 23.375 16.7899L23.2729 16.6624Z" fill="#2F318F"/>
<path id="Vector_14" fill-rule="evenodd" clip-rule="evenodd" d="M19.9045 17.5797H20.3129L20.1342 16.5095H19.7003C19.7016 16.9006 19.7707 17.2885 19.9045 17.656V17.5797Z" fill="#2E3192"/>
<path id="Vector_15" d="M57.4169 15.0319H58.6928V22.6752L60.4536 23.9236V15.0319H62.8268L61.8315 13.3758H59.8921C59.8675 13.1727 59.8675 12.9674 59.8921 12.7643C59.8536 12.4908 59.8767 12.2121 59.9595 11.9485C60.0424 11.685 60.183 11.4432 60.3712 11.2407C60.5594 11.0382 60.7905 10.8802 61.0475 10.7779C61.3045 10.6757 61.581 10.6318 61.8571 10.6496C63.7974 10.8555 65.6344 11.6263 67.1394 12.8662L67.5223 12.2292C65.7059 10.6126 63.4827 9.52048 61.0915 9.07001C59.4584 9.07001 58.361 9.93632 58.361 11.3631C58.3764 12.0738 58.5788 12.7679 58.9479 13.3758H56.3961L57.3658 15.0319H57.4169ZM69.0789 20.8152V22.6242L70.8397 23.8726V15.0319H72.8047L71.8094 13.3758H60.8874L61.8571 15.0319H69.0533V17.8344C68.6012 17.3076 68.0872 16.8371 67.5223 16.4331C67.0513 16.1843 66.5237 16.0614 65.9911 16.0764C65.2266 15.9903 64.4592 16.21 63.8566 16.6875C63.2541 17.165 62.8653 17.8613 62.7757 18.6242C62.8905 19.5196 63.3111 20.3482 63.9666 20.9701C64.6221 21.592 65.4723 21.9693 66.3739 22.0382C67.3748 21.9531 68.3224 21.5515 69.0789 20.8917V20.8152ZM65.4553 20.586C65.3191 20.59 65.1835 20.5653 65.0575 20.5135C64.9315 20.4618 64.8179 20.384 64.724 20.2854C64.6301 20.1868 64.5582 20.0698 64.5127 19.9416C64.4672 19.8134 64.4492 19.6769 64.46 19.5413C64.4532 19.2937 64.4953 19.0472 64.584 18.8159C64.6727 18.5845 64.8062 18.3729 64.9768 18.1931C65.1474 18.0133 65.3519 17.8689 65.5785 17.768C65.8051 17.6671 66.0493 17.6116 66.2973 17.605C67.3131 17.6284 68.2885 18.0072 69.0533 18.6752V18.9299C67.986 19.7318 66.7592 20.2965 65.4553 20.586ZM77.8573 18.0382H80.6387V22.4968L82.4251 23.7452V15.0319H84.39L83.3948 13.3758H70.8141L71.7838 15.0319H80.6133V16.5095H75.9689L75.7903 16.9427C76.9897 18.2166 77.5 18.8535 77.5 19.4905C77.5 20.1274 77.0662 20.2803 76.4283 20.2803C75.7903 20.2803 74.6164 19.5668 73.3915 16.968L72.7025 17.3503C74.0039 20.5095 75.6627 22.1146 77.398 22.1146C77.6233 22.1429 77.852 22.1254 78.0704 22.0631C78.2887 22.0009 78.4922 21.8951 78.6686 21.7523C78.845 21.6095 78.9906 21.4326 79.0968 21.2321C79.2029 21.0317 79.2675 20.8119 79.2863 20.586C79.0856 19.6095 78.5863 18.7193 77.8573 18.0382ZM90.6166 20.586V22.3948L92.5049 23.6433V15.0319H94.4188L93.4491 13.3758H82.4506L83.4459 15.0319H86.5081C86.7623 15.3729 86.9129 15.7796 86.9419 16.2037C86.9419 16.3821 86.6868 16.6369 86.5081 16.7388C85.8256 17.0412 85.1166 17.28 84.39 17.4521C84.8749 19.9999 86.5081 21.7325 88.2178 21.7325C89.1357 21.6622 90.0175 21.3451 90.7697 20.8152L90.6166 20.586ZM90.6166 14.8025V18.4458C89.6841 19.2125 88.5667 19.722 87.3757 19.9235C86.4315 19.9235 86.0742 19.5668 86.0742 19.0317C86.0742 18.4967 86.3294 18.3948 86.8908 18.2674C88.1412 17.9362 88.473 17.707 88.473 17.3503C88.2786 16.4683 87.9788 15.6129 87.5799 14.8025H90.6166ZM96.5879 23.6433V15.0319H98.9612L97.966 13.3758H92.4283L93.398 15.0319H94.8271V22.6752L96.5879 23.9236V23.6433ZM110.291 20.7388V22.3948L112.078 23.6433V15.0319H114.043L113.073 13.3758H101.947L102.917 15.0319H110.266V17.5796C109.952 17.0245 109.484 16.5724 108.917 16.2784C108.351 15.9844 107.711 15.8611 107.076 15.9235C105.009 15.9235 103.861 17.1974 103.861 18.4713C103.874 19.4152 104.259 20.3159 104.932 20.9786C105.606 21.6414 106.513 22.0128 107.459 22.0127C108.536 22.0409 109.588 21.6788 110.419 20.9936L110.291 20.7388ZM108.582 19.8217L107.051 17.2739C107.403 17.1494 107.774 17.0806 108.148 17.0701C109.041 17.0701 109.653 17.605 109.653 18.2419C109.63 18.5859 109.519 18.9184 109.331 19.2081C109.144 19.4977 108.886 19.7351 108.582 19.898V19.8217ZM106.234 17.605L107.765 20.1528C107.39 20.3321 106.981 20.4279 106.566 20.4331C105.545 20.4331 105.111 19.8726 105.111 19.1847C105.138 18.835 105.255 18.498 105.452 18.2076C105.649 17.9171 105.918 17.683 106.234 17.5286V17.605ZM106.821 11.7706C108.097 11.7706 109.883 13.6051 109.883 13.6051H111.261C110.887 12.1636 110.436 10.7432 109.909 9.35023C109.245 8.02539 108.556 8.17836 107.969 8.17836C107.382 8.17836 107.612 8.17837 107.612 8.50958C107.612 8.84079 107.816 9.50318 107.893 9.91082C108.99 9.91082 109.015 9.91083 109.577 10.879C109.979 11.6374 110.287 12.4416 110.496 13.2739H110.062C109.212 12.0343 108.139 10.9629 106.897 10.1145C106.588 9.85214 106.205 9.69195 105.8 9.65595C105.392 9.65595 105.29 9.65601 105.29 10.0382C105.439 10.675 105.644 11.2973 105.902 11.898C106.205 11.8369 106.518 11.8369 106.821 11.898V11.7706ZM114.068 10.5478L112.588 9.07001L111.108 10.5478L112.614 12.0254L114.068 10.5478ZM126.649 13.0955H112.282L113.252 14.7515H119.937V17.8088C119.68 17.2023 119.266 16.6748 118.738 16.2802C118.281 16.0429 117.773 15.9204 117.258 15.9235C116.899 15.8993 116.539 15.9461 116.199 16.0611C115.858 16.1762 115.544 16.3573 115.273 16.5941C115.003 16.8308 114.782 17.1185 114.624 17.4406C114.465 17.7628 114.372 18.113 114.349 18.4713C114.506 19.3201 114.944 20.092 115.591 20.6644C116.238 21.2367 117.059 21.5768 117.922 21.6305C118.692 21.5458 119.42 21.2356 120.014 20.7388V22.9299L121.8 24.1783V20.1274C122.515 19.4262 123.391 18.9101 124.352 18.6242C124.508 18.6365 124.654 18.7057 124.762 18.8184C124.87 18.9311 124.933 19.0796 124.939 19.2356C124.681 20.3366 124.241 21.3871 123.638 22.344L125.271 23.5668C125.875 22.6253 126.235 21.5483 126.317 20.4331C126.379 19.6662 126.152 18.9036 125.68 18.2954C125.208 17.6873 124.525 17.2774 123.765 17.1464C123.069 17.2388 122.41 17.5111 121.851 17.9362V15.0319H127.593L126.623 13.3758L126.649 13.0955ZM119.937 19.1082C118.974 19.8402 117.896 20.4083 116.748 20.7897C116.365 20.7897 115.982 20.3821 115.982 19.6942C116.006 19.2171 116.203 18.765 116.536 18.4226C116.87 18.0802 117.317 17.871 117.794 17.8344C118.222 17.8814 118.634 18.0195 119.004 18.2393C119.374 18.459 119.692 18.7553 119.937 19.1082Z" fill="#005BAA"/>
<path id="Vector_16" d="M44.1727 30.93C44.0413 30.4669 43.8527 30.0218 43.6114 29.6051C43.5349 29.4916 43.4325 29.3978 43.3128 29.3314C43.193 29.265 43.0592 29.2277 42.9223 29.2229V28.6114H48.026V29.2229H47.8729C47.687 29.1993 47.4982 29.2272 47.3272 29.3036C47.1561 29.38 47.0094 29.502 46.9032 29.6561C46.819 29.8579 46.7756 30.0744 46.7756 30.2931C46.7756 30.5117 46.819 30.7282 46.9032 30.93L49.0722 38.5733L51.1138 30.93C51.2052 30.7211 51.2523 30.4955 51.2523 30.2675C51.2523 30.0396 51.2052 29.814 51.1138 29.6051C50.9607 29.3503 50.5779 29.2229 49.9655 29.2229V28.6114H53.1553V29.2229C53.0109 29.2355 52.8713 29.2812 52.7474 29.3563C52.6235 29.4314 52.5185 29.534 52.4407 29.6561C52.2018 30.05 52.0294 30.4803 51.9303 30.93L48.4853 43.4905H48.1025L44.4024 30.93H44.1727ZM54.8394 40.8409V30.93C54.8673 30.4712 54.7703 30.0134 54.5588 29.6051C54.4455 29.4682 54.3 29.3616 54.1351 29.2949C53.9703 29.2282 53.7914 29.2034 53.6146 29.2229V28.6114H58.7183V29.2229H58.5908C58.414 29.2034 58.2351 29.2282 58.0702 29.2949C57.9054 29.3616 57.7598 29.4682 57.6466 29.6051C57.4438 30.0158 57.3556 30.4735 57.3913 30.93V40.7643C57.3556 41.2208 57.4438 41.6785 57.6466 42.0892C57.7626 42.2228 57.9086 42.327 58.0727 42.3934C58.2368 42.4598 58.4143 42.4865 58.5908 42.4713H58.6928V43.0828H53.5891V42.4713C53.7646 42.4909 53.9422 42.4635 54.1037 42.3918C54.2651 42.3202 54.4046 42.207 54.5077 42.0637C54.7249 41.6667 54.8223 41.2154 54.7884 40.7643L54.8394 40.8409ZM61.9592 30.93C61.9871 30.4712 61.89 30.0134 61.6784 29.6051C61.5691 29.4703 61.4279 29.3647 61.2675 29.298C61.1072 29.2313 60.9327 29.2054 60.7598 29.2229H60.6067V28.6114H65.7104V29.2229C65.5336 29.2034 65.3547 29.2282 65.1899 29.2949C65.025 29.3616 64.8795 29.4682 64.7662 29.6051C64.5635 30.0158 64.4754 30.4735 64.5111 30.93V38.5733C64.5771 39.8313 64.2945 41.083 63.6945 42.1911C63.4647 42.6001 63.1262 42.9378 62.7165 43.167C62.3068 43.3963 61.8416 43.5082 61.3722 43.4905C61.0285 43.4892 60.6886 43.4185 60.3729 43.2827C60.0572 43.147 59.7721 42.9491 59.5349 42.7007C59.0166 42.1864 58.7153 41.4935 58.6928 40.7643C58.6902 40.3502 58.8052 39.9438 59.0245 39.5923C59.0993 39.4524 59.2092 39.3344 59.3434 39.2496C59.4775 39.1647 59.6314 39.116 59.7901 39.1082C59.9428 39.115 60.0919 39.1578 60.2249 39.2331C60.358 39.3084 60.4712 39.4141 60.5556 39.5415C60.7713 39.8376 60.8874 40.1943 60.8873 40.5605C60.8858 40.8336 60.8248 41.103 60.7087 41.3503C60.5697 41.6294 60.4833 41.9318 60.4536 42.2421C60.4625 42.3346 60.4955 42.4232 60.5492 42.4991C60.6029 42.5751 60.6754 42.6358 60.7598 42.6752C60.8777 42.6992 60.9992 42.6992 61.1171 42.6752C61.2521 42.678 61.3852 42.6438 61.5021 42.5764C61.6191 42.5091 61.7154 42.411 61.7806 42.2929C61.9547 41.9643 62.0341 41.5939 62.0102 41.2229V31.0318L61.9592 30.93ZM67.2925 40.8409L70.8652 28.2802H71.2223L74.9481 40.8409C75.0669 41.3043 75.2472 41.7498 75.4841 42.1656C75.5491 42.2782 75.6417 42.3724 75.7534 42.4393C75.865 42.5061 75.9919 42.5435 76.122 42.5478V43.1593H71.4521V42.5478C71.6235 42.5701 71.7976 42.5407 71.9522 42.4635C72.1068 42.3864 72.2348 42.265 72.3198 42.1147C72.4745 41.7042 72.4745 41.2514 72.3198 40.8409L71.7583 38.93H68.5174L68.0071 40.8409C67.9285 41.0263 67.888 41.2255 67.888 41.4268C67.888 41.6281 67.9285 41.8273 68.0071 42.0127C68.1218 42.1652 68.2674 42.2917 68.4345 42.3839C68.6017 42.4761 68.7865 42.532 68.9769 42.5478H69.1553V43.1593H66.0677V42.5478C66.1925 42.526 66.3104 42.4756 66.4122 42.4004C66.5141 42.3252 66.5971 42.2274 66.6546 42.1147C66.8814 41.715 67.0532 41.2865 67.165 40.8409H67.2925ZM70.1251 33.1975L68.8236 38.0637H71.4521L70.023 33.1975H70.1251ZM80.3325 37.4778L77.7806 31.0574C77.6021 30.5957 77.3799 30.152 77.1171 29.7325C77.0447 29.6209 76.9468 29.5282 76.8315 29.4617C76.7162 29.3953 76.5868 29.3572 76.4538 29.3504V28.7389H81.6595V29.3504H81.532C81.3656 29.3278 81.1962 29.3436 81.037 29.3966C80.8777 29.4496 80.7328 29.5384 80.6133 29.6561C80.5349 29.7917 80.4936 29.9454 80.4936 30.1019C80.4936 30.2585 80.5349 30.4122 80.6133 30.5478L82.5526 36.2292L84.3645 31.9237C84.6761 31.3371 84.8174 30.6753 84.7727 30.0128C84.7727 29.6307 84.3645 29.4013 83.7776 29.3504H83.599V28.7389H86.7632V29.3504C86.6278 29.3703 86.4984 29.4193 86.3838 29.4941C86.2693 29.5689 86.1723 29.6676 86.0997 29.7835C85.8396 30.1909 85.6093 30.6167 85.4107 31.0574L82.8588 37.0445V40.7643C82.8231 41.2208 82.9114 41.6785 83.1141 42.0892C83.2302 42.2228 83.3762 42.327 83.5402 42.3934C83.7043 42.4598 83.8819 42.4865 84.0583 42.4713V43.0828H78.9546V42.4713C79.1274 42.4888 79.3019 42.4631 79.4623 42.3964C79.6227 42.3296 79.7639 42.2241 79.8732 42.0892C80.0848 41.681 80.1817 41.2232 80.1539 40.7643V37.2739L80.3325 37.4778ZM88.1923 40.9682L91.867 28.2802H92.2498L95.9754 40.8409C96.0942 41.3043 96.2745 41.7498 96.5114 42.1656C96.5764 42.2782 96.669 42.3724 96.7807 42.4393C96.8923 42.5061 97.0192 42.5435 97.1493 42.5478V43.1593H92.3518V42.5478H92.5049C92.6763 42.5701 92.8505 42.5407 93.0051 42.4635C93.1596 42.3864 93.2877 42.265 93.3726 42.1147C93.5251 41.7037 93.5251 41.2519 93.3726 40.8409L92.8367 38.93H89.5958L89.0854 40.8409C89.0068 41.0263 88.9664 41.2255 88.9664 41.4268C88.9664 41.6281 89.0068 41.8273 89.0854 42.0127C89.2 42.1652 89.3458 42.2917 89.5129 42.3839C89.6801 42.4761 89.8648 42.532 90.0551 42.5478H90.2337V43.1593H87.1461V42.5478C87.2709 42.526 87.3887 42.4756 87.4906 42.4004C87.5925 42.3252 87.6755 42.2274 87.733 42.1147C87.9502 41.7105 88.1214 41.2832 88.2434 40.8409L88.1923 40.9682ZM91.0248 33.3249L89.7233 38.1911H92.4538L91.0248 33.3249ZM103.172 40.9682V31.0574C103.2 30.5985 103.103 30.1407 102.891 29.7325C102.782 29.5976 102.641 29.4921 102.48 29.4253C102.32 29.3586 102.145 29.3329 101.972 29.3504H102.074V28.7389H106.489C107.563 28.6735 108.624 28.9994 109.475 29.6561C110.136 30.34 110.505 31.2534 110.505 32.2039C110.505 33.1544 110.136 34.0677 109.475 34.7516C109.153 35.032 108.781 35.2482 108.377 35.3886C108.928 35.5418 109.434 35.821 109.858 36.2039C110.25 36.5907 110.556 37.0566 110.754 37.5706C110.952 38.0846 111.038 38.6349 111.006 39.1847C111.034 39.7282 110.949 40.2716 110.756 40.7804C110.562 41.2892 110.265 41.7521 109.883 42.1401C109.019 42.8953 107.891 43.2799 106.744 43.2103H102.074V42.5987C102.25 42.6182 102.428 42.5908 102.589 42.5192C102.75 42.4476 102.89 42.3343 102.993 42.1911C103.21 41.7941 103.308 41.3428 103.274 40.8917L103.172 40.9682ZM105.57 30.7771V35.1084H105.775C106.064 35.1286 106.355 35.0789 106.621 34.9636C106.888 34.8483 107.122 34.6708 107.306 34.4459C107.667 33.8394 107.837 33.1375 107.791 32.4331C107.839 31.6828 107.708 30.9317 107.408 30.242C107.318 30.0546 107.182 29.8931 107.012 29.7727C106.843 29.6524 106.645 29.5771 106.438 29.5541C106.314 29.519 106.182 29.5171 106.057 29.5483C105.932 29.5796 105.817 29.643 105.724 29.7325C105.593 30.0643 105.54 30.4218 105.57 30.7771ZM105.57 35.8727V40.9682C105.539 41.307 105.591 41.6482 105.724 41.9617C105.798 42.0562 105.896 42.1296 106.008 42.1743C106.12 42.219 106.242 42.2336 106.362 42.2166C106.63 42.2305 106.897 42.1685 107.132 42.0378C107.366 41.9071 107.559 41.7131 107.689 41.4778C108.019 40.7516 108.168 39.9558 108.122 39.1592C108.191 38.2701 107.986 37.3813 107.535 36.6115C107.318 36.3376 107.037 36.1204 106.717 35.9784C106.397 35.8364 106.047 35.7739 105.698 35.7962L105.57 35.8727ZM112.716 40.8409L116.288 28.2802H116.671L120.371 40.8409C120.508 41.3022 120.696 41.7466 120.933 42.1656C120.989 42.2796 121.077 42.3757 121.185 42.4432C121.293 42.5106 121.418 42.5469 121.545 42.5478V43.1593H116.722V42.5478H116.875C117.047 42.5737 117.222 42.546 117.378 42.4685C117.533 42.391 117.661 42.2674 117.743 42.1147C117.898 41.7042 117.898 41.2514 117.743 40.8409L117.207 38.93H113.941L113.43 40.8409C113.352 41.0263 113.311 41.2255 113.311 41.4268C113.311 41.6281 113.352 41.8273 113.43 42.0127C113.551 42.1648 113.701 42.2907 113.873 42.3827C114.044 42.4747 114.232 42.5309 114.425 42.5478H114.834V43.1593H111.771V42.5478C111.896 42.526 112.014 42.4756 112.116 42.4004C112.218 42.3252 112.301 42.2274 112.358 42.1147C112.585 41.715 112.757 41.2865 112.869 40.8409H112.716ZM115.574 33.1975L114.247 38.0637H116.977L115.574 33.1975ZM123.995 40.4331C123.961 40.9993 124.057 41.5658 124.276 42.0892C124.369 42.2603 124.504 42.4043 124.67 42.5071C124.836 42.6098 125.025 42.6677 125.22 42.6752V43.2866H121.928V42.6752C122.118 42.6634 122.303 42.6035 122.463 42.501C122.624 42.3985 122.756 42.2568 122.847 42.0892C123.078 41.5695 123.174 40.9999 123.127 40.4331V30.9045C122.902 30.4954 122.646 30.1036 122.362 29.7325C122.132 29.4777 121.953 29.3504 121.775 29.3504V28.7389H124.939L130.043 37.9364V31.5924C130.085 31.0282 129.998 30.4618 129.788 29.9363C129.693 29.7668 129.556 29.6241 129.391 29.5216C129.226 29.4191 129.038 29.3603 128.843 29.3504V28.7389H132.11V29.3504C131.918 29.3571 131.732 29.415 131.57 29.518C131.409 29.6211 131.278 29.7655 131.191 29.9363C130.97 30.459 130.874 31.0261 130.91 31.5924V43.6178H130.528L123.969 31.949V40.4331H123.995ZM134.049 40.9682V31.0574C134.077 30.5985 133.98 30.1407 133.768 29.7325C133.655 29.5955 133.51 29.4889 133.345 29.4222C133.18 29.3555 133.001 29.3309 132.824 29.3504H132.697V28.7389H137.8V29.3504C137.624 29.3309 137.445 29.3555 137.28 29.4222C137.115 29.4889 136.97 29.5955 136.856 29.7325C136.654 30.1432 136.565 30.6009 136.601 31.0574V35.6688L139 32.2802C139.638 31.5438 140.1 30.6728 140.352 29.7325C140.352 29.2739 139.995 29.0701 139.229 29.121V28.5096H143.415V29.121C142.964 29.1607 142.533 29.3189 142.164 29.5796C141.705 29.9266 141.308 30.3487 140.99 30.828L138.745 34.0127L142.547 40.7388C142.813 41.1951 143.103 41.6374 143.415 42.0637C143.486 42.1654 143.576 42.2517 143.682 42.3174C143.787 42.383 143.904 42.4267 144.027 42.4458V43.0574H138.923V42.4458H139.076C139.392 42.4858 139.712 42.4039 139.969 42.2166C140.097 42.0637 140.097 41.8089 139.969 41.5031L137.06 36.2292L136.805 36.6115V40.7643C136.765 41.2293 136.853 41.6965 137.06 42.1147C137.175 42.2499 137.321 42.3553 137.485 42.4219C137.65 42.4884 137.828 42.5141 138.005 42.4968H138.158V43.1083H133.054V42.4968H133.182C133.357 42.5164 133.535 42.489 133.696 42.4174C133.858 42.3457 133.997 42.2325 134.1 42.0892C134.317 41.6922 134.415 41.2409 134.381 40.7899L134.049 40.9682Z" fill="#005BAA"/>
<g id="Vector_17">
<path d="M63.4647 50.9554H63.7965H63.822L63.5923 50.4203C63.5349 50.2285 63.4923 50.0326 63.4647 49.8344C63.4399 49.6398 63.4399 49.443 63.4647 49.2484C63.4383 48.9773 63.4383 48.7042 63.4647 48.4331C63.5507 48.1273 63.6617 47.829 63.7965 47.5413H63.5923C63.4348 47.7619 63.3063 48.0017 63.2096 48.2548C63.0843 48.5708 63.0235 48.9086 63.0309 49.2484C62.9957 49.5276 62.9957 49.8099 63.0309 50.0891C63.1392 50.3946 63.2848 50.6856 63.4647 50.9554Z" fill="#005BAA"/>
<path d="M65.9655 50.1911H66.3994L65.3531 47.6433H64.8173L63.7965 50.1911H64.4855L64.6896 49.5797H65.7359L65.9655 50.1911Z" fill="#005BAA"/>
<path d="M68.9257 48.7133V49.1464H69.5126V49.4776L69.2319 49.6305C69.1226 49.6539 69.0095 49.6539 68.9002 49.6305C68.7993 49.6355 68.6985 49.6175 68.6057 49.5778C68.5128 49.538 68.4302 49.4777 68.3642 49.4013C68.2065 49.1987 68.1334 48.943 68.1602 48.6878C68.1472 48.5733 68.1587 48.4574 68.1938 48.3476C68.229 48.2378 68.287 48.1366 68.3642 48.0509C68.4302 47.9745 68.5128 47.9141 68.6057 47.8744C68.6985 47.8347 68.7993 47.8166 68.9002 47.8217C69.0261 47.7923 69.1571 47.7923 69.283 47.8217C69.3868 47.8947 69.4595 48.0037 69.4871 48.1274H70.023C69.9774 47.8959 69.8507 47.6881 69.6657 47.5413C69.4379 47.3956 69.1704 47.3245 68.9002 47.3376C68.6854 47.3276 68.4725 47.3807 68.2878 47.4905C68.0615 47.5801 67.8786 47.7535 67.7774 47.9745C67.6615 48.1946 67.6002 48.4392 67.5987 48.6878C67.5954 48.9259 67.6478 49.1615 67.7518 49.3758C67.8479 49.5894 68.0085 49.7676 68.2111 49.8854C68.4338 49.9922 68.6788 50.0446 68.9257 50.0382C69.1366 50.077 69.3528 50.077 69.5637 50.0382C69.7376 49.9678 69.9008 49.8735 70.0486 49.758V48.7133H68.9257Z" fill="#005BAA"/>
<path d="M70.4312 48.1529C70.3886 48.3717 70.3886 48.5964 70.4312 48.8152L70.3292 48.9172C70.3096 49.2784 70.4282 49.6336 70.661 49.9109C70.787 50.028 70.936 50.1178 71.0985 50.1748C71.261 50.2318 71.4334 50.2546 71.6051 50.2419C71.7752 50.2543 71.9459 50.2288 72.1048 50.1671C72.2637 50.1055 72.4068 50.0092 72.5238 49.8854C72.6406 49.754 72.7302 49.6008 72.7872 49.4346C72.8441 49.2684 72.8673 49.0925 72.8555 48.9172C72.8723 48.7356 72.849 48.5525 72.7873 48.3809C72.7256 48.2092 72.6269 48.0531 72.4982 47.9235C72.3825 47.7965 72.2403 47.6965 72.0816 47.6304C71.9229 47.5644 71.7514 47.5339 71.5796 47.5413C71.3934 47.5148 71.2045 47.5148 71.0183 47.5413C70.8916 47.6031 70.7788 47.6898 70.6865 47.7962C70.5815 47.8995 70.495 48.0202 70.4312 48.1529Z" fill="#005BAA"/>
<path d="M73.1108 47.5923L74.0294 50.1401H74.6163L75.535 47.5923H74.9736L74.3357 49.5286L73.6722 47.5923H73.1108Z" fill="#005BAA"/>
<path d="M76.4027 47.9745V50.1401H76.9131V47.9745H77.6786V47.516H75.6116V47.9745H76.4027Z" fill="#005BAA"/>
<path d="M77.6275 49.6305V50.1401H78.1124V49.6305H77.6275Z" fill="#005BAA"/>
<path d="M79.5414 48.1783C79.4981 48.3969 79.4981 48.622 79.5414 48.8407L79.4138 48.9427C79.4013 49.3073 79.5292 49.6628 79.7711 49.9362C79.8933 50.0514 80.0378 50.1403 80.1959 50.1973C80.3539 50.2543 80.5221 50.2781 80.6898 50.2674C80.8598 50.2798 81.0305 50.2542 81.1894 50.1925C81.3483 50.1308 81.4914 50.0347 81.6084 49.9109C81.7252 49.7795 81.8148 49.6263 81.8718 49.4601C81.9287 49.2939 81.9519 49.118 81.9402 48.9427C81.9539 48.7634 81.9317 48.5831 81.8747 48.4124C81.8178 48.2418 81.7272 48.0843 81.6084 47.949C81.4927 47.822 81.3505 47.722 81.1918 47.6559C81.033 47.5899 80.8616 47.5594 80.6898 47.5668C80.5039 47.5359 80.3143 47.5359 80.1284 47.5668C79.994 47.628 79.8727 47.7146 79.7711 47.8217C79.6662 47.9197 79.5872 48.0422 79.5414 48.1783Z" fill="#005BAA"/>
<path d="M82.5016 47.6178V50.1656L83.012 50.2419V49.1211H84.1093V48.6878H83.012V48.0764H84.288V47.6178H82.5016Z" fill="#005BAA"/>
<path d="M85.717 47.6178V50.1656H86.2528V47.6178H85.717Z" fill="#005BAA"/>
<path d="M86.7377 47.6178V50.1656H87.2481V48.4331L88.2943 50.1656H88.8302V47.6178H88.3453V49.3758L87.2481 47.6178H86.7377Z" fill="#005BAA"/>
<path d="M89.3151 47.6178H89.2895L89.3151 47.5668V47.6178H90.2337H90.7441C90.8942 47.663 91.0274 47.7516 91.1269 47.8725C91.2405 47.9884 91.3275 48.1276 91.3821 48.2803C91.41 48.4831 91.41 48.6888 91.3821 48.8917C91.4121 49.0773 91.4121 49.2665 91.3821 49.4521C91.3413 49.6316 91.2427 49.7928 91.1014 49.9109C91.0081 50.0163 90.8825 50.0879 90.7441 50.1146C90.584 50.1455 90.4194 50.1455 90.2592 50.1146H89.3151V47.6178Z" fill="#005BAA"/>
<path d="M91.8925 47.6942V50.2419H92.4283V47.6942H91.8925Z" fill="#005BAA"/>
<path d="M94.6995 50.2419H95.2865L94.2401 47.6942H93.6788L92.658 50.2419H93.2195L93.4235 49.6305H94.4954L94.6995 50.2419Z" fill="#005BAA"/>
<path d="M96.9706 47.6178H96.4347H96.3327V49.0191C96.3148 49.2395 96.3148 49.4611 96.3327 49.6815C96.358 49.7868 96.4108 49.8835 96.4858 49.9617C96.5641 50.0655 96.6703 50.1451 96.792 50.1911C96.9776 50.2251 97.1679 50.2251 97.3535 50.1911C97.5222 50.2217 97.695 50.2217 97.8637 50.1911C97.9785 50.1445 98.0827 50.0751 98.1699 49.9872C98.251 49.8933 98.3042 49.7785 98.3232 49.656C98.34 49.4355 98.34 49.214 98.3232 48.9936V47.6178H97.8128V49.0701V49.5031C97.8312 49.5785 97.8312 49.6572 97.8128 49.7325C97.6976 49.7755 97.5707 49.7755 97.4555 49.7325C97.3469 49.7617 97.2324 49.7617 97.1238 49.7325C97.0825 49.7024 97.0477 49.6643 97.0214 49.6206C96.9951 49.5768 96.9778 49.5282 96.9706 49.4776C96.9522 49.3339 96.9522 49.1884 96.9706 49.0446V47.6178Z" fill="#005BAA"/>
<path d="M98.9866 47.6178V50.1656L99.5225 50.1401V48.4076L100.543 50.1656H101.079V47.6178H100.569V49.3758L99.497 47.6178H98.9866Z" fill="#005BAA"/>
<path d="M102.483 47.6178H101.538V50.1146H102.508C102.668 50.1455 102.833 50.1455 102.993 50.1146C103.134 50.0942 103.261 50.0215 103.35 49.9109C103.483 49.7858 103.58 49.6273 103.631 49.4521C103.661 49.2665 103.661 49.0773 103.631 48.8917C103.659 48.6888 103.659 48.4831 103.631 48.2803C103.576 48.1276 103.489 47.9884 103.376 47.8725C103.276 47.7516 103.143 47.663 102.993 47.6178H102.483Z" fill="#005BAA"/>
<path d="M104.167 47.6942V50.2419L106.157 50.3185V49.8599H104.703V49.1719H106.004V48.7133H104.703V48.1529H106.106V47.6942H104.167Z" fill="#005BAA"/>
<path d="M106.719 47.6942V50.2419L107.178 50.3695V49.2739H107.484H107.663L107.944 49.656L108.301 50.2419H108.939L108.633 49.7325C108.544 49.579 108.442 49.4339 108.326 49.2993L108.046 49.0701C108.239 49.0633 108.423 48.9809 108.556 48.8407C108.618 48.7769 108.666 48.7009 108.697 48.6176C108.727 48.5342 108.74 48.4453 108.735 48.3566C108.772 48.2232 108.772 48.0824 108.735 47.949C108.666 47.8311 108.557 47.7408 108.428 47.6942C108.234 47.6582 108.036 47.6582 107.842 47.6942H106.719Z" fill="#005BAA"/>
</g>
<path id="Vector_18" d="M38.4566 61.4012L39.3752 60C39.7835 59.3376 40.2683 58.5478 40.8042 57.6306H41.3402C41.4933 58.5478 41.6208 59.3376 41.7229 60C41.7229 60.4076 41.9016 60.8917 42.0037 61.4012L42.1823 62.1147V62.3439H40.9318V61.9108C40.9318 61.9108 40.9318 61.656 40.9318 61.4012V60.9682H40.3705H39.3497L39.1201 61.3759L38.8903 61.7835L38.6352 62.3186H37.8186L38.0228 62.0382L38.4821 61.3759L38.4566 61.4012ZM40.5747 58.8535L39.9621 59.8216L39.707 60.2294H40.2429H40.8042V59.8216L40.6256 58.8535H40.5747ZM47.8219 59.363V59.6179L47.4646 61.2739C47.4485 61.4433 47.4485 61.614 47.4646 61.7835C47.4533 61.9276 47.4533 62.0724 47.4646 62.2165H46.3673C46.3673 62.0127 46.3673 61.8599 46.3673 61.7835L46.4948 61.2739L46.8777 59.6179V59.363H46.5459H46.3163V59.0828C46.3317 58.9986 46.3317 58.9124 46.3163 58.8281H46.8521C46.9376 58.3379 47.1389 57.8749 47.4392 57.4777C47.5431 57.3224 47.6833 57.1949 47.8479 57.1061C48.0124 57.0173 48.1963 56.9699 48.3833 56.9681H48.5874H48.7916C48.7916 57.1465 48.7916 57.274 48.7916 57.4014C48.7916 57.5288 48.7916 57.6561 48.7916 57.8089H48.4854L48.2302 57.6561H47.975C47.936 57.6525 47.8968 57.6571 47.8597 57.6696C47.8226 57.6821 47.7887 57.7022 47.7599 57.7286C47.731 57.7549 47.7079 57.787 47.6923 57.8228C47.6766 57.8586 47.6686 57.8973 47.6687 57.9363C47.616 58.2227 47.616 58.5163 47.6687 58.8026H48.4343C48.4178 58.8867 48.4178 58.9732 48.4343 59.0573C48.4199 59.1502 48.4199 59.2447 48.4343 59.3375H48.2047H47.7454L47.8219 59.363ZM50.1951 61.2739L50.3482 60.5606V59.8726C50.3636 59.7116 50.3636 59.5495 50.3482 59.3886C50.3482 59.3886 50.3482 59.1593 50.3482 58.93H51.3179V59.2867V59.6688C51.3749 59.5358 51.4433 59.4081 51.5221 59.2867C51.6008 59.1598 51.7095 59.054 51.8384 58.9785C51.9674 58.903 52.1127 58.8601 52.2621 58.8535H52.4918V59.8471C52.427 59.7865 52.3508 59.7395 52.2675 59.7089C52.1842 59.6783 52.0956 59.6646 52.0069 59.6688C51.9137 59.6658 51.821 59.685 51.7367 59.7249C51.6524 59.7648 51.5788 59.8242 51.5221 59.8981C51.3702 60.1182 51.2739 60.3716 51.2414 60.6369L51.1139 61.2484C51.1007 61.401 51.1007 61.5544 51.1139 61.707C51.1139 61.707 51.1139 61.9617 51.1139 62.191H50.042C50.042 61.9617 50.1695 61.8344 50.1951 61.7325C50.2206 61.6305 50.1951 61.4777 50.1951 61.2484V61.2739ZM54.3546 61.2739L54.5077 60.5606V59.8726V59.3886C54.5077 59.3886 54.5077 59.1593 54.5077 58.93H55.6305L55.4774 59.3886C55.4435 59.552 55.4009 59.7136 55.3499 59.8726V60.5861L55.1968 61.2739C55.1814 61.4349 55.1814 61.597 55.1968 61.758C55.1968 61.758 55.1968 61.9872 55.1968 62.2165H54.0995C54.0995 61.9872 54.0995 61.8599 54.2526 61.758V61.2739H54.3546ZM55.5541 57.1975C55.6887 57.1994 55.817 57.2544 55.9112 57.3504C55.9613 57.395 56.0011 57.4502 56.0276 57.5118C56.054 57.5734 56.0665 57.6401 56.0643 57.7071C56.0683 57.7743 56.0566 57.8416 56.03 57.9035C56.0035 57.9654 55.9628 58.0202 55.9112 58.0637C55.817 58.1597 55.6887 58.2146 55.5541 58.2165C55.4831 58.219 55.4124 58.2068 55.3464 58.1804C55.2805 58.1541 55.2209 58.1143 55.1712 58.0637C55.1282 57.9486 55.1282 57.8221 55.1712 57.7071C55.1323 57.5914 55.1323 57.4661 55.1712 57.3504C55.2209 57.2997 55.2805 57.2599 55.3464 57.2336C55.4124 57.2073 55.4831 57.195 55.5541 57.1975ZM59.2541 62.293C58.8383 62.2967 58.4369 62.1418 58.1315 61.86C57.9852 61.7338 57.8682 61.5771 57.7888 61.4011C57.7095 61.225 57.6696 61.0338 57.672 60.8408C57.672 60.8408 57.672 60.8408 57.672 60.6369C57.672 60.4331 57.672 60.5095 57.672 60.4586C57.7437 60.012 57.9588 59.6009 58.2846 59.2867C58.59 59.0049 58.9915 58.8498 59.4074 58.8535C59.5808 58.8457 59.7539 58.8733 59.9162 58.9346C60.0786 58.996 60.2268 59.0897 60.3516 59.2102C60.471 59.3356 60.564 59.4837 60.6254 59.6456C60.6867 59.8075 60.7151 59.9799 60.7087 60.1529C60.7213 60.2373 60.7213 60.3233 60.7087 60.4077C60.7231 60.5006 60.7231 60.5951 60.7087 60.6879H58.6928V60.9427C58.6837 61.0668 58.6993 61.1916 58.7388 61.3096C58.7782 61.4277 58.8407 61.5368 58.9225 61.6306C59.0062 61.7122 59.1064 61.7748 59.2164 61.8144C59.3265 61.854 59.4439 61.8696 59.5605 61.86C59.6608 61.887 59.7664 61.887 59.8667 61.86C59.9792 61.8204 60.083 61.7598 60.1729 61.6816L59.9432 62.0637H59.5859L59.2541 62.293ZM59.739 60.3567V60.0255V59.7453C59.7745 59.629 59.7745 59.5048 59.739 59.3886C59.739 59.3886 59.5859 59.2612 59.4583 59.2612C59.3696 59.26 59.2822 59.283 59.2057 59.3279C59.1292 59.3728 59.0666 59.4379 59.0246 59.5159C58.8797 59.7855 58.7846 60.079 58.7439 60.3822H59.739V60.3567ZM62.6992 61.2739L62.8523 60.5606V59.8726V59.363C62.8423 59.2188 62.8423 59.0742 62.8523 58.93H63.8732C63.8732 59.1338 63.873 59.2611 63.7199 59.363C63.8614 59.205 64.0343 59.0782 64.2276 58.9905C64.4209 58.9027 64.6304 58.856 64.8427 58.8535C64.9781 58.8387 65.115 58.8592 65.2402 58.9127C65.3654 58.9663 65.4746 59.0511 65.5573 59.1592C65.6681 59.4373 65.6681 59.7473 65.5573 60.0255L65.2766 61.2739C65.2606 61.4433 65.2606 61.614 65.2766 61.7835C65.2654 61.9276 65.2654 62.0724 65.2766 62.2165H64.2048C64.3834 61.6815 64.4855 61.3249 64.5365 61.1465C64.626 60.8806 64.6943 60.6079 64.7407 60.3312V60.0255C64.7825 59.8841 64.7825 59.7338 64.7407 59.5924C64.7025 59.5413 64.6522 59.5006 64.5943 59.4739C64.5364 59.4472 64.4726 59.4354 64.4089 59.4396C64.2918 59.4444 64.1775 59.477 64.0755 59.5346C63.9734 59.5922 63.8866 59.6731 63.8221 59.7708C63.6399 60.0388 63.5179 60.3429 63.4648 60.6624L63.3372 61.2739C63.3495 61.435 63.3495 61.5968 63.3372 61.758C63.3474 61.9107 63.3474 62.0638 63.3372 62.2165H62.2655C62.3344 62.0588 62.3939 61.8972 62.444 61.7325C62.444 61.7325 62.444 61.4777 62.444 61.2739H62.6992ZM69.0278 62.293C68.8709 62.3002 68.7146 62.2691 68.5724 62.2025C68.4301 62.136 68.3061 62.0358 68.2112 61.9108C67.9975 61.6443 67.8886 61.3091 67.905 60.9682C67.8798 60.4371 68.0424 59.914 68.3643 59.4904C68.4975 59.303 68.6734 59.1499 68.8775 59.0436C69.0816 58.9373 69.308 58.8809 69.5382 58.879C69.7207 58.8702 69.9023 58.9104 70.0639 58.9956C70.2255 59.0807 70.3611 59.2077 70.4568 59.363C70.4568 58.9809 70.6356 58.5477 70.7121 58.0637C70.7887 57.5796 70.7121 57.6561 70.7121 57.5542C70.7121 57.4523 70.7121 57.3248 70.7121 57.1465H71.7839C71.7717 57.2821 71.7717 57.4186 71.7839 57.5542C71.7839 57.5542 71.7839 57.8089 71.7839 58.0637C71.7839 58.3184 71.5031 59.2102 71.401 59.6688C71.2989 60.1274 71.1969 60.6879 71.0948 61.2994C70.9927 61.9108 71.0948 61.7071 71.0948 61.809C71.0948 61.9109 71.0948 62.0382 71.0948 62.242H70.0995C70.0911 62.1403 70.0911 62.0381 70.0995 61.9363V61.809C69.9886 61.9552 69.8462 62.0746 69.6827 62.1584C69.5193 62.2422 69.339 62.2882 69.1554 62.293H69.0278ZM69.7679 59.4141C69.5383 59.4141 69.334 59.5669 69.1554 59.8981C68.9581 60.238 68.8608 60.6266 68.8747 61.0192C68.8163 61.1927 68.8163 61.3805 68.8747 61.5541C68.9108 61.6166 68.963 61.6685 69.0258 61.7043C69.0886 61.7401 69.1597 61.7586 69.232 61.758C69.3337 61.7572 69.4335 61.7313 69.5226 61.6824C69.6117 61.6335 69.6873 61.5631 69.7424 61.4777C69.9033 61.204 70.0074 60.9008 70.0486 60.5861C70.1374 60.2955 70.1374 59.9849 70.0486 59.6943C70.0198 59.6048 69.9609 59.528 69.8818 59.4769C69.8027 59.4258 69.7084 59.4037 69.6148 59.4141H69.7679ZM77.9338 59.8726L76.1985 62.6751L75.9179 63.1592L75.6627 63.6178H74.9481L75.1012 63.4141C75.1012 63.4141 75.331 63.0828 75.6372 62.7006L75.9945 62.1657C75.9945 61.5542 75.8413 61.0192 75.7648 60.5861L75.6116 59.8726C75.6116 59.5414 75.6116 59.3121 75.6116 59.2357V58.9555H76.5558C76.5558 59.1848 76.5558 59.3631 76.5558 59.4651C76.5479 59.6008 76.5479 59.7369 76.5558 59.8726C76.5558 60.1529 76.5558 60.3821 76.5558 60.6114V61.07L77.2449 59.8726L77.4489 59.5414L77.7551 58.9555H78.3931L78.24 59.1592L77.7807 59.8726H77.9338ZM81.532 62.4204C81.1313 62.4341 80.7399 62.2977 80.4347 62.0382C80.2977 61.9073 80.1902 61.7487 80.1198 61.5729C80.0493 61.3971 80.0175 61.2083 80.0263 61.0192V60.8153C80.0209 60.739 80.0209 60.6624 80.0263 60.5861C80.1021 60.1375 80.3491 59.7356 80.7154 59.4651C81.0534 59.1641 81.4874 58.9925 81.9402 58.981C82.3443 58.9743 82.736 59.1198 83.0375 59.3886C83.1739 59.5145 83.2811 59.6687 83.3516 59.8403C83.4222 60.0119 83.4544 60.1969 83.4459 60.3822C83.4458 60.6113 83.4457 60.6112 83.4457 60.8402C83.3542 61.2832 83.1105 61.6799 82.7568 61.9618C82.4163 62.2555 81.982 62.4181 81.532 62.4204ZM81.532 62.0382C81.6412 62.0297 81.7462 61.9922 81.836 61.9295C81.9258 61.8667 81.9971 61.7812 82.0424 61.6816C82.2174 61.3846 82.3303 61.0552 82.3741 60.7134V60.3567V60.0765C82.3802 59.89 82.3361 59.7052 82.2464 59.5414C82.1924 59.4808 82.1253 59.4333 82.0502 59.4024C81.975 59.3715 81.8938 59.358 81.8127 59.363C81.7048 59.3763 81.602 59.4158 81.513 59.478C81.424 59.5402 81.3516 59.6232 81.3022 59.7198C81.1254 60.0274 81.0044 60.3638 80.945 60.7134C80.945 60.7134 80.945 60.9428 80.945 61.0447C80.945 61.1466 80.945 61.2485 80.945 61.3504C80.9283 61.5336 80.9833 61.7162 81.0982 61.86C81.1522 61.9206 81.2193 61.9681 81.2945 61.999C81.3696 62.0299 81.4509 62.0432 81.532 62.0382ZM86.6357 60L86.4826 60.7134V61.3249C86.4511 61.3882 86.4346 61.458 86.4346 61.5287C86.4346 61.5995 86.4511 61.6691 86.4826 61.7325C86.5348 61.7556 86.5913 61.7676 86.6485 61.7676C86.7056 61.7676 86.7621 61.7556 86.8144 61.7325C86.9267 61.7233 87.0347 61.6859 87.1285 61.6234C87.2223 61.561 87.2985 61.4759 87.3501 61.3759C87.5341 61.0809 87.6557 60.7514 87.7074 60.4077V59.8726C87.7243 59.7202 87.7243 59.5665 87.7074 59.4141C87.7074 59.4141 87.7074 59.1593 87.7074 58.93H88.7792L88.6261 59.3886V59.8726L88.473 60.5861L88.3454 61.2739V61.758C88.3454 61.758 88.3454 62.0127 88.3454 62.2165H87.3246L87.4779 61.758C87.3392 61.9129 87.1703 62.038 86.9816 62.1256C86.793 62.2132 86.5884 62.2615 86.3804 62.2675C86.2661 62.2825 86.1501 62.2723 86.0401 62.2377C85.9302 62.2031 85.8291 62.1449 85.744 62.0673C85.6589 61.9896 85.5918 61.8944 85.5475 61.7881C85.5031 61.6819 85.4826 61.5672 85.4873 61.4522C85.4766 61.3336 85.4766 61.2142 85.4873 61.0955V60.5351L85.6404 59.8471C85.6404 59.6178 85.6404 59.465 85.6404 59.363C85.6404 59.2611 85.6404 59.1083 85.6404 58.9045H86.7377C86.7454 59.0232 86.7454 59.1424 86.7377 59.2612L86.5846 59.8471L86.6357 60ZM95.261 61.9108L95.0313 62.293H94.674H94.4188C94.2043 62.3014 93.9901 62.2675 93.7887 62.1932C93.5872 62.1189 93.4025 62.0057 93.2449 61.86C93.092 61.7065 92.9724 61.5232 92.8934 61.3216C92.8144 61.12 92.7777 60.9043 92.7856 60.6879C92.7791 60.446 92.8234 60.2053 92.9157 59.9815C93.008 59.7577 93.1463 59.5557 93.3216 59.3886C93.5025 59.2102 93.7182 59.0707 93.9552 58.9786C94.1922 58.8866 94.4454 58.844 94.6995 58.8535C94.9433 58.854 95.1852 58.8973 95.4141 58.981C95.6216 59.04 95.8133 59.1445 95.9754 59.2867L95.7968 59.6179L95.6181 59.9236H95.465C95.43 59.7303 95.3516 59.5473 95.2355 59.3886C95.1733 59.3332 95.1006 59.2912 95.0216 59.2649C94.9426 59.2386 94.8591 59.2287 94.7761 59.2357C94.6278 59.231 94.4812 59.2694 94.3544 59.3463C94.2275 59.4232 94.1258 59.5352 94.0616 59.6688C93.8441 59.9916 93.7368 60.3757 93.7553 60.7643C93.7339 61.0742 93.8246 61.3816 94.0106 61.6306C94.0975 61.7254 94.2042 61.7997 94.3234 61.8482C94.4425 61.8966 94.571 61.918 94.6995 61.9108C94.7829 61.9349 94.8714 61.9349 94.9548 61.9108C95.0717 61.8815 95.1779 61.8196 95.261 61.7325V61.9108ZM98.2466 62.4204C98.1204 62.4276 97.994 62.4086 97.8755 62.3647C97.7569 62.3209 97.6487 62.2532 97.5576 62.1657C97.4672 62.0919 97.3949 61.9983 97.3462 61.8923C97.2976 61.7863 97.2739 61.6706 97.2769 61.5541C97.2732 61.4065 97.3009 61.26 97.3581 61.1238C97.4152 60.9877 97.5006 60.8651 97.6087 60.7643C97.8736 60.5381 98.2049 60.404 98.5528 60.3822H99.1397H99.2928C99.3127 60.3332 99.3127 60.2784 99.2928 60.2294C99.3341 60.0966 99.3341 59.9544 99.2928 59.8216C99.2324 59.7468 99.1537 59.6888 99.0643 59.6531C98.975 59.6174 98.878 59.6054 98.7826 59.6179C98.5228 59.6308 98.2772 59.7398 98.0935 59.9236V59.4396C98.4438 59.2166 98.8521 59.1014 99.2674 59.1083C99.4235 59.0949 99.5806 59.1128 99.7296 59.1609C99.8786 59.209 100.016 59.2864 100.135 59.3886C100.261 59.5376 100.325 59.7291 100.314 59.9236C100.326 60.0081 100.326 60.0939 100.314 60.1784L99.9819 61.809C99.9617 61.8484 99.9512 61.892 99.9512 61.9363C99.9512 61.9806 99.9617 62.0242 99.9819 62.0637C100.004 62.0802 100.031 62.0892 100.059 62.0892C100.086 62.0892 100.113 62.0802 100.135 62.0637V62.293C99.9758 62.3967 99.7892 62.4499 99.5992 62.4459C99.5283 62.4484 99.4575 62.4362 99.3916 62.4098C99.3257 62.3835 99.266 62.3437 99.2164 62.293C99.1059 62.2104 99.0253 62.0941 98.9866 61.9618L98.8591 62.1147C98.6702 62.3096 98.4156 62.4276 98.1446 62.4459L98.2466 62.4204ZM99.0888 61.3504L99.2419 60.6369H99.0377C98.8244 60.6453 98.623 60.7369 98.4764 60.8918C98.3365 61.0643 98.2639 61.2815 98.2722 61.5032C98.2325 61.6013 98.2325 61.7109 98.2722 61.809C98.3156 61.8313 98.3637 61.843 98.4125 61.843C98.4613 61.843 98.5094 61.8313 98.5528 61.809C98.6079 61.8052 98.6616 61.7896 98.71 61.7632C98.7585 61.7369 98.8005 61.7003 98.8335 61.6561C98.9146 61.5242 98.9668 61.3766 98.9866 61.223L99.0888 61.3504ZM102.432 61.3504L102.585 60.6369V59.9491C102.599 59.7796 102.599 59.6091 102.585 59.4396C102.601 59.2956 102.601 59.1502 102.585 59.0063H103.631L103.452 59.4396C103.589 59.2822 103.757 59.1554 103.947 59.0676C104.136 58.9798 104.341 58.9329 104.55 58.93C104.689 58.9156 104.829 58.936 104.959 58.9894C105.088 59.0428 105.202 59.1274 105.29 59.2357C105.401 59.5138 105.401 59.8239 105.29 60.102L105.035 61.3504V61.86C105.035 61.86 105.035 62.0892 105.035 62.293H103.963C104.141 61.758 104.243 61.4014 104.295 61.223C104.373 60.9558 104.433 60.6833 104.473 60.4077V60.102C104.507 60.0348 104.524 59.9606 104.524 59.8854C104.524 59.8102 104.507 59.736 104.473 59.6688C104.437 59.6158 104.387 59.5738 104.328 59.5469C104.27 59.5199 104.205 59.5092 104.141 59.5159C104.028 59.5227 103.918 59.5563 103.821 59.6139C103.723 59.6715 103.641 59.7514 103.58 59.8471C103.398 60.1151 103.276 60.4194 103.223 60.7389V61.3504C103.209 61.5115 103.209 61.6734 103.223 61.8345C103.223 61.8345 103.223 62.0892 103.223 62.293H102.074L102.228 61.809C102.241 61.6564 102.241 61.503 102.228 61.3504H102.432ZM110.24 58.1147C110.255 57.9451 110.255 57.7746 110.24 57.6051C110.24 57.6051 110.24 57.3759 110.24 57.1975H111.363C111.302 57.3294 111.251 57.4656 111.21 57.6051C111.21 57.6051 111.21 57.8599 111.21 58.1147C111.21 58.3694 111.031 58.93 110.955 59.2867C111.171 59.0675 111.463 58.9397 111.771 58.93C112.093 58.9251 112.403 59.0437 112.639 59.2612C112.853 59.5175 112.963 59.845 112.945 60.1784C112.958 60.2713 112.958 60.3656 112.945 60.4586C112.945 60.4586 112.945 60.6624 112.945 60.7643C112.856 61.1974 112.644 61.5956 112.333 61.9108C112.207 62.0512 112.054 62.1642 111.883 62.2431C111.712 62.322 111.526 62.365 111.338 62.3694C111.143 62.3862 110.946 62.3529 110.767 62.2727C110.589 62.1924 110.434 62.0678 110.317 61.9108L109.628 62.3949H109.475C109.73 61.4268 109.909 60.586 110.062 59.8471C110.215 59.1083 110.266 58.828 110.368 58.2165L110.24 58.1147ZM111.057 61.9873C111.236 61.9873 111.389 61.9873 111.542 61.6306C111.717 61.3868 111.838 61.1091 111.899 60.8153C111.91 60.6966 111.91 60.5772 111.899 60.4586C111.911 60.3655 111.911 60.2714 111.899 60.1784C111.95 60.0123 111.95 59.8348 111.899 59.6688C111.862 59.6091 111.809 59.5609 111.746 59.5294C111.683 59.498 111.612 59.4844 111.542 59.4904C111.434 59.4942 111.329 59.5241 111.236 59.5773C111.143 59.6306 111.064 59.7056 111.006 59.7961C110.816 60.0788 110.694 60.4015 110.649 60.7389C110.571 61.0484 110.571 61.3722 110.649 61.6816C110.678 61.7779 110.74 61.8609 110.823 61.9167C110.907 61.9725 111.008 61.9975 111.108 61.9873H111.057ZM115.676 62.3694C115.55 62.3766 115.423 62.3577 115.305 62.3139C115.186 62.27 115.078 62.2022 114.987 62.1147C114.901 62.0384 114.834 61.9439 114.789 61.838C114.745 61.7322 114.726 61.6178 114.732 61.5032C114.723 61.3574 114.746 61.2113 114.799 61.075C114.852 60.9387 114.933 60.8155 115.038 60.7134C115.313 60.4869 115.652 60.353 116.008 60.3312H116.569H116.722C116.736 60.308 116.743 60.2817 116.743 60.2549C116.743 60.228 116.736 60.2016 116.722 60.1784C116.763 60.0456 116.763 59.9035 116.722 59.7708C116.66 59.6978 116.581 59.641 116.492 59.6055C116.403 59.57 116.307 59.5567 116.212 59.5669C115.944 59.5784 115.69 59.6871 115.497 59.8726V59.3886C115.848 59.1656 116.256 59.0504 116.671 59.0573C116.823 59.0459 116.976 59.0649 117.12 59.113C117.265 59.1611 117.398 59.2374 117.513 59.3375C117.648 59.4827 117.721 59.6746 117.717 59.8726C117.717 59.8726 117.717 60.0509 117.717 60.1273L117.386 61.758C117.36 61.841 117.36 61.9298 117.386 62.0128C117.413 62.0285 117.443 62.0366 117.475 62.0366C117.506 62.0366 117.537 62.0285 117.564 62.0128V62.242C117.396 62.3463 117.201 62.3994 117.003 62.3949C116.866 62.3879 116.735 62.337 116.629 62.2498C116.523 62.1626 116.449 62.0438 116.416 61.9108V62.0637C116.221 62.2644 115.956 62.3829 115.676 62.3949V62.3694ZM116.543 61.2994L116.697 60.5861H116.467C116.365 60.5908 116.265 60.6157 116.173 60.6595C116.081 60.7032 115.999 60.7649 115.931 60.8408C115.791 61.0133 115.719 61.2305 115.727 61.4522C115.687 61.5503 115.687 61.6599 115.727 61.758C115.767 61.7763 115.811 61.7858 115.855 61.7858C115.899 61.7858 115.942 61.7763 115.982 61.758C116.038 61.7582 116.093 61.7443 116.142 61.7175C116.191 61.6908 116.233 61.6521 116.263 61.6051C116.352 61.4749 116.413 61.3273 116.441 61.172L116.543 61.2994ZM119.861 61.2994L120.039 60.5861L120.167 59.8981C120.156 59.7285 120.156 59.5582 120.167 59.3886C120.167 59.3886 120.167 59.1593 120.167 58.9555H121.188C121.188 59.1593 121.188 59.2866 121.035 59.3886C121.17 59.23 121.339 59.1023 121.528 59.0144C121.717 58.9265 121.923 58.8803 122.132 58.879C122.267 58.8642 122.404 58.8847 122.529 58.9382C122.655 58.9918 122.764 59.0766 122.847 59.1847C122.909 59.3207 122.941 59.4685 122.941 59.6179C122.941 59.7674 122.909 59.915 122.847 60.051L122.591 61.2994V61.809C122.584 61.9532 122.584 62.0978 122.591 62.242H121.52C121.673 61.707 121.8 61.3504 121.851 61.172C121.902 60.9937 121.851 60.7134 122.03 60.3567V60.051C122.085 59.9119 122.085 59.757 122.03 59.6179C121.992 59.5669 121.942 59.5261 121.884 59.4994C121.826 59.4727 121.762 59.4609 121.698 59.4651C121.584 59.4673 121.472 59.4989 121.374 59.557C121.276 59.615 121.194 59.6973 121.137 59.7961C120.935 60.0561 120.804 60.3631 120.754 60.6879V61.2994C120.74 61.4604 120.74 61.6224 120.754 61.7835C120.738 61.9359 120.738 62.0896 120.754 62.242H119.682L119.835 61.758C119.846 61.6053 119.846 61.4521 119.835 61.2994H119.861ZM126.087 61.2994C126.099 61.469 126.099 61.6393 126.087 61.809C126.087 61.809 126.087 62.0382 126.087 62.242H124.965C124.965 62.0382 124.965 61.9109 125.118 61.809C125.271 61.7071 125.118 61.5542 125.118 61.2994C125.118 61.0446 125.373 60.1529 125.475 59.6943C125.577 59.2357 125.679 58.6751 125.781 58.0637C125.795 57.8941 125.795 57.7238 125.781 57.5542C125.781 57.5542 125.781 57.3248 125.781 57.1465H126.878V57.5542C126.878 57.5542 126.878 57.8089 126.751 58.0637C126.623 58.3184 126.47 59.2102 126.394 59.6688L126.24 60.3312L126.649 59.9491C126.819 59.8243 126.974 59.6787 127.108 59.5159C127.273 59.366 127.426 59.2042 127.567 59.0318H128.41L128.078 59.2867L127.287 59.9491L127.083 60.1529L126.878 60.3312V60.5861L127.185 61.3504C127.338 61.7071 127.44 61.9109 127.491 62.0128C127.481 62.106 127.481 62.1999 127.491 62.293H126.368C126.381 62.166 126.381 62.0379 126.368 61.9108C126.318 61.7211 126.259 61.5341 126.19 61.3504C126.19 61.172 126.062 60.9936 125.985 60.7898L125.858 61.4267L126.087 61.2994ZM133.156 59.8981L133.003 60.6114V61.223C132.971 61.2864 132.955 61.356 132.955 61.4267C132.955 61.4975 132.971 61.5673 133.003 61.6306C133.055 61.6538 133.112 61.6657 133.169 61.6657C133.226 61.6657 133.283 61.6538 133.335 61.6306C133.447 61.6215 133.555 61.584 133.649 61.5216C133.743 61.4592 133.819 61.3739 133.871 61.2739C134.055 60.9789 134.176 60.6494 134.228 60.3057V59.7708C134.245 59.6184 134.245 59.4646 134.228 59.3122C134.228 59.3122 134.228 59.0574 134.228 58.8281H135.3C135.264 58.9858 135.213 59.1394 135.147 59.2867V59.7708L134.993 60.4841V61.172V61.6561C135.004 61.8088 135.004 61.962 134.993 62.1147H133.973L134.126 61.6561C133.987 61.811 133.818 61.9361 133.63 62.0237C133.441 62.1113 133.236 62.1597 133.029 62.1657C132.914 62.1806 132.798 62.1704 132.688 62.1358C132.578 62.1012 132.477 62.0431 132.392 61.9654C132.307 61.8877 132.24 61.7925 132.196 61.6863C132.151 61.58 132.131 61.4654 132.135 61.3504C132.125 61.2317 132.125 61.1123 132.135 60.9937V60.4331L132.289 59.7453C132.304 59.5843 132.304 59.4222 132.289 59.2612C132.304 59.1087 132.304 58.9551 132.289 58.8026H133.386C133.393 58.9214 133.393 59.0404 133.386 59.1592C133.386 59.1592 133.386 59.4395 133.233 59.7453L133.156 59.8981ZM137.596 59.8981C137.596 59.6434 137.596 59.4905 137.596 59.3886C137.596 59.2866 137.596 59.1593 137.596 58.9555H138.566C138.566 59.1338 138.566 59.2356 138.438 59.3375C138.556 59.1898 138.702 59.0681 138.869 58.9804C139.036 58.8926 139.22 58.8408 139.408 58.8281C139.562 58.8256 139.714 58.8561 139.855 58.9177C139.996 58.9792 140.122 59.0702 140.225 59.1847C140.435 59.4434 140.543 59.7694 140.531 60.102V60.3822C140.531 60.3822 140.531 60.5605 140.531 60.6624C140.446 61.0841 140.242 61.4729 139.944 61.7835C139.831 61.9271 139.688 62.0447 139.525 62.1282C139.362 62.2117 139.183 62.2592 139 62.2675C138.809 62.283 138.618 62.2461 138.447 62.1607C138.276 62.0754 138.132 61.9449 138.03 61.7835L137.877 62.6498C137.864 62.8194 137.864 62.9896 137.877 63.1592C137.877 63.1592 137.877 63.3886 137.877 63.5924H136.831V63.1592C136.84 62.9895 136.84 62.8195 136.831 62.6498C136.958 62.1402 137.06 61.6815 137.137 61.2484C137.214 60.8153 137.316 60.3567 137.418 59.8471L137.596 59.8981ZM138.745 61.7835C138.85 61.7729 138.951 61.7374 139.04 61.6797C139.129 61.6221 139.203 61.5441 139.255 61.4522C139.422 61.1672 139.542 60.8577 139.612 60.5351C139.624 60.442 139.624 60.3479 139.612 60.2549C139.624 60.1788 139.624 60.1015 139.612 60.0255C139.659 59.8849 139.659 59.733 139.612 59.5924C139.573 59.543 139.522 59.5034 139.465 59.4769C139.407 59.4503 139.344 59.4376 139.281 59.4396C139.174 59.4333 139.068 59.456 138.974 59.5053C138.879 59.5547 138.8 59.6289 138.745 59.7198C138.558 59.9853 138.435 60.2905 138.387 60.6114C138.299 60.8935 138.299 61.1957 138.387 61.4777C138.406 61.5699 138.458 61.6521 138.533 61.7085C138.608 61.7649 138.702 61.7916 138.796 61.7835H138.745ZM144.027 62.3186C143.626 62.3374 143.232 62.2004 142.93 61.9363C142.789 61.8067 142.678 61.6489 142.603 61.4732C142.529 61.2976 142.492 61.108 142.496 60.9172C142.485 60.8497 142.485 60.7809 142.496 60.7134C142.496 60.7134 142.496 60.535 142.496 60.4841C142.592 60.0432 142.834 59.6478 143.185 59.363C143.525 59.0658 143.958 58.8948 144.41 58.879C144.815 58.8671 145.208 59.0134 145.507 59.2867C145.644 59.4126 145.751 59.5668 145.821 59.7384C145.892 59.9101 145.924 60.0949 145.915 60.2802V60.5096C145.927 60.5855 145.927 60.663 145.915 60.7389C145.82 61.1736 145.583 61.5644 145.241 61.8502C144.899 62.136 144.472 62.3007 144.027 62.3186ZM144.027 61.9363C144.206 61.9363 144.359 61.9363 144.512 61.5796C144.685 61.2792 144.805 60.9519 144.869 60.6114C144.869 60.484 144.869 60.3823 144.869 60.2549C144.881 60.1618 144.881 60.0676 144.869 59.9745C144.88 59.784 144.826 59.5954 144.716 59.4396C144.665 59.3756 144.598 59.3257 144.522 59.2945C144.446 59.2633 144.364 59.2518 144.282 59.2612C144.104 59.2612 143.951 59.3886 143.772 59.6179C143.604 59.9274 143.492 60.2635 143.44 60.6114C143.428 60.7215 143.428 60.8326 143.44 60.9427C143.429 61.0442 143.429 61.1468 143.44 61.2484C143.423 61.4316 143.478 61.6142 143.593 61.758C143.643 61.8239 143.709 61.8752 143.786 61.9066C143.862 61.938 143.945 61.9483 144.027 61.9363Z" fill="#005BAA"/>
<path id="Vector_19" d="M148.008 61.4013L148.161 60.688L148.314 60C148.302 59.8304 148.302 59.6601 148.314 59.4904C148.314 59.4904 148.314 59.2612 148.314 59.0573H149.335C149.335 59.2612 149.335 59.3885 149.182 59.4904C149.323 59.3324 149.496 59.2056 149.69 59.1178C149.883 59.0301 150.092 58.9836 150.305 58.981C150.44 58.9662 150.577 58.9865 150.702 59.0401C150.827 59.0936 150.936 59.1787 151.019 59.2867C151.081 59.4227 151.113 59.5704 151.113 59.7198C151.113 59.8692 151.081 60.0169 151.019 60.1529L150.764 61.4013C150.751 61.5709 150.751 61.7412 150.764 61.9108C150.756 62.0551 150.756 62.1996 150.764 62.3439H149.667C149.845 61.8089 149.973 61.4522 150.024 61.2739C150.075 61.0956 150.024 60.8153 150.202 60.4586V60.1529C150.258 60.0138 150.258 59.8589 150.202 59.7198C150.164 59.6687 150.114 59.628 150.056 59.6013C149.998 59.5746 149.934 59.5628 149.871 59.5669C149.757 59.5692 149.645 59.6008 149.546 59.6588C149.448 59.7169 149.367 59.7994 149.309 59.8982C149.108 60.1581 148.976 60.465 148.927 60.7898V61.4013C148.913 61.5623 148.913 61.7243 148.927 61.8853C148.927 61.8853 148.927 62.1401 148.927 62.3439H147.88L148.033 61.86C148.044 61.7073 148.044 61.5539 148.033 61.4013H148.008Z" fill="#005BAA"/>
<path id="Vector_20" fill-rule="evenodd" clip-rule="evenodd" d="M36.0833 53.7325H149.258V54.4459H36.0833V53.7325Z" fill="#005BAA"/>
</g>
<defs>
<clipPath id="clip0_4_1146">
<rect width="155" height="72" fill="white"/>
</clipPath>
</defs>
</svg>
