<svg width="127" height="24" viewBox="0 0 127 24" fill="none" xmlns="http://www.w3.org/2000/svg">
<path d="M0 -0.000244141C0.677201 0.285669 1.12174 2.03454 1.12174 2.03454L5.32174 16.6432C5.80591 18.4714 7.33774 19.4345 9.05218 19.4345H18.2609C17.6014 19.3166 16.8783 17.3737 16.8783 17.3737L12.2087 2.84323C11.5367 0.623756 10.4035 -0.000244141 8.68696 -0.000244141H0ZM38.9739 -0.000244141C37.2532 -0.000244141 36.1398 0.623756 35.4783 2.84323L30.7826 17.3737C30.7826 17.3737 30.0668 19.3166 29.4 19.4345H38.6087C40.3315 19.4345 41.8487 18.4714 42.3391 16.6432L46.5391 2.03454C46.5391 2.03454 46.9972 0.285669 47.687 -0.000244141H38.9739ZM18.7304 0.104104V19.4345H28.9826V0.104104H18.7304Z" fill="#ED1A3A"/>
<path d="M79.2782 4.3562L75.2347 4.74751V6.88664H73.5912V9.02577H75.2347V15.6258C75.2347 16.664 75.4309 17.4425 75.7825 17.9736C76.1551 18.5204 76.6799 18.9409 77.3999 19.2519C78.1189 19.5753 79.1405 19.7214 80.4521 19.7214C81.0083 19.7214 81.7596 19.6233 82.7217 19.3823V17.2953C82.2479 17.3882 81.841 17.4519 81.4956 17.4519C80.7672 17.4519 80.2027 17.3006 79.826 16.9823C79.4514 16.6692 79.2782 16.0588 79.2782 15.1562V9.02577H82.4608V6.88664H79.2782V4.3562ZM53.3217 6.59968C51.7721 6.59968 50.4625 6.88664 49.4086 7.46055C48.3485 8.03133 47.5637 8.81185 47.0086 9.80838C46.4535 10.8059 46.1738 11.9037 46.1738 13.0692C46.1738 14.3339 46.4921 15.5235 47.139 16.591C47.7891 17.6679 48.7377 18.4494 49.9564 18.9649C51.1658 19.4772 52.5745 19.7214 54.1825 19.7214C55.8907 19.7214 57.6782 19.496 59.5825 19.0171V16.6692C57.9025 17.1691 56.3832 17.4258 55.0434 17.4258C53.9978 17.4258 53.186 17.2682 52.5651 16.9823C51.9464 16.6964 51.4403 16.3197 51.0782 15.8345C50.715 15.3492 50.4959 14.6752 50.3999 13.8258H59.6347C59.5992 11.048 59.0274 9.16246 57.8869 8.13881C56.7558 7.11933 55.227 6.59968 53.3217 6.59968ZM67.4086 6.59968C65.3279 6.59968 63.7804 6.95238 62.7651 7.66925C61.7488 8.37046 61.2521 9.27516 61.2521 10.3562C61.2521 11.2661 61.5631 11.9851 62.2434 12.5475C62.9091 13.1266 63.9662 13.6651 65.3738 14.1388L66.7304 14.5823C67.4211 14.8046 67.922 15.055 68.2695 15.2866C68.6013 15.536 68.7651 15.8376 68.7651 16.1997C68.7651 16.6077 68.5356 16.9207 68.0869 17.191C67.6413 17.4581 67.0299 17.6084 66.2869 17.6084C64.873 17.6084 63.1763 17.2526 61.1738 16.5649V19.0432C63.0124 19.4981 64.8156 19.7214 66.5738 19.7214C68.6378 19.7214 70.2083 19.3186 71.2956 18.5214C72.3756 17.7273 72.913 16.8143 72.913 15.7562C72.913 14.9517 72.6145 14.2536 72.026 13.6692C71.425 13.0901 70.1728 12.4953 68.2434 11.8692L67.0695 11.4779C66.3693 11.2609 65.8893 11.0512 65.6347 10.8258C65.3613 10.592 65.2173 10.3103 65.2173 10.0171C65.2173 9.63516 65.4229 9.33881 65.8434 9.10403C66.2566 8.86507 66.8869 8.73881 67.7217 8.73881C68.7944 8.73881 70.1415 8.95585 71.7651 9.39099V7.04316C70.081 6.74368 68.6295 6.59968 67.4086 6.59968ZM93.5217 6.59968C92.4208 6.59968 91.4535 6.83133 90.6521 7.27794C89.8497 7.73498 89.2048 8.38612 88.6956 9.28664V6.88664H84.6521V23.9997H88.6956V18.1301C89.2392 18.5892 89.7224 18.9305 90.1304 19.1214C90.5467 19.3207 90.9537 19.4846 91.4086 19.591C91.8542 19.6943 92.3665 19.7214 92.8956 19.7214C94.8897 19.7214 96.4267 19.0578 97.5391 17.7388C98.6483 16.4261 99.2086 14.8004 99.2086 12.8345C99.2086 10.9698 98.7161 9.46403 97.7217 8.32142C96.7293 7.17777 95.3248 6.59968 93.5217 6.59968ZM106.774 6.59968C104.962 6.59968 103.149 6.89916 101.322 7.48664V9.83446C102.924 9.08942 104.506 8.71272 106.043 8.71272C106.823 8.71272 107.469 8.84316 107.974 9.10403C108.488 9.37325 108.73 9.89707 108.73 10.6692V11.791H107.661C104.964 11.791 103.024 12.1969 101.817 13.0171C100.623 13.8477 100.017 14.8891 100.017 16.1214C100.017 17.1305 100.42 17.9705 101.217 18.6779C102.023 19.3719 103.092 19.7214 104.426 19.7214C104.944 19.7214 105.424 19.6661 105.887 19.5649C106.345 19.4585 106.795 19.3301 107.217 19.1214C107.641 18.9106 108.166 18.5778 108.756 18.104H108.913C109.197 18.7719 109.63 19.1997 110.165 19.4084C110.703 19.6223 111.344 19.7214 112.096 19.7214C112.754 19.7214 113.509 19.6306 114.365 19.4084L114.313 17.504C114.089 17.5291 113.89 17.5301 113.739 17.5301C113.49 17.5301 113.236 17.4508 112.983 17.2953C112.733 17.1492 112.617 16.7548 112.617 16.0692V10.5127C112.617 9.46194 112.348 8.68977 111.835 8.1649C111.312 7.63794 110.618 7.24559 109.748 6.99098C108.875 6.74055 107.874 6.59968 106.774 6.59968ZM122.713 6.59968C120.112 6.59968 118.106 7.21429 116.765 8.42577C115.418 9.63725 114.756 11.2192 114.756 13.1475C114.756 14.9955 115.387 16.568 116.661 17.8432C117.931 19.1006 119.841 19.7214 122.374 19.7214C123.8 19.7214 125.339 19.5513 126.991 19.1736V16.8258C125.736 17.2327 124.524 17.4519 123.339 17.4519C122.521 17.4519 121.777 17.2776 121.122 16.9562C120.468 16.6317 119.968 16.1235 119.609 15.4171C119.239 14.7117 119.061 13.9426 119.061 13.1214C119.061 12.0654 119.369 11.0835 120 10.1997C120.631 9.31272 121.631 8.89533 123 8.89533C123.966 8.89533 125.265 9.11655 126.887 9.57359V7.09533C125.312 6.75829 123.923 6.59968 122.713 6.59968ZM53.1912 8.73881C53.9081 8.73881 54.4924 8.97777 54.939 9.46925C55.3908 9.95864 55.6173 10.7642 55.6173 11.8953H50.3477C50.474 10.8592 50.7881 10.087 51.2869 9.54751C51.7888 9.00907 52.4211 8.73881 53.1912 8.73881ZM92.0347 9.28664C92.9582 9.28664 93.6531 9.64768 94.1478 10.3301C94.6486 11.0105 94.9043 11.9465 94.9043 13.1214C94.9043 14.2724 94.6434 15.2772 94.1217 16.1736C93.5999 17.0626 92.8215 17.504 91.7477 17.504C91.2448 17.504 90.7439 17.4091 90.2608 17.2171C89.7735 17.0199 89.2528 16.6536 88.6956 16.1214V11.191C89.187 10.6014 89.7077 10.1433 90.2869 9.80838C90.8712 9.46716 91.4639 9.28664 92.0347 9.28664ZM107.791 13.7475H108.73V16.2779C108.239 16.6557 107.755 16.9239 107.269 17.1127C106.785 17.3099 106.303 17.4258 105.835 17.4258C105.313 17.4258 104.871 17.2619 104.478 16.9562C104.101 16.6494 103.904 16.2654 103.904 15.7823C103.904 15.1969 104.233 14.7086 104.869 14.3214C105.51 13.9364 106.481 13.7475 107.791 13.7475Z" fill="#2D373C"/>
</svg>
