<svg width="29" height="24" viewBox="0 0 29 24" fill="none" xmlns="http://www.w3.org/2000/svg">
<g clip-path="url(#clip0_45_4291)">
<path d="M22.5738 8.58134C22.5738 10.2788 22.0704 11.9382 21.1272 13.3495C20.1841 14.7609 18.8435 15.8608 17.2751 16.5102C15.7068 17.1595 13.9811 17.3292 12.3163 16.9977C10.6515 16.6662 9.12238 15.8484 7.92242 14.6477C6.72246 13.4471 5.90552 11.9175 5.57495 10.2525C5.24438 8.58756 5.41501 6.86194 6.06528 5.29394C6.71555 3.72594 7.81623 2.38602 9.2281 1.44365C10.64 0.501279 12.2996 -0.00120478 13.9971 -0.000242762C16.2723 0.00072444 18.454 0.905317 20.0624 2.51461C21.6708 4.1239 22.5741 6.30611 22.5738 8.58134Z" fill="white"/>
<path d="M14.0031 16.7604C15.6199 16.7599 17.2003 16.2801 18.5444 15.3815C19.8885 14.4829 20.936 13.206 21.5544 11.7121C22.1729 10.2183 22.3345 8.57461 22.0189 6.98892C21.7033 5.40322 20.9245 3.94671 19.7812 2.80355C18.6379 1.66038 17.1812 0.881881 15.5955 0.566488C14.0098 0.251094 12.3661 0.412964 10.8723 1.03163C9.37858 1.6503 8.10181 2.69799 7.20344 4.04223C6.30506 5.38647 5.82544 6.9669 5.8252 8.5837C5.82472 9.65772 6.03592 10.7213 6.44675 11.7136C6.85757 12.706 7.45996 13.6076 8.21946 14.367C8.97896 15.1264 9.88068 15.7286 10.8731 16.1393C11.8655 16.55 12.9291 16.761 14.0031 16.7604Z" fill="#0869AB"/>
<mask id="mask0_45_4291" style="mask-type:luminance" maskUnits="userSpaceOnUse" x="5" y="0" width="18" height="17">
<path d="M5.8252 8.58737C5.82495 10.2041 6.30413 11.7846 7.20213 13.129C8.10013 14.4733 9.37663 15.5212 10.8702 16.1402C12.3637 16.7591 14.0073 16.9212 15.593 16.606C17.1787 16.2909 18.6353 15.5126 19.7787 14.3695C20.9221 13.2265 21.7008 11.7701 22.0164 10.1845C22.3321 8.59889 22.1704 6.95529 21.552 5.46155C20.9335 3.9678 19.886 2.691 18.5419 1.7926C17.1977 0.894198 15.6174 0.414547 14.0007 0.414307C12.9272 0.413988 11.8641 0.625155 10.8722 1.03575C9.88036 1.44634 8.97908 2.04831 8.21989 2.80728C7.46069 3.56625 6.85845 4.46735 6.44756 5.45911C6.03668 6.45087 5.8252 7.51386 5.8252 8.58737Z" fill="white"/>
</mask>
<g mask="url(#mask0_45_4291)">
<path d="M14.0724 12.5267C17.669 12.5267 20.7451 13.531 22.0692 14.9523C22.5197 13.9085 22.7514 12.7833 22.7501 11.6464C22.7501 6.95194 18.8593 3.15601 14.0724 3.15601C9.28558 3.15601 5.40088 6.95559 5.40088 11.6488C5.40068 12.785 5.6328 13.9092 6.08298 14.9523C7.40463 13.5322 10.4844 12.5267 14.0724 12.5267Z" fill="#0869AB"/>
<path d="M14.0724 12.5365C17.6592 12.5365 20.7281 13.5323 22.0473 14.9427C22.4979 13.907 22.7293 12.7893 22.7269 11.6598C22.7269 7.00426 18.8508 3.22656 14.0724 3.22656C9.29405 3.22656 5.42151 7.00669 5.42151 11.6622C5.42051 12.7918 5.65272 13.9094 6.10361 14.9451C7.4204 13.5323 10.4917 12.5365 14.0724 12.5365Z" fill="#0D6BAD"/>
<path d="M14.0725 12.545C17.6508 12.545 20.7111 13.5335 22.0279 14.9293C22.476 13.9041 22.7066 12.797 22.7051 11.6781C22.7051 7.05781 18.8387 3.30078 14.0725 3.30078C9.30628 3.30078 5.43982 7.06146 5.43982 11.6793C5.43991 12.7981 5.67174 13.9046 6.12071 14.9293C7.43263 13.5323 10.4978 12.545 14.0688 12.545" fill="#0F6EAD"/>
<path d="M14.0725 12.5594C17.6422 12.5594 20.6941 13.5394 22.0072 14.9255C22.4537 13.9084 22.6835 12.8094 22.682 11.6986C22.682 7.11843 18.8265 3.37842 14.0725 3.37842C9.31842 3.37842 5.46655 7.12086 5.46655 11.701C5.46683 12.8114 5.6983 13.9095 6.14622 14.9255C7.45206 13.5321 10.5075 12.5594 14.0725 12.5594Z" fill="#1270B0"/>
<path d="M14.0724 12.5594C17.6325 12.5594 20.6782 13.5321 21.9865 14.9061C22.4305 13.8985 22.6591 12.8093 22.6576 11.7083C22.6576 7.16585 18.8106 3.44043 14.0688 3.44043C9.32688 3.44043 5.48474 7.16341 5.48474 11.7083C5.48465 12.8093 5.71493 13.8981 6.16076 14.9048C7.46904 13.5321 10.5148 12.5594 14.0724 12.5594Z" fill="#1473B2"/>
<path d="M14.0724 12.5729C17.6227 12.5729 20.66 13.5358 21.9646 14.9C22.4091 13.9012 22.6383 12.8199 22.637 11.7266C22.637 7.22063 18.8009 3.51953 14.0712 3.51953C9.34145 3.51953 5.51025 7.22428 5.51025 11.7291C5.51062 12.822 5.74052 13.9028 6.18506 14.9013C7.48604 13.5371 10.5269 12.5741 14.0712 12.5741" fill="#1775B2"/>
<path d="M14.0725 12.5815C17.6143 12.5815 20.6382 13.5371 21.9452 14.8916C22.3884 13.9014 22.6171 12.8286 22.6164 11.7437C22.6164 7.27663 18.7888 3.59741 14.0725 3.59741C9.35613 3.59741 5.53345 7.28392 5.53345 11.751C5.53395 12.8355 5.76305 13.9077 6.20582 14.8977C7.50558 13.5444 10.5367 12.5875 14.0725 12.5875" fill="#1A78B5"/>
<path d="M14.0651 12.5912C17.5972 12.5912 20.6187 13.5384 21.9172 14.8795C22.3587 13.8979 22.5859 12.8334 22.5835 11.7571C22.5835 7.32771 18.7669 3.66309 14.0615 3.66309C9.35608 3.66309 5.55042 7.33136 5.55042 11.7608C5.55026 12.8363 5.77948 13.8995 6.22279 14.8795C7.5189 13.542 10.5428 12.5912 14.0676 12.5912" fill="#1C7AB5"/>
<path d="M14.0652 12.5998C17.5912 12.5998 20.6017 13.5384 21.8954 14.8673C22.3383 13.896 22.5668 12.8406 22.5653 11.773C22.5653 7.38246 18.7585 3.73486 14.0652 3.73486C9.37196 3.73486 5.56995 7.38246 5.56995 11.7754C5.56927 12.8429 5.79773 13.8981 6.23989 14.8698C7.53235 13.5396 10.5477 12.6022 14.064 12.6022" fill="#1C7DB8"/>
<path d="M14.064 12.6093C17.5778 12.6093 20.5834 13.5406 21.8747 14.8586C22.3153 13.896 22.543 12.8497 22.5422 11.791C22.5422 7.43698 18.7438 3.80762 14.064 3.80762C9.38408 3.80762 5.59058 7.43941 5.59058 11.791C5.59066 12.8497 5.81874 13.896 6.2593 14.8586C7.54934 13.5406 10.5586 12.6093 14.064 12.6093Z" fill="#1F80B8"/>
<path d="M14.0627 12.6178C17.568 12.6178 20.5664 13.5407 21.854 14.8465C22.2933 13.8935 22.5202 12.8563 22.519 11.8069C22.519 7.49052 18.7328 3.88062 14.0627 3.88062C9.39255 3.88062 5.61121 7.49296 5.61121 11.8081C5.61168 12.8576 5.8394 13.8946 6.27872 14.8477C7.5651 13.5419 10.5659 12.6191 14.0603 12.6191" fill="#2182BA"/>
<path d="M14.0602 12.6276C17.5546 12.6276 20.5457 13.5419 21.8296 14.8368C22.2681 13.8925 22.4951 12.8639 22.4947 11.8227C22.4947 7.54407 18.717 3.95239 14.0614 3.95239C9.40589 3.95239 5.63306 7.5465 5.63306 11.83C5.63292 12.8707 5.8599 13.899 6.29814 14.8429C7.57966 13.548 10.5731 12.6337 14.0602 12.6337" fill="#2485BA"/>
<path d="M14.0603 12.6362C17.5462 12.6362 20.5287 13.542 21.809 14.8247C22.247 13.8894 22.4732 12.8689 22.4717 11.8361C22.4717 7.59639 18.7025 4.02417 14.0615 4.02417C9.42057 4.02417 5.65503 7.59882 5.65503 11.8373C5.65599 12.8697 5.883 13.8894 6.32011 14.8247C7.59799 13.5408 10.5842 12.6362 14.0628 12.6362" fill="#298ABD"/>
<path d="M14.059 12.6459C17.5352 12.6459 20.5092 13.5432 21.7871 14.8163C22.223 13.8898 22.4484 12.8783 22.4473 11.8544C22.4473 7.65115 18.6915 4.09839 14.0578 4.09839C9.42415 4.09839 5.66833 7.6548 5.66833 11.8544C5.66857 12.8783 5.8944 13.8895 6.32977 14.8163C7.60643 13.5432 10.5853 12.6459 14.0517 12.6459" fill="#2B8CBF"/>
<path d="M14.0578 12.6542C17.5255 12.6542 20.4922 13.5443 21.7664 14.8051C22.2006 13.8876 22.4253 12.885 22.4242 11.87C22.4242 7.70567 18.6781 4.17114 14.0578 4.17114C9.43751 4.17114 5.69507 7.7081 5.69507 11.87C5.6957 12.8851 5.92117 13.8875 6.35528 14.8051C7.6283 13.5443 10.5987 12.6542 14.0566 12.6542" fill="#2E8FBF"/>
<path d="M14.0567 12.664C17.5146 12.664 20.474 13.5455 21.7446 14.7954C22.1782 13.8868 22.403 12.8927 22.4024 11.8859C22.4024 7.75921 18.666 4.24414 14.0567 4.24414C9.44732 4.24414 5.71704 7.76286 5.71704 11.8883C5.71724 12.8942 5.94197 13.8874 6.37483 14.7954C7.64297 13.5455 10.606 12.664 14.0567 12.664Z" fill="#2E91C2"/>
<path d="M14.0554 12.6726C17.5048 12.6726 20.4557 13.5456 21.7227 14.7833C22.1551 13.8843 22.3791 12.8993 22.378 11.9017C22.378 7.81397 18.6502 4.31592 14.0554 4.31592C9.46065 4.31592 5.73767 7.81761 5.73767 11.9017C5.7381 12.8994 5.9629 13.8842 6.39545 14.7833C7.66117 13.5456 10.6157 12.6726 14.0554 12.6726Z" fill="#3394C2"/>
<path d="M14.0542 12.6811C17.4939 12.6811 20.4375 13.5468 21.7008 14.7724C22.133 13.8824 22.3571 12.9058 22.3561 11.9163C22.3561 7.86629 18.6392 4.3877 14.0554 4.3877C9.47156 4.3877 5.75952 7.86751 5.75952 11.9176C5.75908 12.907 5.98228 13.8838 6.41244 14.7748C7.67573 13.548 10.6206 12.6836 14.0529 12.6836" fill="#3396C2"/>
<path d="M14.053 12.6921C17.483 12.6921 20.4193 13.5432 21.6777 14.7591C22.1089 13.8787 22.3323 12.9112 22.3307 11.931C22.3307 7.91861 18.6247 4.45825 14.0518 4.45825C9.47896 4.45825 5.78394 7.91861 5.78394 11.931C5.78469 12.9112 6.00882 13.8784 6.43929 14.7591C7.69771 13.5432 10.6352 12.6921 14.0579 12.6921" fill="#3699C4"/>
<path d="M14.0518 12.7007C17.4745 12.7007 20.4023 13.5518 21.657 14.7543C22.087 13.8827 22.3101 12.9236 22.3087 11.9517C22.3087 7.97582 18.6125 4.53491 14.0518 4.53491C9.49107 4.53491 5.80457 7.97703 5.80457 11.9517C5.80525 12.9211 6.02732 13.8776 6.45384 14.7482C7.70861 13.5433 10.6401 12.6946 14.0518 12.6946" fill="#389CC7"/>
<path d="M14.0505 12.7102C17.4635 12.7102 20.3828 13.5516 21.6339 14.7431C22.0627 13.8806 22.2857 12.9305 22.2856 11.9673C22.2856 8.02912 18.5979 4.60767 14.0505 4.60767C9.50318 4.60767 5.82153 8.03155 5.82153 11.9673C5.82157 12.932 6.04461 13.8837 6.47324 14.748C7.72558 13.5564 10.6473 12.7151 14.0517 12.7151" fill="#3DA1C9"/>
<path d="M14.0506 12.72C17.455 12.72 20.3731 13.5516 21.6133 14.7322C22.0414 13.8791 22.2637 12.9376 22.2626 11.9832C22.2626 8.08387 18.5858 4.67944 14.0506 4.67944C9.51542 4.67944 5.84351 8.08387 5.84351 11.9832C5.84417 12.9373 6.06599 13.8783 6.49156 14.7322C7.74147 13.5516 10.6559 12.72 14.0506 12.72Z" fill="#40A3C9"/>
<path d="M14.0481 12.7285C17.4416 12.7285 20.3475 13.5517 21.5865 14.7225C22.0123 13.8778 22.2338 12.945 22.2333 11.999C22.2333 8.13741 18.5675 4.75122 14.0433 4.75122C9.51901 4.75122 5.85925 8.13741 5.85925 11.999C5.85953 12.9449 6.08104 13.8776 6.50609 14.7225C7.75236 13.5529 10.6595 12.7285 14.0445 12.7285" fill="#42A6CC"/>
<path d="M14.0481 12.7371C17.4331 12.7371 20.3293 13.5529 21.5707 14.7092C21.9957 13.8743 22.2166 12.9505 22.2151 12.0136C22.2151 8.18973 18.559 4.82178 14.0481 4.82178C9.53724 4.82178 5.88721 8.18973 5.88721 12.0124C5.88693 12.9495 6.10771 13.8735 6.53162 14.7092C7.77302 13.5517 10.6729 12.7371 14.0481 12.7371Z" fill="#45A8CC"/>
<path d="M14.0458 12.7468C17.4222 12.7468 20.3099 13.5529 21.5489 14.7007C21.9734 13.8731 22.1939 12.956 22.1921 12.0258C22.1921 8.23961 18.5445 4.89111 14.0458 4.89111C9.54704 4.89111 5.90552 8.24083 5.90552 12.0258C5.90482 12.9558 6.12528 13.8727 6.54871 14.7007C7.78768 13.5529 10.6827 12.7468 14.0445 12.7468" fill="#47ABCF"/>
<path d="M14.0457 12.7564C17.4124 12.7564 20.294 13.5552 21.5269 14.6908C21.9502 13.8741 22.1708 12.9675 22.1701 12.0475C22.1701 8.29901 18.5335 4.96997 14.0457 4.96997C9.55794 4.96997 5.92615 8.30388 5.92615 12.0463C5.92715 12.966 6.14766 13.8723 6.56934 14.6896C7.80223 13.5552 10.6863 12.7552 14.0445 12.7552" fill="#4AADD1"/>
<path d="M14.0445 12.7649C17.4015 12.7649 20.2746 13.5565 21.505 14.6799C21.9274 13.8729 22.1476 12.9755 22.147 12.0646C22.147 8.35377 18.5188 5.04175 14.0445 5.04175C9.57007 5.04175 5.948 8.35377 5.948 12.0622C5.94907 12.9736 6.16925 13.8714 6.58998 14.6799C7.82043 13.5565 10.6972 12.7649 14.0445 12.7649Z" fill="#4AB0D1"/>
<path d="M14.0432 12.7747C17.3905 12.7747 20.2575 13.5565 21.4843 14.6702C21.9051 13.8693 22.1242 12.9779 22.1226 12.0731C22.1226 8.40121 18.5054 5.10864 14.0432 5.10864C9.58098 5.10864 5.96985 8.40121 5.96985 12.0719C5.97064 12.9749 6.19007 13.8644 6.6094 14.6641C7.83742 13.5504 10.7044 12.7686 14.0432 12.7686" fill="#4FB2D4"/>
<path d="M14.0421 12.7833C17.3796 12.7833 20.243 13.5578 21.4588 14.6593C21.879 13.87 22.0982 12.9893 22.0972 12.0951C22.0972 8.45964 18.4897 5.18652 14.0396 5.18652C9.58956 5.18652 5.98816 8.45964 5.98816 12.0939C5.98893 12.9881 6.20761 13.8687 6.62527 14.6593C7.85087 13.5578 10.7106 12.7833 14.0421 12.7833Z" fill="#54BAD6"/>
<path d="M14.0408 12.793C17.3699 12.793 20.2211 13.559 21.4382 14.6485C21.8571 13.8687 22.076 12.9973 22.0753 12.1122C22.0753 8.51562 18.4788 5.26074 14.0408 5.26074C9.60292 5.26074 6.01611 8.51562 6.01611 12.1122C6.01659 12.9974 6.23498 13.8688 6.65201 14.6497C7.86788 13.5554 10.7264 12.7943 14.0457 12.7943" fill="#54BDD6"/>
<path d="M14.0396 12.8028C17.3589 12.8028 20.2028 13.5603 21.4187 14.6388C21.836 13.8677 22.0545 13.0048 22.0546 12.128C22.0546 8.56794 18.4678 5.33252 14.0408 5.33252C9.61381 5.33252 6.03308 8.56794 6.03308 12.1256C6.03402 13.0028 6.25207 13.8662 6.66776 14.6388C7.88363 13.5603 10.73 12.8028 14.0408 12.8028" fill="#59BFD9"/>
<path d="M14.0384 12.8111C17.3492 12.8111 20.1834 13.5601 21.3956 14.6276C21.8119 13.8659 22.0297 13.0117 22.0291 12.1436C22.0291 8.6176 18.452 5.40527 14.0372 5.40527C9.62238 5.40527 6.04773 8.62246 6.04773 12.1412C6.04808 13.0097 6.26541 13.8644 6.67998 14.6276C7.89585 13.5601 10.7313 12.8111 14.0323 12.8111" fill="#59C2D9"/>
<path d="M14.0384 12.8318C17.3431 12.8318 20.176 13.5771 21.387 14.6362C21.8022 13.8797 22.0196 13.0308 22.0193 12.1679C22.0193 8.6699 18.4471 5.47095 14.0384 5.47095C9.62962 5.47095 6.0647 8.66868 6.0647 12.1667C6.06614 13.0297 6.28348 13.8786 6.69695 14.6362C7.91281 13.5771 10.7434 12.8318 14.0396 12.8318" fill="#5EC2DB"/>
<path d="M14.0384 12.8525C17.3395 12.8525 20.1676 13.593 21.3749 14.6447C21.7903 13.8941 22.0079 13.0501 22.0072 12.1923C22.0072 8.71611 18.441 5.53662 14.0384 5.53662C9.63574 5.53662 6.07446 8.71733 6.07446 12.1911C6.07615 13.0489 6.29313 13.8925 6.7055 14.6447C7.92137 13.593 10.7458 12.8525 14.0384 12.8525Z" fill="#63C4DB"/>
<path d="M14.0384 12.8732C17.3359 12.8732 20.1591 13.6088 21.3665 14.6544C21.7796 13.9105 21.9967 13.0737 21.9975 12.2227C21.9975 8.76965 18.435 5.6084 14.0384 5.6084C9.64186 5.6084 6.08667 8.76965 6.08667 12.2215C6.08863 13.0722 6.30526 13.9086 6.71649 14.6532C7.92628 13.6088 10.752 12.872 14.0384 12.872" fill="#69C7DE"/>
<path d="M14.0384 12.8939C17.3309 12.8939 20.1517 13.6234 21.3554 14.6642C21.7682 13.9245 21.985 13.0916 21.9853 12.2446C21.9853 8.81343 18.4276 5.67163 14.0371 5.67163C9.64664 5.67163 6.09631 8.81464 6.09631 12.2373C6.09707 13.0853 6.31338 13.9191 6.72492 14.6605C7.93349 13.621 10.7543 12.8902 14.0371 12.8902" fill="#6EC9DE"/>
<path d="M14.0384 12.9146C17.3212 12.9146 20.1433 13.6441 21.3458 14.6727C21.7579 13.9386 21.9748 13.1109 21.9756 12.2689C21.9756 8.86451 18.4228 5.7373 14.0384 5.7373C9.65399 5.7373 6.10852 8.86208 6.10852 12.2677C6.11051 13.1101 6.32683 13.9382 6.73713 14.6739C7.94327 13.6404 10.7604 12.9158 14.0396 12.9158" fill="#73CCE0"/>
<path d="M14.0384 12.9365C17.3213 12.9365 20.1336 13.6575 21.3336 14.6825C21.7447 13.9536 21.9612 13.1313 21.9623 12.2945C21.9623 8.90952 18.4131 5.8042 14.036 5.8042C9.65889 5.8042 6.11829 8.91195 6.11829 12.2933C6.12005 13.1303 6.33648 13.9529 6.74689 14.6825C7.9506 13.6575 10.7593 12.9365 14.0421 12.9365" fill="#7ACFE0"/>
<path d="M14.0384 12.9572C17.3212 12.9572 20.1262 13.6733 21.3263 14.6922C21.7367 13.9694 21.9528 13.1525 21.9537 12.3213C21.9537 8.95942 18.4106 5.8772 14.0384 5.8772C9.66613 5.8772 6.13525 8.96428 6.13525 12.3213C6.1375 13.1526 6.35311 13.9694 6.76142 14.6934C7.96392 13.6746 10.7738 12.9584 14.0445 12.9584" fill="#80CFE3"/>
<path d="M14.0384 12.9779C17.3127 12.9779 20.1177 13.6891 21.3154 14.7007C21.7248 13.9837 21.941 13.1726 21.9427 12.3468C21.9427 9.00684 18.4034 5.93921 14.0396 5.93921C9.67586 5.93921 6.13647 9.00684 6.13647 12.3432C6.1386 13.1699 6.3543 13.982 6.76265 14.7007C7.96271 13.6891 10.775 12.9779 14.036 12.9779" fill="#85D1E3"/>
<path d="M14.0385 12.9985C17.3091 12.9985 20.1093 13.705 21.3057 14.7093C21.7145 13.9973 21.9304 13.1909 21.9319 12.3699C21.9319 9.05306 18.3986 6.00366 14.0385 6.00366C9.67835 6.00366 6.15112 9.05306 6.15112 12.3675C6.1531 13.1892 6.3689 13.9962 6.77729 14.7093C7.97492 13.705 10.7787 12.9985 14.0397 12.9985" fill="#8AD4E5"/>
<path d="M14.0384 13.019C17.303 13.019 20.1019 13.7206 21.2959 14.7212C21.7041 14.0152 21.92 13.2145 21.9221 12.3989C21.9221 9.10514 18.396 6.07642 14.0384 6.07642C9.6807 6.07642 6.16077 9.10757 6.16077 12.3989C6.16332 13.2145 6.3783 14.0153 6.78451 14.7224C7.98214 13.7242 10.7823 13.0202 14.0384 13.0202" fill="#8FD6E5"/>
<path d="M14.0384 13.0397C17.2994 13.0397 20.0934 13.7364 21.2862 14.7261C21.6942 14.0245 21.9094 13.2275 21.9099 12.4159C21.9099 9.14403 18.3839 6.13354 14.0384 6.13354C9.69289 6.13354 6.16931 9.15497 6.16931 12.4196C6.17152 13.2308 6.38615 14.0273 6.79183 14.7297C7.98703 13.7388 10.7823 13.0421 14.0348 13.0421" fill="#94D6E8"/>
<path d="M14.0383 13.0604C17.2944 13.0604 20.0848 13.7522 21.2764 14.7346C21.6825 14.0398 21.8973 13.2499 21.8989 12.4451C21.8989 9.19635 18.379 6.2041 14.0383 6.2041C9.69769 6.2041 6.18384 9.19756 6.18384 12.4439C6.18601 13.2494 6.39985 14.0402 6.80393 14.7371C7.99791 13.7534 10.7895 13.0616 14.0383 13.0616" fill="#99D9E8"/>
<path d="M14.0384 13.0811C17.2908 13.0811 20.0764 13.768 21.2667 14.7444C21.672 14.055 21.8869 13.2704 21.8892 12.4707C21.8892 9.24379 18.3742 6.26978 14.0384 6.26978C9.70259 6.26978 6.1936 9.24501 6.1936 12.4707C6.19623 13.2713 6.41058 14.057 6.81491 14.748C8.00646 13.7753 10.7944 13.0847 14.0384 13.0847" fill="#9EDBE8"/>
<path d="M14.0384 13.1018C17.286 13.1018 20.0691 13.7839 21.2558 14.7529C21.6608 14.0692 21.8757 13.2897 21.8783 12.495C21.8783 9.29365 18.3681 6.33667 14.0396 6.33667C9.71116 6.33667 6.20581 9.29366 6.20581 12.4938C6.2087 13.2889 6.42269 14.0689 6.8259 14.7541C8.01381 13.7814 10.8006 13.1018 14.0396 13.1018" fill="#A3DEEB"/>
<path d="M14.0383 13.1237C17.2823 13.1237 20.0617 13.8021 21.246 14.7627C21.6498 14.0847 21.8644 13.3109 21.8673 12.5218C21.8673 9.3411 18.362 6.40479 14.0383 6.40479C9.71472 6.40479 6.21545 9.34232 6.21545 12.5206C6.219 13.31 6.43261 14.0843 6.83433 14.7639C8.02223 13.8009 10.8054 13.1237 14.0383 13.1237Z" fill="#A8DEED"/>
<path d="M14.0384 13.1443C17.2762 13.1443 20.0521 13.8179 21.2363 14.7712C21.6391 14.0986 21.8533 13.33 21.8564 12.5461C21.8564 9.38488 18.3559 6.4668 14.0384 6.4668C9.72084 6.4668 6.22644 9.38488 6.22644 12.5461C6.22938 13.3307 6.44313 14.1 6.84532 14.7736C8.032 13.8179 10.809 13.1456 14.0384 13.1443Z" fill="#B0E3ED"/>
<path d="M14.0384 13.1675C17.2726 13.1675 20.0436 13.8362 21.2266 14.7834C21.6281 14.1166 21.842 13.3537 21.8455 12.5754C21.8455 9.43964 18.3499 6.54102 14.0384 6.54102C9.72696 6.54102 6.23621 9.44207 6.23621 12.5729C6.24006 13.3522 6.4534 14.1161 6.85387 14.7846C8.03812 13.8362 10.8127 13.1687 14.0384 13.1675Z" fill="#B5E3ED"/>
<path d="M14.0384 13.1857C17.2678 13.1857 20.0363 13.8496 21.2121 14.7895C21.6124 14.1293 21.8262 13.373 21.8309 12.6009C21.8309 9.48708 18.3378 6.60669 14.0336 6.60669C9.72941 6.60669 6.24231 9.48951 6.24231 12.5985C6.24671 13.3702 6.4597 14.1264 6.85876 14.787C8.04179 13.846 10.8128 13.1833 14.0324 13.1821" fill="#BAE5F0"/>
<path d="M14.0384 13.2064C17.2641 13.2064 20.0278 13.8654 21.212 14.7992C21.6118 14.1434 21.8249 13.3909 21.8285 12.6228C21.8285 9.5333 18.3426 6.67114 14.0469 6.67114C9.75127 6.67114 6.26538 9.53451 6.26538 12.6216C6.26714 13.3895 6.47725 14.1425 6.87331 14.8004C8.05514 13.8666 10.8212 13.2076 14.0384 13.2076" fill="#BFE8F2"/>
<path d="M14.0384 13.2271C17.2593 13.2271 20.0193 13.8825 21.195 14.8077C21.5951 14.1578 21.8088 13.4104 21.8127 12.6471C21.8127 9.57952 18.3304 6.73804 14.0384 6.73804C9.74642 6.73804 6.26782 9.58316 6.26782 12.6471C6.27279 13.4102 6.48548 14.1576 6.88305 14.809C8.06366 13.8813 10.8273 13.2283 14.0384 13.2283" fill="#C4E8F2"/>
<path d="M14.0384 13.2478C17.2555 13.2478 20.0107 13.8971 21.1864 14.8163C21.5852 14.1721 21.7985 13.4303 21.8029 12.6727C21.8029 9.63303 18.3255 6.80371 14.0384 6.80371C9.75121 6.80371 6.27991 9.62938 6.27991 12.6727C6.28282 13.4297 6.49308 14.1715 6.88784 14.8175C8.06602 13.8971 10.826 13.2478 14.0323 13.2478" fill="#C9EBF2"/>
<path d="M14.0384 13.2683C17.2495 13.2683 20.0034 13.9115 21.1768 14.8258C21.5711 14.1859 21.7815 13.4497 21.7847 12.698C21.7847 9.67659 18.3122 6.87036 14.0323 6.87036C9.75247 6.87036 6.29089 9.6778 6.29089 12.6968C6.29436 13.4492 6.50467 14.1861 6.89883 14.827C8.07579 13.9127 10.8322 13.2695 14.0348 13.2683" fill="#CFEDF5"/>
<path d="M14.0384 13.2889C17.2459 13.2889 19.9962 13.9285 21.1671 14.8343C21.5612 14.2006 21.7716 13.4698 21.775 12.7236C21.775 9.7228 18.3061 6.93604 14.0336 6.93604C9.76102 6.93604 6.3031 9.72645 6.3031 12.7224C6.30683 13.4697 6.51723 14.2015 6.91103 14.8367C8.08556 13.9297 10.8383 13.2914 14.0372 13.2902" fill="#D4F0F5"/>
<path d="M14.0383 13.3109C17.2397 13.3109 19.9864 13.9455 21.156 14.8441C21.5495 14.2159 21.7601 13.4904 21.764 12.7491C21.764 9.7739 18.3012 7.00415 14.0335 7.00415C9.76578 7.00415 6.30664 9.77389 6.30664 12.7479C6.30988 13.49 6.52044 14.2165 6.91457 14.8453C8.08545 13.9455 10.8357 13.3121 14.0298 13.3109" fill="#D9F2F5"/>
<path d="M14.0384 13.3315C17.2373 13.3315 19.9791 13.9614 21.1463 14.8538C21.5398 14.2319 21.7505 13.5118 21.7543 12.7759C21.7543 9.82256 18.2951 7.07104 14.0335 7.07104C9.77191 7.07104 6.31885 9.82255 6.31885 12.7735C6.3229 13.5105 6.53351 14.2317 6.92678 14.855C8.09888 13.9626 10.8431 13.3328 14.0323 13.3328" fill="#DEF2F7"/>
<path d="M14.0385 13.3522C17.2325 13.3522 19.9707 13.9772 21.1367 14.8623C21.5299 14.2443 21.7406 13.5278 21.7446 12.7954C21.7446 9.86633 18.2916 7.13306 14.036 7.13306C9.78049 7.13306 6.33472 9.86997 6.33472 12.8026C6.33954 13.535 6.5502 14.2513 6.94265 14.8696C8.1111 13.9833 10.8529 13.3595 14.0372 13.3583" fill="#E5F5FA"/>
<path d="M14.0384 13.3729C17.2276 13.3729 19.9621 13.993 21.1256 14.8709C21.5179 14.2601 21.7288 13.5505 21.7336 12.8246C21.7336 9.91743 18.2842 7.20361 14.0359 7.20361C9.78769 7.20361 6.34192 9.91864 6.34192 12.8233C6.34741 13.5499 6.55815 14.2601 6.94985 14.8721C8.11708 13.993 10.8552 13.3729 14.0359 13.3729" fill="#EBF7FA"/>
<path d="M14.0384 13.3936C17.2228 13.3936 19.9536 14.0101 21.116 14.8794C21.5077 14.2742 21.7186 13.5698 21.7239 12.8489C21.7239 9.96365 18.2794 7.26929 14.036 7.26929C9.7926 7.26929 6.35413 9.96487 6.35413 12.8477C6.36021 13.5692 6.57102 14.2742 6.96206 14.8806C8.12686 14.0088 10.8626 13.3936 14.0384 13.3924" fill="#F0FAFC"/>
<path d="M14.0385 13.4106C17.2179 13.4106 19.9463 14.0186 21.1063 14.8843C21.4966 14.2852 21.7076 13.587 21.7142 12.872C21.7142 10.0099 18.2745 7.33374 14.0372 7.33374C9.79994 7.33374 6.36633 10.0086 6.36633 12.8696C6.37313 13.5861 6.58401 14.2858 6.97427 14.8867C8.13785 14.021 10.865 13.4106 14.0409 13.4106" fill="#F5FAFC"/>
<path d="M14.0384 13.435C17.213 13.435 19.9378 14.0429 21.0977 14.894C21.4877 14.2997 21.6987 13.6059 21.7057 12.8951C21.7057 10.0561 18.2721 7.39819 14.0457 7.39819C9.81935 7.39819 6.38574 10.0573 6.38574 12.8939C6.3926 13.6051 6.60361 14.2993 6.99368 14.894C8.15604 14.0356 10.8844 13.435 14.0457 13.435" fill="#FAFCFF"/>
<path d="M14.0384 13.4557C17.2106 13.4557 19.9293 14.0575 21.0904 14.9074C21.4797 14.3191 21.6908 13.6309 21.6984 12.9256C21.6984 10.1072 18.2684 7.46875 14.0384 7.46875C9.80842 7.46875 6.3894 10.1108 6.3894 12.9243C6.39564 13.6307 6.60684 14.32 6.99734 14.9086C8.15727 14.0575 10.8796 13.4569 14.0421 13.4557" fill="white"/>
</g>
<path d="M14.0007 10.647C11.2261 10.647 8.65087 11.1187 6.53162 11.9163C7.17608 13.3584 8.22424 14.583 9.54954 15.4424C10.8748 16.3017 12.4206 16.759 14.0001 16.759C15.5796 16.759 17.1253 16.3017 18.4506 15.4424C19.7759 14.583 20.8241 13.3584 21.4685 11.9163C19.3444 11.1187 16.768 10.647 14.0007 10.647Z" fill="#0869AB"/>
<path d="M24.4377 23.9888C24.1678 23.9888 23.9052 23.9888 23.645 23.9888C23.5927 23.9888 23.5903 23.9536 23.5793 23.9232L22.9835 22.2283C22.967 22.1752 22.9437 22.1246 22.9142 22.0775C22.7918 22.713 22.6703 23.3489 22.5495 23.9852H21.7324C21.7823 23.7311 21.8309 23.4794 21.8795 23.2289C22.0376 22.4183 22.1949 21.6041 22.3513 20.7862C22.3622 20.7254 22.3866 20.7109 22.4449 20.7121C22.6711 20.7121 22.8972 20.7121 23.1234 20.7121C23.1462 20.7088 23.1694 20.7145 23.1881 20.7278C23.2069 20.7412 23.2199 20.7612 23.2243 20.7838C23.4286 21.3731 23.6336 21.9624 23.8395 22.5517C23.848 22.5772 23.8602 22.6028 23.8772 22.6465C23.9088 22.4824 23.9392 22.3389 23.9672 22.1942L24.242 20.7777C24.2481 20.7413 24.2541 20.7133 24.304 20.7133C24.5472 20.7133 24.7903 20.7133 25.0335 20.7133C25.0461 20.7125 25.0586 20.7125 25.0712 20.7133L24.4377 23.9888Z" fill="#0062AC"/>
<path d="M16.9626 21.9777C17.1201 21.9859 17.278 21.9859 17.4356 21.9777C17.5217 21.964 17.6024 21.927 17.669 21.8707C17.7193 21.8316 17.7558 21.7776 17.7735 21.7164C17.7912 21.6553 17.7891 21.5901 17.7675 21.5302C17.7262 21.4086 17.607 21.3904 17.4939 21.3867C17.3808 21.3831 17.2507 21.3867 17.1292 21.3867C17.0915 21.3867 17.0696 21.394 17.0623 21.4366C17.0295 21.619 16.9942 21.8013 16.9589 21.9837M16.6975 23.3212C16.7125 23.3221 16.7275 23.3221 16.7425 23.3212C16.8909 23.3212 17.0392 23.3212 17.1863 23.3212C17.2316 23.3198 17.2765 23.3129 17.3201 23.3005C17.415 23.2777 17.4988 23.2219 17.5565 23.1431C17.6142 23.0643 17.642 22.9675 17.635 22.8701C17.6361 22.8244 17.6231 22.7795 17.5976 22.7416C17.5721 22.7037 17.5354 22.6747 17.4927 22.6585C17.4396 22.6369 17.3834 22.6237 17.3261 22.6196C17.1802 22.6123 17.0343 22.6196 16.8896 22.6123C16.8446 22.6123 16.8288 22.6306 16.8215 22.6707C16.7924 22.8312 16.7608 22.9905 16.7291 23.1497L16.6975 23.32M18.0447 22.205C18.0556 22.2135 18.0593 22.2196 18.0666 22.2208C18.213 22.2822 18.332 22.3948 18.4014 22.5376C18.4707 22.6804 18.4857 22.8435 18.4435 22.9965C18.4167 23.1734 18.3482 23.3413 18.2438 23.4866C18.1394 23.6318 18.002 23.7501 17.8429 23.8318C17.6343 23.9342 17.4052 23.9878 17.1729 23.9887C16.7097 23.996 16.2477 23.9887 15.7844 23.9887C15.7731 23.9894 15.7617 23.9894 15.7504 23.9887C15.7929 23.7686 15.8343 23.5498 15.872 23.3309C16.0341 22.4847 16.1982 21.6384 16.3644 20.7922C16.3729 20.746 16.3802 20.7168 16.441 20.7168C16.869 20.7168 17.2921 20.7168 17.7237 20.7241C17.9054 20.7216 18.0857 20.756 18.2538 20.825C18.3767 20.8738 18.4784 20.9646 18.5407 21.0812C18.603 21.1979 18.622 21.3328 18.5943 21.4621C18.5812 21.6182 18.5259 21.7679 18.4342 21.8949C18.3425 22.0219 18.218 22.1216 18.0739 22.1831C18.0629 22.1831 18.0544 22.1965 18.0423 22.205" fill="#0062AC"/>
<path d="M27.7729 23.9888C27.4786 23.9888 27.1941 23.9888 26.9096 23.9888C26.8877 23.9888 26.8573 23.9572 26.8476 23.9329C26.6859 23.539 26.5278 23.1426 26.3685 22.7474C26.36 22.7255 26.3491 22.7037 26.3333 22.6672C26.2117 22.7888 26.0901 22.9104 25.9758 23.032C25.9471 23.0873 25.9313 23.1484 25.9296 23.2107C25.8822 23.4539 25.8384 23.697 25.7898 23.9341C25.7898 23.956 25.757 23.9876 25.7399 23.9888C25.4834 23.9888 25.2268 23.9888 24.9606 23.9888C24.9885 23.8417 25.0153 23.7007 25.042 23.5596C25.2212 22.6356 25.4003 21.7107 25.5795 20.785C25.5904 20.7291 25.6098 20.7109 25.667 20.7121C25.8907 20.7121 26.1144 20.7121 26.3382 20.7121H26.416L26.185 21.8866L26.2603 21.8149C26.6056 21.4647 26.9522 21.1145 27.2963 20.7631C27.3127 20.7449 27.3331 20.7305 27.3558 20.7211C27.3785 20.7116 27.403 20.7073 27.4276 20.7084C27.6866 20.7084 27.9455 20.7084 28.2045 20.7084C28.2288 20.7084 28.2531 20.7084 28.2775 20.7084L28.2981 20.7352C28.273 20.7465 28.2494 20.7608 28.2276 20.7777C27.8223 21.1765 27.417 21.5757 27.0117 21.9754C26.9914 21.9909 26.9775 22.0134 26.9728 22.0385C26.9681 22.0637 26.9728 22.0897 26.9862 22.1115C27.2375 22.7049 27.4871 23.2986 27.7352 23.8928C27.7461 23.9183 27.7558 23.9438 27.7704 23.9803" fill="#0062AC"/>
<path d="M20.4801 22.6515C20.4558 22.2952 20.4315 21.9426 20.4084 21.59H20.395L19.9087 22.6527L20.4801 22.6515ZM21.0686 20.7061C21.1963 21.8004 21.3227 22.8825 21.4516 23.9756H20.5701C20.5518 23.7591 20.5348 23.5427 20.5178 23.3178H20.4327C20.1895 23.3178 19.9342 23.3178 19.6861 23.3178C19.6591 23.3152 19.6319 23.3223 19.6097 23.3379C19.5874 23.3535 19.5714 23.3765 19.5646 23.4029C19.4892 23.5804 19.4089 23.7555 19.3214 23.9318C19.3117 23.9525 19.2873 23.9828 19.2691 23.9828C18.9907 23.9828 18.7122 23.9828 18.4253 23.9828C18.4387 23.9537 18.4472 23.9306 18.4581 23.9087C18.985 22.8655 19.5119 21.8222 20.0388 20.779C20.0466 20.7559 20.062 20.7361 20.0826 20.7229C20.1031 20.7096 20.1275 20.7037 20.1518 20.7061C20.4315 20.7061 20.7099 20.7061 20.9896 20.7061H21.0686Z" fill="#0062AC"/>
<path d="M3.51872 20.5237L2.77461 22.4642L2.47186 20.5237H1.82015L0.784234 22.4496L0.781803 20.5237H0.00121587L0 23.9488H0.801256L1.89432 21.9341L2.22139 23.9488H3.01535L4.33335 20.5237H3.51872Z" fill="#0062AC"/>
<path d="M5.3182 23.3224C5.26981 23.3267 5.22107 23.3199 5.17575 23.3024C5.13043 23.2849 5.08973 23.2572 5.05679 23.2215C4.97168 23.1181 4.89508 22.8689 5.0118 22.2646C5.15649 21.5132 5.41182 21.1497 5.79482 21.1497C5.84265 21.1455 5.89078 21.1525 5.93549 21.17C5.98019 21.1875 6.02026 21.2151 6.05258 21.2506C6.13891 21.3551 6.21672 21.6044 6.1 22.2087C5.95531 22.9589 5.69998 23.3224 5.31698 23.3224M5.86656 20.4736C4.93034 20.4736 4.34307 21.0572 4.12179 22.2087C4.0002 22.8677 4.0537 23.3346 4.30052 23.6349C4.50114 23.8781 4.81848 23.9996 5.24525 23.9996C6.18146 23.9996 6.76873 23.416 6.99002 22.2658C7.1116 21.6068 7.0581 21.1411 6.81007 20.8396C6.60945 20.5964 6.29332 20.4748 5.86777 20.4748" fill="#0062AC"/>
<path d="M8.42965 23.3224C8.38127 23.3266 8.33256 23.3197 8.28725 23.3022C8.24195 23.2847 8.20124 23.2571 8.16824 23.2215C8.08313 23.1181 8.00653 22.8689 8.12326 22.2646C8.26794 21.5132 8.52449 21.1497 8.90627 21.1497C8.95429 21.1454 9.00264 21.1524 9.04755 21.1699C9.09246 21.1874 9.13274 21.215 9.16526 21.2506C9.25158 21.3551 9.3294 21.6044 9.21267 22.2087C9.06798 22.9589 8.81265 23.3224 8.42965 23.3224ZM8.97922 20.4736C8.04301 20.4736 7.45575 21.0572 7.23446 22.2087C7.11287 22.8677 7.16637 23.3346 7.41319 23.6349C7.61381 23.8781 7.93115 23.9996 8.35792 23.9996C9.29414 23.9996 9.8814 23.416 10.1039 22.2658C10.2255 21.6068 10.172 21.1411 9.92274 20.8396C9.72212 20.5964 9.40599 20.4748 8.98044 20.4748" fill="#0062AC"/>
<path d="M13.5994 20.5237L12.9392 23.9488H13.845L14.5052 20.5237H13.5994Z" fill="#0062AC"/>
<path d="M11.5191 21.1558C11.7392 21.1558 12.2645 20.9807 12.1745 21.6032C12.0845 22.2257 11.3307 22.1455 11.3307 22.1455L11.5191 21.1558ZM12.2754 22.5929C12.6912 22.3583 12.9672 21.9011 12.9672 21.3114C12.9672 20.4384 11.9264 20.5235 11.9264 20.5235H10.848L10.1282 23.9279H10.9343L11.169 22.7631H11.4839C11.5494 22.7715 11.6098 22.8028 11.6544 22.8516C11.6989 22.9004 11.7247 22.9634 11.727 23.0294C11.7587 23.3358 11.8049 23.9425 11.8049 23.9425H12.6134C12.6134 23.9425 12.5417 23.1097 12.521 22.9844C12.5168 22.9033 12.4923 22.8245 12.4499 22.7553C12.4074 22.686 12.3482 22.6286 12.2778 22.588" fill="#0062AC"/>
</g>
<defs>
<clipPath id="clip0_45_4291">
<rect width="28.2969" height="24" fill="white" transform="translate(0 -0.000244141)"/>
</clipPath>
</defs>
</svg>
