<svg width="67" height="24" viewBox="0 0 67 24" fill="none" xmlns="http://www.w3.org/2000/svg">
<path d="M48.8781 8.58667C49.0226 8.63486 49.1248 8.75051 49.226 8.85844C50.6542 10.3619 52.0921 11.8547 53.5175 13.3601C53.5204 11.8537 53.5137 10.3474 53.5204 8.8411C53.9069 8.84013 54.2924 8.84688 54.6788 8.83435C54.7154 8.97024 54.7309 9.10902 54.727 9.24972C54.7193 11.5405 54.7299 13.8313 54.7222 16.1221C54.6933 16.1356 54.6364 16.1617 54.6085 16.1752C53.0732 14.6139 51.5871 13.0035 50.0548 11.4403C50.0403 12.9418 50.0721 14.4452 50.0394 15.9477C49.65 15.9304 49.2607 15.939 48.8723 15.941C48.8733 13.4892 48.8627 11.0375 48.8781 8.58667Z" fill="white"/>
<path d="M18.2707 8.77067C19.1699 8.443 20.1375 8.67815 21.0135 8.96053C21.0241 9.51853 21.0184 10.0756 21.0184 10.6336C20.4806 10.3059 19.8985 9.97824 19.2538 9.95993C18.928 9.93872 18.5281 10.1382 18.5223 10.5035C18.5001 10.7704 18.7131 10.9747 18.9155 11.1116C19.6961 11.6002 20.6039 11.9443 21.2044 12.6729C21.9349 13.6732 21.5474 15.2721 20.443 15.8349C19.4243 16.3755 18.211 16.1548 17.1605 15.8281C17.0998 15.1998 17.0603 14.5705 17.0352 13.9402C17.6433 14.3199 18.317 14.6745 19.0533 14.662C19.3665 14.6408 19.7356 14.5454 19.8898 14.2418C20.0508 13.9691 19.9284 13.6086 19.6884 13.4255C19.0003 12.8752 18.1098 12.6073 17.5046 11.95C17.1123 11.5405 16.9138 10.9593 16.9687 10.3955C17.0092 9.64864 17.572 9.00004 18.2707 8.77067Z" fill="white"/>
<path d="M43.8686 9.40489C44.0103 9.12444 44.1105 8.82182 44.3004 8.56836C45.4424 11.0143 46.543 13.4796 47.6619 15.9371C47.235 15.94 46.8071 15.9333 46.3801 15.9439C46.1797 15.5266 45.9946 15.1025 45.8106 14.6785C44.7427 14.6727 43.6749 14.6765 42.6071 14.6765C42.4182 15.0996 42.2332 15.5246 42.0279 15.941C41.6125 15.9352 41.1981 15.939 40.7837 15.9371C41.8226 13.7658 42.8365 11.581 43.8686 9.40489ZM44.1549 11.183C43.7906 12.0031 43.4446 12.8319 43.0668 13.6453C43.831 13.68 44.5982 13.653 45.3634 13.6579C44.9962 12.7905 44.6146 11.9289 44.2483 11.0606C44.2252 11.0914 44.178 11.1521 44.1549 11.183Z" fill="white"/>
<path d="M3.51001 8.84196C4.17403 8.83811 4.83708 8.84871 5.50013 8.83618C6.01766 9.57633 6.48507 10.3493 6.99586 11.0942C7.52977 10.3377 8.0685 9.58308 8.62072 8.84004C9.20474 8.84582 9.78877 8.83715 10.3728 8.84485C9.48808 10.0862 8.53495 11.2822 7.6724 12.536C7.65698 13.6684 7.66854 14.8027 7.66758 15.936C7.11343 15.9399 6.55928 15.938 6.00513 15.937C5.99646 14.8123 6.02344 13.6848 5.9926 12.561C5.18113 11.312 4.31859 10.0948 3.51001 8.84196Z" fill="white"/>
<path d="M11.0995 15.939C11.1033 13.573 11.0947 11.2061 11.1043 8.84009C12.5432 8.84394 13.982 8.84105 15.4209 8.84202C15.4247 9.32485 15.4161 9.80865 15.4276 10.2915C14.5285 10.3271 13.6235 10.2597 12.7224 10.3223C12.7244 10.7483 12.7215 11.1743 12.7263 11.5993C13.4973 11.5964 14.2692 11.5896 15.0402 11.6041C15.0306 12.0831 15.0373 12.563 15.0364 13.0439C14.2644 13.043 13.4934 13.0439 12.7224 13.042C12.7253 13.5084 12.7234 13.9759 12.7234 14.4423C13.6332 14.4433 14.5429 14.4346 15.4527 14.4452C15.4546 14.9434 15.4585 15.4417 15.4508 15.9409C14.0003 15.9361 12.5499 15.938 11.0995 15.939Z" fill="white"/>
<path d="M35.3896 8.84105C36.2869 8.86129 37.187 8.79575 38.0804 8.89116C38.6586 8.95862 39.2879 9.18896 39.5905 9.72191C39.9134 10.3108 39.9182 11.1193 39.4739 11.6494C39.2802 11.8894 38.993 12.0175 38.7241 12.1534C39.2407 12.2951 39.7004 12.67 39.8662 13.1894C40.0618 13.8284 40.0079 14.5859 39.5954 15.1304C39.1366 15.7164 38.355 15.8821 37.6515 15.9274C36.8959 15.9486 36.1413 15.9332 35.3867 15.939C35.3925 13.573 35.3848 11.207 35.3896 8.84105ZM36.5692 9.79033C36.5731 10.4572 36.5712 11.1251 36.5712 11.793C37.0993 11.7785 37.6833 11.8739 38.1575 11.5819C38.7213 11.2658 38.7878 10.2809 38.1912 9.96573C37.691 9.7142 37.1089 9.80575 36.5692 9.79033ZM36.5702 12.7403C36.5731 13.4766 36.5712 14.2139 36.5721 14.9502C37.1108 14.9309 37.6872 15.0292 38.1941 14.797C38.8706 14.4876 38.9612 13.4082 38.3647 12.9793C37.8394 12.616 37.1667 12.7731 36.5702 12.7403Z" fill="white"/>
<path d="M56.96 15.9399C56.9629 13.573 56.9427 11.2051 56.9697 8.83813C57.3667 8.84392 57.7638 8.84199 58.1609 8.84006C58.1772 9.90018 58.1609 10.9603 58.1666 12.0204C59.166 10.9603 60.1625 9.89825 61.1668 8.84295C61.638 8.84006 62.1103 8.84199 62.5825 8.84103C61.5224 9.98402 60.4478 11.1145 59.379 12.2507C60.5625 13.4747 61.7325 14.7121 62.9179 15.9332C62.3907 15.9438 61.8645 15.9341 61.3373 15.9409C60.284 14.8316 59.2267 13.7262 58.1686 12.6227C58.1628 13.7272 58.1705 14.8316 58.1657 15.937C57.7638 15.9399 57.3619 15.9361 56.96 15.9399Z" fill="white"/>
<path d="M35.6479 1.36345C35.9929 0.910489 36.31 0.434402 36.68 -0.000244141C33.0679 6.38356 29.4819 12.7838 25.8775 19.1724C24.9793 20.7838 24.0589 22.3836 23.1703 23.9998C23.0923 23.9583 23.0219 23.9063 22.9602 23.8436C21.692 22.5513 20.4169 21.2666 19.1467 19.9761C20.0488 19.9665 20.9499 19.9752 21.8519 19.9713C26.4509 13.7697 31.0499 7.56704 35.6479 1.36345Z" fill="#C4261B"/>
<path d="M0.000151523 5.28383C10.7796 5.26841 21.558 5.2848 32.3375 5.27612C28.7523 10.011 25.1923 14.7651 21.5908 19.4874C14.3965 19.4816 7.20218 19.4836 0.00786145 19.4903C-0.00852212 14.7545 0.0068977 10.0196 0.000151523 5.28383ZM18.2707 8.77064C17.572 9.00001 17.0092 9.64861 16.9687 10.3955C16.9138 10.9593 17.1123 11.5404 17.5045 11.95C18.1098 12.6073 19.0003 12.8752 19.6884 13.4255C19.9284 13.6086 20.0507 13.9691 19.8898 14.2418C19.7356 14.5454 19.3665 14.6408 19.0533 14.662C18.317 14.6745 17.6433 14.3199 17.0352 13.9401C17.0603 14.5704 17.0998 15.1997 17.1605 15.8281C18.211 16.1548 19.4243 16.3755 20.443 15.8349C21.5474 15.272 21.9349 13.6732 21.2043 12.6728C20.6039 11.9442 19.6961 11.6002 18.9155 11.1116C18.7131 10.9747 18.5001 10.7704 18.5223 10.5034C18.528 10.1382 18.928 9.93869 19.2537 9.9599C19.8985 9.97821 20.4806 10.3059 21.0183 10.6335C21.0183 10.0755 21.0241 9.5185 21.0135 8.9605C20.1375 8.67812 19.1699 8.44297 18.2707 8.77064ZM3.51009 8.84196C4.31867 10.0948 5.18121 11.312 5.99268 12.561C6.02352 13.6847 5.99654 14.8123 6.00521 15.937C6.55936 15.938 7.11351 15.9399 7.66766 15.936C7.66862 14.8027 7.65706 13.6684 7.67248 12.536C8.53503 11.2821 9.48816 10.0861 10.3729 8.84485C9.78885 8.83714 9.20483 8.84581 8.6208 8.84003C8.06858 9.58307 7.52985 10.3377 6.99594 11.0942C6.48515 10.3492 6.01774 9.57633 5.50021 8.83618C4.83716 8.8487 4.17411 8.8381 3.51009 8.84196ZM11.0995 15.9389C12.55 15.938 14.0004 15.936 15.4508 15.9409C15.4585 15.4416 15.4547 14.9434 15.4527 14.4451C14.543 14.4345 13.6332 14.4432 12.7234 14.4422C12.7234 13.9758 12.7254 13.5084 12.7225 13.0419C13.4935 13.0439 14.2645 13.0429 15.0364 13.0439C15.0374 12.563 15.0306 12.083 15.0403 11.604C14.2693 11.5896 13.4973 11.5963 12.7263 11.5992C12.7215 11.1742 12.7244 10.7482 12.7225 10.3223C13.6236 10.2596 14.5285 10.3271 15.4277 10.2914C15.4161 9.80859 15.4248 9.32479 15.4209 8.84196C13.9821 8.84099 12.5432 8.84389 11.1044 8.84003C11.0947 11.206 11.1034 13.573 11.0995 15.9389Z" fill="#005192"/>
<path d="M31.7496 9.4088C32.5274 8.03548 33.2531 6.63131 34.0539 5.2734C44.9384 5.28015 55.8238 5.28496 66.7083 5.27051C66.743 10.0092 66.7179 14.7498 66.7208 19.4895C53.2131 19.4808 39.7063 19.4876 26.1985 19.4866C28.0363 16.1203 29.9031 12.7703 31.7496 9.4088ZM48.8782 8.58673C48.8627 11.0375 48.8733 13.4893 48.8724 15.941C49.2608 15.9391 49.6501 15.9304 50.0395 15.9478C50.0722 14.4453 50.0404 12.9419 50.0549 11.4404C51.5872 13.0036 53.0733 14.614 54.6086 16.1752C54.6365 16.1617 54.6934 16.1357 54.7223 16.1222C54.73 13.8314 54.7194 11.5406 54.7271 9.24979C54.7309 9.10908 54.7155 8.9703 54.6789 8.83442C54.2924 8.84694 53.9069 8.8402 53.5205 8.84116C53.5137 10.3475 53.5205 11.8538 53.5176 13.3601C52.0922 11.8548 50.6543 10.3619 49.2261 8.85851C49.1249 8.75057 49.0227 8.63492 48.8782 8.58673ZM43.8686 9.40495C42.8365 11.5811 41.8226 13.7659 40.7837 15.9372C41.1981 15.9391 41.6125 15.9352 42.0279 15.941C42.2332 15.5247 42.4182 15.0997 42.6071 14.6766C43.6749 14.6766 44.7428 14.6727 45.8106 14.6785C45.9947 15.1026 46.1797 15.5266 46.3801 15.9439C46.8071 15.9333 47.235 15.9401 47.6619 15.9372C46.543 13.4796 45.4424 11.0144 44.3004 8.56842C44.1105 8.82189 44.0103 9.1245 43.8686 9.40495ZM35.3897 8.84116C35.3848 11.2071 35.3926 13.5731 35.3868 15.9391C36.1414 15.9333 36.896 15.9487 37.6516 15.9275C38.3551 15.8822 39.1367 15.7165 39.5954 15.1305C40.0079 14.586 40.0619 13.8285 39.8662 13.1896C39.7005 12.6701 39.2408 12.2952 38.7242 12.1535C38.9931 12.0176 39.2803 11.8895 39.474 11.6495C39.9183 11.1194 39.9135 10.3109 39.5906 9.72202C39.288 9.18907 38.6587 8.95874 38.0804 8.89128C37.187 8.79587 36.2869 8.8614 35.3897 8.84116ZM56.9601 15.9401C57.362 15.9362 57.7638 15.9401 58.1657 15.9372C58.1705 14.8318 58.1628 13.7273 58.1686 12.6229C59.2268 13.7264 60.284 14.8318 61.3374 15.941C61.8645 15.9343 62.3907 15.9439 62.9179 15.9333C61.7325 14.7123 60.5625 13.4748 59.3791 12.2509C60.4479 11.1146 61.5224 9.98416 62.5825 8.84116C62.1103 8.84213 61.6381 8.8402 61.1668 8.84309C60.1626 9.89838 59.1661 10.9604 58.1667 12.0205C58.1609 10.9604 58.1773 9.90031 58.1609 8.8402C57.7638 8.84213 57.3668 8.84405 56.9697 8.83827C56.9427 11.2052 56.963 13.5731 56.9601 15.9401Z" fill="#005192"/>
<path d="M36.5692 9.79045C37.1089 9.80587 37.691 9.71432 38.1912 9.96585C38.7877 10.281 38.7212 11.2659 38.1575 11.582C37.6833 11.8741 37.0993 11.7786 36.5711 11.7931C36.5711 11.1252 36.5731 10.4574 36.5692 9.79045Z" fill="#005192"/>
<path d="M44.1548 11.1829C44.178 11.1521 44.2252 11.0914 44.2483 11.0605C44.6145 11.9289 44.9962 12.7905 45.3634 13.6578C44.5982 13.653 43.831 13.68 43.0668 13.6453C43.4446 12.8319 43.7905 12.0031 44.1548 11.1829Z" fill="#005192"/>
<path d="M36.5702 12.7405C37.1667 12.7732 37.8394 12.6161 38.3647 12.9795C38.9612 13.4083 38.8706 14.4877 38.1941 14.7971C37.6872 15.0293 37.1108 14.931 36.5721 14.9503C36.5712 14.214 36.5731 13.4768 36.5702 12.7405Z" fill="#005192"/>
</svg>
