<svg width="24" height="24" viewBox="0 0 24 24" fill="none" xmlns="http://www.w3.org/2000/svg">
<path d="M3.34409 0.128615C4.36588 -0.209844 5.41972 0.186307 6.37356 0.549125C8.58636 1.44014 10.6761 2.60296 12.7492 3.77346C15.2248 5.17986 17.6286 6.71447 19.944 8.37215C20.735 8.97727 21.5863 9.52598 22.2517 10.276C22.8952 10.9926 23.0978 12.076 22.7158 12.9657C22.335 13.8836 21.4799 14.458 20.7235 15.0452C17.0068 17.8093 13.0184 20.199 8.89534 22.3015C7.65817 22.9054 6.40946 23.5143 5.07742 23.8746C4.23768 24.1182 3.24025 24.0272 2.57359 23.422C2.02103 22.8656 1.77872 22.0861 1.60821 21.34C0.977447 18.2503 1.25822 15.0798 1.09155 11.9529C1.26463 8.77471 0.962063 5.54268 1.66462 2.41065C1.8877 1.48117 2.34282 0.422203 3.34409 0.128615ZM4.5146 2.14142C4.39409 2.9709 4.49921 3.8132 4.45819 4.64909C4.48639 4.97089 4.38511 5.3555 4.59408 5.62986C5.15946 5.69781 5.73126 5.65806 6.30049 5.68755C6.29793 5.96575 6.29536 6.24396 6.29536 6.52344C5.39665 6.5337 4.49794 6.5337 3.59923 6.52216C3.58256 5.42729 3.64282 4.32987 3.58384 3.23629C3.62487 2.77219 2.64923 2.77347 2.68385 3.24141C2.6518 4.63756 2.66461 6.03626 2.68769 7.43369C3.86589 7.57728 5.05562 7.4619 6.24023 7.50805C6.54023 7.47343 6.92612 7.56831 7.16971 7.36702C7.28125 6.81062 7.20689 6.23626 7.23125 5.67345C7.78509 5.65806 8.34535 5.7055 8.89663 5.62986C9.10944 5.45806 9.01713 5.14396 9.05175 4.90679C9.02611 4.28756 9.12354 3.65167 8.97739 3.04526C8.75688 2.81321 8.34278 2.8568 8.12612 3.0709C8.03766 3.61577 8.0915 4.17217 8.0774 4.72217C7.79407 4.72345 7.51074 4.72474 7.22869 4.72602C7.20561 3.9709 7.24407 3.21449 7.21971 2.46065C7.20176 2.31193 7.22099 2.05681 7.00817 2.04783C6.45433 1.96706 5.89151 2.01706 5.33383 2.00424C5.05819 2.01963 4.75434 1.9786 4.5146 2.14142ZM9.94148 3.85295C9.87097 5.18499 9.92866 6.52088 9.90687 7.8542C9.91328 8.31317 9.85815 8.78496 9.97866 9.23496C10.2389 9.32727 10.5351 9.3388 10.7876 9.21316C10.8697 8.84906 10.8479 8.47214 10.8479 8.10163C10.8222 6.69011 10.8646 5.2773 10.8248 3.86577C10.5299 3.86064 10.2351 3.85679 9.94148 3.85295ZM11.7479 4.75807C11.6517 6.54908 11.7261 8.34651 11.7081 10.1401C10.8235 10.1619 9.93764 10.1542 9.05303 10.1491C9.05559 9.56701 9.04405 8.98496 9.01072 8.4042C8.04406 8.31317 7.07356 8.37471 6.10562 8.35548C5.59921 8.35804 5.08895 8.31958 4.58768 8.40163C4.38255 8.73112 4.48511 9.15163 4.45819 9.51957C4.50562 10.6093 4.39409 11.7067 4.51204 12.7913C5.04922 13.0811 5.71203 12.7721 6.26587 12.9837C6.2928 13.2426 6.28638 13.5054 6.28895 13.7657C5.39024 13.7785 4.49152 13.8054 3.59538 13.7401C3.61461 12.2888 3.59153 10.8375 3.61076 9.38624C3.6082 9.05804 3.62486 8.7183 3.51461 8.4042C3.2441 8.35676 2.71974 8.22599 2.68769 8.6324C2.63513 10.208 2.69282 11.7875 2.66718 13.3657C2.67103 13.8029 2.62359 14.2516 2.74154 14.6785C3.85307 14.8298 4.98511 14.69 6.10562 14.7465C6.45818 14.7106 6.8851 14.8349 7.18766 14.6118C7.26587 13.9439 7.21715 13.2683 7.2274 12.5978C7.1992 12.4067 7.25817 12.1631 7.09535 12.0208C6.54792 11.9465 5.9928 11.9875 5.44152 11.967C5.41844 11.0773 5.41203 10.185 5.4505 9.29521C6.33126 9.29393 7.2133 9.28496 8.09535 9.30676C8.10561 9.87726 7.99663 10.4734 8.17996 11.026C8.49021 11.167 8.84662 11.1132 9.17995 11.1273C11.8363 11.0837 14.4953 11.1773 17.1504 11.0785C17.2158 9.88239 17.2299 8.67983 17.1414 7.48369C16.2645 7.48113 15.3722 7.37343 14.5043 7.52984C14.4415 7.80035 14.4235 8.07856 14.3966 8.3542C13.8222 8.36317 13.2479 8.36061 12.6748 8.34779C12.6581 7.15549 12.7171 5.96062 12.6376 4.76961C12.3402 4.76448 12.0428 4.76063 11.7479 4.75807ZM13.6825 5.66832C13.4402 5.87601 13.5235 6.24267 13.5889 6.5119C13.8697 6.57088 14.1581 6.55934 14.444 6.5619C14.444 6.26062 14.4427 5.96062 14.4427 5.65934C14.1889 5.65293 13.9338 5.62858 13.6825 5.66832ZM8.19022 6.60036C8.07612 6.79395 8.03637 7.03369 8.11073 7.24779C8.15817 7.55164 8.55688 7.52471 8.78636 7.47984C9.11713 7.40036 9.0761 6.98626 9.01841 6.73113C8.86072 6.43498 8.45047 6.51318 8.19022 6.60036ZM18.0786 9.52342C18.0081 10.9362 18.0876 12.3567 18.0466 13.7721C17.4517 13.7618 16.8543 13.7593 16.2658 13.8516C16.2632 14.4349 16.2568 15.017 16.2491 15.599C15.9517 15.5926 15.6555 15.5849 15.3594 15.5772C15.3838 14.9849 15.3799 14.39 15.3068 13.8003C14.1338 13.7618 12.9581 13.7606 11.7851 13.8003C11.7569 14.0939 11.6094 14.44 11.8338 14.6939C12.6927 14.8118 13.5645 14.6977 14.4286 14.7477C14.4299 15.0272 14.4312 15.3054 14.435 15.5836C13.2389 15.6118 12.0428 15.6041 10.8479 15.5888C10.8376 14.6939 10.8223 13.8003 10.8658 12.9067C11.712 12.8836 12.5671 12.9862 13.4081 12.8683C13.6761 12.7119 13.6902 11.9888 13.2722 11.999C12.1761 11.9516 11.0748 11.9837 9.97739 11.9978C9.84918 12.8747 9.92866 13.7619 9.90943 14.6452C9.89789 15.2708 9.88764 15.9003 9.97739 16.5221C11.4492 16.558 12.921 16.5093 14.3927 16.5464C14.4338 16.8182 14.4158 17.1118 14.5312 17.367C14.7568 17.4875 15.0479 17.4118 15.3004 17.4375C15.3325 17.1413 15.3658 16.8464 15.3991 16.5516C15.9709 16.4952 16.5876 16.6388 17.1337 16.4375C17.2504 15.8888 17.1825 15.3221 17.1837 14.767C17.7401 14.7324 18.303 14.7721 18.8581 14.7016C19.0145 14.5029 18.9786 14.2375 18.9953 14.0016C18.9812 12.6349 18.9889 11.267 18.9927 9.90034C18.9594 9.66573 19.0389 9.21701 18.6773 9.2606C18.4542 9.23752 18.0889 9.21445 18.0786 9.52342ZM6.34536 10.1798C6.31972 10.3811 6.28767 10.5824 6.28895 10.7862C6.24664 11.1285 6.70946 11.1708 6.95561 11.1183C7.36586 11.0273 7.17356 10.5144 7.21202 10.2144C6.92228 10.2029 6.63382 10.1914 6.34536 10.1798ZM19.8965 10.2029C19.8568 11.3837 19.885 12.5657 19.8773 13.7465C20.1863 13.7913 20.8029 13.9862 20.8017 13.4849C20.8299 12.3901 20.826 11.2926 20.785 10.1978C20.4888 10.1875 20.1914 10.1888 19.8965 10.2029ZM8.10817 12.2529C8.02996 13.3619 8.11842 14.4785 8.07483 15.59C7.53381 15.608 6.98766 15.5554 6.45177 15.6375C6.16587 15.8298 6.18895 16.5541 6.621 16.5234C7.4133 16.5657 8.20816 16.5349 9.00175 16.508C9.08123 15.0067 9.06841 13.499 9.00303 11.9978C8.70816 12.0337 8.17868 11.8349 8.10817 12.2529ZM14.6184 12.008C14.3094 12.1298 14.4363 12.5631 14.4799 12.8183C14.7107 12.9516 14.9914 12.9503 15.2466 12.8978C15.4197 12.6503 15.4325 12.276 15.2632 12.026C15.0543 11.9696 14.8261 11.9465 14.6184 12.008ZM16.3978 12.008C16.1658 12.217 16.2991 12.5849 16.2504 12.8619C16.4799 12.8875 16.7119 12.9388 16.9453 12.9119C17.2543 12.8247 17.2517 12.4247 17.1619 12.1772C17.0504 11.8798 16.6427 11.976 16.3978 12.008ZM2.85308 15.6259C2.54539 15.8041 2.72616 16.2311 2.69282 16.5221C2.95308 16.5247 3.21589 16.5388 3.47615 16.5054C3.64794 16.3029 3.65051 16.0067 3.57487 15.7644C3.4223 15.5272 3.08769 15.5695 2.85308 15.6259ZM4.65819 15.6375C4.37742 15.7734 4.44793 16.1554 4.5005 16.4029C4.71203 16.6246 5.07614 16.4952 5.35049 16.5477C5.38126 16.2836 5.48254 16.0054 5.38126 15.7465C5.20434 15.5439 4.88895 15.558 4.65819 15.6375ZM2.68256 17.4772C2.68128 18.3682 2.6082 19.2657 2.73641 20.1515C4.92742 20.1554 7.11843 20.1451 9.30944 20.1592C9.50687 20.131 9.76841 20.2003 9.90431 20.0131C9.98251 19.4631 9.93764 18.9067 9.94918 18.3541C10.2248 18.3593 10.5005 18.3644 10.7787 18.3708C10.8453 18.6516 10.7299 19.049 10.9979 19.2387C11.2325 19.2605 11.471 19.2426 11.7081 19.2349C11.7492 18.6426 11.7504 18.0503 11.7184 17.458C10.8299 17.3554 9.93379 17.3746 9.04405 17.4426C9.012 18.0336 9.00175 18.6259 9.01072 19.2182C7.21843 19.2272 5.42613 19.2131 3.63255 19.2272C3.62358 18.9387 3.61333 18.6503 3.60564 18.3618C4.99793 18.3349 6.39151 18.3887 7.78125 18.3439C8.24919 18.3823 8.24534 17.6041 7.93765 17.4362C7.16202 17.3259 6.37228 17.4234 5.59152 17.3939C4.62229 17.4259 3.64281 17.3093 2.68256 17.4772ZM12.6453 17.4477C12.653 17.7439 12.662 18.04 12.6722 18.3375C12.9543 18.3387 13.2363 18.3387 13.5209 18.34C13.5376 18.0593 13.6068 17.767 13.5068 17.4939C13.2415 17.3413 12.9299 17.4246 12.6453 17.4477ZM3.61589 21.1349C3.56077 21.3874 3.47102 21.7387 3.70563 21.9285C3.95178 22.0464 4.25563 22.0079 4.48383 21.8618C4.52229 21.5938 4.48639 21.3221 4.46716 21.0541C4.18255 21.0682 3.88128 21.0156 3.61589 21.1349ZM5.47357 21.0849C5.34921 21.3438 5.40049 21.6413 5.38254 21.9195C5.6787 21.9464 6.01202 22.0644 6.27869 21.8695C6.32356 21.6144 6.31715 21.3541 6.32612 21.0964C6.04279 21.0746 5.75562 21.0336 5.47357 21.0849Z" fill="#BB131A"/>
<path d="M5.44014 2.95551C5.71578 2.95166 5.9927 2.94653 6.2709 2.94269C6.29526 3.53499 6.29655 4.12858 6.27603 4.72216C5.99527 4.72216 5.71322 4.72344 5.43373 4.72344C5.41963 4.13499 5.42219 3.54525 5.44014 2.95551Z" fill="#BB131A"/>
<path d="M15.385 8.39398C15.6684 8.39526 15.9504 8.39526 16.235 8.39655C16.2697 8.97987 16.2722 9.56449 16.2414 10.1478C15.0517 10.1542 13.862 10.1594 12.6722 10.144C12.6735 9.86192 12.6748 9.57987 12.6774 9.29654C13.5658 9.28757 14.4556 9.30808 15.344 9.28244C15.3568 8.98629 15.3709 8.69013 15.385 8.39398Z" fill="#BB131A"/>
<path d="M4.51463 2.14147C4.75438 1.97865 5.05822 2.01967 5.33386 2.00429C5.89155 2.01711 6.45437 1.96711 7.00821 2.04788C7.22103 2.05685 7.2018 2.31198 7.21975 2.4607C7.24411 3.21454 7.20565 3.97094 7.22872 4.72606C7.51077 4.72478 7.7941 4.7235 8.07743 4.72222C8.09154 4.17222 8.03769 3.61582 8.12615 3.07095C8.34282 2.85685 8.75691 2.81326 8.97742 3.04531C9.12358 3.65171 9.02614 4.28761 9.05178 4.90683C9.01717 5.14401 9.10948 5.45811 8.89666 5.6299C8.34538 5.70554 7.78512 5.65811 7.23128 5.67349C7.20692 6.23631 7.28128 6.81066 7.16975 7.36707C6.92616 7.56835 6.54026 7.47348 6.24027 7.5081C5.05566 7.46194 3.86592 7.57733 2.68772 7.43374C2.66465 6.03631 2.65183 4.6376 2.68388 3.24146C2.64927 2.77351 3.6249 2.77223 3.58388 3.23633C3.64285 4.32991 3.5826 5.42734 3.59926 6.5222C4.49797 6.53374 5.39668 6.53374 6.29539 6.52349C6.29539 6.244 6.29796 5.9658 6.30053 5.6876C5.7313 5.65811 5.1595 5.69785 4.59412 5.6299C4.38515 5.35555 4.48643 4.97093 4.45822 4.64914C4.49925 3.81325 4.39412 2.97095 4.51463 2.14147ZM5.44027 2.95556C5.42232 3.5453 5.41976 4.13504 5.43386 4.7235C5.71335 4.7235 5.9954 4.72222 6.27617 4.72222C6.29668 4.12863 6.29539 3.53505 6.27103 2.94274C5.99283 2.94659 5.71591 2.95172 5.44027 2.95556Z" fill="#ED1B24"/>
<path d="M9.94153 3.85297C10.2351 3.85681 10.53 3.86066 10.8249 3.86579C10.8646 5.27732 10.8223 6.69012 10.8479 8.10165C10.8479 8.47216 10.8697 8.84908 10.7877 9.21318C10.5351 9.33882 10.239 9.32728 9.97871 9.23498C9.85819 8.78498 9.91332 8.31319 9.90691 7.85422C9.92871 6.5209 9.87102 5.18501 9.94153 3.85297Z" fill="#ED1B24"/>
<path d="M11.7479 4.75806C12.0427 4.76062 12.3402 4.76447 12.6376 4.76959C12.7171 5.96061 12.6581 7.15548 12.6748 8.34777C13.2478 8.36059 13.8222 8.36316 14.3965 8.35418C14.4235 8.07854 14.4414 7.80034 14.5042 7.52983C15.3722 7.37342 16.2645 7.48111 17.1414 7.48368C17.2299 8.67982 17.2158 9.88238 17.1504 11.0785C14.4953 11.1772 11.8363 11.0837 9.17992 11.1272C8.84659 11.1131 8.49018 11.167 8.17993 11.026C7.9966 10.4734 8.10557 9.87725 8.09532 9.30674C7.21327 9.28495 6.33123 9.29392 5.45046 9.2952C5.412 10.1849 5.41841 11.0772 5.44149 11.967C5.99277 11.9875 6.54788 11.9465 7.09532 12.0208C7.25814 12.1631 7.19917 12.4067 7.22737 12.5977C7.21711 13.2683 7.26583 13.9439 7.18763 14.6118C6.88507 14.8349 6.45815 14.7105 6.10558 14.7464C4.98508 14.69 3.85304 14.8298 2.74151 14.6785C2.62356 14.2516 2.67099 13.8029 2.66715 13.3657C2.69279 11.7875 2.63509 10.208 2.68766 8.63239C2.71971 8.22598 3.24406 8.35675 3.51457 8.40418C3.62483 8.71828 3.60816 9.05803 3.61073 9.38623C3.5915 10.8375 3.61457 12.2888 3.59534 13.74C4.49149 13.8054 5.3902 13.7785 6.28891 13.7657C6.28635 13.5054 6.29276 13.2426 6.26584 12.9836C5.712 12.7721 5.04918 13.0811 4.51201 12.7913C4.39406 11.7067 4.50559 10.6093 4.45816 9.51956C4.48508 9.15161 4.38252 8.7311 4.58764 8.40162C5.08892 8.31957 5.59918 8.35803 6.10558 8.35547C7.07353 8.3747 8.04403 8.31316 9.01069 8.40418C9.04402 8.98495 9.05556 9.567 9.053 10.149C9.93761 10.1542 10.8235 10.1619 11.7081 10.1401C11.7261 8.34649 11.6517 6.54907 11.7479 4.75806ZM15.385 8.39393C15.3709 8.69008 15.3568 8.98623 15.344 9.28238C14.4555 9.30802 13.5658 9.28751 12.6773 9.29649C12.6748 9.57982 12.6735 9.86187 12.6722 10.1439C13.8619 10.1593 15.0517 10.1542 16.2414 10.1478C16.2722 9.56443 16.2696 8.97982 16.235 8.39649C15.9504 8.39521 15.6683 8.39521 15.385 8.39393Z" fill="#ED1B24"/>
<path d="M13.6826 5.66842C13.9339 5.62867 14.189 5.65303 14.4428 5.65944C14.4428 5.96072 14.4441 6.26072 14.4441 6.562C14.1582 6.55943 13.8698 6.57097 13.589 6.512C13.5236 6.24277 13.4403 5.87611 13.6826 5.66842Z" fill="#ED1B24"/>
<path d="M8.19021 6.60042C8.45047 6.51324 8.86072 6.43504 9.01841 6.73119C9.0761 6.98631 9.11712 7.40041 8.78636 7.4799C8.55687 7.52477 8.15816 7.55169 8.11073 7.24785C8.03637 7.03375 8.07611 6.79401 8.19021 6.60042Z" fill="#ED1B24"/>
<path d="M18.0786 9.52334C18.0889 9.21436 18.4542 9.23744 18.6773 9.26052C19.0389 9.21693 18.9594 9.66564 18.9927 9.90026C18.9889 11.2669 18.9812 12.6349 18.9953 14.0015C18.9786 14.2374 19.0145 14.5028 18.8581 14.7015C18.303 14.772 17.7401 14.7323 17.1837 14.7669C17.1825 15.322 17.2504 15.8887 17.1337 16.4374C16.5876 16.6387 15.9709 16.4951 15.3991 16.5515C15.3658 16.8464 15.3325 17.1412 15.3004 17.4374C15.0479 17.4117 14.7568 17.4874 14.5312 17.3669C14.4158 17.1117 14.4338 16.8182 14.3927 16.5464C12.921 16.5092 11.4492 16.5579 9.97739 16.522C9.88764 15.9002 9.89789 15.2707 9.90943 14.6451C9.92866 13.7618 9.84918 12.8746 9.97739 11.9977C11.0748 11.9836 12.1761 11.9515 13.2722 11.999C13.6902 11.9887 13.6761 12.7118 13.4081 12.8682C12.5671 12.9861 11.712 12.8836 10.8658 12.9066C10.8222 13.8002 10.8376 14.6938 10.8479 15.5887C12.0428 15.6041 13.2389 15.6118 14.435 15.5835C14.4312 15.3053 14.4299 15.0271 14.4286 14.7477C13.5645 14.6977 12.6927 14.8118 11.8338 14.6938C11.6094 14.44 11.7569 14.0938 11.7851 13.8002C12.9581 13.7605 14.1338 13.7618 15.3068 13.8002C15.3799 14.39 15.3838 14.9848 15.3594 15.5771C15.6555 15.5848 15.9517 15.5925 16.2491 15.5989C16.2568 15.0169 16.2632 14.4348 16.2658 13.8515C16.8543 13.7592 17.4517 13.7618 18.0466 13.772C18.0876 12.3566 18.0081 10.9361 18.0786 9.52334Z" fill="#ED1B24"/>
<path d="M6.34538 10.1799C6.63384 10.1915 6.9223 10.203 7.21204 10.2145C7.17358 10.5145 7.36588 11.0274 6.95563 11.1184C6.70948 11.1709 6.24666 11.1286 6.28897 10.7863C6.28769 10.5825 6.31974 10.3812 6.34538 10.1799Z" fill="#ED1B24"/>
<path d="M19.8966 10.203C20.1915 10.1889 20.4889 10.1876 20.7851 10.1978C20.8261 11.2927 20.8299 12.3901 20.8017 13.485C20.803 13.9863 20.1863 13.7914 19.8774 13.7465C19.8851 12.5658 19.8569 11.3837 19.8966 10.203Z" fill="#ED1B24"/>
<path d="M8.1082 12.2529C8.17871 11.835 8.70819 12.0337 9.00306 11.9978C9.06844 13.4991 9.08126 15.0068 9.00178 16.508C8.20819 16.5349 7.41333 16.5657 6.62103 16.5234C6.18898 16.5542 6.16591 15.8298 6.4518 15.6375C6.9877 15.5555 7.53384 15.608 8.07486 15.5901C8.11845 14.4785 8.02999 13.3619 8.1082 12.2529Z" fill="#ED1B24"/>
<path d="M14.6185 12.0079C14.8262 11.9464 15.0544 11.9695 15.2633 12.0259C15.4326 12.2759 15.4197 12.6502 15.2467 12.8977C14.9915 12.9502 14.7108 12.9515 14.48 12.8182C14.4364 12.5631 14.3095 12.1297 14.6185 12.0079Z" fill="#ED1B24"/>
<path d="M16.3978 12.0081C16.6427 11.976 17.0504 11.8799 17.1619 12.1773C17.2516 12.4247 17.2542 12.8247 16.9452 12.9119C16.7119 12.9388 16.4799 12.8876 16.2504 12.8619C16.2991 12.585 16.1657 12.2171 16.3978 12.0081Z" fill="#ED1B24"/>
<path d="M2.85295 15.626C3.08756 15.5696 3.42218 15.5273 3.57474 15.7645C3.65038 16.0068 3.64781 16.3029 3.47602 16.5055C3.21577 16.5388 2.95295 16.5247 2.6927 16.5222C2.72603 16.2311 2.54526 15.8042 2.85295 15.626Z" fill="#ED1B24"/>
<path d="M4.65812 15.6375C4.88889 15.558 5.20428 15.5439 5.3812 15.7465C5.48248 16.0054 5.3812 16.2836 5.35043 16.5478C5.07607 16.4952 4.71197 16.6247 4.50043 16.4029C4.44787 16.1554 4.37736 15.7734 4.65812 15.6375Z" fill="#ED1B24"/>
<path d="M2.68254 17.4772C3.64278 17.3092 4.62226 17.4259 5.59149 17.3939C6.37225 17.4233 7.16199 17.3259 7.93762 17.4362C8.24531 17.6041 8.24916 18.3823 7.78122 18.3439C6.39148 18.3887 4.9979 18.3349 3.60561 18.3618C3.6133 18.6503 3.62355 18.9387 3.63252 19.2272C5.4261 19.2131 7.2184 19.2272 9.01069 19.2182C9.00172 18.6259 9.01198 18.0336 9.04403 17.4426C9.93376 17.3746 10.8299 17.3554 11.7184 17.458C11.7504 18.0503 11.7491 18.6426 11.7081 19.2349C11.4709 19.2426 11.2325 19.2605 10.9979 19.2387C10.7299 19.049 10.8453 18.6515 10.7786 18.3708C10.5004 18.3644 10.2248 18.3592 9.94915 18.3541C9.93761 18.9067 9.98248 19.4631 9.90428 20.0131C9.76838 20.2002 9.50684 20.131 9.30941 20.1592C7.1184 20.1451 4.92739 20.1554 2.73638 20.1515C2.60817 19.2656 2.68125 18.3682 2.68254 17.4772Z" fill="#ED1B24"/>
<path d="M12.6453 17.4479C12.9299 17.4248 13.2414 17.3415 13.5068 17.4941C13.6068 17.7671 13.5376 18.0594 13.5209 18.3402C13.2363 18.3389 12.9542 18.3389 12.6722 18.3376C12.6619 18.0402 12.653 17.7441 12.6453 17.4479Z" fill="#ED1B24"/>
<path d="M3.61591 21.1348C3.88129 21.0156 4.18257 21.0681 4.46718 21.054C4.48641 21.322 4.52231 21.5938 4.48385 21.8617C4.25564 22.0079 3.9518 22.0463 3.70565 21.9284C3.47103 21.7386 3.56078 21.3873 3.61591 21.1348Z" fill="#ED1B24"/>
<path d="M5.4736 21.0849C5.75565 21.0337 6.04282 21.0747 6.32615 21.0965C6.31718 21.3542 6.32359 21.6144 6.27871 21.8696C6.01205 22.0644 5.67872 21.9465 5.38257 21.9196C5.40052 21.6414 5.34924 21.3439 5.4736 21.0849Z" fill="#ED1B24"/>
</svg>
