<svg width="24" height="24" viewBox="0 0 24 24" fill="none" xmlns="http://www.w3.org/2000/svg">
<g clip-path="url(#clip0_45_4212)">
<path d="M23.0547 7.32748C23.6813 8.81026 24 10.3822 24 12C24 13.6178 23.6813 15.1897 23.0547 16.6725C22.4497 18.1013 21.5854 19.3842 20.4862 20.4862C19.3869 21.5854 18.104 22.4497 16.6725 23.0547C15.1897 23.6813 13.6178 24 12 24C10.3822 24 8.81026 23.6813 7.32748 23.0547C5.89872 22.4497 4.6158 21.5854 3.51384 20.4862C2.41458 19.3869 1.5503 18.104 0.945308 16.6725C0.318704 15.1897 0 13.6178 0 12C0 10.3822 0.318704 8.81026 0.945308 7.32748C1.5503 5.89872 2.41458 4.6158 3.51384 3.51384C4.6131 2.41188 5.89602 1.5503 7.32748 0.945307C8.81026 0.318704 10.3822 0 12 0C13.6178 0 15.1897 0.318704 16.6725 0.945307C18.1013 1.5503 19.3842 2.41458 20.4862 3.51384C21.5881 4.6158 22.4524 5.89872 23.0547 7.32748Z" fill="#030200"/>
<path d="M2.45764 10.8223C2.43063 10.7953 2.41443 10.7467 2.42523 10.6765L2.43333 10.5279L2.75204 10.5522L2.74124 10.6981C2.73583 10.7683 2.72233 10.8223 2.68992 10.8358C2.66291 10.8601 2.6224 10.8682 2.57108 10.8655C2.52246 10.8628 2.48465 10.8439 2.45764 10.8223ZM6.25508 5.14238C6.44684 5.13698 6.59809 4.98033 6.59539 4.78586C6.59539 4.5914 6.43333 4.43475 6.23887 4.44015C6.04981 4.44285 5.89316 4.5995 5.89586 4.79667C5.90126 4.98843 6.06061 5.14238 6.25508 5.14238ZM9.98229 20.5563C9.96068 20.5239 9.93367 20.5077 9.89856 20.4969C9.86075 20.4888 9.82294 20.4969 9.77972 20.5212C9.73651 20.5455 9.69869 20.5914 9.66088 20.6616C9.62307 20.721 9.59336 20.8075 9.56905 20.9101C9.53124 21.0667 9.52584 21.1937 9.55015 21.2909C9.56905 21.3666 9.60686 21.4125 9.66628 21.4287C9.7068 21.4341 9.74731 21.4287 9.78512 21.4071C9.82563 21.3828 9.86615 21.3422 9.90126 21.2693C9.93907 21.2045 9.96878 21.1181 9.99579 21.0181C10.012 20.9425 10.0255 20.875 10.0282 20.8102C10.0309 20.7508 10.0309 20.7021 10.0228 20.6643C10.0174 20.6238 10.0012 20.5887 9.98229 20.5563ZM3.18688 10.8682C3.21929 10.8709 3.249 10.8655 3.27331 10.8547C3.30302 10.8412 3.31922 10.8277 3.33003 10.8088C3.33813 10.7926 3.34623 10.7548 3.34623 10.7062L3.35433 10.59L3.05454 10.5711L3.04373 10.7062C3.04373 10.7629 3.05183 10.8061 3.07614 10.8277C3.10585 10.8547 3.14097 10.8655 3.18688 10.8682ZM16.6291 4.5752C16.7939 4.68593 16.8614 4.57519 17.0073 4.36182L17.1639 4.47256C17.0073 4.70484 16.956 4.78856 17.118 4.8939C17.2503 4.97222 17.4205 4.8858 17.5204 4.73995C17.6366 4.55899 17.6312 4.30511 17.4853 4.17547C17.3665 4.07013 17.1936 3.9837 17.0559 3.99721C16.9046 4.01341 16.6643 4.09984 16.5076 4.14305L16.621 4.21328C16.459 4.2889 16.5238 4.50767 16.6291 4.5752ZM22.5576 7.53806C23.1572 8.95332 23.4597 10.455 23.4597 11.9999C23.4597 13.5448 23.1572 15.0465 22.5576 16.4618C21.9796 17.8257 21.1558 19.0519 20.1025 20.1025C19.0491 21.1532 17.8256 21.9797 16.4617 22.5576C15.0464 23.1572 13.5447 23.4597 11.9998 23.4597C10.4549 23.4597 8.95325 23.1572 7.53799 22.5576C6.17405 21.9797 4.94785 21.1559 3.89721 20.1025C2.84657 19.0492 2.0201 17.8257 1.44211 16.4618C0.842517 15.0465 0.540019 13.5448 0.540019 11.9999C0.540019 10.455 0.842517 8.95332 1.44211 7.53806C2.0201 6.17411 2.84387 4.94792 3.89721 3.89728C4.95055 2.84663 6.17405 2.02017 7.53799 1.44218C8.95325 0.842583 10.4549 0.540084 11.9998 0.540084C13.5447 0.540084 15.0464 0.842583 16.4617 1.44218C17.8256 2.02017 19.0518 2.84393 20.1025 3.89728C21.1531 4.95062 21.9796 6.17411 22.5576 7.53806ZM22.2524 9.8311C20.6291 10.0796 20.2132 10.1984 20.2186 10.6738C20.224 11.0843 20.8047 11.0438 20.9695 11.0303L20.9722 11.4435L21.5285 11.4327C21.5691 11.8622 22.2956 11.7784 22.3388 11.2572C22.3901 10.663 21.8337 10.7683 21.8337 10.7683C21.831 10.7359 21.7743 10.5063 21.9283 10.4982C22.0768 10.4901 21.9985 10.6576 21.9985 10.6576L22.274 10.7251C22.3847 10.5387 22.3361 10.2389 21.8715 10.2659C21.4097 10.2903 21.5366 10.7845 21.5366 10.7845L21.2449 10.8061L21.2395 10.536L20.9532 10.5522L20.9586 10.7764C20.7507 10.7872 20.5697 10.7575 20.5454 10.6333C20.5238 10.4928 20.6778 10.4091 20.8938 10.347C21.1126 10.2821 22.2902 10.0769 22.2902 10.0769L22.2524 9.8311ZM20.4995 12.3051C20.3645 12.3024 20.2564 12.3807 20.2564 12.4861C20.2537 12.586 20.3564 12.6724 20.4887 12.6724C20.621 12.6805 20.7291 12.5995 20.7291 12.5023C20.7318 12.3942 20.6291 12.3105 20.4995 12.3051ZM18.536 5.47729C18.1092 5.80409 18.193 6.32536 18.5711 6.77911C18.9735 7.27607 19.6298 7.22205 20.089 6.84123C20.3185 6.64677 20.4806 6.36858 20.5184 6.08228C20.5562 5.80409 20.4752 5.5232 20.278 5.28012C20.016 4.96142 19.6433 4.79937 19.2895 4.8993L19.43 5.06946C19.7108 5.05055 19.9377 5.16399 20.1241 5.40166C20.2726 5.59883 20.3537 5.8311 20.3104 6.05798C20.2753 6.25784 20.143 6.45771 19.9728 6.59275C19.6433 6.85744 19.2031 6.86284 18.8952 6.49012C18.779 6.36047 18.6818 6.21193 18.6467 6.05258C18.6143 5.90943 18.6305 5.76358 18.752 5.65285C18.8871 5.5232 19.0086 5.59072 19.1194 5.72577L19.511 6.20652C19.7622 6.00396 19.773 5.70146 19.5893 5.43948C19.4462 5.25041 19.2058 5.03164 19.0248 5.15858C18.9492 5.218 18.9519 5.28823 19.0059 5.40706C18.8331 5.33144 18.7061 5.34494 18.536 5.47729ZM16.4158 4.22948C16.3077 4.27 16.0431 4.5887 16.3618 4.83988C16.5238 4.96952 16.748 4.96952 16.7642 4.85609C16.7399 5.00193 16.802 5.15588 16.9262 5.23421C17.0991 5.33954 17.2098 5.31524 17.3368 5.28553C17.3503 5.30713 17.3692 5.32064 17.3881 5.33954L17.3935 5.33144L17.3557 5.27742C17.3503 5.28012 17.3368 5.28282 17.3368 5.28282C17.3368 5.28282 17.3341 5.28012 17.3314 5.27742C17.488 5.23961 17.6609 5.08566 17.7527 4.9047C17.8391 4.74265 17.8445 4.63191 17.8229 4.45366C17.7986 4.2754 17.6609 4.14576 17.5258 4.04312C17.7581 4.13495 18.0741 4.31321 18.1362 4.57249C18.2011 4.83178 18.1173 5.06135 17.9553 5.24771C17.8121 5.41247 17.5474 5.43948 17.3935 5.34224L17.3908 5.33684L17.3665 5.35575C17.1963 5.37195 17.0478 5.49079 16.9992 5.59072C16.8749 5.80679 16.9208 6.04447 17.0937 6.20652C17.3449 6.4415 17.696 6.38478 17.8959 6.09309L17.7446 5.95264C17.6366 6.09309 17.4232 6.1282 17.3071 6.01476C17.1828 5.89862 17.1828 5.69336 17.2855 5.57722L17.5583 5.58802C17.5826 5.59343 17.6069 5.59613 17.6285 5.59883C17.9904 5.61773 18.1876 5.42597 18.3901 5.10997C18.6359 4.72104 18.536 4.26189 18.1686 3.9783C17.9283 3.79194 17.7257 3.75143 17.5285 3.75683C17.5285 3.59208 17.4259 3.46243 17.2584 3.3679C17.0775 3.26797 16.8803 3.31659 16.7507 3.43542C16.621 3.55426 16.6237 3.78114 16.7966 3.85676C16.7372 3.86757 16.6264 3.91348 16.5481 3.93509C16.4806 3.95399 16.3996 3.9675 16.3347 3.99181L16.2942 4.14575L16.4158 4.22948ZM15.0275 3.81895C15.1572 4.12955 15.5164 4.26729 15.8189 4.13765C16.1241 4.00531 16.2618 3.64609 16.1322 3.3436C15.9998 3.0357 15.646 2.89255 15.3435 3.02489C15.041 3.15723 14.8979 3.51375 15.0275 3.81895ZM14.1119 4.09984C14.6197 4.19707 14.6926 3.68931 14.6764 3.57587L14.4846 3.55156C14.4549 3.62719 14.4549 3.6677 14.4306 3.72442C14.3901 3.80544 14.0984 3.86216 14.1362 3.40842C14.1497 3.24636 14.2686 3.03569 14.4144 2.90875C14.563 2.78721 14.6737 2.71429 14.8466 2.61706L14.8817 2.4496L14.1227 2.24704L14.0822 2.45771L14.5738 2.57925C14.4063 2.67108 14.2011 2.79262 14.0768 2.90335C13.9418 3.02759 13.8256 3.14373 13.7743 3.43002C13.7068 3.79194 13.8553 4.05123 14.1119 4.09984ZM11.9944 3.72442C12.1889 3.72982 12.3294 3.63259 12.3726 3.50565C12.4914 3.70281 12.6508 3.75413 12.8776 3.76223C13.0937 3.77033 13.2936 3.6596 13.4205 3.50295C13.5907 3.29228 13.6744 3.0438 13.6825 2.7305C13.6906 2.4388 13.5555 2.05258 13.3746 1.86081C13.1531 1.61773 12.9073 1.53671 12.5616 1.5178C12.17 1.4989 11.7811 1.66905 11.6325 2.03907L11.8594 2.05258C11.9998 1.8311 12.2834 1.71767 12.5562 1.73387C12.8128 1.74197 13.0505 1.8257 13.2071 2.03907C13.3287 2.20923 13.4097 2.4334 13.3989 2.69268C13.3827 3.06811 13.199 3.40571 12.9019 3.39761C12.7372 3.39221 12.5832 3.25717 12.5913 3.12212C12.5994 3.03029 12.6426 2.95197 12.694 2.90605C12.8128 2.81692 12.8803 2.82232 12.8857 2.66027C12.8911 2.39018 12.6859 2.14441 12.3077 2.14441C11.8621 2.14441 11.6244 2.40639 11.5542 2.84663C11.4759 3.27337 11.6082 3.70551 11.9944 3.72442ZM9.13421 2.78721L9.29896 2.7548C9.29896 2.57384 9.35838 2.53063 9.4124 2.51713C9.55285 2.49012 9.75271 2.81422 9.82564 3.11402C9.90666 3.41922 9.87425 3.76763 9.73921 3.80815C9.6987 3.81895 9.57986 3.72442 9.53664 3.60828L9.33948 3.63259C9.38809 4.04582 9.79863 4.02151 9.87965 3.99991C10.2281 3.91078 10.2956 3.39491 10.1957 3.01409C10.1011 2.63867 9.84184 2.23353 9.47722 2.26865C9.16122 2.29565 9.05319 2.57384 9.13421 2.78721ZM6.75204 3.76223C6.78985 3.94049 6.98431 4.05122 7.13826 3.94049C7.11666 3.99721 7.08965 4.08363 7.06534 4.15926C7.04913 4.22948 7.02482 4.33482 7.01672 4.40504L7.12746 4.52388L7.249 4.46446C7.22739 4.57519 7.36784 4.97222 7.74326 4.82638C7.93772 4.74805 8.05116 4.55629 7.96203 4.48066C8.07547 4.5752 8.24022 4.6076 8.36446 4.53738C8.54542 4.44285 8.58593 4.33482 8.62105 4.21328C8.64535 4.21058 8.67236 4.20517 8.69667 4.19437L8.72368 4.34022C8.8074 4.32401 8.96136 4.23758 9.04238 4.11875C9.25035 3.81085 9.18823 3.54886 9.01807 3.20585C8.81011 2.79532 8.36986 2.64407 7.94042 2.81422C7.65413 2.93036 7.51909 3.08161 7.42186 3.25987C7.28411 3.17344 7.11936 3.19235 6.96001 3.28688C6.77905 3.39491 6.71963 3.58938 6.75204 3.76223ZM6.22807 5.43677C6.54947 5.47189 6.83847 5.23691 6.87628 4.91551C6.91409 4.586 6.67911 4.297 6.35501 4.25919C6.0336 4.22408 5.73921 4.46176 5.7041 4.78856C5.66629 5.10997 5.90126 5.40436 6.22807 5.43677ZM4.36446 7.10862C4.82631 7.52185 5.50153 7.47864 5.90936 6.96817C6.51976 6.20652 6.07142 5.84191 5.89316 5.64474L5.7257 5.8365C5.84994 5.89863 6.23077 6.139 5.68249 6.80882C5.39079 7.17614 4.82361 7.08431 4.4995 6.744C4.23212 6.47121 4.12679 6.00126 4.40768 5.67175C4.55622 5.49349 4.75879 5.38276 4.96676 5.38816C5.0964 5.38816 5.44211 5.62043 5.20714 5.96615C4.99647 6.27405 4.72098 6.139 4.82901 5.97965C4.88843 5.89592 4.90734 5.84731 4.96946 5.78789L5.06669 5.67175L4.91004 5.53941L4.35636 6.20112L4.51031 6.33617L4.61024 6.22543C4.60214 6.39829 5.13151 6.7467 5.49883 6.23623C5.76622 5.86081 5.67169 5.507 5.42591 5.31524C5.04778 5.02354 4.58323 5.10187 4.24292 5.5043C3.81888 6.01746 3.89721 6.69808 4.36446 7.10862ZM2.0363 10.8439C2.04441 10.879 2.06331 10.9115 2.08762 10.9439C2.11193 10.9817 2.13894 11.0087 2.16325 11.0249C2.20106 11.0519 2.24697 11.0762 2.30639 11.0978C2.36581 11.114 2.42793 11.1248 2.50086 11.1302C2.60079 11.1356 2.68722 11.1248 2.76014 11.0978C2.82766 11.0708 2.87628 11.033 2.90599 10.9817C2.99242 11.0762 3.10855 11.1275 3.2517 11.1356C3.40565 11.1464 3.52449 11.114 3.60281 11.0384C3.67034 10.9817 3.70545 10.8871 3.71625 10.7629L3.75406 10.2497L2.06602 10.1498L2.0255 10.6711C2.0255 10.7494 2.0282 10.8061 2.0363 10.8439ZM1.92827 12.4753L3.61902 12.0836V11.7109L1.93367 11.3085L1.93097 11.665L2.15244 11.7109V12.0701L1.93097 12.1106V12.4753H1.92827ZM2.07142 13.8068L3.75676 13.6528L3.72165 13.3017L2.81956 13.3882L3.68654 12.9263L3.65683 12.586L1.97418 12.7426L2.0066 13.0911L2.88438 13.01L2.03901 13.4611L2.07142 13.8068ZM2.46304 15.3004L3.38404 14.6117L4.10248 14.8574L3.99984 14.4388L3.38134 14.2524L3.92422 14.1174L3.83779 13.7771L2.19566 14.1822L2.27938 14.5225L2.79255 14.3956L2.9546 14.4577L2.36581 14.879L2.46304 15.3004ZM3.41645 16.8858C3.53259 16.9263 3.65953 16.9344 3.79728 16.9128C3.93502 16.8885 4.08357 16.8399 4.23212 16.767C4.38877 16.6832 4.51571 16.5941 4.61294 16.4915C4.71288 16.3888 4.76959 16.2781 4.7939 16.1647C4.81281 16.0512 4.7993 15.9432 4.75339 15.846C4.72638 15.7919 4.69397 15.7487 4.65346 15.7109C4.61024 15.6731 4.55892 15.6434 4.51031 15.6191C4.45359 15.5975 4.39147 15.5813 4.31044 15.5786C4.22672 15.5705 4.13219 15.584 4.03225 15.6056C3.93232 15.6326 3.82159 15.6704 3.70545 15.7298C3.46507 15.8541 3.29491 15.9972 3.19768 16.1674C3.09775 16.3321 3.08965 16.4942 3.16527 16.6562C3.21929 16.767 3.30572 16.8453 3.41645 16.8858ZM4.66426 17.1964L4.89383 17.0505L5.16662 17.4719L5.51774 17.2423L5.05049 16.5212L3.62982 17.4503L3.82429 17.7528L4.32665 17.4233L4.54272 17.7636L4.88303 17.5394L4.66426 17.1964ZM5.51233 19.4273C5.59876 19.403 5.67169 19.3787 5.73111 19.3382C5.79863 19.3031 5.86885 19.2464 5.94718 19.1734L5.69059 18.9358C5.62577 19.0006 5.56365 19.0384 5.50693 19.0492C5.45291 19.06 5.4016 19.0492 5.36379 19.0087C5.33138 18.979 5.31247 18.9412 5.30977 18.8979C5.30977 18.8574 5.32327 18.8034 5.35298 18.7467C5.38269 18.6927 5.43131 18.6198 5.51504 18.5333C5.63928 18.4091 5.73111 18.3335 5.81483 18.3011C5.89586 18.274 5.95798 18.2848 6.00659 18.3281C6.04441 18.3632 6.05521 18.4091 6.04981 18.4685C6.04441 18.5252 6.012 18.5873 5.95798 18.6549L6.20646 18.8898C6.26588 18.8169 6.30909 18.7521 6.3415 18.6927C6.39012 18.609 6.41713 18.5252 6.43333 18.4442C6.44684 18.3632 6.44414 18.2794 6.41713 18.2065C6.39012 18.1309 6.34691 18.0661 6.29289 18.0094C6.22537 17.9445 6.14704 17.9094 6.05791 17.8932C5.98769 17.8824 5.90936 17.8878 5.82023 17.9094C5.7284 17.9337 5.64198 17.9769 5.54204 18.0445C5.44481 18.1066 5.35298 18.1876 5.25845 18.2848C5.15042 18.3983 5.07209 18.5144 5.01537 18.6333C4.96946 18.717 4.94245 18.8007 4.92895 18.8898C4.91544 18.9736 4.92354 19.0546 4.95055 19.1329C4.97756 19.2085 5.02078 19.2761 5.08019 19.3355C5.14231 19.3895 5.20714 19.4246 5.28006 19.4408C5.35298 19.4543 5.42861 19.4462 5.51233 19.4273ZM6.23347 19.719L6.39552 19.5083L6.75744 19.7973L6.99782 19.4948L6.6332 19.2058L6.78175 19.0141L7.20848 19.3598L7.45697 19.0411L6.75474 18.482L5.7068 19.8216L6.42523 20.3942L6.68181 20.0755L6.23347 19.719ZM7.60551 20.3834L8.50491 19.6758L8.1592 19.4624L7.70545 19.8622L7.84049 19.2734L7.49208 19.06L7.28951 20.1998L6.97081 20.7345L7.27871 20.9236L7.60551 20.3834ZM8.91004 21.1451L8.44549 20.9641L8.89653 19.7892L8.56162 19.6596L7.95123 21.2477L8.74799 21.5637L8.91004 21.1451ZM10.3847 20.6157C10.3712 20.4753 10.3253 20.3564 10.2551 20.2673C10.1822 20.1755 10.0957 20.116 9.98769 20.0917C9.92827 20.0782 9.87695 20.0755 9.82024 20.0836C9.76622 20.0917 9.7095 20.1079 9.65548 20.1322C9.60416 20.1566 9.55285 20.2025 9.49343 20.2619C9.43941 20.3186 9.38269 20.3996 9.33678 20.4942C9.28546 20.586 9.25035 20.6967 9.21794 20.8264C9.15312 21.0884 9.15312 21.3125 9.21524 21.5016C9.27736 21.6826 9.3989 21.7987 9.56635 21.8365C9.68519 21.8662 9.80133 21.8527 9.90396 21.7933C10.0066 21.7312 10.0984 21.6393 10.174 21.5178C10.2443 21.3936 10.3037 21.2504 10.3388 21.083C10.3874 20.9182 10.3982 20.7589 10.3847 20.6157ZM11.7108 20.3942L11.3678 20.3618L11.2787 21.272L10.987 20.3267L10.6521 20.297L10.4873 21.9932L10.8331 22.0283L10.9195 21.1397L11.2031 22.0634L11.5461 22.0985L11.7108 20.3942ZM18.9357 11.9999C18.9357 8.17006 15.8297 5.06405 11.9998 5.06405C8.17 5.06405 5.06399 8.17006 5.06399 11.9999C5.06399 15.8298 8.17 18.9358 11.9998 18.9358C15.8297 18.9358 18.9357 15.8298 18.9357 11.9999ZM17.1639 18.7143C17.0883 18.6117 16.9614 18.5738 16.8749 18.6306C16.7993 18.69 16.7966 18.8277 16.8722 18.9358C16.9478 19.0411 17.0802 19.0762 17.1612 19.0141C17.2368 18.9574 17.2395 18.8223 17.1639 18.7143ZM15.1356 21.8338C15.1356 21.8338 15.0437 19.6461 13.7797 19.8514C12.5157 20.0512 12.9208 21.4314 13.1909 21.7879C13.2422 21.85 13.3017 21.9256 13.3746 22.004C13.0343 22.6414 13.5961 22.9412 13.931 22.717C13.9904 22.6738 14.0606 22.6252 14.12 22.5657C14.3604 22.663 14.5927 22.6495 14.7844 22.4307C14.9492 22.2335 14.8709 21.9337 14.5927 21.7231C14.6089 21.6096 14.59 21.4773 14.5819 21.3395C14.5414 20.6805 14.0633 20.3429 13.723 20.4212C13.7122 20.4239 13.6987 20.4266 13.6825 20.4266C13.4718 20.4699 13.3422 20.7156 13.3962 20.9803C13.4421 21.245 13.6609 21.426 13.8688 21.3828C14.0471 21.3476 14.1578 21.1397 14.1632 20.929C14.2416 21.0154 14.3847 21.218 14.3469 21.5826C14.093 21.5394 13.7284 21.6231 13.5258 21.8068C13.4664 21.7258 13.3989 21.6366 13.3395 21.5394C12.8101 20.7156 13.4394 20.1079 13.8472 20.135C14.2659 20.1674 14.6197 20.0215 14.8709 21.8581L15.1356 21.8338ZM16.775 20.7562C16.721 19.9837 16.0944 19.8703 16.0944 19.8703L16.0863 20.1647C16.224 20.1647 16.3347 20.2781 16.459 20.5428C16.5832 20.8075 16.4266 21.2855 16.1997 20.6481C15.9593 19.9999 15.3057 20.0728 15.2004 20.451C15.1221 20.7535 15.2328 20.9911 15.3327 21.1262C15.3462 21.164 15.3624 21.2018 15.3867 21.2423C15.5218 21.4584 15.746 21.5637 15.8972 21.4719C16.0404 21.3828 16.0458 21.1289 15.9161 20.9128C15.7919 20.7102 15.5893 20.6076 15.4462 20.6643C15.3894 20.4483 15.7243 20.3186 15.8783 20.5617C15.9863 20.7426 16.1079 21.2234 16.4293 21.245C16.8047 21.2666 16.775 20.7562 16.775 20.7562ZM18.6251 19.9621L17.8175 18.798L17.6177 18.952L18.2551 19.8406L17.9796 20.0431L17.958 20.062C17.9769 19.9594 17.9445 19.8081 17.8689 19.7082C17.7419 19.53 17.5258 19.4651 17.3962 19.5651C17.3719 19.5813 17.3584 19.6002 17.3422 19.6218C17.2882 19.6056 17.2395 19.5921 17.2395 19.5921L17.3665 19.4786L17.1936 19.2356L16.5508 19.7082L17.3557 20.8507L17.5528 20.7048L16.9451 19.8162L17.0046 19.7541L17.4043 20.3267L17.5501 20.2079L17.615 20.1539C17.4205 19.9189 17.4907 19.746 17.6312 19.8514C17.7716 19.9513 17.6825 20.2052 17.6825 20.2052L17.6447 20.243L17.4799 20.3996L17.6609 20.6346L18.6251 19.9621ZM20.2267 18.3335C20.1808 18.1606 20.0782 17.9769 19.9134 17.8257C19.5866 17.5205 19.1518 17.453 18.9438 17.6826C18.8655 17.7663 18.8331 17.8797 18.8385 18.004H18.8304C18.6737 18.0229 18.5306 18.0877 18.4198 18.2092C18.1551 18.4982 18.2119 18.9763 18.5414 19.2842C18.6062 19.3409 18.6791 19.3922 18.752 19.4273L18.7574 19.4354C18.9303 19.5273 19.1302 19.5164 19.2409 19.3922C19.384 19.2383 19.33 18.9655 19.1356 18.7764C18.9492 18.609 18.7034 18.5738 18.5576 18.6819H18.5414C18.5441 18.5846 18.5819 18.4928 18.6467 18.4199C18.7061 18.3524 18.7844 18.3119 18.8709 18.2984H18.8736C18.9087 18.4199 18.9951 18.5549 19.1302 18.6765C19.3678 18.906 19.6622 18.979 19.7784 18.8466C19.8972 18.7143 19.8 18.428 19.5623 18.2038C19.4192 18.0715 19.2571 17.9905 19.1302 17.9742L19.1356 17.9661C19.141 17.9364 19.1491 17.9067 19.1707 17.8905C19.276 17.7717 19.5569 17.8581 19.7919 18.0823C19.9458 18.22 20.0403 18.3767 20.0674 18.5036L20.2267 18.3335ZM20.9046 16.3942C20.4968 16.162 20.3375 16.6481 20.3375 16.6481L20.0863 16.5077L20.224 16.2781L19.9701 16.135L19.511 16.9101L19.989 17.1964C19.7973 17.5772 20.459 17.9013 20.7723 17.4854C21.1288 17.01 20.6021 16.7967 20.6021 16.7967C20.6183 16.7697 20.6913 16.5455 20.829 16.6211C20.9614 16.6913 20.7993 16.7913 20.7993 16.7913L20.9992 16.9965C21.1882 16.9047 21.3071 16.6265 20.9046 16.3942ZM22.1957 13.8851L20.8344 13.5394L20.7669 13.796L21.8256 14.0688L21.7311 14.3659C21.6447 14.3065 21.4178 14.2254 21.4178 14.2254C20.7561 14.0148 20.4482 14.5198 20.6102 14.9223C20.6886 15.1086 20.9749 15.2707 21.3638 15.3085C21.6258 15.3355 21.8202 15.2194 21.8472 15.0411C21.858 14.925 21.7986 14.8115 21.6879 14.7386L21.958 14.798L22.1957 13.8851ZM22.3712 11.9189L20.9641 11.8379L20.9614 12.0944L22.0444 12.1377L22.0363 12.4834V12.5104C21.9742 12.4347 21.8337 12.3699 21.7068 12.3591C21.4853 12.3537 21.3071 12.4861 21.299 12.6508C21.299 12.6805 21.3017 12.7048 21.3125 12.7318C21.2774 12.7589 21.2314 12.7913 21.2314 12.7913L21.2179 12.6265L20.9208 12.6076L20.8911 13.4044L22.2767 13.48L22.2902 13.2315L21.2233 13.1613L21.2098 13.0749L21.904 13.1073L21.8986 12.9236L21.8932 12.8399C21.5934 12.8453 21.5015 12.6859 21.669 12.6319C21.8364 12.5833 21.9823 12.8156 21.9823 12.8156L21.985 12.8723L22.0039 13.0938H22.3037L22.3712 11.9189ZM17.0451 3.6569C17.0424 3.71902 17.0289 3.77574 16.9857 3.80274C17.037 3.79464 17.091 3.77574 17.1396 3.77033C17.1909 3.76223 17.2558 3.72982 17.3152 3.72442C17.3314 3.665 17.2774 3.57317 17.2287 3.53806C17.1963 3.51105 17.037 3.45163 16.956 3.52185C16.9884 3.49214 17.0451 3.62989 17.0451 3.6569ZM19.5461 5.78789C19.5515 5.65554 19.4137 5.43677 19.3192 5.37465C19.3192 5.41517 19.3354 5.45568 19.3138 5.48809C19.2868 5.53671 19.2463 5.56372 19.2004 5.57452L19.4867 5.94454C19.5326 5.88242 19.5407 5.86081 19.5461 5.78789ZM15.7892 3.82435C15.9593 3.72442 16.0187 3.50565 15.9188 3.33279C15.8216 3.16264 15.6028 3.10592 15.4327 3.20315C15.2598 3.30308 15.2031 3.52455 15.303 3.69201C15.4002 3.87027 15.6271 3.92698 15.7892 3.82435ZM21.5312 11.0438L21.253 11.0357L21.2476 11.1707L21.5339 11.1815L21.5312 11.0438ZM22.0633 11.2167C22.0741 10.9763 21.8472 11.0249 21.8472 11.0249L21.8445 11.43C21.931 11.4462 22.0471 11.457 22.0633 11.2167ZM2.50086 12.008L3.11666 11.8946L2.50086 11.7784V12.008ZM3.79998 16.5428C3.8783 16.5266 3.96473 16.4942 4.05926 16.4483C4.12678 16.4131 4.1835 16.3807 4.23212 16.3429C4.28614 16.3051 4.32395 16.2727 4.34826 16.2403C4.37256 16.2106 4.39147 16.1782 4.39687 16.1377C4.41038 16.1025 4.40768 16.0674 4.39147 16.0377C4.37256 16.0026 4.34555 15.9756 4.29694 15.9621C4.25102 15.9432 4.1889 15.9432 4.11598 15.9567C4.04576 15.9702 3.95393 16.0026 3.8621 16.0485C3.72165 16.1187 3.61902 16.1944 3.5623 16.2781C3.51909 16.3402 3.51098 16.405 3.53529 16.4564C3.5569 16.4942 3.58931 16.5239 3.63252 16.5374C3.66763 16.559 3.72976 16.559 3.79998 16.5428ZM20.4725 17.0235L20.2537 17.3611C20.3158 17.4287 20.4104 17.5016 20.5535 17.299C20.6913 17.1019 20.4725 17.0235 20.4725 17.0235ZM8.91004 3.6542C8.83441 3.41652 8.66696 3.20315 8.41848 3.12482C8.16189 3.0465 7.84859 3.17614 7.65143 3.33549C7.80808 3.27067 7.98364 3.26257 8.14299 3.33549C8.30774 3.41112 8.42118 3.50295 8.51571 3.6542C8.62374 3.82705 8.66696 4.05393 8.61835 4.21328H8.62375C8.62645 4.20788 8.62645 4.20247 8.62915 4.19437L8.69937 4.18357L8.70207 4.19437L8.70747 4.19167C8.86683 4.11064 8.98296 3.86216 8.91004 3.6542ZM19.8918 16.8237L20.1268 16.9857L20.1997 16.875L19.9674 16.7183L19.8918 16.8237ZM19.041 19.2004C19.0977 19.1383 19.0761 19.0141 18.9897 18.9358C18.9033 18.8547 18.7871 18.8466 18.7223 18.9142C18.6602 18.979 18.6845 19.0978 18.7709 19.1815C18.852 19.2545 18.9735 19.268 19.041 19.2004ZM19.2868 18.5036C19.3759 18.59 19.4786 18.6306 19.511 18.5954C19.5434 18.5549 19.4921 18.4604 19.4029 18.3767C19.3111 18.2903 19.2112 18.2524 19.1815 18.2848C19.1491 18.32 19.1977 18.4226 19.2868 18.5036ZM12.0701 2.98708C12.1862 2.98168 12.2645 3.01949 12.3456 3.08701C12.3591 3.02219 12.3402 2.87094 12.4023 2.81962C12.4887 2.7548 12.6021 2.77641 12.5967 2.67648C12.5967 2.52793 12.4698 2.41719 12.3158 2.40909C12.0809 2.40099 11.9215 2.48742 11.8297 2.65217C11.7487 2.80612 11.7379 2.98978 11.7811 3.14103C11.8378 3.0465 11.9377 2.98978 12.0701 2.98708ZM11.908 3.20585C11.8567 3.26257 11.8648 3.349 11.9215 3.39491C11.9782 3.44353 12.0647 3.43812 12.1106 3.376C12.1565 3.32199 12.1511 3.24096 12.0944 3.19235C12.0377 3.14373 11.9512 3.15183 11.908 3.20585ZM21.4124 14.8871C21.3206 14.8763 21.2395 14.9033 21.2341 14.9493C21.2287 15.0006 21.299 15.0465 21.3908 15.0546C21.4799 15.0681 21.5609 15.0384 21.5663 14.9871C21.5718 14.9412 21.4988 14.8952 21.4124 14.8871ZM21.1342 14.4496C20.7912 14.4658 20.7939 14.8493 21.0046 14.9304C21.0532 14.771 21.1963 14.6387 21.4394 14.6576C21.5339 14.6657 21.615 14.6954 21.6798 14.7359C21.669 14.7089 21.5366 14.4307 21.1342 14.4496ZM14.2578 21.8716C14.0795 21.8311 13.8743 21.8581 13.7095 22.004C13.8256 22.1228 13.9472 22.2092 14.0552 22.2659C14.1389 22.166 14.2146 22.031 14.2578 21.8716ZM14.59 22.2227C14.6278 22.1525 14.5954 22.0634 14.5171 21.9959C14.4684 22.1309 14.4063 22.2443 14.3253 22.3443C14.4495 22.3497 14.5441 22.3065 14.59 22.2227ZM13.7365 20.7129C13.6555 20.7318 13.6042 20.8318 13.6258 20.9344C13.6447 21.037 13.7284 21.1073 13.8094 21.0911C13.8959 21.0722 13.9472 20.9749 13.9229 20.8723C13.9067 20.7697 13.8202 20.6994 13.7365 20.7129ZM15.7352 21.2207C15.7757 21.1964 15.7676 21.11 15.7189 21.0316C15.6703 20.9506 15.5974 20.9074 15.5596 20.9317C15.5191 20.956 15.5272 21.0424 15.5758 21.1208C15.6271 21.2045 15.6946 21.245 15.7352 21.2207ZM7.34353 4.2781C7.32732 4.45636 7.54609 4.50767 7.65953 4.45636C7.83779 4.36993 7.78107 4.25379 7.66763 4.02152L7.84319 3.93779C7.95933 4.19437 8.00795 4.2835 8.1781 4.19437C8.31585 4.11875 8.32665 3.92698 8.25643 3.76493C8.1592 3.57047 7.94042 3.44083 7.75946 3.50295C7.60552 3.55426 7.44616 3.6596 7.38404 3.79194C7.31922 3.92699 7.26791 4.17817 7.22469 4.33212L7.34353 4.2781ZM13.8553 22.4253C13.7527 22.3578 13.6474 22.274 13.5582 22.1849C13.3746 22.4901 13.6042 22.5684 13.8553 22.4253ZM7.09235 3.62719C7.13826 3.6569 7.18148 3.70281 7.18148 3.74603C7.20308 3.69741 7.21389 3.64339 7.23549 3.60288C7.2544 3.55426 7.2625 3.47594 7.28951 3.43002C7.2436 3.38951 7.13556 3.38411 7.08425 3.40301C7.04373 3.41652 6.91139 3.52455 6.9276 3.63259C6.91949 3.58937 7.06534 3.61098 7.09235 3.62719ZM8.09437 12.0431C8.09437 12.0431 7.88911 9.26932 8.58863 8.07013C8.58863 8.07013 7.31112 8.22678 7.45427 12.0242C7.45427 12.0242 7.79728 12.2511 8.09437 12.0431ZM7.97824 12.3375C8.31315 12.2916 8.39957 12.1458 8.41848 12.0863C8.45089 11.9783 8.35636 11.8919 8.27803 11.8892L8.20511 12.008C8.20511 12.008 8.32125 12.2214 7.81618 12.2376C7.37324 12.2511 7.21929 12.0701 7.29221 11.9756C7.32462 11.9324 7.39755 11.9324 7.39755 11.9324L7.30572 11.7406C7.13826 11.7406 6.87087 11.9405 7.09505 12.1431C7.2571 12.2889 7.5704 12.3942 7.97824 12.3375ZM7.96473 12.4483C7.77837 12.5644 7.44076 12.4618 7.34623 12.378C7.2436 12.3834 7.27061 12.5185 7.27061 12.5185C7.27061 12.5185 7.47317 12.6346 7.68654 12.6454C7.89451 12.6562 8.08087 12.613 8.11598 12.5266C8.15379 12.4401 8.01064 12.4185 7.96473 12.4483ZM7.96473 12.7021C7.79457 12.8075 7.50018 12.7345 7.37594 12.6535C7.33543 12.6265 7.27871 12.6508 7.2679 12.6994C7.2652 12.7075 7.2652 12.7156 7.2652 12.7237C7.2652 12.7508 7.27871 12.7778 7.30572 12.7913C7.37324 12.8237 7.52719 12.8912 7.68384 12.8993C7.89181 12.9101 8.07817 12.8669 8.11328 12.7805C8.15379 12.694 8.01064 12.6724 7.96473 12.7021ZM7.96473 12.9182C7.79457 13.0235 7.50018 12.9506 7.37594 12.8696C7.33543 12.8426 7.27871 12.8669 7.2679 12.9155C7.2652 12.9236 7.2652 12.9317 7.2652 12.9398C7.2652 12.9668 7.27871 12.9938 7.30572 13.0073C7.37324 13.0397 7.52719 13.1073 7.68384 13.1154C7.89181 13.1262 8.07817 13.083 8.11328 12.9965C8.15379 12.9101 8.01064 12.8885 7.96473 12.9182ZM7.96473 13.1586C7.79457 13.2639 7.50018 13.191 7.37594 13.11C7.33543 13.083 7.27871 13.1073 7.2679 13.1559C7.2652 13.164 7.2652 13.1721 7.2652 13.1802C7.2652 13.2072 7.27871 13.2342 7.30572 13.2477C7.37324 13.2801 7.52719 13.3476 7.68384 13.3557C7.89181 13.3666 8.07817 13.3233 8.11328 13.2369C8.15379 13.1505 8.01064 13.1289 7.96473 13.1586ZM8.15109 14.1633C8.13759 14.2443 8.20511 14.3038 8.20511 14.3038C8.20511 14.3038 8.23482 14.4469 8.10247 14.4469C7.97013 14.4469 7.88911 14.3443 7.88911 14.2146C7.88911 14.085 8.01065 14.1039 8.01065 13.9905C8.01065 13.877 7.8837 13.9715 7.8837 13.6988C7.98093 13.7474 8.19431 13.7852 8.26723 13.6447C8.28884 13.6069 8.29694 13.5745 8.29964 13.5448C8.31044 13.4557 8.1727 13.4395 8.1619 13.5286C8.15919 13.5421 8.1592 13.5556 8.1592 13.5691C8.1646 13.6826 7.94312 13.6636 7.85399 13.5745V13.4611H7.70815V13.5691C7.61902 13.6609 7.39485 13.6826 7.39755 13.5691C7.39755 13.5556 7.39755 13.5421 7.39485 13.5286C7.38134 13.4395 7.2463 13.4557 7.2571 13.5448C7.2598 13.5745 7.27061 13.6069 7.28951 13.6447C7.36514 13.7852 7.57581 13.7474 7.67304 13.6988C7.67304 13.9715 7.54609 13.877 7.54609 13.9905C7.54609 14.1039 7.66763 14.085 7.66763 14.2146C7.66763 14.3443 7.58661 14.4469 7.45427 14.4469C7.32192 14.4469 7.35163 14.3038 7.35163 14.3038C7.35163 14.3038 7.41915 14.2443 7.40565 14.1633C7.38674 14.0634 7.26251 14.0337 7.18958 14.1039C7.14097 14.1498 7.13016 14.2146 7.14096 14.2957C7.15177 14.3848 7.2544 14.5441 7.44886 14.5441C7.58391 14.5441 7.66223 14.482 7.70545 14.4361V14.69C7.69734 14.6873 7.68654 14.6846 7.67844 14.6846C7.63792 14.6846 7.60281 14.717 7.60281 14.7575C7.60281 14.798 7.63522 14.8304 7.67844 14.8304H7.69194C7.68384 14.8439 7.68114 14.8574 7.68114 14.8736C7.68114 14.925 7.72435 14.9655 7.77567 14.9655C7.82699 14.9655 7.8702 14.925 7.8702 14.8736C7.8702 14.8574 7.8648 14.8439 7.85939 14.8304C7.8648 14.8304 7.8702 14.8331 7.8756 14.8331C7.91611 14.8331 7.95123 14.8007 7.95123 14.7602C7.95123 14.7197 7.91882 14.6873 7.8756 14.6873C7.8675 14.6873 7.8621 14.6873 7.85399 14.69V14.4415C7.89721 14.4874 7.97554 14.5468 8.10518 14.5468C8.30234 14.5468 8.40227 14.3902 8.41307 14.2984C8.42388 14.2173 8.41308 14.1525 8.36446 14.1066C8.29424 14.031 8.17 14.0634 8.15109 14.1633ZM9.51234 14.4145L9.7203 14.1579C9.76622 14.1012 9.75811 14.0202 9.70409 13.9742C9.62037 13.904 9.49073 13.7906 9.32867 13.6339C9.03698 13.3584 9.02888 13.1316 8.93705 12.8129C8.85062 12.5131 8.54812 12.3672 8.35906 12.4131C8.34555 12.4158 8.34285 12.4347 8.35366 12.4429C8.36176 12.451 8.36986 12.4591 8.37526 12.4726C8.38337 12.4915 8.39147 12.5212 8.37796 12.5617C8.36986 12.5833 8.35636 12.6049 8.34015 12.6238C8.33205 12.6319 8.33475 12.6427 8.34285 12.6481C8.35636 12.6562 8.36716 12.667 8.37256 12.6832C8.38066 12.7021 8.38877 12.7318 8.37526 12.7751C8.36446 12.8075 8.34016 12.8372 8.30774 12.8615C8.29694 12.8696 8.29964 12.8858 8.31315 12.8912C8.33745 12.8993 8.35906 12.9128 8.37256 12.9398C8.38066 12.9587 8.38877 12.9884 8.37526 13.0289C8.36176 13.0695 8.33205 13.1019 8.28614 13.1262C8.29154 13.1343 8.29964 13.1424 8.30234 13.1532C8.31044 13.1721 8.32125 13.2072 8.30504 13.2504C8.29964 13.272 8.28884 13.2882 8.27533 13.3071C8.26723 13.3152 8.27263 13.3287 8.28344 13.3341C8.32395 13.3449 8.35906 13.3666 8.38607 13.399C8.42658 13.4449 8.44549 13.5016 8.43738 13.5637C8.43198 13.6123 8.41578 13.6636 8.38607 13.715C8.35636 13.769 8.31315 13.8122 8.25913 13.8419C8.24562 13.8473 8.24832 13.8689 8.26183 13.8716C8.32935 13.8932 8.39417 13.9418 8.45629 13.9986C8.46439 14.0067 8.47519 14.0148 8.4806 14.0256C8.486 14.0337 8.4968 14.0337 8.50491 14.0256C8.57513 13.9607 8.68586 13.8608 8.75879 13.7906C8.76689 13.7825 8.7831 13.7852 8.7858 13.7987C8.85332 14.085 9.16122 14.3308 9.32327 14.4415C9.3935 14.4793 9.46912 14.4685 9.51234 14.4145ZM9.407 10.0229C9.407 10.0229 9.34758 9.90132 9.46912 9.8176C9.59066 10.0607 9.90396 10.2416 9.92017 10.2497C9.93637 10.2578 9.89856 9.98775 9.97959 9.90673C10.0093 10.0175 10.1659 10.2038 10.4144 10.3146C10.6602 10.4226 10.5873 10.8196 10.5873 10.8196C10.5873 10.8196 10.4955 10.8493 10.3955 10.8088C10.2875 10.7683 10.2956 10.7116 10.1984 10.6981C10.1254 10.6873 10.0336 10.7143 9.97418 10.744C9.87425 10.7926 9.79322 10.7386 9.77702 10.5928C9.36108 10.7494 8.95325 10.4469 8.96406 10.5522C8.98296 10.744 9.25305 10.9331 8.97486 11.1869C8.97486 11.1869 9.0991 11.2572 9.4016 10.9115C9.52584 11.0168 9.37459 11.2383 9.37459 11.2383C9.37459 11.2383 9.53664 11.3004 9.65278 10.9358C9.66898 11.1788 9.76622 11.3436 9.88776 11.3841C9.77432 11.1086 9.82023 10.9547 10.0066 10.8925C10.0066 10.8925 10.0228 11.1518 9.94178 11.2356C10.0876 11.2761 10.1092 10.9574 10.3064 10.9574C10.409 10.9574 10.355 11.1707 10.6575 11.1815C10.6062 11.1167 10.6818 11.0357 10.6818 11.0357C10.6818 11.0357 10.7385 10.9763 10.8547 10.9736C10.8223 10.8763 10.5522 10.7602 10.7223 10.5522C10.7709 10.7656 10.9438 10.8655 10.9438 10.8655C10.9438 10.8655 10.9843 10.5495 10.8952 10.4604C10.8952 10.4604 11.0626 10.4361 11.1275 10.5198C11.1896 10.5982 11.2598 10.6279 11.33 10.6063C11.3489 10.5171 11.3273 10.4145 11.2004 10.3227C11.141 10.2794 11.0302 10.2578 10.9249 10.3227C10.8682 10.3578 10.8412 10.4064 10.8412 10.4064C10.8412 10.4064 10.7547 10.3443 10.6386 10.2957C10.4495 10.22 10.4603 10.0337 10.4603 10.0337C10.4603 10.0337 10.5792 9.99856 10.6602 10.1228C10.7412 10.247 10.8763 10.2254 10.8763 10.2254C10.7331 10.0796 10.779 9.92834 10.779 9.92834C10.779 9.92834 10.9276 10.0877 11.114 10.1093C11.041 9.92563 11.1113 9.823 11.1707 9.823C11.2301 9.823 11.2841 10.0202 11.4381 9.98505C11.4165 9.84461 11.4381 9.8365 11.4381 9.8365C11.4381 9.8365 11.5029 9.89592 11.6379 9.88512C11.6379 9.88512 11.6838 9.60423 11.4056 9.50159C11.5245 9.65014 11.4894 9.77168 11.4894 9.77168C11.484 9.78789 11.2814 9.79869 11.0437 9.69336C11.0437 9.76898 10.987 9.94184 10.7817 9.89592C10.5765 9.85001 10.5063 9.53671 10.2659 9.55561C10.0255 9.57452 10.1065 9.8365 10.2632 9.79599C10.3901 9.76088 10.3658 9.58532 10.2821 9.57452C10.3334 9.57992 10.3874 9.60153 10.4144 9.63934C10.482 9.73117 10.4144 9.94724 10.2227 9.92834C9.93907 9.89863 9.88776 9.42867 10.3523 9.40166C10.4117 9.42597 10.4684 9.46108 10.5171 9.5097C10.7115 9.70956 10.8169 9.74467 10.8169 9.74467C10.8169 9.74467 10.7277 9.59073 10.7736 9.41517C10.9114 9.53401 11.2949 9.60693 11.2949 9.60693C11.2949 9.60693 11.2031 9.46648 11.2193 9.34494C11.5839 9.47999 11.9701 9.32334 11.9701 9.32334C11.9701 9.32334 11.9755 9.5151 11.6109 9.53671C11.8162 9.63934 11.9998 9.8149 12.0809 9.99856C12.2726 9.85811 12.1781 9.53131 11.9512 9.5124C11.9512 9.5124 12.4725 9.22071 12.3618 8.92901C12.1187 9.18019 11.7216 9.17749 11.7216 9.17749C11.7216 9.17749 11.6838 8.81017 11.4029 8.69673C11.4867 8.79937 11.4002 9.14508 11.195 9.14508C11.0977 8.75075 10.7169 8.80477 10.7169 8.80477C10.7169 8.80477 10.8898 8.83988 10.8223 9.04515C10.7466 9.27742 10.4792 9.25852 10.4792 9.25852C10.4792 9.25852 10.4549 9.05325 10.2902 8.99653C10.1389 8.94252 10.0363 9.03975 10.0363 9.03975C10.0363 9.03975 10.2389 9.05865 10.2578 9.17209C10.2659 9.30713 10.1767 9.33684 10.0444 9.34765H10.0471H10.039H10.0444C9.99849 9.34765 9.96608 9.35035 9.95258 9.35305C9.82023 9.36385 9.66088 9.40436 9.47452 9.49349C9.33138 9.56371 9.20443 9.55291 9.20443 9.55291C9.33948 9.44488 9.28006 9.29633 9.17742 9.26392C9.06129 9.22611 8.86412 9.32874 8.95055 9.58532C9.02618 9.78789 9.407 10.0229 9.407 10.0229ZM9.43131 10.3335C9.35298 10.3308 9.16662 10.293 9.04508 10.2659C9.00997 10.2578 8.99106 10.3038 9.02077 10.3254C9.13691 10.4037 9.35298 10.4955 9.50153 10.4901C9.7095 10.482 9.82564 10.3713 9.82564 10.3713C9.82564 10.3713 9.82834 10.5252 9.99849 10.509C10.1713 10.4928 10.3361 10.5036 10.3928 10.5792C10.3874 10.4577 10.2632 10.3524 10.0687 10.3281C9.85534 10.2984 9.64198 10.3389 9.43131 10.3335ZM10.8169 11.0573C10.8169 11.0573 10.9843 11.0924 11.0734 11.2599C11.1842 11.4678 11.3975 11.5056 11.3975 11.5056C11.3975 11.5056 11.3138 11.3652 11.195 11.168C11.1761 11.1356 11.1545 11.114 11.1329 11.0951C11.1842 11.0897 11.249 11.0654 11.3165 11.0006C11.3138 11.0951 11.4678 11.5543 11.7271 11.5516C11.5623 11.3031 11.5137 11.0114 11.5137 11.0114C11.5137 11.0114 11.6406 11.0762 11.7757 11.195C11.9485 11.349 12.0215 11.4543 12.0215 11.4543C12.0215 11.4543 12.0593 11.3004 11.9755 11.1599C12.1403 11.2167 12.2537 11.0924 12.2024 10.9412C12.0998 11.06 11.9404 11.0627 11.854 10.9736C11.7027 10.8223 11.7108 10.7494 11.7108 10.7494C11.7108 10.7494 11.538 10.7413 11.4516 10.5792C11.4624 10.6711 11.3921 10.7521 11.3759 10.7575C11.303 10.7818 11.1491 10.7683 11.0761 10.6684C11.0761 10.6684 11.0788 10.9628 11.0005 11.0357C10.9033 11.0222 10.8169 11.0573 10.8169 11.0573ZM11.5272 10.2578C11.5461 10.2713 11.5731 10.2767 11.6136 10.2686C11.9188 10.2065 11.6055 10.744 12.0782 10.8736C12.0998 10.7332 11.9917 10.5846 11.9053 10.5576C11.9836 10.4064 12.0998 10.4658 12.0998 10.4658C12.0998 10.4658 12.116 10.274 11.9863 10.2903C12.0647 10.1255 11.908 9.90943 11.7703 9.90673C11.8567 10.0823 11.746 10.1336 11.746 10.1336C11.746 10.1336 11.5704 10.1444 11.4975 10.0283C11.4975 10.0283 11.4678 10.1363 11.4921 10.2092C11.4219 10.1282 11.3111 10.0796 11.1626 10.1201C11.3543 10.2065 11.5299 10.4928 11.538 10.59C11.6055 10.5171 11.5974 10.3713 11.5272 10.2578ZM12.3239 11.114C12.3104 11.2058 12.2159 11.2761 12.1268 11.2707C12.2672 11.3652 12.4995 11.457 12.6345 11.4462C12.6183 11.3787 12.459 11.1221 12.3239 11.114ZM16.1079 13.9742C16.0863 13.6528 16.2726 13.4071 16.5373 12.6076C16.7264 12.0404 16.7183 11.4948 16.3374 11.1491C16.432 11.0411 16.5103 10.8898 16.5103 10.6792C16.5103 10.2227 16.1052 9.74467 15.3165 9.74467C14.7601 9.74467 14.7034 9.95534 14.193 9.95534C13.9364 9.95534 13.696 9.79869 13.642 9.49619C13.4988 9.53941 13.4799 9.86351 13.4799 9.86351C13.4799 9.86351 13.326 9.94454 13.2585 9.62584C13.2098 9.39626 13.3368 9.30983 13.407 9.36385C13.4097 9.18829 13.1261 9.15318 13.0262 9.39356C12.9451 9.58802 12.8587 9.53671 12.8587 9.53671C12.748 9.23151 13.091 8.8858 13.2206 8.8858C13.3503 8.8858 13.6096 9.09646 13.6015 9.32604C13.7716 9.32604 13.7581 8.99923 13.6501 8.82368C13.9661 8.80477 14.0039 9.07486 13.9229 9.25852C14.1524 9.24771 14.0687 8.82368 14.0687 8.82368C14.0687 8.82368 14.2632 8.82097 14.2632 9.03164C14.2632 9.28282 14.0687 9.38546 14.0687 9.38546C14.6008 9.46378 14.3631 9.01814 14.5684 9.01814C14.6332 9.37735 15.0788 9.55831 15.3381 9.5259C15.1734 9.43948 15.0761 9.30173 15.095 9.1937C15.2679 9.15859 15.6433 9.64204 15.9701 9.64204C16.2969 9.64204 16.4104 9.34224 16.351 9.2126C16.2537 9.00733 15.935 9.06675 15.8945 9.22611C15.854 9.38546 16.035 9.45298 16.0674 9.37736L16.089 9.28552C16.1106 9.53401 15.8108 9.44488 15.3759 9.16398C14.9816 8.9101 14.3064 8.57249 13.7608 8.57249C13.1126 8.57249 12.6291 8.74805 12.5238 9.25582C12.5049 9.34764 12.5103 9.43678 12.5346 9.5232C12.3537 9.8068 12.2321 10.1336 12.4455 10.3686C12.4941 10.1525 12.6697 10.0121 12.8209 9.92834C13.1315 10.1876 13.6312 10.3551 14.1146 10.3551C14.752 10.3551 14.9735 10.1012 15.3732 10.1012C15.773 10.1012 16.0782 10.3362 16.0782 10.6819C16.0782 10.7818 16.0458 10.8655 15.9998 10.9304C15.7649 10.8331 15.457 10.7791 15.0707 10.7791C14.3847 10.7791 13.4664 11.1545 12.6075 11.2058C12.7426 11.322 12.7615 11.4705 12.7615 11.4705C12.7615 11.4705 12.983 11.5867 13.091 11.7757C12.8533 11.8487 12.54 11.773 12.54 11.773C12.54 11.773 12.5751 11.7811 12.6994 12.0134C12.4131 12.1187 12.0214 12.0755 11.9323 11.9135C11.8702 11.9432 11.8054 12.0701 11.8864 12.2889C11.592 12.3078 11.4759 12.0242 11.4759 12.0242C11.4759 12.0242 11.3786 12.0917 11.384 12.2511C11.1031 12.243 11.1464 12.0053 11.1464 12.0053C11.1464 12.0053 10.9384 12.0674 10.987 12.3267C10.6926 12.3051 10.7385 11.9486 10.7385 11.9486C10.7385 11.9486 10.59 11.9729 10.5549 12.2106C10.3496 12.0836 10.5252 11.8108 10.5252 11.8108C10.5252 11.8108 10.409 11.8568 10.2443 12.0458C10.0822 11.8379 10.2659 11.5002 10.2578 11.5029C9.57445 11.7811 8.93975 12.3294 9.14772 13.0289C9.31517 13.5988 9.85264 13.8932 10.0552 14.1444C9.89316 13.615 9.94988 13.1505 9.97689 13.0911C9.98769 13.0722 9.99579 13.0505 10.0174 13.0505C10.039 13.0505 10.0579 13.0695 10.0579 13.0911C10.0552 13.1586 10.0525 13.2261 10.0498 13.2936C10.0498 13.3611 10.0471 13.4287 10.0498 13.4962C10.0525 13.6312 10.0606 13.7663 10.0849 13.9013C10.1065 14.0364 10.1497 14.1633 10.1957 14.293C10.2416 14.4226 10.2821 14.5549 10.3037 14.69V14.6927C10.3631 15.0006 10.3334 15.3976 10.1389 15.3976C9.86885 15.3976 9.95798 15.3274 9.76892 15.3274C9.44211 15.3274 9.32867 15.6839 9.26385 15.8216C9.26385 15.9108 9.50153 15.9702 9.59876 15.7703C9.73921 15.4759 9.88235 15.4786 9.87155 15.4867C9.87155 15.4867 9.63927 15.6704 9.63117 15.846C9.65818 15.9027 9.89316 15.9108 9.95798 15.7595C10.0201 15.6137 10.2254 15.53 10.2524 15.5219C10.0093 15.6434 9.99039 15.8243 9.99039 15.8243C10.3172 15.9351 10.4117 15.7703 10.5981 15.7703C10.825 15.7703 10.8142 15.9108 10.9843 15.9108C11.2382 15.9108 11.3651 15.6029 11.3651 15.6029C11.3651 15.6029 11.2841 15.5705 11.1275 15.4624C10.9708 15.3544 11.0842 15.1248 11.3084 15.0249C11.5083 14.9358 11.6919 14.7467 11.6919 14.7467C11.6919 14.7467 11.5326 14.6225 11.276 14.7683C11.0302 14.906 10.933 14.8574 10.933 14.8574C10.933 14.8574 10.9924 14.7683 11.0518 14.6441C11.0815 14.5765 11.1086 14.509 11.1275 14.4388C11.1464 14.3713 11.1653 14.2092 11.1653 14.1336C11.3597 13.9283 11.646 13.5961 11.9809 12.7562C11.9863 12.7318 12.0106 12.7129 12.035 12.7183C12.0485 12.721 12.0539 12.7372 12.0593 12.7562C12.0647 12.7832 12.062 12.8102 12.0539 12.8345C12.0079 12.9641 11.7757 13.5907 11.2706 14.193C11.2652 14.2875 11.2463 14.3335 11.2301 14.3794C11.3327 14.3848 11.962 14.3227 12.7912 13.8068C12.9073 13.7339 13.01 13.669 13.1018 13.6069C13.7311 13.191 13.8769 13.0154 14.2173 13.0154C14.5495 13.0154 14.7169 13.2774 14.8412 13.4854C14.852 13.5043 14.8628 13.5205 14.8736 13.5394C14.8844 13.5556 14.8952 13.5718 14.906 13.588C15.1464 13.9553 15.4597 13.9986 15.4597 13.9986C15.4597 13.9986 15.4678 14.3956 15.6622 14.6198C15.6622 14.952 15.7108 15.3517 15.3624 15.3517C15.1626 15.3517 15.1518 15.0816 14.9735 15.1059C14.8358 15.1248 14.6089 15.3355 14.5009 15.5381C14.4711 15.5948 14.4522 15.6434 14.4387 15.6866C14.3253 15.6596 14.2713 15.5597 14.5846 15.2194V14.7413C14.5846 14.7413 14.9465 14.5846 15.014 14.2957C14.7953 14.2416 14.6332 14.4928 14.5063 14.4631C14.5009 14.1606 14.7601 13.9175 14.825 13.6204C14.8169 13.6069 14.8088 13.5961 14.8006 13.5826C14.6791 13.3882 14.5144 13.1748 14.2146 13.1748C13.8797 13.1748 13.7338 13.3422 13.1396 13.7393C13.2125 13.9283 13.3935 14.2875 13.7797 14.5117C13.7797 14.9925 13.8986 15.3625 13.5718 15.3625C13.3692 15.3625 13.3773 15.2302 13.1882 15.2302C12.9992 15.2302 12.8182 15.6191 12.7345 15.773C12.8263 15.9216 13.0262 15.8946 13.0775 15.7433C13.1558 15.5002 13.3314 15.4786 13.3314 15.4786C13.3314 15.4786 13.1639 15.5651 13.1153 15.8027C13.2909 15.9054 13.4124 15.7838 13.4583 15.7055C13.5015 15.6272 13.6042 15.4921 13.7122 15.4678C13.5366 15.6137 13.5123 15.7892 13.5123 15.7892C13.5123 15.7892 13.696 15.8784 13.9067 15.7622C14.0417 15.6866 14.1659 15.7298 14.2227 15.8027C14.2578 15.8487 14.3469 15.8649 14.4252 15.8298C14.4252 15.8487 14.4279 15.8595 14.4279 15.8595C14.4279 15.8595 14.6683 15.9297 14.7196 15.7352C14.7493 15.6191 14.8763 15.4867 14.9384 15.4489C14.9222 15.4651 14.7817 15.6866 14.7736 15.8243C14.8925 15.8919 15.0221 15.7973 15.0977 15.665C15.2058 15.4813 15.357 15.5056 15.357 15.5056C15.357 15.5056 15.1896 15.638 15.1329 15.8189C15.2085 15.8379 15.3327 15.8973 15.5083 15.8703C15.6811 15.8433 15.6838 15.719 15.6649 15.6137C15.7595 15.6137 15.8054 15.7622 16.0025 15.7622C16.1997 15.7622 16.2807 15.5678 16.2807 15.5678C16.2807 15.5678 16.0458 15.3868 16.0458 15.2788C16.0458 15.1707 16.2105 15.0384 16.4158 14.9223C16.3672 14.7737 16.1808 14.7305 16.1808 14.7305C16.1808 14.7305 16.7183 14.6792 16.8074 14.3443C16.6102 14.3443 16.1403 14.4523 16.1079 13.9742ZM12.8371 11.692L12.856 11.6893L12.8398 11.6785C12.6372 11.5327 12.6156 11.5137 12.6156 11.5137H12.6102C12.332 11.4813 12.116 11.3652 12.1133 11.3625L12.1025 11.3571L12.1052 11.3706C12.1052 11.3706 12.1349 11.5948 12.0836 11.6623C11.9242 11.5191 11.8324 11.4786 11.8297 11.4759L11.8162 11.4705L11.8189 11.484C11.8432 11.5813 11.8621 11.6407 11.8756 11.6677C11.7946 11.6812 11.719 11.6866 11.646 11.6866C11.2058 11.6866 11.041 11.4354 10.9519 11.3004C10.933 11.2707 10.9168 11.2491 10.9033 11.2329C10.8547 11.1788 10.8061 11.1707 10.7736 11.1707C10.7088 11.1707 10.6629 11.214 10.6467 11.2545C10.6359 11.2896 10.644 11.322 10.6737 11.3436C10.6899 11.3571 10.7088 11.3625 10.725 11.3625C10.779 11.3625 10.7736 11.3193 10.7736 11.3193C10.7655 11.3274 10.7574 11.3301 10.7493 11.3301C10.7331 11.3301 10.7223 11.3112 10.7223 11.295C10.7223 11.2896 10.725 11.2788 10.7304 11.2734C10.7385 11.268 10.7493 11.2626 10.7628 11.2626H10.7736C10.8736 11.2734 10.9654 11.5381 10.9816 11.5894C10.9735 11.5894 10.9681 11.5894 10.96 11.5894C10.6494 11.5894 10.4576 11.241 10.4549 11.2383L10.4495 11.2248L10.4441 11.2383C10.3658 11.4165 10.4171 11.5111 10.436 11.5354C10.4036 11.5489 10.301 11.6137 10.3064 11.8298V11.8541L10.3172 11.8325C10.4036 11.6758 10.5657 11.6191 10.6278 11.6191C10.6089 11.6515 10.5603 11.7514 10.6035 11.8784L10.6089 11.8919L10.617 11.8784C10.7277 11.6974 10.8088 11.6704 10.8466 11.6704C10.8547 11.6704 10.8601 11.6704 10.8655 11.6731C10.8439 11.7109 10.7493 11.9 10.8871 12.0728L10.8952 12.0836L10.8979 12.0701C10.9654 11.773 11.1707 11.7217 11.2166 11.7136C11.2058 11.7568 11.1734 11.9378 11.2706 12.0404L11.2787 12.0485L11.2841 12.0377C11.3651 11.8379 11.4219 11.7973 11.4381 11.7892C11.4489 11.8243 11.511 11.9891 11.6703 12.0647L11.6784 12.0701V12.0593C11.6919 11.7973 11.8864 11.746 11.9188 11.7406C11.9404 11.7676 12.0944 11.9405 12.4212 11.9405H12.4347L12.4266 11.9297C12.2483 11.7163 12.2321 11.5732 12.2321 11.5327C12.2807 11.5651 12.5049 11.6947 12.7669 11.6947C12.7939 11.6947 12.8155 11.692 12.8371 11.692Z" fill="#F0B310"/>
</g>
<defs>
<clipPath id="clip0_45_4212">
<rect width="24" height="24" fill="white"/>
</clipPath>
</defs>
</svg>
