<svg width="24" height="24" viewBox="0 0 24 24" fill="none" xmlns="http://www.w3.org/2000/svg">
<g clip-path="url(#clip0_45_4198)">
<path d="M23.0383 11.9999C23.0383 18.0939 18.0943 23.0379 12.0002 23.0379C5.90618 23.0379 0.962158 18.0939 0.962158 11.9999C0.962158 5.90582 5.90618 0.961792 12.0002 0.961792C18.0943 0.961792 23.0383 5.90582 23.0383 11.9999Z" fill="#FFCF00"/>
<path d="M12 23.0381C5.90058 23.0381 0.961935 18.094 0.961935 12C0.961935 5.90596 5.90058 0.961935 12 0.961935C18.0994 0.961935 23.0381 5.90058 23.0381 12C23.0381 18.0994 18.094 23.0381 12 23.0381ZM12 0C5.37394 0 0 5.37394 0 12C0 18.6261 5.37394 24 12 24C18.6261 24 24 18.6314 24 12C24 5.36856 18.6261 0 12 0Z" fill="black"/>
<path d="M7.21165 11.4519C6.35182 11.237 5.59946 12.2365 5.1803 12.9996C5.32539 11.9624 6.59902 10.2589 7.21165 11.4519Z" fill="black"/>
<path d="M5.32568 11.4626C5.61588 10.4738 6.29299 10.1138 6.65842 10.404C6.16402 10.5652 5.80396 10.85 5.32568 11.4626Z" fill="black"/>
<path d="M7.51815 13.0479C7.95881 12.6717 7.91582 12.1182 7.22796 11.9409C6.72281 11.8119 5.62652 12.7255 5.51367 13.7411C5.94896 13.1769 7.21184 12.1451 7.51815 13.0479Z" fill="black"/>
<path d="M14.4073 15.6758C14.4826 14.3753 13.2251 13.7681 12.9832 12.4407C12.7468 11.108 14.9555 8.97991 13.5582 6.80347C16.1915 8.92617 14.1279 10.1783 15.4552 11.9463C14.9447 11.7959 14.4342 11.3337 14.2784 11.0919C13.5368 12.0645 16.0947 13.4027 14.4073 15.6758Z" fill="black"/>
<path d="M10.1674 5.202C10.4791 5.202 11.0111 5.42233 10.7961 5.66953C10.0653 6.35202 9.08184 6.07795 8.29724 6.76044C8.6143 5.90598 10.0491 5.78238 10.1674 5.202Z" fill="black"/>
<path d="M9.26993 8.07168C9.1732 8.07168 9.08722 7.93733 9.06035 7.76536C9.18395 8.0878 9.50101 7.93196 9.31829 7.47517C9.43115 7.47517 9.60849 7.48592 9.9363 7.47517C9.59236 7.65251 9.43652 8.08243 9.26455 8.07705M12.5319 6.1693C12.8328 5.82537 12.5534 5.35784 11.3013 5.202C12.6071 5.84149 10.5059 5.97584 10.4361 7.07213C9.74821 7.3462 9.20007 6.89479 8.86151 7.20647C8.5337 7.50204 8.15215 7.30321 8.25963 6.9539C7.86196 7.15811 7.94257 7.6955 8.32949 7.8621C8.40472 7.89971 8.47459 7.97495 8.41547 8.02869C7.99093 8.42636 7.79747 8.77029 8.23813 9.16796C8.47996 8.72192 8.59819 8.56608 8.87226 8.34038C9.12483 8.51771 9.56549 8.39949 10.1674 7.74387C10.1942 7.71162 10.2319 7.72237 10.2211 7.76536C9.74821 9.39904 8.5337 9.66774 8.14678 9.58713C8.38323 9.93643 9.92555 10.1568 10.1136 9.4689C10.5543 7.91583 12.0536 7.23872 10.7585 7.26559C11.1078 6.85717 12.2847 6.47024 12.5373 6.18005" fill="black"/>
<path d="M13.1878 5.33098C13.8166 5.73403 14.1014 6.00272 14.5152 6.49175C14.5958 5.82538 14.2142 4.50877 13.6607 4.20783C13.4189 4.07348 13.0696 4.99242 13.1878 5.33098Z" fill="black"/>
<path d="M3.19739 10.6511C3.60043 9.59246 4.58387 8.32958 6.17455 7.3784C6.53998 6.43258 6.42175 5.78234 10.2802 4.28838C10.377 3.71337 10.3555 3.03626 10.5221 3.03626C10.6887 3.03626 11.2529 3.28346 11.6613 3.87459C11.8333 3.85847 11.9784 3.83697 12.0859 3.82622C12.1504 3.49304 12.3868 2.57947 12.6878 2.10656C12.9672 1.67128 13.5046 1.62828 14.1925 2.19792C14.9126 2.78905 15.4177 3.03088 16.4012 4.28838C17.2341 4.66456 18.5346 5.14284 19.6631 6.51857C19.1741 6.19613 18.6206 6.0779 18.1638 6.02417C19.0827 6.83026 19.69 8.15762 19.2278 10.103C19.0505 8.28659 17.7124 7.52887 16.8956 6.94848C17.3416 8.48005 15.4177 7.95341 14.832 6.80338C15.0254 6.8625 15.2243 6.85712 15.3425 6.77652C15.2834 4.43348 14.1763 3.08999 13.6873 2.6762C13.0586 2.1603 12.72 3.41243 12.5104 4.35824C12.4406 4.67531 12.1719 4.89564 11.8279 4.88489C11.9032 4.77204 11.9892 4.46572 12.0053 4.37437C11.0326 4.4496 9.93631 5.01924 9.26456 5.32555C7.56103 6.09403 7.13111 6.48095 6.75494 7.78144C5.4007 8.35108 3.84226 9.9149 3.19202 10.6511" fill="black"/>
<path d="M11.7151 10.3286C11.9032 10.5435 13.0317 12.2417 11.7259 14.4074C12.0859 12.8167 11.0917 9.7697 9.99545 11.3281C10.7371 11.6506 10.9789 12.2578 10.78 12.8436C10.4791 12.2793 9.69988 11.6667 8.94216 11.9193C8.56061 12.0482 8.05546 12.0482 7.67928 11.4947C7.18488 10.7693 8.01247 9.87718 6.59912 9.95241C8.30266 9.08721 7.81363 10.7693 8.63584 10.9681C9.5924 11.1992 9.70526 10.608 10.0331 10.2265C10.2964 9.9148 10.7854 9.67297 11.3013 10.0115C11.5431 9.26455 11.1885 8.08766 11.8871 7.46428C12.145 7.23858 12.9619 7.26007 13.3864 7.604C12.7845 7.59326 12.0752 8.31336 11.7205 10.3393" fill="black"/>
<path d="M7.81931 17.1966C7.74408 17.1267 7.513 16.8365 7.5345 16.5195C7.81931 16.7022 8.20624 16.7935 8.20624 16.7935C8.20624 16.7935 8.02352 17.1052 7.81394 17.202M9.52823 15.3318C9.70019 15.348 9.83991 15.4877 9.99576 15.3748C10.1462 15.262 9.99576 14.8052 9.87216 14.6601C10.0173 14.6332 10.6084 14.687 10.5815 14.9073C10.5117 15.4608 10.1624 15.6435 9.31327 16.0519C9.45836 15.9176 9.43687 15.622 9.52823 15.3265M6.13727 14.8643C6.21251 14.6923 6.53494 14.4666 6.68004 14.4559C6.6263 14.9449 6.80364 15.6059 6.80364 15.6059C6.80364 15.6059 6.14802 15.1921 6.14265 14.8643M3.97695 12.6986C3.66526 12.4783 3.18161 11.9785 3.12787 11.7958C3.18698 11.7259 3.44493 11.4411 3.77811 11.3497C4.01994 11.2853 4.17578 11.4196 4.14354 11.4948C4.1113 11.5701 3.89634 11.5701 3.83185 11.7528C3.73512 12.0376 4.04681 12.1182 4.10592 12.2418C4.14354 12.3224 4.22415 12.5266 3.97695 12.6932M20.4266 7.35154C21.2971 10.3771 21.0499 13.2951 20.1579 15.0309C20.2707 13.94 19.3142 12.3439 19.7011 10.4792C17.8847 12.2418 20.7221 16.5678 16.6057 19.3999C17.2183 18.4111 17.5031 15.9498 17.2828 15.0578C17.5031 15.1437 17.7235 15.4178 17.8632 15.6489C18.2071 14.5204 18.2501 12.9189 17.6053 11.3014C17.8256 11.3283 18.2877 11.5325 18.5027 11.7367C18.6048 9.23242 16.7723 9.04433 16.4284 8.36184C16.4284 9.0927 17.2828 9.7107 17.4387 10.6619C16.8422 10.3771 16.4069 10.3448 16.0952 10.3771C16.5573 10.7103 17.5891 12.704 17.2828 14.3054C16.8368 13.9292 16.4284 13.7573 15.9823 13.725C16.5305 14.5526 16.7508 16.7183 16.0683 17.7017C16.0468 17.4814 15.9662 16.8312 15.7136 16.5625C15.3912 17.7716 14.4454 18.2875 13.7951 18.4326C14.6012 17.5889 14.4454 16.1003 13.2631 15.6919C12.1991 15.3265 10.8448 16.0519 10.3021 18.5831C9.5336 18.8088 7.23356 18.3144 8.60928 16.8312C9.45299 17.1106 11.5864 15.6811 11.4413 14.6816C11.2371 13.2844 9.96889 12.7953 8.95859 12.8061C7.71184 12.8222 6.8735 13.983 5.85245 14.4881C5.00337 14.3592 4.71318 14.2409 4.27789 13.107C4.22415 12.4138 4.96575 11.9248 4.94963 11.21C4.34775 11.339 4.19728 10.4254 3.01502 11.3712C2.92366 11.1993 3.0795 10.7962 3.0795 10.7962C2.64421 11.1885 2.5636 11.6561 2.55286 11.7528C2.76781 12.172 3.06338 12.5535 3.64376 12.9351C4.337 14.7891 5.05174 14.9987 5.78797 15.0685C5.91157 15.2459 6.45971 15.8961 7.15295 16.0036C7.03472 15.6543 7.0186 14.6708 7.08846 14.4236C8.59854 12.9136 9.71631 13.8325 9.86141 14.2356C8.5233 14.5096 9.46911 17.3793 7.24968 16.1003C7.15832 16.3905 7.28192 17.1214 7.56674 17.5459C7.79244 19.5074 10.2645 19.0291 11.0222 19.373C10.9416 17.4653 11.9949 16.0734 12.9031 16.1863C13.8113 16.2991 14.0477 17.7824 12.4946 19.1849C12.8762 19.3892 14.5367 19.1097 15.3804 18.4971C15.4611 18.9807 14.8377 20.4156 14.0585 21.4205C20.577 19.9266 23.4897 12.8598 20.4373 7.33542" fill="black"/>
</g>
<defs>
<clipPath id="clip0_45_4198">
<rect width="24" height="24" fill="white"/>
</clipPath>
</defs>
</svg>
