<svg width="24" height="24" viewBox="0 0 24 24" fill="none" xmlns="http://www.w3.org/2000/svg">
<path d="M11.9639 18.5052C15.7534 15.2571 21.0767 12.0992 24 10.9624C23.5489 10.6736 22.8452 10.2586 22.0512 9.80746C18.2797 11.0526 13.8767 13.8135 9.94287 16.9353C10.6105 17.4406 11.3143 17.9639 11.9639 18.5052Z" fill="#E31837"/>
<path d="M10.2315 9.68129C9.67214 9.41061 9.0586 9.15798 8.58943 8.94144C7.16386 9.6452 5.30522 10.7099 2.95935 12.3881C3.46461 12.6587 4.00597 12.9835 4.58341 13.3084C6.38793 11.973 8.21048 10.7099 10.2315 9.68129Z" fill="#012169"/>
<path d="M13.606 8.12929C12.9203 7.75034 10.5384 6.86613 8.89625 6.48718C8.40904 6.66763 7.72332 6.93831 7.25415 7.13681C7.84964 7.29921 10.0692 7.8947 11.9639 8.8511C12.4511 8.61651 13.1369 8.32779 13.606 8.12929Z" fill="#E31837"/>
<path d="M5.53986 7.89474C3.42858 8.86918 1.20902 10.2045 0 10.9805C0.433083 11.179 0.866162 11.3414 1.46165 11.6301C4.13233 9.82558 6.22557 8.72482 7.05565 8.36392C6.46016 8.14738 5.90076 8.00302 5.53986 7.89474Z" fill="#012169"/>
<path d="M15.194 7.56994C15.6812 7.40754 16.2406 7.26317 16.7278 7.11881C15.3203 6.52332 13.5519 5.89174 11.9639 5.49475C11.7113 5.56693 10.9534 5.76543 10.4301 5.92783C10.9714 6.09024 12.7579 6.50528 15.194 7.56994ZM6.29773 14.3549C6.87517 14.6978 7.4887 15.1669 8.08419 15.5639C12.0361 12.4963 15.9338 10.1324 20.2105 8.79701C19.615 8.49024 19.0917 8.21957 18.4241 7.89475C15.8616 8.54438 11.4767 10.2948 6.29773 14.3549Z" fill="#E31837"/>
</svg>
