<svg width="24" height="24" viewBox="0 0 24 24" fill="none" xmlns="http://www.w3.org/2000/svg">
<g clip-path="url(#clip0_45_4159)">
<path d="M2.43696 10.9598C2.8368 9.99594 3.84551 9.46984 4.83177 9.6424C5.00714 10.6301 4.48244 11.6402 3.51863 12.0386L1.67517 12.8046L2.43696 10.9612V10.9598Z" fill="#FFD327"/>
<path d="M1.84486 8.0052C2.80727 7.60536 3.89314 7.94628 4.46834 8.76699C3.89454 9.58771 2.81008 9.93143 1.84626 9.53299L0 8.7698L1.84486 8.0052Z" fill="#FFD327"/>
<path d="M6.58267 7.89012C6.40731 6.90386 6.932 5.89374 7.89582 5.49391L9.73787 4.72931L8.97468 6.57417C8.57624 7.53938 7.56753 8.06408 6.57987 7.89012" fill="#FFD327"/>
<path d="M6.94592 8.76543C7.51832 7.94472 8.60419 7.601 9.56801 8.00084L11.4129 8.76263L9.56941 9.52863C8.60559 9.92847 7.51972 9.58615 6.94592 8.76684" fill="#FFD327"/>
<path d="M5.70577 7.52822C4.88505 6.95442 4.54274 5.86855 4.93977 4.90473L5.70296 3.05988L6.46756 4.90193C6.8674 5.86714 6.52508 6.95161 5.70437 7.52681" fill="#FFD327"/>
<path d="M4.83164 7.89152C3.84538 8.06549 2.83527 7.54079 2.43543 6.57838L1.66943 4.73492L3.51429 5.49812C4.47811 5.89655 5.0042 6.90526 4.83164 7.89293" fill="#FFD327"/>
<path d="M5.70855 10.0044C6.52927 10.5782 6.87298 11.664 6.47315 12.6264L5.70995 14.4713L4.94535 12.6278C4.54552 11.664 4.88643 10.5782 5.70715 10.0044" fill="#FFD327"/>
<path d="M6.58397 9.6424C7.57023 9.46703 8.58034 9.99173 8.98018 10.9555L9.74478 12.799L7.89992 12.0358C6.9361 11.6374 6.41001 10.6287 6.58397 9.64099" fill="#FFD327"/>
<path d="M6.56439 16.26C7.3388 14.3871 9.3001 13.3643 11.2165 13.7024C11.556 15.6189 10.5361 17.5802 8.66457 18.356L5.08289 19.8431L6.56439 16.26Z" fill="#FAA943"/>
<path d="M14.6158 10.299C14.2763 8.38259 15.2962 6.41988 17.1663 5.64406L20.748 4.15695L19.2665 7.74145C18.4921 9.61296 16.5322 10.6357 14.6144 10.299" fill="#FAA943"/>
<path d="M15.3214 11.9993C16.4367 10.4028 18.5454 9.73779 20.4169 10.5122H20.4183L24 11.9937L20.4183 13.4794C18.5468 14.2566 16.4367 13.593 15.3214 11.9993Z" fill="#FAA943"/>
<path d="M12.9153 9.59468C11.3201 8.48075 10.6523 6.37214 11.4268 4.49923L12.9083 0.914734L14.394 4.49502C15.1712 6.36794 14.5062 8.47654 12.9125 9.59328" fill="#FAA943"/>
<path d="M12.9182 14.4053C14.5134 15.5206 15.1798 17.6278 14.4068 19.5021L12.9239 23.0852L11.4381 19.5035C10.6609 17.632 11.3259 15.5234 12.9196 14.4053" fill="#FAA943"/>
<path d="M14.6185 13.6996C16.5349 13.3601 18.4962 14.38 19.2721 16.2515L20.7578 19.8332L17.1733 18.3517C15.3004 17.5773 14.279 15.6174 14.6157 13.6996" fill="#FAA943"/>
</g>
<defs>
<clipPath id="clip0_45_4159">
<rect width="24" height="24" fill="white"/>
</clipPath>
</defs>
</svg>
