<svg width="24" height="24" viewBox="0 0 24 24" fill="none" xmlns="http://www.w3.org/2000/svg">
<g clip-path="url(#clip0_45_4155)">
<path fill-rule="evenodd" clip-rule="evenodd" d="M13.4034 14.3119L9.10406 14.3106C9.10406 14.3106 8.974 14.2962 8.90833 14.1823C8.84393 14.0708 8.86088 14.0115 8.86088 14.0115V10.0041C8.86088 10.0041 8.8558 9.86177 8.93206 9.77661C9.00535 9.69484 9.14007 9.69103 9.14007 9.69103H14.8049C14.8049 9.69103 14.8955 9.67705 14.9997 9.73509C15.09 9.78381 15.1395 9.97192 15.1395 9.97192V14.0844C15.1395 14.0844 15.09 14.1988 15.0404 14.239C14.9959 14.2772 14.9027 14.3094 14.9027 14.3094L13.4034 14.3119ZM13.3703 7.11347V2.68028C17.923 3.34289 21.4203 7.2626 21.4203 11.9987C21.4203 16.7344 17.931 20.6596 13.3788 21.3244L13.3712 16.8607H15.1378C16.6126 16.8607 17.6959 15.7553 17.6959 14.281V9.6618C17.6959 8.18788 16.5215 7.11136 15.0468 7.11136L13.3703 7.11347ZM6.25155 9.6618C6.25155 8.18788 7.14844 7.10415 8.62193 7.10415L10.5848 7.09822V2.69087C6.05497 3.37424 2.58052 7.2787 2.58052 11.9987C2.58052 16.7196 6.05539 20.6342 10.5848 21.3167L10.5776 16.8929L8.93587 16.8916C7.46068 16.8916 6.25155 15.7549 6.25155 14.281V9.6618ZM0 11.9987C0 5.37307 5.3733 0.00189209 12.0002 0.00189209C18.628 0.00189209 24 5.3735 24 11.9987C24 18.6273 18.6275 23.9981 12.0002 23.9981C5.3733 23.9981 0 18.6277 0 11.9987Z" fill="#B10A32"/>
</g>
<defs>
<clipPath id="clip0_45_4155">
<rect width="24" height="24" fill="white"/>
</clipPath>
</defs>
</svg>
