<svg width="24" height="24" viewBox="0 0 24 24" fill="none" xmlns="http://www.w3.org/2000/svg">
<g clip-path="url(#clip0_45_4157)">
<path d="M11.1776 0.00154017C10.5414 0.00154017 10.4099 0.112429 10.2035 0.342595C10.1224 0.337242 10.0375 0.335711 9.94882 0.335711C9.45943 0.335711 8.83087 0.407581 8.29483 0.766212C7.77715 1.10802 7.53093 1.71286 7.80697 2.15561C7.80697 2.15561 7.99202 1.88417 8.6007 1.88417C8.68634 1.88417 8.78116 1.89333 8.8821 1.90174C9.72324 2.00115 10.3457 2.4439 10.27 3.61308C10.2027 4.7815 9.76453 6.08451 7.97214 6.0998C7.97214 6.0998 7.74121 6.0998 7.49499 6.07686C6.66073 5.98587 6.39845 5.46205 6.39845 5.46205C6.39845 5.46205 7.11953 5.2663 7.12565 4.35098C7.11953 3.72854 6.57738 3.15887 5.79512 2.92871C5.53896 2.85377 5.25756 2.81707 4.96469 2.81707C4.04249 2.81707 3.00713 3.20322 2.30898 4.11471C0.726112 6.20456 0.597647 9.25101 0.983807 12.0841C1.37226 14.9233 3.17306 17.5531 3.22582 17.625C3.26406 17.6754 3.29847 17.7029 3.33747 17.7029C3.35735 17.7029 3.37799 17.6937 3.3994 17.6761C4.17708 16.9214 4.91881 15.8899 5.23615 15.2002C5.57566 15.4709 5.39826 16.0466 5.21168 16.6614C5.03427 17.29 4.603 18.1242 4.447 18.3934C4.29636 18.6565 4.09449 18.9623 4.36595 19.1221C4.39348 19.139 4.42865 19.1481 4.47071 19.1481C4.8194 19.1481 5.63989 18.5402 6.5552 17.3198C7.57986 15.9465 8.09984 14.7276 8.09984 14.7276C8.17478 14.7444 8.30019 14.8714 8.27954 15.217C8.26578 15.568 7.90485 16.874 7.20212 18.0898C6.49174 19.3049 5.83565 20.065 5.70336 20.2378C5.62154 20.338 5.69113 20.4007 5.74389 20.4412C5.79589 20.4764 7.05224 21.6494 8.87751 22.6404C11.04 23.7928 11.9989 24 11.9989 24C11.9989 24 12.9555 23.7981 15.118 22.6465C16.9425 21.654 18.2042 20.4756 18.2509 20.4359C18.3036 20.3999 18.3709 20.3433 18.2914 20.2332C18.1667 20.068 17.5084 19.3042 16.7995 18.0891C16.0991 16.8817 15.7244 15.5672 15.719 15.2208C15.7045 14.8713 15.8223 14.7559 15.8941 14.7268C15.8941 14.7268 16.4195 15.9534 17.4441 17.3191C18.364 18.541 19.1769 19.1474 19.5271 19.1474C19.5714 19.1474 19.6066 19.1382 19.6357 19.1214C19.8987 18.9616 19.703 18.6511 19.5485 18.3911C19.4047 18.1235 18.9674 17.2946 18.7815 16.6607C18.6034 16.039 18.4183 15.464 18.764 15.1994C19.0821 15.8891 19.8184 16.926 20.5984 17.67C20.619 17.6914 20.6427 17.7021 20.6657 17.7021C20.7001 17.7021 20.7368 17.6754 20.7689 17.6287C20.8263 17.5523 22.6301 14.9272 23.0155 12.0833C23.4025 9.24412 23.2747 6.20455 21.6904 4.11394C20.9968 3.20016 19.9538 2.8117 19.0255 2.8117C18.7357 2.8117 18.4588 2.84918 18.2057 2.92182C17.4174 3.15887 16.8775 3.73391 16.8821 4.35024C16.8821 5.26555 17.607 5.46128 17.607 5.46128C17.607 5.46128 17.3646 5.9721 16.5005 6.07609C16.3392 6.09597 16.1824 6.10515 16.0325 6.10515C15.3826 6.10515 14.8351 5.89869 14.3304 5.18601C13.841 4.5001 13.8571 3.08777 13.8288 2.61673C13.8066 2.13881 13.7041 1.06674 13.2017 0.629347C12.7009 0.180484 12.0907 0.0298222 11.3298 0C11.274 0.00152934 11.2243 0.00154017 11.1776 0.00154017Z" fill="#00AFE9"/>
</g>
<defs>
<clipPath id="clip0_45_4157">
<rect width="24" height="24" fill="white"/>
</clipPath>
</defs>
</svg>
