<svg width="24" height="24" viewBox="0 0 24 24" fill="none" xmlns="http://www.w3.org/2000/svg">
<g clip-path="url(#clip0_45_4158)">
<path d="M0 23.8004H24V0.19944H0V23.8004Z" fill="url(#paint0_linear_45_4158)"/>
<path d="M1.87492 0.622221C1.4093 0.622221 1.10509 1.01503 1.03285 1.56587C1.03285 1.56587 0.433472 4.71628 0.433472 11.406C0.433472 18.099 1.03285 22.4781 1.03285 22.4781C1.08816 23.0075 1.4093 23.4212 1.87492 23.4212H22.6483C23.1122 23.4212 23.4814 23.0532 23.4893 22.4781C23.4893 22.4781 23.2584 17.349 23.2584 12.3395C23.2584 7.3294 23.4893 1.56587 23.4893 1.56587C23.5005 1.05341 23.1122 0.622221 22.6483 0.622221H1.87492Z" fill="url(#paint1_linear_45_4158)"/>
<path d="M13.5414 3.02993C14.1966 3.30479 16.8301 4.72874 17.1529 5.18364C15.8277 5.3586 13.2287 6.03529 11.829 6.71651L11.7472 6.88131C13.2908 6.54155 15.4484 6.36377 16.9362 6.28306C16.3808 7.09804 16.0128 7.48633 15.1679 8.40854L15.0895 8.58745C16.6997 7.62009 17.1529 7.55068 18.6372 6.68152C19.1977 7.5106 19.3326 9.42105 19.354 10.9353C19.8371 9.97472 20.4235 6.35587 20.1797 5.70174C21.164 5.02617 21.2972 4.4821 21.2972 4.4821C20.3947 4.55999 19.8969 4.57523 19.4104 4.72874C18.2574 4.02156 15.6132 3.08863 13.6176 2.86288L13.5414 3.02993Z" fill="url(#paint2_linear_45_4158)"/>
<path d="M3.70979 14.2759C3.57941 15.4814 3.52692 16.3438 3.69963 17.3084C3.21143 17.4433 2.78363 17.4624 2.39025 17.6301L2.31519 17.7954C2.94109 18.1815 3.45073 18.4772 4.15847 18.8074C4.53718 19.6207 4.9283 20.1692 5.56267 20.7957L5.63999 20.6281C5.52598 20.1659 5.37812 19.7838 5.43399 19.2786C6.22075 19.5078 6.89575 19.6291 7.79256 19.6562L7.86819 19.4886C7.07974 19.1827 6.29186 18.9417 5.6541 18.3401C5.85446 17.7825 6.08416 17.3451 6.45892 16.792L6.53793 16.6226C5.86066 16.7248 5.24661 16.9726 4.66078 17.0866C4.19911 16.275 4.01964 15.1648 3.78711 14.1072L3.70979 14.2759Z" fill="url(#paint3_linear_45_4158)"/>
<path d="M7.72803 8.77369C7.72803 8.77369 7.22121 8.72515 6.38253 8.75055C5.67366 8.78328 4.61656 8.84649 4.1024 8.99775L4.02734 9.16255C4.84457 9.19754 5.96432 9.41709 6.39269 9.84715C6.39269 9.84715 5.15216 10.9663 3.92236 13.4158C3.92236 13.4158 6.15169 11.3242 7.11792 10.8055C7.11792 10.8055 7.62361 12.4896 7.97466 13.3328L8.05198 13.1646C8.14906 12.6228 8.39118 11.1531 8.80205 10.2541C8.80205 10.2541 8.94767 10.1655 9.66049 10.096C10.375 10.0323 11.3853 9.99445 13.3036 10.3314L13.3815 10.1666C12.9435 9.9081 11.1979 9.15973 9.35007 8.91083H9.41046C9.66387 8.16471 9.98106 7.60202 9.98106 7.60202C9.58938 7.65733 8.47415 8.17882 7.72803 8.77369Z" fill="url(#paint4_linear_45_4158)"/>
<path d="M12.398 19.107C12.3703 18.7802 12.3494 18.502 12.3331 18.134C11.9453 18.66 11.614 19.0737 11.1862 19.554C10.7341 19.6799 10.2172 19.6748 9.74591 19.6697C9.55966 19.6675 9.37962 19.6658 9.21425 19.6708L9.13806 19.8385C9.57659 20.0642 10.0072 20.2031 10.4666 20.2973C10.0941 20.6365 9.59634 20.8944 9.24642 21.1309L9.16967 21.2957C9.91917 21.1185 10.9063 20.8002 11.6417 20.3662C12.0243 20.3831 12.3816 20.3577 12.644 20.3058C12.644 20.3058 12.7225 20.1348 12.7225 20.1387C12.6745 19.9694 12.5238 19.8661 12.4798 19.6291C13.1689 19.094 13.6684 18.6064 14.2446 18.0268L14.3248 17.8586C13.7553 18.2514 13.0639 18.7915 12.398 19.107Z" fill="url(#paint5_linear_45_4158)"/>
<path d="M18.7134 6.51213C17.2324 7.38298 16.7787 7.45635 15.1679 8.42032C16.1059 7.40273 16.4321 6.96928 17.0123 6.11762C15.5274 6.19664 13.3698 6.37498 11.829 6.71644C13.17 6.00023 15.8288 5.20388 17.2324 5.01425C16.9068 4.56499 14.2728 3.13822 13.6175 2.86337C15.7029 3.02534 18.2517 3.80476 19.4877 4.56048C19.9736 4.40866 20.4793 4.40132 21.3841 4.32061C21.1538 4.71625 21.1436 4.94539 20.2558 5.53405C20.5019 6.19156 19.9144 9.80871 19.429 10.7665C19.4115 9.25336 19.2795 7.34234 18.7134 6.51213Z" fill="white"/>
<path d="M7.86796 19.4887C7.01686 19.1732 6.40394 18.8058 5.72893 18.1748C5.93098 17.6172 6.16181 17.1815 6.5377 16.6228C5.84576 16.7261 5.33555 16.8039 4.73956 16.9168C4.25419 16.068 4.03407 15.2479 3.78687 14.1073C3.65481 15.3162 3.60458 16.1797 3.77502 17.142C3.22813 17.2938 2.8404 17.427 2.39001 17.6296C3.021 18.0157 3.53064 18.3131 4.235 18.6416C4.6137 19.4537 5.00482 20.0023 5.64032 20.6282C5.49132 20.0949 5.45182 19.671 5.51277 19.1117C6.30009 19.3409 6.97397 19.4611 7.86796 19.4887Z" fill="white"/>
<path d="M10.0838 7.45834C9.81851 7.80261 9.51092 8.44432 9.42796 8.74232C11.6217 9.03975 13.3821 10.1663 13.3821 10.1663C11.4637 9.82594 10.4529 9.86827 9.73724 9.93261C9.02611 9.99977 8.87994 10.0833 8.87994 10.0833C8.36239 11.2172 8.05198 13.1643 8.05198 13.1643C7.70319 12.3228 7.19863 10.6375 7.19863 10.6375C6.2307 11.1551 4.00476 13.2495 4.00476 13.2495C5.22835 10.7978 6.47057 9.68259 6.47057 9.68259C6.04333 9.2497 4.92245 9.03354 4.1024 8.99742C4.52795 8.82359 5.62004 8.62041 6.45872 8.58203C7.29852 8.55776 7.80647 8.60573 7.80647 8.60573C8.55541 8.01426 9.69209 7.51647 10.0838 7.45834Z" fill="white"/>
<path d="M12.4108 17.9689C12.0236 18.4943 11.6906 18.9069 11.2611 19.3872C10.5229 19.5943 9.9337 19.6711 9.21411 19.6711C9.65603 19.8991 10.0838 20.0357 10.5449 20.1322C10.0838 20.5493 9.6944 20.8461 9.24685 21.1312C9.99692 20.9534 10.9829 20.6351 11.7172 20.2011C12.101 20.2157 12.4593 20.1909 12.7223 20.139C12.6535 19.9166 12.6117 19.7507 12.5558 19.4611C13.2472 18.9261 13.749 18.4413 14.3246 17.8588C13.7123 18.2861 13.184 18.605 12.4751 18.9396C12.4447 18.6134 12.4272 18.3369 12.4108 17.9689Z" fill="white"/>
</g>
<defs>
<linearGradient id="paint0_linear_45_4158" x1="11.9998" y1="-0.390339" x2="11.9998" y2="24.9448" gradientUnits="userSpaceOnUse">
<stop stop-color="#007348"/>
<stop offset="0.600006" stop-color="#8DC9AB"/>
<stop offset="1" stop-color="#00925B"/>
</linearGradient>
<linearGradient id="paint1_linear_45_4158" x1="11.9621" y1="-5.76182" x2="11.9621" y2="22.7079" gradientUnits="userSpaceOnUse">
<stop stop-color="#00925B"/>
<stop offset="0.300003" stop-color="#8DC9AB"/>
<stop offset="0.550003" stop-color="#00925B"/>
<stop offset="0.835159" stop-color="#007348"/>
<stop offset="1" stop-color="#009C6D"/>
</linearGradient>
<linearGradient id="paint2_linear_45_4158" x1="16.5223" y1="21.1357" x2="16.5223" y2="2.71241" gradientUnits="userSpaceOnUse">
<stop stop-color="#00A678"/>
<stop offset="1" stop-color="#00925B"/>
</linearGradient>
<linearGradient id="paint3_linear_45_4158" x1="5.09171" y1="21.1367" x2="5.09171" y2="2.70785" gradientUnits="userSpaceOnUse">
<stop stop-color="#00A678"/>
<stop offset="1" stop-color="#00925B"/>
</linearGradient>
<linearGradient id="paint4_linear_45_4158" x1="8.65228" y1="21.1326" x2="8.65228" y2="2.71583" gradientUnits="userSpaceOnUse">
<stop stop-color="#00A678"/>
<stop offset="1" stop-color="#00925B"/>
</linearGradient>
<linearGradient id="paint5_linear_45_4158" x1="11.7311" y1="21.1351" x2="11.7311" y2="2.71204" gradientUnits="userSpaceOnUse">
<stop stop-color="#00A678"/>
<stop offset="1" stop-color="#00925B"/>
</linearGradient>
<clipPath id="clip0_45_4158">
<rect width="24" height="24" fill="white"/>
</clipPath>
</defs>
</svg>
