<svg width="24" height="24" viewBox="0 0 24 24" fill="none" xmlns="http://www.w3.org/2000/svg">
<path d="M18.624 16.1338C16.6082 15.8094 14.4304 15.6241 12.8319 15.9021C12.7393 15.9253 12.6696 15.8558 12.6696 15.7631C12.6696 15.2071 12.6696 13.4 12.2296 11.1527C12.2296 11.1063 12.2063 11.0832 12.1601 11.06C6.90082 7.3763 2.15143 4.9205 0.205333 3.99378C0.0664134 3.92427 -0.0727018 4.10962 0.0431323 4.22546C5.71941 9.43825 7.71186 18.3116 7.96662 19.4932C7.9897 19.5627 8.05937 19.609 8.12883 19.609C14.4999 18.3811 20.8943 19.9102 22.6784 20.3967C22.8173 20.443 22.91 20.2577 22.8173 20.165C21.4967 18.7518 20.1067 17.4312 18.6934 16.1801C18.6934 16.157 18.6701 16.1338 18.624 16.1338Z" fill="#183964"/>
<path d="M23.9764 17.0375C18.8562 10.1797 11.5816 5.12912 9.28798 3.62321C9.14886 3.53053 9.00994 3.69271 9.10269 3.83172C10.8633 6.14851 11.7669 8.81283 12.2071 11.037C12.2071 11.0833 12.2302 11.1065 12.2535 11.1296C14.3618 12.6124 16.5165 14.2805 18.6479 16.1107C18.6709 16.1339 18.6942 16.1339 18.7173 16.1339C20.9415 16.5046 22.9803 17.0143 23.8142 17.246C23.9533 17.2923 24.0459 17.1533 23.9764 17.0375Z" fill="#183964"/>
<path d="M18.624 16.1338C16.6082 15.8094 14.4304 15.6241 12.8319 15.9021C12.7393 15.9253 12.6696 15.8558 12.6696 15.7631C12.6696 15.2071 12.6696 13.4 12.2296 11.1527C12.2296 11.1063 12.2063 11.0832 12.1601 11.06C6.90082 7.3763 2.15143 4.9205 0.205333 3.99378C0.0664134 3.92427 -0.0727018 4.10962 0.0431323 4.22546C5.71941 9.43825 7.71186 18.3116 7.96662 19.4932C7.9897 19.5627 8.05937 19.609 8.12883 19.609C14.4999 18.3811 20.8943 19.9102 22.6784 20.3967C22.8173 20.443 22.91 20.2577 22.8173 20.165C21.4967 18.7518 20.1067 17.4312 18.6934 16.1801C18.6934 16.157 18.6701 16.1338 18.624 16.1338Z" fill="#183964"/>
<path d="M23.9764 17.0375C18.8562 10.1797 11.5816 5.12912 9.28798 3.62321C9.14886 3.53053 9.00994 3.69271 9.10269 3.83172C10.8633 6.14851 11.7669 8.81283 12.2071 11.037C12.2071 11.0833 12.2302 11.1065 12.2535 11.1296C14.3618 12.6124 16.5165 14.2805 18.6479 16.1107C18.6709 16.1339 18.6942 16.1339 18.7173 16.1339C20.9415 16.5046 22.9803 17.0143 23.8142 17.246C23.9533 17.2923 24.0459 17.1533 23.9764 17.0375Z" fill="#183964"/>
</svg>
