<svg width="24" height="24" viewBox="0 0 24 24" fill="none" xmlns="http://www.w3.org/2000/svg">
<path d="M16.9529 14.2494L19.7136 12.7981L21.7479 17.0431H18.6965C18.6965 17.0431 18.1153 17.0431 17.861 16.5352C17.6431 15.9184 16.9529 14.2494 16.9529 14.2494Z" fill="#72787A"/>
<path d="M22.4019 18.3858H0.315918V20.3448H22.4019V18.3858Z" fill="#72787A"/>
<path d="M24 5.90473C24 5.90473 20.5127 7.90024 19.7135 8.1905C18.9507 8.48075 18.6964 8.08165 18.5874 7.97281C18.3695 7.68255 18.0426 6.66665 18.0062 6.52152C18.0426 6.52152 18.2242 6.55781 18.6601 6.44896C19.205 6.30383 23.9636 3.65524 24 3.65524V5.90473Z" fill="#007858"/>
<path d="M18.4421 10.0047L16.1536 4.96146H12.848L8.19828 13.6329C8.19828 13.6329 10.4868 13.5603 11.9398 12.4718C12.3031 12.2542 13.3565 9.49672 14.301 7.68261L15.7903 11.4197C13.5382 12.5807 11.3949 13.5966 10.2325 13.9231C7.18116 14.7939 3.47595 15.3381 2.16822 14.1408C0.93315 13.0161 3.80288 8.37197 9.25173 7.35608C10.1235 7.17467 10.6684 7.21095 10.6684 7.21095C10.6684 7.21095 10.3052 5.61454 10.0146 5.288C9.61498 4.78005 9.2154 4.6712 8.59787 4.78005C7.39912 4.85261 2.38618 6.19505 0.388265 10.3675C-0.701505 12.7621 0.751522 15.1567 1.69599 15.8461C2.1319 16.1726 5.00163 18.7124 11.6129 16.1363C18.1152 13.5966 23.9636 9.64184 23.9636 9.64184V6.99326C23.9999 6.92069 21.4571 8.40825 18.4421 10.0047Z" fill="#72787A"/>
</svg>
