<svg width="24" height="24" viewBox="0 0 24 24" fill="none" xmlns="http://www.w3.org/2000/svg">
<g clip-path="url(#clip0_45_4164)">
<path fill-rule="evenodd" clip-rule="evenodd" d="M4.07288 20.0073H19.9276V3.99243H4.07288V20.0073Z" fill="white"/>
<path fill-rule="evenodd" clip-rule="evenodd" d="M19.4097 19.5046L13.6564 14.6312C13.6564 14.6312 12.877 13.8625 12.0028 13.8625C11.1199 13.8625 10.3405 14.6312 10.3405 14.6312L4.58892 19.5046L4.57049 19.4878L9.39606 13.6764C9.39606 13.6764 10.1553 12.8918 10.1553 11.9981C10.1553 11.1133 9.39606 10.3278 9.39606 10.3278L4.57049 4.51198L4.58892 4.49159L10.3405 9.37033C10.3405 9.37033 11.1199 10.1408 12.0028 10.1408C12.877 10.1408 13.6564 9.37033 13.6564 9.37033L19.4097 4.49159L19.4334 4.5173L14.5982 10.3278C14.5982 10.3278 13.8442 11.1133 13.8442 11.9981C13.8442 12.8918 14.5982 13.6764 14.5982 13.6764L19.4334 19.486L19.4097 19.5046ZM22.1016 11.9981V11.9963C22.1016 10.4209 22.1648 9.00861 23.3216 6.52802C23.656 5.80636 24.3959 4.7549 23.3058 3.5279C22.4202 2.63602 21.4143 2.7823 20.7368 3.17682C21.1265 2.49239 21.2713 1.47196 20.3866 0.576538C19.1727 -0.521024 18.1282 0.224573 17.4173 0.564126C14.9589 1.73527 13.5677 1.79999 12.0028 1.79999C10.4317 1.79999 9.03884 1.73527 6.58568 0.564126C5.87123 0.224573 4.82239 -0.521024 3.61205 0.576538C2.72733 1.47196 2.87654 2.49239 3.26624 3.17682C2.5869 2.78053 1.57931 2.63602 0.692835 3.5279C-0.396385 4.7549 0.347023 5.80636 0.675281 6.52802C1.8391 9.00861 1.90318 10.4209 1.90318 11.9981C1.90318 13.5797 1.8391 14.9956 0.675281 17.4744C0.347023 18.1907 -0.396385 19.2493 0.692835 20.4754C1.57931 21.3646 2.5869 21.2174 3.26624 20.8274C2.87654 21.5136 2.72733 22.5313 3.61205 23.4179C4.82239 24.5234 5.87123 23.7761 6.58568 23.4365C9.04059 22.2662 10.4317 22.2042 12.0028 22.2042C13.5677 22.2042 14.9589 22.2662 17.4164 23.4365C18.1282 23.7761 19.1727 24.5234 20.3866 23.4179C21.2713 22.5313 21.1229 21.5136 20.735 20.8274C21.4143 21.2174 22.4202 21.3699 23.3058 20.4754C24.3959 19.2493 23.656 18.1907 23.3216 17.4744C22.1648 14.992 22.1016 13.5797 22.1016 11.9981Z" fill="#FF3333"/>
</g>
<defs>
<clipPath id="clip0_45_4164">
<rect width="24" height="24" fill="white"/>
</clipPath>
</defs>
</svg>
