<svg width="24" height="24" viewBox="0 0 24 24" fill="none" xmlns="http://www.w3.org/2000/svg">
<g clip-path="url(#clip0_45_4165)">
<path d="M23.5685 2.69598H2.20007V23.9938H23.5685V2.69598Z" fill="#334190"/>
<path d="M6.66476 2.69598H2.20007V23.9938H6.66476V2.69598Z" fill="#F6AC21"/>
<path d="M8.1141 23.9969L11.762 23.2753C28.0947 18.7216 18.2625 7.94371 18.2625 7.94371C12.5972 1.77789 0.431396 0 0.431396 0C0.431396 0 12.6525 2.38895 16.6504 11.8311C16.6504 11.8311 20.8388 20.6131 5.95238 24H8.1141V23.9969Z" fill="#334190"/>
<path d="M18.2624 7.94365C16.1191 5.60997 13.0423 3.90577 10.0485 2.68674H7.64726C11.0464 4.49226 14.765 7.37558 16.6503 11.8311C16.6503 11.8311 20.8387 20.613 5.95227 23.9999H8.11399L11.7619 23.2722C28.0945 18.7185 18.2624 7.94058 18.2624 7.94058V7.94365Z" fill="white"/>
</g>
<defs>
<clipPath id="clip0_45_4165">
<rect width="24" height="24" fill="white"/>
</clipPath>
</defs>
</svg>
