<svg width="24" height="24" viewBox="0 0 24 24" fill="none" xmlns="http://www.w3.org/2000/svg">
<path d="M20.1444 23.9918H3.85547V0.00396729H20.1444V23.9918Z" fill="#001E5E"/>
<path d="M10.5655 14.6043C10.7811 8.66736 13.9836 3.41403 18.7934 0H15.5991C11.7008 3.38553 9.08433 8.13833 8.97446 13.4201C8.88912 17.6073 9.6947 20.7894 11.9165 24H12.7303C10.9928 21.0458 10.4434 17.9451 10.5655 14.6043Z" fill="white"/>
<path d="M11.0947 23.9958C9.16996 21.9531 6.84647 18.1077 6.57386 13.9531C6.24018 8.87066 7.92074 3.92252 11.3104 0.00390625H13.935C9.7885 4.11785 7.68473 9.56646 8.1649 14.9825C8.47415 18.4414 9.83324 21.0009 11.9207 23.9958H11.0947Z" fill="#FDB811"/>
<path d="M11.9816 18.991C13.7314 17.1802 15.3631 14.5637 15.8758 11.9513C16.596 8.29313 15.6478 5.2697 15.587 5.06217C15.5421 4.91157 15.5179 4.81384 15.5421 4.80174C15.5908 4.77221 15.9613 5.4325 16.2135 5.95336C16.6978 6.9625 17.2186 8.59422 17.1942 10.4701C17.1576 12.7977 16.3275 15.113 14.8219 16.8994C14.301 17.5179 13.7029 18.0673 13.0274 18.527C12.5879 18.8241 11.831 19.2351 11.8066 19.1944C11.7889 19.1708 11.8756 19.1008 11.9816 18.991Z" fill="white"/>
<path d="M11.9206 19.0437C13.0966 17.6886 14.1545 15.772 14.4109 13.9084C14.773 11.2919 13.9714 9.19628 13.9185 9.04979C13.8778 8.94821 13.8574 8.8788 13.8737 8.87083C13.9103 8.8472 14.2033 9.29808 14.4026 9.65617C14.7892 10.3479 15.2327 11.4792 15.2897 12.8057C15.3588 14.4497 14.8665 16.1221 13.8655 17.4446C13.5156 17.9044 13.1127 18.3195 12.6488 18.6735C12.3477 18.9015 11.8269 19.2228 11.8065 19.1943C11.7888 19.1736 11.8515 19.1252 11.9206 19.0437Z" fill="#FDB811"/>
</svg>
