<svg width="24" height="24" viewBox="0 0 24 24" fill="none" xmlns="http://www.w3.org/2000/svg">
<path d="M12.1718 5.33428C12.2783 5.24389 12.2226 5.04016 12.3849 5.00553C12.4978 4.9745 12.563 5.07929 12.6192 5.15574C12.581 5.17058 12.5432 5.18632 12.5059 5.20251C12.4852 5.17418 12.4443 5.11706 12.4236 5.08828C12.3876 5.15169 12.3642 5.22095 12.3503 5.29246C12.433 5.29336 12.5167 5.29471 12.5999 5.2965C12.5994 5.32304 12.5985 5.37611 12.5981 5.40264C12.4573 5.40264 12.317 5.40264 12.1763 5.40219C12.1754 5.3851 12.1731 5.35137 12.1718 5.33428Z" fill="#00468C"/>
<path d="M2.49446 5.43784C2.50076 5.3389 2.50435 5.19634 2.62938 5.1743C2.73012 5.13967 2.81332 5.21163 2.85739 5.29528C2.83086 5.32496 2.80162 5.35239 2.77329 5.38028C2.74676 5.34835 2.69414 5.28538 2.66761 5.25345C2.63972 5.31687 2.61499 5.38208 2.5934 5.44774C2.70133 5.46438 2.86908 5.40636 2.87673 5.56781C2.72922 5.57591 2.58171 5.57501 2.4342 5.57591C2.4279 5.55477 2.41576 5.51295 2.40991 5.49226C2.43105 5.47877 2.47332 5.45133 2.49446 5.43784Z" fill="#00468C"/>
<path d="M0.708661 5.52641C0.77747 5.52551 0.846278 5.52551 0.915086 5.52551C0.917335 5.98693 0.916435 6.44835 0.916435 6.90932C0.931276 7.11755 0.762179 7.30508 0.565648 7.35006C0.310652 7.42156 0.0178802 7.21784 0.00393868 6.95205C-0.00415641 6.75956 0.00258906 6.56663 0.00348852 6.37415C0.0731963 6.3746 0.143354 6.3755 0.213511 6.37685C0.218458 6.56393 0.204067 6.75237 0.220707 6.93946C0.241844 7.10046 0.451867 7.20479 0.587685 7.10496C0.688873 7.04739 0.713159 6.92282 0.708661 6.81533C0.708661 6.38584 0.706413 5.9559 0.708661 5.52641Z" fill="#00468C"/>
<path d="M3.02615 5.52368C3.09811 5.52458 3.17006 5.52548 3.24247 5.52683C3.24292 5.90955 3.24607 6.29227 3.24202 6.67498C3.24922 6.84363 3.11475 6.99924 2.94475 7.01003C2.70775 7.02397 2.46939 7.01273 2.23193 7.01273C2.23193 6.94032 2.23193 6.86747 2.23238 6.79506C2.4532 6.78832 2.67491 6.79911 2.89573 6.79056C2.96139 6.79731 3.02885 6.74694 3.02031 6.67723C3.0302 6.29272 3.01716 5.9082 3.02615 5.52368Z" fill="#00468C"/>
<path d="M3.44878 5.52641C3.51848 5.52551 3.58864 5.52506 3.65835 5.52551C3.68218 6.02066 3.66644 6.51715 3.65835 7.01275C3.58819 7.0132 3.51803 7.0132 3.44788 7.01275C3.44878 6.51715 3.44698 6.02201 3.44878 5.52641Z" fill="#00468C"/>
<path d="M8.35001 5.53216C8.41747 5.52362 8.48538 5.52272 8.55329 5.52002C8.55958 5.74129 8.55643 5.96255 8.55598 6.18427C8.72103 6.07453 8.89958 5.94456 9.1096 5.9666C9.30253 5.96975 9.46353 6.13929 9.49007 6.32458C9.50806 6.47074 9.51031 6.6205 9.48782 6.76621C9.45859 6.92002 9.30253 7.01761 9.15232 7.01401C8.91217 7.01941 8.67201 7.01266 8.43231 7.01536C8.23623 7.01266 8.03475 7.03695 7.84676 6.96679C7.74602 7.00322 7.63989 7.02211 7.53285 7.01671C6.99093 7.00952 6.44811 7.02436 5.90664 7.00952C5.8927 7.00007 5.86527 6.98118 5.85177 6.97174C5.8095 6.82153 5.84233 6.65783 5.83468 6.50222C5.82614 6.40193 5.86436 6.26522 5.75958 6.2036C5.67728 6.13435 5.54146 6.2189 5.54326 6.31874C5.53022 6.60341 5.55181 6.88854 5.53561 7.17277C5.53651 7.28115 5.3989 7.25822 5.32694 7.26901C5.10478 7.26721 4.88081 7.2825 4.66 7.25507C4.38656 7.21774 4.20262 6.89439 4.31146 6.64029C4.35553 6.48738 4.49629 6.40059 4.62537 6.32638C4.66359 6.38709 4.70137 6.44826 4.7396 6.50942C4.65595 6.57103 4.54531 6.61735 4.51338 6.72574C4.45582 6.87055 4.58129 7.0356 4.7306 7.0437C4.92623 7.05539 5.12232 7.04504 5.31795 7.04774C5.32469 6.79005 5.3076 6.53191 5.32559 6.27466C5.34718 6.00168 5.71865 5.86271 5.91743 6.04665C6.13375 6.23104 6.03391 6.5463 6.0537 6.79275C6.60911 6.7887 7.16498 6.80129 7.71994 6.786C7.72759 6.52876 7.71184 6.27151 7.72714 6.01517C7.79145 5.99133 7.86115 5.99448 7.92681 6.01247C7.9583 6.26971 7.93266 6.53011 7.94076 6.7887C8.07208 6.79275 8.2043 6.7932 8.33607 6.7932C8.34326 6.37315 8.31448 5.94996 8.35001 5.53216ZM8.55733 6.45725C8.55688 6.56923 8.55643 6.68077 8.55643 6.79275C8.7714 6.78825 8.98727 6.80354 9.20224 6.78555C9.30928 6.75812 9.27105 6.62455 9.28184 6.5436C9.29039 6.40733 9.27645 6.2126 9.1069 6.18652C8.89328 6.17437 8.71699 6.33358 8.55733 6.45725Z" fill="#00468C"/>
<path d="M12.2769 5.52363C12.3457 5.53308 12.433 5.50295 12.4901 5.54657C12.5027 6.03497 12.4937 6.52383 12.4937 7.01223C12.4222 7.01358 12.3502 7.01448 12.2792 7.01493C12.2684 6.51798 12.2729 6.02058 12.2769 5.52363Z" fill="#00468C"/>
<path d="M14.3047 5.52995C14.3767 5.52635 14.4482 5.52321 14.5206 5.52051C14.5327 5.9437 14.5183 6.36689 14.5287 6.79009C15.1538 6.79279 15.7794 6.79863 16.4045 6.78694C16.4103 6.5207 16.3964 6.25401 16.4153 5.98822C16.4836 6.00307 16.5686 5.98103 16.6253 6.03365C16.6352 6.28504 16.6249 6.53734 16.6285 6.78919C16.8092 6.79459 16.99 6.79414 17.1713 6.78964C17.1767 6.52925 17.1704 6.26885 17.1753 6.00846C17.2482 6.00981 17.321 6.01206 17.3943 6.01431C17.3903 6.26795 17.4015 6.5216 17.3903 6.7748C17.3831 6.91421 17.2495 7.02125 17.1133 7.01405C16.919 7.0181 16.7193 7.03339 16.5336 6.96683C16.4441 6.99606 16.3519 7.0208 16.2574 7.0163C15.747 7.0145 15.237 7.01495 14.727 7.0163C14.6263 7.0199 14.5287 6.99516 14.4333 6.96728C14.1509 7.05813 13.8487 7.00146 13.5577 7.0136C13.264 7.01585 13.0428 6.69295 13.1345 6.41726C13.1759 6.24997 13.3248 6.14878 13.4691 6.07502C13.5024 6.13888 13.5357 6.20274 13.569 6.26706C13.4822 6.32822 13.3558 6.37769 13.3432 6.49866C13.305 6.63583 13.4165 6.79054 13.5595 6.79009C13.8064 6.79818 14.0533 6.79189 14.3007 6.79009C14.3097 6.37004 14.302 5.95 14.3047 5.52995Z" fill="#00468C"/>
<path d="M8.89012 5.57684C8.95533 5.57819 9.02099 5.57999 9.0862 5.58269C9.0871 5.6533 9.0871 5.72435 9.08665 5.79541C9.02099 5.79721 8.95578 5.79811 8.89057 5.79901C8.88877 5.7248 8.88877 5.6506 8.89012 5.57684Z" fill="#00468C"/>
<path d="M16.4131 5.58702C16.4805 5.58657 16.548 5.58612 16.6159 5.58612C16.6132 5.65718 16.6105 5.72823 16.6078 5.79929C16.5435 5.79794 16.4801 5.79659 16.4162 5.79479C16.4144 5.72554 16.4135 5.65628 16.4131 5.58702Z" fill="#00468C"/>
<path d="M2.53051 5.67977C2.60067 5.67797 2.67082 5.67662 2.74143 5.67572C2.75267 6.01886 2.74728 6.36245 2.74458 6.7056C2.67262 6.70605 2.60112 6.70515 2.52961 6.70425C2.53006 6.3629 2.52871 6.02111 2.53051 5.67977Z" fill="#00468C"/>
<path d="M13.7418 6.15683C13.7382 6.04394 13.7732 5.88024 13.918 5.88699C14.0341 5.86675 14.0826 5.98908 14.1213 6.07273C14.0399 6.06103 13.963 6.0327 13.8843 6.01246C13.8677 6.06328 13.856 6.11545 13.8443 6.16717C13.9486 6.18561 14.124 6.12355 14.1213 6.28455C13.9725 6.2886 13.8241 6.2877 13.6752 6.2886C13.6716 6.26746 13.6649 6.22608 13.6613 6.2054C13.681 6.19325 13.7215 6.16897 13.7418 6.15683Z" fill="#00468C"/>
<path d="M1.42954 5.9856C1.67824 5.89835 1.97956 6.0625 2.01959 6.32739C2.03758 6.55091 2.02678 6.77622 2.02678 7.00064C2.03398 7.19807 1.87657 7.38066 1.68454 7.41528C1.57076 7.42968 1.45563 7.42293 1.34185 7.42293C1.34095 7.35142 1.34005 7.27902 1.34949 7.20796C1.45968 7.19537 1.57121 7.20616 1.68094 7.18997C1.75155 7.15669 1.78483 7.08159 1.82845 7.02177C1.63417 7.01098 1.40391 7.04606 1.25775 6.88641C1.01984 6.63321 1.07111 6.10478 1.42954 5.9856ZM1.47587 6.20552C1.30947 6.28332 1.32431 6.50279 1.36029 6.65255C1.43314 6.83334 1.65081 6.79016 1.80552 6.79466C1.80237 6.64265 1.81676 6.4893 1.79562 6.33819C1.7529 6.21496 1.59504 6.13896 1.47587 6.20552Z" fill="#00468C"/>
<path d="M9.71935 6.28326C9.79851 5.9707 10.2383 5.85557 10.4623 6.08493C10.6705 6.25987 10.5873 6.55579 10.6008 6.79235C11.0195 6.791 11.4382 6.7973 11.8569 6.78875C11.8682 6.53106 11.8506 6.27291 11.8659 6.01567C11.9307 5.99813 11.9986 6.00083 12.0656 5.99858C12.0701 6.25672 12.0732 6.51532 12.0669 6.77391C12.0719 6.91108 11.9388 7.01721 11.8074 7.01316C11.4108 7.01856 11.0132 7.01451 10.6161 7.01406C10.5878 7.13459 10.5451 7.25917 10.4394 7.33427C10.2919 7.46334 10.0832 7.41747 9.90464 7.41747C9.91274 7.34461 9.92173 7.27266 9.93118 7.20025C10.0373 7.198 10.1457 7.20925 10.2514 7.19081C10.3269 7.16292 10.3611 7.08152 10.4065 7.02081C10.215 7.01002 9.98739 7.04824 9.84258 6.89039C9.66808 6.74018 9.69327 6.48788 9.71935 6.28326ZM10.0418 6.2122C9.88395 6.29765 9.90419 6.51397 9.94287 6.66058C10.0193 6.83507 10.2329 6.7883 10.3854 6.7946C10.3836 6.65023 10.3926 6.50587 10.3791 6.36196C10.3521 6.2194 10.1659 6.1308 10.0418 6.2122Z" fill="#00468C"/>
<path d="M7.72893 7.18903C7.79639 7.18948 7.86385 7.19082 7.93176 7.19262C7.92996 7.25963 7.92951 7.32709 7.92232 7.3941C7.85846 7.4031 7.79369 7.40355 7.72938 7.40444C7.72848 7.33249 7.72848 7.26053 7.72893 7.18903Z" fill="#00468C"/>
<path d="M11.7341 7.19982C11.8002 7.18992 11.8677 7.18857 11.9352 7.18542C11.9343 7.25513 11.9343 7.32484 11.9266 7.3941C11.8803 7.40399 11.8331 7.41074 11.7859 7.40534C11.6874 7.3959 11.7409 7.26593 11.7341 7.19982Z" fill="#00468C"/>
<path d="M17.0508 7.18988C17.1196 7.19078 17.1889 7.19213 17.2582 7.19483C17.2582 7.26139 17.2577 7.32795 17.2577 7.39451C17.1889 7.39496 17.1201 7.39496 17.0517 7.39496C17.0508 7.3266 17.0504 7.25824 17.0508 7.18988Z" fill="#00468C"/>
<path d="M4.73193 7.45575C4.80074 7.45575 4.8691 7.45665 4.93791 7.45755C4.93791 7.52546 4.93791 7.59337 4.93746 7.66172C4.8691 7.66127 4.80074 7.66083 4.73238 7.65993C4.73193 7.59202 4.73193 7.52366 4.73193 7.45575Z" fill="#00468C"/>
<path d="M5.04126 7.45789C5.11097 7.45699 5.18113 7.45654 5.25128 7.45654C5.24948 7.52265 5.24903 7.58876 5.24274 7.65487C5.17618 7.66252 5.10917 7.66117 5.04261 7.66297C5.04126 7.59461 5.04126 7.52625 5.04126 7.45789Z" fill="#00468C"/>
<path d="M0.000732422 8.67633C1.55634 8.67813 3.11195 8.67543 4.66755 8.67768C4.6662 9.14045 4.66755 9.60322 4.6671 10.066C3.66871 10.0669 2.67076 10.0651 1.67282 10.0669C1.67417 10.6524 1.67282 11.238 1.67327 11.8235C2.56058 11.824 3.44744 11.8235 4.33475 11.8235C4.346 12.2472 4.32801 12.6704 4.34555 13.094C3.45464 13.0972 2.56373 13.0949 1.67327 13.0954C1.67417 14.1581 1.67192 15.2212 1.67417 16.2839C1.11651 16.2853 0.558844 16.2835 0.0011819 16.2853C0.00163163 13.7488 0.0020816 11.2123 0.000732422 8.67633Z" fill="#00468C"/>
<path d="M6.77139 8.67771C7.39651 8.67591 8.02208 8.67681 8.6472 8.67726C9.57544 11.2128 10.5023 13.7488 11.4319 16.2844C10.8216 16.284 10.2114 16.2853 9.60108 16.2835C9.44097 15.7771 9.27502 15.2721 9.11312 14.7661C8.12957 14.7657 7.14601 14.7666 6.16246 14.7657C5.98572 15.2707 5.82067 15.7798 5.64393 16.2848C5.06693 16.2831 4.48993 16.2862 3.91248 16.2831C4.86995 13.7497 5.81842 11.2128 6.77139 8.67771ZM6.59915 13.4169C7.29038 13.4196 7.98161 13.4174 8.67239 13.4178C8.45337 12.7509 8.23885 12.0821 8.02073 11.4152C7.89211 11.0172 7.75764 10.6205 7.65825 10.214C7.32995 11.2897 6.96208 12.3524 6.59915 13.4169Z" fill="#00468C"/>
<path d="M11.9667 8.67675C12.7069 8.67675 13.4472 8.67675 14.1879 8.67675C14.7563 8.6808 15.336 8.64168 15.8901 8.79773C16.4532 8.93939 16.9978 9.28658 17.2393 9.8321C17.5298 10.4972 17.4385 11.3549 16.9191 11.8842C16.7212 12.092 16.4621 12.2305 16.1892 12.3128C16.5935 12.4108 16.9915 12.5997 17.2568 12.9298C17.6364 13.3854 17.6971 14.0267 17.5793 14.5893C17.4727 15.1173 17.1318 15.5864 16.6704 15.8611C16.1437 16.1823 15.5146 16.2789 14.9065 16.2839C13.9266 16.2848 12.9466 16.2843 11.9667 16.2839C11.9671 13.7483 11.968 11.2123 11.9667 8.67675ZM13.6392 9.98951C13.6406 10.5849 13.6397 11.1804 13.6397 11.7758C14.0372 11.7718 14.4357 11.7893 14.8323 11.765C15.1548 11.7425 15.5078 11.5959 15.6329 11.2748C15.7376 10.987 15.7462 10.638 15.5802 10.3709C15.3967 10.092 15.0437 9.99805 14.728 9.99041C14.3651 9.98726 14.0021 9.99041 13.6392 9.98951ZM13.6401 12.9249C13.6397 13.6062 13.6397 14.288 13.6397 14.9698C14.0633 14.9612 14.4883 14.9887 14.9106 14.9522C15.2474 14.9262 15.5982 14.7517 15.7322 14.4252C15.8627 14.0897 15.8532 13.6899 15.681 13.371C15.5096 13.067 15.1476 12.9447 14.817 12.9316C14.4249 12.9154 14.0323 12.9289 13.6401 12.9249Z" fill="#00468C"/>
<path d="M1.027 17.4918C1.20914 17.4311 1.29639 17.7329 1.10031 17.7706C0.923563 17.8201 0.854755 17.5305 1.027 17.4918Z" fill="#00468C"/>
<path d="M5.3363 17.5278C5.41411 17.5269 5.49146 17.5265 5.56926 17.526C5.56926 17.6839 5.56971 17.8413 5.56611 17.9991C5.76085 17.8849 6.05632 17.8966 6.17594 18.1115C6.31221 18.3746 6.29467 18.7681 6.03068 18.9471C5.82336 19.0852 5.56117 19.0294 5.33765 18.9678C5.33675 18.488 5.33855 18.0077 5.3363 17.5278ZM5.56971 18.1579C5.5796 18.3823 5.54408 18.6157 5.58725 18.8356C5.71632 18.8693 5.88227 18.8567 5.95558 18.7286C6.04058 18.5712 6.04507 18.3575 5.94703 18.2051C5.85934 18.0787 5.69249 18.1111 5.56971 18.1579Z" fill="#00468C"/>
<path d="M9.25069 17.5269C9.32625 17.5269 9.4018 17.5264 9.47825 17.5269C9.4787 17.6861 9.47916 17.8457 9.47646 18.0049C9.60778 17.9438 9.75619 17.8997 9.90055 17.9424C10.0305 17.9752 10.1106 18.1093 10.1106 18.2383C10.1187 18.4969 10.1097 18.7555 10.1137 19.0141C10.0382 19.0137 9.96306 19.0137 9.88796 19.0141C9.88211 18.756 9.9046 18.496 9.87671 18.2392C9.83624 18.0607 9.60238 18.0949 9.48635 18.1745C9.46611 18.4533 9.4841 18.7344 9.47871 19.0141C9.40225 19.0137 9.32625 19.0137 9.25024 19.0137C9.25204 18.5181 9.25114 18.0225 9.25069 17.5269Z" fill="#00468C"/>
<path d="M11.2754 17.5278C11.3527 17.5269 11.4305 17.5265 11.5088 17.5265C11.5083 17.6843 11.5092 17.8422 11.5057 18.0005C11.6568 17.9187 11.8555 17.8894 12.0044 17.992C12.1681 18.1057 12.2059 18.3234 12.1969 18.51C12.1928 18.7007 12.0939 18.8982 11.9149 18.9796C11.7121 19.0767 11.4814 19.0223 11.2758 18.9661C11.2763 18.4867 11.2767 18.0072 11.2754 17.5278ZM11.5092 18.157C11.5074 18.3846 11.5074 18.6121 11.5097 18.8397C11.6248 18.8446 11.7633 18.8766 11.8528 18.7812C11.9869 18.6369 11.9833 18.4008 11.905 18.2303C11.8259 18.0824 11.6406 18.1039 11.5092 18.157Z" fill="#00468C"/>
<path d="M12.3593 17.5319C12.4295 17.4451 12.5977 17.4869 12.6058 17.6034C12.6336 17.7176 12.4924 17.8201 12.3948 17.7522C12.3125 17.7149 12.2896 17.5908 12.3593 17.5319Z" fill="#00468C"/>
<path d="M16.5304 17.5265C16.6064 17.5269 16.682 17.5274 16.7585 17.5287C16.7585 17.8175 16.7567 18.1066 16.7598 18.3958C16.8826 18.2434 17.004 18.0891 17.1299 17.9384C17.2145 17.9389 17.299 17.9398 17.384 17.9411C17.2478 18.1008 17.1169 18.2649 16.9797 18.4237C17.085 18.5591 17.1902 18.6949 17.2972 18.8293C17.322 18.8347 17.3714 18.846 17.3962 18.8514C17.3953 18.8959 17.3935 18.9845 17.3926 19.0286C17.2999 19.0164 17.1915 19.0277 17.1218 18.9535C16.9869 18.8105 16.8808 18.6436 16.7589 18.4898C16.7571 18.6643 16.758 18.8388 16.7589 19.0133C16.682 19.0133 16.6055 19.0137 16.5295 19.0142C16.5327 18.5181 16.5309 18.0221 16.5304 17.5265Z" fill="#00468C"/>
<path d="M0.00167087 17.6434C0.264761 17.6447 0.527852 17.6438 0.791392 17.6443C0.790942 17.7108 0.790942 17.7778 0.791392 17.8448C0.604755 17.8448 0.418568 17.8448 0.232381 17.8448C0.23283 17.9667 0.23283 18.0891 0.23328 18.2114C0.39833 18.2114 0.56383 18.2109 0.729329 18.2109C0.729329 18.2725 0.729779 18.3346 0.729779 18.3971C0.56383 18.3967 0.39788 18.3967 0.231931 18.3967C0.23328 18.6022 0.232381 18.8077 0.23373 19.0137C0.156377 19.0137 0.0785738 19.0137 0.0012207 19.0141C0.00212016 18.5572 0.00122114 18.1003 0.00167087 17.6434Z" fill="#00468C"/>
<path d="M4.47012 17.6415C4.55647 17.6433 4.64371 17.6411 4.73006 17.6523C4.9095 18.1007 5.05701 18.5617 5.22791 19.0137C5.14021 19.0137 5.05297 19.0137 4.96572 19.0137C4.93199 18.9102 4.89781 18.8072 4.86363 18.7042C4.67879 18.7051 4.49395 18.7047 4.30912 18.7047C4.27404 18.8072 4.23941 18.9102 4.20433 19.0132C4.12248 19.0137 4.04063 19.0137 3.95923 19.0141C4.13327 18.5581 4.29877 18.0985 4.47012 17.6415ZM4.37568 18.4996C4.51734 18.501 4.65945 18.501 4.80112 18.5001C4.73051 18.2918 4.65766 18.0841 4.59784 17.8723C4.52229 18.0809 4.45348 18.2918 4.37568 18.4996Z" fill="#00468C"/>
<path d="M7.97087 17.6443C8.28613 17.6564 8.67964 17.5786 8.9099 17.8516C9.13521 18.1435 9.12397 18.6261 8.84154 18.8774C8.59824 19.0807 8.26004 18.9975 7.96997 19.0137C7.97087 18.5572 7.96952 18.1008 7.97087 17.6443ZM8.21147 17.8399C8.21147 18.1651 8.21192 18.4898 8.21147 18.8149C8.38957 18.814 8.61398 18.8383 8.72821 18.6683C8.84829 18.4772 8.84154 18.2163 8.7462 18.0167C8.63961 17.826 8.39946 17.8377 8.21147 17.8399Z" fill="#00468C"/>
<path d="M13.3531 19.0138C13.3549 18.5573 13.3532 18.1008 13.354 17.6443C13.5987 17.6556 13.8604 17.6061 14.0912 17.7082C14.3214 17.8247 14.3012 18.1867 14.0723 18.296C14.3484 18.3886 14.3727 18.7965 14.1312 18.9404C13.8942 19.0713 13.6104 18.9935 13.3531 19.0138ZM13.587 17.8409C13.5875 17.9672 13.5875 18.0936 13.5875 18.2204C13.6904 18.2168 13.7952 18.2258 13.8973 18.2042C14.0448 18.1638 14.066 17.934 13.9297 17.8665C13.8204 17.826 13.7003 17.8458 13.587 17.8409ZM13.5875 18.3868C13.5875 18.5339 13.5875 18.6819 13.5879 18.8294C13.7062 18.8226 13.8317 18.8393 13.9441 18.7938C14.0511 18.7412 14.0583 18.5996 14.0228 18.5002C13.9351 18.3459 13.7327 18.3981 13.5875 18.3868Z" fill="#00468C"/>
<path d="M2.99418 17.6664C3.0567 17.6641 3.11921 17.6623 3.18172 17.6605C3.18127 17.7532 3.18172 17.8467 3.18127 17.9398C3.26357 17.9394 3.34587 17.9389 3.42817 17.9394C3.42772 17.983 3.42682 18.0702 3.42637 18.1138C3.34452 18.1129 3.26267 18.1129 3.18127 18.1129C3.19206 18.3374 3.15878 18.5654 3.20106 18.7871C3.25458 18.8806 3.36971 18.8267 3.45515 18.8334C3.4538 18.8941 3.45246 18.9544 3.45111 19.0155C3.34182 19.0232 3.22894 19.0439 3.12101 19.0147C3.02207 18.9832 2.95866 18.8829 2.9609 18.7812C2.95101 18.5586 2.96045 18.3356 2.95776 18.1129C2.92268 18.1134 2.85297 18.1134 2.81834 18.1138C2.81654 18.0554 2.81519 17.9974 2.81384 17.9398C2.85027 17.9398 2.92313 17.9398 2.95955 17.9398C2.97035 17.8485 2.98204 17.7572 2.99418 17.6664Z" fill="#00468C"/>
<path d="M0.951904 17.9406C1.02881 17.9397 1.10616 17.9393 1.18306 17.9388C1.18262 18.2968 1.18217 18.6553 1.18351 19.0137C1.10661 19.0137 1.02971 19.0137 0.953254 19.0141C0.952355 18.6562 0.954153 18.2986 0.951904 17.9406Z" fill="#00468C"/>
<path d="M1.62155 18.0284C1.72588 17.9484 1.85226 17.9187 1.98223 17.925C1.98448 17.9943 1.98718 18.0635 1.98987 18.1332C1.86125 18.1229 1.73263 18.1382 1.6238 18.2115C1.62784 18.4791 1.62425 18.7467 1.62649 19.0143C1.55004 19.0138 1.47404 19.0138 1.39758 19.0143C1.39848 18.6558 1.39803 18.2978 1.39758 17.9399C1.47359 17.9394 1.54959 17.939 1.62604 17.939C1.6247 17.9614 1.62245 18.006 1.62155 18.0284Z" fill="#00468C"/>
<path d="M2.22068 17.9632C2.37674 17.8993 2.54943 17.9344 2.71044 17.9578C2.71133 18.0046 2.71358 18.0986 2.71448 18.1453C2.57956 18.1318 2.39832 18.0545 2.28634 18.1611C2.21798 18.3369 2.45949 18.3513 2.56517 18.4084C2.79723 18.4687 2.85255 18.8091 2.66411 18.9485C2.48782 19.0808 2.25036 19.029 2.05338 18.9818C2.05338 18.935 2.05338 18.842 2.05338 18.7952C2.1874 18.8294 2.33176 18.882 2.46983 18.8366C2.55258 18.8096 2.58856 18.6872 2.513 18.631C2.40372 18.5663 2.2742 18.5438 2.16851 18.4727C1.99357 18.3544 2.0183 18.0383 2.22068 17.9632Z" fill="#00468C"/>
<path d="M10.3441 17.9663C10.5429 17.9339 10.7826 17.8745 10.9539 18.0144C11.0987 18.1542 11.0457 18.3755 11.0542 18.5554C11.0632 18.6719 11.007 18.8428 11.1662 18.8734C11.1666 18.9219 11.1675 18.9709 11.1693 19.02C11.0533 19.0389 10.9328 19.0339 10.8473 18.9426C10.7106 19.0308 10.5285 19.0694 10.3801 18.9867C10.1939 18.8864 10.1907 18.5743 10.3774 18.4731C10.5163 18.389 10.6845 18.3962 10.8406 18.3917C10.8122 18.3072 10.8311 18.1857 10.7425 18.1354C10.609 18.0791 10.4628 18.1309 10.3315 18.1668C10.3351 18.0998 10.3396 18.0328 10.3441 17.9663ZM10.488 18.635C10.4561 18.7007 10.4673 18.796 10.5379 18.8333C10.6315 18.8895 10.7389 18.8365 10.8293 18.7996C10.828 18.7119 10.8271 18.6242 10.8257 18.5365C10.712 18.5523 10.5653 18.5298 10.488 18.635Z" fill="#00468C"/>
<path d="M12.3503 17.9388C12.4277 17.9393 12.5055 17.9393 12.5828 17.9397C12.5819 18.2977 12.5824 18.6562 12.5828 19.0141C12.5046 19.0137 12.4272 19.0137 12.3499 19.0137C12.3535 18.6553 12.3521 18.2973 12.3503 17.9388Z" fill="#00468C"/>
<path d="M14.522 17.9657C14.7397 17.9271 15.0563 17.8592 15.1885 18.093C15.2614 18.299 15.2096 18.523 15.2276 18.7366C15.2074 18.8207 15.2888 18.8445 15.3473 18.8769C15.3464 18.9142 15.3446 18.9889 15.3437 19.0262C15.2276 19.037 15.1085 19.032 15.0217 18.9443C14.8872 19.0293 14.71 19.0667 14.5629 18.9907C14.3664 18.8985 14.3646 18.5693 14.5557 18.4699C14.6943 18.3889 14.8602 18.3975 15.0154 18.3912C14.987 18.3066 15.0059 18.1888 14.9196 18.1357C14.7882 18.08 14.6434 18.1294 14.5139 18.165C14.5162 18.0984 14.5189 18.0318 14.522 17.9657ZM14.6637 18.6291C14.6281 18.7006 14.6434 18.7968 14.7181 18.8382C14.8017 18.8746 14.9047 18.8575 14.9798 18.8081C15.0122 18.7217 15.0005 18.6273 15.0077 18.5373C14.8917 18.5508 14.7491 18.5324 14.6637 18.6291Z" fill="#00468C"/>
<path d="M15.4566 17.9343C15.5433 17.941 15.6427 17.9248 15.7106 17.9941C15.8447 17.9302 16.003 17.8988 16.1455 17.955C16.253 18.0049 16.3142 18.1218 16.3205 18.2374C16.3353 18.496 16.3214 18.755 16.3272 19.0141C16.249 19.0136 16.1707 19.0136 16.0929 19.0136C16.088 18.7555 16.1069 18.496 16.0844 18.2388C16.0416 18.0521 15.8123 18.1115 15.6868 18.1691C15.685 18.4506 15.6855 18.7321 15.6868 19.0141C15.609 19.0136 15.5321 19.0136 15.4552 19.0141C15.4574 18.6539 15.4557 18.2941 15.4566 17.9343Z" fill="#00468C"/>
<path d="M6.39815 17.9407C6.47416 17.9398 6.55016 17.9398 6.62616 17.9398C6.62661 18.1597 6.62346 18.3796 6.62526 18.5995C6.62481 18.6859 6.63965 18.7897 6.7269 18.8325C6.82944 18.8729 6.93288 18.8208 7.03002 18.7906C7.03002 18.5069 7.03002 18.2235 7.03002 17.9402C7.11007 17.9398 7.19057 17.9398 7.27107 17.9402C7.27017 18.3 7.27017 18.6593 7.27107 19.0191C7.18113 19.0137 7.08488 19.02 7.00753 18.9656C6.86677 19.0263 6.69857 19.0668 6.55511 18.9908C6.44492 18.9373 6.404 18.8064 6.3995 18.6926C6.3941 18.4421 6.40085 18.1912 6.39815 17.9407Z" fill="#00468C"/>
<path d="M17.2217 8.68257C19.4802 7.44267 21.7405 6.20547 24 4.96692C23.0092 6.57694 22.1471 8.27286 21.5274 10.0614C20.9603 11.6953 20.587 13.407 20.5317 15.1393C20.4862 16.0662 20.5663 16.9949 20.6994 17.9123C19.6556 16.3895 19.0714 14.5547 19.0624 12.7076C19.0467 11.3243 19.3475 9.93866 19.9335 8.68527C19.0296 8.68122 18.1252 8.68751 17.2217 8.68257Z" fill="#EF2E24"/>
</svg>
