<svg width="24" height="24" viewBox="0 0 24 24" fill="none" xmlns="http://www.w3.org/2000/svg">
<path d="M0 12C0 6.34904 5.38504 1.59558 12 1.59558C18.615 1.59558 24 6.34904 24 12C24 17.6177 18.6482 22.4044 12 22.4044C5.38504 22.3712 0 17.6177 0 12Z" fill="#002B59"/>
<path d="M0.830933 11.9667C0.830933 6.61495 5.81708 2.26038 11.9999 2.26038C18.1495 2.26038 23.1689 6.61495 23.1689 12C23.1689 17.385 18.1827 21.7396 11.9999 21.7396C5.81708 21.7064 0.830933 17.3518 0.830933 11.9667Z" fill="white"/>
<path d="M1.32971 11.9668C1.32971 6.84767 6.11642 2.6593 12.0001 2.6593C17.8837 2.6593 22.6704 6.81443 22.6704 11.9668C22.6704 17.0859 17.8837 21.2743 12.0001 21.2743C6.11642 21.2743 1.32971 17.1191 1.32971 11.9668Z" fill="#002B59"/>
<path d="M4.02222 11.9668C4.02222 8.14406 7.579 5.01941 12.0001 5.01941C16.4211 5.01941 19.9779 8.14406 19.9779 11.9668C19.9779 15.7895 16.4211 18.9141 12.0001 18.9141C7.579 18.9141 4.02222 15.8227 4.02222 11.9668Z" fill="#FFD200"/>
<path d="M13.629 9.07491C13.8949 9.54029 13.8949 10.1719 13.8284 10.604C13.7619 10.9697 13.5957 11.5347 13.1304 12.0666C13.2301 12.0666 13.3963 12.0001 13.6955 11.9336C14.0611 11.8339 14.2606 11.7674 14.2606 11.7674C14.2606 11.7674 14.2273 11.9004 14.1608 11.9669C14.327 12.0001 14.7924 12.0998 15.7897 11.8339C15.9891 11.8007 16.255 11.701 16.3547 11.8672C16.521 12.2328 16.0888 12.3325 16.0888 12.3325C16.0888 12.3325 16.255 12.4987 16.7869 12.2993C17.1525 12.1663 17.1193 11.8339 17.1193 11.8339L17.2855 12.0666C17.2855 12.0666 17.6511 11.568 17.086 11.2688C16.6207 11.0029 16.2218 11.2688 16.2218 11.2688C16.2218 11.2688 15.8561 11.1359 15.2578 11.0029C14.6595 10.8367 14.1276 10.4378 14.1276 10.4378C14.1276 10.4378 14.327 10.471 14.7259 10.3713C15.0916 10.2716 15.1913 10.1719 15.1913 10.1719L15.1581 10.4046C15.1581 10.4046 15.557 10.2716 16.0223 9.64001C16.2883 9.27436 16.4212 8.84223 16.4212 8.84223C16.4212 8.84223 16.521 8.87547 16.6207 8.97519C16.6872 9.07492 16.7536 9.24112 16.7536 9.24112C16.7536 9.24112 17.0528 9.00843 17.0196 8.7425C16.9863 8.41009 16.7536 8.31037 16.7536 8.31037L17.219 8.41009C17.219 8.41009 17.1858 7.81176 16.4545 7.91148C15.8229 8.0112 15.8561 8.7425 15.8561 8.7425C15.8561 8.7425 15.7232 8.97519 14.9586 9.1414C14.46 9.27436 13.762 9.10816 13.629 9.07491Z" fill="#002B59"/>
<path d="M10.3713 6.98047C10.3713 6.98047 10.1053 7.2464 10.1053 7.54557C10.0389 8.37659 10.2715 8.31011 10.471 9.10789C10.7037 10.0719 10.1053 11.0359 10.1053 11.0359C10.1053 11.0359 10.7037 11.335 11.3685 10.8364C11.8671 10.4375 11.6012 9.70623 11.6012 9.70623C11.6012 9.70623 11.9004 10.0054 11.8339 10.4708C11.7009 11.0026 11.4017 11.2353 11.4017 11.2353C11.4017 11.2353 12.1663 11.2353 12.5652 10.6702C12.8976 10.1716 12.5984 9.54002 12.5984 9.54002C12.5984 9.54002 12.7979 9.54003 12.9308 9.97216C13.0638 10.4043 12.7979 10.8697 12.7979 10.8697C12.7979 10.8697 13.3962 10.7035 13.5624 10.1384C13.6289 9.87244 13.6289 9.63975 13.5624 9.47354C13.1635 8.5428 11.9003 8.97493 11.4017 8.07742C11.2688 7.81149 11.2023 7.61205 11.2023 7.34612C10.8699 7.34612 10.5707 7.21316 10.3713 6.98047Z" fill="#002B59"/>
<path d="M9.93926 9.30757C10.3714 9.90591 10.039 10.8034 9.37416 11.2023C8.70934 11.6344 7.9448 11.9004 7.2135 12.1995C6.14979 12.6317 6.0833 14.327 7.57915 13.6954C7.84508 13.5957 8.21073 13.363 8.47666 13.1635V13.097C8.47666 13.097 8.5099 12.8311 8.84231 12.5984C9.60685 12.0666 9.64009 12.3657 9.9725 12.0001C10.2052 11.7342 10.2717 11.3685 10.2717 11.3685C10.4046 11.4018 10.8368 11.435 11.1692 11.2688L10.9697 11.5347C10.9697 11.5347 11.4683 11.5347 11.8672 11.435C12.0334 11.4018 12.2329 11.302 12.4323 11.1691L12.3659 11.3353C12.3659 11.3353 12.8645 11.1691 13.1304 10.9696C13.2634 10.8699 13.4296 10.7702 13.5293 10.6372C13.4628 11.0693 13.2634 11.6344 12.7647 12.0998C12.0334 12.7979 10.6041 12.7979 10.6041 12.7979C10.6041 12.7979 11.3354 13.2633 11.4683 14.1275C11.5681 14.6261 11.2689 15.158 10.6373 15.2577C9.9725 15.3574 9.10823 15.291 9.10823 15.291C9.10823 15.291 8.74258 15.6566 9.14148 16.1552C9.54037 16.6206 10.1719 16.7868 10.1719 16.7868C10.1719 16.7868 11.0695 16.6206 11.4019 17.086C11.5681 17.3519 11.4351 17.6178 11.4351 17.6178C11.4351 17.6178 11.2024 17.4184 10.9697 17.3851C10.7038 17.5181 10.6706 17.5513 10.4046 17.6178C10.039 17.6843 9.90602 17.5846 9.90602 17.5846C9.90602 17.5846 10.2052 17.3519 10.039 17.2854C10.0722 17.2854 9.00851 17.0527 8.21073 16.4544C7.64563 16.0223 7.51267 15.7563 7.51267 15.7563L7.71211 15.6898C7.71211 15.6898 7.41294 15.4572 7.34646 15.2245C7.27998 15.025 7.34646 14.9918 7.34646 14.9918C7.34646 14.9918 7.67887 15.0583 8.111 14.9585C8.57638 14.8588 8.84231 14.4932 8.84231 14.4932C8.84231 14.4932 8.80907 14.4599 8.64286 14.1608C8.47666 13.8616 8.57638 13.6621 8.57638 13.6621C7.87832 14.1275 6.74812 14.7591 6.18303 13.7951C5.75089 13.0306 6.41571 12.1331 7.08053 11.8339C7.64563 11.6012 8.94203 11.1358 9.37416 10.7369C9.70657 10.4045 9.83954 9.87267 9.57361 9.54026C9.57361 9.54026 8.97527 10.1054 8.34369 10.0389C7.81184 10.0056 7.47943 9.54026 7.47943 9.54026L7.64563 9.50702C7.64563 9.50702 7.47942 9.4073 7.41294 9.24109C7.34646 9.07489 7.41294 8.80896 7.41294 8.80896C7.41294 8.80896 7.7786 9.20785 8.14425 9.14137C8.6761 9.04165 8.80907 8.70924 9.37416 8.87544C9.57361 8.94192 9.77305 9.07489 9.93926 9.30757Z" fill="#002B59"/>
<path d="M12.5319 6.84775L12.2992 7.0472C12.2992 7.0472 12.266 7.0472 12.1662 6.91424C12.0997 6.81451 11.9668 6.74803 11.9668 6.74803C11.9668 6.74803 12.0665 6.78127 12.266 6.81451C12.4654 6.84775 12.5319 6.84775 12.5319 6.84775ZM13.4626 6.74803C13.097 6.61507 12.8975 6.61507 12.8975 6.61507C12.8975 6.61507 12.7313 6.41562 12.1995 6.34914C11.6676 6.28266 11.3352 6.4821 11.3352 6.4821C11.3352 6.4821 11.0693 6.41562 10.8366 6.41562C10.4709 6.44886 10.3712 6.58183 10.3712 6.58183C10.3712 6.58183 10.5374 6.91424 10.8366 7.01396C11.2022 7.11368 11.4349 7.08044 11.4349 7.08044C11.4349 7.08044 11.2687 7.47933 11.5347 7.94471C11.7673 8.31036 12.1662 8.37684 12.5319 8.41008C12.6981 8.44332 12.7313 8.60953 12.8975 8.60953C12.964 8.60953 13.0305 8.54304 13.1635 8.41008C13.2964 8.27712 13.3961 8.11091 13.3961 8.11091L13.3629 8.04443C13.3629 8.04443 13.1302 8.17739 12.8311 8.11091C12.4654 8.04443 12.266 7.64554 12.266 7.64554C12.266 7.64554 12.4322 7.54581 12.6981 7.51257C12.9308 7.51257 13.1302 7.6123 13.1302 7.6123C13.1302 7.6123 13.1302 7.67878 13.1302 7.74526C13.097 7.81174 13.0637 7.84498 13.0637 7.84498L13.097 7.91147C13.097 7.91147 13.4294 7.71202 13.6621 7.27989C13.928 6.88099 13.6953 6.81451 13.4626 6.74803Z" fill="#002B59"/>
<path d="M11.202 12.9307C11.202 12.9307 11.4015 12.964 11.6342 13.4958C11.8004 13.8615 11.7671 14.1939 11.7671 14.1939C11.7671 14.1939 12.2657 14.0277 12.4319 14.4931C12.6646 15.0582 11.7671 15.3241 11.7671 15.3241C11.7671 15.3241 11.9333 15.9224 12.8308 16.4543C13.6951 16.9529 14.0608 16.9197 14.0608 16.9197C14.0608 16.9197 14.227 16.687 14.5594 16.7867C14.8585 16.8532 14.5926 17.2188 14.5926 17.2188C14.5926 17.2188 14.8253 17.3185 15.1909 17.1523C15.4569 17.0526 15.4569 16.9529 15.4569 16.9529C15.4569 16.9529 15.5566 16.9529 15.6896 16.9861C15.7893 17.0194 15.9222 17.1191 15.9222 17.1191C15.9222 17.1191 15.9887 16.687 15.5898 16.3878C14.9915 15.9889 14.3599 16.1884 14.2602 16.1884C13.6951 16.0222 13.2297 15.3573 13.2297 15.3573C13.2297 15.3573 13.8281 15.0582 14.1272 14.2936C14.227 14.0277 14.6259 12.7313 12.997 12.6648C12.0331 12.6316 11.202 12.9307 11.202 12.9307Z" fill="#002B59"/>
</svg>
