<svg width="24" height="24" viewBox="0 0 24 24" fill="none" xmlns="http://www.w3.org/2000/svg">
<g clip-path="url(#clip0_45_4178)">
<path fill-rule="evenodd" clip-rule="evenodd" d="M12.4903 16.6063V18.4497H18.4715V12.9186H14.7928V11.0747H18.4715V5.53737H12.4903V7.38247H16.6255V9.23048H12.9393V14.7629H16.6255V16.6063H12.4903ZM1.85769 11.999C1.85769 6.40036 6.39842 1.85468 11.999 1.85468C17.5983 1.85468 22.1398 6.40036 22.1398 11.999C22.1398 17.5996 17.5983 22.142 11.999 22.142C6.39842 22.142 1.85769 17.5996 1.85769 11.999ZM0 11.999C0 5.36952 5.36859 0 11.999 0C18.6277 0 24 5.36952 24 11.999C24 18.6284 18.6277 24 11.999 24C5.36859 24 0 18.6284 0 11.999ZM11.56 7.37747V5.53321H5.57139V11.0672H9.24096V12.9132H5.57139V18.4464H11.56V16.6021H7.4145V14.7587H11.1003V9.22132H7.4145V7.37747" fill="#CB0202"/>
</g>
<defs>
<clipPath id="clip0_45_4178">
<rect width="24" height="24" fill="white"/>
</clipPath>
</defs>
</svg>
