<svg width="24" height="24" viewBox="0 0 24 24" fill="none" xmlns="http://www.w3.org/2000/svg">
<g clip-path="url(#clip0_45_4179)">
<path d="M5.83897 0.66593C5.19086 0.98954 4.708 1.5463 4.47974 2.23375L0.140575 15.275C-0.0893524 15.9604 -0.0357879 16.6977 0.290711 17.3486C0.614765 17.9924 1.17219 18.4763 1.85719 18.7054L16.0876 23.4832C16.7776 23.7121 17.5141 23.66 18.1614 23.335C18.8095 23.0078 19.2933 22.4538 19.5187 21.7646L23.8598 8.72705C24.3352 7.30693 23.5621 5.766 22.1421 5.29292L7.91309 0.516683C7.22176 0.288756 6.48997 0.338431 5.83897 0.66593Z" fill="white"/>
<path d="M12.7949 13.1909C12.022 14.0531 11.0583 14.749 9.94113 15.1805L9.29902 15.4292V9.38689L9.93335 9.63282C11.0521 10.0599 12.0183 10.7558 12.7949 11.6143C13.3478 10.7244 13.6913 9.69227 13.7615 8.56953C13.9374 5.67271 12.1232 3.01471 9.63097 2.08956L7.57529 1.40555C6.64747 1.09639 5.65997 1.60825 5.35381 2.5333L1.00209 15.5819C0.693145 16.5107 1.21356 17.5185 2.1425 17.8237L12.0183 21.1211C13.0251 20.0506 13.6783 18.6319 13.7735 17.0496C13.8609 15.6376 13.4928 14.3063 12.7949 13.1909ZM7.08654 15.8014H6.10605V9.02683H7.08654V15.8014Z" fill="#0099DA"/>
<path d="M12.2253 12.4026C11.6739 11.7561 11.0074 11.2129 10.2378 10.8152V13.9995C11.0074 13.6008 11.6776 13.0511 12.2253 12.4026Z" fill="#F15C21"/>
<path d="M21.8266 6.16372L12.7635 3.13477C13.9809 4.46743 14.7257 6.23784 14.7292 8.17672C14.7311 9.70953 14.2532 11.1756 13.4217 12.4026C14.2564 13.6261 14.737 15.0911 14.7412 16.6237C14.7418 18.4545 14.0839 20.1413 12.9885 21.4472L16.3919 22.5831C17.3228 22.8926 18.3054 22.3809 18.6149 21.453L22.9688 8.40564C23.277 7.47838 22.756 6.47177 21.8266 6.16372ZM19.4256 15.7798L18.2012 15.7831L15.6827 12.3953L18.2409 9.00841L19.4758 9.00352L16.9117 12.4002L19.4256 15.7798Z" fill="#0055A2"/>
</g>
<defs>
<clipPath id="clip0_45_4179">
<rect width="24" height="24" fill="white"/>
</clipPath>
</defs>
</svg>
