<svg width="24" height="24" viewBox="0 0 24 24" fill="none" xmlns="http://www.w3.org/2000/svg">
<path d="M15.7082 14.02C15.6524 13.6871 15.5629 13.3648 15.4282 13.0665C15.0067 12.1562 14.4188 11.3931 13.5412 10.8783C12.1719 10.0816 10.5188 10.0854 9.1649 10.9081C8.55195 11.2776 8.04773 11.8098 7.72346 12.4506C7.61376 12.6671 7.52331 12.8942 7.45114 13.1271C7.09414 14.2606 7.10665 15.7848 7.74944 16.8202C7.95921 17.157 8.26328 17.4476 8.63182 17.589C9.00421 17.7324 9.44396 17.716 9.77882 17.5015C10.2089 17.2234 10.2859 16.6922 10.2051 16.2207C10.1041 15.6183 10.0261 15.0246 10.2484 14.4348C10.3186 14.2471 10.4197 14.0653 10.564 13.9267C10.6525 13.842 10.7574 13.7737 10.8671 13.7198C11.1009 13.6053 11.3665 13.5553 11.6235 13.5967C12.0719 13.6679 12.4385 14.0162 12.6377 14.4242C12.8349 14.8322 12.8898 15.2931 12.9119 15.7482C13.0052 17.7228 12.5337 19.7685 12.0305 21.6651C11.9785 21.8614 11.9246 22.0558 11.8698 22.2511C11.8274 22.4012 11.7505 22.5927 11.8457 22.738C11.8871 22.7996 11.9516 22.8448 12.0209 22.8727C12.3143 22.9911 12.5539 22.8112 12.7502 22.6129C13.9088 21.4476 14.6497 19.9446 15.1578 18.3992C15.3474 17.8209 15.51 17.2359 15.6197 16.6364C15.7698 15.8185 15.8545 14.8822 15.7082 14.02Z" fill="#009591"/>
<path d="M24 4.88982C24 4.59345 23.7373 4.39811 23.4563 4.40773C23.1696 4.41736 22.904 4.56458 22.6413 4.66465C17.5462 6.6007 11.8006 6.96828 6.43126 6.19559C5.51327 6.0628 4.58181 5.87709 3.65806 5.73371C3.08167 5.64422 2.51105 5.51143 1.92793 5.47006C1.43045 5.4306 0.811721 5.41232 0.409501 5.75873C-0.119736 6.2158 -0.0822079 7.08182 0.218014 7.65532C0.578857 8.34333 1.21009 8.85814 1.86827 9.25073C2.5072 9.63082 3.26834 10.0369 4.02852 9.98878C6.081 9.85695 8.1277 9.65777 10.1667 9.39411C13.6443 8.94281 17.2912 8.51654 20.5571 7.1665C21.6252 6.72579 22.6808 6.17635 23.5949 5.46525C23.7614 5.33823 24 5.13135 24 4.88982Z" fill="#009591"/>
<path d="M9.38867 3.14299C9.38867 4.25054 10.2865 5.14832 11.393 5.14832C12.4996 5.14832 13.3974 4.25054 13.3974 3.14299C13.3974 2.97941 13.3589 2.81294 13.2896 2.66379C13.1164 2.2991 12.923 2.123 12.9432 1.68518C12.9682 1.09821 12.2148 1.08955 11.8078 1.08955C11.3651 1.08955 10.8936 1.15209 10.4933 1.35224C10.1748 1.51294 9.90059 1.76024 9.70718 2.05853C9.50799 2.36742 9.39733 2.73018 9.38867 3.09776V3.14299Z" fill="#ED1651"/>
</svg>
