<svg width="24" height="24" viewBox="0 0 24 24" fill="none" xmlns="http://www.w3.org/2000/svg">
<g clip-path="url(#clip0_45_4189)">
<rect width="24" height="24" fill="#776C61"/>
<path d="M22.6457 12.2063L22.4556 12.085C21.8067 11.4374 20.9032 11.1568 19.6952 11.2274C18.6895 11.2889 17.8917 11.6878 17.2827 12.0581C17.2827 12.049 17.2818 12.0399 17.2818 12.0308C17.2818 11.7155 17.3173 11.3742 17.3528 11.0424C17.3875 10.7055 17.4239 10.3624 17.4239 10.038C17.4239 9.70666 17.3866 9.39264 17.2723 9.1241C17.2437 9.05523 17.18 9.01408 17.0999 9.01408C16.775 9.02145 16.1405 9.24364 15.9867 9.37878C15.9867 9.37965 15.9032 9.562 15.9032 9.562C15.898 9.92193 15.8187 10.9264 15.7381 11.0485C15.7416 11.0442 15.6957 11.1698 15.6957 11.1698C15.5588 12.6047 15.5562 13.8664 15.6823 14.9497C15.6965 15.058 15.9058 15.2204 16.0664 15.2793C16.2432 15.3447 16.7958 15.1966 17.1146 15.077C17.1103 15.0783 17.2337 15.058 17.2337 15.058C17.3342 15.0472 17.3936 14.9623 17.3892 14.8475C17.3875 14.8449 17.397 14.5356 17.397 14.5356C17.627 13.6009 18.5578 12.4852 19.6593 12.3176C20.2821 12.2188 20.7733 12.3791 21.1618 12.8018C21.2142 12.878 21.3277 13.5507 20.9175 14.3238C20.6121 14.896 20.0014 15.3789 19.1975 15.68C18.437 15.9693 17.6002 16.0858 16.5667 16.0503C16.5234 16.0226 15.5991 15.3958 15.5991 15.3958C14.7792 14.8202 13.7609 14.1042 12.8379 13.7538C12.6755 13.6915 12.3853 13.4502 12.2103 13.3055L12.1146 13.2271C11.5822 12.8005 10.5692 12.1244 9.7553 11.583C9.7553 11.583 9.388 11.3365 9.31697 11.2889C9.31784 11.2586 9.31784 11.1971 9.31784 11.1971C9.34166 11.1711 9.85319 10.8644 9.85319 10.8644C10.5687 10.4456 10.8996 10.2403 10.9698 10.1342C10.9555 10.1515 11.0647 10.0783 11.0647 10.0783C11.0716 10.0753 12.8396 9.07429 12.8396 9.07429C14.5436 8.13873 16.4732 7.07626 17.4867 6.02678C17.4884 6.02548 17.5365 5.86609 17.5365 5.86609L17.5573 5.72316C17.6248 5.49836 17.6283 5.32684 17.5716 5.12717C17.5573 5.07 17.5049 5.00416 17.4347 4.9916C16.6429 4.91234 15.6225 5.38705 14.693 6.25894C14.4834 6.45515 14.3071 6.55174 14.1213 6.65266L13.9788 6.73235C12.9544 7.31491 10.6467 8.74728 9.43781 9.52041C9.51751 8.22102 9.75747 6.37285 10.0537 4.83221L10.0208 4.64813C10.0173 4.64207 9.89563 4.41511 9.89563 4.41511L9.80121 4.24835L9.77392 4.24099C9.53267 4.11928 9.3356 4.16865 9.19093 4.2046L8.94968 4.29383L8.62743 4.41077C8.56419 4.42333 8.51915 4.46275 8.49446 4.52425C7.91753 5.91893 7.43632 8.21279 7.32197 10.048C6.16898 9.31468 5.10304 8.78712 4.58026 8.53244L4.56596 8.52421L4.50403 8.51079C4.31605 8.48653 4.08692 8.34836 3.86689 8.21496C3.84307 8.20067 3.4277 7.93039 3.4277 7.93039L2.75808 7.50116C2.76284 7.50549 2.58093 7.46088 2.58093 7.46088C2.29333 7.51069 1.74109 7.88188 1.57693 8.13483C1.55571 8.16861 1.54661 8.20456 1.54661 8.24225C1.54661 8.29595 1.5635 8.34923 1.57693 8.40164L1.60638 8.53807L1.63757 8.61994C1.95895 8.94912 2.76934 9.49746 3.5637 9.92496L4.48497 10.4131L5.89524 11.1832C5.89524 11.1897 6.13563 11.3742 6.13563 11.3742L6.30152 11.4695C6.30152 11.4695 6.32101 11.4808 6.33184 11.4881C5.95631 11.7398 3.76684 13.2012 3.76684 13.2012L2.4185 14.0947C2.29073 14.1813 1.75884 14.4196 1.64103 14.4668C1.3491 14.5859 1.12734 14.7687 1.03638 14.967L1 15.0454L1.03638 15.097L1.13947 15.1754C1.13427 15.1754 1.2772 15.2655 1.2772 15.2655L1.4262 15.3672C1.42967 15.3685 1.56653 15.3898 1.56653 15.3898C1.80346 15.3989 2.15429 15.2637 2.81092 14.9761C3.41427 14.7093 5.05194 13.7209 5.75231 13.299L6.05073 13.1202C6.17418 13.1301 6.30975 13.0257 6.43146 12.9343C6.57179 12.8222 6.87715 12.6346 7.06339 12.5523C7.06946 12.5506 7.17514 12.4913 7.27563 12.4354C7.27476 12.4661 7.27389 12.5155 7.27389 12.5155C7.30508 14.6578 7.42766 16.2149 7.66198 17.4155L7.66544 17.4359L7.6884 17.4844C7.80361 17.6533 7.93442 18.1614 8.05136 18.6088L8.31774 19.5028C8.3238 19.5136 8.3931 19.5868 8.3931 19.5868C8.54557 19.6903 9.00988 19.8683 9.31957 19.8315L9.39667 19.8224L9.44604 19.7133C9.47247 19.5794 9.48156 19.4482 9.48156 19.3035C9.48156 19.1402 9.46987 18.9605 9.45514 18.7396L9.43392 18.4173C9.3356 16.9222 9.23771 14.763 9.23771 13.3276C9.23771 13.2873 9.23771 13.251 9.23771 13.2133C9.49239 13.3722 10.6029 14.0726 10.6029 14.0726C12.4944 15.2997 15.3513 17.153 17.0778 17.6429C17.1675 17.6702 17.2623 17.6494 17.3282 17.5857C17.3308 17.5823 17.5937 17.4151 17.5937 17.4151L17.6435 17.3947C17.7427 17.3475 17.8085 17.1808 17.8202 16.9997C19.2751 16.9265 21.3047 16.366 22.391 15.0008C22.8116 14.4711 23 13.8231 23 13.2683C23.0009 12.8144 22.8748 12.422 22.6457 12.2063Z" fill="#FCAF16"/>
</g>
<defs>
<clipPath id="clip0_45_4189">
<rect width="24" height="24" fill="white"/>
</clipPath>
</defs>
</svg>
