<svg width="24" height="24" viewBox="0 0 24 24" fill="none" xmlns="http://www.w3.org/2000/svg">
<g clip-path="url(#clip0_45_4215)">
<path fill-rule="evenodd" clip-rule="evenodd" d="M24 11.9996C24 18.6264 18.6276 24 11.9987 24C5.37241 24 0 18.6264 0 11.9996C0 5.37212 5.37241 0 11.9987 0C18.6276 0 24 5.37212 24 11.9996Z" fill="#01A6E6"/>
<path fill-rule="evenodd" clip-rule="evenodd" d="M20.3544 7.81532C20.3544 7.81532 20.9505 7.77204 20.2944 7.10015C20.2944 7.10015 19.2038 5.91828 17.1117 5.02337C15.9904 4.54349 14.7296 4.74329 14.8474 5.9033C14.9304 6.71793 14.1092 7.02916 13.4628 6.95457C12.7039 6.8668 12.2479 6.29181 12.3679 5.81853C12.4963 5.31378 12.7841 4.92242 13.2104 4.61868C13.4993 4.41244 13.7009 4.26701 14.2277 4.16606C14.5477 4.10465 14.9673 4.0091 15.0794 4.34519C15.2993 4.2378 15.689 3.56322 14.4227 3.55108C14.4227 3.55108 14.2332 3.17245 13.8074 3.25138C13.8074 3.25138 12.5475 2.1095 11.1467 3.52353C11.1467 3.52353 10.5967 3.72452 10.5665 3.53042C10.6911 3.62163 10.8944 3.34484 10.6167 3.24959C10.4862 3.20451 10.3344 3.33107 10.3108 3.45373C10.2921 3.54869 10.3218 3.75733 10.5995 3.79732C10.6727 3.8078 10.8046 3.79732 10.8046 3.79732L10.7127 3.89766C10.2941 4.06376 9.88692 3.93511 9.81104 3.65952C9.9091 3.71209 10.0158 3.64664 10.0502 3.54524C10.0846 3.44295 10.0042 3.30066 9.84146 3.2788C9.61452 3.24749 9.5067 3.49237 9.55531 3.7076C9.62974 4.0386 9.99037 4.2742 10.4516 4.21728L10.3716 4.32857C10.3716 4.32857 9.90922 4.86446 9.5315 5.47329C9.1473 6.09186 7.58268 6.77409 7.85046 5.30076C7.93581 4.83241 7.09057 4.2709 5.6225 5.2052C4.83828 5.70455 3.87539 6.45312 3.16273 7.66525C3.16273 7.66525 2.84206 8.12865 3.36903 8.14318C3.36903 8.14318 2.16439 9.34093 2.30702 10.7669C2.30702 10.7669 2.41428 11.159 2.69937 10.9098C2.69937 10.9098 2.236 12.1573 2.52105 13.2268C2.52105 13.2268 2.66362 13.833 3.02028 13.512C3.02028 13.512 3.33972 15.026 4.01803 16.2926C4.55302 17.291 5.55111 18.7529 5.15912 19.1097C4.77053 19.4625 4.22198 18.7596 4.30776 19.0428C4.48912 19.6417 5.15445 19.7294 5.51532 19.4659C6.44251 18.7886 5.07711 17.1564 4.66007 15.0809C4.66007 15.0809 4.94493 15.0452 4.82916 14.3719C4.82916 14.3719 5.51532 14.6172 5.39514 13.2693C5.39514 13.2693 6.12149 13.6549 6.12149 12.7279C6.12149 12.7279 6.87002 12.906 7.01253 11.9078C7.01253 11.9078 8.23414 12.0851 8.50993 11.4086C8.50993 11.4086 8.83066 11.8007 9.43197 11.1727C9.58128 11.6016 9.88482 11.9884 10.2822 12.3157C10.2822 12.3157 10.2032 12.9183 9.48768 13.1271C9.48768 13.1271 8.61314 12.7835 7.66868 13.1271C6.79805 13.4434 7.14797 14.3109 7.7799 14.1034C7.58835 14.0078 7.53259 13.721 7.84208 13.6592C8.15118 13.8944 8.48535 13.7583 8.6463 13.5481C8.6463 13.5481 9.26541 13.9808 9.67373 13.5356C9.87165 13.5477 9.99451 13.826 9.72281 13.956C10.2508 14.0621 10.4409 13.5481 10.2226 13.2693C10.2226 13.2693 10.3461 13.1946 10.4862 13.0865C10.4862 13.0865 10.6514 12.9373 10.7752 12.7626C10.7752 12.7626 11.295 13.1433 12.2582 13.3568C12.2582 13.3568 11.7551 14.1292 11.0102 14.278C11.0102 14.278 9.95309 13.9588 9.23962 14.3719C9.23962 14.3719 8.8554 14.5575 8.91515 14.9516C8.9599 15.2474 9.21375 15.4537 9.59604 15.4057C9.44081 15.3345 9.0975 14.9763 9.53384 14.8224C9.82209 15.2436 10.5878 14.9401 10.6696 14.8194C10.8162 14.9679 11.4576 14.9076 11.543 14.6856C11.7483 14.6516 12.0475 14.7453 11.9364 15.113C12.1847 15.0792 12.5864 14.6599 11.9963 14.3266C11.9963 14.3266 12.3467 14.1667 12.6276 13.9338L13.0534 13.5374C13.0534 13.5374 13.563 13.3442 13.5541 13.9296C13.9527 13.8826 14.2834 14.2216 14.2031 14.5935C14.2031 14.5935 14.0304 15.0193 13.4113 14.9088C12.7924 14.7979 12.8038 15.2964 13.2622 15.3257C12.9591 15.4105 12.7552 15.9489 13.7686 15.9513C13.7686 15.9513 13.9924 17.1743 12.6315 17.0506C12.4702 17.0134 12.495 16.8648 12.5137 16.7472C12.7361 16.6731 12.7612 16.4503 12.6561 16.3448C12.543 16.2323 12.2953 16.1757 12.1056 16.3758C11.9883 16.4999 11.9459 16.7413 11.9823 16.9832C11.7597 16.9229 11.641 16.8297 11.641 16.6541C11.901 16.5431 11.7156 16.0789 11.2889 16.246C11.1159 16.3137 10.9886 16.5206 11.0659 16.8585C11.1698 17.313 11.792 17.5106 12.2896 17.5674C12.5872 17.8296 13.0392 18.1075 14.096 17.9484C14.096 17.9484 13.6274 20.2191 10.5153 20.12C10.5153 20.12 9.30589 19.6899 9.67373 18.7524C9.74668 18.5658 9.9985 18.2395 10.2522 18.2464C10.2522 18.2464 10.676 18.3859 10.676 18.028C10.676 18.028 10.6425 17.7671 10.3716 17.7398C10.1004 17.7126 9.4507 17.7684 9.15356 18.585C9.02027 18.9522 9.04836 19.5516 9.41168 19.9663C8.23548 19.6774 7.34946 18.852 7.70577 17.7313C7.89819 17.1268 8.76378 16.5431 9.4507 16.9515C9.43245 17.2299 9.56222 17.4529 9.87779 17.4529C10.1434 17.4529 10.2862 17.2114 10.2304 16.9146C10.1805 16.6487 9.80214 16.2811 9.15356 16.246C8.46687 16.2088 7.18869 16.5961 7.09327 18.028C7.00522 19.3544 7.91148 20.3101 10.1636 20.6062L10.1928 20.6304C10.1928 20.6304 11.5634 21.5252 13.5008 21.0478C13.5008 21.0478 17.4041 20.3027 16.5696 16.1902C16.5696 16.1902 17.5244 13.5037 15.4608 11.9432C15.4608 11.9432 15.4134 11.5601 15.7104 11.8721C15.8873 12.1068 16.6015 12.2286 16.6015 11.7298C16.6015 11.7298 17.2793 12.3355 17.5236 11.7195C17.5236 11.7195 17.7778 12.4427 18.298 11.9579C18.298 11.9579 18.1697 12.5139 18.4194 12.8348C18.6691 13.1556 19.1328 13.0606 19.1328 13.0606C19.1328 13.0606 18.4194 14.9739 19.2751 15.0452C19.2751 15.0452 17.1363 19.3234 18.3749 19.8645C18.8048 20.0524 19.3071 19.9606 19.5626 19.4561C19.774 19.038 19.0971 19.858 18.705 19.5017C18.238 19.0775 18.8123 18.04 19.382 16.9704C20.1671 15.4978 20.7017 14.4146 20.808 13.6905C20.808 13.6905 21.2753 13.9972 21.4181 12.8919C21.532 12.0079 21.3966 11.3928 21.3068 10.7669C21.3068 10.7669 21.9128 11.159 21.6158 9.77318C21.6158 9.77318 21.3974 8.76909 20.3544 7.81532ZM12.8069 3.35967C12.8502 3.36536 12.8912 3.3766 12.9299 3.39142C12.9375 3.4043 12.9419 3.41868 12.9419 3.43471C12.9419 3.48354 12.9025 3.52383 12.8533 3.52383C12.8047 3.52383 12.7647 3.48354 12.7647 3.43471C12.7647 3.40281 12.7819 3.3757 12.8069 3.35967ZM12.6444 3.36746C12.6441 3.36971 12.6429 3.37196 12.6429 3.3742C12.629 3.49357 12.714 3.60156 12.8333 3.61564C12.9389 3.62792 13.0356 3.56217 13.0657 3.46317C13.1261 3.50346 13.1773 3.54839 13.2174 3.58374C12.9871 3.58703 12.9493 3.69472 12.7507 3.65757C12.6499 3.6387 12.543 3.53341 12.5372 3.40161C12.579 3.38274 12.5926 3.37794 12.6444 3.36746ZM15.7669 17.1235C15.7669 17.1235 15.8803 16.9368 15.9403 17.205C15.9403 17.205 16.0605 18.6502 15.1373 19.5335C14.5215 20.1222 13.1029 20.9642 11.4938 20.5967C11.4938 20.5967 14.0619 20.4326 14.718 18.0783L14.7902 17.8131C14.7902 17.8131 15.4373 17.6645 15.7669 17.1235Z" fill="white"/>
</g>
<defs>
<clipPath id="clip0_45_4215">
<rect width="24" height="24" fill="white"/>
</clipPath>
</defs>
</svg>
