<svg width="24" height="24" viewBox="0 0 24 24" fill="none" xmlns="http://www.w3.org/2000/svg">
<path d="M22.68 9.57005C22.44 7.23005 22.32 4.89005 22.14 2.55005H16.32C15.36 4.89005 14.46 7.23005 13.44 9.57005L12.12 12.69L10.74 9.57005C9.72 7.23005 8.7 4.89005 7.8 2.55005H0.18V3.15005C0.54 3.15005 0.96 3.33005 1.26 3.63005C1.56 3.93005 1.74 4.35005 1.74 4.71005C1.56 6.33005 1.5 7.89005 1.38 9.51005L0.9 14.43C0.6 16.83 0.3 19.11 0 21.45H2.4C2.58 19.11 2.7 16.77 2.94 14.43L3.72 7.05005C4.8 9.33005 5.82 11.61 6.84 13.83L7.08 14.43C8.1 16.77 9.12 19.11 10.02 21.45H10.74C11.7 19.11 12.6 16.77 13.62 14.43L14.1 13.41L17.1 6.63005L17.88 14.37C18.12 16.71 18.24 19.05 18.42 21.39H24C23.7 19.05 23.4 16.71 23.16 14.37C23.16 14.49 22.68 9.57005 22.68 9.57005Z" fill="#1B3281"/>
</svg>
