<svg width="24" height="24" viewBox="0 0 24 24" fill="none" xmlns="http://www.w3.org/2000/svg">
<path d="M15.5644 11.9999C15.5644 13.9455 13.9752 15.5494 11.9852 15.5494C10.0396 15.5494 8.4802 13.9603 8.4802 11.9999C8.4802 10.0098 10.0396 8.42072 11.9852 8.42072C13.9752 8.42072 15.5644 10.0098 15.5644 11.9999ZM11.9852 19.7227C7.76733 19.7227 4.29208 16.2475 4.29208 11.9851C4.29208 7.693 7.76733 4.21775 11.9852 4.21775C16.2772 4.21775 19.7228 7.693 19.7228 11.9851C19.7079 16.2475 16.2772 19.7227 11.9852 19.7227ZM15.4901 3.41577C14.2426 3.41577 13.0842 3.66825 11.9852 4.12864C10.9604 3.66825 9.75743 3.41577 8.5396 3.41577C3.78713 3.41577 0 7.21775 0 11.9999C0 16.7227 3.80198 20.5841 8.5396 20.5841C9.74257 20.5841 10.9455 20.3019 11.9852 19.8415C13.0842 20.3019 14.2574 20.5841 15.4901 20.5841C20.2129 20.5841 24 16.7227 24 11.9999C24 7.21775 20.2129 3.41577 15.4901 3.41577Z" fill="#E60000"/>
</svg>
