<svg width="24" height="24" viewBox="0 0 24 24" fill="none" xmlns="http://www.w3.org/2000/svg">
<g clip-path="url(#clip0_45_4200)">
<path d="M23.8269 13.5031C23.9326 12.8804 24 12.242 24 11.5935C24 11.0169 23.9416 10.4515 23.8629 9.8963H19.3221C19.9369 9.28824 21.3734 7.83834 22.8075 6.40754C22.2916 5.33079 21.6184 4.34059 20.8237 3.47739L13.9238 10.383C13.5922 10.71 13.4113 11.1169 13.4113 11.5935C13.4113 12.0588 13.5922 12.5252 13.9249 12.8489L20.8013 19.7332C21.6015 18.8711 22.2725 17.882 22.7918 16.8064C21.4374 15.4632 19.9088 14.0853 19.3221 13.5031H23.8269Z" fill="#00295B"/>
<path d="M10.6011 11.5932C10.6011 11.1167 10.4179 10.7098 10.0808 10.3827L3.17742 3.47715C2.38054 4.34709 1.70954 5.33055 1.19364 6.4073C2.63006 7.84484 4.06984 9.28238 4.68352 9.89718H0.135999C0.058446 10.4513 0 11.0166 0 11.5932C0 12.2417 0.0685619 12.8813 0.168594 13.5028H4.68352C4.10131 14.0862 2.56374 15.4585 1.20938 16.8061C1.73202 17.8818 2.39964 18.8686 3.20215 19.7329L10.0808 12.8498C10.4134 12.525 10.6011 12.0585 10.6011 11.5932Z" fill="#00295B"/>
<path d="M12 13.0204C11.5324 13.0204 11.0929 13.2014 10.7636 13.5341L3.89062 20.4082C4.75045 21.2062 5.73616 21.8817 6.81291 22.3987C8.24033 20.9701 9.66776 19.5472 10.2736 18.938V23.4496C10.8367 23.535 11.411 23.5901 12 23.5901C12.6429 23.5901 13.2667 23.5226 13.877 23.4294V18.938C14.4625 19.5158 15.8383 21.0511 17.1791 22.3987C18.2604 21.8828 19.2405 21.2062 20.1082 20.4082L13.2251 13.5386C12.8991 13.2014 12.4698 13.0204 12 13.0204Z" fill="#00295B"/>
<path d="M12 10.2217C12.4811 10.2217 12.9262 10.0306 13.2555 9.6878L20.1464 2.80245C19.2653 1.98758 18.2627 1.30197 17.1635 0.77259C16.1575 1.78302 14.6773 3.36893 13.8602 4.18379V2.209C13.8602 1.21206 13.0172 0.409552 12.0056 0.409552C10.9941 0.409552 10.2556 1.19857 10.2444 2.18428V4.18379C9.30702 3.25428 7.77844 1.72233 6.83657 0.77259C5.73959 1.30197 4.73477 1.98758 3.85022 2.80245L10.7434 9.69567C11.0784 10.0306 11.5235 10.2217 12 10.2217Z" fill="#C60751"/>
</g>
<defs>
<clipPath id="clip0_45_4200">
<rect width="24" height="24" fill="white"/>
</clipPath>
</defs>
</svg>
