<svg width="24" height="24" viewBox="0 0 24 24" fill="none" xmlns="http://www.w3.org/2000/svg">
<g clip-path="url(#clip0_45_4214)">
<path d="M21.3702 4.66284C21.9327 5.39986 22.4089 6.20056 22.7891 7.04888L12.0029 15.107L7.49512 12.2432V8.79788L12.0029 11.6617L21.3702 4.66284Z" fill="#21A038"/>
<path d="M2.89453 11.9999C2.89453 11.8453 2.89825 11.6917 2.90569 11.539L0.173814 11.4033C0.164515 11.6012 0.158939 11.801 0.158939 12.0026C0.157777 13.5781 0.463552 15.1383 1.05873 16.5937C1.65391 18.0491 2.52677 19.3711 3.62724 20.4838L5.56503 18.5209C4.71792 17.6659 4.04591 16.6496 3.58761 15.5305C3.12932 14.4114 2.89378 13.2115 2.89453 11.9999Z" fill="url(#paint0_linear_45_4214)"/>
<path d="M12.0004 2.77175C12.1529 2.77175 12.3044 2.77741 12.4551 2.78494L12.5918 0.0153643C12.3959 0.0059408 12.1988 0.0012296 12.0004 0.0012296C10.4451 -0.000692568 8.90486 0.308751 7.46794 0.911791C6.03101 1.51483 4.72579 2.39959 3.6272 3.51527L5.56498 5.47914C6.40871 4.62035 7.41162 3.93905 8.51605 3.47442C9.62048 3.00979 10.8046 2.77099 12.0004 2.77175Z" fill="url(#paint1_linear_45_4214)"/>
<path d="M12.0004 21.2284C11.8479 21.2284 11.6963 21.2284 11.5448 21.2161L11.4081 23.9848C11.6046 23.9948 11.802 23.9999 12.0004 23.9999C13.555 24.0015 15.0946 23.6919 16.5307 23.0886C17.9669 22.4854 19.2712 21.6005 20.369 20.4849L18.4349 18.522C17.591 19.3803 16.5882 20.0612 15.484 20.5257C14.3798 20.9901 13.1959 21.229 12.0004 21.2284Z" fill="url(#paint2_linear_45_4214)"/>
<path d="M17.1332 4.38196L19.4355 2.66217C17.3312 0.935265 14.7044 -0.00479369 11.9967 1.83829e-05V2.77148C13.8303 2.76918 15.6212 3.33074 17.1332 4.38196Z" fill="url(#paint3_linear_45_4214)"/>
<path d="M23.841 12.0001C23.8425 11.2791 23.7803 10.5594 23.655 9.84961L21.1064 11.7532C21.1064 11.8352 21.1064 11.9171 21.1064 12.0001C21.107 13.2895 20.8403 14.5646 20.3236 15.7429C19.8068 16.9211 19.0515 17.9762 18.1067 18.8396L19.945 20.8988C21.1734 19.7749 22.155 18.402 22.8261 16.869C23.4974 15.336 23.8431 13.6772 23.841 12.0001Z" fill="#21A038"/>
<path d="M12.0005 21.2285C10.7281 21.229 9.46979 20.9586 8.30703 20.4349C7.14432 19.9112 6.10307 19.1459 5.25074 18.1885L3.21997 20.0506C4.32877 21.2957 5.6834 22.2906 7.19604 22.971C8.70868 23.6513 10.3455 24.0019 12.0005 23.9999V21.2285Z" fill="url(#paint4_linear_45_4214)"/>
<path d="M5.8942 5.16036L4.05683 3.10132C2.82812 4.22496 1.84616 5.59779 1.17466 7.13078C0.503158 8.66376 0.157105 10.3227 0.158943 11.9999H2.89453C2.89397 10.7106 3.16071 9.43544 3.67745 8.2572C4.19419 7.07899 4.94942 6.02391 5.8942 5.16036Z" fill="url(#paint5_linear_45_4214)"/>
</g>
<defs>
<linearGradient id="paint0_linear_45_4214" x1="4.1805" y1="20.138" x2="1.11987" y2="11.4079" gradientUnits="userSpaceOnUse">
<stop offset="0.14" stop-color="#F1E813"/>
<stop offset="0.3" stop-color="#E6E418"/>
<stop offset="0.58" stop-color="#C9DA26"/>
<stop offset="0.89" stop-color="#A2CC39"/>
</linearGradient>
<linearGradient id="paint1_linear_45_4214" x1="4.40826" y1="4.00529" x2="12.1322" y2="1.10088" gradientUnits="userSpaceOnUse">
<stop offset="0.06" stop-color="#0FA7DF"/>
<stop offset="0.54" stop-color="#0098F8"/>
<stop offset="0.92" stop-color="#0290EA"/>
</linearGradient>
<linearGradient id="paint2_linear_45_4214" x1="11.2277" y1="22.3272" x2="19.944" y2="20.3842" gradientUnits="userSpaceOnUse">
<stop offset="0.12" stop-color="#A2CC39"/>
<stop offset="0.28" stop-color="#86C239"/>
<stop offset="0.87" stop-color="#219F38"/>
</linearGradient>
<linearGradient id="paint3_linear_45_4214" x1="11.4277" y1="0.928236" x2="18.8872" y2="3.19966" gradientUnits="userSpaceOnUse">
<stop offset="0.06" stop-color="#0290EA"/>
<stop offset="0.79" stop-color="#0C89CA"/>
</linearGradient>
<linearGradient id="paint4_linear_45_4214" x1="3.90619" y1="19.7132" x2="12.0333" y2="22.7102" gradientUnits="userSpaceOnUse">
<stop offset="0.13" stop-color="#F1E813"/>
<stop offset="0.3" stop-color="#EAE616"/>
<stop offset="0.53" stop-color="#D8DF1F"/>
<stop offset="0.8" stop-color="#BAD52D"/>
<stop offset="0.98" stop-color="#A2CC39"/>
</linearGradient>
<linearGradient id="paint5_linear_45_4214" x1="1.17805" y1="12.3354" x2="4.5062" y2="3.79266" gradientUnits="userSpaceOnUse">
<stop offset="0.07" stop-color="#A2CC39"/>
<stop offset="0.26" stop-color="#81C45E"/>
<stop offset="0.92" stop-color="#0FA7DF"/>
</linearGradient>
<clipPath id="clip0_45_4214">
<rect width="24" height="24" fill="white"/>
</clipPath>
</defs>
</svg>
