<svg width="24" height="24" viewBox="0 0 24 24" fill="none" xmlns="http://www.w3.org/2000/svg">
<g clip-path="url(#clip0_45_4192)">
<path d="M19.1928 12.0092C19.2762 16.1125 15.5675 19.2107 12.468 19.2107H4.8066L0 23.9992H12.3846C16.3386 23.9992 20.1313 20.4424 20.1313 16.1959C20.1313 14.9487 19.9807 13.3243 19.1934 12.0926L19.1928 12.0092ZM17.8783 15.0321C18.3563 14.1782 18.5909 13.2396 18.6488 12.3266H15.1729C15.1729 13.173 15.0316 14.0942 14.7136 15.0321H17.8783ZM14.487 15.5686C14.0924 16.5725 13.1551 17.8782 12.2433 18.5908C14.009 18.5908 16.0274 17.8203 17.5024 15.5686H14.487ZM14.0924 15.0321C14.403 14.1782 14.5449 13.2396 14.6289 12.3266H9.36985C9.45387 13.2396 9.59577 14.1782 9.90571 15.0321H14.0924ZM9.30387 15.0321C8.99393 14.0942 8.82589 13.1737 8.82589 12.3266H5.35117C5.43457 13.2396 5.66112 14.1782 6.12043 15.0321H9.30387ZM12.0081 18.0469C12.6946 17.4263 13.4651 16.4225 13.8584 15.5686H10.1403C10.5349 16.4225 11.3048 17.4263 12.0081 18.0469ZM6.43099 15.5686C7.97137 17.8203 9.98911 18.5908 11.7822 18.5908C10.843 17.8776 9.84783 16.5725 9.52855 15.5686H6.43099ZM14.7136 9.07782C15.0316 9.90682 15.1729 10.8447 15.1729 11.782H18.6488C18.5909 10.8447 18.3557 9.90682 17.8783 9.07782H14.7136ZM17.5024 8.44922C16.0274 6.28896 14.0096 5.43506 12.2433 5.43506C13.1551 6.12216 14.0924 7.42853 14.487 8.44922H17.5024ZM9.90571 9.07782C9.59577 9.90682 9.45387 10.8447 9.36985 11.782H14.6289C14.5449 10.8447 14.4024 9.90682 14.0924 9.07782H9.90571ZM6.12105 9.07782C5.66174 9.90682 5.43457 10.8447 5.3518 11.782H8.82651C8.82651 10.8447 8.99455 9.90682 9.3045 9.07782H6.12105ZM12.0081 6.03752C11.3048 6.65803 10.5349 7.59532 10.141 8.44922H13.859C13.4651 7.59532 12.6946 6.65803 12.0081 6.03752ZM9.52917 8.44922C9.84845 7.4279 10.8436 6.12154 11.7828 5.43506C9.98973 5.43506 7.97137 6.28896 6.43162 8.44922H9.52917ZM4.8066 11.9246C4.03672 10.7022 3.86806 9.07782 3.86806 7.82996C3.86806 3.5835 7.66205 0.000488281 11.6135 0.000488281H24L19.1928 4.84816H11.5307C8.44998 4.84816 4.72195 7.97248 4.8066 11.9246Z" fill="#EB0F19"/>
</g>
<defs>
<clipPath id="clip0_45_4192">
<rect width="24" height="24" fill="white"/>
</clipPath>
</defs>
</svg>
