<svg width="24" height="24" viewBox="0 0 24 24" fill="none" xmlns="http://www.w3.org/2000/svg">
<g clip-path="url(#clip0_45_4173)">
<mask id="mask0_45_4173" style="mask-type:luminance" maskUnits="userSpaceOnUse" x="0" y="0" width="24" height="24">
<path d="M11.4639 0.173334C4.93197 0.468667 -0.122947 6.00155 0.171144 12.5374C0.467897 19.0674 6.00397 24.1221 12.5354 23.8303C19.0691 23.5315 24.1256 17.998 23.8301 11.4649C23.5417 5.1175 18.3068 0.161088 12.0123 0.159668C11.8302 0.159668 11.649 0.164638 11.4639 0.173334Z" fill="white"/>
</mask>
<g mask="url(#mask0_45_4173)">
<path d="M24.1255 0.159668H-0.122925V24.1221H24.1255V0.159668Z" fill="url(#paint0_radial_45_4173)"/>
</g>
<mask id="mask1_45_4173" style="mask-type:luminance" maskUnits="userSpaceOnUse" x="0" y="0" width="24" height="24">
<path d="M9.29575 22.1721C7.9703 22.0418 6.38785 21.6249 5.00933 20.4304C3.7405 19.3362 2.95514 17.8303 2.57337 16.5036C2.18397 15.1492 2.01891 13.5661 2.66513 13.6898C2.86178 13.7278 3.20574 14.5988 3.57899 15.2337C3.96555 15.8884 4.27562 16.2502 4.56917 16.4724C4.70122 16.5725 5.15327 15.5665 5.81369 14.9936C6.19688 14.6764 6.61237 14.569 6.68318 15.512C6.76305 16.6671 6.55415 18.0426 6.89475 18.0426C7.20587 18.0426 7.91812 17.8058 9.4821 17.6714C10.0682 17.6221 10.4036 17.7336 9.84382 18.5202C9.56321 18.9156 9.19068 19.4734 8.30485 20.1094C9.63279 21.353 11.2246 21.2016 11.255 21.7321C11.2726 22.0351 10.6778 22.2026 9.89919 22.2026C9.70662 22.2028 9.50518 22.193 9.29575 22.1721ZM13.7659 10.995C12.5494 10.7416 12.3005 9.63711 12.3005 9.63711C12.2012 9.24806 12.1754 8.7559 12.258 8.13045C12.4209 6.81866 12.7778 6.20652 13.1814 5.18901C13.7213 3.82451 12.4049 3.02637 12.6204 2.52604C12.9152 1.84752 13.856 2.7092 14.9092 2.77416C15.8108 2.82261 16.3553 2.7802 17.0576 2.87284C17.9926 2.99531 19.109 3.31283 19.607 3.89692C20.0628 4.43168 19.3651 5.08252 18.5299 4.67555C17.9167 4.37613 17.1455 4.55876 17.5993 5.19806C18.1412 5.80488 18.4017 5.82103 18.959 5.96603C20.4873 6.3691 20.5191 7.836 19.4835 8.59155C18.3082 9.45323 17.1127 9.09525 16.6374 7.40667C16.3981 6.56185 15.8041 6.13251 15.1912 6.37407C14.5862 6.61154 14.9451 7.72152 15.4074 8.75022C16.205 10.7902 14.5888 11.0066 13.9698 11.0066C13.8748 11.0068 13.8012 10.9997 13.7659 10.995ZM12.8887 22.5554C12.8751 22.2835 13.2725 22.217 13.2725 22.217C16.8223 21.5154 15.7842 19.1889 14.5292 18.0012C13.9998 17.5039 9.05898 13.2383 9.05898 13.2383C4.34892 9.18222 4.72572 6.01697 4.72572 6.01697C4.95715 2.11854 8.36502 1.15338 10.9462 1.37843C11.2491 1.40416 11.4181 1.58573 11.362 1.83918C11.3072 2.11428 10.9071 2.13256 10.9071 2.13256C10.0854 2.18279 9.34864 2.26461 8.79222 2.64247C6.71407 4.04069 7.32284 6.42128 10.0974 9.07129C10.4469 9.4046 10.8178 9.7562 11.201 10.1142C11.201 10.1142 11.7555 10.6049 12.8667 11.6586C14.9994 13.6227 16.1661 14.6812 16.1661 14.6812C19.9274 17.8129 18.6383 20.6757 17.2064 21.6694C16.1094 22.4298 14.8968 22.786 13.3039 22.8717C13.2904 22.8737 13.2762 22.8744 13.262 22.8744C13.1164 22.8744 12.8976 22.786 12.8887 22.5554ZM11.4557 0.0132229C4.83664 0.311751 -0.286606 5.92326 0.0124543 12.5423C0.312402 19.1618 5.92213 24.2852 12.5428 23.9863C19.1617 23.6882 24.2871 18.0793 23.9875 11.4583C23.6989 5.02058 18.3856 0.0016865 12.0052 0.000976562C11.8228 0.000976562 11.6394 0.00488121 11.4557 0.0132229Z" fill="white"/>
</mask>
<g mask="url(#mask1_45_4173)">
<path d="M24.2872 0.000976562H-0.286499V24.2852H24.2872V0.000976562Z" fill="url(#paint1_radial_45_4173)"/>
</g>
</g>
<defs>
<radialGradient id="paint0_radial_45_4173" cx="0" cy="0" r="1" gradientUnits="userSpaceOnUse" gradientTransform="translate(13.4725 8.17041) scale(11.2347 11.2339)">
<stop stop-color="white"/>
<stop offset="0.3372" stop-color="#E9D2B2"/>
<stop offset="0.6542" stop-color="#DAB37C"/>
<stop offset="0.8826" stop-color="#D1A25D"/>
<stop offset="1" stop-color="#CE9B51"/>
</radialGradient>
<radialGradient id="paint1_radial_45_4173" cx="0" cy="0" r="1" gradientUnits="userSpaceOnUse" gradientTransform="translate(13.9123 8.80597) scale(25.1291 25.1275)">
<stop stop-color="#1ABFF1"/>
<stop offset="0.1013" stop-color="#15ABE2"/>
<stop offset="0.2191" stop-color="#1197D4"/>
<stop offset="0.2228" stop-color="#1196D3"/>
<stop offset="0.2823" stop-color="#1184C7"/>
<stop offset="0.3449" stop-color="#1077BD"/>
<stop offset="0.4111" stop-color="#0F6EB7"/>
<stop offset="0.4834" stop-color="#0E69B4"/>
<stop offset="0.573" stop-color="#0E67B2"/>
<stop offset="1" stop-color="#0E67B2"/>
</radialGradient>
<clipPath id="clip0_45_4173">
<rect width="24" height="24" fill="white"/>
</clipPath>
</defs>
</svg>
