<svg width="24" height="24" viewBox="0 0 24 24" fill="none" xmlns="http://www.w3.org/2000/svg">
<g clip-path="url(#clip0_45_4203)">
<path fill-rule="evenodd" clip-rule="evenodd" d="M17.0818 0C16.7057 2.47216 14.5772 4.36847 12 4.36847C9.42285 4.36847 7.29436 2.47226 6.91819 0.000187583V6.91819C8.21873 5.61764 10.0154 4.81322 12 4.81322C13.9846 4.81322 15.7813 5.61764 17.0818 6.91819V0ZM17.0818 6.91819C18.3824 8.21873 19.1868 10.0154 19.1868 12C19.1868 13.9846 18.3824 15.7813 17.0818 17.0818H24C21.5278 16.7057 19.6315 14.5772 19.6315 12C19.6315 9.42285 21.5277 7.29437 23.9998 6.91819H17.0818ZM17.0818 17.0818C15.7813 18.3824 13.9846 19.1868 12 19.1868C10.0154 19.1868 8.21873 18.3824 6.91819 17.0818V24C7.31037 21.5466 9.43609 19.6717 12 19.6717C14.5639 19.6717 16.6896 21.5466 17.0818 24V17.0818ZM6.91819 17.0818C5.61764 15.7813 4.81322 13.9846 4.81322 12C4.81322 10.0154 5.61764 8.21873 6.91819 6.91819H0C2.45344 7.31037 4.32825 9.43608 4.32825 12C4.32825 14.5639 2.45344 16.6896 0 17.0818H6.91819Z" fill="#DBA627"/>
<path fill-rule="evenodd" clip-rule="evenodd" d="M8.51074 9.19413C8.51074 8.62821 8.96952 8.16943 9.53544 8.16943C10.1014 8.16943 10.5601 8.62821 10.5601 9.19413C10.5601 9.76005 10.1014 10.2188 9.53544 10.2188C8.96952 10.2188 8.51074 9.76005 8.51074 9.19413Z" fill="#DBA627"/>
<path fill-rule="evenodd" clip-rule="evenodd" d="M13.4399 9.19413C13.4399 8.62821 13.8987 8.16943 14.4646 8.16943C15.0306 8.16943 15.4893 8.62821 15.4893 9.19413C15.4893 9.76005 15.0306 10.2188 14.4646 10.2188C13.8987 10.2188 13.4399 9.76005 13.4399 9.19413Z" fill="#DBA627"/>
<path fill-rule="evenodd" clip-rule="evenodd" d="M8.51074 14.8059C8.51074 14.24 8.96952 13.7812 9.53544 13.7812C10.1014 13.7812 10.5601 14.24 10.5601 14.8059C10.5601 15.3719 10.1014 15.8306 9.53544 15.8306C8.96952 15.8306 8.51074 15.3719 8.51074 14.8059Z" fill="#DBA627"/>
<path fill-rule="evenodd" clip-rule="evenodd" d="M13.4399 14.8059C13.4399 14.24 13.8987 13.7812 14.4646 13.7812C15.0306 13.7812 15.4893 14.24 15.4893 14.8059C15.4893 15.3719 15.0306 15.8306 14.4646 15.8306C13.8987 15.8306 13.4399 15.3719 13.4399 14.8059Z" fill="#DBA627"/>
<path fill-rule="evenodd" clip-rule="evenodd" d="M11.9994 6.16919L10.8941 11.0309L6.16846 12.0002L10.8941 12.9694L11.9994 17.8311L13.1047 12.9694L17.8304 12.0002L13.1047 11.0309L11.9994 6.16919ZM11.9994 7.66853L12.8205 11.2801L16.331 12.0002L12.8205 12.7203L11.9994 16.3318L11.1784 12.7203L7.6678 12.0002L11.1784 11.2801L11.9994 7.66853Z" fill="#DBA627"/>
</g>
<defs>
<clipPath id="clip0_45_4203">
<rect width="24" height="24" fill="white"/>
</clipPath>
</defs>
</svg>
