<svg width="24" height="24" viewBox="0 0 24 24" fill="none" xmlns="http://www.w3.org/2000/svg">
<path fill-rule="evenodd" clip-rule="evenodd" d="M5.08496 21.048L5.09218 21.1419L5.11383 21.2645L5.14992 21.3872L5.20766 21.5172L5.29427 21.6543L5.40975 21.7914L5.5541 21.943L5.69123 22.0657L5.73453 22.1018L5.95827 22.2822L5.99436 22.3183L6.10262 22.4121L6.22532 22.5204L6.31915 22.6286L6.39132 22.7225L6.44906 22.8235L6.48515 22.9173L6.49958 23.0184L6.5068 23.105V23.1627L6.49958 23.2493L6.46349 23.3576L6.41297 23.4587L6.3408 23.5525L6.24697 23.6319L6.13149 23.6896L5.99436 23.7329L5.87888 23.7474H5.82114L5.7634 23.7401L5.66958 23.7329L5.56853 23.7113L5.46749 23.668L5.36644 23.6102L5.27262 23.5308L5.20044 23.4153L5.16435 23.3143L5.15714 23.2782L5.14992 23.2638L5.1427 23.1844V23.0906L5.13548 23.0761V23.0617L5.12105 23.0328L5.11383 23.0256L5.09218 23.0184L5.07774 23.0112H5.06331L5.04887 23.0184L5.02722 23.0256L5.02 23.04L5.00557 23.0545V23.0761L4.99835 23.0906V23.1122L4.99113 23.1194V23.206L4.98392 23.271L4.9767 23.3793L4.96948 23.502V23.7329L4.98392 23.7907L5.01279 23.8267L5.04887 23.8556L5.06331 23.8628L5.20766 23.9206L5.37366 23.9639L5.54688 23.9927L5.69123 24H5.79227L5.95106 23.9855L6.15314 23.9422L6.33358 23.8773L6.45628 23.8123L6.49958 23.7907L6.52845 23.769L6.60784 23.6968L6.70167 23.5958L6.77385 23.4875L6.83158 23.3793L6.87489 23.271L6.90376 23.1555L6.92541 23.0473L6.93263 22.9751V22.9101L6.92541 22.8091L6.90376 22.6719L6.86045 22.5348L6.7955 22.3977L6.69445 22.2533L6.57176 22.1018L6.40576 21.943L6.25419 21.8131L6.19645 21.777L6.05932 21.6687L6.02323 21.6326L5.90053 21.5316L5.77062 21.4161L5.66958 21.3151L5.5974 21.2212L5.53966 21.1346L5.50357 21.048L5.48192 20.9614L5.4747 20.8965V20.8459L5.48914 20.7593L5.51801 20.6583L5.56853 20.5717L5.63349 20.4923L5.7201 20.4273L5.81392 20.384L5.92219 20.3551L6.01601 20.3479H6.08097L6.18201 20.3551L6.29749 20.3696L6.39854 20.4057L6.47071 20.4418L6.52845 20.4778L6.57176 20.5139L6.60784 20.55L6.62228 20.5789V20.5861L6.6295 20.5933L6.64393 20.6366L6.66558 20.6944L6.68002 20.7593V20.8026L6.68724 20.8171V20.8459L6.70889 20.8892L6.72332 20.9037L6.73776 20.9109H6.78106L6.80271 20.8965L6.80993 20.8748L6.82437 20.8532V20.8315L6.83158 20.8098V20.5861L6.8388 20.449L6.84602 20.3479V20.283L6.85324 20.2469V20.2397L6.84602 20.218L6.83158 20.1891L6.77385 20.1747H6.73776L6.70889 20.1675L6.65837 20.1603L6.61506 20.1531H6.60063L6.56454 20.1458L6.3841 20.117L6.19645 20.1025H6.08097L5.91497 20.117L5.70566 20.1675L5.53244 20.2469L5.37366 20.3551L5.25096 20.4851L5.16435 20.6438L5.10661 20.8171L5.08496 20.9686V21.048Z" fill="#005B47"/>
<path fill-rule="evenodd" clip-rule="evenodd" d="M11.0704 20.2054L11.0631 20.2126L11.0415 20.2776L11.0126 20.3353L10.9838 20.4003L10.9477 20.4797L10.9116 20.5663L10.8683 20.6673L10.8178 20.7756L10.7672 20.8911L10.7167 21.021L10.659 21.1437L10.4858 21.5551L10.4208 21.6922L10.3631 21.8366L10.2981 21.9737L10.2404 22.1036L10.1826 22.2407L10.1249 22.3706L10.0744 22.4933L10.0238 22.6088L9.97331 22.7171L9.93001 22.8181L9.8867 22.912L9.85783 22.9914L9.82175 23.0563L9.80009 23.114L9.78566 23.1574L9.77122 23.179V23.1862L9.76401 23.1934V23.1862L9.72792 23.114L9.70627 23.0635L9.6774 22.9914L9.64131 22.912L9.598 22.8181L9.54748 22.7243L9.50418 22.6088L9.44644 22.4933L9.3887 22.3706L9.33096 22.2407L9.27322 22.1036L9.20826 21.9665L9.15052 21.8293L9.08557 21.6922L9.02061 21.5479L8.95565 21.4107L8.89791 21.2736L8.83295 21.1437L8.77522 21.0138L8.72469 20.8911L8.66695 20.7756L8.62365 20.6601L8.57313 20.5663L8.53704 20.4725L8.50095 20.3931L8.46486 20.3209L8.44321 20.2704L8.42156 20.2271L8.41434 20.2054L8.40712 20.1982V20.191L8.39269 20.1621L8.37104 20.1332L8.34939 20.1116L8.32052 20.1044H8.28443L8.24112 20.1477L8.23391 20.1693V20.1838L8.22669 20.2054V20.2271L8.21947 20.2559L8.21225 20.357L8.1906 20.5158L8.17617 20.7179L8.1473 20.9632L8.11843 21.2303L8.03182 22.118L7.99573 22.4067L7.97408 22.681L7.94521 22.9192L7.92356 23.1285L7.90912 23.2801L7.89469 23.3883V23.4388L7.88747 23.4821L7.88025 23.5471L7.87303 23.6048L7.8586 23.6554L7.83695 23.6987L7.81529 23.7347L7.78642 23.7636L7.75755 23.7781H7.7359L7.69981 23.7853H7.67095L7.64208 23.7925H7.58434L7.55547 23.8069L7.54103 23.8286L7.53381 23.843V23.8647L7.54103 23.8719V23.8863L7.55547 23.9008L7.5699 23.908L7.58434 23.9224H7.61321L7.63486 23.9296H7.71425L7.79364 23.9224H7.87303L7.90912 23.9152H8.17617L8.26278 23.9224H8.3566L8.42878 23.9296H8.48652L8.50095 23.9224L8.5226 23.9152L8.53704 23.908L8.56591 23.8791V23.843L8.55869 23.8286L8.54426 23.8069L8.5226 23.7925H8.48652L8.45765 23.7853H8.42156L8.37826 23.7781L8.34217 23.7708H8.33495L8.32052 23.7636L8.29165 23.7564L8.26999 23.7275L8.24834 23.6914L8.24112 23.6626V23.4244L8.24834 23.4027V23.3811L8.25556 23.3089L8.26278 23.2079L8.26999 23.0707L8.28443 22.9047L8.29886 22.7243L8.3133 22.5294L8.34217 22.1253L8.36382 21.9304L8.37826 21.7499L8.38547 21.5912L8.39991 21.4468L8.40712 21.3458L8.41434 21.2736V21.2519L8.42878 21.2808L8.46486 21.3602L8.51539 21.4757L8.58756 21.6345L8.66695 21.8149L8.76078 22.0242L8.96287 22.4717L9.06391 22.7027L9.16496 22.9192L9.25878 23.1285L9.34539 23.3089L9.41757 23.4677L9.46809 23.5904L9.61244 23.8791L9.64853 23.908L9.67018 23.9152H9.69183L9.7207 23.908L9.74957 23.8791L9.78566 23.8141L9.82175 23.7347L9.82896 23.7131L9.8434 23.6842L9.87949 23.6048L9.93001 23.4821L10.0022 23.3161L10.0888 23.1285L10.1826 22.9192L10.2764 22.6882L10.3847 22.4573L10.5868 21.9953L10.6734 21.786L10.76 21.5984L10.8322 21.4324L10.8827 21.3097L10.9188 21.2303L10.9332 21.2014V21.2303L10.9405 21.3097L10.9477 21.4252L10.9621 21.5767L10.9765 21.7644L10.9982 21.9665L11.0126 22.183L11.0559 22.6305L11.0704 22.847L11.092 23.0491L11.1065 23.2295L11.1209 23.3883L11.1281 23.5038L11.1353 23.5832L11.1425 23.6121V23.7636L11.1353 23.7781H11.1281L11.1137 23.7853L11.0992 23.7997L11.092 23.8214V23.8574L11.0992 23.8791L11.1137 23.8863L11.1353 23.9008L11.157 23.908L11.1858 23.9152H11.2147L11.2436 23.9224H11.3302L11.4312 23.9296H12.0231L12.0808 23.9152L12.1025 23.908L12.1241 23.8935L12.1313 23.8791L12.1385 23.8719V23.8358L12.1313 23.8141L12.1097 23.7997L12.0808 23.7925H12.0231L11.9581 23.7853L11.8787 23.7708L11.8065 23.7564L11.7849 23.7492L11.7272 23.7203L11.6766 23.6698L11.6405 23.6121L11.6117 23.5399L11.5684 23.3234V23.2801L11.5612 23.2584L11.258 20.2632V20.2415L11.2508 20.2126V20.1838L11.2436 20.1549L11.2291 20.1332L11.2147 20.1188L11.1931 20.1044H11.157L11.1281 20.1116L11.0848 20.1693L11.0704 20.1982V20.2054Z" fill="#005B47"/>
<path fill-rule="evenodd" clip-rule="evenodd" d="M13.4116 20.4163L13.4188 20.4091H13.426L13.4404 20.4019H13.4621L13.5631 20.3874L13.6425 20.3802H13.7147L13.8302 20.3946L13.9673 20.4524L14.0683 20.5318L14.1549 20.6328L14.2199 20.7555L14.2632 20.8926L14.2849 21.037L14.2993 21.1453V21.2174L14.2849 21.3113L14.256 21.434L14.1983 21.5494L14.1477 21.6288L14.1189 21.6577L14.0972 21.6866L14.0611 21.7154L14.025 21.7371L13.9889 21.7515L13.9384 21.7587L13.8735 21.766H13.5992L13.5126 21.7587L13.4549 21.7515H13.4332L13.426 21.7443H13.4188L13.4116 21.7299V20.4163ZM13.3755 20.1781L13.1878 20.1853H13.1301L13.1012 20.1781H13.029L12.9063 20.1709H12.5888L12.5671 20.1781L12.5527 20.1853L12.5382 20.1998L12.531 20.2214L12.5238 20.2359V20.2503L12.531 20.2719L12.5455 20.2936L12.5671 20.308L12.5888 20.3152H12.7259L12.7475 20.3225H12.7548L12.8414 20.3513L12.8919 20.3946L12.928 20.4668L12.9352 20.539L12.9424 20.5679V20.6906L12.9496 20.7699V23.1012L12.9424 23.3466L12.928 23.4837V23.5342L12.9208 23.5559L12.9063 23.6281L12.8847 23.7002L12.8558 23.7508L12.8125 23.7724H12.7981L12.7331 23.7868H12.6609L12.6393 23.7941L12.6176 23.8085L12.6032 23.8301L12.596 23.8518V23.859L12.6032 23.8807L12.6104 23.8951L12.6248 23.9095L12.6465 23.924H12.6609L12.6826 23.9312H12.7981L12.8919 23.924H12.9929L13.0579 23.9168H13.1878L13.3827 23.924H13.4116L13.5126 23.9312L13.6497 23.9384L13.7652 23.9456H13.8807L13.9962 23.9384L14.1405 23.9168L14.2776 23.8879L14.4003 23.8518L14.5158 23.8013L14.6241 23.7435L14.7179 23.6714L14.8045 23.5992L14.8767 23.5198L14.9416 23.4332L14.9994 23.3394L15.0499 23.2455L15.086 23.1517L15.1077 23.0507L15.1221 22.9496L15.1293 22.8702V22.7908L15.1077 22.632L15.0499 22.4444L14.9561 22.2784L14.8478 22.1413L14.7179 22.0186L14.5808 21.9247L14.4436 21.8526L14.3426 21.8093L14.3065 21.802L14.3354 21.7876L14.4003 21.7299L14.4797 21.6505L14.5519 21.5566L14.6169 21.4556L14.6674 21.3401L14.7107 21.2174L14.7323 21.0803L14.7396 20.972V20.8782L14.7323 20.8205L14.7179 20.7627L14.6963 20.6978L14.6674 20.6328L14.6313 20.5679L14.588 20.5101L14.5375 20.4452L14.4725 20.3874L14.4003 20.3369L14.3137 20.2936L14.2199 20.2503L14.1189 20.2142L13.9962 20.1926L13.8662 20.1781L13.758 20.1709H13.5342L13.3971 20.1781H13.3755ZM13.5631 23.6425H13.5559L13.5198 23.6208L13.4909 23.5992L13.4476 23.5415L13.4404 23.5054L13.4332 23.4548L13.426 23.3899L13.4188 23.3394V23.1517L13.4116 23.029V21.968H13.5559L13.6642 21.9753H13.7869L13.8085 21.9825L13.8735 21.9897L13.9673 22.0113L14.0611 22.0474L14.1477 22.098L14.1766 22.1124L14.2127 22.1413L14.3137 22.2279L14.422 22.3578L14.5014 22.4877L14.5591 22.6248L14.5952 22.7547L14.6241 22.8702L14.6313 22.9785V23.1734L14.6096 23.2672L14.5808 23.3538L14.5447 23.4332L14.4436 23.5487L14.3931 23.592L14.3354 23.6281L14.2704 23.6569L14.2199 23.6786L14.1622 23.693L14.1116 23.7002L14.025 23.7147H13.8662L13.8085 23.7075L13.7436 23.7002L13.6786 23.6858L13.6209 23.6714L13.5631 23.6425Z" fill="#005B47"/>
<path fill-rule="evenodd" clip-rule="evenodd" d="M16.3313 20.665L16.2953 20.7083L16.2014 20.831L16.0932 21.0042L16.0138 21.1847L15.9488 21.3651L15.8983 21.5456L15.8694 21.7188L15.855 21.8848L15.8478 21.993V22.0941L15.8622 22.2601L15.8983 22.4694L15.9488 22.6715L16.0138 22.8591L16.0932 23.0396L16.1942 23.1984L16.3169 23.3499L16.4107 23.4582L16.4468 23.4871L16.4829 23.5231L16.5984 23.6097L16.7644 23.718L16.9304 23.8046L17.118 23.8768L17.3129 23.9273L17.5222 23.9634L17.746 23.9778L17.9264 23.9851H17.9841L18.0419 23.9778L18.2007 23.9706L18.4316 23.9418L18.6409 23.9057L18.7708 23.8624L18.8142 23.8407H18.8214L18.843 23.8263L18.8719 23.8118L18.8935 23.7974L18.908 23.783L18.9152 23.7613L18.9296 23.7397L18.9368 23.7108L18.9441 23.6891L18.9513 23.6747V23.6603L18.9657 23.6025L18.9802 23.5087L19.009 23.3066L19.0162 23.2128L19.0235 23.1334L19.0307 23.0757V23.0107L19.0235 22.9818L19.0162 22.9674L18.9946 22.9457L18.9802 22.9385H18.9441L18.9224 22.9457L18.9152 22.9602L18.9008 22.9746L18.8935 22.989V23.0035L18.8863 23.0251V23.0396L18.8791 23.0612L18.8647 23.1262L18.8358 23.2344L18.7925 23.3427L18.7492 23.4149L18.7348 23.4365L18.6698 23.5015L18.5904 23.5592L18.511 23.6025L18.4172 23.6314L18.3161 23.6603L18.2151 23.6747L18.0996 23.6819L18.0058 23.6891H17.9336L17.8109 23.6819L17.6521 23.6603L17.4934 23.6242L17.3418 23.5664L17.1974 23.4943L17.0603 23.4077L16.9304 23.3066L16.8366 23.22L16.7788 23.1623L16.7067 23.0684L16.6128 22.9313L16.5334 22.787L16.4613 22.6354L16.4107 22.4766L16.3674 22.3178L16.3386 22.1518L16.3313 22.0219V21.9858L16.3241 21.9425V21.827L16.3313 21.661L16.3458 21.5023L16.3747 21.3363L16.4252 21.1775L16.4901 21.0187L16.5767 20.8671L16.6634 20.7516L16.7788 20.6362L16.8727 20.564L16.9881 20.499L17.1036 20.4485L17.2335 20.4124L17.3779 20.3763L17.5367 20.3619L17.6594 20.3475H17.7388L17.847 20.3547L17.9914 20.3619L18.1213 20.3908L18.244 20.4196L18.3522 20.4557L18.4461 20.499L18.5255 20.5495L18.576 20.5784L18.6121 20.6145L18.6626 20.6795L18.7203 20.7877L18.7636 20.9176L18.7781 21.0259L18.7853 21.062V21.1053L18.8069 21.1702L18.8214 21.1847L18.8358 21.1919L18.8575 21.1991L18.8647 21.1919H18.8791L18.9008 21.1847L18.9152 21.163L18.9224 21.1486L18.9296 21.1269V20.5279L18.9368 20.4269L18.9441 20.3547V20.2464L18.9224 20.2175L18.8935 20.2031L18.8647 20.1959H18.8214L18.6409 20.1742L18.4533 20.1454L18.41 20.1382H18.3955L18.345 20.1237L18.1862 20.1093L17.9986 20.0948H17.6666L17.5006 20.1093L17.2913 20.1382L17.0964 20.1887L16.916 20.2464L16.75 20.3258L16.5984 20.4269L16.454 20.5351L16.3602 20.6289L16.3313 20.665Z" fill="#005B47"/>
<path fill-rule="evenodd" clip-rule="evenodd" d="M5.69617 9.26879V18.5432L9.50698 16.9337V7.6593L5.69617 9.26879Z" fill="#B3D056"/>
<path fill-rule="evenodd" clip-rule="evenodd" d="M14.2975 1.60949V10.8839L18.1083 9.27442V0L14.2975 1.60949Z" fill="#B3D056"/>
<path fill-rule="evenodd" clip-rule="evenodd" d="M9.99731 7.4498V16.7242L13.8081 11.0874V1.82019L9.99731 7.4498Z" fill="#B3D056"/>
</svg>
