<svg width="24" height="24" viewBox="0 0 24 24" fill="none" xmlns="http://www.w3.org/2000/svg">
<g clip-path="url(#clip0_45_4217)">
<path d="M17.7882 23.3647C17.7882 23.9296 18.5649 24 18.9885 24H19.3417C20.4005 23.9303 20.4005 23.5061 20.4005 23.3647V0.635319C20.4702 0.0696622 19.6941 0 19.2002 0H18.9912C18.5649 0 17.7882 0.0696622 17.7882 0.635319V23.3647Z" fill="#E1091D"/>
<path d="M3.6001 23.3647C3.6001 23.9296 4.37684 24 4.80037 24H5.15359C6.21244 23.9303 6.21243 23.5061 6.21243 23.3647V0.635319C6.21243 0.0696622 5.50607 0 5.01216 0H4.80317C4.3058 0 3.6001 0.0696622 3.6001 0.635319V23.3647Z" fill="#E1091D"/>
<path d="M8.32947 23.3647C8.32947 23.9296 9.10624 24 9.52979 24H9.95332C11.0122 23.9303 11.0122 23.5061 11.0122 23.3647V0.635319C11.0122 0.0696622 10.2355 0 9.81193 0H9.52979C9.10624 0 8.32947 0.0696622 8.32947 0.635319V23.3647Z" fill="#E1091D"/>
<path d="M13.0588 23.3647C13.0588 23.9296 13.8356 24 14.2591 24H14.6123C15.6711 23.9303 15.6712 23.5061 15.6712 23.3647V0.635319C15.6712 0.0696622 14.8944 0 14.4709 0H14.2619C13.8356 0 13.0588 0.0696622 13.0588 0.635319V23.3647Z" fill="#E1091D"/>
<path d="M0.635313 10.6592C0.069672 10.6592 0 11.4359 0 11.8595V12.283C0.069671 13.3419 0.493908 13.3419 0.635313 13.3419H23.3647C23.9296 13.3419 24 12.5651 24 12.1416V11.8595C24 11.4359 23.9303 10.6592 23.3647 10.6592H0.635313Z" fill="#E1091D"/>
</g>
<defs>
<clipPath id="clip0_45_4217">
<rect width="24" height="24" fill="white"/>
</clipPath>
</defs>
</svg>
