<svg width="24" height="24" viewBox="0 0 24 24" fill="none" xmlns="http://www.w3.org/2000/svg">
<path d="M0 7.10938C0.340823 7.25327 0.564551 8.13344 0.564551 8.13344L2.67834 15.4857C2.92201 16.4058 3.69295 16.8906 4.5558 16.8906H9.19037C8.85848 16.8312 8.49453 15.8534 8.49453 15.8534L6.14442 8.54045C5.80621 7.42342 5.23589 7.10938 4.37199 7.10938H0ZM19.6149 7.10938C18.7489 7.10938 18.1885 7.42342 17.8556 8.54045L15.4923 15.8534C15.4923 15.8534 15.1321 16.8312 14.7965 16.8906H19.4311C20.2981 16.8906 21.0617 16.4058 21.3085 15.4857L23.4223 8.13344C23.4223 8.13344 23.6529 7.25327 24 7.10938H19.6149ZM9.4267 7.16189V16.8906H14.5864V7.16189H9.4267Z" fill="#ED1A3A"/>
</svg>
