<svg width="24" height="24" viewBox="0 0 24 24" fill="none" xmlns="http://www.w3.org/2000/svg">
<g clip-path="url(#clip0_45_4223)">
<path d="M24 12C24 14.3737 23.296 16.694 21.9772 18.6675C20.6583 20.6411 18.7837 22.1791 16.5906 23.0872C14.3975 23.9952 11.9844 24.2325 9.65642 23.7689C7.32846 23.3053 5.19028 22.1618 3.51232 20.4829C1.83436 18.804 0.692007 16.6651 0.229753 14.3369C-0.232501 12.0087 0.00611046 9.59567 0.915405 7.40308C1.8247 5.21049 3.36383 3.33682 5.33811 2.01906C7.31239 0.701301 9.63314 -0.00134331 12.0068 1.928e-06C15.1884 0.00135441 18.2391 1.26628 20.4882 3.51662C22.7372 5.76696 24.0005 8.81844 24 12Z" fill="white"/>
<path d="M12.0152 23.4373C14.2761 23.4366 16.486 22.7656 18.3655 21.5091C20.245 20.2526 21.7098 18.467 22.5746 16.3781C23.4394 14.2892 23.6654 11.9907 23.224 9.77338C22.7827 7.55604 21.6938 5.51934 20.095 3.9208C18.4962 2.32226 16.4593 1.23366 14.2419 0.792627C12.0245 0.351599 9.72613 0.577949 7.63735 1.44306C5.54857 2.30817 3.7632 3.77319 2.50696 5.6529C1.25073 7.53261 0.580049 9.74259 0.579713 12.0034C0.579043 13.5053 0.874382 14.9925 1.44885 16.3802C2.02333 17.7678 2.86567 19.0286 3.92771 20.0905C4.98975 21.1524 6.25067 21.9945 7.63839 22.5688C9.0261 23.143 10.5134 23.4382 12.0152 23.4373Z" fill="#0869AB"/>
<mask id="mask0_45_4223" style="mask-type:luminance" maskUnits="userSpaceOnUse" x="0" y="0" width="24" height="24">
<path d="M0.579712 12.0083C0.579376 14.269 1.24943 16.4791 2.50514 18.359C3.76085 20.2389 5.54583 21.7043 7.63434 22.5697C9.72285 23.4352 12.0211 23.6619 14.2384 23.2212C16.4558 22.7804 18.4927 21.6921 20.0915 20.0938C21.6903 18.4954 22.7792 16.4589 23.2206 14.2417C23.662 12.0244 23.436 9.72612 22.5711 7.63736C21.7063 5.54859 20.2415 3.76319 18.362 2.50691C16.4824 1.25064 14.2726 0.579927 12.0118 0.57959C10.5107 0.579144 9.0242 0.874428 7.63721 1.44858C6.25022 2.02272 4.98993 2.86449 3.92831 3.92579C2.86669 4.98709 2.02455 6.24714 1.44999 7.63395C0.875435 9.02077 0.579712 10.5072 0.579712 12.0083Z" fill="white"/>
</mask>
<g mask="url(#mask0_45_4223)">
<path d="M12.1121 17.517C17.1413 17.517 21.4428 18.9214 23.2943 20.9089C23.9242 19.4492 24.2483 17.8759 24.2465 16.2861C24.2465 9.72159 18.8058 4.41357 12.1121 4.41357C5.41846 4.41357 -0.0136717 9.7267 -0.0136717 16.2895C-0.0139542 17.8782 0.310634 19.4502 0.940142 20.9089C2.78826 18.9231 7.09486 17.517 12.1121 17.517Z" fill="#0869AB"/>
<path d="M12.112 17.5306C17.1276 17.5306 21.4189 18.9231 23.2637 20.8953C23.8937 19.4471 24.2173 17.8841 24.2141 16.3048C24.2141 9.79473 18.7938 4.51221 12.112 4.51221C5.43027 4.51221 0.0151412 9.79812 0.0151412 16.3082C0.0137394 17.8877 0.338451 19.4505 0.96895 20.8987C2.81026 18.9231 7.10497 17.5306 12.112 17.5306Z" fill="#0D6BAD"/>
<path d="M12.1122 17.5423C17.1159 17.5423 21.3953 18.9246 23.2366 20.8764C23.8632 19.4428 24.1857 17.8947 24.1836 16.3301C24.1836 9.86933 18.777 4.61572 12.1122 4.61572C5.4474 4.61572 0.0407715 9.87444 0.0407715 16.3318C0.0408993 17.8962 0.365081 19.4435 0.992884 20.8764C2.8274 18.9229 7.1136 17.5423 12.1071 17.5423" fill="#0F6EAD"/>
<path d="M12.1121 17.5628C17.1039 17.5628 21.3714 18.9332 23.2076 20.8714C23.832 19.4491 24.1534 17.9124 24.1512 16.3591C24.1512 9.95442 18.7599 4.72461 12.1121 4.72461C5.46435 4.72461 0.078125 9.95782 0.078125 16.3625C0.0785086 17.9151 0.402181 19.4507 1.02854 20.8714C2.85455 18.923 7.12715 17.5628 12.1121 17.5628Z" fill="#1270B0"/>
<path d="M12.1121 17.563C17.0903 17.563 21.3493 18.9232 23.1787 20.8444C23.7996 19.4355 24.1193 17.9125 24.1172 16.3729C24.1172 10.0209 18.7378 4.81152 12.107 4.81152C5.47626 4.81152 0.103638 10.0175 0.103638 16.3729C0.103512 17.9124 0.425514 19.435 1.04895 20.8427C2.87836 18.9232 7.13736 17.563 12.1121 17.563Z" fill="#1473B2"/>
<path d="M12.1121 17.5815C17.0767 17.5815 21.3237 18.9281 23.1481 20.8357C23.7697 19.439 24.0901 17.927 24.0883 16.3982C24.0883 10.0973 18.7241 4.92188 12.1104 4.92188C5.49661 4.92188 0.139282 10.1024 0.139282 16.4016C0.139797 17.93 0.461275 19.4412 1.0829 20.8374C2.90211 18.9298 7.1543 17.5833 12.1104 17.5833" fill="#1775B2"/>
<path d="M12.1122 17.5935C17.0649 17.5935 21.2933 18.9299 23.121 20.8239C23.7407 19.4392 24.0605 17.9391 24.0595 16.4221C24.0595 10.1756 18.7073 5.03076 12.1122 5.03076C5.51718 5.03076 0.171753 10.1858 0.171753 16.4323C0.172451 17.9488 0.492819 19.4481 1.11196 20.8324C2.92947 18.9401 7.16807 17.602 12.1122 17.602" fill="#1A78B5"/>
<path d="M12.1019 17.6071C17.041 17.6071 21.266 18.9316 23.0818 20.8069C23.6992 19.4343 24.0169 17.9458 24.0135 16.4408C24.0135 10.247 18.6766 5.12256 12.0968 5.12256C5.51706 5.12256 0.195435 10.2521 0.195435 16.4459C0.195218 17.9499 0.515749 19.4366 1.13564 20.8069C2.94806 18.9367 7.17645 17.6071 12.1053 17.6071" fill="#1C7AB5"/>
<path d="M12.1021 17.619C17.0326 17.619 21.2423 18.9316 23.0513 20.7899C23.6707 19.4316 23.9902 17.9558 23.9881 16.4629C23.9881 10.3235 18.6648 5.2229 12.1021 5.2229C5.5393 5.2229 0.22278 10.3235 0.22278 16.4663C0.221831 17.9591 0.541292 19.4346 1.15959 20.7933C2.9669 18.9333 7.18339 17.6224 12.1004 17.6224" fill="#1C7DB8"/>
<path d="M12.1003 17.6327C17.0138 17.6327 21.2167 18.935 23.0223 20.778C23.6385 19.432 23.9569 17.9688 23.9557 16.4885C23.9557 10.4 18.6443 5.32495 12.1003 5.32495C5.55621 5.32495 0.251587 10.4034 0.251587 16.4885C0.251702 17.9689 0.570635 19.4319 1.1867 20.778C2.99061 18.935 7.1986 17.6327 12.1003 17.6327Z" fill="#1F80B8"/>
<path d="M12.0985 17.6444C17.0001 17.6444 21.1928 18.9348 22.9933 20.7608C23.6077 19.4281 23.925 17.9778 23.9233 16.5103C23.9233 10.4746 18.6289 5.42676 12.0985 5.42676C5.56801 5.42676 0.280396 10.478 0.280396 16.5121C0.28106 17.9797 0.59949 19.4297 1.2138 20.7625C3.01261 18.9365 7.2087 17.6461 12.0951 17.6461" fill="#2182BA"/>
<path d="M12.095 17.658C16.9814 17.658 21.1638 18.9366 22.9593 20.7473C23.5724 19.4268 23.8898 17.9884 23.8893 16.5325C23.8893 10.5495 18.6067 5.5271 12.0967 5.5271C5.58663 5.5271 0.310913 10.5529 0.310913 16.5427C0.310729 17.998 0.628115 19.4358 1.24092 20.7558C3.03293 18.9451 7.21882 17.6665 12.095 17.6665" fill="#2485BA"/>
<path d="M12.0951 17.6699C16.9696 17.6699 21.1402 18.9366 22.9305 20.7303C23.5429 19.4223 23.8592 17.9954 23.8571 16.5512C23.8571 10.6226 18.5865 5.62744 12.0968 5.62744C5.60719 5.62744 0.341675 10.626 0.341675 16.5529C0.343021 17.9966 0.660457 19.4224 1.27168 20.7303C3.05859 18.9349 7.23428 17.6699 12.0985 17.6699" fill="#298ABD"/>
<path d="M12.0934 17.6836C16.9543 17.6836 21.113 18.9383 22.8999 20.7184C23.5094 19.4229 23.8247 18.0085 23.8231 16.5768C23.8231 10.6992 18.5712 5.7312 12.0917 5.7312C5.61226 5.7312 0.360352 10.7043 0.360352 16.5768C0.360679 18.0085 0.676468 19.4226 1.28526 20.7184C3.07047 18.9383 7.23595 17.6836 12.0832 17.6836" fill="#2B8CBF"/>
<path d="M12.0918 17.6955C16.9408 17.6955 21.0892 18.9401 22.8711 20.7032C23.4782 19.4202 23.7924 18.0183 23.7909 16.5989C23.7909 10.7757 18.5525 5.83325 12.0918 5.83325C5.63104 5.83325 0.397827 10.7791 0.397827 16.5989C0.398707 18.0184 0.713993 19.42 1.32103 20.7032C3.10114 18.9401 7.25472 17.6955 12.0901 17.6955" fill="#2E8FBF"/>
<path d="M12.09 17.7092C16.9254 17.7092 21.0636 18.9418 22.8404 20.6896C23.4467 19.4191 23.761 18.0289 23.7602 16.621C23.7602 10.8506 18.5355 5.9353 12.09 5.9353C5.64455 5.9353 0.428345 10.8557 0.428345 16.6245C0.428624 18.0311 0.742867 19.4199 1.34815 20.6896C3.12146 18.9418 7.26484 17.7092 12.09 17.7092Z" fill="#2E91C2"/>
<path d="M12.0883 17.7211C16.9118 17.7211 21.0382 18.9418 22.8098 20.6726C23.4144 19.4155 23.7276 18.0382 23.7262 16.6432C23.7262 10.9271 18.5134 6.03564 12.0883 6.03564C5.66328 6.03564 0.457275 10.9322 0.457275 16.6432C0.457874 18.0383 0.772228 19.4154 1.37708 20.6726C3.14698 18.9418 7.27847 17.7211 12.0883 17.7211Z" fill="#3394C2"/>
<path d="M12.0865 17.733C16.8964 17.733 21.0126 18.9436 22.7791 20.6574C23.3835 19.4129 23.6969 18.0471 23.6955 16.6636C23.6955 11.0003 18.498 6.13599 12.0882 6.13599C5.6785 6.13599 0.487794 11.002 0.487794 16.6653C0.48718 18.0489 0.79929 19.4148 1.4008 20.6608C3.16731 18.9453 7.28518 17.7364 12.0848 17.7364" fill="#3396C2"/>
<path d="M12.085 17.7484C16.8813 17.7484 20.9873 18.9385 22.747 20.6387C23.3498 19.4077 23.6622 18.0547 23.66 16.684C23.66 11.0734 18.4778 6.23462 12.0833 6.23462C5.68887 6.23462 0.521973 11.0734 0.521973 16.684C0.523032 18.0548 0.836437 19.4072 1.43838 20.6387C3.19809 18.9385 7.30577 17.7484 12.0918 17.7484" fill="#3699C4"/>
<path d="M12.0832 17.7601C16.8693 17.7601 20.9634 18.9502 22.718 20.6317C23.3192 19.4129 23.6311 18.0718 23.6293 16.7128C23.6293 11.1531 18.4607 6.34155 12.0832 6.34155C5.70578 6.34155 0.550781 11.1548 0.550781 16.7128C0.551732 18.0684 0.862261 19.4059 1.45869 20.6232C3.21329 18.9383 7.31247 17.7516 12.0832 17.7516" fill="#389CC7"/>
<path d="M12.0815 17.7737C16.854 17.7737 20.9362 18.9503 22.6857 20.6165C23.2852 19.4104 23.5972 18.0818 23.597 16.7349C23.597 11.228 18.4403 6.4436 12.0815 6.4436C5.72278 6.4436 0.574585 11.2314 0.574585 16.7349C0.574642 18.0839 0.886526 19.4147 1.48589 20.6233C3.23709 18.9571 7.32267 17.7805 12.0832 17.7805" fill="#3DA1C9"/>
<path d="M12.0816 17.7874C16.8421 17.7874 20.9226 18.9503 22.6568 20.6012C23.2554 19.4082 23.5663 18.0917 23.5647 16.757C23.5647 11.3045 18.4233 6.54395 12.0816 6.54395C5.73982 6.54395 0.605225 11.3045 0.605225 16.757C0.606147 18.0912 0.916332 19.4071 1.51143 20.6012C3.25923 18.9503 7.33461 17.7874 12.0816 17.7874Z" fill="#40A3C9"/>
<path d="M12.0781 17.7993C16.8234 17.7993 20.8869 18.9503 22.6194 20.5876C23.2148 19.4064 23.5246 18.1019 23.5239 16.7792C23.5239 11.3793 18.3978 6.64429 12.0714 6.64429C5.74492 6.64429 0.627319 11.3793 0.627319 16.7792C0.62771 18.1018 0.937459 19.406 1.53182 20.5876C3.27452 18.952 7.3397 17.7993 12.073 17.7993" fill="#42A6CC"/>
<path d="M12.0781 17.8112C16.8115 17.8112 20.8613 18.952 22.5972 20.5689C23.1916 19.4015 23.5005 18.1096 23.4983 16.7996C23.4983 11.4525 18.3858 6.74292 12.0781 6.74292C5.77038 6.74292 0.666382 11.4525 0.666382 16.7979C0.665995 18.1083 0.974726 19.4003 1.56749 20.5689C3.30339 18.9503 7.35836 17.8112 12.0781 17.8112Z" fill="#45A8CC"/>
<path d="M12.0747 17.8246C16.7962 17.8246 20.8341 18.9518 22.5666 20.5568C23.1602 19.3995 23.4686 18.117 23.4661 16.8164C23.4661 11.5219 18.3655 6.8396 12.0747 6.8396C5.78399 6.8396 0.691897 11.5236 0.691897 16.8164C0.690913 18.1168 0.999196 19.3989 1.5913 20.5568C3.3238 18.9518 7.37198 17.8246 12.073 17.8246" fill="#47ABCF"/>
<path d="M12.0747 17.8383C16.7826 17.8383 20.8121 18.9553 22.5361 20.5433C23.1279 19.4011 23.4364 18.1334 23.4355 16.847C23.4355 11.6053 18.3502 6.9502 12.0747 6.9502C5.79932 6.9502 0.720825 11.6121 0.720825 16.8454C0.722229 18.1314 1.03057 19.3986 1.62023 20.5416C3.34423 18.9553 7.3771 17.8366 12.073 17.8366" fill="#4AADD1"/>
<path d="M12.0731 17.8502C16.7673 17.8502 20.7849 18.957 22.5055 20.528C23.0961 19.3995 23.4041 18.1446 23.4032 16.8709C23.4032 11.6819 18.3298 7.05054 12.0731 7.05054C5.81635 7.05054 0.751465 11.6819 0.751465 16.8675C0.752962 18.142 1.06085 19.3974 1.64917 20.528C3.36977 18.957 7.39244 17.8502 12.0731 17.8502Z" fill="#4AB0D1"/>
<path d="M12.0713 17.8638C16.7519 17.8638 20.761 18.957 22.4765 20.5144C23.065 19.3945 23.3713 18.1479 23.3691 16.8828C23.3691 11.7482 18.311 7.14404 12.0713 7.14404C5.83157 7.14404 0.781982 11.7482 0.781982 16.8811C0.783083 18.1438 1.08993 19.3875 1.67629 20.5059C3.39349 18.9485 7.40256 17.8553 12.0713 17.8553" fill="#4FB2D4"/>
<path d="M12.0696 17.8758C16.7366 17.8758 20.7406 18.9588 22.4408 20.4992C23.0283 19.3954 23.3348 18.1639 23.3334 16.9135C23.3334 11.8299 18.2889 7.25293 12.0662 7.25293C5.84348 7.25293 0.807495 11.8299 0.807495 16.9118C0.80858 18.1622 1.11437 19.3935 1.6984 20.4992C3.4122 18.9588 7.41106 17.8758 12.0696 17.8758Z" fill="#54BAD6"/>
<path d="M12.068 17.8892C16.7231 17.8892 20.7101 18.9603 22.412 20.4837C22.9978 19.3934 23.3039 18.1748 23.3029 16.9371C23.3029 11.9079 18.2737 7.35645 12.068 7.35645C5.86226 7.35645 0.84668 11.9079 0.84668 16.9371C0.847342 18.1749 1.15273 19.3935 1.73589 20.4854C3.43608 18.9552 7.43325 17.8909 12.0748 17.8909" fill="#54BDD6"/>
<path d="M12.0662 17.9028C16.7077 17.9028 20.6845 18.962 22.3847 20.4701C22.9682 19.3919 23.2738 18.1852 23.2739 16.9592C23.2739 11.981 18.2583 7.45679 12.0679 7.45679C5.87744 7.45679 0.870361 11.981 0.870361 16.9558C0.871678 18.1825 1.17658 19.3898 1.75786 20.4701C3.45806 18.962 7.43822 17.9028 12.0679 17.9028" fill="#59BFD9"/>
<path d="M12.0646 17.915C16.6942 17.915 20.6574 18.9623 22.3525 20.4551C22.9345 19.3899 23.2392 18.1954 23.2383 16.9816C23.2383 12.051 18.2363 7.55908 12.0629 7.55908C5.88945 7.55908 0.890869 12.0578 0.890869 16.9782C0.89136 18.1927 1.19526 19.3879 1.77497 20.4551C3.47517 18.9623 7.44003 17.915 12.0561 17.915" fill="#59C2D9"/>
<path d="M12.0644 17.9439C16.6856 17.9439 20.647 18.9861 22.3404 20.467C22.9209 19.4092 23.225 18.2221 23.2245 17.0156C23.2245 12.1241 18.2294 7.65088 12.0644 7.65088C5.89953 7.65088 0.914551 12.1224 0.914551 17.0139C0.916562 18.2206 1.22049 19.4077 1.79865 20.467C3.49885 18.9861 7.45691 17.9439 12.0661 17.9439" fill="#5EC2DB"/>
<path d="M12.0646 17.9725C16.6807 17.9725 20.6353 19.008 22.3236 20.4786C22.9045 19.429 23.2088 18.2489 23.2077 17.0493C23.2077 12.1884 18.2211 7.74243 12.0646 7.74243C5.90823 7.74243 0.928345 12.1901 0.928345 17.0476C0.930705 18.2471 1.23411 19.4268 1.81075 20.4786C3.51095 19.008 7.46051 17.9725 12.0646 17.9725Z" fill="#63C4DB"/>
<path d="M12.0646 18.0015C16.6755 18.0015 20.6234 19.0301 22.3117 20.4922C22.8893 19.4519 23.193 18.2818 23.1941 17.0919C23.1941 12.2633 18.2125 7.84277 12.0646 7.84277C5.91669 7.84277 0.945312 12.2633 0.945312 17.0901C0.948054 18.2797 1.25097 19.4493 1.82601 20.4905C3.51771 19.0301 7.46897 17.9998 12.0646 17.9998" fill="#69C7DE"/>
<path d="M12.0646 18.0303C16.6687 18.0303 20.6132 19.0504 22.2964 20.5058C22.8735 19.4715 23.1767 18.3069 23.1771 17.1224C23.1771 12.3245 18.2023 7.93115 12.0629 7.93115C5.92344 7.93115 0.958862 12.3262 0.958862 17.1122C0.959913 18.298 1.26239 19.464 1.83787 20.5007C3.52786 19.0471 7.47232 18.0252 12.0629 18.0252" fill="#6EC9DE"/>
<path d="M12.0645 18.0595C16.6551 18.0595 20.6012 19.0796 22.2827 20.5179C22.8591 19.4913 23.1623 18.334 23.1634 17.1567C23.1634 12.3961 18.1954 8.02319 12.0645 8.02319C5.93361 8.02319 0.97583 12.3927 0.97583 17.155C0.978606 18.3329 1.2811 19.4908 1.85483 20.5196C3.54143 19.0745 7.48079 18.0612 12.0662 18.0612" fill="#73CCE0"/>
<path d="M12.0647 18.0901C16.6553 18.0901 20.5878 19.0983 22.2659 20.5315C22.8407 19.5124 23.1434 18.3624 23.1449 17.1924C23.1449 12.459 18.182 8.1167 12.0613 8.1167C5.94061 8.1167 0.989624 12.4624 0.989624 17.1907C0.99209 18.3611 1.29474 19.5114 1.86863 20.5315C3.55183 19.0983 7.47928 18.0901 12.0698 18.0901" fill="#7ACFE0"/>
<path d="M12.0646 18.1188C16.6551 18.1188 20.5775 19.1202 22.2556 20.5449C22.8294 19.5341 23.1317 18.3919 23.1329 17.2296C23.1329 12.5285 18.1785 8.21851 12.0646 8.21851C5.95068 8.21851 1.01331 12.5353 1.01331 17.2296C1.01645 18.392 1.31794 19.5341 1.88891 20.5466C3.5704 19.1219 7.49956 18.1205 12.0731 18.1205" fill="#80CFE3"/>
<path d="M12.0646 18.1476C16.6432 18.1476 20.5656 19.1422 22.2403 20.5568C22.8128 19.5541 23.1151 18.4199 23.1176 17.2652C23.1176 12.5948 18.1683 8.30518 12.0663 8.30518C5.96429 8.30518 1.01501 12.5948 1.01501 17.2601C1.01799 18.4161 1.31961 19.5517 1.89062 20.5568C3.56871 19.1422 7.50127 18.1476 12.0612 18.1476" fill="#85D1E3"/>
<path d="M12.0646 18.1767C16.6381 18.1767 20.5537 19.1646 22.2267 20.5689C22.7983 19.5734 23.1002 18.4458 23.1023 17.2977C23.1023 12.6596 18.1615 8.39551 12.0646 8.39551C5.96767 8.39551 1.0354 12.6596 1.0354 17.2943C1.03817 18.4434 1.33992 19.5719 1.911 20.5689C3.5857 19.1646 7.50636 18.1767 12.0663 18.1767" fill="#8AD4E5"/>
<path d="M12.0645 18.2057C16.6296 18.2057 20.5434 19.1867 22.213 20.586C22.7838 19.5987 23.0858 18.479 23.0886 17.3386C23.0886 12.7328 18.158 8.49756 12.0645 8.49756C5.97102 8.49756 1.04895 12.7362 1.04895 17.3386C1.05253 18.479 1.35313 19.5988 1.92115 20.5877C3.59585 19.1918 7.5114 18.2074 12.0645 18.2074" fill="#8FD6E5"/>
<path d="M12.0645 18.2345C16.6244 18.2345 20.5315 19.2087 22.1994 20.5927C22.7698 19.6116 23.0708 18.4972 23.0716 17.3623C23.0716 12.7871 18.141 8.57739 12.0645 8.57739C5.98797 8.57739 1.06079 12.8024 1.06079 17.3674C1.06388 18.5017 1.364 19.6155 1.93129 20.5978C3.60259 19.2121 7.51134 18.2379 12.0594 18.2379" fill="#94D6E8"/>
<path d="M12.0645 18.2634C16.6176 18.2634 20.5195 19.2309 22.1857 20.6046C22.7536 19.6331 23.0539 18.5285 23.0562 17.4031C23.0562 12.8602 18.1342 8.67603 12.0645 8.67603C5.99475 8.67603 1.08118 12.8619 1.08118 17.4014C1.08422 18.5278 1.38324 19.6336 1.94828 20.608C3.61787 19.2325 7.52153 18.2651 12.0645 18.2651" fill="#99D9E8"/>
<path d="M12.0645 18.2923C16.6126 18.2923 20.5077 19.2529 22.1722 20.6182C22.739 19.6543 23.0394 18.557 23.0427 17.4388C23.0427 12.9265 18.1274 8.76782 12.0645 8.76782C6.00162 8.76782 1.09485 12.9282 1.09485 17.4388C1.09852 18.5584 1.39825 19.657 1.96365 20.6233C3.62984 19.2631 7.5284 18.2974 12.0645 18.2974" fill="#9EDBE8"/>
<path d="M12.0646 18.3212C16.6058 18.3212 20.4976 19.275 22.157 20.6301C22.7233 19.674 23.0238 18.584 23.0275 17.4728C23.0275 12.9962 18.119 8.86133 12.0663 8.86133C6.01361 8.86133 1.11194 12.9962 1.11194 17.4711C1.11597 18.5829 1.41521 19.6736 1.97904 20.6318C3.64013 19.2716 7.53699 18.3212 12.0663 18.3212" fill="#A3DEEB"/>
<path d="M12.0644 18.3518C16.6006 18.3518 20.4872 19.3005 22.1432 20.6437C22.7079 19.6957 23.0079 18.6136 23.012 17.5102C23.012 13.0625 18.1103 8.95654 12.0644 8.95654C6.01854 8.95654 1.12537 13.0642 1.12537 17.5085C1.13033 18.6124 1.42902 19.6951 1.99077 20.6454C3.65186 19.2988 7.54361 18.3518 12.0644 18.3518Z" fill="#A8DEED"/>
<path d="M12.0645 18.3807C16.5921 18.3807 20.4737 19.3226 22.1297 20.6556C22.6929 19.7152 22.9925 18.6404 22.9968 17.5442C22.9968 13.1237 18.1019 9.04321 12.0645 9.04321C6.02712 9.04321 1.14075 13.1237 1.14075 17.5442C1.14486 18.6413 1.44375 19.717 2.00615 20.659C3.66554 19.3226 7.54879 18.3824 12.0645 18.3807Z" fill="#B0E3ED"/>
<path d="M12.0646 18.4131C16.5871 18.4131 20.4619 19.3482 22.1162 20.6726C22.6776 19.7402 22.9766 18.6734 22.9816 17.5851C22.9816 13.2002 18.0935 9.14697 12.0646 9.14697C6.03569 9.14697 1.15442 13.2036 1.15442 17.5817C1.15981 18.6713 1.45813 19.7395 2.01812 20.6743C3.67412 19.3482 7.55397 18.4148 12.0646 18.4131Z" fill="#B5E3ED"/>
<path d="M12.0646 18.4385C16.5804 18.4385 20.4517 19.3669 22.0958 20.6811C22.6555 19.7579 22.9546 18.7003 22.9612 17.6207C22.9612 13.2665 18.0765 9.23877 12.0578 9.23877C6.03913 9.23877 1.16296 13.2699 1.16296 17.6173C1.16911 18.6965 1.46696 19.754 2.02497 20.6777C3.67926 19.3617 7.55401 18.4351 12.0561 18.4334" fill="#BAE5F0"/>
<path d="M12.0646 18.4674C16.5752 18.4674 20.4397 19.3889 22.0957 20.6947C22.6547 19.7776 22.9528 18.7253 22.9577 17.6513C22.9577 13.3311 18.0833 9.32886 12.0765 9.32886C6.06966 9.32886 1.19519 13.3328 1.19519 17.6496C1.19766 18.7234 1.49146 19.7764 2.04529 20.6964C3.69788 19.3906 7.56583 18.4691 12.0646 18.4691" fill="#BFE8F2"/>
<path d="M12.0646 18.4963C16.5684 18.4963 20.4279 19.4127 22.0719 20.7066C22.6314 19.7977 22.9302 18.7526 22.9356 17.6853C22.9356 13.3957 18.0663 9.42236 12.0646 9.42236C6.06288 9.42236 1.19861 13.4008 1.19861 17.6853C1.20556 18.7524 1.50297 19.7974 2.05891 20.7083C3.7098 19.411 7.57435 18.498 12.0646 18.498" fill="#C4E8F2"/>
<path d="M12.0645 18.5252C16.5633 18.5252 20.4159 19.4331 22.06 20.7185C22.6176 19.8176 22.9159 18.7804 22.922 17.721C22.922 13.4705 18.0594 9.51416 12.0645 9.51416C6.06964 9.51416 1.21558 13.4654 1.21558 17.721C1.21965 18.7796 1.51366 19.8169 2.06568 20.7202C3.71317 19.4331 7.57262 18.5252 12.056 18.5252" fill="#C9EBF2"/>
<path d="M12.0645 18.5541C16.5547 18.5541 20.4057 19.4535 22.0464 20.7321C22.5978 19.8373 22.892 18.8078 22.8965 17.7567C22.8965 13.5317 18.0407 9.60767 12.056 9.60767C6.0713 9.60767 1.23083 13.5334 1.23083 17.755C1.23568 18.8071 1.52977 19.8376 2.08093 20.7338C3.72673 19.4552 7.58108 18.5558 12.0594 18.5541" fill="#CFEDF5"/>
<path d="M12.0646 18.583C16.5497 18.583 20.3955 19.4773 22.0328 20.744C22.5839 19.8577 22.8782 18.836 22.8829 17.7924C22.8829 13.5963 18.0323 9.69946 12.0578 9.69946C6.08329 9.69946 1.24792 13.6014 1.24792 17.7907C1.25314 18.8358 1.54736 19.8591 2.09802 20.7473C3.74042 19.479 7.58966 18.5864 12.0629 18.5847" fill="#D4F0F5"/>
<path d="M12.0645 18.6136C16.5411 18.6136 20.3819 19.5011 22.0175 20.7576C22.5677 19.8791 22.8621 18.8646 22.8675 17.8281C22.8675 13.6677 18.0254 9.79468 12.0577 9.79468C6.08999 9.79468 1.25293 13.6677 1.25293 17.8264C1.25746 18.8641 1.5519 19.88 2.10303 20.7593C3.74032 19.5011 7.58617 18.6153 12.0526 18.6136" fill="#D9F2F5"/>
<path d="M12.0646 18.6425C16.5378 18.6425 20.3717 19.5232 22.0039 20.7712C22.5541 19.9015 22.8487 18.8946 22.854 17.8655C22.854 13.7357 18.017 9.88818 12.0578 9.88818C6.09858 9.88818 1.27002 13.7357 1.27002 17.8621C1.27568 18.8928 1.5702 19.9012 2.12012 20.7729C3.75911 19.5249 7.59646 18.6442 12.0561 18.6442" fill="#DEF2F7"/>
<path d="M12.0646 18.6714C16.531 18.6714 20.3598 19.5453 21.9903 20.783C22.5401 19.9188 22.8348 18.9169 22.8404 17.8927C22.8404 13.7969 18.0119 9.97485 12.0612 9.97485C6.11048 9.97485 1.29211 13.802 1.29211 17.9029C1.29886 18.927 1.59344 19.9285 2.14221 20.7932C3.7761 19.5538 7.61005 18.6816 12.0629 18.6799" fill="#E5F5FA"/>
<path d="M12.0645 18.7003C16.5241 18.7003 20.3479 19.5674 21.975 20.7949C22.5235 19.9408 22.8183 18.9486 22.8251 17.9335C22.8251 13.8683 18.0016 10.0735 12.0611 10.0735C6.12061 10.0735 1.30225 13.87 1.30225 17.9318C1.30992 18.9478 1.60461 19.9409 2.15235 20.7966C3.78454 19.5674 7.61338 18.7003 12.0611 18.7003" fill="#EBF7FA"/>
<path d="M12.0646 18.7292C16.5174 18.7292 20.3361 19.5912 21.9614 20.8068C22.5092 19.9605 22.8041 18.9755 22.8115 17.9675C22.8115 13.9329 17.9949 10.1653 12.0612 10.1653C6.1275 10.1653 1.31934 13.9346 1.31934 17.9658C1.32784 18.9747 1.62263 19.9606 2.16944 20.8085C3.79822 19.5895 7.62367 18.7292 12.0646 18.7275" fill="#F0FAFC"/>
<path d="M12.0646 18.753C16.5106 18.753 20.3258 19.6031 21.9478 20.8136C22.4937 19.9759 22.7886 18.9996 22.7979 17.9998C22.7979 13.9975 17.988 10.2554 12.0629 10.2554C6.13766 10.2554 1.3363 13.9958 1.3363 17.9964C1.34581 18.9983 1.6407 19.9767 2.1864 20.817C3.81349 19.6065 7.62704 18.753 12.068 18.753" fill="#F5FAFC"/>
<path d="M12.0646 18.7872C16.5038 18.7872 20.3139 19.6373 21.9359 20.8274C22.4812 19.9964 22.7763 19.0262 22.786 18.0323C22.786 14.0623 17.9847 10.3457 12.0748 10.3457C6.16489 10.3457 1.36353 14.064 1.36353 18.0306C1.37311 19.0251 1.66818 19.9958 2.21362 20.8274C3.83901 19.6271 7.65426 18.7872 12.0748 18.7872" fill="#FAFCFF"/>
<path d="M12.0646 18.8159C16.5004 18.8159 20.3021 19.6575 21.9257 20.8459C22.4701 20.0233 22.7653 19.061 22.7758 18.0746C22.7758 14.1335 17.9796 10.4441 12.0646 10.4441C6.14961 10.4441 1.36865 14.1386 1.36865 18.0729C1.37737 19.0606 1.6727 20.0245 2.21875 20.8476C3.84074 19.6575 7.64748 18.8176 12.0697 18.8159" fill="white"/>
</g>
<path d="M12.0118 14.8887C8.13197 14.8887 4.53095 15.5483 1.5675 16.6637C2.46869 18.6802 3.93438 20.3926 5.78759 21.5943C7.6408 22.7959 9.80227 23.4354 12.011 23.4354C14.2197 23.4354 16.3811 22.7959 18.2344 21.5943C20.0876 20.3926 21.5533 18.6802 22.4544 16.6637C19.4842 15.5483 15.8815 14.8887 12.0118 14.8887Z" fill="#0869AB"/>
</g>
<defs>
<clipPath id="clip0_45_4223">
<rect width="24" height="24" fill="white"/>
</clipPath>
</defs>
</svg>
